<?xml version="1.0" encoding="UTF-8" standalone="no"?>
<!DOCTYPE svg PUBLIC "-//W3C//DTD SVG 1.1//EN"
 "http://www.w3.org/Graphics/SVG/1.1/DTD/svg11.dtd">
<!-- Generated by graphviz version 2.43.0 (0)
 -->
<!-- Title: include/_boost_config.h Pages: 1 -->
<svg width="1830pt" height="565pt"
 viewBox="0.00 0.00 1829.50 565.00" xmlns="http://www.w3.org/2000/svg" xmlns:xlink="http://www.w3.org/1999/xlink">
<g id="graph0" class="graph" transform="scale(1 1) rotate(0) translate(4 561)">
<title>include/_boost_config.h</title>
<polygon fill="white" stroke="transparent" points="-4,4 -4,-561 1825.5,-561 1825.5,4 -4,4"/>
<!-- Node1 -->
<g id="node1" class="node">
<title>Node1</title>
<g id="a_node1"><a xlink:title="Boost Configurations.">
<polygon fill="#bfbfbf" stroke="black" points="1410.5,-537.5 1410.5,-556.5 1541.5,-556.5 1541.5,-537.5 1410.5,-537.5"/>
<text text-anchor="middle" x="1476" y="-544.5" font-family="Helvetica,sans-Serif" font-size="10.00">include/_boost_config.h</text>
</a>
</g>
</g>
<!-- Node2 -->
<g id="node2" class="node">
<title>Node2</title>
<g id="a_node2"><a xlink:href="export_8h.html" target="_top" xlink:title="Export mmCEsim Configuration to Other Programming Languages.">
<polygon fill="white" stroke="black" points="233.5,-56.5 233.5,-75.5 328.5,-75.5 328.5,-56.5 233.5,-56.5"/>
<text text-anchor="middle" x="281" y="-63.5" font-family="Helvetica,sans-Serif" font-size="10.00">include/export.h</text>
</a>
</g>
</g>
<!-- Node1&#45;&gt;Node2 -->
<g id="edge1" class="edge">
<title>Node1&#45;&gt;Node2</title>
<path fill="none" stroke="midnightblue" d="M1399.78,-544.35C1097.58,-537.32 0,-506.91 0,-436 0,-436 0,-436 0,-177 0,-140.28 19.68,-131.17 51,-112 107.22,-77.58 184.39,-68.71 233.48,-66.83"/>
<polygon fill="midnightblue" stroke="midnightblue" points="1400.12,-547.86 1410.19,-544.59 1400.28,-540.86 1400.12,-547.86"/>
</g>
<!-- Node4 -->
<g id="node4" class="node">
<title>Node4</title>
<g id="a_node4"><a xlink:href="src_2main_8cpp.html" target="_top" xlink:title="Program Command Line Options.">
<polygon fill="white" stroke="black" points="1285.5,-0.5 1285.5,-19.5 1364.5,-19.5 1364.5,-0.5 1285.5,-0.5"/>
<text text-anchor="middle" x="1325" y="-7.5" font-family="Helvetica,sans-Serif" font-size="10.00">src/main.cpp</text>
</a>
</g>
</g>
<!-- Node1&#45;&gt;Node4 -->
<g id="edge63" class="edge">
<title>Node1&#45;&gt;Node4</title>
<path fill="none" stroke="midnightblue" d="M1513.4,-533.94C1553.66,-518.33 1612,-486.92 1612,-436 1612,-436 1612,-436 1612,-121 1612,-87.08 1600,-75.14 1572,-56 1538.9,-33.37 1425.78,-20.02 1364.77,-14.31"/>
<polygon fill="midnightblue" stroke="midnightblue" points="1512.01,-530.72 1503.85,-537.48 1514.44,-537.28 1512.01,-530.72"/>
</g>
<!-- Node5 -->
<g id="node5" class="node">
<title>Node5</title>
<g id="a_node5"><a xlink:href="alg_8h.html" target="_top" xlink:title="Algorithm Parser (.alg Language)">
<polygon fill="white" stroke="black" points="434.5,-112.5 434.5,-131.5 547.5,-131.5 547.5,-112.5 434.5,-112.5"/>
<text text-anchor="middle" x="491" y="-119.5" font-family="Helvetica,sans-Serif" font-size="10.00">include/export/alg.h</text>
</a>
</g>
</g>
<!-- Node1&#45;&gt;Node5 -->
<g id="edge4" class="edge">
<title>Node1&#45;&gt;Node5</title>
<path fill="none" stroke="midnightblue" d="M1445.91,-533.35C1408.33,-516.64 1343.24,-484.65 1296,-445 1228.26,-388.15 1236.94,-348.78 1170,-291 1126.09,-253.1 1112.04,-245.07 1058,-224 964.96,-187.72 671.91,-146.57 547.62,-130.23"/>
<polygon fill="midnightblue" stroke="midnightblue" points="1444.72,-536.65 1455.29,-537.45 1447.53,-530.24 1444.72,-536.65"/>
</g>
<!-- Node7 -->
<g id="node7" class="node">
<title>Node7</title>
<g id="a_node7"><a xlink:href="calc_8h.html" target="_top" xlink:title="Make Calculation in Alg.">
<polygon fill="white" stroke="black" points="218,-168.5 218,-187.5 336,-187.5 336,-168.5 218,-168.5"/>
<text text-anchor="middle" x="277" y="-175.5" font-family="Helvetica,sans-Serif" font-size="10.00">include/export/calc.h</text>
</a>
</g>
</g>
<!-- Node1&#45;&gt;Node7 -->
<g id="edge7" class="edge">
<title>Node1&#45;&gt;Node7</title>
<path fill="none" stroke="midnightblue" d="M1400.01,-544.23C1161.09,-538.02 427.52,-513.68 201,-445 142.67,-427.32 77.24,-416.3 95,-358 115.91,-289.37 130.93,-271.15 185,-224 204.3,-207.17 230.99,-195.04 250.66,-187.64"/>
<polygon fill="midnightblue" stroke="midnightblue" points="1400.25,-547.74 1410.34,-544.5 1400.43,-540.74 1400.25,-547.74"/>
</g>
<!-- Node9 -->
<g id="node9" class="node">
<title>Node9</title>
<g id="a_node9"><a xlink:href="simulate_8h.html" target="_top" xlink:title="Simulate Generated Code.">
<polygon fill="white" stroke="black" points="1321.5,-230 1321.5,-249 1428.5,-249 1428.5,-230 1321.5,-230"/>
<text text-anchor="middle" x="1375" y="-237" font-family="Helvetica,sans-Serif" font-size="10.00">include/simulate.h</text>
</a>
</g>
</g>
<!-- Node1&#45;&gt;Node9 -->
<g id="edge10" class="edge">
<title>Node1&#45;&gt;Node9</title>
<path fill="none" stroke="midnightblue" d="M1472,-527.29C1464.5,-493.18 1447.13,-418.76 1426,-358 1411.46,-316.2 1388.71,-268.39 1379.3,-249.17"/>
<polygon fill="midnightblue" stroke="midnightblue" points="1468.62,-528.21 1474.16,-537.24 1475.46,-526.73 1468.62,-528.21"/>
</g>
<!-- Node11 -->
<g id="node11" class="node">
<title>Node11</title>
<g id="a_node11"><a xlink:href="style_8h.html" target="_top" xlink:title="Format Output File.">
<polygon fill="white" stroke="black" points="1468,-112.5 1468,-131.5 1556,-131.5 1556,-112.5 1468,-112.5"/>
<text text-anchor="middle" x="1512" y="-119.5" font-family="Helvetica,sans-Serif" font-size="10.00">include/style.h</text>
</a>
</g>
</g>
<!-- Node1&#45;&gt;Node11 -->
<g id="edge13" class="edge">
<title>Node1&#45;&gt;Node11</title>
<path fill="none" stroke="midnightblue" d="M1490.79,-529.7C1507.68,-509.34 1533,-472.7 1533,-436 1533,-436 1533,-436 1533,-238.5 1533,-197.94 1520.31,-150.65 1514.66,-131.6"/>
<polygon fill="midnightblue" stroke="midnightblue" points="1488.05,-527.52 1484.17,-537.38 1493.35,-532.1 1488.05,-527.52"/>
</g>
<!-- Node13 -->
<g id="node13" class="node">
<title>Node13</title>
<g id="a_node13"><a xlink:href="utils_8h.html" target="_top" xlink:title="Utilities.">
<polygon fill="white" stroke="black" points="753.5,-481.5 753.5,-500.5 838.5,-500.5 838.5,-481.5 753.5,-481.5"/>
<text text-anchor="middle" x="796" y="-488.5" font-family="Helvetica,sans-Serif" font-size="10.00">include/utils.h</text>
</a>
</g>
</g>
<!-- Node1&#45;&gt;Node13 -->
<g id="edge16" class="edge">
<title>Node1&#45;&gt;Node13</title>
<path fill="none" stroke="midnightblue" d="M1400.47,-540C1257.37,-528.64 950.97,-504.31 838.52,-495.38"/>
<polygon fill="midnightblue" stroke="midnightblue" points="1400.24,-543.5 1410.49,-540.8 1400.8,-536.52 1400.24,-543.5"/>
</g>
<!-- Node34 -->
<g id="node34" class="node">
<title>Node34</title>
<g id="a_node34"><a xlink:href="tools_2log_2log_8cpp.html" target="_top" xlink:title="mmCEsim Log Tool">
<polygon fill="white" stroke="black" points="1320.5,-364 1320.5,-383 1417.5,-383 1417.5,-364 1320.5,-364"/>
<text text-anchor="middle" x="1369" y="-371" font-family="Helvetica,sans-Serif" font-size="10.00">tools/log/log.cpp</text>
</a>
</g>
</g>
<!-- Node1&#45;&gt;Node34 -->
<g id="edge64" class="edge">
<title>Node1&#45;&gt;Node34</title>
<path fill="none" stroke="midnightblue" d="M1465.23,-528.74C1442.64,-492.53 1391.01,-409.78 1374.32,-383.02"/>
<polygon fill="midnightblue" stroke="midnightblue" points="1462.28,-530.63 1470.55,-537.26 1468.22,-526.92 1462.28,-530.63"/>
</g>
<!-- Node35 -->
<g id="node35" class="node">
<title>Node35</title>
<g id="a_node35"><a xlink:href="maintain_8cpp.html" target="_top" xlink:title="mmCEsim Maintainence Tool">
<polygon fill="white" stroke="black" points="1657,-425.5 1657,-444.5 1811,-444.5 1811,-425.5 1657,-425.5"/>
<text text-anchor="middle" x="1734" y="-432.5" font-family="Helvetica,sans-Serif" font-size="10.00">tools/maintain/maintain.cpp</text>
</a>
</g>
</g>
<!-- Node1&#45;&gt;Node35 -->
<g id="edge65" class="edge">
<title>Node1&#45;&gt;Node35</title>
<path fill="none" stroke="midnightblue" d="M1523.73,-534.95C1553.76,-527.2 1592.94,-515.63 1626,-501 1662.82,-484.71 1702.51,-458.26 1721.91,-444.67"/>
<polygon fill="midnightblue" stroke="midnightblue" points="1522.76,-531.58 1513.92,-537.42 1524.47,-538.37 1522.76,-531.58"/>
</g>
<!-- Node36 -->
<g id="node36" class="node">
<title>Node36</title>
<g id="a_node36"><a xlink:href="maintain_8h.html" target="_top" xlink:title="mmCEsim Maintainence Functions">
<polygon fill="white" stroke="black" points="1678.5,-481.5 1678.5,-500.5 1821.5,-500.5 1821.5,-481.5 1678.5,-481.5"/>
<text text-anchor="middle" x="1750" y="-488.5" font-family="Helvetica,sans-Serif" font-size="10.00">tools/maintain/maintain.h</text>
</a>
</g>
</g>
<!-- Node1&#45;&gt;Node36 -->
<g id="edge66" class="edge">
<title>Node1&#45;&gt;Node36</title>
<path fill="none" stroke="midnightblue" d="M1529.41,-535.47C1581.2,-525.27 1658.77,-509.98 1706.79,-500.52"/>
<polygon fill="midnightblue" stroke="midnightblue" points="1528.55,-532.08 1519.42,-537.44 1529.9,-538.94 1528.55,-532.08"/>
</g>
<!-- Node3 -->
<g id="node3" class="node">
<title>Node3</title>
<g id="a_node3"><a xlink:href="export_8cpp.html" target="_top" xlink:title="Implementation of Export Class.">
<polygon fill="white" stroke="black" points="238,-0.5 238,-19.5 324,-19.5 324,-0.5 238,-0.5"/>
<text text-anchor="middle" x="281" y="-7.5" font-family="Helvetica,sans-Serif" font-size="10.00">src/export.cpp</text>
</a>
</g>
</g>
<!-- Node2&#45;&gt;Node3 -->
<g id="edge2" class="edge">
<title>Node2&#45;&gt;Node3</title>
<path fill="none" stroke="midnightblue" d="M281,-45.8C281,-36.91 281,-26.78 281,-19.75"/>
<polygon fill="midnightblue" stroke="midnightblue" points="277.5,-46.08 281,-56.08 284.5,-46.08 277.5,-46.08"/>
</g>
<!-- Node2&#45;&gt;Node4 -->
<g id="edge3" class="edge">
<title>Node2&#45;&gt;Node4</title>
<path fill="none" stroke="midnightblue" d="M338.9,-61.37C366.49,-59.67 399.94,-57.66 430,-56 760.49,-37.71 1159.8,-18.74 1285.29,-12.85"/>
<polygon fill="midnightblue" stroke="midnightblue" points="338.4,-57.89 328.64,-62 338.83,-64.88 338.4,-57.89"/>
</g>
<!-- Node5&#45;&gt;Node2 -->
<g id="edge5" class="edge">
<title>Node5&#45;&gt;Node2</title>
<path fill="none" stroke="midnightblue" d="M447.81,-109.89C408.15,-99.7 350.23,-84.8 314.12,-75.52"/>
<polygon fill="midnightblue" stroke="midnightblue" points="447.17,-113.34 457.72,-112.44 448.91,-106.56 447.17,-113.34"/>
</g>
<!-- Node6 -->
<g id="node6" class="node">
<title>Node6</title>
<g id="a_node6"><a xlink:href="alg_8cpp.html" target="_top" xlink:title="Implementation of class Alg.">
<polygon fill="white" stroke="black" points="439,-56.5 439,-75.5 543,-75.5 543,-56.5 439,-56.5"/>
<text text-anchor="middle" x="491" y="-63.5" font-family="Helvetica,sans-Serif" font-size="10.00">src/export/alg.cpp</text>
</a>
</g>
</g>
<!-- Node5&#45;&gt;Node6 -->
<g id="edge6" class="edge">
<title>Node5&#45;&gt;Node6</title>
<path fill="none" stroke="midnightblue" d="M491,-101.8C491,-92.91 491,-82.78 491,-75.75"/>
<polygon fill="midnightblue" stroke="midnightblue" points="487.5,-102.08 491,-112.08 494.5,-102.08 487.5,-102.08"/>
</g>
<!-- Node7&#45;&gt;Node5 -->
<g id="edge8" class="edge">
<title>Node7&#45;&gt;Node5</title>
<path fill="none" stroke="midnightblue" d="M320.76,-165.96C361.17,-155.76 420.37,-140.82 457.25,-131.52"/>
<polygon fill="midnightblue" stroke="midnightblue" points="319.75,-162.6 310.91,-168.44 321.46,-169.39 319.75,-162.6"/>
</g>
<!-- Node8 -->
<g id="node8" class="node">
<title>Node8</title>
<g id="a_node8"><a xlink:href="calc_8cpp.html" target="_top" xlink:title="Implementation of Calc Class.">
<polygon fill="white" stroke="black" points="223,-112.5 223,-131.5 331,-131.5 331,-112.5 223,-112.5"/>
<text text-anchor="middle" x="277" y="-119.5" font-family="Helvetica,sans-Serif" font-size="10.00">src/export/calc.cpp</text>
</a>
</g>
</g>
<!-- Node7&#45;&gt;Node8 -->
<g id="edge9" class="edge">
<title>Node7&#45;&gt;Node8</title>
<path fill="none" stroke="midnightblue" d="M277,-157.8C277,-148.91 277,-138.78 277,-131.75"/>
<polygon fill="midnightblue" stroke="midnightblue" points="273.5,-158.08 277,-168.08 280.5,-158.08 273.5,-158.08"/>
</g>
<!-- Node9&#45;&gt;Node4 -->
<g id="edge11" class="edge">
<title>Node9&#45;&gt;Node4</title>
<path fill="none" stroke="midnightblue" d="M1386.46,-221.38C1394.52,-207.28 1403.18,-186.66 1399,-168 1385.44,-107.43 1345.79,-42.68 1330.81,-19.7"/>
<polygon fill="midnightblue" stroke="midnightblue" points="1383.42,-219.64 1381.15,-229.99 1389.38,-223.32 1383.42,-219.64"/>
</g>
<!-- Node10 -->
<g id="node10" class="node">
<title>Node10</title>
<g id="a_node10"><a xlink:href="simulate_8cpp.html" target="_top" xlink:title="Implementation of Simulate Class.">
<polygon fill="white" stroke="black" points="1293.5,-168.5 1293.5,-187.5 1390.5,-187.5 1390.5,-168.5 1293.5,-168.5"/>
<text text-anchor="middle" x="1342" y="-175.5" font-family="Helvetica,sans-Serif" font-size="10.00">src/simulate.cpp</text>
</a>
</g>
</g>
<!-- Node9&#45;&gt;Node10 -->
<g id="edge12" class="edge">
<title>Node9&#45;&gt;Node10</title>
<path fill="none" stroke="midnightblue" d="M1365.39,-221.17C1359.25,-210.11 1351.57,-196.25 1346.72,-187.51"/>
<polygon fill="midnightblue" stroke="midnightblue" points="1362.36,-222.93 1370.27,-229.98 1368.48,-219.53 1362.36,-222.93"/>
</g>
<!-- Node11&#45;&gt;Node4 -->
<g id="edge14" class="edge">
<title>Node11&#45;&gt;Node4</title>
<path fill="none" stroke="midnightblue" d="M1533.3,-105.96C1549.96,-92.38 1568.26,-72.1 1555,-56 1531.34,-27.26 1423.97,-16.61 1364.67,-12.88"/>
<polygon fill="midnightblue" stroke="midnightblue" points="1530.72,-103.53 1524.92,-112.4 1534.98,-109.09 1530.72,-103.53"/>
</g>
<!-- Node12 -->
<g id="node12" class="node">
<title>Node12</title>
<g id="a_node12"><a xlink:href="style_8cpp.html" target="_top" xlink:title="Implementation of Style class.">
<polygon fill="white" stroke="black" points="1468,-56.5 1468,-75.5 1546,-75.5 1546,-56.5 1468,-56.5"/>
<text text-anchor="middle" x="1507" y="-63.5" font-family="Helvetica,sans-Serif" font-size="10.00">src/style.cpp</text>
</a>
</g>
</g>
<!-- Node11&#45;&gt;Node12 -->
<g id="edge15" class="edge">
<title>Node11&#45;&gt;Node12</title>
<path fill="none" stroke="midnightblue" d="M1510.25,-102.1C1509.42,-93.14 1508.47,-82.86 1507.81,-75.75"/>
<polygon fill="midnightblue" stroke="midnightblue" points="1506.77,-102.45 1511.17,-112.08 1513.74,-101.8 1506.77,-102.45"/>
</g>
<!-- Node13&#45;&gt;Node2 -->
<g id="edge21" class="edge">
<title>Node13&#45;&gt;Node2</title>
<path fill="none" stroke="midnightblue" d="M743.12,-488.76C617.1,-485.36 302.05,-474.14 201,-445 109.93,-418.74 38,-402.28 38,-307.5 38,-307.5 38,-307.5 38,-177 38,-92.14 162.51,-72.4 233.28,-68.04"/>
<polygon fill="midnightblue" stroke="midnightblue" points="743.2,-492.26 753.29,-489.03 743.39,-485.27 743.2,-492.26"/>
</g>
<!-- Node13&#45;&gt;Node4 -->
<g id="edge60" class="edge">
<title>Node13&#45;&gt;Node4</title>
<path fill="none" stroke="midnightblue" d="M848.76,-481.44C896.8,-473.3 969.54,-460.07 1032,-445 1117.99,-424.25 1140.02,-419.66 1223,-389 1291.11,-363.84 1312.55,-363.69 1372,-322 1405.97,-298.18 1421.41,-293.45 1437,-255 1442.18,-242.23 1439.24,-237.59 1437,-224 1423.99,-145.17 1419.82,-120.74 1373,-56 1362.56,-41.56 1347.02,-28.01 1336.47,-19.63"/>
<polygon fill="midnightblue" stroke="midnightblue" points="848.18,-477.99 838.9,-483.1 849.34,-484.9 848.18,-477.99"/>
</g>
<!-- Node13&#45;&gt;Node5 -->
<g id="edge22" class="edge">
<title>Node13&#45;&gt;Node5</title>
<path fill="none" stroke="midnightblue" d="M743.02,-487.3C625.65,-479.87 354,-454.09 354,-374.5 354,-374.5 354,-374.5 354,-305.5 354,-268.31 353.69,-255.79 373,-224 399.18,-180.9 450.08,-146.88 475.61,-131.66"/>
<polygon fill="midnightblue" stroke="midnightblue" points="743.02,-490.81 753.22,-487.92 743.45,-483.82 743.02,-490.81"/>
</g>
<!-- Node13&#45;&gt;Node7 -->
<g id="edge26" class="edge">
<title>Node13&#45;&gt;Node7</title>
<path fill="none" stroke="midnightblue" d="M743.13,-489.61C634.22,-488.09 388.77,-480.66 314,-445 265.21,-421.73 268,-395.43 229,-358 211.74,-341.44 198.73,-343.85 189,-322 170.91,-281.39 182.52,-259.71 209,-224 221.31,-207.4 241.7,-195.1 256.94,-187.59"/>
<polygon fill="midnightblue" stroke="midnightblue" points="743.19,-493.11 753.24,-489.74 743.28,-486.11 743.19,-493.11"/>
</g>
<!-- Node13&#45;&gt;Node9 -->
<g id="edge58" class="edge">
<title>Node13&#45;&gt;Node9</title>
<path fill="none" stroke="midnightblue" d="M847.25,-479.33C885.91,-470.94 940.11,-458.46 987,-445 1007.42,-439.14 1334.12,-337.16 1349,-322 1368.97,-301.65 1373.61,-265.98 1374.68,-249.42"/>
<polygon fill="midnightblue" stroke="midnightblue" points="846.32,-475.95 837.28,-481.48 847.79,-482.79 846.32,-475.95"/>
</g>
<!-- Node13&#45;&gt;Node11 -->
<g id="edge59" class="edge">
<title>Node13&#45;&gt;Node11</title>
<path fill="none" stroke="midnightblue" d="M849.13,-488.86C987.94,-485.49 1353.95,-473.92 1400,-445 1513.78,-373.54 1513.84,-175.63 1512.39,-131.71"/>
<polygon fill="midnightblue" stroke="midnightblue" points="848.67,-485.37 838.75,-489.11 848.83,-492.37 848.67,-485.37"/>
</g>
<!-- Node14 -->
<g id="node14" class="node">
<title>Node14</title>
<g id="a_node14"><a xlink:href="config_8h.html" target="_top" xlink:title="Read and Write User Configuration.">
<polygon fill="white" stroke="black" points="1218.5,-297 1218.5,-316 1311.5,-316 1311.5,-297 1218.5,-297"/>
<text text-anchor="middle" x="1265" y="-304" font-family="Helvetica,sans-Serif" font-size="10.00">include/config.h</text>
</a>
</g>
</g>
<!-- Node13&#45;&gt;Node14 -->
<g id="edge17" class="edge">
<title>Node13&#45;&gt;Node14</title>
<path fill="none" stroke="midnightblue" d="M838.64,-478.75C869.13,-470.35 910.97,-458.11 947,-445 1064.01,-402.44 1199.71,-338.81 1247.37,-316.01"/>
<polygon fill="midnightblue" stroke="midnightblue" points="837.49,-475.43 828.76,-481.44 839.33,-482.19 837.49,-475.43"/>
</g>
<!-- Node16 -->
<g id="node16" class="node">
<title>Node16</title>
<g id="a_node16"><a xlink:href="alg__line_8h.html" target="_top" xlink:title="Parse Line of Alg.">
<polygon fill="white" stroke="black" points="431,-291.5 431,-321.5 535,-321.5 535,-291.5 431,-291.5"/>
<text text-anchor="start" x="439" y="-309.5" font-family="Helvetica,sans-Serif" font-size="10.00">include/export/alg</text>
<text text-anchor="middle" x="483" y="-298.5" font-family="Helvetica,sans-Serif" font-size="10.00">_line.h</text>
</a>
</g>
</g>
<!-- Node13&#45;&gt;Node16 -->
<g id="edge23" class="edge">
<title>Node13&#45;&gt;Node16</title>
<path fill="none" stroke="midnightblue" d="M777.85,-474.6C745.95,-448.11 677.05,-393.34 612,-358 584.74,-343.19 552.2,-330.48 526.62,-321.52"/>
<polygon fill="midnightblue" stroke="midnightblue" points="775.91,-477.55 785.83,-481.29 780.41,-472.18 775.91,-477.55"/>
</g>
<!-- Node18 -->
<g id="node18" class="node">
<title>Node18</title>
<g id="a_node18"><a xlink:href="channel__graph_8h.html" target="_top" xlink:title="Graph Analysis for Complex Cascaded Channels.">
<polygon fill="white" stroke="black" points="198,-291.5 198,-321.5 326,-321.5 326,-291.5 198,-291.5"/>
<text text-anchor="start" x="206" y="-309.5" font-family="Helvetica,sans-Serif" font-size="10.00">include/export/channel</text>
<text text-anchor="middle" x="262" y="-298.5" font-family="Helvetica,sans-Serif" font-size="10.00">_graph.h</text>
</a>
</g>
</g>
<!-- Node13&#45;&gt;Node18 -->
<g id="edge27" class="edge">
<title>Node13&#45;&gt;Node18</title>
<path fill="none" stroke="midnightblue" d="M743.32,-490.75C637.87,-491.3 405.35,-487.49 340,-445 294.9,-415.67 273.14,-350.65 265.41,-321.79"/>
<polygon fill="midnightblue" stroke="midnightblue" points="743.45,-494.25 753.42,-490.68 743.4,-487.25 743.45,-494.25"/>
</g>
<!-- Node20 -->
<g id="node20" class="node">
<title>Node20</title>
<g id="a_node20"><a xlink:href="functions_8h.html" target="_top" xlink:title="Function Lists.">
<polygon fill="white" stroke="black" points="460.5,-364 460.5,-383 603.5,-383 603.5,-364 460.5,-364"/>
<text text-anchor="middle" x="532" y="-371" font-family="Helvetica,sans-Serif" font-size="10.00">include/export/functions.h</text>
</a>
</g>
</g>
<!-- Node13&#45;&gt;Node20 -->
<g id="edge30" class="edge">
<title>Node13&#45;&gt;Node20</title>
<path fill="none" stroke="midnightblue" d="M745.93,-479.04C715.42,-471.45 676.07,-460.01 643,-445 603.92,-427.27 562.37,-397.56 543.06,-383.03"/>
<polygon fill="midnightblue" stroke="midnightblue" points="745.38,-482.51 755.92,-481.47 747.03,-475.7 745.38,-482.51"/>
</g>
<!-- Node21 -->
<g id="node21" class="node">
<title>Node21</title>
<g id="a_node21"><a xlink:href="macro_8h.html" target="_top" xlink:title="ALG Macro.">
<polygon fill="white" stroke="black" points="731.5,-297 731.5,-316 860.5,-316 860.5,-297 731.5,-297"/>
<text text-anchor="middle" x="796" y="-304" font-family="Helvetica,sans-Serif" font-size="10.00">include/export/macro.h</text>
</a>
</g>
</g>
<!-- Node13&#45;&gt;Node21 -->
<g id="edge32" class="edge">
<title>Node13&#45;&gt;Node21</title>
<path fill="none" stroke="midnightblue" d="M796,-470.72C796,-431.56 796,-344.09 796,-316.21"/>
<polygon fill="midnightblue" stroke="midnightblue" points="792.5,-471.2 796,-481.2 799.5,-471.2 792.5,-471.2"/>
</g>
<!-- Node23 -->
<g id="node23" class="node">
<title>Node23</title>
<g id="a_node23"><a xlink:href="value__vec_8h.html" target="_top" xlink:title=" ">
<polygon fill="white" stroke="black" points="104,-358.5 104,-388.5 220,-388.5 220,-358.5 104,-358.5"/>
<text text-anchor="start" x="112" y="-376.5" font-family="Helvetica,sans-Serif" font-size="10.00">include/export/value</text>
<text text-anchor="middle" x="162" y="-365.5" font-family="Helvetica,sans-Serif" font-size="10.00">_vec.h</text>
</a>
</g>
</g>
<!-- Node13&#45;&gt;Node23 -->
<g id="edge35" class="edge">
<title>Node13&#45;&gt;Node23</title>
<path fill="none" stroke="midnightblue" d="M743.3,-490.31C621.47,-490.3 323.91,-485.95 234,-445 206.78,-432.6 183.8,-405.31 171.54,-388.55"/>
<polygon fill="midnightblue" stroke="midnightblue" points="743.5,-493.81 753.49,-490.3 743.49,-486.81 743.5,-493.81"/>
</g>
<!-- Node24 -->
<g id="node24" class="node">
<title>Node24</title>
<g id="a_node24"><a xlink:href="include_2log_8h.html" target="_top" xlink:title="Log Utilities.">
<polygon fill="white" stroke="black" points="859.5,-425.5 859.5,-444.5 938.5,-444.5 938.5,-425.5 859.5,-425.5"/>
<text text-anchor="middle" x="899" y="-432.5" font-family="Helvetica,sans-Serif" font-size="10.00">include/log.h</text>
</a>
</g>
</g>
<!-- Node13&#45;&gt;Node24 -->
<g id="edge37" class="edge">
<title>Node13&#45;&gt;Node24</title>
<path fill="none" stroke="midnightblue" d="M821.58,-476.59C840.62,-466.61 866.06,-453.27 882.49,-444.65"/>
<polygon fill="midnightblue" stroke="midnightblue" points="819.78,-473.58 812.55,-481.32 823.03,-479.78 819.78,-473.58"/>
</g>
<!-- Node33 -->
<g id="node33" class="node">
<title>Node33</title>
<g id="a_node33"><a xlink:href="tools_2log_2log_8h.html" target="_top" xlink:title="mmCEsim Log Tool">
<polygon fill="white" stroke="black" points="1305,-425.5 1305,-444.5 1391,-444.5 1391,-425.5 1305,-425.5"/>
<text text-anchor="middle" x="1348" y="-432.5" font-family="Helvetica,sans-Serif" font-size="10.00">tools/log/log.h</text>
</a>
</g>
</g>
<!-- Node13&#45;&gt;Node33 -->
<g id="edge61" class="edge">
<title>Node13&#45;&gt;Node33</title>
<path fill="none" stroke="midnightblue" d="M848.84,-486.35C939.49,-479.82 1130.42,-464.95 1291,-445 1295.47,-444.44 1300.14,-443.81 1304.78,-443.13"/>
<polygon fill="midnightblue" stroke="midnightblue" points="848.53,-482.86 838.81,-487.06 849.03,-489.84 848.53,-482.86"/>
</g>
<!-- Node14&#45;&gt;Node4 -->
<g id="edge20" class="edge">
<title>Node14&#45;&gt;Node4</title>
<path fill="none" stroke="midnightblue" d="M1268.07,-286.99C1269.62,-277.45 1271.49,-265.61 1273,-255 1278.49,-216.41 1276.62,-206.27 1284,-168 1295.05,-110.74 1315.04,-43.43 1322.28,-19.76"/>
<polygon fill="midnightblue" stroke="midnightblue" points="1264.61,-286.5 1266.44,-296.93 1271.52,-287.63 1264.61,-286.5"/>
</g>
<!-- Node14&#45;&gt;Node9 -->
<g id="edge18" class="edge">
<title>Node14&#45;&gt;Node9</title>
<path fill="none" stroke="midnightblue" d="M1288.5,-291.62C1310.29,-278.74 1342.04,-259.98 1360.4,-249.13"/>
<polygon fill="midnightblue" stroke="midnightblue" points="1286.66,-288.63 1279.84,-296.73 1290.22,-294.66 1286.66,-288.63"/>
</g>
<!-- Node15 -->
<g id="node15" class="node">
<title>Node15</title>
<g id="a_node15"><a xlink:href="config_8cpp.html" target="_top" xlink:title="Implementation of Config Class.">
<polygon fill="white" stroke="black" points="1181.5,-230 1181.5,-249 1264.5,-249 1264.5,-230 1181.5,-230"/>
<text text-anchor="middle" x="1223" y="-237" font-family="Helvetica,sans-Serif" font-size="10.00">src/config.cpp</text>
</a>
</g>
</g>
<!-- Node14&#45;&gt;Node15 -->
<g id="edge19" class="edge">
<title>Node14&#45;&gt;Node15</title>
<path fill="none" stroke="midnightblue" d="M1253.71,-288.03C1245.58,-275.45 1234.96,-259.01 1228.57,-249.13"/>
<polygon fill="midnightblue" stroke="midnightblue" points="1250.97,-290.23 1259.34,-296.73 1256.85,-286.44 1250.97,-290.23"/>
</g>
<!-- Node16&#45;&gt;Node5 -->
<g id="edge24" class="edge">
<title>Node16&#45;&gt;Node5</title>
<path fill="none" stroke="midnightblue" d="M502.71,-283.3C508.85,-275.01 514.83,-265.13 518,-255 532.17,-209.68 506.89,-153.23 495.81,-131.8"/>
<polygon fill="midnightblue" stroke="midnightblue" points="499.82,-281.31 496.36,-291.32 505.31,-285.65 499.82,-281.31"/>
</g>
<!-- Node17 -->
<g id="node17" class="node">
<title>Node17</title>
<g id="a_node17"><a xlink:href="alg__line_8cpp.html" target="_top" xlink:title="Implementation of Alg_Line Class.">
<polygon fill="white" stroke="black" points="382.5,-230 382.5,-249 509.5,-249 509.5,-230 382.5,-230"/>
<text text-anchor="middle" x="446" y="-237" font-family="Helvetica,sans-Serif" font-size="10.00">src/export/alg_line.cpp</text>
</a>
</g>
</g>
<!-- Node16&#45;&gt;Node17 -->
<g id="edge25" class="edge">
<title>Node16&#45;&gt;Node17</title>
<path fill="none" stroke="midnightblue" d="M469.98,-282.63C463.4,-271.07 455.8,-257.71 450.95,-249.19"/>
<polygon fill="midnightblue" stroke="midnightblue" points="466.98,-284.44 474.97,-291.4 473.07,-280.97 466.98,-284.44"/>
</g>
<!-- Node18&#45;&gt;Node2 -->
<g id="edge28" class="edge">
<title>Node18&#45;&gt;Node2</title>
<path fill="none" stroke="midnightblue" d="M232.52,-285.11C223.19,-276.94 214.01,-266.68 209,-255 193.77,-219.46 207.28,-206.63 209,-168 210.11,-143.04 201.28,-133.51 214,-112 224.13,-94.88 243.64,-82.9 259,-75.64"/>
<polygon fill="midnightblue" stroke="midnightblue" points="230.34,-287.85 240.3,-291.47 234.77,-282.43 230.34,-287.85"/>
</g>
<!-- Node19 -->
<g id="node19" class="node">
<title>Node19</title>
<g id="a_node19"><a xlink:href="channel__graph_8cpp.html" target="_top" xlink:title="Implementation of Channel_Graph Class.">
<polygon fill="white" stroke="black" points="218.5,-224.5 218.5,-254.5 325.5,-254.5 325.5,-224.5 218.5,-224.5"/>
<text text-anchor="start" x="226.5" y="-242.5" font-family="Helvetica,sans-Serif" font-size="10.00">src/export/channel</text>
<text text-anchor="middle" x="272" y="-231.5" font-family="Helvetica,sans-Serif" font-size="10.00">_graph.cpp</text>
</a>
</g>
</g>
<!-- Node18&#45;&gt;Node19 -->
<g id="edge29" class="edge">
<title>Node18&#45;&gt;Node19</title>
<path fill="none" stroke="midnightblue" d="M265.71,-281.4C267.1,-272.37 268.63,-262.41 269.83,-254.58"/>
<polygon fill="midnightblue" stroke="midnightblue" points="262.23,-280.98 264.17,-291.4 269.15,-282.04 262.23,-280.98"/>
</g>
<!-- Node20&#45;&gt;Node16 -->
<g id="edge31" class="edge">
<title>Node20&#45;&gt;Node16</title>
<path fill="none" stroke="midnightblue" d="M519.31,-355.67C511.34,-345.09 501.17,-331.6 493.62,-321.59"/>
<polygon fill="midnightblue" stroke="midnightblue" points="516.58,-357.86 525.39,-363.73 522.17,-353.64 516.58,-357.86"/>
</g>
<!-- Node21&#45;&gt;Node5 -->
<g id="edge33" class="edge">
<title>Node21&#45;&gt;Node5</title>
<path fill="none" stroke="midnightblue" d="M820.96,-291.38C846.27,-275.24 879.29,-247.96 861,-224 823.06,-174.32 641.76,-143.19 547.78,-130.12"/>
<polygon fill="midnightblue" stroke="midnightblue" points="818.81,-288.59 812.1,-296.79 822.46,-294.57 818.81,-288.59"/>
</g>
<!-- Node22 -->
<g id="node22" class="node">
<title>Node22</title>
<g id="a_node22"><a xlink:href="macro_8cpp.html" target="_top" xlink:title="Implementation of Macro class.">
<polygon fill="white" stroke="black" points="604.5,-230 604.5,-249 723.5,-249 723.5,-230 604.5,-230"/>
<text text-anchor="middle" x="664" y="-237" font-family="Helvetica,sans-Serif" font-size="10.00">src/export/macro.cpp</text>
</a>
</g>
</g>
<!-- Node21&#45;&gt;Node22 -->
<g id="edge34" class="edge">
<title>Node21&#45;&gt;Node22</title>
<path fill="none" stroke="midnightblue" d="M769.49,-292.44C743.34,-279.57 704.12,-260.26 681.6,-249.17"/>
<polygon fill="midnightblue" stroke="midnightblue" points="767.95,-295.59 778.47,-296.87 771.05,-289.31 767.95,-295.59"/>
</g>
<!-- Node23&#45;&gt;Node2 -->
<g id="edge36" class="edge">
<title>Node23&#45;&gt;Node2</title>
<path fill="none" stroke="midnightblue" d="M137.1,-351.4C111.7,-327.39 76,-285.61 76,-240.5 76,-240.5 76,-240.5 76,-177 76,-105.91 172.89,-80.58 233.45,-71.69"/>
<polygon fill="midnightblue" stroke="midnightblue" points="134.86,-354.1 144.6,-358.27 139.58,-348.93 134.86,-354.1"/>
</g>
<!-- Node25 -->
<g id="node25" class="node">
<title>Node25</title>
<g id="a_node25"><a xlink:href="log__global_8h.html" target="_top" xlink:title="Global Access of Log.">
<polygon fill="white" stroke="black" points="877,-364 877,-383 991,-383 991,-364 877,-364"/>
<text text-anchor="middle" x="934" y="-371" font-family="Helvetica,sans-Serif" font-size="10.00">include/log_global.h</text>
</a>
</g>
</g>
<!-- Node24&#45;&gt;Node25 -->
<g id="edge38" class="edge">
<title>Node24&#45;&gt;Node25</title>
<path fill="none" stroke="midnightblue" d="M909.19,-416.67C915.7,-405.61 923.85,-391.75 928.99,-383.01"/>
<polygon fill="midnightblue" stroke="midnightblue" points="906.07,-415.08 904.01,-425.48 912.1,-418.63 906.07,-415.08"/>
</g>
<!-- Node25&#45;&gt;Node4 -->
<g id="edge56" class="edge">
<title>Node25&#45;&gt;Node4</title>
<path fill="none" stroke="midnightblue" d="M964.8,-359.89C984.93,-350.89 1011.24,-337.63 1032,-322 1164.73,-222.03 1289.51,-58.9 1318.63,-19.68"/>
<polygon fill="midnightblue" stroke="midnightblue" points="963.24,-356.76 955.47,-363.96 966.03,-363.17 963.24,-356.76"/>
</g>
<!-- Node25&#45;&gt;Node7 -->
<g id="edge48" class="edge">
<title>Node25&#45;&gt;Node7</title>
<path fill="none" stroke="midnightblue" d="M875.12,-362C832.03,-353.47 772.51,-339.91 722,-322 627.2,-288.38 613.6,-255.28 518,-224 457.52,-204.21 385.49,-192.19 336.02,-185.61"/>
<polygon fill="midnightblue" stroke="midnightblue" points="874.67,-365.47 885.16,-363.95 876.01,-358.6 874.67,-365.47"/>
</g>
<!-- Node25&#45;&gt;Node9 -->
<g id="edge55" class="edge">
<title>Node25&#45;&gt;Node9</title>
<path fill="none" stroke="midnightblue" d="M1001.13,-366.73C1104.48,-357.41 1293.47,-338.4 1320,-322 1348.31,-304.5 1365.41,-266.37 1371.94,-249.2"/>
<polygon fill="midnightblue" stroke="midnightblue" points="1000.75,-363.25 991.1,-367.63 1001.38,-370.23 1000.75,-363.25"/>
</g>
<!-- Node25&#45;&gt;Node14 -->
<g id="edge39" class="edge">
<title>Node25&#45;&gt;Node14</title>
<path fill="none" stroke="midnightblue" d="M987.68,-361.96C1052.83,-349.16 1161.4,-327.84 1221.55,-316.03"/>
<polygon fill="midnightblue" stroke="midnightblue" points="986.75,-358.57 977.61,-363.94 988.1,-365.44 986.75,-358.57"/>
</g>
<!-- Node25&#45;&gt;Node16 -->
<g id="edge47" class="edge">
<title>Node25&#45;&gt;Node16</title>
<path fill="none" stroke="midnightblue" d="M866.64,-365.44C789.57,-356.95 659.73,-341.39 549,-322 544.49,-321.21 539.83,-320.33 535.16,-319.39"/>
<polygon fill="midnightblue" stroke="midnightblue" points="866.37,-368.93 876.69,-366.54 867.13,-361.97 866.37,-368.93"/>
</g>
<!-- Node25&#45;&gt;Node18 -->
<g id="edge49" class="edge">
<title>Node25&#45;&gt;Node18</title>
<path fill="none" stroke="midnightblue" d="M866.79,-366C736.97,-353.44 453.31,-326 326.04,-313.69"/>
<polygon fill="midnightblue" stroke="midnightblue" points="866.7,-369.51 877,-366.99 867.38,-362.54 866.7,-369.51"/>
</g>
<!-- Node25&#45;&gt;Node21 -->
<g id="edge50" class="edge">
<title>Node25&#45;&gt;Node21</title>
<path fill="none" stroke="midnightblue" d="M906.28,-359.44C878.95,-346.57 837.95,-327.26 814.4,-316.17"/>
<polygon fill="midnightblue" stroke="midnightblue" points="905.14,-362.77 915.67,-363.87 908.12,-356.44 905.14,-362.77"/>
</g>
<!-- Node26 -->
<g id="node26" class="node">
<title>Node26</title>
<g id="a_node26"><a xlink:href="error__code_8h.html" target="_top" xlink:title="Error Codes (Including Warnings)">
<polygon fill="white" stroke="black" points="1019,-168.5 1019,-187.5 1135,-187.5 1135,-168.5 1019,-168.5"/>
<text text-anchor="middle" x="1077" y="-175.5" font-family="Helvetica,sans-Serif" font-size="10.00">include/error_code.h</text>
</a>
</g>
</g>
<!-- Node25&#45;&gt;Node26 -->
<g id="edge40" class="edge">
<title>Node25&#45;&gt;Node26</title>
<path fill="none" stroke="midnightblue" d="M956.5,-358.14C985.14,-338.55 1033.8,-300.63 1058,-255 1069.85,-232.65 1074.51,-202.66 1076.17,-187.93"/>
<polygon fill="midnightblue" stroke="midnightblue" points="954.33,-355.38 947.96,-363.84 958.22,-361.2 954.33,-355.38"/>
</g>
<!-- Node29 -->
<g id="node29" class="node">
<title>Node29</title>
<g id="a_node29"><a xlink:href="type__track_8h.html" target="_top" xlink:title="Track data type of variables.">
<polygon fill="white" stroke="black" points="878.5,-291.5 878.5,-321.5 989.5,-321.5 989.5,-291.5 878.5,-291.5"/>
<text text-anchor="start" x="886.5" y="-309.5" font-family="Helvetica,sans-Serif" font-size="10.00">include/export/type</text>
<text text-anchor="middle" x="934" y="-298.5" font-family="Helvetica,sans-Serif" font-size="10.00">_track.h</text>
</a>
</g>
</g>
<!-- Node25&#45;&gt;Node29 -->
<g id="edge51" class="edge">
<title>Node25&#45;&gt;Node29</title>
<path fill="none" stroke="midnightblue" d="M934,-353.41C934,-343.22 934,-330.9 934,-321.59"/>
<polygon fill="midnightblue" stroke="midnightblue" points="930.5,-353.73 934,-363.73 937.5,-353.73 930.5,-353.73"/>
</g>
<!-- Node32 -->
<g id="node32" class="node">
<title>Node32</title>
<g id="a_node32"><a xlink:href="term_8cpp.html" target="_top" xlink:title="Implementation of Term Class and Color/Style Definitions.">
<polygon fill="white" stroke="black" points="1084.5,-297 1084.5,-316 1161.5,-316 1161.5,-297 1084.5,-297"/>
<text text-anchor="middle" x="1123" y="-304" font-family="Helvetica,sans-Serif" font-size="10.00">src/term.cpp</text>
</a>
</g>
</g>
<!-- Node25&#45;&gt;Node32 -->
<g id="edge57" class="edge">
<title>Node25&#45;&gt;Node32</title>
<path fill="none" stroke="midnightblue" d="M968.6,-360.6C1006.07,-347.71 1064.93,-327.47 1098.1,-316.06"/>
<polygon fill="midnightblue" stroke="midnightblue" points="967.42,-357.31 959.1,-363.87 969.69,-363.93 967.42,-357.31"/>
</g>
<!-- Node26&#45;&gt;Node2 -->
<g id="edge41" class="edge">
<title>Node26&#45;&gt;Node2</title>
<path fill="none" stroke="midnightblue" d="M1008.74,-167.57C850.98,-145.77 464.3,-92.33 328.83,-73.61"/>
<polygon fill="midnightblue" stroke="midnightblue" points="1008.41,-171.05 1018.79,-168.96 1009.36,-164.12 1008.41,-171.05"/>
</g>
<!-- Node26&#45;&gt;Node4 -->
<g id="edge46" class="edge">
<title>Node26&#45;&gt;Node4</title>
<path fill="none" stroke="midnightblue" d="M1082.79,-158.78C1092.23,-132.04 1113.56,-82.51 1149,-56 1189.03,-26.06 1246.96,-15.94 1285.28,-12.58"/>
<polygon fill="midnightblue" stroke="midnightblue" points="1079.42,-157.81 1079.55,-168.41 1086.05,-160.04 1079.42,-157.81"/>
</g>
<!-- Node26&#45;&gt;Node11 -->
<g id="edge45" class="edge">
<title>Node26&#45;&gt;Node11</title>
<path fill="none" stroke="midnightblue" d="M1145.35,-168.52C1235.59,-157.31 1391.92,-137.91 1467.95,-128.47"/>
<polygon fill="midnightblue" stroke="midnightblue" points="1144.71,-165.07 1135.21,-169.77 1145.57,-172.01 1144.71,-165.07"/>
</g>
<!-- Node27 -->
<g id="node27" class="node">
<title>Node27</title>
<g id="a_node27"><a xlink:href="read_8h.html" target="_top" xlink:title="Read YAML Configuration.">
<polygon fill="white" stroke="black" points="885,-112.5 885,-131.5 971,-131.5 971,-112.5 885,-112.5"/>
<text text-anchor="middle" x="928" y="-119.5" font-family="Helvetica,sans-Serif" font-size="10.00">include/read.h</text>
</a>
</g>
</g>
<!-- Node26&#45;&gt;Node27 -->
<g id="edge42" class="edge">
<title>Node26&#45;&gt;Node27</title>
<path fill="none" stroke="midnightblue" d="M1043.63,-164.91C1015.62,-154.75 976.3,-140.51 951.5,-131.52"/>
<polygon fill="midnightblue" stroke="midnightblue" points="1042.8,-168.33 1053.39,-168.44 1045.18,-161.75 1042.8,-168.33"/>
</g>
<!-- Node27&#45;&gt;Node2 -->
<g id="edge43" class="edge">
<title>Node27&#45;&gt;Node2</title>
<path fill="none" stroke="midnightblue" d="M874.82,-116.56C751.29,-106.25 446.55,-80.82 328.65,-70.98"/>
<polygon fill="midnightblue" stroke="midnightblue" points="874.54,-120.05 884.8,-117.39 875.12,-113.07 874.54,-120.05"/>
</g>
<!-- Node28 -->
<g id="node28" class="node">
<title>Node28</title>
<g id="a_node28"><a xlink:href="read_8cpp.html" target="_top" xlink:title="Implementation of class YAML_Error and ReadConfig.">
<polygon fill="white" stroke="black" points="890,-56.5 890,-75.5 966,-75.5 966,-56.5 890,-56.5"/>
<text text-anchor="middle" x="928" y="-63.5" font-family="Helvetica,sans-Serif" font-size="10.00">src/read.cpp</text>
</a>
</g>
</g>
<!-- Node27&#45;&gt;Node28 -->
<g id="edge44" class="edge">
<title>Node27&#45;&gt;Node28</title>
<path fill="none" stroke="midnightblue" d="M928,-101.8C928,-92.91 928,-82.78 928,-75.75"/>
<polygon fill="midnightblue" stroke="midnightblue" points="924.5,-102.08 928,-112.08 931.5,-102.08 924.5,-102.08"/>
</g>
<!-- Node30 -->
<g id="node30" class="node">
<title>Node30</title>
<g id="a_node30"><a xlink:href="type__track__global_8h.html" target="_top" xlink:title="Global Access of Type Track.">
<polygon fill="white" stroke="black" points="741.5,-224.5 741.5,-254.5 852.5,-254.5 852.5,-224.5 741.5,-224.5"/>
<text text-anchor="start" x="749.5" y="-242.5" font-family="Helvetica,sans-Serif" font-size="10.00">include/export/type</text>
<text text-anchor="middle" x="797" y="-231.5" font-family="Helvetica,sans-Serif" font-size="10.00">_track_global.h</text>
</a>
</g>
</g>
<!-- Node29&#45;&gt;Node30 -->
<g id="edge52" class="edge">
<title>Node29&#45;&gt;Node30</title>
<path fill="none" stroke="midnightblue" d="M894.99,-286.99C873.28,-276.69 846.67,-264.07 826.67,-254.58"/>
<polygon fill="midnightblue" stroke="midnightblue" points="893.74,-290.27 904.27,-291.4 896.74,-283.95 893.74,-290.27"/>
</g>
<!-- Node31 -->
<g id="node31" class="node">
<title>Node31</title>
<g id="a_node31"><a xlink:href="type__track_8cpp.html" target="_top" xlink:title="Implementation of Type_Track Class.">
<polygon fill="white" stroke="black" points="909,-230 909,-249 1049,-249 1049,-230 909,-230"/>
<text text-anchor="middle" x="979" y="-237" font-family="Helvetica,sans-Serif" font-size="10.00">src/export/type_track.cpp</text>
</a>
</g>
</g>
<!-- Node29&#45;&gt;Node31 -->
<g id="edge54" class="edge">
<title>Node29&#45;&gt;Node31</title>
<path fill="none" stroke="midnightblue" d="M949.59,-282.97C957.65,-271.33 967.02,-257.8 972.98,-249.19"/>
<polygon fill="midnightblue" stroke="midnightblue" points="946.58,-281.18 943.76,-291.4 952.33,-285.17 946.58,-281.18"/>
</g>
<!-- Node30&#45;&gt;Node7 -->
<g id="edge53" class="edge">
<title>Node30&#45;&gt;Node7</title>
<path fill="none" stroke="midnightblue" d="M731.25,-224.02C583.43,-200.79 421.33,-188.19 336.19,-182.56"/>
<polygon fill="midnightblue" stroke="midnightblue" points="730.99,-227.52 741.42,-225.64 732.09,-220.61 730.99,-227.52"/>
</g>
<!-- Node33&#45;&gt;Node34 -->
<g id="edge62" class="edge">
<title>Node33&#45;&gt;Node34</title>
<path fill="none" stroke="midnightblue" d="M1354.35,-416C1358.22,-405.05 1362.97,-391.57 1366,-383.01"/>
<polygon fill="midnightblue" stroke="midnightblue" points="1351.04,-414.88 1351.01,-425.48 1357.64,-417.21 1351.04,-414.88"/>
</g>
<!-- Node36&#45;&gt;Node35 -->
<g id="edge67" class="edge">
<title>Node36&#45;&gt;Node35</title>
<path fill="none" stroke="midnightblue" d="M1744.49,-471.4C1741.81,-462.36 1738.72,-451.94 1736.59,-444.75"/>
<polygon fill="midnightblue" stroke="midnightblue" points="1741.16,-472.49 1747.36,-481.08 1747.87,-470.5 1741.16,-472.49"/>
</g>
</g>
</svg>
