<?xml version="1.0" encoding="UTF-8" standalone="no"?>
<!DOCTYPE svg PUBLIC "-//W3C//DTD SVG 1.1//EN"
 "http://www.w3.org/Graphics/SVG/1.1/DTD/svg11.dtd">
<!-- Generated by graphviz version 2.43.0 (0)
 -->
<!-- Title: include/_boost_config.h Pages: 1 -->
<!--zoomable 565 -->
<svg id="main" version="1.1" xmlns="http://www.w3.org/2000/svg" xmlns:xlink="http://www.w3.org/1999/xlink" xml:space="preserve" onload="init(evt)">
<style type="text/css"><![CDATA[
.edge:hover path { stroke: red; }
.edge:hover polygon { stroke: red; fill: red; }
]]></style>
<script type="text/javascript"><![CDATA[
var edges = document.getElementsByTagName('g');
if (edges && edges.length) {
  for (var i=0;i<edges.length;i++) {
    if (edges[i].id.substr(0,4)=='edge') {
      edges[i].setAttribute('class','edge');
    }
  }
}
]]></script>
        <defs>
                <circle id="rim" cx="0" cy="0" r="7"/>
                <circle id="rim2" cx="0" cy="0" r="3.5"/>
                <g id="zoomPlus">
                        <use xlink:href="#rim" fill="#404040">
                                <set attributeName="fill" to="#808080" begin="zoomplus.mouseover" end="zoomplus.mouseout"/>
                        </use>
                        <path d="M-4,0h8M0,-4v8" fill="none" stroke="white" stroke-width="1.5" pointer-events="none"/>
                </g>
                <g id="zoomMin">
                        <use xlink:href="#rim" fill="#404040">
                                <set attributeName="fill" to="#808080" begin="zoomminus.mouseover" end="zoomminus.mouseout"/>
                        </use>
                        <path d="M-4,0h8" fill="none" stroke="white" stroke-width="1.5" pointer-events="none"/>
                </g>
                <g id="dirArrow">
                        <path fill="none" stroke="white" stroke-width="1.5" d="M0,-3.0v7 M-2.5,-0.5L0,-3.0L2.5,-0.5"/>
                </g>
               <g id="resetDef">
                       <use xlink:href="#rim2" fill="#404040">
                               <set attributeName="fill" to="#808080" begin="reset.mouseover" end="reset.mouseout"/>
                       </use>
               </g>
        </defs>

<script type="text/javascript">
var viewWidth = 1750;
var viewHeight = 565;
var sectionId = 'dynsection-0';
</script>
<script xlink:href="svgpan.js"/>
<svg id="graph" class="graph">
<g id="viewport">
<title>include/_boost_config.h</title>
<polygon fill="white" stroke="transparent" points="-4,4 -4,-561 1745.5,-561 1745.5,4 -4,4"/>
<!-- Node1 -->
<g id="node1" class="node">
<title>Node1</title>
<g id="a_node1"><a xlink:title="Boost Configurations.">
<polygon fill="#bfbfbf" stroke="black" points="1371.5,-537.5 1371.5,-556.5 1502.5,-556.5 1502.5,-537.5 1371.5,-537.5"/>
<text text-anchor="middle" x="1437" y="-544.5" font-family="Helvetica,sans-Serif" font-size="10.00">include/_boost_config.h</text>
</a>
</g>
</g>
<!-- Node2 -->
<g id="node2" class="node">
<title>Node2</title>
<g id="a_node2"><a xlink:href="export_8h.html" target="_top" xlink:title="Export mmCEsim Configuration to Other Programming Languages.">
<polygon fill="white" stroke="black" points="187.5,-56.5 187.5,-75.5 282.5,-75.5 282.5,-56.5 187.5,-56.5"/>
<text text-anchor="middle" x="235" y="-63.5" font-family="Helvetica,sans-Serif" font-size="10.00">include/export.h</text>
</a>
</g>
</g>
<!-- Node1&#45;&gt;Node2 -->
<g id="edge1" class="edge">
<title>Node1&#45;&gt;Node2</title>
<path fill="none" stroke="midnightblue" d="M1361.24,-545.38C1133.65,-543.18 458.37,-533.97 241,-501 131.32,-484.36 0,-546.94 0,-436 0,-436 0,-436 0,-182.5 0,-99.76 118.78,-76.29 187.44,-69.63"/>
<polygon fill="midnightblue" stroke="midnightblue" points="1361.38,-548.89 1371.41,-545.48 1361.44,-541.89 1361.38,-548.89"/>
</g>
<!-- Node4 -->
<g id="node4" class="node">
<title>Node4</title>
<g id="a_node4"><a xlink:href="src_2main_8cpp.html" target="_top" xlink:title="Program Command Line Options.">
<polygon fill="white" stroke="black" points="1263.5,-0.5 1263.5,-19.5 1342.5,-19.5 1342.5,-0.5 1263.5,-0.5"/>
<text text-anchor="middle" x="1303" y="-7.5" font-family="Helvetica,sans-Serif" font-size="10.00">src/main.cpp</text>
</a>
</g>
</g>
<!-- Node1&#45;&gt;Node4 -->
<g id="edge62" class="edge">
<title>Node1&#45;&gt;Node4</title>
<path fill="none" stroke="midnightblue" d="M1449.67,-528.96C1475.54,-492.42 1532,-402.98 1532,-318.5 1532,-318.5 1532,-318.5 1532,-121 1532,-88.19 1523.07,-75.92 1497,-56 1451.94,-21.58 1385,-12.79 1342.7,-10.92"/>
<polygon fill="midnightblue" stroke="midnightblue" points="1446.55,-527.29 1443.53,-537.44 1452.23,-531.39 1446.55,-527.29"/>
</g>
<!-- Node5 -->
<g id="node5" class="node">
<title>Node5</title>
<g id="a_node5"><a xlink:href="alg_8h.html" target="_top" xlink:title="Algorithm Parser (.alg Language)">
<polygon fill="white" stroke="black" points="347.5,-112.5 347.5,-131.5 460.5,-131.5 460.5,-112.5 347.5,-112.5"/>
<text text-anchor="middle" x="404" y="-119.5" font-family="Helvetica,sans-Serif" font-size="10.00">include/export/alg.h</text>
</a>
</g>
</g>
<!-- Node1&#45;&gt;Node5 -->
<g id="edge4" class="edge">
<title>Node1&#45;&gt;Node5</title>
<path fill="none" stroke="midnightblue" d="M1361.26,-544.79C1154.29,-541.17 582.27,-528.86 396,-501 297.92,-486.33 258.79,-505.23 180,-445 105.24,-387.85 98.33,-311.59 153,-235 169.52,-211.86 236.14,-179.83 262,-168 297.16,-151.92 339.68,-139.27 368.97,-131.53"/>
<polygon fill="midnightblue" stroke="midnightblue" points="1361.36,-548.3 1371.42,-544.97 1361.48,-541.3 1361.36,-548.3"/>
</g>
<!-- Node7 -->
<g id="node7" class="node">
<title>Node7</title>
<g id="a_node7"><a xlink:href="calc_8h.html" target="_top" xlink:title="Make Calculation in Alg.">
<polygon fill="white" stroke="black" points="634,-174 634,-193 752,-193 752,-174 634,-174"/>
<text text-anchor="middle" x="693" y="-181" font-family="Helvetica,sans-Serif" font-size="10.00">include/export/calc.h</text>
</a>
</g>
</g>
<!-- Node1&#45;&gt;Node7 -->
<g id="edge7" class="edge">
<title>Node1&#45;&gt;Node7</title>
<path fill="none" stroke="midnightblue" d="M1361.16,-543.3C1090.77,-533.2 190,-495.11 190,-436 190,-436 190,-436 190,-316.5 190,-273.77 204.83,-257.75 241,-235 305.08,-194.69 526.75,-186.44 633.99,-184.83"/>
<polygon fill="midnightblue" stroke="midnightblue" points="1361.15,-546.81 1371.27,-543.68 1361.41,-539.81 1361.15,-546.81"/>
</g>
<!-- Node9 -->
<g id="node9" class="node">
<title>Node9</title>
<g id="a_node9"><a xlink:href="simulate_8h.html" target="_top" xlink:title="Simulate Generated Code.">
<polygon fill="white" stroke="black" points="1120.5,-308 1120.5,-327 1227.5,-327 1227.5,-308 1120.5,-308"/>
<text text-anchor="middle" x="1174" y="-315" font-family="Helvetica,sans-Serif" font-size="10.00">include/simulate.h</text>
</a>
</g>
</g>
<!-- Node1&#45;&gt;Node9 -->
<g id="edge10" class="edge">
<title>Node1&#45;&gt;Node9</title>
<path fill="none" stroke="midnightblue" d="M1443.63,-527.4C1454.96,-491.98 1473.3,-414.33 1435,-369 1406,-334.67 1280,-342.12 1236,-333 1227.23,-331.18 1217.81,-329.06 1209.02,-327.02"/>
<polygon fill="midnightblue" stroke="midnightblue" points="1440.17,-526.73 1440.28,-537.33 1446.8,-528.97 1440.17,-526.73"/>
</g>
<!-- Node11 -->
<g id="node11" class="node">
<title>Node11</title>
<g id="a_node11"><a xlink:href="style_8h.html" target="_top" xlink:title="Format Output File.">
<polygon fill="white" stroke="black" points="1351,-112.5 1351,-131.5 1439,-131.5 1439,-112.5 1351,-112.5"/>
<text text-anchor="middle" x="1395" y="-119.5" font-family="Helvetica,sans-Serif" font-size="10.00">include/style.h</text>
</a>
</g>
</g>
<!-- Node1&#45;&gt;Node11 -->
<g id="edge13" class="edge">
<title>Node1&#45;&gt;Node11</title>
<path fill="none" stroke="midnightblue" d="M1451.4,-529.67C1457.65,-521.6 1464.36,-511.39 1468,-501 1479.19,-469.08 1475.81,-458.61 1472,-425 1458.8,-308.55 1447.98,-279.85 1413,-168 1408.98,-155.15 1402.96,-140.78 1399,-131.82"/>
<polygon fill="midnightblue" stroke="midnightblue" points="1448.62,-527.54 1444.97,-537.48 1454.03,-531.99 1448.62,-527.54"/>
</g>
<!-- Node13 -->
<g id="node13" class="node">
<title>Node13</title>
<g id="a_node13"><a xlink:href="utils_8h.html" target="_top" xlink:title="Utilities.">
<polygon fill="white" stroke="black" points="684.5,-481.5 684.5,-500.5 769.5,-500.5 769.5,-481.5 684.5,-481.5"/>
<text text-anchor="middle" x="727" y="-488.5" font-family="Helvetica,sans-Serif" font-size="10.00">include/utils.h</text>
</a>
</g>
</g>
<!-- Node1&#45;&gt;Node13 -->
<g id="edge16" class="edge">
<title>Node1&#45;&gt;Node13</title>
<path fill="none" stroke="midnightblue" d="M1361.07,-540.23C1212.22,-528.9 886.43,-504.13 769.68,-495.25"/>
<polygon fill="midnightblue" stroke="midnightblue" points="1361.24,-543.75 1371.48,-541.02 1361.77,-536.77 1361.24,-543.75"/>
</g>
<!-- Node34 -->
<g id="node34" class="node">
<title>Node34</title>
<g id="a_node34"><a xlink:href="tools_2log_2log_8cpp.html" target="_top" xlink:title="mmCEsim Log Tool">
<polygon fill="white" stroke="black" points="1329.5,-369.5 1329.5,-388.5 1426.5,-388.5 1426.5,-369.5 1329.5,-369.5"/>
<text text-anchor="middle" x="1378" y="-376.5" font-family="Helvetica,sans-Serif" font-size="10.00">tools/log/log.cpp</text>
</a>
</g>
</g>
<!-- Node1&#45;&gt;Node34 -->
<g id="edge63" class="edge">
<title>Node1&#45;&gt;Node34</title>
<path fill="none" stroke="midnightblue" d="M1432.02,-527.5C1425.37,-503.54 1412.83,-460.61 1399,-425 1394.01,-412.14 1387.05,-397.78 1382.54,-388.81"/>
<polygon fill="midnightblue" stroke="midnightblue" points="1428.7,-528.63 1434.71,-537.36 1435.45,-526.79 1428.7,-528.63"/>
</g>
<!-- Node35 -->
<g id="node35" class="node">
<title>Node35</title>
<g id="a_node35"><a xlink:href="maintain_8cpp.html" target="_top" xlink:title="mmCEsim Maintainence Tool">
<polygon fill="white" stroke="black" points="1577,-425.5 1577,-444.5 1731,-444.5 1731,-425.5 1577,-425.5"/>
<text text-anchor="middle" x="1654" y="-432.5" font-family="Helvetica,sans-Serif" font-size="10.00">tools/maintain/maintain.cpp</text>
</a>
</g>
</g>
<!-- Node1&#45;&gt;Node35 -->
<g id="edge64" class="edge">
<title>Node1&#45;&gt;Node35</title>
<path fill="none" stroke="midnightblue" d="M1470.35,-533.73C1492.23,-525.32 1521.27,-513.46 1546,-501 1581.57,-483.08 1621.15,-457.79 1641.06,-444.66"/>
<polygon fill="midnightblue" stroke="midnightblue" points="1468.95,-530.52 1460.85,-537.34 1471.44,-537.06 1468.95,-530.52"/>
</g>
<!-- Node36 -->
<g id="node36" class="node">
<title>Node36</title>
<g id="a_node36"><a xlink:href="maintain_8h.html" target="_top" xlink:title="mmCEsim Maintainence Functions">
<polygon fill="white" stroke="black" points="1598.5,-481.5 1598.5,-500.5 1741.5,-500.5 1741.5,-481.5 1598.5,-481.5"/>
<text text-anchor="middle" x="1670" y="-488.5" font-family="Helvetica,sans-Serif" font-size="10.00">tools/maintain/maintain.h</text>
</a>
</g>
</g>
<!-- Node1&#45;&gt;Node36 -->
<g id="edge65" class="edge">
<title>Node1&#45;&gt;Node36</title>
<path fill="none" stroke="midnightblue" d="M1483.8,-535.15C1527.83,-524.95 1592.85,-509.88 1633.25,-500.52"/>
<polygon fill="midnightblue" stroke="midnightblue" points="1482.87,-531.78 1473.92,-537.44 1484.45,-538.6 1482.87,-531.78"/>
</g>
<!-- Node3 -->
<g id="node3" class="node">
<title>Node3</title>
<g id="a_node3"><a xlink:href="export_8cpp.html" target="_top" xlink:title="Implementation of Export Class.">
<polygon fill="white" stroke="black" points="192,-0.5 192,-19.5 278,-19.5 278,-0.5 192,-0.5"/>
<text text-anchor="middle" x="235" y="-7.5" font-family="Helvetica,sans-Serif" font-size="10.00">src/export.cpp</text>
</a>
</g>
</g>
<!-- Node2&#45;&gt;Node3 -->
<g id="edge2" class="edge">
<title>Node2&#45;&gt;Node3</title>
<path fill="none" stroke="midnightblue" d="M235,-45.8C235,-36.91 235,-26.78 235,-19.75"/>
<polygon fill="midnightblue" stroke="midnightblue" points="231.5,-46.08 235,-56.08 238.5,-46.08 231.5,-46.08"/>
</g>
<!-- Node2&#45;&gt;Node4 -->
<g id="edge3" class="edge">
<title>Node2&#45;&gt;Node4</title>
<path fill="none" stroke="midnightblue" d="M292.96,-59.78C309.15,-58.43 326.75,-57.06 343,-56 699.72,-32.78 1131.76,-16.91 1263.19,-12.35"/>
<polygon fill="midnightblue" stroke="midnightblue" points="292.22,-56.33 282.55,-60.66 292.81,-63.31 292.22,-56.33"/>
</g>
<!-- Node5&#45;&gt;Node2 -->
<g id="edge5" class="edge">
<title>Node5&#45;&gt;Node2</title>
<path fill="none" stroke="midnightblue" d="M367.4,-109.3C335.55,-99.13 290.16,-84.62 261.65,-75.52"/>
<polygon fill="midnightblue" stroke="midnightblue" points="366.63,-112.73 377.22,-112.44 368.76,-106.07 366.63,-112.73"/>
</g>
<!-- Node6 -->
<g id="node6" class="node">
<title>Node6</title>
<g id="a_node6"><a xlink:href="alg_8cpp.html" target="_top" xlink:title="Implementation of class Alg.">
<polygon fill="white" stroke="black" points="352,-56.5 352,-75.5 456,-75.5 456,-56.5 352,-56.5"/>
<text text-anchor="middle" x="404" y="-63.5" font-family="Helvetica,sans-Serif" font-size="10.00">src/export/alg.cpp</text>
</a>
</g>
</g>
<!-- Node5&#45;&gt;Node6 -->
<g id="edge6" class="edge">
<title>Node5&#45;&gt;Node6</title>
<path fill="none" stroke="midnightblue" d="M404,-101.8C404,-92.91 404,-82.78 404,-75.75"/>
<polygon fill="midnightblue" stroke="midnightblue" points="400.5,-102.08 404,-112.08 407.5,-102.08 400.5,-102.08"/>
</g>
<!-- Node7&#45;&gt;Node5 -->
<g id="edge8" class="edge">
<title>Node7&#45;&gt;Node5</title>
<path fill="none" stroke="midnightblue" d="M641.53,-171.9C585.5,-160.37 497.01,-142.15 445.33,-131.51"/>
<polygon fill="midnightblue" stroke="midnightblue" points="641.09,-175.39 651.59,-173.98 642.5,-168.53 641.09,-175.39"/>
</g>
<!-- Node8 -->
<g id="node8" class="node">
<title>Node8</title>
<g id="a_node8"><a xlink:href="calc_8cpp.html" target="_top" xlink:title="Implementation of Calc Class.">
<polygon fill="white" stroke="black" points="639,-112.5 639,-131.5 747,-131.5 747,-112.5 639,-112.5"/>
<text text-anchor="middle" x="693" y="-119.5" font-family="Helvetica,sans-Serif" font-size="10.00">src/export/calc.cpp</text>
</a>
</g>
</g>
<!-- Node7&#45;&gt;Node8 -->
<g id="edge9" class="edge">
<title>Node7&#45;&gt;Node8</title>
<path fill="none" stroke="midnightblue" d="M693,-163.82C693,-153 693,-139.9 693,-131.51"/>
<polygon fill="midnightblue" stroke="midnightblue" points="689.5,-163.98 693,-173.98 696.5,-163.98 689.5,-163.98"/>
</g>
<!-- Node9&#45;&gt;Node4 -->
<g id="edge11" class="edge">
<title>Node9&#45;&gt;Node4</title>
<path fill="none" stroke="midnightblue" d="M1211.14,-304.75C1240.73,-294.57 1278.69,-279.42 1288,-266 1316.43,-225 1306.47,-59.09 1303.64,-19.51"/>
<polygon fill="midnightblue" stroke="midnightblue" points="1209.84,-301.49 1201.48,-308 1212.07,-308.13 1209.84,-301.49"/>
</g>
<!-- Node10 -->
<g id="node10" class="node">
<title>Node10</title>
<g id="a_node10"><a xlink:href="simulate_8cpp.html" target="_top" xlink:title="Implementation of Simulate Class.">
<polygon fill="white" stroke="black" points="1182.5,-241 1182.5,-260 1279.5,-260 1279.5,-241 1182.5,-241"/>
<text text-anchor="middle" x="1231" y="-248" font-family="Helvetica,sans-Serif" font-size="10.00">src/simulate.cpp</text>
</a>
</g>
</g>
<!-- Node9&#45;&gt;Node10 -->
<g id="edge12" class="edge">
<title>Node9&#45;&gt;Node10</title>
<path fill="none" stroke="midnightblue" d="M1188.35,-300.13C1199.5,-287.42 1214.52,-270.3 1223.43,-260.13"/>
<polygon fill="midnightblue" stroke="midnightblue" points="1185.65,-297.91 1181.69,-307.73 1190.91,-302.52 1185.65,-297.91"/>
</g>
<!-- Node11&#45;&gt;Node4 -->
<g id="edge14" class="edge">
<title>Node11&#45;&gt;Node4</title>
<path fill="none" stroke="midnightblue" d="M1381.27,-104.59C1361.44,-80.87 1325.47,-37.87 1310.19,-19.59"/>
<polygon fill="midnightblue" stroke="midnightblue" points="1378.68,-106.94 1387.78,-112.37 1384.05,-102.45 1378.68,-106.94"/>
</g>
<!-- Node12 -->
<g id="node12" class="node">
<title>Node12</title>
<g id="a_node12"><a xlink:href="style_8cpp.html" target="_top" xlink:title="Implementation of Style class.">
<polygon fill="white" stroke="black" points="1388,-56.5 1388,-75.5 1466,-75.5 1466,-56.5 1388,-56.5"/>
<text text-anchor="middle" x="1427" y="-63.5" font-family="Helvetica,sans-Serif" font-size="10.00">src/style.cpp</text>
</a>
</g>
</g>
<!-- Node11&#45;&gt;Node12 -->
<g id="edge15" class="edge">
<title>Node11&#45;&gt;Node12</title>
<path fill="none" stroke="midnightblue" d="M1405.5,-103.27C1410.97,-94.05 1417.42,-83.17 1421.81,-75.75"/>
<polygon fill="midnightblue" stroke="midnightblue" points="1402.37,-101.7 1400.28,-112.08 1408.39,-105.26 1402.37,-101.7"/>
</g>
<!-- Node13&#45;&gt;Node2 -->
<g id="edge21" class="edge">
<title>Node13&#45;&gt;Node2</title>
<path fill="none" stroke="midnightblue" d="M674.22,-488.84C534.61,-485.4 163.11,-473.62 116,-445 59.55,-410.71 38,-384.55 38,-318.5 38,-318.5 38,-318.5 38,-182.5 38,-113.52 129.01,-84.95 187.31,-73.73"/>
<polygon fill="midnightblue" stroke="midnightblue" points="674.17,-492.34 684.25,-489.08 674.34,-485.34 674.17,-492.34"/>
</g>
<!-- Node13&#45;&gt;Node4 -->
<g id="edge59" class="edge">
<title>Node13&#45;&gt;Node4</title>
<path fill="none" stroke="midnightblue" d="M779.96,-488.53C857.46,-485.38 1005.8,-475.54 1128,-445 1193.42,-428.65 1207.46,-416.55 1269,-389 1319.8,-366.26 1333.39,-361.82 1381,-333 1433.98,-300.94 1494,-313.42 1494,-251.5 1494,-251.5 1494,-251.5 1494,-121 1494,-90.9 1496.58,-76.98 1475,-56 1439.7,-21.69 1381.62,-12.66 1342.85,-10.74"/>
<polygon fill="midnightblue" stroke="midnightblue" points="779.37,-485.05 769.51,-488.93 779.64,-492.04 779.37,-485.05"/>
</g>
<!-- Node13&#45;&gt;Node5 -->
<g id="edge22" class="edge">
<title>Node13&#45;&gt;Node5</title>
<path fill="none" stroke="midnightblue" d="M674.39,-487.9C568.85,-483.2 334.9,-470.23 259,-445 206.2,-427.45 152,-435.64 152,-380 152,-380 152,-380 152,-316.5 152,-278.74 150.81,-263.13 176,-235 203.64,-204.13 224.58,-216.8 262,-199 309.22,-176.54 363.22,-146.34 388.9,-131.69"/>
<polygon fill="midnightblue" stroke="midnightblue" points="674.36,-491.4 684.5,-488.34 674.66,-484.41 674.36,-491.4"/>
</g>
<!-- Node13&#45;&gt;Node7 -->
<g id="edge26" class="edge">
<title>Node13&#45;&gt;Node7</title>
<path fill="none" stroke="midnightblue" d="M674.09,-489.44C545.67,-486.65 228,-470.6 228,-380 228,-380 228,-380 228,-316.5 228,-272.3 247.13,-257.79 285,-235 342.41,-200.45 535.06,-189.41 633.71,-185.99"/>
<polygon fill="midnightblue" stroke="midnightblue" points="674.39,-492.95 684.46,-489.64 674.53,-485.95 674.39,-492.95"/>
</g>
<!-- Node13&#45;&gt;Node9 -->
<g id="edge57" class="edge">
<title>Node13&#45;&gt;Node9</title>
<path fill="none" stroke="midnightblue" d="M771.28,-478.86C802.78,-470.54 845.9,-458.35 883,-445 989.26,-406.76 1111.94,-348.65 1156.61,-327.01"/>
<polygon fill="midnightblue" stroke="midnightblue" points="770.28,-475.51 761.49,-481.42 772.05,-482.28 770.28,-475.51"/>
</g>
<!-- Node13&#45;&gt;Node11 -->
<g id="edge58" class="edge">
<title>Node13&#45;&gt;Node11</title>
<path fill="none" stroke="midnightblue" d="M780.01,-487.22C850.03,-482.66 976.81,-471.3 1082,-445 1149.83,-428.04 1164.29,-415.46 1229,-389 1243.37,-383.12 1347.38,-345.18 1357,-333 1406.84,-269.92 1399.49,-162.89 1396.09,-131.74"/>
<polygon fill="midnightblue" stroke="midnightblue" points="779.44,-483.75 769.68,-487.87 779.88,-490.74 779.44,-483.75"/>
</g>
<!-- Node14 -->
<g id="node14" class="node">
<title>Node14</title>
<g id="a_node14"><a xlink:href="config_8h.html" target="_top" xlink:title="Read and Write User Configuration.">
<polygon fill="white" stroke="black" points="1127.5,-369.5 1127.5,-388.5 1220.5,-388.5 1220.5,-369.5 1127.5,-369.5"/>
<text text-anchor="middle" x="1174" y="-376.5" font-family="Helvetica,sans-Serif" font-size="10.00">include/config.h</text>
</a>
</g>
</g>
<!-- Node13&#45;&gt;Node14 -->
<g id="edge17" class="edge">
<title>Node13&#45;&gt;Node14</title>
<path fill="none" stroke="midnightblue" d="M779.79,-487.62C843.46,-483.58 953.14,-472.9 1043,-445 1088.34,-430.92 1137.34,-402.73 1160.46,-388.55"/>
<polygon fill="midnightblue" stroke="midnightblue" points="779.37,-484.14 769.6,-488.23 779.79,-491.13 779.37,-484.14"/>
</g>
<!-- Node16 -->
<g id="node16" class="node">
<title>Node16</title>
<g id="a_node16"><a xlink:href="alg__line_8h.html" target="_top" xlink:title="Parse Line of Alg.">
<polygon fill="white" stroke="black" points="646,-302.5 646,-332.5 750,-332.5 750,-302.5 646,-302.5"/>
<text text-anchor="start" x="654" y="-320.5" font-family="Helvetica,sans-Serif" font-size="10.00">include/export/alg</text>
<text text-anchor="middle" x="698" y="-309.5" font-family="Helvetica,sans-Serif" font-size="10.00">_line.h</text>
</a>
</g>
</g>
<!-- Node13&#45;&gt;Node16 -->
<g id="edge23" class="edge">
<title>Node13&#45;&gt;Node16</title>
<path fill="none" stroke="midnightblue" d="M708.95,-474.7C689.12,-456.6 658.45,-424.41 646,-389 638.23,-366.9 658.63,-345.88 676.11,-332.63"/>
<polygon fill="midnightblue" stroke="midnightblue" points="706.64,-477.34 716.45,-481.36 711.29,-472.1 706.64,-477.34"/>
</g>
<!-- Node18 -->
<g id="node18" class="node">
<title>Node18</title>
<g id="a_node18"><a xlink:href="channel__graph_8h.html" target="_top" xlink:title="Graph Analysis for Complex Cascaded Channels.">
<polygon fill="white" stroke="black" points="295,-302.5 295,-332.5 423,-332.5 423,-302.5 295,-302.5"/>
<text text-anchor="start" x="303" y="-320.5" font-family="Helvetica,sans-Serif" font-size="10.00">include/export/channel</text>
<text text-anchor="middle" x="359" y="-309.5" font-family="Helvetica,sans-Serif" font-size="10.00">_graph.h</text>
</a>
</g>
</g>
<!-- Node13&#45;&gt;Node18 -->
<g id="edge27" class="edge">
<title>Node13&#45;&gt;Node18</title>
<path fill="none" stroke="midnightblue" d="M699.61,-477.24C632.3,-445.87 459.17,-365.18 389.11,-332.53"/>
<polygon fill="midnightblue" stroke="midnightblue" points="698.21,-480.44 708.75,-481.5 701.17,-474.1 698.21,-480.44"/>
</g>
<!-- Node20 -->
<g id="node20" class="node">
<title>Node20</title>
<g id="a_node20"><a xlink:href="functions_8h.html" target="_top" xlink:title="Function Lists.">
<polygon fill="white" stroke="black" points="655.5,-369.5 655.5,-388.5 798.5,-388.5 798.5,-369.5 655.5,-369.5"/>
<text text-anchor="middle" x="727" y="-376.5" font-family="Helvetica,sans-Serif" font-size="10.00">include/export/functions.h</text>
</a>
</g>
</g>
<!-- Node13&#45;&gt;Node20 -->
<g id="edge30" class="edge">
<title>Node13&#45;&gt;Node20</title>
<path fill="none" stroke="midnightblue" d="M727,-471.35C727,-447.25 727,-406.31 727,-388.59"/>
<polygon fill="midnightblue" stroke="midnightblue" points="723.5,-471.37 727,-481.37 730.5,-471.37 723.5,-471.37"/>
</g>
<!-- Node21 -->
<g id="node21" class="node">
<title>Node21</title>
<g id="a_node21"><a xlink:href="macro_8h.html" target="_top" xlink:title="ALG Macro.">
<polygon fill="white" stroke="black" points="475.5,-308 475.5,-327 604.5,-327 604.5,-308 475.5,-308"/>
<text text-anchor="middle" x="540" y="-315" font-family="Helvetica,sans-Serif" font-size="10.00">include/export/macro.h</text>
</a>
</g>
</g>
<!-- Node13&#45;&gt;Node21 -->
<g id="edge32" class="edge">
<title>Node13&#45;&gt;Node21</title>
<path fill="none" stroke="midnightblue" d="M704.28,-475.86C691.42,-467.48 675.3,-456.3 662,-445 614.58,-404.69 565.26,-348.29 547.19,-327.05"/>
<polygon fill="midnightblue" stroke="midnightblue" points="702.67,-478.99 712.98,-481.44 706.45,-473.1 702.67,-478.99"/>
</g>
<!-- Node23 -->
<g id="node23" class="node">
<title>Node23</title>
<g id="a_node23"><a xlink:href="value__vec_8h.html" target="_top" xlink:title=" ">
<polygon fill="white" stroke="black" points="66,-168.5 66,-198.5 182,-198.5 182,-168.5 66,-168.5"/>
<text text-anchor="start" x="74" y="-186.5" font-family="Helvetica,sans-Serif" font-size="10.00">include/export/value</text>
<text text-anchor="middle" x="124" y="-175.5" font-family="Helvetica,sans-Serif" font-size="10.00">_vec.h</text>
</a>
</g>
</g>
<!-- Node13&#45;&gt;Node23 -->
<g id="edge35" class="edge">
<title>Node13&#45;&gt;Node23</title>
<path fill="none" stroke="midnightblue" d="M674.15,-489.52C537.06,-487.77 177.86,-479.89 138,-445 66.63,-382.53 79.13,-327.53 100,-235 102.9,-222.12 109.5,-208.67 115.04,-198.9"/>
<polygon fill="midnightblue" stroke="midnightblue" points="674.37,-493.02 684.41,-489.64 674.45,-486.02 674.37,-493.02"/>
</g>
<!-- Node24 -->
<g id="node24" class="node">
<title>Node24</title>
<g id="a_node24"><a xlink:href="include_2log_8h.html" target="_top" xlink:title="Log Utilities.">
<polygon fill="white" stroke="black" points="795.5,-425.5 795.5,-444.5 874.5,-444.5 874.5,-425.5 795.5,-425.5"/>
<text text-anchor="middle" x="835" y="-432.5" font-family="Helvetica,sans-Serif" font-size="10.00">include/log.h</text>
</a>
</g>
</g>
<!-- Node13&#45;&gt;Node24 -->
<g id="edge37" class="edge">
<title>Node13&#45;&gt;Node24</title>
<path fill="none" stroke="midnightblue" d="M753.55,-476.73C773.55,-466.73 800.39,-453.31 817.69,-444.65"/>
<polygon fill="midnightblue" stroke="midnightblue" points="751.73,-473.72 744.35,-481.32 754.86,-479.98 751.73,-473.72"/>
</g>
<!-- Node33 -->
<g id="node33" class="node">
<title>Node33</title>
<g id="a_node33"><a xlink:href="tools_2log_2log_8h.html" target="_top" xlink:title="mmCEsim Log Tool">
<polygon fill="white" stroke="black" points="1304,-425.5 1304,-444.5 1390,-444.5 1390,-425.5 1304,-425.5"/>
<text text-anchor="middle" x="1347" y="-432.5" font-family="Helvetica,sans-Serif" font-size="10.00">tools/log/log.h</text>
</a>
</g>
</g>
<!-- Node13&#45;&gt;Node33 -->
<g id="edge60" class="edge">
<title>Node13&#45;&gt;Node33</title>
<path fill="none" stroke="midnightblue" d="M779.98,-487.13C879.94,-481.4 1103.09,-467.19 1290,-445 1294.48,-444.47 1299.14,-443.85 1303.79,-443.18"/>
<polygon fill="midnightblue" stroke="midnightblue" points="779.63,-483.64 769.84,-487.7 780.02,-490.63 779.63,-483.64"/>
</g>
<!-- Node14&#45;&gt;Node4 -->
<g id="edge20" class="edge">
<title>Node14&#45;&gt;Node4</title>
<path fill="none" stroke="midnightblue" d="M1230.87,-369.72C1272.53,-362.36 1323.98,-350.1 1337,-333 1375.9,-281.9 1318.27,-65.49 1305.44,-19.58"/>
<polygon fill="midnightblue" stroke="midnightblue" points="1230.06,-366.31 1220.79,-371.45 1231.24,-373.21 1230.06,-366.31"/>
</g>
<!-- Node14&#45;&gt;Node9 -->
<g id="edge18" class="edge">
<title>Node14&#45;&gt;Node9</title>
<path fill="none" stroke="midnightblue" d="M1174,-359.32C1174,-348.5 1174,-335.4 1174,-327.01"/>
<polygon fill="midnightblue" stroke="midnightblue" points="1170.5,-359.48 1174,-369.48 1177.5,-359.48 1170.5,-359.48"/>
</g>
<!-- Node15 -->
<g id="node15" class="node">
<title>Node15</title>
<g id="a_node15"><a xlink:href="config_8cpp.html" target="_top" xlink:title="Implementation of Config Class.">
<polygon fill="white" stroke="black" points="1245.5,-308 1245.5,-327 1328.5,-327 1328.5,-308 1245.5,-308"/>
<text text-anchor="middle" x="1287" y="-315" font-family="Helvetica,sans-Serif" font-size="10.00">src/config.cpp</text>
</a>
</g>
</g>
<!-- Node14&#45;&gt;Node15 -->
<g id="edge19" class="edge">
<title>Node14&#45;&gt;Node15</title>
<path fill="none" stroke="midnightblue" d="M1199.24,-364.71C1221.12,-353.19 1252.14,-336.86 1270.84,-327.01"/>
<polygon fill="midnightblue" stroke="midnightblue" points="1197.41,-361.72 1190.19,-369.48 1200.67,-367.91 1197.41,-361.72"/>
</g>
<!-- Node16&#45;&gt;Node5 -->
<g id="edge24" class="edge">
<title>Node16&#45;&gt;Node5</title>
<path fill="none" stroke="midnightblue" d="M668.57,-296.79C655.13,-287.63 639.11,-276.47 625,-266 607.22,-252.81 604.13,-247.71 586,-235 526.47,-193.25 451.41,-149.78 419.5,-131.69"/>
<polygon fill="midnightblue" stroke="midnightblue" points="666.73,-299.78 676.97,-302.5 670.66,-293.99 666.73,-299.78"/>
</g>
<!-- Node17 -->
<g id="node17" class="node">
<title>Node17</title>
<g id="a_node17"><a xlink:href="alg__line_8cpp.html" target="_top" xlink:title="Implementation of Alg_Line Class.">
<polygon fill="white" stroke="black" points="634.5,-241 634.5,-260 761.5,-260 761.5,-241 634.5,-241"/>
<text text-anchor="middle" x="698" y="-248" font-family="Helvetica,sans-Serif" font-size="10.00">src/export/alg_line.cpp</text>
</a>
</g>
</g>
<!-- Node16&#45;&gt;Node17 -->
<g id="edge25" class="edge">
<title>Node16&#45;&gt;Node17</title>
<path fill="none" stroke="midnightblue" d="M698,-292.25C698,-281.02 698,-268.38 698,-260.19"/>
<polygon fill="midnightblue" stroke="midnightblue" points="694.5,-292.4 698,-302.4 701.5,-292.4 694.5,-292.4"/>
</g>
<!-- Node18&#45;&gt;Node2 -->
<g id="edge28" class="edge">
<title>Node18&#45;&gt;Node2</title>
<path fill="none" stroke="midnightblue" d="M319.94,-297.29C307.12,-289.24 293.89,-278.75 285,-266 241.18,-203.18 235.7,-105.52 235.07,-75.84"/>
<polygon fill="midnightblue" stroke="midnightblue" points="318.31,-300.39 328.7,-302.48 321.87,-294.37 318.31,-300.39"/>
</g>
<!-- Node19 -->
<g id="node19" class="node">
<title>Node19</title>
<g id="a_node19"><a xlink:href="channel__graph_8cpp.html" target="_top" xlink:title="Implementation of Channel_Graph Class.">
<polygon fill="white" stroke="black" points="294.5,-235.5 294.5,-265.5 401.5,-265.5 401.5,-235.5 294.5,-235.5"/>
<text text-anchor="start" x="302.5" y="-253.5" font-family="Helvetica,sans-Serif" font-size="10.00">src/export/channel</text>
<text text-anchor="middle" x="348" y="-242.5" font-family="Helvetica,sans-Serif" font-size="10.00">_graph.cpp</text>
</a>
</g>
</g>
<!-- Node18&#45;&gt;Node19 -->
<g id="edge29" class="edge">
<title>Node18&#45;&gt;Node19</title>
<path fill="none" stroke="midnightblue" d="M354.92,-292.4C353.39,-283.37 351.71,-273.41 350.38,-265.58"/>
<polygon fill="midnightblue" stroke="midnightblue" points="351.49,-293.12 356.61,-302.4 358.4,-291.95 351.49,-293.12"/>
</g>
<!-- Node20&#45;&gt;Node16 -->
<g id="edge31" class="edge">
<title>Node20&#45;&gt;Node16</title>
<path fill="none" stroke="midnightblue" d="M718.42,-360.39C714.08,-351.5 708.9,-340.86 704.83,-332.52"/>
<polygon fill="midnightblue" stroke="midnightblue" points="715.32,-362.02 722.85,-369.48 721.61,-358.95 715.32,-362.02"/>
</g>
<!-- Node21&#45;&gt;Node5 -->
<g id="edge33" class="edge">
<title>Node21&#45;&gt;Node5</title>
<path fill="none" stroke="midnightblue" d="M503.82,-303.98C485.07,-295.81 463.2,-283.4 449,-266 414.77,-224.06 406.46,-155.87 404.54,-131.77"/>
<polygon fill="midnightblue" stroke="midnightblue" points="502.69,-307.3 513.27,-307.86 505.35,-300.82 502.69,-307.3"/>
</g>
<!-- Node22 -->
<g id="node22" class="node">
<title>Node22</title>
<g id="a_node22"><a xlink:href="macro_8cpp.html" target="_top" xlink:title="Implementation of Macro class.">
<polygon fill="white" stroke="black" points="458.5,-241 458.5,-260 577.5,-260 577.5,-241 458.5,-241"/>
<text text-anchor="middle" x="518" y="-248" font-family="Helvetica,sans-Serif" font-size="10.00">src/export/macro.cpp</text>
</a>
</g>
</g>
<!-- Node21&#45;&gt;Node22 -->
<g id="edge34" class="edge">
<title>Node21&#45;&gt;Node22</title>
<path fill="none" stroke="midnightblue" d="M533.71,-297.91C529.5,-285.49 524.17,-269.72 520.92,-260.13"/>
<polygon fill="midnightblue" stroke="midnightblue" points="530.51,-299.38 537.03,-307.73 537.14,-297.14 530.51,-299.38"/>
</g>
<!-- Node23&#45;&gt;Node2 -->
<g id="edge36" class="edge">
<title>Node23&#45;&gt;Node2</title>
<path fill="none" stroke="midnightblue" d="M144.73,-160.93C169.41,-135.25 209.43,-93.61 226.67,-75.67"/>
<polygon fill="midnightblue" stroke="midnightblue" points="142.02,-158.7 137.61,-168.34 147.06,-163.55 142.02,-158.7"/>
</g>
<!-- Node25 -->
<g id="node25" class="node">
<title>Node25</title>
<g id="a_node25"><a xlink:href="log__global_8h.html" target="_top" xlink:title="Global Access of Log.">
<polygon fill="white" stroke="black" points="817,-369.5 817,-388.5 931,-388.5 931,-369.5 817,-369.5"/>
<text text-anchor="middle" x="874" y="-376.5" font-family="Helvetica,sans-Serif" font-size="10.00">include/log_global.h</text>
</a>
</g>
</g>
<!-- Node24&#45;&gt;Node25 -->
<g id="edge38" class="edge">
<title>Node24&#45;&gt;Node25</title>
<path fill="none" stroke="midnightblue" d="M847.38,-416.86C854.14,-407.5 862.21,-396.33 867.68,-388.75"/>
<polygon fill="midnightblue" stroke="midnightblue" points="844.46,-414.93 841.44,-425.08 850.13,-419.03 844.46,-414.93"/>
</g>
<!-- Node25&#45;&gt;Node4 -->
<g id="edge55" class="edge">
<title>Node25&#45;&gt;Node4</title>
<path fill="none" stroke="midnightblue" d="M941.38,-375.54C982.37,-371.1 1033.97,-359.99 1072,-333 1133.49,-289.37 1154,-259.89 1154,-184.5 1154,-184.5 1154,-184.5 1154,-121 1154,-63.93 1225.63,-33.12 1269.56,-19.59"/>
<polygon fill="midnightblue" stroke="midnightblue" points="940.82,-372.08 931.2,-376.53 941.5,-379.04 940.82,-372.08"/>
</g>
<!-- Node25&#45;&gt;Node7 -->
<g id="edge47" class="edge">
<title>Node25&#45;&gt;Node7</title>
<path fill="none" stroke="midnightblue" d="M847.11,-364.29C834.15,-356.56 819.24,-345.88 809,-333 779.82,-296.31 799.64,-271.32 770,-235 754.43,-215.93 729.73,-201.53 712.52,-193.08"/>
<polygon fill="midnightblue" stroke="midnightblue" points="845.67,-367.5 856.1,-369.38 849.12,-361.4 845.67,-367.5"/>
</g>
<!-- Node25&#45;&gt;Node9 -->
<g id="edge54" class="edge">
<title>Node25&#45;&gt;Node9</title>
<path fill="none" stroke="midnightblue" d="M929.38,-367.56C976.41,-358.62 1045.7,-345.28 1106,-333 1115.23,-331.12 1125.14,-329.04 1134.47,-327.06"/>
<polygon fill="midnightblue" stroke="midnightblue" points="928.57,-364.15 919.39,-369.45 929.87,-371.03 928.57,-364.15"/>
</g>
<!-- Node25&#45;&gt;Node16 -->
<g id="edge46" class="edge">
<title>Node25&#45;&gt;Node16</title>
<path fill="none" stroke="midnightblue" d="M839.19,-366.23C810.53,-356.54 769.82,-342.78 739.48,-332.52"/>
<polygon fill="midnightblue" stroke="midnightblue" points="838.19,-369.59 848.78,-369.48 840.43,-362.96 838.19,-369.59"/>
</g>
<!-- Node25&#45;&gt;Node18 -->
<g id="edge48" class="edge">
<title>Node25&#45;&gt;Node18</title>
<path fill="none" stroke="midnightblue" d="M807.31,-369.04C807.2,-369.02 807.1,-369.01 807,-369 655.69,-350.85 617.3,-351.23 466,-333 452.13,-331.33 437.28,-329.4 423.18,-327.51"/>
<polygon fill="midnightblue" stroke="midnightblue" points="806.64,-372.48 816.99,-370.23 807.5,-365.53 806.64,-372.48"/>
</g>
<!-- Node25&#45;&gt;Node21 -->
<g id="edge49" class="edge">
<title>Node25&#45;&gt;Node21</title>
<path fill="none" stroke="midnightblue" d="M816.11,-367.69C751.46,-356.17 647.99,-337.74 587.77,-327.01"/>
<polygon fill="midnightblue" stroke="midnightblue" points="815.69,-371.17 826.15,-369.48 816.91,-364.28 815.69,-371.17"/>
</g>
<!-- Node26 -->
<g id="node26" class="node">
<title>Node26</title>
<g id="a_node26"><a xlink:href="error__code_8h.html" target="_top" xlink:title="Error Codes (Including Warnings)">
<polygon fill="white" stroke="black" points="1010,-174 1010,-193 1126,-193 1126,-174 1010,-174"/>
<text text-anchor="middle" x="1068" y="-181" font-family="Helvetica,sans-Serif" font-size="10.00">include/error_code.h</text>
</a>
</g>
</g>
<!-- Node25&#45;&gt;Node26 -->
<g id="edge39" class="edge">
<title>Node25&#45;&gt;Node26</title>
<path fill="none" stroke="midnightblue" d="M895.34,-363.46C907.89,-354.8 924,-343.47 938,-333 955.73,-319.74 957.38,-312.25 977,-302 1026.35,-276.21 1063.76,-310.67 1097,-266 1114.12,-242.99 1089.55,-208.95 1075.97,-193.14"/>
<polygon fill="midnightblue" stroke="midnightblue" points="893.17,-360.71 886.91,-369.25 897.13,-366.48 893.17,-360.71"/>
</g>
<!-- Node29 -->
<g id="node29" class="node">
<title>Node29</title>
<g id="a_node29"><a xlink:href="type__track_8h.html" target="_top" xlink:title="Track data type of variables.">
<polygon fill="white" stroke="black" points="818.5,-302.5 818.5,-332.5 929.5,-332.5 929.5,-302.5 818.5,-302.5"/>
<text text-anchor="start" x="826.5" y="-320.5" font-family="Helvetica,sans-Serif" font-size="10.00">include/export/type</text>
<text text-anchor="middle" x="874" y="-309.5" font-family="Helvetica,sans-Serif" font-size="10.00">_track.h</text>
</a>
</g>
</g>
<!-- Node25&#45;&gt;Node29 -->
<g id="edge50" class="edge">
<title>Node25&#45;&gt;Node29</title>
<path fill="none" stroke="midnightblue" d="M874,-359.23C874,-350.59 874,-340.5 874,-332.52"/>
<polygon fill="midnightblue" stroke="midnightblue" points="870.5,-359.48 874,-369.48 877.5,-359.48 870.5,-359.48"/>
</g>
<!-- Node32 -->
<g id="node32" class="node">
<title>Node32</title>
<g id="a_node32"><a xlink:href="term_8cpp.html" target="_top" xlink:title="Implementation of Term Class and Color/Style Definitions.">
<polygon fill="white" stroke="black" points="986.5,-308 986.5,-327 1063.5,-327 1063.5,-308 986.5,-308"/>
<text text-anchor="middle" x="1025" y="-315" font-family="Helvetica,sans-Serif" font-size="10.00">src/term.cpp</text>
</a>
</g>
</g>
<!-- Node25&#45;&gt;Node32 -->
<g id="edge56" class="edge">
<title>Node25&#45;&gt;Node32</title>
<path fill="none" stroke="midnightblue" d="M905.01,-365.78C934.35,-354.22 977.63,-337.16 1003.41,-327.01"/>
<polygon fill="midnightblue" stroke="midnightblue" points="903.66,-362.55 895.63,-369.48 906.22,-369.07 903.66,-362.55"/>
</g>
<!-- Node26&#45;&gt;Node2 -->
<g id="edge40" class="edge">
<title>Node26&#45;&gt;Node2</title>
<path fill="none" stroke="midnightblue" d="M1027.1,-171.38C967.8,-155.7 854.3,-127.28 756,-112 744.37,-110.19 409.3,-81.75 282.76,-71.04"/>
<polygon fill="midnightblue" stroke="midnightblue" points="1026.26,-174.78 1036.83,-173.97 1028.06,-168.02 1026.26,-174.78"/>
</g>
<!-- Node26&#45;&gt;Node4 -->
<g id="edge45" class="edge">
<title>Node26&#45;&gt;Node4</title>
<path fill="none" stroke="midnightblue" d="M1073.36,-164.32C1082.45,-136.69 1103.56,-84.36 1140,-56 1175.79,-28.14 1227.75,-17.52 1263.33,-13.47"/>
<polygon fill="midnightblue" stroke="midnightblue" points="1070.01,-163.31 1070.37,-173.9 1076.69,-165.4 1070.01,-163.31"/>
</g>
<!-- Node26&#45;&gt;Node11 -->
<g id="edge44" class="edge">
<title>Node26&#45;&gt;Node11</title>
<path fill="none" stroke="midnightblue" d="M1124.82,-172.16C1189.08,-160.47 1292.36,-141.68 1350.85,-131.03"/>
<polygon fill="midnightblue" stroke="midnightblue" points="1124.06,-168.74 1114.85,-173.98 1125.32,-175.63 1124.06,-168.74"/>
</g>
<!-- Node27 -->
<g id="node27" class="node">
<title>Node27</title>
<g id="a_node27"><a xlink:href="read_8h.html" target="_top" xlink:title="Read YAML Configuration.">
<polygon fill="white" stroke="black" points="940,-112.5 940,-131.5 1026,-131.5 1026,-112.5 940,-112.5"/>
<text text-anchor="middle" x="983" y="-119.5" font-family="Helvetica,sans-Serif" font-size="10.00">include/read.h</text>
</a>
</g>
</g>
<!-- Node26&#45;&gt;Node27 -->
<g id="edge41" class="edge">
<title>Node26&#45;&gt;Node27</title>
<path fill="none" stroke="midnightblue" d="M1047.45,-168.11C1031.1,-156.67 1008.78,-141.05 995.16,-131.51"/>
<polygon fill="midnightblue" stroke="midnightblue" points="1045.62,-171.11 1055.82,-173.98 1049.64,-165.37 1045.62,-171.11"/>
</g>
<!-- Node27&#45;&gt;Node2 -->
<g id="edge42" class="edge">
<title>Node27&#45;&gt;Node2</title>
<path fill="none" stroke="midnightblue" d="M929.43,-117.32C796.97,-108.22 456.54,-84.72 343,-76 323.21,-74.48 301.39,-72.68 282.57,-71.1"/>
<polygon fill="midnightblue" stroke="midnightblue" points="929.51,-120.84 939.73,-118.03 929.99,-113.85 929.51,-120.84"/>
</g>
<!-- Node28 -->
<g id="node28" class="node">
<title>Node28</title>
<g id="a_node28"><a xlink:href="read_8cpp.html" target="_top" xlink:title="Implementation of class YAML_Error and ReadConfig.">
<polygon fill="white" stroke="black" points="945,-56.5 945,-75.5 1021,-75.5 1021,-56.5 945,-56.5"/>
<text text-anchor="middle" x="983" y="-63.5" font-family="Helvetica,sans-Serif" font-size="10.00">src/read.cpp</text>
</a>
</g>
</g>
<!-- Node27&#45;&gt;Node28 -->
<g id="edge43" class="edge">
<title>Node27&#45;&gt;Node28</title>
<path fill="none" stroke="midnightblue" d="M983,-101.8C983,-92.91 983,-82.78 983,-75.75"/>
<polygon fill="midnightblue" stroke="midnightblue" points="979.5,-102.08 983,-112.08 986.5,-102.08 979.5,-102.08"/>
</g>
<!-- Node30 -->
<g id="node30" class="node">
<title>Node30</title>
<g id="a_node30"><a xlink:href="type__track__global_8h.html" target="_top" xlink:title="Global Access of Type Track.">
<polygon fill="white" stroke="black" points="818.5,-235.5 818.5,-265.5 929.5,-265.5 929.5,-235.5 818.5,-235.5"/>
<text text-anchor="start" x="826.5" y="-253.5" font-family="Helvetica,sans-Serif" font-size="10.00">include/export/type</text>
<text text-anchor="middle" x="874" y="-242.5" font-family="Helvetica,sans-Serif" font-size="10.00">_track_global.h</text>
</a>
</g>
</g>
<!-- Node29&#45;&gt;Node30 -->
<g id="edge51" class="edge">
<title>Node29&#45;&gt;Node30</title>
<path fill="none" stroke="midnightblue" d="M874,-292.11C874,-283.15 874,-273.32 874,-265.58"/>
<polygon fill="midnightblue" stroke="midnightblue" points="870.5,-292.4 874,-302.4 877.5,-292.4 870.5,-292.4"/>
</g>
<!-- Node31 -->
<g id="node31" class="node">
<title>Node31</title>
<g id="a_node31"><a xlink:href="type__track_8cpp.html" target="_top" xlink:title="Implementation of Type_Track Class.">
<polygon fill="white" stroke="black" points="948,-241 948,-260 1088,-260 1088,-241 948,-241"/>
<text text-anchor="middle" x="1018" y="-248" font-family="Helvetica,sans-Serif" font-size="10.00">src/export/type_track.cpp</text>
</a>
</g>
</g>
<!-- Node29&#45;&gt;Node31 -->
<g id="edge53" class="edge">
<title>Node29&#45;&gt;Node31</title>
<path fill="none" stroke="midnightblue" d="M914.69,-298.13C942.41,-285.62 977.81,-269.64 999.15,-260.01"/>
<polygon fill="midnightblue" stroke="midnightblue" points="912.92,-295.09 905.25,-302.4 915.8,-301.47 912.92,-295.09"/>
</g>
<!-- Node30&#45;&gt;Node7 -->
<g id="edge52" class="edge">
<title>Node30&#45;&gt;Node7</title>
<path fill="none" stroke="midnightblue" d="M825.12,-231.95C789.96,-219.32 744.1,-202.85 716.69,-193.01"/>
<polygon fill="midnightblue" stroke="midnightblue" points="824.13,-235.31 834.73,-235.4 826.5,-228.72 824.13,-235.31"/>
</g>
<!-- Node33&#45;&gt;Node34 -->
<g id="edge61" class="edge">
<title>Node33&#45;&gt;Node34</title>
<path fill="none" stroke="midnightblue" d="M1357.18,-416.27C1362.47,-407.05 1368.72,-396.17 1372.98,-388.75"/>
<polygon fill="midnightblue" stroke="midnightblue" points="1354.06,-414.67 1352.12,-425.08 1360.13,-418.15 1354.06,-414.67"/>
</g>
<!-- Node36&#45;&gt;Node35 -->
<g id="edge66" class="edge">
<title>Node36&#45;&gt;Node35</title>
<path fill="none" stroke="midnightblue" d="M1664.49,-471.4C1661.81,-462.36 1658.72,-451.94 1656.59,-444.75"/>
<polygon fill="midnightblue" stroke="midnightblue" points="1661.16,-472.49 1667.36,-481.08 1667.87,-470.5 1661.16,-472.49"/>
</g>
</g>
</svg>
        <g id="navigator" transform="translate(0 0)" fill="#404254">
                <rect fill="#f2f5e9" fill-opacity="0.5" stroke="#606060" stroke-width=".5" x="0" y="0" width="60" height="60"/>
                <use id="zoomplus" xlink:href="#zoomPlus" x="17" y="9" onmousedown="handleZoom(evt,'in')"/>
                <use id="zoomminus" xlink:href="#zoomMin" x="42" y="9" onmousedown="handleZoom(evt,'out')"/>
                <use id="reset" xlink:href="#resetDef" x="30" y="36" onmousedown="handleReset()"/>
                <g id="arrowUp" xlink:href="#dirArrow" transform="translate(30 24)" onmousedown="handlePan(0,-1)">
                  <use xlink:href="#rim" fill="#404040">
                        <set attributeName="fill" to="#808080" begin="arrowUp.mouseover" end="arrowUp.mouseout"/>
                  </use>
                  <path fill="none" stroke="white" stroke-width="1.5" d="M0,-3.0v7 M-2.5,-0.5L0,-3.0L2.5,-0.5"/>
                </g>
                <g id="arrowRight" xlink:href="#dirArrow" transform="rotate(90) translate(36 -43)" onmousedown="handlePan(1,0)">
                  <use xlink:href="#rim" fill="#404040">
                        <set attributeName="fill" to="#808080" begin="arrowRight.mouseover" end="arrowRight.mouseout"/>
                  </use>
                  <path fill="none" stroke="white" stroke-width="1.5" d="M0,-3.0v7 M-2.5,-0.5L0,-3.0L2.5,-0.5"/>
                </g>
                <g id="arrowDown" xlink:href="#dirArrow" transform="rotate(180) translate(-30 -48)" onmousedown="handlePan(0,1)">
                  <use xlink:href="#rim" fill="#404040">
                        <set attributeName="fill" to="#808080" begin="arrowDown.mouseover" end="arrowDown.mouseout"/>
                  </use>
                  <path fill="none" stroke="white" stroke-width="1.5" d="M0,-3.0v7 M-2.5,-0.5L0,-3.0L2.5,-0.5"/>
                </g>
                <g id="arrowLeft" xlink:href="#dirArrow" transform="rotate(270) translate(-36 17)" onmousedown="handlePan(-1,0)">
                  <use xlink:href="#rim" fill="#404040">
                        <set attributeName="fill" to="#808080" begin="arrowLeft.mouseover" end="arrowLeft.mouseout"/>
                  </use>
                  <path fill="none" stroke="white" stroke-width="1.5" d="M0,-3.0v7 M-2.5,-0.5L0,-3.0L2.5,-0.5"/>
                </g>
        </g>
        <svg viewBox="0 0 15 15" width="100%" height="30px" preserveAspectRatio="xMaxYMin meet">
         <g id="arrow_out" transform="scale(0.3 0.3)">
          <a xlink:href="__boost__config_8h__dep__incl_org.svg" target="_base">
           <rect id="button" ry="5" rx="5" y="6" x="6" height="38" width="38"
                fill="#f2f5e9" fill-opacity="0.5" stroke="#606060" stroke-width="1.0"/>
           <path id="arrow"
             d="M 11.500037,31.436501 C 11.940474,20.09759 22.043105,11.32322 32.158766,21.979434 L 37.068811,17.246167 C 37.068811,17.246167 37.088388,32 37.088388,32 L 22.160133,31.978069 C 22.160133,31.978069 26.997745,27.140456 26.997745,27.140456 C 18.528582,18.264221 13.291696,25.230495 11.500037,31.436501 z"
             style="fill:#404040;"/>
          </a>
         </g>
        </svg>
</svg>
