<?xml version="1.0" encoding="UTF-8" standalone="no"?>
<!DOCTYPE svg PUBLIC "-//W3C//DTD SVG 1.1//EN"
 "http://www.w3.org/Graphics/SVG/1.1/DTD/svg11.dtd">
<!-- Generated by graphviz version 2.43.0 (0)
 -->
<!-- Title: src/export/alg_line.cpp Pages: 1 -->
<!--zoomable 319 -->
<svg id="main" version="1.1" xmlns="http://www.w3.org/2000/svg" xmlns:xlink="http://www.w3.org/1999/xlink" xml:space="preserve" onload="init(evt)">
<style type="text/css"><![CDATA[
.edge:hover path { stroke: red; }
.edge:hover polygon { stroke: red; fill: red; }
]]></style>
<script type="text/javascript"><![CDATA[
var edges = document.getElementsByTagName('g');
if (edges && edges.length) {
  for (var i=0;i<edges.length;i++) {
    if (edges[i].id.substr(0,4)=='edge') {
      edges[i].setAttribute('class','edge');
    }
  }
}
]]></script>
        <defs>
                <circle id="rim" cx="0" cy="0" r="7"/>
                <circle id="rim2" cx="0" cy="0" r="3.5"/>
                <g id="zoomPlus">
                        <use xlink:href="#rim" fill="#404040">
                                <set attributeName="fill" to="#808080" begin="zoomplus.mouseover" end="zoomplus.mouseout"/>
                        </use>
                        <path d="M-4,0h8M0,-4v8" fill="none" stroke="white" stroke-width="1.5" pointer-events="none"/>
                </g>
                <g id="zoomMin">
                        <use xlink:href="#rim" fill="#404040">
                                <set attributeName="fill" to="#808080" begin="zoomminus.mouseover" end="zoomminus.mouseout"/>
                        </use>
                        <path d="M-4,0h8" fill="none" stroke="white" stroke-width="1.5" pointer-events="none"/>
                </g>
                <g id="dirArrow">
                        <path fill="none" stroke="white" stroke-width="1.5" d="M0,-3.0v7 M-2.5,-0.5L0,-3.0L2.5,-0.5"/>
                </g>
               <g id="resetDef">
                       <use xlink:href="#rim2" fill="#404040">
                               <set attributeName="fill" to="#808080" begin="reset.mouseover" end="reset.mouseout"/>
                       </use>
               </g>
        </defs>

<script type="text/javascript">
var viewWidth = 1055;
var viewHeight = 319;
var sectionId = 'dynsection-0';
</script>
<script xlink:href="svgpan.js"/>
<svg id="graph" class="graph">
<g id="viewport">
<title>src/export/alg_line.cpp</title>
<polygon fill="white" stroke="transparent" points="-4,4 -4,-315 1051,-315 1051,4 -4,4"/>
<!-- Node1 -->
<g id="node1" class="node">
<title>Node1</title>
<g id="a_node1"><a xlink:title="Implementation of Alg_Line Class.">
<polygon fill="#bfbfbf" stroke="black" points="747.5,-291.5 747.5,-310.5 874.5,-310.5 874.5,-291.5 747.5,-291.5"/>
<text text-anchor="middle" x="811" y="-298.5" font-family="Helvetica,sans-Serif" font-size="10.00">src/export/alg_line.cpp</text>
</a>
</g>
</g>
<!-- Node2 -->
<g id="node2" class="node">
<title>Node2</title>
<g id="a_node2"><a xlink:href="alg__line_8h.html" target="_top" xlink:title="Parse Line of Alg.">
<polygon fill="white" stroke="black" points="568,-235.5 568,-254.5 666,-254.5 666,-235.5 568,-235.5"/>
<text text-anchor="middle" x="617" y="-242.5" font-family="Helvetica,sans-Serif" font-size="10.00">export/alg_line.h</text>
</a>
</g>
</g>
<!-- Node1&#45;&gt;Node2 -->
<g id="edge1" class="edge">
<title>Node1&#45;&gt;Node2</title>
<path fill="none" stroke="midnightblue" d="M780.26,-291.44C747.06,-282.2 694.01,-267.44 657.44,-257.26"/>
<polygon fill="midnightblue" stroke="midnightblue" points="658.17,-253.83 647.6,-254.52 656.29,-260.57 658.17,-253.83"/>
</g>
<!-- Node19 -->
<g id="node19" class="node">
<title>Node19</title>
<g id="a_node19"><a xlink:title=" ">
<polygon fill="white" stroke="#bfbfbf" points="979,-6 979,-25 1039,-25 1039,-6 979,-6"/>
<text text-anchor="middle" x="1009" y="-13" font-family="Helvetica,sans-Serif" font-size="10.00">iostream</text>
</a>
</g>
</g>
<!-- Node1&#45;&gt;Node19 -->
<g id="edge37" class="edge">
<title>Node1&#45;&gt;Node19</title>
<path fill="none" stroke="midnightblue" d="M874.55,-296.96C944.45,-289.79 1047,-266.28 1047,-190 1047,-190 1047,-190 1047,-132 1047,-95.75 1029.91,-56.17 1018.65,-34.03"/>
<polygon fill="midnightblue" stroke="midnightblue" points="1021.73,-32.37 1013.97,-25.16 1015.54,-35.64 1021.73,-32.37"/>
</g>
<!-- Node3 -->
<g id="node3" class="node">
<title>Node3</title>
<g id="a_node3"><a xlink:href="alg__opt_8h.html" target="_top" xlink:title="ALG_Opt Enum.">
<polygon fill="white" stroke="black" points="847,-179.5 847,-198.5 943,-198.5 943,-179.5 847,-179.5"/>
<text text-anchor="middle" x="895" y="-186.5" font-family="Helvetica,sans-Serif" font-size="10.00">export/alg_opt.h</text>
</a>
</g>
</g>
<!-- Node2&#45;&gt;Node3 -->
<g id="edge2" class="edge">
<title>Node2&#45;&gt;Node3</title>
<path fill="none" stroke="midnightblue" d="M661.05,-235.44C709.85,-225.96 788.56,-210.67 841.03,-200.48"/>
<polygon fill="midnightblue" stroke="midnightblue" points="842.01,-203.86 851.16,-198.52 840.67,-196.99 842.01,-203.86"/>
</g>
<!-- Node4 -->
<g id="node4" class="node">
<title>Node4</title>
<g id="a_node4"><a xlink:href="functions_8h.html" target="_top" xlink:title="Function Lists.">
<polygon fill="white" stroke="black" points="294.5,-123.5 294.5,-142.5 399.5,-142.5 399.5,-123.5 294.5,-123.5"/>
<text text-anchor="middle" x="347" y="-130.5" font-family="Helvetica,sans-Serif" font-size="10.00">export/functions.h</text>
</a>
</g>
</g>
<!-- Node2&#45;&gt;Node4 -->
<g id="edge3" class="edge">
<title>Node2&#45;&gt;Node4</title>
<path fill="none" stroke="midnightblue" d="M567.63,-240.64C524.81,-236.01 462.3,-225.03 414,-199 391.82,-187.05 371.86,-165.64 359.62,-150.67"/>
<polygon fill="midnightblue" stroke="midnightblue" points="362.28,-148.39 353.34,-142.71 356.79,-152.73 362.28,-148.39"/>
</g>
<!-- Node5 -->
<g id="node5" class="node">
<title>Node5</title>
<g id="a_node5"><a xlink:href="utils_8h.html" target="_top" xlink:title="Utilities.">
<polygon fill="white" stroke="black" points="260.5,-67.5 260.5,-86.5 307.5,-86.5 307.5,-67.5 260.5,-67.5"/>
<text text-anchor="middle" x="284" y="-74.5" font-family="Helvetica,sans-Serif" font-size="10.00">utils.h</text>
</a>
</g>
</g>
<!-- Node2&#45;&gt;Node5 -->
<g id="edge27" class="edge">
<title>Node2&#45;&gt;Node5</title>
<path fill="none" stroke="midnightblue" d="M567.76,-239.36C519.5,-233.69 444.44,-221.9 383,-199 336.36,-181.61 311.55,-185.72 286,-143 277.76,-129.22 278.06,-110.7 279.95,-96.95"/>
<polygon fill="midnightblue" stroke="midnightblue" points="283.46,-97.19 281.76,-86.73 276.57,-95.97 283.46,-97.19"/>
</g>
<!-- Node6 -->
<g id="node6" class="node">
<title>Node6</title>
<g id="a_node6"><a xlink:title=" ">
<polygon fill="white" stroke="#bfbfbf" points="439,-6 439,-25 503,-25 503,-6 439,-6"/>
<text text-anchor="middle" x="471" y="-13" font-family="Helvetica,sans-Serif" font-size="10.00">algorithm</text>
</a>
</g>
</g>
<!-- Node2&#45;&gt;Node6 -->
<g id="edge28" class="edge">
<title>Node2&#45;&gt;Node6</title>
<path fill="none" stroke="midnightblue" d="M576.9,-235.45C555.59,-228.91 530.64,-217.72 515,-199 474.65,-150.7 470.14,-71.43 470.36,-35.39"/>
<polygon fill="midnightblue" stroke="midnightblue" points="473.86,-35.37 470.55,-25.3 466.86,-35.23 473.86,-35.37"/>
</g>
<!-- Node9 -->
<g id="node9" class="node">
<title>Node9</title>
<g id="a_node9"><a xlink:title=" ">
<polygon fill="white" stroke="#bfbfbf" points="0,-6 0,-25 56,-25 56,-6 0,-6"/>
<text text-anchor="middle" x="28" y="-13" font-family="Helvetica,sans-Serif" font-size="10.00">sstream</text>
</a>
</g>
</g>
<!-- Node2&#45;&gt;Node9 -->
<g id="edge32" class="edge">
<title>Node2&#45;&gt;Node9</title>
<path fill="none" stroke="midnightblue" d="M567.91,-242.64C507.75,-239.61 403.51,-229.91 320,-199 206.47,-156.98 89.84,-67.25 46.05,-31.57"/>
<polygon fill="midnightblue" stroke="midnightblue" points="48.24,-28.84 38.29,-25.19 43.79,-34.25 48.24,-28.84"/>
</g>
<!-- Node10 -->
<g id="node10" class="node">
<title>Node10</title>
<g id="a_node10"><a xlink:title=" ">
<polygon fill="white" stroke="#bfbfbf" points="521,-6 521,-25 565,-25 565,-6 521,-6"/>
<text text-anchor="middle" x="543" y="-13" font-family="Helvetica,sans-Serif" font-size="10.00">string</text>
</a>
</g>
</g>
<!-- Node2&#45;&gt;Node10 -->
<g id="edge35" class="edge">
<title>Node2&#45;&gt;Node10</title>
<path fill="none" stroke="midnightblue" d="M581.15,-235.4C562.12,-228.81 540.37,-217.59 529,-199 496.99,-146.68 521.21,-69.5 535.07,-34.7"/>
<polygon fill="midnightblue" stroke="midnightblue" points="538.35,-35.91 538.96,-25.33 531.89,-33.22 538.35,-35.91"/>
</g>
<!-- Node11 -->
<g id="node11" class="node">
<title>Node11</title>
<g id="a_node11"><a xlink:title=" ">
<polygon fill="white" stroke="#bfbfbf" points="373.5,-6 373.5,-25 420.5,-25 420.5,-6 373.5,-6"/>
<text text-anchor="middle" x="397" y="-13" font-family="Helvetica,sans-Serif" font-size="10.00">vector</text>
</a>
</g>
</g>
<!-- Node2&#45;&gt;Node11 -->
<g id="edge36" class="edge">
<title>Node2&#45;&gt;Node11</title>
<path fill="none" stroke="midnightblue" d="M573.82,-235.45C549.36,-228.84 519.46,-217.57 498,-199 444.65,-152.82 414,-71.22 402.4,-34.86"/>
<polygon fill="midnightblue" stroke="midnightblue" points="405.69,-33.65 399.41,-25.12 399,-35.71 405.69,-33.65"/>
</g>
<!-- Node14 -->
<g id="node14" class="node">
<title>Node14</title>
<g id="a_node14"><a xlink:href="log__global_8h.html" target="_top" xlink:title="Global Access of Log.">
<polygon fill="white" stroke="black" points="538,-179.5 538,-198.5 614,-198.5 614,-179.5 538,-179.5"/>
<text text-anchor="middle" x="576" y="-186.5" font-family="Helvetica,sans-Serif" font-size="10.00">log_global.h</text>
</a>
</g>
</g>
<!-- Node2&#45;&gt;Node14 -->
<g id="edge14" class="edge">
<title>Node2&#45;&gt;Node14</title>
<path fill="none" stroke="midnightblue" d="M610.23,-235.08C604.44,-227.46 595.94,-216.26 588.86,-206.94"/>
<polygon fill="midnightblue" stroke="midnightblue" points="591.48,-204.6 582.64,-198.75 585.9,-208.83 591.48,-204.6"/>
</g>
<!-- Node2&#45;&gt;Node19 -->
<g id="edge31" class="edge">
<title>Node2&#45;&gt;Node19</title>
<path fill="none" stroke="midnightblue" d="M666.15,-244.54C752.8,-244.41 927.66,-239.05 971,-199 1017.31,-156.2 1015.14,-72.83 1011.46,-35.44"/>
<polygon fill="midnightblue" stroke="midnightblue" points="1014.93,-34.95 1010.32,-25.41 1007.97,-35.74 1014.93,-34.95"/>
</g>
<!-- Node22 -->
<g id="node22" class="node">
<title>Node22</title>
<g id="a_node22"><a xlink:title=" ">
<polygon fill="white" stroke="#bfbfbf" points="904,-67.5 904,-86.5 960,-86.5 960,-67.5 904,-67.5"/>
<text text-anchor="middle" x="932" y="-74.5" font-family="Helvetica,sans-Serif" font-size="10.00">iomanip</text>
</a>
</g>
</g>
<!-- Node2&#45;&gt;Node22 -->
<g id="edge30" class="edge">
<title>Node2&#45;&gt;Node22</title>
<path fill="none" stroke="midnightblue" d="M666.33,-244.94C750.3,-245.38 915.49,-240.74 952,-199 977.48,-169.87 956.69,-121.1 942.49,-95.27"/>
<polygon fill="midnightblue" stroke="midnightblue" points="945.51,-93.5 937.49,-86.58 939.45,-96.99 945.51,-93.5"/>
</g>
<!-- Node24 -->
<g id="node24" class="node">
<title>Node24</title>
<g id="a_node24"><a xlink:title=" ">
<polygon fill="white" stroke="#bfbfbf" points="632,-179.5 632,-198.5 684,-198.5 684,-179.5 632,-179.5"/>
<text text-anchor="middle" x="658" y="-186.5" font-family="Helvetica,sans-Serif" font-size="10.00">cassert</text>
</a>
</g>
</g>
<!-- Node2&#45;&gt;Node24 -->
<g id="edge29" class="edge">
<title>Node2&#45;&gt;Node24</title>
<path fill="none" stroke="midnightblue" d="M623.77,-235.08C629.56,-227.46 638.06,-216.26 645.14,-206.94"/>
<polygon fill="midnightblue" stroke="midnightblue" points="648.1,-208.83 651.36,-198.75 642.52,-204.6 648.1,-208.83"/>
</g>
<!-- Node25 -->
<g id="node25" class="node">
<title>Node25</title>
<g id="a_node25"><a xlink:title=" ">
<polygon fill="white" stroke="#bfbfbf" points="702.5,-179.5 702.5,-198.5 745.5,-198.5 745.5,-179.5 702.5,-179.5"/>
<text text-anchor="middle" x="724" y="-186.5" font-family="Helvetica,sans-Serif" font-size="10.00">stack</text>
</a>
</g>
</g>
<!-- Node2&#45;&gt;Node25 -->
<g id="edge33" class="edge">
<title>Node2&#45;&gt;Node25</title>
<path fill="none" stroke="midnightblue" d="M634.19,-235.32C651.35,-226.66 677.95,-213.24 697.75,-203.25"/>
<polygon fill="midnightblue" stroke="midnightblue" points="699.5,-206.28 706.85,-198.65 696.35,-200.04 699.5,-206.28"/>
</g>
<!-- Node26 -->
<g id="node26" class="node">
<title>Node26</title>
<g id="a_node26"><a xlink:title=" ">
<polygon fill="white" stroke="#bfbfbf" points="763.5,-179.5 763.5,-198.5 828.5,-198.5 828.5,-179.5 763.5,-179.5"/>
<text text-anchor="middle" x="796" y="-186.5" font-family="Helvetica,sans-Serif" font-size="10.00">stdexcept</text>
</a>
</g>
</g>
<!-- Node2&#45;&gt;Node26 -->
<g id="edge34" class="edge">
<title>Node2&#45;&gt;Node26</title>
<path fill="none" stroke="midnightblue" d="M645.36,-235.44C675.74,-226.28 724.11,-211.69 757.82,-201.52"/>
<polygon fill="midnightblue" stroke="midnightblue" points="759.21,-204.76 767.77,-198.52 757.18,-198.05 759.21,-204.76"/>
</g>
<!-- Node4&#45;&gt;Node5 -->
<g id="edge4" class="edge">
<title>Node4&#45;&gt;Node5</title>
<path fill="none" stroke="midnightblue" d="M336.88,-123.32C327.47,-115.26 313.26,-103.08 301.93,-93.37"/>
<polygon fill="midnightblue" stroke="midnightblue" points="304.18,-90.68 294.31,-86.83 299.62,-96 304.18,-90.68"/>
</g>
<!-- Node4&#45;&gt;Node10 -->
<g id="edge13" class="edge">
<title>Node4&#45;&gt;Node10</title>
<path fill="none" stroke="midnightblue" d="M361.73,-123.32C395.51,-103.41 478.78,-54.34 519.63,-30.27"/>
<polygon fill="midnightblue" stroke="midnightblue" points="521.53,-33.22 528.36,-25.12 517.97,-27.19 521.53,-33.22"/>
</g>
<!-- Node13 -->
<g id="node13" class="node">
<title>Node13</title>
<g id="a_node13"><a xlink:title=" ">
<polygon fill="white" stroke="#bfbfbf" points="326,-67.5 326,-86.5 368,-86.5 368,-67.5 326,-67.5"/>
<text text-anchor="middle" x="347" y="-74.5" font-family="Helvetica,sans-Serif" font-size="10.00">array</text>
</a>
</g>
</g>
<!-- Node4&#45;&gt;Node13 -->
<g id="edge12" class="edge">
<title>Node4&#45;&gt;Node13</title>
<path fill="none" stroke="midnightblue" d="M347,-123.08C347,-116.01 347,-105.86 347,-96.99"/>
<polygon fill="midnightblue" stroke="midnightblue" points="350.5,-96.75 347,-86.75 343.5,-96.75 350.5,-96.75"/>
</g>
<!-- Node5&#45;&gt;Node6 -->
<g id="edge5" class="edge">
<title>Node5&#45;&gt;Node6</title>
<path fill="none" stroke="midnightblue" d="M307.61,-69.05C336.56,-60.45 387.06,-45.2 430,-31 432.45,-30.19 434.97,-29.34 437.5,-28.47"/>
<polygon fill="midnightblue" stroke="midnightblue" points="438.91,-31.69 447.21,-25.1 436.61,-25.08 438.91,-31.69"/>
</g>
<!-- Node7 -->
<g id="node7" class="node">
<title>Node7</title>
<g id="a_node7"><a xlink:title=" ">
<polygon fill="white" stroke="#bfbfbf" points="233.5,-6 233.5,-25 282.5,-25 282.5,-6 233.5,-6"/>
<text text-anchor="middle" x="258" y="-13" font-family="Helvetica,sans-Serif" font-size="10.00">cctype</text>
</a>
</g>
</g>
<!-- Node5&#45;&gt;Node7 -->
<g id="edge6" class="edge">
<title>Node5&#45;&gt;Node7</title>
<path fill="none" stroke="midnightblue" d="M280.27,-67.48C276.53,-58.9 270.64,-45.43 265.86,-34.48"/>
<polygon fill="midnightblue" stroke="midnightblue" points="268.93,-32.77 261.72,-25.01 262.52,-35.57 268.93,-32.77"/>
</g>
<!-- Node8 -->
<g id="node8" class="node">
<title>Node8</title>
<g id="a_node8"><a xlink:title=" ">
<polygon fill="white" stroke="#bfbfbf" points="301,-6 301,-25 355,-25 355,-6 301,-6"/>
<text text-anchor="middle" x="328" y="-13" font-family="Helvetica,sans-Serif" font-size="10.00">random</text>
</a>
</g>
</g>
<!-- Node5&#45;&gt;Node8 -->
<g id="edge7" class="edge">
<title>Node5&#45;&gt;Node8</title>
<path fill="none" stroke="midnightblue" d="M290.3,-67.48C296.9,-58.55 307.44,-44.31 315.69,-33.14"/>
<polygon fill="midnightblue" stroke="midnightblue" points="318.58,-35.13 321.71,-25.01 312.95,-30.97 318.58,-35.13"/>
</g>
<!-- Node5&#45;&gt;Node9 -->
<g id="edge8" class="edge">
<title>Node5&#45;&gt;Node9</title>
<path fill="none" stroke="midnightblue" d="M260.34,-72.5C219.82,-66.21 134.78,-51.68 65,-31 62.57,-30.28 60.07,-29.47 57.58,-28.6"/>
<polygon fill="midnightblue" stroke="midnightblue" points="58.73,-25.3 48.14,-25.11 56.3,-31.86 58.73,-25.3"/>
</g>
<!-- Node5&#45;&gt;Node10 -->
<g id="edge9" class="edge">
<title>Node5&#45;&gt;Node10</title>
<path fill="none" stroke="midnightblue" d="M307.73,-69.27C310.84,-68.47 313.99,-67.69 317,-67 402.92,-47.39 428.07,-57.89 512,-31 513.67,-30.46 515.37,-29.86 517.07,-29.21"/>
<polygon fill="midnightblue" stroke="midnightblue" points="518.77,-32.29 526.58,-25.13 516.01,-25.85 518.77,-32.29"/>
</g>
<!-- Node5&#45;&gt;Node11 -->
<g id="edge10" class="edge">
<title>Node5&#45;&gt;Node11</title>
<path fill="none" stroke="midnightblue" d="M300.19,-67.48C318.9,-57.62 349.92,-41.29 371.8,-29.77"/>
<polygon fill="midnightblue" stroke="midnightblue" points="373.62,-32.77 380.84,-25.01 370.36,-26.57 373.62,-32.77"/>
</g>
<!-- Node12 -->
<g id="node12" class="node">
<title>Node12</title>
<g id="a_node12"><a xlink:title=" ">
<polygon fill="white" stroke="#bfbfbf" points="74.5,-0.5 74.5,-30.5 215.5,-30.5 215.5,-0.5 74.5,-0.5"/>
<text text-anchor="start" x="82.5" y="-18.5" font-family="Helvetica,sans-Serif" font-size="10.00">boost/dll/runtime_symbol</text>
<text text-anchor="middle" x="145" y="-7.5" font-family="Helvetica,sans-Serif" font-size="10.00">_info.hpp</text>
</a>
</g>
</g>
<!-- Node5&#45;&gt;Node12 -->
<g id="edge11" class="edge">
<title>Node5&#45;&gt;Node12</title>
<path fill="none" stroke="midnightblue" d="M264.08,-67.48C244.12,-58.93 212.75,-45.5 187.22,-34.57"/>
<polygon fill="midnightblue" stroke="midnightblue" points="188.33,-31.24 177.76,-30.52 185.58,-37.68 188.33,-31.24"/>
</g>
<!-- Node15 -->
<g id="node15" class="node">
<title>Node15</title>
<g id="a_node15"><a xlink:href="include_2log_8h.html" target="_top" xlink:title="Log Utilities.">
<polygon fill="white" stroke="black" points="647.5,-123.5 647.5,-142.5 688.5,-142.5 688.5,-123.5 647.5,-123.5"/>
<text text-anchor="middle" x="668" y="-130.5" font-family="Helvetica,sans-Serif" font-size="10.00">log.h</text>
</a>
</g>
</g>
<!-- Node14&#45;&gt;Node15 -->
<g id="edge15" class="edge">
<title>Node14&#45;&gt;Node15</title>
<path fill="none" stroke="midnightblue" d="M590.78,-179.32C605.27,-170.82 627.57,-157.73 644.49,-147.8"/>
<polygon fill="midnightblue" stroke="midnightblue" points="646.4,-150.74 653.26,-142.65 642.86,-144.7 646.4,-150.74"/>
</g>
<!-- Node15&#45;&gt;Node5 -->
<g id="edge22" class="edge">
<title>Node15&#45;&gt;Node5</title>
<path fill="none" stroke="midnightblue" d="M647.27,-130.35C594.15,-125.92 448.75,-112.46 317.9,-86.91"/>
<polygon fill="midnightblue" stroke="midnightblue" points="318.19,-83.4 307.7,-84.89 316.83,-90.26 318.19,-83.4"/>
</g>
<!-- Node16 -->
<g id="node16" class="node">
<title>Node16</title>
<g id="a_node16"><a xlink:href="meta_8h.html" target="_top" xlink:title="mmCEsim meta data">
<polygon fill="white" stroke="black" points="609.5,-67.5 609.5,-86.5 660.5,-86.5 660.5,-67.5 609.5,-67.5"/>
<text text-anchor="middle" x="635" y="-74.5" font-family="Helvetica,sans-Serif" font-size="10.00">meta.h</text>
</a>
</g>
</g>
<!-- Node15&#45;&gt;Node16 -->
<g id="edge16" class="edge">
<title>Node15&#45;&gt;Node16</title>
<path fill="none" stroke="midnightblue" d="M662.55,-123.08C657.99,-115.61 651.33,-104.72 645.71,-95.52"/>
<polygon fill="midnightblue" stroke="midnightblue" points="648.55,-93.46 640.35,-86.75 642.58,-97.11 648.55,-93.46"/>
</g>
<!-- Node17 -->
<g id="node17" class="node">
<title>Node17</title>
<g id="a_node17"><a xlink:href="term_8h.html" target="_top" xlink:title="Terminal Color and Style Control.">
<polygon fill="white" stroke="black" points="814.5,-67.5 814.5,-86.5 863.5,-86.5 863.5,-67.5 814.5,-67.5"/>
<text text-anchor="middle" x="839" y="-74.5" font-family="Helvetica,sans-Serif" font-size="10.00">term.h</text>
</a>
</g>
</g>
<!-- Node15&#45;&gt;Node17 -->
<g id="edge18" class="edge">
<title>Node15&#45;&gt;Node17</title>
<path fill="none" stroke="midnightblue" d="M688.63,-125.49C717.41,-116.4 769.98,-99.79 804.71,-88.83"/>
<polygon fill="midnightblue" stroke="midnightblue" points="805.95,-92.11 814.43,-85.76 803.84,-85.43 805.95,-92.11"/>
</g>
<!-- Node20 -->
<g id="node20" class="node">
<title>Node20</title>
<g id="a_node20"><a xlink:title=" ">
<polygon fill="white" stroke="#bfbfbf" points="679,-67.5 679,-86.5 723,-86.5 723,-67.5 679,-67.5"/>
<text text-anchor="middle" x="701" y="-74.5" font-family="Helvetica,sans-Serif" font-size="10.00">ctime</text>
</a>
</g>
</g>
<!-- Node15&#45;&gt;Node20 -->
<g id="edge23" class="edge">
<title>Node15&#45;&gt;Node20</title>
<path fill="none" stroke="midnightblue" d="M673.45,-123.08C678.01,-115.61 684.67,-104.72 690.29,-95.52"/>
<polygon fill="midnightblue" stroke="midnightblue" points="693.42,-97.11 695.65,-86.75 687.45,-93.46 693.42,-97.11"/>
</g>
<!-- Node21 -->
<g id="node21" class="node">
<title>Node21</title>
<g id="a_node21"><a xlink:title=" ">
<polygon fill="white" stroke="#bfbfbf" points="741.5,-67.5 741.5,-86.5 796.5,-86.5 796.5,-67.5 741.5,-67.5"/>
<text text-anchor="middle" x="769" y="-74.5" font-family="Helvetica,sans-Serif" font-size="10.00">fstream</text>
</a>
</g>
</g>
<!-- Node15&#45;&gt;Node21 -->
<g id="edge24" class="edge">
<title>Node15&#45;&gt;Node21</title>
<path fill="none" stroke="midnightblue" d="M684.23,-123.32C700.35,-114.7 725.3,-101.36 743.96,-91.39"/>
<polygon fill="midnightblue" stroke="midnightblue" points="745.64,-94.46 752.81,-86.65 742.34,-88.28 745.64,-94.46"/>
</g>
<!-- Node15&#45;&gt;Node22 -->
<g id="edge25" class="edge">
<title>Node15&#45;&gt;Node22</title>
<path fill="none" stroke="midnightblue" d="M688.72,-127.76C733,-118.7 837.44,-97.34 894.01,-85.77"/>
<polygon fill="midnightblue" stroke="midnightblue" points="894.89,-89.16 903.99,-83.73 893.49,-82.3 894.89,-89.16"/>
</g>
<!-- Node23 -->
<g id="node23" class="node">
<title>Node23</title>
<g id="a_node23"><a xlink:title=" ">
<polygon fill="white" stroke="#bfbfbf" points="538.5,-67.5 538.5,-86.5 591.5,-86.5 591.5,-67.5 538.5,-67.5"/>
<text text-anchor="middle" x="565" y="-74.5" font-family="Helvetica,sans-Serif" font-size="10.00">spy.hpp</text>
</a>
</g>
</g>
<!-- Node15&#45;&gt;Node23 -->
<g id="edge26" class="edge">
<title>Node15&#45;&gt;Node23</title>
<path fill="none" stroke="midnightblue" d="M651.45,-123.32C635.01,-114.7 609.57,-101.36 590.53,-91.39"/>
<polygon fill="midnightblue" stroke="midnightblue" points="591.99,-88.2 581.51,-86.65 588.74,-94.4 591.99,-88.2"/>
</g>
<!-- Node16&#45;&gt;Node10 -->
<g id="edge17" class="edge">
<title>Node16&#45;&gt;Node10</title>
<path fill="none" stroke="midnightblue" d="M621.82,-67.48C606.93,-57.84 582.46,-42.02 564.73,-30.55"/>
<polygon fill="midnightblue" stroke="midnightblue" points="566.45,-27.5 556.16,-25.01 562.65,-33.38 566.45,-27.5"/>
</g>
<!-- Node17&#45;&gt;Node10 -->
<g id="edge21" class="edge">
<title>Node17&#45;&gt;Node10</title>
<path fill="none" stroke="midnightblue" d="M814.19,-69.01C811.43,-68.3 808.66,-67.62 806,-67 723.51,-47.86 625.27,-30.39 575.45,-21.91"/>
<polygon fill="midnightblue" stroke="midnightblue" points="575.73,-18.4 565.29,-20.19 574.56,-25.31 575.73,-18.4"/>
</g>
<!-- Node18 -->
<g id="node18" class="node">
<title>Node18</title>
<g id="a_node18"><a xlink:title=" ">
<polygon fill="white" stroke="#bfbfbf" points="814.5,-6 814.5,-25 863.5,-25 863.5,-6 814.5,-6"/>
<text text-anchor="middle" x="839" y="-13" font-family="Helvetica,sans-Serif" font-size="10.00">cstdlib</text>
</a>
</g>
</g>
<!-- Node17&#45;&gt;Node18 -->
<g id="edge19" class="edge">
<title>Node17&#45;&gt;Node18</title>
<path fill="none" stroke="midnightblue" d="M839,-67.48C839,-59.08 839,-45.98 839,-35.16"/>
<polygon fill="midnightblue" stroke="midnightblue" points="842.5,-35.01 839,-25.01 835.5,-35.01 842.5,-35.01"/>
</g>
<!-- Node17&#45;&gt;Node19 -->
<g id="edge20" class="edge">
<title>Node17&#45;&gt;Node19</title>
<path fill="none" stroke="midnightblue" d="M863.36,-67.48C892.64,-57.22 941.97,-39.96 975,-28.4"/>
<polygon fill="midnightblue" stroke="midnightblue" points="976.41,-31.62 984.69,-25.01 974.09,-25.01 976.41,-31.62"/>
</g>
</g>
</svg>
        <g id="navigator" transform="translate(0 0)" fill="#404254">
                <rect fill="#f2f5e9" fill-opacity="0.5" stroke="#606060" stroke-width=".5" x="0" y="0" width="60" height="60"/>
                <use id="zoomplus" xlink:href="#zoomPlus" x="17" y="9" onmousedown="handleZoom(evt,'in')"/>
                <use id="zoomminus" xlink:href="#zoomMin" x="42" y="9" onmousedown="handleZoom(evt,'out')"/>
                <use id="reset" xlink:href="#resetDef" x="30" y="36" onmousedown="handleReset()"/>
                <g id="arrowUp" xlink:href="#dirArrow" transform="translate(30 24)" onmousedown="handlePan(0,-1)">
                  <use xlink:href="#rim" fill="#404040">
                        <set attributeName="fill" to="#808080" begin="arrowUp.mouseover" end="arrowUp.mouseout"/>
                  </use>
                  <path fill="none" stroke="white" stroke-width="1.5" d="M0,-3.0v7 M-2.5,-0.5L0,-3.0L2.5,-0.5"/>
                </g>
                <g id="arrowRight" xlink:href="#dirArrow" transform="rotate(90) translate(36 -43)" onmousedown="handlePan(1,0)">
                  <use xlink:href="#rim" fill="#404040">
                        <set attributeName="fill" to="#808080" begin="arrowRight.mouseover" end="arrowRight.mouseout"/>
                  </use>
                  <path fill="none" stroke="white" stroke-width="1.5" d="M0,-3.0v7 M-2.5,-0.5L0,-3.0L2.5,-0.5"/>
                </g>
                <g id="arrowDown" xlink:href="#dirArrow" transform="rotate(180) translate(-30 -48)" onmousedown="handlePan(0,1)">
                  <use xlink:href="#rim" fill="#404040">
                        <set attributeName="fill" to="#808080" begin="arrowDown.mouseover" end="arrowDown.mouseout"/>
                  </use>
                  <path fill="none" stroke="white" stroke-width="1.5" d="M0,-3.0v7 M-2.5,-0.5L0,-3.0L2.5,-0.5"/>
                </g>
                <g id="arrowLeft" xlink:href="#dirArrow" transform="rotate(270) translate(-36 17)" onmousedown="handlePan(-1,0)">
                  <use xlink:href="#rim" fill="#404040">
                        <set attributeName="fill" to="#808080" begin="arrowLeft.mouseover" end="arrowLeft.mouseout"/>
                  </use>
                  <path fill="none" stroke="white" stroke-width="1.5" d="M0,-3.0v7 M-2.5,-0.5L0,-3.0L2.5,-0.5"/>
                </g>
        </g>
        <svg viewBox="0 0 15 15" width="100%" height="30px" preserveAspectRatio="xMaxYMin meet">
         <g id="arrow_out" transform="scale(0.3 0.3)">
          <a xlink:href="alg__line_8cpp__incl_org.svg" target="_base">
           <rect id="button" ry="5" rx="5" y="6" x="6" height="38" width="38"
                fill="#f2f5e9" fill-opacity="0.5" stroke="#606060" stroke-width="1.0"/>
           <path id="arrow"
             d="M 11.500037,31.436501 C 11.940474,20.09759 22.043105,11.32322 32.158766,21.979434 L 37.068811,17.246167 C 37.068811,17.246167 37.088388,32 37.088388,32 L 22.160133,31.978069 C 22.160133,31.978069 26.997745,27.140456 26.997745,27.140456 C 18.528582,18.264221 13.291696,25.230495 11.500037,31.436501 z"
             style="fill:#404040;"/>
          </a>
         </g>
        </svg>
</svg>
