<?xml version="1.0" encoding="UTF-8" standalone="no"?>
<!DOCTYPE svg PUBLIC "-//W3C//DTD SVG 1.1//EN"
 "http://www.w3.org/Graphics/SVG/1.1/DTD/svg11.dtd">
<!-- Generated by graphviz version 2.43.0 (0)
 -->
<!-- Title: src/export/alg_line.cpp Pages: 1 -->
<!--zoomable 319 -->
<svg id="main" version="1.1" xmlns="http://www.w3.org/2000/svg" xmlns:xlink="http://www.w3.org/1999/xlink" xml:space="preserve" onload="init(evt)">
<style type="text/css"><![CDATA[
.edge:hover path { stroke: red; }
.edge:hover polygon { stroke: red; fill: red; }
]]></style>
<script type="text/javascript"><![CDATA[
var edges = document.getElementsByTagName('g');
if (edges && edges.length) {
  for (var i=0;i<edges.length;i++) {
    if (edges[i].id.substr(0,4)=='edge') {
      edges[i].setAttribute('class','edge');
    }
  }
}
]]></script>
        <defs>
                <circle id="rim" cx="0" cy="0" r="7"/>
                <circle id="rim2" cx="0" cy="0" r="3.5"/>
                <g id="zoomPlus">
                        <use xlink:href="#rim" fill="#404040">
                                <set attributeName="fill" to="#808080" begin="zoomplus.mouseover" end="zoomplus.mouseout"/>
                        </use>
                        <path d="M-4,0h8M0,-4v8" fill="none" stroke="white" stroke-width="1.5" pointer-events="none"/>
                </g>
                <g id="zoomMin">
                        <use xlink:href="#rim" fill="#404040">
                                <set attributeName="fill" to="#808080" begin="zoomminus.mouseover" end="zoomminus.mouseout"/>
                        </use>
                        <path d="M-4,0h8" fill="none" stroke="white" stroke-width="1.5" pointer-events="none"/>
                </g>
                <g id="dirArrow">
                        <path fill="none" stroke="white" stroke-width="1.5" d="M0,-3.0v7 M-2.5,-0.5L0,-3.0L2.5,-0.5"/>
                </g>
               <g id="resetDef">
                       <use xlink:href="#rim2" fill="#404040">
                               <set attributeName="fill" to="#808080" begin="reset.mouseover" end="reset.mouseout"/>
                       </use>
               </g>
        </defs>

<script type="text/javascript">
var viewWidth = 1632;
var viewHeight = 319;
var sectionId = 'dynsection-0';
</script>
<script xlink:href="svgpan.js"/>
<svg id="graph" class="graph">
<g id="viewport">
<title>src/export/alg_line.cpp</title>
<polygon fill="white" stroke="transparent" points="-4,4 -4,-315 1627.5,-315 1627.5,4 -4,4"/>
<!-- Node1 -->
<g id="node1" class="node">
<title>Node1</title>
<g id="a_node1"><a xlink:title="Implementation of Alg_Line Class.">
<polygon fill="#bfbfbf" stroke="black" points="1095.5,-291.5 1095.5,-310.5 1222.5,-310.5 1222.5,-291.5 1095.5,-291.5"/>
<text text-anchor="middle" x="1159" y="-298.5" font-family="Helvetica,sans-Serif" font-size="10.00">src/export/alg_line.cpp</text>
</a>
</g>
</g>
<!-- Node2 -->
<g id="node2" class="node">
<title>Node2</title>
<g id="a_node2"><a xlink:href="alg__line_8h.html" target="_top" xlink:title="Parse Line of Alg.">
<polygon fill="white" stroke="black" points="1110,-235.5 1110,-254.5 1208,-254.5 1208,-235.5 1110,-235.5"/>
<text text-anchor="middle" x="1159" y="-242.5" font-family="Helvetica,sans-Serif" font-size="10.00">export/alg_line.h</text>
</a>
</g>
</g>
<!-- Node1&#45;&gt;Node2 -->
<g id="edge1" class="edge">
<title>Node1&#45;&gt;Node2</title>
<path fill="none" stroke="midnightblue" d="M1159,-291.08C1159,-284.01 1159,-273.86 1159,-264.99"/>
<polygon fill="midnightblue" stroke="midnightblue" points="1162.5,-264.75 1159,-254.75 1155.5,-264.75 1162.5,-264.75"/>
</g>
<!-- Node3 -->
<g id="node3" class="node">
<title>Node3</title>
<g id="a_node3"><a xlink:href="alg__opt_8h.html" target="_top" xlink:title="ALG_Opt Enum.">
<polygon fill="white" stroke="black" points="309,-179.5 309,-198.5 405,-198.5 405,-179.5 309,-179.5"/>
<text text-anchor="middle" x="357" y="-186.5" font-family="Helvetica,sans-Serif" font-size="10.00">export/alg_opt.h</text>
</a>
</g>
</g>
<!-- Node2&#45;&gt;Node3 -->
<g id="edge2" class="edge">
<title>Node2&#45;&gt;Node3</title>
<path fill="none" stroke="midnightblue" d="M1109.96,-242.43C991.16,-238.33 678.59,-225.69 419,-199 417.72,-198.87 416.43,-198.73 415.13,-198.59"/>
<polygon fill="midnightblue" stroke="midnightblue" points="415.36,-195.09 405.01,-197.37 414.53,-202.04 415.36,-195.09"/>
</g>
<!-- Node4 -->
<g id="node4" class="node">
<title>Node4</title>
<g id="a_node4"><a xlink:href="functions_8h.html" target="_top" xlink:title="Function Lists.">
<polygon fill="white" stroke="black" points="539.5,-123.5 539.5,-142.5 644.5,-142.5 644.5,-123.5 539.5,-123.5"/>
<text text-anchor="middle" x="592" y="-130.5" font-family="Helvetica,sans-Serif" font-size="10.00">export/functions.h</text>
</a>
</g>
</g>
<!-- Node2&#45;&gt;Node4 -->
<g id="edge3" class="edge">
<title>Node2&#45;&gt;Node4</title>
<path fill="none" stroke="midnightblue" d="M1109.89,-243.71C1000.14,-242.4 738.42,-235.42 659,-199 635.85,-188.38 615.87,-166.3 603.9,-150.84"/>
<polygon fill="midnightblue" stroke="midnightblue" points="606.58,-148.58 597.81,-142.63 600.96,-152.75 606.58,-148.58"/>
</g>
<!-- Node5 -->
<g id="node5" class="node">
<title>Node5</title>
<g id="a_node5"><a xlink:href="utils_8h.html" target="_top" xlink:title="Utilities.">
<polygon fill="white" stroke="black" points="499.5,-67.5 499.5,-86.5 546.5,-86.5 546.5,-67.5 499.5,-67.5"/>
<text text-anchor="middle" x="523" y="-74.5" font-family="Helvetica,sans-Serif" font-size="10.00">utils.h</text>
</a>
</g>
</g>
<!-- Node2&#45;&gt;Node5 -->
<g id="edge32" class="edge">
<title>Node2&#45;&gt;Node5</title>
<path fill="none" stroke="midnightblue" d="M1109.69,-242.67C995.22,-239.14 714.47,-227.73 625,-199 578.7,-184.13 557.57,-183.73 531,-143 522.17,-129.46 520.68,-110.91 521.1,-97.09"/>
<polygon fill="midnightblue" stroke="midnightblue" points="524.61,-97.02 521.78,-86.81 517.63,-96.55 524.61,-97.02"/>
</g>
<!-- Node6 -->
<g id="node6" class="node">
<title>Node6</title>
<g id="a_node6"><a xlink:title=" ">
<polygon fill="white" stroke="#bfbfbf" points="0,-6 0,-25 64,-25 64,-6 0,-6"/>
<text text-anchor="middle" x="32" y="-13" font-family="Helvetica,sans-Serif" font-size="10.00">algorithm</text>
</a>
</g>
</g>
<!-- Node2&#45;&gt;Node6 -->
<g id="edge33" class="edge">
<title>Node2&#45;&gt;Node6</title>
<path fill="none" stroke="midnightblue" d="M1109.55,-242.24C981.47,-237.39 641.22,-222.62 531,-199 344.11,-158.96 132.87,-64.18 59.11,-29.5"/>
<polygon fill="midnightblue" stroke="midnightblue" points="60.56,-26.32 50.03,-25.21 57.57,-32.64 60.56,-26.32"/>
</g>
<!-- Node9 -->
<g id="node9" class="node">
<title>Node9</title>
<g id="a_node9"><a xlink:title=" ">
<polygon fill="white" stroke="#bfbfbf" points="82,-6 82,-25 138,-25 138,-6 82,-6"/>
<text text-anchor="middle" x="110" y="-13" font-family="Helvetica,sans-Serif" font-size="10.00">sstream</text>
</a>
</g>
</g>
<!-- Node2&#45;&gt;Node9 -->
<g id="edge39" class="edge">
<title>Node2&#45;&gt;Node9</title>
<path fill="none" stroke="midnightblue" d="M1109.66,-242.39C975.76,-237.72 612.31,-222.97 564,-199 493.77,-164.16 516.45,-103.37 447,-67 328.04,-4.69 277.23,-63.76 147,-31 144.33,-30.33 141.6,-29.51 138.88,-28.62"/>
<polygon fill="midnightblue" stroke="midnightblue" points="139.88,-25.26 129.28,-25.12 137.48,-31.83 139.88,-25.26"/>
</g>
<!-- Node10 -->
<g id="node10" class="node">
<title>Node10</title>
<g id="a_node10"><a xlink:title=" ">
<polygon fill="white" stroke="#bfbfbf" points="794,-6 794,-25 838,-25 838,-6 794,-6"/>
<text text-anchor="middle" x="816" y="-13" font-family="Helvetica,sans-Serif" font-size="10.00">string</text>
</a>
</g>
</g>
<!-- Node2&#45;&gt;Node10 -->
<g id="edge42" class="edge">
<title>Node2&#45;&gt;Node10</title>
<path fill="none" stroke="midnightblue" d="M1111.62,-235.43C1002.96,-214.68 741.45,-158.19 693,-87 655.3,-31.6 729.7,-54.72 785,-31 786.2,-30.49 787.42,-29.95 788.65,-29.41"/>
<polygon fill="midnightblue" stroke="midnightblue" points="790.4,-32.46 798.06,-25.13 787.51,-26.08 790.4,-32.46"/>
</g>
<!-- Node11 -->
<g id="node11" class="node">
<title>Node11</title>
<g id="a_node11"><a xlink:title=" ">
<polygon fill="white" stroke="#bfbfbf" points="862.5,-6 862.5,-25 909.5,-25 909.5,-6 862.5,-6"/>
<text text-anchor="middle" x="886" y="-13" font-family="Helvetica,sans-Serif" font-size="10.00">vector</text>
</a>
</g>
</g>
<!-- Node2&#45;&gt;Node11 -->
<g id="edge43" class="edge">
<title>Node2&#45;&gt;Node11</title>
<path fill="none" stroke="midnightblue" d="M1165.24,-235.35C1184.68,-207.26 1240.3,-117.5 1196,-67 1155.5,-20.83 981.4,-46.6 922,-31 919.49,-30.34 916.92,-29.55 914.37,-28.69"/>
<polygon fill="midnightblue" stroke="midnightblue" points="915.35,-25.32 904.75,-25.09 912.89,-31.87 915.35,-25.32"/>
</g>
<!-- Node18 -->
<g id="node18" class="node">
<title>Node18</title>
<g id="a_node18"><a xlink:href="log__global_8h.html" target="_top" xlink:title="Global Access of Log.">
<polygon fill="white" stroke="black" points="986,-179.5 986,-198.5 1062,-198.5 1062,-179.5 986,-179.5"/>
<text text-anchor="middle" x="1024" y="-186.5" font-family="Helvetica,sans-Serif" font-size="10.00">log_global.h</text>
</a>
</g>
</g>
<!-- Node2&#45;&gt;Node18 -->
<g id="edge18" class="edge">
<title>Node2&#45;&gt;Node18</title>
<path fill="none" stroke="midnightblue" d="M1137.61,-235.44C1115.29,-226.52 1080.1,-212.44 1054.79,-202.32"/>
<polygon fill="midnightblue" stroke="midnightblue" points="1055.88,-198.98 1045.29,-198.52 1053.28,-205.48 1055.88,-198.98"/>
</g>
<!-- Node23 -->
<g id="node23" class="node">
<title>Node23</title>
<g id="a_node23"><a xlink:title=" ">
<polygon fill="white" stroke="#bfbfbf" points="1111,-6 1111,-25 1171,-25 1171,-6 1111,-6"/>
<text text-anchor="middle" x="1141" y="-13" font-family="Helvetica,sans-Serif" font-size="10.00">iostream</text>
</a>
</g>
</g>
<!-- Node2&#45;&gt;Node23 -->
<g id="edge37" class="edge">
<title>Node2&#45;&gt;Node23</title>
<path fill="none" stroke="midnightblue" d="M1183.47,-235.44C1199.57,-228.38 1219.38,-216.63 1229,-199 1257.11,-147.51 1258.4,-117.77 1229,-67 1218.48,-48.83 1198.67,-36.63 1180.51,-28.78"/>
<polygon fill="midnightblue" stroke="midnightblue" points="1181.8,-25.53 1171.22,-25.06 1179.2,-32.03 1181.8,-25.53"/>
</g>
<!-- Node27 -->
<g id="node27" class="node">
<title>Node27</title>
<g id="a_node27"><a xlink:title=" ">
<polygon fill="white" stroke="#bfbfbf" points="1131,-67.5 1131,-86.5 1187,-86.5 1187,-67.5 1131,-67.5"/>
<text text-anchor="middle" x="1159" y="-74.5" font-family="Helvetica,sans-Serif" font-size="10.00">iomanip</text>
</a>
</g>
</g>
<!-- Node2&#45;&gt;Node27 -->
<g id="edge36" class="edge">
<title>Node2&#45;&gt;Node27</title>
<path fill="none" stroke="midnightblue" d="M1159,-235.08C1159,-208.95 1159,-132.21 1159,-96.58"/>
<polygon fill="midnightblue" stroke="midnightblue" points="1162.5,-96.57 1159,-86.57 1155.5,-96.57 1162.5,-96.57"/>
</g>
<!-- Node29 -->
<g id="node29" class="node">
<title>Node29</title>
<g id="a_node29"><a xlink:title=" ">
<polygon fill="white" stroke="#bfbfbf" points="1281,-179.5 1281,-198.5 1333,-198.5 1333,-179.5 1281,-179.5"/>
<text text-anchor="middle" x="1307" y="-186.5" font-family="Helvetica,sans-Serif" font-size="10.00">cassert</text>
</a>
</g>
</g>
<!-- Node2&#45;&gt;Node29 -->
<g id="edge34" class="edge">
<title>Node2&#45;&gt;Node29</title>
<path fill="none" stroke="midnightblue" d="M1182.45,-235.44C1207.13,-226.44 1246.19,-212.19 1273.98,-202.05"/>
<polygon fill="midnightblue" stroke="midnightblue" points="1275.46,-205.23 1283.66,-198.52 1273.06,-198.66 1275.46,-205.23"/>
</g>
<!-- Node30 -->
<g id="node30" class="node">
<title>Node30</title>
<g id="a_node30"><a xlink:title=" ">
<polygon fill="white" stroke="#bfbfbf" points="1351.5,-179.5 1351.5,-198.5 1416.5,-198.5 1416.5,-179.5 1351.5,-179.5"/>
<text text-anchor="middle" x="1384" y="-186.5" font-family="Helvetica,sans-Serif" font-size="10.00">exception</text>
</a>
</g>
</g>
<!-- Node2&#45;&gt;Node30 -->
<g id="edge35" class="edge">
<title>Node2&#45;&gt;Node30</title>
<path fill="none" stroke="midnightblue" d="M1194.65,-235.44C1234.57,-225.86 1299.23,-210.35 1341.68,-200.16"/>
<polygon fill="midnightblue" stroke="midnightblue" points="1342.53,-203.55 1351.44,-197.82 1340.9,-196.75 1342.53,-203.55"/>
</g>
<!-- Node31 -->
<g id="node31" class="node">
<title>Node31</title>
<g id="a_node31"><a xlink:title=" ">
<polygon fill="white" stroke="#bfbfbf" points="1435,-179.5 1435,-198.5 1479,-198.5 1479,-179.5 1435,-179.5"/>
<text text-anchor="middle" x="1457" y="-186.5" font-family="Helvetica,sans-Serif" font-size="10.00">regex</text>
</a>
</g>
</g>
<!-- Node2&#45;&gt;Node31 -->
<g id="edge38" class="edge">
<title>Node2&#45;&gt;Node31</title>
<path fill="none" stroke="midnightblue" d="M1208.05,-237.47C1259.76,-230.2 1343.74,-217.29 1424.85,-199.05"/>
<polygon fill="midnightblue" stroke="midnightblue" points="1425.76,-202.43 1434.73,-196.8 1424.2,-195.61 1425.76,-202.43"/>
</g>
<!-- Node32 -->
<g id="node32" class="node">
<title>Node32</title>
<g id="a_node32"><a xlink:title=" ">
<polygon fill="white" stroke="#bfbfbf" points="1497.5,-179.5 1497.5,-198.5 1540.5,-198.5 1540.5,-179.5 1497.5,-179.5"/>
<text text-anchor="middle" x="1519" y="-186.5" font-family="Helvetica,sans-Serif" font-size="10.00">stack</text>
</a>
</g>
</g>
<!-- Node2&#45;&gt;Node32 -->
<g id="edge40" class="edge">
<title>Node2&#45;&gt;Node32</title>
<path fill="none" stroke="midnightblue" d="M1208.16,-239.55C1270.86,-233.37 1382.7,-220.67 1487.62,-198.78"/>
<polygon fill="midnightblue" stroke="midnightblue" points="1488.36,-202.2 1497.42,-196.7 1486.91,-195.35 1488.36,-202.2"/>
</g>
<!-- Node33 -->
<g id="node33" class="node">
<title>Node33</title>
<g id="a_node33"><a xlink:title=" ">
<polygon fill="white" stroke="#bfbfbf" points="1558.5,-179.5 1558.5,-198.5 1623.5,-198.5 1623.5,-179.5 1558.5,-179.5"/>
<text text-anchor="middle" x="1591" y="-186.5" font-family="Helvetica,sans-Serif" font-size="10.00">stdexcept</text>
</a>
</g>
</g>
<!-- Node2&#45;&gt;Node33 -->
<g id="edge41" class="edge">
<title>Node2&#45;&gt;Node33</title>
<path fill="none" stroke="midnightblue" d="M1208.3,-239.94C1280.77,-233.63 1420.51,-220.09 1548.41,-199.13"/>
<polygon fill="midnightblue" stroke="midnightblue" points="1549.09,-202.56 1558.38,-197.47 1547.95,-195.66 1549.09,-202.56"/>
</g>
<!-- Node4&#45;&gt;Node5 -->
<g id="edge4" class="edge">
<title>Node4&#45;&gt;Node5</title>
<path fill="none" stroke="midnightblue" d="M580.91,-123.32C570.51,-115.18 554.74,-102.84 542.28,-93.09"/>
<polygon fill="midnightblue" stroke="midnightblue" points="544.32,-90.24 534.29,-86.83 540.01,-95.75 544.32,-90.24"/>
</g>
<!-- Node4&#45;&gt;Node10 -->
<g id="edge17" class="edge">
<title>Node4&#45;&gt;Node10</title>
<path fill="none" stroke="midnightblue" d="M598.44,-123.46C609.36,-109.57 632.9,-82.09 659,-67 709.42,-37.85 730.45,-51.4 785,-31 786.43,-30.47 787.88,-29.89 789.33,-29.3"/>
<polygon fill="midnightblue" stroke="midnightblue" points="791.08,-32.35 798.83,-25.12 788.27,-25.94 791.08,-32.35"/>
</g>
<!-- Node17 -->
<g id="node17" class="node">
<title>Node17</title>
<g id="a_node17"><a xlink:title=" ">
<polygon fill="white" stroke="#bfbfbf" points="565,-67.5 565,-86.5 607,-86.5 607,-67.5 565,-67.5"/>
<text text-anchor="middle" x="586" y="-74.5" font-family="Helvetica,sans-Serif" font-size="10.00">array</text>
</a>
</g>
</g>
<!-- Node4&#45;&gt;Node17 -->
<g id="edge16" class="edge">
<title>Node4&#45;&gt;Node17</title>
<path fill="none" stroke="midnightblue" d="M591.01,-123.08C590.21,-115.93 589.07,-105.64 588.08,-96.69"/>
<polygon fill="midnightblue" stroke="midnightblue" points="591.56,-96.3 586.97,-86.75 584.6,-97.08 591.56,-96.3"/>
</g>
<!-- Node5&#45;&gt;Node6 -->
<g id="edge5" class="edge">
<title>Node5&#45;&gt;Node6</title>
<path fill="none" stroke="midnightblue" d="M499.39,-73.07C484.4,-71.24 464.57,-68.89 447,-67 280.96,-49.18 236.04,-67.11 73,-31 69.58,-30.24 66.05,-29.28 62.57,-28.22"/>
<polygon fill="midnightblue" stroke="midnightblue" points="63.59,-24.87 52.99,-25.03 61.37,-31.51 63.59,-24.87"/>
</g>
<!-- Node7 -->
<g id="node7" class="node">
<title>Node7</title>
<g id="a_node7"><a xlink:title=" ">
<polygon fill="white" stroke="#bfbfbf" points="654.5,-6 654.5,-25 703.5,-25 703.5,-6 654.5,-6"/>
<text text-anchor="middle" x="679" y="-13" font-family="Helvetica,sans-Serif" font-size="10.00">cctype</text>
</a>
</g>
</g>
<!-- Node5&#45;&gt;Node7 -->
<g id="edge6" class="edge">
<title>Node5&#45;&gt;Node7</title>
<path fill="none" stroke="midnightblue" d="M546.52,-67.72C571.19,-58.94 611.01,-44.51 645,-31 646.6,-30.36 648.24,-29.7 649.89,-29.03"/>
<polygon fill="midnightblue" stroke="midnightblue" points="651.41,-32.18 659.29,-25.1 648.72,-25.72 651.41,-32.18"/>
</g>
<!-- Node8 -->
<g id="node8" class="node">
<title>Node8</title>
<g id="a_node8"><a xlink:title=" ">
<polygon fill="white" stroke="#bfbfbf" points="722,-6 722,-25 776,-25 776,-6 722,-6"/>
<text text-anchor="middle" x="749" y="-13" font-family="Helvetica,sans-Serif" font-size="10.00">random</text>
</a>
</g>
</g>
<!-- Node5&#45;&gt;Node8 -->
<g id="edge7" class="edge">
<title>Node5&#45;&gt;Node8</title>
<path fill="none" stroke="midnightblue" d="M546.76,-69.39C549.86,-68.57 553,-67.75 556,-67 625.44,-49.58 644.7,-52.44 713,-31 715.28,-30.28 717.62,-29.49 719.95,-28.65"/>
<polygon fill="midnightblue" stroke="midnightblue" points="721.3,-31.88 729.4,-25.05 718.81,-25.34 721.3,-31.88"/>
</g>
<!-- Node5&#45;&gt;Node9 -->
<g id="edge8" class="edge">
<title>Node5&#45;&gt;Node9</title>
<path fill="none" stroke="midnightblue" d="M499.38,-69.92C494.64,-68.84 489.68,-67.8 485,-67 336.09,-41.54 293.75,-66.88 147,-31 144.17,-30.31 141.27,-29.45 138.4,-28.5"/>
<polygon fill="midnightblue" stroke="midnightblue" points="139.48,-25.17 128.89,-25.02 137.08,-31.74 139.48,-25.17"/>
</g>
<!-- Node5&#45;&gt;Node10 -->
<g id="edge9" class="edge">
<title>Node5&#45;&gt;Node10</title>
<path fill="none" stroke="midnightblue" d="M546.72,-69.2C549.83,-68.4 552.98,-67.65 556,-67 656.74,-45.41 686.47,-61.12 785,-31 786.88,-30.43 788.78,-29.76 790.68,-29.03"/>
<polygon fill="midnightblue" stroke="midnightblue" points="792.12,-32.22 799.93,-25.06 789.36,-25.79 792.12,-32.22"/>
</g>
<!-- Node5&#45;&gt;Node11 -->
<g id="edge10" class="edge">
<title>Node5&#45;&gt;Node11</title>
<path fill="none" stroke="midnightblue" d="M546.7,-69.1C549.81,-68.32 552.97,-67.6 556,-67 683.86,-41.79 720.4,-61.92 847,-31 849.99,-30.27 853.07,-29.38 856.12,-28.41"/>
<polygon fill="midnightblue" stroke="midnightblue" points="857.34,-31.68 865.64,-25.09 855.04,-25.07 857.34,-31.68"/>
</g>
<!-- Node12 -->
<g id="node12" class="node">
<title>Node12</title>
<g id="a_node12"><a xlink:href="__boost__config_8h.html" target="_top" xlink:title="Boost Configurations.">
<polygon fill="white" stroke="black" points="156,-6 156,-25 248,-25 248,-6 156,-6"/>
<text text-anchor="middle" x="202" y="-13" font-family="Helvetica,sans-Serif" font-size="10.00">_boost_config.h</text>
</a>
</g>
</g>
<!-- Node5&#45;&gt;Node12 -->
<g id="edge11" class="edge">
<title>Node5&#45;&gt;Node12</title>
<path fill="none" stroke="midnightblue" d="M499.34,-70.1C494.61,-69.01 489.66,-67.92 485,-67 384.35,-47.16 357.39,-52.1 257,-31 252.18,-29.99 247.15,-28.82 242.18,-27.59"/>
<polygon fill="midnightblue" stroke="midnightblue" points="242.68,-24.11 232.13,-25.03 240.95,-30.89 242.68,-24.11"/>
</g>
<!-- Node13 -->
<g id="node13" class="node">
<title>Node13</title>
<g id="a_node13"><a xlink:title=" ">
<polygon fill="white" stroke="#bfbfbf" points="266.5,-0.5 266.5,-30.5 407.5,-30.5 407.5,-0.5 266.5,-0.5"/>
<text text-anchor="start" x="274.5" y="-18.5" font-family="Helvetica,sans-Serif" font-size="10.00">boost/dll/runtime_symbol</text>
<text text-anchor="middle" x="337" y="-7.5" font-family="Helvetica,sans-Serif" font-size="10.00">_info.hpp</text>
</a>
</g>
</g>
<!-- Node5&#45;&gt;Node13 -->
<g id="edge12" class="edge">
<title>Node5&#45;&gt;Node13</title>
<path fill="none" stroke="midnightblue" d="M499.44,-68.46C472.28,-59.77 426.75,-45.21 390.8,-33.71"/>
<polygon fill="midnightblue" stroke="midnightblue" points="391.52,-30.27 380.93,-30.55 389.39,-36.93 391.52,-30.27"/>
</g>
<!-- Node14 -->
<g id="node14" class="node">
<title>Node14</title>
<g id="a_node14"><a xlink:title=" ">
<polygon fill="white" stroke="#bfbfbf" points="426,-6 426,-25 472,-25 472,-6 426,-6"/>
<text text-anchor="middle" x="449" y="-13" font-family="Helvetica,sans-Serif" font-size="10.00">pwd.h</text>
</a>
</g>
</g>
<!-- Node5&#45;&gt;Node14 -->
<g id="edge13" class="edge">
<title>Node5&#45;&gt;Node14</title>
<path fill="none" stroke="midnightblue" d="M512.4,-67.48C500.75,-58.11 481.81,-42.88 467.67,-31.51"/>
<polygon fill="midnightblue" stroke="midnightblue" points="469.57,-28.55 459.58,-25.01 465.18,-34 469.57,-28.55"/>
</g>
<!-- Node15 -->
<g id="node15" class="node">
<title>Node15</title>
<g id="a_node15"><a xlink:title=" ">
<polygon fill="white" stroke="#bfbfbf" points="490,-6 490,-25 562,-25 562,-6 490,-6"/>
<text text-anchor="middle" x="526" y="-13" font-family="Helvetica,sans-Serif" font-size="10.00">sys/types.h</text>
</a>
</g>
</g>
<!-- Node5&#45;&gt;Node15 -->
<g id="edge14" class="edge">
<title>Node5&#45;&gt;Node15</title>
<path fill="none" stroke="midnightblue" d="M523.43,-67.48C523.85,-59.08 524.51,-45.98 525.06,-35.16"/>
<polygon fill="midnightblue" stroke="midnightblue" points="528.56,-35.17 525.57,-25.01 521.57,-34.82 528.56,-35.17"/>
</g>
<!-- Node16 -->
<g id="node16" class="node">
<title>Node16</title>
<g id="a_node16"><a xlink:title=" ">
<polygon fill="white" stroke="#bfbfbf" points="580,-6 580,-25 636,-25 636,-6 580,-6"/>
<text text-anchor="middle" x="608" y="-13" font-family="Helvetica,sans-Serif" font-size="10.00">unistd.h</text>
</a>
</g>
</g>
<!-- Node5&#45;&gt;Node16 -->
<g id="edge15" class="edge">
<title>Node5&#45;&gt;Node16</title>
<path fill="none" stroke="midnightblue" d="M535.18,-67.48C548.81,-57.93 571.13,-42.31 587.47,-30.87"/>
<polygon fill="midnightblue" stroke="midnightblue" points="589.66,-33.61 595.84,-25.01 585.64,-27.88 589.66,-33.61"/>
</g>
<!-- Node19 -->
<g id="node19" class="node">
<title>Node19</title>
<g id="a_node19"><a xlink:href="include_2log_8h.html" target="_top" xlink:title="Log Utilities.">
<polygon fill="white" stroke="black" points="934.5,-123.5 934.5,-142.5 975.5,-142.5 975.5,-123.5 934.5,-123.5"/>
<text text-anchor="middle" x="955" y="-130.5" font-family="Helvetica,sans-Serif" font-size="10.00">log.h</text>
</a>
</g>
</g>
<!-- Node18&#45;&gt;Node19 -->
<g id="edge19" class="edge">
<title>Node18&#45;&gt;Node19</title>
<path fill="none" stroke="midnightblue" d="M1012.91,-179.32C1002.51,-171.18 986.74,-158.84 974.28,-149.09"/>
<polygon fill="midnightblue" stroke="midnightblue" points="976.32,-146.24 966.29,-142.83 972.01,-151.75 976.32,-146.24"/>
</g>
<!-- Node19&#45;&gt;Node5 -->
<g id="edge26" class="edge">
<title>Node19&#45;&gt;Node5</title>
<path fill="none" stroke="midnightblue" d="M934.49,-130.81C876.59,-127.2 706.94,-115.02 556.57,-86.81"/>
<polygon fill="midnightblue" stroke="midnightblue" points="557.17,-83.36 546.69,-84.93 555.86,-90.24 557.17,-83.36"/>
</g>
<!-- Node20 -->
<g id="node20" class="node">
<title>Node20</title>
<g id="a_node20"><a xlink:href="meta_8h.html" target="_top" xlink:title="mmCEsim meta data">
<polygon fill="white" stroke="black" points="701.5,-67.5 701.5,-86.5 752.5,-86.5 752.5,-67.5 701.5,-67.5"/>
<text text-anchor="middle" x="727" y="-74.5" font-family="Helvetica,sans-Serif" font-size="10.00">meta.h</text>
</a>
</g>
</g>
<!-- Node19&#45;&gt;Node20 -->
<g id="edge20" class="edge">
<title>Node19&#45;&gt;Node20</title>
<path fill="none" stroke="midnightblue" d="M934.4,-127.36C900.65,-119.72 831.26,-103.87 762.32,-87.03"/>
<polygon fill="midnightblue" stroke="midnightblue" points="763.14,-83.63 752.6,-84.65 761.48,-90.43 763.14,-83.63"/>
</g>
<!-- Node21 -->
<g id="node21" class="node">
<title>Node21</title>
<g id="a_node21"><a xlink:href="term_8h.html" target="_top" xlink:title="Terminal Color and Style Control.">
<polygon fill="white" stroke="black" points="930.5,-67.5 930.5,-86.5 979.5,-86.5 979.5,-67.5 930.5,-67.5"/>
<text text-anchor="middle" x="955" y="-74.5" font-family="Helvetica,sans-Serif" font-size="10.00">term.h</text>
</a>
</g>
</g>
<!-- Node19&#45;&gt;Node21 -->
<g id="edge22" class="edge">
<title>Node19&#45;&gt;Node21</title>
<path fill="none" stroke="midnightblue" d="M955,-123.08C955,-116.01 955,-105.86 955,-96.99"/>
<polygon fill="midnightblue" stroke="midnightblue" points="958.5,-96.75 955,-86.75 951.5,-96.75 958.5,-96.75"/>
</g>
<!-- Node24 -->
<g id="node24" class="node">
<title>Node24</title>
<g id="a_node24"><a xlink:title=" ">
<polygon fill="white" stroke="#bfbfbf" points="1069,-67.5 1069,-86.5 1113,-86.5 1113,-67.5 1069,-67.5"/>
<text text-anchor="middle" x="1091" y="-74.5" font-family="Helvetica,sans-Serif" font-size="10.00">ctime</text>
</a>
</g>
</g>
<!-- Node19&#45;&gt;Node24 -->
<g id="edge27" class="edge">
<title>Node19&#45;&gt;Node24</title>
<path fill="none" stroke="midnightblue" d="M975.66,-123.8C998.06,-114.9 1034.07,-100.6 1059.9,-90.35"/>
<polygon fill="midnightblue" stroke="midnightblue" points="1061.25,-93.58 1069.25,-86.64 1058.66,-87.07 1061.25,-93.58"/>
</g>
<!-- Node25 -->
<g id="node25" class="node">
<title>Node25</title>
<g id="a_node25"><a xlink:title=" ">
<polygon fill="white" stroke="#bfbfbf" points="771,-67.5 771,-86.5 839,-86.5 839,-67.5 771,-67.5"/>
<text text-anchor="middle" x="805" y="-74.5" font-family="Helvetica,sans-Serif" font-size="10.00">filesystem</text>
</a>
</g>
</g>
<!-- Node19&#45;&gt;Node25 -->
<g id="edge28" class="edge">
<title>Node19&#45;&gt;Node25</title>
<path fill="none" stroke="midnightblue" d="M934.46,-124.6C909.66,-115.68 867.63,-100.55 838.2,-89.95"/>
<polygon fill="midnightblue" stroke="midnightblue" points="839.35,-86.65 828.75,-86.55 836.98,-93.23 839.35,-86.65"/>
</g>
<!-- Node26 -->
<g id="node26" class="node">
<title>Node26</title>
<g id="a_node26"><a xlink:title=" ">
<polygon fill="white" stroke="#bfbfbf" points="857.5,-67.5 857.5,-86.5 912.5,-86.5 912.5,-67.5 857.5,-67.5"/>
<text text-anchor="middle" x="885" y="-74.5" font-family="Helvetica,sans-Serif" font-size="10.00">fstream</text>
</a>
</g>
</g>
<!-- Node19&#45;&gt;Node26 -->
<g id="edge29" class="edge">
<title>Node19&#45;&gt;Node26</title>
<path fill="none" stroke="midnightblue" d="M943.75,-123.32C933.2,-115.18 917.2,-102.84 904.56,-93.09"/>
<polygon fill="midnightblue" stroke="midnightblue" points="906.51,-90.17 896.45,-86.83 902.23,-95.71 906.51,-90.17"/>
</g>
<!-- Node19&#45;&gt;Node27 -->
<g id="edge30" class="edge">
<title>Node19&#45;&gt;Node27</title>
<path fill="none" stroke="midnightblue" d="M975.68,-126.53C1009.72,-117.51 1078.05,-99.43 1121,-88.06"/>
<polygon fill="midnightblue" stroke="midnightblue" points="1122.03,-91.41 1130.8,-85.46 1120.24,-84.64 1122.03,-91.41"/>
</g>
<!-- Node28 -->
<g id="node28" class="node">
<title>Node28</title>
<g id="a_node28"><a xlink:title=" ">
<polygon fill="white" stroke="#bfbfbf" points="997.5,-67.5 997.5,-86.5 1050.5,-86.5 1050.5,-67.5 997.5,-67.5"/>
<text text-anchor="middle" x="1024" y="-74.5" font-family="Helvetica,sans-Serif" font-size="10.00">spy.hpp</text>
</a>
</g>
</g>
<!-- Node19&#45;&gt;Node28 -->
<g id="edge31" class="edge">
<title>Node19&#45;&gt;Node28</title>
<path fill="none" stroke="midnightblue" d="M966.09,-123.32C976.49,-115.18 992.26,-102.84 1004.72,-93.09"/>
<polygon fill="midnightblue" stroke="midnightblue" points="1006.99,-95.75 1012.71,-86.83 1002.68,-90.24 1006.99,-95.75"/>
</g>
<!-- Node20&#45;&gt;Node10 -->
<g id="edge21" class="edge">
<title>Node20&#45;&gt;Node10</title>
<path fill="none" stroke="midnightblue" d="M739.75,-67.48C754.03,-57.93 777.4,-42.31 794.51,-30.87"/>
<polygon fill="midnightblue" stroke="midnightblue" points="796.9,-33.48 803.27,-25.01 793.01,-27.66 796.9,-33.48"/>
</g>
<!-- Node21&#45;&gt;Node10 -->
<g id="edge25" class="edge">
<title>Node21&#45;&gt;Node10</title>
<path fill="none" stroke="midnightblue" d="M935.08,-67.48C911.55,-57.4 872.19,-40.55 845.21,-29"/>
<polygon fill="midnightblue" stroke="midnightblue" points="846.45,-25.73 835.88,-25.01 843.69,-32.16 846.45,-25.73"/>
</g>
<!-- Node22 -->
<g id="node22" class="node">
<title>Node22</title>
<g id="a_node22"><a xlink:title=" ">
<polygon fill="white" stroke="#bfbfbf" points="930.5,-6 930.5,-25 979.5,-25 979.5,-6 930.5,-6"/>
<text text-anchor="middle" x="955" y="-13" font-family="Helvetica,sans-Serif" font-size="10.00">cstdlib</text>
</a>
</g>
</g>
<!-- Node21&#45;&gt;Node22 -->
<g id="edge23" class="edge">
<title>Node21&#45;&gt;Node22</title>
<path fill="none" stroke="midnightblue" d="M955,-67.48C955,-59.08 955,-45.98 955,-35.16"/>
<polygon fill="midnightblue" stroke="midnightblue" points="958.5,-35.01 955,-25.01 951.5,-35.01 958.5,-35.01"/>
</g>
<!-- Node21&#45;&gt;Node23 -->
<g id="edge24" class="edge">
<title>Node21&#45;&gt;Node23</title>
<path fill="none" stroke="midnightblue" d="M979.7,-68.1C1011.68,-57.87 1067.66,-39.96 1104.53,-28.17"/>
<polygon fill="midnightblue" stroke="midnightblue" points="1105.93,-31.39 1114.39,-25.01 1103.8,-24.72 1105.93,-31.39"/>
</g>
</g>
</svg>
        <g id="navigator" transform="translate(0 0)" fill="#404254">
                <rect fill="#f2f5e9" fill-opacity="0.5" stroke="#606060" stroke-width=".5" x="0" y="0" width="60" height="60"/>
                <use id="zoomplus" xlink:href="#zoomPlus" x="17" y="9" onmousedown="handleZoom(evt,'in')"/>
                <use id="zoomminus" xlink:href="#zoomMin" x="42" y="9" onmousedown="handleZoom(evt,'out')"/>
                <use id="reset" xlink:href="#resetDef" x="30" y="36" onmousedown="handleReset()"/>
                <g id="arrowUp" xlink:href="#dirArrow" transform="translate(30 24)" onmousedown="handlePan(0,-1)">
                  <use xlink:href="#rim" fill="#404040">
                        <set attributeName="fill" to="#808080" begin="arrowUp.mouseover" end="arrowUp.mouseout"/>
                  </use>
                  <path fill="none" stroke="white" stroke-width="1.5" d="M0,-3.0v7 M-2.5,-0.5L0,-3.0L2.5,-0.5"/>
                </g>
                <g id="arrowRight" xlink:href="#dirArrow" transform="rotate(90) translate(36 -43)" onmousedown="handlePan(1,0)">
                  <use xlink:href="#rim" fill="#404040">
                        <set attributeName="fill" to="#808080" begin="arrowRight.mouseover" end="arrowRight.mouseout"/>
                  </use>
                  <path fill="none" stroke="white" stroke-width="1.5" d="M0,-3.0v7 M-2.5,-0.5L0,-3.0L2.5,-0.5"/>
                </g>
                <g id="arrowDown" xlink:href="#dirArrow" transform="rotate(180) translate(-30 -48)" onmousedown="handlePan(0,1)">
                  <use xlink:href="#rim" fill="#404040">
                        <set attributeName="fill" to="#808080" begin="arrowDown.mouseover" end="arrowDown.mouseout"/>
                  </use>
                  <path fill="none" stroke="white" stroke-width="1.5" d="M0,-3.0v7 M-2.5,-0.5L0,-3.0L2.5,-0.5"/>
                </g>
                <g id="arrowLeft" xlink:href="#dirArrow" transform="rotate(270) translate(-36 17)" onmousedown="handlePan(-1,0)">
                  <use xlink:href="#rim" fill="#404040">
                        <set attributeName="fill" to="#808080" begin="arrowLeft.mouseover" end="arrowLeft.mouseout"/>
                  </use>
                  <path fill="none" stroke="white" stroke-width="1.5" d="M0,-3.0v7 M-2.5,-0.5L0,-3.0L2.5,-0.5"/>
                </g>
        </g>
        <svg viewBox="0 0 15 15" width="100%" height="30px" preserveAspectRatio="xMaxYMin meet">
         <g id="arrow_out" transform="scale(0.3 0.3)">
          <a xlink:href="alg__line_8cpp__incl_org.svg" target="_base">
           <rect id="button" ry="5" rx="5" y="6" x="6" height="38" width="38"
                fill="#f2f5e9" fill-opacity="0.5" stroke="#606060" stroke-width="1.0"/>
           <path id="arrow"
             d="M 11.500037,31.436501 C 11.940474,20.09759 22.043105,11.32322 32.158766,21.979434 L 37.068811,17.246167 C 37.068811,17.246167 37.088388,32 37.088388,32 L 22.160133,31.978069 C 22.160133,31.978069 26.997745,27.140456 26.997745,27.140456 C 18.528582,18.264221 13.291696,25.230495 11.500037,31.436501 z"
             style="fill:#404040;"/>
          </a>
         </g>
        </svg>
</svg>
