<?xml version="1.0" encoding="UTF-8" standalone="no"?>
<!DOCTYPE svg PUBLIC "-//W3C//DTD SVG 1.1//EN"
 "http://www.w3.org/Graphics/SVG/1.1/DTD/svg11.dtd">
<!-- Generated by graphviz version 2.43.0 (0)
 -->
<!-- Title: include/export/alg_opt.h Pages: 1 -->
<svg width="362pt" height="274pt"
 viewBox="0.00 0.00 361.50 274.00" xmlns="http://www.w3.org/2000/svg" xmlns:xlink="http://www.w3.org/1999/xlink">
<g id="graph0" class="graph" transform="scale(1 1) rotate(0) translate(4 270)">
<title>include/export/alg_opt.h</title>
<polygon fill="white" stroke="transparent" points="-4,4 -4,-270 357.5,-270 357.5,4 -4,4"/>
<!-- Node1 -->
<g id="node1" class="node">
<title>Node1</title>
<g id="a_node1"><a xlink:title="ALG_Opt Enum.">
<polygon fill="#bfbfbf" stroke="black" points="140,-235.5 140,-265.5 244,-265.5 244,-235.5 140,-235.5"/>
<text text-anchor="start" x="148" y="-253.5" font-family="Helvetica,sans-Serif" font-size="10.00">include/export/alg</text>
<text text-anchor="middle" x="192" y="-242.5" font-family="Helvetica,sans-Serif" font-size="10.00">_opt.h</text>
</a>
</g>
</g>
<!-- Node2 -->
<g id="node2" class="node">
<title>Node2</title>
<g id="a_node2"><a xlink:href="alg_8h.html" target="_top" xlink:title="Algorithm Parser (.alg Language)">
<polygon fill="white" stroke="black" points="95.5,-112.5 95.5,-131.5 208.5,-131.5 208.5,-112.5 95.5,-112.5"/>
<text text-anchor="middle" x="152" y="-119.5" font-family="Helvetica,sans-Serif" font-size="10.00">include/export/alg.h</text>
</a>
</g>
</g>
<!-- Node1&#45;&gt;Node2 -->
<g id="edge1" class="edge">
<title>Node1&#45;&gt;Node2</title>
<path fill="none" stroke="midnightblue" d="M181.34,-225.93C177.78,-217.53 173.96,-207.94 171,-199 163.05,-174.98 156.62,-145.75 153.7,-131.55"/>
<polygon fill="midnightblue" stroke="midnightblue" points="178.15,-227.36 185.35,-235.13 184.57,-224.57 178.15,-227.36"/>
</g>
<!-- Node7 -->
<g id="node7" class="node">
<title>Node7</title>
<g id="a_node7"><a xlink:href="alg__line_8h.html" target="_top" xlink:title="Parse Line of Alg.">
<polygon fill="white" stroke="black" points="180,-168.5 180,-198.5 284,-198.5 284,-168.5 180,-168.5"/>
<text text-anchor="start" x="188" y="-186.5" font-family="Helvetica,sans-Serif" font-size="10.00">include/export/alg</text>
<text text-anchor="middle" x="232" y="-175.5" font-family="Helvetica,sans-Serif" font-size="10.00">_line.h</text>
</a>
</g>
</g>
<!-- Node1&#45;&gt;Node7 -->
<g id="edge6" class="edge">
<title>Node1&#45;&gt;Node7</title>
<path fill="none" stroke="midnightblue" d="M205.93,-226.87C211.72,-217.46 218.26,-206.83 223.34,-198.58"/>
<polygon fill="midnightblue" stroke="midnightblue" points="202.94,-225.05 200.68,-235.4 208.9,-228.71 202.94,-225.05"/>
</g>
<!-- Node3 -->
<g id="node3" class="node">
<title>Node3</title>
<g id="a_node3"><a xlink:href="export_8h.html" target="_top" xlink:title="Export mmCEsim Configuration to Other Programming Languages.">
<polygon fill="white" stroke="black" points="45.5,-56.5 45.5,-75.5 140.5,-75.5 140.5,-56.5 45.5,-56.5"/>
<text text-anchor="middle" x="93" y="-63.5" font-family="Helvetica,sans-Serif" font-size="10.00">include/export.h</text>
</a>
</g>
</g>
<!-- Node2&#45;&gt;Node3 -->
<g id="edge2" class="edge">
<title>Node2&#45;&gt;Node3</title>
<path fill="none" stroke="midnightblue" d="M135.11,-105.54C124.59,-95.91 111.43,-83.87 102.65,-75.83"/>
<polygon fill="midnightblue" stroke="midnightblue" points="132.78,-108.15 142.52,-112.32 137.51,-102.99 132.78,-108.15"/>
</g>
<!-- Node6 -->
<g id="node6" class="node">
<title>Node6</title>
<g id="a_node6"><a xlink:href="alg_8cpp.html" target="_top" xlink:title="Implementation of class Alg.">
<polygon fill="white" stroke="black" points="159,-56.5 159,-75.5 263,-75.5 263,-56.5 159,-56.5"/>
<text text-anchor="middle" x="211" y="-63.5" font-family="Helvetica,sans-Serif" font-size="10.00">src/export/alg.cpp</text>
</a>
</g>
</g>
<!-- Node2&#45;&gt;Node6 -->
<g id="edge5" class="edge">
<title>Node2&#45;&gt;Node6</title>
<path fill="none" stroke="midnightblue" d="M168.89,-105.54C179.41,-95.91 192.57,-83.87 201.35,-75.83"/>
<polygon fill="midnightblue" stroke="midnightblue" points="166.49,-102.99 161.48,-112.32 171.22,-108.15 166.49,-102.99"/>
</g>
<!-- Node4 -->
<g id="node4" class="node">
<title>Node4</title>
<g id="a_node4"><a xlink:href="export_8cpp.html" target="_top" xlink:title="Implementation of Export Class.">
<polygon fill="white" stroke="black" points="0,-0.5 0,-19.5 86,-19.5 86,-0.5 0,-0.5"/>
<text text-anchor="middle" x="43" y="-7.5" font-family="Helvetica,sans-Serif" font-size="10.00">src/export.cpp</text>
</a>
</g>
</g>
<!-- Node3&#45;&gt;Node4 -->
<g id="edge3" class="edge">
<title>Node3&#45;&gt;Node4</title>
<path fill="none" stroke="midnightblue" d="M77.92,-48.72C69.11,-39.2 58.33,-27.56 51.1,-19.75"/>
<polygon fill="midnightblue" stroke="midnightblue" points="75.38,-51.12 84.74,-56.08 80.52,-46.37 75.38,-51.12"/>
</g>
<!-- Node5 -->
<g id="node5" class="node">
<title>Node5</title>
<g id="a_node5"><a xlink:href="src_2main_8cpp.html" target="_top" xlink:title="Program Command Line Options.">
<polygon fill="white" stroke="black" points="104.5,-0.5 104.5,-19.5 183.5,-19.5 183.5,-0.5 104.5,-0.5"/>
<text text-anchor="middle" x="144" y="-7.5" font-family="Helvetica,sans-Serif" font-size="10.00">src/main.cpp</text>
</a>
</g>
</g>
<!-- Node3&#45;&gt;Node5 -->
<g id="edge4" class="edge">
<title>Node3&#45;&gt;Node5</title>
<path fill="none" stroke="midnightblue" d="M108.38,-48.72C117.37,-39.2 128.36,-27.56 135.74,-19.75"/>
<polygon fill="midnightblue" stroke="midnightblue" points="105.74,-46.41 101.42,-56.08 110.83,-51.22 105.74,-46.41"/>
</g>
<!-- Node7&#45;&gt;Node2 -->
<g id="edge7" class="edge">
<title>Node7&#45;&gt;Node2</title>
<path fill="none" stroke="midnightblue" d="M204.69,-162.19C190.68,-151.77 174.36,-139.63 163.64,-131.66"/>
<polygon fill="midnightblue" stroke="midnightblue" points="202.93,-165.24 213.04,-168.4 207.11,-159.62 202.93,-165.24"/>
</g>
<!-- Node8 -->
<g id="node8" class="node">
<title>Node8</title>
<g id="a_node8"><a xlink:href="alg__line_8cpp.html" target="_top" xlink:title="Implementation of Alg_Line Class.">
<polygon fill="white" stroke="black" points="226.5,-112.5 226.5,-131.5 353.5,-131.5 353.5,-112.5 226.5,-112.5"/>
<text text-anchor="middle" x="290" y="-119.5" font-family="Helvetica,sans-Serif" font-size="10.00">src/export/alg_line.cpp</text>
</a>
</g>
</g>
<!-- Node7&#45;&gt;Node8 -->
<g id="edge8" class="edge">
<title>Node7&#45;&gt;Node8</title>
<path fill="none" stroke="midnightblue" d="M252.96,-161C262.84,-150.86 274.08,-139.33 281.56,-131.66"/>
<polygon fill="midnightblue" stroke="midnightblue" points="250.22,-158.8 245.75,-168.4 255.23,-163.68 250.22,-158.8"/>
</g>
</g>
</svg>
