<?xml version="1.0" encoding="UTF-8" standalone="no"?>
<!DOCTYPE svg PUBLIC "-//W3C//DTD SVG 1.1//EN"
 "http://www.w3.org/Graphics/SVG/1.1/DTD/svg11.dtd">
<!-- Generated by graphviz version 2.43.0 (0)
 -->
<!-- Title: src/export/alg_line.cpp Pages: 1 -->
<!--zoomable 319 -->
<svg id="main" version="1.1" xmlns="http://www.w3.org/2000/svg" xmlns:xlink="http://www.w3.org/1999/xlink" xml:space="preserve" onload="init(evt)">
<style type="text/css"><![CDATA[
.edge:hover path { stroke: red; }
.edge:hover polygon { stroke: red; fill: red; }
]]></style>
<script type="text/javascript"><![CDATA[
var edges = document.getElementsByTagName('g');
if (edges && edges.length) {
  for (var i=0;i<edges.length;i++) {
    if (edges[i].id.substr(0,4)=='edge') {
      edges[i].setAttribute('class','edge');
    }
  }
}
]]></script>
        <defs>
                <circle id="rim" cx="0" cy="0" r="7"/>
                <circle id="rim2" cx="0" cy="0" r="3.5"/>
                <g id="zoomPlus">
                        <use xlink:href="#rim" fill="#404040">
                                <set attributeName="fill" to="#808080" begin="zoomplus.mouseover" end="zoomplus.mouseout"/>
                        </use>
                        <path d="M-4,0h8M0,-4v8" fill="none" stroke="white" stroke-width="1.5" pointer-events="none"/>
                </g>
                <g id="zoomMin">
                        <use xlink:href="#rim" fill="#404040">
                                <set attributeName="fill" to="#808080" begin="zoomminus.mouseover" end="zoomminus.mouseout"/>
                        </use>
                        <path d="M-4,0h8" fill="none" stroke="white" stroke-width="1.5" pointer-events="none"/>
                </g>
                <g id="dirArrow">
                        <path fill="none" stroke="white" stroke-width="1.5" d="M0,-3.0v7 M-2.5,-0.5L0,-3.0L2.5,-0.5"/>
                </g>
               <g id="resetDef">
                       <use xlink:href="#rim2" fill="#404040">
                               <set attributeName="fill" to="#808080" begin="reset.mouseover" end="reset.mouseout"/>
                       </use>
               </g>
        </defs>

<script type="text/javascript">
var viewWidth = 1082;
var viewHeight = 319;
var sectionId = 'dynsection-0';
</script>
<script xlink:href="svgpan.js"/>
<svg id="graph" class="graph">
<g id="viewport">
<title>src/export/alg_line.cpp</title>
<polygon fill="white" stroke="transparent" points="-4,4 -4,-315 1078,-315 1078,4 -4,4"/>
<!-- Node1 -->
<g id="node1" class="node">
<title>Node1</title>
<g id="a_node1"><a xlink:title="Implementation of Alg_Line Class.">
<polygon fill="#bfbfbf" stroke="black" points="772.5,-291.5 772.5,-310.5 899.5,-310.5 899.5,-291.5 772.5,-291.5"/>
<text text-anchor="middle" x="836" y="-298.5" font-family="Helvetica,sans-Serif" font-size="10.00">src/export/alg_line.cpp</text>
</a>
</g>
</g>
<!-- Node2 -->
<g id="node2" class="node">
<title>Node2</title>
<g id="a_node2"><a xlink:href="alg__line_8h.html" target="_top" xlink:title="Parse Line of Alg.">
<polygon fill="white" stroke="black" points="600,-235.5 600,-254.5 698,-254.5 698,-235.5 600,-235.5"/>
<text text-anchor="middle" x="649" y="-242.5" font-family="Helvetica,sans-Serif" font-size="10.00">export/alg_line.h</text>
</a>
</g>
</g>
<!-- Node1&#45;&gt;Node2 -->
<g id="edge1" class="edge">
<title>Node1&#45;&gt;Node2</title>
<path fill="none" stroke="midnightblue" d="M806.37,-291.44C774.5,-282.24 723.67,-267.56 688.44,-257.39"/>
<polygon fill="midnightblue" stroke="midnightblue" points="689.07,-253.93 678.49,-254.52 687.13,-260.65 689.07,-253.93"/>
</g>
<!-- Node22 -->
<g id="node22" class="node">
<title>Node22</title>
<g id="a_node22"><a xlink:title=" ">
<polygon fill="white" stroke="#bfbfbf" points="1006,-6 1006,-25 1066,-25 1066,-6 1006,-6"/>
<text text-anchor="middle" x="1036" y="-13" font-family="Helvetica,sans-Serif" font-size="10.00">iostream</text>
</a>
</g>
</g>
<!-- Node1&#45;&gt;Node22 -->
<g id="edge41" class="edge">
<title>Node1&#45;&gt;Node22</title>
<path fill="none" stroke="midnightblue" d="M899.78,-297.18C970.28,-290.23 1074,-266.93 1074,-190 1074,-190 1074,-190 1074,-132 1074,-95.75 1056.91,-56.17 1045.65,-34.03"/>
<polygon fill="midnightblue" stroke="midnightblue" points="1048.73,-32.37 1040.97,-25.16 1042.54,-35.64 1048.73,-32.37"/>
</g>
<!-- Node3 -->
<g id="node3" class="node">
<title>Node3</title>
<g id="a_node3"><a xlink:href="alg__opt_8h.html" target="_top" xlink:title="ALG_Opt Enum.">
<polygon fill="white" stroke="black" points="549,-179.5 549,-198.5 645,-198.5 645,-179.5 549,-179.5"/>
<text text-anchor="middle" x="597" y="-186.5" font-family="Helvetica,sans-Serif" font-size="10.00">export/alg_opt.h</text>
</a>
</g>
</g>
<!-- Node2&#45;&gt;Node3 -->
<g id="edge2" class="edge">
<title>Node2&#45;&gt;Node3</title>
<path fill="none" stroke="midnightblue" d="M640.41,-235.08C632.84,-227.22 621.62,-215.57 612.49,-206.08"/>
<polygon fill="midnightblue" stroke="midnightblue" points="614.88,-203.53 605.43,-198.75 609.84,-208.38 614.88,-203.53"/>
</g>
<!-- Node4 -->
<g id="node4" class="node">
<title>Node4</title>
<g id="a_node4"><a xlink:href="functions_8h.html" target="_top" xlink:title="Function Lists.">
<polygon fill="white" stroke="black" points="323.5,-123.5 323.5,-142.5 428.5,-142.5 428.5,-123.5 323.5,-123.5"/>
<text text-anchor="middle" x="376" y="-130.5" font-family="Helvetica,sans-Serif" font-size="10.00">export/functions.h</text>
</a>
</g>
</g>
<!-- Node2&#45;&gt;Node4 -->
<g id="edge3" class="edge">
<title>Node2&#45;&gt;Node4</title>
<path fill="none" stroke="midnightblue" d="M599.76,-240.87C556.29,-236.39 492.35,-225.49 443,-199 420.8,-187.08 400.85,-165.66 388.61,-150.68"/>
<polygon fill="midnightblue" stroke="midnightblue" points="391.27,-148.41 382.33,-142.72 385.78,-152.74 391.27,-148.41"/>
</g>
<!-- Node5 -->
<g id="node5" class="node">
<title>Node5</title>
<g id="a_node5"><a xlink:href="utils_8h.html" target="_top" xlink:title="Utilities.">
<polygon fill="white" stroke="black" points="343.5,-67.5 343.5,-86.5 390.5,-86.5 390.5,-67.5 343.5,-67.5"/>
<text text-anchor="middle" x="367" y="-74.5" font-family="Helvetica,sans-Serif" font-size="10.00">utils.h</text>
</a>
</g>
</g>
<!-- Node2&#45;&gt;Node5 -->
<g id="edge31" class="edge">
<title>Node2&#45;&gt;Node5</title>
<path fill="none" stroke="midnightblue" d="M599.59,-239.5C550.73,-233.93 474.42,-222.18 412,-199 365.33,-181.67 339.89,-186.11 315,-143 304.07,-124.07 324.21,-104.82 342.52,-92.23"/>
<polygon fill="midnightblue" stroke="midnightblue" points="344.71,-94.99 351.21,-86.62 340.91,-89.1 344.71,-94.99"/>
</g>
<!-- Node6 -->
<g id="node6" class="node">
<title>Node6</title>
<g id="a_node6"><a xlink:title=" ">
<polygon fill="white" stroke="#bfbfbf" points="0,-6 0,-25 64,-25 64,-6 0,-6"/>
<text text-anchor="middle" x="32" y="-13" font-family="Helvetica,sans-Serif" font-size="10.00">algorithm</text>
</a>
</g>
</g>
<!-- Node2&#45;&gt;Node6 -->
<g id="edge32" class="edge">
<title>Node2&#45;&gt;Node6</title>
<path fill="none" stroke="midnightblue" d="M599.73,-244.61C531.03,-243.92 403.59,-236.98 303,-199 195.99,-158.6 89.41,-68.61 48.98,-32.22"/>
<polygon fill="midnightblue" stroke="midnightblue" points="51.14,-29.45 41.39,-25.3 46.43,-34.62 51.14,-29.45"/>
</g>
<!-- Node9 -->
<g id="node9" class="node">
<title>Node9</title>
<g id="a_node9"><a xlink:title=" ">
<polygon fill="white" stroke="#bfbfbf" points="82,-6 82,-25 138,-25 138,-6 82,-6"/>
<text text-anchor="middle" x="110" y="-13" font-family="Helvetica,sans-Serif" font-size="10.00">sstream</text>
</a>
</g>
</g>
<!-- Node2&#45;&gt;Node9 -->
<g id="edge36" class="edge">
<title>Node2&#45;&gt;Node9</title>
<path fill="none" stroke="midnightblue" d="M599.8,-244.1C538.47,-242.59 431.54,-234.45 348,-199 251.75,-158.16 160.05,-69.09 124.99,-32.59"/>
<polygon fill="midnightblue" stroke="midnightblue" points="127.45,-30.1 118.03,-25.26 122.38,-34.92 127.45,-30.1"/>
</g>
<!-- Node10 -->
<g id="node10" class="node">
<title>Node10</title>
<g id="a_node10"><a xlink:title=" ">
<polygon fill="white" stroke="#bfbfbf" points="750,-6 750,-25 794,-25 794,-6 750,-6"/>
<text text-anchor="middle" x="772" y="-13" font-family="Helvetica,sans-Serif" font-size="10.00">string</text>
</a>
</g>
</g>
<!-- Node2&#45;&gt;Node10 -->
<g id="edge39" class="edge">
<title>Node2&#45;&gt;Node10</title>
<path fill="none" stroke="midnightblue" d="M603.68,-235.49C581.46,-229.07 556.09,-217.97 540,-199 501.31,-153.41 475.17,-112.47 514,-67 547.17,-28.16 692.17,-45.97 741,-31 742.87,-30.43 744.78,-29.76 746.68,-29.03"/>
<polygon fill="midnightblue" stroke="midnightblue" points="748.12,-32.22 755.93,-25.06 745.36,-25.79 748.12,-32.22"/>
</g>
<!-- Node11 -->
<g id="node11" class="node">
<title>Node11</title>
<g id="a_node11"><a xlink:title=" ">
<polygon fill="white" stroke="#bfbfbf" points="684.5,-6 684.5,-25 731.5,-25 731.5,-6 684.5,-6"/>
<text text-anchor="middle" x="708" y="-13" font-family="Helvetica,sans-Serif" font-size="10.00">vector</text>
</a>
</g>
</g>
<!-- Node2&#45;&gt;Node11 -->
<g id="edge40" class="edge">
<title>Node2&#45;&gt;Node11</title>
<path fill="none" stroke="midnightblue" d="M599.95,-237.52C555.73,-230.55 495.48,-217.86 481,-199 445.28,-152.46 443.49,-112.11 481,-67 537.07,0.43 591.19,-56.81 675,-31 676.93,-30.41 678.9,-29.73 680.86,-29.01"/>
<polygon fill="midnightblue" stroke="midnightblue" points="682.53,-32.11 690.47,-25.09 679.89,-25.62 682.53,-32.11"/>
</g>
<!-- Node17 -->
<g id="node17" class="node">
<title>Node17</title>
<g id="a_node17"><a xlink:href="log__global_8h.html" target="_top" xlink:title="Global Access of Log.">
<polygon fill="white" stroke="black" points="663,-179.5 663,-198.5 739,-198.5 739,-179.5 663,-179.5"/>
<text text-anchor="middle" x="701" y="-186.5" font-family="Helvetica,sans-Serif" font-size="10.00">log_global.h</text>
</a>
</g>
</g>
<!-- Node2&#45;&gt;Node17 -->
<g id="edge17" class="edge">
<title>Node2&#45;&gt;Node17</title>
<path fill="none" stroke="midnightblue" d="M657.59,-235.08C665.16,-227.22 676.38,-215.57 685.51,-206.08"/>
<polygon fill="midnightblue" stroke="midnightblue" points="688.16,-208.38 692.57,-198.75 683.12,-203.53 688.16,-208.38"/>
</g>
<!-- Node2&#45;&gt;Node22 -->
<g id="edge35" class="edge">
<title>Node2&#45;&gt;Node22</title>
<path fill="none" stroke="midnightblue" d="M676.67,-235.48C703.42,-227.01 744.91,-213.27 780,-199 833.96,-177.06 979.64,-131.69 1017,-87 1029.17,-72.44 1033.6,-50.81 1035.19,-35.35"/>
<polygon fill="midnightblue" stroke="midnightblue" points="1038.68,-35.6 1035.91,-25.37 1031.7,-35.1 1038.68,-35.6"/>
</g>
<!-- Node26 -->
<g id="node26" class="node">
<title>Node26</title>
<g id="a_node26"><a xlink:title=" ">
<polygon fill="white" stroke="#bfbfbf" points="952,-67.5 952,-86.5 1008,-86.5 1008,-67.5 952,-67.5"/>
<text text-anchor="middle" x="980" y="-74.5" font-family="Helvetica,sans-Serif" font-size="10.00">iomanip</text>
</a>
</g>
</g>
<!-- Node2&#45;&gt;Node26 -->
<g id="edge34" class="edge">
<title>Node2&#45;&gt;Node26</title>
<path fill="none" stroke="midnightblue" d="M668.87,-235.35C688.96,-226.51 720.85,-212.24 748,-199 824.52,-161.69 913.33,-114.16 955.44,-91.37"/>
<polygon fill="midnightblue" stroke="midnightblue" points="957.27,-94.36 964.4,-86.51 953.94,-88.2 957.27,-94.36"/>
</g>
<!-- Node28 -->
<g id="node28" class="node">
<title>Node28</title>
<g id="a_node28"><a xlink:title=" ">
<polygon fill="white" stroke="#bfbfbf" points="845,-179.5 845,-198.5 897,-198.5 897,-179.5 845,-179.5"/>
<text text-anchor="middle" x="871" y="-186.5" font-family="Helvetica,sans-Serif" font-size="10.00">cassert</text>
</a>
</g>
</g>
<!-- Node2&#45;&gt;Node28 -->
<g id="edge33" class="edge">
<title>Node2&#45;&gt;Node28</title>
<path fill="none" stroke="midnightblue" d="M684.18,-235.44C725.4,-225.42 793.36,-208.89 834.96,-198.77"/>
<polygon fill="midnightblue" stroke="midnightblue" points="835.79,-202.17 844.68,-196.4 834.13,-195.37 835.79,-202.17"/>
</g>
<!-- Node29 -->
<g id="node29" class="node">
<title>Node29</title>
<g id="a_node29"><a xlink:title=" ">
<polygon fill="white" stroke="#bfbfbf" points="915.5,-179.5 915.5,-198.5 958.5,-198.5 958.5,-179.5 915.5,-179.5"/>
<text text-anchor="middle" x="937" y="-186.5" font-family="Helvetica,sans-Serif" font-size="10.00">stack</text>
</a>
</g>
</g>
<!-- Node2&#45;&gt;Node29 -->
<g id="edge37" class="edge">
<title>Node2&#45;&gt;Node29</title>
<path fill="none" stroke="midnightblue" d="M698.11,-237.03C747.94,-229.6 827.44,-216.74 905.41,-198.91"/>
<polygon fill="midnightblue" stroke="midnightblue" points="906.45,-202.26 915.4,-196.6 904.87,-195.45 906.45,-202.26"/>
</g>
<!-- Node30 -->
<g id="node30" class="node">
<title>Node30</title>
<g id="a_node30"><a xlink:title=" ">
<polygon fill="white" stroke="#bfbfbf" points="976.5,-179.5 976.5,-198.5 1041.5,-198.5 1041.5,-179.5 976.5,-179.5"/>
<text text-anchor="middle" x="1009" y="-186.5" font-family="Helvetica,sans-Serif" font-size="10.00">stdexcept</text>
</a>
</g>
</g>
<!-- Node2&#45;&gt;Node30 -->
<g id="edge38" class="edge">
<title>Node2&#45;&gt;Node30</title>
<path fill="none" stroke="midnightblue" d="M698.1,-238.25C758.87,-230.87 865.74,-217.05 966.34,-199.19"/>
<polygon fill="midnightblue" stroke="midnightblue" points="967.15,-202.61 976.37,-197.4 965.91,-195.72 967.15,-202.61"/>
</g>
<!-- Node4&#45;&gt;Node5 -->
<g id="edge4" class="edge">
<title>Node4&#45;&gt;Node5</title>
<path fill="none" stroke="midnightblue" d="M374.51,-123.08C373.32,-115.93 371.61,-105.64 370.12,-96.69"/>
<polygon fill="midnightblue" stroke="midnightblue" points="373.55,-96.04 368.46,-86.75 366.65,-97.19 373.55,-96.04"/>
</g>
<!-- Node4&#45;&gt;Node10 -->
<g id="edge16" class="edge">
<title>Node4&#45;&gt;Node10</title>
<path fill="none" stroke="midnightblue" d="M386.55,-123.34C404.64,-109.01 443.28,-80.59 481,-67 590.75,-27.44 629.13,-64.08 741,-31 742.88,-30.44 744.79,-29.79 746.69,-29.07"/>
<polygon fill="midnightblue" stroke="midnightblue" points="748.13,-32.27 755.95,-25.12 745.38,-25.83 748.13,-32.27"/>
</g>
<!-- Node16 -->
<g id="node16" class="node">
<title>Node16</title>
<g id="a_node16"><a xlink:title=" ">
<polygon fill="white" stroke="#bfbfbf" points="283,-67.5 283,-86.5 325,-86.5 325,-67.5 283,-67.5"/>
<text text-anchor="middle" x="304" y="-74.5" font-family="Helvetica,sans-Serif" font-size="10.00">array</text>
</a>
</g>
</g>
<!-- Node4&#45;&gt;Node16 -->
<g id="edge15" class="edge">
<title>Node4&#45;&gt;Node16</title>
<path fill="none" stroke="midnightblue" d="M364.43,-123.32C353.58,-115.18 337.12,-102.84 324.12,-93.09"/>
<polygon fill="midnightblue" stroke="midnightblue" points="325.88,-90.03 315.78,-86.83 321.68,-95.63 325.88,-90.03"/>
</g>
<!-- Node5&#45;&gt;Node6 -->
<g id="edge5" class="edge">
<title>Node5&#45;&gt;Node6</title>
<path fill="none" stroke="midnightblue" d="M343.3,-69.14C340.18,-68.36 337.03,-67.62 334,-67 219.27,-43.55 186.78,-58.66 73,-31 69.77,-30.22 66.44,-29.27 63.14,-28.25"/>
<polygon fill="midnightblue" stroke="midnightblue" points="64.05,-24.86 53.46,-25.01 61.83,-31.5 64.05,-24.86"/>
</g>
<!-- Node7 -->
<g id="node7" class="node">
<title>Node7</title>
<g id="a_node7"><a xlink:title=" ">
<polygon fill="white" stroke="#bfbfbf" points="156.5,-6 156.5,-25 205.5,-25 205.5,-6 156.5,-6"/>
<text text-anchor="middle" x="181" y="-13" font-family="Helvetica,sans-Serif" font-size="10.00">cctype</text>
</a>
</g>
</g>
<!-- Node5&#45;&gt;Node7 -->
<g id="edge6" class="edge">
<title>Node5&#45;&gt;Node7</title>
<path fill="none" stroke="midnightblue" d="M343.35,-69.36C306.92,-59.07 238.82,-39.57 215,-31 213.14,-30.33 211.24,-29.61 209.33,-28.87"/>
<polygon fill="midnightblue" stroke="midnightblue" points="210.49,-25.56 199.91,-25.02 207.84,-32.04 210.49,-25.56"/>
</g>
<!-- Node8 -->
<g id="node8" class="node">
<title>Node8</title>
<g id="a_node8"><a xlink:title=" ">
<polygon fill="white" stroke="#bfbfbf" points="224,-6 224,-25 278,-25 278,-6 224,-6"/>
<text text-anchor="middle" x="251" y="-13" font-family="Helvetica,sans-Serif" font-size="10.00">random</text>
</a>
</g>
</g>
<!-- Node5&#45;&gt;Node8 -->
<g id="edge7" class="edge">
<title>Node5&#45;&gt;Node8</title>
<path fill="none" stroke="midnightblue" d="M350.38,-67.48C331.08,-57.58 299.04,-41.14 276.57,-29.62"/>
<polygon fill="midnightblue" stroke="midnightblue" points="278.08,-26.46 267.59,-25.01 274.89,-32.69 278.08,-26.46"/>
</g>
<!-- Node5&#45;&gt;Node9 -->
<g id="edge8" class="edge">
<title>Node5&#45;&gt;Node9</title>
<path fill="none" stroke="midnightblue" d="M343.26,-69.29C340.16,-68.48 337.01,-67.7 334,-67 251.56,-47.85 228.3,-54.54 147,-31 144.42,-30.25 141.76,-29.4 139.12,-28.48"/>
<polygon fill="midnightblue" stroke="midnightblue" points="140.33,-25.2 129.74,-25.01 137.9,-31.76 140.33,-25.2"/>
</g>
<!-- Node5&#45;&gt;Node10 -->
<g id="edge9" class="edge">
<title>Node5&#45;&gt;Node10</title>
<path fill="none" stroke="midnightblue" d="M390.62,-69.92C395.36,-68.84 400.32,-67.8 405,-67 553.03,-41.64 596.34,-71.37 741,-31 742.93,-30.46 744.89,-29.81 746.84,-29.09"/>
<polygon fill="midnightblue" stroke="midnightblue" points="748.46,-32.2 756.3,-25.07 745.73,-25.76 748.46,-32.2"/>
</g>
<!-- Node5&#45;&gt;Node11 -->
<g id="edge10" class="edge">
<title>Node5&#45;&gt;Node11</title>
<path fill="none" stroke="midnightblue" d="M390.64,-70.02C395.38,-68.92 400.33,-67.86 405,-67 524.05,-45.02 558.43,-63.67 675,-31 677.15,-30.4 679.35,-29.68 681.53,-28.89"/>
<polygon fill="midnightblue" stroke="midnightblue" points="682.91,-32.11 690.87,-25.12 680.29,-25.62 682.91,-32.11"/>
</g>
<!-- Node12 -->
<g id="node12" class="node">
<title>Node12</title>
<g id="a_node12"><a xlink:title=" ">
<polygon fill="white" stroke="#bfbfbf" points="296.5,-0.5 296.5,-30.5 437.5,-30.5 437.5,-0.5 296.5,-0.5"/>
<text text-anchor="start" x="304.5" y="-18.5" font-family="Helvetica,sans-Serif" font-size="10.00">boost/dll/runtime_symbol</text>
<text text-anchor="middle" x="367" y="-7.5" font-family="Helvetica,sans-Serif" font-size="10.00">_info.hpp</text>
</a>
</g>
</g>
<!-- Node5&#45;&gt;Node12 -->
<g id="edge11" class="edge">
<title>Node5&#45;&gt;Node12</title>
<path fill="none" stroke="midnightblue" d="M367,-67.48C367,-60.47 367,-50.19 367,-40.7"/>
<polygon fill="midnightblue" stroke="midnightblue" points="370.5,-40.52 367,-30.52 363.5,-40.52 370.5,-40.52"/>
</g>
<!-- Node13 -->
<g id="node13" class="node">
<title>Node13</title>
<g id="a_node13"><a xlink:title=" ">
<polygon fill="white" stroke="#bfbfbf" points="456,-6 456,-25 502,-25 502,-6 456,-6"/>
<text text-anchor="middle" x="479" y="-13" font-family="Helvetica,sans-Serif" font-size="10.00">pwd.h</text>
</a>
</g>
</g>
<!-- Node5&#45;&gt;Node13 -->
<g id="edge12" class="edge">
<title>Node5&#45;&gt;Node13</title>
<path fill="none" stroke="midnightblue" d="M383.05,-67.48C401.59,-57.62 432.34,-41.29 454.02,-29.77"/>
<polygon fill="midnightblue" stroke="midnightblue" points="455.79,-32.79 462.98,-25.01 452.51,-26.61 455.79,-32.79"/>
</g>
<!-- Node14 -->
<g id="node14" class="node">
<title>Node14</title>
<g id="a_node14"><a xlink:title=" ">
<polygon fill="white" stroke="#bfbfbf" points="520,-6 520,-25 592,-25 592,-6 520,-6"/>
<text text-anchor="middle" x="556" y="-13" font-family="Helvetica,sans-Serif" font-size="10.00">sys/types.h</text>
</a>
</g>
</g>
<!-- Node5&#45;&gt;Node14 -->
<g id="edge13" class="edge">
<title>Node5&#45;&gt;Node14</title>
<path fill="none" stroke="midnightblue" d="M390.72,-68.66C419.28,-59.8 468.68,-44.43 511,-31 513.79,-30.12 516.67,-29.2 519.57,-28.27"/>
<polygon fill="midnightblue" stroke="midnightblue" points="520.91,-31.51 529.36,-25.13 518.77,-24.85 520.91,-31.51"/>
</g>
<!-- Node15 -->
<g id="node15" class="node">
<title>Node15</title>
<g id="a_node15"><a xlink:title=" ">
<polygon fill="white" stroke="#bfbfbf" points="610,-6 610,-25 666,-25 666,-6 610,-6"/>
<text text-anchor="middle" x="638" y="-13" font-family="Helvetica,sans-Serif" font-size="10.00">unistd.h</text>
</a>
</g>
</g>
<!-- Node5&#45;&gt;Node15 -->
<g id="edge14" class="edge">
<title>Node5&#45;&gt;Node15</title>
<path fill="none" stroke="midnightblue" d="M390.67,-70.2C395.41,-69.09 400.36,-67.98 405,-67 491.68,-48.79 515.82,-55.27 601,-31 603.59,-30.26 606.24,-29.41 608.89,-28.51"/>
<polygon fill="midnightblue" stroke="midnightblue" points="610.1,-31.79 618.27,-25.04 607.68,-25.22 610.1,-31.79"/>
</g>
<!-- Node18 -->
<g id="node18" class="node">
<title>Node18</title>
<g id="a_node18"><a xlink:href="include_2log_8h.html" target="_top" xlink:title="Log Utilities.">
<polygon fill="white" stroke="black" points="680.5,-123.5 680.5,-142.5 721.5,-142.5 721.5,-123.5 680.5,-123.5"/>
<text text-anchor="middle" x="701" y="-130.5" font-family="Helvetica,sans-Serif" font-size="10.00">log.h</text>
</a>
</g>
</g>
<!-- Node17&#45;&gt;Node18 -->
<g id="edge18" class="edge">
<title>Node17&#45;&gt;Node18</title>
<path fill="none" stroke="midnightblue" d="M701,-179.08C701,-172.01 701,-161.86 701,-152.99"/>
<polygon fill="midnightblue" stroke="midnightblue" points="704.5,-152.75 701,-142.75 697.5,-152.75 704.5,-152.75"/>
</g>
<!-- Node18&#45;&gt;Node5 -->
<g id="edge25" class="edge">
<title>Node18&#45;&gt;Node5</title>
<path fill="none" stroke="midnightblue" d="M680.36,-128.66C624.47,-119.63 469.77,-94.62 400.87,-83.48"/>
<polygon fill="midnightblue" stroke="midnightblue" points="401.01,-79.95 390.57,-81.81 399.89,-86.86 401.01,-79.95"/>
</g>
<!-- Node19 -->
<g id="node19" class="node">
<title>Node19</title>
<g id="a_node19"><a xlink:href="meta_8h.html" target="_top" xlink:title="mmCEsim meta data">
<polygon fill="white" stroke="black" points="815.5,-67.5 815.5,-86.5 866.5,-86.5 866.5,-67.5 815.5,-67.5"/>
<text text-anchor="middle" x="841" y="-74.5" font-family="Helvetica,sans-Serif" font-size="10.00">meta.h</text>
</a>
</g>
</g>
<!-- Node18&#45;&gt;Node19 -->
<g id="edge19" class="edge">
<title>Node18&#45;&gt;Node19</title>
<path fill="none" stroke="midnightblue" d="M721.66,-124.03C744.83,-115.1 782.66,-100.5 809.52,-90.14"/>
<polygon fill="midnightblue" stroke="midnightblue" points="810.8,-93.4 818.87,-86.54 808.28,-86.87 810.8,-93.4"/>
</g>
<!-- Node20 -->
<g id="node20" class="node">
<title>Node20</title>
<g id="a_node20"><a xlink:href="term_8h.html" target="_top" xlink:title="Terminal Color and Style Control.">
<polygon fill="white" stroke="black" points="884.5,-67.5 884.5,-86.5 933.5,-86.5 933.5,-67.5 884.5,-67.5"/>
<text text-anchor="middle" x="909" y="-74.5" font-family="Helvetica,sans-Serif" font-size="10.00">term.h</text>
</a>
</g>
</g>
<!-- Node18&#45;&gt;Node20 -->
<g id="edge21" class="edge">
<title>Node18&#45;&gt;Node20</title>
<path fill="none" stroke="midnightblue" d="M721.5,-126.83C752.55,-118.98 813.59,-103.46 874.39,-87.4"/>
<polygon fill="midnightblue" stroke="midnightblue" points="875.37,-90.76 884.14,-84.82 873.58,-84 875.37,-90.76"/>
</g>
<!-- Node23 -->
<g id="node23" class="node">
<title>Node23</title>
<g id="a_node23"><a xlink:title=" ">
<polygon fill="white" stroke="#bfbfbf" points="523,-67.5 523,-86.5 567,-86.5 567,-67.5 523,-67.5"/>
<text text-anchor="middle" x="545" y="-74.5" font-family="Helvetica,sans-Serif" font-size="10.00">ctime</text>
</a>
</g>
</g>
<!-- Node18&#45;&gt;Node23 -->
<g id="edge26" class="edge">
<title>Node18&#45;&gt;Node23</title>
<path fill="none" stroke="midnightblue" d="M680.28,-124.83C653.73,-115.64 607.45,-99.62 576.52,-88.91"/>
<polygon fill="midnightblue" stroke="midnightblue" points="577.66,-85.6 567.06,-85.64 575.37,-92.22 577.66,-85.6"/>
</g>
<!-- Node24 -->
<g id="node24" class="node">
<title>Node24</title>
<g id="a_node24"><a xlink:title=" ">
<polygon fill="white" stroke="#bfbfbf" points="585,-67.5 585,-86.5 653,-86.5 653,-67.5 585,-67.5"/>
<text text-anchor="middle" x="619" y="-74.5" font-family="Helvetica,sans-Serif" font-size="10.00">filesystem</text>
</a>
</g>
</g>
<!-- Node18&#45;&gt;Node24 -->
<g id="edge27" class="edge">
<title>Node18&#45;&gt;Node24</title>
<path fill="none" stroke="midnightblue" d="M687.83,-123.32C675.15,-114.98 655.77,-102.21 640.79,-92.35"/>
<polygon fill="midnightblue" stroke="midnightblue" points="642.42,-89.23 632.14,-86.65 638.57,-95.08 642.42,-89.23"/>
</g>
<!-- Node25 -->
<g id="node25" class="node">
<title>Node25</title>
<g id="a_node25"><a xlink:title=" ">
<polygon fill="white" stroke="#bfbfbf" points="671.5,-67.5 671.5,-86.5 726.5,-86.5 726.5,-67.5 671.5,-67.5"/>
<text text-anchor="middle" x="699" y="-74.5" font-family="Helvetica,sans-Serif" font-size="10.00">fstream</text>
</a>
</g>
</g>
<!-- Node18&#45;&gt;Node25 -->
<g id="edge28" class="edge">
<title>Node18&#45;&gt;Node25</title>
<path fill="none" stroke="midnightblue" d="M700.67,-123.08C700.41,-116.01 700.03,-105.86 699.7,-96.99"/>
<polygon fill="midnightblue" stroke="midnightblue" points="703.19,-96.61 699.32,-86.75 696.2,-96.87 703.19,-96.61"/>
</g>
<!-- Node18&#45;&gt;Node26 -->
<g id="edge29" class="edge">
<title>Node18&#45;&gt;Node26</title>
<path fill="none" stroke="midnightblue" d="M721.79,-128.53C762.24,-121.69 854.53,-105.68 941.95,-87.14"/>
<polygon fill="midnightblue" stroke="midnightblue" points="942.71,-90.55 951.75,-85.04 941.24,-83.71 942.71,-90.55"/>
</g>
<!-- Node27 -->
<g id="node27" class="node">
<title>Node27</title>
<g id="a_node27"><a xlink:title=" ">
<polygon fill="white" stroke="#bfbfbf" points="744.5,-67.5 744.5,-86.5 797.5,-86.5 797.5,-67.5 744.5,-67.5"/>
<text text-anchor="middle" x="771" y="-74.5" font-family="Helvetica,sans-Serif" font-size="10.00">spy.hpp</text>
</a>
</g>
</g>
<!-- Node18&#45;&gt;Node27 -->
<g id="edge30" class="edge">
<title>Node18&#45;&gt;Node27</title>
<path fill="none" stroke="midnightblue" d="M712.25,-123.32C722.8,-115.18 738.8,-102.84 751.44,-93.09"/>
<polygon fill="midnightblue" stroke="midnightblue" points="753.77,-95.71 759.55,-86.83 749.49,-90.17 753.77,-95.71"/>
</g>
<!-- Node19&#45;&gt;Node10 -->
<g id="edge20" class="edge">
<title>Node19&#45;&gt;Node10</title>
<path fill="none" stroke="midnightblue" d="M831.11,-67.48C820.35,-58.2 802.93,-43.17 789.78,-31.83"/>
<polygon fill="midnightblue" stroke="midnightblue" points="791.73,-28.89 781.87,-25.01 787.16,-34.19 791.73,-28.89"/>
</g>
<!-- Node20&#45;&gt;Node10 -->
<g id="edge24" class="edge">
<title>Node20&#45;&gt;Node10</title>
<path fill="none" stroke="midnightblue" d="M889.37,-67.48C866.18,-57.4 827.38,-40.55 800.79,-29"/>
<polygon fill="midnightblue" stroke="midnightblue" points="802.16,-25.78 791.59,-25.01 799.37,-32.2 802.16,-25.78"/>
</g>
<!-- Node21 -->
<g id="node21" class="node">
<title>Node21</title>
<g id="a_node21"><a xlink:title=" ">
<polygon fill="white" stroke="#bfbfbf" points="884.5,-6 884.5,-25 933.5,-25 933.5,-6 884.5,-6"/>
<text text-anchor="middle" x="909" y="-13" font-family="Helvetica,sans-Serif" font-size="10.00">cstdlib</text>
</a>
</g>
</g>
<!-- Node20&#45;&gt;Node21 -->
<g id="edge22" class="edge">
<title>Node20&#45;&gt;Node21</title>
<path fill="none" stroke="midnightblue" d="M909,-67.48C909,-59.08 909,-45.98 909,-35.16"/>
<polygon fill="midnightblue" stroke="midnightblue" points="912.5,-35.01 909,-25.01 905.5,-35.01 912.5,-35.01"/>
</g>
<!-- Node20&#45;&gt;Node22 -->
<g id="edge23" class="edge">
<title>Node20&#45;&gt;Node22</title>
<path fill="none" stroke="midnightblue" d="M927.2,-67.48C948.51,-57.49 984.03,-40.85 1008.66,-29.31"/>
<polygon fill="midnightblue" stroke="midnightblue" points="1010.27,-32.42 1017.84,-25.01 1007.3,-26.08 1010.27,-32.42"/>
</g>
</g>
</svg>
        <g id="navigator" transform="translate(0 0)" fill="#404254">
                <rect fill="#f2f5e9" fill-opacity="0.5" stroke="#606060" stroke-width=".5" x="0" y="0" width="60" height="60"/>
                <use id="zoomplus" xlink:href="#zoomPlus" x="17" y="9" onmousedown="handleZoom(evt,'in')"/>
                <use id="zoomminus" xlink:href="#zoomMin" x="42" y="9" onmousedown="handleZoom(evt,'out')"/>
                <use id="reset" xlink:href="#resetDef" x="30" y="36" onmousedown="handleReset()"/>
                <g id="arrowUp" xlink:href="#dirArrow" transform="translate(30 24)" onmousedown="handlePan(0,-1)">
                  <use xlink:href="#rim" fill="#404040">
                        <set attributeName="fill" to="#808080" begin="arrowUp.mouseover" end="arrowUp.mouseout"/>
                  </use>
                  <path fill="none" stroke="white" stroke-width="1.5" d="M0,-3.0v7 M-2.5,-0.5L0,-3.0L2.5,-0.5"/>
                </g>
                <g id="arrowRight" xlink:href="#dirArrow" transform="rotate(90) translate(36 -43)" onmousedown="handlePan(1,0)">
                  <use xlink:href="#rim" fill="#404040">
                        <set attributeName="fill" to="#808080" begin="arrowRight.mouseover" end="arrowRight.mouseout"/>
                  </use>
                  <path fill="none" stroke="white" stroke-width="1.5" d="M0,-3.0v7 M-2.5,-0.5L0,-3.0L2.5,-0.5"/>
                </g>
                <g id="arrowDown" xlink:href="#dirArrow" transform="rotate(180) translate(-30 -48)" onmousedown="handlePan(0,1)">
                  <use xlink:href="#rim" fill="#404040">
                        <set attributeName="fill" to="#808080" begin="arrowDown.mouseover" end="arrowDown.mouseout"/>
                  </use>
                  <path fill="none" stroke="white" stroke-width="1.5" d="M0,-3.0v7 M-2.5,-0.5L0,-3.0L2.5,-0.5"/>
                </g>
                <g id="arrowLeft" xlink:href="#dirArrow" transform="rotate(270) translate(-36 17)" onmousedown="handlePan(-1,0)">
                  <use xlink:href="#rim" fill="#404040">
                        <set attributeName="fill" to="#808080" begin="arrowLeft.mouseover" end="arrowLeft.mouseout"/>
                  </use>
                  <path fill="none" stroke="white" stroke-width="1.5" d="M0,-3.0v7 M-2.5,-0.5L0,-3.0L2.5,-0.5"/>
                </g>
        </g>
        <svg viewBox="0 0 15 15" width="100%" height="30px" preserveAspectRatio="xMaxYMin meet">
         <g id="arrow_out" transform="scale(0.3 0.3)">
          <a xlink:href="alg__line_8cpp__incl_org.svg" target="_base">
           <rect id="button" ry="5" rx="5" y="6" x="6" height="38" width="38"
                fill="#f2f5e9" fill-opacity="0.5" stroke="#606060" stroke-width="1.0"/>
           <path id="arrow"
             d="M 11.500037,31.436501 C 11.940474,20.09759 22.043105,11.32322 32.158766,21.979434 L 37.068811,17.246167 C 37.068811,17.246167 37.088388,32 37.088388,32 L 22.160133,31.978069 C 22.160133,31.978069 26.997745,27.140456 26.997745,27.140456 C 18.528582,18.264221 13.291696,25.230495 11.500037,31.436501 z"
             style="fill:#404040;"/>
          </a>
         </g>
        </svg>
</svg>
