<?xml version="1.0" encoding="UTF-8" standalone="no"?>
<!DOCTYPE svg PUBLIC "-//W3C//DTD SVG 1.1//EN"
 "http://www.w3.org/Graphics/SVG/1.1/DTD/svg11.dtd">
<!-- Generated by graphviz version 2.43.0 (0)
 -->
<!-- Title: include/export/alg.h Pages: 1 -->
<!--zoomable 442 -->
<svg id="main" version="1.1" xmlns="http://www.w3.org/2000/svg" xmlns:xlink="http://www.w3.org/1999/xlink" xml:space="preserve" onload="init(evt)">
<style type="text/css"><![CDATA[
.edge:hover path { stroke: red; }
.edge:hover polygon { stroke: red; fill: red; }
]]></style>
<script type="text/javascript"><![CDATA[
var edges = document.getElementsByTagName('g');
if (edges && edges.length) {
  for (var i=0;i<edges.length;i++) {
    if (edges[i].id.substr(0,4)=='edge') {
      edges[i].setAttribute('class','edge');
    }
  }
}
]]></script>
        <defs>
                <circle id="rim" cx="0" cy="0" r="7"/>
                <circle id="rim2" cx="0" cy="0" r="3.5"/>
                <g id="zoomPlus">
                        <use xlink:href="#rim" fill="#404040">
                                <set attributeName="fill" to="#808080" begin="zoomplus.mouseover" end="zoomplus.mouseout"/>
                        </use>
                        <path d="M-4,0h8M0,-4v8" fill="none" stroke="white" stroke-width="1.5" pointer-events="none"/>
                </g>
                <g id="zoomMin">
                        <use xlink:href="#rim" fill="#404040">
                                <set attributeName="fill" to="#808080" begin="zoomminus.mouseover" end="zoomminus.mouseout"/>
                        </use>
                        <path d="M-4,0h8" fill="none" stroke="white" stroke-width="1.5" pointer-events="none"/>
                </g>
                <g id="dirArrow">
                        <path fill="none" stroke="white" stroke-width="1.5" d="M0,-3.0v7 M-2.5,-0.5L0,-3.0L2.5,-0.5"/>
                </g>
               <g id="resetDef">
                       <use xlink:href="#rim2" fill="#404040">
                               <set attributeName="fill" to="#808080" begin="reset.mouseover" end="reset.mouseout"/>
                       </use>
               </g>
        </defs>

<script type="text/javascript">
var viewWidth = 1669;
var viewHeight = 442;
var sectionId = 'dynsection-0';
</script>
<script xlink:href="svgpan.js"/>
<svg id="graph" class="graph">
<g id="viewport">
<title>include/export/alg.h</title>
<polygon fill="white" stroke="transparent" points="-4,4 -4,-438 1665,-438 1665,4 -4,4"/>
<!-- Node1 -->
<g id="node1" class="node">
<title>Node1</title>
<g id="a_node1"><a xlink:title="Algorithm Parser (.alg Language)">
<polygon fill="#bfbfbf" stroke="black" points="1206.5,-414.5 1206.5,-433.5 1319.5,-433.5 1319.5,-414.5 1206.5,-414.5"/>
<text text-anchor="middle" x="1263" y="-421.5" font-family="Helvetica,sans-Serif" font-size="10.00">include/export/alg.h</text>
</a>
</g>
</g>
<!-- Node2 -->
<g id="node2" class="node">
<title>Node2</title>
<g id="a_node2"><a xlink:href="alg__line_8h.html" target="_top" xlink:title="Parse Line of Alg.">
<polygon fill="white" stroke="black" points="385,-235.5 385,-254.5 483,-254.5 483,-235.5 385,-235.5"/>
<text text-anchor="middle" x="434" y="-242.5" font-family="Helvetica,sans-Serif" font-size="10.00">export/alg_line.h</text>
</a>
</g>
</g>
<!-- Node1&#45;&gt;Node2 -->
<g id="edge1" class="edge">
<title>Node1&#45;&gt;Node2</title>
<path fill="none" stroke="midnightblue" d="M1215.5,-414.49C1167.39,-405.77 1090.9,-391.58 1025,-378 821.38,-336.02 579.69,-280.13 480.24,-256.87"/>
<polygon fill="midnightblue" stroke="midnightblue" points="480.76,-253.4 470.23,-254.53 479.17,-260.21 480.76,-253.4"/>
</g>
<!-- Node3 -->
<g id="node3" class="node">
<title>Node3</title>
<g id="a_node3"><a xlink:href="alg__opt_8h.html" target="_top" xlink:title="ALG_Opt Enum.">
<polygon fill="white" stroke="black" points="31,-179.5 31,-198.5 127,-198.5 127,-179.5 31,-179.5"/>
<text text-anchor="middle" x="79" y="-186.5" font-family="Helvetica,sans-Serif" font-size="10.00">export/alg_opt.h</text>
</a>
</g>
</g>
<!-- Node1&#45;&gt;Node3 -->
<g id="edge41" class="edge">
<title>Node1&#45;&gt;Node3</title>
<path fill="none" stroke="midnightblue" d="M1206.31,-423.63C1009.47,-424.93 357.8,-421.47 179,-322 132.03,-295.87 100.33,-237.5 86.65,-207.92"/>
<polygon fill="midnightblue" stroke="midnightblue" points="89.83,-206.47 82.56,-198.76 83.44,-209.32 89.83,-206.47"/>
</g>
<!-- Node5 -->
<g id="node5" class="node">
<title>Node5</title>
<g id="a_node5"><a xlink:href="utils_8h.html" target="_top" xlink:title="Utilities.">
<polygon fill="white" stroke="black" points="289.5,-67.5 289.5,-86.5 336.5,-86.5 336.5,-67.5 289.5,-67.5"/>
<text text-anchor="middle" x="313" y="-74.5" font-family="Helvetica,sans-Serif" font-size="10.00">utils.h</text>
</a>
</g>
</g>
<!-- Node1&#45;&gt;Node5 -->
<g id="edge69" class="edge">
<title>Node1&#45;&gt;Node5</title>
<path fill="none" stroke="midnightblue" d="M1206.21,-421.93C1024.67,-418.26 459.77,-404.93 279,-378 153.78,-359.34 3,-434.11 3,-307.5 3,-307.5 3,-307.5 3,-188 3,-129.86 199.1,-94.62 279.36,-82.63"/>
<polygon fill="midnightblue" stroke="midnightblue" points="280.06,-86.07 289.45,-81.16 279.04,-79.14 280.06,-86.07"/>
</g>
<!-- Node22 -->
<g id="node22" class="node">
<title>Node22</title>
<g id="a_node22"><a xlink:title=" ">
<polygon fill="white" stroke="#bfbfbf" points="1310,-6 1310,-25 1370,-25 1370,-6 1310,-6"/>
<text text-anchor="middle" x="1340" y="-13" font-family="Helvetica,sans-Serif" font-size="10.00">iostream</text>
</a>
</g>
</g>
<!-- Node1&#45;&gt;Node22 -->
<g id="edge72" class="edge">
<title>Node1&#45;&gt;Node22</title>
<path fill="none" stroke="midnightblue" d="M1319.52,-418.16C1385.88,-409.03 1487,-382.76 1487,-307.5 1487,-307.5 1487,-307.5 1487,-132 1487,-99.8 1478.26,-89.27 1455,-67 1434.09,-46.99 1403.96,-34.15 1379.78,-26.43"/>
<polygon fill="midnightblue" stroke="midnightblue" points="1380.75,-23.07 1370.16,-23.53 1378.72,-29.77 1380.75,-23.07"/>
</g>
<!-- Node25 -->
<g id="node25" class="node">
<title>Node25</title>
<g id="a_node25"><a xlink:title=" ">
<polygon fill="white" stroke="#bfbfbf" points="1390.5,-67.5 1390.5,-86.5 1445.5,-86.5 1445.5,-67.5 1390.5,-67.5"/>
<text text-anchor="middle" x="1418" y="-74.5" font-family="Helvetica,sans-Serif" font-size="10.00">fstream</text>
</a>
</g>
</g>
<!-- Node1&#45;&gt;Node25 -->
<g id="edge71" class="edge">
<title>Node1&#45;&gt;Node25</title>
<path fill="none" stroke="midnightblue" d="M1319.67,-414.85C1347.9,-408.52 1381.2,-397.41 1406,-378 1434.9,-355.38 1449,-344.2 1449,-307.5 1449,-307.5 1449,-307.5 1449,-188 1449,-154.41 1435.44,-117.14 1426.26,-95.75"/>
<polygon fill="midnightblue" stroke="midnightblue" points="1429.45,-94.31 1422.18,-86.61 1423.06,-97.17 1429.45,-94.31"/>
</g>
<!-- Node29 -->
<g id="node29" class="node">
<title>Node29</title>
<g id="a_node29"><a xlink:title=" ">
<polygon fill="white" stroke="#bfbfbf" points="1068.5,-179.5 1068.5,-198.5 1111.5,-198.5 1111.5,-179.5 1068.5,-179.5"/>
<text text-anchor="middle" x="1090" y="-186.5" font-family="Helvetica,sans-Serif" font-size="10.00">stack</text>
</a>
</g>
</g>
<!-- Node1&#45;&gt;Node29 -->
<g id="edge73" class="edge">
<title>Node1&#45;&gt;Node29</title>
<path fill="none" stroke="midnightblue" d="M1271.75,-414.43C1292.99,-392.57 1343.54,-333.48 1316,-291 1272.56,-224.01 1173.14,-201.06 1121.87,-193.51"/>
<polygon fill="midnightblue" stroke="midnightblue" points="1122.08,-190 1111.7,-192.12 1121.14,-196.94 1122.08,-190"/>
</g>
<!-- Node31 -->
<g id="node31" class="node">
<title>Node31</title>
<g id="a_node31"><a xlink:href="calc_8h.html" target="_top" xlink:title="Make Calculation in Alg.">
<polygon fill="white" stroke="black" points="1113,-358.5 1113,-377.5 1193,-377.5 1193,-358.5 1113,-358.5"/>
<text text-anchor="middle" x="1153" y="-365.5" font-family="Helvetica,sans-Serif" font-size="10.00">export/calc.h</text>
</a>
</g>
</g>
<!-- Node1&#45;&gt;Node31 -->
<g id="edge42" class="edge">
<title>Node1&#45;&gt;Node31</title>
<path fill="none" stroke="midnightblue" d="M1245.33,-414.32C1227.61,-405.62 1200.1,-392.12 1179.71,-382.11"/>
<polygon fill="midnightblue" stroke="midnightblue" points="1181.15,-378.92 1170.63,-377.65 1178.06,-385.2 1181.15,-378.92"/>
</g>
<!-- Node34 -->
<g id="node34" class="node">
<title>Node34</title>
<g id="a_node34"><a xlink:href="type_8h.html" target="_top" xlink:title="Type Specification in Alg.">
<polygon fill="white" stroke="black" points="1244,-179.5 1244,-198.5 1326,-198.5 1326,-179.5 1244,-179.5"/>
<text text-anchor="middle" x="1285" y="-186.5" font-family="Helvetica,sans-Serif" font-size="10.00">export/type.h</text>
</a>
</g>
</g>
<!-- Node1&#45;&gt;Node34 -->
<g id="edge68" class="edge">
<title>Node1&#45;&gt;Node34</title>
<path fill="none" stroke="midnightblue" d="M1319.69,-416.94C1344.63,-411.13 1371.69,-399.85 1387,-378 1423.48,-325.96 1421.71,-288.24 1387,-235 1375.47,-217.31 1355.25,-206.53 1335.84,-199.98"/>
<polygon fill="midnightblue" stroke="midnightblue" points="1336.7,-196.58 1326.11,-197.01 1334.65,-203.28 1336.7,-196.58"/>
</g>
<!-- Node38 -->
<g id="node38" class="node">
<title>Node38</title>
<g id="a_node38"><a xlink:href="macro_8h.html" target="_top" xlink:title="ALG Macro.">
<polygon fill="white" stroke="black" points="799.5,-235.5 799.5,-254.5 890.5,-254.5 890.5,-235.5 799.5,-235.5"/>
<text text-anchor="middle" x="845" y="-242.5" font-family="Helvetica,sans-Serif" font-size="10.00">export/macro.h</text>
</a>
</g>
</g>
<!-- Node1&#45;&gt;Node38 -->
<g id="edge59" class="edge">
<title>Node1&#45;&gt;Node38</title>
<path fill="none" stroke="midnightblue" d="M1219.89,-414.46C1157.16,-400.9 1038.27,-370.86 947,-322 914.78,-304.75 881.58,-278.04 862.15,-261.31"/>
<polygon fill="midnightblue" stroke="midnightblue" points="864.3,-258.54 854.47,-254.6 859.7,-263.82 864.3,-258.54"/>
</g>
<!-- Node41 -->
<g id="node41" class="node">
<title>Node41</title>
<g id="a_node41"><a xlink:title=" ">
<polygon fill="white" stroke="#bfbfbf" points="1515,-358.5 1515,-377.5 1661,-377.5 1661,-358.5 1515,-358.5"/>
<text text-anchor="middle" x="1588" y="-365.5" font-family="Helvetica,sans-Serif" font-size="10.00">boost/algorithm/string.hpp</text>
</a>
</g>
</g>
<!-- Node1&#45;&gt;Node41 -->
<g id="edge70" class="edge">
<title>Node1&#45;&gt;Node41</title>
<path fill="none" stroke="midnightblue" d="M1314.5,-414.44C1372.14,-404.87 1465.49,-389.36 1526.81,-379.17"/>
<polygon fill="midnightblue" stroke="midnightblue" points="1527.45,-382.61 1536.74,-377.52 1526.31,-375.7 1527.45,-382.61"/>
</g>
<!-- Node2&#45;&gt;Node3 -->
<g id="edge2" class="edge">
<title>Node2&#45;&gt;Node3</title>
<path fill="none" stroke="midnightblue" d="M384.64,-236.49C319.85,-226.64 206.31,-209.37 137.35,-198.88"/>
<polygon fill="midnightblue" stroke="midnightblue" points="137.5,-195.36 127.09,-197.32 136.45,-202.28 137.5,-195.36"/>
</g>
<!-- Node4 -->
<g id="node4" class="node">
<title>Node4</title>
<g id="a_node4"><a xlink:href="functions_8h.html" target="_top" xlink:title="Function Lists.">
<polygon fill="white" stroke="black" points="335.5,-123.5 335.5,-142.5 440.5,-142.5 440.5,-123.5 335.5,-123.5"/>
<text text-anchor="middle" x="388" y="-130.5" font-family="Helvetica,sans-Serif" font-size="10.00">export/functions.h</text>
</a>
</g>
</g>
<!-- Node2&#45;&gt;Node4 -->
<g id="edge3" class="edge">
<title>Node2&#45;&gt;Node4</title>
<path fill="none" stroke="midnightblue" d="M425.91,-235.42C418.3,-226.87 407.17,-213.01 401,-199 394.54,-184.34 391.26,-166.4 389.61,-153.09"/>
<polygon fill="midnightblue" stroke="midnightblue" points="393.06,-152.36 388.55,-142.77 386.1,-153.08 393.06,-152.36"/>
</g>
<!-- Node2&#45;&gt;Node5 -->
<g id="edge31" class="edge">
<title>Node2&#45;&gt;Node5</title>
<path fill="none" stroke="midnightblue" d="M384.82,-243.06C351.65,-239.53 310.05,-228.88 288,-199 265.06,-167.92 286.77,-120.69 301.66,-95.41"/>
<polygon fill="midnightblue" stroke="midnightblue" points="304.83,-96.94 307.11,-86.59 298.87,-93.26 304.83,-96.94"/>
</g>
<!-- Node6 -->
<g id="node6" class="node">
<title>Node6</title>
<g id="a_node6"><a xlink:title=" ">
<polygon fill="white" stroke="#bfbfbf" points="0,-6 0,-25 64,-25 64,-6 0,-6"/>
<text text-anchor="middle" x="32" y="-13" font-family="Helvetica,sans-Serif" font-size="10.00">algorithm</text>
</a>
</g>
</g>
<!-- Node2&#45;&gt;Node6 -->
<g id="edge32" class="edge">
<title>Node2&#45;&gt;Node6</title>
<path fill="none" stroke="midnightblue" d="M384.69,-238.64C345.43,-232.88 289.97,-221.37 246,-199 159.37,-154.94 78.08,-69.07 46.2,-33.04"/>
<polygon fill="midnightblue" stroke="midnightblue" points="48.73,-30.61 39.51,-25.38 43.45,-35.21 48.73,-30.61"/>
</g>
<!-- Node9 -->
<g id="node9" class="node">
<title>Node9</title>
<g id="a_node9"><a xlink:title=" ">
<polygon fill="white" stroke="#bfbfbf" points="82,-6 82,-25 138,-25 138,-6 82,-6"/>
<text text-anchor="middle" x="110" y="-13" font-family="Helvetica,sans-Serif" font-size="10.00">sstream</text>
</a>
</g>
</g>
<!-- Node2&#45;&gt;Node9 -->
<g id="edge36" class="edge">
<title>Node2&#45;&gt;Node9</title>
<path fill="none" stroke="midnightblue" d="M384.84,-238.07C351.63,-232.23 308.01,-220.86 275,-199 212.27,-157.45 221.36,-121.03 169,-67 156.62,-54.22 141.32,-41.2 129.41,-31.58"/>
<polygon fill="midnightblue" stroke="midnightblue" points="131.43,-28.71 121.42,-25.23 127.07,-34.19 131.43,-28.71"/>
</g>
<!-- Node10 -->
<g id="node10" class="node">
<title>Node10</title>
<g id="a_node10"><a xlink:title=" ">
<polygon fill="white" stroke="#bfbfbf" points="844,-6 844,-25 888,-25 888,-6 844,-6"/>
<text text-anchor="middle" x="866" y="-13" font-family="Helvetica,sans-Serif" font-size="10.00">string</text>
</a>
</g>
</g>
<!-- Node2&#45;&gt;Node10 -->
<g id="edge39" class="edge">
<title>Node2&#45;&gt;Node10</title>
<path fill="none" stroke="midnightblue" d="M442.88,-235.17C456.61,-221.83 484.24,-196.26 511,-179 622.11,-107.33 770.01,-50.53 834.12,-27.55"/>
<polygon fill="midnightblue" stroke="midnightblue" points="835.42,-30.81 843.67,-24.16 833.08,-24.21 835.42,-30.81"/>
</g>
<!-- Node11 -->
<g id="node11" class="node">
<title>Node11</title>
<g id="a_node11"><a xlink:title=" ">
<polygon fill="white" stroke="#bfbfbf" points="684.5,-6 684.5,-25 731.5,-25 731.5,-6 684.5,-6"/>
<text text-anchor="middle" x="708" y="-13" font-family="Helvetica,sans-Serif" font-size="10.00">vector</text>
</a>
</g>
</g>
<!-- Node2&#45;&gt;Node11 -->
<g id="edge40" class="edge">
<title>Node2&#45;&gt;Node11</title>
<path fill="none" stroke="midnightblue" d="M433.66,-235.42C433.38,-222.82 433.7,-198.67 439,-179 446.18,-152.32 471.15,-83.91 493,-67 558.22,-16.55 596.34,-55.73 675,-31 676.93,-30.39 678.89,-29.71 680.85,-28.98"/>
<polygon fill="midnightblue" stroke="midnightblue" points="682.53,-32.08 690.46,-25.05 679.88,-25.6 682.53,-32.08"/>
</g>
<!-- Node17 -->
<g id="node17" class="node">
<title>Node17</title>
<g id="a_node17"><a xlink:href="log__global_8h.html" target="_top" xlink:title="Global Access of Log.">
<polygon fill="white" stroke="black" points="911,-179.5 911,-198.5 987,-198.5 987,-179.5 911,-179.5"/>
<text text-anchor="middle" x="949" y="-186.5" font-family="Helvetica,sans-Serif" font-size="10.00">log_global.h</text>
</a>
</g>
</g>
<!-- Node2&#45;&gt;Node17 -->
<g id="edge17" class="edge">
<title>Node2&#45;&gt;Node17</title>
<path fill="none" stroke="midnightblue" d="M483.38,-238.82C582.12,-228.47 802.81,-205.33 900.68,-195.07"/>
<polygon fill="midnightblue" stroke="midnightblue" points="901.29,-198.52 910.87,-194 900.56,-191.56 901.29,-198.52"/>
</g>
<!-- Node2&#45;&gt;Node22 -->
<g id="edge35" class="edge">
<title>Node2&#45;&gt;Node22</title>
<path fill="none" stroke="midnightblue" d="M457.86,-235.36C481.12,-226.75 517.37,-212.86 548,-199 565.75,-190.97 568.28,-184.39 587,-179 890.66,-91.58 1027.96,-260.59 1292,-87 1311.28,-74.32 1324.88,-50.95 1332.56,-34.6"/>
<polygon fill="midnightblue" stroke="midnightblue" points="1335.94,-35.62 1336.76,-25.06 1329.53,-32.8 1335.94,-35.62"/>
</g>
<!-- Node26 -->
<g id="node26" class="node">
<title>Node26</title>
<g id="a_node26"><a xlink:title=" ">
<polygon fill="white" stroke="#bfbfbf" points="755,-67.5 755,-86.5 811,-86.5 811,-67.5 755,-67.5"/>
<text text-anchor="middle" x="783" y="-74.5" font-family="Helvetica,sans-Serif" font-size="10.00">iomanip</text>
</a>
</g>
</g>
<!-- Node2&#45;&gt;Node26 -->
<g id="edge34" class="edge">
<title>Node2&#45;&gt;Node26</title>
<path fill="none" stroke="midnightblue" d="M448.81,-235.37C471.11,-222.51 514.76,-197.8 553,-179 623.23,-144.48 708,-108.73 752.43,-90.44"/>
<polygon fill="midnightblue" stroke="midnightblue" points="753.87,-93.63 761.79,-86.59 751.21,-87.15 753.87,-93.63"/>
</g>
<!-- Node28 -->
<g id="node28" class="node">
<title>Node28</title>
<g id="a_node28"><a xlink:title=" ">
<polygon fill="white" stroke="#bfbfbf" points="297,-179.5 297,-198.5 349,-198.5 349,-179.5 297,-179.5"/>
<text text-anchor="middle" x="323" y="-186.5" font-family="Helvetica,sans-Serif" font-size="10.00">cassert</text>
</a>
</g>
</g>
<!-- Node2&#45;&gt;Node28 -->
<g id="edge33" class="edge">
<title>Node2&#45;&gt;Node28</title>
<path fill="none" stroke="midnightblue" d="M416.17,-235.32C398.28,-226.62 370.52,-213.12 349.95,-203.11"/>
<polygon fill="midnightblue" stroke="midnightblue" points="351.31,-199.88 340.79,-198.65 348.25,-206.18 351.31,-199.88"/>
</g>
<!-- Node2&#45;&gt;Node29 -->
<g id="edge37" class="edge">
<title>Node2&#45;&gt;Node29</title>
<path fill="none" stroke="midnightblue" d="M483.16,-244.12C587.76,-243.58 840.02,-238.13 1058.15,-198.98"/>
<polygon fill="midnightblue" stroke="midnightblue" points="1058.97,-202.39 1068.18,-197.15 1057.72,-195.5 1058.97,-202.39"/>
</g>
<!-- Node30 -->
<g id="node30" class="node">
<title>Node30</title>
<g id="a_node30"><a xlink:title=" ">
<polygon fill="white" stroke="#bfbfbf" points="595.5,-179.5 595.5,-198.5 660.5,-198.5 660.5,-179.5 595.5,-179.5"/>
<text text-anchor="middle" x="628" y="-186.5" font-family="Helvetica,sans-Serif" font-size="10.00">stdexcept</text>
</a>
</g>
</g>
<!-- Node2&#45;&gt;Node30 -->
<g id="edge38" class="edge">
<title>Node2&#45;&gt;Node30</title>
<path fill="none" stroke="midnightblue" d="M464.74,-235.44C497.94,-226.2 550.99,-211.44 587.56,-201.26"/>
<polygon fill="midnightblue" stroke="midnightblue" points="588.71,-204.57 597.4,-198.52 586.83,-197.83 588.71,-204.57"/>
</g>
<!-- Node4&#45;&gt;Node5 -->
<g id="edge4" class="edge">
<title>Node4&#45;&gt;Node5</title>
<path fill="none" stroke="midnightblue" d="M375.95,-123.32C364.54,-115.11 347.17,-102.6 333.57,-92.81"/>
<polygon fill="midnightblue" stroke="midnightblue" points="335.43,-89.84 325.27,-86.83 331.34,-95.52 335.43,-89.84"/>
</g>
<!-- Node4&#45;&gt;Node10 -->
<g id="edge16" class="edge">
<title>Node4&#45;&gt;Node10</title>
<path fill="none" stroke="midnightblue" d="M398.55,-123.33C416.63,-108.98 455.26,-80.54 493,-67 509.02,-61.25 745.94,-31.42 833.66,-20.51"/>
<polygon fill="midnightblue" stroke="midnightblue" points="834.34,-23.95 843.83,-19.24 833.47,-17 834.34,-23.95"/>
</g>
<!-- Node16 -->
<g id="node16" class="node">
<title>Node16</title>
<g id="a_node16"><a xlink:title=" ">
<polygon fill="white" stroke="#bfbfbf" points="361,-67.5 361,-86.5 403,-86.5 403,-67.5 361,-67.5"/>
<text text-anchor="middle" x="382" y="-74.5" font-family="Helvetica,sans-Serif" font-size="10.00">array</text>
</a>
</g>
</g>
<!-- Node4&#45;&gt;Node16 -->
<g id="edge15" class="edge">
<title>Node4&#45;&gt;Node16</title>
<path fill="none" stroke="midnightblue" d="M387.01,-123.08C386.21,-115.93 385.07,-105.64 384.08,-96.69"/>
<polygon fill="midnightblue" stroke="midnightblue" points="387.56,-96.3 382.97,-86.75 380.6,-97.08 387.56,-96.3"/>
</g>
<!-- Node5&#45;&gt;Node6 -->
<g id="edge5" class="edge">
<title>Node5&#45;&gt;Node6</title>
<path fill="none" stroke="midnightblue" d="M289.22,-72.79C245.81,-66.65 150.99,-51.97 73,-31 70.03,-30.2 66.97,-29.29 63.93,-28.33"/>
<polygon fill="midnightblue" stroke="midnightblue" points="64.95,-24.98 54.36,-25.11 62.72,-31.61 64.95,-24.98"/>
</g>
<!-- Node7 -->
<g id="node7" class="node">
<title>Node7</title>
<g id="a_node7"><a xlink:title=" ">
<polygon fill="white" stroke="#bfbfbf" points="156.5,-6 156.5,-25 205.5,-25 205.5,-6 156.5,-6"/>
<text text-anchor="middle" x="181" y="-13" font-family="Helvetica,sans-Serif" font-size="10.00">cctype</text>
</a>
</g>
</g>
<!-- Node5&#45;&gt;Node7 -->
<g id="edge6" class="edge">
<title>Node5&#45;&gt;Node7</title>
<path fill="none" stroke="midnightblue" d="M294.09,-67.48C271.84,-57.45 234.69,-40.7 209.07,-29.15"/>
<polygon fill="midnightblue" stroke="midnightblue" points="210.43,-25.93 199.88,-25.01 207.56,-32.31 210.43,-25.93"/>
</g>
<!-- Node8 -->
<g id="node8" class="node">
<title>Node8</title>
<g id="a_node8"><a xlink:title=" ">
<polygon fill="white" stroke="#bfbfbf" points="224,-6 224,-25 278,-25 278,-6 224,-6"/>
<text text-anchor="middle" x="251" y="-13" font-family="Helvetica,sans-Serif" font-size="10.00">random</text>
</a>
</g>
</g>
<!-- Node5&#45;&gt;Node8 -->
<g id="edge7" class="edge">
<title>Node5&#45;&gt;Node8</title>
<path fill="none" stroke="midnightblue" d="M304.12,-67.48C294.54,-58.28 279.09,-43.46 267.31,-32.16"/>
<polygon fill="midnightblue" stroke="midnightblue" points="269.51,-29.41 259.87,-25.01 264.66,-34.46 269.51,-29.41"/>
</g>
<!-- Node5&#45;&gt;Node9 -->
<g id="edge8" class="edge">
<title>Node5&#45;&gt;Node9</title>
<path fill="none" stroke="midnightblue" d="M289.39,-70.46C256.99,-62.66 197.04,-47.53 147,-31 144.73,-30.25 142.4,-29.44 140.07,-28.6"/>
<polygon fill="midnightblue" stroke="midnightblue" points="141.19,-25.28 130.6,-25.03 138.72,-31.83 141.19,-25.28"/>
</g>
<!-- Node5&#45;&gt;Node10 -->
<g id="edge9" class="edge">
<title>Node5&#45;&gt;Node10</title>
<path fill="none" stroke="midnightblue" d="M336.83,-69.97C341.81,-68.85 347.06,-67.79 352,-67 523.42,-39.42 568.31,-49 741,-31 772.56,-27.71 808.55,-23.49 833.78,-20.45"/>
<polygon fill="midnightblue" stroke="midnightblue" points="834.38,-23.9 843.89,-19.22 833.54,-16.95 834.38,-23.9"/>
</g>
<!-- Node5&#45;&gt;Node11 -->
<g id="edge10" class="edge">
<title>Node5&#45;&gt;Node11</title>
<path fill="none" stroke="midnightblue" d="M336.84,-70.04C341.83,-68.92 347.07,-67.84 352,-67 494.39,-42.72 535.5,-68.48 675,-31 677.29,-30.38 679.63,-29.63 681.96,-28.8"/>
<polygon fill="midnightblue" stroke="midnightblue" points="683.27,-32.04 691.23,-25.04 680.65,-25.55 683.27,-32.04"/>
</g>
<!-- Node12 -->
<g id="node12" class="node">
<title>Node12</title>
<g id="a_node12"><a xlink:title=" ">
<polygon fill="white" stroke="#bfbfbf" points="296.5,-0.5 296.5,-30.5 437.5,-30.5 437.5,-0.5 296.5,-0.5"/>
<text text-anchor="start" x="304.5" y="-18.5" font-family="Helvetica,sans-Serif" font-size="10.00">boost/dll/runtime_symbol</text>
<text text-anchor="middle" x="367" y="-7.5" font-family="Helvetica,sans-Serif" font-size="10.00">_info.hpp</text>
</a>
</g>
</g>
<!-- Node5&#45;&gt;Node12 -->
<g id="edge11" class="edge">
<title>Node5&#45;&gt;Node12</title>
<path fill="none" stroke="midnightblue" d="M320.74,-67.48C327.71,-59.79 338.26,-48.17 347.52,-37.96"/>
<polygon fill="midnightblue" stroke="midnightblue" points="350.14,-40.28 354.27,-30.52 344.96,-35.58 350.14,-40.28"/>
</g>
<!-- Node13 -->
<g id="node13" class="node">
<title>Node13</title>
<g id="a_node13"><a xlink:title=" ">
<polygon fill="white" stroke="#bfbfbf" points="456,-6 456,-25 502,-25 502,-6 456,-6"/>
<text text-anchor="middle" x="479" y="-13" font-family="Helvetica,sans-Serif" font-size="10.00">pwd.h</text>
</a>
</g>
</g>
<!-- Node5&#45;&gt;Node13 -->
<g id="edge12" class="edge">
<title>Node5&#45;&gt;Node13</title>
<path fill="none" stroke="midnightblue" d="M336.98,-68.75C364,-60.41 409.09,-45.91 447,-31 448.42,-30.44 449.87,-29.85 451.32,-29.25"/>
<polygon fill="midnightblue" stroke="midnightblue" points="453.08,-32.3 460.86,-25.1 450.29,-25.88 453.08,-32.3"/>
</g>
<!-- Node14 -->
<g id="node14" class="node">
<title>Node14</title>
<g id="a_node14"><a xlink:title=" ">
<polygon fill="white" stroke="#bfbfbf" points="520,-6 520,-25 592,-25 592,-6 520,-6"/>
<text text-anchor="middle" x="556" y="-13" font-family="Helvetica,sans-Serif" font-size="10.00">sys/types.h</text>
</a>
</g>
</g>
<!-- Node5&#45;&gt;Node14 -->
<g id="edge13" class="edge">
<title>Node5&#45;&gt;Node14</title>
<path fill="none" stroke="midnightblue" d="M336.51,-70.56C341.61,-69.38 346.99,-68.15 352,-67 422.63,-50.85 441.12,-50.13 511,-31 514.35,-30.08 517.82,-29.07 521.28,-28.03"/>
<polygon fill="midnightblue" stroke="midnightblue" points="522.39,-31.35 530.89,-25.03 520.3,-24.67 522.39,-31.35"/>
</g>
<!-- Node15 -->
<g id="node15" class="node">
<title>Node15</title>
<g id="a_node15"><a xlink:title=" ">
<polygon fill="white" stroke="#bfbfbf" points="610,-6 610,-25 666,-25 666,-6 610,-6"/>
<text text-anchor="middle" x="638" y="-13" font-family="Helvetica,sans-Serif" font-size="10.00">unistd.h</text>
</a>
</g>
</g>
<!-- Node5&#45;&gt;Node15 -->
<g id="edge14" class="edge">
<title>Node5&#45;&gt;Node15</title>
<path fill="none" stroke="midnightblue" d="M336.86,-70.16C341.85,-69.04 347.08,-67.92 352,-67 461.91,-46.41 492.9,-59.59 601,-31 603.66,-30.3 606.39,-29.46 609.1,-28.55"/>
<polygon fill="midnightblue" stroke="midnightblue" points="610.51,-31.76 618.69,-25.03 608.1,-25.19 610.51,-31.76"/>
</g>
<!-- Node18 -->
<g id="node18" class="node">
<title>Node18</title>
<g id="a_node18"><a xlink:href="include_2log_8h.html" target="_top" xlink:title="Log Utilities.">
<polygon fill="white" stroke="black" points="950.5,-123.5 950.5,-142.5 991.5,-142.5 991.5,-123.5 950.5,-123.5"/>
<text text-anchor="middle" x="971" y="-130.5" font-family="Helvetica,sans-Serif" font-size="10.00">log.h</text>
</a>
</g>
</g>
<!-- Node17&#45;&gt;Node18 -->
<g id="edge18" class="edge">
<title>Node17&#45;&gt;Node18</title>
<path fill="none" stroke="midnightblue" d="M952.63,-179.08C955.61,-171.77 959.93,-161.18 963.62,-152.1"/>
<polygon fill="midnightblue" stroke="midnightblue" points="966.9,-153.33 967.43,-142.75 960.42,-150.69 966.9,-153.33"/>
</g>
<!-- Node18&#45;&gt;Node5 -->
<g id="edge25" class="edge">
<title>Node18&#45;&gt;Node5</title>
<path fill="none" stroke="midnightblue" d="M950.3,-131.65C871.79,-130.09 585.07,-122.15 352,-87 350.3,-86.74 348.56,-86.45 346.81,-86.14"/>
<polygon fill="midnightblue" stroke="midnightblue" points="347.31,-82.67 336.81,-84.11 345.92,-89.53 347.31,-82.67"/>
</g>
<!-- Node19 -->
<g id="node19" class="node">
<title>Node19</title>
<g id="a_node19"><a xlink:href="meta_8h.html" target="_top" xlink:title="mmCEsim meta data">
<polygon fill="white" stroke="black" points="867.5,-67.5 867.5,-86.5 918.5,-86.5 918.5,-67.5 867.5,-67.5"/>
<text text-anchor="middle" x="893" y="-74.5" font-family="Helvetica,sans-Serif" font-size="10.00">meta.h</text>
</a>
</g>
</g>
<!-- Node18&#45;&gt;Node19 -->
<g id="edge19" class="edge">
<title>Node18&#45;&gt;Node19</title>
<path fill="none" stroke="midnightblue" d="M958.47,-123.32C946.41,-114.98 927.97,-102.21 913.73,-92.35"/>
<polygon fill="midnightblue" stroke="midnightblue" points="915.72,-89.47 905.5,-86.65 911.73,-95.22 915.72,-89.47"/>
</g>
<!-- Node20 -->
<g id="node20" class="node">
<title>Node20</title>
<g id="a_node20"><a xlink:href="term_8h.html" target="_top" xlink:title="Terminal Color and Style Control.">
<polygon fill="white" stroke="black" points="1233.5,-67.5 1233.5,-86.5 1282.5,-86.5 1282.5,-67.5 1233.5,-67.5"/>
<text text-anchor="middle" x="1258" y="-74.5" font-family="Helvetica,sans-Serif" font-size="10.00">term.h</text>
</a>
</g>
</g>
<!-- Node18&#45;&gt;Node20 -->
<g id="edge21" class="edge">
<title>Node18&#45;&gt;Node20</title>
<path fill="none" stroke="midnightblue" d="M991.64,-128.12C1040.26,-118.97 1162.44,-95.98 1222.94,-84.6"/>
<polygon fill="midnightblue" stroke="midnightblue" points="1223.96,-87.97 1233.14,-82.68 1222.66,-81.09 1223.96,-87.97"/>
</g>
<!-- Node23 -->
<g id="node23" class="node">
<title>Node23</title>
<g id="a_node23"><a xlink:title=" ">
<polygon fill="white" stroke="#bfbfbf" points="1095,-67.5 1095,-86.5 1139,-86.5 1139,-67.5 1095,-67.5"/>
<text text-anchor="middle" x="1117" y="-74.5" font-family="Helvetica,sans-Serif" font-size="10.00">ctime</text>
</a>
</g>
</g>
<!-- Node18&#45;&gt;Node23 -->
<g id="edge26" class="edge">
<title>Node18&#45;&gt;Node23</title>
<path fill="none" stroke="midnightblue" d="M991.61,-124.38C1015.94,-115.38 1056.67,-100.31 1085.09,-89.8"/>
<polygon fill="midnightblue" stroke="midnightblue" points="1086.42,-93.04 1094.58,-86.29 1083.99,-86.48 1086.42,-93.04"/>
</g>
<!-- Node24 -->
<g id="node24" class="node">
<title>Node24</title>
<g id="a_node24"><a xlink:title=" ">
<polygon fill="white" stroke="#bfbfbf" points="937,-67.5 937,-86.5 1005,-86.5 1005,-67.5 937,-67.5"/>
<text text-anchor="middle" x="971" y="-74.5" font-family="Helvetica,sans-Serif" font-size="10.00">filesystem</text>
</a>
</g>
</g>
<!-- Node18&#45;&gt;Node24 -->
<g id="edge27" class="edge">
<title>Node18&#45;&gt;Node24</title>
<path fill="none" stroke="midnightblue" d="M971,-123.08C971,-116.01 971,-105.86 971,-96.99"/>
<polygon fill="midnightblue" stroke="midnightblue" points="974.5,-96.75 971,-86.75 967.5,-96.75 974.5,-96.75"/>
</g>
<!-- Node18&#45;&gt;Node25 -->
<g id="edge28" class="edge">
<title>Node18&#45;&gt;Node25</title>
<path fill="none" stroke="midnightblue" d="M991.66,-129.5C1061.53,-121.06 1289.6,-93.51 1380.31,-82.55"/>
<polygon fill="midnightblue" stroke="midnightblue" points="1380.91,-86.01 1390.42,-81.33 1380.07,-79.06 1380.91,-86.01"/>
</g>
<!-- Node18&#45;&gt;Node26 -->
<g id="edge29" class="edge">
<title>Node18&#45;&gt;Node26</title>
<path fill="none" stroke="midnightblue" d="M950.16,-126.01C919.1,-117.09 860.13,-100.15 821.19,-88.97"/>
<polygon fill="midnightblue" stroke="midnightblue" points="821.84,-85.51 811.26,-86.12 819.91,-92.24 821.84,-85.51"/>
</g>
<!-- Node27 -->
<g id="node27" class="node">
<title>Node27</title>
<g id="a_node27"><a xlink:title=" ">
<polygon fill="white" stroke="#bfbfbf" points="1023.5,-67.5 1023.5,-86.5 1076.5,-86.5 1076.5,-67.5 1023.5,-67.5"/>
<text text-anchor="middle" x="1050" y="-74.5" font-family="Helvetica,sans-Serif" font-size="10.00">spy.hpp</text>
</a>
</g>
</g>
<!-- Node18&#45;&gt;Node27 -->
<g id="edge30" class="edge">
<title>Node18&#45;&gt;Node27</title>
<path fill="none" stroke="midnightblue" d="M983.69,-123.32C995.9,-114.98 1014.58,-102.21 1029,-92.35"/>
<polygon fill="midnightblue" stroke="midnightblue" points="1031.06,-95.19 1037.34,-86.65 1027.11,-89.41 1031.06,-95.19"/>
</g>
<!-- Node19&#45;&gt;Node10 -->
<g id="edge20" class="edge">
<title>Node19&#45;&gt;Node10</title>
<path fill="none" stroke="midnightblue" d="M889.13,-67.48C885.2,-58.82 879,-45.15 874.01,-34.15"/>
<polygon fill="midnightblue" stroke="midnightblue" points="877.18,-32.67 869.86,-25.01 870.81,-35.56 877.18,-32.67"/>
</g>
<!-- Node20&#45;&gt;Node10 -->
<g id="edge24" class="edge">
<title>Node20&#45;&gt;Node10</title>
<path fill="none" stroke="midnightblue" d="M1233.31,-69.97C1228.57,-68.91 1223.65,-67.87 1219,-67 1101.64,-45.1 960.78,-27.54 898.42,-20.21"/>
<polygon fill="midnightblue" stroke="midnightblue" points="898.75,-16.72 888.41,-19.04 897.94,-23.67 898.75,-16.72"/>
</g>
<!-- Node21 -->
<g id="node21" class="node">
<title>Node21</title>
<g id="a_node21"><a xlink:title=" ">
<polygon fill="white" stroke="#bfbfbf" points="1233.5,-6 1233.5,-25 1282.5,-25 1282.5,-6 1233.5,-6"/>
<text text-anchor="middle" x="1258" y="-13" font-family="Helvetica,sans-Serif" font-size="10.00">cstdlib</text>
</a>
</g>
</g>
<!-- Node20&#45;&gt;Node21 -->
<g id="edge22" class="edge">
<title>Node20&#45;&gt;Node21</title>
<path fill="none" stroke="midnightblue" d="M1258,-67.48C1258,-59.08 1258,-45.98 1258,-35.16"/>
<polygon fill="midnightblue" stroke="midnightblue" points="1261.5,-35.01 1258,-25.01 1254.5,-35.01 1261.5,-35.01"/>
</g>
<!-- Node20&#45;&gt;Node22 -->
<g id="edge23" class="edge">
<title>Node20&#45;&gt;Node22</title>
<path fill="none" stroke="midnightblue" d="M1269.75,-67.48C1282.78,-58.02 1304.04,-42.6 1319.76,-31.19"/>
<polygon fill="midnightblue" stroke="midnightblue" points="1322.23,-33.71 1328.27,-25.01 1318.12,-28.05 1322.23,-33.71"/>
</g>
<!-- Node31&#45;&gt;Node5 -->
<g id="edge55" class="edge">
<title>Node31&#45;&gt;Node5</title>
<path fill="none" stroke="midnightblue" d="M1112.97,-366.24C931.28,-362.26 193,-340.28 193,-246 193,-246 193,-246 193,-188 193,-140.08 245.64,-107.38 281.19,-90.76"/>
<polygon fill="midnightblue" stroke="midnightblue" points="283.01,-93.78 290.71,-86.5 280.15,-87.4 283.01,-93.78"/>
</g>
<!-- Node31&#45;&gt;Node10 -->
<g id="edge57" class="edge">
<title>Node31&#45;&gt;Node10</title>
<path fill="none" stroke="midnightblue" d="M1154.26,-358.35C1160.5,-313.97 1186.4,-112.12 1148,-67 1116.17,-29.6 965.6,-19.85 898.46,-17.35"/>
<polygon fill="midnightblue" stroke="midnightblue" points="898.17,-13.83 888.05,-16.99 897.93,-20.83 898.17,-13.83"/>
</g>
<!-- Node31&#45;&gt;Node17 -->
<g id="edge54" class="edge">
<title>Node31&#45;&gt;Node17</title>
<path fill="none" stroke="midnightblue" d="M1112.73,-362.39C1064.58,-356.01 988.08,-342.87 969,-322 940.55,-290.88 942.43,-237.32 945.91,-208.94"/>
<polygon fill="midnightblue" stroke="midnightblue" points="949.41,-209.16 947.36,-198.76 942.48,-208.17 949.41,-209.16"/>
</g>
<!-- Node32 -->
<g id="node32" class="node">
<title>Node32</title>
<g id="a_node32"><a xlink:href="type__track__global_8h.html" target="_top" xlink:title="Global Access of Type Track.">
<polygon fill="white" stroke="black" points="977.5,-297 977.5,-316 1124.5,-316 1124.5,-297 977.5,-297"/>
<text text-anchor="middle" x="1051" y="-304" font-family="Helvetica,sans-Serif" font-size="10.00">export/type_track_global.h</text>
</a>
</g>
</g>
<!-- Node31&#45;&gt;Node32 -->
<g id="edge43" class="edge">
<title>Node31&#45;&gt;Node32</title>
<path fill="none" stroke="midnightblue" d="M1138.39,-358.48C1121.65,-348.71 1094,-332.58 1074.28,-321.08"/>
<polygon fill="midnightblue" stroke="midnightblue" points="1075.99,-318.02 1065.59,-316.01 1072.46,-324.07 1075.99,-318.02"/>
</g>
<!-- Node35 -->
<g id="node35" class="node">
<title>Node35</title>
<g id="a_node35"><a xlink:title=" ">
<polygon fill="white" stroke="#bfbfbf" points="1318.5,-123.5 1318.5,-142.5 1359.5,-142.5 1359.5,-123.5 1318.5,-123.5"/>
<text text-anchor="middle" x="1339" y="-130.5" font-family="Helvetica,sans-Serif" font-size="10.00">tuple</text>
</a>
</g>
</g>
<!-- Node31&#45;&gt;Node35 -->
<g id="edge58" class="edge">
<title>Node31&#45;&gt;Node35</title>
<path fill="none" stroke="midnightblue" d="M1193.17,-367.48C1230.64,-365.61 1285.26,-356.54 1316,-322 1358.6,-274.14 1349.68,-190.23 1342.98,-152.87"/>
<polygon fill="midnightblue" stroke="midnightblue" points="1346.38,-152.01 1341.04,-142.86 1339.51,-153.34 1346.38,-152.01"/>
</g>
<!-- Node37 -->
<g id="node37" class="node">
<title>Node37</title>
<g id="a_node37"><a xlink:title=" ">
<polygon fill="white" stroke="#bfbfbf" points="1181.5,-291.5 1181.5,-321.5 1306.5,-321.5 1306.5,-291.5 1181.5,-291.5"/>
<text text-anchor="start" x="1189.5" y="-309.5" font-family="Helvetica,sans-Serif" font-size="10.00">boost/algorithm/string</text>
<text text-anchor="middle" x="1244" y="-298.5" font-family="Helvetica,sans-Serif" font-size="10.00">/replace.hpp</text>
</a>
</g>
</g>
<!-- Node31&#45;&gt;Node37 -->
<g id="edge56" class="edge">
<title>Node31&#45;&gt;Node37</title>
<path fill="none" stroke="midnightblue" d="M1166.04,-358.48C1178.48,-350.34 1197.67,-337.79 1213.9,-327.18"/>
<polygon fill="midnightblue" stroke="midnightblue" points="1216.1,-329.92 1222.55,-321.52 1212.27,-324.07 1216.1,-329.92"/>
</g>
<!-- Node33 -->
<g id="node33" class="node">
<title>Node33</title>
<g id="a_node33"><a xlink:href="type__track_8h.html" target="_top" xlink:title="Track data type of variables.">
<polygon fill="white" stroke="black" points="1015,-235.5 1015,-254.5 1127,-254.5 1127,-235.5 1015,-235.5"/>
<text text-anchor="middle" x="1071" y="-242.5" font-family="Helvetica,sans-Serif" font-size="10.00">export/type_track.h</text>
</a>
</g>
</g>
<!-- Node32&#45;&gt;Node33 -->
<g id="edge44" class="edge">
<title>Node32&#45;&gt;Node33</title>
<path fill="none" stroke="midnightblue" d="M1053.87,-296.98C1056.72,-288.49 1061.18,-275.2 1064.84,-264.32"/>
<polygon fill="midnightblue" stroke="midnightblue" points="1068.27,-265.1 1068.14,-254.51 1061.64,-262.87 1068.27,-265.1"/>
</g>
<!-- Node33&#45;&gt;Node11 -->
<g id="edge53" class="edge">
<title>Node33&#45;&gt;Node11</title>
<path fill="none" stroke="midnightblue" d="M1085.9,-235.46C1105.92,-222.91 1137.24,-198.83 1121,-179 1069.59,-116.22 1020.85,-162.16 942,-143 853.97,-121.61 816.6,-143.78 746,-87 729.45,-73.69 719.12,-51.16 713.48,-35.16"/>
<polygon fill="midnightblue" stroke="midnightblue" points="716.71,-33.76 710.31,-25.31 710.04,-35.9 716.71,-33.76"/>
</g>
<!-- Node33&#45;&gt;Node17 -->
<g id="edge48" class="edge">
<title>Node33&#45;&gt;Node17</title>
<path fill="none" stroke="midnightblue" d="M1051.67,-235.44C1031.68,-226.6 1000.26,-212.69 977.44,-202.59"/>
<polygon fill="midnightblue" stroke="midnightblue" points="978.8,-199.36 968.24,-198.52 975.97,-205.76 978.8,-199.36"/>
</g>
<!-- Node33&#45;&gt;Node22 -->
<g id="edge49" class="edge">
<title>Node33&#45;&gt;Node22</title>
<path fill="none" stroke="midnightblue" d="M1098.48,-235.44C1151.62,-217.36 1268.19,-169.99 1325,-87 1335.48,-71.7 1338.85,-50.48 1339.83,-35.33"/>
<polygon fill="midnightblue" stroke="midnightblue" points="1343.34,-35.24 1340.2,-25.12 1336.34,-34.99 1343.34,-35.24"/>
</g>
<!-- Node33&#45;&gt;Node29 -->
<g id="edge50" class="edge">
<title>Node33&#45;&gt;Node29</title>
<path fill="none" stroke="midnightblue" d="M1074.14,-235.08C1076.68,-227.85 1080.36,-217.41 1083.53,-208.4"/>
<polygon fill="midnightblue" stroke="midnightblue" points="1086.9,-209.35 1086.92,-198.75 1080.3,-207.02 1086.9,-209.35"/>
</g>
<!-- Node33&#45;&gt;Node30 -->
<g id="edge51" class="edge">
<title>Node33&#45;&gt;Node30</title>
<path fill="none" stroke="midnightblue" d="M1014.89,-237.16C925.21,-226.23 751.48,-205.05 670.93,-195.23"/>
<polygon fill="midnightblue" stroke="midnightblue" points="671.01,-191.72 660.66,-193.98 670.16,-198.67 671.01,-191.72"/>
</g>
<!-- Node33&#45;&gt;Node34 -->
<g id="edge45" class="edge">
<title>Node33&#45;&gt;Node34</title>
<path fill="none" stroke="midnightblue" d="M1104.91,-235.44C1141.85,-226.12 1201.05,-211.18 1241.42,-201"/>
<polygon fill="midnightblue" stroke="midnightblue" points="1242.41,-204.36 1251.25,-198.52 1240.7,-197.57 1242.41,-204.36"/>
</g>
<!-- Node36 -->
<g id="node36" class="node">
<title>Node36</title>
<g id="a_node36"><a xlink:title=" ">
<polygon fill="white" stroke="#bfbfbf" points="1005.5,-179.5 1005.5,-198.5 1050.5,-198.5 1050.5,-179.5 1005.5,-179.5"/>
<text text-anchor="middle" x="1028" y="-186.5" font-family="Helvetica,sans-Serif" font-size="10.00">utility</text>
</a>
</g>
</g>
<!-- Node33&#45;&gt;Node36 -->
<g id="edge52" class="edge">
<title>Node33&#45;&gt;Node36</title>
<path fill="none" stroke="midnightblue" d="M1063.9,-235.08C1057.76,-227.38 1048.73,-216.03 1041.26,-206.65"/>
<polygon fill="midnightblue" stroke="midnightblue" points="1043.94,-204.39 1034.97,-198.75 1038.46,-208.75 1043.94,-204.39"/>
</g>
<!-- Node34&#45;&gt;Node10 -->
<g id="edge46" class="edge">
<title>Node34&#45;&gt;Node10</title>
<path fill="none" stroke="midnightblue" d="M1280.53,-179.47C1268.16,-156.83 1231.05,-94.99 1181,-67 1132.84,-40.07 968.79,-24.46 898.45,-18.87"/>
<polygon fill="midnightblue" stroke="midnightblue" points="898.63,-15.38 888.39,-18.09 898.09,-22.35 898.63,-15.38"/>
</g>
<!-- Node34&#45;&gt;Node35 -->
<g id="edge47" class="edge">
<title>Node34&#45;&gt;Node35</title>
<path fill="none" stroke="midnightblue" d="M1293.92,-179.08C1301.78,-171.22 1313.43,-159.57 1322.92,-150.08"/>
<polygon fill="midnightblue" stroke="midnightblue" points="1325.65,-152.3 1330.25,-142.75 1320.7,-147.35 1325.65,-152.3"/>
</g>
<!-- Node38&#45;&gt;Node5 -->
<g id="edge62" class="edge">
<title>Node38&#45;&gt;Node5</title>
<path fill="none" stroke="midnightblue" d="M799.42,-241.48C685.63,-234.23 393.41,-209.41 327,-143 315.02,-131.02 312.18,-111.41 311.93,-96.86"/>
<polygon fill="midnightblue" stroke="midnightblue" points="315.44,-96.59 312.16,-86.52 308.44,-96.43 315.44,-96.59"/>
</g>
<!-- Node38&#45;&gt;Node10 -->
<g id="edge65" class="edge">
<title>Node38&#45;&gt;Node10</title>
<path fill="none" stroke="midnightblue" d="M845.52,-235.14C847.06,-209.23 852,-131.35 859,-67 860.16,-56.37 861.78,-44.54 863.17,-35"/>
<polygon fill="midnightblue" stroke="midnightblue" points="866.64,-35.47 864.66,-25.06 859.72,-34.43 866.64,-35.47"/>
</g>
<!-- Node38&#45;&gt;Node11 -->
<g id="edge67" class="edge">
<title>Node38&#45;&gt;Node11</title>
<path fill="none" stroke="midnightblue" d="M799.43,-242.22C768.16,-238.34 728.7,-227.59 708,-199 671.96,-149.23 690.53,-70.13 701.65,-34.7"/>
<polygon fill="midnightblue" stroke="midnightblue" points="704.97,-35.78 704.79,-25.19 698.33,-33.59 704.97,-35.78"/>
</g>
<!-- Node38&#45;&gt;Node17 -->
<g id="edge60" class="edge">
<title>Node38&#45;&gt;Node17</title>
<path fill="none" stroke="midnightblue" d="M861.71,-235.32C878.31,-226.7 904,-213.36 923.22,-203.39"/>
<polygon fill="midnightblue" stroke="midnightblue" points="925.07,-206.37 932.33,-198.65 921.84,-200.16 925.07,-206.37"/>
</g>
<!-- Node38&#45;&gt;Node19 -->
<g id="edge61" class="edge">
<title>Node38&#45;&gt;Node19</title>
<path fill="none" stroke="midnightblue" d="M847.75,-235.39C850.63,-226.35 855.24,-211.71 859,-199 869.75,-162.69 881.55,-120.01 888.03,-96.28"/>
<polygon fill="midnightblue" stroke="midnightblue" points="891.44,-97.1 890.69,-86.53 884.68,-95.26 891.44,-97.1"/>
</g>
<!-- Node38&#45;&gt;Node36 -->
<g id="edge66" class="edge">
<title>Node38&#45;&gt;Node36</title>
<path fill="none" stroke="midnightblue" d="M874,-235.44C907.06,-225.69 960.98,-209.78 995.45,-199.6"/>
<polygon fill="midnightblue" stroke="midnightblue" points="996.88,-202.83 1005.48,-196.64 994.9,-196.12 996.88,-202.83"/>
</g>
<!-- Node39 -->
<g id="node39" class="node">
<title>Node39</title>
<g id="a_node39"><a xlink:title=" ">
<polygon fill="white" stroke="#bfbfbf" points="717,-179.5 717,-198.5 755,-198.5 755,-179.5 717,-179.5"/>
<text text-anchor="middle" x="736" y="-186.5" font-family="Helvetica,sans-Serif" font-size="10.00">map</text>
</a>
</g>
</g>
<!-- Node38&#45;&gt;Node39 -->
<g id="edge63" class="edge">
<title>Node38&#45;&gt;Node39</title>
<path fill="none" stroke="midnightblue" d="M827.49,-235.32C809.93,-226.62 782.67,-213.12 762.47,-203.11"/>
<polygon fill="midnightblue" stroke="midnightblue" points="763.98,-199.96 753.47,-198.65 760.88,-206.23 763.98,-199.96"/>
</g>
<!-- Node40 -->
<g id="node40" class="node">
<title>Node40</title>
<g id="a_node40"><a xlink:title=" ">
<polygon fill="white" stroke="#bfbfbf" points="773,-179.5 773,-198.5 817,-198.5 817,-179.5 773,-179.5"/>
<text text-anchor="middle" x="795" y="-186.5" font-family="Helvetica,sans-Serif" font-size="10.00">regex</text>
</a>
</g>
</g>
<!-- Node38&#45;&gt;Node40 -->
<g id="edge64" class="edge">
<title>Node38&#45;&gt;Node40</title>
<path fill="none" stroke="midnightblue" d="M836.74,-235.08C829.54,-227.3 818.89,-215.8 810.15,-206.37"/>
<polygon fill="midnightblue" stroke="midnightblue" points="812.47,-203.71 803.1,-198.75 807.33,-208.47 812.47,-203.71"/>
</g>
</g>
</svg>
        <g id="navigator" transform="translate(0 0)" fill="#404254">
                <rect fill="#f2f5e9" fill-opacity="0.5" stroke="#606060" stroke-width=".5" x="0" y="0" width="60" height="60"/>
                <use id="zoomplus" xlink:href="#zoomPlus" x="17" y="9" onmousedown="handleZoom(evt,'in')"/>
                <use id="zoomminus" xlink:href="#zoomMin" x="42" y="9" onmousedown="handleZoom(evt,'out')"/>
                <use id="reset" xlink:href="#resetDef" x="30" y="36" onmousedown="handleReset()"/>
                <g id="arrowUp" xlink:href="#dirArrow" transform="translate(30 24)" onmousedown="handlePan(0,-1)">
                  <use xlink:href="#rim" fill="#404040">
                        <set attributeName="fill" to="#808080" begin="arrowUp.mouseover" end="arrowUp.mouseout"/>
                  </use>
                  <path fill="none" stroke="white" stroke-width="1.5" d="M0,-3.0v7 M-2.5,-0.5L0,-3.0L2.5,-0.5"/>
                </g>
                <g id="arrowRight" xlink:href="#dirArrow" transform="rotate(90) translate(36 -43)" onmousedown="handlePan(1,0)">
                  <use xlink:href="#rim" fill="#404040">
                        <set attributeName="fill" to="#808080" begin="arrowRight.mouseover" end="arrowRight.mouseout"/>
                  </use>
                  <path fill="none" stroke="white" stroke-width="1.5" d="M0,-3.0v7 M-2.5,-0.5L0,-3.0L2.5,-0.5"/>
                </g>
                <g id="arrowDown" xlink:href="#dirArrow" transform="rotate(180) translate(-30 -48)" onmousedown="handlePan(0,1)">
                  <use xlink:href="#rim" fill="#404040">
                        <set attributeName="fill" to="#808080" begin="arrowDown.mouseover" end="arrowDown.mouseout"/>
                  </use>
                  <path fill="none" stroke="white" stroke-width="1.5" d="M0,-3.0v7 M-2.5,-0.5L0,-3.0L2.5,-0.5"/>
                </g>
                <g id="arrowLeft" xlink:href="#dirArrow" transform="rotate(270) translate(-36 17)" onmousedown="handlePan(-1,0)">
                  <use xlink:href="#rim" fill="#404040">
                        <set attributeName="fill" to="#808080" begin="arrowLeft.mouseover" end="arrowLeft.mouseout"/>
                  </use>
                  <path fill="none" stroke="white" stroke-width="1.5" d="M0,-3.0v7 M-2.5,-0.5L0,-3.0L2.5,-0.5"/>
                </g>
        </g>
        <svg viewBox="0 0 15 15" width="100%" height="30px" preserveAspectRatio="xMaxYMin meet">
         <g id="arrow_out" transform="scale(0.3 0.3)">
          <a xlink:href="alg_8h__incl_org.svg" target="_base">
           <rect id="button" ry="5" rx="5" y="6" x="6" height="38" width="38"
                fill="#f2f5e9" fill-opacity="0.5" stroke="#606060" stroke-width="1.0"/>
           <path id="arrow"
             d="M 11.500037,31.436501 C 11.940474,20.09759 22.043105,11.32322 32.158766,21.979434 L 37.068811,17.246167 C 37.068811,17.246167 37.088388,32 37.088388,32 L 22.160133,31.978069 C 22.160133,31.978069 26.997745,27.140456 26.997745,27.140456 C 18.528582,18.264221 13.291696,25.230495 11.500037,31.436501 z"
             style="fill:#404040;"/>
          </a>
         </g>
        </svg>
</svg>
