<?xml version="1.0" encoding="UTF-8" standalone="no"?>
<!DOCTYPE svg PUBLIC "-//W3C//DTD SVG 1.1//EN"
 "http://www.w3.org/Graphics/SVG/1.1/DTD/svg11.dtd">
<!-- Generated by graphviz version 2.43.0 (0)
 -->
<!-- Title: src/export/alg.cpp Pages: 1 -->
<svg width="1629pt" height="498pt"
 viewBox="0.00 0.00 1629.00 498.00" xmlns="http://www.w3.org/2000/svg" xmlns:xlink="http://www.w3.org/1999/xlink">
<g id="graph0" class="graph" transform="scale(1 1) rotate(0) translate(4 494)">
<title>src/export/alg.cpp</title>
<polygon fill="white" stroke="transparent" points="-4,4 -4,-494 1625,-494 1625,4 -4,4"/>
<!-- Node1 -->
<g id="node1" class="node">
<title>Node1</title>
<g id="a_node1"><a xlink:title="Implementation of class Alg.">
<polygon fill="#bfbfbf" stroke="black" points="927,-470.5 927,-489.5 1031,-489.5 1031,-470.5 927,-470.5"/>
<text text-anchor="middle" x="979" y="-477.5" font-family="Helvetica,sans-Serif" font-size="10.00">src/export/alg.cpp</text>
</a>
</g>
</g>
<!-- Node2 -->
<g id="node2" class="node">
<title>Node2</title>
<g id="a_node2"><a xlink:href="alg_8h.html" target="_top" xlink:title="Algorithm Parser (.alg Language)">
<polygon fill="white" stroke="black" points="941.5,-414.5 941.5,-433.5 1016.5,-433.5 1016.5,-414.5 941.5,-414.5"/>
<text text-anchor="middle" x="979" y="-421.5" font-family="Helvetica,sans-Serif" font-size="10.00">export/alg.h</text>
</a>
</g>
</g>
<!-- Node1&#45;&gt;Node2 -->
<g id="edge1" class="edge">
<title>Node1&#45;&gt;Node2</title>
<path fill="none" stroke="midnightblue" d="M979,-470.08C979,-463.01 979,-452.86 979,-443.99"/>
<polygon fill="midnightblue" stroke="midnightblue" points="982.5,-443.75 979,-433.75 975.5,-443.75 982.5,-443.75"/>
</g>
<!-- Node3 -->
<g id="node3" class="node">
<title>Node3</title>
<g id="a_node3"><a xlink:href="alg__line_8h.html" target="_top" xlink:title="Parse Line of Alg.">
<polygon fill="white" stroke="black" points="363,-235.5 363,-254.5 461,-254.5 461,-235.5 363,-235.5"/>
<text text-anchor="middle" x="412" y="-242.5" font-family="Helvetica,sans-Serif" font-size="10.00">export/alg_line.h</text>
</a>
</g>
</g>
<!-- Node2&#45;&gt;Node3 -->
<g id="edge2" class="edge">
<title>Node2&#45;&gt;Node3</title>
<path fill="none" stroke="midnightblue" d="M951.65,-414.46C858.75,-385.46 555.19,-290.7 449.05,-257.56"/>
<polygon fill="midnightblue" stroke="midnightblue" points="449.99,-254.19 439.4,-254.55 447.91,-260.88 449.99,-254.19"/>
</g>
<!-- Node4 -->
<g id="node4" class="node">
<title>Node4</title>
<g id="a_node4"><a xlink:href="alg__opt_8h.html" target="_top" xlink:title="ALG_Opt Enum.">
<polygon fill="white" stroke="black" points="28,-179.5 28,-198.5 124,-198.5 124,-179.5 28,-179.5"/>
<text text-anchor="middle" x="76" y="-186.5" font-family="Helvetica,sans-Serif" font-size="10.00">export/alg_opt.h</text>
</a>
</g>
</g>
<!-- Node2&#45;&gt;Node4 -->
<g id="edge38" class="edge">
<title>Node2&#45;&gt;Node4</title>
<path fill="none" stroke="midnightblue" d="M941.15,-415.53C834.18,-394.11 520.89,-329.22 266,-255 209.92,-238.67 145.87,-215.88 108.3,-202.07"/>
<polygon fill="midnightblue" stroke="midnightblue" points="109.48,-198.78 98.89,-198.6 107.06,-205.34 109.48,-198.78"/>
</g>
<!-- Node6 -->
<g id="node6" class="node">
<title>Node6</title>
<g id="a_node6"><a xlink:href="utils_8h.html" target="_top" xlink:title="Utilities.">
<polygon fill="white" stroke="black" points="280.5,-67.5 280.5,-86.5 327.5,-86.5 327.5,-67.5 280.5,-67.5"/>
<text text-anchor="middle" x="304" y="-74.5" font-family="Helvetica,sans-Serif" font-size="10.00">utils.h</text>
</a>
</g>
</g>
<!-- Node2&#45;&gt;Node6 -->
<g id="edge66" class="edge">
<title>Node2&#45;&gt;Node6</title>
<path fill="none" stroke="midnightblue" d="M941.22,-422.59C761.3,-420.14 0,-404.09 0,-307.5 0,-307.5 0,-307.5 0,-188 0,-131 191.4,-95.2 270.46,-82.84"/>
<polygon fill="midnightblue" stroke="midnightblue" points="271.04,-86.29 280.4,-81.32 269.98,-79.37 271.04,-86.29"/>
</g>
<!-- Node20 -->
<g id="node20" class="node">
<title>Node20</title>
<g id="a_node20"><a xlink:title=" ">
<polygon fill="white" stroke="#bfbfbf" points="1145,-6 1145,-25 1205,-25 1205,-6 1145,-6"/>
<text text-anchor="middle" x="1175" y="-13" font-family="Helvetica,sans-Serif" font-size="10.00">iostream</text>
</a>
</g>
</g>
<!-- Node2&#45;&gt;Node20 -->
<g id="edge69" class="edge">
<title>Node2&#45;&gt;Node20</title>
<path fill="none" stroke="midnightblue" d="M1016.51,-421.77C1127.56,-417.1 1447,-396 1447,-307.5 1447,-307.5 1447,-307.5 1447,-132 1447,-32.53 1290.99,-17.48 1215.27,-16.03"/>
<polygon fill="midnightblue" stroke="midnightblue" points="1215.19,-12.53 1205.15,-15.91 1215.11,-19.53 1215.19,-12.53"/>
</g>
<!-- Node22 -->
<g id="node22" class="node">
<title>Node22</title>
<g id="a_node22"><a xlink:title=" ">
<polygon fill="white" stroke="#bfbfbf" points="1137.5,-67.5 1137.5,-86.5 1192.5,-86.5 1192.5,-67.5 1137.5,-67.5"/>
<text text-anchor="middle" x="1165" y="-74.5" font-family="Helvetica,sans-Serif" font-size="10.00">fstream</text>
</a>
</g>
</g>
<!-- Node2&#45;&gt;Node22 -->
<g id="edge68" class="edge">
<title>Node2&#45;&gt;Node22</title>
<path fill="none" stroke="midnightblue" d="M1016.78,-420.94C1121.71,-414.21 1409,-388.37 1409,-307.5 1409,-307.5 1409,-307.5 1409,-188 1409,-98.68 1271.44,-81.48 1202.89,-78.45"/>
<polygon fill="midnightblue" stroke="midnightblue" points="1202.63,-74.94 1192.52,-78.08 1202.38,-81.93 1202.63,-74.94"/>
</g>
<!-- Node26 -->
<g id="node26" class="node">
<title>Node26</title>
<g id="a_node26"><a xlink:title=" ">
<polygon fill="white" stroke="#bfbfbf" points="908.5,-179.5 908.5,-198.5 951.5,-198.5 951.5,-179.5 908.5,-179.5"/>
<text text-anchor="middle" x="930" y="-186.5" font-family="Helvetica,sans-Serif" font-size="10.00">stack</text>
</a>
</g>
</g>
<!-- Node2&#45;&gt;Node26 -->
<g id="edge70" class="edge">
<title>Node2&#45;&gt;Node26</title>
<path fill="none" stroke="midnightblue" d="M976.81,-414.38C972.42,-396.98 962.33,-356.37 955,-322 946.43,-281.84 937.83,-234.5 933.29,-208.84"/>
<polygon fill="midnightblue" stroke="midnightblue" points="936.68,-207.92 931.5,-198.68 929.78,-209.13 936.68,-207.92"/>
</g>
<!-- Node28 -->
<g id="node28" class="node">
<title>Node28</title>
<g id="a_node28"><a xlink:href="calc_8h.html" target="_top" xlink:title="Make Calculation in Alg.">
<polygon fill="white" stroke="black" points="1009,-358.5 1009,-377.5 1089,-377.5 1089,-358.5 1009,-358.5"/>
<text text-anchor="middle" x="1049" y="-365.5" font-family="Helvetica,sans-Serif" font-size="10.00">export/calc.h</text>
</a>
</g>
</g>
<!-- Node2&#45;&gt;Node28 -->
<g id="edge39" class="edge">
<title>Node2&#45;&gt;Node28</title>
<path fill="none" stroke="midnightblue" d="M990.25,-414.32C1000.8,-406.18 1016.8,-393.84 1029.44,-384.09"/>
<polygon fill="midnightblue" stroke="midnightblue" points="1031.77,-386.71 1037.55,-377.83 1027.49,-381.17 1031.77,-386.71"/>
</g>
<!-- Node31 -->
<g id="node31" class="node">
<title>Node31</title>
<g id="a_node31"><a xlink:href="type_8h.html" target="_top" xlink:title="Type Specification in Alg.">
<polygon fill="white" stroke="black" points="1242,-179.5 1242,-198.5 1324,-198.5 1324,-179.5 1242,-179.5"/>
<text text-anchor="middle" x="1283" y="-186.5" font-family="Helvetica,sans-Serif" font-size="10.00">export/type.h</text>
</a>
</g>
</g>
<!-- Node2&#45;&gt;Node31 -->
<g id="edge65" class="edge">
<title>Node2&#45;&gt;Node31</title>
<path fill="none" stroke="midnightblue" d="M1016.67,-417.33C1096.44,-404.46 1278.04,-370.39 1314,-322 1339.87,-287.18 1312.43,-234.09 1295.03,-207.08"/>
<polygon fill="midnightblue" stroke="midnightblue" points="1297.87,-205.04 1289.4,-198.68 1292.06,-208.94 1297.87,-205.04"/>
</g>
<!-- Node35 -->
<g id="node35" class="node">
<title>Node35</title>
<g id="a_node35"><a xlink:href="macro_8h.html" target="_top" xlink:title="ALG Macro.">
<polygon fill="white" stroke="black" points="725.5,-235.5 725.5,-254.5 816.5,-254.5 816.5,-235.5 725.5,-235.5"/>
<text text-anchor="middle" x="771" y="-242.5" font-family="Helvetica,sans-Serif" font-size="10.00">export/macro.h</text>
</a>
</g>
</g>
<!-- Node2&#45;&gt;Node35 -->
<g id="edge56" class="edge">
<title>Node2&#45;&gt;Node35</title>
<path fill="none" stroke="midnightblue" d="M958.9,-414.49C941.17,-406.47 915.09,-393.4 895,-378 848.82,-342.59 804.6,-289.39 783.65,-262.63"/>
<polygon fill="midnightblue" stroke="midnightblue" points="786.35,-260.4 777.46,-254.63 780.81,-264.68 786.35,-260.4"/>
</g>
<!-- Node38 -->
<g id="node38" class="node">
<title>Node38</title>
<g id="a_node38"><a xlink:title=" ">
<polygon fill="white" stroke="#bfbfbf" points="1475,-358.5 1475,-377.5 1621,-377.5 1621,-358.5 1475,-358.5"/>
<text text-anchor="middle" x="1548" y="-365.5" font-family="Helvetica,sans-Serif" font-size="10.00">boost/algorithm/string.hpp</text>
</a>
</g>
</g>
<!-- Node2&#45;&gt;Node38 -->
<g id="edge67" class="edge">
<title>Node2&#45;&gt;Node38</title>
<path fill="none" stroke="midnightblue" d="M1016.51,-419.63C1097.62,-412.3 1295.39,-394.3 1461,-378 1462.28,-377.87 1463.56,-377.75 1464.85,-377.62"/>
<polygon fill="midnightblue" stroke="midnightblue" points="1465.3,-381.09 1474.9,-376.62 1464.61,-374.13 1465.3,-381.09"/>
</g>
<!-- Node3&#45;&gt;Node4 -->
<g id="edge3" class="edge">
<title>Node3&#45;&gt;Node4</title>
<path fill="none" stroke="midnightblue" d="M362.78,-236.09C302.05,-226.33 198.92,-209.76 134.29,-199.37"/>
<polygon fill="midnightblue" stroke="midnightblue" points="134.69,-195.89 124.26,-197.76 133.58,-202.8 134.69,-195.89"/>
</g>
<!-- Node5 -->
<g id="node5" class="node">
<title>Node5</title>
<g id="a_node5"><a xlink:href="functions_8h.html" target="_top" xlink:title="Function Lists.">
<polygon fill="white" stroke="black" points="332.5,-123.5 332.5,-142.5 437.5,-142.5 437.5,-123.5 332.5,-123.5"/>
<text text-anchor="middle" x="385" y="-130.5" font-family="Helvetica,sans-Serif" font-size="10.00">export/functions.h</text>
</a>
</g>
</g>
<!-- Node3&#45;&gt;Node5 -->
<g id="edge4" class="edge">
<title>Node3&#45;&gt;Node5</title>
<path fill="none" stroke="midnightblue" d="M409.05,-235.45C406.01,-226.45 401.27,-211.84 398,-199 394.09,-183.65 390.62,-166.01 388.26,-152.98"/>
<polygon fill="midnightblue" stroke="midnightblue" points="391.66,-152.14 386.48,-142.9 384.77,-153.35 391.66,-152.14"/>
</g>
<!-- Node3&#45;&gt;Node6 -->
<g id="edge28" class="edge">
<title>Node3&#45;&gt;Node6</title>
<path fill="none" stroke="midnightblue" d="M362.74,-240.08C335.02,-235.05 302.55,-223.84 285,-199 263,-167.86 281.14,-120.99 293.98,-95.69"/>
<polygon fill="midnightblue" stroke="midnightblue" points="297.23,-97.03 298.87,-86.56 291.06,-93.73 297.23,-97.03"/>
</g>
<!-- Node7 -->
<g id="node7" class="node">
<title>Node7</title>
<g id="a_node7"><a xlink:title=" ">
<polygon fill="white" stroke="#bfbfbf" points="85,-6 85,-25 149,-25 149,-6 85,-6"/>
<text text-anchor="middle" x="117" y="-13" font-family="Helvetica,sans-Serif" font-size="10.00">algorithm</text>
</a>
</g>
</g>
<!-- Node3&#45;&gt;Node7 -->
<g id="edge29" class="edge">
<title>Node3&#45;&gt;Node7</title>
<path fill="none" stroke="midnightblue" d="M362.68,-238.93C328.57,-233.47 283.47,-222.19 250,-199 186.94,-155.3 142.58,-71.78 125.17,-34.84"/>
<polygon fill="midnightblue" stroke="midnightblue" points="128.16,-32.98 120.81,-25.35 121.8,-35.9 128.16,-32.98"/>
</g>
<!-- Node10 -->
<g id="node10" class="node">
<title>Node10</title>
<g id="a_node10"><a xlink:title=" ">
<polygon fill="white" stroke="#bfbfbf" points="167,-6 167,-25 223,-25 223,-6 167,-6"/>
<text text-anchor="middle" x="195" y="-13" font-family="Helvetica,sans-Serif" font-size="10.00">sstream</text>
</a>
</g>
</g>
<!-- Node3&#45;&gt;Node10 -->
<g id="edge33" class="edge">
<title>Node3&#45;&gt;Node10</title>
<path fill="none" stroke="midnightblue" d="M362.78,-238.57C333.3,-233.01 296.86,-221.76 272,-199 222.79,-153.95 203.94,-72.37 197.7,-35.5"/>
<polygon fill="midnightblue" stroke="midnightblue" points="201.1,-34.54 196.1,-25.2 194.18,-35.62 201.1,-34.54"/>
</g>
<!-- Node11 -->
<g id="node11" class="node">
<title>Node11</title>
<g id="a_node11"><a xlink:title=" ">
<polygon fill="white" stroke="#bfbfbf" points="729,-6 729,-25 773,-25 773,-6 729,-6"/>
<text text-anchor="middle" x="751" y="-13" font-family="Helvetica,sans-Serif" font-size="10.00">string</text>
</a>
</g>
</g>
<!-- Node3&#45;&gt;Node11 -->
<g id="edge36" class="edge">
<title>Node3&#45;&gt;Node11</title>
<path fill="none" stroke="midnightblue" d="M420.01,-235.15C431.9,-222.22 455.16,-197.66 477,-179 541.34,-124.02 557.29,-108.58 631,-67 659.55,-50.9 694.26,-36.83 718.99,-27.66"/>
<polygon fill="midnightblue" stroke="midnightblue" points="720.41,-30.87 728.6,-24.16 718.01,-24.3 720.41,-30.87"/>
</g>
<!-- Node12 -->
<g id="node12" class="node">
<title>Node12</title>
<g id="a_node12"><a xlink:title=" ">
<polygon fill="white" stroke="#bfbfbf" points="540.5,-6 540.5,-25 587.5,-25 587.5,-6 540.5,-6"/>
<text text-anchor="middle" x="564" y="-13" font-family="Helvetica,sans-Serif" font-size="10.00">vector</text>
</a>
</g>
</g>
<!-- Node3&#45;&gt;Node12 -->
<g id="edge37" class="edge">
<title>Node3&#45;&gt;Node12</title>
<path fill="none" stroke="midnightblue" d="M414.85,-235.49C419.11,-222.97 427.54,-198.93 436,-179 457.6,-128.13 453.95,-108.89 490,-67 503.19,-51.67 522.07,-38.89 537.46,-30.02"/>
<polygon fill="midnightblue" stroke="midnightblue" points="539.45,-32.92 546.51,-25.01 536.06,-26.79 539.45,-32.92"/>
</g>
<!-- Node15 -->
<g id="node15" class="node">
<title>Node15</title>
<g id="a_node15"><a xlink:href="log__global_8h.html" target="_top" xlink:title="Global Access of Log.">
<polygon fill="white" stroke="black" points="970,-179.5 970,-198.5 1046,-198.5 1046,-179.5 970,-179.5"/>
<text text-anchor="middle" x="1008" y="-186.5" font-family="Helvetica,sans-Serif" font-size="10.00">log_global.h</text>
</a>
</g>
</g>
<!-- Node3&#45;&gt;Node15 -->
<g id="edge15" class="edge">
<title>Node3&#45;&gt;Node15</title>
<path fill="none" stroke="midnightblue" d="M461.03,-241.75C555.56,-237.03 769.71,-224.48 959.66,-199.04"/>
<polygon fill="midnightblue" stroke="midnightblue" points="960.4,-202.47 969.84,-197.66 959.46,-195.54 960.4,-202.47"/>
</g>
<!-- Node3&#45;&gt;Node20 -->
<g id="edge32" class="edge">
<title>Node3&#45;&gt;Node20</title>
<path fill="none" stroke="midnightblue" d="M434.63,-235.49C472.74,-221.5 552.36,-193.73 622,-179 829.39,-135.13 905.37,-191.15 1090,-87 1116.73,-71.92 1143.27,-48.13 1159.41,-32.42"/>
<polygon fill="midnightblue" stroke="midnightblue" points="1162.21,-34.56 1166.84,-25.03 1157.28,-29.6 1162.21,-34.56"/>
</g>
<!-- Node23 -->
<g id="node23" class="node">
<title>Node23</title>
<g id="a_node23"><a xlink:title=" ">
<polygon fill="white" stroke="#bfbfbf" points="640,-67.5 640,-86.5 696,-86.5 696,-67.5 640,-67.5"/>
<text text-anchor="middle" x="668" y="-74.5" font-family="Helvetica,sans-Serif" font-size="10.00">iomanip</text>
</a>
</g>
</g>
<!-- Node3&#45;&gt;Node23 -->
<g id="edge31" class="edge">
<title>Node3&#45;&gt;Node23</title>
<path fill="none" stroke="midnightblue" d="M425.4,-235.31C467.05,-208.3 594.49,-125.67 646.03,-92.25"/>
<polygon fill="midnightblue" stroke="midnightblue" points="648.24,-94.98 654.73,-86.61 644.43,-89.11 648.24,-94.98"/>
</g>
<!-- Node25 -->
<g id="node25" class="node">
<title>Node25</title>
<g id="a_node25"><a xlink:title=" ">
<polygon fill="white" stroke="#bfbfbf" points="294,-179.5 294,-198.5 346,-198.5 346,-179.5 294,-179.5"/>
<text text-anchor="middle" x="320" y="-186.5" font-family="Helvetica,sans-Serif" font-size="10.00">cassert</text>
</a>
</g>
</g>
<!-- Node3&#45;&gt;Node25 -->
<g id="edge30" class="edge">
<title>Node3&#45;&gt;Node25</title>
<path fill="none" stroke="midnightblue" d="M397.22,-235.32C382.73,-226.82 360.43,-213.73 343.51,-203.8"/>
<polygon fill="midnightblue" stroke="midnightblue" points="345.14,-200.7 334.74,-198.65 341.6,-206.74 345.14,-200.7"/>
</g>
<!-- Node3&#45;&gt;Node26 -->
<g id="edge34" class="edge">
<title>Node3&#45;&gt;Node26</title>
<path fill="none" stroke="midnightblue" d="M461.22,-239.55C543.89,-231.97 715.85,-215.74 861,-199 873.13,-197.6 886.43,-195.9 898.1,-194.36"/>
<polygon fill="midnightblue" stroke="midnightblue" points="898.82,-197.8 908.27,-193 897.89,-190.86 898.82,-197.8"/>
</g>
<!-- Node27 -->
<g id="node27" class="node">
<title>Node27</title>
<g id="a_node27"><a xlink:title=" ">
<polygon fill="white" stroke="#bfbfbf" points="630.5,-179.5 630.5,-198.5 695.5,-198.5 695.5,-179.5 630.5,-179.5"/>
<text text-anchor="middle" x="663" y="-186.5" font-family="Helvetica,sans-Serif" font-size="10.00">stdexcept</text>
</a>
</g>
</g>
<!-- Node3&#45;&gt;Node27 -->
<g id="edge35" class="edge">
<title>Node3&#45;&gt;Node27</title>
<path fill="none" stroke="midnightblue" d="M451.77,-235.44C497.75,-225.55 573.13,-209.34 620.31,-199.19"/>
<polygon fill="midnightblue" stroke="midnightblue" points="621.17,-202.58 630.21,-197.05 619.7,-195.74 621.17,-202.58"/>
</g>
<!-- Node5&#45;&gt;Node6 -->
<g id="edge5" class="edge">
<title>Node5&#45;&gt;Node6</title>
<path fill="none" stroke="midnightblue" d="M371.99,-123.32C359.47,-114.98 340.32,-102.21 325.53,-92.35"/>
<polygon fill="midnightblue" stroke="midnightblue" points="327.24,-89.29 316.98,-86.65 323.36,-95.11 327.24,-89.29"/>
</g>
<!-- Node5&#45;&gt;Node11 -->
<g id="edge14" class="edge">
<title>Node5&#45;&gt;Node11</title>
<path fill="none" stroke="midnightblue" d="M395.93,-123.34C414.26,-109.25 452.86,-81.52 490,-67 568.69,-36.23 668.31,-23.64 718.68,-18.97"/>
<polygon fill="midnightblue" stroke="midnightblue" points="719.29,-22.43 728.94,-18.06 718.68,-15.46 719.29,-22.43"/>
</g>
<!-- Node14 -->
<g id="node14" class="node">
<title>Node14</title>
<g id="a_node14"><a xlink:title=" ">
<polygon fill="white" stroke="#bfbfbf" points="358,-67.5 358,-86.5 400,-86.5 400,-67.5 358,-67.5"/>
<text text-anchor="middle" x="379" y="-74.5" font-family="Helvetica,sans-Serif" font-size="10.00">array</text>
</a>
</g>
</g>
<!-- Node5&#45;&gt;Node14 -->
<g id="edge13" class="edge">
<title>Node5&#45;&gt;Node14</title>
<path fill="none" stroke="midnightblue" d="M384.01,-123.08C383.21,-115.93 382.07,-105.64 381.08,-96.69"/>
<polygon fill="midnightblue" stroke="midnightblue" points="384.56,-96.3 379.97,-86.75 377.6,-97.08 384.56,-96.3"/>
</g>
<!-- Node6&#45;&gt;Node7 -->
<g id="edge6" class="edge">
<title>Node6&#45;&gt;Node7</title>
<path fill="none" stroke="midnightblue" d="M280.39,-69.05C251.44,-60.45 200.94,-45.2 158,-31 155.55,-30.19 153.03,-29.34 150.5,-28.47"/>
<polygon fill="midnightblue" stroke="midnightblue" points="151.39,-25.08 140.79,-25.1 149.09,-31.69 151.39,-25.08"/>
</g>
<!-- Node8 -->
<g id="node8" class="node">
<title>Node8</title>
<g id="a_node8"><a xlink:title=" ">
<polygon fill="white" stroke="#bfbfbf" points="241.5,-6 241.5,-25 290.5,-25 290.5,-6 241.5,-6"/>
<text text-anchor="middle" x="266" y="-13" font-family="Helvetica,sans-Serif" font-size="10.00">cctype</text>
</a>
</g>
</g>
<!-- Node6&#45;&gt;Node8 -->
<g id="edge7" class="edge">
<title>Node6&#45;&gt;Node8</title>
<path fill="none" stroke="midnightblue" d="M298.56,-67.48C292.91,-58.64 283.94,-44.59 276.84,-33.48"/>
<polygon fill="midnightblue" stroke="midnightblue" points="279.77,-31.55 271.43,-25.01 273.87,-35.32 279.77,-31.55"/>
</g>
<!-- Node9 -->
<g id="node9" class="node">
<title>Node9</title>
<g id="a_node9"><a xlink:title=" ">
<polygon fill="white" stroke="#bfbfbf" points="309,-6 309,-25 363,-25 363,-6 309,-6"/>
<text text-anchor="middle" x="336" y="-13" font-family="Helvetica,sans-Serif" font-size="10.00">random</text>
</a>
</g>
</g>
<!-- Node6&#45;&gt;Node9 -->
<g id="edge8" class="edge">
<title>Node6&#45;&gt;Node9</title>
<path fill="none" stroke="midnightblue" d="M308.58,-67.48C313.24,-58.82 320.59,-45.15 326.51,-34.15"/>
<polygon fill="midnightblue" stroke="midnightblue" points="329.77,-35.47 331.42,-25.01 323.6,-32.16 329.77,-35.47"/>
</g>
<!-- Node6&#45;&gt;Node10 -->
<g id="edge9" class="edge">
<title>Node6&#45;&gt;Node10</title>
<path fill="none" stroke="midnightblue" d="M288.38,-67.48C270.41,-57.67 240.68,-41.43 219.59,-29.92"/>
<polygon fill="midnightblue" stroke="midnightblue" points="221.04,-26.73 210.59,-25.01 217.69,-32.87 221.04,-26.73"/>
</g>
<!-- Node6&#45;&gt;Node11 -->
<g id="edge10" class="edge">
<title>Node6&#45;&gt;Node11</title>
<path fill="none" stroke="midnightblue" d="M327.76,-70.91C334.6,-69.54 342.08,-68.13 349,-67 485.75,-44.77 650.04,-26.85 718.54,-19.77"/>
<polygon fill="midnightblue" stroke="midnightblue" points="719.1,-23.23 728.69,-18.73 718.39,-16.27 719.1,-23.23"/>
</g>
<!-- Node6&#45;&gt;Node12 -->
<g id="edge11" class="edge">
<title>Node6&#45;&gt;Node12</title>
<path fill="none" stroke="midnightblue" d="M327.82,-71.22C334.66,-69.85 342.12,-68.36 349,-67 430.31,-50.87 453.06,-56.27 532,-31 533.87,-30.4 535.78,-29.72 537.69,-28.99"/>
<polygon fill="midnightblue" stroke="midnightblue" points="539.15,-32.17 547.02,-25.07 536.44,-25.72 539.15,-32.17"/>
</g>
<!-- Node13 -->
<g id="node13" class="node">
<title>Node13</title>
<g id="a_node13"><a xlink:title=" ">
<polygon fill="white" stroke="#bfbfbf" points="381.5,-0.5 381.5,-30.5 522.5,-30.5 522.5,-0.5 381.5,-0.5"/>
<text text-anchor="start" x="389.5" y="-18.5" font-family="Helvetica,sans-Serif" font-size="10.00">boost/dll/runtime_symbol</text>
<text text-anchor="middle" x="452" y="-7.5" font-family="Helvetica,sans-Serif" font-size="10.00">_info.hpp</text>
</a>
</g>
</g>
<!-- Node6&#45;&gt;Node13 -->
<g id="edge12" class="edge">
<title>Node6&#45;&gt;Node13</title>
<path fill="none" stroke="midnightblue" d="M325.2,-67.48C346.65,-58.85 380.45,-45.26 407.76,-34.29"/>
<polygon fill="midnightblue" stroke="midnightblue" points="409.15,-37.5 417.12,-30.52 406.54,-31.01 409.15,-37.5"/>
</g>
<!-- Node16 -->
<g id="node16" class="node">
<title>Node16</title>
<g id="a_node16"><a xlink:href="include_2log_8h.html" target="_top" xlink:title="Log Utilities.">
<polygon fill="white" stroke="black" points="878.5,-123.5 878.5,-142.5 919.5,-142.5 919.5,-123.5 878.5,-123.5"/>
<text text-anchor="middle" x="899" y="-130.5" font-family="Helvetica,sans-Serif" font-size="10.00">log.h</text>
</a>
</g>
</g>
<!-- Node15&#45;&gt;Node16 -->
<g id="edge16" class="edge">
<title>Node15&#45;&gt;Node16</title>
<path fill="none" stroke="midnightblue" d="M990.49,-179.32C972.93,-170.62 945.67,-157.12 925.47,-147.11"/>
<polygon fill="midnightblue" stroke="midnightblue" points="926.98,-143.96 916.47,-142.65 923.88,-150.23 926.98,-143.96"/>
</g>
<!-- Node16&#45;&gt;Node6 -->
<g id="edge23" class="edge">
<title>Node16&#45;&gt;Node6</title>
<path fill="none" stroke="midnightblue" d="M878.43,-131.18C805.75,-128.09 554.4,-115.84 349,-87 345.31,-86.48 341.47,-85.85 337.65,-85.17"/>
<polygon fill="midnightblue" stroke="midnightblue" points="338.21,-81.71 327.73,-83.28 336.9,-88.59 338.21,-81.71"/>
</g>
<!-- Node17 -->
<g id="node17" class="node">
<title>Node17</title>
<g id="a_node17"><a xlink:href="meta_8h.html" target="_top" xlink:title="mmCEsim meta data">
<polygon fill="white" stroke="black" points="752.5,-67.5 752.5,-86.5 803.5,-86.5 803.5,-67.5 752.5,-67.5"/>
<text text-anchor="middle" x="778" y="-74.5" font-family="Helvetica,sans-Serif" font-size="10.00">meta.h</text>
</a>
</g>
</g>
<!-- Node16&#45;&gt;Node17 -->
<g id="edge17" class="edge">
<title>Node16&#45;&gt;Node17</title>
<path fill="none" stroke="midnightblue" d="M879.83,-123.44C860.09,-114.64 829.11,-100.81 806.51,-90.72"/>
<polygon fill="midnightblue" stroke="midnightblue" points="807.64,-87.4 797.08,-86.52 804.79,-93.79 807.64,-87.4"/>
</g>
<!-- Node18 -->
<g id="node18" class="node">
<title>Node18</title>
<g id="a_node18"><a xlink:href="term_8h.html" target="_top" xlink:title="Terminal Color and Style Control.">
<polygon fill="white" stroke="black" points="1031.5,-67.5 1031.5,-86.5 1080.5,-86.5 1080.5,-67.5 1031.5,-67.5"/>
<text text-anchor="middle" x="1056" y="-74.5" font-family="Helvetica,sans-Serif" font-size="10.00">term.h</text>
</a>
</g>
</g>
<!-- Node16&#45;&gt;Node18 -->
<g id="edge19" class="edge">
<title>Node16&#45;&gt;Node18</title>
<path fill="none" stroke="midnightblue" d="M919.53,-124.94C945.48,-116.01 990.52,-100.52 1021.73,-89.79"/>
<polygon fill="midnightblue" stroke="midnightblue" points="1023.02,-93.05 1031.33,-86.48 1020.74,-86.43 1023.02,-93.05"/>
</g>
<!-- Node21 -->
<g id="node21" class="node">
<title>Node21</title>
<g id="a_node21"><a xlink:title=" ">
<polygon fill="white" stroke="#bfbfbf" points="893,-67.5 893,-86.5 937,-86.5 937,-67.5 893,-67.5"/>
<text text-anchor="middle" x="915" y="-74.5" font-family="Helvetica,sans-Serif" font-size="10.00">ctime</text>
</a>
</g>
</g>
<!-- Node16&#45;&gt;Node21 -->
<g id="edge24" class="edge">
<title>Node16&#45;&gt;Node21</title>
<path fill="none" stroke="midnightblue" d="M901.64,-123.08C903.79,-115.85 906.88,-105.41 909.55,-96.4"/>
<polygon fill="midnightblue" stroke="midnightblue" points="912.92,-97.33 912.41,-86.75 906.21,-95.34 912.92,-97.33"/>
</g>
<!-- Node16&#45;&gt;Node22 -->
<g id="edge25" class="edge">
<title>Node16&#45;&gt;Node22</title>
<path fill="none" stroke="midnightblue" d="M919.87,-127.76C964.61,-118.68 1070.27,-97.23 1127.16,-85.68"/>
<polygon fill="midnightblue" stroke="midnightblue" points="1128.09,-89.06 1137.19,-83.65 1126.7,-82.2 1128.09,-89.06"/>
</g>
<!-- Node16&#45;&gt;Node23 -->
<g id="edge26" class="edge">
<title>Node16&#45;&gt;Node23</title>
<path fill="none" stroke="midnightblue" d="M878.09,-127.11C839.21,-118.02 755.27,-98.4 706.07,-86.9"/>
<polygon fill="midnightblue" stroke="midnightblue" points="706.67,-83.44 696.13,-84.58 705.07,-90.26 706.67,-83.44"/>
</g>
<!-- Node24 -->
<g id="node24" class="node">
<title>Node24</title>
<g id="a_node24"><a xlink:title=" ">
<polygon fill="white" stroke="#bfbfbf" points="821.5,-67.5 821.5,-86.5 874.5,-86.5 874.5,-67.5 821.5,-67.5"/>
<text text-anchor="middle" x="848" y="-74.5" font-family="Helvetica,sans-Serif" font-size="10.00">spy.hpp</text>
</a>
</g>
</g>
<!-- Node16&#45;&gt;Node24 -->
<g id="edge27" class="edge">
<title>Node16&#45;&gt;Node24</title>
<path fill="none" stroke="midnightblue" d="M890.58,-123.08C883.15,-115.22 872.15,-103.57 863.19,-94.08"/>
<polygon fill="midnightblue" stroke="midnightblue" points="865.68,-91.62 856.26,-86.75 860.59,-96.42 865.68,-91.62"/>
</g>
<!-- Node17&#45;&gt;Node11 -->
<g id="edge18" class="edge">
<title>Node17&#45;&gt;Node11</title>
<path fill="none" stroke="midnightblue" d="M774.13,-67.48C770.2,-58.82 764,-45.15 759.01,-34.15"/>
<polygon fill="midnightblue" stroke="midnightblue" points="762.18,-32.67 754.86,-25.01 755.81,-35.56 762.18,-32.67"/>
</g>
<!-- Node18&#45;&gt;Node11 -->
<g id="edge22" class="edge">
<title>Node18&#45;&gt;Node11</title>
<path fill="none" stroke="midnightblue" d="M1031.27,-70.14C1026.54,-69.06 1021.62,-67.97 1017,-67 932.83,-49.3 833.08,-31.1 783.03,-22.16"/>
<polygon fill="midnightblue" stroke="midnightblue" points="783.59,-18.71 773.13,-20.4 782.36,-25.6 783.59,-18.71"/>
</g>
<!-- Node19 -->
<g id="node19" class="node">
<title>Node19</title>
<g id="a_node19"><a xlink:title=" ">
<polygon fill="white" stroke="#bfbfbf" points="1031.5,-6 1031.5,-25 1080.5,-25 1080.5,-6 1031.5,-6"/>
<text text-anchor="middle" x="1056" y="-13" font-family="Helvetica,sans-Serif" font-size="10.00">cstdlib</text>
</a>
</g>
</g>
<!-- Node18&#45;&gt;Node19 -->
<g id="edge20" class="edge">
<title>Node18&#45;&gt;Node19</title>
<path fill="none" stroke="midnightblue" d="M1056,-67.48C1056,-59.08 1056,-45.98 1056,-35.16"/>
<polygon fill="midnightblue" stroke="midnightblue" points="1059.5,-35.01 1056,-25.01 1052.5,-35.01 1059.5,-35.01"/>
</g>
<!-- Node18&#45;&gt;Node20 -->
<g id="edge21" class="edge">
<title>Node18&#45;&gt;Node20</title>
<path fill="none" stroke="midnightblue" d="M1073.05,-67.48C1092.84,-57.58 1125.72,-41.14 1148.77,-29.62"/>
<polygon fill="midnightblue" stroke="midnightblue" points="1150.6,-32.61 1157.98,-25.01 1147.47,-26.35 1150.6,-32.61"/>
</g>
<!-- Node28&#45;&gt;Node6 -->
<g id="edge52" class="edge">
<title>Node28&#45;&gt;Node6</title>
<path fill="none" stroke="midnightblue" d="M1008.83,-362.86C879.52,-349.16 475.47,-303.44 354,-255 313.01,-238.65 292.61,-238.03 272,-199 267.33,-190.16 261.42,-159.08 273,-123 276.32,-112.65 282.88,-102.55 289.11,-94.55"/>
<polygon fill="midnightblue" stroke="midnightblue" points="291.87,-96.71 295.57,-86.78 286.49,-92.23 291.87,-96.71"/>
</g>
<!-- Node28&#45;&gt;Node11 -->
<g id="edge54" class="edge">
<title>Node28&#45;&gt;Node11</title>
<path fill="none" stroke="midnightblue" d="M1081.02,-358.39C1099.32,-351.67 1120.79,-340.32 1132,-322 1165.18,-267.78 1166.53,-234.2 1135,-179 1095.08,-109.11 1048.09,-128.3 979,-87 964.28,-78.2 961.8,-73.66 946,-67 890.95,-43.78 822.54,-29.06 783.11,-21.84"/>
<polygon fill="midnightblue" stroke="midnightblue" points="783.48,-18.35 773.03,-20.04 782.26,-25.24 783.48,-18.35"/>
</g>
<!-- Node28&#45;&gt;Node15 -->
<g id="edge51" class="edge">
<title>Node28&#45;&gt;Node15</title>
<path fill="none" stroke="midnightblue" d="M1017.19,-358.38C999.05,-351.66 977.84,-340.31 967,-322 944.59,-284.13 975.32,-232.78 994.56,-206.7"/>
<polygon fill="midnightblue" stroke="midnightblue" points="997.47,-208.65 1000.78,-198.59 991.92,-204.39 997.47,-208.65"/>
</g>
<!-- Node29 -->
<g id="node29" class="node">
<title>Node29</title>
<g id="a_node29"><a xlink:href="type__track__global_8h.html" target="_top" xlink:title="Global Access of Type Track.">
<polygon fill="white" stroke="black" points="975.5,-297 975.5,-316 1122.5,-316 1122.5,-297 975.5,-297"/>
<text text-anchor="middle" x="1049" y="-304" font-family="Helvetica,sans-Serif" font-size="10.00">export/type_track_global.h</text>
</a>
</g>
</g>
<!-- Node28&#45;&gt;Node29 -->
<g id="edge40" class="edge">
<title>Node28&#45;&gt;Node29</title>
<path fill="none" stroke="midnightblue" d="M1049,-358.48C1049,-350.08 1049,-336.98 1049,-326.16"/>
<polygon fill="midnightblue" stroke="midnightblue" points="1052.5,-326.01 1049,-316.01 1045.5,-326.01 1052.5,-326.01"/>
</g>
<!-- Node32 -->
<g id="node32" class="node">
<title>Node32</title>
<g id="a_node32"><a xlink:title=" ">
<polygon fill="white" stroke="#bfbfbf" points="1296.5,-123.5 1296.5,-142.5 1337.5,-142.5 1337.5,-123.5 1296.5,-123.5"/>
<text text-anchor="middle" x="1317" y="-130.5" font-family="Helvetica,sans-Serif" font-size="10.00">tuple</text>
</a>
</g>
</g>
<!-- Node28&#45;&gt;Node32 -->
<g id="edge55" class="edge">
<title>Node28&#45;&gt;Node32</title>
<path fill="none" stroke="midnightblue" d="M1089.17,-365.75C1155.41,-362.82 1283.3,-353.17 1314,-322 1359,-276.33 1343.9,-242.18 1333,-179 1331.43,-169.91 1328.21,-160.22 1325.06,-152.17"/>
<polygon fill="midnightblue" stroke="midnightblue" points="1328.19,-150.6 1321.11,-142.72 1321.74,-153.3 1328.19,-150.6"/>
</g>
<!-- Node34 -->
<g id="node34" class="node">
<title>Node34</title>
<g id="a_node34"><a xlink:title=" ">
<polygon fill="white" stroke="#bfbfbf" points="1179.5,-291.5 1179.5,-321.5 1304.5,-321.5 1304.5,-291.5 1179.5,-291.5"/>
<text text-anchor="start" x="1187.5" y="-309.5" font-family="Helvetica,sans-Serif" font-size="10.00">boost/algorithm/string</text>
<text text-anchor="middle" x="1242" y="-298.5" font-family="Helvetica,sans-Serif" font-size="10.00">/replace.hpp</text>
</a>
</g>
</g>
<!-- Node28&#45;&gt;Node34 -->
<g id="edge53" class="edge">
<title>Node28&#45;&gt;Node34</title>
<path fill="none" stroke="midnightblue" d="M1076.65,-358.48C1105.23,-349.66 1150.63,-335.67 1186.63,-324.57"/>
<polygon fill="midnightblue" stroke="midnightblue" points="1187.99,-327.81 1196.51,-321.52 1185.93,-321.12 1187.99,-327.81"/>
</g>
<!-- Node30 -->
<g id="node30" class="node">
<title>Node30</title>
<g id="a_node30"><a xlink:href="type__track_8h.html" target="_top" xlink:title="Track data type of variables.">
<polygon fill="white" stroke="black" points="1012,-235.5 1012,-254.5 1124,-254.5 1124,-235.5 1012,-235.5"/>
<text text-anchor="middle" x="1068" y="-242.5" font-family="Helvetica,sans-Serif" font-size="10.00">export/type_track.h</text>
</a>
</g>
</g>
<!-- Node29&#45;&gt;Node30 -->
<g id="edge41" class="edge">
<title>Node29&#45;&gt;Node30</title>
<path fill="none" stroke="midnightblue" d="M1051.72,-296.98C1054.43,-288.49 1058.67,-275.2 1062.15,-264.32"/>
<polygon fill="midnightblue" stroke="midnightblue" points="1065.57,-265.1 1065.28,-254.51 1058.91,-262.97 1065.57,-265.1"/>
</g>
<!-- Node30&#45;&gt;Node12 -->
<g id="edge50" class="edge">
<title>Node30&#45;&gt;Node12</title>
<path fill="none" stroke="midnightblue" d="M1083.28,-235.38C1103.82,-222.72 1135.9,-198.52 1119,-179 1082.4,-136.73 924.94,-153.39 870,-143 762.8,-122.73 725.65,-141.26 631,-87 607.98,-73.8 587.97,-50.24 575.96,-34.01"/>
<polygon fill="midnightblue" stroke="midnightblue" points="578.5,-31.55 569.84,-25.44 572.8,-35.61 578.5,-31.55"/>
</g>
<!-- Node30&#45;&gt;Node15 -->
<g id="edge45" class="edge">
<title>Node30&#45;&gt;Node15</title>
<path fill="none" stroke="midnightblue" d="M1058.36,-235.32C1049.49,-227.34 1036.13,-215.31 1025.39,-205.65"/>
<polygon fill="midnightblue" stroke="midnightblue" points="1027.59,-202.92 1017.82,-198.83 1022.91,-208.13 1027.59,-202.92"/>
</g>
<!-- Node30&#45;&gt;Node20 -->
<g id="edge46" class="edge">
<title>Node30&#45;&gt;Node20</title>
<path fill="none" stroke="midnightblue" d="M1093.62,-235.41C1111.9,-228.16 1136,-216.2 1152,-199 1189.14,-159.09 1190.64,-140.32 1202,-87 1203.85,-78.31 1204.16,-75.62 1202,-67 1199.06,-55.26 1192.81,-43.27 1187.07,-33.92"/>
<polygon fill="midnightblue" stroke="midnightblue" points="1189.81,-31.72 1181.42,-25.25 1183.94,-35.54 1189.81,-31.72"/>
</g>
<!-- Node30&#45;&gt;Node26 -->
<g id="edge47" class="edge">
<title>Node30&#45;&gt;Node26</title>
<path fill="none" stroke="midnightblue" d="M1046.13,-235.44C1023.22,-226.48 987.02,-212.31 961.13,-202.18"/>
<polygon fill="midnightblue" stroke="midnightblue" points="962.35,-198.9 951.76,-198.52 959.8,-205.42 962.35,-198.9"/>
</g>
<!-- Node30&#45;&gt;Node27 -->
<g id="edge48" class="edge">
<title>Node30&#45;&gt;Node27</title>
<path fill="none" stroke="midnightblue" d="M1011.69,-236.49C929.75,-225.57 779.46,-205.53 705.87,-195.72"/>
<polygon fill="midnightblue" stroke="midnightblue" points="705.97,-192.2 695.59,-194.35 705.04,-199.14 705.97,-192.2"/>
</g>
<!-- Node30&#45;&gt;Node31 -->
<g id="edge42" class="edge">
<title>Node30&#45;&gt;Node31</title>
<path fill="none" stroke="midnightblue" d="M1102.07,-235.44C1139.18,-226.12 1198.66,-211.18 1239.21,-201"/>
<polygon fill="midnightblue" stroke="midnightblue" points="1240.25,-204.35 1249.09,-198.52 1238.54,-197.56 1240.25,-204.35"/>
</g>
<!-- Node33 -->
<g id="node33" class="node">
<title>Node33</title>
<g id="a_node33"><a xlink:title=" ">
<polygon fill="white" stroke="#bfbfbf" points="1064.5,-179.5 1064.5,-198.5 1109.5,-198.5 1109.5,-179.5 1064.5,-179.5"/>
<text text-anchor="middle" x="1087" y="-186.5" font-family="Helvetica,sans-Serif" font-size="10.00">utility</text>
</a>
</g>
</g>
<!-- Node30&#45;&gt;Node33 -->
<g id="edge49" class="edge">
<title>Node30&#45;&gt;Node33</title>
<path fill="none" stroke="midnightblue" d="M1071.14,-235.08C1073.68,-227.85 1077.36,-217.41 1080.53,-208.4"/>
<polygon fill="midnightblue" stroke="midnightblue" points="1083.9,-209.35 1083.92,-198.75 1077.3,-207.02 1083.9,-209.35"/>
</g>
<!-- Node31&#45;&gt;Node11 -->
<g id="edge43" class="edge">
<title>Node31&#45;&gt;Node11</title>
<path fill="none" stroke="midnightblue" d="M1259.52,-179.38C1213.71,-162.46 1109.36,-123.37 1023,-87 1003.2,-78.66 999.37,-73.8 979,-67 910.82,-44.23 827.73,-28.78 783.07,-21.43"/>
<polygon fill="midnightblue" stroke="midnightblue" points="783.53,-17.96 773.1,-19.82 782.42,-24.87 783.53,-17.96"/>
</g>
<!-- Node31&#45;&gt;Node32 -->
<g id="edge44" class="edge">
<title>Node31&#45;&gt;Node32</title>
<path fill="none" stroke="midnightblue" d="M1288.61,-179.08C1293.37,-171.53 1300.32,-160.49 1306.15,-151.23"/>
<polygon fill="midnightblue" stroke="midnightblue" points="1309.12,-153.08 1311.49,-142.75 1303.2,-149.35 1309.12,-153.08"/>
</g>
<!-- Node35&#45;&gt;Node6 -->
<g id="edge59" class="edge">
<title>Node35&#45;&gt;Node6</title>
<path fill="none" stroke="midnightblue" d="M725.25,-239.55C623.32,-228.72 381.94,-197.81 324,-143 311.41,-131.09 306.68,-111.47 304.94,-96.9"/>
<polygon fill="midnightblue" stroke="midnightblue" points="308.4,-96.22 304.09,-86.54 301.42,-96.79 308.4,-96.22"/>
</g>
<!-- Node35&#45;&gt;Node11 -->
<g id="edge62" class="edge">
<title>Node35&#45;&gt;Node11</title>
<path fill="none" stroke="midnightblue" d="M763.59,-235.41C756.72,-226.84 746.99,-212.98 743,-199 726.41,-140.92 738.93,-68.24 746.43,-34.84"/>
<polygon fill="midnightblue" stroke="midnightblue" points="749.84,-35.63 748.74,-25.09 743.03,-34.02 749.84,-35.63"/>
</g>
<!-- Node35&#45;&gt;Node12 -->
<g id="edge64" class="edge">
<title>Node35&#45;&gt;Node12</title>
<path fill="none" stroke="midnightblue" d="M725.28,-241.25C692.48,-236.91 649.42,-226.03 622,-199 576.07,-153.72 566.44,-72.26 564.48,-35.46"/>
<polygon fill="midnightblue" stroke="midnightblue" points="567.96,-35.04 564.07,-25.18 560.97,-35.31 567.96,-35.04"/>
</g>
<!-- Node35&#45;&gt;Node15 -->
<g id="edge57" class="edge">
<title>Node35&#45;&gt;Node15</title>
<path fill="none" stroke="midnightblue" d="M808.55,-235.44C849.81,-226.04 916.14,-210.93 960.87,-200.74"/>
<polygon fill="midnightblue" stroke="midnightblue" points="961.65,-204.15 970.62,-198.52 960.09,-197.33 961.65,-204.15"/>
</g>
<!-- Node35&#45;&gt;Node17 -->
<g id="edge58" class="edge">
<title>Node35&#45;&gt;Node17</title>
<path fill="none" stroke="midnightblue" d="M808.1,-235.46C827.44,-228.92 849.43,-217.72 861,-199 885.48,-159.39 832.67,-114.64 800.48,-92.3"/>
<polygon fill="midnightblue" stroke="midnightblue" points="802.27,-89.29 792.02,-86.62 798.37,-95.1 802.27,-89.29"/>
</g>
<!-- Node35&#45;&gt;Node33 -->
<g id="edge63" class="edge">
<title>Node35&#45;&gt;Node33</title>
<path fill="none" stroke="midnightblue" d="M816.56,-238.45C870.93,-231.46 964.73,-218.24 1054.56,-198.86"/>
<polygon fill="midnightblue" stroke="midnightblue" points="1055.33,-202.28 1064.36,-196.72 1053.84,-195.44 1055.33,-202.28"/>
</g>
<!-- Node36 -->
<g id="node36" class="node">
<title>Node36</title>
<g id="a_node36"><a xlink:title=" ">
<polygon fill="white" stroke="#bfbfbf" points="752,-179.5 752,-198.5 790,-198.5 790,-179.5 752,-179.5"/>
<text text-anchor="middle" x="771" y="-186.5" font-family="Helvetica,sans-Serif" font-size="10.00">map</text>
</a>
</g>
</g>
<!-- Node35&#45;&gt;Node36 -->
<g id="edge60" class="edge">
<title>Node35&#45;&gt;Node36</title>
<path fill="none" stroke="midnightblue" d="M771,-235.08C771,-228.01 771,-217.86 771,-208.99"/>
<polygon fill="midnightblue" stroke="midnightblue" points="774.5,-208.75 771,-198.75 767.5,-208.75 774.5,-208.75"/>
</g>
<!-- Node37 -->
<g id="node37" class="node">
<title>Node37</title>
<g id="a_node37"><a xlink:title=" ">
<polygon fill="white" stroke="#bfbfbf" points="808,-179.5 808,-198.5 852,-198.5 852,-179.5 808,-179.5"/>
<text text-anchor="middle" x="830" y="-186.5" font-family="Helvetica,sans-Serif" font-size="10.00">regex</text>
</a>
</g>
</g>
<!-- Node35&#45;&gt;Node37 -->
<g id="edge61" class="edge">
<title>Node35&#45;&gt;Node37</title>
<path fill="none" stroke="midnightblue" d="M780.48,-235.32C789.2,-227.34 802.34,-215.31 812.9,-205.65"/>
<polygon fill="midnightblue" stroke="midnightblue" points="815.33,-208.17 820.35,-198.83 810.61,-203 815.33,-208.17"/>
</g>
</g>
</svg>
