<?xml version="1.0" encoding="UTF-8" standalone="no"?>
<!DOCTYPE svg PUBLIC "-//W3C//DTD SVG 1.1//EN"
 "http://www.w3.org/Graphics/SVG/1.1/DTD/svg11.dtd">
<!-- Generated by graphviz version 2.43.0 (0)
 -->
<!-- Title: src/export/alg_line.cpp Pages: 1 -->
<svg width="1548pt" height="319pt"
 viewBox="0.00 0.00 1547.50 319.00" xmlns="http://www.w3.org/2000/svg" xmlns:xlink="http://www.w3.org/1999/xlink">
<g id="graph0" class="graph" transform="scale(1 1) rotate(0) translate(4 315)">
<title>src/export/alg_line.cpp</title>
<polygon fill="white" stroke="transparent" points="-4,4 -4,-315 1543.5,-315 1543.5,4 -4,4"/>
<!-- Node1 -->
<g id="node1" class="node">
<title>Node1</title>
<g id="a_node1"><a xlink:title="Implementation of Alg_Line Class.">
<polygon fill="#bfbfbf" stroke="black" points="992.5,-291.5 992.5,-310.5 1119.5,-310.5 1119.5,-291.5 992.5,-291.5"/>
<text text-anchor="middle" x="1056" y="-298.5" font-family="Helvetica,sans-Serif" font-size="10.00">src/export/alg_line.cpp</text>
</a>
</g>
</g>
<!-- Node2 -->
<g id="node2" class="node">
<title>Node2</title>
<g id="a_node2"><a xlink:href="alg__line_8h.html" target="_top" xlink:title="Parse Line of Alg.">
<polygon fill="white" stroke="black" points="1007,-235.5 1007,-254.5 1105,-254.5 1105,-235.5 1007,-235.5"/>
<text text-anchor="middle" x="1056" y="-242.5" font-family="Helvetica,sans-Serif" font-size="10.00">export/alg_line.h</text>
</a>
</g>
</g>
<!-- Node1&#45;&gt;Node2 -->
<g id="edge1" class="edge">
<title>Node1&#45;&gt;Node2</title>
<path fill="none" stroke="midnightblue" d="M1056,-291.08C1056,-284.01 1056,-273.86 1056,-264.99"/>
<polygon fill="midnightblue" stroke="midnightblue" points="1059.5,-264.75 1056,-254.75 1052.5,-264.75 1059.5,-264.75"/>
</g>
<!-- Node3 -->
<g id="node3" class="node">
<title>Node3</title>
<g id="a_node3"><a xlink:href="alg__opt_8h.html" target="_top" xlink:title="ALG_Opt Enum.">
<polygon fill="white" stroke="black" points="309,-179.5 309,-198.5 405,-198.5 405,-179.5 309,-179.5"/>
<text text-anchor="middle" x="357" y="-186.5" font-family="Helvetica,sans-Serif" font-size="10.00">export/alg_opt.h</text>
</a>
</g>
</g>
<!-- Node2&#45;&gt;Node3 -->
<g id="edge2" class="edge">
<title>Node2&#45;&gt;Node3</title>
<path fill="none" stroke="midnightblue" d="M1006.74,-241.76C899.61,-236.61 637.53,-222.55 419,-199 417.72,-198.86 416.43,-198.72 415.13,-198.57"/>
<polygon fill="midnightblue" stroke="midnightblue" points="415.37,-195.07 405.02,-197.33 414.52,-202.02 415.37,-195.07"/>
</g>
<!-- Node4 -->
<g id="node4" class="node">
<title>Node4</title>
<g id="a_node4"><a xlink:href="functions_8h.html" target="_top" xlink:title="Function Lists.">
<polygon fill="white" stroke="black" points="539.5,-123.5 539.5,-142.5 644.5,-142.5 644.5,-123.5 539.5,-123.5"/>
<text text-anchor="middle" x="592" y="-130.5" font-family="Helvetica,sans-Serif" font-size="10.00">export/functions.h</text>
</a>
</g>
</g>
<!-- Node2&#45;&gt;Node4 -->
<g id="edge3" class="edge">
<title>Node2&#45;&gt;Node4</title>
<path fill="none" stroke="midnightblue" d="M1006.7,-242.36C914.43,-238.66 719.52,-227.61 659,-199 635.97,-188.12 615.97,-166.1 603.95,-150.72"/>
<polygon fill="midnightblue" stroke="midnightblue" points="606.64,-148.47 597.84,-142.57 601.04,-152.67 606.64,-148.47"/>
</g>
<!-- Node5 -->
<g id="node5" class="node">
<title>Node5</title>
<g id="a_node5"><a xlink:href="utils_8h.html" target="_top" xlink:title="Utilities.">
<polygon fill="white" stroke="black" points="499.5,-67.5 499.5,-86.5 546.5,-86.5 546.5,-67.5 499.5,-67.5"/>
<text text-anchor="middle" x="523" y="-74.5" font-family="Helvetica,sans-Serif" font-size="10.00">utils.h</text>
</a>
</g>
</g>
<!-- Node2&#45;&gt;Node5 -->
<g id="edge32" class="edge">
<title>Node2&#45;&gt;Node5</title>
<path fill="none" stroke="midnightblue" d="M1006.73,-241.44C909.53,-235.97 696.48,-221.74 627,-199 580.05,-183.64 558.18,-184.25 531,-143 522.11,-129.5 520.62,-110.94 521.06,-97.11"/>
<polygon fill="midnightblue" stroke="midnightblue" points="524.58,-97.04 521.76,-86.82 517.59,-96.56 524.58,-97.04"/>
</g>
<!-- Node6 -->
<g id="node6" class="node">
<title>Node6</title>
<g id="a_node6"><a xlink:title=" ">
<polygon fill="white" stroke="#bfbfbf" points="0,-6 0,-25 64,-25 64,-6 0,-6"/>
<text text-anchor="middle" x="32" y="-13" font-family="Helvetica,sans-Serif" font-size="10.00">algorithm</text>
</a>
</g>
</g>
<!-- Node2&#45;&gt;Node6 -->
<g id="edge33" class="edge">
<title>Node2&#45;&gt;Node6</title>
<path fill="none" stroke="midnightblue" d="M1006.95,-244.08C913.42,-243.29 703.61,-236.98 532,-199 345.06,-157.62 133.19,-63.67 59.2,-29.36"/>
<polygon fill="midnightblue" stroke="midnightblue" points="60.63,-26.16 50.09,-25.11 57.67,-32.5 60.63,-26.16"/>
</g>
<!-- Node9 -->
<g id="node9" class="node">
<title>Node9</title>
<g id="a_node9"><a xlink:title=" ">
<polygon fill="white" stroke="#bfbfbf" points="82,-6 82,-25 138,-25 138,-6 82,-6"/>
<text text-anchor="middle" x="110" y="-13" font-family="Helvetica,sans-Serif" font-size="10.00">sstream</text>
</a>
</g>
</g>
<!-- Node2&#45;&gt;Node9 -->
<g id="edge38" class="edge">
<title>Node2&#45;&gt;Node9</title>
<path fill="none" stroke="midnightblue" d="M1006.77,-244.01C898.13,-243.31 641.46,-237.49 565,-199 494.71,-163.62 516.78,-103.36 447,-67 327.91,-4.94 277.23,-63.76 147,-31 144.33,-30.33 141.6,-29.51 138.88,-28.62"/>
<polygon fill="midnightblue" stroke="midnightblue" points="139.88,-25.26 129.28,-25.12 137.48,-31.83 139.88,-25.26"/>
</g>
<!-- Node10 -->
<g id="node10" class="node">
<title>Node10</title>
<g id="a_node10"><a xlink:title=" ">
<polygon fill="white" stroke="#bfbfbf" points="794,-6 794,-25 838,-25 838,-6 794,-6"/>
<text text-anchor="middle" x="816" y="-13" font-family="Helvetica,sans-Serif" font-size="10.00">string</text>
</a>
</g>
</g>
<!-- Node2&#45;&gt;Node10 -->
<g id="edge41" class="edge">
<title>Node2&#45;&gt;Node10</title>
<path fill="none" stroke="midnightblue" d="M1006.96,-239.51C925.14,-229.07 762.91,-195.11 693,-87 656.77,-30.97 736.96,-51.61 785,-31 786.2,-30.49 787.42,-29.95 788.65,-29.41"/>
<polygon fill="midnightblue" stroke="midnightblue" points="790.4,-32.46 798.06,-25.13 787.51,-26.08 790.4,-32.46"/>
</g>
<!-- Node11 -->
<g id="node11" class="node">
<title>Node11</title>
<g id="a_node11"><a xlink:title=" ">
<polygon fill="white" stroke="#bfbfbf" points="862.5,-6 862.5,-25 909.5,-25 909.5,-6 862.5,-6"/>
<text text-anchor="middle" x="886" y="-13" font-family="Helvetica,sans-Serif" font-size="10.00">vector</text>
</a>
</g>
</g>
<!-- Node2&#45;&gt;Node11 -->
<g id="edge42" class="edge">
<title>Node2&#45;&gt;Node11</title>
<path fill="none" stroke="midnightblue" d="M1072.17,-235.46C1119.44,-209.47 1250.64,-129.29 1196,-67 1155.5,-20.83 981.4,-46.6 922,-31 919.49,-30.34 916.92,-29.55 914.37,-28.69"/>
<polygon fill="midnightblue" stroke="midnightblue" points="915.35,-25.32 904.75,-25.09 912.89,-31.87 915.35,-25.32"/>
</g>
<!-- Node18 -->
<g id="node18" class="node">
<title>Node18</title>
<g id="a_node18"><a xlink:href="log__global_8h.html" target="_top" xlink:title="Global Access of Log.">
<polygon fill="white" stroke="black" points="951,-179.5 951,-198.5 1027,-198.5 1027,-179.5 951,-179.5"/>
<text text-anchor="middle" x="989" y="-186.5" font-family="Helvetica,sans-Serif" font-size="10.00">log_global.h</text>
</a>
</g>
</g>
<!-- Node2&#45;&gt;Node18 -->
<g id="edge18" class="edge">
<title>Node2&#45;&gt;Node18</title>
<path fill="none" stroke="midnightblue" d="M1045.24,-235.32C1035.23,-227.26 1020.11,-215.08 1008.07,-205.37"/>
<polygon fill="midnightblue" stroke="midnightblue" points="1009.94,-202.38 999.96,-198.83 1005.55,-207.83 1009.94,-202.38"/>
</g>
<!-- Node23 -->
<g id="node23" class="node">
<title>Node23</title>
<g id="a_node23"><a xlink:title=" ">
<polygon fill="white" stroke="#bfbfbf" points="1111,-6 1111,-25 1171,-25 1171,-6 1111,-6"/>
<text text-anchor="middle" x="1141" y="-13" font-family="Helvetica,sans-Serif" font-size="10.00">iostream</text>
</a>
</g>
</g>
<!-- Node2&#45;&gt;Node23 -->
<g id="edge36" class="edge">
<title>Node2&#45;&gt;Node23</title>
<path fill="none" stroke="midnightblue" d="M1105.19,-237.92C1150.83,-231.15 1213.91,-218.52 1229,-199 1264.88,-152.59 1258.4,-117.77 1229,-67 1218.48,-48.83 1198.67,-36.63 1180.51,-28.78"/>
<polygon fill="midnightblue" stroke="midnightblue" points="1181.8,-25.53 1171.22,-25.06 1179.2,-32.03 1181.8,-25.53"/>
</g>
<!-- Node27 -->
<g id="node27" class="node">
<title>Node27</title>
<g id="a_node27"><a xlink:title=" ">
<polygon fill="white" stroke="#bfbfbf" points="1131,-67.5 1131,-86.5 1187,-86.5 1187,-67.5 1131,-67.5"/>
<text text-anchor="middle" x="1159" y="-74.5" font-family="Helvetica,sans-Serif" font-size="10.00">iomanip</text>
</a>
</g>
</g>
<!-- Node2&#45;&gt;Node27 -->
<g id="edge35" class="edge">
<title>Node2&#45;&gt;Node27</title>
<path fill="none" stroke="midnightblue" d="M1061.54,-235.08C1077.96,-208.61 1126.61,-130.21 1148.32,-95.21"/>
<polygon fill="midnightblue" stroke="midnightblue" points="1151.39,-96.91 1153.68,-86.57 1145.44,-93.22 1151.39,-96.91"/>
</g>
<!-- Node29 -->
<g id="node29" class="node">
<title>Node29</title>
<g id="a_node29"><a xlink:title=" ">
<polygon fill="white" stroke="#bfbfbf" points="1281,-179.5 1281,-198.5 1333,-198.5 1333,-179.5 1281,-179.5"/>
<text text-anchor="middle" x="1307" y="-186.5" font-family="Helvetica,sans-Serif" font-size="10.00">cassert</text>
</a>
</g>
</g>
<!-- Node2&#45;&gt;Node29 -->
<g id="edge34" class="edge">
<title>Node2&#45;&gt;Node29</title>
<path fill="none" stroke="midnightblue" d="M1096.87,-235.42C1139.4,-226.47 1207.91,-211.95 1267,-199 1268.25,-198.73 1269.52,-198.45 1270.81,-198.16"/>
<polygon fill="midnightblue" stroke="midnightblue" points="1271.76,-201.54 1280.76,-195.95 1270.24,-194.7 1271.76,-201.54"/>
</g>
<!-- Node30 -->
<g id="node30" class="node">
<title>Node30</title>
<g id="a_node30"><a xlink:title=" ">
<polygon fill="white" stroke="#bfbfbf" points="1351,-179.5 1351,-198.5 1395,-198.5 1395,-179.5 1351,-179.5"/>
<text text-anchor="middle" x="1373" y="-186.5" font-family="Helvetica,sans-Serif" font-size="10.00">regex</text>
</a>
</g>
</g>
<!-- Node2&#45;&gt;Node30 -->
<g id="edge37" class="edge">
<title>Node2&#45;&gt;Node30</title>
<path fill="none" stroke="midnightblue" d="M1105.19,-238.18C1160.39,-231.23 1252.73,-218.32 1340.85,-199.03"/>
<polygon fill="midnightblue" stroke="midnightblue" points="1341.73,-202.41 1350.74,-196.83 1340.22,-195.58 1341.73,-202.41"/>
</g>
<!-- Node31 -->
<g id="node31" class="node">
<title>Node31</title>
<g id="a_node31"><a xlink:title=" ">
<polygon fill="white" stroke="#bfbfbf" points="1413.5,-179.5 1413.5,-198.5 1456.5,-198.5 1456.5,-179.5 1413.5,-179.5"/>
<text text-anchor="middle" x="1435" y="-186.5" font-family="Helvetica,sans-Serif" font-size="10.00">stack</text>
</a>
</g>
</g>
<!-- Node2&#45;&gt;Node31 -->
<g id="edge39" class="edge">
<title>Node2&#45;&gt;Node31</title>
<path fill="none" stroke="midnightblue" d="M1105.1,-240.05C1170.86,-234.24 1291.27,-221.74 1403.31,-198.83"/>
<polygon fill="midnightblue" stroke="midnightblue" points="1404.35,-202.19 1413.43,-196.72 1402.92,-195.33 1404.35,-202.19"/>
</g>
<!-- Node32 -->
<g id="node32" class="node">
<title>Node32</title>
<g id="a_node32"><a xlink:title=" ">
<polygon fill="white" stroke="#bfbfbf" points="1474.5,-179.5 1474.5,-198.5 1539.5,-198.5 1539.5,-179.5 1474.5,-179.5"/>
<text text-anchor="middle" x="1507" y="-186.5" font-family="Helvetica,sans-Serif" font-size="10.00">stdexcept</text>
</a>
</g>
</g>
<!-- Node2&#45;&gt;Node32 -->
<g id="edge40" class="edge">
<title>Node2&#45;&gt;Node32</title>
<path fill="none" stroke="midnightblue" d="M1105.14,-240.31C1180.44,-234.29 1329.03,-220.93 1464.26,-199.14"/>
<polygon fill="midnightblue" stroke="midnightblue" points="1465.08,-202.55 1474.39,-197.49 1463.95,-195.64 1465.08,-202.55"/>
</g>
<!-- Node4&#45;&gt;Node5 -->
<g id="edge4" class="edge">
<title>Node4&#45;&gt;Node5</title>
<path fill="none" stroke="midnightblue" d="M580.91,-123.32C570.51,-115.18 554.74,-102.84 542.28,-93.09"/>
<polygon fill="midnightblue" stroke="midnightblue" points="544.32,-90.24 534.29,-86.83 540.01,-95.75 544.32,-90.24"/>
</g>
<!-- Node4&#45;&gt;Node10 -->
<g id="edge17" class="edge">
<title>Node4&#45;&gt;Node10</title>
<path fill="none" stroke="midnightblue" d="M598.44,-123.46C609.36,-109.57 632.9,-82.09 659,-67 709.42,-37.85 730.45,-51.4 785,-31 786.43,-30.47 787.88,-29.89 789.33,-29.3"/>
<polygon fill="midnightblue" stroke="midnightblue" points="791.08,-32.35 798.83,-25.12 788.27,-25.94 791.08,-32.35"/>
</g>
<!-- Node17 -->
<g id="node17" class="node">
<title>Node17</title>
<g id="a_node17"><a xlink:title=" ">
<polygon fill="white" stroke="#bfbfbf" points="565,-67.5 565,-86.5 607,-86.5 607,-67.5 565,-67.5"/>
<text text-anchor="middle" x="586" y="-74.5" font-family="Helvetica,sans-Serif" font-size="10.00">array</text>
</a>
</g>
</g>
<!-- Node4&#45;&gt;Node17 -->
<g id="edge16" class="edge">
<title>Node4&#45;&gt;Node17</title>
<path fill="none" stroke="midnightblue" d="M591.01,-123.08C590.21,-115.93 589.07,-105.64 588.08,-96.69"/>
<polygon fill="midnightblue" stroke="midnightblue" points="591.56,-96.3 586.97,-86.75 584.6,-97.08 591.56,-96.3"/>
</g>
<!-- Node5&#45;&gt;Node6 -->
<g id="edge5" class="edge">
<title>Node5&#45;&gt;Node6</title>
<path fill="none" stroke="midnightblue" d="M499.39,-73.07C484.4,-71.24 464.57,-68.89 447,-67 280.96,-49.18 236.04,-67.11 73,-31 69.58,-30.24 66.05,-29.28 62.57,-28.22"/>
<polygon fill="midnightblue" stroke="midnightblue" points="63.59,-24.87 52.99,-25.03 61.37,-31.51 63.59,-24.87"/>
</g>
<!-- Node7 -->
<g id="node7" class="node">
<title>Node7</title>
<g id="a_node7"><a xlink:title=" ">
<polygon fill="white" stroke="#bfbfbf" points="654.5,-6 654.5,-25 703.5,-25 703.5,-6 654.5,-6"/>
<text text-anchor="middle" x="679" y="-13" font-family="Helvetica,sans-Serif" font-size="10.00">cctype</text>
</a>
</g>
</g>
<!-- Node5&#45;&gt;Node7 -->
<g id="edge6" class="edge">
<title>Node5&#45;&gt;Node7</title>
<path fill="none" stroke="midnightblue" d="M546.52,-67.72C571.19,-58.94 611.01,-44.51 645,-31 646.6,-30.36 648.24,-29.7 649.89,-29.03"/>
<polygon fill="midnightblue" stroke="midnightblue" points="651.41,-32.18 659.29,-25.1 648.72,-25.72 651.41,-32.18"/>
</g>
<!-- Node8 -->
<g id="node8" class="node">
<title>Node8</title>
<g id="a_node8"><a xlink:title=" ">
<polygon fill="white" stroke="#bfbfbf" points="722,-6 722,-25 776,-25 776,-6 722,-6"/>
<text text-anchor="middle" x="749" y="-13" font-family="Helvetica,sans-Serif" font-size="10.00">random</text>
</a>
</g>
</g>
<!-- Node5&#45;&gt;Node8 -->
<g id="edge7" class="edge">
<title>Node5&#45;&gt;Node8</title>
<path fill="none" stroke="midnightblue" d="M546.76,-69.39C549.86,-68.57 553,-67.75 556,-67 625.44,-49.58 644.7,-52.44 713,-31 715.28,-30.28 717.62,-29.49 719.95,-28.65"/>
<polygon fill="midnightblue" stroke="midnightblue" points="721.3,-31.88 729.4,-25.05 718.81,-25.34 721.3,-31.88"/>
</g>
<!-- Node5&#45;&gt;Node9 -->
<g id="edge8" class="edge">
<title>Node5&#45;&gt;Node9</title>
<path fill="none" stroke="midnightblue" d="M499.38,-69.92C494.64,-68.84 489.68,-67.8 485,-67 336.09,-41.54 293.75,-66.88 147,-31 144.17,-30.31 141.27,-29.45 138.4,-28.5"/>
<polygon fill="midnightblue" stroke="midnightblue" points="139.48,-25.17 128.89,-25.02 137.08,-31.74 139.48,-25.17"/>
</g>
<!-- Node5&#45;&gt;Node10 -->
<g id="edge9" class="edge">
<title>Node5&#45;&gt;Node10</title>
<path fill="none" stroke="midnightblue" d="M546.72,-69.2C549.83,-68.4 552.98,-67.65 556,-67 656.74,-45.41 686.47,-61.12 785,-31 786.88,-30.43 788.78,-29.76 790.68,-29.03"/>
<polygon fill="midnightblue" stroke="midnightblue" points="792.12,-32.22 799.93,-25.06 789.36,-25.79 792.12,-32.22"/>
</g>
<!-- Node5&#45;&gt;Node11 -->
<g id="edge10" class="edge">
<title>Node5&#45;&gt;Node11</title>
<path fill="none" stroke="midnightblue" d="M546.7,-69.1C549.81,-68.32 552.97,-67.6 556,-67 683.86,-41.79 720.4,-61.92 847,-31 849.99,-30.27 853.07,-29.38 856.12,-28.41"/>
<polygon fill="midnightblue" stroke="midnightblue" points="857.34,-31.68 865.64,-25.09 855.04,-25.07 857.34,-31.68"/>
</g>
<!-- Node12 -->
<g id="node12" class="node">
<title>Node12</title>
<g id="a_node12"><a xlink:href="__boost__config_8h.html" target="_top" xlink:title="Boost Configurations.">
<polygon fill="white" stroke="black" points="156,-6 156,-25 248,-25 248,-6 156,-6"/>
<text text-anchor="middle" x="202" y="-13" font-family="Helvetica,sans-Serif" font-size="10.00">_boost_config.h</text>
</a>
</g>
</g>
<!-- Node5&#45;&gt;Node12 -->
<g id="edge11" class="edge">
<title>Node5&#45;&gt;Node12</title>
<path fill="none" stroke="midnightblue" d="M499.34,-70.1C494.61,-69.01 489.66,-67.92 485,-67 384.35,-47.16 357.39,-52.1 257,-31 252.18,-29.99 247.15,-28.82 242.18,-27.59"/>
<polygon fill="midnightblue" stroke="midnightblue" points="242.68,-24.11 232.13,-25.03 240.95,-30.89 242.68,-24.11"/>
</g>
<!-- Node13 -->
<g id="node13" class="node">
<title>Node13</title>
<g id="a_node13"><a xlink:title=" ">
<polygon fill="white" stroke="#bfbfbf" points="266.5,-0.5 266.5,-30.5 407.5,-30.5 407.5,-0.5 266.5,-0.5"/>
<text text-anchor="start" x="274.5" y="-18.5" font-family="Helvetica,sans-Serif" font-size="10.00">boost/dll/runtime_symbol</text>
<text text-anchor="middle" x="337" y="-7.5" font-family="Helvetica,sans-Serif" font-size="10.00">_info.hpp</text>
</a>
</g>
</g>
<!-- Node5&#45;&gt;Node13 -->
<g id="edge12" class="edge">
<title>Node5&#45;&gt;Node13</title>
<path fill="none" stroke="midnightblue" d="M499.44,-68.46C472.28,-59.77 426.75,-45.21 390.8,-33.71"/>
<polygon fill="midnightblue" stroke="midnightblue" points="391.52,-30.27 380.93,-30.55 389.39,-36.93 391.52,-30.27"/>
</g>
<!-- Node14 -->
<g id="node14" class="node">
<title>Node14</title>
<g id="a_node14"><a xlink:title=" ">
<polygon fill="white" stroke="#bfbfbf" points="426,-6 426,-25 472,-25 472,-6 426,-6"/>
<text text-anchor="middle" x="449" y="-13" font-family="Helvetica,sans-Serif" font-size="10.00">pwd.h</text>
</a>
</g>
</g>
<!-- Node5&#45;&gt;Node14 -->
<g id="edge13" class="edge">
<title>Node5&#45;&gt;Node14</title>
<path fill="none" stroke="midnightblue" d="M512.4,-67.48C500.75,-58.11 481.81,-42.88 467.67,-31.51"/>
<polygon fill="midnightblue" stroke="midnightblue" points="469.57,-28.55 459.58,-25.01 465.18,-34 469.57,-28.55"/>
</g>
<!-- Node15 -->
<g id="node15" class="node">
<title>Node15</title>
<g id="a_node15"><a xlink:title=" ">
<polygon fill="white" stroke="#bfbfbf" points="490,-6 490,-25 562,-25 562,-6 490,-6"/>
<text text-anchor="middle" x="526" y="-13" font-family="Helvetica,sans-Serif" font-size="10.00">sys/types.h</text>
</a>
</g>
</g>
<!-- Node5&#45;&gt;Node15 -->
<g id="edge14" class="edge">
<title>Node5&#45;&gt;Node15</title>
<path fill="none" stroke="midnightblue" d="M523.43,-67.48C523.85,-59.08 524.51,-45.98 525.06,-35.16"/>
<polygon fill="midnightblue" stroke="midnightblue" points="528.56,-35.17 525.57,-25.01 521.57,-34.82 528.56,-35.17"/>
</g>
<!-- Node16 -->
<g id="node16" class="node">
<title>Node16</title>
<g id="a_node16"><a xlink:title=" ">
<polygon fill="white" stroke="#bfbfbf" points="580,-6 580,-25 636,-25 636,-6 580,-6"/>
<text text-anchor="middle" x="608" y="-13" font-family="Helvetica,sans-Serif" font-size="10.00">unistd.h</text>
</a>
</g>
</g>
<!-- Node5&#45;&gt;Node16 -->
<g id="edge15" class="edge">
<title>Node5&#45;&gt;Node16</title>
<path fill="none" stroke="midnightblue" d="M535.18,-67.48C548.81,-57.93 571.13,-42.31 587.47,-30.87"/>
<polygon fill="midnightblue" stroke="midnightblue" points="589.66,-33.61 595.84,-25.01 585.64,-27.88 589.66,-33.61"/>
</g>
<!-- Node19 -->
<g id="node19" class="node">
<title>Node19</title>
<g id="a_node19"><a xlink:href="include_2log_8h.html" target="_top" xlink:title="Log Utilities.">
<polygon fill="white" stroke="black" points="934.5,-123.5 934.5,-142.5 975.5,-142.5 975.5,-123.5 934.5,-123.5"/>
<text text-anchor="middle" x="955" y="-130.5" font-family="Helvetica,sans-Serif" font-size="10.00">log.h</text>
</a>
</g>
</g>
<!-- Node18&#45;&gt;Node19 -->
<g id="edge19" class="edge">
<title>Node18&#45;&gt;Node19</title>
<path fill="none" stroke="midnightblue" d="M983.39,-179.08C978.63,-171.53 971.68,-160.49 965.85,-151.23"/>
<polygon fill="midnightblue" stroke="midnightblue" points="968.8,-149.35 960.51,-142.75 962.88,-153.08 968.8,-149.35"/>
</g>
<!-- Node19&#45;&gt;Node5 -->
<g id="edge26" class="edge">
<title>Node19&#45;&gt;Node5</title>
<path fill="none" stroke="midnightblue" d="M934.49,-130.81C876.59,-127.2 706.94,-115.02 556.57,-86.81"/>
<polygon fill="midnightblue" stroke="midnightblue" points="557.17,-83.36 546.69,-84.93 555.86,-90.24 557.17,-83.36"/>
</g>
<!-- Node20 -->
<g id="node20" class="node">
<title>Node20</title>
<g id="a_node20"><a xlink:href="meta_8h.html" target="_top" xlink:title="mmCEsim meta data">
<polygon fill="white" stroke="black" points="701.5,-67.5 701.5,-86.5 752.5,-86.5 752.5,-67.5 701.5,-67.5"/>
<text text-anchor="middle" x="727" y="-74.5" font-family="Helvetica,sans-Serif" font-size="10.00">meta.h</text>
</a>
</g>
</g>
<!-- Node19&#45;&gt;Node20 -->
<g id="edge20" class="edge">
<title>Node19&#45;&gt;Node20</title>
<path fill="none" stroke="midnightblue" d="M934.4,-127.36C900.65,-119.72 831.26,-103.87 762.32,-87.03"/>
<polygon fill="midnightblue" stroke="midnightblue" points="763.14,-83.63 752.6,-84.65 761.48,-90.43 763.14,-83.63"/>
</g>
<!-- Node21 -->
<g id="node21" class="node">
<title>Node21</title>
<g id="a_node21"><a xlink:href="term_8h.html" target="_top" xlink:title="Terminal Color and Style Control.">
<polygon fill="white" stroke="black" points="930.5,-67.5 930.5,-86.5 979.5,-86.5 979.5,-67.5 930.5,-67.5"/>
<text text-anchor="middle" x="955" y="-74.5" font-family="Helvetica,sans-Serif" font-size="10.00">term.h</text>
</a>
</g>
</g>
<!-- Node19&#45;&gt;Node21 -->
<g id="edge22" class="edge">
<title>Node19&#45;&gt;Node21</title>
<path fill="none" stroke="midnightblue" d="M955,-123.08C955,-116.01 955,-105.86 955,-96.99"/>
<polygon fill="midnightblue" stroke="midnightblue" points="958.5,-96.75 955,-86.75 951.5,-96.75 958.5,-96.75"/>
</g>
<!-- Node24 -->
<g id="node24" class="node">
<title>Node24</title>
<g id="a_node24"><a xlink:title=" ">
<polygon fill="white" stroke="#bfbfbf" points="1069,-67.5 1069,-86.5 1113,-86.5 1113,-67.5 1069,-67.5"/>
<text text-anchor="middle" x="1091" y="-74.5" font-family="Helvetica,sans-Serif" font-size="10.00">ctime</text>
</a>
</g>
</g>
<!-- Node19&#45;&gt;Node24 -->
<g id="edge27" class="edge">
<title>Node19&#45;&gt;Node24</title>
<path fill="none" stroke="midnightblue" d="M975.66,-123.8C998.06,-114.9 1034.07,-100.6 1059.9,-90.35"/>
<polygon fill="midnightblue" stroke="midnightblue" points="1061.25,-93.58 1069.25,-86.64 1058.66,-87.07 1061.25,-93.58"/>
</g>
<!-- Node25 -->
<g id="node25" class="node">
<title>Node25</title>
<g id="a_node25"><a xlink:title=" ">
<polygon fill="white" stroke="#bfbfbf" points="771,-67.5 771,-86.5 839,-86.5 839,-67.5 771,-67.5"/>
<text text-anchor="middle" x="805" y="-74.5" font-family="Helvetica,sans-Serif" font-size="10.00">filesystem</text>
</a>
</g>
</g>
<!-- Node19&#45;&gt;Node25 -->
<g id="edge28" class="edge">
<title>Node19&#45;&gt;Node25</title>
<path fill="none" stroke="midnightblue" d="M934.46,-124.6C909.66,-115.68 867.63,-100.55 838.2,-89.95"/>
<polygon fill="midnightblue" stroke="midnightblue" points="839.35,-86.65 828.75,-86.55 836.98,-93.23 839.35,-86.65"/>
</g>
<!-- Node26 -->
<g id="node26" class="node">
<title>Node26</title>
<g id="a_node26"><a xlink:title=" ">
<polygon fill="white" stroke="#bfbfbf" points="857.5,-67.5 857.5,-86.5 912.5,-86.5 912.5,-67.5 857.5,-67.5"/>
<text text-anchor="middle" x="885" y="-74.5" font-family="Helvetica,sans-Serif" font-size="10.00">fstream</text>
</a>
</g>
</g>
<!-- Node19&#45;&gt;Node26 -->
<g id="edge29" class="edge">
<title>Node19&#45;&gt;Node26</title>
<path fill="none" stroke="midnightblue" d="M943.75,-123.32C933.2,-115.18 917.2,-102.84 904.56,-93.09"/>
<polygon fill="midnightblue" stroke="midnightblue" points="906.51,-90.17 896.45,-86.83 902.23,-95.71 906.51,-90.17"/>
</g>
<!-- Node19&#45;&gt;Node27 -->
<g id="edge30" class="edge">
<title>Node19&#45;&gt;Node27</title>
<path fill="none" stroke="midnightblue" d="M975.68,-126.53C1009.72,-117.51 1078.05,-99.43 1121,-88.06"/>
<polygon fill="midnightblue" stroke="midnightblue" points="1122.03,-91.41 1130.8,-85.46 1120.24,-84.64 1122.03,-91.41"/>
</g>
<!-- Node28 -->
<g id="node28" class="node">
<title>Node28</title>
<g id="a_node28"><a xlink:title=" ">
<polygon fill="white" stroke="#bfbfbf" points="997.5,-67.5 997.5,-86.5 1050.5,-86.5 1050.5,-67.5 997.5,-67.5"/>
<text text-anchor="middle" x="1024" y="-74.5" font-family="Helvetica,sans-Serif" font-size="10.00">spy.hpp</text>
</a>
</g>
</g>
<!-- Node19&#45;&gt;Node28 -->
<g id="edge31" class="edge">
<title>Node19&#45;&gt;Node28</title>
<path fill="none" stroke="midnightblue" d="M966.09,-123.32C976.49,-115.18 992.26,-102.84 1004.72,-93.09"/>
<polygon fill="midnightblue" stroke="midnightblue" points="1006.99,-95.75 1012.71,-86.83 1002.68,-90.24 1006.99,-95.75"/>
</g>
<!-- Node20&#45;&gt;Node10 -->
<g id="edge21" class="edge">
<title>Node20&#45;&gt;Node10</title>
<path fill="none" stroke="midnightblue" d="M739.75,-67.48C754.03,-57.93 777.4,-42.31 794.51,-30.87"/>
<polygon fill="midnightblue" stroke="midnightblue" points="796.9,-33.48 803.27,-25.01 793.01,-27.66 796.9,-33.48"/>
</g>
<!-- Node21&#45;&gt;Node10 -->
<g id="edge25" class="edge">
<title>Node21&#45;&gt;Node10</title>
<path fill="none" stroke="midnightblue" d="M935.08,-67.48C911.55,-57.4 872.19,-40.55 845.21,-29"/>
<polygon fill="midnightblue" stroke="midnightblue" points="846.45,-25.73 835.88,-25.01 843.69,-32.16 846.45,-25.73"/>
</g>
<!-- Node22 -->
<g id="node22" class="node">
<title>Node22</title>
<g id="a_node22"><a xlink:title=" ">
<polygon fill="white" stroke="#bfbfbf" points="930.5,-6 930.5,-25 979.5,-25 979.5,-6 930.5,-6"/>
<text text-anchor="middle" x="955" y="-13" font-family="Helvetica,sans-Serif" font-size="10.00">cstdlib</text>
</a>
</g>
</g>
<!-- Node21&#45;&gt;Node22 -->
<g id="edge23" class="edge">
<title>Node21&#45;&gt;Node22</title>
<path fill="none" stroke="midnightblue" d="M955,-67.48C955,-59.08 955,-45.98 955,-35.16"/>
<polygon fill="midnightblue" stroke="midnightblue" points="958.5,-35.01 955,-25.01 951.5,-35.01 958.5,-35.01"/>
</g>
<!-- Node21&#45;&gt;Node23 -->
<g id="edge24" class="edge">
<title>Node21&#45;&gt;Node23</title>
<path fill="none" stroke="midnightblue" d="M979.7,-68.1C1011.68,-57.87 1067.66,-39.96 1104.53,-28.17"/>
<polygon fill="midnightblue" stroke="midnightblue" points="1105.93,-31.39 1114.39,-25.01 1103.8,-24.72 1105.93,-31.39"/>
</g>
</g>
</svg>
