<?xml version="1.0" encoding="UTF-8" standalone="no"?>
<!DOCTYPE svg PUBLIC "-//W3C//DTD SVG 1.1//EN"
 "http://www.w3.org/Graphics/SVG/1.1/DTD/svg11.dtd">
<!-- Generated by graphviz version 2.43.0 (0)
 -->
<!-- Title: include/export/calc.h Pages: 1 -->
<!--zoomable 386 -->
<svg id="main" version="1.1" xmlns="http://www.w3.org/2000/svg" xmlns:xlink="http://www.w3.org/1999/xlink" xml:space="preserve" onload="init(evt)">
<style type="text/css"><![CDATA[
.edge:hover path { stroke: red; }
.edge:hover polygon { stroke: red; fill: red; }
]]></style>
<script type="text/javascript"><![CDATA[
var edges = document.getElementsByTagName('g');
if (edges && edges.length) {
  for (var i=0;i<edges.length;i++) {
    if (edges[i].id.substr(0,4)=='edge') {
      edges[i].setAttribute('class','edge');
    }
  }
}
]]></script>
        <defs>
                <circle id="rim" cx="0" cy="0" r="7"/>
                <circle id="rim2" cx="0" cy="0" r="3.5"/>
                <g id="zoomPlus">
                        <use xlink:href="#rim" fill="#404040">
                                <set attributeName="fill" to="#808080" begin="zoomplus.mouseover" end="zoomplus.mouseout"/>
                        </use>
                        <path d="M-4,0h8M0,-4v8" fill="none" stroke="white" stroke-width="1.5" pointer-events="none"/>
                </g>
                <g id="zoomMin">
                        <use xlink:href="#rim" fill="#404040">
                                <set attributeName="fill" to="#808080" begin="zoomminus.mouseover" end="zoomminus.mouseout"/>
                        </use>
                        <path d="M-4,0h8" fill="none" stroke="white" stroke-width="1.5" pointer-events="none"/>
                </g>
                <g id="dirArrow">
                        <path fill="none" stroke="white" stroke-width="1.5" d="M0,-3.0v7 M-2.5,-0.5L0,-3.0L2.5,-0.5"/>
                </g>
               <g id="resetDef">
                       <use xlink:href="#rim2" fill="#404040">
                               <set attributeName="fill" to="#808080" begin="reset.mouseover" end="reset.mouseout"/>
                       </use>
               </g>
        </defs>

<script type="text/javascript">
var viewWidth = 1034;
var viewHeight = 386;
var sectionId = 'dynsection-0';
</script>
<script xlink:href="svgpan.js"/>
<svg id="graph" class="graph">
<g id="viewport">
<title>include/export/calc.h</title>
<polygon fill="white" stroke="transparent" points="-4,4 -4,-382 1030,-382 1030,4 -4,4"/>
<!-- Node1 -->
<g id="node1" class="node">
<title>Node1</title>
<g id="a_node1"><a xlink:title="Make Calculation in Alg.">
<polygon fill="#bfbfbf" stroke="black" points="524.5,-358.5 524.5,-377.5 642.5,-377.5 642.5,-358.5 524.5,-358.5"/>
<text text-anchor="middle" x="583.5" y="-365.5" font-family="Helvetica,sans-Serif" font-size="10.00">include/export/calc.h</text>
</a>
</g>
</g>
<!-- Node2 -->
<g id="node2" class="node">
<title>Node2</title>
<g id="a_node2"><a xlink:href="type__track__global_8h.html" target="_top" xlink:title="Global Access of Type Track.">
<polygon fill="white" stroke="black" points="459,-297 459,-316 606,-316 606,-297 459,-297"/>
<text text-anchor="middle" x="532.5" y="-304" font-family="Helvetica,sans-Serif" font-size="10.00">export/type_track_global.h</text>
</a>
</g>
</g>
<!-- Node1&#45;&gt;Node2 -->
<g id="edge1" class="edge">
<title>Node1&#45;&gt;Node2</title>
<path fill="none" stroke="midnightblue" d="M576.19,-358.48C568.47,-349.46 556.09,-335.02 546.48,-323.81"/>
<polygon fill="midnightblue" stroke="midnightblue" points="548.96,-321.32 539.79,-316.01 543.64,-325.88 548.96,-321.32"/>
</g>
<!-- Node5 -->
<g id="node5" class="node">
<title>Node5</title>
<g id="a_node5"><a xlink:title=" ">
<polygon fill="white" stroke="#bfbfbf" points="612.5,-6 612.5,-25 656.5,-25 656.5,-6 612.5,-6"/>
<text text-anchor="middle" x="634.5" y="-13" font-family="Helvetica,sans-Serif" font-size="10.00">string</text>
</a>
</g>
</g>
<!-- Node1&#45;&gt;Node5 -->
<g id="edge34" class="edge">
<title>Node1&#45;&gt;Node5</title>
<path fill="none" stroke="midnightblue" d="M590.9,-358.25C597.9,-349.57 608.25,-335.62 614.5,-322 629.07,-290.26 634.5,-280.93 634.5,-246 634.5,-246 634.5,-246 634.5,-132 634.5,-97.86 634.5,-58.05 634.5,-35.21"/>
<polygon fill="midnightblue" stroke="midnightblue" points="638,-35.19 634.5,-25.19 631,-35.19 638,-35.19"/>
</g>
<!-- Node6 -->
<g id="node6" class="node">
<title>Node6</title>
<g id="a_node6"><a xlink:title=" ">
<polygon fill="white" stroke="#bfbfbf" points="733,-123.5 733,-142.5 774,-142.5 774,-123.5 733,-123.5"/>
<text text-anchor="middle" x="753.5" y="-130.5" font-family="Helvetica,sans-Serif" font-size="10.00">tuple</text>
</a>
</g>
</g>
<!-- Node1&#45;&gt;Node6 -->
<g id="edge35" class="edge">
<title>Node1&#45;&gt;Node6</title>
<path fill="none" stroke="midnightblue" d="M607.27,-358.39C656.88,-338.97 770.45,-286.47 814.5,-199 824.99,-178.17 801.99,-159.34 781.3,-147.37"/>
<polygon fill="midnightblue" stroke="midnightblue" points="782.83,-144.23 772.38,-142.53 779.49,-150.38 782.83,-144.23"/>
</g>
<!-- Node7 -->
<g id="node7" class="node">
<title>Node7</title>
<g id="a_node7"><a xlink:href="log__global_8h.html" target="_top" xlink:title="Global Access of Log.">
<polygon fill="white" stroke="black" points="345.5,-179.5 345.5,-198.5 421.5,-198.5 421.5,-179.5 345.5,-179.5"/>
<text text-anchor="middle" x="383.5" y="-186.5" font-family="Helvetica,sans-Serif" font-size="10.00">log_global.h</text>
</a>
</g>
</g>
<!-- Node1&#45;&gt;Node7 -->
<g id="edge31" class="edge">
<title>Node1&#45;&gt;Node7</title>
<path fill="none" stroke="midnightblue" d="M527.72,-358.43C501.53,-352.04 471.36,-341 449.5,-322 414.16,-291.28 395.64,-237.16 387.94,-208.7"/>
<polygon fill="midnightblue" stroke="midnightblue" points="391.29,-207.66 385.43,-198.83 384.5,-209.39 391.29,-207.66"/>
</g>
<!-- Node13 -->
<g id="node13" class="node">
<title>Node13</title>
<g id="a_node13"><a xlink:href="utils_8h.html" target="_top" xlink:title="Utilities.">
<polygon fill="white" stroke="black" points="144,-67.5 144,-86.5 191,-86.5 191,-67.5 144,-67.5"/>
<text text-anchor="middle" x="167.5" y="-74.5" font-family="Helvetica,sans-Serif" font-size="10.00">utils.h</text>
</a>
</g>
</g>
<!-- Node1&#45;&gt;Node13 -->
<g id="edge32" class="edge">
<title>Node1&#45;&gt;Node13</title>
<path fill="none" stroke="midnightblue" d="M524.49,-358.49C426.89,-342.73 242.5,-305.13 242.5,-246 242.5,-246 242.5,-246 242.5,-188 242.5,-148.44 208.98,-112.62 186.76,-93.21"/>
<polygon fill="midnightblue" stroke="midnightblue" points="188.8,-90.35 178.89,-86.6 184.3,-95.71 188.8,-90.35"/>
</g>
<!-- Node27 -->
<g id="node27" class="node">
<title>Node27</title>
<g id="a_node27"><a xlink:title=" ">
<polygon fill="white" stroke="#bfbfbf" points="901,-291.5 901,-321.5 1026,-321.5 1026,-291.5 901,-291.5"/>
<text text-anchor="start" x="909" y="-309.5" font-family="Helvetica,sans-Serif" font-size="10.00">boost/algorithm/string</text>
<text text-anchor="middle" x="963.5" y="-298.5" font-family="Helvetica,sans-Serif" font-size="10.00">/replace.hpp</text>
</a>
</g>
</g>
<!-- Node1&#45;&gt;Node27 -->
<g id="edge33" class="edge">
<title>Node1&#45;&gt;Node27</title>
<path fill="none" stroke="midnightblue" d="M642.54,-358.92C703.69,-350.39 801.94,-336.24 886.5,-322 887.97,-321.75 889.45,-321.5 890.94,-321.24"/>
<polygon fill="midnightblue" stroke="midnightblue" points="891.68,-324.67 900.92,-319.49 890.47,-317.77 891.68,-324.67"/>
</g>
<!-- Node3 -->
<g id="node3" class="node">
<title>Node3</title>
<g id="a_node3"><a xlink:href="type__track_8h.html" target="_top" xlink:title="Track data type of variables.">
<polygon fill="white" stroke="black" points="485.5,-235.5 485.5,-254.5 597.5,-254.5 597.5,-235.5 485.5,-235.5"/>
<text text-anchor="middle" x="541.5" y="-242.5" font-family="Helvetica,sans-Serif" font-size="10.00">export/type_track.h</text>
</a>
</g>
</g>
<!-- Node2&#45;&gt;Node3 -->
<g id="edge2" class="edge">
<title>Node2&#45;&gt;Node3</title>
<path fill="none" stroke="midnightblue" d="M533.79,-296.98C535.06,-288.58 537.04,-275.48 538.68,-264.66"/>
<polygon fill="midnightblue" stroke="midnightblue" points="542.18,-264.92 540.21,-254.51 535.26,-263.87 542.18,-264.92"/>
</g>
<!-- Node4 -->
<g id="node4" class="node">
<title>Node4</title>
<g id="a_node4"><a xlink:href="type_8h.html" target="_top" xlink:title="Type Specification in Alg.">
<polygon fill="white" stroke="black" points="662.5,-179.5 662.5,-198.5 744.5,-198.5 744.5,-179.5 662.5,-179.5"/>
<text text-anchor="middle" x="703.5" y="-186.5" font-family="Helvetica,sans-Serif" font-size="10.00">export/type.h</text>
</a>
</g>
</g>
<!-- Node3&#45;&gt;Node4 -->
<g id="edge3" class="edge">
<title>Node3&#45;&gt;Node4</title>
<path fill="none" stroke="midnightblue" d="M567.17,-235.44C594.42,-226.36 637.68,-211.94 668.15,-201.78"/>
<polygon fill="midnightblue" stroke="midnightblue" points="669.57,-205 677.95,-198.52 667.36,-198.36 669.57,-205"/>
</g>
<!-- Node3&#45;&gt;Node7 -->
<g id="edge6" class="edge">
<title>Node3&#45;&gt;Node7</title>
<path fill="none" stroke="midnightblue" d="M516.46,-235.44C489.88,-226.36 447.69,-211.94 417.98,-201.78"/>
<polygon fill="midnightblue" stroke="midnightblue" points="419.01,-198.44 408.42,-198.52 416.75,-205.06 419.01,-198.44"/>
</g>
<!-- Node12 -->
<g id="node12" class="node">
<title>Node12</title>
<g id="a_node12"><a xlink:title=" ">
<polygon fill="white" stroke="#bfbfbf" points="786.5,-6 786.5,-25 846.5,-25 846.5,-6 786.5,-6"/>
<text text-anchor="middle" x="816.5" y="-13" font-family="Helvetica,sans-Serif" font-size="10.00">iostream</text>
</a>
</g>
</g>
<!-- Node3&#45;&gt;Node12 -->
<g id="edge26" class="edge">
<title>Node3&#45;&gt;Node12</title>
<path fill="none" stroke="midnightblue" d="M597.67,-242.93C669.27,-240.24 787.09,-230.94 814.5,-199 854.71,-152.15 834.87,-70.9 823.1,-34.75"/>
<polygon fill="midnightblue" stroke="midnightblue" points="826.33,-33.39 819.78,-25.07 819.71,-35.66 826.33,-33.39"/>
</g>
<!-- Node18 -->
<g id="node18" class="node">
<title>Node18</title>
<g id="a_node18"><a xlink:title=" ">
<polygon fill="white" stroke="#bfbfbf" points="502,-6 502,-25 549,-25 549,-6 502,-6"/>
<text text-anchor="middle" x="525.5" y="-13" font-family="Helvetica,sans-Serif" font-size="10.00">vector</text>
</a>
</g>
</g>
<!-- Node3&#45;&gt;Node18 -->
<g id="edge30" class="edge">
<title>Node3&#45;&gt;Node18</title>
<path fill="none" stroke="midnightblue" d="M515.29,-235.41C498.65,-228.44 478.44,-216.81 468.5,-199 443.69,-154.57 512.89,-185.73 550.5,-87 557.4,-68.88 547.75,-47.92 538.51,-33.59"/>
<polygon fill="midnightblue" stroke="midnightblue" points="541.26,-31.43 532.67,-25.23 535.52,-35.43 541.26,-31.43"/>
</g>
<!-- Node24 -->
<g id="node24" class="node">
<title>Node24</title>
<g id="a_node24"><a xlink:title=" ">
<polygon fill="white" stroke="#bfbfbf" points="763,-179.5 763,-198.5 806,-198.5 806,-179.5 763,-179.5"/>
<text text-anchor="middle" x="784.5" y="-186.5" font-family="Helvetica,sans-Serif" font-size="10.00">stack</text>
</a>
</g>
</g>
<!-- Node3&#45;&gt;Node24 -->
<g id="edge27" class="edge">
<title>Node3&#45;&gt;Node24</title>
<path fill="none" stroke="midnightblue" d="M586.39,-235.47C627.35,-227.46 689.74,-214.7 753.11,-198.95"/>
<polygon fill="midnightblue" stroke="midnightblue" points="754.03,-202.33 762.87,-196.5 752.32,-195.54 754.03,-202.33"/>
</g>
<!-- Node25 -->
<g id="node25" class="node">
<title>Node25</title>
<g id="a_node25"><a xlink:title=" ">
<polygon fill="white" stroke="#bfbfbf" points="478,-179.5 478,-198.5 543,-198.5 543,-179.5 478,-179.5"/>
<text text-anchor="middle" x="510.5" y="-186.5" font-family="Helvetica,sans-Serif" font-size="10.00">stdexcept</text>
</a>
</g>
</g>
<!-- Node3&#45;&gt;Node25 -->
<g id="edge28" class="edge">
<title>Node3&#45;&gt;Node25</title>
<path fill="none" stroke="midnightblue" d="M536.38,-235.08C532.09,-227.61 525.84,-216.72 520.56,-207.52"/>
<polygon fill="midnightblue" stroke="midnightblue" points="523.54,-205.68 515.52,-198.75 517.47,-209.17 523.54,-205.68"/>
</g>
<!-- Node26 -->
<g id="node26" class="node">
<title>Node26</title>
<g id="a_node26"><a xlink:title=" ">
<polygon fill="white" stroke="#bfbfbf" points="561,-179.5 561,-198.5 606,-198.5 606,-179.5 561,-179.5"/>
<text text-anchor="middle" x="583.5" y="-186.5" font-family="Helvetica,sans-Serif" font-size="10.00">utility</text>
</a>
</g>
</g>
<!-- Node3&#45;&gt;Node26 -->
<g id="edge29" class="edge">
<title>Node3&#45;&gt;Node26</title>
<path fill="none" stroke="midnightblue" d="M548.44,-235.08C554.43,-227.38 563.25,-216.03 570.55,-206.65"/>
<polygon fill="midnightblue" stroke="midnightblue" points="573.32,-208.79 576.69,-198.75 567.79,-204.5 573.32,-208.79"/>
</g>
<!-- Node4&#45;&gt;Node5 -->
<g id="edge4" class="edge">
<title>Node4&#45;&gt;Node5</title>
<path fill="none" stroke="midnightblue" d="M699.98,-179.26C689.19,-152.42 656.35,-70.82 641.7,-34.39"/>
<polygon fill="midnightblue" stroke="midnightblue" points="644.91,-32.99 637.93,-25.02 638.41,-35.6 644.91,-32.99"/>
</g>
<!-- Node4&#45;&gt;Node6 -->
<g id="edge5" class="edge">
<title>Node4&#45;&gt;Node6</title>
<path fill="none" stroke="midnightblue" d="M711.76,-179.08C718.96,-171.3 729.61,-159.8 738.35,-150.37"/>
<polygon fill="midnightblue" stroke="midnightblue" points="741.17,-152.47 745.4,-142.75 736.03,-147.71 741.17,-152.47"/>
</g>
<!-- Node8 -->
<g id="node8" class="node">
<title>Node8</title>
<g id="a_node8"><a xlink:href="include_2log_8h.html" target="_top" xlink:title="Log Utilities.">
<polygon fill="white" stroke="black" points="363,-123.5 363,-142.5 404,-142.5 404,-123.5 363,-123.5"/>
<text text-anchor="middle" x="383.5" y="-130.5" font-family="Helvetica,sans-Serif" font-size="10.00">log.h</text>
</a>
</g>
</g>
<!-- Node7&#45;&gt;Node8 -->
<g id="edge7" class="edge">
<title>Node7&#45;&gt;Node8</title>
<path fill="none" stroke="midnightblue" d="M383.5,-179.08C383.5,-172.01 383.5,-161.86 383.5,-152.99"/>
<polygon fill="midnightblue" stroke="midnightblue" points="387,-152.75 383.5,-142.75 380,-152.75 387,-152.75"/>
</g>
<!-- Node9 -->
<g id="node9" class="node">
<title>Node9</title>
<g id="a_node9"><a xlink:href="meta_8h.html" target="_top" xlink:title="mmCEsim meta data">
<polygon fill="white" stroke="black" points="491,-67.5 491,-86.5 542,-86.5 542,-67.5 491,-67.5"/>
<text text-anchor="middle" x="516.5" y="-74.5" font-family="Helvetica,sans-Serif" font-size="10.00">meta.h</text>
</a>
</g>
</g>
<!-- Node8&#45;&gt;Node9 -->
<g id="edge8" class="edge">
<title>Node8&#45;&gt;Node9</title>
<path fill="none" stroke="midnightblue" d="M404.28,-123.56C426.21,-114.66 461,-100.54 486.03,-90.37"/>
<polygon fill="midnightblue" stroke="midnightblue" points="487.48,-93.56 495.43,-86.56 484.84,-87.08 487.48,-93.56"/>
</g>
<!-- Node10 -->
<g id="node10" class="node">
<title>Node10</title>
<g id="a_node10"><a xlink:href="term_8h.html" target="_top" xlink:title="Terminal Color and Style Control.">
<polygon fill="white" stroke="black" points="701,-67.5 701,-86.5 750,-86.5 750,-67.5 701,-67.5"/>
<text text-anchor="middle" x="725.5" y="-74.5" font-family="Helvetica,sans-Serif" font-size="10.00">term.h</text>
</a>
</g>
</g>
<!-- Node8&#45;&gt;Node10 -->
<g id="edge10" class="edge">
<title>Node8&#45;&gt;Node10</title>
<path fill="none" stroke="midnightblue" d="M404.12,-128.74C460.85,-119.79 619.72,-94.7 690.6,-83.51"/>
<polygon fill="midnightblue" stroke="midnightblue" points="691.46,-86.92 700.79,-81.9 690.37,-80 691.46,-86.92"/>
</g>
<!-- Node8&#45;&gt;Node13 -->
<g id="edge14" class="edge">
<title>Node8&#45;&gt;Node13</title>
<path fill="none" stroke="midnightblue" d="M362.75,-127.17C330.27,-119.56 265.26,-104.11 201.11,-87.36"/>
<polygon fill="midnightblue" stroke="midnightblue" points="201.8,-83.93 191.24,-84.77 200.03,-90.7 201.8,-83.93"/>
</g>
<!-- Node20 -->
<g id="node20" class="node">
<title>Node20</title>
<g id="a_node20"><a xlink:title=" ">
<polygon fill="white" stroke="#bfbfbf" points="428.5,-67.5 428.5,-86.5 472.5,-86.5 472.5,-67.5 428.5,-67.5"/>
<text text-anchor="middle" x="450.5" y="-74.5" font-family="Helvetica,sans-Serif" font-size="10.00">ctime</text>
</a>
</g>
</g>
<!-- Node8&#45;&gt;Node20 -->
<g id="edge22" class="edge">
<title>Node8&#45;&gt;Node20</title>
<path fill="none" stroke="midnightblue" d="M394.26,-123.32C404.27,-115.26 419.39,-103.08 431.43,-93.37"/>
<polygon fill="midnightblue" stroke="midnightblue" points="433.95,-95.83 439.54,-86.83 429.56,-90.38 433.95,-95.83"/>
</g>
<!-- Node21 -->
<g id="node21" class="node">
<title>Node21</title>
<g id="a_node21"><a xlink:title=" ">
<polygon fill="white" stroke="#bfbfbf" points="209,-67.5 209,-86.5 264,-86.5 264,-67.5 209,-67.5"/>
<text text-anchor="middle" x="236.5" y="-74.5" font-family="Helvetica,sans-Serif" font-size="10.00">fstream</text>
</a>
</g>
</g>
<!-- Node8&#45;&gt;Node21 -->
<g id="edge23" class="edge">
<title>Node8&#45;&gt;Node21</title>
<path fill="none" stroke="midnightblue" d="M362.75,-124.38C338.54,-115.48 298.19,-100.66 269.63,-90.17"/>
<polygon fill="midnightblue" stroke="midnightblue" points="270.65,-86.82 260.06,-86.65 268.24,-93.39 270.65,-86.82"/>
</g>
<!-- Node22 -->
<g id="node22" class="node">
<title>Node22</title>
<g id="a_node22"><a xlink:title=" ">
<polygon fill="white" stroke="#bfbfbf" points="282.5,-67.5 282.5,-86.5 338.5,-86.5 338.5,-67.5 282.5,-67.5"/>
<text text-anchor="middle" x="310.5" y="-74.5" font-family="Helvetica,sans-Serif" font-size="10.00">iomanip</text>
</a>
</g>
</g>
<!-- Node8&#45;&gt;Node22 -->
<g id="edge24" class="edge">
<title>Node8&#45;&gt;Node22</title>
<path fill="none" stroke="midnightblue" d="M371.77,-123.32C360.66,-115.11 343.76,-102.6 330.52,-92.81"/>
<polygon fill="midnightblue" stroke="midnightblue" points="332.56,-89.97 322.44,-86.83 328.4,-95.59 332.56,-89.97"/>
</g>
<!-- Node23 -->
<g id="node23" class="node">
<title>Node23</title>
<g id="a_node23"><a xlink:title=" ">
<polygon fill="white" stroke="#bfbfbf" points="357,-67.5 357,-86.5 410,-86.5 410,-67.5 357,-67.5"/>
<text text-anchor="middle" x="383.5" y="-74.5" font-family="Helvetica,sans-Serif" font-size="10.00">spy.hpp</text>
</a>
</g>
</g>
<!-- Node8&#45;&gt;Node23 -->
<g id="edge25" class="edge">
<title>Node8&#45;&gt;Node23</title>
<path fill="none" stroke="midnightblue" d="M383.5,-123.08C383.5,-116.01 383.5,-105.86 383.5,-96.99"/>
<polygon fill="midnightblue" stroke="midnightblue" points="387,-96.75 383.5,-86.75 380,-96.75 387,-96.75"/>
</g>
<!-- Node9&#45;&gt;Node5 -->
<g id="edge9" class="edge">
<title>Node9&#45;&gt;Node5</title>
<path fill="none" stroke="midnightblue" d="M533.41,-67.48C553.03,-57.58 585.63,-41.14 608.49,-29.62"/>
<polygon fill="midnightblue" stroke="midnightblue" points="610.27,-32.64 617.62,-25.01 607.12,-26.39 610.27,-32.64"/>
</g>
<!-- Node10&#45;&gt;Node5 -->
<g id="edge13" class="edge">
<title>Node10&#45;&gt;Node5</title>
<path fill="none" stroke="midnightblue" d="M712.46,-67.48C697.73,-57.84 673.53,-42.02 655.99,-30.55"/>
<polygon fill="midnightblue" stroke="midnightblue" points="657.8,-27.55 647.51,-25.01 653.97,-33.41 657.8,-27.55"/>
</g>
<!-- Node11 -->
<g id="node11" class="node">
<title>Node11</title>
<g id="a_node11"><a xlink:title=" ">
<polygon fill="white" stroke="#bfbfbf" points="701,-6 701,-25 750,-25 750,-6 701,-6"/>
<text text-anchor="middle" x="725.5" y="-13" font-family="Helvetica,sans-Serif" font-size="10.00">cstdlib</text>
</a>
</g>
</g>
<!-- Node10&#45;&gt;Node11 -->
<g id="edge11" class="edge">
<title>Node10&#45;&gt;Node11</title>
<path fill="none" stroke="midnightblue" d="M725.5,-67.48C725.5,-59.08 725.5,-45.98 725.5,-35.16"/>
<polygon fill="midnightblue" stroke="midnightblue" points="729,-35.01 725.5,-25.01 722,-35.01 729,-35.01"/>
</g>
<!-- Node10&#45;&gt;Node12 -->
<g id="edge12" class="edge">
<title>Node10&#45;&gt;Node12</title>
<path fill="none" stroke="midnightblue" d="M738.54,-67.48C753.27,-57.84 777.47,-42.02 795.01,-30.55"/>
<polygon fill="midnightblue" stroke="midnightblue" points="797.03,-33.41 803.49,-25.01 793.2,-27.55 797.03,-33.41"/>
</g>
<!-- Node13&#45;&gt;Node5 -->
<g id="edge19" class="edge">
<title>Node13&#45;&gt;Node5</title>
<path fill="none" stroke="midnightblue" d="M191.16,-68.85C193.95,-68.15 196.78,-67.52 199.5,-67 356.62,-37.24 399.22,-53.82 557.5,-31 572.31,-28.87 588.6,-25.89 602.37,-23.19"/>
<polygon fill="midnightblue" stroke="midnightblue" points="603.23,-26.59 612.35,-21.19 601.85,-19.72 603.23,-26.59"/>
</g>
<!-- Node14 -->
<g id="node14" class="node">
<title>Node14</title>
<g id="a_node14"><a xlink:title=" ">
<polygon fill="white" stroke="#bfbfbf" points="373.5,-6 373.5,-25 437.5,-25 437.5,-6 373.5,-6"/>
<text text-anchor="middle" x="405.5" y="-13" font-family="Helvetica,sans-Serif" font-size="10.00">algorithm</text>
</a>
</g>
</g>
<!-- Node13&#45;&gt;Node14 -->
<g id="edge15" class="edge">
<title>Node13&#45;&gt;Node14</title>
<path fill="none" stroke="midnightblue" d="M191.22,-69.16C194.01,-68.41 196.81,-67.67 199.5,-67 271.89,-48.89 291.66,-51.21 363.5,-31 366.45,-30.17 369.49,-29.25 372.53,-28.28"/>
<polygon fill="midnightblue" stroke="midnightblue" points="373.71,-31.58 382.11,-25.12 371.51,-24.94 373.71,-31.58"/>
</g>
<!-- Node15 -->
<g id="node15" class="node">
<title>Node15</title>
<g id="a_node15"><a xlink:title=" ">
<polygon fill="white" stroke="#bfbfbf" points="0,-6 0,-25 49,-25 49,-6 0,-6"/>
<text text-anchor="middle" x="24.5" y="-13" font-family="Helvetica,sans-Serif" font-size="10.00">cctype</text>
</a>
</g>
</g>
<!-- Node13&#45;&gt;Node15 -->
<g id="edge16" class="edge">
<title>Node13&#45;&gt;Node15</title>
<path fill="none" stroke="midnightblue" d="M146.57,-67.44C124.61,-58.45 89.08,-43.83 58.5,-31 57.09,-30.41 55.66,-29.81 54.21,-29.19"/>
<polygon fill="midnightblue" stroke="midnightblue" points="55.19,-25.81 44.62,-25.13 52.46,-32.25 55.19,-25.81"/>
</g>
<!-- Node16 -->
<g id="node16" class="node">
<title>Node16</title>
<g id="a_node16"><a xlink:title=" ">
<polygon fill="white" stroke="#bfbfbf" points="67.5,-6 67.5,-25 121.5,-25 121.5,-6 67.5,-6"/>
<text text-anchor="middle" x="94.5" y="-13" font-family="Helvetica,sans-Serif" font-size="10.00">random</text>
</a>
</g>
</g>
<!-- Node13&#45;&gt;Node16 -->
<g id="edge17" class="edge">
<title>Node13&#45;&gt;Node16</title>
<path fill="none" stroke="midnightblue" d="M157.04,-67.48C145.55,-58.11 126.87,-42.88 112.91,-31.51"/>
<polygon fill="midnightblue" stroke="midnightblue" points="114.9,-28.61 104.94,-25.01 110.48,-34.04 114.9,-28.61"/>
</g>
<!-- Node17 -->
<g id="node17" class="node">
<title>Node17</title>
<g id="a_node17"><a xlink:title=" ">
<polygon fill="white" stroke="#bfbfbf" points="139.5,-6 139.5,-25 195.5,-25 195.5,-6 139.5,-6"/>
<text text-anchor="middle" x="167.5" y="-13" font-family="Helvetica,sans-Serif" font-size="10.00">sstream</text>
</a>
</g>
</g>
<!-- Node13&#45;&gt;Node17 -->
<g id="edge18" class="edge">
<title>Node13&#45;&gt;Node17</title>
<path fill="none" stroke="midnightblue" d="M167.5,-67.48C167.5,-59.08 167.5,-45.98 167.5,-35.16"/>
<polygon fill="midnightblue" stroke="midnightblue" points="171,-35.01 167.5,-25.01 164,-35.01 171,-35.01"/>
</g>
<!-- Node13&#45;&gt;Node18 -->
<g id="edge20" class="edge">
<title>Node13&#45;&gt;Node18</title>
<path fill="none" stroke="midnightblue" d="M191.18,-68.97C193.97,-68.25 196.79,-67.58 199.5,-67 308.01,-43.93 337.04,-49.02 446.5,-31 461.3,-28.56 477.61,-25.61 491.55,-23.01"/>
<polygon fill="midnightblue" stroke="midnightblue" points="492.51,-26.4 501.69,-21.11 491.21,-19.52 492.51,-26.4"/>
</g>
<!-- Node19 -->
<g id="node19" class="node">
<title>Node19</title>
<g id="a_node19"><a xlink:title=" ">
<polygon fill="white" stroke="#bfbfbf" points="214,-0.5 214,-30.5 355,-30.5 355,-0.5 214,-0.5"/>
<text text-anchor="start" x="222" y="-18.5" font-family="Helvetica,sans-Serif" font-size="10.00">boost/dll/runtime_symbol</text>
<text text-anchor="middle" x="284.5" y="-7.5" font-family="Helvetica,sans-Serif" font-size="10.00">_info.hpp</text>
</a>
</g>
</g>
<!-- Node13&#45;&gt;Node19 -->
<g id="edge21" class="edge">
<title>Node13&#45;&gt;Node19</title>
<path fill="none" stroke="midnightblue" d="M184.26,-67.48C200.78,-59.08 226.55,-45.97 247.82,-35.15"/>
<polygon fill="midnightblue" stroke="midnightblue" points="249.6,-38.18 256.93,-30.52 246.43,-31.94 249.6,-38.18"/>
</g>
</g>
</svg>
        <g id="navigator" transform="translate(0 0)" fill="#404254">
                <rect fill="#f2f5e9" fill-opacity="0.5" stroke="#606060" stroke-width=".5" x="0" y="0" width="60" height="60"/>
                <use id="zoomplus" xlink:href="#zoomPlus" x="17" y="9" onmousedown="handleZoom(evt,'in')"/>
                <use id="zoomminus" xlink:href="#zoomMin" x="42" y="9" onmousedown="handleZoom(evt,'out')"/>
                <use id="reset" xlink:href="#resetDef" x="30" y="36" onmousedown="handleReset()"/>
                <g id="arrowUp" xlink:href="#dirArrow" transform="translate(30 24)" onmousedown="handlePan(0,-1)">
                  <use xlink:href="#rim" fill="#404040">
                        <set attributeName="fill" to="#808080" begin="arrowUp.mouseover" end="arrowUp.mouseout"/>
                  </use>
                  <path fill="none" stroke="white" stroke-width="1.5" d="M0,-3.0v7 M-2.5,-0.5L0,-3.0L2.5,-0.5"/>
                </g>
                <g id="arrowRight" xlink:href="#dirArrow" transform="rotate(90) translate(36 -43)" onmousedown="handlePan(1,0)">
                  <use xlink:href="#rim" fill="#404040">
                        <set attributeName="fill" to="#808080" begin="arrowRight.mouseover" end="arrowRight.mouseout"/>
                  </use>
                  <path fill="none" stroke="white" stroke-width="1.5" d="M0,-3.0v7 M-2.5,-0.5L0,-3.0L2.5,-0.5"/>
                </g>
                <g id="arrowDown" xlink:href="#dirArrow" transform="rotate(180) translate(-30 -48)" onmousedown="handlePan(0,1)">
                  <use xlink:href="#rim" fill="#404040">
                        <set attributeName="fill" to="#808080" begin="arrowDown.mouseover" end="arrowDown.mouseout"/>
                  </use>
                  <path fill="none" stroke="white" stroke-width="1.5" d="M0,-3.0v7 M-2.5,-0.5L0,-3.0L2.5,-0.5"/>
                </g>
                <g id="arrowLeft" xlink:href="#dirArrow" transform="rotate(270) translate(-36 17)" onmousedown="handlePan(-1,0)">
                  <use xlink:href="#rim" fill="#404040">
                        <set attributeName="fill" to="#808080" begin="arrowLeft.mouseover" end="arrowLeft.mouseout"/>
                  </use>
                  <path fill="none" stroke="white" stroke-width="1.5" d="M0,-3.0v7 M-2.5,-0.5L0,-3.0L2.5,-0.5"/>
                </g>
        </g>
        <svg viewBox="0 0 15 15" width="100%" height="30px" preserveAspectRatio="xMaxYMin meet">
         <g id="arrow_out" transform="scale(0.3 0.3)">
          <a xlink:href="calc_8h__incl_org.svg" target="_base">
           <rect id="button" ry="5" rx="5" y="6" x="6" height="38" width="38"
                fill="#f2f5e9" fill-opacity="0.5" stroke="#606060" stroke-width="1.0"/>
           <path id="arrow"
             d="M 11.500037,31.436501 C 11.940474,20.09759 22.043105,11.32322 32.158766,21.979434 L 37.068811,17.246167 C 37.068811,17.246167 37.088388,32 37.088388,32 L 22.160133,31.978069 C 22.160133,31.978069 26.997745,27.140456 26.997745,27.140456 C 18.528582,18.264221 13.291696,25.230495 11.500037,31.436501 z"
             style="fill:#404040;"/>
          </a>
         </g>
        </svg>
</svg>
