<?xml version="1.0" encoding="UTF-8" standalone="no"?>
<!DOCTYPE svg PUBLIC "-//W3C//DTD SVG 1.1//EN"
 "http://www.w3.org/Graphics/SVG/1.1/DTD/svg11.dtd">
<!-- Generated by graphviz version 2.43.0 (0)
 -->
<!-- Title: include/export/calc.h Pages: 1 -->
<!--zoomable 386 -->
<svg id="main" version="1.1" xmlns="http://www.w3.org/2000/svg" xmlns:xlink="http://www.w3.org/1999/xlink" xml:space="preserve" onload="init(evt)">
<style type="text/css"><![CDATA[
.edge:hover path { stroke: red; }
.edge:hover polygon { stroke: red; fill: red; }
]]></style>
<script type="text/javascript"><![CDATA[
var edges = document.getElementsByTagName('g');
if (edges && edges.length) {
  for (var i=0;i<edges.length;i++) {
    if (edges[i].id.substr(0,4)=='edge') {
      edges[i].setAttribute('class','edge');
    }
  }
}
]]></script>
        <defs>
                <circle id="rim" cx="0" cy="0" r="7"/>
                <circle id="rim2" cx="0" cy="0" r="3.5"/>
                <g id="zoomPlus">
                        <use xlink:href="#rim" fill="#404040">
                                <set attributeName="fill" to="#808080" begin="zoomplus.mouseover" end="zoomplus.mouseout"/>
                        </use>
                        <path d="M-4,0h8M0,-4v8" fill="none" stroke="white" stroke-width="1.5" pointer-events="none"/>
                </g>
                <g id="zoomMin">
                        <use xlink:href="#rim" fill="#404040">
                                <set attributeName="fill" to="#808080" begin="zoomminus.mouseover" end="zoomminus.mouseout"/>
                        </use>
                        <path d="M-4,0h8" fill="none" stroke="white" stroke-width="1.5" pointer-events="none"/>
                </g>
                <g id="dirArrow">
                        <path fill="none" stroke="white" stroke-width="1.5" d="M0,-3.0v7 M-2.5,-0.5L0,-3.0L2.5,-0.5"/>
                </g>
               <g id="resetDef">
                       <use xlink:href="#rim2" fill="#404040">
                               <set attributeName="fill" to="#808080" begin="reset.mouseover" end="reset.mouseout"/>
                       </use>
               </g>
        </defs>

<script type="text/javascript">
var viewWidth = 1175;
var viewHeight = 386;
var sectionId = 'dynsection-0';
</script>
<script xlink:href="svgpan.js"/>
<svg id="graph" class="graph">
<g id="viewport">
<title>include/export/calc.h</title>
<polygon fill="white" stroke="transparent" points="-4,4 -4,-382 1171.34,-382 1171.34,4 -4,4"/>
<!-- Node1 -->
<g id="node1" class="node">
<title>Node1</title>
<g id="a_node1"><a xlink:title="Make Calculation in Alg.">
<polygon fill="#bfbfbf" stroke="black" points="627,-358.5 627,-377.5 745,-377.5 745,-358.5 627,-358.5"/>
<text text-anchor="middle" x="686" y="-365.5" font-family="Helvetica,sans-Serif" font-size="10.00">include/export/calc.h</text>
</a>
</g>
</g>
<!-- Node2 -->
<g id="node2" class="node">
<title>Node2</title>
<g id="a_node2"><a xlink:href="__boost__config_8h.html" target="_top" xlink:title="Boost Configurations.">
<polygon fill="white" stroke="black" points="0,-6 0,-25 92,-25 92,-6 0,-6"/>
<text text-anchor="middle" x="46" y="-13" font-family="Helvetica,sans-Serif" font-size="10.00">_boost_config.h</text>
</a>
</g>
</g>
<!-- Node1&#45;&gt;Node2 -->
<g id="edge1" class="edge">
<title>Node1&#45;&gt;Node2</title>
<path fill="none" stroke="midnightblue" d="M626.77,-364.81C496.18,-358.38 195,-334.01 195,-246 195,-246 195,-246 195,-132 195,-76.77 130.27,-44.17 86.13,-28.36"/>
<polygon fill="midnightblue" stroke="midnightblue" points="87.11,-24.99 76.51,-25.06 84.83,-31.61 87.11,-24.99"/>
</g>
<!-- Node3 -->
<g id="node3" class="node">
<title>Node3</title>
<g id="a_node3"><a xlink:href="type__track__global_8h.html" target="_top" xlink:title="Global Access of Type Track.">
<polygon fill="white" stroke="black" points="780.5,-297 780.5,-316 927.5,-316 927.5,-297 780.5,-297"/>
<text text-anchor="middle" x="854" y="-304" font-family="Helvetica,sans-Serif" font-size="10.00">export/type_track_global.h</text>
</a>
</g>
</g>
<!-- Node1&#45;&gt;Node3 -->
<g id="edge2" class="edge">
<title>Node1&#45;&gt;Node3</title>
<path fill="none" stroke="midnightblue" d="M710.07,-358.48C739.01,-348.22 787.76,-330.96 820.4,-319.4"/>
<polygon fill="midnightblue" stroke="midnightblue" points="821.72,-322.65 829.97,-316.01 819.38,-316.05 821.72,-322.65"/>
</g>
<!-- Node6 -->
<g id="node6" class="node">
<title>Node6</title>
<g id="a_node6"><a xlink:title=" ">
<polygon fill="white" stroke="#bfbfbf" points="860,-6 860,-25 904,-25 904,-6 860,-6"/>
<text text-anchor="middle" x="882" y="-13" font-family="Helvetica,sans-Serif" font-size="10.00">string</text>
</a>
</g>
</g>
<!-- Node1&#45;&gt;Node6 -->
<g id="edge40" class="edge">
<title>Node1&#45;&gt;Node6</title>
<path fill="none" stroke="midnightblue" d="M626.92,-362.46C556.15,-353.43 447,-326.46 447,-246 447,-246 447,-246 447,-132 447,-101.9 442.78,-86.15 466,-67 532.28,-12.31 768.08,-53.54 851,-31 852.94,-30.47 854.9,-29.83 856.85,-29.12"/>
<polygon fill="midnightblue" stroke="midnightblue" points="858.47,-32.24 866.31,-25.11 855.74,-25.79 858.47,-32.24"/>
</g>
<!-- Node7 -->
<g id="node7" class="node">
<title>Node7</title>
<g id="a_node7"><a xlink:title=" ">
<polygon fill="white" stroke="#bfbfbf" points="759.5,-123.5 759.5,-142.5 800.5,-142.5 800.5,-123.5 759.5,-123.5"/>
<text text-anchor="middle" x="780" y="-130.5" font-family="Helvetica,sans-Serif" font-size="10.00">tuple</text>
</a>
</g>
</g>
<!-- Node1&#45;&gt;Node7 -->
<g id="edge41" class="edge">
<title>Node1&#45;&gt;Node7</title>
<path fill="none" stroke="midnightblue" d="M689.46,-358.43C703.13,-324.54 753.61,-199.42 772.66,-152.2"/>
<polygon fill="midnightblue" stroke="midnightblue" points="775.92,-153.48 776.41,-142.9 769.42,-150.86 775.92,-153.48"/>
</g>
<!-- Node8 -->
<g id="node8" class="node">
<title>Node8</title>
<g id="a_node8"><a xlink:href="log__global_8h.html" target="_top" xlink:title="Global Access of Log.">
<polygon fill="white" stroke="black" points="648,-179.5 648,-198.5 724,-198.5 724,-179.5 648,-179.5"/>
<text text-anchor="middle" x="686" y="-186.5" font-family="Helvetica,sans-Serif" font-size="10.00">log_global.h</text>
</a>
</g>
</g>
<!-- Node1&#45;&gt;Node8 -->
<g id="edge37" class="edge">
<title>Node1&#45;&gt;Node8</title>
<path fill="none" stroke="midnightblue" d="M686,-358.46C686,-331.43 686,-247.24 686,-209.11"/>
<polygon fill="midnightblue" stroke="midnightblue" points="689.5,-208.87 686,-198.87 682.5,-208.87 689.5,-208.87"/>
</g>
<!-- Node14 -->
<g id="node14" class="node">
<title>Node14</title>
<g id="a_node14"><a xlink:href="utils_8h.html" target="_top" xlink:title="Utilities.">
<polygon fill="white" stroke="black" points="371.5,-67.5 371.5,-86.5 418.5,-86.5 418.5,-67.5 371.5,-67.5"/>
<text text-anchor="middle" x="395" y="-74.5" font-family="Helvetica,sans-Serif" font-size="10.00">utils.h</text>
</a>
</g>
</g>
<!-- Node1&#45;&gt;Node14 -->
<g id="edge38" class="edge">
<title>Node1&#45;&gt;Node14</title>
<path fill="none" stroke="midnightblue" d="M626.91,-363.03C561.7,-357.54 462.1,-345.52 433,-322 404.63,-299.07 402,-282.48 402,-246 402,-246 402,-246 402,-188 402,-155.88 398.99,-118.6 396.92,-96.73"/>
<polygon fill="midnightblue" stroke="midnightblue" points="400.38,-96.15 395.92,-86.55 393.41,-96.84 400.38,-96.15"/>
</g>
<!-- Node32 -->
<g id="node32" class="node">
<title>Node32</title>
<g id="a_node32"><a xlink:title=" ">
<polygon fill="white" stroke="#bfbfbf" points="945.5,-291.5 945.5,-321.5 1070.5,-321.5 1070.5,-291.5 945.5,-291.5"/>
<text text-anchor="start" x="953.5" y="-309.5" font-family="Helvetica,sans-Serif" font-size="10.00">boost/algorithm/string</text>
<text text-anchor="middle" x="1008" y="-298.5" font-family="Helvetica,sans-Serif" font-size="10.00">/replace.hpp</text>
</a>
</g>
</g>
<!-- Node1&#45;&gt;Node32 -->
<g id="edge39" class="edge">
<title>Node1&#45;&gt;Node32</title>
<path fill="none" stroke="midnightblue" d="M735.59,-358.47C784.1,-350.05 860.32,-336.6 935.22,-322.32"/>
<polygon fill="midnightblue" stroke="midnightblue" points="936.13,-325.71 945.3,-320.39 934.82,-318.83 936.13,-325.71"/>
</g>
<!-- Node4 -->
<g id="node4" class="node">
<title>Node4</title>
<g id="a_node4"><a xlink:href="type__track_8h.html" target="_top" xlink:title="Track data type of variables.">
<polygon fill="white" stroke="black" points="891,-235.5 891,-254.5 1003,-254.5 1003,-235.5 891,-235.5"/>
<text text-anchor="middle" x="947" y="-242.5" font-family="Helvetica,sans-Serif" font-size="10.00">export/type_track.h</text>
</a>
</g>
</g>
<!-- Node3&#45;&gt;Node4 -->
<g id="edge3" class="edge">
<title>Node3&#45;&gt;Node4</title>
<path fill="none" stroke="midnightblue" d="M867.32,-296.98C882.38,-287.34 907.12,-271.52 925.04,-260.05"/>
<polygon fill="midnightblue" stroke="midnightblue" points="927.16,-262.85 933.7,-254.51 923.39,-256.95 927.16,-262.85"/>
</g>
<!-- Node5 -->
<g id="node5" class="node">
<title>Node5</title>
<g id="a_node5"><a xlink:href="type_8h.html" target="_top" xlink:title="Type Specification in Alg.">
<polygon fill="white" stroke="black" points="812,-179.5 812,-198.5 894,-198.5 894,-179.5 812,-179.5"/>
<text text-anchor="middle" x="853" y="-186.5" font-family="Helvetica,sans-Serif" font-size="10.00">export/type.h</text>
</a>
</g>
</g>
<!-- Node4&#45;&gt;Node5 -->
<g id="edge4" class="edge">
<title>Node4&#45;&gt;Node5</title>
<path fill="none" stroke="midnightblue" d="M931.9,-235.32C917.1,-226.82 894.31,-213.73 877.02,-203.8"/>
<polygon fill="midnightblue" stroke="midnightblue" points="878.48,-200.6 868.07,-198.65 874.99,-206.67 878.48,-200.6"/>
</g>
<!-- Node4&#45;&gt;Node8 -->
<g id="edge7" class="edge">
<title>Node4&#45;&gt;Node8</title>
<path fill="none" stroke="midnightblue" d="M905.64,-235.44C859.08,-225.81 783.51,-210.17 734.28,-199.99"/>
<polygon fill="midnightblue" stroke="midnightblue" points="734.69,-196.5 724.19,-197.9 733.27,-203.36 734.69,-196.5"/>
</g>
<!-- Node13 -->
<g id="node13" class="node">
<title>Node13</title>
<g id="a_node13"><a xlink:title=" ">
<polygon fill="white" stroke="#bfbfbf" points="1097,-6 1097,-25 1157,-25 1157,-6 1097,-6"/>
<text text-anchor="middle" x="1127" y="-13" font-family="Helvetica,sans-Serif" font-size="10.00">iostream</text>
</a>
</g>
</g>
<!-- Node4&#45;&gt;Node13 -->
<g id="edge32" class="edge">
<title>Node4&#45;&gt;Node13</title>
<path fill="none" stroke="midnightblue" d="M1003.33,-239.22C1056.61,-233.4 1131.02,-221.43 1149,-199 1187.88,-150.5 1154.86,-70.16 1136.85,-34.5"/>
<polygon fill="midnightblue" stroke="midnightblue" points="1139.78,-32.55 1132.03,-25.32 1133.58,-35.8 1139.78,-32.55"/>
</g>
<!-- Node19 -->
<g id="node19" class="node">
<title>Node19</title>
<g id="a_node19"><a xlink:title=" ">
<polygon fill="white" stroke="#bfbfbf" points="794.5,-6 794.5,-25 841.5,-25 841.5,-6 794.5,-6"/>
<text text-anchor="middle" x="818" y="-13" font-family="Helvetica,sans-Serif" font-size="10.00">vector</text>
</a>
</g>
</g>
<!-- Node4&#45;&gt;Node19 -->
<g id="edge36" class="edge">
<title>Node4&#45;&gt;Node19</title>
<path fill="none" stroke="midnightblue" d="M945.74,-235.29C941.02,-203.58 923.59,-94.7 903,-67 895.24,-56.56 866.87,-40.78 845.02,-29.64"/>
<polygon fill="midnightblue" stroke="midnightblue" points="846.34,-26.39 835.83,-25.04 843.2,-32.65 846.34,-26.39"/>
</g>
<!-- Node29 -->
<g id="node29" class="node">
<title>Node29</title>
<g id="a_node29"><a xlink:title=" ">
<polygon fill="white" stroke="#bfbfbf" points="950.5,-179.5 950.5,-198.5 993.5,-198.5 993.5,-179.5 950.5,-179.5"/>
<text text-anchor="middle" x="972" y="-186.5" font-family="Helvetica,sans-Serif" font-size="10.00">stack</text>
</a>
</g>
</g>
<!-- Node4&#45;&gt;Node29 -->
<g id="edge33" class="edge">
<title>Node4&#45;&gt;Node29</title>
<path fill="none" stroke="midnightblue" d="M951.13,-235.08C954.51,-227.77 959.42,-217.18 963.62,-208.1"/>
<polygon fill="midnightblue" stroke="midnightblue" points="966.92,-209.3 967.95,-198.75 960.57,-206.36 966.92,-209.3"/>
</g>
<!-- Node30 -->
<g id="node30" class="node">
<title>Node30</title>
<g id="a_node30"><a xlink:title=" ">
<polygon fill="white" stroke="#bfbfbf" points="1011.5,-179.5 1011.5,-198.5 1076.5,-198.5 1076.5,-179.5 1011.5,-179.5"/>
<text text-anchor="middle" x="1044" y="-186.5" font-family="Helvetica,sans-Serif" font-size="10.00">stdexcept</text>
</a>
</g>
</g>
<!-- Node4&#45;&gt;Node30 -->
<g id="edge34" class="edge">
<title>Node4&#45;&gt;Node30</title>
<path fill="none" stroke="midnightblue" d="M962.58,-235.32C978,-226.74 1001.81,-213.49 1019.71,-203.52"/>
<polygon fill="midnightblue" stroke="midnightblue" points="1021.42,-206.58 1028.45,-198.65 1018.01,-200.46 1021.42,-206.58"/>
</g>
<!-- Node31 -->
<g id="node31" class="node">
<title>Node31</title>
<g id="a_node31"><a xlink:title=" ">
<polygon fill="white" stroke="#bfbfbf" points="1094.5,-179.5 1094.5,-198.5 1139.5,-198.5 1139.5,-179.5 1094.5,-179.5"/>
<text text-anchor="middle" x="1117" y="-186.5" font-family="Helvetica,sans-Serif" font-size="10.00">utility</text>
</a>
</g>
</g>
<!-- Node4&#45;&gt;Node31 -->
<g id="edge35" class="edge">
<title>Node4&#45;&gt;Node31</title>
<path fill="none" stroke="midnightblue" d="M973.94,-235.44C1003.93,-225.92 1052.39,-210.52 1084.47,-200.33"/>
<polygon fill="midnightblue" stroke="midnightblue" points="1085.8,-203.58 1094.27,-197.22 1083.68,-196.91 1085.8,-203.58"/>
</g>
<!-- Node5&#45;&gt;Node6 -->
<g id="edge5" class="edge">
<title>Node5&#45;&gt;Node6</title>
<path fill="none" stroke="midnightblue" d="M859.03,-179.34C870.35,-162.5 894.4,-123.77 903,-87 907.26,-68.79 899.77,-48.34 892.59,-34.18"/>
<polygon fill="midnightblue" stroke="midnightblue" points="895.47,-32.16 887.58,-25.09 889.34,-35.54 895.47,-32.16"/>
</g>
<!-- Node5&#45;&gt;Node7 -->
<g id="edge6" class="edge">
<title>Node5&#45;&gt;Node7</title>
<path fill="none" stroke="midnightblue" d="M841.27,-179.32C830.16,-171.11 813.26,-158.6 800.02,-148.81"/>
<polygon fill="midnightblue" stroke="midnightblue" points="802.06,-145.97 791.94,-142.83 797.9,-151.59 802.06,-145.97"/>
</g>
<!-- Node9 -->
<g id="node9" class="node">
<title>Node9</title>
<g id="a_node9"><a xlink:href="include_2log_8h.html" target="_top" xlink:title="Log Utilities.">
<polygon fill="white" stroke="black" points="665.5,-123.5 665.5,-142.5 706.5,-142.5 706.5,-123.5 665.5,-123.5"/>
<text text-anchor="middle" x="686" y="-130.5" font-family="Helvetica,sans-Serif" font-size="10.00">log.h</text>
</a>
</g>
</g>
<!-- Node8&#45;&gt;Node9 -->
<g id="edge8" class="edge">
<title>Node8&#45;&gt;Node9</title>
<path fill="none" stroke="midnightblue" d="M686,-179.08C686,-172.01 686,-161.86 686,-152.99"/>
<polygon fill="midnightblue" stroke="midnightblue" points="689.5,-152.75 686,-142.75 682.5,-152.75 689.5,-152.75"/>
</g>
<!-- Node10 -->
<g id="node10" class="node">
<title>Node10</title>
<g id="a_node10"><a xlink:href="meta_8h.html" target="_top" xlink:title="mmCEsim meta data">
<polygon fill="white" stroke="black" points="561.5,-67.5 561.5,-86.5 612.5,-86.5 612.5,-67.5 561.5,-67.5"/>
<text text-anchor="middle" x="587" y="-74.5" font-family="Helvetica,sans-Serif" font-size="10.00">meta.h</text>
</a>
</g>
</g>
<!-- Node9&#45;&gt;Node10 -->
<g id="edge9" class="edge">
<title>Node9&#45;&gt;Node10</title>
<path fill="none" stroke="midnightblue" d="M670.09,-123.32C654.36,-114.74 630.06,-101.49 611.79,-91.52"/>
<polygon fill="midnightblue" stroke="midnightblue" points="613.32,-88.37 602.87,-86.65 609.97,-94.52 613.32,-88.37"/>
</g>
<!-- Node11 -->
<g id="node11" class="node">
<title>Node11</title>
<g id="a_node11"><a xlink:href="term_8h.html" target="_top" xlink:title="Terminal Color and Style Control.">
<polygon fill="white" stroke="black" points="988.5,-67.5 988.5,-86.5 1037.5,-86.5 1037.5,-67.5 988.5,-67.5"/>
<text text-anchor="middle" x="1013" y="-74.5" font-family="Helvetica,sans-Serif" font-size="10.00">term.h</text>
</a>
</g>
</g>
<!-- Node9&#45;&gt;Node11 -->
<g id="edge11" class="edge">
<title>Node9&#45;&gt;Node11</title>
<path fill="none" stroke="midnightblue" d="M706.95,-128.54C761.81,-119.48 910.1,-94.99 978.09,-83.77"/>
<polygon fill="midnightblue" stroke="midnightblue" points="978.99,-87.16 988.28,-82.08 977.84,-80.26 978.99,-87.16"/>
</g>
<!-- Node9&#45;&gt;Node14 -->
<g id="edge15" class="edge">
<title>Node9&#45;&gt;Node14</title>
<path fill="none" stroke="midnightblue" d="M665.07,-128.12C615.28,-118.88 489.41,-95.52 428.73,-84.26"/>
<polygon fill="midnightblue" stroke="midnightblue" points="429.01,-80.75 418.54,-82.37 427.73,-87.63 429.01,-80.75"/>
</g>
<!-- Node24 -->
<g id="node24" class="node">
<title>Node24</title>
<g id="a_node24"><a xlink:title=" ">
<polygon fill="white" stroke="#bfbfbf" points="850,-67.5 850,-86.5 894,-86.5 894,-67.5 850,-67.5"/>
<text text-anchor="middle" x="872" y="-74.5" font-family="Helvetica,sans-Serif" font-size="10.00">ctime</text>
</a>
</g>
</g>
<!-- Node9&#45;&gt;Node24 -->
<g id="edge27" class="edge">
<title>Node9&#45;&gt;Node24</title>
<path fill="none" stroke="midnightblue" d="M706.62,-126.01C739,-116.61 802.04,-98.31 840.24,-87.22"/>
<polygon fill="midnightblue" stroke="midnightblue" points="841.22,-90.58 849.85,-84.43 839.27,-83.86 841.22,-90.58"/>
</g>
<!-- Node25 -->
<g id="node25" class="node">
<title>Node25</title>
<g id="a_node25"><a xlink:title=" ">
<polygon fill="white" stroke="#bfbfbf" points="475,-67.5 475,-86.5 543,-86.5 543,-67.5 475,-67.5"/>
<text text-anchor="middle" x="509" y="-74.5" font-family="Helvetica,sans-Serif" font-size="10.00">filesystem</text>
</a>
</g>
</g>
<!-- Node9&#45;&gt;Node25 -->
<g id="edge28" class="edge">
<title>Node9&#45;&gt;Node25</title>
<path fill="none" stroke="midnightblue" d="M665.35,-125.7C636.34,-116.85 583.03,-100.59 546.81,-89.53"/>
<polygon fill="midnightblue" stroke="midnightblue" points="547.67,-86.14 537.08,-86.57 545.62,-92.83 547.67,-86.14"/>
</g>
<!-- Node26 -->
<g id="node26" class="node">
<title>Node26</title>
<g id="a_node26"><a xlink:title=" ">
<polygon fill="white" stroke="#bfbfbf" points="630.5,-67.5 630.5,-86.5 685.5,-86.5 685.5,-67.5 630.5,-67.5"/>
<text text-anchor="middle" x="658" y="-74.5" font-family="Helvetica,sans-Serif" font-size="10.00">fstream</text>
</a>
</g>
</g>
<!-- Node9&#45;&gt;Node26 -->
<g id="edge29" class="edge">
<title>Node9&#45;&gt;Node26</title>
<path fill="none" stroke="midnightblue" d="M681.38,-123.08C677.54,-115.69 671.98,-104.95 667.24,-95.81"/>
<polygon fill="midnightblue" stroke="midnightblue" points="670.25,-94.02 662.54,-86.75 664.03,-97.24 670.25,-94.02"/>
</g>
<!-- Node27 -->
<g id="node27" class="node">
<title>Node27</title>
<g id="a_node27"><a xlink:title=" ">
<polygon fill="white" stroke="#bfbfbf" points="704,-67.5 704,-86.5 760,-86.5 760,-67.5 704,-67.5"/>
<text text-anchor="middle" x="732" y="-74.5" font-family="Helvetica,sans-Serif" font-size="10.00">iomanip</text>
</a>
</g>
</g>
<!-- Node9&#45;&gt;Node27 -->
<g id="edge30" class="edge">
<title>Node9&#45;&gt;Node27</title>
<path fill="none" stroke="midnightblue" d="M693.6,-123.08C700.23,-115.3 710.02,-103.8 718.06,-94.37"/>
<polygon fill="midnightblue" stroke="midnightblue" points="720.73,-96.63 724.55,-86.75 715.4,-92.09 720.73,-96.63"/>
</g>
<!-- Node28 -->
<g id="node28" class="node">
<title>Node28</title>
<g id="a_node28"><a xlink:title=" ">
<polygon fill="white" stroke="#bfbfbf" points="778.5,-67.5 778.5,-86.5 831.5,-86.5 831.5,-67.5 778.5,-67.5"/>
<text text-anchor="middle" x="805" y="-74.5" font-family="Helvetica,sans-Serif" font-size="10.00">spy.hpp</text>
</a>
</g>
</g>
<!-- Node9&#45;&gt;Node28 -->
<g id="edge31" class="edge">
<title>Node9&#45;&gt;Node28</title>
<path fill="none" stroke="midnightblue" d="M704.86,-123.44C724.27,-114.64 754.73,-100.81 776.96,-90.72"/>
<polygon fill="midnightblue" stroke="midnightblue" points="778.57,-93.84 786.23,-86.52 775.68,-87.46 778.57,-93.84"/>
</g>
<!-- Node10&#45;&gt;Node6 -->
<g id="edge10" class="edge">
<title>Node10&#45;&gt;Node6</title>
<path fill="none" stroke="midnightblue" d="M612.55,-69.13C615.72,-68.37 618.93,-67.63 622,-67 722.9,-46.15 752.47,-61.12 851,-31 852.88,-30.43 854.78,-29.76 856.68,-29.03"/>
<polygon fill="midnightblue" stroke="midnightblue" points="858.12,-32.22 865.93,-25.06 855.36,-25.79 858.12,-32.22"/>
</g>
<!-- Node11&#45;&gt;Node6 -->
<g id="edge14" class="edge">
<title>Node11&#45;&gt;Node6</title>
<path fill="none" stroke="midnightblue" d="M994.23,-67.48C972.15,-57.45 935.28,-40.7 909.86,-29.15"/>
<polygon fill="midnightblue" stroke="midnightblue" points="911.29,-25.96 900.73,-25.01 908.39,-32.33 911.29,-25.96"/>
</g>
<!-- Node12 -->
<g id="node12" class="node">
<title>Node12</title>
<g id="a_node12"><a xlink:title=" ">
<polygon fill="white" stroke="#bfbfbf" points="988.5,-6 988.5,-25 1037.5,-25 1037.5,-6 988.5,-6"/>
<text text-anchor="middle" x="1013" y="-13" font-family="Helvetica,sans-Serif" font-size="10.00">cstdlib</text>
</a>
</g>
</g>
<!-- Node11&#45;&gt;Node12 -->
<g id="edge12" class="edge">
<title>Node11&#45;&gt;Node12</title>
<path fill="none" stroke="midnightblue" d="M1013,-67.48C1013,-59.08 1013,-45.98 1013,-35.16"/>
<polygon fill="midnightblue" stroke="midnightblue" points="1016.5,-35.01 1013,-25.01 1009.5,-35.01 1016.5,-35.01"/>
</g>
<!-- Node11&#45;&gt;Node13 -->
<g id="edge13" class="edge">
<title>Node11&#45;&gt;Node13</title>
<path fill="none" stroke="midnightblue" d="M1029.33,-67.48C1048.21,-57.62 1079.51,-41.29 1101.58,-29.77"/>
<polygon fill="midnightblue" stroke="midnightblue" points="1103.45,-32.74 1110.7,-25.01 1100.21,-26.53 1103.45,-32.74"/>
</g>
<!-- Node14&#45;&gt;Node2 -->
<g id="edge22" class="edge">
<title>Node14&#45;&gt;Node2</title>
<path fill="none" stroke="midnightblue" d="M371.22,-73.23C321.01,-67.18 200.6,-51.69 101,-31 96.18,-30 91.15,-28.84 86.17,-27.62"/>
<polygon fill="midnightblue" stroke="midnightblue" points="86.68,-24.13 76.12,-25.06 84.95,-30.92 86.68,-24.13"/>
</g>
<!-- Node14&#45;&gt;Node6 -->
<g id="edge20" class="edge">
<title>Node14&#45;&gt;Node6</title>
<path fill="none" stroke="midnightblue" d="M418.61,-69.84C423.35,-68.77 428.31,-67.75 433,-67 617.11,-37.43 670.88,-79.24 851,-31 852.94,-30.48 854.9,-29.85 856.85,-29.14"/>
<polygon fill="midnightblue" stroke="midnightblue" points="858.47,-32.26 866.32,-25.14 855.74,-25.81 858.47,-32.26"/>
</g>
<!-- Node15 -->
<g id="node15" class="node">
<title>Node15</title>
<g id="a_node15"><a xlink:title=" ">
<polygon fill="white" stroke="#bfbfbf" points="712,-6 712,-25 776,-25 776,-6 712,-6"/>
<text text-anchor="middle" x="744" y="-13" font-family="Helvetica,sans-Serif" font-size="10.00">algorithm</text>
</a>
</g>
</g>
<!-- Node14&#45;&gt;Node15 -->
<g id="edge16" class="edge">
<title>Node14&#45;&gt;Node15</title>
<path fill="none" stroke="midnightblue" d="M418.64,-70.02C423.38,-68.92 428.33,-67.86 433,-67 552.05,-45.02 585.3,-59.33 703,-31 706.23,-30.22 709.56,-29.28 712.86,-28.26"/>
<polygon fill="midnightblue" stroke="midnightblue" points="714.17,-31.52 722.55,-25.03 711.96,-24.88 714.17,-31.52"/>
</g>
<!-- Node16 -->
<g id="node16" class="node">
<title>Node16</title>
<g id="a_node16"><a xlink:title=" ">
<polygon fill="white" stroke="#bfbfbf" points="110.5,-6 110.5,-25 159.5,-25 159.5,-6 110.5,-6"/>
<text text-anchor="middle" x="135" y="-13" font-family="Helvetica,sans-Serif" font-size="10.00">cctype</text>
</a>
</g>
</g>
<!-- Node14&#45;&gt;Node16 -->
<g id="edge17" class="edge">
<title>Node14&#45;&gt;Node16</title>
<path fill="none" stroke="midnightblue" d="M371.18,-72.91C329.53,-67.14 241.05,-53.27 169,-31 166.86,-30.34 164.67,-29.59 162.48,-28.78"/>
<polygon fill="midnightblue" stroke="midnightblue" points="163.68,-25.49 153.09,-25.03 161.08,-31.99 163.68,-25.49"/>
</g>
<!-- Node17 -->
<g id="node17" class="node">
<title>Node17</title>
<g id="a_node17"><a xlink:title=" ">
<polygon fill="white" stroke="#bfbfbf" points="178,-6 178,-25 232,-25 232,-6 178,-6"/>
<text text-anchor="middle" x="205" y="-13" font-family="Helvetica,sans-Serif" font-size="10.00">random</text>
</a>
</g>
</g>
<!-- Node14&#45;&gt;Node17 -->
<g id="edge18" class="edge">
<title>Node14&#45;&gt;Node17</title>
<path fill="none" stroke="midnightblue" d="M371.29,-69.85C340.85,-61.78 286.53,-46.78 241,-31 239.09,-30.34 237.13,-29.63 235.17,-28.9"/>
<polygon fill="midnightblue" stroke="midnightblue" points="236.02,-25.48 225.43,-25.13 233.49,-32.01 236.02,-25.48"/>
</g>
<!-- Node18 -->
<g id="node18" class="node">
<title>Node18</title>
<g id="a_node18"><a xlink:title=" ">
<polygon fill="white" stroke="#bfbfbf" points="250,-6 250,-25 306,-25 306,-6 250,-6"/>
<text text-anchor="middle" x="278" y="-13" font-family="Helvetica,sans-Serif" font-size="10.00">sstream</text>
</a>
</g>
</g>
<!-- Node14&#45;&gt;Node18 -->
<g id="edge19" class="edge">
<title>Node14&#45;&gt;Node18</title>
<path fill="none" stroke="midnightblue" d="M378.24,-67.48C358.78,-57.58 326.45,-41.14 303.79,-29.62"/>
<polygon fill="midnightblue" stroke="midnightblue" points="305.23,-26.42 294.73,-25.01 302.06,-32.66 305.23,-26.42"/>
</g>
<!-- Node14&#45;&gt;Node19 -->
<g id="edge21" class="edge">
<title>Node14&#45;&gt;Node19</title>
<path fill="none" stroke="midnightblue" d="M418.62,-69.9C423.36,-68.82 428.32,-67.79 433,-67 588.07,-40.82 632.94,-71.12 785,-31 787.3,-30.39 789.64,-29.65 791.96,-28.82"/>
<polygon fill="midnightblue" stroke="midnightblue" points="793.28,-32.06 801.24,-25.07 790.65,-25.57 793.28,-32.06"/>
</g>
<!-- Node20 -->
<g id="node20" class="node">
<title>Node20</title>
<g id="a_node20"><a xlink:title=" ">
<polygon fill="white" stroke="#bfbfbf" points="324.5,-0.5 324.5,-30.5 465.5,-30.5 465.5,-0.5 324.5,-0.5"/>
<text text-anchor="start" x="332.5" y="-18.5" font-family="Helvetica,sans-Serif" font-size="10.00">boost/dll/runtime_symbol</text>
<text text-anchor="middle" x="395" y="-7.5" font-family="Helvetica,sans-Serif" font-size="10.00">_info.hpp</text>
</a>
</g>
</g>
<!-- Node14&#45;&gt;Node20 -->
<g id="edge23" class="edge">
<title>Node14&#45;&gt;Node20</title>
<path fill="none" stroke="midnightblue" d="M395,-67.48C395,-60.47 395,-50.19 395,-40.7"/>
<polygon fill="midnightblue" stroke="midnightblue" points="398.5,-40.52 395,-30.52 391.5,-40.52 398.5,-40.52"/>
</g>
<!-- Node21 -->
<g id="node21" class="node">
<title>Node21</title>
<g id="a_node21"><a xlink:title=" ">
<polygon fill="white" stroke="#bfbfbf" points="484,-6 484,-25 530,-25 530,-6 484,-6"/>
<text text-anchor="middle" x="507" y="-13" font-family="Helvetica,sans-Serif" font-size="10.00">pwd.h</text>
</a>
</g>
</g>
<!-- Node14&#45;&gt;Node21 -->
<g id="edge24" class="edge">
<title>Node14&#45;&gt;Node21</title>
<path fill="none" stroke="midnightblue" d="M411.05,-67.48C429.59,-57.62 460.34,-41.29 482.02,-29.77"/>
<polygon fill="midnightblue" stroke="midnightblue" points="483.79,-32.79 490.98,-25.01 480.51,-26.61 483.79,-32.79"/>
</g>
<!-- Node22 -->
<g id="node22" class="node">
<title>Node22</title>
<g id="a_node22"><a xlink:title=" ">
<polygon fill="white" stroke="#bfbfbf" points="548,-6 548,-25 620,-25 620,-6 548,-6"/>
<text text-anchor="middle" x="584" y="-13" font-family="Helvetica,sans-Serif" font-size="10.00">sys/types.h</text>
</a>
</g>
</g>
<!-- Node14&#45;&gt;Node22 -->
<g id="edge25" class="edge">
<title>Node14&#45;&gt;Node22</title>
<path fill="none" stroke="midnightblue" d="M418.72,-68.66C447.28,-59.8 496.68,-44.43 539,-31 541.79,-30.12 544.67,-29.2 547.57,-28.27"/>
<polygon fill="midnightblue" stroke="midnightblue" points="548.91,-31.51 557.36,-25.13 546.77,-24.85 548.91,-31.51"/>
</g>
<!-- Node23 -->
<g id="node23" class="node">
<title>Node23</title>
<g id="a_node23"><a xlink:title=" ">
<polygon fill="white" stroke="#bfbfbf" points="638,-6 638,-25 694,-25 694,-6 638,-6"/>
<text text-anchor="middle" x="666" y="-13" font-family="Helvetica,sans-Serif" font-size="10.00">unistd.h</text>
</a>
</g>
</g>
<!-- Node14&#45;&gt;Node23 -->
<g id="edge26" class="edge">
<title>Node14&#45;&gt;Node23</title>
<path fill="none" stroke="midnightblue" d="M418.67,-70.2C423.41,-69.09 428.36,-67.98 433,-67 519.68,-48.79 543.82,-55.27 629,-31 631.59,-30.26 634.24,-29.41 636.89,-28.51"/>
<polygon fill="midnightblue" stroke="midnightblue" points="638.1,-31.79 646.27,-25.04 635.68,-25.22 638.1,-31.79"/>
</g>
</g>
</svg>
        <g id="navigator" transform="translate(0 0)" fill="#404254">
                <rect fill="#f2f5e9" fill-opacity="0.5" stroke="#606060" stroke-width=".5" x="0" y="0" width="60" height="60"/>
                <use id="zoomplus" xlink:href="#zoomPlus" x="17" y="9" onmousedown="handleZoom(evt,'in')"/>
                <use id="zoomminus" xlink:href="#zoomMin" x="42" y="9" onmousedown="handleZoom(evt,'out')"/>
                <use id="reset" xlink:href="#resetDef" x="30" y="36" onmousedown="handleReset()"/>
                <g id="arrowUp" xlink:href="#dirArrow" transform="translate(30 24)" onmousedown="handlePan(0,-1)">
                  <use xlink:href="#rim" fill="#404040">
                        <set attributeName="fill" to="#808080" begin="arrowUp.mouseover" end="arrowUp.mouseout"/>
                  </use>
                  <path fill="none" stroke="white" stroke-width="1.5" d="M0,-3.0v7 M-2.5,-0.5L0,-3.0L2.5,-0.5"/>
                </g>
                <g id="arrowRight" xlink:href="#dirArrow" transform="rotate(90) translate(36 -43)" onmousedown="handlePan(1,0)">
                  <use xlink:href="#rim" fill="#404040">
                        <set attributeName="fill" to="#808080" begin="arrowRight.mouseover" end="arrowRight.mouseout"/>
                  </use>
                  <path fill="none" stroke="white" stroke-width="1.5" d="M0,-3.0v7 M-2.5,-0.5L0,-3.0L2.5,-0.5"/>
                </g>
                <g id="arrowDown" xlink:href="#dirArrow" transform="rotate(180) translate(-30 -48)" onmousedown="handlePan(0,1)">
                  <use xlink:href="#rim" fill="#404040">
                        <set attributeName="fill" to="#808080" begin="arrowDown.mouseover" end="arrowDown.mouseout"/>
                  </use>
                  <path fill="none" stroke="white" stroke-width="1.5" d="M0,-3.0v7 M-2.5,-0.5L0,-3.0L2.5,-0.5"/>
                </g>
                <g id="arrowLeft" xlink:href="#dirArrow" transform="rotate(270) translate(-36 17)" onmousedown="handlePan(-1,0)">
                  <use xlink:href="#rim" fill="#404040">
                        <set attributeName="fill" to="#808080" begin="arrowLeft.mouseover" end="arrowLeft.mouseout"/>
                  </use>
                  <path fill="none" stroke="white" stroke-width="1.5" d="M0,-3.0v7 M-2.5,-0.5L0,-3.0L2.5,-0.5"/>
                </g>
        </g>
        <svg viewBox="0 0 15 15" width="100%" height="30px" preserveAspectRatio="xMaxYMin meet">
         <g id="arrow_out" transform="scale(0.3 0.3)">
          <a xlink:href="calc_8h__incl_org.svg" target="_base">
           <rect id="button" ry="5" rx="5" y="6" x="6" height="38" width="38"
                fill="#f2f5e9" fill-opacity="0.5" stroke="#606060" stroke-width="1.0"/>
           <path id="arrow"
             d="M 11.500037,31.436501 C 11.940474,20.09759 22.043105,11.32322 32.158766,21.979434 L 37.068811,17.246167 C 37.068811,17.246167 37.088388,32 37.088388,32 L 22.160133,31.978069 C 22.160133,31.978069 26.997745,27.140456 26.997745,27.140456 C 18.528582,18.264221 13.291696,25.230495 11.500037,31.436501 z"
             style="fill:#404040;"/>
          </a>
         </g>
        </svg>
</svg>
