<?xml version="1.0" encoding="UTF-8" standalone="no"?>
<!DOCTYPE svg PUBLIC "-//W3C//DTD SVG 1.1//EN"
 "http://www.w3.org/Graphics/SVG/1.1/DTD/svg11.dtd">
<!-- Generated by graphviz version 2.43.0 (0)
 -->
<!-- Title: src/export/calc.cpp Pages: 1 -->
<svg width="1333pt" height="442pt"
 viewBox="0.00 0.00 1333.00 442.00" xmlns="http://www.w3.org/2000/svg" xmlns:xlink="http://www.w3.org/1999/xlink">
<g id="graph0" class="graph" transform="scale(1 1) rotate(0) translate(4 438)">
<title>src/export/calc.cpp</title>
<polygon fill="white" stroke="transparent" points="-4,4 -4,-438 1329,-438 1329,4 -4,4"/>
<!-- Node1 -->
<g id="node1" class="node">
<title>Node1</title>
<g id="a_node1"><a xlink:title="Implementation of Calc Class.">
<polygon fill="#bfbfbf" stroke="black" points="1177.5,-414.5 1177.5,-433.5 1285.5,-433.5 1285.5,-414.5 1177.5,-414.5"/>
<text text-anchor="middle" x="1231.5" y="-421.5" font-family="Helvetica,sans-Serif" font-size="10.00">src/export/calc.cpp</text>
</a>
</g>
</g>
<!-- Node2 -->
<g id="node2" class="node">
<title>Node2</title>
<g id="a_node2"><a xlink:href="calc_8h.html" target="_top" xlink:title="Make Calculation in Alg.">
<polygon fill="white" stroke="black" points="921.5,-358.5 921.5,-377.5 1001.5,-377.5 1001.5,-358.5 921.5,-358.5"/>
<text text-anchor="middle" x="961.5" y="-365.5" font-family="Helvetica,sans-Serif" font-size="10.00">export/calc.h</text>
</a>
</g>
</g>
<!-- Node1&#45;&gt;Node2 -->
<g id="edge1" class="edge">
<title>Node1&#45;&gt;Node2</title>
<path fill="none" stroke="midnightblue" d="M1188.72,-414.44C1140.62,-404.82 1062.62,-389.22 1011.69,-379.04"/>
<polygon fill="midnightblue" stroke="midnightblue" points="1012.37,-375.6 1001.88,-377.08 1011,-382.47 1012.37,-375.6"/>
</g>
<!-- Node13 -->
<g id="node13" class="node">
<title>Node13</title>
<g id="a_node13"><a xlink:title=" ">
<polygon fill="white" stroke="#bfbfbf" points="1085.5,-6 1085.5,-25 1145.5,-25 1145.5,-6 1085.5,-6"/>
<text text-anchor="middle" x="1115.5" y="-13" font-family="Helvetica,sans-Serif" font-size="10.00">iostream</text>
</a>
</g>
</g>
<!-- Node1&#45;&gt;Node13 -->
<g id="edge42" class="edge">
<title>Node1&#45;&gt;Node13</title>
<path fill="none" stroke="midnightblue" d="M1231.5,-414.31C1231.5,-395.06 1231.5,-347.4 1231.5,-307.5 1231.5,-307.5 1231.5,-307.5 1231.5,-132 1231.5,-82.9 1178.67,-47.47 1144.32,-29.62"/>
<polygon fill="midnightblue" stroke="midnightblue" points="1145.69,-26.39 1135.18,-25.06 1142.56,-32.66 1145.69,-26.39"/>
</g>
<!-- Node33 -->
<g id="node33" class="node">
<title>Node33</title>
<g id="a_node33"><a xlink:title=" ">
<polygon fill="white" stroke="#bfbfbf" points="1260,-358.5 1260,-377.5 1325,-377.5 1325,-358.5 1260,-358.5"/>
<text text-anchor="middle" x="1292.5" y="-365.5" font-family="Helvetica,sans-Serif" font-size="10.00">exception</text>
</a>
</g>
</g>
<!-- Node1&#45;&gt;Node33 -->
<g id="edge41" class="edge">
<title>Node1&#45;&gt;Node33</title>
<path fill="none" stroke="midnightblue" d="M1241.3,-414.32C1250.32,-406.34 1263.91,-394.31 1274.82,-384.65"/>
<polygon fill="midnightblue" stroke="midnightblue" points="1277.35,-387.08 1282.52,-377.83 1272.71,-381.84 1277.35,-387.08"/>
</g>
<!-- Node3 -->
<g id="node3" class="node">
<title>Node3</title>
<g id="a_node3"><a xlink:href="type__track__global_8h.html" target="_top" xlink:title="Global Access of Type Track.">
<polygon fill="white" stroke="black" points="756,-297 756,-316 903,-316 903,-297 756,-297"/>
<text text-anchor="middle" x="829.5" y="-304" font-family="Helvetica,sans-Serif" font-size="10.00">export/type_track_global.h</text>
</a>
</g>
</g>
<!-- Node2&#45;&gt;Node3 -->
<g id="edge2" class="edge">
<title>Node2&#45;&gt;Node3</title>
<path fill="none" stroke="midnightblue" d="M942.59,-358.48C920.34,-348.45 883.19,-331.7 857.57,-320.15"/>
<polygon fill="midnightblue" stroke="midnightblue" points="858.93,-316.93 848.38,-316.01 856.06,-323.31 858.93,-316.93"/>
</g>
<!-- Node6 -->
<g id="node6" class="node">
<title>Node6</title>
<g id="a_node6"><a xlink:title=" ">
<polygon fill="white" stroke="#bfbfbf" points="939.5,-6 939.5,-25 983.5,-25 983.5,-6 939.5,-6"/>
<text text-anchor="middle" x="961.5" y="-13" font-family="Helvetica,sans-Serif" font-size="10.00">string</text>
</a>
</g>
</g>
<!-- Node2&#45;&gt;Node6 -->
<g id="edge39" class="edge">
<title>Node2&#45;&gt;Node6</title>
<path fill="none" stroke="midnightblue" d="M961.5,-358.49C961.5,-338.74 961.5,-288.22 961.5,-246 961.5,-246 961.5,-246 961.5,-132 961.5,-97.86 961.5,-58.05 961.5,-35.21"/>
<polygon fill="midnightblue" stroke="midnightblue" points="965,-35.19 961.5,-25.19 958,-35.19 965,-35.19"/>
</g>
<!-- Node7 -->
<g id="node7" class="node">
<title>Node7</title>
<g id="a_node7"><a xlink:title=" ">
<polygon fill="white" stroke="#bfbfbf" points="1054,-123.5 1054,-142.5 1095,-142.5 1095,-123.5 1054,-123.5"/>
<text text-anchor="middle" x="1074.5" y="-130.5" font-family="Helvetica,sans-Serif" font-size="10.00">tuple</text>
</a>
</g>
</g>
<!-- Node2&#45;&gt;Node7 -->
<g id="edge40" class="edge">
<title>Node2&#45;&gt;Node7</title>
<path fill="none" stroke="midnightblue" d="M970.79,-358.31C994.72,-335.19 1058.17,-269.16 1080.5,-199 1085.33,-183.81 1083.05,-165.7 1080,-152.45"/>
<polygon fill="midnightblue" stroke="midnightblue" points="1083.35,-151.42 1077.41,-142.65 1076.58,-153.21 1083.35,-151.42"/>
</g>
<!-- Node8 -->
<g id="node8" class="node">
<title>Node8</title>
<g id="a_node8"><a xlink:href="log__global_8h.html" target="_top" xlink:title="Global Access of Log.">
<polygon fill="white" stroke="black" points="611.5,-179.5 611.5,-198.5 687.5,-198.5 687.5,-179.5 611.5,-179.5"/>
<text text-anchor="middle" x="649.5" y="-186.5" font-family="Helvetica,sans-Serif" font-size="10.00">log_global.h</text>
</a>
</g>
</g>
<!-- Node2&#45;&gt;Node8 -->
<g id="edge36" class="edge">
<title>Node2&#45;&gt;Node8</title>
<path fill="none" stroke="midnightblue" d="M921.44,-366.98C875.68,-365.16 800.22,-356.56 746.5,-322 702.19,-293.5 671.22,-237.12 657.48,-208.14"/>
<polygon fill="midnightblue" stroke="midnightblue" points="660.55,-206.44 653.2,-198.81 654.19,-209.36 660.55,-206.44"/>
</g>
<!-- Node14 -->
<g id="node14" class="node">
<title>Node14</title>
<g id="a_node14"><a xlink:href="utils_8h.html" target="_top" xlink:title="Utilities.">
<polygon fill="white" stroke="black" points="411,-67.5 411,-86.5 458,-86.5 458,-67.5 411,-67.5"/>
<text text-anchor="middle" x="434.5" y="-74.5" font-family="Helvetica,sans-Serif" font-size="10.00">utils.h</text>
</a>
</g>
</g>
<!-- Node2&#45;&gt;Node14 -->
<g id="edge37" class="edge">
<title>Node2&#45;&gt;Node14</title>
<path fill="none" stroke="midnightblue" d="M921.13,-366.22C798.95,-362.8 441.5,-344.37 441.5,-246 441.5,-246 441.5,-246 441.5,-188 441.5,-155.88 438.49,-118.6 436.42,-96.73"/>
<polygon fill="midnightblue" stroke="midnightblue" points="439.88,-96.15 435.42,-86.55 432.91,-96.84 439.88,-96.15"/>
</g>
<!-- Node32 -->
<g id="node32" class="node">
<title>Node32</title>
<g id="a_node32"><a xlink:title=" ">
<polygon fill="white" stroke="#bfbfbf" points="1078,-291.5 1078,-321.5 1203,-321.5 1203,-291.5 1078,-291.5"/>
<text text-anchor="start" x="1086" y="-309.5" font-family="Helvetica,sans-Serif" font-size="10.00">boost/algorithm/string</text>
<text text-anchor="middle" x="1140.5" y="-298.5" font-family="Helvetica,sans-Serif" font-size="10.00">/replace.hpp</text>
</a>
</g>
</g>
<!-- Node2&#45;&gt;Node32 -->
<g id="edge38" class="edge">
<title>Node2&#45;&gt;Node32</title>
<path fill="none" stroke="midnightblue" d="M987.15,-358.48C1013.54,-349.7 1055.4,-335.79 1088.72,-324.71"/>
<polygon fill="midnightblue" stroke="midnightblue" points="1089.93,-328 1098.31,-321.52 1087.72,-321.36 1089.93,-328"/>
</g>
<!-- Node4 -->
<g id="node4" class="node">
<title>Node4</title>
<g id="a_node4"><a xlink:href="type__track_8h.html" target="_top" xlink:title="Track data type of variables.">
<polygon fill="white" stroke="black" points="758.5,-235.5 758.5,-254.5 870.5,-254.5 870.5,-235.5 758.5,-235.5"/>
<text text-anchor="middle" x="814.5" y="-242.5" font-family="Helvetica,sans-Serif" font-size="10.00">export/type_track.h</text>
</a>
</g>
</g>
<!-- Node3&#45;&gt;Node4 -->
<g id="edge3" class="edge">
<title>Node3&#45;&gt;Node4</title>
<path fill="none" stroke="midnightblue" d="M827.35,-296.98C825.21,-288.49 821.86,-275.2 819.12,-264.32"/>
<polygon fill="midnightblue" stroke="midnightblue" points="822.48,-263.35 816.65,-254.51 815.7,-265.06 822.48,-263.35"/>
</g>
<!-- Node5 -->
<g id="node5" class="node">
<title>Node5</title>
<g id="a_node5"><a xlink:href="type_8h.html" target="_top" xlink:title="Type Specification in Alg.">
<polygon fill="white" stroke="black" points="989.5,-179.5 989.5,-198.5 1071.5,-198.5 1071.5,-179.5 989.5,-179.5"/>
<text text-anchor="middle" x="1030.5" y="-186.5" font-family="Helvetica,sans-Serif" font-size="10.00">export/type.h</text>
</a>
</g>
</g>
<!-- Node4&#45;&gt;Node5 -->
<g id="edge4" class="edge">
<title>Node4&#45;&gt;Node5</title>
<path fill="none" stroke="midnightblue" d="M848.73,-235.44C886.01,-226.12 945.77,-211.18 986.51,-201"/>
<polygon fill="midnightblue" stroke="midnightblue" points="987.58,-204.34 996.43,-198.52 985.88,-197.55 987.58,-204.34"/>
</g>
<!-- Node4&#45;&gt;Node8 -->
<g id="edge7" class="edge">
<title>Node4&#45;&gt;Node8</title>
<path fill="none" stroke="midnightblue" d="M788.36,-235.44C760.48,-226.32 716.15,-211.81 685.1,-201.65"/>
<polygon fill="midnightblue" stroke="midnightblue" points="686.12,-198.3 675.52,-198.52 683.94,-204.95 686.12,-198.3"/>
</g>
<!-- Node4&#45;&gt;Node13 -->
<g id="edge31" class="edge">
<title>Node4&#45;&gt;Node13</title>
<path fill="none" stroke="midnightblue" d="M832.91,-235.4C887.84,-209.42 1049.09,-130.88 1086.5,-87 1099.35,-71.93 1107.09,-50.38 1111.3,-35.08"/>
<polygon fill="midnightblue" stroke="midnightblue" points="1114.73,-35.78 1113.76,-25.23 1107.94,-34.08 1114.73,-35.78"/>
</g>
<!-- Node19 -->
<g id="node19" class="node">
<title>Node19</title>
<g id="a_node19"><a xlink:title=" ">
<polygon fill="white" stroke="#bfbfbf" points="684,-6 684,-25 731,-25 731,-6 684,-6"/>
<text text-anchor="middle" x="707.5" y="-13" font-family="Helvetica,sans-Serif" font-size="10.00">vector</text>
</a>
</g>
</g>
<!-- Node4&#45;&gt;Node19 -->
<g id="edge35" class="edge">
<title>Node4&#45;&gt;Node19</title>
<path fill="none" stroke="midnightblue" d="M758.29,-241.8C713.39,-237.85 650.3,-227.2 602.5,-199 545.79,-165.53 528.51,-148.7 505.5,-87 470.08,8.01 602.5,-54.22 674.5,-31 676.42,-30.38 678.38,-29.69 680.34,-28.95"/>
<polygon fill="midnightblue" stroke="midnightblue" points="682.02,-32.04 689.95,-25.01 679.37,-25.56 682.02,-32.04"/>
</g>
<!-- Node29 -->
<g id="node29" class="node">
<title>Node29</title>
<g id="a_node29"><a xlink:title=" ">
<polygon fill="white" stroke="#bfbfbf" points="706,-179.5 706,-198.5 749,-198.5 749,-179.5 706,-179.5"/>
<text text-anchor="middle" x="727.5" y="-186.5" font-family="Helvetica,sans-Serif" font-size="10.00">stack</text>
</a>
</g>
</g>
<!-- Node4&#45;&gt;Node29 -->
<g id="edge32" class="edge">
<title>Node4&#45;&gt;Node29</title>
<path fill="none" stroke="midnightblue" d="M800.52,-235.32C786.95,-226.9 766.12,-213.97 750.18,-204.07"/>
<polygon fill="midnightblue" stroke="midnightblue" points="751.79,-200.95 741.44,-198.65 748.09,-206.9 751.79,-200.95"/>
</g>
<!-- Node30 -->
<g id="node30" class="node">
<title>Node30</title>
<g id="a_node30"><a xlink:title=" ">
<polygon fill="white" stroke="#bfbfbf" points="767,-179.5 767,-198.5 832,-198.5 832,-179.5 767,-179.5"/>
<text text-anchor="middle" x="799.5" y="-186.5" font-family="Helvetica,sans-Serif" font-size="10.00">stdexcept</text>
</a>
</g>
</g>
<!-- Node4&#45;&gt;Node30 -->
<g id="edge33" class="edge">
<title>Node4&#45;&gt;Node30</title>
<path fill="none" stroke="midnightblue" d="M812.02,-235.08C810.01,-227.85 807.11,-217.41 804.61,-208.4"/>
<polygon fill="midnightblue" stroke="midnightblue" points="807.98,-207.45 801.93,-198.75 801.24,-209.32 807.98,-207.45"/>
</g>
<!-- Node31 -->
<g id="node31" class="node">
<title>Node31</title>
<g id="a_node31"><a xlink:title=" ">
<polygon fill="white" stroke="#bfbfbf" points="850,-179.5 850,-198.5 895,-198.5 895,-179.5 850,-179.5"/>
<text text-anchor="middle" x="872.5" y="-186.5" font-family="Helvetica,sans-Serif" font-size="10.00">utility</text>
</a>
</g>
</g>
<!-- Node4&#45;&gt;Node31 -->
<g id="edge34" class="edge">
<title>Node4&#45;&gt;Node31</title>
<path fill="none" stroke="midnightblue" d="M823.82,-235.32C832.39,-227.34 845.31,-215.31 855.69,-205.65"/>
<polygon fill="midnightblue" stroke="midnightblue" points="858.08,-208.21 863.01,-198.83 853.31,-203.09 858.08,-208.21"/>
</g>
<!-- Node5&#45;&gt;Node6 -->
<g id="edge5" class="edge">
<title>Node5&#45;&gt;Node6</title>
<path fill="none" stroke="midnightblue" d="M1026.98,-179.26C1016.19,-152.42 983.35,-70.82 968.7,-34.39"/>
<polygon fill="midnightblue" stroke="midnightblue" points="971.91,-32.99 964.93,-25.02 965.41,-35.6 971.91,-32.99"/>
</g>
<!-- Node5&#45;&gt;Node7 -->
<g id="edge6" class="edge">
<title>Node5&#45;&gt;Node7</title>
<path fill="none" stroke="midnightblue" d="M1037.77,-179.08C1044.04,-171.38 1053.29,-160.03 1060.93,-150.65"/>
<polygon fill="midnightblue" stroke="midnightblue" points="1063.77,-152.71 1067.37,-142.75 1058.34,-148.29 1063.77,-152.71"/>
</g>
<!-- Node9 -->
<g id="node9" class="node">
<title>Node9</title>
<g id="a_node9"><a xlink:href="include_2log_8h.html" target="_top" xlink:title="Log Utilities.">
<polygon fill="white" stroke="black" points="670,-123.5 670,-142.5 711,-142.5 711,-123.5 670,-123.5"/>
<text text-anchor="middle" x="690.5" y="-130.5" font-family="Helvetica,sans-Serif" font-size="10.00">log.h</text>
</a>
</g>
</g>
<!-- Node8&#45;&gt;Node9 -->
<g id="edge8" class="edge">
<title>Node8&#45;&gt;Node9</title>
<path fill="none" stroke="midnightblue" d="M656.27,-179.08C662.06,-171.46 670.56,-160.26 677.64,-150.94"/>
<polygon fill="midnightblue" stroke="midnightblue" points="680.6,-152.83 683.86,-142.75 675.02,-148.6 680.6,-152.83"/>
</g>
<!-- Node10 -->
<g id="node10" class="node">
<title>Node10</title>
<g id="a_node10"><a xlink:href="meta_8h.html" target="_top" xlink:title="mmCEsim meta data">
<polygon fill="white" stroke="black" points="882,-67.5 882,-86.5 933,-86.5 933,-67.5 882,-67.5"/>
<text text-anchor="middle" x="907.5" y="-74.5" font-family="Helvetica,sans-Serif" font-size="10.00">meta.h</text>
</a>
</g>
</g>
<!-- Node9&#45;&gt;Node10 -->
<g id="edge9" class="edge">
<title>Node9&#45;&gt;Node10</title>
<path fill="none" stroke="midnightblue" d="M711.26,-126.93C743.42,-119.07 807.45,-103.36 871.96,-87.12"/>
<polygon fill="midnightblue" stroke="midnightblue" points="873.05,-90.45 881.89,-84.61 871.34,-83.66 873.05,-90.45"/>
</g>
<!-- Node11 -->
<g id="node11" class="node">
<title>Node11</title>
<g id="a_node11"><a xlink:href="term_8h.html" target="_top" xlink:title="Terminal Color and Style Control.">
<polygon fill="white" stroke="black" points="1028,-67.5 1028,-86.5 1077,-86.5 1077,-67.5 1028,-67.5"/>
<text text-anchor="middle" x="1052.5" y="-74.5" font-family="Helvetica,sans-Serif" font-size="10.00">term.h</text>
</a>
</g>
</g>
<!-- Node9&#45;&gt;Node11 -->
<g id="edge11" class="edge">
<title>Node9&#45;&gt;Node11</title>
<path fill="none" stroke="midnightblue" d="M711.26,-128.9C770.83,-120.02 942.78,-94.37 1017.33,-83.25"/>
<polygon fill="midnightblue" stroke="midnightblue" points="1018.23,-86.65 1027.6,-81.71 1017.19,-79.73 1018.23,-86.65"/>
</g>
<!-- Node9&#45;&gt;Node14 -->
<g id="edge15" class="edge">
<title>Node9&#45;&gt;Node14</title>
<path fill="none" stroke="midnightblue" d="M669.98,-127.67C625.94,-118.38 521.96,-96.45 468.12,-85.09"/>
<polygon fill="midnightblue" stroke="midnightblue" points="468.56,-81.61 458.05,-82.97 467.11,-88.46 468.56,-81.61"/>
</g>
<!-- Node24 -->
<g id="node24" class="node">
<title>Node24</title>
<g id="a_node24"><a xlink:title=" ">
<polygon fill="white" stroke="#bfbfbf" points="514.5,-67.5 514.5,-86.5 558.5,-86.5 558.5,-67.5 514.5,-67.5"/>
<text text-anchor="middle" x="536.5" y="-74.5" font-family="Helvetica,sans-Serif" font-size="10.00">ctime</text>
</a>
</g>
</g>
<!-- Node9&#45;&gt;Node24 -->
<g id="edge26" class="edge">
<title>Node9&#45;&gt;Node24</title>
<path fill="none" stroke="midnightblue" d="M669.73,-124.72C643.69,-115.59 598.79,-99.84 568.39,-89.18"/>
<polygon fill="midnightblue" stroke="midnightblue" points="569.28,-85.78 558.68,-85.78 566.96,-92.39 569.28,-85.78"/>
</g>
<!-- Node25 -->
<g id="node25" class="node">
<title>Node25</title>
<g id="a_node25"><a xlink:title=" ">
<polygon fill="white" stroke="#bfbfbf" points="576.5,-67.5 576.5,-86.5 644.5,-86.5 644.5,-67.5 576.5,-67.5"/>
<text text-anchor="middle" x="610.5" y="-74.5" font-family="Helvetica,sans-Serif" font-size="10.00">filesystem</text>
</a>
</g>
</g>
<!-- Node9&#45;&gt;Node25 -->
<g id="edge27" class="edge">
<title>Node9&#45;&gt;Node25</title>
<path fill="none" stroke="midnightblue" d="M677.65,-123.32C665.28,-114.98 646.37,-102.21 631.76,-92.35"/>
<polygon fill="midnightblue" stroke="midnightblue" points="633.57,-89.35 623.32,-86.65 629.65,-95.15 633.57,-89.35"/>
</g>
<!-- Node26 -->
<g id="node26" class="node">
<title>Node26</title>
<g id="a_node26"><a xlink:title=" ">
<polygon fill="white" stroke="#bfbfbf" points="663,-67.5 663,-86.5 718,-86.5 718,-67.5 663,-67.5"/>
<text text-anchor="middle" x="690.5" y="-74.5" font-family="Helvetica,sans-Serif" font-size="10.00">fstream</text>
</a>
</g>
</g>
<!-- Node9&#45;&gt;Node26 -->
<g id="edge28" class="edge">
<title>Node9&#45;&gt;Node26</title>
<path fill="none" stroke="midnightblue" d="M690.5,-123.08C690.5,-116.01 690.5,-105.86 690.5,-96.99"/>
<polygon fill="midnightblue" stroke="midnightblue" points="694,-96.75 690.5,-86.75 687,-96.75 694,-96.75"/>
</g>
<!-- Node27 -->
<g id="node27" class="node">
<title>Node27</title>
<g id="a_node27"><a xlink:title=" ">
<polygon fill="white" stroke="#bfbfbf" points="736.5,-67.5 736.5,-86.5 792.5,-86.5 792.5,-67.5 736.5,-67.5"/>
<text text-anchor="middle" x="764.5" y="-74.5" font-family="Helvetica,sans-Serif" font-size="10.00">iomanip</text>
</a>
</g>
</g>
<!-- Node9&#45;&gt;Node27 -->
<g id="edge29" class="edge">
<title>Node9&#45;&gt;Node27</title>
<path fill="none" stroke="midnightblue" d="M702.39,-123.32C713.65,-115.11 730.79,-102.6 744.21,-92.81"/>
<polygon fill="midnightblue" stroke="midnightblue" points="746.38,-95.56 752.39,-86.83 742.25,-89.9 746.38,-95.56"/>
</g>
<!-- Node28 -->
<g id="node28" class="node">
<title>Node28</title>
<g id="a_node28"><a xlink:title=" ">
<polygon fill="white" stroke="#bfbfbf" points="811,-67.5 811,-86.5 864,-86.5 864,-67.5 811,-67.5"/>
<text text-anchor="middle" x="837.5" y="-74.5" font-family="Helvetica,sans-Serif" font-size="10.00">spy.hpp</text>
</a>
</g>
</g>
<!-- Node9&#45;&gt;Node28 -->
<g id="edge30" class="edge">
<title>Node9&#45;&gt;Node28</title>
<path fill="none" stroke="midnightblue" d="M711.25,-124.38C735.46,-115.48 775.81,-100.66 804.37,-90.17"/>
<polygon fill="midnightblue" stroke="midnightblue" points="805.76,-93.39 813.94,-86.65 803.35,-86.82 805.76,-93.39"/>
</g>
<!-- Node10&#45;&gt;Node6 -->
<g id="edge10" class="edge">
<title>Node10&#45;&gt;Node6</title>
<path fill="none" stroke="midnightblue" d="M915.24,-67.48C923.5,-58.37 936.78,-43.74 946.99,-32.48"/>
<polygon fill="midnightblue" stroke="midnightblue" points="949.65,-34.77 953.78,-25.01 944.47,-30.06 949.65,-34.77"/>
</g>
<!-- Node11&#45;&gt;Node6 -->
<g id="edge14" class="edge">
<title>Node11&#45;&gt;Node6</title>
<path fill="none" stroke="midnightblue" d="M1039.46,-67.48C1024.73,-57.84 1000.53,-42.02 982.99,-30.55"/>
<polygon fill="midnightblue" stroke="midnightblue" points="984.8,-27.55 974.51,-25.01 980.97,-33.41 984.8,-27.55"/>
</g>
<!-- Node12 -->
<g id="node12" class="node">
<title>Node12</title>
<g id="a_node12"><a xlink:title=" ">
<polygon fill="white" stroke="#bfbfbf" points="1018,-6 1018,-25 1067,-25 1067,-6 1018,-6"/>
<text text-anchor="middle" x="1042.5" y="-13" font-family="Helvetica,sans-Serif" font-size="10.00">cstdlib</text>
</a>
</g>
</g>
<!-- Node11&#45;&gt;Node12 -->
<g id="edge12" class="edge">
<title>Node11&#45;&gt;Node12</title>
<path fill="none" stroke="midnightblue" d="M1051.07,-67.48C1049.66,-59.08 1047.45,-45.98 1045.64,-35.16"/>
<polygon fill="midnightblue" stroke="midnightblue" points="1049.04,-34.29 1043.93,-25.01 1042.14,-35.45 1049.04,-34.29"/>
</g>
<!-- Node11&#45;&gt;Node13 -->
<g id="edge13" class="edge">
<title>Node11&#45;&gt;Node13</title>
<path fill="none" stroke="midnightblue" d="M1061.53,-67.48C1071.26,-58.28 1086.96,-43.46 1098.92,-32.16"/>
<polygon fill="midnightblue" stroke="midnightblue" points="1101.62,-34.42 1106.49,-25.01 1096.82,-29.33 1101.62,-34.42"/>
</g>
<!-- Node14&#45;&gt;Node6 -->
<g id="edge20" class="edge">
<title>Node14&#45;&gt;Node6</title>
<path fill="none" stroke="midnightblue" d="M458.16,-72.91C471.96,-71.13 489.71,-68.88 505.5,-67 664.19,-48.16 854.23,-27.83 929.01,-19.92"/>
<polygon fill="midnightblue" stroke="midnightblue" points="929.61,-23.38 939.18,-18.85 928.87,-16.42 929.61,-23.38"/>
</g>
<!-- Node15 -->
<g id="node15" class="node">
<title>Node15</title>
<g id="a_node15"><a xlink:title=" ">
<polygon fill="white" stroke="#bfbfbf" points="601.5,-6 601.5,-25 665.5,-25 665.5,-6 601.5,-6"/>
<text text-anchor="middle" x="633.5" y="-13" font-family="Helvetica,sans-Serif" font-size="10.00">algorithm</text>
</a>
</g>
</g>
<!-- Node14&#45;&gt;Node15 -->
<g id="edge16" class="edge">
<title>Node14&#45;&gt;Node15</title>
<path fill="none" stroke="midnightblue" d="M458.19,-69.75C489.22,-61.45 545.22,-46.08 592.5,-31 595.11,-30.17 597.8,-29.28 600.5,-28.37"/>
<polygon fill="midnightblue" stroke="midnightblue" points="601.86,-31.61 610.17,-25.03 599.57,-24.99 601.86,-31.61"/>
</g>
<!-- Node16 -->
<g id="node16" class="node">
<title>Node16</title>
<g id="a_node16"><a xlink:title=" ">
<polygon fill="white" stroke="#bfbfbf" points="0,-6 0,-25 49,-25 49,-6 0,-6"/>
<text text-anchor="middle" x="24.5" y="-13" font-family="Helvetica,sans-Serif" font-size="10.00">cctype</text>
</a>
</g>
</g>
<!-- Node14&#45;&gt;Node16 -->
<g id="edge17" class="edge">
<title>Node14&#45;&gt;Node16</title>
<path fill="none" stroke="midnightblue" d="M410.74,-75.48C350.7,-73.68 188.39,-65.71 58.5,-31 56.15,-30.37 53.74,-29.61 51.36,-28.77"/>
<polygon fill="midnightblue" stroke="midnightblue" points="52.4,-25.42 41.81,-25 49.83,-31.93 52.4,-25.42"/>
</g>
<!-- Node17 -->
<g id="node17" class="node">
<title>Node17</title>
<g id="a_node17"><a xlink:title=" ">
<polygon fill="white" stroke="#bfbfbf" points="67.5,-6 67.5,-25 121.5,-25 121.5,-6 67.5,-6"/>
<text text-anchor="middle" x="94.5" y="-13" font-family="Helvetica,sans-Serif" font-size="10.00">random</text>
</a>
</g>
</g>
<!-- Node14&#45;&gt;Node17 -->
<g id="edge18" class="edge">
<title>Node14&#45;&gt;Node17</title>
<path fill="none" stroke="midnightblue" d="M410.85,-74.41C359.19,-70.51 232.71,-58.73 130.5,-31 128,-30.32 125.43,-29.52 122.88,-28.64"/>
<polygon fill="midnightblue" stroke="midnightblue" points="123.86,-25.27 113.27,-25.03 121.4,-31.83 123.86,-25.27"/>
</g>
<!-- Node18 -->
<g id="node18" class="node">
<title>Node18</title>
<g id="a_node18"><a xlink:title=" ">
<polygon fill="white" stroke="#bfbfbf" points="139.5,-6 139.5,-25 195.5,-25 195.5,-6 139.5,-6"/>
<text text-anchor="middle" x="167.5" y="-13" font-family="Helvetica,sans-Serif" font-size="10.00">sstream</text>
</a>
</g>
</g>
<!-- Node14&#45;&gt;Node18 -->
<g id="edge19" class="edge">
<title>Node14&#45;&gt;Node18</title>
<path fill="none" stroke="midnightblue" d="M410.99,-72.83C368.99,-66.86 278.53,-52.56 204.5,-31 202.07,-30.29 199.57,-29.49 197.07,-28.63"/>
<polygon fill="midnightblue" stroke="midnightblue" points="198.22,-25.32 187.63,-25.15 195.8,-31.89 198.22,-25.32"/>
</g>
<!-- Node14&#45;&gt;Node19 -->
<g id="edge21" class="edge">
<title>Node14&#45;&gt;Node19</title>
<path fill="none" stroke="midnightblue" d="M458.17,-70.18C462.91,-69.07 467.85,-67.96 472.5,-67 561.79,-48.48 587.25,-57.53 674.5,-31 676.43,-30.41 678.4,-29.74 680.36,-29.02"/>
<polygon fill="midnightblue" stroke="midnightblue" points="682.03,-32.12 689.98,-25.12 679.4,-25.64 682.03,-32.12"/>
</g>
<!-- Node20 -->
<g id="node20" class="node">
<title>Node20</title>
<g id="a_node20"><a xlink:title=" ">
<polygon fill="white" stroke="#bfbfbf" points="214,-0.5 214,-30.5 355,-30.5 355,-0.5 214,-0.5"/>
<text text-anchor="start" x="222" y="-18.5" font-family="Helvetica,sans-Serif" font-size="10.00">boost/dll/runtime_symbol</text>
<text text-anchor="middle" x="284.5" y="-7.5" font-family="Helvetica,sans-Serif" font-size="10.00">_info.hpp</text>
</a>
</g>
</g>
<!-- Node14&#45;&gt;Node20 -->
<g id="edge22" class="edge">
<title>Node14&#45;&gt;Node20</title>
<path fill="none" stroke="midnightblue" d="M413.01,-67.48C391.27,-58.85 357.01,-45.26 329.34,-34.29"/>
<polygon fill="midnightblue" stroke="midnightblue" points="330.44,-30.96 319.85,-30.52 327.86,-37.46 330.44,-30.96"/>
</g>
<!-- Node21 -->
<g id="node21" class="node">
<title>Node21</title>
<g id="a_node21"><a xlink:title=" ">
<polygon fill="white" stroke="#bfbfbf" points="373.5,-6 373.5,-25 419.5,-25 419.5,-6 373.5,-6"/>
<text text-anchor="middle" x="396.5" y="-13" font-family="Helvetica,sans-Serif" font-size="10.00">pwd.h</text>
</a>
</g>
</g>
<!-- Node14&#45;&gt;Node21 -->
<g id="edge23" class="edge">
<title>Node14&#45;&gt;Node21</title>
<path fill="none" stroke="midnightblue" d="M429.06,-67.48C423.41,-58.64 414.44,-44.59 407.34,-33.48"/>
<polygon fill="midnightblue" stroke="midnightblue" points="410.27,-31.55 401.93,-25.01 404.37,-35.32 410.27,-31.55"/>
</g>
<!-- Node22 -->
<g id="node22" class="node">
<title>Node22</title>
<g id="a_node22"><a xlink:title=" ">
<polygon fill="white" stroke="#bfbfbf" points="437.5,-6 437.5,-25 509.5,-25 509.5,-6 437.5,-6"/>
<text text-anchor="middle" x="473.5" y="-13" font-family="Helvetica,sans-Serif" font-size="10.00">sys/types.h</text>
</a>
</g>
</g>
<!-- Node14&#45;&gt;Node22 -->
<g id="edge24" class="edge">
<title>Node14&#45;&gt;Node22</title>
<path fill="none" stroke="midnightblue" d="M440.09,-67.48C445.88,-58.64 455.09,-44.59 462.37,-33.48"/>
<polygon fill="midnightblue" stroke="midnightblue" points="465.37,-35.29 467.92,-25.01 459.51,-31.45 465.37,-35.29"/>
</g>
<!-- Node23 -->
<g id="node23" class="node">
<title>Node23</title>
<g id="a_node23"><a xlink:title=" ">
<polygon fill="white" stroke="#bfbfbf" points="527.5,-6 527.5,-25 583.5,-25 583.5,-6 527.5,-6"/>
<text text-anchor="middle" x="555.5" y="-13" font-family="Helvetica,sans-Serif" font-size="10.00">unistd.h</text>
</a>
</g>
</g>
<!-- Node14&#45;&gt;Node23 -->
<g id="edge25" class="edge">
<title>Node14&#45;&gt;Node23</title>
<path fill="none" stroke="midnightblue" d="M451.84,-67.48C472.05,-57.53 505.69,-40.99 529.14,-29.46"/>
<polygon fill="midnightblue" stroke="midnightblue" points="530.77,-32.56 538.2,-25.01 527.68,-26.28 530.77,-32.56"/>
</g>
</g>
</svg>
