<?xml version="1.0" encoding="UTF-8" standalone="no"?>
<!DOCTYPE svg PUBLIC "-//W3C//DTD SVG 1.1//EN"
 "http://www.w3.org/Graphics/SVG/1.1/DTD/svg11.dtd">
<!-- Generated by graphviz version 2.43.0 (0)
 -->
<!-- Title: include/export/calc.h Pages: 1 -->
<!--zoomable 386 -->
<svg id="main" version="1.1" xmlns="http://www.w3.org/2000/svg" xmlns:xlink="http://www.w3.org/1999/xlink" xml:space="preserve" onload="init(evt)">
<style type="text/css"><![CDATA[
.edge:hover path { stroke: red; }
.edge:hover polygon { stroke: red; fill: red; }
]]></style>
<script type="text/javascript"><![CDATA[
var edges = document.getElementsByTagName('g');
if (edges && edges.length) {
  for (var i=0;i<edges.length;i++) {
    if (edges[i].id.substr(0,4)=='edge') {
      edges[i].setAttribute('class','edge');
    }
  }
}
]]></script>
        <defs>
                <circle id="rim" cx="0" cy="0" r="7"/>
                <circle id="rim2" cx="0" cy="0" r="3.5"/>
                <g id="zoomPlus">
                        <use xlink:href="#rim" fill="#404040">
                                <set attributeName="fill" to="#808080" begin="zoomplus.mouseover" end="zoomplus.mouseout"/>
                        </use>
                        <path d="M-4,0h8M0,-4v8" fill="none" stroke="white" stroke-width="1.5" pointer-events="none"/>
                </g>
                <g id="zoomMin">
                        <use xlink:href="#rim" fill="#404040">
                                <set attributeName="fill" to="#808080" begin="zoomminus.mouseover" end="zoomminus.mouseout"/>
                        </use>
                        <path d="M-4,0h8" fill="none" stroke="white" stroke-width="1.5" pointer-events="none"/>
                </g>
                <g id="dirArrow">
                        <path fill="none" stroke="white" stroke-width="1.5" d="M0,-3.0v7 M-2.5,-0.5L0,-3.0L2.5,-0.5"/>
                </g>
               <g id="resetDef">
                       <use xlink:href="#rim2" fill="#404040">
                               <set attributeName="fill" to="#808080" begin="reset.mouseover" end="reset.mouseout"/>
                       </use>
               </g>
        </defs>

<script type="text/javascript">
var viewWidth = 1299;
var viewHeight = 386;
var sectionId = 'dynsection-0';
</script>
<script xlink:href="svgpan.js"/>
<svg id="graph" class="graph">
<g id="viewport">
<title>include/export/calc.h</title>
<polygon fill="white" stroke="transparent" points="-4,4 -4,-382 1295,-382 1295,4 -4,4"/>
<!-- Node1 -->
<g id="node1" class="node">
<title>Node1</title>
<g id="a_node1"><a xlink:title="Make Calculation in Alg.">
<polygon fill="#bfbfbf" stroke="black" points="975.5,-358.5 975.5,-377.5 1093.5,-377.5 1093.5,-358.5 975.5,-358.5"/>
<text text-anchor="middle" x="1034.5" y="-365.5" font-family="Helvetica,sans-Serif" font-size="10.00">include/export/calc.h</text>
</a>
</g>
</g>
<!-- Node2 -->
<g id="node2" class="node">
<title>Node2</title>
<g id="a_node2"><a xlink:href="type__track__global_8h.html" target="_top" xlink:title="Global Access of Type Track.">
<polygon fill="white" stroke="black" points="854,-297 854,-316 1001,-316 1001,-297 854,-297"/>
<text text-anchor="middle" x="927.5" y="-304" font-family="Helvetica,sans-Serif" font-size="10.00">export/type_track_global.h</text>
</a>
</g>
</g>
<!-- Node1&#45;&gt;Node2 -->
<g id="edge1" class="edge">
<title>Node1&#45;&gt;Node2</title>
<path fill="none" stroke="midnightblue" d="M1019.17,-358.48C1001.53,-348.67 972.34,-332.43 951.64,-320.92"/>
<polygon fill="midnightblue" stroke="midnightblue" points="953.24,-317.81 942.8,-316.01 949.84,-323.93 953.24,-317.81"/>
</g>
<!-- Node5 -->
<g id="node5" class="node">
<title>Node5</title>
<g id="a_node5"><a xlink:title=" ">
<polygon fill="white" stroke="#bfbfbf" points="845.5,-6 845.5,-25 889.5,-25 889.5,-6 845.5,-6"/>
<text text-anchor="middle" x="867.5" y="-13" font-family="Helvetica,sans-Serif" font-size="10.00">string</text>
</a>
</g>
</g>
<!-- Node1&#45;&gt;Node5 -->
<g id="edge38" class="edge">
<title>Node1&#45;&gt;Node5</title>
<path fill="none" stroke="midnightblue" d="M1050.14,-358.3C1078.96,-340.98 1137.5,-299.24 1137.5,-246 1137.5,-246 1137.5,-246 1137.5,-188 1137.5,-159.29 961.26,-65.02 893.56,-29.87"/>
<polygon fill="midnightblue" stroke="midnightblue" points="894.88,-26.62 884.39,-25.13 891.66,-32.83 894.88,-26.62"/>
</g>
<!-- Node6 -->
<g id="node6" class="node">
<title>Node6</title>
<g id="a_node6"><a xlink:title=" ">
<polygon fill="white" stroke="#bfbfbf" points="963,-123.5 963,-142.5 1004,-142.5 1004,-123.5 963,-123.5"/>
<text text-anchor="middle" x="983.5" y="-130.5" font-family="Helvetica,sans-Serif" font-size="10.00">tuple</text>
</a>
</g>
</g>
<!-- Node1&#45;&gt;Node6 -->
<g id="edge39" class="edge">
<title>Node1&#45;&gt;Node6</title>
<path fill="none" stroke="midnightblue" d="M1037.62,-358.16C1046.93,-330.14 1072.1,-241.48 1041.5,-179 1034.98,-165.68 1022.4,-155.18 1010.63,-147.68"/>
<polygon fill="midnightblue" stroke="midnightblue" points="1012.28,-144.59 1001.89,-142.53 1008.73,-150.62 1012.28,-144.59"/>
</g>
<!-- Node7 -->
<g id="node7" class="node">
<title>Node7</title>
<g id="a_node7"><a xlink:href="log__global_8h.html" target="_top" xlink:title="Global Access of Log.">
<polygon fill="white" stroke="black" points="610.5,-179.5 610.5,-198.5 686.5,-198.5 686.5,-179.5 610.5,-179.5"/>
<text text-anchor="middle" x="648.5" y="-186.5" font-family="Helvetica,sans-Serif" font-size="10.00">log_global.h</text>
</a>
</g>
</g>
<!-- Node1&#45;&gt;Node7 -->
<g id="edge35" class="edge">
<title>Node1&#45;&gt;Node7</title>
<path fill="none" stroke="midnightblue" d="M975.38,-358.64C936.97,-351.86 886.42,-340.35 844.5,-322 772.74,-290.59 698.99,-232.6 666.14,-205.16"/>
<polygon fill="midnightblue" stroke="midnightblue" points="668.24,-202.35 658.34,-198.57 663.72,-207.7 668.24,-202.35"/>
</g>
<!-- Node13 -->
<g id="node13" class="node">
<title>Node13</title>
<g id="a_node13"><a xlink:href="utils_8h.html" target="_top" xlink:title="Utilities.">
<polygon fill="white" stroke="black" points="317,-67.5 317,-86.5 364,-86.5 364,-67.5 317,-67.5"/>
<text text-anchor="middle" x="340.5" y="-74.5" font-family="Helvetica,sans-Serif" font-size="10.00">utils.h</text>
</a>
</g>
</g>
<!-- Node1&#45;&gt;Node13 -->
<g id="edge36" class="edge">
<title>Node1&#45;&gt;Node13</title>
<path fill="none" stroke="midnightblue" d="M975.31,-366.69C830.77,-364.34 471.5,-348.22 471.5,-246 471.5,-246 471.5,-246 471.5,-188 471.5,-136.94 412.41,-104.85 373.6,-89.28"/>
<polygon fill="midnightblue" stroke="midnightblue" points="374.81,-85.99 364.22,-85.67 372.3,-92.53 374.81,-85.99"/>
</g>
<!-- Node31 -->
<g id="node31" class="node">
<title>Node31</title>
<g id="a_node31"><a xlink:title=" ">
<polygon fill="white" stroke="#bfbfbf" points="1166,-291.5 1166,-321.5 1291,-321.5 1291,-291.5 1166,-291.5"/>
<text text-anchor="start" x="1174" y="-309.5" font-family="Helvetica,sans-Serif" font-size="10.00">boost/algorithm/string</text>
<text text-anchor="middle" x="1228.5" y="-298.5" font-family="Helvetica,sans-Serif" font-size="10.00">/replace.hpp</text>
</a>
</g>
</g>
<!-- Node1&#45;&gt;Node31 -->
<g id="edge37" class="edge">
<title>Node1&#45;&gt;Node31</title>
<path fill="none" stroke="midnightblue" d="M1062.3,-358.48C1091.03,-349.66 1136.66,-335.67 1172.84,-324.57"/>
<polygon fill="midnightblue" stroke="midnightblue" points="1174.24,-327.8 1182.78,-321.52 1172.19,-321.11 1174.24,-327.8"/>
</g>
<!-- Node3 -->
<g id="node3" class="node">
<title>Node3</title>
<g id="a_node3"><a xlink:href="type__track_8h.html" target="_top" xlink:title="Track data type of variables.">
<polygon fill="white" stroke="black" points="818.5,-235.5 818.5,-254.5 930.5,-254.5 930.5,-235.5 818.5,-235.5"/>
<text text-anchor="middle" x="874.5" y="-242.5" font-family="Helvetica,sans-Serif" font-size="10.00">export/type_track.h</text>
</a>
</g>
</g>
<!-- Node2&#45;&gt;Node3 -->
<g id="edge2" class="edge">
<title>Node2&#45;&gt;Node3</title>
<path fill="none" stroke="midnightblue" d="M919.91,-296.98C911.8,-287.87 898.77,-273.24 888.74,-261.98"/>
<polygon fill="midnightblue" stroke="midnightblue" points="891.34,-259.65 882.08,-254.51 886.12,-264.3 891.34,-259.65"/>
</g>
<!-- Node4 -->
<g id="node4" class="node">
<title>Node4</title>
<g id="a_node4"><a xlink:href="type_8h.html" target="_top" xlink:title="Type Specification in Alg.">
<polygon fill="white" stroke="black" points="806.5,-179.5 806.5,-198.5 888.5,-198.5 888.5,-179.5 806.5,-179.5"/>
<text text-anchor="middle" x="847.5" y="-186.5" font-family="Helvetica,sans-Serif" font-size="10.00">export/type.h</text>
</a>
</g>
</g>
<!-- Node3&#45;&gt;Node4 -->
<g id="edge3" class="edge">
<title>Node3&#45;&gt;Node4</title>
<path fill="none" stroke="midnightblue" d="M870.04,-235.08C866.35,-227.69 860.98,-216.95 856.41,-207.81"/>
<polygon fill="midnightblue" stroke="midnightblue" points="859.48,-206.13 851.88,-198.75 853.22,-209.26 859.48,-206.13"/>
</g>
<!-- Node3&#45;&gt;Node7 -->
<g id="edge6" class="edge">
<title>Node3&#45;&gt;Node7</title>
<path fill="none" stroke="midnightblue" d="M838.69,-235.44C799.51,-226.08 736.62,-211.06 693.98,-200.87"/>
<polygon fill="midnightblue" stroke="midnightblue" points="694.68,-197.44 684.14,-198.52 693.06,-204.24 694.68,-197.44"/>
</g>
<!-- Node12 -->
<g id="node12" class="node">
<title>Node12</title>
<g id="a_node12"><a xlink:title=" ">
<polygon fill="white" stroke="#bfbfbf" points="1069.5,-6 1069.5,-25 1129.5,-25 1129.5,-6 1069.5,-6"/>
<text text-anchor="middle" x="1099.5" y="-13" font-family="Helvetica,sans-Serif" font-size="10.00">iostream</text>
</a>
</g>
</g>
<!-- Node3&#45;&gt;Node12 -->
<g id="edge30" class="edge">
<title>Node3&#45;&gt;Node12</title>
<path fill="none" stroke="midnightblue" d="M930.55,-242.02C966.45,-237.89 1011.72,-226.94 1041.5,-199 1088.54,-154.87 1097.59,-72.82 1099.22,-35.66"/>
<polygon fill="midnightblue" stroke="midnightblue" points="1102.73,-35.38 1099.52,-25.28 1095.73,-35.17 1102.73,-35.38"/>
</g>
<!-- Node18 -->
<g id="node18" class="node">
<title>Node18</title>
<g id="a_node18"><a xlink:title=" ">
<polygon fill="white" stroke="#bfbfbf" points="760,-6 760,-25 807,-25 807,-6 760,-6"/>
<text text-anchor="middle" x="783.5" y="-13" font-family="Helvetica,sans-Serif" font-size="10.00">vector</text>
</a>
</g>
</g>
<!-- Node3&#45;&gt;Node18 -->
<g id="edge34" class="edge">
<title>Node3&#45;&gt;Node18</title>
<path fill="none" stroke="midnightblue" d="M818.2,-241.36C787.88,-236.72 752.83,-225.45 733.5,-199 728.26,-191.82 730.49,-187.36 733.5,-179 751.45,-129.09 791.55,-136.91 809.5,-87 816.09,-68.67 806.15,-47.74 796.72,-33.48"/>
<polygon fill="midnightblue" stroke="midnightblue" points="799.44,-31.27 790.78,-25.17 793.74,-35.34 799.44,-31.27"/>
</g>
<!-- Node28 -->
<g id="node28" class="node">
<title>Node28</title>
<g id="a_node28"><a xlink:title=" ">
<polygon fill="white" stroke="#bfbfbf" points="907,-179.5 907,-198.5 950,-198.5 950,-179.5 907,-179.5"/>
<text text-anchor="middle" x="928.5" y="-186.5" font-family="Helvetica,sans-Serif" font-size="10.00">stack</text>
</a>
</g>
</g>
<!-- Node3&#45;&gt;Node28 -->
<g id="edge31" class="edge">
<title>Node3&#45;&gt;Node28</title>
<path fill="none" stroke="midnightblue" d="M883.42,-235.08C891.28,-227.22 902.93,-215.57 912.42,-206.08"/>
<polygon fill="midnightblue" stroke="midnightblue" points="915.15,-208.3 919.75,-198.75 910.2,-203.35 915.15,-208.3"/>
</g>
<!-- Node29 -->
<g id="node29" class="node">
<title>Node29</title>
<g id="a_node29"><a xlink:title=" ">
<polygon fill="white" stroke="#bfbfbf" points="968,-179.5 968,-198.5 1033,-198.5 1033,-179.5 968,-179.5"/>
<text text-anchor="middle" x="1000.5" y="-186.5" font-family="Helvetica,sans-Serif" font-size="10.00">stdexcept</text>
</a>
</g>
</g>
<!-- Node3&#45;&gt;Node29 -->
<g id="edge32" class="edge">
<title>Node3&#45;&gt;Node29</title>
<path fill="none" stroke="midnightblue" d="M894.47,-235.44C915.11,-226.6 947.56,-212.69 971.13,-202.59"/>
<polygon fill="midnightblue" stroke="midnightblue" points="972.82,-205.67 980.63,-198.52 970.06,-199.24 972.82,-205.67"/>
</g>
<!-- Node30 -->
<g id="node30" class="node">
<title>Node30</title>
<g id="a_node30"><a xlink:title=" ">
<polygon fill="white" stroke="#bfbfbf" points="743,-179.5 743,-198.5 788,-198.5 788,-179.5 743,-179.5"/>
<text text-anchor="middle" x="765.5" y="-186.5" font-family="Helvetica,sans-Serif" font-size="10.00">utility</text>
</a>
</g>
</g>
<!-- Node3&#45;&gt;Node30 -->
<g id="edge33" class="edge">
<title>Node3&#45;&gt;Node30</title>
<path fill="none" stroke="midnightblue" d="M856.99,-235.32C839.43,-226.62 812.17,-213.12 791.97,-203.11"/>
<polygon fill="midnightblue" stroke="midnightblue" points="793.48,-199.96 782.97,-198.65 790.38,-206.23 793.48,-199.96"/>
</g>
<!-- Node4&#45;&gt;Node5 -->
<g id="edge4" class="edge">
<title>Node4&#45;&gt;Node5</title>
<path fill="none" stroke="midnightblue" d="M848.52,-179.26C851.62,-152.65 861,-72.21 865.3,-35.34"/>
<polygon fill="midnightblue" stroke="midnightblue" points="868.82,-35.36 866.51,-25.02 861.87,-34.55 868.82,-35.36"/>
</g>
<!-- Node4&#45;&gt;Node6 -->
<g id="edge5" class="edge">
<title>Node4&#45;&gt;Node6</title>
<path fill="none" stroke="midnightblue" d="M869.05,-179.44C891.8,-170.41 927.82,-156.11 953.38,-145.96"/>
<polygon fill="midnightblue" stroke="midnightblue" points="954.94,-149.11 962.94,-142.16 952.36,-142.6 954.94,-149.11"/>
</g>
<!-- Node8 -->
<g id="node8" class="node">
<title>Node8</title>
<g id="a_node8"><a xlink:href="include_2log_8h.html" target="_top" xlink:title="Log Utilities.">
<polygon fill="white" stroke="black" points="609,-123.5 609,-142.5 650,-142.5 650,-123.5 609,-123.5"/>
<text text-anchor="middle" x="629.5" y="-130.5" font-family="Helvetica,sans-Serif" font-size="10.00">log.h</text>
</a>
</g>
</g>
<!-- Node7&#45;&gt;Node8 -->
<g id="edge7" class="edge">
<title>Node7&#45;&gt;Node8</title>
<path fill="none" stroke="midnightblue" d="M645.36,-179.08C642.82,-171.85 639.14,-161.41 635.97,-152.4"/>
<polygon fill="midnightblue" stroke="midnightblue" points="639.2,-151.02 632.58,-142.75 632.6,-153.35 639.2,-151.02"/>
</g>
<!-- Node9 -->
<g id="node9" class="node">
<title>Node9</title>
<g id="a_node9"><a xlink:href="meta_8h.html" target="_top" xlink:title="mmCEsim meta data">
<polygon fill="white" stroke="black" points="750,-67.5 750,-86.5 801,-86.5 801,-67.5 750,-67.5"/>
<text text-anchor="middle" x="775.5" y="-74.5" font-family="Helvetica,sans-Serif" font-size="10.00">meta.h</text>
</a>
</g>
</g>
<!-- Node8&#45;&gt;Node9 -->
<g id="edge8" class="edge">
<title>Node8&#45;&gt;Node9</title>
<path fill="none" stroke="midnightblue" d="M650.11,-124.38C674.16,-115.48 714.23,-100.66 742.6,-90.17"/>
<polygon fill="midnightblue" stroke="midnightblue" points="743.93,-93.41 752.1,-86.65 741.51,-86.84 743.93,-93.41"/>
</g>
<!-- Node10 -->
<g id="node10" class="node">
<title>Node10</title>
<g id="a_node10"><a xlink:href="term_8h.html" target="_top" xlink:title="Terminal Color and Style Control.">
<polygon fill="white" stroke="black" points="1022,-67.5 1022,-86.5 1071,-86.5 1071,-67.5 1022,-67.5"/>
<text text-anchor="middle" x="1046.5" y="-74.5" font-family="Helvetica,sans-Serif" font-size="10.00">term.h</text>
</a>
</g>
</g>
<!-- Node8&#45;&gt;Node10 -->
<g id="edge10" class="edge">
<title>Node8&#45;&gt;Node10</title>
<path fill="none" stroke="midnightblue" d="M650.18,-129.32C717.08,-120.66 928.14,-93.33 1011.83,-82.49"/>
<polygon fill="midnightblue" stroke="midnightblue" points="1012.38,-85.95 1021.84,-81.19 1011.48,-79.01 1012.38,-85.95"/>
</g>
<!-- Node8&#45;&gt;Node13 -->
<g id="edge14" class="edge">
<title>Node8&#45;&gt;Node13</title>
<path fill="none" stroke="midnightblue" d="M608.7,-129.09C566.3,-122.99 466.64,-107.88 374,-87.17"/>
<polygon fill="midnightblue" stroke="midnightblue" points="374.72,-83.75 364.2,-84.95 373.18,-90.57 374.72,-83.75"/>
</g>
<!-- Node23 -->
<g id="node23" class="node">
<title>Node23</title>
<g id="a_node23"><a xlink:title=" ">
<polygon fill="white" stroke="#bfbfbf" points="453.5,-67.5 453.5,-86.5 497.5,-86.5 497.5,-67.5 453.5,-67.5"/>
<text text-anchor="middle" x="475.5" y="-74.5" font-family="Helvetica,sans-Serif" font-size="10.00">ctime</text>
</a>
</g>
</g>
<!-- Node8&#45;&gt;Node23 -->
<g id="edge25" class="edge">
<title>Node8&#45;&gt;Node23</title>
<path fill="none" stroke="midnightblue" d="M608.73,-124.72C582.69,-115.59 537.79,-99.84 507.39,-89.18"/>
<polygon fill="midnightblue" stroke="midnightblue" points="508.28,-85.78 497.68,-85.78 505.96,-92.39 508.28,-85.78"/>
</g>
<!-- Node24 -->
<g id="node24" class="node">
<title>Node24</title>
<g id="a_node24"><a xlink:title=" ">
<polygon fill="white" stroke="#bfbfbf" points="515.5,-67.5 515.5,-86.5 583.5,-86.5 583.5,-67.5 515.5,-67.5"/>
<text text-anchor="middle" x="549.5" y="-74.5" font-family="Helvetica,sans-Serif" font-size="10.00">filesystem</text>
</a>
</g>
</g>
<!-- Node8&#45;&gt;Node24 -->
<g id="edge26" class="edge">
<title>Node8&#45;&gt;Node24</title>
<path fill="none" stroke="midnightblue" d="M616.65,-123.32C604.28,-114.98 585.37,-102.21 570.76,-92.35"/>
<polygon fill="midnightblue" stroke="midnightblue" points="572.57,-89.35 562.32,-86.65 568.65,-95.15 572.57,-89.35"/>
</g>
<!-- Node25 -->
<g id="node25" class="node">
<title>Node25</title>
<g id="a_node25"><a xlink:title=" ">
<polygon fill="white" stroke="#bfbfbf" points="602,-67.5 602,-86.5 657,-86.5 657,-67.5 602,-67.5"/>
<text text-anchor="middle" x="629.5" y="-74.5" font-family="Helvetica,sans-Serif" font-size="10.00">fstream</text>
</a>
</g>
</g>
<!-- Node8&#45;&gt;Node25 -->
<g id="edge27" class="edge">
<title>Node8&#45;&gt;Node25</title>
<path fill="none" stroke="midnightblue" d="M629.5,-123.08C629.5,-116.01 629.5,-105.86 629.5,-96.99"/>
<polygon fill="midnightblue" stroke="midnightblue" points="633,-96.75 629.5,-86.75 626,-96.75 633,-96.75"/>
</g>
<!-- Node26 -->
<g id="node26" class="node">
<title>Node26</title>
<g id="a_node26"><a xlink:title=" ">
<polygon fill="white" stroke="#bfbfbf" points="675.5,-67.5 675.5,-86.5 731.5,-86.5 731.5,-67.5 675.5,-67.5"/>
<text text-anchor="middle" x="703.5" y="-74.5" font-family="Helvetica,sans-Serif" font-size="10.00">iomanip</text>
</a>
</g>
</g>
<!-- Node8&#45;&gt;Node26 -->
<g id="edge28" class="edge">
<title>Node8&#45;&gt;Node26</title>
<path fill="none" stroke="midnightblue" d="M641.39,-123.32C652.65,-115.11 669.79,-102.6 683.21,-92.81"/>
<polygon fill="midnightblue" stroke="midnightblue" points="685.38,-95.56 691.39,-86.83 681.25,-89.9 685.38,-95.56"/>
</g>
<!-- Node27 -->
<g id="node27" class="node">
<title>Node27</title>
<g id="a_node27"><a xlink:title=" ">
<polygon fill="white" stroke="#bfbfbf" points="382,-67.5 382,-86.5 435,-86.5 435,-67.5 382,-67.5"/>
<text text-anchor="middle" x="408.5" y="-74.5" font-family="Helvetica,sans-Serif" font-size="10.00">spy.hpp</text>
</a>
</g>
</g>
<!-- Node8&#45;&gt;Node27 -->
<g id="edge29" class="edge">
<title>Node8&#45;&gt;Node27</title>
<path fill="none" stroke="midnightblue" d="M608.96,-127.05C576.47,-119.21 511,-103.37 445.34,-87.2"/>
<polygon fill="midnightblue" stroke="midnightblue" points="445.78,-83.7 435.23,-84.7 444.1,-90.5 445.78,-83.7"/>
</g>
<!-- Node9&#45;&gt;Node5 -->
<g id="edge9" class="edge">
<title>Node9&#45;&gt;Node5</title>
<path fill="none" stroke="midnightblue" d="M788.68,-67.48C803.57,-57.84 828.04,-42.02 845.77,-30.55"/>
<polygon fill="midnightblue" stroke="midnightblue" points="847.85,-33.38 854.34,-25.01 844.05,-27.5 847.85,-33.38"/>
</g>
<!-- Node10&#45;&gt;Node5 -->
<g id="edge13" class="edge">
<title>Node10&#45;&gt;Node5</title>
<path fill="none" stroke="midnightblue" d="M1021.99,-67.85C990.18,-57.28 934.61,-38.81 899.5,-27.14"/>
<polygon fill="midnightblue" stroke="midnightblue" points="900.34,-23.73 889.75,-23.9 898.13,-30.37 900.34,-23.73"/>
</g>
<!-- Node11 -->
<g id="node11" class="node">
<title>Node11</title>
<g id="a_node11"><a xlink:title=" ">
<polygon fill="white" stroke="#bfbfbf" points="1002,-6 1002,-25 1051,-25 1051,-6 1002,-6"/>
<text text-anchor="middle" x="1026.5" y="-13" font-family="Helvetica,sans-Serif" font-size="10.00">cstdlib</text>
</a>
</g>
</g>
<!-- Node10&#45;&gt;Node11 -->
<g id="edge11" class="edge">
<title>Node10&#45;&gt;Node11</title>
<path fill="none" stroke="midnightblue" d="M1043.63,-67.48C1040.78,-58.99 1036.32,-45.7 1032.66,-34.82"/>
<polygon fill="midnightblue" stroke="midnightblue" points="1035.86,-33.37 1029.36,-25.01 1029.23,-35.6 1035.86,-33.37"/>
</g>
<!-- Node10&#45;&gt;Node12 -->
<g id="edge12" class="edge">
<title>Node10&#45;&gt;Node12</title>
<path fill="none" stroke="midnightblue" d="M1054.09,-67.48C1062.2,-58.37 1075.23,-43.74 1085.26,-32.48"/>
<polygon fill="midnightblue" stroke="midnightblue" points="1087.88,-34.8 1091.92,-25.01 1082.66,-30.15 1087.88,-34.8"/>
</g>
<!-- Node13&#45;&gt;Node5 -->
<g id="edge19" class="edge">
<title>Node13&#45;&gt;Node5</title>
<path fill="none" stroke="midnightblue" d="M364.15,-68.8C366.94,-68.11 369.77,-67.49 372.5,-67 566.93,-32.1 621.03,-65.69 815.5,-31 822.04,-29.83 828.94,-28.2 835.51,-26.45"/>
<polygon fill="midnightblue" stroke="midnightblue" points="836.77,-29.73 845.45,-23.65 834.87,-22.99 836.77,-29.73"/>
</g>
<!-- Node14 -->
<g id="node14" class="node">
<title>Node14</title>
<g id="a_node14"><a xlink:title=" ">
<polygon fill="white" stroke="#bfbfbf" points="601.5,-6 601.5,-25 665.5,-25 665.5,-6 601.5,-6"/>
<text text-anchor="middle" x="633.5" y="-13" font-family="Helvetica,sans-Serif" font-size="10.00">algorithm</text>
</a>
</g>
</g>
<!-- Node13&#45;&gt;Node14 -->
<g id="edge15" class="edge">
<title>Node13&#45;&gt;Node14</title>
<path fill="none" stroke="midnightblue" d="M364.19,-69.02C366.98,-68.29 369.8,-67.6 372.5,-67 469.23,-45.55 496.53,-55.61 592.5,-31 595.55,-30.22 598.69,-29.31 601.81,-28.33"/>
<polygon fill="midnightblue" stroke="midnightblue" points="603.22,-31.55 611.59,-25.06 601,-24.91 603.22,-31.55"/>
</g>
<!-- Node15 -->
<g id="node15" class="node">
<title>Node15</title>
<g id="a_node15"><a xlink:title=" ">
<polygon fill="white" stroke="#bfbfbf" points="0,-6 0,-25 49,-25 49,-6 0,-6"/>
<text text-anchor="middle" x="24.5" y="-13" font-family="Helvetica,sans-Serif" font-size="10.00">cctype</text>
</a>
</g>
</g>
<!-- Node13&#45;&gt;Node15 -->
<g id="edge16" class="edge">
<title>Node13&#45;&gt;Node15</title>
<path fill="none" stroke="midnightblue" d="M316.68,-74.18C267.57,-70 151.87,-57.92 58.5,-31 56.21,-30.34 53.87,-29.57 51.54,-28.73"/>
<polygon fill="midnightblue" stroke="midnightblue" points="52.78,-25.45 42.2,-25.02 50.2,-31.96 52.78,-25.45"/>
</g>
<!-- Node16 -->
<g id="node16" class="node">
<title>Node16</title>
<g id="a_node16"><a xlink:title=" ">
<polygon fill="white" stroke="#bfbfbf" points="67.5,-6 67.5,-25 121.5,-25 121.5,-6 67.5,-6"/>
<text text-anchor="middle" x="94.5" y="-13" font-family="Helvetica,sans-Serif" font-size="10.00">random</text>
</a>
</g>
</g>
<!-- Node13&#45;&gt;Node16 -->
<g id="edge17" class="edge">
<title>Node13&#45;&gt;Node16</title>
<path fill="none" stroke="midnightblue" d="M316.86,-72.3C277.62,-65.85 196.82,-51.3 130.5,-31 128.22,-30.3 125.88,-29.52 123.54,-28.69"/>
<polygon fill="midnightblue" stroke="midnightblue" points="124.68,-25.38 114.09,-25.1 122.19,-31.92 124.68,-25.38"/>
</g>
<!-- Node17 -->
<g id="node17" class="node">
<title>Node17</title>
<g id="a_node17"><a xlink:title=" ">
<polygon fill="white" stroke="#bfbfbf" points="139.5,-6 139.5,-25 195.5,-25 195.5,-6 139.5,-6"/>
<text text-anchor="middle" x="167.5" y="-13" font-family="Helvetica,sans-Serif" font-size="10.00">sstream</text>
</a>
</g>
</g>
<!-- Node13&#45;&gt;Node17 -->
<g id="edge18" class="edge">
<title>Node13&#45;&gt;Node17</title>
<path fill="none" stroke="midnightblue" d="M316.78,-68.58C289.54,-59.96 243.56,-45.11 204.5,-31 202.6,-30.31 200.65,-29.6 198.69,-28.86"/>
<polygon fill="midnightblue" stroke="midnightblue" points="199.54,-25.44 188.95,-25.13 197.04,-31.98 199.54,-25.44"/>
</g>
<!-- Node13&#45;&gt;Node18 -->
<g id="edge20" class="edge">
<title>Node13&#45;&gt;Node18</title>
<path fill="none" stroke="midnightblue" d="M364.17,-68.9C366.96,-68.19 369.78,-67.54 372.5,-67 505.07,-40.62 540.39,-47.91 674.5,-31 699.73,-27.82 728.21,-24.02 749.74,-21.11"/>
<polygon fill="midnightblue" stroke="midnightblue" points="750.26,-24.57 759.7,-19.76 749.32,-17.64 750.26,-24.57"/>
</g>
<!-- Node19 -->
<g id="node19" class="node">
<title>Node19</title>
<g id="a_node19"><a xlink:title=" ">
<polygon fill="white" stroke="#bfbfbf" points="214,-0.5 214,-30.5 355,-30.5 355,-0.5 214,-0.5"/>
<text text-anchor="start" x="222" y="-18.5" font-family="Helvetica,sans-Serif" font-size="10.00">boost/dll/runtime_symbol</text>
<text text-anchor="middle" x="284.5" y="-7.5" font-family="Helvetica,sans-Serif" font-size="10.00">_info.hpp</text>
</a>
</g>
</g>
<!-- Node13&#45;&gt;Node19 -->
<g id="edge21" class="edge">
<title>Node13&#45;&gt;Node19</title>
<path fill="none" stroke="midnightblue" d="M332.48,-67.48C325.25,-59.79 314.31,-48.17 304.7,-37.96"/>
<polygon fill="midnightblue" stroke="midnightblue" points="307.1,-35.41 297.7,-30.52 302,-40.2 307.1,-35.41"/>
</g>
<!-- Node20 -->
<g id="node20" class="node">
<title>Node20</title>
<g id="a_node20"><a xlink:title=" ">
<polygon fill="white" stroke="#bfbfbf" points="373.5,-6 373.5,-25 419.5,-25 419.5,-6 373.5,-6"/>
<text text-anchor="middle" x="396.5" y="-13" font-family="Helvetica,sans-Serif" font-size="10.00">pwd.h</text>
</a>
</g>
</g>
<!-- Node13&#45;&gt;Node20 -->
<g id="edge22" class="edge">
<title>Node13&#45;&gt;Node20</title>
<path fill="none" stroke="midnightblue" d="M348.52,-67.48C357.09,-58.37 370.86,-43.74 381.46,-32.48"/>
<polygon fill="midnightblue" stroke="midnightblue" points="384.19,-34.69 388.49,-25.01 379.09,-29.89 384.19,-34.69"/>
</g>
<!-- Node21 -->
<g id="node21" class="node">
<title>Node21</title>
<g id="a_node21"><a xlink:title=" ">
<polygon fill="white" stroke="#bfbfbf" points="437.5,-6 437.5,-25 509.5,-25 509.5,-6 437.5,-6"/>
<text text-anchor="middle" x="473.5" y="-13" font-family="Helvetica,sans-Serif" font-size="10.00">sys/types.h</text>
</a>
</g>
</g>
<!-- Node13&#45;&gt;Node21 -->
<g id="edge23" class="edge">
<title>Node13&#45;&gt;Node21</title>
<path fill="none" stroke="midnightblue" d="M359.56,-67.48C381.97,-57.45 419.41,-40.7 445.21,-29.15"/>
<polygon fill="midnightblue" stroke="midnightblue" points="446.78,-32.29 454.48,-25.01 443.92,-25.9 446.78,-32.29"/>
</g>
<!-- Node22 -->
<g id="node22" class="node">
<title>Node22</title>
<g id="a_node22"><a xlink:title=" ">
<polygon fill="white" stroke="#bfbfbf" points="527.5,-6 527.5,-25 583.5,-25 583.5,-6 527.5,-6"/>
<text text-anchor="middle" x="555.5" y="-13" font-family="Helvetica,sans-Serif" font-size="10.00">unistd.h</text>
</a>
</g>
</g>
<!-- Node13&#45;&gt;Node22 -->
<g id="edge24" class="edge">
<title>Node13&#45;&gt;Node22</title>
<path fill="none" stroke="midnightblue" d="M364.24,-69.23C367.02,-68.46 369.82,-67.71 372.5,-67 437.12,-49.95 454.81,-51.24 518.5,-31 520.77,-30.28 523.11,-29.49 525.45,-28.66"/>
<polygon fill="midnightblue" stroke="midnightblue" points="526.79,-31.89 534.93,-25.12 524.34,-25.33 526.79,-31.89"/>
</g>
</g>
</svg>
        <g id="navigator" transform="translate(0 0)" fill="#404254">
                <rect fill="#f2f5e9" fill-opacity="0.5" stroke="#606060" stroke-width=".5" x="0" y="0" width="60" height="60"/>
                <use id="zoomplus" xlink:href="#zoomPlus" x="17" y="9" onmousedown="handleZoom(evt,'in')"/>
                <use id="zoomminus" xlink:href="#zoomMin" x="42" y="9" onmousedown="handleZoom(evt,'out')"/>
                <use id="reset" xlink:href="#resetDef" x="30" y="36" onmousedown="handleReset()"/>
                <g id="arrowUp" xlink:href="#dirArrow" transform="translate(30 24)" onmousedown="handlePan(0,-1)">
                  <use xlink:href="#rim" fill="#404040">
                        <set attributeName="fill" to="#808080" begin="arrowUp.mouseover" end="arrowUp.mouseout"/>
                  </use>
                  <path fill="none" stroke="white" stroke-width="1.5" d="M0,-3.0v7 M-2.5,-0.5L0,-3.0L2.5,-0.5"/>
                </g>
                <g id="arrowRight" xlink:href="#dirArrow" transform="rotate(90) translate(36 -43)" onmousedown="handlePan(1,0)">
                  <use xlink:href="#rim" fill="#404040">
                        <set attributeName="fill" to="#808080" begin="arrowRight.mouseover" end="arrowRight.mouseout"/>
                  </use>
                  <path fill="none" stroke="white" stroke-width="1.5" d="M0,-3.0v7 M-2.5,-0.5L0,-3.0L2.5,-0.5"/>
                </g>
                <g id="arrowDown" xlink:href="#dirArrow" transform="rotate(180) translate(-30 -48)" onmousedown="handlePan(0,1)">
                  <use xlink:href="#rim" fill="#404040">
                        <set attributeName="fill" to="#808080" begin="arrowDown.mouseover" end="arrowDown.mouseout"/>
                  </use>
                  <path fill="none" stroke="white" stroke-width="1.5" d="M0,-3.0v7 M-2.5,-0.5L0,-3.0L2.5,-0.5"/>
                </g>
                <g id="arrowLeft" xlink:href="#dirArrow" transform="rotate(270) translate(-36 17)" onmousedown="handlePan(-1,0)">
                  <use xlink:href="#rim" fill="#404040">
                        <set attributeName="fill" to="#808080" begin="arrowLeft.mouseover" end="arrowLeft.mouseout"/>
                  </use>
                  <path fill="none" stroke="white" stroke-width="1.5" d="M0,-3.0v7 M-2.5,-0.5L0,-3.0L2.5,-0.5"/>
                </g>
        </g>
        <svg viewBox="0 0 15 15" width="100%" height="30px" preserveAspectRatio="xMaxYMin meet">
         <g id="arrow_out" transform="scale(0.3 0.3)">
          <a xlink:href="calc_8h__incl_org.svg" target="_base">
           <rect id="button" ry="5" rx="5" y="6" x="6" height="38" width="38"
                fill="#f2f5e9" fill-opacity="0.5" stroke="#606060" stroke-width="1.0"/>
           <path id="arrow"
             d="M 11.500037,31.436501 C 11.940474,20.09759 22.043105,11.32322 32.158766,21.979434 L 37.068811,17.246167 C 37.068811,17.246167 37.088388,32 37.088388,32 L 22.160133,31.978069 C 22.160133,31.978069 26.997745,27.140456 26.997745,27.140456 C 18.528582,18.264221 13.291696,25.230495 11.500037,31.436501 z"
             style="fill:#404040;"/>
          </a>
         </g>
        </svg>
</svg>
