<?xml version="1.0" encoding="UTF-8" standalone="no"?>
<!DOCTYPE svg PUBLIC "-//W3C//DTD SVG 1.1//EN"
 "http://www.w3.org/Graphics/SVG/1.1/DTD/svg11.dtd">
<!-- Generated by graphviz version 2.43.0 (0)
 -->
<!-- Title: src/export/calc.cpp Pages: 1 -->
<!--zoomable 442 -->
<svg id="main" version="1.1" xmlns="http://www.w3.org/2000/svg" xmlns:xlink="http://www.w3.org/1999/xlink" xml:space="preserve" onload="init(evt)">
<style type="text/css"><![CDATA[
.edge:hover path { stroke: red; }
.edge:hover polygon { stroke: red; fill: red; }
]]></style>
<script type="text/javascript"><![CDATA[
var edges = document.getElementsByTagName('g');
if (edges && edges.length) {
  for (var i=0;i<edges.length;i++) {
    if (edges[i].id.substr(0,4)=='edge') {
      edges[i].setAttribute('class','edge');
    }
  }
}
]]></script>
        <defs>
                <circle id="rim" cx="0" cy="0" r="7"/>
                <circle id="rim2" cx="0" cy="0" r="3.5"/>
                <g id="zoomPlus">
                        <use xlink:href="#rim" fill="#404040">
                                <set attributeName="fill" to="#808080" begin="zoomplus.mouseover" end="zoomplus.mouseout"/>
                        </use>
                        <path d="M-4,0h8M0,-4v8" fill="none" stroke="white" stroke-width="1.5" pointer-events="none"/>
                </g>
                <g id="zoomMin">
                        <use xlink:href="#rim" fill="#404040">
                                <set attributeName="fill" to="#808080" begin="zoomminus.mouseover" end="zoomminus.mouseout"/>
                        </use>
                        <path d="M-4,0h8" fill="none" stroke="white" stroke-width="1.5" pointer-events="none"/>
                </g>
                <g id="dirArrow">
                        <path fill="none" stroke="white" stroke-width="1.5" d="M0,-3.0v7 M-2.5,-0.5L0,-3.0L2.5,-0.5"/>
                </g>
               <g id="resetDef">
                       <use xlink:href="#rim2" fill="#404040">
                               <set attributeName="fill" to="#808080" begin="reset.mouseover" end="reset.mouseout"/>
                       </use>
               </g>
        </defs>

<script type="text/javascript">
var viewWidth = 1098;
var viewHeight = 442;
var sectionId = 'dynsection-0';
</script>
<script xlink:href="svgpan.js"/>
<svg id="graph" class="graph">
<g id="viewport">
<title>src/export/calc.cpp</title>
<polygon fill="white" stroke="transparent" points="-4,4 -4,-438 1094,-438 1094,4 -4,4"/>
<!-- Node1 -->
<g id="node1" class="node">
<title>Node1</title>
<g id="a_node1"><a xlink:title="Implementation of Calc Class.">
<polygon fill="#bfbfbf" stroke="black" points="468,-414.5 468,-433.5 576,-433.5 576,-414.5 468,-414.5"/>
<text text-anchor="middle" x="522" y="-421.5" font-family="Helvetica,sans-Serif" font-size="10.00">src/export/calc.cpp</text>
</a>
</g>
</g>
<!-- Node2 -->
<g id="node2" class="node">
<title>Node2</title>
<g id="a_node2"><a xlink:href="calc_8h.html" target="_top" xlink:title="Make Calculation in Alg.">
<polygon fill="white" stroke="black" points="482,-358.5 482,-377.5 562,-377.5 562,-358.5 482,-358.5"/>
<text text-anchor="middle" x="522" y="-365.5" font-family="Helvetica,sans-Serif" font-size="10.00">export/calc.h</text>
</a>
</g>
</g>
<!-- Node1&#45;&gt;Node2 -->
<g id="edge1" class="edge">
<title>Node1&#45;&gt;Node2</title>
<path fill="none" stroke="midnightblue" d="M522,-414.08C522,-407.01 522,-396.86 522,-387.99"/>
<polygon fill="midnightblue" stroke="midnightblue" points="525.5,-387.75 522,-377.75 518.5,-387.75 525.5,-387.75"/>
</g>
<!-- Node14 -->
<g id="node14" class="node">
<title>Node14</title>
<g id="a_node14"><a xlink:title=" ">
<polygon fill="white" stroke="#bfbfbf" points="0,-6 0,-25 60,-25 60,-6 0,-6"/>
<text text-anchor="middle" x="30" y="-13" font-family="Helvetica,sans-Serif" font-size="10.00">iostream</text>
</a>
</g>
</g>
<!-- Node1&#45;&gt;Node14 -->
<g id="edge44" class="edge">
<title>Node1&#45;&gt;Node14</title>
<path fill="none" stroke="midnightblue" d="M467.82,-422.35C334.64,-419.29 2,-402.17 2,-307.5 2,-307.5 2,-307.5 2,-132 2,-96.71 14.5,-57.03 22.79,-34.57"/>
<polygon fill="midnightblue" stroke="midnightblue" points="26.14,-35.61 26.45,-25.02 19.6,-33.1 26.14,-35.61"/>
</g>
<!-- Node34 -->
<g id="node34" class="node">
<title>Node34</title>
<g id="a_node34"><a xlink:title=" ">
<polygon fill="white" stroke="#bfbfbf" points="580.5,-358.5 580.5,-377.5 645.5,-377.5 645.5,-358.5 580.5,-358.5"/>
<text text-anchor="middle" x="613" y="-365.5" font-family="Helvetica,sans-Serif" font-size="10.00">exception</text>
</a>
</g>
</g>
<!-- Node1&#45;&gt;Node34 -->
<g id="edge43" class="edge">
<title>Node1&#45;&gt;Node34</title>
<path fill="none" stroke="midnightblue" d="M536.62,-414.32C550.95,-405.82 573.01,-392.73 589.75,-382.8"/>
<polygon fill="midnightblue" stroke="midnightblue" points="591.6,-385.77 598.42,-377.65 588.03,-379.75 591.6,-385.77"/>
</g>
<!-- Node3 -->
<g id="node3" class="node">
<title>Node3</title>
<g id="a_node3"><a xlink:href="__boost__config_8h.html" target="_top" xlink:title="Boost Configurations.">
<polygon fill="white" stroke="black" points="998,-6 998,-25 1090,-25 1090,-6 998,-6"/>
<text text-anchor="middle" x="1044" y="-13" font-family="Helvetica,sans-Serif" font-size="10.00">_boost_config.h</text>
</a>
</g>
</g>
<!-- Node2&#45;&gt;Node3 -->
<g id="edge2" class="edge">
<title>Node2&#45;&gt;Node3</title>
<path fill="none" stroke="midnightblue" d="M562.05,-358.59C659.87,-337.49 903,-281.48 903,-246 903,-246 903,-246 903,-132 903,-78.24 965.09,-44.97 1006.87,-28.67"/>
<polygon fill="midnightblue" stroke="midnightblue" points="1008.34,-31.85 1016.48,-25.07 1005.89,-25.3 1008.34,-31.85"/>
</g>
<!-- Node4 -->
<g id="node4" class="node">
<title>Node4</title>
<g id="a_node4"><a xlink:href="type__track__global_8h.html" target="_top" xlink:title="Global Access of Type Track.">
<polygon fill="white" stroke="black" points="208.5,-297 208.5,-316 355.5,-316 355.5,-297 208.5,-297"/>
<text text-anchor="middle" x="282" y="-304" font-family="Helvetica,sans-Serif" font-size="10.00">export/type_track_global.h</text>
</a>
</g>
</g>
<!-- Node2&#45;&gt;Node4 -->
<g id="edge3" class="edge">
<title>Node2&#45;&gt;Node4</title>
<path fill="none" stroke="midnightblue" d="M487.61,-358.48C445.11,-347.94 372.7,-329.99 326.13,-318.44"/>
<polygon fill="midnightblue" stroke="midnightblue" points="326.87,-315.02 316.32,-316.01 325.19,-321.81 326.87,-315.02"/>
</g>
<!-- Node7 -->
<g id="node7" class="node">
<title>Node7</title>
<g id="a_node7"><a xlink:title=" ">
<polygon fill="white" stroke="#bfbfbf" points="187,-6 187,-25 231,-25 231,-6 187,-6"/>
<text text-anchor="middle" x="209" y="-13" font-family="Helvetica,sans-Serif" font-size="10.00">string</text>
</a>
</g>
</g>
<!-- Node2&#45;&gt;Node7 -->
<g id="edge41" class="edge">
<title>Node2&#45;&gt;Node7</title>
<path fill="none" stroke="midnightblue" d="M553.27,-358.48C583.78,-349.57 627.27,-335.09 639,-322 662.3,-295.98 659,-280.93 659,-246 659,-246 659,-246 659,-132 659,-101.77 662.48,-86.03 639,-67 569.84,-10.94 325.95,-54.21 240,-31 238.06,-30.48 236.1,-29.84 234.15,-29.13"/>
<polygon fill="midnightblue" stroke="midnightblue" points="235.26,-25.8 224.69,-25.13 232.53,-32.25 235.26,-25.8"/>
</g>
<!-- Node8 -->
<g id="node8" class="node">
<title>Node8</title>
<g id="a_node8"><a xlink:title=" ">
<polygon fill="white" stroke="#bfbfbf" points="359.5,-123.5 359.5,-142.5 400.5,-142.5 400.5,-123.5 359.5,-123.5"/>
<text text-anchor="middle" x="380" y="-130.5" font-family="Helvetica,sans-Serif" font-size="10.00">tuple</text>
</a>
</g>
</g>
<!-- Node2&#45;&gt;Node8 -->
<g id="edge42" class="edge">
<title>Node2&#45;&gt;Node8</title>
<path fill="none" stroke="midnightblue" d="M514.67,-358.41C507.38,-349.62 496.13,-335.39 488,-322 451.49,-261.84 458.88,-237.66 420,-179 413.16,-168.67 404.08,-158.27 396.3,-150.06"/>
<polygon fill="midnightblue" stroke="midnightblue" points="398.58,-147.39 389.09,-142.68 393.57,-152.28 398.58,-147.39"/>
</g>
<!-- Node9 -->
<g id="node9" class="node">
<title>Node9</title>
<g id="a_node9"><a xlink:href="log__global_8h.html" target="_top" xlink:title="Global Access of Log.">
<polygon fill="white" stroke="black" points="467,-179.5 467,-198.5 543,-198.5 543,-179.5 467,-179.5"/>
<text text-anchor="middle" x="505" y="-186.5" font-family="Helvetica,sans-Serif" font-size="10.00">log_global.h</text>
</a>
</g>
</g>
<!-- Node2&#45;&gt;Node9 -->
<g id="edge38" class="edge">
<title>Node2&#45;&gt;Node9</title>
<path fill="none" stroke="midnightblue" d="M515.11,-358.32C508.73,-349.68 499.69,-335.77 496,-322 485.43,-282.57 493.87,-234.28 500.02,-208.43"/>
<polygon fill="midnightblue" stroke="midnightblue" points="503.47,-209.08 502.53,-198.52 496.68,-207.36 503.47,-209.08"/>
</g>
<!-- Node15 -->
<g id="node15" class="node">
<title>Node15</title>
<g id="a_node15"><a xlink:href="utils_8h.html" target="_top" xlink:title="Utilities.">
<polygon fill="white" stroke="black" points="687.5,-67.5 687.5,-86.5 734.5,-86.5 734.5,-67.5 687.5,-67.5"/>
<text text-anchor="middle" x="711" y="-74.5" font-family="Helvetica,sans-Serif" font-size="10.00">utils.h</text>
</a>
</g>
</g>
<!-- Node2&#45;&gt;Node15 -->
<g id="edge39" class="edge">
<title>Node2&#45;&gt;Node15</title>
<path fill="none" stroke="midnightblue" d="M562.21,-359.12C601.17,-350.78 656.69,-336.79 673,-322 700.02,-297.49 704,-282.48 704,-246 704,-246 704,-246 704,-188 704,-155.88 707.01,-118.6 709.08,-96.73"/>
<polygon fill="midnightblue" stroke="midnightblue" points="712.59,-96.84 710.08,-86.55 705.62,-96.15 712.59,-96.84"/>
</g>
<!-- Node33 -->
<g id="node33" class="node">
<title>Node33</title>
<g id="a_node33"><a xlink:title=" ">
<polygon fill="white" stroke="#bfbfbf" points="505.5,-291.5 505.5,-321.5 630.5,-321.5 630.5,-291.5 505.5,-291.5"/>
<text text-anchor="start" x="513.5" y="-309.5" font-family="Helvetica,sans-Serif" font-size="10.00">boost/algorithm/string</text>
<text text-anchor="middle" x="568" y="-298.5" font-family="Helvetica,sans-Serif" font-size="10.00">/replace.hpp</text>
</a>
</g>
</g>
<!-- Node2&#45;&gt;Node33 -->
<g id="edge40" class="edge">
<title>Node2&#45;&gt;Node33</title>
<path fill="none" stroke="midnightblue" d="M528.59,-358.48C534.41,-350.94 543.16,-339.63 550.94,-329.57"/>
<polygon fill="midnightblue" stroke="midnightblue" points="553.81,-331.58 557.16,-321.52 548.27,-327.29 553.81,-331.58"/>
</g>
<!-- Node5 -->
<g id="node5" class="node">
<title>Node5</title>
<g id="a_node5"><a xlink:href="type__track_8h.html" target="_top" xlink:title="Track data type of variables.">
<polygon fill="white" stroke="black" points="198,-235.5 198,-254.5 310,-254.5 310,-235.5 198,-235.5"/>
<text text-anchor="middle" x="254" y="-242.5" font-family="Helvetica,sans-Serif" font-size="10.00">export/type_track.h</text>
</a>
</g>
</g>
<!-- Node4&#45;&gt;Node5 -->
<g id="edge4" class="edge">
<title>Node4&#45;&gt;Node5</title>
<path fill="none" stroke="midnightblue" d="M277.99,-296.98C273.91,-288.32 267.48,-274.65 262.3,-263.65"/>
<polygon fill="midnightblue" stroke="midnightblue" points="265.43,-262.07 258,-254.51 259.1,-265.05 265.43,-262.07"/>
</g>
<!-- Node6 -->
<g id="node6" class="node">
<title>Node6</title>
<g id="a_node6"><a xlink:href="type_8h.html" target="_top" xlink:title="Type Specification in Alg.">
<polygon fill="white" stroke="black" points="329,-179.5 329,-198.5 411,-198.5 411,-179.5 329,-179.5"/>
<text text-anchor="middle" x="370" y="-186.5" font-family="Helvetica,sans-Serif" font-size="10.00">export/type.h</text>
</a>
</g>
</g>
<!-- Node5&#45;&gt;Node6 -->
<g id="edge5" class="edge">
<title>Node5&#45;&gt;Node6</title>
<path fill="none" stroke="midnightblue" d="M272.38,-235.44C291.22,-226.68 320.73,-212.94 342.38,-202.86"/>
<polygon fill="midnightblue" stroke="midnightblue" points="344.12,-205.91 351.71,-198.52 341.16,-199.56 344.12,-205.91"/>
</g>
<!-- Node5&#45;&gt;Node9 -->
<g id="edge8" class="edge">
<title>Node5&#45;&gt;Node9</title>
<path fill="none" stroke="midnightblue" d="M293.77,-235.44C337.94,-225.94 409.26,-210.6 456.63,-200.41"/>
<polygon fill="midnightblue" stroke="midnightblue" points="457.61,-203.78 466.65,-198.25 456.14,-196.93 457.61,-203.78"/>
</g>
<!-- Node5&#45;&gt;Node14 -->
<g id="edge33" class="edge">
<title>Node5&#45;&gt;Node14</title>
<path fill="none" stroke="midnightblue" d="M197.7,-238.51C167.36,-232.93 131.12,-221.67 106,-199 56.57,-154.38 38.41,-72.58 32.52,-35.58"/>
<polygon fill="midnightblue" stroke="midnightblue" points="35.92,-34.63 31.01,-25.24 28.99,-35.64 35.92,-34.63"/>
</g>
<!-- Node20 -->
<g id="node20" class="node">
<title>Node20</title>
<g id="a_node20"><a xlink:title=" ">
<polygon fill="white" stroke="#bfbfbf" points="249.5,-6 249.5,-25 296.5,-25 296.5,-6 249.5,-6"/>
<text text-anchor="middle" x="273" y="-13" font-family="Helvetica,sans-Serif" font-size="10.00">vector</text>
</a>
</g>
</g>
<!-- Node5&#45;&gt;Node20 -->
<g id="edge37" class="edge">
<title>Node5&#45;&gt;Node20</title>
<path fill="none" stroke="midnightblue" d="M197.68,-240.01C152.25,-233.88 98.03,-218.35 112,-179 136.74,-109.31 210.68,-55.02 249.15,-30.6"/>
<polygon fill="midnightblue" stroke="midnightblue" points="251.46,-33.29 258.11,-25.05 247.77,-27.34 251.46,-33.29"/>
</g>
<!-- Node30 -->
<g id="node30" class="node">
<title>Node30</title>
<g id="a_node30"><a xlink:title=" ">
<polygon fill="white" stroke="#bfbfbf" points="267.5,-179.5 267.5,-198.5 310.5,-198.5 310.5,-179.5 267.5,-179.5"/>
<text text-anchor="middle" x="289" y="-186.5" font-family="Helvetica,sans-Serif" font-size="10.00">stack</text>
</a>
</g>
</g>
<!-- Node5&#45;&gt;Node30 -->
<g id="edge34" class="edge">
<title>Node5&#45;&gt;Node30</title>
<path fill="none" stroke="midnightblue" d="M259.78,-235.08C264.67,-227.53 271.83,-216.49 277.83,-207.23"/>
<polygon fill="midnightblue" stroke="midnightblue" points="280.83,-209.05 283.33,-198.75 274.95,-205.24 280.83,-209.05"/>
</g>
<!-- Node31 -->
<g id="node31" class="node">
<title>Node31</title>
<g id="a_node31"><a xlink:title=" ">
<polygon fill="white" stroke="#bfbfbf" points="121.5,-179.5 121.5,-198.5 186.5,-198.5 186.5,-179.5 121.5,-179.5"/>
<text text-anchor="middle" x="154" y="-186.5" font-family="Helvetica,sans-Serif" font-size="10.00">stdexcept</text>
</a>
</g>
</g>
<!-- Node5&#45;&gt;Node31 -->
<g id="edge35" class="edge">
<title>Node5&#45;&gt;Node31</title>
<path fill="none" stroke="midnightblue" d="M237.93,-235.32C222.04,-226.74 197.49,-213.49 179.04,-203.52"/>
<polygon fill="midnightblue" stroke="midnightblue" points="180.49,-200.33 170.03,-198.65 177.16,-206.49 180.49,-200.33"/>
</g>
<!-- Node32 -->
<g id="node32" class="node">
<title>Node32</title>
<g id="a_node32"><a xlink:title=" ">
<polygon fill="white" stroke="#bfbfbf" points="204.5,-179.5 204.5,-198.5 249.5,-198.5 249.5,-179.5 204.5,-179.5"/>
<text text-anchor="middle" x="227" y="-186.5" font-family="Helvetica,sans-Serif" font-size="10.00">utility</text>
</a>
</g>
</g>
<!-- Node5&#45;&gt;Node32 -->
<g id="edge36" class="edge">
<title>Node5&#45;&gt;Node32</title>
<path fill="none" stroke="midnightblue" d="M249.54,-235.08C245.85,-227.69 240.48,-216.95 235.91,-207.81"/>
<polygon fill="midnightblue" stroke="midnightblue" points="238.98,-206.13 231.38,-198.75 232.72,-209.26 238.98,-206.13"/>
</g>
<!-- Node6&#45;&gt;Node7 -->
<g id="edge6" class="edge">
<title>Node6&#45;&gt;Node7</title>
<path fill="none" stroke="midnightblue" d="M338.83,-179.47C299.08,-166.72 232.04,-138.5 203,-87 194.07,-71.16 197.47,-50.06 201.94,-35.08"/>
<polygon fill="midnightblue" stroke="midnightblue" points="205.31,-36.02 205.21,-25.42 198.68,-33.77 205.31,-36.02"/>
</g>
<!-- Node6&#45;&gt;Node8 -->
<g id="edge7" class="edge">
<title>Node6&#45;&gt;Node8</title>
<path fill="none" stroke="midnightblue" d="M371.65,-179.08C372.98,-171.93 374.88,-161.64 376.54,-152.69"/>
<polygon fill="midnightblue" stroke="midnightblue" points="380,-153.22 378.38,-142.75 373.12,-151.95 380,-153.22"/>
</g>
<!-- Node10 -->
<g id="node10" class="node">
<title>Node10</title>
<g id="a_node10"><a xlink:href="include_2log_8h.html" target="_top" xlink:title="Log Utilities.">
<polygon fill="white" stroke="black" points="428.5,-123.5 428.5,-142.5 469.5,-142.5 469.5,-123.5 428.5,-123.5"/>
<text text-anchor="middle" x="449" y="-130.5" font-family="Helvetica,sans-Serif" font-size="10.00">log.h</text>
</a>
</g>
</g>
<!-- Node9&#45;&gt;Node10 -->
<g id="edge9" class="edge">
<title>Node9&#45;&gt;Node10</title>
<path fill="none" stroke="midnightblue" d="M496,-179.32C487.81,-171.42 475.49,-159.55 465.53,-149.94"/>
<polygon fill="midnightblue" stroke="midnightblue" points="467.79,-147.26 458.16,-142.83 462.93,-152.29 467.79,-147.26"/>
</g>
<!-- Node11 -->
<g id="node11" class="node">
<title>Node11</title>
<g id="a_node11"><a xlink:href="meta_8h.html" target="_top" xlink:title="mmCEsim meta data">
<polygon fill="white" stroke="black" points="286.5,-67.5 286.5,-86.5 337.5,-86.5 337.5,-67.5 286.5,-67.5"/>
<text text-anchor="middle" x="312" y="-74.5" font-family="Helvetica,sans-Serif" font-size="10.00">meta.h</text>
</a>
</g>
</g>
<!-- Node10&#45;&gt;Node11 -->
<g id="edge10" class="edge">
<title>Node10&#45;&gt;Node11</title>
<path fill="none" stroke="midnightblue" d="M428.49,-123.92C405.99,-115.05 369.59,-100.7 343.47,-90.4"/>
<polygon fill="midnightblue" stroke="midnightblue" points="344.6,-87.09 334.01,-86.68 342.03,-93.6 344.6,-87.09"/>
</g>
<!-- Node12 -->
<g id="node12" class="node">
<title>Node12</title>
<g id="a_node12"><a xlink:href="term_8h.html" target="_top" xlink:title="Terminal Color and Style Control.">
<polygon fill="white" stroke="black" points="68.5,-67.5 68.5,-86.5 117.5,-86.5 117.5,-67.5 68.5,-67.5"/>
<text text-anchor="middle" x="93" y="-74.5" font-family="Helvetica,sans-Serif" font-size="10.00">term.h</text>
</a>
</g>
</g>
<!-- Node10&#45;&gt;Node12 -->
<g id="edge12" class="edge">
<title>Node10&#45;&gt;Node12</title>
<path fill="none" stroke="midnightblue" d="M428.3,-127.01C422.12,-125.61 415.3,-124.16 409,-123 307.4,-104.37 186.23,-89.01 127.84,-82.04"/>
<polygon fill="midnightblue" stroke="midnightblue" points="128.04,-78.54 117.69,-80.84 127.21,-85.49 128.04,-78.54"/>
</g>
<!-- Node10&#45;&gt;Node15 -->
<g id="edge16" class="edge">
<title>Node10&#45;&gt;Node15</title>
<path fill="none" stroke="midnightblue" d="M469.56,-127.76C514.55,-118.49 622.11,-96.32 677.21,-84.96"/>
<polygon fill="midnightblue" stroke="midnightblue" points="678.09,-88.36 687.18,-82.91 676.68,-81.5 678.09,-88.36"/>
</g>
<!-- Node25 -->
<g id="node25" class="node">
<title>Node25</title>
<g id="a_node25"><a xlink:title=" ">
<polygon fill="white" stroke="#bfbfbf" points="427,-67.5 427,-86.5 471,-86.5 471,-67.5 427,-67.5"/>
<text text-anchor="middle" x="449" y="-74.5" font-family="Helvetica,sans-Serif" font-size="10.00">ctime</text>
</a>
</g>
</g>
<!-- Node10&#45;&gt;Node25 -->
<g id="edge28" class="edge">
<title>Node10&#45;&gt;Node25</title>
<path fill="none" stroke="midnightblue" d="M449,-123.08C449,-116.01 449,-105.86 449,-96.99"/>
<polygon fill="midnightblue" stroke="midnightblue" points="452.5,-96.75 449,-86.75 445.5,-96.75 452.5,-96.75"/>
</g>
<!-- Node26 -->
<g id="node26" class="node">
<title>Node26</title>
<g id="a_node26"><a xlink:title=" ">
<polygon fill="white" stroke="#bfbfbf" points="489,-67.5 489,-86.5 557,-86.5 557,-67.5 489,-67.5"/>
<text text-anchor="middle" x="523" y="-74.5" font-family="Helvetica,sans-Serif" font-size="10.00">filesystem</text>
</a>
</g>
</g>
<!-- Node10&#45;&gt;Node26 -->
<g id="edge29" class="edge">
<title>Node10&#45;&gt;Node26</title>
<path fill="none" stroke="midnightblue" d="M460.89,-123.32C472.15,-115.11 489.29,-102.6 502.71,-92.81"/>
<polygon fill="midnightblue" stroke="midnightblue" points="504.88,-95.56 510.89,-86.83 500.75,-89.9 504.88,-95.56"/>
</g>
<!-- Node27 -->
<g id="node27" class="node">
<title>Node27</title>
<g id="a_node27"><a xlink:title=" ">
<polygon fill="white" stroke="#bfbfbf" points="575.5,-67.5 575.5,-86.5 630.5,-86.5 630.5,-67.5 575.5,-67.5"/>
<text text-anchor="middle" x="603" y="-74.5" font-family="Helvetica,sans-Serif" font-size="10.00">fstream</text>
</a>
</g>
</g>
<!-- Node10&#45;&gt;Node27 -->
<g id="edge30" class="edge">
<title>Node10&#45;&gt;Node27</title>
<path fill="none" stroke="midnightblue" d="M469.77,-124.72C495.14,-115.82 538.43,-100.64 568.76,-90.01"/>
<polygon fill="midnightblue" stroke="midnightblue" points="570.22,-93.2 578.5,-86.59 567.91,-86.6 570.22,-93.2"/>
</g>
<!-- Node28 -->
<g id="node28" class="node">
<title>Node28</title>
<g id="a_node28"><a xlink:title=" ">
<polygon fill="white" stroke="#bfbfbf" points="212,-67.5 212,-86.5 268,-86.5 268,-67.5 212,-67.5"/>
<text text-anchor="middle" x="240" y="-74.5" font-family="Helvetica,sans-Serif" font-size="10.00">iomanip</text>
</a>
</g>
</g>
<!-- Node10&#45;&gt;Node28 -->
<g id="edge31" class="edge">
<title>Node10&#45;&gt;Node28</title>
<path fill="none" stroke="midnightblue" d="M428.2,-126.62C393.23,-117.59 322.2,-99.24 278.1,-87.84"/>
<polygon fill="midnightblue" stroke="midnightblue" points="278.87,-84.43 268.31,-85.32 277.12,-91.21 278.87,-84.43"/>
</g>
<!-- Node29 -->
<g id="node29" class="node">
<title>Node29</title>
<g id="a_node29"><a xlink:title=" ">
<polygon fill="white" stroke="#bfbfbf" points="355.5,-67.5 355.5,-86.5 408.5,-86.5 408.5,-67.5 355.5,-67.5"/>
<text text-anchor="middle" x="382" y="-74.5" font-family="Helvetica,sans-Serif" font-size="10.00">spy.hpp</text>
</a>
</g>
</g>
<!-- Node10&#45;&gt;Node29 -->
<g id="edge32" class="edge">
<title>Node10&#45;&gt;Node29</title>
<path fill="none" stroke="midnightblue" d="M438.24,-123.32C428.23,-115.26 413.11,-103.08 401.07,-93.37"/>
<polygon fill="midnightblue" stroke="midnightblue" points="402.94,-90.38 392.96,-86.83 398.55,-95.83 402.94,-90.38"/>
</g>
<!-- Node11&#45;&gt;Node7 -->
<g id="edge11" class="edge">
<title>Node11&#45;&gt;Node7</title>
<path fill="none" stroke="midnightblue" d="M297.24,-67.48C280.34,-57.71 252.42,-41.58 232.51,-30.08"/>
<polygon fill="midnightblue" stroke="midnightblue" points="234.14,-26.98 223.73,-25.01 230.64,-33.04 234.14,-26.98"/>
</g>
<!-- Node12&#45;&gt;Node7 -->
<g id="edge15" class="edge">
<title>Node12&#45;&gt;Node7</title>
<path fill="none" stroke="midnightblue" d="M109.62,-67.48C128.92,-57.58 160.96,-41.14 183.43,-29.62"/>
<polygon fill="midnightblue" stroke="midnightblue" points="185.11,-32.69 192.41,-25.01 181.92,-26.46 185.11,-32.69"/>
</g>
<!-- Node13 -->
<g id="node13" class="node">
<title>Node13</title>
<g id="a_node13"><a xlink:title=" ">
<polygon fill="white" stroke="#bfbfbf" points="78.5,-6 78.5,-25 127.5,-25 127.5,-6 78.5,-6"/>
<text text-anchor="middle" x="103" y="-13" font-family="Helvetica,sans-Serif" font-size="10.00">cstdlib</text>
</a>
</g>
</g>
<!-- Node12&#45;&gt;Node13 -->
<g id="edge13" class="edge">
<title>Node12&#45;&gt;Node13</title>
<path fill="none" stroke="midnightblue" d="M94.43,-67.48C95.84,-59.08 98.05,-45.98 99.86,-35.16"/>
<polygon fill="midnightblue" stroke="midnightblue" points="103.36,-35.45 101.57,-25.01 96.46,-34.29 103.36,-35.45"/>
</g>
<!-- Node12&#45;&gt;Node14 -->
<g id="edge14" class="edge">
<title>Node12&#45;&gt;Node14</title>
<path fill="none" stroke="midnightblue" d="M83.97,-67.48C74.24,-58.28 58.54,-43.46 46.58,-32.16"/>
<polygon fill="midnightblue" stroke="midnightblue" points="48.68,-29.33 39.01,-25.01 43.88,-34.42 48.68,-29.33"/>
</g>
<!-- Node15&#45;&gt;Node3 -->
<g id="edge23" class="edge">
<title>Node15&#45;&gt;Node3</title>
<path fill="none" stroke="midnightblue" d="M734.57,-72.97C782.68,-66.62 895.5,-50.84 989,-31 993.82,-29.98 998.85,-28.8 1003.82,-27.57"/>
<polygon fill="midnightblue" stroke="midnightblue" points="1005.04,-30.87 1013.87,-25.01 1003.31,-24.09 1005.04,-30.87"/>
</g>
<!-- Node15&#45;&gt;Node7 -->
<g id="edge21" class="edge">
<title>Node15&#45;&gt;Node7</title>
<path fill="none" stroke="midnightblue" d="M687.39,-69.83C682.65,-68.76 677.69,-67.75 673,-67 482.29,-36.66 426.61,-80.69 240,-31 238.06,-30.48 236.1,-29.85 234.14,-29.14"/>
<polygon fill="midnightblue" stroke="midnightblue" points="235.26,-25.81 224.68,-25.15 232.53,-32.26 235.26,-25.81"/>
</g>
<!-- Node16 -->
<g id="node16" class="node">
<title>Node16</title>
<g id="a_node16"><a xlink:title=" ">
<polygon fill="white" stroke="#bfbfbf" points="916,-6 916,-25 980,-25 980,-6 916,-6"/>
<text text-anchor="middle" x="948" y="-13" font-family="Helvetica,sans-Serif" font-size="10.00">algorithm</text>
</a>
</g>
</g>
<!-- Node15&#45;&gt;Node16 -->
<g id="edge17" class="edge">
<title>Node15&#45;&gt;Node16</title>
<path fill="none" stroke="midnightblue" d="M734.76,-71.46C771.85,-64.16 845.65,-48.83 907,-31 909.79,-30.19 912.66,-29.3 915.53,-28.36"/>
<polygon fill="midnightblue" stroke="midnightblue" points="916.82,-31.62 925.16,-25.1 914.57,-24.99 916.82,-31.62"/>
</g>
<!-- Node17 -->
<g id="node17" class="node">
<title>Node17</title>
<g id="a_node17"><a xlink:title=" ">
<polygon fill="white" stroke="#bfbfbf" points="314.5,-6 314.5,-25 363.5,-25 363.5,-6 314.5,-6"/>
<text text-anchor="middle" x="339" y="-13" font-family="Helvetica,sans-Serif" font-size="10.00">cctype</text>
</a>
</g>
</g>
<!-- Node15&#45;&gt;Node17 -->
<g id="edge18" class="edge">
<title>Node15&#45;&gt;Node17</title>
<path fill="none" stroke="midnightblue" d="M687.37,-69.97C682.63,-68.88 677.67,-67.83 673,-67 540.78,-43.49 502.73,-65.69 373,-31 370.65,-30.37 368.24,-29.61 365.86,-28.77"/>
<polygon fill="midnightblue" stroke="midnightblue" points="366.9,-25.42 356.31,-25 364.33,-31.93 366.9,-25.42"/>
</g>
<!-- Node18 -->
<g id="node18" class="node">
<title>Node18</title>
<g id="a_node18"><a xlink:title=" ">
<polygon fill="white" stroke="#bfbfbf" points="382,-6 382,-25 436,-25 436,-6 382,-6"/>
<text text-anchor="middle" x="409" y="-13" font-family="Helvetica,sans-Serif" font-size="10.00">random</text>
</a>
</g>
</g>
<!-- Node15&#45;&gt;Node18 -->
<g id="edge19" class="edge">
<title>Node15&#45;&gt;Node18</title>
<path fill="none" stroke="midnightblue" d="M687.34,-70.1C682.61,-69.01 677.66,-67.92 673,-67 572.35,-47.16 543.88,-58.34 445,-31 442.56,-30.32 440.05,-29.53 437.56,-28.68"/>
<polygon fill="midnightblue" stroke="midnightblue" points="438.74,-25.38 428.15,-25.15 436.29,-31.94 438.74,-25.38"/>
</g>
<!-- Node19 -->
<g id="node19" class="node">
<title>Node19</title>
<g id="a_node19"><a xlink:title=" ">
<polygon fill="white" stroke="#bfbfbf" points="454,-6 454,-25 510,-25 510,-6 454,-6"/>
<text text-anchor="middle" x="482" y="-13" font-family="Helvetica,sans-Serif" font-size="10.00">sstream</text>
</a>
</g>
</g>
<!-- Node15&#45;&gt;Node19 -->
<g id="edge20" class="edge">
<title>Node15&#45;&gt;Node19</title>
<path fill="none" stroke="midnightblue" d="M687.29,-70.37C682.55,-69.25 677.62,-68.09 673,-67 604.58,-50.9 586.12,-51.88 519,-31 516.58,-30.25 514.09,-29.41 511.6,-28.53"/>
<polygon fill="midnightblue" stroke="midnightblue" points="512.76,-25.23 502.17,-25.01 510.31,-31.79 512.76,-25.23"/>
</g>
<!-- Node15&#45;&gt;Node20 -->
<g id="edge22" class="edge">
<title>Node15&#45;&gt;Node20</title>
<path fill="none" stroke="midnightblue" d="M687.38,-69.89C682.64,-68.81 677.68,-67.78 673,-67 510.9,-40 463.75,-73.48 305,-31 302.85,-30.42 300.65,-29.72 298.48,-28.93"/>
<polygon fill="midnightblue" stroke="midnightblue" points="299.8,-25.69 289.23,-25.09 297.13,-32.15 299.8,-25.69"/>
</g>
<!-- Node21 -->
<g id="node21" class="node">
<title>Node21</title>
<g id="a_node21"><a xlink:title=" ">
<polygon fill="white" stroke="#bfbfbf" points="528.5,-0.5 528.5,-30.5 669.5,-30.5 669.5,-0.5 528.5,-0.5"/>
<text text-anchor="start" x="536.5" y="-18.5" font-family="Helvetica,sans-Serif" font-size="10.00">boost/dll/runtime_symbol</text>
<text text-anchor="middle" x="599" y="-7.5" font-family="Helvetica,sans-Serif" font-size="10.00">_info.hpp</text>
</a>
</g>
</g>
<!-- Node15&#45;&gt;Node21 -->
<g id="edge24" class="edge">
<title>Node15&#45;&gt;Node21</title>
<path fill="none" stroke="midnightblue" d="M694.95,-67.48C679.22,-59.12 654.7,-46.09 634.39,-35.3"/>
<polygon fill="midnightblue" stroke="midnightblue" points="635.87,-32.12 625.4,-30.52 632.59,-38.31 635.87,-32.12"/>
</g>
<!-- Node22 -->
<g id="node22" class="node">
<title>Node22</title>
<g id="a_node22"><a xlink:title=" ">
<polygon fill="white" stroke="#bfbfbf" points="688,-6 688,-25 734,-25 734,-6 688,-6"/>
<text text-anchor="middle" x="711" y="-13" font-family="Helvetica,sans-Serif" font-size="10.00">pwd.h</text>
</a>
</g>
</g>
<!-- Node15&#45;&gt;Node22 -->
<g id="edge25" class="edge">
<title>Node15&#45;&gt;Node22</title>
<path fill="none" stroke="midnightblue" d="M711,-67.48C711,-59.08 711,-45.98 711,-35.16"/>
<polygon fill="midnightblue" stroke="midnightblue" points="714.5,-35.01 711,-25.01 707.5,-35.01 714.5,-35.01"/>
</g>
<!-- Node23 -->
<g id="node23" class="node">
<title>Node23</title>
<g id="a_node23"><a xlink:title=" ">
<polygon fill="white" stroke="#bfbfbf" points="752,-6 752,-25 824,-25 824,-6 752,-6"/>
<text text-anchor="middle" x="788" y="-13" font-family="Helvetica,sans-Serif" font-size="10.00">sys/types.h</text>
</a>
</g>
</g>
<!-- Node15&#45;&gt;Node23 -->
<g id="edge26" class="edge">
<title>Node15&#45;&gt;Node23</title>
<path fill="none" stroke="midnightblue" d="M722.03,-67.48C734.27,-58.02 754.23,-42.6 768.99,-31.19"/>
<polygon fill="midnightblue" stroke="midnightblue" points="771.22,-33.89 776.99,-25.01 766.94,-28.35 771.22,-33.89"/>
</g>
<!-- Node24 -->
<g id="node24" class="node">
<title>Node24</title>
<g id="a_node24"><a xlink:title=" ">
<polygon fill="white" stroke="#bfbfbf" points="842,-6 842,-25 898,-25 898,-6 842,-6"/>
<text text-anchor="middle" x="870" y="-13" font-family="Helvetica,sans-Serif" font-size="10.00">unistd.h</text>
</a>
</g>
</g>
<!-- Node15&#45;&gt;Node24 -->
<g id="edge27" class="edge">
<title>Node15&#45;&gt;Node24</title>
<path fill="none" stroke="midnightblue" d="M734.9,-67.35C759.53,-58.39 799.03,-43.92 833,-31 834.89,-30.28 836.82,-29.54 838.78,-28.79"/>
<polygon fill="midnightblue" stroke="midnightblue" points="840.45,-31.89 848.51,-25.01 837.92,-25.37 840.45,-31.89"/>
</g>
</g>
</svg>
        <g id="navigator" transform="translate(0 0)" fill="#404254">
                <rect fill="#f2f5e9" fill-opacity="0.5" stroke="#606060" stroke-width=".5" x="0" y="0" width="60" height="60"/>
                <use id="zoomplus" xlink:href="#zoomPlus" x="17" y="9" onmousedown="handleZoom(evt,'in')"/>
                <use id="zoomminus" xlink:href="#zoomMin" x="42" y="9" onmousedown="handleZoom(evt,'out')"/>
                <use id="reset" xlink:href="#resetDef" x="30" y="36" onmousedown="handleReset()"/>
                <g id="arrowUp" xlink:href="#dirArrow" transform="translate(30 24)" onmousedown="handlePan(0,-1)">
                  <use xlink:href="#rim" fill="#404040">
                        <set attributeName="fill" to="#808080" begin="arrowUp.mouseover" end="arrowUp.mouseout"/>
                  </use>
                  <path fill="none" stroke="white" stroke-width="1.5" d="M0,-3.0v7 M-2.5,-0.5L0,-3.0L2.5,-0.5"/>
                </g>
                <g id="arrowRight" xlink:href="#dirArrow" transform="rotate(90) translate(36 -43)" onmousedown="handlePan(1,0)">
                  <use xlink:href="#rim" fill="#404040">
                        <set attributeName="fill" to="#808080" begin="arrowRight.mouseover" end="arrowRight.mouseout"/>
                  </use>
                  <path fill="none" stroke="white" stroke-width="1.5" d="M0,-3.0v7 M-2.5,-0.5L0,-3.0L2.5,-0.5"/>
                </g>
                <g id="arrowDown" xlink:href="#dirArrow" transform="rotate(180) translate(-30 -48)" onmousedown="handlePan(0,1)">
                  <use xlink:href="#rim" fill="#404040">
                        <set attributeName="fill" to="#808080" begin="arrowDown.mouseover" end="arrowDown.mouseout"/>
                  </use>
                  <path fill="none" stroke="white" stroke-width="1.5" d="M0,-3.0v7 M-2.5,-0.5L0,-3.0L2.5,-0.5"/>
                </g>
                <g id="arrowLeft" xlink:href="#dirArrow" transform="rotate(270) translate(-36 17)" onmousedown="handlePan(-1,0)">
                  <use xlink:href="#rim" fill="#404040">
                        <set attributeName="fill" to="#808080" begin="arrowLeft.mouseover" end="arrowLeft.mouseout"/>
                  </use>
                  <path fill="none" stroke="white" stroke-width="1.5" d="M0,-3.0v7 M-2.5,-0.5L0,-3.0L2.5,-0.5"/>
                </g>
        </g>
        <svg viewBox="0 0 15 15" width="100%" height="30px" preserveAspectRatio="xMaxYMin meet">
         <g id="arrow_out" transform="scale(0.3 0.3)">
          <a xlink:href="calc_8cpp__incl_org.svg" target="_base">
           <rect id="button" ry="5" rx="5" y="6" x="6" height="38" width="38"
                fill="#f2f5e9" fill-opacity="0.5" stroke="#606060" stroke-width="1.0"/>
           <path id="arrow"
             d="M 11.500037,31.436501 C 11.940474,20.09759 22.043105,11.32322 32.158766,21.979434 L 37.068811,17.246167 C 37.068811,17.246167 37.088388,32 37.088388,32 L 22.160133,31.978069 C 22.160133,31.978069 26.997745,27.140456 26.997745,27.140456 C 18.528582,18.264221 13.291696,25.230495 11.500037,31.436501 z"
             style="fill:#404040;"/>
          </a>
         </g>
        </svg>
</svg>
