<?xml version="1.0" encoding="UTF-8" standalone="no"?>
<!DOCTYPE svg PUBLIC "-//W3C//DTD SVG 1.1//EN"
 "http://www.w3.org/Graphics/SVG/1.1/DTD/svg11.dtd">
<!-- Generated by graphviz version 2.43.0 (0)
 -->
<!-- Title: src/export/calc.cpp Pages: 1 -->
<svg width="1047pt" height="442pt"
 viewBox="0.00 0.00 1047.00 442.00" xmlns="http://www.w3.org/2000/svg" xmlns:xlink="http://www.w3.org/1999/xlink">
<g id="graph0" class="graph" transform="scale(1 1) rotate(0) translate(4 438)">
<title>src/export/calc.cpp</title>
<polygon fill="white" stroke="transparent" points="-4,4 -4,-438 1043,-438 1043,4 -4,4"/>
<!-- Node1 -->
<g id="node1" class="node">
<title>Node1</title>
<g id="a_node1"><a xlink:title="Implementation of Calc Class.">
<polygon fill="#bfbfbf" stroke="black" points="891.5,-414.5 891.5,-433.5 999.5,-433.5 999.5,-414.5 891.5,-414.5"/>
<text text-anchor="middle" x="945.5" y="-421.5" font-family="Helvetica,sans-Serif" font-size="10.00">src/export/calc.cpp</text>
</a>
</g>
</g>
<!-- Node2 -->
<g id="node2" class="node">
<title>Node2</title>
<g id="a_node2"><a xlink:href="calc_8h.html" target="_top" xlink:title="Make Calculation in Alg.">
<polygon fill="white" stroke="black" points="475.5,-358.5 475.5,-377.5 555.5,-377.5 555.5,-358.5 475.5,-358.5"/>
<text text-anchor="middle" x="515.5" y="-365.5" font-family="Helvetica,sans-Serif" font-size="10.00">export/calc.h</text>
</a>
</g>
</g>
<!-- Node1&#45;&gt;Node2 -->
<g id="edge1" class="edge">
<title>Node1&#45;&gt;Node2</title>
<path fill="none" stroke="midnightblue" d="M891.48,-416.22C807.55,-405.68 647.04,-385.52 565.58,-375.29"/>
<polygon fill="midnightblue" stroke="midnightblue" points="565.93,-371.81 555.58,-374.03 565.06,-378.75 565.93,-371.81"/>
</g>
<!-- Node13 -->
<g id="node13" class="node">
<title>Node13</title>
<g id="a_node13"><a xlink:title=" ">
<polygon fill="white" stroke="#bfbfbf" points="889.5,-6 889.5,-25 949.5,-25 949.5,-6 889.5,-6"/>
<text text-anchor="middle" x="919.5" y="-13" font-family="Helvetica,sans-Serif" font-size="10.00">iostream</text>
</a>
</g>
</g>
<!-- Node1&#45;&gt;Node13 -->
<g id="edge38" class="edge">
<title>Node1&#45;&gt;Node13</title>
<path fill="none" stroke="midnightblue" d="M945.5,-414.31C945.5,-395.06 945.5,-347.4 945.5,-307.5 945.5,-307.5 945.5,-307.5 945.5,-132 945.5,-96.85 933.9,-57.12 926.19,-34.61"/>
<polygon fill="midnightblue" stroke="midnightblue" points="929.44,-33.3 922.79,-25.04 922.84,-35.64 929.44,-33.3"/>
</g>
<!-- Node29 -->
<g id="node29" class="node">
<title>Node29</title>
<g id="a_node29"><a xlink:title=" ">
<polygon fill="white" stroke="#bfbfbf" points="974,-358.5 974,-377.5 1039,-377.5 1039,-358.5 974,-358.5"/>
<text text-anchor="middle" x="1006.5" y="-365.5" font-family="Helvetica,sans-Serif" font-size="10.00">exception</text>
</a>
</g>
</g>
<!-- Node1&#45;&gt;Node29 -->
<g id="edge37" class="edge">
<title>Node1&#45;&gt;Node29</title>
<path fill="none" stroke="midnightblue" d="M955.3,-414.32C964.32,-406.34 977.91,-394.31 988.82,-384.65"/>
<polygon fill="midnightblue" stroke="midnightblue" points="991.35,-387.08 996.52,-377.83 986.71,-381.84 991.35,-387.08"/>
</g>
<!-- Node3 -->
<g id="node3" class="node">
<title>Node3</title>
<g id="a_node3"><a xlink:href="type__track__global_8h.html" target="_top" xlink:title="Global Access of Type Track.">
<polygon fill="white" stroke="black" points="288,-297 288,-316 435,-316 435,-297 288,-297"/>
<text text-anchor="middle" x="361.5" y="-304" font-family="Helvetica,sans-Serif" font-size="10.00">export/type_track_global.h</text>
</a>
</g>
</g>
<!-- Node2&#45;&gt;Node3 -->
<g id="edge2" class="edge">
<title>Node2&#45;&gt;Node3</title>
<path fill="none" stroke="midnightblue" d="M493.44,-358.48C467.13,-348.31 422.99,-331.26 393.08,-319.7"/>
<polygon fill="midnightblue" stroke="midnightblue" points="394.11,-316.35 383.52,-316.01 391.59,-322.88 394.11,-316.35"/>
</g>
<!-- Node6 -->
<g id="node6" class="node">
<title>Node6</title>
<g id="a_node6"><a xlink:title=" ">
<polygon fill="white" stroke="#bfbfbf" points="520.5,-6 520.5,-25 564.5,-25 564.5,-6 520.5,-6"/>
<text text-anchor="middle" x="542.5" y="-13" font-family="Helvetica,sans-Serif" font-size="10.00">string</text>
</a>
</g>
</g>
<!-- Node2&#45;&gt;Node6 -->
<g id="edge35" class="edge">
<title>Node2&#45;&gt;Node6</title>
<path fill="none" stroke="midnightblue" d="M475.1,-365.31C426.42,-361.95 343.1,-351.92 278.5,-322 229.75,-299.42 184.5,-299.72 184.5,-246 184.5,-246 184.5,-246 184.5,-188 184.5,-185.71 431.37,-68.96 515.1,-29.43"/>
<polygon fill="midnightblue" stroke="midnightblue" points="516.71,-32.54 524.25,-25.11 513.72,-26.21 516.71,-32.54"/>
</g>
<!-- Node7 -->
<g id="node7" class="node">
<title>Node7</title>
<g id="a_node7"><a xlink:title=" ">
<polygon fill="white" stroke="#bfbfbf" points="398,-123.5 398,-142.5 439,-142.5 439,-123.5 398,-123.5"/>
<text text-anchor="middle" x="418.5" y="-130.5" font-family="Helvetica,sans-Serif" font-size="10.00">tuple</text>
</a>
</g>
</g>
<!-- Node2&#45;&gt;Node7 -->
<g id="edge36" class="edge">
<title>Node2&#45;&gt;Node7</title>
<path fill="none" stroke="midnightblue" d="M540.66,-358.38C556.92,-351.34 576.79,-339.65 586.5,-322 609.82,-279.6 582.39,-213.1 548.5,-179 521.81,-152.14 478.32,-141.29 449.08,-136.92"/>
<polygon fill="midnightblue" stroke="midnightblue" points="449.38,-133.43 439,-135.59 448.46,-140.37 449.38,-133.43"/>
</g>
<!-- Node8 -->
<g id="node8" class="node">
<title>Node8</title>
<g id="a_node8"><a xlink:href="log__global_8h.html" target="_top" xlink:title="Global Access of Log.">
<polygon fill="white" stroke="black" points="634.5,-179.5 634.5,-198.5 710.5,-198.5 710.5,-179.5 634.5,-179.5"/>
<text text-anchor="middle" x="672.5" y="-186.5" font-family="Helvetica,sans-Serif" font-size="10.00">log_global.h</text>
</a>
</g>
</g>
<!-- Node2&#45;&gt;Node8 -->
<g id="edge32" class="edge">
<title>Node2&#45;&gt;Node8</title>
<path fill="none" stroke="midnightblue" d="M553.72,-358.47C575.74,-351.81 602.54,-340.5 620.5,-322 651.71,-289.85 664.82,-236.73 669.8,-208.68"/>
<polygon fill="midnightblue" stroke="midnightblue" points="673.28,-209.07 671.42,-198.64 666.37,-207.95 673.28,-209.07"/>
</g>
<!-- Node14 -->
<g id="node14" class="node">
<title>Node14</title>
<g id="a_node14"><a xlink:href="utils_8h.html" target="_top" xlink:title="Utilities.">
<polygon fill="white" stroke="black" points="209,-67.5 209,-86.5 256,-86.5 256,-67.5 209,-67.5"/>
<text text-anchor="middle" x="232.5" y="-74.5" font-family="Helvetica,sans-Serif" font-size="10.00">utils.h</text>
</a>
</g>
</g>
<!-- Node2&#45;&gt;Node14 -->
<g id="edge33" class="edge">
<title>Node2&#45;&gt;Node14</title>
<path fill="none" stroke="midnightblue" d="M475.32,-367.01C394.46,-366.21 215.94,-360.06 170.5,-322 143.35,-299.25 146.5,-281.42 146.5,-246 146.5,-246 146.5,-246 146.5,-188 146.5,-157.2 151.9,-147.55 170.5,-123 180.19,-110.2 194.53,-99.47 206.98,-91.7"/>
<polygon fill="midnightblue" stroke="midnightblue" points="208.79,-94.69 215.61,-86.58 205.22,-88.67 208.79,-94.69"/>
</g>
<!-- Node28 -->
<g id="node28" class="node">
<title>Node28</title>
<g id="a_node28"><a xlink:title=" ">
<polygon fill="white" stroke="#bfbfbf" points="453,-291.5 453,-321.5 578,-321.5 578,-291.5 453,-291.5"/>
<text text-anchor="start" x="461" y="-309.5" font-family="Helvetica,sans-Serif" font-size="10.00">boost/algorithm/string</text>
<text text-anchor="middle" x="515.5" y="-298.5" font-family="Helvetica,sans-Serif" font-size="10.00">/replace.hpp</text>
</a>
</g>
</g>
<!-- Node2&#45;&gt;Node28 -->
<g id="edge34" class="edge">
<title>Node2&#45;&gt;Node28</title>
<path fill="none" stroke="midnightblue" d="M515.5,-358.48C515.5,-351.47 515.5,-341.19 515.5,-331.7"/>
<polygon fill="midnightblue" stroke="midnightblue" points="519,-331.52 515.5,-321.52 512,-331.52 519,-331.52"/>
</g>
<!-- Node4 -->
<g id="node4" class="node">
<title>Node4</title>
<g id="a_node4"><a xlink:href="type__track_8h.html" target="_top" xlink:title="Track data type of variables.">
<polygon fill="white" stroke="black" points="352.5,-235.5 352.5,-254.5 464.5,-254.5 464.5,-235.5 352.5,-235.5"/>
<text text-anchor="middle" x="408.5" y="-242.5" font-family="Helvetica,sans-Serif" font-size="10.00">export/type_track.h</text>
</a>
</g>
</g>
<!-- Node3&#45;&gt;Node4 -->
<g id="edge3" class="edge">
<title>Node3&#45;&gt;Node4</title>
<path fill="none" stroke="midnightblue" d="M368.23,-296.98C375.28,-288.05 386.53,-273.81 395.35,-262.64"/>
<polygon fill="midnightblue" stroke="midnightblue" points="398.33,-264.53 401.78,-254.51 392.83,-260.19 398.33,-264.53"/>
</g>
<!-- Node5 -->
<g id="node5" class="node">
<title>Node5</title>
<g id="a_node5"><a xlink:href="type_8h.html" target="_top" xlink:title="Type Specification in Alg.">
<polygon fill="white" stroke="black" points="250.5,-179.5 250.5,-198.5 332.5,-198.5 332.5,-179.5 250.5,-179.5"/>
<text text-anchor="middle" x="291.5" y="-186.5" font-family="Helvetica,sans-Serif" font-size="10.00">export/type.h</text>
</a>
</g>
</g>
<!-- Node4&#45;&gt;Node5 -->
<g id="edge4" class="edge">
<title>Node4&#45;&gt;Node5</title>
<path fill="none" stroke="midnightblue" d="M389.96,-235.44C370.88,-226.64 340.93,-212.81 319.06,-202.72"/>
<polygon fill="midnightblue" stroke="midnightblue" points="320.5,-199.53 309.95,-198.52 317.57,-205.88 320.5,-199.53"/>
</g>
<!-- Node4&#45;&gt;Node8 -->
<g id="edge7" class="edge">
<title>Node4&#45;&gt;Node8</title>
<path fill="none" stroke="midnightblue" d="M450.33,-235.44C497.67,-225.76 574.64,-210.02 624.41,-199.84"/>
<polygon fill="midnightblue" stroke="midnightblue" points="625.2,-203.25 634.29,-197.82 623.79,-196.39 625.2,-203.25"/>
</g>
<!-- Node4&#45;&gt;Node13 -->
<g id="edge27" class="edge">
<title>Node4&#45;&gt;Node13</title>
<path fill="none" stroke="midnightblue" d="M464.77,-241.2C494.8,-236.48 529.4,-225.2 548.5,-199 584.69,-149.36 466.2,-112.48 507.5,-67 563.48,-5.35 799.35,-49.67 880.5,-31 883.57,-30.29 886.72,-29.41 889.85,-28.42"/>
<polygon fill="midnightblue" stroke="midnightblue" points="891.27,-31.64 899.56,-25.05 888.97,-25.02 891.27,-31.64"/>
</g>
<!-- Node19 -->
<g id="node19" class="node">
<title>Node19</title>
<g id="a_node19"><a xlink:title=" ">
<polygon fill="white" stroke="#bfbfbf" points="0,-6 0,-25 47,-25 47,-6 0,-6"/>
<text text-anchor="middle" x="23.5" y="-13" font-family="Helvetica,sans-Serif" font-size="10.00">vector</text>
</a>
</g>
</g>
<!-- Node4&#45;&gt;Node19 -->
<g id="edge31" class="edge">
<title>Node4&#45;&gt;Node19</title>
<path fill="none" stroke="midnightblue" d="M353.66,-235.44C319.96,-228.7 276.66,-217.31 241.5,-199 154.36,-153.62 70.94,-68.48 38.13,-32.84"/>
<polygon fill="midnightblue" stroke="midnightblue" points="40.56,-30.31 31.24,-25.27 35.38,-35.02 40.56,-30.31"/>
</g>
<!-- Node25 -->
<g id="node25" class="node">
<title>Node25</title>
<g id="a_node25"><a xlink:title=" ">
<polygon fill="white" stroke="#bfbfbf" points="351,-179.5 351,-198.5 394,-198.5 394,-179.5 351,-179.5"/>
<text text-anchor="middle" x="372.5" y="-186.5" font-family="Helvetica,sans-Serif" font-size="10.00">stack</text>
</a>
</g>
</g>
<!-- Node4&#45;&gt;Node25 -->
<g id="edge28" class="edge">
<title>Node4&#45;&gt;Node25</title>
<path fill="none" stroke="midnightblue" d="M402.56,-235.08C397.52,-227.53 390.16,-216.49 383.99,-207.23"/>
<polygon fill="midnightblue" stroke="midnightblue" points="386.79,-205.13 378.33,-198.75 380.97,-209.01 386.79,-205.13"/>
</g>
<!-- Node26 -->
<g id="node26" class="node">
<title>Node26</title>
<g id="a_node26"><a xlink:title=" ">
<polygon fill="white" stroke="#bfbfbf" points="412,-179.5 412,-198.5 477,-198.5 477,-179.5 412,-179.5"/>
<text text-anchor="middle" x="444.5" y="-186.5" font-family="Helvetica,sans-Serif" font-size="10.00">stdexcept</text>
</a>
</g>
</g>
<!-- Node4&#45;&gt;Node26 -->
<g id="edge29" class="edge">
<title>Node4&#45;&gt;Node26</title>
<path fill="none" stroke="midnightblue" d="M414.44,-235.08C419.48,-227.53 426.84,-216.49 433.01,-207.23"/>
<polygon fill="midnightblue" stroke="midnightblue" points="436.03,-209.01 438.67,-198.75 430.21,-205.13 436.03,-209.01"/>
</g>
<!-- Node27 -->
<g id="node27" class="node">
<title>Node27</title>
<g id="a_node27"><a xlink:title=" ">
<polygon fill="white" stroke="#bfbfbf" points="495,-179.5 495,-198.5 540,-198.5 540,-179.5 495,-179.5"/>
<text text-anchor="middle" x="517.5" y="-186.5" font-family="Helvetica,sans-Serif" font-size="10.00">utility</text>
</a>
</g>
</g>
<!-- Node4&#45;&gt;Node27 -->
<g id="edge30" class="edge">
<title>Node4&#45;&gt;Node27</title>
<path fill="none" stroke="midnightblue" d="M426.01,-235.32C443.57,-226.62 470.83,-213.12 491.03,-203.11"/>
<polygon fill="midnightblue" stroke="midnightblue" points="492.62,-206.23 500.03,-198.65 489.52,-199.96 492.62,-206.23"/>
</g>
<!-- Node5&#45;&gt;Node6 -->
<g id="edge5" class="edge">
<title>Node5&#45;&gt;Node6</title>
<path fill="none" stroke="midnightblue" d="M303.95,-179.5C344.18,-152.01 471.01,-65.35 521.48,-30.86"/>
<polygon fill="midnightblue" stroke="midnightblue" points="523.7,-33.59 529.98,-25.06 519.75,-27.81 523.7,-33.59"/>
</g>
<!-- Node5&#45;&gt;Node7 -->
<g id="edge6" class="edge">
<title>Node5&#45;&gt;Node7</title>
<path fill="none" stroke="midnightblue" d="M311.62,-179.44C332.52,-170.56 365.43,-156.56 389.22,-146.45"/>
<polygon fill="midnightblue" stroke="midnightblue" points="390.64,-149.65 398.47,-142.52 387.9,-143.21 390.64,-149.65"/>
</g>
<!-- Node9 -->
<g id="node9" class="node">
<title>Node9</title>
<g id="a_node9"><a xlink:href="include_2log_8h.html" target="_top" xlink:title="Log Utilities.">
<polygon fill="white" stroke="black" points="657,-123.5 657,-142.5 698,-142.5 698,-123.5 657,-123.5"/>
<text text-anchor="middle" x="677.5" y="-130.5" font-family="Helvetica,sans-Serif" font-size="10.00">log.h</text>
</a>
</g>
</g>
<!-- Node8&#45;&gt;Node9 -->
<g id="edge8" class="edge">
<title>Node8&#45;&gt;Node9</title>
<path fill="none" stroke="midnightblue" d="M673.33,-179.08C673.98,-172.01 674.92,-161.86 675.74,-152.99"/>
<polygon fill="midnightblue" stroke="midnightblue" points="679.25,-153.03 676.69,-142.75 672.28,-152.39 679.25,-153.03"/>
</g>
<!-- Node10 -->
<g id="node10" class="node">
<title>Node10</title>
<g id="a_node10"><a xlink:href="meta_8h.html" target="_top" xlink:title="mmCEsim meta data">
<polygon fill="white" stroke="black" points="517,-67.5 517,-86.5 568,-86.5 568,-67.5 517,-67.5"/>
<text text-anchor="middle" x="542.5" y="-74.5" font-family="Helvetica,sans-Serif" font-size="10.00">meta.h</text>
</a>
</g>
</g>
<!-- Node9&#45;&gt;Node10 -->
<g id="edge9" class="edge">
<title>Node9&#45;&gt;Node10</title>
<path fill="none" stroke="midnightblue" d="M657,-123.8C634.86,-114.94 599.33,-100.73 573.71,-90.49"/>
<polygon fill="midnightblue" stroke="midnightblue" points="574.68,-87.1 564.09,-86.64 572.08,-93.6 574.68,-87.1"/>
</g>
<!-- Node11 -->
<g id="node11" class="node">
<title>Node11</title>
<g id="a_node11"><a xlink:href="term_8h.html" target="_top" xlink:title="Terminal Color and Style Control.">
<polygon fill="white" stroke="black" points="868,-67.5 868,-86.5 917,-86.5 917,-67.5 868,-67.5"/>
<text text-anchor="middle" x="892.5" y="-74.5" font-family="Helvetica,sans-Serif" font-size="10.00">term.h</text>
</a>
</g>
</g>
<!-- Node9&#45;&gt;Node11 -->
<g id="edge11" class="edge">
<title>Node9&#45;&gt;Node11</title>
<path fill="none" stroke="midnightblue" d="M698.16,-126.97C730.15,-119.16 793.85,-103.52 858.1,-87.07"/>
<polygon fill="midnightblue" stroke="midnightblue" points="859.18,-90.41 868,-84.53 857.44,-83.63 859.18,-90.41"/>
</g>
<!-- Node9&#45;&gt;Node14 -->
<g id="edge15" class="edge">
<title>Node9&#45;&gt;Node14</title>
<path fill="none" stroke="midnightblue" d="M656.93,-129.5C586.37,-120.94 353.71,-92.71 266.19,-82.09"/>
<polygon fill="midnightblue" stroke="midnightblue" points="266.37,-78.58 256.02,-80.85 265.52,-85.53 266.37,-78.58"/>
</g>
<!-- Node21 -->
<g id="node21" class="node">
<title>Node21</title>
<g id="a_node21"><a xlink:title=" ">
<polygon fill="white" stroke="#bfbfbf" points="805.5,-67.5 805.5,-86.5 849.5,-86.5 849.5,-67.5 805.5,-67.5"/>
<text text-anchor="middle" x="827.5" y="-74.5" font-family="Helvetica,sans-Serif" font-size="10.00">ctime</text>
</a>
</g>
</g>
<!-- Node9&#45;&gt;Node21 -->
<g id="edge23" class="edge">
<title>Node9&#45;&gt;Node21</title>
<path fill="none" stroke="midnightblue" d="M698.04,-124.6C723.27,-115.52 766.34,-100.02 795.82,-89.4"/>
<polygon fill="midnightblue" stroke="midnightblue" points="797.03,-92.69 805.25,-86.01 794.66,-86.1 797.03,-92.69"/>
</g>
<!-- Node22 -->
<g id="node22" class="node">
<title>Node22</title>
<g id="a_node22"><a xlink:title=" ">
<polygon fill="white" stroke="#bfbfbf" points="586,-67.5 586,-86.5 641,-86.5 641,-67.5 586,-67.5"/>
<text text-anchor="middle" x="613.5" y="-74.5" font-family="Helvetica,sans-Serif" font-size="10.00">fstream</text>
</a>
</g>
</g>
<!-- Node9&#45;&gt;Node22 -->
<g id="edge24" class="edge">
<title>Node9&#45;&gt;Node22</title>
<path fill="none" stroke="midnightblue" d="M667.22,-123.32C657.66,-115.26 643.22,-103.08 631.72,-93.37"/>
<polygon fill="midnightblue" stroke="midnightblue" points="633.87,-90.61 623.97,-86.83 629.36,-95.96 633.87,-90.61"/>
</g>
<!-- Node23 -->
<g id="node23" class="node">
<title>Node23</title>
<g id="a_node23"><a xlink:title=" ">
<polygon fill="white" stroke="#bfbfbf" points="659.5,-67.5 659.5,-86.5 715.5,-86.5 715.5,-67.5 659.5,-67.5"/>
<text text-anchor="middle" x="687.5" y="-74.5" font-family="Helvetica,sans-Serif" font-size="10.00">iomanip</text>
</a>
</g>
</g>
<!-- Node9&#45;&gt;Node23 -->
<g id="edge25" class="edge">
<title>Node9&#45;&gt;Node23</title>
<path fill="none" stroke="midnightblue" d="M679.15,-123.08C680.48,-115.93 682.38,-105.64 684.04,-96.69"/>
<polygon fill="midnightblue" stroke="midnightblue" points="687.5,-97.22 685.88,-86.75 680.62,-95.95 687.5,-97.22"/>
</g>
<!-- Node24 -->
<g id="node24" class="node">
<title>Node24</title>
<g id="a_node24"><a xlink:title=" ">
<polygon fill="white" stroke="#bfbfbf" points="734,-67.5 734,-86.5 787,-86.5 787,-67.5 734,-67.5"/>
<text text-anchor="middle" x="760.5" y="-74.5" font-family="Helvetica,sans-Serif" font-size="10.00">spy.hpp</text>
</a>
</g>
</g>
<!-- Node9&#45;&gt;Node24 -->
<g id="edge26" class="edge">
<title>Node9&#45;&gt;Node24</title>
<path fill="none" stroke="midnightblue" d="M690.84,-123.32C703.66,-114.98 723.28,-102.21 738.44,-92.35"/>
<polygon fill="midnightblue" stroke="midnightblue" points="740.72,-95.04 747.2,-86.65 736.91,-89.17 740.72,-95.04"/>
</g>
<!-- Node10&#45;&gt;Node6 -->
<g id="edge10" class="edge">
<title>Node10&#45;&gt;Node6</title>
<path fill="none" stroke="midnightblue" d="M542.5,-67.48C542.5,-59.08 542.5,-45.98 542.5,-35.16"/>
<polygon fill="midnightblue" stroke="midnightblue" points="546,-35.01 542.5,-25.01 539,-35.01 546,-35.01"/>
</g>
<!-- Node11&#45;&gt;Node6 -->
<g id="edge14" class="edge">
<title>Node11&#45;&gt;Node6</title>
<path fill="none" stroke="midnightblue" d="M867.69,-69.12C864.6,-68.36 861.49,-67.63 858.5,-67 755.65,-45.23 632.2,-28.05 574.79,-20.57"/>
<polygon fill="midnightblue" stroke="midnightblue" points="575.23,-17.1 564.86,-19.29 574.33,-24.04 575.23,-17.1"/>
</g>
<!-- Node12 -->
<g id="node12" class="node">
<title>Node12</title>
<g id="a_node12"><a xlink:title=" ">
<polygon fill="white" stroke="#bfbfbf" points="822,-6 822,-25 871,-25 871,-6 822,-6"/>
<text text-anchor="middle" x="846.5" y="-13" font-family="Helvetica,sans-Serif" font-size="10.00">cstdlib</text>
</a>
</g>
</g>
<!-- Node11&#45;&gt;Node12 -->
<g id="edge12" class="edge">
<title>Node11&#45;&gt;Node12</title>
<path fill="none" stroke="midnightblue" d="M885.91,-67.48C879.01,-58.55 868,-44.31 859.37,-33.14"/>
<polygon fill="midnightblue" stroke="midnightblue" points="861.96,-30.78 853.08,-25.01 856.43,-35.06 861.96,-30.78"/>
</g>
<!-- Node11&#45;&gt;Node13 -->
<g id="edge13" class="edge">
<title>Node11&#45;&gt;Node13</title>
<path fill="none" stroke="midnightblue" d="M896.37,-67.48C900.3,-58.82 906.5,-45.15 911.49,-34.15"/>
<polygon fill="midnightblue" stroke="midnightblue" points="914.69,-35.56 915.64,-25.01 908.32,-32.67 914.69,-35.56"/>
</g>
<!-- Node14&#45;&gt;Node6 -->
<g id="edge20" class="edge">
<title>Node14&#45;&gt;Node6</title>
<path fill="none" stroke="midnightblue" d="M256.15,-70.07C260.89,-68.98 265.84,-67.9 270.5,-67 376.84,-46.5 407.81,-62.27 511.5,-31 513.38,-30.43 515.29,-29.77 517.19,-29.05"/>
<polygon fill="midnightblue" stroke="midnightblue" points="518.62,-32.24 526.44,-25.09 515.87,-25.81 518.62,-32.24"/>
</g>
<!-- Node15 -->
<g id="node15" class="node">
<title>Node15</title>
<g id="a_node15"><a xlink:title=" ">
<polygon fill="white" stroke="#bfbfbf" points="438.5,-6 438.5,-25 502.5,-25 502.5,-6 438.5,-6"/>
<text text-anchor="middle" x="470.5" y="-13" font-family="Helvetica,sans-Serif" font-size="10.00">algorithm</text>
</a>
</g>
</g>
<!-- Node14&#45;&gt;Node15 -->
<g id="edge16" class="edge">
<title>Node14&#45;&gt;Node15</title>
<path fill="none" stroke="midnightblue" d="M256.21,-70.35C260.94,-69.23 265.88,-68.07 270.5,-67 340.65,-50.7 359.25,-50.78 428.5,-31 431.45,-30.16 434.49,-29.23 437.53,-28.26"/>
<polygon fill="midnightblue" stroke="midnightblue" points="438.71,-31.56 447.1,-25.08 436.5,-24.91 438.71,-31.56"/>
</g>
<!-- Node16 -->
<g id="node16" class="node">
<title>Node16</title>
<g id="a_node16"><a xlink:title=" ">
<polygon fill="white" stroke="#bfbfbf" points="65,-6 65,-25 114,-25 114,-6 65,-6"/>
<text text-anchor="middle" x="89.5" y="-13" font-family="Helvetica,sans-Serif" font-size="10.00">cctype</text>
</a>
</g>
</g>
<!-- Node14&#45;&gt;Node16 -->
<g id="edge17" class="edge">
<title>Node14&#45;&gt;Node16</title>
<path fill="none" stroke="midnightblue" d="M211.57,-67.44C189.61,-58.45 154.08,-43.83 123.5,-31 122.09,-30.41 120.66,-29.81 119.21,-29.19"/>
<polygon fill="midnightblue" stroke="midnightblue" points="120.19,-25.81 109.62,-25.13 117.46,-32.25 120.19,-25.81"/>
</g>
<!-- Node17 -->
<g id="node17" class="node">
<title>Node17</title>
<g id="a_node17"><a xlink:title=" ">
<polygon fill="white" stroke="#bfbfbf" points="132.5,-6 132.5,-25 186.5,-25 186.5,-6 132.5,-6"/>
<text text-anchor="middle" x="159.5" y="-13" font-family="Helvetica,sans-Serif" font-size="10.00">random</text>
</a>
</g>
</g>
<!-- Node14&#45;&gt;Node17 -->
<g id="edge18" class="edge">
<title>Node14&#45;&gt;Node17</title>
<path fill="none" stroke="midnightblue" d="M222.04,-67.48C210.55,-58.11 191.87,-42.88 177.91,-31.51"/>
<polygon fill="midnightblue" stroke="midnightblue" points="179.9,-28.61 169.94,-25.01 175.48,-34.04 179.9,-28.61"/>
</g>
<!-- Node18 -->
<g id="node18" class="node">
<title>Node18</title>
<g id="a_node18"><a xlink:title=" ">
<polygon fill="white" stroke="#bfbfbf" points="204.5,-6 204.5,-25 260.5,-25 260.5,-6 204.5,-6"/>
<text text-anchor="middle" x="232.5" y="-13" font-family="Helvetica,sans-Serif" font-size="10.00">sstream</text>
</a>
</g>
</g>
<!-- Node14&#45;&gt;Node18 -->
<g id="edge19" class="edge">
<title>Node14&#45;&gt;Node18</title>
<path fill="none" stroke="midnightblue" d="M232.5,-67.48C232.5,-59.08 232.5,-45.98 232.5,-35.16"/>
<polygon fill="midnightblue" stroke="midnightblue" points="236,-35.01 232.5,-25.01 229,-35.01 236,-35.01"/>
</g>
<!-- Node14&#45;&gt;Node19 -->
<g id="edge21" class="edge">
<title>Node14&#45;&gt;Node19</title>
<path fill="none" stroke="midnightblue" d="M208.94,-70.26C164.18,-59.31 70.01,-36.09 55.5,-31 53.84,-30.42 52.14,-29.78 50.45,-29.11"/>
<polygon fill="midnightblue" stroke="midnightblue" points="51.45,-25.74 40.88,-25.05 48.71,-32.18 51.45,-25.74"/>
</g>
<!-- Node20 -->
<g id="node20" class="node">
<title>Node20</title>
<g id="a_node20"><a xlink:title=" ">
<polygon fill="white" stroke="#bfbfbf" points="279,-0.5 279,-30.5 420,-30.5 420,-0.5 279,-0.5"/>
<text text-anchor="start" x="287" y="-18.5" font-family="Helvetica,sans-Serif" font-size="10.00">boost/dll/runtime_symbol</text>
<text text-anchor="middle" x="349.5" y="-7.5" font-family="Helvetica,sans-Serif" font-size="10.00">_info.hpp</text>
</a>
</g>
</g>
<!-- Node14&#45;&gt;Node20 -->
<g id="edge22" class="edge">
<title>Node14&#45;&gt;Node20</title>
<path fill="none" stroke="midnightblue" d="M249.26,-67.48C265.78,-59.08 291.55,-45.97 312.82,-35.15"/>
<polygon fill="midnightblue" stroke="midnightblue" points="314.6,-38.18 321.93,-30.52 311.43,-31.94 314.6,-38.18"/>
</g>
</g>
</svg>
