<?xml version="1.0" encoding="UTF-8" standalone="no"?>
<!DOCTYPE svg PUBLIC "-//W3C//DTD SVG 1.1//EN"
 "http://www.w3.org/Graphics/SVG/1.1/DTD/svg11.dtd">
<!-- Generated by graphviz version 2.43.0 (0)
 -->
<!-- Title: include/export/channel_graph.h Pages: 1 -->
<svg width="973pt" height="274pt"
 viewBox="0.00 0.00 972.50 274.00" xmlns="http://www.w3.org/2000/svg" xmlns:xlink="http://www.w3.org/1999/xlink">
<g id="graph0" class="graph" transform="scale(1 1) rotate(0) translate(4 270)">
<title>include/export/channel_graph.h</title>
<polygon fill="white" stroke="transparent" points="-4,4 -4,-270 968.5,-270 968.5,4 -4,4"/>
<!-- Node1 -->
<g id="node1" class="node">
<title>Node1</title>
<g id="a_node1"><a xlink:title="Graph Analysis for Complex Cascaded Channels.">
<polygon fill="#bfbfbf" stroke="black" points="524.5,-235.5 524.5,-265.5 652.5,-265.5 652.5,-235.5 524.5,-235.5"/>
<text text-anchor="start" x="532.5" y="-253.5" font-family="Helvetica,sans-Serif" font-size="10.00">include/export/channel</text>
<text text-anchor="middle" x="588.5" y="-242.5" font-family="Helvetica,sans-Serif" font-size="10.00">_graph.h</text>
</a>
</g>
</g>
<!-- Node2 -->
<g id="node2" class="node">
<title>Node2</title>
<g id="a_node2"><a xlink:href="log__global_8h.html" target="_top" xlink:title="Global Access of Log.">
<polygon fill="white" stroke="black" points="550.5,-179.5 550.5,-198.5 626.5,-198.5 626.5,-179.5 550.5,-179.5"/>
<text text-anchor="middle" x="588.5" y="-186.5" font-family="Helvetica,sans-Serif" font-size="10.00">log_global.h</text>
</a>
</g>
</g>
<!-- Node1&#45;&gt;Node2 -->
<g id="edge1" class="edge">
<title>Node1&#45;&gt;Node2</title>
<path fill="none" stroke="midnightblue" d="M588.5,-235.4C588.5,-227.47 588.5,-217.46 588.5,-208.86"/>
<polygon fill="midnightblue" stroke="midnightblue" points="592,-208.66 588.5,-198.66 585,-208.66 592,-208.66"/>
</g>
<!-- Node5 -->
<g id="node5" class="node">
<title>Node5</title>
<g id="a_node5"><a xlink:title=" ">
<polygon fill="white" stroke="#bfbfbf" points="765.5,-6 765.5,-25 809.5,-25 809.5,-6 765.5,-6"/>
<text text-anchor="middle" x="787.5" y="-13" font-family="Helvetica,sans-Serif" font-size="10.00">string</text>
</a>
</g>
</g>
<!-- Node1&#45;&gt;Node5 -->
<g id="edge27" class="edge">
<title>Node1&#45;&gt;Node5</title>
<path fill="none" stroke="midnightblue" d="M624.7,-235.45C676.74,-213.03 770.69,-163.7 809.5,-87 818.24,-69.73 809.02,-48.32 799.99,-33.65"/>
<polygon fill="midnightblue" stroke="midnightblue" points="802.74,-31.46 794.27,-25.1 796.92,-35.36 802.74,-31.46"/>
</g>
<!-- Node8 -->
<g id="node8" class="node">
<title>Node8</title>
<g id="a_node8"><a xlink:title=" ">
<polygon fill="white" stroke="#bfbfbf" points="904.5,-6 904.5,-25 964.5,-25 964.5,-6 904.5,-6"/>
<text text-anchor="middle" x="934.5" y="-13" font-family="Helvetica,sans-Serif" font-size="10.00">iostream</text>
</a>
</g>
</g>
<!-- Node1&#45;&gt;Node8 -->
<g id="edge26" class="edge">
<title>Node1&#45;&gt;Node8</title>
<path fill="none" stroke="midnightblue" d="M652.61,-235.72C727.73,-216.09 850.22,-172.55 915.5,-87 926.9,-72.06 931.47,-50.79 933.29,-35.52"/>
<polygon fill="midnightblue" stroke="midnightblue" points="936.81,-35.5 934.22,-25.23 929.84,-34.87 936.81,-35.5"/>
</g>
<!-- Node9 -->
<g id="node9" class="node">
<title>Node9</title>
<g id="a_node9"><a xlink:href="utils_8h.html" target="_top" xlink:title="Utilities.">
<polygon fill="white" stroke="black" points="317,-67.5 317,-86.5 364,-86.5 364,-67.5 317,-67.5"/>
<text text-anchor="middle" x="340.5" y="-74.5" font-family="Helvetica,sans-Serif" font-size="10.00">utils.h</text>
</a>
</g>
</g>
<!-- Node1&#45;&gt;Node9 -->
<g id="edge25" class="edge">
<title>Node1&#45;&gt;Node9</title>
<path fill="none" stroke="midnightblue" d="M568.21,-235.47C521.79,-203.37 408.27,-124.87 361.34,-92.41"/>
<polygon fill="midnightblue" stroke="midnightblue" points="363.09,-89.37 352.88,-86.56 359.11,-95.13 363.09,-89.37"/>
</g>
<!-- Node14 -->
<g id="node14" class="node">
<title>Node14</title>
<g id="a_node14"><a xlink:title=" ">
<polygon fill="white" stroke="#bfbfbf" points="0,-6 0,-25 47,-25 47,-6 0,-6"/>
<text text-anchor="middle" x="23.5" y="-13" font-family="Helvetica,sans-Serif" font-size="10.00">vector</text>
</a>
</g>
</g>
<!-- Node1&#45;&gt;Node14 -->
<g id="edge28" class="edge">
<title>Node1&#45;&gt;Node14</title>
<path fill="none" stroke="midnightblue" d="M553.08,-235.5C467.28,-201.47 241.68,-111.31 55.5,-31 54.13,-30.41 52.74,-29.8 51.33,-29.18"/>
<polygon fill="midnightblue" stroke="midnightblue" points="52.62,-25.93 42.06,-25.05 49.77,-32.32 52.62,-25.93"/>
</g>
<!-- Node3 -->
<g id="node3" class="node">
<title>Node3</title>
<g id="a_node3"><a xlink:href="include_2log_8h.html" target="_top" xlink:title="Log Utilities.">
<polygon fill="white" stroke="black" points="568,-123.5 568,-142.5 609,-142.5 609,-123.5 568,-123.5"/>
<text text-anchor="middle" x="588.5" y="-130.5" font-family="Helvetica,sans-Serif" font-size="10.00">log.h</text>
</a>
</g>
</g>
<!-- Node2&#45;&gt;Node3 -->
<g id="edge2" class="edge">
<title>Node2&#45;&gt;Node3</title>
<path fill="none" stroke="midnightblue" d="M588.5,-179.08C588.5,-172.01 588.5,-161.86 588.5,-152.99"/>
<polygon fill="midnightblue" stroke="midnightblue" points="592,-152.75 588.5,-142.75 585,-152.75 592,-152.75"/>
</g>
<!-- Node4 -->
<g id="node4" class="node">
<title>Node4</title>
<g id="a_node4"><a xlink:href="meta_8h.html" target="_top" xlink:title="mmCEsim meta data">
<polygon fill="white" stroke="black" points="382,-67.5 382,-86.5 433,-86.5 433,-67.5 382,-67.5"/>
<text text-anchor="middle" x="407.5" y="-74.5" font-family="Helvetica,sans-Serif" font-size="10.00">meta.h</text>
</a>
</g>
</g>
<!-- Node3&#45;&gt;Node4 -->
<g id="edge3" class="edge">
<title>Node3&#45;&gt;Node4</title>
<path fill="none" stroke="midnightblue" d="M567.74,-125.81C537.35,-116.74 480.35,-99.73 443.17,-88.64"/>
<polygon fill="midnightblue" stroke="midnightblue" points="443.83,-85.19 433.25,-85.68 441.83,-91.89 443.83,-85.19"/>
</g>
<!-- Node6 -->
<g id="node6" class="node">
<title>Node6</title>
<g id="a_node6"><a xlink:href="term_8h.html" target="_top" xlink:title="Terminal Color and Style Control.">
<polygon fill="white" stroke="black" points="857,-67.5 857,-86.5 906,-86.5 906,-67.5 857,-67.5"/>
<text text-anchor="middle" x="881.5" y="-74.5" font-family="Helvetica,sans-Serif" font-size="10.00">term.h</text>
</a>
</g>
</g>
<!-- Node3&#45;&gt;Node6 -->
<g id="edge5" class="edge">
<title>Node3&#45;&gt;Node6</title>
<path fill="none" stroke="midnightblue" d="M609.1,-128.2C658.73,-119.06 785.31,-95.73 846.86,-84.38"/>
<polygon fill="midnightblue" stroke="midnightblue" points="847.66,-87.8 856.86,-82.54 846.39,-80.91 847.66,-87.8"/>
</g>
<!-- Node3&#45;&gt;Node9 -->
<g id="edge9" class="edge">
<title>Node3&#45;&gt;Node9</title>
<path fill="none" stroke="midnightblue" d="M567.84,-128.19C530.86,-121.26 450.69,-105.76 374.03,-87.26"/>
<polygon fill="midnightblue" stroke="midnightblue" points="374.76,-83.83 364.22,-84.87 373.11,-90.63 374.76,-83.83"/>
</g>
<!-- Node19 -->
<g id="node19" class="node">
<title>Node19</title>
<g id="a_node19"><a xlink:title=" ">
<polygon fill="white" stroke="#bfbfbf" points="670.5,-67.5 670.5,-86.5 714.5,-86.5 714.5,-67.5 670.5,-67.5"/>
<text text-anchor="middle" x="692.5" y="-74.5" font-family="Helvetica,sans-Serif" font-size="10.00">ctime</text>
</a>
</g>
</g>
<!-- Node3&#45;&gt;Node19 -->
<g id="edge20" class="edge">
<title>Node3&#45;&gt;Node19</title>
<path fill="none" stroke="midnightblue" d="M605.21,-123.32C621.81,-114.7 647.5,-101.36 666.72,-91.39"/>
<polygon fill="midnightblue" stroke="midnightblue" points="668.57,-94.37 675.83,-86.65 665.34,-88.16 668.57,-94.37"/>
</g>
<!-- Node20 -->
<g id="node20" class="node">
<title>Node20</title>
<g id="a_node20"><a xlink:title=" ">
<polygon fill="white" stroke="#bfbfbf" points="732.5,-67.5 732.5,-86.5 800.5,-86.5 800.5,-67.5 732.5,-67.5"/>
<text text-anchor="middle" x="766.5" y="-74.5" font-family="Helvetica,sans-Serif" font-size="10.00">filesystem</text>
</a>
</g>
</g>
<!-- Node3&#45;&gt;Node20 -->
<g id="edge21" class="edge">
<title>Node3&#45;&gt;Node20</title>
<path fill="none" stroke="midnightblue" d="M609.27,-125.7C638.44,-116.85 692.05,-100.59 728.48,-89.53"/>
<polygon fill="midnightblue" stroke="midnightblue" points="729.71,-92.82 738.26,-86.57 727.68,-86.12 729.71,-92.82"/>
</g>
<!-- Node21 -->
<g id="node21" class="node">
<title>Node21</title>
<g id="a_node21"><a xlink:title=" ">
<polygon fill="white" stroke="#bfbfbf" points="451,-67.5 451,-86.5 506,-86.5 506,-67.5 451,-67.5"/>
<text text-anchor="middle" x="478.5" y="-74.5" font-family="Helvetica,sans-Serif" font-size="10.00">fstream</text>
</a>
</g>
</g>
<!-- Node3&#45;&gt;Node21 -->
<g id="edge22" class="edge">
<title>Node3&#45;&gt;Node21</title>
<path fill="none" stroke="midnightblue" d="M570.83,-123.32C553.11,-114.62 525.6,-101.12 505.21,-91.11"/>
<polygon fill="midnightblue" stroke="midnightblue" points="506.65,-87.92 496.13,-86.65 503.56,-94.2 506.65,-87.92"/>
</g>
<!-- Node22 -->
<g id="node22" class="node">
<title>Node22</title>
<g id="a_node22"><a xlink:title=" ">
<polygon fill="white" stroke="#bfbfbf" points="524.5,-67.5 524.5,-86.5 580.5,-86.5 580.5,-67.5 524.5,-67.5"/>
<text text-anchor="middle" x="552.5" y="-74.5" font-family="Helvetica,sans-Serif" font-size="10.00">iomanip</text>
</a>
</g>
</g>
<!-- Node3&#45;&gt;Node22 -->
<g id="edge23" class="edge">
<title>Node3&#45;&gt;Node22</title>
<path fill="none" stroke="midnightblue" d="M582.56,-123.08C577.52,-115.53 570.16,-104.49 563.99,-95.23"/>
<polygon fill="midnightblue" stroke="midnightblue" points="566.79,-93.13 558.33,-86.75 560.97,-97.01 566.79,-93.13"/>
</g>
<!-- Node23 -->
<g id="node23" class="node">
<title>Node23</title>
<g id="a_node23"><a xlink:title=" ">
<polygon fill="white" stroke="#bfbfbf" points="599,-67.5 599,-86.5 652,-86.5 652,-67.5 599,-67.5"/>
<text text-anchor="middle" x="625.5" y="-74.5" font-family="Helvetica,sans-Serif" font-size="10.00">spy.hpp</text>
</a>
</g>
</g>
<!-- Node3&#45;&gt;Node23 -->
<g id="edge24" class="edge">
<title>Node3&#45;&gt;Node23</title>
<path fill="none" stroke="midnightblue" d="M594.61,-123.08C599.78,-115.53 607.35,-104.49 613.69,-95.23"/>
<polygon fill="midnightblue" stroke="midnightblue" points="616.74,-96.98 619.5,-86.75 610.96,-93.02 616.74,-96.98"/>
</g>
<!-- Node4&#45;&gt;Node5 -->
<g id="edge4" class="edge">
<title>Node4&#45;&gt;Node5</title>
<path fill="none" stroke="midnightblue" d="M433.03,-69.02C436.2,-68.28 439.42,-67.58 442.5,-67 573.17,-42.39 609.37,-58.33 739.5,-31 744.69,-29.91 750.13,-28.52 755.41,-27.03"/>
<polygon fill="midnightblue" stroke="midnightblue" points="756.66,-30.31 765.24,-24.1 754.66,-23.6 756.66,-30.31"/>
</g>
<!-- Node6&#45;&gt;Node5 -->
<g id="edge8" class="edge">
<title>Node6&#45;&gt;Node5</title>
<path fill="none" stroke="midnightblue" d="M868.03,-67.48C852.82,-57.84 827.81,-42.02 809.7,-30.55"/>
<polygon fill="midnightblue" stroke="midnightblue" points="811.26,-27.4 800.94,-25.01 807.52,-33.31 811.26,-27.4"/>
</g>
<!-- Node7 -->
<g id="node7" class="node">
<title>Node7</title>
<g id="a_node7"><a xlink:title=" ">
<polygon fill="white" stroke="#bfbfbf" points="837,-6 837,-25 886,-25 886,-6 837,-6"/>
<text text-anchor="middle" x="861.5" y="-13" font-family="Helvetica,sans-Serif" font-size="10.00">cstdlib</text>
</a>
</g>
</g>
<!-- Node6&#45;&gt;Node7 -->
<g id="edge6" class="edge">
<title>Node6&#45;&gt;Node7</title>
<path fill="none" stroke="midnightblue" d="M878.63,-67.48C875.78,-58.99 871.32,-45.7 867.66,-34.82"/>
<polygon fill="midnightblue" stroke="midnightblue" points="870.86,-33.37 864.36,-25.01 864.23,-35.6 870.86,-33.37"/>
</g>
<!-- Node6&#45;&gt;Node8 -->
<g id="edge7" class="edge">
<title>Node6&#45;&gt;Node8</title>
<path fill="none" stroke="midnightblue" d="M889.09,-67.48C897.2,-58.37 910.23,-43.74 920.26,-32.48"/>
<polygon fill="midnightblue" stroke="midnightblue" points="922.88,-34.8 926.92,-25.01 917.66,-30.15 922.88,-34.8"/>
</g>
<!-- Node9&#45;&gt;Node5 -->
<g id="edge14" class="edge">
<title>Node9&#45;&gt;Node5</title>
<path fill="none" stroke="midnightblue" d="M364.16,-68.84C366.95,-68.15 369.78,-67.51 372.5,-67 533.57,-36.7 578.73,-62.85 739.5,-31 744.7,-29.97 750.15,-28.61 755.43,-27.13"/>
<polygon fill="midnightblue" stroke="midnightblue" points="756.68,-30.41 765.26,-24.21 754.68,-23.7 756.68,-30.41"/>
</g>
<!-- Node10 -->
<g id="node10" class="node">
<title>Node10</title>
<g id="a_node10"><a xlink:title=" ">
<polygon fill="white" stroke="#bfbfbf" points="666.5,-6 666.5,-25 730.5,-25 730.5,-6 666.5,-6"/>
<text text-anchor="middle" x="698.5" y="-13" font-family="Helvetica,sans-Serif" font-size="10.00">algorithm</text>
</a>
</g>
</g>
<!-- Node9&#45;&gt;Node10 -->
<g id="edge10" class="edge">
<title>Node9&#45;&gt;Node10</title>
<path fill="none" stroke="midnightblue" d="M364.17,-68.92C366.96,-68.21 369.79,-67.55 372.5,-67 497.63,-41.65 533.27,-60.45 657.5,-31 660.73,-30.23 664.06,-29.3 667.37,-28.29"/>
<polygon fill="midnightblue" stroke="midnightblue" points="668.68,-31.54 677.06,-25.06 666.46,-24.9 668.68,-31.54"/>
</g>
<!-- Node11 -->
<g id="node11" class="node">
<title>Node11</title>
<g id="a_node11"><a xlink:title=" ">
<polygon fill="white" stroke="#bfbfbf" points="65,-6 65,-25 114,-25 114,-6 65,-6"/>
<text text-anchor="middle" x="89.5" y="-13" font-family="Helvetica,sans-Serif" font-size="10.00">cctype</text>
</a>
</g>
</g>
<!-- Node9&#45;&gt;Node11 -->
<g id="edge11" class="edge">
<title>Node9&#45;&gt;Node11</title>
<path fill="none" stroke="midnightblue" d="M316.99,-72.69C276.75,-66.69 192.34,-52.58 123.5,-31 121.36,-30.33 119.17,-29.57 116.99,-28.76"/>
<polygon fill="midnightblue" stroke="midnightblue" points="118.18,-25.47 107.6,-25.01 115.58,-31.97 118.18,-25.47"/>
</g>
<!-- Node12 -->
<g id="node12" class="node">
<title>Node12</title>
<g id="a_node12"><a xlink:title=" ">
<polygon fill="white" stroke="#bfbfbf" points="132.5,-6 132.5,-25 186.5,-25 186.5,-6 132.5,-6"/>
<text text-anchor="middle" x="159.5" y="-13" font-family="Helvetica,sans-Serif" font-size="10.00">random</text>
</a>
</g>
</g>
<!-- Node9&#45;&gt;Node12 -->
<g id="edge12" class="edge">
<title>Node9&#45;&gt;Node12</title>
<path fill="none" stroke="midnightblue" d="M316.95,-69.34C288.1,-61.03 237.84,-46.07 195.5,-31 193.6,-30.32 191.64,-29.6 189.68,-28.86"/>
<polygon fill="midnightblue" stroke="midnightblue" points="190.54,-25.44 179.95,-25.07 188,-31.97 190.54,-25.44"/>
</g>
<!-- Node13 -->
<g id="node13" class="node">
<title>Node13</title>
<g id="a_node13"><a xlink:title=" ">
<polygon fill="white" stroke="#bfbfbf" points="204.5,-6 204.5,-25 260.5,-25 260.5,-6 204.5,-6"/>
<text text-anchor="middle" x="232.5" y="-13" font-family="Helvetica,sans-Serif" font-size="10.00">sstream</text>
</a>
</g>
</g>
<!-- Node9&#45;&gt;Node13 -->
<g id="edge13" class="edge">
<title>Node9&#45;&gt;Node13</title>
<path fill="none" stroke="midnightblue" d="M325.03,-67.48C307.22,-57.67 277.76,-41.43 256.87,-29.92"/>
<polygon fill="midnightblue" stroke="midnightblue" points="258.39,-26.77 247.95,-25.01 255.01,-32.9 258.39,-26.77"/>
</g>
<!-- Node9&#45;&gt;Node14 -->
<g id="edge15" class="edge">
<title>Node9&#45;&gt;Node14</title>
<path fill="none" stroke="midnightblue" d="M316.75,-74.41C267.25,-70.64 149.79,-59.24 55.5,-31 53.57,-30.42 51.61,-29.75 49.65,-29.02"/>
<polygon fill="midnightblue" stroke="midnightblue" points="50.69,-25.67 40.11,-25.05 48,-32.13 50.69,-25.67"/>
</g>
<!-- Node15 -->
<g id="node15" class="node">
<title>Node15</title>
<g id="a_node15"><a xlink:title=" ">
<polygon fill="white" stroke="#bfbfbf" points="279,-0.5 279,-30.5 420,-30.5 420,-0.5 279,-0.5"/>
<text text-anchor="start" x="287" y="-18.5" font-family="Helvetica,sans-Serif" font-size="10.00">boost/dll/runtime_symbol</text>
<text text-anchor="middle" x="349.5" y="-7.5" font-family="Helvetica,sans-Serif" font-size="10.00">_info.hpp</text>
</a>
</g>
</g>
<!-- Node9&#45;&gt;Node15 -->
<g id="edge16" class="edge">
<title>Node9&#45;&gt;Node15</title>
<path fill="none" stroke="midnightblue" d="M341.79,-67.48C342.85,-60.47 344.4,-50.19 345.84,-40.7"/>
<polygon fill="midnightblue" stroke="midnightblue" points="349.34,-40.93 347.38,-30.52 342.42,-39.89 349.34,-40.93"/>
</g>
<!-- Node16 -->
<g id="node16" class="node">
<title>Node16</title>
<g id="a_node16"><a xlink:title=" ">
<polygon fill="white" stroke="#bfbfbf" points="438.5,-6 438.5,-25 484.5,-25 484.5,-6 438.5,-6"/>
<text text-anchor="middle" x="461.5" y="-13" font-family="Helvetica,sans-Serif" font-size="10.00">pwd.h</text>
</a>
</g>
</g>
<!-- Node9&#45;&gt;Node16 -->
<g id="edge17" class="edge">
<title>Node9&#45;&gt;Node16</title>
<path fill="none" stroke="midnightblue" d="M357.84,-67.48C378.05,-57.53 411.69,-40.99 435.14,-29.46"/>
<polygon fill="midnightblue" stroke="midnightblue" points="436.77,-32.56 444.2,-25.01 433.68,-26.28 436.77,-32.56"/>
</g>
<!-- Node17 -->
<g id="node17" class="node">
<title>Node17</title>
<g id="a_node17"><a xlink:title=" ">
<polygon fill="white" stroke="#bfbfbf" points="502.5,-6 502.5,-25 574.5,-25 574.5,-6 502.5,-6"/>
<text text-anchor="middle" x="538.5" y="-13" font-family="Helvetica,sans-Serif" font-size="10.00">sys/types.h</text>
</a>
</g>
</g>
<!-- Node9&#45;&gt;Node17 -->
<g id="edge18" class="edge">
<title>Node9&#45;&gt;Node17</title>
<path fill="none" stroke="midnightblue" d="M364.15,-69.25C394.26,-60.61 447.86,-45.06 493.5,-31 496.46,-30.09 499.53,-29.13 502.61,-28.16"/>
<polygon fill="midnightblue" stroke="midnightblue" points="503.9,-31.42 512.36,-25.05 501.77,-24.75 503.9,-31.42"/>
</g>
<!-- Node18 -->
<g id="node18" class="node">
<title>Node18</title>
<g id="a_node18"><a xlink:title=" ">
<polygon fill="white" stroke="#bfbfbf" points="592.5,-6 592.5,-25 648.5,-25 648.5,-6 592.5,-6"/>
<text text-anchor="middle" x="620.5" y="-13" font-family="Helvetica,sans-Serif" font-size="10.00">unistd.h</text>
</a>
</g>
</g>
<!-- Node9&#45;&gt;Node18 -->
<g id="edge19" class="edge">
<title>Node9&#45;&gt;Node18</title>
<path fill="none" stroke="midnightblue" d="M364.19,-69.04C366.98,-68.31 369.8,-67.61 372.5,-67 465.31,-46.09 491.85,-56.49 583.5,-31 586.09,-30.28 588.75,-29.44 591.4,-28.54"/>
<polygon fill="midnightblue" stroke="midnightblue" points="592.61,-31.82 600.78,-25.09 590.19,-25.26 592.61,-31.82"/>
</g>
</g>
</svg>
