<?xml version="1.0" encoding="UTF-8" standalone="no"?>
<!DOCTYPE svg PUBLIC "-//W3C//DTD SVG 1.1//EN"
 "http://www.w3.org/Graphics/SVG/1.1/DTD/svg11.dtd">
<!-- Generated by graphviz version 2.43.0 (0)
 -->
<!-- Title: include/export/channel_graph.h Pages: 1 -->
<svg width="274pt" height="162pt"
 viewBox="0.00 0.00 273.50 162.00" xmlns="http://www.w3.org/2000/svg" xmlns:xlink="http://www.w3.org/1999/xlink">
<g id="graph0" class="graph" transform="scale(1 1) rotate(0) translate(4 158)">
<title>include/export/channel_graph.h</title>
<polygon fill="white" stroke="transparent" points="-4,4 -4,-158 269.5,-158 269.5,4 -4,4"/>
<!-- Node1 -->
<g id="node1" class="node">
<title>Node1</title>
<g id="a_node1"><a xlink:title="Graph Analysis for Complex Cascaded Channels.">
<polygon fill="#bfbfbf" stroke="black" points="88,-123.5 88,-153.5 216,-153.5 216,-123.5 88,-123.5"/>
<text text-anchor="start" x="96" y="-141.5" font-family="Helvetica,sans-Serif" font-size="10.00">include/export/channel</text>
<text text-anchor="middle" x="152" y="-130.5" font-family="Helvetica,sans-Serif" font-size="10.00">_graph.h</text>
</a>
</g>
</g>
<!-- Node2 -->
<g id="node2" class="node">
<title>Node2</title>
<g id="a_node2"><a xlink:href="export_8h.html" target="_top" xlink:title="Export mmCEsim Configuration to Other Programming Languages.">
<polygon fill="white" stroke="black" points="45.5,-62 45.5,-81 140.5,-81 140.5,-62 45.5,-62"/>
<text text-anchor="middle" x="93" y="-69" font-family="Helvetica,sans-Serif" font-size="10.00">include/export.h</text>
</a>
</g>
</g>
<!-- Node1&#45;&gt;Node2 -->
<g id="edge1" class="edge">
<title>Node1&#45;&gt;Node2</title>
<path fill="none" stroke="midnightblue" d="M132.17,-115.66C121.47,-103.86 108.85,-89.97 100.89,-81.19"/>
<polygon fill="midnightblue" stroke="midnightblue" points="129.89,-118.34 139.2,-123.4 135.07,-113.64 129.89,-118.34"/>
</g>
<!-- Node5 -->
<g id="node5" class="node">
<title>Node5</title>
<g id="a_node5"><a xlink:href="channel__graph_8cpp.html" target="_top" xlink:title="Implementation of Channel_Graph Class.">
<polygon fill="white" stroke="black" points="158.5,-56.5 158.5,-86.5 265.5,-86.5 265.5,-56.5 158.5,-56.5"/>
<text text-anchor="start" x="166.5" y="-74.5" font-family="Helvetica,sans-Serif" font-size="10.00">src/export/channel</text>
<text text-anchor="middle" x="212" y="-63.5" font-family="Helvetica,sans-Serif" font-size="10.00">_graph.cpp</text>
</a>
</g>
</g>
<!-- Node1&#45;&gt;Node5 -->
<g id="edge4" class="edge">
<title>Node1&#45;&gt;Node5</title>
<path fill="none" stroke="midnightblue" d="M171.82,-116.02C180.76,-106.34 191.07,-95.17 199.01,-86.58"/>
<polygon fill="midnightblue" stroke="midnightblue" points="169.23,-113.67 165.02,-123.4 174.37,-118.42 169.23,-113.67"/>
</g>
<!-- Node3 -->
<g id="node3" class="node">
<title>Node3</title>
<g id="a_node3"><a xlink:href="export_8cpp.html" target="_top" xlink:title="Implementation of Export Class.">
<polygon fill="white" stroke="black" points="0,-0.5 0,-19.5 86,-19.5 86,-0.5 0,-0.5"/>
<text text-anchor="middle" x="43" y="-7.5" font-family="Helvetica,sans-Serif" font-size="10.00">src/export.cpp</text>
</a>
</g>
</g>
<!-- Node2&#45;&gt;Node3 -->
<g id="edge2" class="edge">
<title>Node2&#45;&gt;Node3</title>
<path fill="none" stroke="midnightblue" d="M79.28,-54.17C69.85,-42.95 57.72,-28.52 50.15,-19.51"/>
<polygon fill="midnightblue" stroke="midnightblue" points="76.72,-56.57 85.84,-61.98 82.08,-52.07 76.72,-56.57"/>
</g>
<!-- Node4 -->
<g id="node4" class="node">
<title>Node4</title>
<g id="a_node4"><a xlink:href="src_2main_8cpp.html" target="_top" xlink:title="Program Command Line Options.">
<polygon fill="white" stroke="black" points="104.5,-0.5 104.5,-19.5 183.5,-19.5 183.5,-0.5 104.5,-0.5"/>
<text text-anchor="middle" x="144" y="-7.5" font-family="Helvetica,sans-Serif" font-size="10.00">src/main.cpp</text>
</a>
</g>
</g>
<!-- Node2&#45;&gt;Node4 -->
<g id="edge3" class="edge">
<title>Node2&#45;&gt;Node4</title>
<path fill="none" stroke="midnightblue" d="M107,-54.17C116.61,-42.95 128.99,-28.52 136.71,-19.51"/>
<polygon fill="midnightblue" stroke="midnightblue" points="104.16,-52.1 100.31,-61.98 109.47,-56.66 104.16,-52.1"/>
</g>
</g>
</svg>
