<?xml version="1.0" encoding="UTF-8" standalone="no"?>
<!DOCTYPE svg PUBLIC "-//W3C//DTD SVG 1.1//EN"
 "http://www.w3.org/Graphics/SVG/1.1/DTD/svg11.dtd">
<!-- Generated by graphviz version 2.43.0 (0)
 -->
<!-- Title: include/export/channel_graph.h Pages: 1 -->
<!--zoomable 274 -->
<svg id="main" version="1.1" xmlns="http://www.w3.org/2000/svg" xmlns:xlink="http://www.w3.org/1999/xlink" xml:space="preserve" onload="init(evt)">
<style type="text/css"><![CDATA[
.edge:hover path { stroke: red; }
.edge:hover polygon { stroke: red; fill: red; }
]]></style>
<script type="text/javascript"><![CDATA[
var edges = document.getElementsByTagName('g');
if (edges && edges.length) {
  for (var i=0;i<edges.length;i++) {
    if (edges[i].id.substr(0,4)=='edge') {
      edges[i].setAttribute('class','edge');
    }
  }
}
]]></script>
        <defs>
                <circle id="rim" cx="0" cy="0" r="7"/>
                <circle id="rim2" cx="0" cy="0" r="3.5"/>
                <g id="zoomPlus">
                        <use xlink:href="#rim" fill="#404040">
                                <set attributeName="fill" to="#808080" begin="zoomplus.mouseover" end="zoomplus.mouseout"/>
                        </use>
                        <path d="M-4,0h8M0,-4v8" fill="none" stroke="white" stroke-width="1.5" pointer-events="none"/>
                </g>
                <g id="zoomMin">
                        <use xlink:href="#rim" fill="#404040">
                                <set attributeName="fill" to="#808080" begin="zoomminus.mouseover" end="zoomminus.mouseout"/>
                        </use>
                        <path d="M-4,0h8" fill="none" stroke="white" stroke-width="1.5" pointer-events="none"/>
                </g>
                <g id="dirArrow">
                        <path fill="none" stroke="white" stroke-width="1.5" d="M0,-3.0v7 M-2.5,-0.5L0,-3.0L2.5,-0.5"/>
                </g>
               <g id="resetDef">
                       <use xlink:href="#rim2" fill="#404040">
                               <set attributeName="fill" to="#808080" begin="reset.mouseover" end="reset.mouseout"/>
                       </use>
               </g>
        </defs>

<script type="text/javascript">
var viewWidth = 850;
var viewHeight = 274;
var sectionId = 'dynsection-0';
</script>
<script xlink:href="svgpan.js"/>
<svg id="graph" class="graph">
<g id="viewport">
<title>include/export/channel_graph.h</title>
<polygon fill="white" stroke="transparent" points="-4,4 -4,-270 845.98,-270 845.98,4 -4,4"/>
<!-- Node1 -->
<g id="node1" class="node">
<title>Node1</title>
<g id="a_node1"><a xlink:title="Graph Analysis for Complex Cascaded Channels.">
<polygon fill="#bfbfbf" stroke="black" points="377.48,-235.5 377.48,-265.5 505.48,-265.5 505.48,-235.5 377.48,-235.5"/>
<text text-anchor="start" x="385.48" y="-253.5" font-family="Helvetica,sans-Serif" font-size="10.00">include/export/channel</text>
<text text-anchor="middle" x="441.48" y="-242.5" font-family="Helvetica,sans-Serif" font-size="10.00">_graph.h</text>
</a>
</g>
</g>
<!-- Node2 -->
<g id="node2" class="node">
<title>Node2</title>
<g id="a_node2"><a xlink:href="log__global_8h.html" target="_top" xlink:title="Global Access of Log.">
<polygon fill="white" stroke="black" points="295.48,-179.5 295.48,-198.5 371.48,-198.5 371.48,-179.5 295.48,-179.5"/>
<text text-anchor="middle" x="333.48" y="-186.5" font-family="Helvetica,sans-Serif" font-size="10.00">log_global.h</text>
</a>
</g>
</g>
<!-- Node1&#45;&gt;Node2 -->
<g id="edge1" class="edge">
<title>Node1&#45;&gt;Node2</title>
<path fill="none" stroke="midnightblue" d="M415.89,-235.4C398.42,-225.77 375.4,-213.09 358.13,-203.58"/>
<polygon fill="midnightblue" stroke="midnightblue" points="359.65,-200.42 349.2,-198.66 356.27,-206.55 359.65,-200.42"/>
</g>
<!-- Node5 -->
<g id="node5" class="node">
<title>Node5</title>
<g id="a_node5"><a xlink:title=" ">
<polygon fill="white" stroke="#bfbfbf" points="277.48,-6 277.48,-25 321.48,-25 321.48,-6 277.48,-6"/>
<text text-anchor="middle" x="299.48" y="-13" font-family="Helvetica,sans-Serif" font-size="10.00">string</text>
</a>
</g>
</g>
<!-- Node1&#45;&gt;Node5 -->
<g id="edge23" class="edge">
<title>Node1&#45;&gt;Node5</title>
<path fill="none" stroke="midnightblue" d="M444.51,-235.4C450.76,-202.23 461.47,-118.2 422.48,-67 395.88,-32.07 370.84,-48.31 330.48,-31 329.29,-30.49 328.07,-29.95 326.84,-29.41"/>
<polygon fill="midnightblue" stroke="midnightblue" points="327.98,-26.08 317.43,-25.13 325.08,-32.46 327.98,-26.08"/>
</g>
<!-- Node8 -->
<g id="node8" class="node">
<title>Node8</title>
<g id="a_node8"><a xlink:title=" ">
<polygon fill="white" stroke="#bfbfbf" points="55.48,-6 55.48,-25 115.48,-25 115.48,-6 55.48,-6"/>
<text text-anchor="middle" x="85.48" y="-13" font-family="Helvetica,sans-Serif" font-size="10.00">iostream</text>
</a>
</g>
</g>
<!-- Node1&#45;&gt;Node8 -->
<g id="edge22" class="edge">
<title>Node1&#45;&gt;Node8</title>
<path fill="none" stroke="midnightblue" d="M377.48,-247.44C277.81,-240.34 88.25,-210.39 4.48,-87 -11.98,-62.75 22.33,-41.69 51.26,-29.06"/>
<polygon fill="midnightblue" stroke="midnightblue" points="52.89,-32.17 60.78,-25.1 50.21,-25.7 52.89,-32.17"/>
</g>
<!-- Node9 -->
<g id="node9" class="node">
<title>Node9</title>
<g id="a_node9"><a xlink:href="utils_8h.html" target="_top" xlink:title="Utilities.">
<polygon fill="white" stroke="black" points="469.98,-67.5 469.98,-86.5 516.98,-86.5 516.98,-67.5 469.98,-67.5"/>
<text text-anchor="middle" x="493.48" y="-74.5" font-family="Helvetica,sans-Serif" font-size="10.00">utils.h</text>
</a>
</g>
</g>
<!-- Node1&#45;&gt;Node9 -->
<g id="edge21" class="edge">
<title>Node1&#45;&gt;Node9</title>
<path fill="none" stroke="midnightblue" d="M445.74,-235.47C455.11,-204.57 477.51,-130.69 487.95,-96.25"/>
<polygon fill="midnightblue" stroke="midnightblue" points="491.34,-97.15 490.89,-86.56 484.64,-95.11 491.34,-97.15"/>
</g>
<!-- Node14 -->
<g id="node14" class="node">
<title>Node14</title>
<g id="a_node14"><a xlink:title=" ">
<polygon fill="white" stroke="#bfbfbf" points="794.98,-6 794.98,-25 841.98,-25 841.98,-6 794.98,-6"/>
<text text-anchor="middle" x="818.48" y="-13" font-family="Helvetica,sans-Serif" font-size="10.00">vector</text>
</a>
</g>
</g>
<!-- Node1&#45;&gt;Node14 -->
<g id="edge24" class="edge">
<title>Node1&#45;&gt;Node14</title>
<path fill="none" stroke="midnightblue" d="M464.22,-235.45C531.42,-193.92 728.64,-72.03 795.79,-30.53"/>
<polygon fill="midnightblue" stroke="midnightblue" points="797.71,-33.45 804.37,-25.22 794.03,-27.5 797.71,-33.45"/>
</g>
<!-- Node3 -->
<g id="node3" class="node">
<title>Node3</title>
<g id="a_node3"><a xlink:href="include_2log_8h.html" target="_top" xlink:title="Log Utilities.">
<polygon fill="white" stroke="black" points="270.98,-123.5 270.98,-142.5 311.98,-142.5 311.98,-123.5 270.98,-123.5"/>
<text text-anchor="middle" x="291.48" y="-130.5" font-family="Helvetica,sans-Serif" font-size="10.00">log.h</text>
</a>
</g>
</g>
<!-- Node2&#45;&gt;Node3 -->
<g id="edge2" class="edge">
<title>Node2&#45;&gt;Node3</title>
<path fill="none" stroke="midnightblue" d="M326.55,-179.08C320.55,-171.38 311.73,-160.03 304.44,-150.65"/>
<polygon fill="midnightblue" stroke="midnightblue" points="307.19,-148.5 298.29,-142.75 301.67,-152.79 307.19,-148.5"/>
</g>
<!-- Node4 -->
<g id="node4" class="node">
<title>Node4</title>
<g id="a_node4"><a xlink:href="meta_8h.html" target="_top" xlink:title="mmCEsim meta data">
<polygon fill="white" stroke="black" points="299.98,-67.5 299.98,-86.5 350.98,-86.5 350.98,-67.5 299.98,-67.5"/>
<text text-anchor="middle" x="325.48" y="-74.5" font-family="Helvetica,sans-Serif" font-size="10.00">meta.h</text>
</a>
</g>
</g>
<!-- Node3&#45;&gt;Node4 -->
<g id="edge3" class="edge">
<title>Node3&#45;&gt;Node4</title>
<path fill="none" stroke="midnightblue" d="M297.1,-123.08C301.85,-115.53 308.8,-104.49 314.64,-95.23"/>
<polygon fill="midnightblue" stroke="midnightblue" points="317.61,-97.08 319.97,-86.75 311.68,-93.35 317.61,-97.08"/>
</g>
<!-- Node6 -->
<g id="node6" class="node">
<title>Node6</title>
<g id="a_node6"><a xlink:href="term_8h.html" target="_top" xlink:title="Terminal Color and Style Control.">
<polygon fill="white" stroke="black" points="232.98,-67.5 232.98,-86.5 281.98,-86.5 281.98,-67.5 232.98,-67.5"/>
<text text-anchor="middle" x="257.48" y="-74.5" font-family="Helvetica,sans-Serif" font-size="10.00">term.h</text>
</a>
</g>
</g>
<!-- Node3&#45;&gt;Node6 -->
<g id="edge5" class="edge">
<title>Node3&#45;&gt;Node6</title>
<path fill="none" stroke="midnightblue" d="M285.87,-123.08C281.12,-115.53 274.17,-104.49 268.33,-95.23"/>
<polygon fill="midnightblue" stroke="midnightblue" points="271.28,-93.35 262.99,-86.75 265.36,-97.08 271.28,-93.35"/>
</g>
<!-- Node3&#45;&gt;Node9 -->
<g id="edge9" class="edge">
<title>Node3&#45;&gt;Node9</title>
<path fill="none" stroke="midnightblue" d="M312.34,-126.42C347.36,-117.06 418.24,-98.12 460.2,-86.9"/>
<polygon fill="midnightblue" stroke="midnightblue" points="461.2,-90.25 469.95,-84.29 459.39,-83.49 461.2,-90.25"/>
</g>
<!-- Node16 -->
<g id="node16" class="node">
<title>Node16</title>
<g id="a_node16"><a xlink:title=" ">
<polygon fill="white" stroke="#bfbfbf" points="369.48,-67.5 369.48,-86.5 413.48,-86.5 413.48,-67.5 369.48,-67.5"/>
<text text-anchor="middle" x="391.48" y="-74.5" font-family="Helvetica,sans-Serif" font-size="10.00">ctime</text>
</a>
</g>
</g>
<!-- Node3&#45;&gt;Node16 -->
<g id="edge17" class="edge">
<title>Node3&#45;&gt;Node16</title>
<path fill="none" stroke="midnightblue" d="M307.55,-123.32C323.44,-114.74 347.99,-101.49 366.44,-91.52"/>
<polygon fill="midnightblue" stroke="midnightblue" points="368.32,-94.49 375.46,-86.65 364.99,-88.33 368.32,-94.49"/>
</g>
<!-- Node17 -->
<g id="node17" class="node">
<title>Node17</title>
<g id="a_node17"><a xlink:title=" ">
<polygon fill="white" stroke="#bfbfbf" points="13.98,-67.5 13.98,-86.5 68.98,-86.5 68.98,-67.5 13.98,-67.5"/>
<text text-anchor="middle" x="41.48" y="-74.5" font-family="Helvetica,sans-Serif" font-size="10.00">fstream</text>
</a>
</g>
</g>
<!-- Node3&#45;&gt;Node17 -->
<g id="edge18" class="edge">
<title>Node3&#45;&gt;Node17</title>
<path fill="none" stroke="midnightblue" d="M270.88,-127.86C234.36,-120.49 155.69,-104.39 79.15,-87.1"/>
<polygon fill="midnightblue" stroke="midnightblue" points="79.87,-83.67 69.34,-84.87 78.32,-90.5 79.87,-83.67"/>
</g>
<!-- Node18 -->
<g id="node18" class="node">
<title>Node18</title>
<g id="a_node18"><a xlink:title=" ">
<polygon fill="white" stroke="#bfbfbf" points="87.48,-67.5 87.48,-86.5 143.48,-86.5 143.48,-67.5 87.48,-67.5"/>
<text text-anchor="middle" x="115.48" y="-74.5" font-family="Helvetica,sans-Serif" font-size="10.00">iomanip</text>
</a>
</g>
</g>
<!-- Node3&#45;&gt;Node18 -->
<g id="edge19" class="edge">
<title>Node3&#45;&gt;Node18</title>
<path fill="none" stroke="midnightblue" d="M270.95,-125.7C242.11,-116.85 189.09,-100.59 153.08,-89.53"/>
<polygon fill="midnightblue" stroke="midnightblue" points="153.99,-86.15 143.41,-86.57 151.94,-92.85 153.99,-86.15"/>
</g>
<!-- Node19 -->
<g id="node19" class="node">
<title>Node19</title>
<g id="a_node19"><a xlink:title=" ">
<polygon fill="white" stroke="#bfbfbf" points="161.98,-67.5 161.98,-86.5 214.98,-86.5 214.98,-67.5 161.98,-67.5"/>
<text text-anchor="middle" x="188.48" y="-74.5" font-family="Helvetica,sans-Serif" font-size="10.00">spy.hpp</text>
</a>
</g>
</g>
<!-- Node3&#45;&gt;Node19 -->
<g id="edge20" class="edge">
<title>Node3&#45;&gt;Node19</title>
<path fill="none" stroke="midnightblue" d="M274.94,-123.32C258.49,-114.7 233.05,-101.36 214.02,-91.39"/>
<polygon fill="midnightblue" stroke="midnightblue" points="215.47,-88.2 204.99,-86.65 212.22,-94.4 215.47,-88.2"/>
</g>
<!-- Node4&#45;&gt;Node5 -->
<g id="edge4" class="edge">
<title>Node4&#45;&gt;Node5</title>
<path fill="none" stroke="midnightblue" d="M321.76,-67.48C318.01,-58.9 312.12,-45.43 307.34,-34.48"/>
<polygon fill="midnightblue" stroke="midnightblue" points="310.41,-32.77 303.2,-25.01 304,-35.57 310.41,-32.77"/>
</g>
<!-- Node6&#45;&gt;Node5 -->
<g id="edge8" class="edge">
<title>Node6&#45;&gt;Node5</title>
<path fill="none" stroke="midnightblue" d="M263.5,-67.48C269.74,-58.64 279.66,-44.59 287.5,-33.48"/>
<polygon fill="midnightblue" stroke="midnightblue" points="290.57,-35.2 293.48,-25.01 284.85,-31.16 290.57,-35.2"/>
</g>
<!-- Node7 -->
<g id="node7" class="node">
<title>Node7</title>
<g id="a_node7"><a xlink:title=" ">
<polygon fill="white" stroke="#bfbfbf" points="209.98,-6 209.98,-25 258.98,-25 258.98,-6 209.98,-6"/>
<text text-anchor="middle" x="234.48" y="-13" font-family="Helvetica,sans-Serif" font-size="10.00">cstdlib</text>
</a>
</g>
</g>
<!-- Node6&#45;&gt;Node7 -->
<g id="edge6" class="edge">
<title>Node6&#45;&gt;Node7</title>
<path fill="none" stroke="midnightblue" d="M254.19,-67.48C250.88,-58.9 245.67,-45.43 241.44,-34.48"/>
<polygon fill="midnightblue" stroke="midnightblue" points="244.64,-33.07 237.77,-25.01 238.11,-35.6 244.64,-33.07"/>
</g>
<!-- Node6&#45;&gt;Node8 -->
<g id="edge7" class="edge">
<title>Node6&#45;&gt;Node8</title>
<path fill="none" stroke="midnightblue" d="M232.84,-67.48C203.21,-57.22 153.3,-39.96 119.88,-28.4"/>
<polygon fill="midnightblue" stroke="midnightblue" points="120.68,-24.97 110.08,-25.01 118.39,-31.59 120.68,-24.97"/>
</g>
<!-- Node9&#45;&gt;Node5 -->
<g id="edge14" class="edge">
<title>Node9&#45;&gt;Node5</title>
<path fill="none" stroke="midnightblue" d="M469.96,-70.03C431.34,-60.13 356.24,-40.5 330.48,-31 328.87,-30.41 327.23,-29.76 325.59,-29.09"/>
<polygon fill="midnightblue" stroke="midnightblue" points="326.88,-25.83 316.32,-25 324.06,-32.24 326.88,-25.83"/>
</g>
<!-- Node10 -->
<g id="node10" class="node">
<title>Node10</title>
<g id="a_node10"><a xlink:title=" ">
<polygon fill="white" stroke="#bfbfbf" points="339.48,-6 339.48,-25 403.48,-25 403.48,-6 339.48,-6"/>
<text text-anchor="middle" x="371.48" y="-13" font-family="Helvetica,sans-Serif" font-size="10.00">algorithm</text>
</a>
</g>
</g>
<!-- Node9&#45;&gt;Node10 -->
<g id="edge10" class="edge">
<title>Node9&#45;&gt;Node10</title>
<path fill="none" stroke="midnightblue" d="M476,-67.48C455.62,-57.53 421.71,-40.99 398.06,-29.46"/>
<polygon fill="midnightblue" stroke="midnightblue" points="399.45,-26.25 388.93,-25.01 396.38,-32.54 399.45,-26.25"/>
</g>
<!-- Node11 -->
<g id="node11" class="node">
<title>Node11</title>
<g id="a_node11"><a xlink:title=" ">
<polygon fill="white" stroke="#bfbfbf" points="421.98,-6 421.98,-25 470.98,-25 470.98,-6 421.98,-6"/>
<text text-anchor="middle" x="446.48" y="-13" font-family="Helvetica,sans-Serif" font-size="10.00">cctype</text>
</a>
</g>
</g>
<!-- Node9&#45;&gt;Node11 -->
<g id="edge11" class="edge">
<title>Node9&#45;&gt;Node11</title>
<path fill="none" stroke="midnightblue" d="M486.75,-67.48C479.7,-58.55 468.45,-44.31 459.63,-33.14"/>
<polygon fill="midnightblue" stroke="midnightblue" points="462.15,-30.69 453.21,-25.01 456.66,-35.03 462.15,-30.69"/>
</g>
<!-- Node12 -->
<g id="node12" class="node">
<title>Node12</title>
<g id="a_node12"><a xlink:title=" ">
<polygon fill="white" stroke="#bfbfbf" points="489.48,-6 489.48,-25 543.48,-25 543.48,-6 489.48,-6"/>
<text text-anchor="middle" x="516.48" y="-13" font-family="Helvetica,sans-Serif" font-size="10.00">random</text>
</a>
</g>
</g>
<!-- Node9&#45;&gt;Node12 -->
<g id="edge12" class="edge">
<title>Node9&#45;&gt;Node12</title>
<path fill="none" stroke="midnightblue" d="M496.78,-67.48C500.09,-58.9 505.3,-45.43 509.53,-34.48"/>
<polygon fill="midnightblue" stroke="midnightblue" points="512.85,-35.6 513.19,-25.01 506.32,-33.07 512.85,-35.6"/>
</g>
<!-- Node13 -->
<g id="node13" class="node">
<title>Node13</title>
<g id="a_node13"><a xlink:title=" ">
<polygon fill="white" stroke="#bfbfbf" points="561.48,-6 561.48,-25 617.48,-25 617.48,-6 561.48,-6"/>
<text text-anchor="middle" x="589.48" y="-13" font-family="Helvetica,sans-Serif" font-size="10.00">sstream</text>
</a>
</g>
</g>
<!-- Node9&#45;&gt;Node13 -->
<g id="edge13" class="edge">
<title>Node9&#45;&gt;Node13</title>
<path fill="none" stroke="midnightblue" d="M507.24,-67.48C522.85,-57.8 548.55,-41.87 567.07,-30.39"/>
<polygon fill="midnightblue" stroke="midnightblue" points="569.1,-33.25 575.75,-25.01 565.41,-27.3 569.1,-33.25"/>
</g>
<!-- Node9&#45;&gt;Node14 -->
<g id="edge15" class="edge">
<title>Node9&#45;&gt;Node14</title>
<path fill="none" stroke="midnightblue" d="M517.13,-74.56C567.57,-71.02 689.05,-59.96 786.48,-31 788.41,-30.43 790.38,-29.76 792.33,-29.03"/>
<polygon fill="midnightblue" stroke="midnightblue" points="793.99,-32.14 801.88,-25.06 791.3,-25.67 793.99,-32.14"/>
</g>
<!-- Node15 -->
<g id="node15" class="node">
<title>Node15</title>
<g id="a_node15"><a xlink:title=" ">
<polygon fill="white" stroke="#bfbfbf" points="635.98,-0.5 635.98,-30.5 776.98,-30.5 776.98,-0.5 635.98,-0.5"/>
<text text-anchor="start" x="643.98" y="-18.5" font-family="Helvetica,sans-Serif" font-size="10.00">boost/dll/runtime_symbol</text>
<text text-anchor="middle" x="706.48" y="-7.5" font-family="Helvetica,sans-Serif" font-size="10.00">_info.hpp</text>
</a>
</g>
</g>
<!-- Node9&#45;&gt;Node15 -->
<g id="edge16" class="edge">
<title>Node9&#45;&gt;Node15</title>
<path fill="none" stroke="midnightblue" d="M517.09,-69.41C548.04,-60.76 603.44,-45.29 646.35,-33.3"/>
<polygon fill="midnightblue" stroke="midnightblue" points="647.44,-36.63 656.13,-30.57 645.56,-29.88 647.44,-36.63"/>
</g>
</g>
</svg>
        <g id="navigator" transform="translate(0 0)" fill="#404254">
                <rect fill="#f2f5e9" fill-opacity="0.5" stroke="#606060" stroke-width=".5" x="0" y="0" width="60" height="60"/>
                <use id="zoomplus" xlink:href="#zoomPlus" x="17" y="9" onmousedown="handleZoom(evt,'in')"/>
                <use id="zoomminus" xlink:href="#zoomMin" x="42" y="9" onmousedown="handleZoom(evt,'out')"/>
                <use id="reset" xlink:href="#resetDef" x="30" y="36" onmousedown="handleReset()"/>
                <g id="arrowUp" xlink:href="#dirArrow" transform="translate(30 24)" onmousedown="handlePan(0,-1)">
                  <use xlink:href="#rim" fill="#404040">
                        <set attributeName="fill" to="#808080" begin="arrowUp.mouseover" end="arrowUp.mouseout"/>
                  </use>
                  <path fill="none" stroke="white" stroke-width="1.5" d="M0,-3.0v7 M-2.5,-0.5L0,-3.0L2.5,-0.5"/>
                </g>
                <g id="arrowRight" xlink:href="#dirArrow" transform="rotate(90) translate(36 -43)" onmousedown="handlePan(1,0)">
                  <use xlink:href="#rim" fill="#404040">
                        <set attributeName="fill" to="#808080" begin="arrowRight.mouseover" end="arrowRight.mouseout"/>
                  </use>
                  <path fill="none" stroke="white" stroke-width="1.5" d="M0,-3.0v7 M-2.5,-0.5L0,-3.0L2.5,-0.5"/>
                </g>
                <g id="arrowDown" xlink:href="#dirArrow" transform="rotate(180) translate(-30 -48)" onmousedown="handlePan(0,1)">
                  <use xlink:href="#rim" fill="#404040">
                        <set attributeName="fill" to="#808080" begin="arrowDown.mouseover" end="arrowDown.mouseout"/>
                  </use>
                  <path fill="none" stroke="white" stroke-width="1.5" d="M0,-3.0v7 M-2.5,-0.5L0,-3.0L2.5,-0.5"/>
                </g>
                <g id="arrowLeft" xlink:href="#dirArrow" transform="rotate(270) translate(-36 17)" onmousedown="handlePan(-1,0)">
                  <use xlink:href="#rim" fill="#404040">
                        <set attributeName="fill" to="#808080" begin="arrowLeft.mouseover" end="arrowLeft.mouseout"/>
                  </use>
                  <path fill="none" stroke="white" stroke-width="1.5" d="M0,-3.0v7 M-2.5,-0.5L0,-3.0L2.5,-0.5"/>
                </g>
        </g>
        <svg viewBox="0 0 15 15" width="100%" height="30px" preserveAspectRatio="xMaxYMin meet">
         <g id="arrow_out" transform="scale(0.3 0.3)">
          <a xlink:href="channel__graph_8h__incl_org.svg" target="_base">
           <rect id="button" ry="5" rx="5" y="6" x="6" height="38" width="38"
                fill="#f2f5e9" fill-opacity="0.5" stroke="#606060" stroke-width="1.0"/>
           <path id="arrow"
             d="M 11.500037,31.436501 C 11.940474,20.09759 22.043105,11.32322 32.158766,21.979434 L 37.068811,17.246167 C 37.068811,17.246167 37.088388,32 37.088388,32 L 22.160133,31.978069 C 22.160133,31.978069 26.997745,27.140456 26.997745,27.140456 C 18.528582,18.264221 13.291696,25.230495 11.500037,31.436501 z"
             style="fill:#404040;"/>
          </a>
         </g>
        </svg>
</svg>
