<?xml version="1.0" encoding="UTF-8" standalone="no"?>
<!DOCTYPE svg PUBLIC "-//W3C//DTD SVG 1.1//EN"
 "http://www.w3.org/Graphics/SVG/1.1/DTD/svg11.dtd">
<!-- Generated by graphviz version 2.43.0 (0)
 -->
<!-- Title: src/export/channel_graph.cpp Pages: 1 -->
<!--zoomable 330 -->
<svg id="main" version="1.1" xmlns="http://www.w3.org/2000/svg" xmlns:xlink="http://www.w3.org/1999/xlink" xml:space="preserve" onload="init(evt)">
<style type="text/css"><![CDATA[
.edge:hover path { stroke: red; }
.edge:hover polygon { stroke: red; fill: red; }
]]></style>
<script type="text/javascript"><![CDATA[
var edges = document.getElementsByTagName('g');
if (edges && edges.length) {
  for (var i=0;i<edges.length;i++) {
    if (edges[i].id.substr(0,4)=='edge') {
      edges[i].setAttribute('class','edge');
    }
  }
}
]]></script>
        <defs>
                <circle id="rim" cx="0" cy="0" r="7"/>
                <circle id="rim2" cx="0" cy="0" r="3.5"/>
                <g id="zoomPlus">
                        <use xlink:href="#rim" fill="#404040">
                                <set attributeName="fill" to="#808080" begin="zoomplus.mouseover" end="zoomplus.mouseout"/>
                        </use>
                        <path d="M-4,0h8M0,-4v8" fill="none" stroke="white" stroke-width="1.5" pointer-events="none"/>
                </g>
                <g id="zoomMin">
                        <use xlink:href="#rim" fill="#404040">
                                <set attributeName="fill" to="#808080" begin="zoomminus.mouseover" end="zoomminus.mouseout"/>
                        </use>
                        <path d="M-4,0h8" fill="none" stroke="white" stroke-width="1.5" pointer-events="none"/>
                </g>
                <g id="dirArrow">
                        <path fill="none" stroke="white" stroke-width="1.5" d="M0,-3.0v7 M-2.5,-0.5L0,-3.0L2.5,-0.5"/>
                </g>
               <g id="resetDef">
                       <use xlink:href="#rim2" fill="#404040">
                               <set attributeName="fill" to="#808080" begin="reset.mouseover" end="reset.mouseout"/>
                       </use>
               </g>
        </defs>

<script type="text/javascript">
var viewWidth = 1082;
var viewHeight = 330;
var sectionId = 'dynsection-0';
</script>
<script xlink:href="svgpan.js"/>
<svg id="graph" class="graph">
<g id="viewport">
<title>src/export/channel_graph.cpp</title>
<polygon fill="white" stroke="transparent" points="-4,4 -4,-326 1078,-326 1078,4 -4,4"/>
<!-- Node1 -->
<g id="node1" class="node">
<title>Node1</title>
<g id="a_node1"><a xlink:title="Implementation of Channel_Graph Class.">
<polygon fill="#bfbfbf" stroke="black" points="790,-291.5 790,-321.5 897,-321.5 897,-291.5 790,-291.5"/>
<text text-anchor="start" x="798" y="-309.5" font-family="Helvetica,sans-Serif" font-size="10.00">src/export/channel</text>
<text text-anchor="middle" x="843.5" y="-298.5" font-family="Helvetica,sans-Serif" font-size="10.00">_graph.cpp</text>
</a>
</g>
</g>
<!-- Node2 -->
<g id="node2" class="node">
<title>Node2</title>
<g id="a_node2"><a xlink:href="channel__graph_8h.html" target="_top" xlink:title="Graph Analysis for Complex Cascaded Channels.">
<polygon fill="white" stroke="black" points="778,-235.5 778,-254.5 909,-254.5 909,-235.5 778,-235.5"/>
<text text-anchor="middle" x="843.5" y="-242.5" font-family="Helvetica,sans-Serif" font-size="10.00">export/channel_graph.h</text>
</a>
</g>
</g>
<!-- Node1&#45;&gt;Node2 -->
<g id="edge1" class="edge">
<title>Node1&#45;&gt;Node2</title>
<path fill="none" stroke="midnightblue" d="M843.5,-291.4C843.5,-283.47 843.5,-273.46 843.5,-264.86"/>
<polygon fill="midnightblue" stroke="midnightblue" points="847,-264.66 843.5,-254.66 840,-264.66 847,-264.66"/>
</g>
<!-- Node3 -->
<g id="node3" class="node">
<title>Node3</title>
<g id="a_node3"><a xlink:href="log__global_8h.html" target="_top" xlink:title="Global Access of Log.">
<polygon fill="white" stroke="black" points="704.5,-179.5 704.5,-198.5 780.5,-198.5 780.5,-179.5 704.5,-179.5"/>
<text text-anchor="middle" x="742.5" y="-186.5" font-family="Helvetica,sans-Serif" font-size="10.00">log_global.h</text>
</a>
</g>
</g>
<!-- Node2&#45;&gt;Node3 -->
<g id="edge2" class="edge">
<title>Node2&#45;&gt;Node3</title>
<path fill="none" stroke="midnightblue" d="M827.27,-235.32C811.15,-226.7 786.2,-213.36 767.54,-203.39"/>
<polygon fill="midnightblue" stroke="midnightblue" points="769.16,-200.28 758.69,-198.65 765.86,-206.46 769.16,-200.28"/>
</g>
<!-- Node6 -->
<g id="node6" class="node">
<title>Node6</title>
<g id="a_node6"><a xlink:title=" ">
<polygon fill="white" stroke="#bfbfbf" points="859.5,-6 859.5,-25 903.5,-25 903.5,-6 859.5,-6"/>
<text text-anchor="middle" x="881.5" y="-13" font-family="Helvetica,sans-Serif" font-size="10.00">string</text>
</a>
</g>
</g>
<!-- Node2&#45;&gt;Node6 -->
<g id="edge29" class="edge">
<title>Node2&#45;&gt;Node6</title>
<path fill="none" stroke="midnightblue" d="M845.67,-235.21C851.44,-211.47 867.29,-143.99 875.5,-87 878.01,-69.54 879.6,-49.48 880.5,-35.24"/>
<polygon fill="midnightblue" stroke="midnightblue" points="884,-35.41 881.08,-25.22 877.01,-35 884,-35.41"/>
</g>
<!-- Node9 -->
<g id="node9" class="node">
<title>Node9</title>
<g id="a_node9"><a xlink:title=" ">
<polygon fill="white" stroke="#bfbfbf" points="989.5,-6 989.5,-25 1049.5,-25 1049.5,-6 989.5,-6"/>
<text text-anchor="middle" x="1019.5" y="-13" font-family="Helvetica,sans-Serif" font-size="10.00">iostream</text>
</a>
</g>
</g>
<!-- Node2&#45;&gt;Node9 -->
<g id="edge28" class="edge">
<title>Node2&#45;&gt;Node9</title>
<path fill="none" stroke="midnightblue" d="M852.35,-235.4C875.47,-212.63 938.81,-148.37 981.5,-87 993.26,-70.1 1004.12,-49.17 1011.2,-34.52"/>
<polygon fill="midnightblue" stroke="midnightblue" points="1014.54,-35.65 1015.64,-25.11 1008.21,-32.66 1014.54,-35.65"/>
</g>
<!-- Node10 -->
<g id="node10" class="node">
<title>Node10</title>
<g id="a_node10"><a xlink:href="utils_8h.html" target="_top" xlink:title="Utilities.">
<polygon fill="white" stroke="black" points="383,-67.5 383,-86.5 430,-86.5 430,-67.5 383,-67.5"/>
<text text-anchor="middle" x="406.5" y="-74.5" font-family="Helvetica,sans-Serif" font-size="10.00">utils.h</text>
</a>
</g>
</g>
<!-- Node2&#45;&gt;Node10 -->
<g id="edge27" class="edge">
<title>Node2&#45;&gt;Node10</title>
<path fill="none" stroke="midnightblue" d="M812.02,-235.43C781.85,-226.98 735.17,-213.29 695.5,-199 598.11,-163.91 485.8,-114.12 434.58,-90.88"/>
<polygon fill="midnightblue" stroke="midnightblue" points="435.73,-87.56 425.17,-86.6 432.83,-93.93 435.73,-87.56"/>
</g>
<!-- Node15 -->
<g id="node15" class="node">
<title>Node15</title>
<g id="a_node15"><a xlink:title=" ">
<polygon fill="white" stroke="#bfbfbf" points="0,-6 0,-25 47,-25 47,-6 0,-6"/>
<text text-anchor="middle" x="23.5" y="-13" font-family="Helvetica,sans-Serif" font-size="10.00">vector</text>
</a>
</g>
</g>
<!-- Node2&#45;&gt;Node15 -->
<g id="edge31" class="edge">
<title>Node2&#45;&gt;Node15</title>
<path fill="none" stroke="midnightblue" d="M801.12,-235.47C759.73,-226.95 695.04,-213.11 639.5,-199 378.15,-132.59 310.06,-122.78 56.5,-31 54.84,-30.4 53.15,-29.76 51.45,-29.09"/>
<polygon fill="midnightblue" stroke="midnightblue" points="52.4,-25.69 41.82,-25.07 49.71,-32.15 52.4,-25.69"/>
</g>
<!-- Node26 -->
<g id="node26" class="node">
<title>Node26</title>
<g id="a_node26"><a xlink:title=" ">
<polygon fill="white" stroke="#bfbfbf" points="1029,-179.5 1029,-198.5 1074,-198.5 1074,-179.5 1029,-179.5"/>
<text text-anchor="middle" x="1051.5" y="-186.5" font-family="Helvetica,sans-Serif" font-size="10.00">utility</text>
</a>
</g>
</g>
<!-- Node2&#45;&gt;Node26 -->
<g id="edge30" class="edge">
<title>Node2&#45;&gt;Node26</title>
<path fill="none" stroke="midnightblue" d="M876.46,-235.44C915.58,-225.29 980.38,-208.46 1019.2,-198.38"/>
<polygon fill="midnightblue" stroke="midnightblue" points="1020.15,-201.75 1028.95,-195.85 1018.39,-194.98 1020.15,-201.75"/>
</g>
<!-- Node4 -->
<g id="node4" class="node">
<title>Node4</title>
<g id="a_node4"><a xlink:href="include_2log_8h.html" target="_top" xlink:title="Log Utilities.">
<polygon fill="white" stroke="black" points="671,-123.5 671,-142.5 712,-142.5 712,-123.5 671,-123.5"/>
<text text-anchor="middle" x="691.5" y="-130.5" font-family="Helvetica,sans-Serif" font-size="10.00">log.h</text>
</a>
</g>
</g>
<!-- Node3&#45;&gt;Node4 -->
<g id="edge3" class="edge">
<title>Node3&#45;&gt;Node4</title>
<path fill="none" stroke="midnightblue" d="M734.08,-179.08C726.65,-171.22 715.65,-159.57 706.69,-150.08"/>
<polygon fill="midnightblue" stroke="midnightblue" points="709.18,-147.62 699.76,-142.75 704.09,-152.42 709.18,-147.62"/>
</g>
<!-- Node5 -->
<g id="node5" class="node">
<title>Node5</title>
<g id="a_node5"><a xlink:href="meta_8h.html" target="_top" xlink:title="mmCEsim meta data">
<polygon fill="white" stroke="black" points="448,-67.5 448,-86.5 499,-86.5 499,-67.5 448,-67.5"/>
<text text-anchor="middle" x="473.5" y="-74.5" font-family="Helvetica,sans-Serif" font-size="10.00">meta.h</text>
</a>
</g>
</g>
<!-- Node4&#45;&gt;Node5 -->
<g id="edge4" class="edge">
<title>Node4&#45;&gt;Node5</title>
<path fill="none" stroke="midnightblue" d="M670.77,-127.07C638.34,-119.32 573.37,-103.68 509.01,-87.35"/>
<polygon fill="midnightblue" stroke="midnightblue" points="509.66,-83.91 499.11,-84.83 507.93,-90.69 509.66,-83.91"/>
</g>
<!-- Node7 -->
<g id="node7" class="node">
<title>Node7</title>
<g id="a_node7"><a xlink:href="term_8h.html" target="_top" xlink:title="Terminal Color and Style Control.">
<polygon fill="white" stroke="black" points="923,-67.5 923,-86.5 972,-86.5 972,-67.5 923,-67.5"/>
<text text-anchor="middle" x="947.5" y="-74.5" font-family="Helvetica,sans-Serif" font-size="10.00">term.h</text>
</a>
</g>
</g>
<!-- Node4&#45;&gt;Node7 -->
<g id="edge6" class="edge">
<title>Node4&#45;&gt;Node7</title>
<path fill="none" stroke="midnightblue" d="M712.02,-127.67C755.82,-118.43 858.9,-96.69 912.99,-85.28"/>
<polygon fill="midnightblue" stroke="midnightblue" points="913.75,-88.7 922.81,-83.21 912.3,-81.85 913.75,-88.7"/>
</g>
<!-- Node4&#45;&gt;Node10 -->
<g id="edge10" class="edge">
<title>Node4&#45;&gt;Node10</title>
<path fill="none" stroke="midnightblue" d="M670.7,-129.01C628.81,-122.83 531.14,-107.68 440.12,-87.2"/>
<polygon fill="midnightblue" stroke="midnightblue" points="440.73,-83.75 430.2,-84.94 439.17,-90.58 440.73,-83.75"/>
</g>
<!-- Node21 -->
<g id="node21" class="node">
<title>Node21</title>
<g id="a_node21"><a xlink:title=" ">
<polygon fill="white" stroke="#bfbfbf" points="736.5,-67.5 736.5,-86.5 780.5,-86.5 780.5,-67.5 736.5,-67.5"/>
<text text-anchor="middle" x="758.5" y="-74.5" font-family="Helvetica,sans-Serif" font-size="10.00">ctime</text>
</a>
</g>
</g>
<!-- Node4&#45;&gt;Node21 -->
<g id="edge22" class="edge">
<title>Node4&#45;&gt;Node21</title>
<path fill="none" stroke="midnightblue" d="M702.26,-123.32C712.27,-115.26 727.39,-103.08 739.43,-93.37"/>
<polygon fill="midnightblue" stroke="midnightblue" points="741.95,-95.83 747.54,-86.83 737.56,-90.38 741.95,-95.83"/>
</g>
<!-- Node22 -->
<g id="node22" class="node">
<title>Node22</title>
<g id="a_node22"><a xlink:title=" ">
<polygon fill="white" stroke="#bfbfbf" points="798.5,-67.5 798.5,-86.5 866.5,-86.5 866.5,-67.5 798.5,-67.5"/>
<text text-anchor="middle" x="832.5" y="-74.5" font-family="Helvetica,sans-Serif" font-size="10.00">filesystem</text>
</a>
</g>
</g>
<!-- Node4&#45;&gt;Node22 -->
<g id="edge23" class="edge">
<title>Node4&#45;&gt;Node22</title>
<path fill="none" stroke="midnightblue" d="M712,-124.15C735.27,-115.24 773.5,-100.6 800.65,-90.2"/>
<polygon fill="midnightblue" stroke="midnightblue" points="802.02,-93.42 810.11,-86.58 799.52,-86.88 802.02,-93.42"/>
</g>
<!-- Node23 -->
<g id="node23" class="node">
<title>Node23</title>
<g id="a_node23"><a xlink:title=" ">
<polygon fill="white" stroke="#bfbfbf" points="517,-67.5 517,-86.5 572,-86.5 572,-67.5 517,-67.5"/>
<text text-anchor="middle" x="544.5" y="-74.5" font-family="Helvetica,sans-Serif" font-size="10.00">fstream</text>
</a>
</g>
</g>
<!-- Node4&#45;&gt;Node23 -->
<g id="edge24" class="edge">
<title>Node4&#45;&gt;Node23</title>
<path fill="none" stroke="midnightblue" d="M670.75,-124.38C646.54,-115.48 606.19,-100.66 577.63,-90.17"/>
<polygon fill="midnightblue" stroke="midnightblue" points="578.65,-86.82 568.06,-86.65 576.24,-93.39 578.65,-86.82"/>
</g>
<!-- Node24 -->
<g id="node24" class="node">
<title>Node24</title>
<g id="a_node24"><a xlink:title=" ">
<polygon fill="white" stroke="#bfbfbf" points="590.5,-67.5 590.5,-86.5 646.5,-86.5 646.5,-67.5 590.5,-67.5"/>
<text text-anchor="middle" x="618.5" y="-74.5" font-family="Helvetica,sans-Serif" font-size="10.00">iomanip</text>
</a>
</g>
</g>
<!-- Node4&#45;&gt;Node24 -->
<g id="edge25" class="edge">
<title>Node4&#45;&gt;Node24</title>
<path fill="none" stroke="midnightblue" d="M679.77,-123.32C668.66,-115.11 651.76,-102.6 638.52,-92.81"/>
<polygon fill="midnightblue" stroke="midnightblue" points="640.56,-89.97 630.44,-86.83 636.4,-95.59 640.56,-89.97"/>
</g>
<!-- Node25 -->
<g id="node25" class="node">
<title>Node25</title>
<g id="a_node25"><a xlink:title=" ">
<polygon fill="white" stroke="#bfbfbf" points="665,-67.5 665,-86.5 718,-86.5 718,-67.5 665,-67.5"/>
<text text-anchor="middle" x="691.5" y="-74.5" font-family="Helvetica,sans-Serif" font-size="10.00">spy.hpp</text>
</a>
</g>
</g>
<!-- Node4&#45;&gt;Node25 -->
<g id="edge26" class="edge">
<title>Node4&#45;&gt;Node25</title>
<path fill="none" stroke="midnightblue" d="M691.5,-123.08C691.5,-116.01 691.5,-105.86 691.5,-96.99"/>
<polygon fill="midnightblue" stroke="midnightblue" points="695,-96.75 691.5,-86.75 688,-96.75 695,-96.75"/>
</g>
<!-- Node5&#45;&gt;Node6 -->
<g id="edge5" class="edge">
<title>Node5&#45;&gt;Node6</title>
<path fill="none" stroke="midnightblue" d="M499.02,-68.79C501.87,-68.12 504.74,-67.51 507.5,-67 658.26,-39.31 702.81,-72.04 850.5,-31 852.43,-30.46 854.39,-29.82 856.34,-29.1"/>
<polygon fill="midnightblue" stroke="midnightblue" points="857.97,-32.21 865.8,-25.08 855.23,-25.77 857.97,-32.21"/>
</g>
<!-- Node7&#45;&gt;Node6 -->
<g id="edge9" class="edge">
<title>Node7&#45;&gt;Node6</title>
<path fill="none" stroke="midnightblue" d="M938.04,-67.48C927.75,-58.2 911.08,-43.17 898.51,-31.83"/>
<polygon fill="midnightblue" stroke="midnightblue" points="900.71,-29.11 890.94,-25.01 896.02,-34.3 900.71,-29.11"/>
</g>
<!-- Node8 -->
<g id="node8" class="node">
<title>Node8</title>
<g id="a_node8"><a xlink:title=" ">
<polygon fill="white" stroke="#bfbfbf" points="922,-6 922,-25 971,-25 971,-6 922,-6"/>
<text text-anchor="middle" x="946.5" y="-13" font-family="Helvetica,sans-Serif" font-size="10.00">cstdlib</text>
</a>
</g>
</g>
<!-- Node7&#45;&gt;Node8 -->
<g id="edge7" class="edge">
<title>Node7&#45;&gt;Node8</title>
<path fill="none" stroke="midnightblue" d="M947.36,-67.48C947.22,-59.08 947,-45.98 946.81,-35.16"/>
<polygon fill="midnightblue" stroke="midnightblue" points="950.31,-34.95 946.64,-25.01 943.31,-35.07 950.31,-34.95"/>
</g>
<!-- Node7&#45;&gt;Node9 -->
<g id="edge8" class="edge">
<title>Node7&#45;&gt;Node9</title>
<path fill="none" stroke="midnightblue" d="M957.82,-67.48C969.15,-58.11 987.57,-42.88 1001.34,-31.51"/>
<polygon fill="midnightblue" stroke="midnightblue" points="1003.72,-34.08 1009.2,-25.01 999.27,-28.68 1003.72,-34.08"/>
</g>
<!-- Node10&#45;&gt;Node6 -->
<g id="edge15" class="edge">
<title>Node10&#45;&gt;Node6</title>
<path fill="none" stroke="midnightblue" d="M430.15,-68.82C432.95,-68.13 435.77,-67.5 438.5,-67 619.32,-33.97 672.98,-78.67 850.5,-31 852.44,-30.48 854.4,-29.85 856.35,-29.13"/>
<polygon fill="midnightblue" stroke="midnightblue" points="857.97,-32.25 865.81,-25.13 855.24,-25.8 857.97,-32.25"/>
</g>
<!-- Node11 -->
<g id="node11" class="node">
<title>Node11</title>
<g id="a_node11"><a xlink:title=" ">
<polygon fill="white" stroke="#bfbfbf" points="65.5,-6 65.5,-25 129.5,-25 129.5,-6 65.5,-6"/>
<text text-anchor="middle" x="97.5" y="-13" font-family="Helvetica,sans-Serif" font-size="10.00">algorithm</text>
</a>
</g>
</g>
<!-- Node10&#45;&gt;Node11 -->
<g id="edge11" class="edge">
<title>Node10&#45;&gt;Node11</title>
<path fill="none" stroke="midnightblue" d="M382.91,-73.44C335.89,-68.02 227.34,-53.98 138.5,-31 135.46,-30.21 132.32,-29.3 129.19,-28.32"/>
<polygon fill="midnightblue" stroke="midnightblue" points="130.01,-24.9 119.41,-25.04 127.78,-31.53 130.01,-24.9"/>
</g>
<!-- Node12 -->
<g id="node12" class="node">
<title>Node12</title>
<g id="a_node12"><a xlink:title=" ">
<polygon fill="white" stroke="#bfbfbf" points="148,-6 148,-25 197,-25 197,-6 148,-6"/>
<text text-anchor="middle" x="172.5" y="-13" font-family="Helvetica,sans-Serif" font-size="10.00">cctype</text>
</a>
</g>
</g>
<!-- Node10&#45;&gt;Node12 -->
<g id="edge12" class="edge">
<title>Node10&#45;&gt;Node12</title>
<path fill="none" stroke="midnightblue" d="M382.73,-72.1C344.88,-65.56 268.82,-51.12 206.5,-31 204.58,-30.38 202.61,-29.69 200.64,-28.96"/>
<polygon fill="midnightblue" stroke="midnightblue" points="201.56,-25.56 190.97,-25.1 198.96,-32.06 201.56,-25.56"/>
</g>
<!-- Node13 -->
<g id="node13" class="node">
<title>Node13</title>
<g id="a_node13"><a xlink:title=" ">
<polygon fill="white" stroke="#bfbfbf" points="215.5,-6 215.5,-25 269.5,-25 269.5,-6 215.5,-6"/>
<text text-anchor="middle" x="242.5" y="-13" font-family="Helvetica,sans-Serif" font-size="10.00">random</text>
</a>
</g>
</g>
<!-- Node10&#45;&gt;Node13 -->
<g id="edge13" class="edge">
<title>Node10&#45;&gt;Node13</title>
<path fill="none" stroke="midnightblue" d="M382.79,-68.02C357.01,-59.26 314.65,-44.63 278.5,-31 276.66,-30.3 274.76,-29.58 272.86,-28.84"/>
<polygon fill="midnightblue" stroke="midnightblue" points="273.96,-25.51 263.38,-25.09 271.39,-32.02 273.96,-25.51"/>
</g>
<!-- Node14 -->
<g id="node14" class="node">
<title>Node14</title>
<g id="a_node14"><a xlink:title=" ">
<polygon fill="white" stroke="#bfbfbf" points="287.5,-6 287.5,-25 343.5,-25 343.5,-6 287.5,-6"/>
<text text-anchor="middle" x="315.5" y="-13" font-family="Helvetica,sans-Serif" font-size="10.00">sstream</text>
</a>
</g>
</g>
<!-- Node10&#45;&gt;Node14 -->
<g id="edge14" class="edge">
<title>Node10&#45;&gt;Node14</title>
<path fill="none" stroke="midnightblue" d="M393.46,-67.48C378.73,-57.84 354.53,-42.02 336.99,-30.55"/>
<polygon fill="midnightblue" stroke="midnightblue" points="338.8,-27.55 328.51,-25.01 334.97,-33.41 338.8,-27.55"/>
</g>
<!-- Node10&#45;&gt;Node15 -->
<g id="edge16" class="edge">
<title>Node10&#45;&gt;Node15</title>
<path fill="none" stroke="midnightblue" d="M382.69,-75.28C325.46,-73.03 176.03,-64.2 56.5,-31 54.34,-30.4 52.15,-29.69 49.96,-28.9"/>
<polygon fill="midnightblue" stroke="midnightblue" points="51.21,-25.63 40.63,-25.13 48.59,-32.12 51.21,-25.63"/>
</g>
<!-- Node16 -->
<g id="node16" class="node">
<title>Node16</title>
<g id="a_node16"><a xlink:href="__boost__config_8h.html" target="_top" xlink:title="Boost Configurations.">
<polygon fill="white" stroke="black" points="361.5,-6 361.5,-25 453.5,-25 453.5,-6 361.5,-6"/>
<text text-anchor="middle" x="407.5" y="-13" font-family="Helvetica,sans-Serif" font-size="10.00">_boost_config.h</text>
</a>
</g>
</g>
<!-- Node10&#45;&gt;Node16 -->
<g id="edge17" class="edge">
<title>Node10&#45;&gt;Node16</title>
<path fill="none" stroke="midnightblue" d="M406.64,-67.48C406.78,-59.08 407,-45.98 407.19,-35.16"/>
<polygon fill="midnightblue" stroke="midnightblue" points="410.69,-35.07 407.36,-25.01 403.69,-34.95 410.69,-35.07"/>
</g>
<!-- Node17 -->
<g id="node17" class="node">
<title>Node17</title>
<g id="a_node17"><a xlink:title=" ">
<polygon fill="white" stroke="#bfbfbf" points="472,-0.5 472,-30.5 613,-30.5 613,-0.5 472,-0.5"/>
<text text-anchor="start" x="480" y="-18.5" font-family="Helvetica,sans-Serif" font-size="10.00">boost/dll/runtime_symbol</text>
<text text-anchor="middle" x="542.5" y="-7.5" font-family="Helvetica,sans-Serif" font-size="10.00">_info.hpp</text>
</a>
</g>
</g>
<!-- Node10&#45;&gt;Node17 -->
<g id="edge18" class="edge">
<title>Node10&#45;&gt;Node17</title>
<path fill="none" stroke="midnightblue" d="M425.99,-67.48C445.52,-58.93 476.21,-45.5 501.19,-34.57"/>
<polygon fill="midnightblue" stroke="midnightblue" points="502.69,-37.74 510.45,-30.52 499.88,-31.32 502.69,-37.74"/>
</g>
<!-- Node18 -->
<g id="node18" class="node">
<title>Node18</title>
<g id="a_node18"><a xlink:title=" ">
<polygon fill="white" stroke="#bfbfbf" points="631.5,-6 631.5,-25 677.5,-25 677.5,-6 631.5,-6"/>
<text text-anchor="middle" x="654.5" y="-13" font-family="Helvetica,sans-Serif" font-size="10.00">pwd.h</text>
</a>
</g>
</g>
<!-- Node10&#45;&gt;Node18 -->
<g id="edge19" class="edge">
<title>Node10&#45;&gt;Node18</title>
<path fill="none" stroke="midnightblue" d="M430.21,-69.1C433,-68.36 435.81,-67.64 438.5,-67 519.56,-47.7 543.13,-56.37 622.5,-31 624.37,-30.4 626.28,-29.72 628.19,-29"/>
<polygon fill="midnightblue" stroke="midnightblue" points="629.65,-32.18 637.52,-25.08 626.94,-25.72 629.65,-32.18"/>
</g>
<!-- Node19 -->
<g id="node19" class="node">
<title>Node19</title>
<g id="a_node19"><a xlink:title=" ">
<polygon fill="white" stroke="#bfbfbf" points="695.5,-6 695.5,-25 767.5,-25 767.5,-6 695.5,-6"/>
<text text-anchor="middle" x="731.5" y="-13" font-family="Helvetica,sans-Serif" font-size="10.00">sys/types.h</text>
</a>
</g>
</g>
<!-- Node10&#45;&gt;Node19 -->
<g id="edge20" class="edge">
<title>Node10&#45;&gt;Node19</title>
<path fill="none" stroke="midnightblue" d="M430.18,-68.97C432.97,-68.25 435.79,-67.58 438.5,-67 547.45,-43.87 578,-56.17 686.5,-31 690.15,-30.15 693.94,-29.15 697.68,-28.06"/>
<polygon fill="midnightblue" stroke="midnightblue" points="698.88,-31.36 707.42,-25.08 696.83,-24.66 698.88,-31.36"/>
</g>
<!-- Node20 -->
<g id="node20" class="node">
<title>Node20</title>
<g id="a_node20"><a xlink:title=" ">
<polygon fill="white" stroke="#bfbfbf" points="785.5,-6 785.5,-25 841.5,-25 841.5,-6 785.5,-6"/>
<text text-anchor="middle" x="813.5" y="-13" font-family="Helvetica,sans-Serif" font-size="10.00">unistd.h</text>
</a>
</g>
</g>
<!-- Node10&#45;&gt;Node20 -->
<g id="edge21" class="edge">
<title>Node10&#45;&gt;Node20</title>
<path fill="none" stroke="midnightblue" d="M430.16,-68.87C432.95,-68.17 435.78,-67.52 438.5,-67 586.85,-38.45 629.75,-66.88 776.5,-31 779.33,-30.31 782.23,-29.45 785.1,-28.5"/>
<polygon fill="midnightblue" stroke="midnightblue" points="786.42,-31.74 794.61,-25.02 784.02,-25.17 786.42,-31.74"/>
</g>
</g>
</svg>
        <g id="navigator" transform="translate(0 0)" fill="#404254">
                <rect fill="#f2f5e9" fill-opacity="0.5" stroke="#606060" stroke-width=".5" x="0" y="0" width="60" height="60"/>
                <use id="zoomplus" xlink:href="#zoomPlus" x="17" y="9" onmousedown="handleZoom(evt,'in')"/>
                <use id="zoomminus" xlink:href="#zoomMin" x="42" y="9" onmousedown="handleZoom(evt,'out')"/>
                <use id="reset" xlink:href="#resetDef" x="30" y="36" onmousedown="handleReset()"/>
                <g id="arrowUp" xlink:href="#dirArrow" transform="translate(30 24)" onmousedown="handlePan(0,-1)">
                  <use xlink:href="#rim" fill="#404040">
                        <set attributeName="fill" to="#808080" begin="arrowUp.mouseover" end="arrowUp.mouseout"/>
                  </use>
                  <path fill="none" stroke="white" stroke-width="1.5" d="M0,-3.0v7 M-2.5,-0.5L0,-3.0L2.5,-0.5"/>
                </g>
                <g id="arrowRight" xlink:href="#dirArrow" transform="rotate(90) translate(36 -43)" onmousedown="handlePan(1,0)">
                  <use xlink:href="#rim" fill="#404040">
                        <set attributeName="fill" to="#808080" begin="arrowRight.mouseover" end="arrowRight.mouseout"/>
                  </use>
                  <path fill="none" stroke="white" stroke-width="1.5" d="M0,-3.0v7 M-2.5,-0.5L0,-3.0L2.5,-0.5"/>
                </g>
                <g id="arrowDown" xlink:href="#dirArrow" transform="rotate(180) translate(-30 -48)" onmousedown="handlePan(0,1)">
                  <use xlink:href="#rim" fill="#404040">
                        <set attributeName="fill" to="#808080" begin="arrowDown.mouseover" end="arrowDown.mouseout"/>
                  </use>
                  <path fill="none" stroke="white" stroke-width="1.5" d="M0,-3.0v7 M-2.5,-0.5L0,-3.0L2.5,-0.5"/>
                </g>
                <g id="arrowLeft" xlink:href="#dirArrow" transform="rotate(270) translate(-36 17)" onmousedown="handlePan(-1,0)">
                  <use xlink:href="#rim" fill="#404040">
                        <set attributeName="fill" to="#808080" begin="arrowLeft.mouseover" end="arrowLeft.mouseout"/>
                  </use>
                  <path fill="none" stroke="white" stroke-width="1.5" d="M0,-3.0v7 M-2.5,-0.5L0,-3.0L2.5,-0.5"/>
                </g>
        </g>
        <svg viewBox="0 0 15 15" width="100%" height="30px" preserveAspectRatio="xMaxYMin meet">
         <g id="arrow_out" transform="scale(0.3 0.3)">
          <a xlink:href="channel__graph_8cpp__incl_org.svg" target="_base">
           <rect id="button" ry="5" rx="5" y="6" x="6" height="38" width="38"
                fill="#f2f5e9" fill-opacity="0.5" stroke="#606060" stroke-width="1.0"/>
           <path id="arrow"
             d="M 11.500037,31.436501 C 11.940474,20.09759 22.043105,11.32322 32.158766,21.979434 L 37.068811,17.246167 C 37.068811,17.246167 37.088388,32 37.088388,32 L 22.160133,31.978069 C 22.160133,31.978069 26.997745,27.140456 26.997745,27.140456 C 18.528582,18.264221 13.291696,25.230495 11.500037,31.436501 z"
             style="fill:#404040;"/>
          </a>
         </g>
        </svg>
</svg>
