<?xml version="1.0" encoding="UTF-8" standalone="no"?>
<!DOCTYPE svg PUBLIC "-//W3C//DTD SVG 1.1//EN"
 "http://www.w3.org/Graphics/SVG/1.1/DTD/svg11.dtd">
<!-- Generated by graphviz version 2.43.0 (0)
 -->
<!-- Title: Channel_Graph::channelIndex Pages: 1 -->
<svg width="366pt" height="66pt"
 viewBox="0.00 0.00 366.00 66.00" xmlns="http://www.w3.org/2000/svg" xmlns:xlink="http://www.w3.org/1999/xlink">
<g id="graph0" class="graph" transform="scale(1 1) rotate(0) translate(4 62)">
<title>Channel_Graph::channelIndex</title>
<polygon fill="white" stroke="transparent" points="-4,4 -4,-62 362,-62 362,4 -4,4"/>
<!-- Node1 -->
<g id="node1" class="node">
<title>Node1</title>
<g id="a_node1"><a xlink:title=" ">
<polygon fill="#bfbfbf" stroke="black" points="196,-19.5 196,-38.5 358,-38.5 358,-19.5 196,-19.5"/>
<text text-anchor="middle" x="277" y="-26.5" font-family="Helvetica,sans-Serif" font-size="10.00">Channel_Graph::channelIndex</text>
</a>
</g>
</g>
<!-- Node2 -->
<g id="node2" class="node">
<title>Node2</title>
<g id="a_node2"><a xlink:href="class_channel___graph.html#a5ea0cdd96ffcfed75a255e56fc045d8a" target="_top" xlink:title="Get the &#39;from&#39; node index of channel.">
<polygon fill="white" stroke="black" points="0,-38.5 0,-57.5 160,-57.5 160,-38.5 0,-38.5"/>
<text text-anchor="middle" x="80" y="-45.5" font-family="Helvetica,sans-Serif" font-size="10.00">Channel_Graph::chFromIndex</text>
</a>
</g>
</g>
<!-- Node1&#45;&gt;Node2 -->
<g id="edge1" class="edge">
<title>Node1&#45;&gt;Node2</title>
<path fill="none" stroke="midnightblue" d="M185.85,-37.78C177.29,-38.62 168.66,-39.46 160.22,-40.28"/>
<polygon fill="midnightblue" stroke="midnightblue" points="186.23,-41.26 195.84,-36.81 185.55,-34.3 186.23,-41.26"/>
</g>
<!-- Node3 -->
<g id="node3" class="node">
<title>Node3</title>
<g id="a_node3"><a xlink:href="class_channel___graph.html#a435b8bd3d7d9af5341e5acb1a4ad75b8" target="_top" xlink:title="Get the &#39;to&#39; node index of channel.">
<polygon fill="white" stroke="black" points="7,-0.5 7,-19.5 153,-19.5 153,-0.5 7,-0.5"/>
<text text-anchor="middle" x="80" y="-7.5" font-family="Helvetica,sans-Serif" font-size="10.00">Channel_Graph::chToIndex</text>
</a>
</g>
</g>
<!-- Node1&#45;&gt;Node3 -->
<g id="edge2" class="edge">
<title>Node1&#45;&gt;Node3</title>
<path fill="none" stroke="midnightblue" d="M185.8,-20.21C174.82,-19.14 163.71,-18.06 153.03,-17.02"/>
<polygon fill="midnightblue" stroke="midnightblue" points="185.55,-23.7 195.84,-21.19 186.23,-16.74 185.55,-23.7"/>
</g>
</g>
</svg>
