<?xml version="1.0" encoding="UTF-8" standalone="no"?>
<!DOCTYPE svg PUBLIC "-//W3C//DTD SVG 1.1//EN"
 "http://www.w3.org/Graphics/SVG/1.1/DTD/svg11.dtd">
<!-- Generated by graphviz version 2.43.0 (0)
 -->
<!-- Title: Export::_f Pages: 1 -->
<!--zoomable 520 -->
<svg id="main" version="1.1" xmlns="http://www.w3.org/2000/svg" xmlns:xlink="http://www.w3.org/1999/xlink" xml:space="preserve" onload="init(evt)">
<style type="text/css"><![CDATA[
.edge:hover path { stroke: red; }
.edge:hover polygon { stroke: red; fill: red; }
]]></style>
<script type="text/javascript"><![CDATA[
var edges = document.getElementsByTagName('g');
if (edges && edges.length) {
  for (var i=0;i<edges.length;i++) {
    if (edges[i].id.substr(0,4)=='edge') {
      edges[i].setAttribute('class','edge');
    }
  }
}
]]></script>
        <defs>
                <circle id="rim" cx="0" cy="0" r="7"/>
                <circle id="rim2" cx="0" cy="0" r="3.5"/>
                <g id="zoomPlus">
                        <use xlink:href="#rim" fill="#404040">
                                <set attributeName="fill" to="#808080" begin="zoomplus.mouseover" end="zoomplus.mouseout"/>
                        </use>
                        <path d="M-4,0h8M0,-4v8" fill="none" stroke="white" stroke-width="1.5" pointer-events="none"/>
                </g>
                <g id="zoomMin">
                        <use xlink:href="#rim" fill="#404040">
                                <set attributeName="fill" to="#808080" begin="zoomminus.mouseover" end="zoomminus.mouseout"/>
                        </use>
                        <path d="M-4,0h8" fill="none" stroke="white" stroke-width="1.5" pointer-events="none"/>
                </g>
                <g id="dirArrow">
                        <path fill="none" stroke="white" stroke-width="1.5" d="M0,-3.0v7 M-2.5,-0.5L0,-3.0L2.5,-0.5"/>
                </g>
               <g id="resetDef">
                       <use xlink:href="#rim2" fill="#404040">
                               <set attributeName="fill" to="#808080" begin="reset.mouseover" end="reset.mouseout"/>
                       </use>
               </g>
        </defs>

<script type="text/javascript">
var viewWidth = 735;
var viewHeight = 520;
var sectionId = 'dynsection-16';
</script>
<script xlink:href="svgpan.js"/>
<svg id="graph" class="graph">
<g id="viewport">
<title>Export::_f</title>
<polygon fill="white" stroke="transparent" points="-4,4 -4,-515.94 731,-515.94 731,4 -4,4"/>
<!-- Node1 -->
<g id="node1" class="node">
<title>Node1</title>
<g id="a_node1"><a xlink:title=" ">
<polygon fill="#bfbfbf" stroke="black" points="664,-247.5 664,-266.5 727,-266.5 727,-247.5 664,-247.5"/>
<text text-anchor="middle" x="695.5" y="-254.5" font-family="Helvetica,sans-Serif" font-size="10.00">Export::_f</text>
</a>
</g>
</g>
<!-- Node2 -->
<g id="node2" class="node">
<title>Node2</title>
<g id="a_node2"><a xlink:href="class_export.html#a89d3ae54dd2261cf35be148011b79fe4" target="_top" xlink:title=" ">
<polygon fill="white" stroke="black" points="310,-456.5 310,-475.5 422,-475.5 422,-456.5 310,-456.5"/>
<text text-anchor="middle" x="366" y="-463.5" font-family="Helvetica,sans-Serif" font-size="10.00">Export::_algorithms</text>
</a>
</g>
</g>
<!-- Node1&#45;&gt;Node2 -->
<g id="edge1" class="edge">
<title>Node1&#45;&gt;Node2</title>
<path fill="none" stroke="midnightblue" d="M691.81,-276.49C684.42,-326.91 662.04,-459.47 628,-485 554.58,-540.06 434.52,-496.4 387.14,-475.53"/>
<polygon fill="midnightblue" stroke="midnightblue" points="695.28,-276.94 693.23,-266.54 688.35,-275.95 695.28,-276.94"/>
</g>
<!-- Node3 -->
<g id="node3" class="node">
<title>Node3</title>
<g id="a_node3"><a xlink:href="class_export.html#affc37d1d677a83d3e5d36a4e37b7a72b" target="_top" xlink:title=" ">
<polygon fill="white" stroke="black" points="146,-289.5 146,-308.5 256,-308.5 256,-289.5 146,-289.5"/>
<text text-anchor="middle" x="201" y="-296.5" font-family="Helvetica,sans-Serif" font-size="10.00">Export::exportCode</text>
</a>
</g>
</g>
<!-- Node1&#45;&gt;Node3 -->
<g id="edge28" class="edge">
<title>Node1&#45;&gt;Node3</title>
<path fill="none" stroke="midnightblue" d="M690.79,-276.64C684.04,-306.25 666.71,-361.59 628,-387 503.08,-469 428.5,-459.79 292,-399 249.33,-379.99 218.4,-329.65 206.91,-308.53"/>
<polygon fill="midnightblue" stroke="midnightblue" points="694.25,-277.17 692.88,-266.66 687.4,-275.73 694.25,-277.17"/>
</g>
<!-- Node6 -->
<g id="node6" class="node">
<title>Node6</title>
<g id="a_node6"><a xlink:href="class_export.html#a6000afae41f65b45b6a1e11447c1789c" target="_top" xlink:title=" ">
<polygon fill="white" stroke="black" points="312.5,-370.5 312.5,-389.5 419.5,-389.5 419.5,-370.5 312.5,-370.5"/>
<text text-anchor="middle" x="366" y="-377.5" font-family="Helvetica,sans-Serif" font-size="10.00">Export::_beginning</text>
</a>
</g>
</g>
<!-- Node1&#45;&gt;Node6 -->
<g id="edge5" class="edge">
<title>Node1&#45;&gt;Node6</title>
<path fill="none" stroke="midnightblue" d="M687.56,-276.23C678.05,-299.52 658.57,-337.86 628,-356 564.02,-393.96 475.3,-393.22 419.54,-387.73"/>
<polygon fill="midnightblue" stroke="midnightblue" points="690.9,-277.31 691.24,-266.72 684.37,-274.79 690.9,-277.31"/>
</g>
<!-- Node7 -->
<g id="node7" class="node">
<title>Node7</title>
<g id="a_node7"><a xlink:href="class_export.html#a7278a492ec0a0394684cccc5949185ca" target="_top" xlink:title=" ">
<polygon fill="white" stroke="black" points="320,-313.5 320,-332.5 412,-332.5 412,-313.5 320,-313.5"/>
<text text-anchor="middle" x="366" y="-320.5" font-family="Helvetica,sans-Serif" font-size="10.00">Export::_ending</text>
</a>
</g>
</g>
<!-- Node1&#45;&gt;Node7 -->
<g id="edge7" class="edge">
<title>Node1&#45;&gt;Node7</title>
<path fill="none" stroke="midnightblue" d="M684.78,-275.25C673.78,-293.73 653.97,-321.22 628,-333 550.99,-367.95 447.66,-346.67 397.24,-332.54"/>
<polygon fill="midnightblue" stroke="midnightblue" points="687.83,-276.96 689.71,-266.53 681.74,-273.51 687.83,-276.96"/>
</g>
<!-- Node8 -->
<g id="node8" class="node">
<title>Node8</title>
<g id="a_node8"><a xlink:href="class_export.html#ae4811e1e4212029122c0ee29613714cc" target="_top" xlink:title=" ">
<polygon fill="white" stroke="black" points="496,-304.5 496,-323.5 608,-323.5 608,-304.5 496,-304.5"/>
<text text-anchor="middle" x="552" y="-311.5" font-family="Helvetica,sans-Serif" font-size="10.00">Export::_estimation</text>
</a>
</g>
</g>
<!-- Node1&#45;&gt;Node8 -->
<g id="edge9" class="edge">
<title>Node1&#45;&gt;Node8</title>
<path fill="none" stroke="midnightblue" d="M668.01,-271.29C655.99,-277.48 641.48,-284.54 628,-290 614.7,-295.39 599.69,-300.4 586.61,-304.43"/>
<polygon fill="midnightblue" stroke="midnightblue" points="669.81,-274.3 677.05,-266.57 666.57,-268.1 669.81,-274.3"/>
</g>
<!-- Node9 -->
<g id="node9" class="node">
<title>Node9</title>
<g id="a_node9"><a xlink:href="class_export.html#a26fa49d9882a342d011ba715e0c14109" target="_top" xlink:title=" ">
<polygon fill="white" stroke="black" points="314,-266.5 314,-285.5 418,-285.5 418,-266.5 314,-266.5"/>
<text text-anchor="middle" x="366" y="-273.5" font-family="Helvetica,sans-Serif" font-size="10.00">Export::_sounding</text>
</a>
</g>
</g>
<!-- Node1&#45;&gt;Node9 -->
<g id="edge22" class="edge">
<title>Node1&#45;&gt;Node9</title>
<path fill="none" stroke="midnightblue" d="M653.82,-259.36C594.18,-262.82 483.07,-269.27 418.04,-273.04"/>
<polygon fill="midnightblue" stroke="midnightblue" points="654.2,-262.84 663.98,-258.77 653.8,-255.86 654.2,-262.84"/>
</g>
<!-- Node10 -->
<g id="node10" class="node">
<title>Node10</title>
<g id="a_node10"><a xlink:href="class_export.html#a59ba705b2369f21006ec7d7b7f3a4513" target="_top" xlink:title="Generate RIS reflection matrices.">
<polygon fill="white" stroke="black" points="494,-228.5 494,-247.5 610,-247.5 610,-228.5 494,-228.5"/>
<text text-anchor="middle" x="552" y="-235.5" font-family="Helvetica,sans-Serif" font-size="10.00">Export::_generateBF</text>
</a>
</g>
</g>
<!-- Node1&#45;&gt;Node10 -->
<g id="edge12" class="edge">
<title>Node1&#45;&gt;Node10</title>
<path fill="none" stroke="midnightblue" d="M653.8,-251.53C640.2,-249.71 624.78,-247.64 610.17,-245.68"/>
<polygon fill="midnightblue" stroke="midnightblue" points="653.42,-255.02 663.8,-252.88 654.35,-248.08 653.42,-255.02"/>
</g>
<!-- Node11 -->
<g id="node11" class="node">
<title>Node11</title>
<g id="a_node11"><a xlink:href="class_export.html#ad7268f886ac4826f4b6ea738e423e520" target="_top" xlink:title=" ">
<polygon fill="white" stroke="black" points="292,-209.5 292,-228.5 440,-228.5 440,-209.5 292,-209.5"/>
<text text-anchor="middle" x="366" y="-216.5" font-family="Helvetica,sans-Serif" font-size="10.00">Export::_generateChannels</text>
</a>
</g>
</g>
<!-- Node1&#45;&gt;Node11 -->
<g id="edge14" class="edge">
<title>Node1&#45;&gt;Node11</title>
<path fill="none" stroke="midnightblue" d="M684.78,-238.75C673.78,-220.27 653.97,-192.78 628,-181 543.98,-142.87 430.52,-188.31 386.03,-209.38"/>
<polygon fill="midnightblue" stroke="midnightblue" points="681.74,-240.49 689.71,-247.47 687.83,-237.04 681.74,-240.49"/>
</g>
<!-- Node12 -->
<g id="node12" class="node">
<title>Node12</title>
<g id="a_node12"><a xlink:href="class_export.html#a2feed8186a8ee3e7e140b1a143ccf233" target="_top" xlink:title=" ">
<polygon fill="white" stroke="black" points="476,-190.5 476,-209.5 628,-209.5 628,-190.5 476,-190.5"/>
<text text-anchor="middle" x="552" y="-197.5" font-family="Helvetica,sans-Serif" font-size="10.00">Export::_generateConstants</text>
</a>
</g>
</g>
<!-- Node1&#45;&gt;Node12 -->
<g id="edge16" class="edge">
<title>Node1&#45;&gt;Node12</title>
<path fill="none" stroke="midnightblue" d="M671.5,-241.79C659.04,-234.09 643.13,-225.11 628,-219 618.78,-215.28 608.63,-212.12 598.85,-209.51"/>
<polygon fill="midnightblue" stroke="midnightblue" points="669.96,-244.96 680.29,-247.36 673.71,-239.05 669.96,-244.96"/>
</g>
<!-- Node13 -->
<g id="node13" class="node">
<title>Node13</title>
<g id="a_node13"><a xlink:href="class_export.html#a833aa02973f6b5c1f3e536e8646cf1ac" target="_top" xlink:title=" ">
<polygon fill="white" stroke="black" points="502,-456.5 502,-475.5 602,-475.5 602,-456.5 502,-456.5"/>
<text text-anchor="middle" x="552" y="-463.5" font-family="Helvetica,sans-Serif" font-size="10.00">Export::_loadALG</text>
</a>
</g>
</g>
<!-- Node1&#45;&gt;Node13 -->
<g id="edge18" class="edge">
<title>Node1&#45;&gt;Node13</title>
<path fill="none" stroke="midnightblue" d="M693.01,-276.77C689.13,-314.31 675.4,-396.25 628,-442 620.82,-448.93 611.64,-453.86 602.17,-457.37"/>
<polygon fill="midnightblue" stroke="midnightblue" points="696.51,-276.91 693.93,-266.63 689.54,-276.28 696.51,-276.91"/>
</g>
<!-- Node14 -->
<g id="node14" class="node">
<title>Node14</title>
<g id="a_node14"><a xlink:href="class_export.html#af64597af0c0b4cf569f96216bcd23b2c" target="_top" xlink:title=" ">
<polygon fill="white" stroke="black" points="314,-133.5 314,-152.5 418,-152.5 418,-133.5 314,-133.5"/>
<text text-anchor="middle" x="366" y="-140.5" font-family="Helvetica,sans-Serif" font-size="10.00">Export::_reporting</text>
</a>
</g>
</g>
<!-- Node1&#45;&gt;Node14 -->
<g id="edge20" class="edge">
<title>Node1&#45;&gt;Node14</title>
<path fill="none" stroke="midnightblue" d="M687.12,-237.79C677.34,-215.27 657.77,-178.9 628,-162 562.91,-125.04 473.5,-127.79 418.03,-134.44"/>
<polygon fill="midnightblue" stroke="midnightblue" points="683.99,-239.39 691.03,-247.31 690.46,-236.73 683.99,-239.39"/>
</g>
<!-- Node15 -->
<g id="node15" class="node">
<title>Node15</title>
<g id="a_node15"><a xlink:href="class_export.html#a1ba2d8e9de49698d93a6dedbafbe6a0f" target="_top" xlink:title=" ">
<polygon fill="white" stroke="black" points="304.5,-76.5 304.5,-95.5 427.5,-95.5 427.5,-76.5 304.5,-76.5"/>
<text text-anchor="middle" x="366" y="-83.5" font-family="Helvetica,sans-Serif" font-size="10.00">Export::_topComment</text>
</a>
</g>
</g>
<!-- Node1&#45;&gt;Node15 -->
<g id="edge23" class="edge">
<title>Node1&#45;&gt;Node15</title>
<path fill="none" stroke="midnightblue" d="M690.38,-237.37C683.17,-208.22 665.32,-154.03 628,-127 569.68,-84.76 484.73,-78.91 427.74,-80.7"/>
<polygon fill="midnightblue" stroke="midnightblue" points="686.99,-238.25 692.64,-247.21 693.81,-236.68 686.99,-238.25"/>
</g>
<!-- Node16 -->
<g id="node16" class="node">
<title>Node16</title>
<g id="a_node16"><a xlink:href="class_export.html#a568b2f04e1b7837923d3f3af5f47abe2" target="_top" xlink:title=" ">
<polygon fill="white" stroke="black" points="494,-38.5 494,-57.5 610,-57.5 610,-38.5 494,-38.5"/>
<text text-anchor="middle" x="552" y="-45.5" font-family="Helvetica,sans-Serif" font-size="10.00">Export::_wComment</text>
</a>
</g>
</g>
<!-- Node1&#45;&gt;Node16 -->
<g id="edge25" class="edge">
<title>Node1&#45;&gt;Node16</title>
<path fill="none" stroke="midnightblue" d="M693.01,-237.23C689.13,-199.69 675.4,-117.75 628,-72 621.41,-65.64 613.13,-60.96 604.5,-57.53"/>
<polygon fill="midnightblue" stroke="midnightblue" points="689.54,-237.72 693.93,-247.37 696.51,-237.09 689.54,-237.72"/>
</g>
<!-- Node17 -->
<g id="node17" class="node">
<title>Node17</title>
<g id="a_node17"><a xlink:href="class_export.html#a23f9a3cb5f7cd82b36037e6d4f7123ed" target="_top" xlink:title=" ">
<polygon fill="white" stroke="black" points="509,-0.5 509,-19.5 595,-19.5 595,-0.5 509,-0.5"/>
<text text-anchor="middle" x="552" y="-7.5" font-family="Helvetica,sans-Serif" font-size="10.00">Export::Export</text>
</a>
</g>
</g>
<!-- Node1&#45;&gt;Node17 -->
<g id="edge27" class="edge">
<title>Node1&#45;&gt;Node17</title>
<path fill="none" stroke="midnightblue" d="M694.86,-237.01C694.52,-192.81 687.23,-86.15 628,-29 619.2,-20.51 607.18,-15.66 595.34,-12.93"/>
<polygon fill="midnightblue" stroke="midnightblue" points="691.36,-237.05 694.82,-247.06 698.36,-237.08 691.36,-237.05"/>
</g>
<!-- Node2&#45;&gt;Node3 -->
<g id="edge2" class="edge">
<title>Node2&#45;&gt;Node3</title>
<path fill="none" stroke="midnightblue" d="M310.13,-452.66C303.66,-449.76 297.44,-446.25 292,-442 244.16,-404.61 214.84,-334.19 205.37,-308.6"/>
<polygon fill="midnightblue" stroke="midnightblue" points="309.13,-456.03 319.71,-456.49 311.72,-449.53 309.13,-456.03"/>
</g>
<!-- Node4 -->
<g id="node4" class="node">
<title>Node4</title>
<g id="a_node4"><a xlink:href="class_export.html#a94fab568af6ddd6447efca74e205e081" target="_top" xlink:title=" ">
<polygon fill="white" stroke="black" points="0,-308.5 0,-327.5 110,-327.5 110,-308.5 0,-308.5"/>
<text text-anchor="middle" x="55" y="-315.5" font-family="Helvetica,sans-Serif" font-size="10.00">Export::exportCode</text>
</a>
</g>
</g>
<!-- Node3&#45;&gt;Node4 -->
<g id="edge3" class="edge">
<title>Node3&#45;&gt;Node4</title>
<path fill="none" stroke="midnightblue" d="M136.01,-307.44C127.44,-308.57 118.72,-309.73 110.33,-310.83"/>
<polygon fill="midnightblue" stroke="midnightblue" points="136.51,-310.91 145.97,-306.13 135.6,-303.97 136.51,-310.91"/>
</g>
<!-- Node5 -->
<g id="node5" class="node">
<title>Node5</title>
<g id="a_node5"><a xlink:href="src_2main_8cpp.html#a0ddf1224851353fc92bfbff6f499fa97" target="_top" xlink:title=" ">
<polygon fill="white" stroke="black" points="34.5,-270.5 34.5,-289.5 75.5,-289.5 75.5,-270.5 34.5,-270.5"/>
<text text-anchor="middle" x="55" y="-277.5" font-family="Helvetica,sans-Serif" font-size="10.00">main</text>
</a>
</g>
</g>
<!-- Node3&#45;&gt;Node5 -->
<g id="edge4" class="edge">
<title>Node3&#45;&gt;Node5</title>
<path fill="none" stroke="midnightblue" d="M136.05,-290.56C114.24,-287.68 91.43,-284.67 75.76,-282.61"/>
<polygon fill="midnightblue" stroke="midnightblue" points="135.6,-294.03 145.97,-291.87 136.51,-287.09 135.6,-294.03"/>
</g>
<!-- Node6&#45;&gt;Node3 -->
<g id="edge6" class="edge">
<title>Node6&#45;&gt;Node3</title>
<path fill="none" stroke="midnightblue" d="M336.52,-365.85C303.46,-349.42 249.85,-322.78 221.31,-308.6"/>
<polygon fill="midnightblue" stroke="midnightblue" points="335.15,-369.07 345.66,-370.39 338.26,-362.81 335.15,-369.07"/>
</g>
<!-- Node7&#45;&gt;Node3 -->
<g id="edge8" class="edge">
<title>Node7&#45;&gt;Node3</title>
<path fill="none" stroke="midnightblue" d="M309.65,-314.85C292.36,-312.3 273.32,-309.5 256.12,-306.97"/>
<polygon fill="midnightblue" stroke="midnightblue" points="309.19,-318.32 319.6,-316.31 310.21,-311.4 309.19,-318.32"/>
</g>
<!-- Node8&#45;&gt;Node9 -->
<g id="edge10" class="edge">
<title>Node8&#45;&gt;Node9</title>
<path fill="none" stroke="midnightblue" d="M494.44,-302.32C468.35,-296.93 437.76,-290.61 413.1,-285.52"/>
<polygon fill="midnightblue" stroke="midnightblue" points="494.07,-305.82 504.57,-304.41 495.48,-298.96 494.07,-305.82"/>
</g>
<!-- Node9&#45;&gt;Node3 -->
<g id="edge11" class="edge">
<title>Node9&#45;&gt;Node3</title>
<path fill="none" stroke="midnightblue" d="M303.75,-284.64C288.07,-286.85 271.33,-289.22 256.05,-291.37"/>
<polygon fill="midnightblue" stroke="midnightblue" points="304.46,-288.08 313.87,-283.21 303.48,-281.15 304.46,-288.08"/>
</g>
<!-- Node10&#45;&gt;Node9 -->
<g id="edge13" class="edge">
<title>Node10&#45;&gt;Node9</title>
<path fill="none" stroke="midnightblue" d="M494.44,-249.68C468.35,-255.07 437.76,-261.39 413.1,-266.48"/>
<polygon fill="midnightblue" stroke="midnightblue" points="495.48,-253.04 504.57,-247.59 494.07,-246.18 495.48,-253.04"/>
</g>
<!-- Node11&#45;&gt;Node3 -->
<g id="edge15" class="edge">
<title>Node11&#45;&gt;Node3</title>
<path fill="none" stroke="midnightblue" d="M336.19,-233.14C303.18,-249.34 249.96,-275.46 221.48,-289.44"/>
<polygon fill="midnightblue" stroke="midnightblue" points="337.9,-236.2 345.34,-228.65 334.82,-229.91 337.9,-236.2"/>
</g>
<!-- Node12&#45;&gt;Node9 -->
<g id="edge17" class="edge">
<title>Node12&#45;&gt;Node9</title>
<path fill="none" stroke="midnightblue" d="M496.07,-212.3C489.23,-214.31 482.4,-216.54 476,-219 459.11,-225.49 456.02,-229.6 440,-238 421.52,-247.68 400.38,-258.68 385.62,-266.35"/>
<polygon fill="midnightblue" stroke="midnightblue" points="497.34,-215.58 506.04,-209.54 495.47,-208.84 497.34,-215.58"/>
</g>
<!-- Node13&#45;&gt;Node2 -->
<g id="edge19" class="edge">
<title>Node13&#45;&gt;Node2</title>
<path fill="none" stroke="midnightblue" d="M491.68,-466C469.41,-466 444.19,-466 422.29,-466"/>
<polygon fill="midnightblue" stroke="midnightblue" points="491.69,-469.5 501.69,-466 491.69,-462.5 491.69,-469.5"/>
</g>
<!-- Node14&#45;&gt;Node3 -->
<g id="edge21" class="edge">
<title>Node14&#45;&gt;Node3</title>
<path fill="none" stroke="midnightblue" d="M343.11,-158.56C328.19,-169.54 308.26,-184.92 292,-200 259.31,-230.33 225.03,-270.85 209.93,-289.22"/>
<polygon fill="midnightblue" stroke="midnightblue" points="345.23,-161.36 351.26,-152.65 341.11,-155.69 345.23,-161.36"/>
</g>
<!-- Node15&#45;&gt;Node3 -->
<g id="edge24" class="edge">
<title>Node15&#45;&gt;Node3</title>
<path fill="none" stroke="midnightblue" d="M328.09,-99.78C315.53,-105.79 302.12,-113.83 292,-124 241.15,-175.1 212.98,-260.85 204.65,-289.42"/>
<polygon fill="midnightblue" stroke="midnightblue" points="329.78,-102.86 337.47,-95.57 326.91,-96.47 329.78,-102.86"/>
</g>
<!-- Node16&#45;&gt;Node15 -->
<g id="edge26" class="edge">
<title>Node16&#45;&gt;Node15</title>
<path fill="none" stroke="midnightblue" d="M494.44,-59.68C468.35,-65.07 437.76,-71.39 413.1,-76.48"/>
<polygon fill="midnightblue" stroke="midnightblue" points="495.48,-63.04 504.57,-57.59 494.07,-56.18 495.48,-63.04"/>
</g>
</g>
</svg>
        <g id="navigator" transform="translate(0 0)" fill="#404254">
                <rect fill="#f2f5e9" fill-opacity="0.5" stroke="#606060" stroke-width=".5" x="0" y="0" width="60" height="60"/>
                <use id="zoomplus" xlink:href="#zoomPlus" x="17" y="9" onmousedown="handleZoom(evt,'in')"/>
                <use id="zoomminus" xlink:href="#zoomMin" x="42" y="9" onmousedown="handleZoom(evt,'out')"/>
                <use id="reset" xlink:href="#resetDef" x="30" y="36" onmousedown="handleReset()"/>
                <g id="arrowUp" xlink:href="#dirArrow" transform="translate(30 24)" onmousedown="handlePan(0,-1)">
                  <use xlink:href="#rim" fill="#404040">
                        <set attributeName="fill" to="#808080" begin="arrowUp.mouseover" end="arrowUp.mouseout"/>
                  </use>
                  <path fill="none" stroke="white" stroke-width="1.5" d="M0,-3.0v7 M-2.5,-0.5L0,-3.0L2.5,-0.5"/>
                </g>
                <g id="arrowRight" xlink:href="#dirArrow" transform="rotate(90) translate(36 -43)" onmousedown="handlePan(1,0)">
                  <use xlink:href="#rim" fill="#404040">
                        <set attributeName="fill" to="#808080" begin="arrowRight.mouseover" end="arrowRight.mouseout"/>
                  </use>
                  <path fill="none" stroke="white" stroke-width="1.5" d="M0,-3.0v7 M-2.5,-0.5L0,-3.0L2.5,-0.5"/>
                </g>
                <g id="arrowDown" xlink:href="#dirArrow" transform="rotate(180) translate(-30 -48)" onmousedown="handlePan(0,1)">
                  <use xlink:href="#rim" fill="#404040">
                        <set attributeName="fill" to="#808080" begin="arrowDown.mouseover" end="arrowDown.mouseout"/>
                  </use>
                  <path fill="none" stroke="white" stroke-width="1.5" d="M0,-3.0v7 M-2.5,-0.5L0,-3.0L2.5,-0.5"/>
                </g>
                <g id="arrowLeft" xlink:href="#dirArrow" transform="rotate(270) translate(-36 17)" onmousedown="handlePan(-1,0)">
                  <use xlink:href="#rim" fill="#404040">
                        <set attributeName="fill" to="#808080" begin="arrowLeft.mouseover" end="arrowLeft.mouseout"/>
                  </use>
                  <path fill="none" stroke="white" stroke-width="1.5" d="M0,-3.0v7 M-2.5,-0.5L0,-3.0L2.5,-0.5"/>
                </g>
        </g>
        <svg viewBox="0 0 15 15" width="100%" height="30px" preserveAspectRatio="xMaxYMin meet">
         <g id="arrow_out" transform="scale(0.3 0.3)">
          <a xlink:href="class_export_abe75ae41d7cc8afe8f1ba4bbf67dfcfc_icgraph_org.svg" target="_base">
           <rect id="button" ry="5" rx="5" y="6" x="6" height="38" width="38"
                fill="#f2f5e9" fill-opacity="0.5" stroke="#606060" stroke-width="1.0"/>
           <path id="arrow"
             d="M 11.500037,31.436501 C 11.940474,20.09759 22.043105,11.32322 32.158766,21.979434 L 37.068811,17.246167 C 37.068811,17.246167 37.088388,32 37.088388,32 L 22.160133,31.978069 C 22.160133,31.978069 26.997745,27.140456 26.997745,27.140456 C 18.528582,18.264221 13.291696,25.230495 11.500037,31.436501 z"
             style="fill:#404040;"/>
          </a>
         </g>
        </svg>
</svg>
