<?xml version="1.0" encoding="UTF-8" standalone="no"?>
<!DOCTYPE svg PUBLIC "-//W3C//DTD SVG 1.1//EN"
 "http://www.w3.org/Graphics/SVG/1.1/DTD/svg11.dtd">
<!-- Generated by graphviz version 2.43.0 (0)
 -->
<!-- Title: Channel_Graph::arrange Pages: 1 -->
<svg width="431pt" height="160pt"
 viewBox="0.00 0.00 431.00 160.00" xmlns="http://www.w3.org/2000/svg" xmlns:xlink="http://www.w3.org/1999/xlink">
<g id="graph0" class="graph" transform="scale(1 1) rotate(0) translate(4 156)">
<title>Channel_Graph::arrange</title>
<polygon fill="white" stroke="transparent" points="-4,4 -4,-156 427,-156 427,4 -4,4"/>
<!-- Node1 -->
<g id="node1" class="node">
<title>Node1</title>
<g id="a_node1"><a xlink:title=" ">
<polygon fill="#bfbfbf" stroke="black" points="0,-57.5 0,-76.5 134,-76.5 134,-57.5 0,-57.5"/>
<text text-anchor="middle" x="67" y="-64.5" font-family="Helvetica,sans-Serif" font-size="10.00">Channel_Graph::arrange</text>
</a>
</g>
</g>
<!-- Node2 -->
<g id="node2" class="node">
<title>Node2</title>
<g id="a_node2"><a xlink:href="class_channel___graph.html#afe38f4cb30dbc0b32ac4746d1ac506ab" target="_top" xlink:title="Form paths based on the current frontier.">
<polygon fill="white" stroke="black" points="170,-114.5 170,-133.5 322,-133.5 322,-114.5 170,-114.5"/>
<text text-anchor="middle" x="246" y="-121.5" font-family="Helvetica,sans-Serif" font-size="10.00">Channel_Graph::_formPaths</text>
</a>
</g>
</g>
<!-- Node1&#45;&gt;Node2 -->
<g id="edge1" class="edge">
<title>Node1&#45;&gt;Node2</title>
<path fill="none" stroke="midnightblue" d="M97.45,-76.56C117.82,-83.16 145.55,-92.13 170,-100 181.47,-103.69 193.94,-107.69 205.36,-111.34"/>
<polygon fill="midnightblue" stroke="midnightblue" points="204.48,-114.73 215.07,-114.45 206.61,-108.07 204.48,-114.73"/>
</g>
<!-- Node4 -->
<g id="node4" class="node">
<title>Node4</title>
<g id="a_node4"><a xlink:href="class_channel___graph.html#a2adfda1671f47ec64a2fdb3f29664a0f" target="_top" xlink:title="Sort paths.">
<polygon fill="white" stroke="black" points="172.5,-38.5 172.5,-57.5 319.5,-57.5 319.5,-38.5 172.5,-38.5"/>
<text text-anchor="middle" x="246" y="-45.5" font-family="Helvetica,sans-Serif" font-size="10.00">Channel_Graph::_sortPaths</text>
</a>
</g>
</g>
<!-- Node1&#45;&gt;Node4 -->
<g id="edge4" class="edge">
<title>Node1&#45;&gt;Node4</title>
<path fill="none" stroke="midnightblue" d="M134.16,-59.9C143.32,-58.92 152.82,-57.9 162.23,-56.88"/>
<polygon fill="midnightblue" stroke="midnightblue" points="162.82,-60.34 172.39,-55.79 162.07,-53.38 162.82,-60.34"/>
</g>
<!-- Node5 -->
<g id="node5" class="node">
<title>Node5</title>
<g id="a_node5"><a xlink:href="class_log.html#add7e611cd3267d3fd5dae017e3aeef67" target="_top" xlink:title="Write infomation to the log file.">
<polygon fill="white" stroke="black" points="361,-76.5 361,-95.5 420,-95.5 420,-76.5 361,-76.5"/>
<text text-anchor="middle" x="390.5" y="-83.5" font-family="Helvetica,sans-Serif" font-size="10.00">Log::info</text>
</a>
</g>
</g>
<!-- Node1&#45;&gt;Node5 -->
<g id="edge8" class="edge">
<title>Node1&#45;&gt;Node5</title>
<path fill="none" stroke="midnightblue" d="M134.23,-70.91C199.54,-74.77 297.14,-80.54 350.76,-83.71"/>
<polygon fill="midnightblue" stroke="midnightblue" points="350.69,-87.21 360.88,-84.31 351.1,-80.22 350.69,-87.21"/>
</g>
<!-- Node7 -->
<g id="node7" class="node">
<title>Node7</title>
<g id="a_node7"><a xlink:href="class_log.html#ac7147942832455398ad289b706a02616" target="_top" xlink:title="Write error message to the log file.">
<polygon fill="white" stroke="black" points="219.5,-0.5 219.5,-19.5 272.5,-19.5 272.5,-0.5 219.5,-0.5"/>
<text text-anchor="middle" x="246" y="-7.5" font-family="Helvetica,sans-Serif" font-size="10.00">Log::err</text>
</a>
</g>
</g>
<!-- Node1&#45;&gt;Node7 -->
<g id="edge7" class="edge">
<title>Node1&#45;&gt;Node7</title>
<path fill="none" stroke="midnightblue" d="M91.65,-57.35C112.17,-49.19 142.76,-37.5 170,-29 182.72,-25.03 196.85,-21.29 209.38,-18.18"/>
<polygon fill="midnightblue" stroke="midnightblue" points="210.57,-21.5 219.47,-15.74 208.92,-14.69 210.57,-21.5"/>
</g>
<!-- Node2&#45;&gt;Node2 -->
<g id="edge2" class="edge">
<title>Node2&#45;&gt;Node2</title>
<path fill="none" stroke="midnightblue" d="M223.81,-133.76C213.01,-142.57 220.41,-152 246,-152 262.8,-152 271.76,-147.94 272.88,-142.65"/>
<polygon fill="midnightblue" stroke="midnightblue" points="275.95,-140.97 268.19,-133.76 269.76,-144.24 275.95,-140.97"/>
</g>
<!-- Node3 -->
<g id="node3" class="node">
<title>Node3</title>
<g id="a_node3"><a xlink:href="utils_8h.html#af11c7cca5b9ad860da4bdb556dce3234" target="_top" xlink:title=" ">
<polygon fill="white" stroke="black" points="361.5,-114.5 361.5,-133.5 419.5,-133.5 419.5,-114.5 361.5,-114.5"/>
<text text-anchor="middle" x="390.5" y="-121.5" font-family="Helvetica,sans-Serif" font-size="10.00">contains</text>
</a>
</g>
</g>
<!-- Node2&#45;&gt;Node3 -->
<g id="edge3" class="edge">
<title>Node2&#45;&gt;Node3</title>
<path fill="none" stroke="midnightblue" d="M322.01,-124C332.13,-124 342.15,-124 351.24,-124"/>
<polygon fill="midnightblue" stroke="midnightblue" points="351.45,-127.5 361.45,-124 351.45,-120.5 351.45,-127.5"/>
</g>
<!-- Node4&#45;&gt;Node5 -->
<g id="edge5" class="edge">
<title>Node4&#45;&gt;Node5</title>
<path fill="none" stroke="midnightblue" d="M282.96,-57.59C303.65,-63.11 329.65,-70.04 350.79,-75.68"/>
<polygon fill="midnightblue" stroke="midnightblue" points="350.16,-79.13 360.73,-78.33 351.97,-72.37 350.16,-79.13"/>
</g>
<!-- Node6 -->
<g id="node6" class="node">
<title>Node6</title>
<g id="a_node6"><a xlink:href="class_log.html#a3410828f35c9bf8dd0771ead28de27b0" target="_top" xlink:title="Write contents to the log file.">
<polygon fill="white" stroke="black" points="358,-38.5 358,-57.5 423,-57.5 423,-38.5 358,-38.5"/>
<text text-anchor="middle" x="390.5" y="-45.5" font-family="Helvetica,sans-Serif" font-size="10.00">Log::write</text>
</a>
</g>
</g>
<!-- Node4&#45;&gt;Node6 -->
<g id="edge6" class="edge">
<title>Node4&#45;&gt;Node6</title>
<path fill="none" stroke="midnightblue" d="M319.5,-48C329.19,-48 338.84,-48 347.75,-48"/>
<polygon fill="midnightblue" stroke="midnightblue" points="347.82,-51.5 357.82,-48 347.82,-44.5 347.82,-51.5"/>
</g>
</g>
</svg>
