<?xml version="1.0" encoding="UTF-8" standalone="no"?>
<!DOCTYPE svg PUBLIC "-//W3C//DTD SVG 1.1//EN"
 "http://www.w3.org/Graphics/SVG/1.1/DTD/svg11.dtd">
<!-- Generated by graphviz version 2.43.0 (0)
 -->
<!-- Title: Export::_generateBF Pages: 1 -->
<!--zoomable 1168 -->
<svg id="main" version="1.1" xmlns="http://www.w3.org/2000/svg" xmlns:xlink="http://www.w3.org/1999/xlink" xml:space="preserve" onload="init(evt)">
<style type="text/css"><![CDATA[
.edge:hover path { stroke: red; }
.edge:hover polygon { stroke: red; fill: red; }
]]></style>
<script type="text/javascript"><![CDATA[
var edges = document.getElementsByTagName('g');
if (edges && edges.length) {
  for (var i=0;i<edges.length;i++) {
    if (edges[i].id.substr(0,4)=='edge') {
      edges[i].setAttribute('class','edge');
    }
  }
}
]]></script>
        <defs>
                <circle id="rim" cx="0" cy="0" r="7"/>
                <circle id="rim2" cx="0" cy="0" r="3.5"/>
                <g id="zoomPlus">
                        <use xlink:href="#rim" fill="#404040">
                                <set attributeName="fill" to="#808080" begin="zoomplus.mouseover" end="zoomplus.mouseout"/>
                        </use>
                        <path d="M-4,0h8M0,-4v8" fill="none" stroke="white" stroke-width="1.5" pointer-events="none"/>
                </g>
                <g id="zoomMin">
                        <use xlink:href="#rim" fill="#404040">
                                <set attributeName="fill" to="#808080" begin="zoomminus.mouseover" end="zoomminus.mouseout"/>
                        </use>
                        <path d="M-4,0h8" fill="none" stroke="white" stroke-width="1.5" pointer-events="none"/>
                </g>
                <g id="dirArrow">
                        <path fill="none" stroke="white" stroke-width="1.5" d="M0,-3.0v7 M-2.5,-0.5L0,-3.0L2.5,-0.5"/>
                </g>
               <g id="resetDef">
                       <use xlink:href="#rim2" fill="#404040">
                               <set attributeName="fill" to="#808080" begin="reset.mouseover" end="reset.mouseout"/>
                       </use>
               </g>
        </defs>

<script type="text/javascript">
var viewWidth = 905;
var viewHeight = 1168;
var sectionId = 'dynsection-17';
</script>
<script xlink:href="svgpan.js"/>
<svg id="graph" class="graph">
<g id="viewport">
<title>Export::_generateBF</title>
<polygon fill="white" stroke="transparent" points="-4,4 -4,-1164 901,-1164 901,4 -4,4"/>
<!-- Node1 -->
<g id="node1" class="node">
<title>Node1</title>
<g id="a_node1"><a xlink:title="Generate RIS reflection matrices.">
<polygon fill="#bfbfbf" stroke="black" points="0,-988.5 0,-1007.5 116,-1007.5 116,-988.5 0,-988.5"/>
<text text-anchor="middle" x="58" y="-995.5" font-family="Helvetica,sans-Serif" font-size="10.00">Export::_generateBF</text>
</a>
</g>
</g>
<!-- Node2 -->
<g id="node2" class="node">
<title>Node2</title>
<g id="a_node2"><a xlink:href="class_export.html#a638d6b9ced18342503ee6f4d4b274740" target="_top" xlink:title=" ">
<polygon fill="white" stroke="black" points="157.5,-1140.5 157.5,-1159.5 241.5,-1159.5 241.5,-1140.5 157.5,-1140.5"/>
<text text-anchor="middle" x="199.5" y="-1147.5" font-family="Helvetica,sans-Serif" font-size="10.00">Export::_asStr</text>
</a>
</g>
</g>
<!-- Node1&#45;&gt;Node2 -->
<g id="edge1" class="edge">
<title>Node1&#45;&gt;Node2</title>
<path fill="none" stroke="midnightblue" d="M63.39,-1007.79C74.7,-1031.97 107.1,-1095.12 152,-1131 154.03,-1132.62 156.21,-1134.12 158.49,-1135.51"/>
<polygon fill="midnightblue" stroke="midnightblue" points="157.12,-1138.74 167.59,-1140.3 160.38,-1132.54 157.12,-1138.74"/>
</g>
<!-- Node3 -->
<g id="node3" class="node">
<title>Node3</title>
<g id="a_node3"><a xlink:href="class_export.html#abe75ae41d7cc8afe8f1ba4bbf67dfcfc" target="_top" xlink:title=" ">
<polygon fill="white" stroke="black" points="168,-1102.5 168,-1121.5 231,-1121.5 231,-1102.5 168,-1102.5"/>
<text text-anchor="middle" x="199.5" y="-1109.5" font-family="Helvetica,sans-Serif" font-size="10.00">Export::_f</text>
</a>
</g>
</g>
<!-- Node1&#45;&gt;Node3 -->
<g id="edge2" class="edge">
<title>Node1&#45;&gt;Node3</title>
<path fill="none" stroke="midnightblue" d="M66.18,-1007.62C80.59,-1026.34 114.84,-1068.02 152,-1093 154.59,-1094.74 157.37,-1096.37 160.23,-1097.88"/>
<polygon fill="midnightblue" stroke="midnightblue" points="159,-1101.17 169.53,-1102.31 162,-1094.85 159,-1101.17"/>
</g>
<!-- Node4 -->
<g id="node4" class="node">
<title>Node4</title>
<g id="a_node4"><a xlink:href="class_export.html#a4dd19b0ff2eb109897fb486769fefffe" target="_top" xlink:title="Get the size of the node (Tx/Rx/RIS).">
<polygon fill="white" stroke="black" points="152,-1064.5 152,-1083.5 247,-1083.5 247,-1064.5 152,-1064.5"/>
<text text-anchor="middle" x="199.5" y="-1071.5" font-family="Helvetica,sans-Serif" font-size="10.00">Export::_getSize</text>
</a>
</g>
</g>
<!-- Node1&#45;&gt;Node4 -->
<g id="edge3" class="edge">
<title>Node1&#45;&gt;Node4</title>
<path fill="none" stroke="midnightblue" d="M73.08,-1007.63C90.95,-1019.61 122.94,-1040.28 152,-1055 155.76,-1056.91 159.76,-1058.77 163.78,-1060.54"/>
<polygon fill="midnightblue" stroke="midnightblue" points="162.5,-1063.8 173.07,-1064.48 165.23,-1057.35 162.5,-1063.8"/>
</g>
<!-- Node5 -->
<g id="node5" class="node">
<title>Node5</title>
<g id="a_node5"><a xlink:href="class_export.html#a68e698a5654fc800aa78c512da8f23b1" target="_top" xlink:title=" ">
<polygon fill="white" stroke="black" points="152.5,-1026.5 152.5,-1045.5 246.5,-1045.5 246.5,-1026.5 152.5,-1026.5"/>
<text text-anchor="middle" x="199.5" y="-1033.5" font-family="Helvetica,sans-Serif" font-size="10.00">Export::_langStr</text>
</a>
</g>
</g>
<!-- Node1&#45;&gt;Node5 -->
<g id="edge4" class="edge">
<title>Node1&#45;&gt;Node5</title>
<path fill="none" stroke="midnightblue" d="M94.2,-1007.59C112.21,-1012.49 134.33,-1018.52 153.56,-1023.76"/>
<polygon fill="midnightblue" stroke="midnightblue" points="152.74,-1027.16 163.31,-1026.41 154.58,-1020.41 152.74,-1027.16"/>
</g>
<!-- Node6 -->
<g id="node6" class="node">
<title>Node6</title>
<g id="a_node6"><a xlink:href="utils_8h.html#a49dc116689f1a4202be4d3f0743b1f70" target="_top" xlink:title=" ">
<polygon fill="white" stroke="black" points="175,-988.5 175,-1007.5 224,-1007.5 224,-988.5 175,-988.5"/>
<text text-anchor="middle" x="199.5" y="-995.5" font-family="Helvetica,sans-Serif" font-size="10.00">appDir</text>
</a>
</g>
</g>
<!-- Node1&#45;&gt;Node6 -->
<g id="edge5" class="edge">
<title>Node1&#45;&gt;Node6</title>
<path fill="none" stroke="midnightblue" d="M116.14,-998C132.61,-998 150.05,-998 164.62,-998"/>
<polygon fill="midnightblue" stroke="midnightblue" points="164.67,-1001.5 174.67,-998 164.67,-994.5 164.67,-1001.5"/>
</g>
<!-- Node7 -->
<g id="node7" class="node">
<title>Node7</title>
<g id="a_node7"><a xlink:href="utils_8h.html#af11c7cca5b9ad860da4bdb556dce3234" target="_top" xlink:title=" ">
<polygon fill="white" stroke="black" points="665,-760.5 665,-779.5 723,-779.5 723,-760.5 665,-760.5"/>
<text text-anchor="middle" x="694" y="-767.5" font-family="Helvetica,sans-Serif" font-size="10.00">contains</text>
</a>
</g>
</g>
<!-- Node1&#45;&gt;Node7 -->
<g id="edge6" class="edge">
<title>Node1&#45;&gt;Node7</title>
<path fill="none" stroke="midnightblue" d="M72.8,-988.37C90.38,-976.57 122.08,-956.81 152,-946 337.36,-879.02 411.36,-952.42 588,-865 626.12,-846.13 660.68,-809.37 679.07,-787.52"/>
<polygon fill="midnightblue" stroke="midnightblue" points="681.87,-789.63 685.52,-779.69 676.46,-785.19 681.87,-789.63"/>
</g>
<!-- Node8 -->
<g id="node8" class="node">
<title>Node8</title>
<g id="a_node8"><a xlink:href="class_log.html#ac7147942832455398ad289b706a02616" target="_top" xlink:title="Write error message to the log file.">
<polygon fill="white" stroke="black" points="822,-646.5 822,-665.5 875,-665.5 875,-646.5 822,-646.5"/>
<text text-anchor="middle" x="848.5" y="-653.5" font-family="Helvetica,sans-Serif" font-size="10.00">Log::err</text>
</a>
</g>
</g>
<!-- Node1&#45;&gt;Node8 -->
<g id="edge7" class="edge">
<title>Node1&#45;&gt;Node8</title>
<path fill="none" stroke="midnightblue" d="M100.49,-988.48C116.51,-985.07 135.04,-981.47 152,-979 246.92,-965.15 271.07,-960 367,-960 367,-960 367,-960 539.5,-960 643.01,-960 688.54,-968.86 764,-898 829.41,-836.57 843.58,-721.52 846.65,-675.63"/>
<polygon fill="midnightblue" stroke="midnightblue" points="850.15,-675.71 847.22,-665.53 843.16,-675.32 850.15,-675.71"/>
</g>
<!-- Node9 -->
<g id="node9" class="node">
<title>Node9</title>
<g id="a_node9"><a xlink:href="class_log.html#add7e611cd3267d3fd5dae017e3aeef67" target="_top" xlink:title="Write infomation to the log file.">
<polygon fill="white" stroke="black" points="819,-513.5 819,-532.5 878,-532.5 878,-513.5 819,-513.5"/>
<text text-anchor="middle" x="848.5" y="-520.5" font-family="Helvetica,sans-Serif" font-size="10.00">Log::info</text>
</a>
</g>
</g>
<!-- Node1&#45;&gt;Node9 -->
<g id="edge8" class="edge">
<title>Node1&#45;&gt;Node9</title>
<path fill="none" stroke="midnightblue" d="M66.77,-988.31C81.39,-970.83 114.9,-934.21 152,-917 239.69,-876.31 270.33,-884 367,-884 367,-884 367,-884 539.5,-884 591.84,-884 682.56,-886.11 764,-789 808.61,-735.81 778.58,-703.04 800,-637 811.14,-602.67 828.17,-564.19 838.52,-541.87"/>
<polygon fill="midnightblue" stroke="midnightblue" points="841.81,-543.1 842.89,-532.56 835.48,-540.13 841.81,-543.1"/>
</g>
<!-- Node10 -->
<g id="node10" class="node">
<title>Node10</title>
<g id="a_node10"><a xlink:href="class_alg.html#ada1e8215f047b4ffd736e811b5ea3162" target="_top" xlink:title=" ">
<polygon fill="white" stroke="black" points="168,-418.5 168,-437.5 231,-437.5 231,-418.5 168,-418.5"/>
<text text-anchor="middle" x="199.5" y="-425.5" font-family="Helvetica,sans-Serif" font-size="10.00">Alg::write</text>
</a>
</g>
</g>
<!-- Node1&#45;&gt;Node10 -->
<g id="edge9" class="edge">
<title>Node1&#45;&gt;Node10</title>
<path fill="none" stroke="midnightblue" d="M61.42,-988.11C77.71,-921.55 171.35,-538.95 193.71,-447.59"/>
<polygon fill="midnightblue" stroke="midnightblue" points="197.14,-448.27 196.12,-437.72 190.34,-446.6 197.14,-448.27"/>
</g>
<!-- Node10&#45;&gt;Node8 -->
<g id="edge26" class="edge">
<title>Node10&#45;&gt;Node8</title>
<path fill="none" stroke="midnightblue" d="M200.84,-437.68C202.64,-471.96 213.82,-588.21 283,-637 368.2,-697.09 701.33,-670.46 811.74,-659.72"/>
<polygon fill="midnightblue" stroke="midnightblue" points="812.1,-663.2 821.71,-658.73 811.41,-656.24 812.1,-663.2"/>
</g>
<!-- Node10&#45;&gt;Node9 -->
<g id="edge30" class="edge">
<title>Node10&#45;&gt;Node9</title>
<path fill="none" stroke="midnightblue" d="M205.23,-437.66C215.82,-458.04 243.65,-505.05 283,-523 376.73,-565.74 697.17,-538.29 808.79,-527.1"/>
<polygon fill="midnightblue" stroke="midnightblue" points="809.33,-530.56 818.92,-526.07 808.62,-523.6 809.33,-530.56"/>
</g>
<!-- Node10&#45;&gt;Node10 -->
<g id="edge54" class="edge">
<title>Node10&#45;&gt;Node10</title>
<path fill="none" stroke="midnightblue" d="M177.92,-437.76C167.42,-446.57 174.62,-456 199.5,-456 215.44,-456 224.12,-452.13 225.54,-447.03"/>
<polygon fill="midnightblue" stroke="midnightblue" points="228.57,-445.25 221.08,-437.76 222.26,-448.29 228.57,-445.25"/>
</g>
<!-- Node11 -->
<g id="node11" class="node">
<title>Node11</title>
<g id="a_node11"><a xlink:href="class_alg.html#a2cf2b7f4e37c8e401d9c6dad6687917d" target="_top" xlink:title=" ">
<polygon fill="white" stroke="black" points="318,-342.5 318,-361.5 418,-361.5 418,-342.5 318,-342.5"/>
<text text-anchor="middle" x="368" y="-349.5" font-family="Helvetica,sans-Serif" font-size="10.00">Alg::_wComment</text>
</a>
</g>
</g>
<!-- Node10&#45;&gt;Node11 -->
<g id="edge10" class="edge">
<title>Node10&#45;&gt;Node11</title>
<path fill="none" stroke="midnightblue" d="M213.28,-418.31C228.96,-406.82 256.72,-387.75 283,-376 293.07,-371.5 304.2,-367.62 314.97,-364.37"/>
<polygon fill="midnightblue" stroke="midnightblue" points="316.08,-367.69 324.73,-361.56 314.15,-360.96 316.08,-367.69"/>
</g>
<!-- Node12 -->
<g id="node12" class="node">
<title>Node12</title>
<g id="a_node12"><a xlink:href="class_calc.html#ad6dbdfdd4bd21322e5836ff72c11ae1b" target="_top" xlink:title="Convert the Alg CALC contents into a language command.">
<polygon fill="white" stroke="black" points="511,-380.5 511,-399.5 566,-399.5 566,-380.5 511,-380.5"/>
<text text-anchor="middle" x="538.5" y="-387.5" font-family="Helvetica,sans-Serif" font-size="10.00">Calc::as</text>
</a>
</g>
</g>
<!-- Node10&#45;&gt;Node12 -->
<g id="edge11" class="edge">
<title>Node10&#45;&gt;Node12</title>
<path fill="none" stroke="midnightblue" d="M231.24,-419.75C246.66,-415.91 265.71,-411.62 283,-409 359.93,-397.34 451.08,-392.74 500.73,-390.99"/>
<polygon fill="midnightblue" stroke="midnightblue" points="501.09,-394.48 510.97,-390.66 500.86,-387.49 501.09,-394.48"/>
</g>
<!-- Node23 -->
<g id="node23" class="node">
<title>Node23</title>
<g id="a_node23"><a xlink:href="class_type.html#abe15820e780d2f6646792d54f3ae3311" target="_top" xlink:title=" ">
<polygon fill="white" stroke="black" points="336,-304.5 336,-323.5 400,-323.5 400,-304.5 336,-304.5"/>
<text text-anchor="middle" x="368" y="-311.5" font-family="Helvetica,sans-Serif" font-size="10.00">Type::dim</text>
</a>
</g>
</g>
<!-- Node10&#45;&gt;Node23 -->
<g id="edge25" class="edge">
<title>Node10&#45;&gt;Node23</title>
<path fill="none" stroke="midnightblue" d="M205.92,-418.41C217.42,-398.99 246.26,-354.98 283,-333 295.8,-325.34 311.39,-320.77 325.64,-318.03"/>
<polygon fill="midnightblue" stroke="midnightblue" points="326.43,-321.45 335.72,-316.35 325.28,-314.55 326.43,-321.45"/>
</g>
<!-- Node24 -->
<g id="node24" class="node">
<title>Node24</title>
<g id="a_node24"><a xlink:href="class_term.html#abd955a8def100354b03e33911c3b21f8" target="_top" xlink:title="Print error message.">
<polygon fill="white" stroke="black" points="333,-266.5 333,-285.5 403,-285.5 403,-266.5 333,-266.5"/>
<text text-anchor="middle" x="368" y="-273.5" font-family="Helvetica,sans-Serif" font-size="10.00">Term::error</text>
</a>
</g>
</g>
<!-- Node10&#45;&gt;Node24 -->
<g id="edge27" class="edge">
<title>Node10&#45;&gt;Node24</title>
<path fill="none" stroke="midnightblue" d="M203.49,-418.48C211.77,-393.81 237.41,-327.48 283,-295 294.45,-286.84 308.82,-282.11 322.42,-279.4"/>
<polygon fill="midnightblue" stroke="midnightblue" points="323.33,-282.79 332.61,-277.69 322.17,-275.89 323.33,-282.79"/>
</g>
<!-- Node25 -->
<g id="node25" class="node">
<title>Node25</title>
<g id="a_node25"><a xlink:href="class_alg___line.html#af651454e6ddfce164626b68b2c6cba97" target="_top" xlink:title="Get the function name.">
<polygon fill="white" stroke="black" points="325.5,-228.5 325.5,-247.5 410.5,-247.5 410.5,-228.5 325.5,-228.5"/>
<text text-anchor="middle" x="368" y="-235.5" font-family="Helvetica,sans-Serif" font-size="10.00">Alg_Line::func</text>
</a>
</g>
</g>
<!-- Node10&#45;&gt;Node25 -->
<g id="edge28" class="edge">
<title>Node10&#45;&gt;Node25</title>
<path fill="none" stroke="midnightblue" d="M202.13,-418.44C207.62,-389.22 228.31,-300.5 283,-257 292.23,-249.66 303.75,-245.04 315.27,-242.16"/>
<polygon fill="midnightblue" stroke="midnightblue" points="316.27,-245.52 325.34,-240.05 314.83,-238.67 316.27,-245.52"/>
</g>
<!-- Node26 -->
<g id="node26" class="node">
<title>Node26</title>
<g id="a_node26"><a xlink:href="class_alg___line.html#a49a98870a1f09e35a3e15a7d7bab1666" target="_top" xlink:title="Check whether parameters contain the key.">
<polygon fill="white" stroke="black" points="318.5,-190.5 318.5,-209.5 417.5,-209.5 417.5,-190.5 318.5,-190.5"/>
<text text-anchor="middle" x="368" y="-197.5" font-family="Helvetica,sans-Serif" font-size="10.00">Alg_Line::hasKey</text>
</a>
</g>
</g>
<!-- Node10&#45;&gt;Node26 -->
<g id="edge29" class="edge">
<title>Node10&#45;&gt;Node26</title>
<path fill="none" stroke="midnightblue" d="M201.23,-418.3C204.28,-384.93 219.03,-273.84 283,-219 290.33,-212.72 299.31,-208.39 308.63,-205.44"/>
<polygon fill="midnightblue" stroke="midnightblue" points="309.66,-208.79 318.42,-202.84 307.86,-202.03 309.66,-208.79"/>
</g>
<!-- Node27 -->
<g id="node27" class="node">
<title>Node27</title>
<g id="a_node27"><a xlink:href="class_alg.html#a3ee7f9963027158b3fbd442d97800111" target="_top" xlink:title=" ">
<polygon fill="white" stroke="black" points="325,-418.5 325,-437.5 411,-437.5 411,-418.5 325,-418.5"/>
<text text-anchor="middle" x="368" y="-425.5" font-family="Helvetica,sans-Serif" font-size="10.00">Alg::inlineCalc</text>
</a>
</g>
</g>
<!-- Node10&#45;&gt;Node27 -->
<g id="edge31" class="edge">
<title>Node10&#45;&gt;Node27</title>
<path fill="none" stroke="midnightblue" d="M231.04,-428C254.35,-428 287.02,-428 314.5,-428"/>
<polygon fill="midnightblue" stroke="midnightblue" points="314.74,-431.5 324.74,-428 314.74,-424.5 314.74,-431.5"/>
</g>
<!-- Node28 -->
<g id="node28" class="node">
<title>Node28</title>
<g id="a_node28"><a xlink:href="class_alg___line.html#ad419191a99be7e34024e569ad833b04e" target="_top" xlink:title="Check whether the line is for function declaration.">
<polygon fill="white" stroke="black" points="283,-152.5 283,-171.5 453,-171.5 453,-152.5 283,-152.5"/>
<text text-anchor="middle" x="368" y="-159.5" font-family="Helvetica,sans-Serif" font-size="10.00">Alg_Line::isFunctionDeclaration</text>
</a>
</g>
</g>
<!-- Node10&#45;&gt;Node28 -->
<g id="edge33" class="edge">
<title>Node10&#45;&gt;Node28</title>
<path fill="none" stroke="midnightblue" d="M200.57,-418.43C201.36,-381.57 209.41,-247.58 283,-181 284.71,-179.45 286.52,-178.02 288.41,-176.7"/>
<polygon fill="midnightblue" stroke="midnightblue" points="290.31,-179.65 297.17,-171.58 286.77,-173.61 290.31,-179.65"/>
</g>
<!-- Node29 -->
<g id="node29" class="node">
<title>Node29</title>
<g id="a_node29"><a xlink:href="class_alg.html#af935e64a6eb4afa4ca1540f4da3dcc9c" target="_top" xlink:title=" ">
<polygon fill="white" stroke="black" points="340,-114.5 340,-133.5 396,-133.5 396,-114.5 340,-114.5"/>
<text text-anchor="middle" x="368" y="-121.5" font-family="Helvetica,sans-Serif" font-size="10.00">Alg::line</text>
</a>
</g>
</g>
<!-- Node10&#45;&gt;Node29 -->
<g id="edge34" class="edge">
<title>Node10&#45;&gt;Node29</title>
<path fill="none" stroke="midnightblue" d="M200.08,-418.4C198.85,-378.16 199.78,-221.43 283,-143 295.41,-131.31 313.43,-126.26 329.6,-124.26"/>
<polygon fill="midnightblue" stroke="midnightblue" points="330.23,-127.72 339.88,-123.35 329.61,-120.75 330.23,-127.72"/>
</g>
<!-- Node30 -->
<g id="node30" class="node">
<title>Node30</title>
<g id="a_node30"><a xlink:href="class_alg___line.html#a4e79eb77a1cddbdab1dbdde8a499342d" target="_top" xlink:title="Parameter variables.">
<polygon fill="white" stroke="black" points="317.5,-76.5 317.5,-95.5 418.5,-95.5 418.5,-76.5 317.5,-76.5"/>
<text text-anchor="middle" x="368" y="-83.5" font-family="Helvetica,sans-Serif" font-size="10.00">Alg_Line::params</text>
</a>
</g>
</g>
<!-- Node10&#45;&gt;Node30 -->
<g id="edge35" class="edge">
<title>Node10&#45;&gt;Node30</title>
<path fill="none" stroke="midnightblue" d="M201.62,-418.27C207.46,-369.34 235.91,-150.8 283,-105 289.77,-98.42 298.31,-93.92 307.34,-90.89"/>
<polygon fill="midnightblue" stroke="midnightblue" points="308.56,-94.19 317.26,-88.15 306.69,-87.44 308.56,-94.19"/>
</g>
<!-- Node31 -->
<g id="node31" class="node">
<title>Node31</title>
<g id="a_node31"><a xlink:href="class_alg___line.html#a801b08c6c164376039a4ba4e980d039e" target="_top" xlink:title="Print Alg_Line contents (including return values, function names and parameters).">
<polygon fill="white" stroke="black" points="325,-684.5 325,-703.5 411,-703.5 411,-684.5 325,-684.5"/>
<text text-anchor="middle" x="368" y="-691.5" font-family="Helvetica,sans-Serif" font-size="10.00">Alg_Line::print</text>
</a>
</g>
</g>
<!-- Node10&#45;&gt;Node31 -->
<g id="edge36" class="edge">
<title>Node10&#45;&gt;Node31</title>
<path fill="none" stroke="midnightblue" d="M200.76,-437.51C202.26,-473.53 212.56,-603.01 283,-670 291.84,-678.41 303.43,-683.9 315.15,-687.49"/>
<polygon fill="midnightblue" stroke="midnightblue" points="314.42,-690.91 324.98,-690.06 316.2,-684.14 314.42,-690.91"/>
</g>
<!-- Node33 -->
<g id="node33" class="node">
<title>Node33</title>
<g id="a_node33"><a xlink:href="class_type___track.html#a4548ba1c289fba60e88b0e725509219e" target="_top" xlink:title=" ">
<polygon fill="white" stroke="black" points="644.5,-494.5 644.5,-513.5 743.5,-513.5 743.5,-494.5 644.5,-494.5"/>
<text text-anchor="middle" x="694" y="-501.5" font-family="Helvetica,sans-Serif" font-size="10.00">Type_Track::push</text>
</a>
</g>
</g>
<!-- Node10&#45;&gt;Node33 -->
<g id="edge39" class="edge">
<title>Node10&#45;&gt;Node33</title>
<path fill="none" stroke="midnightblue" d="M231.31,-435.78C246.76,-439.5 265.8,-443.83 283,-447 407.29,-469.9 554.29,-488.24 634.15,-497.47"/>
<polygon fill="midnightblue" stroke="midnightblue" points="634.16,-501 644.49,-498.66 634.96,-494.04 634.16,-501"/>
</g>
<!-- Node34 -->
<g id="node34" class="node">
<title>Node34</title>
<g id="a_node34"><a xlink:href="utils_8h.html#a0465457013518e168df05799c93cfa6e" target="_top" xlink:title=" ">
<polygon fill="white" stroke="black" points="326.5,-38.5 326.5,-57.5 409.5,-57.5 409.5,-38.5 326.5,-38.5"/>
<text text-anchor="middle" x="368" y="-45.5" font-family="Helvetica,sans-Serif" font-size="10.00">removeQuote</text>
</a>
</g>
</g>
<!-- Node10&#45;&gt;Node34 -->
<g id="edge41" class="edge">
<title>Node10&#45;&gt;Node34</title>
<path fill="none" stroke="midnightblue" d="M201.35,-418.19C206.1,-365.75 231,-118.88 283,-67 291.94,-58.08 304.11,-52.98 316.42,-50.15"/>
<polygon fill="midnightblue" stroke="midnightblue" points="317.07,-53.59 326.27,-48.33 315.8,-46.71 317.07,-53.59"/>
</g>
<!-- Node36 -->
<g id="node36" class="node">
<title>Node36</title>
<g id="a_node36"><a xlink:href="class_alg___line.html#a8e21f6b69eaf80a2327f7308fb4299e0" target="_top" xlink:title="Return variables.">
<polygon fill="white" stroke="black" points="319,-0.5 319,-19.5 417,-19.5 417,-0.5 319,-0.5"/>
<text text-anchor="middle" x="368" y="-7.5" font-family="Helvetica,sans-Serif" font-size="10.00">Alg_Line::returns</text>
</a>
</g>
</g>
<!-- Node10&#45;&gt;Node36 -->
<g id="edge43" class="edge">
<title>Node10&#45;&gt;Node36</title>
<path fill="none" stroke="midnightblue" d="M201.12,-418.29C204.83,-362.86 226.02,-87.05 283,-29 290.07,-21.8 299.25,-17.07 308.94,-14.02"/>
<polygon fill="midnightblue" stroke="midnightblue" points="309.93,-17.38 318.74,-11.49 308.18,-10.6 309.93,-17.38"/>
</g>
<!-- Node37 -->
<g id="node37" class="node">
<title>Node37</title>
<g id="a_node37"><a xlink:href="class_type.html#a0153b8ff39040caf3ff2a6f7c7329d7c" target="_top" xlink:title="Get the C++ type name.">
<polygon fill="white" stroke="black" points="331.5,-798.5 331.5,-817.5 404.5,-817.5 404.5,-798.5 331.5,-798.5"/>
<text text-anchor="middle" x="368" y="-805.5" font-family="Helvetica,sans-Serif" font-size="10.00">Type::string</text>
</a>
</g>
</g>
<!-- Node10&#45;&gt;Node37 -->
<g id="edge44" class="edge">
<title>Node10&#45;&gt;Node37</title>
<path fill="none" stroke="midnightblue" d="M201.35,-437.81C206.1,-490.25 231,-737.12 283,-789 293.14,-799.11 307.44,-804.32 321.38,-806.87"/>
<polygon fill="midnightblue" stroke="midnightblue" points="321.01,-810.36 331.4,-808.3 321.99,-803.42 321.01,-810.36"/>
</g>
<!-- Node40 -->
<g id="node40" class="node">
<title>Node40</title>
<g id="a_node40"><a xlink:href="namespacemmce.html#ad4a160832ef9fad47c531ece39752208" target="_top" xlink:title="Change a number to string.">
<polygon fill="white" stroke="black" points="320,-760.5 320,-779.5 416,-779.5 416,-760.5 320,-760.5"/>
<text text-anchor="middle" x="368" y="-767.5" font-family="Helvetica,sans-Serif" font-size="10.00">mmce::to_string</text>
</a>
</g>
</g>
<!-- Node10&#45;&gt;Node40 -->
<g id="edge47" class="edge">
<title>Node10&#45;&gt;Node40</title>
<path fill="none" stroke="midnightblue" d="M201.62,-437.73C207.46,-486.66 235.91,-705.2 283,-751 290.47,-758.27 300.1,-762.99 310.17,-766.01"/>
<polygon fill="midnightblue" stroke="midnightblue" points="309.34,-769.41 319.89,-768.41 311.02,-762.61 309.34,-769.41"/>
</g>
<!-- Node41 -->
<g id="node41" class="node">
<title>Node41</title>
<g id="a_node41"><a xlink:href="utils_8h.html#a6ef734356291c638e5787a6c668192d4" target="_top" xlink:title=" ">
<polygon fill="white" stroke="black" points="349.5,-722.5 349.5,-741.5 386.5,-741.5 386.5,-722.5 349.5,-722.5"/>
<text text-anchor="middle" x="368" y="-729.5" font-family="Helvetica,sans-Serif" font-size="10.00">trim</text>
</a>
</g>
</g>
<!-- Node10&#45;&gt;Node41 -->
<g id="edge48" class="edge">
<title>Node10&#45;&gt;Node41</title>
<path fill="none" stroke="midnightblue" d="M200.08,-437.6C198.85,-477.84 199.78,-634.57 283,-713 297.92,-727.06 320.95,-731.51 339.12,-732.61"/>
<polygon fill="midnightblue" stroke="midnightblue" points="339.06,-736.11 349.17,-732.92 339.28,-729.11 339.06,-736.11"/>
</g>
<!-- Node44 -->
<g id="node44" class="node">
<title>Node44</title>
<g id="a_node44"><a xlink:href="class_log.html#ab61203710351f6d33d7ba634d2c4eb32" target="_top" xlink:title="Write warning message to the log file.">
<polygon fill="white" stroke="black" points="339,-608.5 339,-627.5 397,-627.5 397,-608.5 339,-608.5"/>
<text text-anchor="middle" x="368" y="-615.5" font-family="Helvetica,sans-Serif" font-size="10.00">Log::war</text>
</a>
</g>
</g>
<!-- Node10&#45;&gt;Node44 -->
<g id="edge51" class="edge">
<title>Node10&#45;&gt;Node44</title>
<path fill="none" stroke="midnightblue" d="M202.13,-437.56C207.62,-466.78 228.31,-555.5 283,-599 295.74,-609.13 312.84,-614.08 328.28,-616.43"/>
<polygon fill="midnightblue" stroke="midnightblue" points="328.29,-619.95 338.63,-617.66 329.12,-613 328.29,-619.95"/>
</g>
<!-- Node45 -->
<g id="node45" class="node">
<title>Node45</title>
<g id="a_node45"><a xlink:href="class_term.html#aab5d22a2c1060bfba638a5574d4c5639" target="_top" xlink:title="Print a warning message.">
<polygon fill="white" stroke="black" points="325,-570.5 325,-589.5 411,-589.5 411,-570.5 325,-570.5"/>
<text text-anchor="middle" x="368" y="-577.5" font-family="Helvetica,sans-Serif" font-size="10.00">Term::warning</text>
</a>
</g>
</g>
<!-- Node10&#45;&gt;Node45 -->
<g id="edge52" class="edge">
<title>Node10&#45;&gt;Node45</title>
<path fill="none" stroke="midnightblue" d="M203.97,-437.72C213.01,-461.66 239.68,-523.87 283,-556 292.33,-562.92 303.59,-567.85 314.79,-571.35"/>
<polygon fill="midnightblue" stroke="midnightblue" points="314,-574.77 324.58,-574.09 315.89,-568.03 314,-574.77"/>
</g>
<!-- Node46 -->
<g id="node46" class="node">
<title>Node46</title>
<g id="a_node46"><a xlink:href="class_log.html#a3410828f35c9bf8dd0771ead28de27b0" target="_top" xlink:title="Write contents to the log file.">
<polygon fill="white" stroke="black" points="335.5,-494.5 335.5,-513.5 400.5,-513.5 400.5,-494.5 335.5,-494.5"/>
<text text-anchor="middle" x="368" y="-501.5" font-family="Helvetica,sans-Serif" font-size="10.00">Log::write</text>
</a>
</g>
</g>
<!-- Node10&#45;&gt;Node46 -->
<g id="edge53" class="edge">
<title>Node10&#45;&gt;Node46</title>
<path fill="none" stroke="midnightblue" d="M213.28,-437.69C228.96,-449.18 256.72,-468.25 283,-480 296.37,-485.98 311.61,-490.86 325.4,-494.62"/>
<polygon fill="midnightblue" stroke="midnightblue" points="324.58,-498.03 335.14,-497.16 326.34,-491.25 324.58,-498.03"/>
</g>
<!-- Node13 -->
<g id="node13" class="node">
<title>Node13</title>
<g id="a_node13"><a xlink:href="class_calc.html#af1d1bd5e83f9e5196627f5a4e1a5ee83" target="_top" xlink:title=" ">
<polygon fill="white" stroke="black" points="631.5,-324.5 631.5,-343.5 756.5,-343.5 756.5,-324.5 631.5,-324.5"/>
<text text-anchor="middle" x="694" y="-331.5" font-family="Helvetica,sans-Serif" font-size="10.00">Calc::_changeFunction</text>
</a>
</g>
</g>
<!-- Node12&#45;&gt;Node13 -->
<g id="edge12" class="edge">
<title>Node12&#45;&gt;Node13</title>
<path fill="none" stroke="midnightblue" d="M559.32,-380.35C576.24,-372.35 601.36,-361.03 624,-353 630.53,-350.68 637.49,-348.48 644.38,-346.44"/>
<polygon fill="midnightblue" stroke="midnightblue" points="645.72,-349.7 654.37,-343.58 643.8,-342.97 645.72,-349.7"/>
</g>
<!-- Node16 -->
<g id="node16" class="node">
<title>Node16</title>
<g id="a_node16"><a xlink:href="class_calc.html#ae3d88bd40f9bdf2c8ec92c426bdca446" target="_top" xlink:title=" ">
<polygon fill="white" stroke="black" points="630.5,-286.5 630.5,-305.5 757.5,-305.5 757.5,-286.5 630.5,-286.5"/>
<text text-anchor="middle" x="694" y="-293.5" font-family="Helvetica,sans-Serif" font-size="10.00">Calc::_changeOperator</text>
</a>
</g>
</g>
<!-- Node12&#45;&gt;Node16 -->
<g id="edge15" class="edge">
<title>Node12&#45;&gt;Node16</title>
<path fill="none" stroke="midnightblue" d="M547.58,-380.41C561.53,-364.45 591.76,-332.5 624,-315 628.21,-312.71 632.73,-310.68 637.35,-308.89"/>
<polygon fill="midnightblue" stroke="midnightblue" points="638.67,-312.13 646.94,-305.51 636.34,-305.53 638.67,-312.13"/>
</g>
<!-- Node17 -->
<g id="node17" class="node">
<title>Node17</title>
<g id="a_node17"><a xlink:href="class_calc.html#ad95be528148e0d63848d5fa916b93200" target="_top" xlink:title=" ">
<polygon fill="white" stroke="black" points="638.5,-456.5 638.5,-475.5 749.5,-475.5 749.5,-456.5 638.5,-456.5"/>
<text text-anchor="middle" x="694" y="-463.5" font-family="Helvetica,sans-Serif" font-size="10.00">Calc::_changeParen</text>
</a>
</g>
</g>
<!-- Node12&#45;&gt;Node17 -->
<g id="edge16" class="edge">
<title>Node12&#45;&gt;Node17</title>
<path fill="none" stroke="midnightblue" d="M551.08,-399.62C566.71,-412.18 595.87,-434.06 624,-447 629.08,-449.34 634.51,-451.44 640,-453.32"/>
<polygon fill="midnightblue" stroke="midnightblue" points="639.31,-456.77 649.9,-456.46 641.43,-450.1 639.31,-456.77"/>
</g>
<!-- Node18 -->
<g id="node18" class="node">
<title>Node18</title>
<g id="a_node18"><a xlink:href="class_calc.html#ad562619fef96a73cd3b4c27b35bc5f91" target="_top" xlink:title=" ">
<polygon fill="white" stroke="black" points="629,-362.5 629,-381.5 759,-381.5 759,-362.5 629,-362.5"/>
<text text-anchor="middle" x="694" y="-369.5" font-family="Helvetica,sans-Serif" font-size="10.00">Calc::_changeSubScript</text>
</a>
</g>
</g>
<!-- Node12&#45;&gt;Node18 -->
<g id="edge17" class="edge">
<title>Node12&#45;&gt;Node18</title>
<path fill="none" stroke="midnightblue" d="M566.24,-386.86C580.95,-385.14 599.99,-382.91 618.83,-380.7"/>
<polygon fill="midnightblue" stroke="midnightblue" points="619.42,-384.15 628.94,-379.51 618.6,-377.2 619.42,-384.15"/>
</g>
<!-- Node22 -->
<g id="node22" class="node">
<title>Node22</title>
<g id="a_node22"><a xlink:href="class_calc.html#a1aec4748092712e0995c0ae5dabbf54f" target="_top" xlink:title=" ">
<polygon fill="white" stroke="black" points="624,-418.5 624,-437.5 764,-437.5 764,-418.5 624,-418.5"/>
<text text-anchor="middle" x="694" y="-425.5" font-family="Helvetica,sans-Serif" font-size="10.00">Calc::_changeSuperScript</text>
</a>
</g>
</g>
<!-- Node12&#45;&gt;Node22 -->
<g id="edge24" class="edge">
<title>Node12&#45;&gt;Node22</title>
<path fill="none" stroke="midnightblue" d="M566.24,-396.62C587.77,-401.95 618.61,-409.59 644.48,-415.99"/>
<polygon fill="midnightblue" stroke="midnightblue" points="643.94,-419.46 654.49,-418.47 645.62,-412.67 643.94,-419.46"/>
</g>
<!-- Node14 -->
<g id="node14" class="node">
<title>Node14</title>
<g id="a_node14"><a xlink:href="class_calc.html#a7d793eba0a7c9fcbafec4310359f165d" target="_top" xlink:title=" ">
<polygon fill="white" stroke="black" points="802,-324.5 802,-343.5 895,-343.5 895,-324.5 802,-324.5"/>
<text text-anchor="middle" x="848.5" y="-331.5" font-family="Helvetica,sans-Serif" font-size="10.00">Calc::_addArma</text>
</a>
</g>
</g>
<!-- Node13&#45;&gt;Node14 -->
<g id="edge13" class="edge">
<title>Node13&#45;&gt;Node14</title>
<path fill="none" stroke="midnightblue" d="M756.59,-334C768.11,-334 780.09,-334 791.43,-334"/>
<polygon fill="midnightblue" stroke="midnightblue" points="791.63,-337.5 801.63,-334 791.63,-330.5 791.63,-337.5"/>
</g>
<!-- Node15 -->
<g id="node15" class="node">
<title>Node15</title>
<g id="a_node15"><a xlink:href="class_calc.html#af58cd6a2174e577a6246366de03b949e" target="_top" xlink:title=" ">
<polygon fill="white" stroke="black" points="800,-286.5 800,-305.5 897,-305.5 897,-286.5 800,-286.5"/>
<text text-anchor="middle" x="848.5" y="-293.5" font-family="Helvetica,sans-Serif" font-size="10.00">Calc::_addMmce</text>
</a>
</g>
</g>
<!-- Node13&#45;&gt;Node15 -->
<g id="edge14" class="edge">
<title>Node13&#45;&gt;Node15</title>
<path fill="none" stroke="midnightblue" d="M733.48,-324.41C753.52,-319.42 778.2,-313.27 799.48,-307.97"/>
<polygon fill="midnightblue" stroke="midnightblue" points="800.44,-311.33 809.29,-305.52 798.74,-304.54 800.44,-311.33"/>
</g>
<!-- Node18&#45;&gt;Node8 -->
<g id="edge20" class="edge">
<title>Node18&#45;&gt;Node8</title>
<path fill="none" stroke="midnightblue" d="M724.49,-381.57C738.32,-387.45 753.94,-396.34 764,-409 802.1,-456.94 780.18,-484.06 800,-542 811.68,-576.15 828.54,-614.68 838.71,-637.07"/>
<polygon fill="midnightblue" stroke="midnightblue" points="835.65,-638.78 843,-646.4 842.01,-635.86 835.65,-638.78"/>
</g>
<!-- Node18&#45;&gt;Node9 -->
<g id="edge21" class="edge">
<title>Node18&#45;&gt;Node9</title>
<path fill="none" stroke="midnightblue" d="M719.99,-381.57C734.06,-387.84 751.31,-397.09 764,-409 786.12,-429.76 782.14,-442.48 800,-467 809.93,-480.63 822.28,-495.13 831.9,-505.96"/>
<polygon fill="midnightblue" stroke="midnightblue" points="829.35,-508.35 838.64,-513.45 834.55,-503.67 829.35,-508.35"/>
</g>
<!-- Node18&#45;&gt;Node18 -->
<g id="edge18" class="edge">
<title>Node18&#45;&gt;Node18</title>
<path fill="none" stroke="midnightblue" d="M670.26,-381.76C658.72,-390.57 666.63,-400 694,-400 711.96,-400 721.54,-395.94 722.75,-390.65"/>
<polygon fill="midnightblue" stroke="midnightblue" points="725.69,-388.75 717.74,-381.76 719.59,-392.19 725.69,-388.75"/>
</g>
<!-- Node19 -->
<g id="node19" class="node">
<title>Node19</title>
<g id="a_node19"><a xlink:href="class_calc.html#a284818e83b0d85bdd029f3d72d4ef0bd" target="_top" xlink:title=" ">
<polygon fill="white" stroke="black" points="813.5,-362.5 813.5,-381.5 883.5,-381.5 883.5,-362.5 813.5,-362.5"/>
<text text-anchor="middle" x="848.5" y="-369.5" font-family="Helvetica,sans-Serif" font-size="10.00">Calc::_msg</text>
</a>
</g>
</g>
<!-- Node18&#45;&gt;Node19 -->
<g id="edge19" class="edge">
<title>Node18&#45;&gt;Node19</title>
<path fill="none" stroke="midnightblue" d="M759.23,-372C774.02,-372 789.43,-372 803.16,-372"/>
<polygon fill="midnightblue" stroke="midnightblue" points="803.28,-375.5 813.28,-372 803.28,-368.5 803.28,-375.5"/>
</g>
<!-- Node20 -->
<g id="node20" class="node">
<title>Node20</title>
<g id="a_node20"><a xlink:href="utils_8h.html#aa0a3ba0e1cec6f6b77334767af46eef7" target="_top" xlink:title="Check if the string is an unsigned integer.">
<polygon fill="white" stroke="black" points="826,-438.5 826,-457.5 871,-457.5 871,-438.5 826,-438.5"/>
<text text-anchor="middle" x="848.5" y="-445.5" font-family="Helvetica,sans-Serif" font-size="10.00">isUInt</text>
</a>
</g>
</g>
<!-- Node18&#45;&gt;Node20 -->
<g id="edge22" class="edge">
<title>Node18&#45;&gt;Node20</title>
<path fill="none" stroke="midnightblue" d="M712.91,-381.51C726.86,-388.94 746.7,-399.56 764,-409 780.07,-417.77 783.47,-421.14 800,-429 805.21,-431.48 810.84,-433.92 816.34,-436.19"/>
<polygon fill="midnightblue" stroke="midnightblue" points="815.39,-439.58 825.97,-440.05 817.99,-433.08 815.39,-439.58"/>
</g>
<!-- Node21 -->
<g id="node21" class="node">
<title>Node21</title>
<g id="a_node21"><a xlink:href="class_type___track.html#ab510214767b1b4d71e3beadecb814bb7" target="_top" xlink:title=" ">
<polygon fill="white" stroke="black" points="801,-400.5 801,-419.5 896,-419.5 896,-400.5 801,-400.5"/>
<text text-anchor="middle" x="848.5" y="-407.5" font-family="Helvetica,sans-Serif" font-size="10.00">Type_Track::size</text>
</a>
</g>
</g>
<!-- Node18&#45;&gt;Node21 -->
<g id="edge23" class="edge">
<title>Node18&#45;&gt;Node21</title>
<path fill="none" stroke="midnightblue" d="M733.48,-381.59C753.52,-386.58 778.2,-392.73 799.48,-398.03"/>
<polygon fill="midnightblue" stroke="midnightblue" points="798.74,-401.46 809.29,-400.48 800.44,-394.67 798.74,-401.46"/>
</g>
<!-- Node27&#45;&gt;Node12 -->
<g id="edge32" class="edge">
<title>Node27&#45;&gt;Node12</title>
<path fill="none" stroke="midnightblue" d="M411.09,-418.51C438.62,-412.3 474.26,-404.26 500.67,-398.31"/>
<polygon fill="midnightblue" stroke="midnightblue" points="501.68,-401.67 510.66,-396.05 500.14,-394.84 501.68,-401.67"/>
</g>
<!-- Node32 -->
<g id="node32" class="node">
<title>Node32</title>
<g id="a_node32"><a xlink:href="functions_8h.html#ac9dc58cb94b7547813c3a35154d97d18" target="_top" xlink:title=" ">
<polygon fill="white" stroke="black" points="499,-684.5 499,-703.5 578,-703.5 578,-684.5 499,-684.5"/>
<text text-anchor="middle" x="538.5" y="-691.5" font-family="Helvetica,sans-Serif" font-size="10.00">isFuncNoEnd</text>
</a>
</g>
</g>
<!-- Node31&#45;&gt;Node32 -->
<g id="edge37" class="edge">
<title>Node31&#45;&gt;Node32</title>
<path fill="none" stroke="midnightblue" d="M411.09,-694C434.63,-694 464.08,-694 488.64,-694"/>
<polygon fill="midnightblue" stroke="midnightblue" points="488.83,-697.5 498.83,-694 488.83,-690.5 488.83,-697.5"/>
</g>
<!-- Node32&#45;&gt;Node7 -->
<g id="edge38" class="edge">
<title>Node32&#45;&gt;Node7</title>
<path fill="none" stroke="midnightblue" d="M565.68,-703.57C572.98,-706.42 580.87,-709.68 588,-713 616.05,-726.05 647.06,-743.24 668.06,-755.32"/>
<polygon fill="midnightblue" stroke="midnightblue" points="666.55,-758.49 676.95,-760.48 670.06,-752.43 666.55,-758.49"/>
</g>
<!-- Node33&#45;&gt;Node9 -->
<g id="edge40" class="edge">
<title>Node33&#45;&gt;Node9</title>
<path fill="none" stroke="midnightblue" d="M743.67,-510.06C764.66,-512.68 788.86,-515.69 808.62,-518.16"/>
<polygon fill="midnightblue" stroke="midnightblue" points="808.44,-521.66 818.8,-519.42 809.31,-514.71 808.44,-521.66"/>
</g>
<!-- Node35 -->
<g id="node35" class="node">
<title>Node35</title>
<g id="a_node35"><a xlink:href="utils_8h.html#aaaee605fe46abaa420448438d89b22ed" target="_top" xlink:title=" ">
<polygon fill="white" stroke="black" points="508.5,-38.5 508.5,-57.5 568.5,-57.5 568.5,-38.5 508.5,-38.5"/>
<text text-anchor="middle" x="538.5" y="-45.5" font-family="Helvetica,sans-Serif" font-size="10.00">isQuoted</text>
</a>
</g>
</g>
<!-- Node34&#45;&gt;Node35 -->
<g id="edge42" class="edge">
<title>Node34&#45;&gt;Node35</title>
<path fill="none" stroke="midnightblue" d="M409.79,-48C436.7,-48 471.76,-48 498.34,-48"/>
<polygon fill="midnightblue" stroke="midnightblue" points="498.43,-51.5 508.43,-48 498.43,-44.5 498.43,-51.5"/>
</g>
<!-- Node38 -->
<g id="node38" class="node">
<title>Node38</title>
<g id="a_node38"><a xlink:href="class_type.html#a5b8adffb334040c53940ecf814ebcc65" target="_top" xlink:title=" ">
<polygon fill="white" stroke="black" points="491,-836.5 491,-855.5 586,-855.5 586,-836.5 491,-836.5"/>
<text text-anchor="middle" x="538.5" y="-843.5" font-family="Helvetica,sans-Serif" font-size="10.00">Type::_getString</text>
</a>
</g>
</g>
<!-- Node37&#45;&gt;Node38 -->
<g id="edge45" class="edge">
<title>Node37&#45;&gt;Node38</title>
<path fill="none" stroke="midnightblue" d="M404.73,-816.06C428.21,-821.35 459.3,-828.36 485.49,-834.27"/>
<polygon fill="midnightblue" stroke="midnightblue" points="484.74,-837.69 495.27,-836.48 486.28,-830.86 484.74,-837.69"/>
</g>
<!-- Node39 -->
<g id="node39" class="node">
<title>Node39</title>
<g id="a_node39"><a xlink:href="class_type.html#a836b463aa4740a234e0d304ed4cd958f" target="_top" xlink:title=" ">
<polygon fill="white" stroke="black" points="489,-798.5 489,-817.5 588,-817.5 588,-798.5 489,-798.5"/>
<text text-anchor="middle" x="538.5" y="-805.5" font-family="Helvetica,sans-Serif" font-size="10.00">Type::isUnknown</text>
</a>
</g>
</g>
<!-- Node37&#45;&gt;Node39 -->
<g id="edge46" class="edge">
<title>Node37&#45;&gt;Node39</title>
<path fill="none" stroke="midnightblue" d="M404.73,-808C426.12,-808 453.83,-808 478.4,-808"/>
<polygon fill="midnightblue" stroke="midnightblue" points="478.71,-811.5 488.71,-808 478.71,-804.5 478.71,-811.5"/>
</g>
<!-- Node42 -->
<g id="node42" class="node">
<title>Node42</title>
<g id="a_node42"><a xlink:href="utils_8h.html#a47084ee818936eef3c48be492c0e860f" target="_top" xlink:title=" ">
<polygon fill="white" stroke="black" points="518.5,-760.5 518.5,-779.5 558.5,-779.5 558.5,-760.5 518.5,-760.5"/>
<text text-anchor="middle" x="538.5" y="-767.5" font-family="Helvetica,sans-Serif" font-size="10.00">ltrim</text>
</a>
</g>
</g>
<!-- Node41&#45;&gt;Node42 -->
<g id="edge49" class="edge">
<title>Node41&#45;&gt;Node42</title>
<path fill="none" stroke="midnightblue" d="M386.71,-735.99C415.66,-742.52 473.37,-755.54 508.4,-763.44"/>
<polygon fill="midnightblue" stroke="midnightblue" points="507.96,-766.93 518.48,-765.71 509.5,-760.1 507.96,-766.93"/>
</g>
<!-- Node43 -->
<g id="node43" class="node">
<title>Node43</title>
<g id="a_node43"><a xlink:href="utils_8h.html#af6d6bd5c29782e3b958b5f7c0d1ea9e3" target="_top" xlink:title=" ">
<polygon fill="white" stroke="black" points="518,-722.5 518,-741.5 559,-741.5 559,-722.5 518,-722.5"/>
<text text-anchor="middle" x="538.5" y="-729.5" font-family="Helvetica,sans-Serif" font-size="10.00">rtrim</text>
</a>
</g>
</g>
<!-- Node41&#45;&gt;Node43 -->
<g id="edge50" class="edge">
<title>Node41&#45;&gt;Node43</title>
<path fill="none" stroke="midnightblue" d="M386.71,-732C415.51,-732 472.76,-732 507.84,-732"/>
<polygon fill="midnightblue" stroke="midnightblue" points="507.96,-735.5 517.96,-732 507.96,-728.5 507.96,-735.5"/>
</g>
</g>
</svg>
        <g id="navigator" transform="translate(0 0)" fill="#404254">
                <rect fill="#f2f5e9" fill-opacity="0.5" stroke="#606060" stroke-width=".5" x="0" y="0" width="60" height="60"/>
                <use id="zoomplus" xlink:href="#zoomPlus" x="17" y="9" onmousedown="handleZoom(evt,'in')"/>
                <use id="zoomminus" xlink:href="#zoomMin" x="42" y="9" onmousedown="handleZoom(evt,'out')"/>
                <use id="reset" xlink:href="#resetDef" x="30" y="36" onmousedown="handleReset()"/>
                <g id="arrowUp" xlink:href="#dirArrow" transform="translate(30 24)" onmousedown="handlePan(0,-1)">
                  <use xlink:href="#rim" fill="#404040">
                        <set attributeName="fill" to="#808080" begin="arrowUp.mouseover" end="arrowUp.mouseout"/>
                  </use>
                  <path fill="none" stroke="white" stroke-width="1.5" d="M0,-3.0v7 M-2.5,-0.5L0,-3.0L2.5,-0.5"/>
                </g>
                <g id="arrowRight" xlink:href="#dirArrow" transform="rotate(90) translate(36 -43)" onmousedown="handlePan(1,0)">
                  <use xlink:href="#rim" fill="#404040">
                        <set attributeName="fill" to="#808080" begin="arrowRight.mouseover" end="arrowRight.mouseout"/>
                  </use>
                  <path fill="none" stroke="white" stroke-width="1.5" d="M0,-3.0v7 M-2.5,-0.5L0,-3.0L2.5,-0.5"/>
                </g>
                <g id="arrowDown" xlink:href="#dirArrow" transform="rotate(180) translate(-30 -48)" onmousedown="handlePan(0,1)">
                  <use xlink:href="#rim" fill="#404040">
                        <set attributeName="fill" to="#808080" begin="arrowDown.mouseover" end="arrowDown.mouseout"/>
                  </use>
                  <path fill="none" stroke="white" stroke-width="1.5" d="M0,-3.0v7 M-2.5,-0.5L0,-3.0L2.5,-0.5"/>
                </g>
                <g id="arrowLeft" xlink:href="#dirArrow" transform="rotate(270) translate(-36 17)" onmousedown="handlePan(-1,0)">
                  <use xlink:href="#rim" fill="#404040">
                        <set attributeName="fill" to="#808080" begin="arrowLeft.mouseover" end="arrowLeft.mouseout"/>
                  </use>
                  <path fill="none" stroke="white" stroke-width="1.5" d="M0,-3.0v7 M-2.5,-0.5L0,-3.0L2.5,-0.5"/>
                </g>
        </g>
        <svg viewBox="0 0 15 15" width="100%" height="30px" preserveAspectRatio="xMaxYMin meet">
         <g id="arrow_out" transform="scale(0.3 0.3)">
          <a xlink:href="class_export_a59ba705b2369f21006ec7d7b7f3a4513_cgraph_org.svg" target="_base">
           <rect id="button" ry="5" rx="5" y="6" x="6" height="38" width="38"
                fill="#f2f5e9" fill-opacity="0.5" stroke="#606060" stroke-width="1.0"/>
           <path id="arrow"
             d="M 11.500037,31.436501 C 11.940474,20.09759 22.043105,11.32322 32.158766,21.979434 L 37.068811,17.246167 C 37.068811,17.246167 37.088388,32 37.088388,32 L 22.160133,31.978069 C 22.160133,31.978069 26.997745,27.140456 26.997745,27.140456 C 18.528582,18.264221 13.291696,25.230495 11.500037,31.436501 z"
             style="fill:#404040;"/>
          </a>
         </g>
        </svg>
</svg>
