<?xml version="1.0" encoding="UTF-8" standalone="no"?>
<!DOCTYPE svg PUBLIC "-//W3C//DTD SVG 1.1//EN"
 "http://www.w3.org/Graphics/SVG/1.1/DTD/svg11.dtd">
<!-- Generated by graphviz version 2.43.0 (0)
 -->
<!-- Title: Alg::write Pages: 1 -->
<!--zoomable 674 -->
<svg id="main" version="1.1" xmlns="http://www.w3.org/2000/svg" xmlns:xlink="http://www.w3.org/1999/xlink" xml:space="preserve" onload="init(evt)">
<style type="text/css"><![CDATA[
.edge:hover path { stroke: red; }
.edge:hover polygon { stroke: red; fill: red; }
]]></style>
<script type="text/javascript"><![CDATA[
var edges = document.getElementsByTagName('g');
if (edges && edges.length) {
  for (var i=0;i<edges.length;i++) {
    if (edges[i].id.substr(0,4)=='edge') {
      edges[i].setAttribute('class','edge');
    }
  }
}
]]></script>
        <defs>
                <circle id="rim" cx="0" cy="0" r="7"/>
                <circle id="rim2" cx="0" cy="0" r="3.5"/>
                <g id="zoomPlus">
                        <use xlink:href="#rim" fill="#404040">
                                <set attributeName="fill" to="#808080" begin="zoomplus.mouseover" end="zoomplus.mouseout"/>
                        </use>
                        <path d="M-4,0h8M0,-4v8" fill="none" stroke="white" stroke-width="1.5" pointer-events="none"/>
                </g>
                <g id="zoomMin">
                        <use xlink:href="#rim" fill="#404040">
                                <set attributeName="fill" to="#808080" begin="zoomminus.mouseover" end="zoomminus.mouseout"/>
                        </use>
                        <path d="M-4,0h8" fill="none" stroke="white" stroke-width="1.5" pointer-events="none"/>
                </g>
                <g id="dirArrow">
                        <path fill="none" stroke="white" stroke-width="1.5" d="M0,-3.0v7 M-2.5,-0.5L0,-3.0L2.5,-0.5"/>
                </g>
               <g id="resetDef">
                       <use xlink:href="#rim2" fill="#404040">
                               <set attributeName="fill" to="#808080" begin="reset.mouseover" end="reset.mouseout"/>
                       </use>
               </g>
        </defs>

<script type="text/javascript">
var viewWidth = 721;
var viewHeight = 674;
var sectionId = 'dynsection-7';
</script>
<script xlink:href="svgpan.js"/>
<svg id="graph" class="graph">
<g id="viewport">
<title>Alg::write</title>
<polygon fill="white" stroke="transparent" points="-4,4 -4,-670 717,-670 717,4 -4,4"/>
<!-- Node1 -->
<g id="node1" class="node">
<title>Node1</title>
<g id="a_node1"><a xlink:title=" ">
<polygon fill="#bfbfbf" stroke="black" points="0,-323.5 0,-342.5 63,-342.5 63,-323.5 0,-323.5"/>
<text text-anchor="middle" x="31.5" y="-330.5" font-family="Helvetica,sans-Serif" font-size="10.00">Alg::write</text>
</a>
</g>
</g>
<!-- Node1&#45;&gt;Node1 -->
<g id="edge41" class="edge">
<title>Node1&#45;&gt;Node1</title>
<path fill="none" stroke="midnightblue" d="M8.07,-342.76C-3.32,-351.57 4.48,-361 31.5,-361 49.23,-361 58.69,-356.94 59.87,-351.65"/>
<polygon fill="midnightblue" stroke="midnightblue" points="62.84,-349.8 54.93,-342.76 56.73,-353.2 62.84,-349.8"/>
</g>
<!-- Node2 -->
<g id="node2" class="node">
<title>Node2</title>
<g id="a_node2"><a xlink:href="class_alg.html#a2cf2b7f4e37c8e401d9c6dad6687917d" target="_top" xlink:title=" ">
<polygon fill="white" stroke="black" points="134,-646.5 134,-665.5 234,-665.5 234,-646.5 134,-646.5"/>
<text text-anchor="middle" x="184" y="-653.5" font-family="Helvetica,sans-Serif" font-size="10.00">Alg::_wComment</text>
</a>
</g>
</g>
<!-- Node1&#45;&gt;Node2 -->
<g id="edge1" class="edge">
<title>Node1&#45;&gt;Node2</title>
<path fill="none" stroke="midnightblue" d="M33.33,-342.55C37.51,-388.72 57.79,-588.26 99,-632 105.86,-639.29 114.77,-644.41 124.22,-648"/>
<polygon fill="midnightblue" stroke="midnightblue" points="123.19,-651.35 133.78,-651.11 125.35,-644.69 123.19,-651.35"/>
</g>
<!-- Node3 -->
<g id="node3" class="node">
<title>Node3</title>
<g id="a_node3"><a xlink:href="class_calc.html#ad6dbdfdd4bd21322e5836ff72c11ae1b" target="_top" xlink:title="Convert the Alg CALC contents into a language command.">
<polygon fill="white" stroke="black" points="327,-418.5 327,-437.5 382,-437.5 382,-418.5 327,-418.5"/>
<text text-anchor="middle" x="354.5" y="-425.5" font-family="Helvetica,sans-Serif" font-size="10.00">Calc::as</text>
</a>
</g>
</g>
<!-- Node1&#45;&gt;Node3 -->
<g id="edge2" class="edge">
<title>Node1&#45;&gt;Node3</title>
<path fill="none" stroke="midnightblue" d="M44.87,-323.28C57.6,-313.94 78.44,-300.46 99,-295 172.02,-275.61 202.78,-258.62 269,-295 313.4,-319.39 337.78,-378.08 347.87,-408.69"/>
<polygon fill="midnightblue" stroke="midnightblue" points="344.53,-409.74 350.85,-418.24 351.21,-407.66 344.53,-409.74"/>
</g>
<!-- Node12 -->
<g id="node12" class="node">
<title>Node12</title>
<g id="a_node12"><a xlink:href="class_log.html#add7e611cd3267d3fd5dae017e3aeef67" target="_top" xlink:title="Write infomation to the log file.">
<polygon fill="white" stroke="black" points="635,-570.5 635,-589.5 694,-589.5 694,-570.5 635,-570.5"/>
<text text-anchor="middle" x="664.5" y="-577.5" font-family="Helvetica,sans-Serif" font-size="10.00">Log::info</text>
</a>
</g>
</g>
<!-- Node1&#45;&gt;Node12 -->
<g id="edge19" class="edge">
<title>Node1&#45;&gt;Node12</title>
<path fill="none" stroke="midnightblue" d="M33.53,-342.78C38.25,-385.76 59.37,-557.11 99,-590 181.27,-658.28 473.94,-612.44 580,-599 594.84,-597.12 610.9,-593.78 624.95,-590.43"/>
<polygon fill="midnightblue" stroke="midnightblue" points="625.9,-593.8 634.77,-588 624.22,-587 625.9,-593.8"/>
</g>
<!-- Node16 -->
<g id="node16" class="node">
<title>Node16</title>
<g id="a_node16"><a xlink:href="class_type.html#abe15820e780d2f6646792d54f3ae3311" target="_top" xlink:title=" ">
<polygon fill="white" stroke="black" points="152,-532.5 152,-551.5 216,-551.5 216,-532.5 152,-532.5"/>
<text text-anchor="middle" x="184" y="-539.5" font-family="Helvetica,sans-Serif" font-size="10.00">Type::dim</text>
</a>
</g>
</g>
<!-- Node1&#45;&gt;Node16 -->
<g id="edge16" class="edge">
<title>Node1&#45;&gt;Node16</title>
<path fill="none" stroke="midnightblue" d="M32.78,-342.64C34.22,-373.9 43.18,-473.22 99,-523 110.61,-533.35 126.64,-538.43 141.6,-540.81"/>
<polygon fill="midnightblue" stroke="midnightblue" points="141.36,-544.3 151.71,-542.05 142.22,-537.36 141.36,-544.3"/>
</g>
<!-- Node17 -->
<g id="node17" class="node">
<title>Node17</title>
<g id="a_node17"><a xlink:href="class_alg___line.html#af651454e6ddfce164626b68b2c6cba97" target="_top" xlink:title="Get the function name.">
<polygon fill="white" stroke="black" points="141.5,-494.5 141.5,-513.5 226.5,-513.5 226.5,-494.5 141.5,-494.5"/>
<text text-anchor="middle" x="184" y="-501.5" font-family="Helvetica,sans-Serif" font-size="10.00">Alg_Line::func</text>
</a>
</g>
</g>
<!-- Node1&#45;&gt;Node17 -->
<g id="edge17" class="edge">
<title>Node1&#45;&gt;Node17</title>
<path fill="none" stroke="midnightblue" d="M33.71,-342.61C37.63,-369.61 52.59,-446.66 99,-485 108.09,-492.51 119.56,-497.2 131.07,-500.09"/>
<polygon fill="midnightblue" stroke="midnightblue" points="130.64,-503.57 141.14,-502.19 132.07,-496.72 130.64,-503.57"/>
</g>
<!-- Node18 -->
<g id="node18" class="node">
<title>Node18</title>
<g id="a_node18"><a xlink:href="class_alg___line.html#a49a98870a1f09e35a3e15a7d7bab1666" target="_top" xlink:title="Check whether parameters contain the key.">
<polygon fill="white" stroke="black" points="134.5,-456.5 134.5,-475.5 233.5,-475.5 233.5,-456.5 134.5,-456.5"/>
<text text-anchor="middle" x="184" y="-463.5" font-family="Helvetica,sans-Serif" font-size="10.00">Alg_Line::hasKey</text>
</a>
</g>
</g>
<!-- Node1&#45;&gt;Node18 -->
<g id="edge18" class="edge">
<title>Node1&#45;&gt;Node18</title>
<path fill="none" stroke="midnightblue" d="M35.25,-342.75C42.04,-365.02 61.86,-419.77 99,-447 106.53,-452.52 115.38,-456.47 124.46,-459.3"/>
<polygon fill="midnightblue" stroke="midnightblue" points="123.79,-462.75 134.35,-461.95 125.6,-455.98 123.79,-462.75"/>
</g>
<!-- Node19 -->
<g id="node19" class="node">
<title>Node19</title>
<g id="a_node19"><a xlink:href="class_alg.html#a3ee7f9963027158b3fbd442d97800111" target="_top" xlink:title=" ">
<polygon fill="white" stroke="black" points="141,-418.5 141,-437.5 227,-437.5 227,-418.5 141,-418.5"/>
<text text-anchor="middle" x="184" y="-425.5" font-family="Helvetica,sans-Serif" font-size="10.00">Alg::inlineCalc</text>
</a>
</g>
</g>
<!-- Node1&#45;&gt;Node19 -->
<g id="edge20" class="edge">
<title>Node1&#45;&gt;Node19</title>
<path fill="none" stroke="midnightblue" d="M38.09,-342.67C48.09,-359.05 70.68,-392.13 99,-409 108.64,-414.74 119.84,-418.75 130.87,-421.55"/>
<polygon fill="midnightblue" stroke="midnightblue" points="130.37,-425.02 140.89,-423.79 131.9,-418.19 130.37,-425.02"/>
</g>
<!-- Node20 -->
<g id="node20" class="node">
<title>Node20</title>
<g id="a_node20"><a xlink:href="class_alg___line.html#ad419191a99be7e34024e569ad833b04e" target="_top" xlink:title="Check whether the line is for function declaration.">
<polygon fill="white" stroke="black" points="99,-380.5 99,-399.5 269,-399.5 269,-380.5 99,-380.5"/>
<text text-anchor="middle" x="184" y="-387.5" font-family="Helvetica,sans-Serif" font-size="10.00">Alg_Line::isFunctionDeclaration</text>
</a>
</g>
</g>
<!-- Node1&#45;&gt;Node20 -->
<g id="edge22" class="edge">
<title>Node1&#45;&gt;Node20</title>
<path fill="none" stroke="midnightblue" d="M46.42,-342.59C59.46,-351.18 79.79,-363.53 99,-371 105.71,-373.61 112.86,-375.91 120.06,-377.92"/>
<polygon fill="midnightblue" stroke="midnightblue" points="119.29,-381.34 129.86,-380.49 121.07,-374.57 119.29,-381.34"/>
</g>
<!-- Node21 -->
<g id="node21" class="node">
<title>Node21</title>
<g id="a_node21"><a xlink:href="class_alg.html#af935e64a6eb4afa4ca1540f4da3dcc9c" target="_top" xlink:title=" ">
<polygon fill="white" stroke="black" points="156,-342.5 156,-361.5 212,-361.5 212,-342.5 156,-342.5"/>
<text text-anchor="middle" x="184" y="-349.5" font-family="Helvetica,sans-Serif" font-size="10.00">Alg::line</text>
</a>
</g>
</g>
<!-- Node1&#45;&gt;Node21 -->
<g id="edge23" class="edge">
<title>Node1&#45;&gt;Node21</title>
<path fill="none" stroke="midnightblue" d="M63.32,-336.89C87.2,-339.91 120.39,-344.1 145.76,-347.3"/>
<polygon fill="midnightblue" stroke="midnightblue" points="145.4,-350.78 155.76,-348.56 146.28,-343.84 145.4,-350.78"/>
</g>
<!-- Node22 -->
<g id="node22" class="node">
<title>Node22</title>
<g id="a_node22"><a xlink:href="class_alg___line.html#a4e79eb77a1cddbdab1dbdde8a499342d" target="_top" xlink:title="Parameter variables.">
<polygon fill="white" stroke="black" points="133.5,-304.5 133.5,-323.5 234.5,-323.5 234.5,-304.5 133.5,-304.5"/>
<text text-anchor="middle" x="184" y="-311.5" font-family="Helvetica,sans-Serif" font-size="10.00">Alg_Line::params</text>
</a>
</g>
</g>
<!-- Node1&#45;&gt;Node22 -->
<g id="edge24" class="edge">
<title>Node1&#45;&gt;Node22</title>
<path fill="none" stroke="midnightblue" d="M63.32,-329.11C80.61,-326.93 102.78,-324.13 123.33,-321.53"/>
<polygon fill="midnightblue" stroke="midnightblue" points="123.78,-325 133.26,-320.28 122.9,-318.06 123.78,-325"/>
</g>
<!-- Node23 -->
<g id="node23" class="node">
<title>Node23</title>
<g id="a_node23"><a xlink:href="class_alg___line.html#a801b08c6c164376039a4ba4e980d039e" target="_top" xlink:title="Print Alg_Line contents (including return values, function names and parameters).">
<polygon fill="white" stroke="black" points="141,-228.5 141,-247.5 227,-247.5 227,-228.5 141,-228.5"/>
<text text-anchor="middle" x="184" y="-235.5" font-family="Helvetica,sans-Serif" font-size="10.00">Alg_Line::print</text>
</a>
</g>
</g>
<!-- Node1&#45;&gt;Node23 -->
<g id="edge25" class="edge">
<title>Node1&#45;&gt;Node23</title>
<path fill="none" stroke="midnightblue" d="M39.03,-323.15C49.73,-307.79 72.48,-278.2 99,-262 108.61,-256.13 119.72,-251.65 130.64,-248.24"/>
<polygon fill="midnightblue" stroke="midnightblue" points="131.92,-251.51 140.57,-245.4 129.99,-244.78 131.92,-251.51"/>
</g>
<!-- Node26 -->
<g id="node26" class="node">
<title>Node26</title>
<g id="a_node26"><a xlink:href="class_type___track.html#a4548ba1c289fba60e88b0e725509219e" target="_top" xlink:title=" ">
<polygon fill="white" stroke="black" points="460.5,-570.5 460.5,-589.5 559.5,-589.5 559.5,-570.5 460.5,-570.5"/>
<text text-anchor="middle" x="510" y="-577.5" font-family="Helvetica,sans-Serif" font-size="10.00">Type_Track::push</text>
</a>
</g>
</g>
<!-- Node1&#45;&gt;Node26 -->
<g id="edge28" class="edge">
<title>Node1&#45;&gt;Node26</title>
<path fill="none" stroke="midnightblue" d="M33.84,-342.77C39.54,-382.7 63.11,-532.76 99,-561 151.87,-602.6 349.79,-593.17 450.03,-585.36"/>
<polygon fill="midnightblue" stroke="midnightblue" points="450.61,-588.82 460.3,-584.53 450.05,-581.84 450.61,-588.82"/>
</g>
<!-- Node27 -->
<g id="node27" class="node">
<title>Node27</title>
<g id="a_node27"><a xlink:href="utils_8h.html#a0465457013518e168df05799c93cfa6e" target="_top" xlink:title=" ">
<polygon fill="white" stroke="black" points="142.5,-190.5 142.5,-209.5 225.5,-209.5 225.5,-190.5 142.5,-190.5"/>
<text text-anchor="middle" x="184" y="-197.5" font-family="Helvetica,sans-Serif" font-size="10.00">removeQuote</text>
</a>
</g>
</g>
<!-- Node1&#45;&gt;Node27 -->
<g id="edge30" class="edge">
<title>Node1&#45;&gt;Node27</title>
<path fill="none" stroke="midnightblue" d="M35.25,-323.25C42.04,-300.98 61.86,-246.23 99,-219 108.7,-211.89 120.61,-207.37 132.37,-204.52"/>
<polygon fill="midnightblue" stroke="midnightblue" points="133.08,-207.94 142.16,-202.49 131.66,-201.09 133.08,-207.94"/>
</g>
<!-- Node29 -->
<g id="node29" class="node">
<title>Node29</title>
<g id="a_node29"><a xlink:href="class_alg___line.html#a8e21f6b69eaf80a2327f7308fb4299e0" target="_top" xlink:title="Return variables.">
<polygon fill="white" stroke="black" points="135,-152.5 135,-171.5 233,-171.5 233,-152.5 135,-152.5"/>
<text text-anchor="middle" x="184" y="-159.5" font-family="Helvetica,sans-Serif" font-size="10.00">Alg_Line::returns</text>
</a>
</g>
</g>
<!-- Node1&#45;&gt;Node29 -->
<g id="edge32" class="edge">
<title>Node1&#45;&gt;Node29</title>
<path fill="none" stroke="midnightblue" d="M33.71,-323.39C37.63,-296.39 52.59,-219.34 99,-181 106.44,-174.85 115.48,-170.6 124.82,-167.67"/>
<polygon fill="midnightblue" stroke="midnightblue" points="125.85,-171.02 134.62,-165.08 124.06,-164.25 125.85,-171.02"/>
</g>
<!-- Node30 -->
<g id="node30" class="node">
<title>Node30</title>
<g id="a_node30"><a xlink:href="class_type.html#a0153b8ff39040caf3ff2a6f7c7329d7c" target="_top" xlink:title="Get the C++ type name.">
<polygon fill="white" stroke="black" points="147.5,-114.5 147.5,-133.5 220.5,-133.5 220.5,-114.5 147.5,-114.5"/>
<text text-anchor="middle" x="184" y="-121.5" font-family="Helvetica,sans-Serif" font-size="10.00">Type::string</text>
</a>
</g>
</g>
<!-- Node1&#45;&gt;Node30 -->
<g id="edge33" class="edge">
<title>Node1&#45;&gt;Node30</title>
<path fill="none" stroke="midnightblue" d="M32.78,-323.36C34.22,-292.1 43.18,-192.78 99,-143 109.4,-133.72 123.37,-128.68 136.93,-126.02"/>
<polygon fill="midnightblue" stroke="midnightblue" points="137.81,-129.43 147.15,-124.42 136.73,-122.51 137.81,-129.43"/>
</g>
<!-- Node33 -->
<g id="node33" class="node">
<title>Node33</title>
<g id="a_node33"><a xlink:href="namespacemmce.html#ad4a160832ef9fad47c531ece39752208" target="_top" xlink:title="Change a number to string.">
<polygon fill="white" stroke="black" points="136,-76.5 136,-95.5 232,-95.5 232,-76.5 136,-76.5"/>
<text text-anchor="middle" x="184" y="-83.5" font-family="Helvetica,sans-Serif" font-size="10.00">mmce::to_string</text>
</a>
</g>
</g>
<!-- Node1&#45;&gt;Node33 -->
<g id="edge36" class="edge">
<title>Node1&#45;&gt;Node33</title>
<path fill="none" stroke="midnightblue" d="M32.13,-323.49C31.34,-288.62 33.52,-166.58 99,-105 106.43,-98.01 115.87,-93.4 125.72,-90.39"/>
<polygon fill="midnightblue" stroke="midnightblue" points="126.81,-93.72 135.65,-87.89 125.1,-86.94 126.81,-93.72"/>
</g>
<!-- Node34 -->
<g id="node34" class="node">
<title>Node34</title>
<g id="a_node34"><a xlink:href="utils_8h.html#a6ef734356291c638e5787a6c668192d4" target="_top" xlink:title=" ">
<polygon fill="white" stroke="black" points="165.5,-38.5 165.5,-57.5 202.5,-57.5 202.5,-38.5 165.5,-38.5"/>
<text text-anchor="middle" x="184" y="-45.5" font-family="Helvetica,sans-Serif" font-size="10.00">trim</text>
</a>
</g>
</g>
<!-- Node1&#45;&gt;Node34 -->
<g id="edge37" class="edge">
<title>Node1&#45;&gt;Node34</title>
<path fill="none" stroke="midnightblue" d="M33.57,-323.32C38.56,-279.97 60.88,-104.27 99,-67 113.75,-52.58 136.99,-48.19 155.29,-47.2"/>
<polygon fill="midnightblue" stroke="midnightblue" points="155.48,-50.69 165.39,-46.96 155.31,-43.69 155.48,-50.69"/>
</g>
<!-- Node37 -->
<g id="node37" class="node">
<title>Node37</title>
<g id="a_node37"><a xlink:href="class_log.html#a3410828f35c9bf8dd0771ead28de27b0" target="_top" xlink:title="Write contents to the log file.">
<polygon fill="white" stroke="black" points="151.5,-0.5 151.5,-19.5 216.5,-19.5 216.5,-0.5 151.5,-0.5"/>
<text text-anchor="middle" x="184" y="-7.5" font-family="Helvetica,sans-Serif" font-size="10.00">Log::write</text>
</a>
</g>
</g>
<!-- Node1&#45;&gt;Node37 -->
<g id="edge40" class="edge">
<title>Node1&#45;&gt;Node37</title>
<path fill="none" stroke="midnightblue" d="M33.25,-323.24C37.09,-276.08 55.99,-72.32 99,-29 109.96,-17.97 125.87,-12.76 140.91,-10.47"/>
<polygon fill="midnightblue" stroke="midnightblue" points="141.57,-13.92 151.11,-9.31 140.78,-6.96 141.57,-13.92"/>
</g>
<!-- Node4 -->
<g id="node4" class="node">
<title>Node4</title>
<g id="a_node4"><a xlink:href="class_calc.html#af1d1bd5e83f9e5196627f5a4e1a5ee83" target="_top" xlink:title=" ">
<polygon fill="white" stroke="black" points="447.5,-352.5 447.5,-371.5 572.5,-371.5 572.5,-352.5 447.5,-352.5"/>
<text text-anchor="middle" x="510" y="-359.5" font-family="Helvetica,sans-Serif" font-size="10.00">Calc::_changeFunction</text>
</a>
</g>
</g>
<!-- Node3&#45;&gt;Node4 -->
<g id="edge3" class="edge">
<title>Node3&#45;&gt;Node4</title>
<path fill="none" stroke="midnightblue" d="M370.22,-418.38C386.67,-407.98 414.36,-391.48 440,-381 445.81,-378.62 452.02,-376.45 458.23,-374.48"/>
<polygon fill="midnightblue" stroke="midnightblue" points="459.39,-377.79 467.96,-371.57 457.38,-371.08 459.39,-377.79"/>
</g>
<!-- Node7 -->
<g id="node7" class="node">
<title>Node7</title>
<g id="a_node7"><a xlink:href="class_calc.html#ae3d88bd40f9bdf2c8ec92c426bdca446" target="_top" xlink:title=" ">
<polygon fill="white" stroke="black" points="446.5,-428.5 446.5,-447.5 573.5,-447.5 573.5,-428.5 446.5,-428.5"/>
<text text-anchor="middle" x="510" y="-435.5" font-family="Helvetica,sans-Serif" font-size="10.00">Calc::_changeOperator</text>
</a>
</g>
</g>
<!-- Node3&#45;&gt;Node7 -->
<g id="edge6" class="edge">
<title>Node3&#45;&gt;Node7</title>
<path fill="none" stroke="midnightblue" d="M382.24,-429.74C397.31,-430.72 416.93,-432 436.22,-433.26"/>
<polygon fill="midnightblue" stroke="midnightblue" points="436.04,-436.75 446.25,-433.91 436.5,-429.77 436.04,-436.75"/>
</g>
<!-- Node8 -->
<g id="node8" class="node">
<title>Node8</title>
<g id="a_node8"><a xlink:href="class_calc.html#ad95be528148e0d63848d5fa916b93200" target="_top" xlink:title=" ">
<polygon fill="white" stroke="black" points="454.5,-390.5 454.5,-409.5 565.5,-409.5 565.5,-390.5 454.5,-390.5"/>
<text text-anchor="middle" x="510" y="-397.5" font-family="Helvetica,sans-Serif" font-size="10.00">Calc::_changeParen</text>
</a>
</g>
</g>
<!-- Node3&#45;&gt;Node8 -->
<g id="edge7" class="edge">
<title>Node3&#45;&gt;Node8</title>
<path fill="none" stroke="midnightblue" d="M382.24,-423.12C400.12,-419.86 424.42,-415.43 446.96,-411.32"/>
<polygon fill="midnightblue" stroke="midnightblue" points="447.61,-414.76 456.82,-409.52 446.36,-407.87 447.61,-414.76"/>
</g>
<!-- Node9 -->
<g id="node9" class="node">
<title>Node9</title>
<g id="a_node9"><a xlink:href="class_calc.html#ad562619fef96a73cd3b4c27b35bc5f91" target="_top" xlink:title=" ">
<polygon fill="white" stroke="black" points="445,-466.5 445,-485.5 575,-485.5 575,-466.5 445,-466.5"/>
<text text-anchor="middle" x="510" y="-473.5" font-family="Helvetica,sans-Serif" font-size="10.00">Calc::_changeSubScript</text>
</a>
</g>
</g>
<!-- Node3&#45;&gt;Node9 -->
<g id="edge8" class="edge">
<title>Node3&#45;&gt;Node9</title>
<path fill="none" stroke="midnightblue" d="M382,-437.57C398.58,-443.44 420.44,-450.96 440,-457 447.35,-459.27 455.17,-461.55 462.82,-463.71"/>
<polygon fill="midnightblue" stroke="midnightblue" points="462.14,-467.15 472.71,-466.46 464.01,-460.41 462.14,-467.15"/>
</g>
<!-- Node15 -->
<g id="node15" class="node">
<title>Node15</title>
<g id="a_node15"><a xlink:href="class_calc.html#a1aec4748092712e0995c0ae5dabbf54f" target="_top" xlink:title=" ">
<polygon fill="white" stroke="black" points="440,-522.5 440,-541.5 580,-541.5 580,-522.5 440,-522.5"/>
<text text-anchor="middle" x="510" y="-529.5" font-family="Helvetica,sans-Serif" font-size="10.00">Calc::_changeSuperScript</text>
</a>
</g>
</g>
<!-- Node3&#45;&gt;Node15 -->
<g id="edge15" class="edge">
<title>Node3&#45;&gt;Node15</title>
<path fill="none" stroke="midnightblue" d="M362.23,-437.5C375.22,-455.11 405.5,-492.85 440,-513 443.85,-515.25 447.97,-517.24 452.21,-519"/>
<polygon fill="midnightblue" stroke="midnightblue" points="451.05,-522.3 461.64,-522.5 453.49,-515.73 451.05,-522.3"/>
</g>
<!-- Node5 -->
<g id="node5" class="node">
<title>Node5</title>
<g id="a_node5"><a xlink:href="class_calc.html#a7d793eba0a7c9fcbafec4310359f165d" target="_top" xlink:title=" ">
<polygon fill="white" stroke="black" points="618,-362.5 618,-381.5 711,-381.5 711,-362.5 618,-362.5"/>
<text text-anchor="middle" x="664.5" y="-369.5" font-family="Helvetica,sans-Serif" font-size="10.00">Calc::_addArma</text>
</a>
</g>
</g>
<!-- Node4&#45;&gt;Node5 -->
<g id="edge4" class="edge">
<title>Node4&#45;&gt;Node5</title>
<path fill="none" stroke="midnightblue" d="M572.59,-366.04C584.11,-366.79 596.09,-367.58 607.43,-368.32"/>
<polygon fill="midnightblue" stroke="midnightblue" points="607.43,-371.83 617.63,-368.99 607.88,-364.85 607.43,-371.83"/>
</g>
<!-- Node6 -->
<g id="node6" class="node">
<title>Node6</title>
<g id="a_node6"><a xlink:href="class_calc.html#af58cd6a2174e577a6246366de03b949e" target="_top" xlink:title=" ">
<polygon fill="white" stroke="black" points="616,-324.5 616,-343.5 713,-343.5 713,-324.5 616,-324.5"/>
<text text-anchor="middle" x="664.5" y="-331.5" font-family="Helvetica,sans-Serif" font-size="10.00">Calc::_addMmce</text>
</a>
</g>
</g>
<!-- Node4&#45;&gt;Node6 -->
<g id="edge5" class="edge">
<title>Node4&#45;&gt;Node6</title>
<path fill="none" stroke="midnightblue" d="M563.06,-352.44C576.8,-349.92 591.72,-347.18 605.75,-344.6"/>
<polygon fill="midnightblue" stroke="midnightblue" points="606.58,-348.01 615.78,-342.76 605.31,-341.13 606.58,-348.01"/>
</g>
<!-- Node9&#45;&gt;Node9 -->
<g id="edge9" class="edge">
<title>Node9&#45;&gt;Node9</title>
<path fill="none" stroke="midnightblue" d="M486.26,-485.76C474.72,-494.57 482.63,-504 510,-504 527.96,-504 537.54,-499.94 538.75,-494.65"/>
<polygon fill="midnightblue" stroke="midnightblue" points="541.69,-492.75 533.74,-485.76 535.59,-496.19 541.69,-492.75"/>
</g>
<!-- Node10 -->
<g id="node10" class="node">
<title>Node10</title>
<g id="a_node10"><a xlink:href="class_calc.html#a284818e83b0d85bdd029f3d72d4ef0bd" target="_top" xlink:title=" ">
<polygon fill="white" stroke="black" points="629.5,-485.5 629.5,-504.5 699.5,-504.5 699.5,-485.5 629.5,-485.5"/>
<text text-anchor="middle" x="664.5" y="-492.5" font-family="Helvetica,sans-Serif" font-size="10.00">Calc::_msg</text>
</a>
</g>
</g>
<!-- Node9&#45;&gt;Node10 -->
<g id="edge10" class="edge">
<title>Node9&#45;&gt;Node10</title>
<path fill="none" stroke="midnightblue" d="M575.23,-484C590.02,-485.85 605.43,-487.76 619.16,-489.48"/>
<polygon fill="midnightblue" stroke="midnightblue" points="618.93,-492.97 629.28,-490.74 619.79,-486.03 618.93,-492.97"/>
</g>
<!-- Node11 -->
<g id="node11" class="node">
<title>Node11</title>
<g id="a_node11"><a xlink:href="class_log.html#ac7147942832455398ad289b706a02616" target="_top" xlink:title="Write error message to the log file.">
<polygon fill="white" stroke="black" points="638,-447.5 638,-466.5 691,-466.5 691,-447.5 638,-447.5"/>
<text text-anchor="middle" x="664.5" y="-454.5" font-family="Helvetica,sans-Serif" font-size="10.00">Log::err</text>
</a>
</g>
</g>
<!-- Node9&#45;&gt;Node11 -->
<g id="edge11" class="edge">
<title>Node9&#45;&gt;Node11</title>
<path fill="none" stroke="midnightblue" d="M575.23,-468C593.09,-465.77 611.85,-463.44 627.46,-461.49"/>
<polygon fill="midnightblue" stroke="midnightblue" points="628.22,-464.92 637.71,-460.21 627.36,-457.98 628.22,-464.92"/>
</g>
<!-- Node9&#45;&gt;Node12 -->
<g id="edge12" class="edge">
<title>Node9&#45;&gt;Node12</title>
<path fill="none" stroke="midnightblue" d="M533.26,-485.6C547.37,-492.24 565.6,-501.85 580,-513 598.65,-527.44 597.64,-537.19 616,-552 621.94,-556.79 628.79,-561.32 635.41,-565.28"/>
<polygon fill="midnightblue" stroke="midnightblue" points="633.76,-568.37 644.17,-570.29 637.23,-562.29 633.76,-568.37"/>
</g>
<!-- Node13 -->
<g id="node13" class="node">
<title>Node13</title>
<g id="a_node13"><a xlink:href="utils_8h.html#aa0a3ba0e1cec6f6b77334767af46eef7" target="_top" xlink:title="Check if the string is an unsigned integer.">
<polygon fill="white" stroke="black" points="642,-409.5 642,-428.5 687,-428.5 687,-409.5 642,-409.5"/>
<text text-anchor="middle" x="664.5" y="-416.5" font-family="Helvetica,sans-Serif" font-size="10.00">isUInt</text>
</a>
</g>
</g>
<!-- Node9&#45;&gt;Node13 -->
<g id="edge13" class="edge">
<title>Node9&#45;&gt;Node13</title>
<path fill="none" stroke="midnightblue" d="M551.26,-466.5C560.81,-463.81 570.87,-460.61 580,-457 596.82,-450.34 599.58,-445.59 616,-438 621.14,-435.62 626.66,-433.25 632.07,-431.03"/>
<polygon fill="midnightblue" stroke="midnightblue" points="633.56,-434.2 641.54,-427.23 630.96,-427.71 633.56,-434.2"/>
</g>
<!-- Node14 -->
<g id="node14" class="node">
<title>Node14</title>
<g id="a_node14"><a xlink:href="class_type___track.html#ab510214767b1b4d71e3beadecb814bb7" target="_top" xlink:title=" ">
<polygon fill="white" stroke="black" points="617,-523.5 617,-542.5 712,-542.5 712,-523.5 617,-523.5"/>
<text text-anchor="middle" x="664.5" y="-530.5" font-family="Helvetica,sans-Serif" font-size="10.00">Type_Track::size</text>
</a>
</g>
</g>
<!-- Node9&#45;&gt;Node14 -->
<g id="edge14" class="edge">
<title>Node9&#45;&gt;Node14</title>
<path fill="none" stroke="midnightblue" d="M536.53,-485.54C561.71,-494.95 600.4,-509.41 628.45,-519.9"/>
<polygon fill="midnightblue" stroke="midnightblue" points="627.3,-523.21 637.89,-523.43 629.75,-516.65 627.3,-523.21"/>
</g>
<!-- Node19&#45;&gt;Node3 -->
<g id="edge21" class="edge">
<title>Node19&#45;&gt;Node3</title>
<path fill="none" stroke="midnightblue" d="M227.09,-428C254.5,-428 289.94,-428 316.32,-428"/>
<polygon fill="midnightblue" stroke="midnightblue" points="316.66,-431.5 326.66,-428 316.66,-424.5 316.66,-431.5"/>
</g>
<!-- Node24 -->
<g id="node24" class="node">
<title>Node24</title>
<g id="a_node24"><a xlink:href="functions_8h.html#ac9dc58cb94b7547813c3a35154d97d18" target="_top" xlink:title=" ">
<polygon fill="white" stroke="black" points="315,-228.5 315,-247.5 394,-247.5 394,-228.5 315,-228.5"/>
<text text-anchor="middle" x="354.5" y="-235.5" font-family="Helvetica,sans-Serif" font-size="10.00">isFuncNoEnd</text>
</a>
</g>
</g>
<!-- Node23&#45;&gt;Node24 -->
<g id="edge26" class="edge">
<title>Node23&#45;&gt;Node24</title>
<path fill="none" stroke="midnightblue" d="M227.09,-238C250.63,-238 280.08,-238 304.64,-238"/>
<polygon fill="midnightblue" stroke="midnightblue" points="304.83,-241.5 314.83,-238 304.83,-234.5 304.83,-241.5"/>
</g>
<!-- Node25 -->
<g id="node25" class="node">
<title>Node25</title>
<g id="a_node25"><a xlink:href="utils_8h.html#af11c7cca5b9ad860da4bdb556dce3234" target="_top" xlink:title=" ">
<polygon fill="white" stroke="black" points="481,-228.5 481,-247.5 539,-247.5 539,-228.5 481,-228.5"/>
<text text-anchor="middle" x="510" y="-235.5" font-family="Helvetica,sans-Serif" font-size="10.00">contains</text>
</a>
</g>
</g>
<!-- Node24&#45;&gt;Node25 -->
<g id="edge27" class="edge">
<title>Node24&#45;&gt;Node25</title>
<path fill="none" stroke="midnightblue" d="M394.23,-238C417.65,-238 447.38,-238 470.71,-238"/>
<polygon fill="midnightblue" stroke="midnightblue" points="470.94,-241.5 480.94,-238 470.93,-234.5 470.94,-241.5"/>
</g>
<!-- Node26&#45;&gt;Node12 -->
<g id="edge29" class="edge">
<title>Node26&#45;&gt;Node12</title>
<path fill="none" stroke="midnightblue" d="M559.67,-580C580.66,-580 604.86,-580 624.62,-580"/>
<polygon fill="midnightblue" stroke="midnightblue" points="624.8,-583.5 634.8,-580 624.8,-576.5 624.8,-583.5"/>
</g>
<!-- Node28 -->
<g id="node28" class="node">
<title>Node28</title>
<g id="a_node28"><a xlink:href="utils_8h.html#aaaee605fe46abaa420448438d89b22ed" target="_top" xlink:title=" ">
<polygon fill="white" stroke="black" points="324.5,-190.5 324.5,-209.5 384.5,-209.5 384.5,-190.5 324.5,-190.5"/>
<text text-anchor="middle" x="354.5" y="-197.5" font-family="Helvetica,sans-Serif" font-size="10.00">isQuoted</text>
</a>
</g>
</g>
<!-- Node27&#45;&gt;Node28 -->
<g id="edge31" class="edge">
<title>Node27&#45;&gt;Node28</title>
<path fill="none" stroke="midnightblue" d="M225.79,-200C252.7,-200 287.76,-200 314.34,-200"/>
<polygon fill="midnightblue" stroke="midnightblue" points="314.43,-203.5 324.43,-200 314.43,-196.5 314.43,-203.5"/>
</g>
<!-- Node31 -->
<g id="node31" class="node">
<title>Node31</title>
<g id="a_node31"><a xlink:href="class_type.html#a5b8adffb334040c53940ecf814ebcc65" target="_top" xlink:title=" ">
<polygon fill="white" stroke="black" points="307,-114.5 307,-133.5 402,-133.5 402,-114.5 307,-114.5"/>
<text text-anchor="middle" x="354.5" y="-121.5" font-family="Helvetica,sans-Serif" font-size="10.00">Type::_getString</text>
</a>
</g>
</g>
<!-- Node30&#45;&gt;Node31 -->
<g id="edge34" class="edge">
<title>Node30&#45;&gt;Node31</title>
<path fill="none" stroke="midnightblue" d="M220.73,-124C242.81,-124 271.63,-124 296.77,-124"/>
<polygon fill="midnightblue" stroke="midnightblue" points="296.93,-127.5 306.93,-124 296.93,-120.5 296.93,-127.5"/>
</g>
<!-- Node32 -->
<g id="node32" class="node">
<title>Node32</title>
<g id="a_node32"><a xlink:href="class_type.html#a836b463aa4740a234e0d304ed4cd958f" target="_top" xlink:title=" ">
<polygon fill="white" stroke="black" points="305,-152.5 305,-171.5 404,-171.5 404,-152.5 305,-152.5"/>
<text text-anchor="middle" x="354.5" y="-159.5" font-family="Helvetica,sans-Serif" font-size="10.00">Type::isUnknown</text>
</a>
</g>
</g>
<!-- Node30&#45;&gt;Node32 -->
<g id="edge35" class="edge">
<title>Node30&#45;&gt;Node32</title>
<path fill="none" stroke="midnightblue" d="M220.73,-132.06C244.21,-137.35 275.3,-144.36 301.49,-150.27"/>
<polygon fill="midnightblue" stroke="midnightblue" points="300.74,-153.69 311.27,-152.48 302.28,-146.86 300.74,-153.69"/>
</g>
<!-- Node35 -->
<g id="node35" class="node">
<title>Node35</title>
<g id="a_node35"><a xlink:href="utils_8h.html#a47084ee818936eef3c48be492c0e860f" target="_top" xlink:title=" ">
<polygon fill="white" stroke="black" points="334.5,-19.5 334.5,-38.5 374.5,-38.5 374.5,-19.5 334.5,-19.5"/>
<text text-anchor="middle" x="354.5" y="-26.5" font-family="Helvetica,sans-Serif" font-size="10.00">ltrim</text>
</a>
</g>
</g>
<!-- Node34&#45;&gt;Node35 -->
<g id="edge38" class="edge">
<title>Node34&#45;&gt;Node35</title>
<path fill="none" stroke="midnightblue" d="M202.71,-46C231.66,-42.74 289.37,-36.23 324.4,-32.28"/>
<polygon fill="midnightblue" stroke="midnightblue" points="324.94,-35.74 334.48,-31.14 324.16,-28.79 324.94,-35.74"/>
</g>
<!-- Node36 -->
<g id="node36" class="node">
<title>Node36</title>
<g id="a_node36"><a xlink:href="utils_8h.html#af6d6bd5c29782e3b958b5f7c0d1ea9e3" target="_top" xlink:title=" ">
<polygon fill="white" stroke="black" points="334,-57.5 334,-76.5 375,-76.5 375,-57.5 334,-57.5"/>
<text text-anchor="middle" x="354.5" y="-64.5" font-family="Helvetica,sans-Serif" font-size="10.00">rtrim</text>
</a>
</g>
</g>
<!-- Node34&#45;&gt;Node36 -->
<g id="edge39" class="edge">
<title>Node34&#45;&gt;Node36</title>
<path fill="none" stroke="midnightblue" d="M202.71,-50C231.51,-53.24 288.76,-59.7 323.84,-63.66"/>
<polygon fill="midnightblue" stroke="midnightblue" points="323.63,-67.15 333.96,-64.8 324.42,-60.2 323.63,-67.15"/>
</g>
</g>
</svg>
        <g id="navigator" transform="translate(0 0)" fill="#404254">
                <rect fill="#f2f5e9" fill-opacity="0.5" stroke="#606060" stroke-width=".5" x="0" y="0" width="60" height="60"/>
                <use id="zoomplus" xlink:href="#zoomPlus" x="17" y="9" onmousedown="handleZoom(evt,'in')"/>
                <use id="zoomminus" xlink:href="#zoomMin" x="42" y="9" onmousedown="handleZoom(evt,'out')"/>
                <use id="reset" xlink:href="#resetDef" x="30" y="36" onmousedown="handleReset()"/>
                <g id="arrowUp" xlink:href="#dirArrow" transform="translate(30 24)" onmousedown="handlePan(0,-1)">
                  <use xlink:href="#rim" fill="#404040">
                        <set attributeName="fill" to="#808080" begin="arrowUp.mouseover" end="arrowUp.mouseout"/>
                  </use>
                  <path fill="none" stroke="white" stroke-width="1.5" d="M0,-3.0v7 M-2.5,-0.5L0,-3.0L2.5,-0.5"/>
                </g>
                <g id="arrowRight" xlink:href="#dirArrow" transform="rotate(90) translate(36 -43)" onmousedown="handlePan(1,0)">
                  <use xlink:href="#rim" fill="#404040">
                        <set attributeName="fill" to="#808080" begin="arrowRight.mouseover" end="arrowRight.mouseout"/>
                  </use>
                  <path fill="none" stroke="white" stroke-width="1.5" d="M0,-3.0v7 M-2.5,-0.5L0,-3.0L2.5,-0.5"/>
                </g>
                <g id="arrowDown" xlink:href="#dirArrow" transform="rotate(180) translate(-30 -48)" onmousedown="handlePan(0,1)">
                  <use xlink:href="#rim" fill="#404040">
                        <set attributeName="fill" to="#808080" begin="arrowDown.mouseover" end="arrowDown.mouseout"/>
                  </use>
                  <path fill="none" stroke="white" stroke-width="1.5" d="M0,-3.0v7 M-2.5,-0.5L0,-3.0L2.5,-0.5"/>
                </g>
                <g id="arrowLeft" xlink:href="#dirArrow" transform="rotate(270) translate(-36 17)" onmousedown="handlePan(-1,0)">
                  <use xlink:href="#rim" fill="#404040">
                        <set attributeName="fill" to="#808080" begin="arrowLeft.mouseover" end="arrowLeft.mouseout"/>
                  </use>
                  <path fill="none" stroke="white" stroke-width="1.5" d="M0,-3.0v7 M-2.5,-0.5L0,-3.0L2.5,-0.5"/>
                </g>
        </g>
        <svg viewBox="0 0 15 15" width="100%" height="30px" preserveAspectRatio="xMaxYMin meet">
         <g id="arrow_out" transform="scale(0.3 0.3)">
          <a xlink:href="class_alg_ada1e8215f047b4ffd736e811b5ea3162_cgraph_org.svg" target="_base">
           <rect id="button" ry="5" rx="5" y="6" x="6" height="38" width="38"
                fill="#f2f5e9" fill-opacity="0.5" stroke="#606060" stroke-width="1.0"/>
           <path id="arrow"
             d="M 11.500037,31.436501 C 11.940474,20.09759 22.043105,11.32322 32.158766,21.979434 L 37.068811,17.246167 C 37.068811,17.246167 37.088388,32 37.088388,32 L 22.160133,31.978069 C 22.160133,31.978069 26.997745,27.140456 26.997745,27.140456 C 18.528582,18.264221 13.291696,25.230495 11.500037,31.436501 z"
             style="fill:#404040;"/>
          </a>
         </g>
        </svg>
</svg>
