<?xml version="1.0" encoding="UTF-8" standalone="no"?>
<!DOCTYPE svg PUBLIC "-//W3C//DTD SVG 1.1//EN"
 "http://www.w3.org/Graphics/SVG/1.1/DTD/svg11.dtd">
<!-- Generated by graphviz version 2.43.0 (0)
 -->
<!-- Title: Export::_getSize Pages: 1 -->
<svg width="731pt" height="164pt"
 viewBox="0.00 0.00 731.00 164.45" xmlns="http://www.w3.org/2000/svg" xmlns:xlink="http://www.w3.org/1999/xlink">
<g id="graph0" class="graph" transform="scale(1 1) rotate(0) translate(4 160.45)">
<title>Export::_getSize</title>
<polygon fill="white" stroke="transparent" points="-4,4 -4,-160.45 727,-160.45 727,4 -4,4"/>
<!-- Node1 -->
<g id="node1" class="node">
<title>Node1</title>
<g id="a_node1"><a xlink:title="Get the size of the node (Tx/Rx/RIS).">
<polygon fill="#bfbfbf" stroke="black" points="628,-76.5 628,-95.5 723,-95.5 723,-76.5 628,-76.5"/>
<text text-anchor="middle" x="675.5" y="-83.5" font-family="Helvetica,sans-Serif" font-size="10.00">Export::_getSize</text>
</a>
</g>
</g>
<!-- Node2 -->
<g id="node2" class="node">
<title>Node2</title>
<g id="a_node2"><a xlink:href="class_export.html#a89d3ae54dd2261cf35be148011b79fe4" target="_top" xlink:title=" ">
<polygon fill="white" stroke="black" points="310,-133.5 310,-152.5 422,-152.5 422,-133.5 310,-133.5"/>
<text text-anchor="middle" x="366" y="-140.5" font-family="Helvetica,sans-Serif" font-size="10.00">Export::_algorithms</text>
</a>
</g>
</g>
<!-- Node1&#45;&gt;Node2 -->
<g id="edge1" class="edge">
<title>Node1&#45;&gt;Node2</title>
<path fill="none" stroke="midnightblue" d="M657.18,-102.71C641.57,-116.53 617.24,-135.13 592,-143 536.06,-160.44 468.43,-157.45 422.01,-151.97"/>
<polygon fill="midnightblue" stroke="midnightblue" points="659.91,-104.96 664.91,-95.62 655.18,-99.8 659.91,-104.96"/>
</g>
<!-- Node6 -->
<g id="node6" class="node">
<title>Node6</title>
<g id="a_node6"><a xlink:href="class_export.html#a59ba705b2369f21006ec7d7b7f3a4513" target="_top" xlink:title="Generate RIS reflection matrices.">
<polygon fill="white" stroke="black" points="476,-114.5 476,-133.5 592,-133.5 592,-114.5 476,-114.5"/>
<text text-anchor="middle" x="534" y="-121.5" font-family="Helvetica,sans-Serif" font-size="10.00">Export::_generateBF</text>
</a>
</g>
</g>
<!-- Node1&#45;&gt;Node6 -->
<g id="edge5" class="edge">
<title>Node1&#45;&gt;Node6</title>
<path fill="none" stroke="midnightblue" d="M629.54,-98.25C610.32,-103.48 588.2,-109.51 570.19,-114.41"/>
<polygon fill="midnightblue" stroke="midnightblue" points="630.57,-101.59 639.3,-95.59 628.73,-94.84 630.57,-101.59"/>
</g>
<!-- Node7 -->
<g id="node7" class="node">
<title>Node7</title>
<g id="a_node7"><a xlink:href="class_export.html#a26fa49d9882a342d011ba715e0c14109" target="_top" xlink:title=" ">
<polygon fill="white" stroke="black" points="314,-76.5 314,-95.5 418,-95.5 418,-76.5 314,-76.5"/>
<text text-anchor="middle" x="366" y="-83.5" font-family="Helvetica,sans-Serif" font-size="10.00">Export::_sounding</text>
</a>
</g>
</g>
<!-- Node1&#45;&gt;Node7 -->
<g id="edge12" class="edge">
<title>Node1&#45;&gt;Node7</title>
<path fill="none" stroke="midnightblue" d="M617.5,-86C560.38,-86 473.25,-86 418.25,-86"/>
<polygon fill="midnightblue" stroke="midnightblue" points="617.8,-89.5 627.8,-86 617.8,-82.5 617.8,-89.5"/>
</g>
<!-- Node8 -->
<g id="node8" class="node">
<title>Node8</title>
<g id="a_node8"><a xlink:href="class_export.html#ad7268f886ac4826f4b6ea738e423e520" target="_top" xlink:title=" ">
<polygon fill="white" stroke="black" points="292,-38.5 292,-57.5 440,-57.5 440,-38.5 292,-38.5"/>
<text text-anchor="middle" x="366" y="-45.5" font-family="Helvetica,sans-Serif" font-size="10.00">Export::_generateChannels</text>
</a>
</g>
</g>
<!-- Node1&#45;&gt;Node8 -->
<g id="edge8" class="edge">
<title>Node1&#45;&gt;Node8</title>
<path fill="none" stroke="midnightblue" d="M617.81,-78.99C567.81,-72.82 494.65,-63.78 440.24,-57.05"/>
<polygon fill="midnightblue" stroke="midnightblue" points="617.44,-82.48 627.8,-80.23 618.3,-75.53 617.44,-82.48"/>
</g>
<!-- Node9 -->
<g id="node9" class="node">
<title>Node9</title>
<g id="a_node9"><a xlink:href="class_export.html#af64597af0c0b4cf569f96216bcd23b2c" target="_top" xlink:title=" ">
<polygon fill="white" stroke="black" points="482,-0.5 482,-19.5 586,-19.5 586,-0.5 482,-0.5"/>
<text text-anchor="middle" x="534" y="-7.5" font-family="Helvetica,sans-Serif" font-size="10.00">Export::_reporting</text>
</a>
</g>
</g>
<!-- Node1&#45;&gt;Node9 -->
<g id="edge10" class="edge">
<title>Node1&#45;&gt;Node9</title>
<path fill="none" stroke="midnightblue" d="M652.59,-70.8C636.29,-59.84 613.28,-45.09 592,-34 581.81,-28.69 570.18,-23.63 560.1,-19.53"/>
<polygon fill="midnightblue" stroke="midnightblue" points="650.66,-73.72 660.9,-76.45 654.6,-67.93 650.66,-73.72"/>
</g>
<!-- Node3 -->
<g id="node3" class="node">
<title>Node3</title>
<g id="a_node3"><a xlink:href="class_export.html#affc37d1d677a83d3e5d36a4e37b7a72b" target="_top" xlink:title=" ">
<polygon fill="white" stroke="black" points="146,-57.5 146,-76.5 256,-76.5 256,-57.5 146,-57.5"/>
<text text-anchor="middle" x="201" y="-64.5" font-family="Helvetica,sans-Serif" font-size="10.00">Export::exportCode</text>
</a>
</g>
</g>
<!-- Node2&#45;&gt;Node3 -->
<g id="edge2" class="edge">
<title>Node2&#45;&gt;Node3</title>
<path fill="none" stroke="midnightblue" d="M335.27,-129.14C302.58,-113.9 250.92,-89.81 222.48,-76.55"/>
<polygon fill="midnightblue" stroke="midnightblue" points="333.81,-132.32 344.36,-133.37 336.77,-125.98 333.81,-132.32"/>
</g>
<!-- Node4 -->
<g id="node4" class="node">
<title>Node4</title>
<g id="a_node4"><a xlink:href="class_export.html#a94fab568af6ddd6447efca74e205e081" target="_top" xlink:title=" ">
<polygon fill="white" stroke="black" points="0,-76.5 0,-95.5 110,-95.5 110,-76.5 0,-76.5"/>
<text text-anchor="middle" x="55" y="-83.5" font-family="Helvetica,sans-Serif" font-size="10.00">Export::exportCode</text>
</a>
</g>
</g>
<!-- Node3&#45;&gt;Node4 -->
<g id="edge3" class="edge">
<title>Node3&#45;&gt;Node4</title>
<path fill="none" stroke="midnightblue" d="M136.01,-75.44C127.44,-76.57 118.72,-77.73 110.33,-78.83"/>
<polygon fill="midnightblue" stroke="midnightblue" points="136.51,-78.91 145.97,-74.13 135.6,-71.97 136.51,-78.91"/>
</g>
<!-- Node5 -->
<g id="node5" class="node">
<title>Node5</title>
<g id="a_node5"><a xlink:href="src_2main_8cpp.html#a0ddf1224851353fc92bfbff6f499fa97" target="_top" xlink:title=" ">
<polygon fill="white" stroke="black" points="34.5,-38.5 34.5,-57.5 75.5,-57.5 75.5,-38.5 34.5,-38.5"/>
<text text-anchor="middle" x="55" y="-45.5" font-family="Helvetica,sans-Serif" font-size="10.00">main</text>
</a>
</g>
</g>
<!-- Node3&#45;&gt;Node5 -->
<g id="edge4" class="edge">
<title>Node3&#45;&gt;Node5</title>
<path fill="none" stroke="midnightblue" d="M136.05,-58.56C114.24,-55.68 91.43,-52.67 75.76,-50.61"/>
<polygon fill="midnightblue" stroke="midnightblue" points="135.6,-62.03 145.97,-59.87 136.51,-55.09 135.6,-62.03"/>
</g>
<!-- Node6&#45;&gt;Node7 -->
<g id="edge6" class="edge">
<title>Node6&#45;&gt;Node7</title>
<path fill="none" stroke="midnightblue" d="M481.35,-112.18C457.94,-106.82 430.64,-100.57 408.59,-95.52"/>
<polygon fill="midnightblue" stroke="midnightblue" points="480.58,-115.59 491.11,-114.41 482.14,-108.77 480.58,-115.59"/>
</g>
<!-- Node7&#45;&gt;Node3 -->
<g id="edge7" class="edge">
<title>Node7&#45;&gt;Node3</title>
<path fill="none" stroke="midnightblue" d="M303.75,-78.86C288.07,-77.03 271.33,-75.08 256.05,-73.3"/>
<polygon fill="midnightblue" stroke="midnightblue" points="303.53,-82.36 313.87,-80.04 304.35,-75.41 303.53,-82.36"/>
</g>
<!-- Node8&#45;&gt;Node3 -->
<g id="edge9" class="edge">
<title>Node8&#45;&gt;Node3</title>
<path fill="none" stroke="midnightblue" d="M281.59,-57.72C273.05,-58.72 264.54,-59.71 256.44,-60.65"/>
<polygon fill="midnightblue" stroke="midnightblue" points="282.08,-61.19 291.61,-56.56 281.27,-54.24 282.08,-61.19"/>
</g>
<!-- Node9&#45;&gt;Node3 -->
<g id="edge11" class="edge">
<title>Node9&#45;&gt;Node3</title>
<path fill="none" stroke="midnightblue" d="M471.77,-9.45C422.55,-10.29 351.96,-14.38 292,-29 265.96,-35.35 237.78,-48.33 220.02,-57.35"/>
<polygon fill="midnightblue" stroke="midnightblue" points="471.99,-12.95 481.94,-9.32 471.9,-5.95 471.99,-12.95"/>
</g>
</g>
</svg>
