<?xml version="1.0" encoding="UTF-8" standalone="no"?>
<!DOCTYPE svg PUBLIC "-//W3C//DTD SVG 1.1//EN"
 "http://www.w3.org/Graphics/SVG/1.1/DTD/svg11.dtd">
<!-- Generated by graphviz version 2.43.0 (0)
 -->
<!-- Title: Alg::Alg Pages: 1 -->
<!--zoomable 344 -->
<svg id="main" version="1.1" xmlns="http://www.w3.org/2000/svg" xmlns:xlink="http://www.w3.org/1999/xlink" xml:space="preserve" onload="init(evt)">
<style type="text/css"><![CDATA[
.edge:hover path { stroke: red; }
.edge:hover polygon { stroke: red; fill: red; }
]]></style>
<script type="text/javascript"><![CDATA[
var edges = document.getElementsByTagName('g');
if (edges && edges.length) {
  for (var i=0;i<edges.length;i++) {
    if (edges[i].id.substr(0,4)=='edge') {
      edges[i].setAttribute('class','edge');
    }
  }
}
]]></script>
        <defs>
                <circle id="rim" cx="0" cy="0" r="7"/>
                <circle id="rim2" cx="0" cy="0" r="3.5"/>
                <g id="zoomPlus">
                        <use xlink:href="#rim" fill="#404040">
                                <set attributeName="fill" to="#808080" begin="zoomplus.mouseover" end="zoomplus.mouseout"/>
                        </use>
                        <path d="M-4,0h8M0,-4v8" fill="none" stroke="white" stroke-width="1.5" pointer-events="none"/>
                </g>
                <g id="zoomMin">
                        <use xlink:href="#rim" fill="#404040">
                                <set attributeName="fill" to="#808080" begin="zoomminus.mouseover" end="zoomminus.mouseout"/>
                        </use>
                        <path d="M-4,0h8" fill="none" stroke="white" stroke-width="1.5" pointer-events="none"/>
                </g>
                <g id="dirArrow">
                        <path fill="none" stroke="white" stroke-width="1.5" d="M0,-3.0v7 M-2.5,-0.5L0,-3.0L2.5,-0.5"/>
                </g>
               <g id="resetDef">
                       <use xlink:href="#rim2" fill="#404040">
                               <set attributeName="fill" to="#808080" begin="reset.mouseover" end="reset.mouseout"/>
                       </use>
               </g>
        </defs>

<script type="text/javascript">
var viewWidth = 633;
var viewHeight = 344;
var sectionId = 'dynsection-1';
</script>
<script xlink:href="svgpan.js"/>
<svg id="graph" class="graph">
<g id="viewport">
<title>Alg::Alg</title>
<polygon fill="white" stroke="transparent" points="-4,4 -4,-340.28 629,-340.28 629,4 -4,4"/>
<!-- Node1 -->
<g id="node1" class="node">
<title>Node1</title>
<g id="a_node1"><a xlink:title=" ">
<polygon fill="#bfbfbf" stroke="black" points="0,-171.5 0,-190.5 54,-190.5 54,-171.5 0,-171.5"/>
<text text-anchor="middle" x="27" y="-178.5" font-family="Helvetica,sans-Serif" font-size="10.00">Alg::Alg</text>
</a>
</g>
</g>
<!-- Node2 -->
<g id="node2" class="node">
<title>Node2</title>
<g id="a_node2"><a xlink:href="class_alg.html#af935e64a6eb4afa4ca1540f4da3dcc9c" target="_top" xlink:title=" ">
<polygon fill="white" stroke="black" points="121.5,-209.5 121.5,-228.5 177.5,-228.5 177.5,-209.5 121.5,-209.5"/>
<text text-anchor="middle" x="149.5" y="-216.5" font-family="Helvetica,sans-Serif" font-size="10.00">Alg::line</text>
</a>
</g>
</g>
<!-- Node1&#45;&gt;Node2 -->
<g id="edge1" class="edge">
<title>Node1&#45;&gt;Node2</title>
<path fill="none" stroke="midnightblue" d="M54.15,-189.25C70.93,-194.54 92.97,-201.49 111.53,-207.34"/>
<polygon fill="midnightblue" stroke="midnightblue" points="110.56,-210.71 121.15,-210.37 112.67,-204.03 110.56,-210.71"/>
</g>
<!-- Node3 -->
<g id="node3" class="node">
<title>Node3</title>
<g id="a_node3"><a xlink:href="struct_macro.html#ac0ddd588c300108ca443b10316d99877" target="_top" xlink:title=" ">
<polygon fill="white" stroke="black" points="90,-171.5 90,-190.5 209,-190.5 209,-171.5 90,-171.5"/>
<text text-anchor="middle" x="149.5" y="-178.5" font-family="Helvetica,sans-Serif" font-size="10.00">Macro::replaceMacro</text>
</a>
</g>
</g>
<!-- Node1&#45;&gt;Node3 -->
<g id="edge2" class="edge">
<title>Node1&#45;&gt;Node3</title>
<path fill="none" stroke="midnightblue" d="M54.15,-181C61.79,-181 70.53,-181 79.53,-181"/>
<polygon fill="midnightblue" stroke="midnightblue" points="79.76,-184.5 89.76,-181 79.76,-177.5 79.76,-184.5"/>
</g>
<!-- Node17 -->
<g id="node17" class="node">
<title>Node17</title>
<g id="a_node17"><a xlink:href="utils_8h.html#a6ef734356291c638e5787a6c668192d4" target="_top" xlink:title=" ">
<polygon fill="white" stroke="black" points="131,-38.5 131,-57.5 168,-57.5 168,-38.5 131,-38.5"/>
<text text-anchor="middle" x="149.5" y="-45.5" font-family="Helvetica,sans-Serif" font-size="10.00">trim</text>
</a>
</g>
</g>
<!-- Node1&#45;&gt;Node17 -->
<g id="edge23" class="edge">
<title>Node1&#45;&gt;Node17</title>
<path fill="none" stroke="midnightblue" d="M36.67,-171.43C56.8,-149.21 106.99,-93.81 132.73,-65.4"/>
<polygon fill="midnightblue" stroke="midnightblue" points="135.47,-67.6 139.59,-57.84 130.28,-62.9 135.47,-67.6"/>
</g>
<!-- Node4 -->
<g id="node4" class="node">
<title>Node4</title>
<g id="a_node4"><a xlink:href="struct_macro.html#a2b2226fb501a9da22d7fb047ea769c5d" target="_top" xlink:title=" ">
<polygon fill="white" stroke="black" points="245,-152.5 245,-171.5 353,-171.5 353,-152.5 245,-152.5"/>
<text text-anchor="middle" x="299" y="-159.5" font-family="Helvetica,sans-Serif" font-size="10.00">Macro::constantStr</text>
</a>
</g>
</g>
<!-- Node3&#45;&gt;Node4 -->
<g id="edge3" class="edge">
<title>Node3&#45;&gt;Node4</title>
<path fill="none" stroke="midnightblue" d="M209.22,-173.44C217.56,-172.36 226.17,-171.25 234.59,-170.17"/>
<polygon fill="midnightblue" stroke="midnightblue" points="235.27,-173.61 244.74,-168.86 234.38,-166.67 235.27,-173.61"/>
</g>
<!-- Node5 -->
<g id="node5" class="node">
<title>Node5</title>
<g id="a_node5"><a xlink:href="class_log.html#a48b8faa1f9d2590c6fb650f1004e73c9" target="_top" xlink:title="Flush the buff into the log file.">
<polygon fill="white" stroke="black" points="267.5,-114.5 267.5,-133.5 330.5,-133.5 330.5,-114.5 267.5,-114.5"/>
<text text-anchor="middle" x="299" y="-121.5" font-family="Helvetica,sans-Serif" font-size="10.00">Log::flush</text>
</a>
</g>
</g>
<!-- Node3&#45;&gt;Node5 -->
<g id="edge4" class="edge">
<title>Node3&#45;&gt;Node5</title>
<path fill="none" stroke="midnightblue" d="M173.7,-171.38C192.77,-163.55 220.54,-152.3 245,-143 250.2,-141.02 255.7,-138.99 261.12,-137.02"/>
<polygon fill="midnightblue" stroke="midnightblue" points="262.47,-140.25 270.69,-133.57 260.1,-133.67 262.47,-140.25"/>
</g>
<!-- Node6 -->
<g id="node6" class="node">
<title>Node6</title>
<g id="a_node6"><a xlink:href="struct_x_y___size.html#a9792ad3175a0f85674ae7e5e2ffe3a5e" target="_top" xlink:title=" ">
<polygon fill="white" stroke="black" points="540.5,-266.5 540.5,-285.5 605.5,-285.5 605.5,-266.5 540.5,-266.5"/>
<text text-anchor="middle" x="573" y="-273.5" font-family="Helvetica,sans-Serif" font-size="10.00">XY_Size::r</text>
</a>
</g>
</g>
<!-- Node3&#45;&gt;Node6 -->
<g id="edge5" class="edge">
<title>Node3&#45;&gt;Node6</title>
<path fill="none" stroke="midnightblue" d="M192.27,-190.57C198.24,-193.04 204.03,-196.13 209,-200 232.66,-218.39 220.84,-239.28 245,-257 298.38,-296.14 323.36,-286.48 389,-295 431.31,-300.49 442.58,-299.58 485,-295 499.97,-293.38 516.13,-290.25 530.42,-286.98"/>
<polygon fill="midnightblue" stroke="midnightblue" points="531.53,-290.32 540.45,-284.6 529.91,-283.51 531.53,-290.32"/>
</g>
<!-- Node7 -->
<g id="node7" class="node">
<title>Node7</title>
<g id="a_node7"><a xlink:href="struct_macro.html#a94360db4bd4a0a2516339dadc6c37bbd" target="_top" xlink:title="RegEx replace.">
<polygon fill="white" stroke="black" points="392.5,-76.5 392.5,-95.5 481.5,-95.5 481.5,-76.5 392.5,-76.5"/>
<text text-anchor="middle" x="437" y="-83.5" font-family="Helvetica,sans-Serif" font-size="10.00">Macro::replace</text>
</a>
</g>
</g>
<!-- Node3&#45;&gt;Node7 -->
<g id="edge6" class="edge">
<title>Node3&#45;&gt;Node7</title>
<path fill="none" stroke="midnightblue" d="M158.72,-171.47C173.85,-154.67 207.97,-120.14 245,-105 288.74,-87.11 342.64,-83.21 382.02,-83.29"/>
<polygon fill="midnightblue" stroke="midnightblue" points="382.17,-86.79 392.21,-83.4 382.25,-79.79 382.17,-86.79"/>
</g>
<!-- Node10 -->
<g id="node10" class="node">
<title>Node10</title>
<g id="a_node10"><a xlink:href="struct_macro.html#aee7d20953d25a4e783b8e897d78c4bf7" target="_top" xlink:title=" ">
<polygon fill="white" stroke="black" points="248.5,-228.5 248.5,-247.5 349.5,-247.5 349.5,-228.5 248.5,-228.5"/>
<text text-anchor="middle" x="299" y="-235.5" font-family="Helvetica,sans-Serif" font-size="10.00">Macro::replaceXY</text>
</a>
</g>
</g>
<!-- Node3&#45;&gt;Node10 -->
<g id="edge9" class="edge">
<title>Node3&#45;&gt;Node10</title>
<path fill="none" stroke="midnightblue" d="M181.65,-190.55C190.54,-193.42 200.2,-196.7 209,-200 228.73,-207.4 250.48,-216.66 267.54,-224.2"/>
<polygon fill="midnightblue" stroke="midnightblue" points="266.44,-227.53 277,-228.4 269.28,-221.14 266.44,-227.53"/>
</g>
<!-- Node12 -->
<g id="node12" class="node">
<title>Node12</title>
<g id="a_node12"><a xlink:href="struct_x_y___size.html#a643eedefc10d0cdfd930ad024cc30f40" target="_top" xlink:title=" ">
<polygon fill="white" stroke="black" points="540.5,-304.5 540.5,-323.5 605.5,-323.5 605.5,-304.5 540.5,-304.5"/>
<text text-anchor="middle" x="573" y="-311.5" font-family="Helvetica,sans-Serif" font-size="10.00">XY_Size::t</text>
</a>
</g>
</g>
<!-- Node3&#45;&gt;Node12 -->
<g id="edge21" class="edge">
<title>Node3&#45;&gt;Node12</title>
<path fill="none" stroke="midnightblue" d="M194.69,-190.63C199.91,-193.08 204.85,-196.15 209,-200 239.97,-228.75 211.8,-261.86 245,-288 328.2,-353.52 463.07,-337.57 530.64,-323.94"/>
<polygon fill="midnightblue" stroke="midnightblue" points="531.43,-327.35 540.5,-321.87 529.99,-320.5 531.43,-327.35"/>
</g>
<!-- Node13 -->
<g id="node13" class="node">
<title>Node13</title>
<g id="a_node13"><a xlink:href="namespacemmce.html#ad4a160832ef9fad47c531ece39752208" target="_top" xlink:title="Change a number to string.">
<polygon fill="white" stroke="black" points="389,-114.5 389,-133.5 485,-133.5 485,-114.5 389,-114.5"/>
<text text-anchor="middle" x="437" y="-121.5" font-family="Helvetica,sans-Serif" font-size="10.00">mmce::to_string</text>
</a>
</g>
</g>
<!-- Node3&#45;&gt;Node13 -->
<g id="edge22" class="edge">
<title>Node3&#45;&gt;Node13</title>
<path fill="none" stroke="midnightblue" d="M198.53,-190.53C240.74,-196.72 303.03,-200.44 353,-181 373.23,-173.13 371.17,-160.38 389,-148 394.01,-144.52 399.6,-141.22 405.12,-138.25"/>
<polygon fill="midnightblue" stroke="midnightblue" points="406.94,-141.26 414.25,-133.59 403.75,-135.03 406.94,-141.26"/>
</g>
<!-- Node8 -->
<g id="node8" class="node">
<title>Node8</title>
<g id="a_node8"><a xlink:href="class_log.html#add7e611cd3267d3fd5dae017e3aeef67" target="_top" xlink:title="Write infomation to the log file.">
<polygon fill="white" stroke="black" points="543.5,-124.5 543.5,-143.5 602.5,-143.5 602.5,-124.5 543.5,-124.5"/>
<text text-anchor="middle" x="573" y="-131.5" font-family="Helvetica,sans-Serif" font-size="10.00">Log::info</text>
</a>
</g>
</g>
<!-- Node7&#45;&gt;Node8 -->
<g id="edge7" class="edge">
<title>Node7&#45;&gt;Node8</title>
<path fill="none" stroke="midnightblue" d="M464.79,-95.6C485.15,-102.89 513.37,-113 535.75,-121.01"/>
<polygon fill="midnightblue" stroke="midnightblue" points="534.66,-124.34 545.25,-124.42 537.02,-117.75 534.66,-124.34"/>
</g>
<!-- Node9 -->
<g id="node9" class="node">
<title>Node9</title>
<g id="a_node9"><a xlink:href="struct_macro.html#a0a64263ca28e6e30160145a33ed5d77f" target="_top" xlink:title="Get the name of Type.">
<polygon fill="white" stroke="black" points="521,-76.5 521,-95.5 625,-95.5 625,-76.5 521,-76.5"/>
<text text-anchor="middle" x="573" y="-83.5" font-family="Helvetica,sans-Serif" font-size="10.00">Macro::typeName</text>
</a>
</g>
</g>
<!-- Node7&#45;&gt;Node9 -->
<g id="edge8" class="edge">
<title>Node7&#45;&gt;Node9</title>
<path fill="none" stroke="midnightblue" d="M481.51,-86C490.81,-86 500.8,-86 510.63,-86"/>
<polygon fill="midnightblue" stroke="midnightblue" points="510.78,-89.5 520.78,-86 510.78,-82.5 510.78,-89.5"/>
</g>
<!-- Node10&#45;&gt;Node6 -->
<g id="edge14" class="edge">
<title>Node10&#45;&gt;Node6</title>
<path fill="none" stroke="midnightblue" d="M349.67,-241.57C387.03,-244.63 439.41,-249.7 485,-257 499.86,-259.38 516.01,-262.7 530.3,-265.89"/>
<polygon fill="midnightblue" stroke="midnightblue" points="529.82,-269.37 540.35,-268.19 531.38,-262.55 529.82,-269.37"/>
</g>
<!-- Node10&#45;&gt;Node7 -->
<g id="edge15" class="edge">
<title>Node10&#45;&gt;Node7</title>
<path fill="none" stroke="midnightblue" d="M310.8,-228.31C322.31,-217.58 340.57,-199.34 353,-181 373.97,-150.06 361.81,-130.65 389,-105 390.66,-103.43 392.48,-101.98 394.39,-100.65"/>
<polygon fill="midnightblue" stroke="midnightblue" points="396.36,-103.55 403.26,-95.51 392.85,-97.49 396.36,-103.55"/>
</g>
<!-- Node10&#45;&gt;Node8 -->
<g id="edge13" class="edge">
<title>Node10&#45;&gt;Node8</title>
<path fill="none" stroke="midnightblue" d="M313.83,-228.37C334.74,-213.95 373.61,-187.7 389,-181 436.7,-160.24 495.53,-147.16 533.39,-140.22"/>
<polygon fill="midnightblue" stroke="midnightblue" points="534.26,-143.62 543.49,-138.42 533.03,-136.73 534.26,-143.62"/>
</g>
<!-- Node11 -->
<g id="node11" class="node">
<title>Node11</title>
<g id="a_node11"><a xlink:href="struct_x_y___size.html#a7bd57d020a1b15aaa09af45eff3ce6b4" target="_top" xlink:title=" ">
<polygon fill="white" stroke="black" points="404,-266.5 404,-285.5 470,-285.5 470,-266.5 404,-266.5"/>
<text text-anchor="middle" x="437" y="-273.5" font-family="Helvetica,sans-Serif" font-size="10.00">XY_Size::_</text>
</a>
</g>
</g>
<!-- Node10&#45;&gt;Node11 -->
<g id="edge10" class="edge">
<title>Node10&#45;&gt;Node11</title>
<path fill="none" stroke="midnightblue" d="M334.32,-247.59C352.41,-252.64 374.76,-258.89 393.89,-264.23"/>
<polygon fill="midnightblue" stroke="midnightblue" points="392.99,-267.62 403.57,-266.94 394.88,-260.88 392.99,-267.62"/>
</g>
<!-- Node10&#45;&gt;Node12 -->
<g id="edge16" class="edge">
<title>Node10&#45;&gt;Node12</title>
<path fill="none" stroke="midnightblue" d="M311.17,-247.65C327.19,-260.87 358.17,-284.21 389,-295 435.44,-311.25 492.24,-314.82 530.12,-315.09"/>
<polygon fill="midnightblue" stroke="midnightblue" points="530.28,-318.59 540.28,-315.09 530.28,-311.59 530.28,-318.59"/>
</g>
<!-- Node10&#45;&gt;Node13 -->
<g id="edge17" class="edge">
<title>Node10&#45;&gt;Node13</title>
<path fill="none" stroke="midnightblue" d="M329.83,-228.49C338,-224.88 346.41,-220.12 353,-214 377.49,-191.27 365.05,-171.3 389,-148 392.68,-144.42 397,-141.25 401.51,-138.5"/>
<polygon fill="midnightblue" stroke="midnightblue" points="403.19,-141.56 410.28,-133.69 399.83,-135.42 403.19,-141.56"/>
</g>
<!-- Node14 -->
<g id="node14" class="node">
<title>Node14</title>
<g id="a_node14"><a xlink:href="struct_x_y___size.html#a4a5192df22d9d6bc1793eabc6ae1ffa0" target="_top" xlink:title=" ">
<polygon fill="white" stroke="black" points="400.5,-190.5 400.5,-209.5 473.5,-209.5 473.5,-190.5 400.5,-190.5"/>
<text text-anchor="middle" x="437" y="-197.5" font-family="Helvetica,sans-Serif" font-size="10.00">XY_Size::xy</text>
</a>
</g>
</g>
<!-- Node10&#45;&gt;Node14 -->
<g id="edge18" class="edge">
<title>Node10&#45;&gt;Node14</title>
<path fill="none" stroke="midnightblue" d="M334.32,-228.41C351.79,-223.53 373.24,-217.54 391.93,-212.32"/>
<polygon fill="midnightblue" stroke="midnightblue" points="393,-215.65 401.69,-209.59 391.12,-208.91 393,-215.65"/>
</g>
<!-- Node11&#45;&gt;Node6 -->
<g id="edge11" class="edge">
<title>Node11&#45;&gt;Node6</title>
<path fill="none" stroke="midnightblue" d="M470.1,-276C488.08,-276 510.72,-276 530.09,-276"/>
<polygon fill="midnightblue" stroke="midnightblue" points="530.17,-279.5 540.17,-276 530.17,-272.5 530.17,-279.5"/>
</g>
<!-- Node11&#45;&gt;Node12 -->
<g id="edge12" class="edge">
<title>Node11&#45;&gt;Node12</title>
<path fill="none" stroke="midnightblue" d="M470.1,-285.1C488.16,-290.23 510.93,-296.68 530.35,-302.19"/>
<polygon fill="midnightblue" stroke="midnightblue" points="529.59,-305.61 540.17,-304.97 531.5,-298.88 529.59,-305.61"/>
</g>
<!-- Node15 -->
<g id="node15" class="node">
<title>Node15</title>
<g id="a_node15"><a xlink:href="class_log.html#ac7147942832455398ad289b706a02616" target="_top" xlink:title="Write error message to the log file.">
<polygon fill="white" stroke="black" points="546.5,-219.5 546.5,-238.5 599.5,-238.5 599.5,-219.5 546.5,-219.5"/>
<text text-anchor="middle" x="573" y="-226.5" font-family="Helvetica,sans-Serif" font-size="10.00">Log::err</text>
</a>
</g>
</g>
<!-- Node14&#45;&gt;Node15 -->
<g id="edge19" class="edge">
<title>Node14&#45;&gt;Node15</title>
<path fill="none" stroke="midnightblue" d="M473.56,-207.7C493.01,-211.91 517.04,-217.11 536.49,-221.31"/>
<polygon fill="midnightblue" stroke="midnightblue" points="535.96,-224.78 546.48,-223.48 537.44,-217.94 535.96,-224.78"/>
</g>
<!-- Node16 -->
<g id="node16" class="node">
<title>Node16</title>
<g id="a_node16"><a xlink:href="class_term.html#abd955a8def100354b03e33911c3b21f8" target="_top" xlink:title="Print error message.">
<polygon fill="white" stroke="black" points="538,-181.5 538,-200.5 608,-200.5 608,-181.5 538,-181.5"/>
<text text-anchor="middle" x="573" y="-188.5" font-family="Helvetica,sans-Serif" font-size="10.00">Term::error</text>
</a>
</g>
</g>
<!-- Node14&#45;&gt;Node16 -->
<g id="edge20" class="edge">
<title>Node14&#45;&gt;Node16</title>
<path fill="none" stroke="midnightblue" d="M473.56,-197.61C490.15,-196.5 510.07,-195.16 527.64,-193.98"/>
<polygon fill="midnightblue" stroke="midnightblue" points="527.92,-197.47 537.67,-193.31 527.45,-190.48 527.92,-197.47"/>
</g>
<!-- Node18 -->
<g id="node18" class="node">
<title>Node18</title>
<g id="a_node18"><a xlink:href="utils_8h.html#a47084ee818936eef3c48be492c0e860f" target="_top" xlink:title=" ">
<polygon fill="white" stroke="black" points="279,-38.5 279,-57.5 319,-57.5 319,-38.5 279,-38.5"/>
<text text-anchor="middle" x="299" y="-45.5" font-family="Helvetica,sans-Serif" font-size="10.00">ltrim</text>
</a>
</g>
</g>
<!-- Node17&#45;&gt;Node18 -->
<g id="edge24" class="edge">
<title>Node17&#45;&gt;Node18</title>
<path fill="none" stroke="midnightblue" d="M168.29,-48C193.13,-48 238.52,-48 268.47,-48"/>
<polygon fill="midnightblue" stroke="midnightblue" points="268.74,-51.5 278.74,-48 268.74,-44.5 268.74,-51.5"/>
</g>
<!-- Node19 -->
<g id="node19" class="node">
<title>Node19</title>
<g id="a_node19"><a xlink:href="utils_8h.html#af6d6bd5c29782e3b958b5f7c0d1ea9e3" target="_top" xlink:title=" ">
<polygon fill="white" stroke="black" points="278.5,-0.5 278.5,-19.5 319.5,-19.5 319.5,-0.5 278.5,-0.5"/>
<text text-anchor="middle" x="299" y="-7.5" font-family="Helvetica,sans-Serif" font-size="10.00">rtrim</text>
</a>
</g>
</g>
<!-- Node17&#45;&gt;Node19 -->
<g id="edge25" class="edge">
<title>Node17&#45;&gt;Node19</title>
<path fill="none" stroke="midnightblue" d="M168.29,-43.42C193.1,-37.02 238.41,-25.35 268.37,-17.63"/>
<polygon fill="midnightblue" stroke="midnightblue" points="269.46,-20.97 278.27,-15.08 267.71,-14.19 269.46,-20.97"/>
</g>
</g>
</svg>
        <g id="navigator" transform="translate(0 0)" fill="#404254">
                <rect fill="#f2f5e9" fill-opacity="0.5" stroke="#606060" stroke-width=".5" x="0" y="0" width="60" height="60"/>
                <use id="zoomplus" xlink:href="#zoomPlus" x="17" y="9" onmousedown="handleZoom(evt,'in')"/>
                <use id="zoomminus" xlink:href="#zoomMin" x="42" y="9" onmousedown="handleZoom(evt,'out')"/>
                <use id="reset" xlink:href="#resetDef" x="30" y="36" onmousedown="handleReset()"/>
                <g id="arrowUp" xlink:href="#dirArrow" transform="translate(30 24)" onmousedown="handlePan(0,-1)">
                  <use xlink:href="#rim" fill="#404040">
                        <set attributeName="fill" to="#808080" begin="arrowUp.mouseover" end="arrowUp.mouseout"/>
                  </use>
                  <path fill="none" stroke="white" stroke-width="1.5" d="M0,-3.0v7 M-2.5,-0.5L0,-3.0L2.5,-0.5"/>
                </g>
                <g id="arrowRight" xlink:href="#dirArrow" transform="rotate(90) translate(36 -43)" onmousedown="handlePan(1,0)">
                  <use xlink:href="#rim" fill="#404040">
                        <set attributeName="fill" to="#808080" begin="arrowRight.mouseover" end="arrowRight.mouseout"/>
                  </use>
                  <path fill="none" stroke="white" stroke-width="1.5" d="M0,-3.0v7 M-2.5,-0.5L0,-3.0L2.5,-0.5"/>
                </g>
                <g id="arrowDown" xlink:href="#dirArrow" transform="rotate(180) translate(-30 -48)" onmousedown="handlePan(0,1)">
                  <use xlink:href="#rim" fill="#404040">
                        <set attributeName="fill" to="#808080" begin="arrowDown.mouseover" end="arrowDown.mouseout"/>
                  </use>
                  <path fill="none" stroke="white" stroke-width="1.5" d="M0,-3.0v7 M-2.5,-0.5L0,-3.0L2.5,-0.5"/>
                </g>
                <g id="arrowLeft" xlink:href="#dirArrow" transform="rotate(270) translate(-36 17)" onmousedown="handlePan(-1,0)">
                  <use xlink:href="#rim" fill="#404040">
                        <set attributeName="fill" to="#808080" begin="arrowLeft.mouseover" end="arrowLeft.mouseout"/>
                  </use>
                  <path fill="none" stroke="white" stroke-width="1.5" d="M0,-3.0v7 M-2.5,-0.5L0,-3.0L2.5,-0.5"/>
                </g>
        </g>
        <svg viewBox="0 0 15 15" width="100%" height="30px" preserveAspectRatio="xMaxYMin meet">
         <g id="arrow_out" transform="scale(0.3 0.3)">
          <a xlink:href="class_alg_a45e536cf797bba52c851877371ea64c5_cgraph_org.svg" target="_base">
           <rect id="button" ry="5" rx="5" y="6" x="6" height="38" width="38"
                fill="#f2f5e9" fill-opacity="0.5" stroke="#606060" stroke-width="1.0"/>
           <path id="arrow"
             d="M 11.500037,31.436501 C 11.940474,20.09759 22.043105,11.32322 32.158766,21.979434 L 37.068811,17.246167 C 37.068811,17.246167 37.088388,32 37.088388,32 L 22.160133,31.978069 C 22.160133,31.978069 26.997745,27.140456 26.997745,27.140456 C 18.528582,18.264221 13.291696,25.230495 11.500037,31.436501 z"
             style="fill:#404040;"/>
          </a>
         </g>
        </svg>
</svg>
