<?xml version="1.0" encoding="UTF-8" standalone="no"?>
<!DOCTYPE svg PUBLIC "-//W3C//DTD SVG 1.1//EN"
 "http://www.w3.org/Graphics/SVG/1.1/DTD/svg11.dtd">
<!-- Generated by graphviz version 2.43.0 (0)
 -->
<!-- Title: Alg_Line::_processFuncParams Pages: 1 -->
<svg width="564pt" height="218pt"
 viewBox="0.00 0.00 564.00 218.00" xmlns="http://www.w3.org/2000/svg" xmlns:xlink="http://www.w3.org/1999/xlink">
<g id="graph0" class="graph" transform="scale(1 1) rotate(0) translate(4 214)">
<title>Alg_Line::_processFuncParams</title>
<polygon fill="white" stroke="transparent" points="-4,4 -4,-214 560,-214 560,4 -4,4"/>
<!-- Node1 -->
<g id="node1" class="node">
<title>Node1</title>
<g id="a_node1"><a xlink:title="Process function name and parameter variables.">
<polygon fill="#bfbfbf" stroke="black" points="0,-95.5 0,-114.5 165,-114.5 165,-95.5 0,-95.5"/>
<text text-anchor="middle" x="82.5" y="-102.5" font-family="Helvetica,sans-Serif" font-size="10.00">Alg_Line::_processFuncParams</text>
</a>
</g>
</g>
<!-- Node2 -->
<g id="node2" class="node">
<title>Node2</title>
<g id="a_node2"><a xlink:href="class_alg___line.html#a02c28dd649a764aabefb625ea87f2938" target="_top" xlink:title="Find the first occupance of character in string that is not an escape or within quotes.">
<polygon fill="white" stroke="black" points="201,-190.5 201,-209.5 311,-209.5 311,-190.5 201,-190.5"/>
<text text-anchor="middle" x="256" y="-197.5" font-family="Helvetica,sans-Serif" font-size="10.00">Alg_Line::_findChar</text>
</a>
</g>
</g>
<!-- Node1&#45;&gt;Node2 -->
<g id="edge1" class="edge">
<title>Node1&#45;&gt;Node2</title>
<path fill="none" stroke="midnightblue" d="M96.29,-114.73C117.26,-130.33 160.65,-161.2 201,-181 205.29,-183.11 209.88,-185.09 214.49,-186.93"/>
<polygon fill="midnightblue" stroke="midnightblue" points="213.34,-190.23 223.93,-190.47 215.8,-183.68 213.34,-190.23"/>
</g>
<!-- Node5 -->
<g id="node5" class="node">
<title>Node5</title>
<g id="a_node5"><a xlink:href="class_log.html#ac7147942832455398ad289b706a02616" target="_top" xlink:title="Write error message to the log file.">
<polygon fill="white" stroke="black" points="229.5,-152.5 229.5,-171.5 282.5,-171.5 282.5,-152.5 229.5,-152.5"/>
<text text-anchor="middle" x="256" y="-159.5" font-family="Helvetica,sans-Serif" font-size="10.00">Log::err</text>
</a>
</g>
</g>
<!-- Node1&#45;&gt;Node5 -->
<g id="edge4" class="edge">
<title>Node1&#45;&gt;Node5</title>
<path fill="none" stroke="midnightblue" d="M112.21,-114.54C141.72,-124.35 187.73,-139.64 219.51,-150.2"/>
<polygon fill="midnightblue" stroke="midnightblue" points="218.69,-153.62 229.29,-153.45 220.9,-146.98 218.69,-153.62"/>
</g>
<!-- Node6 -->
<g id="node6" class="node">
<title>Node6</title>
<g id="a_node6"><a xlink:href="class_alg___line.html#af651454e6ddfce164626b68b2c6cba97" target="_top" xlink:title="Get the function name.">
<polygon fill="white" stroke="black" points="213.5,-114.5 213.5,-133.5 298.5,-133.5 298.5,-114.5 213.5,-114.5"/>
<text text-anchor="middle" x="256" y="-121.5" font-family="Helvetica,sans-Serif" font-size="10.00">Alg_Line::func</text>
</a>
</g>
</g>
<!-- Node1&#45;&gt;Node6 -->
<g id="edge5" class="edge">
<title>Node1&#45;&gt;Node6</title>
<path fill="none" stroke="midnightblue" d="M165.23,-114.05C178.18,-115.49 191.24,-116.94 203.25,-118.27"/>
<polygon fill="midnightblue" stroke="midnightblue" points="203.17,-121.78 213.5,-119.4 203.94,-114.82 203.17,-121.78"/>
</g>
<!-- Node7 -->
<g id="node7" class="node">
<title>Node7</title>
<g id="a_node7"><a xlink:href="class_log.html#add7e611cd3267d3fd5dae017e3aeef67" target="_top" xlink:title="Write infomation to the log file.">
<polygon fill="white" stroke="black" points="226.5,-76.5 226.5,-95.5 285.5,-95.5 285.5,-76.5 226.5,-76.5"/>
<text text-anchor="middle" x="256" y="-83.5" font-family="Helvetica,sans-Serif" font-size="10.00">Log::info</text>
</a>
</g>
</g>
<!-- Node1&#45;&gt;Node7 -->
<g id="edge6" class="edge">
<title>Node1&#45;&gt;Node7</title>
<path fill="none" stroke="midnightblue" d="M165.23,-95.95C183.04,-93.97 201.07,-91.97 216.26,-90.29"/>
<polygon fill="midnightblue" stroke="midnightblue" points="216.73,-93.76 226.28,-89.18 215.96,-86.8 216.73,-93.76"/>
</g>
<!-- Node8 -->
<g id="node8" class="node">
<title>Node8</title>
<g id="a_node8"><a xlink:href="functions_8h.html#a327f8ee07c785b0b6cb9f59b061effeb" target="_top" xlink:title=" ">
<polygon fill="white" stroke="black" points="232.5,-38.5 232.5,-57.5 279.5,-57.5 279.5,-38.5 232.5,-38.5"/>
<text text-anchor="middle" x="256" y="-45.5" font-family="Helvetica,sans-Serif" font-size="10.00">isFunc</text>
</a>
</g>
</g>
<!-- Node1&#45;&gt;Node8 -->
<g id="edge7" class="edge">
<title>Node1&#45;&gt;Node8</title>
<path fill="none" stroke="midnightblue" d="M112.21,-95.46C142.66,-85.34 190.7,-69.37 222.52,-58.79"/>
<polygon fill="midnightblue" stroke="midnightblue" points="223.86,-62.04 232.24,-55.56 221.65,-55.4 223.86,-62.04"/>
</g>
<!-- Node12 -->
<g id="node12" class="node">
<title>Node12</title>
<g id="a_node12"><a xlink:href="utils_8h.html#a0465457013518e168df05799c93cfa6e" target="_top" xlink:title=" ">
<polygon fill="white" stroke="black" points="214.5,-0.5 214.5,-19.5 297.5,-19.5 297.5,-0.5 214.5,-0.5"/>
<text text-anchor="middle" x="256" y="-7.5" font-family="Helvetica,sans-Serif" font-size="10.00">removeQuote</text>
</a>
</g>
</g>
<!-- Node1&#45;&gt;Node12 -->
<g id="edge14" class="edge">
<title>Node1&#45;&gt;Node12</title>
<path fill="none" stroke="midnightblue" d="M96.29,-95.27C117.26,-79.67 160.65,-48.8 201,-29 205.29,-26.89 209.88,-24.91 214.49,-23.07"/>
<polygon fill="midnightblue" stroke="midnightblue" points="215.8,-26.32 223.93,-19.53 213.34,-19.77 215.8,-26.32"/>
</g>
<!-- Node3 -->
<g id="node3" class="node">
<title>Node3</title>
<g id="a_node3"><a xlink:href="class_alg___line.html#aa0ac36c0f72f54317b686035693ec046" target="_top" xlink:title="Find the first occupance of substring in string that is not an escape or within quotes.">
<polygon fill="white" stroke="black" points="347,-171.5 347,-190.5 462,-190.5 462,-171.5 347,-171.5"/>
<text text-anchor="middle" x="404.5" y="-178.5" font-family="Helvetica,sans-Serif" font-size="10.00">Alg_Line::_findChars</text>
</a>
</g>
</g>
<!-- Node2&#45;&gt;Node3 -->
<g id="edge2" class="edge">
<title>Node2&#45;&gt;Node3</title>
<path fill="none" stroke="midnightblue" d="M311.13,-192.98C319.45,-191.9 328.13,-190.78 336.68,-189.67"/>
<polygon fill="midnightblue" stroke="midnightblue" points="337.17,-193.13 346.64,-188.37 336.27,-186.19 337.17,-193.13"/>
</g>
<!-- Node4 -->
<g id="node4" class="node">
<title>Node4</title>
<g id="a_node4"><a xlink:href="utils_8h.html#af11c7cca5b9ad860da4bdb556dce3234" target="_top" xlink:title=" ">
<polygon fill="white" stroke="black" points="498,-95.5 498,-114.5 556,-114.5 556,-95.5 498,-95.5"/>
<text text-anchor="middle" x="527" y="-102.5" font-family="Helvetica,sans-Serif" font-size="10.00">contains</text>
</a>
</g>
</g>
<!-- Node3&#45;&gt;Node4 -->
<g id="edge3" class="edge">
<title>Node3&#45;&gt;Node4</title>
<path fill="none" stroke="midnightblue" d="M420.76,-171.37C441.31,-158.41 478.1,-135.21 502.27,-119.96"/>
<polygon fill="midnightblue" stroke="midnightblue" points="504.27,-122.84 510.86,-114.55 500.54,-116.92 504.27,-122.84"/>
</g>
<!-- Node9 -->
<g id="node9" class="node">
<title>Node9</title>
<g id="a_node9"><a xlink:href="functions_8h.html#a874ba6c7a581632b5ca72a1bd9fecdd1" target="_top" xlink:title=" ">
<polygon fill="white" stroke="black" points="367.5,-114.5 367.5,-133.5 441.5,-133.5 441.5,-114.5 367.5,-114.5"/>
<text text-anchor="middle" x="404.5" y="-121.5" font-family="Helvetica,sans-Serif" font-size="10.00">isFuncIsEnd</text>
</a>
</g>
</g>
<!-- Node8&#45;&gt;Node9 -->
<g id="edge8" class="edge">
<title>Node8&#45;&gt;Node9</title>
<path fill="none" stroke="midnightblue" d="M279.64,-53.36C289.75,-56.39 301.49,-60.83 311,-67 330.52,-79.66 327.39,-92.48 347,-105 350.39,-107.16 354.05,-109.11 357.82,-110.85"/>
<polygon fill="midnightblue" stroke="midnightblue" points="356.75,-114.19 367.33,-114.77 359.42,-107.72 356.75,-114.19"/>
</g>
<!-- Node10 -->
<g id="node10" class="node">
<title>Node10</title>
<g id="a_node10"><a xlink:href="functions_8h.html#a6f29a04c07a24fbea22fa058f8005608" target="_top" xlink:title=" ">
<polygon fill="white" stroke="black" points="356.5,-76.5 356.5,-95.5 452.5,-95.5 452.5,-76.5 356.5,-76.5"/>
<text text-anchor="middle" x="404.5" y="-83.5" font-family="Helvetica,sans-Serif" font-size="10.00">isFuncNeedsEnd</text>
</a>
</g>
</g>
<!-- Node8&#45;&gt;Node10 -->
<g id="edge10" class="edge">
<title>Node8&#45;&gt;Node10</title>
<path fill="none" stroke="midnightblue" d="M279.57,-53.85C300.05,-59.17 330.89,-67.17 356.68,-73.86"/>
<polygon fill="midnightblue" stroke="midnightblue" points="356.09,-77.32 366.65,-76.44 357.85,-70.54 356.09,-77.32"/>
</g>
<!-- Node11 -->
<g id="node11" class="node">
<title>Node11</title>
<g id="a_node11"><a xlink:href="functions_8h.html#ac9dc58cb94b7547813c3a35154d97d18" target="_top" xlink:title=" ">
<polygon fill="white" stroke="black" points="365,-38.5 365,-57.5 444,-57.5 444,-38.5 365,-38.5"/>
<text text-anchor="middle" x="404.5" y="-45.5" font-family="Helvetica,sans-Serif" font-size="10.00">isFuncNoEnd</text>
</a>
</g>
</g>
<!-- Node8&#45;&gt;Node11 -->
<g id="edge12" class="edge">
<title>Node8&#45;&gt;Node11</title>
<path fill="none" stroke="midnightblue" d="M279.57,-48C299.53,-48 329.35,-48 354.73,-48"/>
<polygon fill="midnightblue" stroke="midnightblue" points="354.93,-51.5 364.93,-48 354.93,-44.5 354.93,-51.5"/>
</g>
<!-- Node9&#45;&gt;Node4 -->
<g id="edge9" class="edge">
<title>Node9&#45;&gt;Node4</title>
<path fill="none" stroke="midnightblue" d="M441.65,-118.3C456.16,-116.01 472.89,-113.37 487.61,-111.05"/>
<polygon fill="midnightblue" stroke="midnightblue" points="488.58,-114.44 497.91,-109.43 487.49,-107.53 488.58,-114.44"/>
</g>
<!-- Node10&#45;&gt;Node4 -->
<g id="edge11" class="edge">
<title>Node10&#45;&gt;Node4</title>
<path fill="none" stroke="midnightblue" d="M452.78,-93.45C464.49,-95.3 476.89,-97.26 488.09,-99.02"/>
<polygon fill="midnightblue" stroke="midnightblue" points="487.56,-102.48 497.98,-100.58 488.65,-95.57 487.56,-102.48"/>
</g>
<!-- Node11&#45;&gt;Node4 -->
<g id="edge13" class="edge">
<title>Node11&#45;&gt;Node4</title>
<path fill="none" stroke="midnightblue" d="M437.93,-57.6C445.93,-60.32 454.38,-63.5 462,-67 476.23,-73.53 491.32,-82.38 503.27,-89.91"/>
<polygon fill="midnightblue" stroke="midnightblue" points="501.43,-92.88 511.73,-95.34 505.21,-86.99 501.43,-92.88"/>
</g>
<!-- Node13 -->
<g id="node13" class="node">
<title>Node13</title>
<g id="a_node13"><a xlink:href="utils_8h.html#aaaee605fe46abaa420448438d89b22ed" target="_top" xlink:title=" ">
<polygon fill="white" stroke="black" points="374.5,-0.5 374.5,-19.5 434.5,-19.5 434.5,-0.5 374.5,-0.5"/>
<text text-anchor="middle" x="404.5" y="-7.5" font-family="Helvetica,sans-Serif" font-size="10.00">isQuoted</text>
</a>
</g>
</g>
<!-- Node12&#45;&gt;Node13 -->
<g id="edge15" class="edge">
<title>Node12&#45;&gt;Node13</title>
<path fill="none" stroke="midnightblue" d="M297.81,-10C318.43,-10 343.35,-10 363.81,-10"/>
<polygon fill="midnightblue" stroke="midnightblue" points="364.05,-13.5 374.05,-10 364.05,-6.5 364.05,-13.5"/>
</g>
</g>
</svg>
