<?xml version="1.0" encoding="UTF-8" standalone="no"?>
<!DOCTYPE svg PUBLIC "-//W3C//DTD SVG 1.1//EN"
 "http://www.w3.org/Graphics/SVG/1.1/DTD/svg11.dtd">
<!-- Generated by graphviz version 2.43.0 (0)
 -->
<!-- Title: Export::_loadALG Pages: 1 -->
<svg width="967pt" height="952pt"
 viewBox="0.00 0.00 967.00 952.26" xmlns="http://www.w3.org/2000/svg" xmlns:xlink="http://www.w3.org/1999/xlink">
<g id="graph0" class="graph" transform="scale(1 1) rotate(0) translate(4 948.26)">
<title>Export::_loadALG</title>
<polygon fill="white" stroke="transparent" points="-4,4 -4,-948.26 963,-948.26 963,4 -4,4"/>
<!-- Node1 -->
<g id="node1" class="node">
<title>Node1</title>
<g id="a_node1"><a xlink:title=" ">
<polygon fill="#bfbfbf" stroke="black" points="0,-726.5 0,-745.5 100,-745.5 100,-726.5 0,-726.5"/>
<text text-anchor="middle" x="50" y="-733.5" font-family="Helvetica,sans-Serif" font-size="10.00">Export::_loadALG</text>
</a>
</g>
</g>
<!-- Node2 -->
<g id="node2" class="node">
<title>Node2</title>
<g id="a_node2"><a xlink:href="class_export.html#a638d6b9ced18342503ee6f4d4b274740" target="_top" xlink:title=" ">
<polygon fill="white" stroke="black" points="146.5,-916.5 146.5,-935.5 230.5,-935.5 230.5,-916.5 146.5,-916.5"/>
<text text-anchor="middle" x="188.5" y="-923.5" font-family="Helvetica,sans-Serif" font-size="10.00">Export::_asStr</text>
</a>
</g>
</g>
<!-- Node1&#45;&gt;Node2 -->
<g id="edge1" class="edge">
<title>Node1&#45;&gt;Node2</title>
<path fill="none" stroke="midnightblue" d="M53.5,-745.58C61.21,-773.34 87.04,-854.82 136,-902 139.95,-905.81 144.62,-909.09 149.5,-911.9"/>
<polygon fill="midnightblue" stroke="midnightblue" points="147.92,-915.03 158.42,-916.46 151.11,-908.79 147.92,-915.03"/>
</g>
<!-- Node3 -->
<g id="node3" class="node">
<title>Node3</title>
<g id="a_node3"><a xlink:href="class_export.html#a966a54f05ada435d6d1ce6e4a9750f41" target="_top" xlink:title=" ">
<polygon fill="white" stroke="black" points="483,-840.5 483,-859.5 650,-859.5 650,-840.5 483,-840.5"/>
<text text-anchor="middle" x="566.5" y="-847.5" font-family="Helvetica,sans-Serif" font-size="10.00">Export::_checkALGdependency</text>
</a>
</g>
</g>
<!-- Node1&#45;&gt;Node3 -->
<g id="edge2" class="edge">
<title>Node1&#45;&gt;Node3</title>
<path fill="none" stroke="midnightblue" d="M56.52,-745.59C68.27,-764.92 97.8,-808.25 136,-826 254.41,-881.01 411.4,-872.08 499.05,-860.88"/>
<polygon fill="midnightblue" stroke="midnightblue" points="499.68,-864.33 509.13,-859.55 498.76,-857.39 499.68,-864.33"/>
</g>
<!-- Node4 -->
<g id="node4" class="node">
<title>Node4</title>
<g id="a_node4"><a xlink:href="utils_8h.html#a49dc116689f1a4202be4d3f0743b1f70" target="_top" xlink:title=" ">
<polygon fill="white" stroke="black" points="731.5,-916.5 731.5,-935.5 780.5,-935.5 780.5,-916.5 731.5,-916.5"/>
<text text-anchor="middle" x="756" y="-923.5" font-family="Helvetica,sans-Serif" font-size="10.00">appDir</text>
</a>
</g>
</g>
<!-- Node1&#45;&gt;Node4 -->
<g id="edge12" class="edge">
<title>Node1&#45;&gt;Node4</title>
<path fill="none" stroke="midnightblue" d="M54.74,-745.77C64.27,-769.16 91.85,-828.4 136,-855 330.88,-972.41 623.39,-944.82 721.54,-931.24"/>
<polygon fill="midnightblue" stroke="midnightblue" points="722.08,-934.7 731.48,-929.82 721.09,-927.77 722.08,-934.7"/>
</g>
<!-- Node5 -->
<g id="node5" class="node">
<title>Node5</title>
<g id="a_node5"><a xlink:href="utils_8h.html#af11c7cca5b9ad860da4bdb556dce3234" target="_top" xlink:title=" ">
<polygon fill="white" stroke="black" points="727,-764.5 727,-783.5 785,-783.5 785,-764.5 727,-764.5"/>
<text text-anchor="middle" x="756" y="-771.5" font-family="Helvetica,sans-Serif" font-size="10.00">contains</text>
</a>
</g>
</g>
<!-- Node1&#45;&gt;Node5 -->
<g id="edge13" class="edge">
<title>Node1&#45;&gt;Node5</title>
<path fill="none" stroke="midnightblue" d="M62.13,-745.64C77.51,-758.26 106.69,-779.75 136,-788 348.39,-847.81 618.16,-802.7 716.73,-782.48"/>
<polygon fill="midnightblue" stroke="midnightblue" points="717.74,-785.84 726.82,-780.37 716.31,-778.99 717.74,-785.84"/>
</g>
<!-- Node7 -->
<g id="node7" class="node">
<title>Node7</title>
<g id="a_node7"><a xlink:href="class_log.html#add7e611cd3267d3fd5dae017e3aeef67" target="_top" xlink:title="Write infomation to the log file.">
<polygon fill="white" stroke="black" points="881,-246.5 881,-265.5 940,-265.5 940,-246.5 881,-246.5"/>
<text text-anchor="middle" x="910.5" y="-253.5" font-family="Helvetica,sans-Serif" font-size="10.00">Log::info</text>
</a>
</g>
</g>
<!-- Node1&#45;&gt;Node7 -->
<g id="edge15" class="edge">
<title>Node1&#45;&gt;Node7</title>
<path fill="none" stroke="midnightblue" d="M85.45,-745.51C100.79,-749.27 119.17,-753.14 136,-755 249.53,-767.53 552.36,-814.28 650,-755 834.17,-643.19 893.64,-353.42 906.56,-275.52"/>
<polygon fill="midnightblue" stroke="midnightblue" points="910.02,-276.04 908.13,-265.61 903.11,-274.94 910.02,-276.04"/>
</g>
<!-- Node9 -->
<g id="node9" class="node">
<title>Node9</title>
<g id="a_node9"><a xlink:href="class_export.html#abe75ae41d7cc8afe8f1ba4bbf67dfcfc" target="_top" xlink:title=" ">
<polygon fill="white" stroke="black" points="157,-441.5 157,-460.5 220,-460.5 220,-441.5 157,-441.5"/>
<text text-anchor="middle" x="188.5" y="-448.5" font-family="Helvetica,sans-Serif" font-size="10.00">Export::_f</text>
</a>
</g>
</g>
<!-- Node1&#45;&gt;Node9 -->
<g id="edge8" class="edge">
<title>Node1&#45;&gt;Node9</title>
<path fill="none" stroke="midnightblue" d="M51.2,-726.27C52.49,-688.12 62.26,-547.07 136,-470 139.24,-466.62 143.13,-463.83 147.31,-461.54"/>
<polygon fill="midnightblue" stroke="midnightblue" points="149.08,-464.58 156.76,-457.27 146.2,-458.2 149.08,-464.58"/>
</g>
<!-- Node10 -->
<g id="node10" class="node">
<title>Node10</title>
<g id="a_node10"><a xlink:href="class_export.html#a68e698a5654fc800aa78c512da8f23b1" target="_top" xlink:title=" ">
<polygon fill="white" stroke="black" points="141.5,-403.5 141.5,-422.5 235.5,-422.5 235.5,-403.5 141.5,-403.5"/>
<text text-anchor="middle" x="188.5" y="-410.5" font-family="Helvetica,sans-Serif" font-size="10.00">Export::_langStr</text>
</a>
</g>
</g>
<!-- Node1&#45;&gt;Node10 -->
<g id="edge9" class="edge">
<title>Node1&#45;&gt;Node10</title>
<path fill="none" stroke="midnightblue" d="M50.74,-726.35C50.15,-685.1 53.33,-521.63 136,-432 137.22,-430.68 138.54,-429.44 139.94,-428.3"/>
<polygon fill="midnightblue" stroke="midnightblue" points="142.2,-431 148.68,-422.62 138.39,-425.13 142.2,-431"/>
</g>
<!-- Node11 -->
<g id="node11" class="node">
<title>Node11</title>
<g id="a_node11"><a xlink:href="class_export.html#a33b5d571af76c0d4f9b9ee6e72afd8a6" target="_top" xlink:title=" ">
<polygon fill="white" stroke="black" points="136,-365.5 136,-384.5 241,-384.5 241,-365.5 136,-365.5"/>
<text text-anchor="middle" x="188.5" y="-372.5" font-family="Helvetica,sans-Serif" font-size="10.00">Export::_preCheck</text>
</a>
</g>
</g>
<!-- Node1&#45;&gt;Node11 -->
<g id="edge10" class="edge">
<title>Node1&#45;&gt;Node11</title>
<path fill="none" stroke="midnightblue" d="M52.16,-726.49C58.4,-676.64 89.46,-445.95 136,-394 137.2,-392.66 138.51,-391.41 139.89,-390.25"/>
<polygon fill="midnightblue" stroke="midnightblue" points="142.16,-392.95 148.58,-384.53 138.3,-387.11 142.16,-392.95"/>
</g>
<!-- Node13 -->
<g id="node13" class="node">
<title>Node13</title>
<g id="a_node13"><a xlink:href="class_log.html#a48b8faa1f9d2590c6fb650f1004e73c9" target="_top" xlink:title="Flush the buff into the log file.">
<polygon fill="white" stroke="black" points="157,-327.5 157,-346.5 220,-346.5 220,-327.5 157,-327.5"/>
<text text-anchor="middle" x="188.5" y="-334.5" font-family="Helvetica,sans-Serif" font-size="10.00">Log::flush</text>
</a>
</g>
</g>
<!-- Node1&#45;&gt;Node13 -->
<g id="edge14" class="edge">
<title>Node1&#45;&gt;Node13</title>
<path fill="none" stroke="midnightblue" d="M51.94,-726.15C57.23,-672.36 85.04,-414.26 136,-356 139.24,-352.29 143.27,-349.31 147.64,-346.91"/>
<polygon fill="midnightblue" stroke="midnightblue" points="149.24,-350.03 156.94,-342.75 146.38,-343.64 149.24,-350.03"/>
</g>
<!-- Node14 -->
<g id="node14" class="node">
<title>Node14</title>
<g id="a_node14"><a xlink:href="utils_8h.html#a88311911bb82476c66e267a39713c170" target="_top" xlink:title=" ">
<polygon fill="white" stroke="black" points="156,-726.5 156,-745.5 221,-745.5 221,-726.5 156,-726.5"/>
<text text-anchor="middle" x="188.5" y="-733.5" font-family="Helvetica,sans-Serif" font-size="10.00">trim_copy</text>
</a>
</g>
</g>
<!-- Node1&#45;&gt;Node14 -->
<g id="edge16" class="edge">
<title>Node1&#45;&gt;Node14</title>
<path fill="none" stroke="midnightblue" d="M100.28,-736C115.15,-736 131.33,-736 145.66,-736"/>
<polygon fill="midnightblue" stroke="midnightblue" points="145.73,-739.5 155.73,-736 145.73,-732.5 145.73,-739.5"/>
</g>
<!-- Node18 -->
<g id="node18" class="node">
<title>Node18</title>
<g id="a_node18"><a xlink:href="class_alg.html#ada1e8215f047b4ffd736e811b5ea3162" target="_top" xlink:title=" ">
<polygon fill="white" stroke="black" points="157,-479.5 157,-498.5 220,-498.5 220,-479.5 157,-479.5"/>
<text text-anchor="middle" x="188.5" y="-486.5" font-family="Helvetica,sans-Serif" font-size="10.00">Alg::write</text>
</a>
</g>
</g>
<!-- Node1&#45;&gt;Node18 -->
<g id="edge20" class="edge">
<title>Node1&#45;&gt;Node18</title>
<path fill="none" stroke="midnightblue" d="M56.35,-726.32C76.78,-689.35 150.07,-556.73 177.26,-507.54"/>
<polygon fill="midnightblue" stroke="midnightblue" points="180.41,-509.06 182.19,-498.62 174.29,-505.68 180.41,-509.06"/>
</g>
<!-- Node3&#45;&gt;Node4 -->
<g id="edge3" class="edge">
<title>Node3&#45;&gt;Node4</title>
<path fill="none" stroke="midnightblue" d="M611.92,-859.61C624.6,-863.22 638.18,-867.96 650,-874 668.05,-883.22 668.19,-892.32 686,-902 697.03,-908 709.85,-912.94 721.42,-916.76"/>
<polygon fill="midnightblue" stroke="midnightblue" points="720.61,-920.17 731.2,-919.81 722.7,-913.49 720.61,-920.17"/>
</g>
<!-- Node3&#45;&gt;Node5 -->
<g id="edge4" class="edge">
<title>Node3&#45;&gt;Node5</title>
<path fill="none" stroke="midnightblue" d="M611.92,-840.39C624.6,-836.78 638.18,-832.04 650,-826 668.05,-816.78 668.19,-807.68 686,-798 695.71,-792.72 706.81,-788.26 717.22,-784.66"/>
<polygon fill="midnightblue" stroke="midnightblue" points="718.51,-787.92 726.92,-781.48 716.33,-781.27 718.51,-787.92"/>
</g>
<!-- Node6 -->
<g id="node6" class="node">
<title>Node6</title>
<g id="a_node6"><a xlink:href="class_log.html#ac7147942832455398ad289b706a02616" target="_top" xlink:title="Write error message to the log file.">
<polygon fill="white" stroke="black" points="884,-579.5 884,-598.5 937,-598.5 937,-579.5 884,-579.5"/>
<text text-anchor="middle" x="910.5" y="-586.5" font-family="Helvetica,sans-Serif" font-size="10.00">Log::err</text>
</a>
</g>
</g>
<!-- Node3&#45;&gt;Node6 -->
<g id="edge5" class="edge">
<title>Node3&#45;&gt;Node6</title>
<path fill="none" stroke="midnightblue" d="M609.46,-859.53C673.79,-873.1 792.81,-893.74 826,-869 868.99,-836.96 897.92,-666.89 906.7,-608.61"/>
<polygon fill="midnightblue" stroke="midnightblue" points="910.19,-608.92 908.18,-598.52 903.26,-607.91 910.19,-608.92"/>
</g>
<!-- Node3&#45;&gt;Node7 -->
<g id="edge6" class="edge">
<title>Node3&#45;&gt;Node7</title>
<path fill="none" stroke="midnightblue" d="M627.11,-840.48C699.13,-828.43 812.39,-807.49 826,-793 828.28,-790.57 891.78,-372.81 906.48,-275.91"/>
<polygon fill="midnightblue" stroke="midnightblue" points="909.99,-276.14 908.03,-265.73 903.06,-275.09 909.99,-276.14"/>
</g>
<!-- Node8 -->
<g id="node8" class="node">
<title>Node8</title>
<g id="a_node8"><a xlink:href="class_log.html#ab61203710351f6d33d7ba634d2c4eb32" target="_top" xlink:title="Write warning message to the log file.">
<polygon fill="white" stroke="black" points="727,-840.5 727,-859.5 785,-859.5 785,-840.5 727,-840.5"/>
<text text-anchor="middle" x="756" y="-847.5" font-family="Helvetica,sans-Serif" font-size="10.00">Log::war</text>
</a>
</g>
</g>
<!-- Node3&#45;&gt;Node8 -->
<g id="edge7" class="edge">
<title>Node3&#45;&gt;Node8</title>
<path fill="none" stroke="midnightblue" d="M650.01,-850C673.22,-850 697.37,-850 716.64,-850"/>
<polygon fill="midnightblue" stroke="midnightblue" points="716.81,-853.5 726.81,-850 716.81,-846.5 716.81,-853.5"/>
</g>
<!-- Node12 -->
<g id="node12" class="node">
<title>Node12</title>
<g id="a_node12"><a xlink:href="error__code_8h.html#ae1bfa02e1106eff84ddecb9f7773a1a4" target="_top" xlink:title="Return the error message of the error code from class Err.">
<polygon fill="white" stroke="black" points="332,-42.5 332,-61.5 392,-61.5 392,-42.5 332,-42.5"/>
<text text-anchor="middle" x="362" y="-49.5" font-family="Helvetica,sans-Serif" font-size="10.00">errorMsg</text>
</a>
</g>
</g>
<!-- Node11&#45;&gt;Node12 -->
<g id="edge11" class="edge">
<title>Node11&#45;&gt;Node12</title>
<path fill="none" stroke="midnightblue" d="M229.61,-365.42C233.96,-362.97 237.92,-359.88 241,-356 320.43,-256.05 191.19,-165.54 277,-71 288.21,-58.65 305.6,-53.45 321.66,-51.52"/>
<polygon fill="midnightblue" stroke="midnightblue" points="322.26,-54.99 331.94,-50.69 321.69,-48.01 322.26,-54.99"/>
</g>
<!-- Node15 -->
<g id="node15" class="node">
<title>Node15</title>
<g id="a_node15"><a xlink:href="utils_8h.html#a6ef734356291c638e5787a6c668192d4" target="_top" xlink:title=" ">
<polygon fill="white" stroke="black" points="343.5,-726.5 343.5,-745.5 380.5,-745.5 380.5,-726.5 343.5,-726.5"/>
<text text-anchor="middle" x="362" y="-733.5" font-family="Helvetica,sans-Serif" font-size="10.00">trim</text>
</a>
</g>
</g>
<!-- Node14&#45;&gt;Node15 -->
<g id="edge17" class="edge">
<title>Node14&#45;&gt;Node15</title>
<path fill="none" stroke="midnightblue" d="M221.36,-736C253.45,-736 302.48,-736 333.09,-736"/>
<polygon fill="midnightblue" stroke="midnightblue" points="333.47,-739.5 343.47,-736 333.47,-732.5 333.47,-739.5"/>
</g>
<!-- Node16 -->
<g id="node16" class="node">
<title>Node16</title>
<g id="a_node16"><a xlink:href="utils_8h.html#a47084ee818936eef3c48be492c0e860f" target="_top" xlink:title=" ">
<polygon fill="white" stroke="black" points="546.5,-726.5 546.5,-745.5 586.5,-745.5 586.5,-726.5 546.5,-726.5"/>
<text text-anchor="middle" x="566.5" y="-733.5" font-family="Helvetica,sans-Serif" font-size="10.00">ltrim</text>
</a>
</g>
</g>
<!-- Node15&#45;&gt;Node16 -->
<g id="edge18" class="edge">
<title>Node15&#45;&gt;Node16</title>
<path fill="none" stroke="midnightblue" d="M380.62,-736C415.48,-736 493.58,-736 536.27,-736"/>
<polygon fill="midnightblue" stroke="midnightblue" points="536.31,-739.5 546.31,-736 536.31,-732.5 536.31,-739.5"/>
</g>
<!-- Node17 -->
<g id="node17" class="node">
<title>Node17</title>
<g id="a_node17"><a xlink:href="utils_8h.html#af6d6bd5c29782e3b958b5f7c0d1ea9e3" target="_top" xlink:title=" ">
<polygon fill="white" stroke="black" points="546,-688.5 546,-707.5 587,-707.5 587,-688.5 546,-688.5"/>
<text text-anchor="middle" x="566.5" y="-695.5" font-family="Helvetica,sans-Serif" font-size="10.00">rtrim</text>
</a>
</g>
</g>
<!-- Node15&#45;&gt;Node17 -->
<g id="edge19" class="edge">
<title>Node15&#45;&gt;Node17</title>
<path fill="none" stroke="midnightblue" d="M380.62,-732.69C415.3,-726.19 492.78,-711.65 535.61,-703.61"/>
<polygon fill="midnightblue" stroke="midnightblue" points="536.52,-707 545.71,-701.71 535.23,-700.12 536.52,-707"/>
</g>
<!-- Node18&#45;&gt;Node7 -->
<g id="edge39" class="edge">
<title>Node18&#45;&gt;Node7</title>
<path fill="none" stroke="midnightblue" d="M220.27,-483.42C228.05,-480.61 235.7,-476.37 241,-470 301.29,-397.54 205.16,-322.01 277,-261 322.08,-222.71 739.25,-245.33 870.3,-253.45"/>
<polygon fill="midnightblue" stroke="midnightblue" points="870.46,-256.97 880.66,-254.1 870.9,-249.98 870.46,-256.97"/>
</g>
<!-- Node18&#45;&gt;Node15 -->
<g id="edge57" class="edge">
<title>Node18&#45;&gt;Node15</title>
<path fill="none" stroke="midnightblue" d="M190.09,-498.58C192.8,-533.71 207.11,-656.51 277,-717 292.43,-730.35 315.27,-734.87 333.25,-736.17"/>
<polygon fill="midnightblue" stroke="midnightblue" points="333.29,-739.68 343.44,-736.62 333.6,-732.69 333.29,-739.68"/>
</g>
<!-- Node18&#45;&gt;Node18 -->
<g id="edge59" class="edge">
<title>Node18&#45;&gt;Node18</title>
<path fill="none" stroke="midnightblue" d="M167.23,-498.76C156.88,-507.57 163.97,-517 188.5,-517 204.21,-517 212.77,-513.13 214.17,-508.03"/>
<polygon fill="midnightblue" stroke="midnightblue" points="217.22,-506.29 209.77,-498.76 210.89,-509.29 217.22,-506.29"/>
</g>
<!-- Node19 -->
<g id="node19" class="node">
<title>Node19</title>
<g id="a_node19"><a xlink:href="class_alg.html#a2cf2b7f4e37c8e401d9c6dad6687917d" target="_top" xlink:title=" ">
<polygon fill="white" stroke="black" points="312,-688.5 312,-707.5 412,-707.5 412,-688.5 312,-688.5"/>
<text text-anchor="middle" x="362" y="-695.5" font-family="Helvetica,sans-Serif" font-size="10.00">Alg::_wComment</text>
</a>
</g>
</g>
<!-- Node18&#45;&gt;Node19 -->
<g id="edge21" class="edge">
<title>Node18&#45;&gt;Node19</title>
<path fill="none" stroke="midnightblue" d="M190.92,-498.71C196.04,-530.18 216.61,-630.08 277,-679 284.25,-684.87 292.96,-689.01 301.99,-691.92"/>
<polygon fill="midnightblue" stroke="midnightblue" points="301.28,-695.35 311.85,-694.6 303.12,-688.6 301.28,-695.35"/>
</g>
<!-- Node20 -->
<g id="node20" class="node">
<title>Node20</title>
<g id="a_node20"><a xlink:href="class_calc.html#ad6dbdfdd4bd21322e5836ff72c11ae1b" target="_top" xlink:title="Convert the Alg CALC contents into a language command.">
<polygon fill="white" stroke="black" points="539,-114.5 539,-133.5 594,-133.5 594,-114.5 539,-114.5"/>
<text text-anchor="middle" x="566.5" y="-121.5" font-family="Helvetica,sans-Serif" font-size="10.00">Calc::as</text>
</a>
</g>
</g>
<!-- Node18&#45;&gt;Node20 -->
<g id="edge22" class="edge">
<title>Node18&#45;&gt;Node20</title>
<path fill="none" stroke="midnightblue" d="M220.2,-483.68C228.08,-480.87 235.79,-476.57 241,-470 321.7,-368.23 188.35,-274.92 277,-180 277,-180 451.44,-146.14 529.03,-131.08"/>
<polygon fill="midnightblue" stroke="midnightblue" points="529.73,-134.51 538.88,-129.17 528.39,-127.64 529.73,-134.51"/>
</g>
<!-- Node31 -->
<g id="node31" class="node">
<title>Node31</title>
<g id="a_node31"><a xlink:href="class_type.html#abe15820e780d2f6646792d54f3ae3311" target="_top" xlink:title=" ">
<polygon fill="white" stroke="black" points="330,-650.5 330,-669.5 394,-669.5 394,-650.5 330,-650.5"/>
<text text-anchor="middle" x="362" y="-657.5" font-family="Helvetica,sans-Serif" font-size="10.00">Type::dim</text>
</a>
</g>
</g>
<!-- Node18&#45;&gt;Node31 -->
<g id="edge36" class="edge">
<title>Node18&#45;&gt;Node31</title>
<path fill="none" stroke="midnightblue" d="M192.09,-498.67C199.87,-525.82 225.78,-603.23 277,-641 289.2,-650 304.91,-654.85 319.44,-657.43"/>
<polygon fill="midnightblue" stroke="midnightblue" points="319.34,-660.95 329.75,-658.93 320.35,-654.02 319.34,-660.95"/>
</g>
<!-- Node32 -->
<g id="node32" class="node">
<title>Node32</title>
<g id="a_node32"><a xlink:href="class_alg___line.html#af651454e6ddfce164626b68b2c6cba97" target="_top" xlink:title="Get the function name.">
<polygon fill="white" stroke="black" points="319.5,-612.5 319.5,-631.5 404.5,-631.5 404.5,-612.5 319.5,-612.5"/>
<text text-anchor="middle" x="362" y="-619.5" font-family="Helvetica,sans-Serif" font-size="10.00">Alg_Line::func</text>
</a>
</g>
</g>
<!-- Node18&#45;&gt;Node32 -->
<g id="edge37" class="edge">
<title>Node18&#45;&gt;Node32</title>
<path fill="none" stroke="midnightblue" d="M194.03,-498.78C204.91,-521.11 234.76,-575.97 277,-603 286.74,-609.23 298.26,-613.43 309.6,-616.26"/>
<polygon fill="midnightblue" stroke="midnightblue" points="308.95,-619.7 319.47,-618.41 310.44,-612.86 308.95,-619.7"/>
</g>
<!-- Node33 -->
<g id="node33" class="node">
<title>Node33</title>
<g id="a_node33"><a xlink:href="class_alg___line.html#a49a98870a1f09e35a3e15a7d7bab1666" target="_top" xlink:title="Check whether parameters contain the key.">
<polygon fill="white" stroke="black" points="312.5,-574.5 312.5,-593.5 411.5,-593.5 411.5,-574.5 312.5,-574.5"/>
<text text-anchor="middle" x="362" y="-581.5" font-family="Helvetica,sans-Serif" font-size="10.00">Alg_Line::hasKey</text>
</a>
</g>
</g>
<!-- Node18&#45;&gt;Node33 -->
<g id="edge38" class="edge">
<title>Node18&#45;&gt;Node33</title>
<path fill="none" stroke="midnightblue" d="M197.6,-498.62C211.88,-514.93 243.25,-547.91 277,-565 284.95,-569.02 293.74,-572.21 302.57,-574.72"/>
<polygon fill="midnightblue" stroke="midnightblue" points="301.94,-578.17 312.49,-577.28 303.68,-571.39 301.94,-578.17"/>
</g>
<!-- Node34 -->
<g id="node34" class="node">
<title>Node34</title>
<g id="a_node34"><a xlink:href="class_alg.html#a3ee7f9963027158b3fbd442d97800111" target="_top" xlink:title=" ">
<polygon fill="white" stroke="black" points="319,-118.5 319,-137.5 405,-137.5 405,-118.5 319,-118.5"/>
<text text-anchor="middle" x="362" y="-125.5" font-family="Helvetica,sans-Serif" font-size="10.00">Alg::inlineCalc</text>
</a>
</g>
</g>
<!-- Node18&#45;&gt;Node34 -->
<g id="edge40" class="edge">
<title>Node18&#45;&gt;Node34</title>
<path fill="none" stroke="midnightblue" d="M220.24,-483.72C228.12,-480.91 235.82,-476.6 241,-470 328.77,-358.08 185.09,-260.55 277,-152 285.2,-142.32 297.01,-136.4 309.19,-132.82"/>
<polygon fill="midnightblue" stroke="midnightblue" points="310.1,-136.2 318.98,-130.43 308.43,-129.4 310.1,-136.2"/>
</g>
<!-- Node35 -->
<g id="node35" class="node">
<title>Node35</title>
<g id="a_node35"><a xlink:href="class_alg___line.html#ad419191a99be7e34024e569ad833b04e" target="_top" xlink:title="Check whether the line is for function declaration.">
<polygon fill="white" stroke="black" points="277,-536.5 277,-555.5 447,-555.5 447,-536.5 277,-536.5"/>
<text text-anchor="middle" x="362" y="-543.5" font-family="Helvetica,sans-Serif" font-size="10.00">Alg_Line::isFunctionDeclaration</text>
</a>
</g>
</g>
<!-- Node18&#45;&gt;Node35 -->
<g id="edge42" class="edge">
<title>Node18&#45;&gt;Node35</title>
<path fill="none" stroke="midnightblue" d="M208.56,-498.51C226.02,-506.93 252.76,-519.07 277,-527 284.97,-529.61 293.47,-531.98 301.9,-534.1"/>
<polygon fill="midnightblue" stroke="midnightblue" points="301.18,-537.53 311.72,-536.47 302.82,-530.72 301.18,-537.53"/>
</g>
<!-- Node36 -->
<g id="node36" class="node">
<title>Node36</title>
<g id="a_node36"><a xlink:href="class_alg.html#af935e64a6eb4afa4ca1540f4da3dcc9c" target="_top" xlink:title=" ">
<polygon fill="white" stroke="black" points="334,-498.5 334,-517.5 390,-517.5 390,-498.5 334,-498.5"/>
<text text-anchor="middle" x="362" y="-505.5" font-family="Helvetica,sans-Serif" font-size="10.00">Alg::line</text>
</a>
</g>
</g>
<!-- Node18&#45;&gt;Node36 -->
<g id="edge43" class="edge">
<title>Node18&#45;&gt;Node36</title>
<path fill="none" stroke="midnightblue" d="M220.16,-492.4C249.25,-495.62 292.99,-500.47 324,-503.9"/>
<polygon fill="midnightblue" stroke="midnightblue" points="323.67,-507.39 333.99,-505.01 324.44,-500.43 323.67,-507.39"/>
</g>
<!-- Node37 -->
<g id="node37" class="node">
<title>Node37</title>
<g id="a_node37"><a xlink:href="class_alg___line.html#a4e79eb77a1cddbdab1dbdde8a499342d" target="_top" xlink:title="Parameter variables.">
<polygon fill="white" stroke="black" points="311.5,-460.5 311.5,-479.5 412.5,-479.5 412.5,-460.5 311.5,-460.5"/>
<text text-anchor="middle" x="362" y="-467.5" font-family="Helvetica,sans-Serif" font-size="10.00">Alg_Line::params</text>
</a>
</g>
</g>
<!-- Node18&#45;&gt;Node37 -->
<g id="edge44" class="edge">
<title>Node18&#45;&gt;Node37</title>
<path fill="none" stroke="midnightblue" d="M220.16,-485.6C242.63,-483.11 273.85,-479.66 301.19,-476.63"/>
<polygon fill="midnightblue" stroke="midnightblue" points="301.89,-480.07 311.45,-475.49 301.12,-473.11 301.89,-480.07"/>
</g>
<!-- Node38 -->
<g id="node38" class="node">
<title>Node38</title>
<g id="a_node38"><a xlink:href="class_alg___line.html#a801b08c6c164376039a4ba4e980d039e" target="_top" xlink:title="Print Alg_Line contents (including return values, function names and parameters).">
<polygon fill="white" stroke="black" points="319,-308.5 319,-327.5 405,-327.5 405,-308.5 319,-308.5"/>
<text text-anchor="middle" x="362" y="-315.5" font-family="Helvetica,sans-Serif" font-size="10.00">Alg_Line::print</text>
</a>
</g>
</g>
<!-- Node18&#45;&gt;Node38 -->
<g id="edge45" class="edge">
<title>Node18&#45;&gt;Node38</title>
<path fill="none" stroke="midnightblue" d="M220.15,-482.99C227.84,-480.18 235.47,-476.05 241,-470 282.33,-424.81 232.8,-379.39 277,-337 285.68,-328.67 297.21,-323.7 308.93,-320.8"/>
<polygon fill="midnightblue" stroke="midnightblue" points="309.65,-324.23 318.76,-318.83 308.27,-317.37 309.65,-324.23"/>
</g>
<!-- Node40 -->
<g id="node40" class="node">
<title>Node40</title>
<g id="a_node40"><a xlink:href="class_type___track.html#a4548ba1c289fba60e88b0e725509219e" target="_top" xlink:title=" ">
<polygon fill="white" stroke="black" points="517,-194.5 517,-213.5 616,-213.5 616,-194.5 517,-194.5"/>
<text text-anchor="middle" x="566.5" y="-201.5" font-family="Helvetica,sans-Serif" font-size="10.00">Type_Track::push</text>
</a>
</g>
</g>
<!-- Node18&#45;&gt;Node40 -->
<g id="edge48" class="edge">
<title>Node18&#45;&gt;Node40</title>
<path fill="none" stroke="midnightblue" d="M220.09,-483.6C227.97,-480.79 235.71,-476.51 241,-470 309.59,-385.62 197.66,-302.36 277,-228 342.13,-166.95 455.76,-179.06 519.24,-192.2"/>
<polygon fill="midnightblue" stroke="midnightblue" points="518.84,-195.7 529.35,-194.39 520.32,-188.86 518.84,-195.7"/>
</g>
<!-- Node41 -->
<g id="node41" class="node">
<title>Node41</title>
<g id="a_node41"><a xlink:href="utils_8h.html#a0465457013518e168df05799c93cfa6e" target="_top" xlink:title=" ">
<polygon fill="white" stroke="black" points="320.5,-422.5 320.5,-441.5 403.5,-441.5 403.5,-422.5 320.5,-422.5"/>
<text text-anchor="middle" x="362" y="-429.5" font-family="Helvetica,sans-Serif" font-size="10.00">removeQuote</text>
</a>
</g>
</g>
<!-- Node18&#45;&gt;Node41 -->
<g id="edge50" class="edge">
<title>Node18&#45;&gt;Node41</title>
<path fill="none" stroke="midnightblue" d="M217.57,-479.41C225.25,-476.58 233.51,-473.34 241,-470 257.52,-462.63 260.03,-457.27 277,-451 287.52,-447.11 299.09,-443.87 310.19,-441.23"/>
<polygon fill="midnightblue" stroke="midnightblue" points="311.22,-444.59 320.21,-438.97 309.69,-437.76 311.22,-444.59"/>
</g>
<!-- Node43 -->
<g id="node43" class="node">
<title>Node43</title>
<g id="a_node43"><a xlink:href="class_alg___line.html#a8e21f6b69eaf80a2327f7308fb4299e0" target="_top" xlink:title="Return variables.">
<polygon fill="white" stroke="black" points="313,-384.5 313,-403.5 411,-403.5 411,-384.5 313,-384.5"/>
<text text-anchor="middle" x="362" y="-391.5" font-family="Helvetica,sans-Serif" font-size="10.00">Alg_Line::returns</text>
</a>
</g>
</g>
<!-- Node18&#45;&gt;Node43 -->
<g id="edge52" class="edge">
<title>Node18&#45;&gt;Node43</title>
<path fill="none" stroke="midnightblue" d="M220.11,-481.41C227.46,-478.63 234.93,-474.92 241,-470 264.29,-451.15 252.53,-430.29 277,-413 284.8,-407.49 293.92,-403.55 303.24,-400.74"/>
<polygon fill="midnightblue" stroke="midnightblue" points="304.18,-404.11 312.96,-398.19 302.4,-397.34 304.18,-404.11"/>
</g>
<!-- Node44 -->
<g id="node44" class="node">
<title>Node44</title>
<g id="a_node44"><a xlink:href="class_type.html#a0153b8ff39040caf3ff2a6f7c7329d7c" target="_top" xlink:title="Get the C++ type name.">
<polygon fill="white" stroke="black" points="325.5,-346.5 325.5,-365.5 398.5,-365.5 398.5,-346.5 325.5,-346.5"/>
<text text-anchor="middle" x="362" y="-353.5" font-family="Helvetica,sans-Serif" font-size="10.00">Type::string</text>
</a>
</g>
</g>
<!-- Node18&#45;&gt;Node44 -->
<g id="edge53" class="edge">
<title>Node18&#45;&gt;Node44</title>
<path fill="none" stroke="midnightblue" d="M220.04,-482.53C227.64,-479.71 235.25,-475.7 241,-470 273.07,-438.21 242.92,-404.62 277,-375 287.52,-365.86 301.52,-360.85 315.07,-358.19"/>
<polygon fill="midnightblue" stroke="midnightblue" points="315.95,-361.59 325.28,-356.57 314.85,-354.68 315.95,-361.59"/>
</g>
<!-- Node47 -->
<g id="node47" class="node">
<title>Node47</title>
<g id="a_node47"><a xlink:href="namespacemmce.html#ad4a160832ef9fad47c531ece39752208" target="_top" xlink:title="Change a number to string.">
<polygon fill="white" stroke="black" points="314,-270.5 314,-289.5 410,-289.5 410,-270.5 314,-270.5"/>
<text text-anchor="middle" x="362" y="-277.5" font-family="Helvetica,sans-Serif" font-size="10.00">mmce::to_string</text>
</a>
</g>
</g>
<!-- Node18&#45;&gt;Node47 -->
<g id="edge56" class="edge">
<title>Node18&#45;&gt;Node47</title>
<path fill="none" stroke="midnightblue" d="M220.11,-483.3C227.9,-480.48 235.58,-476.27 241,-470 291.77,-411.22 222.49,-354.33 277,-299 284.32,-291.57 293.88,-286.78 303.92,-283.74"/>
<polygon fill="midnightblue" stroke="midnightblue" points="304.77,-287.14 313.63,-281.34 303.09,-280.34 304.77,-287.14"/>
</g>
<!-- Node48 -->
<g id="node48" class="node">
<title>Node48</title>
<g id="a_node48"><a xlink:href="class_log.html#a3410828f35c9bf8dd0771ead28de27b0" target="_top" xlink:title="Write contents to the log file.">
<polygon fill="white" stroke="black" points="329.5,-80.5 329.5,-99.5 394.5,-99.5 394.5,-80.5 329.5,-80.5"/>
<text text-anchor="middle" x="362" y="-87.5" font-family="Helvetica,sans-Serif" font-size="10.00">Log::write</text>
</a>
</g>
</g>
<!-- Node18&#45;&gt;Node48 -->
<g id="edge58" class="edge">
<title>Node18&#45;&gt;Node48</title>
<path fill="none" stroke="midnightblue" d="M220.03,-483.86C228,-481.05 235.81,-476.71 241,-470 290.33,-406.23 223.61,-169.4 277,-109 287.56,-97.05 303.9,-91.76 319.37,-89.66"/>
<polygon fill="midnightblue" stroke="midnightblue" points="319.72,-93.14 329.34,-88.69 319.05,-86.17 319.72,-93.14"/>
</g>
<!-- Node21 -->
<g id="node21" class="node">
<title>Node21</title>
<g id="a_node21"><a xlink:href="class_calc.html#af1d1bd5e83f9e5196627f5a4e1a5ee83" target="_top" xlink:title=" ">
<polygon fill="white" stroke="black" points="693.5,-76.5 693.5,-95.5 818.5,-95.5 818.5,-76.5 693.5,-76.5"/>
<text text-anchor="middle" x="756" y="-83.5" font-family="Helvetica,sans-Serif" font-size="10.00">Calc::_changeFunction</text>
</a>
</g>
</g>
<!-- Node20&#45;&gt;Node21 -->
<g id="edge23" class="edge">
<title>Node20&#45;&gt;Node21</title>
<path fill="none" stroke="midnightblue" d="M594.36,-118.56C621.28,-113.1 663.53,-104.54 697.95,-97.56"/>
<polygon fill="midnightblue" stroke="midnightblue" points="698.78,-100.96 707.89,-95.55 697.39,-94.1 698.78,-100.96"/>
</g>
<!-- Node24 -->
<g id="node24" class="node">
<title>Node24</title>
<g id="a_node24"><a xlink:href="class_calc.html#ae3d88bd40f9bdf2c8ec92c426bdca446" target="_top" xlink:title=" ">
<polygon fill="white" stroke="black" points="692.5,-38.5 692.5,-57.5 819.5,-57.5 819.5,-38.5 692.5,-38.5"/>
<text text-anchor="middle" x="756" y="-45.5" font-family="Helvetica,sans-Serif" font-size="10.00">Calc::_changeOperator</text>
</a>
</g>
</g>
<!-- Node20&#45;&gt;Node24 -->
<g id="edge26" class="edge">
<title>Node20&#45;&gt;Node24</title>
<path fill="none" stroke="midnightblue" d="M584.74,-114.49C607.43,-102.26 648.8,-80.94 686,-67 692.33,-64.63 699.09,-62.4 705.81,-60.38"/>
<polygon fill="midnightblue" stroke="midnightblue" points="706.93,-63.69 715.56,-57.55 704.98,-56.97 706.93,-63.69"/>
</g>
<!-- Node25 -->
<g id="node25" class="node">
<title>Node25</title>
<g id="a_node25"><a xlink:href="class_calc.html#ad95be528148e0d63848d5fa916b93200" target="_top" xlink:title=" ">
<polygon fill="white" stroke="black" points="700.5,-0.5 700.5,-19.5 811.5,-19.5 811.5,-0.5 700.5,-0.5"/>
<text text-anchor="middle" x="756" y="-7.5" font-family="Helvetica,sans-Serif" font-size="10.00">Calc::_changeParen</text>
</a>
</g>
</g>
<!-- Node20&#45;&gt;Node25 -->
<g id="edge27" class="edge">
<title>Node20&#45;&gt;Node25</title>
<path fill="none" stroke="midnightblue" d="M576.68,-114.37C595.42,-95.27 640.21,-52.39 686,-29 690.52,-26.69 695.35,-24.64 700.28,-22.81"/>
<polygon fill="midnightblue" stroke="midnightblue" points="701.48,-26.1 709.83,-19.58 699.23,-19.47 701.48,-26.1"/>
</g>
<!-- Node26 -->
<g id="node26" class="node">
<title>Node26</title>
<g id="a_node26"><a xlink:href="class_calc.html#ad562619fef96a73cd3b4c27b35bc5f91" target="_top" xlink:title=" ">
<polygon fill="white" stroke="black" points="691,-114.5 691,-133.5 821,-133.5 821,-114.5 691,-114.5"/>
<text text-anchor="middle" x="756" y="-121.5" font-family="Helvetica,sans-Serif" font-size="10.00">Calc::_changeSubScript</text>
</a>
</g>
</g>
<!-- Node20&#45;&gt;Node26 -->
<g id="edge28" class="edge">
<title>Node20&#45;&gt;Node26</title>
<path fill="none" stroke="midnightblue" d="M594.36,-124C616.93,-124 650.27,-124 680.74,-124"/>
<polygon fill="midnightblue" stroke="midnightblue" points="680.95,-127.5 690.95,-124 680.95,-120.5 680.95,-127.5"/>
</g>
<!-- Node30 -->
<g id="node30" class="node">
<title>Node30</title>
<g id="a_node30"><a xlink:href="class_calc.html#a1aec4748092712e0995c0ae5dabbf54f" target="_top" xlink:title=" ">
<polygon fill="white" stroke="black" points="686,-170.5 686,-189.5 826,-189.5 826,-170.5 686,-170.5"/>
<text text-anchor="middle" x="756" y="-177.5" font-family="Helvetica,sans-Serif" font-size="10.00">Calc::_changeSuperScript</text>
</a>
</g>
</g>
<!-- Node20&#45;&gt;Node30 -->
<g id="edge35" class="edge">
<title>Node20&#45;&gt;Node30</title>
<path fill="none" stroke="midnightblue" d="M594.25,-132.64C618.21,-140.31 654.36,-151.71 686,-161 693.63,-163.24 701.75,-165.55 709.65,-167.75"/>
<polygon fill="midnightblue" stroke="midnightblue" points="708.91,-171.17 719.48,-170.47 710.77,-164.43 708.91,-171.17"/>
</g>
<!-- Node22 -->
<g id="node22" class="node">
<title>Node22</title>
<g id="a_node22"><a xlink:href="class_calc.html#a7d793eba0a7c9fcbafec4310359f165d" target="_top" xlink:title=" ">
<polygon fill="white" stroke="black" points="864,-76.5 864,-95.5 957,-95.5 957,-76.5 864,-76.5"/>
<text text-anchor="middle" x="910.5" y="-83.5" font-family="Helvetica,sans-Serif" font-size="10.00">Calc::_addArma</text>
</a>
</g>
</g>
<!-- Node21&#45;&gt;Node22 -->
<g id="edge24" class="edge">
<title>Node21&#45;&gt;Node22</title>
<path fill="none" stroke="midnightblue" d="M818.59,-86C830.11,-86 842.09,-86 853.43,-86"/>
<polygon fill="midnightblue" stroke="midnightblue" points="853.63,-89.5 863.63,-86 853.63,-82.5 853.63,-89.5"/>
</g>
<!-- Node23 -->
<g id="node23" class="node">
<title>Node23</title>
<g id="a_node23"><a xlink:href="class_calc.html#af58cd6a2174e577a6246366de03b949e" target="_top" xlink:title=" ">
<polygon fill="white" stroke="black" points="862,-38.5 862,-57.5 959,-57.5 959,-38.5 862,-38.5"/>
<text text-anchor="middle" x="910.5" y="-45.5" font-family="Helvetica,sans-Serif" font-size="10.00">Calc::_addMmce</text>
</a>
</g>
</g>
<!-- Node21&#45;&gt;Node23 -->
<g id="edge25" class="edge">
<title>Node21&#45;&gt;Node23</title>
<path fill="none" stroke="midnightblue" d="M795.48,-76.41C815.52,-71.42 840.2,-65.27 861.48,-59.97"/>
<polygon fill="midnightblue" stroke="midnightblue" points="862.44,-63.33 871.29,-57.52 860.74,-56.54 862.44,-63.33"/>
</g>
<!-- Node26&#45;&gt;Node6 -->
<g id="edge31" class="edge">
<title>Node26&#45;&gt;Node6</title>
<path fill="none" stroke="midnightblue" d="M787.59,-133.56C801.33,-139.37 816.56,-148.2 826,-161 850.85,-194.68 895.07,-489.51 906.66,-569.21"/>
<polygon fill="midnightblue" stroke="midnightblue" points="903.23,-569.96 908.12,-579.35 910.16,-568.95 903.23,-569.96"/>
</g>
<!-- Node26&#45;&gt;Node7 -->
<g id="edge32" class="edge">
<title>Node26&#45;&gt;Node7</title>
<path fill="none" stroke="midnightblue" d="M781.99,-133.57C796.06,-139.84 813.31,-149.09 826,-161 848.12,-181.76 841.72,-196.44 862,-219 869.05,-226.85 877.93,-234.26 886.09,-240.36"/>
<polygon fill="midnightblue" stroke="midnightblue" points="884.07,-243.21 894.24,-246.2 888.15,-237.53 884.07,-243.21"/>
</g>
<!-- Node26&#45;&gt;Node26 -->
<g id="edge29" class="edge">
<title>Node26&#45;&gt;Node26</title>
<path fill="none" stroke="midnightblue" d="M732.26,-133.76C720.72,-142.57 728.63,-152 756,-152 773.96,-152 783.54,-147.94 784.75,-142.65"/>
<polygon fill="midnightblue" stroke="midnightblue" points="787.69,-140.75 779.74,-133.76 781.59,-144.19 787.69,-140.75"/>
</g>
<!-- Node27 -->
<g id="node27" class="node">
<title>Node27</title>
<g id="a_node27"><a xlink:href="class_calc.html#a284818e83b0d85bdd029f3d72d4ef0bd" target="_top" xlink:title=" ">
<polygon fill="white" stroke="black" points="875.5,-114.5 875.5,-133.5 945.5,-133.5 945.5,-114.5 875.5,-114.5"/>
<text text-anchor="middle" x="910.5" y="-121.5" font-family="Helvetica,sans-Serif" font-size="10.00">Calc::_msg</text>
</a>
</g>
</g>
<!-- Node26&#45;&gt;Node27 -->
<g id="edge30" class="edge">
<title>Node26&#45;&gt;Node27</title>
<path fill="none" stroke="midnightblue" d="M821.23,-124C836.02,-124 851.43,-124 865.16,-124"/>
<polygon fill="midnightblue" stroke="midnightblue" points="865.28,-127.5 875.28,-124 865.28,-120.5 865.28,-127.5"/>
</g>
<!-- Node28 -->
<g id="node28" class="node">
<title>Node28</title>
<g id="a_node28"><a xlink:href="utils_8h.html#aa0a3ba0e1cec6f6b77334767af46eef7" target="_top" xlink:title="Check if the string is an unsigned integer.">
<polygon fill="white" stroke="black" points="888,-190.5 888,-209.5 933,-209.5 933,-190.5 888,-190.5"/>
<text text-anchor="middle" x="910.5" y="-197.5" font-family="Helvetica,sans-Serif" font-size="10.00">isUInt</text>
</a>
</g>
</g>
<!-- Node26&#45;&gt;Node28 -->
<g id="edge33" class="edge">
<title>Node26&#45;&gt;Node28</title>
<path fill="none" stroke="midnightblue" d="M774.91,-133.51C788.86,-140.94 808.7,-151.56 826,-161 842.07,-169.77 845.47,-173.14 862,-181 867.21,-183.48 872.84,-185.92 878.34,-188.19"/>
<polygon fill="midnightblue" stroke="midnightblue" points="877.39,-191.58 887.97,-192.05 879.99,-185.08 877.39,-191.58"/>
</g>
<!-- Node29 -->
<g id="node29" class="node">
<title>Node29</title>
<g id="a_node29"><a xlink:href="class_type___track.html#ab510214767b1b4d71e3beadecb814bb7" target="_top" xlink:title=" ">
<polygon fill="white" stroke="black" points="863,-152.5 863,-171.5 958,-171.5 958,-152.5 863,-152.5"/>
<text text-anchor="middle" x="910.5" y="-159.5" font-family="Helvetica,sans-Serif" font-size="10.00">Type_Track::size</text>
</a>
</g>
</g>
<!-- Node26&#45;&gt;Node29 -->
<g id="edge34" class="edge">
<title>Node26&#45;&gt;Node29</title>
<path fill="none" stroke="midnightblue" d="M795.48,-133.59C815.52,-138.58 840.2,-144.73 861.48,-150.03"/>
<polygon fill="midnightblue" stroke="midnightblue" points="860.74,-153.46 871.29,-152.48 862.44,-146.67 860.74,-153.46"/>
</g>
<!-- Node34&#45;&gt;Node20 -->
<g id="edge41" class="edge">
<title>Node34&#45;&gt;Node20</title>
<path fill="none" stroke="midnightblue" d="M405.45,-127.16C441.92,-126.44 493.97,-125.41 528.7,-124.73"/>
<polygon fill="midnightblue" stroke="midnightblue" points="528.96,-128.22 538.89,-124.53 528.82,-121.22 528.96,-128.22"/>
</g>
<!-- Node39 -->
<g id="node39" class="node">
<title>Node39</title>
<g id="a_node39"><a xlink:href="functions_8h.html#ac9dc58cb94b7547813c3a35154d97d18" target="_top" xlink:title=" ">
<polygon fill="white" stroke="black" points="527,-308.5 527,-327.5 606,-327.5 606,-308.5 527,-308.5"/>
<text text-anchor="middle" x="566.5" y="-315.5" font-family="Helvetica,sans-Serif" font-size="10.00">isFuncNoEnd</text>
</a>
</g>
</g>
<!-- Node38&#45;&gt;Node39 -->
<g id="edge46" class="edge">
<title>Node38&#45;&gt;Node39</title>
<path fill="none" stroke="midnightblue" d="M405.45,-318C437.93,-318 482.76,-318 516.71,-318"/>
<polygon fill="midnightblue" stroke="midnightblue" points="516.87,-321.5 526.87,-318 516.87,-314.5 516.87,-321.5"/>
</g>
<!-- Node39&#45;&gt;Node5 -->
<g id="edge47" class="edge">
<title>Node39&#45;&gt;Node5</title>
<path fill="none" stroke="midnightblue" d="M606.19,-318.39C621.67,-320.51 638.51,-325.62 650,-337 710.9,-397.33 744.61,-676.02 752.94,-753.79"/>
<polygon fill="midnightblue" stroke="midnightblue" points="749.5,-754.55 754.02,-764.13 756.46,-753.82 749.5,-754.55"/>
</g>
<!-- Node40&#45;&gt;Node7 -->
<g id="edge49" class="edge">
<title>Node40&#45;&gt;Node7</title>
<path fill="none" stroke="midnightblue" d="M616.14,-210.85C668.13,-218.25 752.96,-230.51 826,-242 840.72,-244.32 856.88,-246.99 871.03,-249.38"/>
<polygon fill="midnightblue" stroke="midnightblue" points="870.48,-252.84 880.93,-251.06 871.65,-245.94 870.48,-252.84"/>
</g>
<!-- Node42 -->
<g id="node42" class="node">
<title>Node42</title>
<g id="a_node42"><a xlink:href="utils_8h.html#aaaee605fe46abaa420448438d89b22ed" target="_top" xlink:title=" ">
<polygon fill="white" stroke="black" points="536.5,-422.5 536.5,-441.5 596.5,-441.5 596.5,-422.5 536.5,-422.5"/>
<text text-anchor="middle" x="566.5" y="-429.5" font-family="Helvetica,sans-Serif" font-size="10.00">isQuoted</text>
</a>
</g>
</g>
<!-- Node41&#45;&gt;Node42 -->
<g id="edge51" class="edge">
<title>Node41&#45;&gt;Node42</title>
<path fill="none" stroke="midnightblue" d="M403.98,-432C439.59,-432 490.84,-432 526,-432"/>
<polygon fill="midnightblue" stroke="midnightblue" points="526.37,-435.5 536.37,-432 526.37,-428.5 526.37,-435.5"/>
</g>
<!-- Node45 -->
<g id="node45" class="node">
<title>Node45</title>
<g id="a_node45"><a xlink:href="class_type.html#a5b8adffb334040c53940ecf814ebcc65" target="_top" xlink:title=" ">
<polygon fill="white" stroke="black" points="519,-384.5 519,-403.5 614,-403.5 614,-384.5 519,-384.5"/>
<text text-anchor="middle" x="566.5" y="-391.5" font-family="Helvetica,sans-Serif" font-size="10.00">Type::_getString</text>
</a>
</g>
</g>
<!-- Node44&#45;&gt;Node45 -->
<g id="edge54" class="edge">
<title>Node44&#45;&gt;Node45</title>
<path fill="none" stroke="midnightblue" d="M398.74,-362.71C429.12,-368.41 473.29,-376.7 508.55,-383.31"/>
<polygon fill="midnightblue" stroke="midnightblue" points="508.23,-386.81 518.7,-385.22 509.52,-379.93 508.23,-386.81"/>
</g>
<!-- Node46 -->
<g id="node46" class="node">
<title>Node46</title>
<g id="a_node46"><a xlink:href="class_type.html#a836b463aa4740a234e0d304ed4cd958f" target="_top" xlink:title=" ">
<polygon fill="white" stroke="black" points="517,-346.5 517,-365.5 616,-365.5 616,-346.5 517,-346.5"/>
<text text-anchor="middle" x="566.5" y="-353.5" font-family="Helvetica,sans-Serif" font-size="10.00">Type::isUnknown</text>
</a>
</g>
</g>
<!-- Node44&#45;&gt;Node46 -->
<g id="edge55" class="edge">
<title>Node44&#45;&gt;Node46</title>
<path fill="none" stroke="midnightblue" d="M398.74,-356C428.6,-356 471.8,-356 506.74,-356"/>
<polygon fill="midnightblue" stroke="midnightblue" points="506.83,-359.5 516.83,-356 506.83,-352.5 506.83,-359.5"/>
</g>
</g>
</svg>
