<?xml version="1.0" encoding="UTF-8" standalone="no"?>
<!DOCTYPE svg PUBLIC "-//W3C//DTD SVG 1.1//EN"
 "http://www.w3.org/Graphics/SVG/1.1/DTD/svg11.dtd">
<!-- Generated by graphviz version 2.43.0 (0)
 -->
<!-- Title: Export::_asStr Pages: 1 -->
<svg width="746pt" height="363pt"
 viewBox="0.00 0.00 746.00 363.05" xmlns="http://www.w3.org/2000/svg" xmlns:xlink="http://www.w3.org/1999/xlink">
<g id="graph0" class="graph" transform="scale(1 1) rotate(0) translate(4 359.05)">
<title>Export::_asStr</title>
<polygon fill="white" stroke="transparent" points="-4,4 -4,-359.05 742,-359.05 742,4 -4,4"/>
<!-- Node1 -->
<g id="node1" class="node">
<title>Node1</title>
<g id="a_node1"><a xlink:title=" ">
<polygon fill="#bfbfbf" stroke="black" points="654,-171.5 654,-190.5 738,-190.5 738,-171.5 654,-171.5"/>
<text text-anchor="middle" x="696" y="-178.5" font-family="Helvetica,sans-Serif" font-size="10.00">Export::_asStr</text>
</a>
</g>
</g>
<!-- Node2 -->
<g id="node2" class="node">
<title>Node2</title>
<g id="a_node2"><a xlink:href="class_export.html#a89d3ae54dd2261cf35be148011b79fe4" target="_top" xlink:title=" ">
<polygon fill="white" stroke="black" points="310,-304.5 310,-323.5 422,-323.5 422,-304.5 310,-304.5"/>
<text text-anchor="middle" x="366" y="-311.5" font-family="Helvetica,sans-Serif" font-size="10.00">Export::_algorithms</text>
</a>
</g>
</g>
<!-- Node1&#45;&gt;Node2 -->
<g id="edge1" class="edge">
<title>Node1&#45;&gt;Node2</title>
<path fill="none" stroke="midnightblue" d="M691.69,-200.95C684.84,-235.07 665.55,-303.78 618,-333 544.46,-378.18 435,-342.34 388.81,-323.6"/>
<polygon fill="midnightblue" stroke="midnightblue" points="695.19,-201.28 693.56,-190.81 688.31,-200.01 695.19,-201.28"/>
</g>
<!-- Node6 -->
<g id="node6" class="node">
<title>Node6</title>
<g id="a_node6"><a xlink:href="class_export.html#ae4811e1e4212029122c0ee29613714cc" target="_top" xlink:title=" ">
<polygon fill="white" stroke="black" points="491,-266.5 491,-285.5 603,-285.5 603,-266.5 491,-266.5"/>
<text text-anchor="middle" x="547" y="-273.5" font-family="Helvetica,sans-Serif" font-size="10.00">Export::_estimation</text>
</a>
</g>
</g>
<!-- Node1&#45;&gt;Node6 -->
<g id="edge5" class="edge">
<title>Node1&#45;&gt;Node6</title>
<path fill="none" stroke="midnightblue" d="M680.28,-198.18C665.83,-214.08 642.47,-237.41 618,-252 607.96,-257.99 596.21,-262.75 585.24,-266.4"/>
<polygon fill="midnightblue" stroke="midnightblue" points="682.96,-200.43 686.97,-190.62 677.72,-195.78 682.96,-200.43"/>
</g>
<!-- Node7 -->
<g id="node7" class="node">
<title>Node7</title>
<g id="a_node7"><a xlink:href="class_export.html#a26fa49d9882a342d011ba715e0c14109" target="_top" xlink:title=" ">
<polygon fill="white" stroke="black" points="314,-209.5 314,-228.5 418,-228.5 418,-209.5 314,-209.5"/>
<text text-anchor="middle" x="366" y="-216.5" font-family="Helvetica,sans-Serif" font-size="10.00">Export::_sounding</text>
</a>
</g>
</g>
<!-- Node1&#45;&gt;Node7 -->
<g id="edge20" class="edge">
<title>Node1&#45;&gt;Node7</title>
<path fill="none" stroke="midnightblue" d="M671.82,-195.95C657.06,-204.55 637.17,-214.53 618,-219 550.31,-234.79 469.54,-230.91 418.25,-225.73"/>
<polygon fill="midnightblue" stroke="midnightblue" points="673.97,-198.73 680.71,-190.56 670.35,-192.75 673.97,-198.73"/>
</g>
<!-- Node8 -->
<g id="node8" class="node">
<title>Node8</title>
<g id="a_node8"><a xlink:href="class_export.html#a59ba705b2369f21006ec7d7b7f3a4513" target="_top" xlink:title="Generate RIS reflection matrices.">
<polygon fill="white" stroke="black" points="489,-190.5 489,-209.5 605,-209.5 605,-190.5 489,-190.5"/>
<text text-anchor="middle" x="547" y="-197.5" font-family="Helvetica,sans-Serif" font-size="10.00">Export::_generateBF</text>
</a>
</g>
</g>
<!-- Node1&#45;&gt;Node8 -->
<g id="edge8" class="edge">
<title>Node1&#45;&gt;Node8</title>
<path fill="none" stroke="midnightblue" d="M643.51,-187.66C631.13,-189.26 617.83,-190.97 605.2,-192.61"/>
<polygon fill="midnightblue" stroke="midnightblue" points="644.19,-191.1 653.66,-186.34 643.29,-184.15 644.19,-191.1"/>
</g>
<!-- Node9 -->
<g id="node9" class="node">
<title>Node9</title>
<g id="a_node9"><a xlink:href="class_export.html#ad7268f886ac4826f4b6ea738e423e520" target="_top" xlink:title=" ">
<polygon fill="white" stroke="black" points="292,-114.5 292,-133.5 440,-133.5 440,-114.5 292,-114.5"/>
<text text-anchor="middle" x="366" y="-121.5" font-family="Helvetica,sans-Serif" font-size="10.00">Export::_generateChannels</text>
</a>
</g>
</g>
<!-- Node1&#45;&gt;Node9 -->
<g id="edge10" class="edge">
<title>Node1&#45;&gt;Node9</title>
<path fill="none" stroke="midnightblue" d="M643.86,-172.14C599.48,-164.44 533.49,-153 476,-143 458.31,-139.92 439,-136.56 421.61,-133.53"/>
<polygon fill="midnightblue" stroke="midnightblue" points="643.38,-175.61 653.83,-173.87 644.57,-168.71 643.38,-175.61"/>
</g>
<!-- Node10 -->
<g id="node10" class="node">
<title>Node10</title>
<g id="a_node10"><a xlink:href="class_export.html#a833aa02973f6b5c1f3e536e8646cf1ac" target="_top" xlink:title=" ">
<polygon fill="white" stroke="black" points="497,-304.5 497,-323.5 597,-323.5 597,-304.5 497,-304.5"/>
<text text-anchor="middle" x="547" y="-311.5" font-family="Helvetica,sans-Serif" font-size="10.00">Export::_loadALG</text>
</a>
</g>
</g>
<!-- Node1&#45;&gt;Node10 -->
<g id="edge12" class="edge">
<title>Node1&#45;&gt;Node10</title>
<path fill="none" stroke="midnightblue" d="M687.29,-199.99C675.94,-225.5 652.32,-270.45 618,-295 611.75,-299.47 604.51,-302.89 597.1,-305.5"/>
<polygon fill="midnightblue" stroke="midnightblue" points="690.56,-201.23 691.27,-190.66 684.12,-198.48 690.56,-201.23"/>
</g>
<!-- Node11 -->
<g id="node11" class="node">
<title>Node11</title>
<g id="a_node11"><a xlink:href="class_export.html#af64597af0c0b4cf569f96216bcd23b2c" target="_top" xlink:title=" ">
<polygon fill="white" stroke="black" points="314,-76.5 314,-95.5 418,-95.5 418,-76.5 314,-76.5"/>
<text text-anchor="middle" x="366" y="-83.5" font-family="Helvetica,sans-Serif" font-size="10.00">Export::_reporting</text>
</a>
</g>
</g>
<!-- Node1&#45;&gt;Node11 -->
<g id="edge14" class="edge">
<title>Node1&#45;&gt;Node11</title>
<path fill="none" stroke="midnightblue" d="M682.63,-162.82C669.11,-144.62 645.66,-117.59 618,-105 553.77,-75.76 470.68,-75.85 418.1,-79.9"/>
<polygon fill="midnightblue" stroke="midnightblue" points="680.1,-165.3 688.76,-171.4 685.8,-161.23 680.1,-165.3"/>
</g>
<!-- Node12 -->
<g id="node12" class="node">
<title>Node12</title>
<g id="a_node12"><a xlink:href="class_export.html#a709b6e378fd97721b07a369d8a6191d7" target="_top" xlink:title=" ">
<polygon fill="white" stroke="black" points="476,-114.5 476,-133.5 618,-133.5 618,-114.5 476,-114.5"/>
<text text-anchor="middle" x="547" y="-121.5" font-family="Helvetica,sans-Serif" font-size="10.00">Export::_setChannelGains</text>
</a>
</g>
</g>
<!-- Node1&#45;&gt;Node12 -->
<g id="edge16" class="edge">
<title>Node1&#45;&gt;Node12</title>
<path fill="none" stroke="midnightblue" d="M664.7,-167.39C650.6,-161.23 633.55,-153.99 618,-148 604.81,-142.92 590.03,-137.78 577.47,-133.56"/>
<polygon fill="midnightblue" stroke="midnightblue" points="663.37,-170.63 673.93,-171.47 666.19,-164.23 663.37,-170.63"/>
</g>
<!-- Node13 -->
<g id="node13" class="node">
<title>Node13</title>
<g id="a_node13"><a xlink:href="class_export.html#af41ce4a9c8f549930d43fbe47f84abaa" target="_top" xlink:title="Set the variable names defined by users.">
<polygon fill="white" stroke="black" points="303.5,-38.5 303.5,-57.5 428.5,-57.5 428.5,-38.5 303.5,-38.5"/>
<text text-anchor="middle" x="366" y="-45.5" font-family="Helvetica,sans-Serif" font-size="10.00">Export::_setVarNames</text>
</a>
</g>
</g>
<!-- Node1&#45;&gt;Node13 -->
<g id="edge18" class="edge">
<title>Node1&#45;&gt;Node13</title>
<path fill="none" stroke="midnightblue" d="M687.1,-161.87C675.78,-137.16 652.45,-94.95 618,-75 560.16,-41.51 482.16,-38.34 428.54,-41.25"/>
<polygon fill="midnightblue" stroke="midnightblue" points="684,-163.51 691.21,-171.27 690.41,-160.71 684,-163.51"/>
</g>
<!-- Node14 -->
<g id="node14" class="node">
<title>Node14</title>
<g id="a_node14"><a xlink:href="class_export.html#a1ba2d8e9de49698d93a6dedbafbe6a0f" target="_top" xlink:title=" ">
<polygon fill="white" stroke="black" points="485.5,-0.5 485.5,-19.5 608.5,-19.5 608.5,-0.5 485.5,-0.5"/>
<text text-anchor="middle" x="547" y="-7.5" font-family="Helvetica,sans-Serif" font-size="10.00">Export::_topComment</text>
</a>
</g>
</g>
<!-- Node1&#45;&gt;Node14 -->
<g id="edge21" class="edge">
<title>Node1&#45;&gt;Node14</title>
<path fill="none" stroke="midnightblue" d="M689.87,-161.45C680.69,-130.13 658.48,-68.74 618,-34 610.69,-27.72 601.65,-23.07 592.53,-19.62"/>
<polygon fill="midnightblue" stroke="midnightblue" points="686.53,-162.48 692.59,-171.17 693.27,-160.6 686.53,-162.48"/>
</g>
<!-- Node3 -->
<g id="node3" class="node">
<title>Node3</title>
<g id="a_node3"><a xlink:href="class_export.html#affc37d1d677a83d3e5d36a4e37b7a72b" target="_top" xlink:title=" ">
<polygon fill="white" stroke="black" points="146,-95.5 146,-114.5 256,-114.5 256,-95.5 146,-95.5"/>
<text text-anchor="middle" x="201" y="-102.5" font-family="Helvetica,sans-Serif" font-size="10.00">Export::exportCode</text>
</a>
</g>
</g>
<!-- Node2&#45;&gt;Node3 -->
<g id="edge2" class="edge">
<title>Node2&#45;&gt;Node3</title>
<path fill="none" stroke="midnightblue" d="M347.18,-297.14C331.82,-282.23 309.44,-259.56 292,-238 256.76,-194.43 221.38,-137.29 207.8,-114.75"/>
<polygon fill="midnightblue" stroke="midnightblue" points="344.87,-299.78 354.5,-304.18 349.72,-294.73 344.87,-299.78"/>
</g>
<!-- Node4 -->
<g id="node4" class="node">
<title>Node4</title>
<g id="a_node4"><a xlink:href="class_export.html#a94fab568af6ddd6447efca74e205e081" target="_top" xlink:title=" ">
<polygon fill="white" stroke="black" points="0,-114.5 0,-133.5 110,-133.5 110,-114.5 0,-114.5"/>
<text text-anchor="middle" x="55" y="-121.5" font-family="Helvetica,sans-Serif" font-size="10.00">Export::exportCode</text>
</a>
</g>
</g>
<!-- Node3&#45;&gt;Node4 -->
<g id="edge3" class="edge">
<title>Node3&#45;&gt;Node4</title>
<path fill="none" stroke="midnightblue" d="M136.01,-113.44C127.44,-114.57 118.72,-115.73 110.33,-116.83"/>
<polygon fill="midnightblue" stroke="midnightblue" points="136.51,-116.91 145.97,-112.13 135.6,-109.97 136.51,-116.91"/>
</g>
<!-- Node5 -->
<g id="node5" class="node">
<title>Node5</title>
<g id="a_node5"><a xlink:href="src_2main_8cpp.html#a0ddf1224851353fc92bfbff6f499fa97" target="_top" xlink:title=" ">
<polygon fill="white" stroke="black" points="34.5,-76.5 34.5,-95.5 75.5,-95.5 75.5,-76.5 34.5,-76.5"/>
<text text-anchor="middle" x="55" y="-83.5" font-family="Helvetica,sans-Serif" font-size="10.00">main</text>
</a>
</g>
</g>
<!-- Node3&#45;&gt;Node5 -->
<g id="edge4" class="edge">
<title>Node3&#45;&gt;Node5</title>
<path fill="none" stroke="midnightblue" d="M136.05,-96.56C114.24,-93.68 91.43,-90.67 75.76,-88.61"/>
<polygon fill="midnightblue" stroke="midnightblue" points="135.6,-100.03 145.97,-97.87 136.51,-93.09 135.6,-100.03"/>
</g>
<!-- Node6&#45;&gt;Node7 -->
<g id="edge6" class="edge">
<title>Node6&#45;&gt;Node7</title>
<path fill="none" stroke="midnightblue" d="M506.26,-263.34C473.26,-252.84 427.04,-238.12 397.06,-228.57"/>
<polygon fill="midnightblue" stroke="midnightblue" points="505.45,-266.76 516.04,-266.46 507.57,-260.09 505.45,-266.76"/>
</g>
<!-- Node7&#45;&gt;Node3 -->
<g id="edge7" class="edge">
<title>Node7&#45;&gt;Node3</title>
<path fill="none" stroke="midnightblue" d="M343.02,-203.63C308.93,-179.79 244.28,-134.57 215.92,-114.74"/>
<polygon fill="midnightblue" stroke="midnightblue" points="341.18,-206.61 351.38,-209.48 345.19,-200.88 341.18,-206.61"/>
</g>
<!-- Node8&#45;&gt;Node7 -->
<g id="edge9" class="edge">
<title>Node8&#45;&gt;Node7</title>
<path fill="none" stroke="midnightblue" d="M478.84,-207.13C458.74,-209.26 437.04,-211.57 418.14,-213.57"/>
<polygon fill="midnightblue" stroke="midnightblue" points="479.3,-210.6 488.87,-206.06 478.56,-203.64 479.3,-210.6"/>
</g>
<!-- Node9&#45;&gt;Node3 -->
<g id="edge11" class="edge">
<title>Node9&#45;&gt;Node3</title>
<path fill="none" stroke="midnightblue" d="M281.59,-114.28C273.05,-113.28 264.54,-112.29 256.44,-111.35"/>
<polygon fill="midnightblue" stroke="midnightblue" points="281.27,-117.76 291.61,-115.44 282.08,-110.81 281.27,-117.76"/>
</g>
<!-- Node10&#45;&gt;Node2 -->
<g id="edge13" class="edge">
<title>Node10&#45;&gt;Node2</title>
<path fill="none" stroke="midnightblue" d="M486.35,-314C465.65,-314 442.54,-314 422.21,-314"/>
<polygon fill="midnightblue" stroke="midnightblue" points="486.61,-317.5 496.61,-314 486.61,-310.5 486.61,-317.5"/>
</g>
<!-- Node11&#45;&gt;Node3 -->
<g id="edge15" class="edge">
<title>Node11&#45;&gt;Node3</title>
<path fill="none" stroke="midnightblue" d="M303.75,-93.14C288.07,-94.97 271.33,-96.92 256.05,-98.7"/>
<polygon fill="midnightblue" stroke="midnightblue" points="304.35,-96.59 313.87,-91.96 303.53,-89.64 304.35,-96.59"/>
</g>
<!-- Node12&#45;&gt;Node9 -->
<g id="edge17" class="edge">
<title>Node12&#45;&gt;Node9</title>
<path fill="none" stroke="midnightblue" d="M465.57,-124C457.14,-124 448.61,-124 440.27,-124"/>
<polygon fill="midnightblue" stroke="midnightblue" points="465.77,-127.5 475.77,-124 465.77,-120.5 465.77,-127.5"/>
</g>
<!-- Node13&#45;&gt;Node3 -->
<g id="edge19" class="edge">
<title>Node13&#45;&gt;Node3</title>
<path fill="none" stroke="midnightblue" d="M314.34,-60.17C306.8,-62.27 299.16,-64.57 292,-67 267.59,-75.28 240.44,-87.13 222.4,-95.38"/>
<polygon fill="midnightblue" stroke="midnightblue" points="315.41,-63.51 324.15,-57.52 313.58,-56.75 315.41,-63.51"/>
</g>
<!-- Node14&#45;&gt;Node3 -->
<g id="edge22" class="edge">
<title>Node14&#45;&gt;Node3</title>
<path fill="none" stroke="midnightblue" d="M475.14,-3.84C422.66,-1.96 350.43,-5.12 292,-29 256.03,-43.7 223.88,-78.44 209.69,-95.38"/>
<polygon fill="midnightblue" stroke="midnightblue" points="475.23,-7.35 485.37,-4.28 475.53,-0.36 475.23,-7.35"/>
</g>
</g>
</svg>
