<?xml version="1.0" encoding="UTF-8" standalone="no"?>
<!DOCTYPE svg PUBLIC "-//W3C//DTD SVG 1.1//EN"
 "http://www.w3.org/Graphics/SVG/1.1/DTD/svg11.dtd">
<!-- Generated by graphviz version 2.43.0 (0)
 -->
<!-- Title: Calc::as Pages: 1 -->
<svg width="463pt" height="265pt"
 viewBox="0.00 0.00 463.00 265.00" xmlns="http://www.w3.org/2000/svg" xmlns:xlink="http://www.w3.org/1999/xlink">
<g id="graph0" class="graph" transform="scale(1 1) rotate(0) translate(4 261)">
<title>Calc::as</title>
<polygon fill="white" stroke="transparent" points="-4,4 -4,-261 459,-261 459,4 -4,4"/>
<!-- Node1 -->
<g id="node1" class="node">
<title>Node1</title>
<g id="a_node1"><a xlink:title=" ">
<polygon fill="#bfbfbf" stroke="black" points="0,-132.5 0,-151.5 55,-151.5 55,-132.5 0,-132.5"/>
<text text-anchor="middle" x="27.5" y="-139.5" font-family="Helvetica,sans-Serif" font-size="10.00">Calc::as</text>
</a>
</g>
</g>
<!-- Node2 -->
<g id="node2" class="node">
<title>Node2</title>
<g id="a_node2"><a xlink:href="class_calc.html#ad6dbdfdd4bd21322e5836ff72c11ae1b" target="_top" xlink:title="Convert the Alg CALC contents into a language command.">
<polygon fill="white" stroke="black" points="91,-132.5 91,-151.5 146,-151.5 146,-132.5 91,-132.5"/>
<text text-anchor="middle" x="118.5" y="-139.5" font-family="Helvetica,sans-Serif" font-size="10.00">Calc::as</text>
</a>
</g>
</g>
<!-- Node1&#45;&gt;Node2 -->
<g id="edge1" class="edge">
<title>Node1&#45;&gt;Node2</title>
<path fill="none" stroke="midnightblue" d="M55.2,-142C63.21,-142 72.14,-142 80.68,-142"/>
<polygon fill="midnightblue" stroke="midnightblue" points="80.82,-145.5 90.82,-142 80.82,-138.5 80.82,-145.5"/>
</g>
<!-- Node3 -->
<g id="node3" class="node">
<title>Node3</title>
<g id="a_node3"><a xlink:href="class_calc.html#af1d1bd5e83f9e5196627f5a4e1a5ee83" target="_top" xlink:title=" ">
<polygon fill="white" stroke="black" points="189.5,-208.5 189.5,-227.5 314.5,-227.5 314.5,-208.5 189.5,-208.5"/>
<text text-anchor="middle" x="252" y="-215.5" font-family="Helvetica,sans-Serif" font-size="10.00">Calc::_changeFunction</text>
</a>
</g>
</g>
<!-- Node2&#45;&gt;Node3 -->
<g id="edge2" class="edge">
<title>Node2&#45;&gt;Node3</title>
<path fill="none" stroke="midnightblue" d="M127.37,-151.56C138.31,-164.26 159.37,-186.52 182,-199 186.13,-201.28 190.56,-203.3 195.1,-205.09"/>
<polygon fill="midnightblue" stroke="midnightblue" points="193.94,-208.39 204.53,-208.45 196.29,-201.8 193.94,-208.39"/>
</g>
<!-- Node6 -->
<g id="node6" class="node">
<title>Node6</title>
<g id="a_node6"><a xlink:href="class_calc.html#ae3d88bd40f9bdf2c8ec92c426bdca446" target="_top" xlink:title=" ">
<polygon fill="white" stroke="black" points="188.5,-170.5 188.5,-189.5 315.5,-189.5 315.5,-170.5 188.5,-170.5"/>
<text text-anchor="middle" x="252" y="-177.5" font-family="Helvetica,sans-Serif" font-size="10.00">Calc::_changeOperator</text>
</a>
</g>
</g>
<!-- Node2&#45;&gt;Node6 -->
<g id="edge5" class="edge">
<title>Node2&#45;&gt;Node6</title>
<path fill="none" stroke="midnightblue" d="M146.22,-150.29C157.27,-153.68 170.24,-157.59 182,-161 189.64,-163.21 197.77,-165.5 205.66,-167.7"/>
<polygon fill="midnightblue" stroke="midnightblue" points="204.92,-171.13 215.49,-170.42 206.79,-164.38 204.92,-171.13"/>
</g>
<!-- Node7 -->
<g id="node7" class="node">
<title>Node7</title>
<g id="a_node7"><a xlink:href="class_calc.html#ad95be528148e0d63848d5fa916b93200" target="_top" xlink:title=" ">
<polygon fill="white" stroke="black" points="196.5,-132.5 196.5,-151.5 307.5,-151.5 307.5,-132.5 196.5,-132.5"/>
<text text-anchor="middle" x="252" y="-139.5" font-family="Helvetica,sans-Serif" font-size="10.00">Calc::_changeParen</text>
</a>
</g>
</g>
<!-- Node2&#45;&gt;Node7 -->
<g id="edge6" class="edge">
<title>Node2&#45;&gt;Node7</title>
<path fill="none" stroke="midnightblue" d="M146.11,-142C157.77,-142 172,-142 186.18,-142"/>
<polygon fill="midnightblue" stroke="midnightblue" points="186.45,-145.5 196.45,-142 186.45,-138.5 186.45,-145.5"/>
</g>
<!-- Node8 -->
<g id="node8" class="node">
<title>Node8</title>
<g id="a_node8"><a xlink:href="class_calc.html#ad562619fef96a73cd3b4c27b35bc5f91" target="_top" xlink:title=" ">
<polygon fill="white" stroke="black" points="187,-76.5 187,-95.5 317,-95.5 317,-76.5 187,-76.5"/>
<text text-anchor="middle" x="252" y="-83.5" font-family="Helvetica,sans-Serif" font-size="10.00">Calc::_changeSubScript</text>
</a>
</g>
</g>
<!-- Node2&#45;&gt;Node8 -->
<g id="edge7" class="edge">
<title>Node2&#45;&gt;Node8</title>
<path fill="none" stroke="midnightblue" d="M142.11,-132.37C163.4,-123.3 195.52,-109.63 219.36,-99.48"/>
<polygon fill="midnightblue" stroke="midnightblue" points="220.86,-102.64 228.69,-95.5 218.12,-96.2 220.86,-102.64"/>
</g>
<!-- Node14 -->
<g id="node14" class="node">
<title>Node14</title>
<g id="a_node14"><a xlink:href="class_calc.html#a1aec4748092712e0995c0ae5dabbf54f" target="_top" xlink:title=" ">
<polygon fill="white" stroke="black" points="182,-38.5 182,-57.5 322,-57.5 322,-38.5 182,-38.5"/>
<text text-anchor="middle" x="252" y="-45.5" font-family="Helvetica,sans-Serif" font-size="10.00">Calc::_changeSuperScript</text>
</a>
</g>
</g>
<!-- Node2&#45;&gt;Node14 -->
<g id="edge14" class="edge">
<title>Node2&#45;&gt;Node14</title>
<path fill="none" stroke="midnightblue" d="M124.87,-132.33C134.29,-116.27 155.36,-84.17 182,-67 185.31,-64.87 188.86,-62.97 192.54,-61.28"/>
<polygon fill="midnightblue" stroke="midnightblue" points="193.93,-64.5 201.89,-57.51 191.31,-58.01 193.93,-64.5"/>
</g>
<!-- Node4 -->
<g id="node4" class="node">
<title>Node4</title>
<g id="a_node4"><a xlink:href="class_calc.html#a7d793eba0a7c9fcbafec4310359f165d" target="_top" xlink:title=" ">
<polygon fill="white" stroke="black" points="360,-237.5 360,-256.5 453,-256.5 453,-237.5 360,-237.5"/>
<text text-anchor="middle" x="406.5" y="-244.5" font-family="Helvetica,sans-Serif" font-size="10.00">Calc::_addArma</text>
</a>
</g>
</g>
<!-- Node3&#45;&gt;Node4 -->
<g id="edge3" class="edge">
<title>Node3&#45;&gt;Node4</title>
<path fill="none" stroke="midnightblue" d="M303.36,-227.58C318.16,-230.39 334.44,-233.49 349.57,-236.36"/>
<polygon fill="midnightblue" stroke="midnightblue" points="349.35,-239.88 359.83,-238.31 350.66,-233.01 349.35,-239.88"/>
</g>
<!-- Node5 -->
<g id="node5" class="node">
<title>Node5</title>
<g id="a_node5"><a xlink:href="class_calc.html#af58cd6a2174e577a6246366de03b949e" target="_top" xlink:title=" ">
<polygon fill="white" stroke="black" points="358,-199.5 358,-218.5 455,-218.5 455,-199.5 358,-199.5"/>
<text text-anchor="middle" x="406.5" y="-206.5" font-family="Helvetica,sans-Serif" font-size="10.00">Calc::_addMmce</text>
</a>
</g>
</g>
<!-- Node3&#45;&gt;Node5 -->
<g id="edge4" class="edge">
<title>Node3&#45;&gt;Node5</title>
<path fill="none" stroke="midnightblue" d="M314.59,-214.37C325.49,-213.72 336.8,-213.05 347.6,-212.42"/>
<polygon fill="midnightblue" stroke="midnightblue" points="347.98,-215.9 357.76,-211.82 347.57,-208.91 347.98,-215.9"/>
</g>
<!-- Node8&#45;&gt;Node8 -->
<g id="edge8" class="edge">
<title>Node8&#45;&gt;Node8</title>
<path fill="none" stroke="midnightblue" d="M231.65,-95.76C221.76,-104.57 228.54,-114 252,-114 267.03,-114 275.21,-110.13 276.55,-105.03"/>
<polygon fill="midnightblue" stroke="midnightblue" points="279.67,-103.42 272.35,-95.76 273.29,-106.31 279.67,-103.42"/>
</g>
<!-- Node9 -->
<g id="node9" class="node">
<title>Node9</title>
<g id="a_node9"><a xlink:href="class_calc.html#a284818e83b0d85bdd029f3d72d4ef0bd" target="_top" xlink:title=" ">
<polygon fill="white" stroke="black" points="371.5,-152.5 371.5,-171.5 441.5,-171.5 441.5,-152.5 371.5,-152.5"/>
<text text-anchor="middle" x="406.5" y="-159.5" font-family="Helvetica,sans-Serif" font-size="10.00">Calc::_msg</text>
</a>
</g>
</g>
<!-- Node8&#45;&gt;Node9 -->
<g id="edge9" class="edge">
<title>Node8&#45;&gt;Node9</title>
<path fill="none" stroke="midnightblue" d="M270.91,-95.51C284.86,-102.94 304.7,-113.56 322,-123 338.07,-131.77 341.47,-135.14 358,-143 361.88,-144.84 365.99,-146.67 370.1,-148.42"/>
<polygon fill="midnightblue" stroke="midnightblue" points="369.03,-151.76 379.61,-152.33 371.69,-145.29 369.03,-151.76"/>
</g>
<!-- Node10 -->
<g id="node10" class="node">
<title>Node10</title>
<g id="a_node10"><a xlink:href="class_log.html#ac7147942832455398ad289b706a02616" target="_top" xlink:title="Write error message to the log file.">
<polygon fill="white" stroke="black" points="380,-114.5 380,-133.5 433,-133.5 433,-114.5 380,-114.5"/>
<text text-anchor="middle" x="406.5" y="-121.5" font-family="Helvetica,sans-Serif" font-size="10.00">Log::err</text>
</a>
</g>
</g>
<!-- Node8&#45;&gt;Node10 -->
<g id="edge10" class="edge">
<title>Node8&#45;&gt;Node10</title>
<path fill="none" stroke="midnightblue" d="M291.48,-95.59C315.62,-101.6 346.51,-109.3 370.04,-115.16"/>
<polygon fill="midnightblue" stroke="midnightblue" points="369.41,-118.62 379.96,-117.64 371.11,-111.82 369.41,-118.62"/>
</g>
<!-- Node11 -->
<g id="node11" class="node">
<title>Node11</title>
<g id="a_node11"><a xlink:href="class_log.html#add7e611cd3267d3fd5dae017e3aeef67" target="_top" xlink:title="Write infomation to the log file.">
<polygon fill="white" stroke="black" points="377,-76.5 377,-95.5 436,-95.5 436,-76.5 377,-76.5"/>
<text text-anchor="middle" x="406.5" y="-83.5" font-family="Helvetica,sans-Serif" font-size="10.00">Log::info</text>
</a>
</g>
</g>
<!-- Node8&#45;&gt;Node11 -->
<g id="edge11" class="edge">
<title>Node8&#45;&gt;Node11</title>
<path fill="none" stroke="midnightblue" d="M317.23,-86C334,-86 351.56,-86 366.57,-86"/>
<polygon fill="midnightblue" stroke="midnightblue" points="366.99,-89.5 376.99,-86 366.99,-82.5 366.99,-89.5"/>
</g>
<!-- Node12 -->
<g id="node12" class="node">
<title>Node12</title>
<g id="a_node12"><a xlink:href="utils_8h.html#aa0a3ba0e1cec6f6b77334767af46eef7" target="_top" xlink:title="Check if the string is an unsigned integer.">
<polygon fill="white" stroke="black" points="384,-38.5 384,-57.5 429,-57.5 429,-38.5 384,-38.5"/>
<text text-anchor="middle" x="406.5" y="-45.5" font-family="Helvetica,sans-Serif" font-size="10.00">isUInt</text>
</a>
</g>
</g>
<!-- Node8&#45;&gt;Node12 -->
<g id="edge12" class="edge">
<title>Node8&#45;&gt;Node12</title>
<path fill="none" stroke="midnightblue" d="M291.48,-76.41C317,-70.05 350.07,-61.81 374.02,-55.85"/>
<polygon fill="midnightblue" stroke="midnightblue" points="375.14,-59.17 383.99,-53.36 373.44,-52.38 375.14,-59.17"/>
</g>
<!-- Node13 -->
<g id="node13" class="node">
<title>Node13</title>
<g id="a_node13"><a xlink:href="class_type___track.html#ab510214767b1b4d71e3beadecb814bb7" target="_top" xlink:title=" ">
<polygon fill="white" stroke="black" points="359,-0.5 359,-19.5 454,-19.5 454,-0.5 359,-0.5"/>
<text text-anchor="middle" x="406.5" y="-7.5" font-family="Helvetica,sans-Serif" font-size="10.00">Type_Track::size</text>
</a>
</g>
</g>
<!-- Node8&#45;&gt;Node13 -->
<g id="edge13" class="edge">
<title>Node8&#45;&gt;Node13</title>
<path fill="none" stroke="midnightblue" d="M301.17,-76.39C308.42,-73.92 315.61,-70.84 322,-67 341.95,-55.03 338.75,-42.07 358,-29 360.72,-27.15 363.64,-25.44 366.66,-23.87"/>
<polygon fill="midnightblue" stroke="midnightblue" points="368.29,-26.97 375.86,-19.56 365.32,-20.63 368.29,-26.97"/>
</g>
</g>
</svg>
