<?xml version="1.0" encoding="UTF-8" standalone="no"?>
<!DOCTYPE svg PUBLIC "-//W3C//DTD SVG 1.1//EN"
 "http://www.w3.org/Graphics/SVG/1.1/DTD/svg11.dtd">
<!-- Generated by graphviz version 2.43.0 (0)
 -->
<!-- Title: Export::_generateChannels Pages: 1 -->
<svg width="610pt" height="402pt"
 viewBox="0.00 0.00 610.00 401.95" xmlns="http://www.w3.org/2000/svg" xmlns:xlink="http://www.w3.org/1999/xlink">
<g id="graph0" class="graph" transform="scale(1 1) rotate(0) translate(4 397.95)">
<title>Export::_generateChannels</title>
<polygon fill="white" stroke="transparent" points="-4,4 -4,-397.95 606,-397.95 606,4 -4,4"/>
<!-- Node1 -->
<g id="node1" class="node">
<title>Node1</title>
<g id="a_node1"><a xlink:title=" ">
<polygon fill="#bfbfbf" stroke="black" points="0,-190.5 0,-209.5 148,-209.5 148,-190.5 0,-190.5"/>
<text text-anchor="middle" x="74" y="-197.5" font-family="Helvetica,sans-Serif" font-size="10.00">Export::_generateChannels</text>
</a>
</g>
</g>
<!-- Node2 -->
<g id="node2" class="node">
<title>Node2</title>
<g id="a_node2"><a xlink:href="class_export.html#a638d6b9ced18342503ee6f4d4b274740" target="_top" xlink:title=" ">
<polygon fill="white" stroke="black" points="406.5,-304.5 406.5,-323.5 490.5,-323.5 490.5,-304.5 406.5,-304.5"/>
<text text-anchor="middle" x="448.5" y="-311.5" font-family="Helvetica,sans-Serif" font-size="10.00">Export::_asStr</text>
</a>
</g>
</g>
<!-- Node1&#45;&gt;Node2 -->
<g id="edge1" class="edge">
<title>Node1&#45;&gt;Node2</title>
<path fill="none" stroke="midnightblue" d="M77.63,-209.8C86.45,-240.51 118.25,-334.94 184,-371 252.58,-408.62 285.01,-393.27 360,-371 386.64,-363.09 412.75,-344.22 429.41,-330.34"/>
<polygon fill="midnightblue" stroke="midnightblue" points="431.92,-332.81 437.21,-323.63 427.35,-327.5 431.92,-332.81"/>
</g>
<!-- Node3 -->
<g id="node3" class="node">
<title>Node3</title>
<g id="a_node3"><a xlink:href="class_export.html#abe75ae41d7cc8afe8f1ba4bbf67dfcfc" target="_top" xlink:title=" ">
<polygon fill="white" stroke="black" points="240.5,-342.5 240.5,-361.5 303.5,-361.5 303.5,-342.5 240.5,-342.5"/>
<text text-anchor="middle" x="272" y="-349.5" font-family="Helvetica,sans-Serif" font-size="10.00">Export::_f</text>
</a>
</g>
</g>
<!-- Node1&#45;&gt;Node3 -->
<g id="edge2" class="edge">
<title>Node1&#45;&gt;Node3</title>
<path fill="none" stroke="midnightblue" d="M79.85,-209.56C92.94,-234.33 131.56,-300.87 184,-333 197.71,-341.4 214.64,-346.11 229.91,-348.74"/>
<polygon fill="midnightblue" stroke="midnightblue" points="229.75,-352.26 240.16,-350.25 230.77,-345.33 229.75,-352.26"/>
</g>
<!-- Node4 -->
<g id="node4" class="node">
<title>Node4</title>
<g id="a_node4"><a xlink:href="class_export.html#a4dd19b0ff2eb109897fb486769fefffe" target="_top" xlink:title="Get the size of the node (Tx/Rx/RIS).">
<polygon fill="white" stroke="black" points="224.5,-304.5 224.5,-323.5 319.5,-323.5 319.5,-304.5 224.5,-304.5"/>
<text text-anchor="middle" x="272" y="-311.5" font-family="Helvetica,sans-Serif" font-size="10.00">Export::_getSize</text>
</a>
</g>
</g>
<!-- Node1&#45;&gt;Node4 -->
<g id="edge3" class="edge">
<title>Node1&#45;&gt;Node4</title>
<path fill="none" stroke="midnightblue" d="M82.91,-209.57C99.5,-228.95 140.04,-272.9 184,-295 193.42,-299.74 204,-303.3 214.44,-305.98"/>
<polygon fill="midnightblue" stroke="midnightblue" points="213.85,-309.43 224.38,-308.28 215.43,-302.61 213.85,-309.43"/>
</g>
<!-- Node5 -->
<g id="node5" class="node">
<title>Node5</title>
<g id="a_node5"><a xlink:href="class_export.html#a27d3472d5a6043c28e616bbd0c50afc0" target="_top" xlink:title=" ">
<polygon fill="white" stroke="black" points="184,-266.5 184,-285.5 360,-285.5 360,-266.5 184,-266.5"/>
<text text-anchor="middle" x="272" y="-273.5" font-family="Helvetica,sans-Serif" font-size="10.00">Export::_langMmcesimExtension</text>
</a>
</g>
</g>
<!-- Node1&#45;&gt;Node5 -->
<g id="edge4" class="edge">
<title>Node1&#45;&gt;Node5</title>
<path fill="none" stroke="midnightblue" d="M90.28,-209.68C110.84,-222.29 148.87,-244.24 184,-257 191.25,-259.64 198.99,-261.96 206.74,-264.01"/>
<polygon fill="midnightblue" stroke="midnightblue" points="205.98,-267.43 216.53,-266.45 207.67,-260.63 205.98,-267.43"/>
</g>
<!-- Node6 -->
<g id="node6" class="node">
<title>Node6</title>
<g id="a_node6"><a xlink:href="class_export.html#a33b5d571af76c0d4f9b9ee6e72afd8a6" target="_top" xlink:title=" ">
<polygon fill="white" stroke="black" points="396,-190.5 396,-209.5 501,-209.5 501,-190.5 396,-190.5"/>
<text text-anchor="middle" x="448.5" y="-197.5" font-family="Helvetica,sans-Serif" font-size="10.00">Export::_preCheck</text>
</a>
</g>
</g>
<!-- Node1&#45;&gt;Node6 -->
<g id="edge5" class="edge">
<title>Node1&#45;&gt;Node6</title>
<path fill="none" stroke="midnightblue" d="M148.15,-200C217.44,-200 320.33,-200 385.64,-200"/>
<polygon fill="midnightblue" stroke="midnightblue" points="385.78,-203.5 395.78,-200 385.78,-196.5 385.78,-203.5"/>
</g>
<!-- Node8 -->
<g id="node8" class="node">
<title>Node8</title>
<g id="a_node8"><a xlink:href="class_export.html#a709b6e378fd97721b07a369d8a6191d7" target="_top" xlink:title=" ">
<polygon fill="white" stroke="black" points="201,-228.5 201,-247.5 343,-247.5 343,-228.5 201,-228.5"/>
<text text-anchor="middle" x="272" y="-235.5" font-family="Helvetica,sans-Serif" font-size="10.00">Export::_setChannelGains</text>
</a>
</g>
</g>
<!-- Node1&#45;&gt;Node8 -->
<g id="edge7" class="edge">
<title>Node1&#45;&gt;Node8</title>
<path fill="none" stroke="midnightblue" d="M124.21,-209.54C150.77,-214.69 183.75,-221.08 211.72,-226.51"/>
<polygon fill="midnightblue" stroke="midnightblue" points="211.29,-229.99 221.77,-228.46 212.62,-223.12 211.29,-229.99"/>
</g>
<!-- Node9 -->
<g id="node9" class="node">
<title>Node9</title>
<g id="a_node9"><a xlink:href="utils_8h.html#a49dc116689f1a4202be4d3f0743b1f70" target="_top" xlink:title=" ">
<polygon fill="white" stroke="black" points="247.5,-152.5 247.5,-171.5 296.5,-171.5 296.5,-152.5 247.5,-152.5"/>
<text text-anchor="middle" x="272" y="-159.5" font-family="Helvetica,sans-Serif" font-size="10.00">appDir</text>
</a>
</g>
</g>
<!-- Node1&#45;&gt;Node9 -->
<g id="edge10" class="edge">
<title>Node1&#45;&gt;Node9</title>
<path fill="none" stroke="midnightblue" d="M124.21,-190.46C159.56,-183.61 206.28,-174.55 237.43,-168.51"/>
<polygon fill="midnightblue" stroke="midnightblue" points="238.2,-171.92 247.35,-166.59 236.87,-165.05 238.2,-171.92"/>
</g>
<!-- Node10 -->
<g id="node10" class="node">
<title>Node10</title>
<g id="a_node10"><a xlink:href="class_log.html#ac7147942832455398ad289b706a02616" target="_top" xlink:title="Write error message to the log file.">
<polygon fill="white" stroke="black" points="422,-133.5 422,-152.5 475,-152.5 475,-133.5 422,-133.5"/>
<text text-anchor="middle" x="448.5" y="-140.5" font-family="Helvetica,sans-Serif" font-size="10.00">Log::err</text>
</a>
</g>
</g>
<!-- Node1&#45;&gt;Node10 -->
<g id="edge11" class="edge">
<title>Node1&#45;&gt;Node10</title>
<path fill="none" stroke="midnightblue" d="M88.25,-190.34C107.95,-176.63 146.67,-152.17 184,-143 263.43,-123.49 360.43,-131.23 411.72,-137.67"/>
<polygon fill="midnightblue" stroke="midnightblue" points="411.58,-141.19 421.95,-139.02 412.49,-134.25 411.58,-141.19"/>
</g>
<!-- Node11 -->
<g id="node11" class="node">
<title>Node11</title>
<g id="a_node11"><a xlink:href="error__code_8h.html#a19ac3b5328ffcb7b241c272b98d3f002" target="_top" xlink:title="Print error message and exit with exit code.">
<polygon fill="white" stroke="black" points="242.5,-76.5 242.5,-95.5 301.5,-95.5 301.5,-76.5 242.5,-76.5"/>
<text text-anchor="middle" x="272" y="-83.5" font-family="Helvetica,sans-Serif" font-size="10.00">errorExit</text>
</a>
</g>
</g>
<!-- Node1&#45;&gt;Node11 -->
<g id="edge12" class="edge">
<title>Node1&#45;&gt;Node11</title>
<path fill="none" stroke="midnightblue" d="M83.92,-190.3C101.37,-171.91 141.98,-131.86 184,-110 199.05,-102.17 216.93,-96.67 232.56,-92.93"/>
<polygon fill="midnightblue" stroke="midnightblue" points="233.46,-96.32 242.45,-90.72 231.93,-89.48 233.46,-96.32"/>
</g>
<!-- Node14 -->
<g id="node14" class="node">
<title>Node14</title>
<g id="a_node14"><a xlink:href="class_log.html#a48b8faa1f9d2590c6fb650f1004e73c9" target="_top" xlink:title="Flush the buff into the log file.">
<polygon fill="white" stroke="black" points="240.5,-38.5 240.5,-57.5 303.5,-57.5 303.5,-38.5 240.5,-38.5"/>
<text text-anchor="middle" x="272" y="-45.5" font-family="Helvetica,sans-Serif" font-size="10.00">Log::flush</text>
</a>
</g>
</g>
<!-- Node1&#45;&gt;Node14 -->
<g id="edge18" class="edge">
<title>Node1&#45;&gt;Node14</title>
<path fill="none" stroke="midnightblue" d="M79.85,-190.44C92.94,-165.67 131.56,-99.13 184,-67 197.71,-58.6 214.64,-53.89 229.91,-51.26"/>
<polygon fill="midnightblue" stroke="midnightblue" points="230.77,-54.67 240.16,-49.75 229.75,-47.74 230.77,-54.67"/>
</g>
<!-- Node15 -->
<g id="node15" class="node">
<title>Node15</title>
<g id="a_node15"><a xlink:href="class_log.html#add7e611cd3267d3fd5dae017e3aeef67" target="_top" xlink:title="Write infomation to the log file.">
<polygon fill="white" stroke="black" points="242.5,-0.5 242.5,-19.5 301.5,-19.5 301.5,-0.5 242.5,-0.5"/>
<text text-anchor="middle" x="272" y="-7.5" font-family="Helvetica,sans-Serif" font-size="10.00">Log::info</text>
</a>
</g>
</g>
<!-- Node1&#45;&gt;Node15 -->
<g id="edge19" class="edge">
<title>Node1&#45;&gt;Node15</title>
<path fill="none" stroke="midnightblue" d="M78.13,-190.37C88.21,-160.95 122.79,-71.71 184,-29 197.94,-19.28 215.95,-14.4 231.96,-12"/>
<polygon fill="midnightblue" stroke="midnightblue" points="232.63,-15.44 242.13,-10.76 231.78,-8.5 232.63,-15.44"/>
</g>
<!-- Node7 -->
<g id="node7" class="node">
<title>Node7</title>
<g id="a_node7"><a xlink:href="error__code_8h.html#ae1bfa02e1106eff84ddecb9f7773a1a4" target="_top" xlink:title="Return the error message of the error code from class Err.">
<polygon fill="white" stroke="black" points="539.5,-104.5 539.5,-123.5 599.5,-123.5 599.5,-104.5 539.5,-104.5"/>
<text text-anchor="middle" x="569.5" y="-111.5" font-family="Helvetica,sans-Serif" font-size="10.00">errorMsg</text>
</a>
</g>
</g>
<!-- Node6&#45;&gt;Node7 -->
<g id="edge6" class="edge">
<title>Node6&#45;&gt;Node7</title>
<path fill="none" stroke="midnightblue" d="M462.69,-190.47C483.06,-175.75 522.39,-147.32 546.94,-129.58"/>
<polygon fill="midnightblue" stroke="midnightblue" points="549.2,-132.27 555.25,-123.57 545.1,-126.6 549.2,-132.27"/>
</g>
<!-- Node8&#45;&gt;Node2 -->
<g id="edge8" class="edge">
<title>Node8&#45;&gt;Node2</title>
<path fill="none" stroke="midnightblue" d="M331,-247.59C340.87,-250.08 350.87,-253.18 360,-257 385.07,-267.49 410.77,-285.23 427.78,-298.14"/>
<polygon fill="midnightblue" stroke="midnightblue" points="425.78,-301.02 435.83,-304.39 430.07,-295.49 425.78,-301.02"/>
</g>
<!-- Node8&#45;&gt;Node6 -->
<g id="edge9" class="edge">
<title>Node8&#45;&gt;Node6</title>
<path fill="none" stroke="midnightblue" d="M317.03,-228.41C340.37,-223.33 369.23,-217.04 393.87,-211.68"/>
<polygon fill="midnightblue" stroke="midnightblue" points="394.76,-215.07 403.78,-209.52 393.27,-208.23 394.76,-215.07"/>
</g>
<!-- Node11&#45;&gt;Node7 -->
<g id="edge15" class="edge">
<title>Node11&#45;&gt;Node7</title>
<path fill="none" stroke="midnightblue" d="M301.6,-88.71C354.75,-93.75 468.82,-104.56 529.18,-110.27"/>
<polygon fill="midnightblue" stroke="midnightblue" points="529.16,-113.79 539.45,-111.25 529.82,-106.82 529.16,-113.79"/>
</g>
<!-- Node11&#45;&gt;Node10 -->
<g id="edge13" class="edge">
<title>Node11&#45;&gt;Node10</title>
<path fill="none" stroke="midnightblue" d="M301.8,-93.24C318.84,-97.69 340.78,-103.74 360,-110 378.15,-115.91 398.09,-123.36 414.34,-129.68"/>
<polygon fill="midnightblue" stroke="midnightblue" points="413.35,-133.05 423.94,-133.44 415.91,-126.53 413.35,-133.05"/>
</g>
<!-- Node12 -->
<g id="node12" class="node">
<title>Node12</title>
<g id="a_node12"><a xlink:href="error__code_8h.html#ae1ca599cceb33d2db79940c7d98937f8" target="_top" xlink:title="Return the integer of the error code from class Err.">
<polygon fill="white" stroke="black" points="537,-47.5 537,-66.5 602,-66.5 602,-47.5 537,-47.5"/>
<text text-anchor="middle" x="569.5" y="-54.5" font-family="Helvetica,sans-Serif" font-size="10.00">errorCode</text>
</a>
</g>
</g>
<!-- Node11&#45;&gt;Node12 -->
<g id="edge14" class="edge">
<title>Node11&#45;&gt;Node12</title>
<path fill="none" stroke="midnightblue" d="M301.6,-83.19C354.04,-78.05 465.78,-67.08 526.73,-61.1"/>
<polygon fill="midnightblue" stroke="midnightblue" points="527.16,-64.57 536.77,-60.11 526.48,-57.61 527.16,-64.57"/>
</g>
<!-- Node13 -->
<g id="node13" class="node">
<title>Node13</title>
<g id="a_node13"><a xlink:href="error__code_8h.html#a81aa27a794998cf874bbef6d0f34b9d9" target="_top" xlink:title="Check if the error code corresponds to an error.">
<polygon fill="white" stroke="black" points="424.5,-19.5 424.5,-38.5 472.5,-38.5 472.5,-19.5 424.5,-19.5"/>
<text text-anchor="middle" x="448.5" y="-26.5" font-family="Helvetica,sans-Serif" font-size="10.00">isError</text>
</a>
</g>
</g>
<!-- Node11&#45;&gt;Node13 -->
<g id="edge16" class="edge">
<title>Node11&#45;&gt;Node13</title>
<path fill="none" stroke="midnightblue" d="M301.58,-81.21C318.74,-77.98 340.87,-73.18 360,-67 371.16,-63.4 396.74,-52.16 417.37,-42.83"/>
<polygon fill="midnightblue" stroke="midnightblue" points="419.07,-45.9 426.73,-38.58 416.18,-39.53 419.07,-45.9"/>
</g>
<!-- Node13&#45;&gt;Node12 -->
<g id="edge17" class="edge">
<title>Node13&#45;&gt;Node12</title>
<path fill="none" stroke="midnightblue" d="M472.73,-34.47C488.14,-38.09 508.79,-42.95 526.98,-47.23"/>
<polygon fill="midnightblue" stroke="midnightblue" points="526.24,-50.65 536.78,-49.54 527.84,-43.84 526.24,-50.65"/>
</g>
</g>
</svg>
