<?xml version="1.0" encoding="UTF-8" standalone="no"?>
<!DOCTYPE svg PUBLIC "-//W3C//DTD SVG 1.1//EN"
 "http://www.w3.org/Graphics/SVG/1.1/DTD/svg11.dtd">
<!-- Generated by graphviz version 2.43.0 (0)
 -->
<!-- Title: Term::error Pages: 1 -->
<svg width="570pt" height="142pt"
 viewBox="0.00 0.00 570.00 142.00" xmlns="http://www.w3.org/2000/svg" xmlns:xlink="http://www.w3.org/1999/xlink">
<g id="graph0" class="graph" transform="scale(1 1) rotate(0) translate(4 138)">
<title>Term::error</title>
<polygon fill="white" stroke="transparent" points="-4,4 -4,-138 566,-138 566,4 -4,4"/>
<!-- Node1 -->
<g id="node1" class="node">
<title>Node1</title>
<g id="a_node1"><a xlink:title="Print error message.">
<polygon fill="#bfbfbf" stroke="black" points="492,-57.5 492,-76.5 562,-76.5 562,-57.5 492,-57.5"/>
<text text-anchor="middle" x="527" y="-64.5" font-family="Helvetica,sans-Serif" font-size="10.00">Term::error</text>
</a>
</g>
</g>
<!-- Node2 -->
<g id="node2" class="node">
<title>Node2</title>
<g id="a_node2"><a xlink:href="struct_x_y___size.html#a4a5192df22d9d6bc1793eabc6ae1ffa0" target="_top" xlink:title=" ">
<polygon fill="white" stroke="black" points="383,-57.5 383,-76.5 456,-76.5 456,-57.5 383,-57.5"/>
<text text-anchor="middle" x="419.5" y="-64.5" font-family="Helvetica,sans-Serif" font-size="10.00">XY_Size::xy</text>
</a>
</g>
</g>
<!-- Node1&#45;&gt;Node2 -->
<g id="edge1" class="edge">
<title>Node1&#45;&gt;Node2</title>
<path fill="none" stroke="midnightblue" d="M481.56,-67C473.04,-67 464.22,-67 456.03,-67"/>
<polygon fill="midnightblue" stroke="midnightblue" points="481.75,-70.5 491.75,-67 481.75,-63.5 481.75,-70.5"/>
</g>
<!-- Node3 -->
<g id="node3" class="node">
<title>Node3</title>
<g id="a_node3"><a xlink:href="struct_macro.html#aee7d20953d25a4e783b8e897d78c4bf7" target="_top" xlink:title=" ">
<polygon fill="white" stroke="black" points="245.5,-114.5 245.5,-133.5 346.5,-133.5 346.5,-114.5 245.5,-114.5"/>
<text text-anchor="middle" x="296" y="-121.5" font-family="Helvetica,sans-Serif" font-size="10.00">Macro::replaceXY</text>
</a>
</g>
</g>
<!-- Node2&#45;&gt;Node3 -->
<g id="edge2" class="edge">
<title>Node2&#45;&gt;Node3</title>
<path fill="none" stroke="midnightblue" d="M393.3,-81.39C379.78,-88.85 362.71,-97.88 347,-105 339.64,-108.34 331.51,-111.6 323.98,-114.45"/>
<polygon fill="midnightblue" stroke="midnightblue" points="395.01,-84.44 402.04,-76.51 391.6,-78.33 395.01,-84.44"/>
</g>
<!-- Node6 -->
<g id="node6" class="node">
<title>Node6</title>
<g id="a_node6"><a xlink:href="struct_x_y___size.html#a1044ad37af4e25277b6f7cda06052fc1" target="_top" xlink:title=" ">
<polygon fill="white" stroke="black" points="262.5,-76.5 262.5,-95.5 329.5,-95.5 329.5,-76.5 262.5,-76.5"/>
<text text-anchor="middle" x="296" y="-83.5" font-family="Helvetica,sans-Serif" font-size="10.00">XY_Size::x</text>
</a>
</g>
</g>
<!-- Node2&#45;&gt;Node6 -->
<g id="edge5" class="edge">
<title>Node2&#45;&gt;Node6</title>
<path fill="none" stroke="midnightblue" d="M372.56,-74.18C358.27,-76.42 342.82,-78.83 329.64,-80.9"/>
<polygon fill="midnightblue" stroke="midnightblue" points="373.36,-77.6 382.7,-72.6 372.28,-70.68 373.36,-77.6"/>
</g>
<!-- Node7 -->
<g id="node7" class="node">
<title>Node7</title>
<g id="a_node7"><a xlink:href="struct_x_y___size.html#a42f2c088d4a2090d3ddc884be3547d39" target="_top" xlink:title=" ">
<polygon fill="white" stroke="black" points="245,-38.5 245,-57.5 347,-57.5 347,-38.5 245,-38.5"/>
<text text-anchor="middle" x="296" y="-45.5" font-family="Helvetica,sans-Serif" font-size="10.00">XY_Size::x_mul_y</text>
</a>
</g>
</g>
<!-- Node2&#45;&gt;Node7 -->
<g id="edge6" class="edge">
<title>Node2&#45;&gt;Node7</title>
<path fill="none" stroke="midnightblue" d="M372.82,-59.86C364.52,-58.56 355.82,-57.2 347.39,-55.88"/>
<polygon fill="midnightblue" stroke="midnightblue" points="372.28,-63.32 382.7,-61.4 373.36,-56.4 372.28,-63.32"/>
</g>
<!-- Node8 -->
<g id="node8" class="node">
<title>Node8</title>
<g id="a_node8"><a xlink:href="struct_x_y___size.html#a2db4fb0d73fbbafb70315253aa4171d4" target="_top" xlink:title=" ">
<polygon fill="white" stroke="black" points="262.5,-0.5 262.5,-19.5 329.5,-19.5 329.5,-0.5 262.5,-0.5"/>
<text text-anchor="middle" x="296" y="-7.5" font-family="Helvetica,sans-Serif" font-size="10.00">XY_Size::y</text>
</a>
</g>
</g>
<!-- Node2&#45;&gt;Node8 -->
<g id="edge7" class="edge">
<title>Node2&#45;&gt;Node8</title>
<path fill="none" stroke="midnightblue" d="M393.3,-52.61C379.78,-45.15 362.71,-36.12 347,-29 339.64,-25.66 331.51,-22.4 323.98,-19.55"/>
<polygon fill="midnightblue" stroke="midnightblue" points="391.6,-55.67 402.04,-57.49 395.01,-49.56 391.6,-55.67"/>
</g>
<!-- Node4 -->
<g id="node4" class="node">
<title>Node4</title>
<g id="a_node4"><a xlink:href="struct_macro.html#ac0ddd588c300108ca443b10316d99877" target="_top" xlink:title=" ">
<polygon fill="white" stroke="black" points="90,-114.5 90,-133.5 209,-133.5 209,-114.5 90,-114.5"/>
<text text-anchor="middle" x="149.5" y="-121.5" font-family="Helvetica,sans-Serif" font-size="10.00">Macro::replaceMacro</text>
</a>
</g>
</g>
<!-- Node3&#45;&gt;Node4 -->
<g id="edge3" class="edge">
<title>Node3&#45;&gt;Node4</title>
<path fill="none" stroke="midnightblue" d="M235.25,-124C226.58,-124 217.67,-124 209.03,-124"/>
<polygon fill="midnightblue" stroke="midnightblue" points="235.27,-127.5 245.27,-124 235.27,-120.5 235.27,-127.5"/>
</g>
<!-- Node5 -->
<g id="node5" class="node">
<title>Node5</title>
<g id="a_node5"><a xlink:href="class_alg.html#a45e536cf797bba52c851877371ea64c5" target="_top" xlink:title=" ">
<polygon fill="white" stroke="black" points="0,-114.5 0,-133.5 54,-133.5 54,-114.5 0,-114.5"/>
<text text-anchor="middle" x="27" y="-121.5" font-family="Helvetica,sans-Serif" font-size="10.00">Alg::Alg</text>
</a>
</g>
</g>
<!-- Node4&#45;&gt;Node5 -->
<g id="edge4" class="edge">
<title>Node4&#45;&gt;Node5</title>
<path fill="none" stroke="midnightblue" d="M79.49,-124C70.55,-124 61.87,-124 54.26,-124"/>
<polygon fill="midnightblue" stroke="midnightblue" points="79.66,-127.5 89.66,-124 79.66,-120.5 79.66,-127.5"/>
</g>
</g>
</svg>
