<?xml version="1.0" encoding="UTF-8" standalone="no"?>
<!DOCTYPE svg PUBLIC "-//W3C//DTD SVG 1.1//EN"
 "http://www.w3.org/Graphics/SVG/1.1/DTD/svg11.dtd">
<!-- Generated by graphviz version 2.43.0 (0)
 -->
<!-- Title: Export::_setVarNames Pages: 1 -->
<svg width="253pt" height="66pt"
 viewBox="0.00 0.00 253.00 66.00" xmlns="http://www.w3.org/2000/svg" xmlns:xlink="http://www.w3.org/1999/xlink">
<g id="graph0" class="graph" transform="scale(1 1) rotate(0) translate(4 62)">
<title>Export::_setVarNames</title>
<polygon fill="white" stroke="transparent" points="-4,4 -4,-62 249,-62 249,4 -4,4"/>
<!-- Node1 -->
<g id="node1" class="node">
<title>Node1</title>
<g id="a_node1"><a xlink:title="Set the variable names defined by users.">
<polygon fill="#bfbfbf" stroke="black" points="0,-19.5 0,-38.5 125,-38.5 125,-19.5 0,-19.5"/>
<text text-anchor="middle" x="62.5" y="-26.5" font-family="Helvetica,sans-Serif" font-size="10.00">Export::_setVarNames</text>
</a>
</g>
</g>
<!-- Node2 -->
<g id="node2" class="node">
<title>Node2</title>
<g id="a_node2"><a xlink:href="class_export.html#a638d6b9ced18342503ee6f4d4b274740" target="_top" xlink:title=" ">
<polygon fill="white" stroke="black" points="161,-38.5 161,-57.5 245,-57.5 245,-38.5 161,-38.5"/>
<text text-anchor="middle" x="203" y="-45.5" font-family="Helvetica,sans-Serif" font-size="10.00">Export::_asStr</text>
</a>
</g>
</g>
<!-- Node1&#45;&gt;Node2 -->
<g id="edge1" class="edge">
<title>Node1&#45;&gt;Node2</title>
<path fill="none" stroke="midnightblue" d="M125.05,-37.44C133.68,-38.63 142.47,-39.83 150.88,-40.99"/>
<polygon fill="midnightblue" stroke="midnightblue" points="150.53,-44.47 160.91,-42.36 151.48,-37.54 150.53,-44.47"/>
</g>
<!-- Node3 -->
<g id="node3" class="node">
<title>Node3</title>
<g id="a_node3"><a xlink:href="utils_8h.html#af11c7cca5b9ad860da4bdb556dce3234" target="_top" xlink:title=" ">
<polygon fill="white" stroke="black" points="174,-0.5 174,-19.5 232,-19.5 232,-0.5 174,-0.5"/>
<text text-anchor="middle" x="203" y="-7.5" font-family="Helvetica,sans-Serif" font-size="10.00">contains</text>
</a>
</g>
</g>
<!-- Node1&#45;&gt;Node3 -->
<g id="edge2" class="edge">
<title>Node1&#45;&gt;Node3</title>
<path fill="none" stroke="midnightblue" d="M125.05,-20.56C138.24,-18.75 151.81,-16.89 163.8,-15.24"/>
<polygon fill="midnightblue" stroke="midnightblue" points="164.46,-18.68 173.89,-13.86 163.51,-11.75 164.46,-18.68"/>
</g>
</g>
</svg>
