<?xml version="1.0" encoding="UTF-8" standalone="no"?>
<!DOCTYPE svg PUBLIC "-//W3C//DTD SVG 1.1//EN"
 "http://www.w3.org/Graphics/SVG/1.1/DTD/svg11.dtd">
<!-- Generated by graphviz version 2.43.0 (0)
 -->
<!-- Title: Export::_setCascadedChannel Pages: 1 -->
<!--zoomable 312 -->
<svg id="main" version="1.1" xmlns="http://www.w3.org/2000/svg" xmlns:xlink="http://www.w3.org/1999/xlink" xml:space="preserve" onload="init(evt)">
<style type="text/css"><![CDATA[
.edge:hover path { stroke: red; }
.edge:hover polygon { stroke: red; fill: red; }
]]></style>
<script type="text/javascript"><![CDATA[
var edges = document.getElementsByTagName('g');
if (edges && edges.length) {
  for (var i=0;i<edges.length;i++) {
    if (edges[i].id.substr(0,4)=='edge') {
      edges[i].setAttribute('class','edge');
    }
  }
}
]]></script>
        <defs>
                <circle id="rim" cx="0" cy="0" r="7"/>
                <circle id="rim2" cx="0" cy="0" r="3.5"/>
                <g id="zoomPlus">
                        <use xlink:href="#rim" fill="#404040">
                                <set attributeName="fill" to="#808080" begin="zoomplus.mouseover" end="zoomplus.mouseout"/>
                        </use>
                        <path d="M-4,0h8M0,-4v8" fill="none" stroke="white" stroke-width="1.5" pointer-events="none"/>
                </g>
                <g id="zoomMin">
                        <use xlink:href="#rim" fill="#404040">
                                <set attributeName="fill" to="#808080" begin="zoomminus.mouseover" end="zoomminus.mouseout"/>
                        </use>
                        <path d="M-4,0h8" fill="none" stroke="white" stroke-width="1.5" pointer-events="none"/>
                </g>
                <g id="dirArrow">
                        <path fill="none" stroke="white" stroke-width="1.5" d="M0,-3.0v7 M-2.5,-0.5L0,-3.0L2.5,-0.5"/>
                </g>
               <g id="resetDef">
                       <use xlink:href="#rim2" fill="#404040">
                               <set attributeName="fill" to="#808080" begin="reset.mouseover" end="reset.mouseout"/>
                       </use>
               </g>
        </defs>

<script type="text/javascript">
var viewWidth = 649;
var viewHeight = 312;
var sectionId = 'dynsection-40';
</script>
<script xlink:href="svgpan.js"/>
<svg id="graph" class="graph">
<g id="viewport">
<title>Export::_setCascadedChannel</title>
<polygon fill="white" stroke="transparent" points="-4,4 -4,-308 645,-308 645,4 -4,4"/>
<!-- Node1 -->
<g id="node1" class="node">
<title>Node1</title>
<g id="a_node1"><a xlink:title=" ">
<polygon fill="#bfbfbf" stroke="black" points="0,-151.5 0,-170.5 161,-170.5 161,-151.5 0,-151.5"/>
<text text-anchor="middle" x="80.5" y="-158.5" font-family="Helvetica,sans-Serif" font-size="10.00">Export::_setCascadedChannel</text>
</a>
</g>
</g>
<!-- Node2 -->
<g id="node2" class="node">
<title>Node2</title>
<g id="a_node2"><a xlink:href="class_export.html#a33b5d571af76c0d4f9b9ee6e72afd8a6" target="_top" xlink:title=" ">
<polygon fill="white" stroke="black" points="222,-284.5 222,-303.5 327,-303.5 327,-284.5 222,-284.5"/>
<text text-anchor="middle" x="274.5" y="-291.5" font-family="Helvetica,sans-Serif" font-size="10.00">Export::_preCheck</text>
</a>
</g>
</g>
<!-- Node1&#45;&gt;Node2 -->
<g id="edge1" class="edge">
<title>Node1&#45;&gt;Node2</title>
<path fill="none" stroke="midnightblue" d="M89.09,-170.68C106.13,-191.78 149.67,-242.25 197,-270 204.59,-274.45 213.1,-278.17 221.6,-281.24"/>
<polygon fill="midnightblue" stroke="midnightblue" points="220.57,-284.58 231.16,-284.44 222.79,-277.94 220.57,-284.58"/>
</g>
<!-- Node4 -->
<g id="node4" class="node">
<title>Node4</title>
<g id="a_node4"><a xlink:href="class_channel___graph.html#a1d5672c3f2f82748ae7ca25d38cdeffd" target="_top" xlink:title="Add channel from configuration to the channel graph.">
<polygon fill="white" stroke="black" points="197,-170.5 197,-189.5 352,-189.5 352,-170.5 197,-170.5"/>
<text text-anchor="middle" x="274.5" y="-177.5" font-family="Helvetica,sans-Serif" font-size="10.00">Channel_Graph::addChannel</text>
</a>
</g>
</g>
<!-- Node1&#45;&gt;Node4 -->
<g id="edge3" class="edge">
<title>Node1&#45;&gt;Node4</title>
<path fill="none" stroke="midnightblue" d="M161.26,-168.89C169.61,-169.72 178.13,-170.56 186.55,-171.4"/>
<polygon fill="midnightblue" stroke="midnightblue" points="186.47,-174.9 196.77,-172.41 187.16,-167.94 186.47,-174.9"/>
</g>
<!-- Node5 -->
<g id="node5" class="node">
<title>Node5</title>
<g id="a_node5"><a xlink:href="class_log.html#add7e611cd3267d3fd5dae017e3aeef67" target="_top" xlink:title="Write infomation to the log file.">
<polygon fill="white" stroke="black" points="579,-151.5 579,-170.5 638,-170.5 638,-151.5 579,-151.5"/>
<text text-anchor="middle" x="608.5" y="-158.5" font-family="Helvetica,sans-Serif" font-size="10.00">Log::info</text>
</a>
</g>
</g>
<!-- Node1&#45;&gt;Node5 -->
<g id="edge15" class="edge">
<title>Node1&#45;&gt;Node5</title>
<path fill="none" stroke="midnightblue" d="M98.63,-170.52C160.89,-203.77 379.92,-308.92 540,-237 566.18,-225.24 586.34,-197.74 597.56,-179.25"/>
<polygon fill="midnightblue" stroke="midnightblue" points="600.63,-180.95 602.6,-170.54 594.57,-177.45 600.63,-180.95"/>
</g>
<!-- Node7 -->
<g id="node7" class="node">
<title>Node7</title>
<g id="a_node7"><a xlink:href="class_channel___graph.html#ac8aeff35f809d61816b2e1fadde523bf" target="_top" xlink:title=" ">
<polygon fill="white" stroke="black" points="207.5,-132.5 207.5,-151.5 341.5,-151.5 341.5,-132.5 207.5,-132.5"/>
<text text-anchor="middle" x="274.5" y="-139.5" font-family="Helvetica,sans-Serif" font-size="10.00">Channel_Graph::arrange</text>
</a>
</g>
</g>
<!-- Node1&#45;&gt;Node7 -->
<g id="edge6" class="edge">
<title>Node1&#45;&gt;Node7</title>
<path fill="none" stroke="midnightblue" d="M161.26,-153.11C173.13,-151.93 185.35,-150.72 197.15,-149.56"/>
<polygon fill="midnightblue" stroke="midnightblue" points="197.79,-153.01 207.39,-148.54 197.1,-146.04 197.79,-153.01"/>
</g>
<!-- Node13 -->
<g id="node13" class="node">
<title>Node13</title>
<g id="a_node13"><a xlink:href="class_channel___graph.html#a435ff7fef8f4eb3703ec34945476d845" target="_top" xlink:title="The number of paths in the channel graph.">
<polygon fill="white" stroke="black" points="201,-94.5 201,-113.5 348,-113.5 348,-94.5 201,-94.5"/>
<text text-anchor="middle" x="274.5" y="-101.5" font-family="Helvetica,sans-Serif" font-size="10.00">Channel_Graph::pathsNum</text>
</a>
</g>
</g>
<!-- Node1&#45;&gt;Node13 -->
<g id="edge16" class="edge">
<title>Node1&#45;&gt;Node13</title>
<path fill="none" stroke="midnightblue" d="M108.86,-151.36C132.15,-143.31 166.57,-131.77 197,-123 205.22,-120.63 213.99,-118.28 222.55,-116.09"/>
<polygon fill="midnightblue" stroke="midnightblue" points="223.62,-119.43 232.46,-113.6 221.91,-112.65 223.62,-119.43"/>
</g>
<!-- Node14 -->
<g id="node14" class="node">
<title>Node14</title>
<g id="a_node14"><a xlink:href="namespacemmce.html#ad4a160832ef9fad47c531ece39752208" target="_top" xlink:title="Change a number to string.">
<polygon fill="white" stroke="black" points="226.5,-56.5 226.5,-75.5 322.5,-75.5 322.5,-56.5 226.5,-56.5"/>
<text text-anchor="middle" x="274.5" y="-63.5" font-family="Helvetica,sans-Serif" font-size="10.00">mmce::to_string</text>
</a>
</g>
</g>
<!-- Node1&#45;&gt;Node14 -->
<g id="edge17" class="edge">
<title>Node1&#45;&gt;Node14</title>
<path fill="none" stroke="midnightblue" d="M93.19,-151.34C113.21,-135.26 155.88,-103 197,-85 203.15,-82.31 209.75,-79.95 216.4,-77.9"/>
<polygon fill="midnightblue" stroke="midnightblue" points="217.49,-81.22 226.14,-75.1 215.57,-74.5 217.49,-81.22"/>
</g>
<!-- Node3 -->
<g id="node3" class="node">
<title>Node3</title>
<g id="a_node3"><a xlink:href="error__code_8h.html#ae1bfa02e1106eff84ddecb9f7773a1a4" target="_top" xlink:title="Return the error message of the error code from class Err.">
<polygon fill="white" stroke="black" points="434,-284.5 434,-303.5 494,-303.5 494,-284.5 434,-284.5"/>
<text text-anchor="middle" x="464" y="-291.5" font-family="Helvetica,sans-Serif" font-size="10.00">errorMsg</text>
</a>
</g>
</g>
<!-- Node2&#45;&gt;Node3 -->
<g id="edge2" class="edge">
<title>Node2&#45;&gt;Node3</title>
<path fill="none" stroke="midnightblue" d="M327.23,-294C357.7,-294 395.64,-294 423.66,-294"/>
<polygon fill="midnightblue" stroke="midnightblue" points="423.87,-297.5 433.87,-294 423.87,-290.5 423.87,-297.5"/>
</g>
<!-- Node4&#45;&gt;Node5 -->
<g id="edge4" class="edge">
<title>Node4&#45;&gt;Node5</title>
<path fill="none" stroke="midnightblue" d="M352.08,-175.62C419.77,-171.74 515.72,-166.25 568.66,-163.22"/>
<polygon fill="midnightblue" stroke="midnightblue" points="568.87,-166.72 578.65,-162.65 568.47,-159.73 568.87,-166.72"/>
</g>
<!-- Node6 -->
<g id="node6" class="node">
<title>Node6</title>
<g id="a_node6"><a xlink:href="class_channel___graph.html#aae9750c0d38d48b6280336efcb258dc3" target="_top" xlink:title=" ">
<polygon fill="white" stroke="black" points="390,-208.5 390,-227.5 538,-227.5 538,-208.5 390,-208.5"/>
<text text-anchor="middle" x="464" y="-215.5" font-family="Helvetica,sans-Serif" font-size="10.00">Channel_Graph::nodeIndex</text>
</a>
</g>
</g>
<!-- Node4&#45;&gt;Node6 -->
<g id="edge5" class="edge">
<title>Node4&#45;&gt;Node6</title>
<path fill="none" stroke="midnightblue" d="M322.81,-189.59C348.11,-194.72 379.45,-201.07 406.07,-206.46"/>
<polygon fill="midnightblue" stroke="midnightblue" points="405.53,-209.92 416.03,-208.48 406.92,-203.06 405.53,-209.92"/>
</g>
<!-- Node7&#45;&gt;Node5 -->
<g id="edge14" class="edge">
<title>Node7&#45;&gt;Node5</title>
<path fill="none" stroke="midnightblue" d="M341.89,-145.8C409.8,-149.69 513,-155.59 568.66,-158.78"/>
<polygon fill="midnightblue" stroke="midnightblue" points="568.62,-162.28 578.81,-159.36 569.02,-155.29 568.62,-162.28"/>
</g>
<!-- Node8 -->
<g id="node8" class="node">
<title>Node8</title>
<g id="a_node8"><a xlink:href="class_channel___graph.html#afe38f4cb30dbc0b32ac4746d1ac506ab" target="_top" xlink:title="Form paths based on the current frontier.">
<polygon fill="white" stroke="black" points="388,-38.5 388,-57.5 540,-57.5 540,-38.5 388,-38.5"/>
<text text-anchor="middle" x="464" y="-45.5" font-family="Helvetica,sans-Serif" font-size="10.00">Channel_Graph::_formPaths</text>
</a>
</g>
</g>
<!-- Node7&#45;&gt;Node8 -->
<g id="edge7" class="edge">
<title>Node7&#45;&gt;Node8</title>
<path fill="none" stroke="midnightblue" d="M330.5,-132.4C338,-129.94 345.38,-126.86 352,-123 372.1,-111.28 369.28,-98.81 388,-85 400.41,-75.85 415.44,-67.92 428.77,-61.78"/>
<polygon fill="midnightblue" stroke="midnightblue" points="430.4,-64.88 438.11,-57.63 427.55,-58.49 430.4,-64.88"/>
</g>
<!-- Node10 -->
<g id="node10" class="node">
<title>Node10</title>
<g id="a_node10"><a xlink:href="class_channel___graph.html#a2adfda1671f47ec64a2fdb3f29664a0f" target="_top" xlink:title="Sort paths.">
<polygon fill="white" stroke="black" points="390.5,-94.5 390.5,-113.5 537.5,-113.5 537.5,-94.5 390.5,-94.5"/>
<text text-anchor="middle" x="464" y="-101.5" font-family="Helvetica,sans-Serif" font-size="10.00">Channel_Graph::_sortPaths</text>
</a>
</g>
</g>
<!-- Node7&#45;&gt;Node10 -->
<g id="edge10" class="edge">
<title>Node7&#45;&gt;Node10</title>
<path fill="none" stroke="midnightblue" d="M322.81,-132.41C348.11,-127.28 379.45,-120.93 406.07,-115.54"/>
<polygon fill="midnightblue" stroke="midnightblue" points="406.92,-118.94 416.03,-113.52 405.53,-112.08 406.92,-118.94"/>
</g>
<!-- Node12 -->
<g id="node12" class="node">
<title>Node12</title>
<g id="a_node12"><a xlink:href="class_log.html#ac7147942832455398ad289b706a02616" target="_top" xlink:title="Write error message to the log file.">
<polygon fill="white" stroke="black" points="437.5,-0.5 437.5,-19.5 490.5,-19.5 490.5,-0.5 437.5,-0.5"/>
<text text-anchor="middle" x="464" y="-7.5" font-family="Helvetica,sans-Serif" font-size="10.00">Log::err</text>
</a>
</g>
</g>
<!-- Node7&#45;&gt;Node12 -->
<g id="edge13" class="edge">
<title>Node7&#45;&gt;Node12</title>
<path fill="none" stroke="midnightblue" d="M337.47,-132.35C342.74,-129.88 347.7,-126.81 352,-123 385.51,-93.36 354.56,-58.72 388,-29 398.72,-19.47 413.55,-14.59 427.19,-12.13"/>
<polygon fill="midnightblue" stroke="midnightblue" points="427.9,-15.56 437.3,-10.69 426.91,-8.63 427.9,-15.56"/>
</g>
<!-- Node8&#45;&gt;Node8 -->
<g id="edge8" class="edge">
<title>Node8&#45;&gt;Node8</title>
<path fill="none" stroke="midnightblue" d="M441.81,-57.76C431.01,-66.57 438.41,-76 464,-76 480.8,-76 489.76,-71.94 490.88,-66.65"/>
<polygon fill="midnightblue" stroke="midnightblue" points="493.95,-64.97 486.19,-57.76 487.76,-68.24 493.95,-64.97"/>
</g>
<!-- Node9 -->
<g id="node9" class="node">
<title>Node9</title>
<g id="a_node9"><a xlink:href="utils_8h.html#af11c7cca5b9ad860da4bdb556dce3234" target="_top" xlink:title=" ">
<polygon fill="white" stroke="black" points="579.5,-38.5 579.5,-57.5 637.5,-57.5 637.5,-38.5 579.5,-38.5"/>
<text text-anchor="middle" x="608.5" y="-45.5" font-family="Helvetica,sans-Serif" font-size="10.00">contains</text>
</a>
</g>
</g>
<!-- Node8&#45;&gt;Node9 -->
<g id="edge9" class="edge">
<title>Node8&#45;&gt;Node9</title>
<path fill="none" stroke="midnightblue" d="M540.01,-48C550.13,-48 560.15,-48 569.24,-48"/>
<polygon fill="midnightblue" stroke="midnightblue" points="569.45,-51.5 579.45,-48 569.45,-44.5 569.45,-51.5"/>
</g>
<!-- Node10&#45;&gt;Node5 -->
<g id="edge11" class="edge">
<title>Node10&#45;&gt;Node5</title>
<path fill="none" stroke="midnightblue" d="M498.6,-113.61C511.67,-117.65 526.68,-122.65 540,-128 553.66,-133.49 568.39,-140.55 580.59,-146.73"/>
<polygon fill="midnightblue" stroke="midnightblue" points="579.28,-149.99 589.77,-151.45 582.48,-143.77 579.28,-149.99"/>
</g>
<!-- Node11 -->
<g id="node11" class="node">
<title>Node11</title>
<g id="a_node11"><a xlink:href="class_log.html#a3410828f35c9bf8dd0771ead28de27b0" target="_top" xlink:title="Write contents to the log file.">
<polygon fill="white" stroke="black" points="576,-94.5 576,-113.5 641,-113.5 641,-94.5 576,-94.5"/>
<text text-anchor="middle" x="608.5" y="-101.5" font-family="Helvetica,sans-Serif" font-size="10.00">Log::write</text>
</a>
</g>
</g>
<!-- Node10&#45;&gt;Node11 -->
<g id="edge12" class="edge">
<title>Node10&#45;&gt;Node11</title>
<path fill="none" stroke="midnightblue" d="M537.5,-104C547.19,-104 556.84,-104 565.75,-104"/>
<polygon fill="midnightblue" stroke="midnightblue" points="565.82,-107.5 575.82,-104 565.82,-100.5 565.82,-107.5"/>
</g>
</g>
</svg>
        <g id="navigator" transform="translate(0 0)" fill="#404254">
                <rect fill="#f2f5e9" fill-opacity="0.5" stroke="#606060" stroke-width=".5" x="0" y="0" width="60" height="60"/>
                <use id="zoomplus" xlink:href="#zoomPlus" x="17" y="9" onmousedown="handleZoom(evt,'in')"/>
                <use id="zoomminus" xlink:href="#zoomMin" x="42" y="9" onmousedown="handleZoom(evt,'out')"/>
                <use id="reset" xlink:href="#resetDef" x="30" y="36" onmousedown="handleReset()"/>
                <g id="arrowUp" xlink:href="#dirArrow" transform="translate(30 24)" onmousedown="handlePan(0,-1)">
                  <use xlink:href="#rim" fill="#404040">
                        <set attributeName="fill" to="#808080" begin="arrowUp.mouseover" end="arrowUp.mouseout"/>
                  </use>
                  <path fill="none" stroke="white" stroke-width="1.5" d="M0,-3.0v7 M-2.5,-0.5L0,-3.0L2.5,-0.5"/>
                </g>
                <g id="arrowRight" xlink:href="#dirArrow" transform="rotate(90) translate(36 -43)" onmousedown="handlePan(1,0)">
                  <use xlink:href="#rim" fill="#404040">
                        <set attributeName="fill" to="#808080" begin="arrowRight.mouseover" end="arrowRight.mouseout"/>
                  </use>
                  <path fill="none" stroke="white" stroke-width="1.5" d="M0,-3.0v7 M-2.5,-0.5L0,-3.0L2.5,-0.5"/>
                </g>
                <g id="arrowDown" xlink:href="#dirArrow" transform="rotate(180) translate(-30 -48)" onmousedown="handlePan(0,1)">
                  <use xlink:href="#rim" fill="#404040">
                        <set attributeName="fill" to="#808080" begin="arrowDown.mouseover" end="arrowDown.mouseout"/>
                  </use>
                  <path fill="none" stroke="white" stroke-width="1.5" d="M0,-3.0v7 M-2.5,-0.5L0,-3.0L2.5,-0.5"/>
                </g>
                <g id="arrowLeft" xlink:href="#dirArrow" transform="rotate(270) translate(-36 17)" onmousedown="handlePan(-1,0)">
                  <use xlink:href="#rim" fill="#404040">
                        <set attributeName="fill" to="#808080" begin="arrowLeft.mouseover" end="arrowLeft.mouseout"/>
                  </use>
                  <path fill="none" stroke="white" stroke-width="1.5" d="M0,-3.0v7 M-2.5,-0.5L0,-3.0L2.5,-0.5"/>
                </g>
        </g>
        <svg viewBox="0 0 15 15" width="100%" height="30px" preserveAspectRatio="xMaxYMin meet">
         <g id="arrow_out" transform="scale(0.3 0.3)">
          <a xlink:href="class_export_ad7bd412c3fe1d5accc38cf1f2ab65ea0_cgraph_org.svg" target="_base">
           <rect id="button" ry="5" rx="5" y="6" x="6" height="38" width="38"
                fill="#f2f5e9" fill-opacity="0.5" stroke="#606060" stroke-width="1.0"/>
           <path id="arrow"
             d="M 11.500037,31.436501 C 11.940474,20.09759 22.043105,11.32322 32.158766,21.979434 L 37.068811,17.246167 C 37.068811,17.246167 37.088388,32 37.088388,32 L 22.160133,31.978069 C 22.160133,31.978069 26.997745,27.140456 26.997745,27.140456 C 18.528582,18.264221 13.291696,25.230495 11.500037,31.436501 z"
             style="fill:#404040;"/>
          </a>
         </g>
        </svg>
</svg>
