<?xml version="1.0" encoding="UTF-8" standalone="no"?>
<!DOCTYPE svg PUBLIC "-//W3C//DTD SVG 1.1//EN"
 "http://www.w3.org/Graphics/SVG/1.1/DTD/svg11.dtd">
<!-- Generated by graphviz version 2.43.0 (0)
 -->
<!-- Title: Channel_Graph::_formPaths Pages: 1 -->
<svg width="819pt" height="66pt"
 viewBox="0.00 0.00 819.00 66.00" xmlns="http://www.w3.org/2000/svg" xmlns:xlink="http://www.w3.org/1999/xlink">
<g id="graph0" class="graph" transform="scale(1 1) rotate(0) translate(4 62)">
<title>Channel_Graph::_formPaths</title>
<polygon fill="white" stroke="transparent" points="-4,4 -4,-62 815,-62 815,4 -4,4"/>
<!-- Node1 -->
<g id="node1" class="node">
<title>Node1</title>
<g id="a_node1"><a xlink:title="Form paths based on the current frontier.">
<polygon fill="#bfbfbf" stroke="black" points="659,-19.5 659,-38.5 811,-38.5 811,-19.5 659,-19.5"/>
<text text-anchor="middle" x="735" y="-26.5" font-family="Helvetica,sans-Serif" font-size="10.00">Channel_Graph::_formPaths</text>
</a>
</g>
</g>
<!-- Node1&#45;&gt;Node1 -->
<g id="edge1" class="edge">
<title>Node1&#45;&gt;Node1</title>
<path fill="none" stroke="midnightblue" d="M768.36,-46.89C767.87,-52.54 756.75,-57 735,-57 703.36,-57 694.22,-47.57 707.57,-38.76"/>
<polygon fill="midnightblue" stroke="midnightblue" points="771.15,-44.78 762.43,-38.76 765.49,-48.9 771.15,-44.78"/>
</g>
<!-- Node2 -->
<g id="node2" class="node">
<title>Node2</title>
<g id="a_node2"><a xlink:href="class_channel___graph.html#ac8aeff35f809d61816b2e1fadde523bf" target="_top" xlink:title=" ">
<polygon fill="white" stroke="black" points="489,-19.5 489,-38.5 623,-38.5 623,-19.5 489,-19.5"/>
<text text-anchor="middle" x="556" y="-26.5" font-family="Helvetica,sans-Serif" font-size="10.00">Channel_Graph::arrange</text>
</a>
</g>
</g>
<!-- Node1&#45;&gt;Node2 -->
<g id="edge2" class="edge">
<title>Node1&#45;&gt;Node2</title>
<path fill="none" stroke="midnightblue" d="M648.86,-29C640.24,-29 631.59,-29 623.21,-29"/>
<polygon fill="midnightblue" stroke="midnightblue" points="648.94,-32.5 658.94,-29 648.94,-25.5 648.94,-32.5"/>
</g>
<!-- Node3 -->
<g id="node3" class="node">
<title>Node3</title>
<g id="a_node3"><a xlink:href="class_export.html#ad7bd412c3fe1d5accc38cf1f2ab65ea0" target="_top" xlink:title=" ">
<polygon fill="white" stroke="black" points="292,-19.5 292,-38.5 453,-38.5 453,-19.5 292,-19.5"/>
<text text-anchor="middle" x="372.5" y="-26.5" font-family="Helvetica,sans-Serif" font-size="10.00">Export::_setCascadedChannel</text>
</a>
</g>
</g>
<!-- Node2&#45;&gt;Node3 -->
<g id="edge3" class="edge">
<title>Node2&#45;&gt;Node3</title>
<path fill="none" stroke="midnightblue" d="M478.73,-29C470.25,-29 461.6,-29 453.08,-29"/>
<polygon fill="midnightblue" stroke="midnightblue" points="478.96,-32.5 488.96,-29 478.96,-25.5 478.96,-32.5"/>
</g>
<!-- Node4 -->
<g id="node4" class="node">
<title>Node4</title>
<g id="a_node4"><a xlink:href="class_export.html#affc37d1d677a83d3e5d36a4e37b7a72b" target="_top" xlink:title=" ">
<polygon fill="white" stroke="black" points="146,-19.5 146,-38.5 256,-38.5 256,-19.5 146,-19.5"/>
<text text-anchor="middle" x="201" y="-26.5" font-family="Helvetica,sans-Serif" font-size="10.00">Export::exportCode</text>
</a>
</g>
</g>
<!-- Node3&#45;&gt;Node4 -->
<g id="edge4" class="edge">
<title>Node3&#45;&gt;Node4</title>
<path fill="none" stroke="midnightblue" d="M281.56,-29C272.92,-29 264.35,-29 256.22,-29"/>
<polygon fill="midnightblue" stroke="midnightblue" points="281.71,-32.5 291.71,-29 281.71,-25.5 281.71,-32.5"/>
</g>
<!-- Node5 -->
<g id="node5" class="node">
<title>Node5</title>
<g id="a_node5"><a xlink:href="class_export.html#a94fab568af6ddd6447efca74e205e081" target="_top" xlink:title=" ">
<polygon fill="white" stroke="black" points="0,-38.5 0,-57.5 110,-57.5 110,-38.5 0,-38.5"/>
<text text-anchor="middle" x="55" y="-45.5" font-family="Helvetica,sans-Serif" font-size="10.00">Export::exportCode</text>
</a>
</g>
</g>
<!-- Node4&#45;&gt;Node5 -->
<g id="edge5" class="edge">
<title>Node4&#45;&gt;Node5</title>
<path fill="none" stroke="midnightblue" d="M136.01,-37.44C127.44,-38.57 118.72,-39.73 110.33,-40.83"/>
<polygon fill="midnightblue" stroke="midnightblue" points="136.51,-40.91 145.97,-36.13 135.6,-33.97 136.51,-40.91"/>
</g>
<!-- Node6 -->
<g id="node6" class="node">
<title>Node6</title>
<g id="a_node6"><a xlink:href="src_2main_8cpp.html#a0ddf1224851353fc92bfbff6f499fa97" target="_top" xlink:title=" ">
<polygon fill="white" stroke="black" points="34.5,-0.5 34.5,-19.5 75.5,-19.5 75.5,-0.5 34.5,-0.5"/>
<text text-anchor="middle" x="55" y="-7.5" font-family="Helvetica,sans-Serif" font-size="10.00">main</text>
</a>
</g>
</g>
<!-- Node4&#45;&gt;Node6 -->
<g id="edge6" class="edge">
<title>Node4&#45;&gt;Node6</title>
<path fill="none" stroke="midnightblue" d="M136.05,-20.56C114.24,-17.68 91.43,-14.67 75.76,-12.61"/>
<polygon fill="midnightblue" stroke="midnightblue" points="135.6,-24.03 145.97,-21.87 136.51,-17.09 135.6,-24.03"/>
</g>
</g>
</svg>
