<?xml version="1.0" encoding="UTF-8" standalone="no"?>
<!DOCTYPE svg PUBLIC "-//W3C//DTD SVG 1.1//EN"
 "http://www.w3.org/Graphics/SVG/1.1/DTD/svg11.dtd">
<!-- Generated by graphviz version 2.43.0 (0)
 -->
<!-- Title: Export::_reporting Pages: 1 -->
<!--zoomable 446 -->
<svg id="main" version="1.1" xmlns="http://www.w3.org/2000/svg" xmlns:xlink="http://www.w3.org/1999/xlink" xml:space="preserve" onload="init(evt)">
<style type="text/css"><![CDATA[
.edge:hover path { stroke: red; }
.edge:hover polygon { stroke: red; fill: red; }
]]></style>
<script type="text/javascript"><![CDATA[
var edges = document.getElementsByTagName('g');
if (edges && edges.length) {
  for (var i=0;i<edges.length;i++) {
    if (edges[i].id.substr(0,4)=='edge') {
      edges[i].setAttribute('class','edge');
    }
  }
}
]]></script>
        <defs>
                <circle id="rim" cx="0" cy="0" r="7"/>
                <circle id="rim2" cx="0" cy="0" r="3.5"/>
                <g id="zoomPlus">
                        <use xlink:href="#rim" fill="#404040">
                                <set attributeName="fill" to="#808080" begin="zoomplus.mouseover" end="zoomplus.mouseout"/>
                        </use>
                        <path d="M-4,0h8M0,-4v8" fill="none" stroke="white" stroke-width="1.5" pointer-events="none"/>
                </g>
                <g id="zoomMin">
                        <use xlink:href="#rim" fill="#404040">
                                <set attributeName="fill" to="#808080" begin="zoomminus.mouseover" end="zoomminus.mouseout"/>
                        </use>
                        <path d="M-4,0h8" fill="none" stroke="white" stroke-width="1.5" pointer-events="none"/>
                </g>
                <g id="dirArrow">
                        <path fill="none" stroke="white" stroke-width="1.5" d="M0,-3.0v7 M-2.5,-0.5L0,-3.0L2.5,-0.5"/>
                </g>
               <g id="resetDef">
                       <use xlink:href="#rim2" fill="#404040">
                               <set attributeName="fill" to="#808080" begin="reset.mouseover" end="reset.mouseout"/>
                       </use>
               </g>
        </defs>

<script type="text/javascript">
var viewWidth = 552;
var viewHeight = 446;
var sectionId = 'dynsection-38';
</script>
<script xlink:href="svgpan.js"/>
<svg id="graph" class="graph">
<g id="viewport">
<title>Export::_reporting</title>
<polygon fill="white" stroke="transparent" points="-4,4 -4,-442 548,-442 548,4 -4,4"/>
<!-- Node1 -->
<g id="node1" class="node">
<title>Node1</title>
<g id="a_node1"><a xlink:title=" ">
<polygon fill="#bfbfbf" stroke="black" points="0,-209.5 0,-228.5 104,-228.5 104,-209.5 0,-209.5"/>
<text text-anchor="middle" x="52" y="-216.5" font-family="Helvetica,sans-Serif" font-size="10.00">Export::_reporting</text>
</a>
</g>
</g>
<!-- Node2 -->
<g id="node2" class="node">
<title>Node2</title>
<g id="a_node2"><a xlink:href="class_export.html#a638d6b9ced18342503ee6f4d4b274740" target="_top" xlink:title=" ">
<polygon fill="white" stroke="black" points="181.5,-418.5 181.5,-437.5 265.5,-437.5 265.5,-418.5 181.5,-418.5"/>
<text text-anchor="middle" x="223.5" y="-425.5" font-family="Helvetica,sans-Serif" font-size="10.00">Export::_asStr</text>
</a>
</g>
</g>
<!-- Node1&#45;&gt;Node2 -->
<g id="edge1" class="edge">
<title>Node1&#45;&gt;Node2</title>
<path fill="none" stroke="midnightblue" d="M54.67,-228.75C60.47,-259.43 82.53,-354.89 140,-404 148.95,-411.65 160.21,-416.86 171.52,-420.41"/>
<polygon fill="midnightblue" stroke="midnightblue" points="170.84,-423.85 181.41,-423.13 172.69,-417.1 170.84,-423.85"/>
</g>
<!-- Node3 -->
<g id="node3" class="node">
<title>Node3</title>
<g id="a_node3"><a xlink:href="class_export.html#a966a54f05ada435d6d1ce6e4a9750f41" target="_top" xlink:title=" ">
<polygon fill="white" stroke="black" points="140,-342.5 140,-361.5 307,-361.5 307,-342.5 140,-342.5"/>
<text text-anchor="middle" x="223.5" y="-349.5" font-family="Helvetica,sans-Serif" font-size="10.00">Export::_checkALGdependency</text>
</a>
</g>
</g>
<!-- Node1&#45;&gt;Node3 -->
<g id="edge2" class="edge">
<title>Node1&#45;&gt;Node3</title>
<path fill="none" stroke="midnightblue" d="M58.06,-228.82C69.6,-250.2 99.97,-301.19 140,-328 146.7,-332.48 154.24,-336.15 161.98,-339.13"/>
<polygon fill="midnightblue" stroke="midnightblue" points="160.87,-342.45 171.47,-342.45 163.18,-335.84 160.87,-342.45"/>
</g>
<!-- Node4 -->
<g id="node4" class="node">
<title>Node4</title>
<g id="a_node4"><a xlink:href="utils_8h.html#a49dc116689f1a4202be4d3f0743b1f70" target="_top" xlink:title=" ">
<polygon fill="white" stroke="black" points="371,-418.5 371,-437.5 420,-437.5 420,-418.5 371,-418.5"/>
<text text-anchor="middle" x="395.5" y="-425.5" font-family="Helvetica,sans-Serif" font-size="10.00">appDir</text>
</a>
</g>
</g>
<!-- Node1&#45;&gt;Node4 -->
<g id="edge14" class="edge">
<title>Node1&#45;&gt;Node4</title>
<path fill="none" stroke="midnightblue" d="M55.55,-228.67C63.24,-255.84 88.86,-333.27 140,-371 142.25,-372.66 292.3,-405.64 360.92,-420.66"/>
<polygon fill="midnightblue" stroke="midnightblue" points="360.29,-424.11 370.81,-422.83 361.79,-417.27 360.29,-424.11"/>
</g>
<!-- Node5 -->
<g id="node5" class="node">
<title>Node5</title>
<g id="a_node5"><a xlink:href="utils_8h.html#af11c7cca5b9ad860da4bdb556dce3234" target="_top" xlink:title=" ">
<polygon fill="white" stroke="black" points="366.5,-266.5 366.5,-285.5 424.5,-285.5 424.5,-266.5 366.5,-266.5"/>
<text text-anchor="middle" x="395.5" y="-273.5" font-family="Helvetica,sans-Serif" font-size="10.00">contains</text>
</a>
</g>
</g>
<!-- Node1&#45;&gt;Node5 -->
<g id="edge17" class="edge">
<title>Node1&#45;&gt;Node5</title>
<path fill="none" stroke="midnightblue" d="M60.04,-228.61C73.36,-245.86 104.14,-281.54 140,-295 213.11,-322.44 306.19,-303.09 357.08,-288.37"/>
<polygon fill="midnightblue" stroke="midnightblue" points="358.1,-291.72 366.68,-285.5 356.09,-285.01 358.1,-291.72"/>
</g>
<!-- Node9 -->
<g id="node9" class="node">
<title>Node9</title>
<g id="a_node9"><a xlink:href="class_export.html#abe75ae41d7cc8afe8f1ba4bbf67dfcfc" target="_top" xlink:title=" ">
<polygon fill="white" stroke="black" points="192,-266.5 192,-285.5 255,-285.5 255,-266.5 192,-266.5"/>
<text text-anchor="middle" x="223.5" y="-273.5" font-family="Helvetica,sans-Serif" font-size="10.00">Export::_f</text>
</a>
</g>
</g>
<!-- Node1&#45;&gt;Node9 -->
<g id="edge8" class="edge">
<title>Node1&#45;&gt;Node9</title>
<path fill="none" stroke="midnightblue" d="M72.29,-228.66C89.66,-237.06 116.06,-249.09 140,-257 153.46,-261.45 168.48,-265.24 181.98,-268.24"/>
<polygon fill="midnightblue" stroke="midnightblue" points="181.45,-271.7 191.96,-270.38 182.91,-264.86 181.45,-271.7"/>
</g>
<!-- Node10 -->
<g id="node10" class="node">
<title>Node10</title>
<g id="a_node10"><a xlink:href="class_export.html#a4dd19b0ff2eb109897fb486769fefffe" target="_top" xlink:title="Get the size of the node (Tx/Rx/RIS).">
<polygon fill="white" stroke="black" points="176,-228.5 176,-247.5 271,-247.5 271,-228.5 176,-228.5"/>
<text text-anchor="middle" x="223.5" y="-235.5" font-family="Helvetica,sans-Serif" font-size="10.00">Export::_getSize</text>
</a>
</g>
</g>
<!-- Node1&#45;&gt;Node10 -->
<g id="edge9" class="edge">
<title>Node1&#45;&gt;Node10</title>
<path fill="none" stroke="midnightblue" d="M104.32,-224.75C123.73,-226.93 145.94,-229.42 165.82,-231.65"/>
<polygon fill="midnightblue" stroke="midnightblue" points="165.65,-235.15 175.97,-232.78 166.43,-228.19 165.65,-235.15"/>
</g>
<!-- Node11 -->
<g id="node11" class="node">
<title>Node11</title>
<g id="a_node11"><a xlink:href="class_export.html#ab8f7bd9bd6f244d03c3f332df34e0139" target="_top" xlink:title=" ">
<polygon fill="white" stroke="black" points="164.5,-190.5 164.5,-209.5 282.5,-209.5 282.5,-190.5 164.5,-190.5"/>
<text text-anchor="middle" x="223.5" y="-197.5" font-family="Helvetica,sans-Serif" font-size="10.00">Export::_getTestNum</text>
</a>
</g>
</g>
<!-- Node1&#45;&gt;Node11 -->
<g id="edge10" class="edge">
<title>Node1&#45;&gt;Node11</title>
<path fill="none" stroke="midnightblue" d="M104.32,-213.25C119.97,-211.49 137.44,-209.54 154.04,-207.67"/>
<polygon fill="midnightblue" stroke="midnightblue" points="154.69,-211.12 164.24,-206.53 153.91,-204.17 154.69,-211.12"/>
</g>
<!-- Node12 -->
<g id="node12" class="node">
<title>Node12</title>
<g id="a_node12"><a xlink:href="class_export.html#a33b5d571af76c0d4f9b9ee6e72afd8a6" target="_top" xlink:title=" ">
<polygon fill="white" stroke="black" points="343,-171.5 343,-190.5 448,-190.5 448,-171.5 343,-171.5"/>
<text text-anchor="middle" x="395.5" y="-178.5" font-family="Helvetica,sans-Serif" font-size="10.00">Export::_preCheck</text>
</a>
</g>
</g>
<!-- Node1&#45;&gt;Node12 -->
<g id="edge13" class="edge">
<title>Node1&#45;&gt;Node12</title>
<path fill="none" stroke="midnightblue" d="M69.32,-209.43C86.31,-200.06 114.02,-186.43 140,-181 204.67,-167.49 280.62,-169.76 332.61,-173.99"/>
<polygon fill="midnightblue" stroke="midnightblue" points="332.42,-177.49 342.68,-174.86 333.02,-170.51 332.42,-177.49"/>
</g>
<!-- Node14 -->
<g id="node14" class="node">
<title>Node14</title>
<g id="a_node14"><a xlink:href="class_value___vec.html#ad2bf1b9a255e5433d3e0d4237543e35a" target="_top" xlink:title=" ">
<polygon fill="white" stroke="black" points="175,-114.5 175,-133.5 272,-133.5 272,-114.5 175,-114.5"/>
<text text-anchor="middle" x="223.5" y="-121.5" font-family="Helvetica,sans-Serif" font-size="10.00">Value_Vec::asStr</text>
</a>
</g>
</g>
<!-- Node1&#45;&gt;Node14 -->
<g id="edge15" class="edge">
<title>Node1&#45;&gt;Node14</title>
<path fill="none" stroke="midnightblue" d="M62.24,-209.27C77.19,-194.06 108.24,-164.69 140,-148 148.62,-143.47 158.22,-139.69 167.73,-136.57"/>
<polygon fill="midnightblue" stroke="midnightblue" points="169.02,-139.83 177.56,-133.55 166.97,-133.14 169.02,-139.83"/>
</g>
<!-- Node15 -->
<g id="node15" class="node">
<title>Node15</title>
<g id="a_node15"><a xlink:href="namespacemmce.html#ad4a160832ef9fad47c531ece39752208" target="_top" xlink:title="Change a number to string.">
<polygon fill="white" stroke="black" points="347.5,-95.5 347.5,-114.5 443.5,-114.5 443.5,-95.5 347.5,-95.5"/>
<text text-anchor="middle" x="395.5" y="-102.5" font-family="Helvetica,sans-Serif" font-size="10.00">mmce::to_string</text>
</a>
</g>
</g>
<!-- Node1&#45;&gt;Node15 -->
<g id="edge20" class="edge">
<title>Node1&#45;&gt;Node15</title>
<path fill="none" stroke="midnightblue" d="M56.82,-209.25C66.54,-185.96 94.7,-127.41 140,-105 206.6,-72.05 295.52,-82.39 348.7,-93.36"/>
<polygon fill="midnightblue" stroke="midnightblue" points="348,-96.79 358.52,-95.48 349.48,-89.95 348,-96.79"/>
</g>
<!-- Node16 -->
<g id="node16" class="node">
<title>Node16</title>
<g id="a_node16"><a xlink:href="class_value___vec.html#ace4be7ed03c08409ea3d21e5ba29762e" target="_top" xlink:title=" ">
<polygon fill="white" stroke="black" points="177.5,-38.5 177.5,-57.5 269.5,-57.5 269.5,-38.5 177.5,-38.5"/>
<text text-anchor="middle" x="223.5" y="-45.5" font-family="Helvetica,sans-Serif" font-size="10.00">Value_Vec::size</text>
</a>
</g>
</g>
<!-- Node1&#45;&gt;Node16 -->
<g id="edge18" class="edge">
<title>Node1&#45;&gt;Node16</title>
<path fill="none" stroke="midnightblue" d="M55.89,-209.42C64.29,-183.22 91.26,-109.81 140,-72 148.04,-65.76 157.66,-61.14 167.45,-57.72"/>
<polygon fill="midnightblue" stroke="midnightblue" points="168.71,-60.99 177.23,-54.69 166.64,-54.31 168.71,-60.99"/>
</g>
<!-- Node17 -->
<g id="node17" class="node">
<title>Node17</title>
<g id="a_node17"><a xlink:href="utils_8h.html#ae31c9f892e58a51912420849e40e8671" target="_top" xlink:title=" ">
<polygon fill="white" stroke="black" points="172.5,-0.5 172.5,-19.5 274.5,-19.5 274.5,-0.5 172.5,-0.5"/>
<text text-anchor="middle" x="223.5" y="-7.5" font-family="Helvetica,sans-Serif" font-size="10.00">stringVecAsString</text>
</a>
</g>
</g>
<!-- Node1&#45;&gt;Node17 -->
<g id="edge19" class="edge">
<title>Node1&#45;&gt;Node17</title>
<path fill="none" stroke="midnightblue" d="M54.4,-209.3C59.46,-177.87 79.82,-78.05 140,-29 146.63,-23.59 154.52,-19.66 162.74,-16.82"/>
<polygon fill="midnightblue" stroke="midnightblue" points="163.88,-20.13 172.49,-13.95 161.91,-13.41 163.88,-20.13"/>
</g>
<!-- Node3&#45;&gt;Node4 -->
<g id="edge3" class="edge">
<title>Node3&#45;&gt;Node4</title>
<path fill="none" stroke="midnightblue" d="M271.39,-361.62C283.44,-365.16 296.08,-369.86 307,-376 325.92,-386.64 324.47,-397.7 343,-409 348.61,-412.42 354.93,-415.37 361.17,-417.87"/>
<polygon fill="midnightblue" stroke="midnightblue" points="360.21,-421.24 370.8,-421.41 362.62,-414.67 360.21,-421.24"/>
</g>
<!-- Node3&#45;&gt;Node5 -->
<g id="edge4" class="edge">
<title>Node3&#45;&gt;Node5</title>
<path fill="none" stroke="midnightblue" d="M271.39,-342.38C283.44,-338.84 296.08,-334.14 307,-328 325.92,-317.36 324.47,-306.3 343,-295 347.36,-292.34 352.16,-289.96 357.01,-287.86"/>
<polygon fill="midnightblue" stroke="midnightblue" points="358.32,-291.11 366.32,-284.17 355.74,-284.6 358.32,-291.11"/>
</g>
<!-- Node6 -->
<g id="node6" class="node">
<title>Node6</title>
<g id="a_node6"><a xlink:href="class_log.html#ac7147942832455398ad289b706a02616" target="_top" xlink:title="Write error message to the log file.">
<polygon fill="white" stroke="black" points="369,-380.5 369,-399.5 422,-399.5 422,-380.5 369,-380.5"/>
<text text-anchor="middle" x="395.5" y="-387.5" font-family="Helvetica,sans-Serif" font-size="10.00">Log::err</text>
</a>
</g>
</g>
<!-- Node3&#45;&gt;Node6 -->
<g id="edge5" class="edge">
<title>Node3&#45;&gt;Node6</title>
<path fill="none" stroke="midnightblue" d="M267.4,-361.59C295.53,-367.88 331.9,-376.01 358.52,-381.96"/>
<polygon fill="midnightblue" stroke="midnightblue" points="358.04,-385.44 368.57,-384.2 359.57,-378.61 358.04,-385.44"/>
</g>
<!-- Node7 -->
<g id="node7" class="node">
<title>Node7</title>
<g id="a_node7"><a xlink:href="class_log.html#add7e611cd3267d3fd5dae017e3aeef67" target="_top" xlink:title="Write infomation to the log file.">
<polygon fill="white" stroke="black" points="366,-342.5 366,-361.5 425,-361.5 425,-342.5 366,-342.5"/>
<text text-anchor="middle" x="395.5" y="-349.5" font-family="Helvetica,sans-Serif" font-size="10.00">Log::info</text>
</a>
</g>
</g>
<!-- Node3&#45;&gt;Node7 -->
<g id="edge6" class="edge">
<title>Node3&#45;&gt;Node7</title>
<path fill="none" stroke="midnightblue" d="M307.01,-352C324.03,-352 341.18,-352 355.73,-352"/>
<polygon fill="midnightblue" stroke="midnightblue" points="355.83,-355.5 365.83,-352 355.83,-348.5 355.83,-355.5"/>
</g>
<!-- Node8 -->
<g id="node8" class="node">
<title>Node8</title>
<g id="a_node8"><a xlink:href="class_log.html#ab61203710351f6d33d7ba634d2c4eb32" target="_top" xlink:title="Write warning message to the log file.">
<polygon fill="white" stroke="black" points="366.5,-304.5 366.5,-323.5 424.5,-323.5 424.5,-304.5 366.5,-304.5"/>
<text text-anchor="middle" x="395.5" y="-311.5" font-family="Helvetica,sans-Serif" font-size="10.00">Log::war</text>
</a>
</g>
</g>
<!-- Node3&#45;&gt;Node8 -->
<g id="edge7" class="edge">
<title>Node3&#45;&gt;Node8</title>
<path fill="none" stroke="midnightblue" d="M267.4,-342.41C294.75,-336.3 329.89,-328.44 356.28,-322.54"/>
<polygon fill="midnightblue" stroke="midnightblue" points="357.3,-325.9 366.29,-320.31 355.77,-319.07 357.3,-325.9"/>
</g>
<!-- Node11&#45;&gt;Node12 -->
<g id="edge11" class="edge">
<title>Node11&#45;&gt;Node12</title>
<path fill="none" stroke="midnightblue" d="M282.53,-193.51C298.78,-191.7 316.5,-189.72 332.94,-187.88"/>
<polygon fill="midnightblue" stroke="midnightblue" points="333.44,-191.35 342.99,-186.76 332.67,-184.39 333.44,-191.35"/>
</g>
<!-- Node13 -->
<g id="node13" class="node">
<title>Node13</title>
<g id="a_node13"><a xlink:href="error__code_8h.html#ae1bfa02e1106eff84ddecb9f7773a1a4" target="_top" xlink:title="Return the error message of the error code from class Err.">
<polygon fill="white" stroke="black" points="484,-171.5 484,-190.5 544,-190.5 544,-171.5 484,-171.5"/>
<text text-anchor="middle" x="514" y="-178.5" font-family="Helvetica,sans-Serif" font-size="10.00">errorMsg</text>
</a>
</g>
</g>
<!-- Node12&#45;&gt;Node13 -->
<g id="edge12" class="edge">
<title>Node12&#45;&gt;Node13</title>
<path fill="none" stroke="midnightblue" d="M448.28,-181C456.73,-181 465.36,-181 473.46,-181"/>
<polygon fill="midnightblue" stroke="midnightblue" points="473.73,-184.5 483.73,-181 473.73,-177.5 473.73,-184.5"/>
</g>
<!-- Node14&#45;&gt;Node15 -->
<g id="edge16" class="edge">
<title>Node14&#45;&gt;Node15</title>
<path fill="none" stroke="midnightblue" d="M272.31,-118.66C292.48,-116.4 316.13,-113.76 337.22,-111.4"/>
<polygon fill="midnightblue" stroke="midnightblue" points="337.8,-114.86 347.35,-110.27 337.02,-107.9 337.8,-114.86"/>
</g>
</g>
</svg>
        <g id="navigator" transform="translate(0 0)" fill="#404254">
                <rect fill="#f2f5e9" fill-opacity="0.5" stroke="#606060" stroke-width=".5" x="0" y="0" width="60" height="60"/>
                <use id="zoomplus" xlink:href="#zoomPlus" x="17" y="9" onmousedown="handleZoom(evt,'in')"/>
                <use id="zoomminus" xlink:href="#zoomMin" x="42" y="9" onmousedown="handleZoom(evt,'out')"/>
                <use id="reset" xlink:href="#resetDef" x="30" y="36" onmousedown="handleReset()"/>
                <g id="arrowUp" xlink:href="#dirArrow" transform="translate(30 24)" onmousedown="handlePan(0,-1)">
                  <use xlink:href="#rim" fill="#404040">
                        <set attributeName="fill" to="#808080" begin="arrowUp.mouseover" end="arrowUp.mouseout"/>
                  </use>
                  <path fill="none" stroke="white" stroke-width="1.5" d="M0,-3.0v7 M-2.5,-0.5L0,-3.0L2.5,-0.5"/>
                </g>
                <g id="arrowRight" xlink:href="#dirArrow" transform="rotate(90) translate(36 -43)" onmousedown="handlePan(1,0)">
                  <use xlink:href="#rim" fill="#404040">
                        <set attributeName="fill" to="#808080" begin="arrowRight.mouseover" end="arrowRight.mouseout"/>
                  </use>
                  <path fill="none" stroke="white" stroke-width="1.5" d="M0,-3.0v7 M-2.5,-0.5L0,-3.0L2.5,-0.5"/>
                </g>
                <g id="arrowDown" xlink:href="#dirArrow" transform="rotate(180) translate(-30 -48)" onmousedown="handlePan(0,1)">
                  <use xlink:href="#rim" fill="#404040">
                        <set attributeName="fill" to="#808080" begin="arrowDown.mouseover" end="arrowDown.mouseout"/>
                  </use>
                  <path fill="none" stroke="white" stroke-width="1.5" d="M0,-3.0v7 M-2.5,-0.5L0,-3.0L2.5,-0.5"/>
                </g>
                <g id="arrowLeft" xlink:href="#dirArrow" transform="rotate(270) translate(-36 17)" onmousedown="handlePan(-1,0)">
                  <use xlink:href="#rim" fill="#404040">
                        <set attributeName="fill" to="#808080" begin="arrowLeft.mouseover" end="arrowLeft.mouseout"/>
                  </use>
                  <path fill="none" stroke="white" stroke-width="1.5" d="M0,-3.0v7 M-2.5,-0.5L0,-3.0L2.5,-0.5"/>
                </g>
        </g>
        <svg viewBox="0 0 15 15" width="100%" height="30px" preserveAspectRatio="xMaxYMin meet">
         <g id="arrow_out" transform="scale(0.3 0.3)">
          <a xlink:href="class_export_af64597af0c0b4cf569f96216bcd23b2c_cgraph_org.svg" target="_base">
           <rect id="button" ry="5" rx="5" y="6" x="6" height="38" width="38"
                fill="#f2f5e9" fill-opacity="0.5" stroke="#606060" stroke-width="1.0"/>
           <path id="arrow"
             d="M 11.500037,31.436501 C 11.940474,20.09759 22.043105,11.32322 32.158766,21.979434 L 37.068811,17.246167 C 37.068811,17.246167 37.088388,32 37.088388,32 L 22.160133,31.978069 C 22.160133,31.978069 26.997745,27.140456 26.997745,27.140456 C 18.528582,18.264221 13.291696,25.230495 11.500037,31.436501 z"
             style="fill:#404040;"/>
          </a>
         </g>
        </svg>
</svg>
