<?xml version="1.0" encoding="UTF-8" standalone="no"?>
<!DOCTYPE svg PUBLIC "-//W3C//DTD SVG 1.1//EN"
 "http://www.w3.org/Graphics/SVG/1.1/DTD/svg11.dtd">
<!-- Generated by graphviz version 2.43.0 (0)
 -->
<!-- Title: Type::_getString Pages: 1 -->
<svg width="1038pt" height="162pt"
 viewBox="0.00 0.00 1038.00 162.17" xmlns="http://www.w3.org/2000/svg" xmlns:xlink="http://www.w3.org/1999/xlink">
<g id="graph0" class="graph" transform="scale(1 1) rotate(0) translate(4 158.17)">
<title>Type::_getString</title>
<polygon fill="white" stroke="transparent" points="-4,4 -4,-158.17 1034,-158.17 1034,4 -4,4"/>
<!-- Node1 -->
<g id="node1" class="node">
<title>Node1</title>
<g id="a_node1"><a xlink:title=" ">
<polygon fill="#bfbfbf" stroke="black" points="935,-57.5 935,-76.5 1030,-76.5 1030,-57.5 935,-57.5"/>
<text text-anchor="middle" x="982.5" y="-64.5" font-family="Helvetica,sans-Serif" font-size="10.00">Type::_getString</text>
</a>
</g>
</g>
<!-- Node2 -->
<g id="node2" class="node">
<title>Node2</title>
<g id="a_node2"><a xlink:href="class_type.html#a0153b8ff39040caf3ff2a6f7c7329d7c" target="_top" xlink:title="Get the C++ type name.">
<polygon fill="white" stroke="black" points="826,-57.5 826,-76.5 899,-76.5 899,-57.5 826,-57.5"/>
<text text-anchor="middle" x="862.5" y="-64.5" font-family="Helvetica,sans-Serif" font-size="10.00">Type::string</text>
</a>
</g>
</g>
<!-- Node1&#45;&gt;Node2 -->
<g id="edge1" class="edge">
<title>Node1&#45;&gt;Node2</title>
<path fill="none" stroke="midnightblue" d="M924.74,-67C916.06,-67 907.31,-67 899.24,-67"/>
<polygon fill="midnightblue" stroke="midnightblue" points="924.86,-70.5 934.86,-67 924.86,-63.5 924.86,-70.5"/>
</g>
<!-- Node3 -->
<g id="node3" class="node">
<title>Node3</title>
<g id="a_node3"><a xlink:href="class_type___track.html#a4548ba1c289fba60e88b0e725509219e" target="_top" xlink:title=" ">
<polygon fill="white" stroke="black" points="691,-95.5 691,-114.5 790,-114.5 790,-95.5 691,-95.5"/>
<text text-anchor="middle" x="740.5" y="-102.5" font-family="Helvetica,sans-Serif" font-size="10.00">Type_Track::push</text>
</a>
</g>
</g>
<!-- Node2&#45;&gt;Node3 -->
<g id="edge2" class="edge">
<title>Node2&#45;&gt;Node3</title>
<path fill="none" stroke="midnightblue" d="M821.46,-79.68C805.24,-84.81 786.83,-90.64 771.77,-95.41"/>
<polygon fill="midnightblue" stroke="midnightblue" points="822.74,-82.94 831.22,-76.59 820.63,-76.27 822.74,-82.94"/>
</g>
<!-- Node4 -->
<g id="node4" class="node">
<title>Node4</title>
<g id="a_node4"><a xlink:href="class_alg.html#ada1e8215f047b4ffd736e811b5ea3162" target="_top" xlink:title=" ">
<polygon fill="white" stroke="black" points="592,-76.5 592,-95.5 655,-95.5 655,-76.5 592,-76.5"/>
<text text-anchor="middle" x="623.5" y="-83.5" font-family="Helvetica,sans-Serif" font-size="10.00">Alg::write</text>
</a>
</g>
</g>
<!-- Node2&#45;&gt;Node4 -->
<g id="edge18" class="edge">
<title>Node2&#45;&gt;Node4</title>
<path fill="none" stroke="midnightblue" d="M815.79,-70.66C768.53,-74.45 696.07,-80.26 655.24,-83.54"/>
<polygon fill="midnightblue" stroke="midnightblue" points="816.07,-74.15 825.76,-69.87 815.51,-67.18 816.07,-74.15"/>
</g>
<!-- Node13 -->
<g id="node13" class="node">
<title>Node13</title>
<g id="a_node13"><a xlink:href="class_type.html#afda11a690ae44985e9f7153dfbc5eab8" target="_top" xlink:title=" ">
<polygon fill="white" stroke="black" points="704,-19.5 704,-38.5 777,-38.5 777,-19.5 704,-19.5"/>
<text text-anchor="middle" x="740.5" y="-26.5" font-family="Helvetica,sans-Serif" font-size="10.00">Type::string</text>
</a>
</g>
</g>
<!-- Node2&#45;&gt;Node13 -->
<g id="edge17" class="edge">
<title>Node2&#45;&gt;Node13</title>
<path fill="none" stroke="midnightblue" d="M821.46,-54.32C805.24,-49.19 786.83,-43.36 771.77,-38.59"/>
<polygon fill="midnightblue" stroke="midnightblue" points="820.63,-57.73 831.22,-57.41 822.74,-51.06 820.63,-57.73"/>
</g>
<!-- Node3&#45;&gt;Node4 -->
<g id="edge3" class="edge">
<title>Node3&#45;&gt;Node4</title>
<path fill="none" stroke="midnightblue" d="M680.81,-95.3C672.01,-93.85 663.24,-92.4 655.33,-91.09"/>
<polygon fill="midnightblue" stroke="midnightblue" points="680.29,-98.77 690.73,-96.94 681.43,-91.86 680.29,-98.77"/>
</g>
<!-- Node4&#45;&gt;Node4 -->
<g id="edge16" class="edge">
<title>Node4&#45;&gt;Node4</title>
<path fill="none" stroke="midnightblue" d="M644.98,-105.4C643.55,-110.31 636.39,-114 623.5,-114 602.88,-114 596.92,-104.57 605.62,-95.76"/>
<polygon fill="midnightblue" stroke="midnightblue" points="648.16,-103.9 641.38,-95.76 641.6,-106.35 648.16,-103.9"/>
</g>
<!-- Node5 -->
<g id="node5" class="node">
<title>Node5</title>
<g id="a_node5"><a xlink:href="class_export.html#a89d3ae54dd2261cf35be148011b79fe4" target="_top" xlink:title=" ">
<polygon fill="white" stroke="black" points="292,-114.5 292,-133.5 404,-133.5 404,-114.5 292,-114.5"/>
<text text-anchor="middle" x="348" y="-121.5" font-family="Helvetica,sans-Serif" font-size="10.00">Export::_algorithms</text>
</a>
</g>
</g>
<!-- Node4&#45;&gt;Node5 -->
<g id="edge4" class="edge">
<title>Node4&#45;&gt;Node5</title>
<path fill="none" stroke="midnightblue" d="M608.51,-103.41C596.31,-117.1 577.26,-135.14 556,-143 494.4,-165.79 415.76,-146.57 375.45,-133.56"/>
<polygon fill="midnightblue" stroke="midnightblue" points="611.36,-105.46 615.18,-95.58 606.04,-100.92 611.36,-105.46"/>
</g>
<!-- Node9 -->
<g id="node9" class="node">
<title>Node9</title>
<g id="a_node9"><a xlink:href="class_export.html#ae4811e1e4212029122c0ee29613714cc" target="_top" xlink:title=" ">
<polygon fill="white" stroke="black" points="442,-76.5 442,-95.5 554,-95.5 554,-76.5 442,-76.5"/>
<text text-anchor="middle" x="498" y="-83.5" font-family="Helvetica,sans-Serif" font-size="10.00">Export::_estimation</text>
</a>
</g>
</g>
<!-- Node4&#45;&gt;Node9 -->
<g id="edge8" class="edge">
<title>Node4&#45;&gt;Node9</title>
<path fill="none" stroke="midnightblue" d="M581.92,-86C573.06,-86 563.53,-86 554.2,-86"/>
<polygon fill="midnightblue" stroke="midnightblue" points="581.97,-89.5 591.97,-86 581.97,-82.5 581.97,-89.5"/>
</g>
<!-- Node10 -->
<g id="node10" class="node">
<title>Node10</title>
<g id="a_node10"><a xlink:href="class_export.html#a26fa49d9882a342d011ba715e0c14109" target="_top" xlink:title=" ">
<polygon fill="white" stroke="black" points="296,-57.5 296,-76.5 400,-76.5 400,-57.5 296,-57.5"/>
<text text-anchor="middle" x="348" y="-64.5" font-family="Helvetica,sans-Serif" font-size="10.00">Export::_sounding</text>
</a>
</g>
</g>
<!-- Node4&#45;&gt;Node10 -->
<g id="edge15" class="edge">
<title>Node4&#45;&gt;Node10</title>
<path fill="none" stroke="midnightblue" d="M586,-73.6C576.36,-70.87 565.88,-68.38 556,-67 503.33,-59.62 442.37,-60.78 400.32,-63.06"/>
<polygon fill="midnightblue" stroke="midnightblue" points="585.11,-76.99 595.69,-76.5 587.11,-70.28 585.11,-76.99"/>
</g>
<!-- Node11 -->
<g id="node11" class="node">
<title>Node11</title>
<g id="a_node11"><a xlink:href="class_export.html#a59ba705b2369f21006ec7d7b7f3a4513" target="_top" xlink:title="Generate RIS reflection matrices.">
<polygon fill="white" stroke="black" points="440,-0.5 440,-19.5 556,-19.5 556,-0.5 440,-0.5"/>
<text text-anchor="middle" x="498" y="-7.5" font-family="Helvetica,sans-Serif" font-size="10.00">Export::_generateBF</text>
</a>
</g>
</g>
<!-- Node4&#45;&gt;Node11 -->
<g id="edge11" class="edge">
<title>Node4&#45;&gt;Node11</title>
<path fill="none" stroke="midnightblue" d="M604.2,-69.52C591.35,-58.51 573.42,-44.23 556,-34 546.56,-28.45 535.59,-23.52 525.81,-19.58"/>
<polygon fill="midnightblue" stroke="midnightblue" points="602.02,-72.27 611.85,-76.21 606.63,-67 602.02,-72.27"/>
</g>
<!-- Node12 -->
<g id="node12" class="node">
<title>Node12</title>
<g id="a_node12"><a xlink:href="class_export.html#a833aa02973f6b5c1f3e536e8646cf1ac" target="_top" xlink:title=" ">
<polygon fill="white" stroke="black" points="448,-114.5 448,-133.5 548,-133.5 548,-114.5 448,-114.5"/>
<text text-anchor="middle" x="498" y="-121.5" font-family="Helvetica,sans-Serif" font-size="10.00">Export::_loadALG</text>
</a>
</g>
</g>
<!-- Node4&#45;&gt;Node12 -->
<g id="edge13" class="edge">
<title>Node4&#45;&gt;Node12</title>
<path fill="none" stroke="midnightblue" d="M582.31,-98.37C565.34,-103.59 545.88,-109.58 530.03,-114.45"/>
<polygon fill="midnightblue" stroke="midnightblue" points="583.44,-101.68 591.97,-95.39 581.38,-94.99 583.44,-101.68"/>
</g>
<!-- Node6 -->
<g id="node6" class="node">
<title>Node6</title>
<g id="a_node6"><a xlink:href="class_export.html#affc37d1d677a83d3e5d36a4e37b7a72b" target="_top" xlink:title=" ">
<polygon fill="white" stroke="black" points="146,-76.5 146,-95.5 256,-95.5 256,-76.5 146,-76.5"/>
<text text-anchor="middle" x="201" y="-83.5" font-family="Helvetica,sans-Serif" font-size="10.00">Export::exportCode</text>
</a>
</g>
</g>
<!-- Node5&#45;&gt;Node6 -->
<g id="edge5" class="edge">
<title>Node5&#45;&gt;Node6</title>
<path fill="none" stroke="midnightblue" d="M300.51,-111.82C280.38,-106.54 257.16,-100.46 238.33,-95.52"/>
<polygon fill="midnightblue" stroke="midnightblue" points="299.85,-115.26 310.41,-114.41 301.62,-108.49 299.85,-115.26"/>
</g>
<!-- Node7 -->
<g id="node7" class="node">
<title>Node7</title>
<g id="a_node7"><a xlink:href="class_export.html#a94fab568af6ddd6447efca74e205e081" target="_top" xlink:title=" ">
<polygon fill="white" stroke="black" points="0,-95.5 0,-114.5 110,-114.5 110,-95.5 0,-95.5"/>
<text text-anchor="middle" x="55" y="-102.5" font-family="Helvetica,sans-Serif" font-size="10.00">Export::exportCode</text>
</a>
</g>
</g>
<!-- Node6&#45;&gt;Node7 -->
<g id="edge6" class="edge">
<title>Node6&#45;&gt;Node7</title>
<path fill="none" stroke="midnightblue" d="M136.01,-94.44C127.44,-95.57 118.72,-96.73 110.33,-97.83"/>
<polygon fill="midnightblue" stroke="midnightblue" points="136.51,-97.91 145.97,-93.13 135.6,-90.97 136.51,-97.91"/>
</g>
<!-- Node8 -->
<g id="node8" class="node">
<title>Node8</title>
<g id="a_node8"><a xlink:href="src_2main_8cpp.html#a0ddf1224851353fc92bfbff6f499fa97" target="_top" xlink:title=" ">
<polygon fill="white" stroke="black" points="34.5,-57.5 34.5,-76.5 75.5,-76.5 75.5,-57.5 34.5,-57.5"/>
<text text-anchor="middle" x="55" y="-64.5" font-family="Helvetica,sans-Serif" font-size="10.00">main</text>
</a>
</g>
</g>
<!-- Node6&#45;&gt;Node8 -->
<g id="edge7" class="edge">
<title>Node6&#45;&gt;Node8</title>
<path fill="none" stroke="midnightblue" d="M136.05,-77.56C114.24,-74.68 91.43,-71.67 75.76,-69.61"/>
<polygon fill="midnightblue" stroke="midnightblue" points="135.6,-81.03 145.97,-78.87 136.51,-74.09 135.6,-81.03"/>
</g>
<!-- Node9&#45;&gt;Node10 -->
<g id="edge9" class="edge">
<title>Node9&#45;&gt;Node10</title>
<path fill="none" stroke="midnightblue" d="M431.85,-77.64C421.26,-76.28 410.43,-74.89 400.24,-73.58"/>
<polygon fill="midnightblue" stroke="midnightblue" points="431.53,-81.12 441.89,-78.93 432.42,-74.18 431.53,-81.12"/>
</g>
<!-- Node10&#45;&gt;Node6 -->
<g id="edge10" class="edge">
<title>Node10&#45;&gt;Node6</title>
<path fill="none" stroke="midnightblue" d="M285.75,-75.03C275.9,-76.32 265.77,-77.64 256.1,-78.91"/>
<polygon fill="midnightblue" stroke="midnightblue" points="286.42,-78.47 295.88,-73.7 285.51,-71.53 286.42,-78.47"/>
</g>
<!-- Node11&#45;&gt;Node10 -->
<g id="edge12" class="edge">
<title>Node11&#45;&gt;Node10</title>
<path fill="none" stroke="midnightblue" d="M462.72,-23.2C435.54,-33.67 398.21,-48.05 373.85,-57.43"/>
<polygon fill="midnightblue" stroke="midnightblue" points="464.15,-26.4 472.23,-19.54 461.64,-19.87 464.15,-26.4"/>
</g>
<!-- Node12&#45;&gt;Node5 -->
<g id="edge14" class="edge">
<title>Node12&#45;&gt;Node5</title>
<path fill="none" stroke="midnightblue" d="M437.71,-124C426.65,-124 415.13,-124 404.19,-124"/>
<polygon fill="midnightblue" stroke="midnightblue" points="437.72,-127.5 447.72,-124 437.72,-120.5 437.72,-127.5"/>
</g>
</g>
</svg>
