<?xml version="1.0" encoding="UTF-8" standalone="no"?>
<!DOCTYPE svg PUBLIC "-//W3C//DTD SVG 1.1//EN"
 "http://www.w3.org/Graphics/SVG/1.1/DTD/svg11.dtd">
<!-- Generated by graphviz version 2.43.0 (0)
 -->
<!-- Title: Alg::inlineCalc Pages: 1 -->
<svg width="496pt" height="332pt"
 viewBox="0.00 0.00 496.00 332.00" xmlns="http://www.w3.org/2000/svg" xmlns:xlink="http://www.w3.org/1999/xlink">
<g id="graph0" class="graph" transform="scale(1 1) rotate(0) translate(4 328)">
<title>Alg::inlineCalc</title>
<polygon fill="white" stroke="transparent" points="-4,4 -4,-328 492,-328 492,4 -4,4"/>
<!-- Node1 -->
<g id="node1" class="node">
<title>Node1</title>
<g id="a_node1"><a xlink:title=" ">
<polygon fill="#bfbfbf" stroke="black" points="0,-180.5 0,-199.5 86,-199.5 86,-180.5 0,-180.5"/>
<text text-anchor="middle" x="43" y="-187.5" font-family="Helvetica,sans-Serif" font-size="10.00">Alg::inlineCalc</text>
</a>
</g>
</g>
<!-- Node2 -->
<g id="node2" class="node">
<title>Node2</title>
<g id="a_node2"><a xlink:href="class_calc.html#ad6dbdfdd4bd21322e5836ff72c11ae1b" target="_top" xlink:title="Convert the Alg CALC contents into a language command.">
<polygon fill="white" stroke="black" points="122,-180.5 122,-199.5 177,-199.5 177,-180.5 122,-180.5"/>
<text text-anchor="middle" x="149.5" y="-187.5" font-family="Helvetica,sans-Serif" font-size="10.00">Calc::as</text>
</a>
</g>
</g>
<!-- Node1&#45;&gt;Node2 -->
<g id="edge1" class="edge">
<title>Node1&#45;&gt;Node2</title>
<path fill="none" stroke="midnightblue" d="M86.2,-190C94.65,-190 103.45,-190 111.7,-190"/>
<polygon fill="midnightblue" stroke="midnightblue" points="111.77,-193.5 121.77,-190 111.77,-186.5 111.77,-193.5"/>
</g>
<!-- Node3 -->
<g id="node3" class="node">
<title>Node3</title>
<g id="a_node3"><a xlink:href="class_calc.html#af1d1bd5e83f9e5196627f5a4e1a5ee83" target="_top" xlink:title=" ">
<polygon fill="white" stroke="black" points="220.5,-266.5 220.5,-285.5 345.5,-285.5 345.5,-266.5 220.5,-266.5"/>
<text text-anchor="middle" x="283" y="-273.5" font-family="Helvetica,sans-Serif" font-size="10.00">Calc::_changeFunction</text>
</a>
</g>
</g>
<!-- Node2&#45;&gt;Node3 -->
<g id="edge2" class="edge">
<title>Node2&#45;&gt;Node3</title>
<path fill="none" stroke="midnightblue" d="M159,-199.56C170.33,-211.85 191.47,-233.24 213,-247 222.56,-253.11 233.62,-258.42 244.05,-262.77"/>
<polygon fill="midnightblue" stroke="midnightblue" points="242.8,-266.04 253.38,-266.49 245.39,-259.54 242.8,-266.04"/>
</g>
<!-- Node6 -->
<g id="node6" class="node">
<title>Node6</title>
<g id="a_node6"><a xlink:href="class_calc.html#ae3d88bd40f9bdf2c8ec92c426bdca446" target="_top" xlink:title=" ">
<polygon fill="white" stroke="black" points="219.5,-218.5 219.5,-237.5 346.5,-237.5 346.5,-218.5 219.5,-218.5"/>
<text text-anchor="middle" x="283" y="-225.5" font-family="Helvetica,sans-Serif" font-size="10.00">Calc::_changeOperator</text>
</a>
</g>
</g>
<!-- Node2&#45;&gt;Node6 -->
<g id="edge5" class="edge">
<title>Node2&#45;&gt;Node6</title>
<path fill="none" stroke="midnightblue" d="M177.22,-198.29C188.27,-201.68 201.24,-205.59 213,-209 220.64,-211.21 228.77,-213.5 236.66,-215.7"/>
<polygon fill="midnightblue" stroke="midnightblue" points="235.92,-219.13 246.49,-218.42 237.79,-212.38 235.92,-219.13"/>
</g>
<!-- Node7 -->
<g id="node7" class="node">
<title>Node7</title>
<g id="a_node7"><a xlink:href="class_calc.html#ad95be528148e0d63848d5fa916b93200" target="_top" xlink:title=" ">
<polygon fill="white" stroke="black" points="227.5,-180.5 227.5,-199.5 338.5,-199.5 338.5,-180.5 227.5,-180.5"/>
<text text-anchor="middle" x="283" y="-187.5" font-family="Helvetica,sans-Serif" font-size="10.00">Calc::_changeParen</text>
</a>
</g>
</g>
<!-- Node2&#45;&gt;Node7 -->
<g id="edge6" class="edge">
<title>Node2&#45;&gt;Node7</title>
<path fill="none" stroke="midnightblue" d="M177.11,-190C188.77,-190 203,-190 217.18,-190"/>
<polygon fill="midnightblue" stroke="midnightblue" points="217.45,-193.5 227.45,-190 217.45,-186.5 217.45,-193.5"/>
</g>
<!-- Node8 -->
<g id="node8" class="node">
<title>Node8</title>
<g id="a_node8"><a xlink:href="class_calc.html#ad562619fef96a73cd3b4c27b35bc5f91" target="_top" xlink:title=" ">
<polygon fill="white" stroke="black" points="218,-124.5 218,-143.5 348,-143.5 348,-124.5 218,-124.5"/>
<text text-anchor="middle" x="283" y="-131.5" font-family="Helvetica,sans-Serif" font-size="10.00">Calc::_changeSubScript</text>
</a>
</g>
</g>
<!-- Node2&#45;&gt;Node8 -->
<g id="edge7" class="edge">
<title>Node2&#45;&gt;Node8</title>
<path fill="none" stroke="midnightblue" d="M173.11,-180.37C194.4,-171.3 226.52,-157.63 250.36,-147.48"/>
<polygon fill="midnightblue" stroke="midnightblue" points="251.86,-150.64 259.69,-143.5 249.12,-144.2 251.86,-150.64"/>
</g>
<!-- Node16 -->
<g id="node16" class="node">
<title>Node16</title>
<g id="a_node16"><a xlink:href="class_calc.html#a1aec4748092712e0995c0ae5dabbf54f" target="_top" xlink:title=" ">
<polygon fill="white" stroke="black" points="213,-86.5 213,-105.5 353,-105.5 353,-86.5 213,-86.5"/>
<text text-anchor="middle" x="283" y="-93.5" font-family="Helvetica,sans-Serif" font-size="10.00">Calc::_changeSuperScript</text>
</a>
</g>
</g>
<!-- Node2&#45;&gt;Node16 -->
<g id="edge16" class="edge">
<title>Node2&#45;&gt;Node16</title>
<path fill="none" stroke="midnightblue" d="M155.87,-180.33C165.29,-164.27 186.36,-132.17 213,-115 216.31,-112.87 219.86,-110.97 223.54,-109.28"/>
<polygon fill="midnightblue" stroke="midnightblue" points="224.93,-112.5 232.89,-105.51 222.31,-106.01 224.93,-112.5"/>
</g>
<!-- Node4 -->
<g id="node4" class="node">
<title>Node4</title>
<g id="a_node4"><a xlink:href="class_calc.html#a7d793eba0a7c9fcbafec4310359f165d" target="_top" xlink:title=" ">
<polygon fill="white" stroke="black" points="392,-304.5 392,-323.5 485,-323.5 485,-304.5 392,-304.5"/>
<text text-anchor="middle" x="438.5" y="-311.5" font-family="Helvetica,sans-Serif" font-size="10.00">Calc::_addArma</text>
</a>
</g>
</g>
<!-- Node3&#45;&gt;Node4 -->
<g id="edge3" class="edge">
<title>Node3&#45;&gt;Node4</title>
<path fill="none" stroke="midnightblue" d="M322.73,-285.59C342.9,-290.58 367.75,-296.73 389.16,-302.03"/>
<polygon fill="midnightblue" stroke="midnightblue" points="388.5,-305.47 399.04,-304.48 390.18,-298.68 388.5,-305.47"/>
</g>
<!-- Node5 -->
<g id="node5" class="node">
<title>Node5</title>
<g id="a_node5"><a xlink:href="class_calc.html#af58cd6a2174e577a6246366de03b949e" target="_top" xlink:title=" ">
<polygon fill="white" stroke="black" points="390,-266.5 390,-285.5 487,-285.5 487,-266.5 390,-266.5"/>
<text text-anchor="middle" x="438.5" y="-273.5" font-family="Helvetica,sans-Serif" font-size="10.00">Calc::_addMmce</text>
</a>
</g>
</g>
<!-- Node3&#45;&gt;Node5 -->
<g id="edge4" class="edge">
<title>Node3&#45;&gt;Node5</title>
<path fill="none" stroke="midnightblue" d="M345.55,-276C356.79,-276 368.48,-276 379.61,-276"/>
<polygon fill="midnightblue" stroke="midnightblue" points="379.64,-279.5 389.64,-276 379.64,-272.5 379.64,-279.5"/>
</g>
<!-- Node8&#45;&gt;Node8 -->
<g id="edge8" class="edge">
<title>Node8&#45;&gt;Node8</title>
<path fill="none" stroke="midnightblue" d="M262.65,-143.76C252.76,-152.57 259.54,-162 283,-162 298.03,-162 306.21,-158.13 307.55,-153.03"/>
<polygon fill="midnightblue" stroke="midnightblue" points="310.67,-151.42 303.35,-143.76 304.29,-154.31 310.67,-151.42"/>
</g>
<!-- Node9 -->
<g id="node9" class="node">
<title>Node9</title>
<g id="a_node9"><a xlink:href="class_calc.html#a284818e83b0d85bdd029f3d72d4ef0bd" target="_top" xlink:title=" ">
<polygon fill="white" stroke="black" points="403.5,-228.5 403.5,-247.5 473.5,-247.5 473.5,-228.5 403.5,-228.5"/>
<text text-anchor="middle" x="438.5" y="-235.5" font-family="Helvetica,sans-Serif" font-size="10.00">Calc::_msg</text>
</a>
</g>
</g>
<!-- Node8&#45;&gt;Node9 -->
<g id="edge9" class="edge">
<title>Node8&#45;&gt;Node9</title>
<path fill="none" stroke="midnightblue" d="M307.63,-143.55C321.74,-149.98 339.49,-159.4 353,-171 373.23,-188.38 367.78,-202.85 389,-219 391.33,-220.77 393.84,-222.4 396.46,-223.89"/>
<polygon fill="midnightblue" stroke="midnightblue" points="395.11,-227.13 405.62,-228.44 398.22,-220.86 395.11,-227.13"/>
</g>
<!-- Node10 -->
<g id="node10" class="node">
<title>Node10</title>
<g id="a_node10"><a xlink:href="class_type.html#abe15820e780d2f6646792d54f3ae3311" target="_top" xlink:title=" ">
<polygon fill="white" stroke="black" points="406.5,-190.5 406.5,-209.5 470.5,-209.5 470.5,-190.5 406.5,-190.5"/>
<text text-anchor="middle" x="438.5" y="-197.5" font-family="Helvetica,sans-Serif" font-size="10.00">Type::dim</text>
</a>
</g>
</g>
<!-- Node8&#45;&gt;Node10 -->
<g id="edge10" class="edge">
<title>Node8&#45;&gt;Node10</title>
<path fill="none" stroke="midnightblue" d="M304.79,-143.66C325.88,-153.37 359.53,-168.64 389,-181 393.46,-182.87 398.17,-184.79 402.83,-186.65"/>
<polygon fill="midnightblue" stroke="midnightblue" points="401.65,-189.95 412.24,-190.36 404.22,-183.44 401.65,-189.95"/>
</g>
<!-- Node11 -->
<g id="node11" class="node">
<title>Node11</title>
<g id="a_node11"><a xlink:href="class_log.html#ac7147942832455398ad289b706a02616" target="_top" xlink:title="Write error message to the log file.">
<polygon fill="white" stroke="black" points="412,-152.5 412,-171.5 465,-171.5 465,-152.5 412,-152.5"/>
<text text-anchor="middle" x="438.5" y="-159.5" font-family="Helvetica,sans-Serif" font-size="10.00">Log::err</text>
</a>
</g>
</g>
<!-- Node8&#45;&gt;Node11 -->
<g id="edge11" class="edge">
<title>Node8&#45;&gt;Node11</title>
<path fill="none" stroke="midnightblue" d="M336.4,-143.56C357.89,-147.48 382.23,-151.92 401.65,-155.46"/>
<polygon fill="midnightblue" stroke="midnightblue" points="401.12,-158.92 411.59,-157.27 402.38,-152.04 401.12,-158.92"/>
</g>
<!-- Node12 -->
<g id="node12" class="node">
<title>Node12</title>
<g id="a_node12"><a xlink:href="class_log.html#add7e611cd3267d3fd5dae017e3aeef67" target="_top" xlink:title="Write infomation to the log file.">
<polygon fill="white" stroke="black" points="409,-114.5 409,-133.5 468,-133.5 468,-114.5 409,-114.5"/>
<text text-anchor="middle" x="438.5" y="-121.5" font-family="Helvetica,sans-Serif" font-size="10.00">Log::info</text>
</a>
</g>
</g>
<!-- Node8&#45;&gt;Node12 -->
<g id="edge12" class="edge">
<title>Node8&#45;&gt;Node12</title>
<path fill="none" stroke="midnightblue" d="M348.21,-129.82C365.3,-128.7 383.24,-127.54 398.52,-126.54"/>
<polygon fill="midnightblue" stroke="midnightblue" points="398.88,-130.02 408.63,-125.88 398.42,-123.04 398.88,-130.02"/>
</g>
<!-- Node13 -->
<g id="node13" class="node">
<title>Node13</title>
<g id="a_node13"><a xlink:href="utils_8h.html#aa0a3ba0e1cec6f6b77334767af46eef7" target="_top" xlink:title="Check if the string is an unsigned integer.">
<polygon fill="white" stroke="black" points="416,-76.5 416,-95.5 461,-95.5 461,-76.5 416,-76.5"/>
<text text-anchor="middle" x="438.5" y="-83.5" font-family="Helvetica,sans-Serif" font-size="10.00">isUInt</text>
</a>
</g>
</g>
<!-- Node8&#45;&gt;Node13 -->
<g id="edge13" class="edge">
<title>Node8&#45;&gt;Node13</title>
<path fill="none" stroke="midnightblue" d="M320.29,-124.46C330.88,-121.56 342.43,-118.26 353,-115 370.63,-109.55 390.12,-102.91 405.93,-97.35"/>
<polygon fill="midnightblue" stroke="midnightblue" points="407.48,-100.52 415.74,-93.88 405.14,-93.92 407.48,-100.52"/>
</g>
<!-- Node14 -->
<g id="node14" class="node">
<title>Node14</title>
<g id="a_node14"><a xlink:href="class_type.html#a836b463aa4740a234e0d304ed4cd958f" target="_top" xlink:title=" ">
<polygon fill="white" stroke="black" points="389,-38.5 389,-57.5 488,-57.5 488,-38.5 389,-38.5"/>
<text text-anchor="middle" x="438.5" y="-45.5" font-family="Helvetica,sans-Serif" font-size="10.00">Type::isUnknown</text>
</a>
</g>
</g>
<!-- Node8&#45;&gt;Node14 -->
<g id="edge14" class="edge">
<title>Node8&#45;&gt;Node14</title>
<path fill="none" stroke="midnightblue" d="M334.37,-124.37C340.95,-121.92 347.35,-118.85 353,-115 375.04,-99.99 367.78,-83.15 389,-67 391.33,-65.23 393.84,-63.6 396.46,-62.11"/>
<polygon fill="midnightblue" stroke="midnightblue" points="398.22,-65.14 405.62,-57.56 395.11,-58.87 398.22,-65.14"/>
</g>
<!-- Node15 -->
<g id="node15" class="node">
<title>Node15</title>
<g id="a_node15"><a xlink:href="class_type___track.html#ab510214767b1b4d71e3beadecb814bb7" target="_top" xlink:title=" ">
<polygon fill="white" stroke="black" points="391,-0.5 391,-19.5 486,-19.5 486,-0.5 391,-0.5"/>
<text text-anchor="middle" x="438.5" y="-7.5" font-family="Helvetica,sans-Serif" font-size="10.00">Type_Track::size</text>
</a>
</g>
</g>
<!-- Node8&#45;&gt;Node15 -->
<g id="edge15" class="edge">
<title>Node8&#45;&gt;Node15</title>
<path fill="none" stroke="midnightblue" d="M338.11,-124.4C343.52,-121.94 348.62,-118.86 353,-115 384.11,-87.63 359.36,-57.96 389,-29 390.46,-27.58 392.03,-26.26 393.69,-25.04"/>
<polygon fill="midnightblue" stroke="midnightblue" points="395.81,-27.85 402.57,-19.69 392.2,-21.85 395.81,-27.85"/>
</g>
</g>
</svg>
