<?xml version="1.0" encoding="UTF-8" standalone="no"?>
<!DOCTYPE svg PUBLIC "-//W3C//DTD SVG 1.1//EN"
 "http://www.w3.org/Graphics/SVG/1.1/DTD/svg11.dtd">
<!-- Generated by graphviz version 2.43.0 (0)
 -->
<!-- Title: Log::err Pages: 1 -->
<svg width="1438pt" height="590pt"
 viewBox="0.00 0.00 1438.00 590.01" xmlns="http://www.w3.org/2000/svg" xmlns:xlink="http://www.w3.org/1999/xlink">
<g id="graph0" class="graph" transform="scale(1 1) rotate(0) translate(4 586.01)">
<title>Log::err</title>
<polygon fill="white" stroke="transparent" points="-4,4 -4,-586.01 1434,-586.01 1434,4 -4,4"/>
<!-- Node1 -->
<g id="node1" class="node">
<title>Node1</title>
<g id="a_node1"><a xlink:title="Write error message to the log file.">
<polygon fill="#bfbfbf" stroke="black" points="1377,-228.5 1377,-247.5 1430,-247.5 1430,-228.5 1377,-228.5"/>
<text text-anchor="middle" x="1403.5" y="-235.5" font-family="Helvetica,sans-Serif" font-size="10.00">Log::err</text>
</a>
</g>
</g>
<!-- Node2 -->
<g id="node2" class="node">
<title>Node2</title>
<g id="a_node2"><a xlink:href="class_calc.html#ad562619fef96a73cd3b4c27b35bc5f91" target="_top" xlink:title=" ">
<polygon fill="white" stroke="black" points="1193.5,-380.5 1193.5,-399.5 1323.5,-399.5 1323.5,-380.5 1193.5,-380.5"/>
<text text-anchor="middle" x="1258.5" y="-387.5" font-family="Helvetica,sans-Serif" font-size="10.00">Calc::_changeSubScript</text>
</a>
</g>
</g>
<!-- Node1&#45;&gt;Node2 -->
<g id="edge1" class="edge">
<title>Node1&#45;&gt;Node2</title>
<path fill="none" stroke="midnightblue" d="M1395.59,-257.21C1386.28,-280.84 1367.75,-320.99 1341,-347 1325.51,-362.05 1303.7,-373.19 1286.53,-380.35"/>
<polygon fill="midnightblue" stroke="midnightblue" points="1398.95,-258.22 1399.21,-247.63 1392.4,-255.75 1398.95,-258.22"/>
</g>
<!-- Node10 -->
<g id="node10" class="node">
<title>Node10</title>
<g id="a_node10"><a xlink:href="src_2main_8cpp.html#a0ddf1224851353fc92bfbff6f499fa97" target="_top" xlink:title=" ">
<polygon fill="white" stroke="black" points="34.5,-209.5 34.5,-228.5 75.5,-228.5 75.5,-209.5 34.5,-209.5"/>
<text text-anchor="middle" x="55" y="-216.5" font-family="Helvetica,sans-Serif" font-size="10.00">main</text>
</a>
</g>
</g>
<!-- Node1&#45;&gt;Node10 -->
<g id="edge37" class="edge">
<title>Node1&#45;&gt;Node10</title>
<path fill="none" stroke="midnightblue" d="M1366.55,-234.63C1305.18,-229.17 1176.25,-219 1067,-219 1067,-219 1067,-219 347,-219 244.95,-219 122.76,-219 75.76,-219"/>
<polygon fill="midnightblue" stroke="midnightblue" points="1366.58,-238.14 1376.85,-235.55 1367.21,-231.17 1366.58,-238.14"/>
</g>
<!-- Node13 -->
<g id="node13" class="node">
<title>Node13</title>
<g id="a_node13"><a xlink:href="class_export.html#a59ba705b2369f21006ec7d7b7f3a4513" target="_top" xlink:title="Generate RIS reflection matrices.">
<polygon fill="white" stroke="black" points="440,-323.5 440,-342.5 556,-342.5 556,-323.5 440,-323.5"/>
<text text-anchor="middle" x="498" y="-330.5" font-family="Helvetica,sans-Serif" font-size="10.00">Export::_generateBF</text>
</a>
</g>
</g>
<!-- Node1&#45;&gt;Node13 -->
<g id="edge25" class="edge">
<title>Node1&#45;&gt;Node13</title>
<path fill="none" stroke="midnightblue" d="M1390.34,-256.05C1379.32,-270.8 1361.67,-290.84 1341,-301 1230.97,-355.08 1189.61,-333 1067,-333 1067,-333 1067,-333 874.5,-333 761.72,-333 629.89,-333 556.25,-333"/>
<polygon fill="midnightblue" stroke="midnightblue" points="1393.36,-257.85 1396.31,-247.67 1387.66,-253.78 1393.36,-257.85"/>
</g>
<!-- Node15 -->
<g id="node15" class="node">
<title>Node15</title>
<g id="a_node15"><a xlink:href="class_export.html#a966a54f05ada435d6d1ce6e4a9750f41" target="_top" xlink:title=" ">
<polygon fill="white" stroke="black" points="592,-475.5 592,-494.5 759,-494.5 759,-475.5 592,-475.5"/>
<text text-anchor="middle" x="675.5" y="-482.5" font-family="Helvetica,sans-Serif" font-size="10.00">Export::_checkALGdependency</text>
</a>
</g>
</g>
<!-- Node1&#45;&gt;Node15 -->
<g id="edge21" class="edge">
<title>Node1&#45;&gt;Node15</title>
<path fill="none" stroke="midnightblue" d="M1402.61,-258.02C1401.63,-297.42 1393.32,-384.81 1341,-427 1151.01,-580.19 823.49,-520.46 713.64,-494.56"/>
<polygon fill="midnightblue" stroke="midnightblue" points="1406.11,-257.89 1402.72,-247.85 1399.11,-257.81 1406.11,-257.89"/>
</g>
<!-- Node17 -->
<g id="node17" class="node">
<title>Node17</title>
<g id="a_node17"><a xlink:href="class_export.html#ad7268f886ac4826f4b6ea738e423e520" target="_top" xlink:title=" ">
<polygon fill="white" stroke="black" points="992,-285.5 992,-304.5 1140,-304.5 1140,-285.5 992,-285.5"/>
<text text-anchor="middle" x="1066" y="-292.5" font-family="Helvetica,sans-Serif" font-size="10.00">Export::_generateChannels</text>
</a>
</g>
</g>
<!-- Node1&#45;&gt;Node17 -->
<g id="edge26" class="edge">
<title>Node1&#45;&gt;Node17</title>
<path fill="none" stroke="midnightblue" d="M1382.31,-253.96C1370.87,-262.07 1355.9,-271.21 1341,-276 1275.3,-297.14 1196.29,-300.45 1140.04,-299.33"/>
<polygon fill="midnightblue" stroke="midnightblue" points="1384.71,-256.54 1390.66,-247.77 1380.54,-250.91 1384.71,-256.54"/>
</g>
<!-- Node18 -->
<g id="node18" class="node">
<title>Node18</title>
<g id="a_node18"><a xlink:href="class_alg___line.html#a0047f4df72a2d10ebb74701c3d05bafc" target="_top" xlink:title="Process function name and parameter variables.">
<polygon fill="white" stroke="black" points="1176,-38.5 1176,-57.5 1341,-57.5 1341,-38.5 1176,-38.5"/>
<text text-anchor="middle" x="1258.5" y="-45.5" font-family="Helvetica,sans-Serif" font-size="10.00">Alg_Line::_processFuncParams</text>
</a>
</g>
</g>
<!-- Node1&#45;&gt;Node18 -->
<g id="edge28" class="edge">
<title>Node1&#45;&gt;Node18</title>
<path fill="none" stroke="midnightblue" d="M1400.77,-217.81C1396.7,-182.98 1383.38,-111.58 1341,-72 1334.21,-65.66 1325.82,-60.98 1317.04,-57.54"/>
<polygon fill="midnightblue" stroke="midnightblue" points="1397.33,-218.52 1401.83,-228.11 1404.29,-217.81 1397.33,-218.52"/>
</g>
<!-- Node19 -->
<g id="node19" class="node">
<title>Node19</title>
<g id="a_node19"><a xlink:href="class_alg___line.html#a4f478c53dbfaecf16d55be668d959562" target="_top" xlink:title="Construct a new Alg_Line object. Process string at the same time.">
<polygon fill="white" stroke="black" points="1013.5,-19.5 1013.5,-38.5 1118.5,-38.5 1118.5,-19.5 1013.5,-19.5"/>
<text text-anchor="middle" x="1066" y="-26.5" font-family="Helvetica,sans-Serif" font-size="10.00">Alg_Line::Alg_Line</text>
</a>
</g>
</g>
<!-- Node1&#45;&gt;Node19 -->
<g id="edge30" class="edge">
<title>Node1&#45;&gt;Node19</title>
<path fill="none" stroke="midnightblue" d="M1399.04,-218.29C1392.82,-188.96 1376.9,-134.15 1341,-105 1282.58,-57.56 1247.92,-89.14 1176,-67 1159.59,-61.95 1156.16,-58.79 1140,-53 1126.06,-48 1110.48,-42.83 1097.31,-38.57"/>
<polygon fill="midnightblue" stroke="midnightblue" points="1395.62,-219.04 1400.97,-228.18 1402.49,-217.7 1395.62,-219.04"/>
</g>
<!-- Node20 -->
<g id="node20" class="node">
<title>Node20</title>
<g id="a_node20"><a xlink:href="class_channel___graph.html#ac8aeff35f809d61816b2e1fadde523bf" target="_top" xlink:title=" ">
<polygon fill="white" stroke="black" points="1191.5,-522.5 1191.5,-541.5 1325.5,-541.5 1325.5,-522.5 1191.5,-522.5"/>
<text text-anchor="middle" x="1258.5" y="-529.5" font-family="Helvetica,sans-Serif" font-size="10.00">Channel_Graph::arrange</text>
</a>
</g>
</g>
<!-- Node1&#45;&gt;Node20 -->
<g id="edge31" class="edge">
<title>Node1&#45;&gt;Node20</title>
<path fill="none" stroke="midnightblue" d="M1400.21,-257.69C1393.55,-311.97 1372.61,-462.13 1341,-499 1331.46,-510.13 1317.62,-517.55 1304.04,-522.48"/>
<polygon fill="midnightblue" stroke="midnightblue" points="1403.7,-257.99 1401.42,-247.64 1396.75,-257.15 1403.7,-257.99"/>
</g>
<!-- Node22 -->
<g id="node22" class="node">
<title>Node22</title>
<g id="a_node22"><a xlink:href="error__code_8h.html#a19ac3b5328ffcb7b241c272b98d3f002" target="_top" xlink:title="Print error message and exit with exit code.">
<polygon fill="white" stroke="black" points="1229,-247.5 1229,-266.5 1288,-266.5 1288,-247.5 1229,-247.5"/>
<text text-anchor="middle" x="1258.5" y="-254.5" font-family="Helvetica,sans-Serif" font-size="10.00">errorExit</text>
</a>
</g>
</g>
<!-- Node1&#45;&gt;Node22 -->
<g id="edge34" class="edge">
<title>Node1&#45;&gt;Node22</title>
<path fill="none" stroke="midnightblue" d="M1367.01,-242.72C1342.65,-245.95 1310.74,-250.19 1288.03,-253.21"/>
<polygon fill="midnightblue" stroke="midnightblue" points="1367.48,-246.18 1376.93,-241.4 1366.56,-239.24 1367.48,-246.18"/>
</g>
<!-- Node23 -->
<g id="node23" class="node">
<title>Node23</title>
<g id="a_node23"><a xlink:href="class_type___track.html#af8662cb8617cd3a968d9aaebbd24cd82" target="_top" xlink:title=" ">
<polygon fill="white" stroke="black" points="1196,-0.5 1196,-19.5 1321,-19.5 1321,-0.5 1196,-0.5"/>
<text text-anchor="middle" x="1258.5" y="-7.5" font-family="Helvetica,sans-Serif" font-size="10.00">Type_Track::operator&#45;&#45;</text>
</a>
</g>
</g>
<!-- Node1&#45;&gt;Node23 -->
<g id="edge38" class="edge">
<title>Node1&#45;&gt;Node23</title>
<path fill="none" stroke="midnightblue" d="M1402.84,-218.24C1402.42,-176.77 1395.29,-80.27 1341,-29 1335.4,-23.71 1328.63,-19.8 1321.41,-16.92"/>
<polygon fill="midnightblue" stroke="midnightblue" points="1399.34,-218.39 1402.82,-228.4 1406.34,-218.4 1399.34,-218.39"/>
</g>
<!-- Node24 -->
<g id="node24" class="node">
<title>Node24</title>
<g id="a_node24"><a xlink:href="class_simulate.html#a03ef6895241e8accb07491e98bbfcf0c" target="_top" xlink:title=" ">
<polygon fill="white" stroke="black" points="1204,-114.5 1204,-133.5 1313,-133.5 1313,-114.5 1204,-114.5"/>
<text text-anchor="middle" x="1258.5" y="-121.5" font-family="Helvetica,sans-Serif" font-size="10.00">Simulate::simulate</text>
</a>
</g>
</g>
<!-- Node1&#45;&gt;Node24 -->
<g id="edge39" class="edge">
<title>Node1&#45;&gt;Node24</title>
<path fill="none" stroke="midnightblue" d="M1391.12,-219.57C1380.02,-202.8 1361.79,-178.25 1341,-162 1325.13,-149.6 1304.56,-140.05 1288.06,-133.62"/>
<polygon fill="midnightblue" stroke="midnightblue" points="1388.45,-221.89 1396.8,-228.42 1394.35,-218.11 1388.45,-221.89"/>
</g>
<!-- Node26 -->
<g id="node26" class="node">
<title>Node26</title>
<g id="a_node26"><a xlink:href="class_style.html#a06fd4016b36d2fa2e46c8c092701c7ea" target="_top" xlink:title="Call the astyle child process to style the generated C++ code.">
<polygon fill="white" stroke="black" points="1223,-171.5 1223,-190.5 1294,-190.5 1294,-171.5 1223,-171.5"/>
<text text-anchor="middle" x="1258.5" y="-178.5" font-family="Helvetica,sans-Serif" font-size="10.00">Style::style</text>
</a>
</g>
</g>
<!-- Node1&#45;&gt;Node26 -->
<g id="edge42" class="edge">
<title>Node1&#45;&gt;Node26</title>
<path fill="none" stroke="midnightblue" d="M1378.08,-223.4C1367.01,-217.18 1353.61,-210.18 1341,-205 1325.99,-198.84 1308.83,-193.54 1294.14,-189.5"/>
<polygon fill="midnightblue" stroke="midnightblue" points="1376.34,-226.43 1386.75,-228.38 1379.83,-220.36 1376.34,-226.43"/>
</g>
<!-- Node2&#45;&gt;Node2 -->
<g id="edge2" class="edge">
<title>Node2&#45;&gt;Node2</title>
<path fill="none" stroke="midnightblue" d="M1285.38,-408.65C1284.26,-413.94 1275.3,-418 1258.5,-418 1232.91,-418 1225.51,-408.57 1236.31,-399.76"/>
<polygon fill="midnightblue" stroke="midnightblue" points="1288.45,-406.97 1280.69,-399.76 1282.26,-410.24 1288.45,-406.97"/>
</g>
<!-- Node3 -->
<g id="node3" class="node">
<title>Node3</title>
<g id="a_node3"><a xlink:href="class_calc.html#ad6dbdfdd4bd21322e5836ff72c11ae1b" target="_top" xlink:title="Convert the Alg CALC contents into a language command.">
<polygon fill="white" stroke="black" points="1038.5,-380.5 1038.5,-399.5 1093.5,-399.5 1093.5,-380.5 1038.5,-380.5"/>
<text text-anchor="middle" x="1066" y="-387.5" font-family="Helvetica,sans-Serif" font-size="10.00">Calc::as</text>
</a>
</g>
</g>
<!-- Node2&#45;&gt;Node3 -->
<g id="edge3" class="edge">
<title>Node2&#45;&gt;Node3</title>
<path fill="none" stroke="midnightblue" d="M1183.18,-390C1151.71,-390 1117.03,-390 1093.83,-390"/>
<polygon fill="midnightblue" stroke="midnightblue" points="1183.27,-393.5 1193.27,-390 1183.27,-386.5 1183.27,-393.5"/>
</g>
<!-- Node4 -->
<g id="node4" class="node">
<title>Node4</title>
<g id="a_node4"><a xlink:href="class_calc.html#ad26b51e3caa182fb7cb4d8e5c03ca8b1" target="_top" xlink:title=" ">
<polygon fill="white" stroke="black" points="848,-361.5 848,-380.5 903,-380.5 903,-361.5 848,-361.5"/>
<text text-anchor="middle" x="875.5" y="-368.5" font-family="Helvetica,sans-Serif" font-size="10.00">Calc::as</text>
</a>
</g>
</g>
<!-- Node3&#45;&gt;Node4 -->
<g id="edge4" class="edge">
<title>Node3&#45;&gt;Node4</title>
<path fill="none" stroke="midnightblue" d="M1028.11,-386.28C991.4,-382.58 935.96,-376.99 903.28,-373.7"/>
<polygon fill="midnightblue" stroke="midnightblue" points="1028.09,-389.8 1038.39,-387.32 1028.79,-382.83 1028.09,-389.8"/>
</g>
<!-- Node5 -->
<g id="node5" class="node">
<title>Node5</title>
<g id="a_node5"><a xlink:href="class_alg.html#a3ee7f9963027158b3fbd442d97800111" target="_top" xlink:title=" ">
<polygon fill="white" stroke="black" points="832.5,-437.5 832.5,-456.5 918.5,-456.5 918.5,-437.5 832.5,-437.5"/>
<text text-anchor="middle" x="875.5" y="-444.5" font-family="Helvetica,sans-Serif" font-size="10.00">Alg::inlineCalc</text>
</a>
</g>
</g>
<!-- Node3&#45;&gt;Node5 -->
<g id="edge5" class="edge">
<title>Node3&#45;&gt;Node5</title>
<path fill="none" stroke="midnightblue" d="M1028.55,-401.04C1007.38,-407.46 980.18,-415.69 956,-423 940.27,-427.76 922.78,-433.04 908.22,-437.43"/>
<polygon fill="midnightblue" stroke="midnightblue" points="1029.57,-404.39 1038.13,-398.14 1027.54,-397.69 1029.57,-404.39"/>
</g>
<!-- Node6 -->
<g id="node6" class="node">
<title>Node6</title>
<g id="a_node6"><a xlink:href="class_alg.html#ada1e8215f047b4ffd736e811b5ea3162" target="_top" xlink:title=" ">
<polygon fill="white" stroke="black" points="644,-399.5 644,-418.5 707,-418.5 707,-399.5 644,-399.5"/>
<text text-anchor="middle" x="675.5" y="-406.5" font-family="Helvetica,sans-Serif" font-size="10.00">Alg::write</text>
</a>
</g>
</g>
<!-- Node3&#45;&gt;Node6 -->
<g id="edge20" class="edge">
<title>Node3&#45;&gt;Node6</title>
<path fill="none" stroke="midnightblue" d="M1028.2,-391.8C951.91,-395.53 777.74,-404.05 707.1,-407.5"/>
<polygon fill="midnightblue" stroke="midnightblue" points="1028.48,-395.29 1038.3,-391.31 1028.14,-388.3 1028.48,-395.29"/>
</g>
<!-- Node5&#45;&gt;Node6 -->
<g id="edge6" class="edge">
<title>Node5&#45;&gt;Node6</title>
<path fill="none" stroke="midnightblue" d="M822.02,-436.93C785.43,-429.91 737.88,-420.78 707.27,-414.91"/>
<polygon fill="midnightblue" stroke="midnightblue" points="821.54,-440.4 832.02,-438.85 822.86,-433.53 821.54,-440.4"/>
</g>
<!-- Node6&#45;&gt;Node6 -->
<g id="edge19" class="edge">
<title>Node6&#45;&gt;Node6</title>
<path fill="none" stroke="midnightblue" d="M708.48,-426.89C708,-432.54 697.01,-437 675.5,-437 644.22,-437 635.18,-427.57 648.37,-418.76"/>
<polygon fill="midnightblue" stroke="midnightblue" points="711.31,-424.83 702.63,-418.76 705.63,-428.92 711.31,-424.83"/>
</g>
<!-- Node7 -->
<g id="node7" class="node">
<title>Node7</title>
<g id="a_node7"><a xlink:href="class_export.html#a89d3ae54dd2261cf35be148011b79fe4" target="_top" xlink:title=" ">
<polygon fill="white" stroke="black" points="292,-437.5 292,-456.5 404,-456.5 404,-437.5 292,-437.5"/>
<text text-anchor="middle" x="348" y="-444.5" font-family="Helvetica,sans-Serif" font-size="10.00">Export::_algorithms</text>
</a>
</g>
</g>
<!-- Node6&#45;&gt;Node7 -->
<g id="edge7" class="edge">
<title>Node6&#45;&gt;Node7</title>
<path fill="none" stroke="midnightblue" d="M633.87,-416.21C611.04,-420.09 581.99,-424.73 556,-428 504.62,-434.47 445.8,-439.66 404.02,-442.97"/>
<polygon fill="midnightblue" stroke="midnightblue" points="634.63,-419.63 643.89,-414.49 633.44,-412.73 634.63,-419.63"/>
</g>
<!-- Node11 -->
<g id="node11" class="node">
<title>Node11</title>
<g id="a_node11"><a xlink:href="class_export.html#ae4811e1e4212029122c0ee29613714cc" target="_top" xlink:title=" ">
<polygon fill="white" stroke="black" points="442,-399.5 442,-418.5 554,-418.5 554,-399.5 442,-399.5"/>
<text text-anchor="middle" x="498" y="-406.5" font-family="Helvetica,sans-Serif" font-size="10.00">Export::_estimation</text>
</a>
</g>
</g>
<!-- Node6&#45;&gt;Node11 -->
<g id="edge11" class="edge">
<title>Node6&#45;&gt;Node11</title>
<path fill="none" stroke="midnightblue" d="M633.86,-409C610.13,-409 579.86,-409 554.02,-409"/>
<polygon fill="midnightblue" stroke="midnightblue" points="633.93,-412.5 643.93,-409 633.93,-405.5 633.93,-412.5"/>
</g>
<!-- Node12 -->
<g id="node12" class="node">
<title>Node12</title>
<g id="a_node12"><a xlink:href="class_export.html#a26fa49d9882a342d011ba715e0c14109" target="_top" xlink:title=" ">
<polygon fill="white" stroke="black" points="296,-380.5 296,-399.5 400,-399.5 400,-380.5 296,-380.5"/>
<text text-anchor="middle" x="348" y="-387.5" font-family="Helvetica,sans-Serif" font-size="10.00">Export::_sounding</text>
</a>
</g>
</g>
<!-- Node6&#45;&gt;Node12 -->
<g id="edge18" class="edge">
<title>Node6&#45;&gt;Node12</title>
<path fill="none" stroke="midnightblue" d="M633.97,-400.86C611.17,-396.7 582.12,-392.08 556,-390 502.98,-385.78 442.08,-386.44 400.13,-387.74"/>
<polygon fill="midnightblue" stroke="midnightblue" points="633.5,-404.34 643.97,-402.73 634.78,-397.46 633.5,-404.34"/>
</g>
<!-- Node6&#45;&gt;Node13 -->
<g id="edge14" class="edge">
<title>Node6&#45;&gt;Node13</title>
<path fill="none" stroke="midnightblue" d="M643.44,-395.22C619.57,-384.66 585.75,-369.79 556,-357 544.85,-352.21 532.44,-346.97 522.05,-342.61"/>
<polygon fill="midnightblue" stroke="midnightblue" points="642.14,-398.47 652.7,-399.32 644.97,-392.07 642.14,-398.47"/>
</g>
<!-- Node14 -->
<g id="node14" class="node">
<title>Node14</title>
<g id="a_node14"><a xlink:href="class_export.html#a833aa02973f6b5c1f3e536e8646cf1ac" target="_top" xlink:title=" ">
<polygon fill="white" stroke="black" points="448,-475.5 448,-494.5 548,-494.5 548,-475.5 448,-475.5"/>
<text text-anchor="middle" x="498" y="-482.5" font-family="Helvetica,sans-Serif" font-size="10.00">Export::_loadALG</text>
</a>
</g>
</g>
<!-- Node6&#45;&gt;Node14 -->
<g id="edge16" class="edge">
<title>Node6&#45;&gt;Node14</title>
<path fill="none" stroke="midnightblue" d="M643.44,-422.78C619.57,-433.34 585.75,-448.21 556,-461 544.85,-465.79 532.44,-471.03 522.05,-475.39"/>
<polygon fill="midnightblue" stroke="midnightblue" points="644.97,-425.93 652.7,-418.68 642.14,-419.53 644.97,-425.93"/>
</g>
<!-- Node8 -->
<g id="node8" class="node">
<title>Node8</title>
<g id="a_node8"><a xlink:href="class_export.html#affc37d1d677a83d3e5d36a4e37b7a72b" target="_top" xlink:title=" ">
<polygon fill="white" stroke="black" points="146,-418.5 146,-437.5 256,-437.5 256,-418.5 146,-418.5"/>
<text text-anchor="middle" x="201" y="-425.5" font-family="Helvetica,sans-Serif" font-size="10.00">Export::exportCode</text>
</a>
</g>
</g>
<!-- Node7&#45;&gt;Node8 -->
<g id="edge8" class="edge">
<title>Node7&#45;&gt;Node8</title>
<path fill="none" stroke="midnightblue" d="M281.79,-438.45C273.21,-437.33 264.49,-436.19 256.12,-435.09"/>
<polygon fill="midnightblue" stroke="midnightblue" points="281.4,-441.93 291.77,-439.76 282.31,-434.99 281.4,-441.93"/>
</g>
<!-- Node9 -->
<g id="node9" class="node">
<title>Node9</title>
<g id="a_node9"><a xlink:href="class_export.html#a94fab568af6ddd6447efca74e205e081" target="_top" xlink:title=" ">
<polygon fill="white" stroke="black" points="0,-418.5 0,-437.5 110,-437.5 110,-418.5 0,-418.5"/>
<text text-anchor="middle" x="55" y="-425.5" font-family="Helvetica,sans-Serif" font-size="10.00">Export::exportCode</text>
</a>
</g>
</g>
<!-- Node8&#45;&gt;Node9 -->
<g id="edge9" class="edge">
<title>Node8&#45;&gt;Node9</title>
<path fill="none" stroke="midnightblue" d="M135.73,-428C127.25,-428 118.62,-428 110.33,-428"/>
<polygon fill="midnightblue" stroke="midnightblue" points="135.97,-431.5 145.97,-428 135.97,-424.5 135.97,-431.5"/>
</g>
<!-- Node8&#45;&gt;Node10 -->
<g id="edge10" class="edge">
<title>Node8&#45;&gt;Node10</title>
<path fill="none" stroke="midnightblue" d="M187.73,-410.19C158.4,-367.63 85.01,-261.1 62.6,-228.58"/>
<polygon fill="midnightblue" stroke="midnightblue" points="184.88,-412.23 193.44,-418.48 190.65,-408.26 184.88,-412.23"/>
</g>
<!-- Node11&#45;&gt;Node12 -->
<g id="edge12" class="edge">
<title>Node11&#45;&gt;Node12</title>
<path fill="none" stroke="midnightblue" d="M431.85,-400.64C421.26,-399.28 410.43,-397.89 400.24,-396.58"/>
<polygon fill="midnightblue" stroke="midnightblue" points="431.53,-404.12 441.89,-401.93 432.42,-397.18 431.53,-404.12"/>
</g>
<!-- Node12&#45;&gt;Node8 -->
<g id="edge13" class="edge">
<title>Node12&#45;&gt;Node8</title>
<path fill="none" stroke="midnightblue" d="M300.51,-402.18C280.38,-407.46 257.16,-413.54 238.33,-418.48"/>
<polygon fill="midnightblue" stroke="midnightblue" points="301.62,-405.51 310.41,-399.59 299.85,-398.74 301.62,-405.51"/>
</g>
<!-- Node13&#45;&gt;Node12 -->
<g id="edge15" class="edge">
<title>Node13&#45;&gt;Node12</title>
<path fill="none" stroke="midnightblue" d="M462.72,-346.2C435.54,-356.67 398.21,-371.05 373.85,-380.43"/>
<polygon fill="midnightblue" stroke="midnightblue" points="464.15,-349.4 472.23,-342.54 461.64,-342.87 464.15,-349.4"/>
</g>
<!-- Node14&#45;&gt;Node7 -->
<g id="edge17" class="edge">
<title>Node14&#45;&gt;Node7</title>
<path fill="none" stroke="midnightblue" d="M449.83,-472.89C429.21,-467.6 405.39,-461.48 386.08,-456.52"/>
<polygon fill="midnightblue" stroke="midnightblue" points="449.1,-476.31 459.65,-475.41 450.84,-469.53 449.1,-476.31"/>
</g>
<!-- Node15&#45;&gt;Node14 -->
<g id="edge22" class="edge">
<title>Node15&#45;&gt;Node14</title>
<path fill="none" stroke="midnightblue" d="M581.73,-485C570.17,-485 558.74,-485 548.22,-485"/>
<polygon fill="midnightblue" stroke="midnightblue" points="581.89,-488.5 591.89,-485 581.89,-481.5 581.89,-488.5"/>
</g>
<!-- Node16 -->
<g id="node16" class="node">
<title>Node16</title>
<g id="a_node16"><a xlink:href="class_export.html#af64597af0c0b4cf569f96216bcd23b2c" target="_top" xlink:title=" ">
<polygon fill="white" stroke="black" points="296,-494.5 296,-513.5 400,-513.5 400,-494.5 296,-494.5"/>
<text text-anchor="middle" x="348" y="-501.5" font-family="Helvetica,sans-Serif" font-size="10.00">Export::_reporting</text>
</a>
</g>
</g>
<!-- Node15&#45;&gt;Node16 -->
<g id="edge23" class="edge">
<title>Node15&#45;&gt;Node16</title>
<path fill="none" stroke="midnightblue" d="M616.22,-496.23C597.11,-499.41 575.72,-502.43 556,-504 502.98,-508.22 442.08,-507.56 400.13,-506.26"/>
<polygon fill="midnightblue" stroke="midnightblue" points="617.01,-499.65 626.28,-494.51 615.83,-492.75 617.01,-499.65"/>
</g>
<!-- Node16&#45;&gt;Node8 -->
<g id="edge24" class="edge">
<title>Node16&#45;&gt;Node8</title>
<path fill="none" stroke="midnightblue" d="M319.42,-489.54C290.29,-474.28 245.19,-450.64 220.22,-437.55"/>
<polygon fill="midnightblue" stroke="midnightblue" points="318.15,-492.83 328.64,-494.37 321.4,-486.63 318.15,-492.83"/>
</g>
<!-- Node17&#45;&gt;Node8 -->
<g id="edge27" class="edge">
<title>Node17&#45;&gt;Node8</title>
<path fill="none" stroke="midnightblue" d="M981.63,-295C902.96,-295 781.72,-295 676.5,-295 676.5,-295 676.5,-295 497,-295 376.78,-295 251.41,-387.94 213.51,-418.43"/>
<polygon fill="midnightblue" stroke="midnightblue" points="981.96,-298.5 991.96,-295 981.96,-291.5 981.96,-298.5"/>
</g>
<!-- Node18&#45;&gt;Node19 -->
<g id="edge29" class="edge">
<title>Node18&#45;&gt;Node19</title>
<path fill="none" stroke="midnightblue" d="M1165.83,-38.86C1149.64,-37.24 1133.3,-35.61 1118.71,-34.16"/>
<polygon fill="midnightblue" stroke="midnightblue" points="1165.58,-42.35 1175.88,-39.86 1166.28,-35.38 1165.58,-42.35"/>
</g>
<!-- Node21 -->
<g id="node21" class="node">
<title>Node21</title>
<g id="a_node21"><a xlink:href="class_export.html#ad7bd412c3fe1d5accc38cf1f2ab65ea0" target="_top" xlink:title=" ">
<polygon fill="white" stroke="black" points="795,-546.5 795,-565.5 956,-565.5 956,-546.5 795,-546.5"/>
<text text-anchor="middle" x="875.5" y="-553.5" font-family="Helvetica,sans-Serif" font-size="10.00">Export::_setCascadedChannel</text>
</a>
</g>
</g>
<!-- Node20&#45;&gt;Node21 -->
<g id="edge32" class="edge">
<title>Node20&#45;&gt;Node21</title>
<path fill="none" stroke="midnightblue" d="M1180.92,-536.82C1115.72,-540.93 1022.39,-546.81 956.29,-550.97"/>
<polygon fill="midnightblue" stroke="midnightblue" points="1181.37,-540.3 1191.13,-536.18 1180.93,-533.32 1181.37,-540.3"/>
</g>
<!-- Node21&#45;&gt;Node8 -->
<g id="edge33" class="edge">
<title>Node21&#45;&gt;Node8</title>
<path fill="none" stroke="midnightblue" d="M810.68,-567.06C699.43,-583.25 465.29,-603.42 292,-523 251.2,-504.06 219.67,-457.59 207.48,-437.5"/>
<polygon fill="midnightblue" stroke="midnightblue" points="811.37,-570.5 820.74,-565.56 810.33,-563.58 811.37,-570.5"/>
</g>
<!-- Node22&#45;&gt;Node10 -->
<g id="edge36" class="edge">
<title>Node22&#45;&gt;Node10</title>
<path fill="none" stroke="midnightblue" d="M1218.44,-257C1149.44,-257 1001.45,-257 876.5,-257 876.5,-257 876.5,-257 347,-257 244.08,-257 122.4,-233.34 75.64,-223.36"/>
<polygon fill="midnightblue" stroke="midnightblue" points="1218.82,-260.5 1228.82,-257 1218.82,-253.5 1218.82,-260.5"/>
</g>
<!-- Node22&#45;&gt;Node17 -->
<g id="edge35" class="edge">
<title>Node22&#45;&gt;Node17</title>
<path fill="none" stroke="midnightblue" d="M1218.9,-264.7C1188.9,-270.68 1147.12,-279.02 1114.97,-285.43"/>
<polygon fill="midnightblue" stroke="midnightblue" points="1219.86,-268.08 1228.98,-262.69 1218.49,-261.21 1219.86,-268.08"/>
</g>
<!-- Node24&#45;&gt;Node10 -->
<g id="edge40" class="edge">
<title>Node24&#45;&gt;Node10</title>
<path fill="none" stroke="midnightblue" d="M1212.94,-111.62C1200.89,-108.07 1187.89,-104.05 1176,-100 1159.75,-94.46 1156.75,-89.77 1140,-86 1025.45,-60.21 993.92,-67 876.5,-67 876.5,-67 876.5,-67 347,-67 223.32,-67 100.23,-176.22 65.59,-209.49"/>
<polygon fill="midnightblue" stroke="midnightblue" points="1212.22,-115.05 1222.8,-114.48 1214.17,-108.33 1212.22,-115.05"/>
</g>
<!-- Node25 -->
<g id="node25" class="node">
<title>Node25</title>
<g id="a_node25"><a xlink:href="class_simulate.html#a9b861e2a496da07d9377808c84c3e01b" target="_top" xlink:title=" ">
<polygon fill="white" stroke="black" points="1011.5,-95.5 1011.5,-114.5 1120.5,-114.5 1120.5,-95.5 1011.5,-95.5"/>
<text text-anchor="middle" x="1066" y="-102.5" font-family="Helvetica,sans-Serif" font-size="10.00">Simulate::simulate</text>
</a>
</g>
</g>
<!-- Node24&#45;&gt;Node25 -->
<g id="edge41" class="edge">
<title>Node24&#45;&gt;Node25</title>
<path fill="none" stroke="midnightblue" d="M1193.97,-117.66C1170.26,-115.3 1143.58,-112.64 1120.83,-110.37"/>
<polygon fill="midnightblue" stroke="midnightblue" points="1193.63,-121.15 1203.93,-118.66 1194.32,-114.18 1193.63,-121.15"/>
</g>
<!-- Node26&#45;&gt;Node10 -->
<g id="edge43" class="edge">
<title>Node26&#45;&gt;Node10</title>
<path fill="none" stroke="midnightblue" d="M1212.43,-181C1141.12,-181 997.93,-181 876.5,-181 876.5,-181 876.5,-181 347,-181 244.08,-181 122.4,-204.66 75.64,-214.64"/>
<polygon fill="midnightblue" stroke="midnightblue" points="1212.83,-184.5 1222.83,-181 1212.83,-177.5 1212.83,-184.5"/>
</g>
<!-- Node27 -->
<g id="node27" class="node">
<title>Node27</title>
<g id="a_node27"><a xlink:href="class_style.html#a4202615ba5c3a3b4c1b81a53f9c62b63" target="_top" xlink:title="Call the astyle child process to style the generated C++ code.">
<polygon fill="white" stroke="black" points="1030.5,-133.5 1030.5,-152.5 1101.5,-152.5 1101.5,-133.5 1030.5,-133.5"/>
<text text-anchor="middle" x="1066" y="-140.5" font-family="Helvetica,sans-Serif" font-size="10.00">Style::style</text>
</a>
</g>
</g>
<!-- Node26&#45;&gt;Node27 -->
<g id="edge44" class="edge">
<title>Node26&#45;&gt;Node27</title>
<path fill="none" stroke="midnightblue" d="M1212.45,-172.01C1178.56,-165.25 1132.8,-156.13 1101.72,-149.93"/>
<polygon fill="midnightblue" stroke="midnightblue" points="1212.07,-175.51 1222.56,-174.03 1213.44,-168.64 1212.07,-175.51"/>
</g>
</g>
</svg>
