<?xml version="1.0" encoding="UTF-8" standalone="no"?>
<!DOCTYPE svg PUBLIC "-//W3C//DTD SVG 1.1//EN"
 "http://www.w3.org/Graphics/SVG/1.1/DTD/svg11.dtd">
<!-- Generated by graphviz version 2.43.0 (0)
 -->
<!-- Title: Config::_load Pages: 1 -->
<svg width="289pt" height="123pt"
 viewBox="0.00 0.00 289.00 123.00" xmlns="http://www.w3.org/2000/svg" xmlns:xlink="http://www.w3.org/1999/xlink">
<g id="graph0" class="graph" transform="scale(1 1) rotate(0) translate(4 119)">
<title>Config::_load</title>
<polygon fill="white" stroke="transparent" points="-4,4 -4,-119 285,-119 285,4 -4,4"/>
<!-- Node1 -->
<g id="node1" class="node">
<title>Node1</title>
<g id="a_node1"><a xlink:title=" ">
<polygon fill="#bfbfbf" stroke="black" points="0,-38.5 0,-57.5 80,-57.5 80,-38.5 0,-38.5"/>
<text text-anchor="middle" x="40" y="-45.5" font-family="Helvetica,sans-Serif" font-size="10.00">Config::_load</text>
</a>
</g>
</g>
<!-- Node2 -->
<g id="node2" class="node">
<title>Node2</title>
<g id="a_node2"><a xlink:href="utils_8h.html#a4b2e6c6245b704aeb7448bf62b1cf422" target="_top" xlink:title=" ">
<polygon fill="white" stroke="black" points="124.5,-76.5 124.5,-95.5 177.5,-95.5 177.5,-76.5 124.5,-76.5"/>
<text text-anchor="middle" x="151" y="-83.5" font-family="Helvetica,sans-Serif" font-size="10.00">dataDir</text>
</a>
</g>
</g>
<!-- Node1&#45;&gt;Node2 -->
<g id="edge1" class="edge">
<title>Node1&#45;&gt;Node2</title>
<path fill="none" stroke="midnightblue" d="M68.51,-57.59C82.58,-62.49 99.86,-68.52 114.89,-73.76"/>
<polygon fill="midnightblue" stroke="midnightblue" points="113.78,-77.08 124.38,-77.07 116.09,-70.47 113.78,-77.08"/>
</g>
<!-- Node5 -->
<g id="node5" class="node">
<title>Node5</title>
<g id="a_node5"><a xlink:href="class_log.html#ac7147942832455398ad289b706a02616" target="_top" xlink:title="Write error message to the log file.">
<polygon fill="white" stroke="black" points="124.5,-38.5 124.5,-57.5 177.5,-57.5 177.5,-38.5 124.5,-38.5"/>
<text text-anchor="middle" x="151" y="-45.5" font-family="Helvetica,sans-Serif" font-size="10.00">Log::err</text>
</a>
</g>
</g>
<!-- Node1&#45;&gt;Node5 -->
<g id="edge4" class="edge">
<title>Node1&#45;&gt;Node5</title>
<path fill="none" stroke="midnightblue" d="M80.04,-48C91.25,-48 103.4,-48 114.38,-48"/>
<polygon fill="midnightblue" stroke="midnightblue" points="114.49,-51.5 124.49,-48 114.49,-44.5 114.49,-51.5"/>
</g>
<!-- Node6 -->
<g id="node6" class="node">
<title>Node6</title>
<g id="a_node6"><a xlink:href="class_term.html#abd955a8def100354b03e33911c3b21f8" target="_top" xlink:title="Print error message.">
<polygon fill="white" stroke="black" points="116,-0.5 116,-19.5 186,-19.5 186,-0.5 116,-0.5"/>
<text text-anchor="middle" x="151" y="-7.5" font-family="Helvetica,sans-Serif" font-size="10.00">Term::error</text>
</a>
</g>
</g>
<!-- Node1&#45;&gt;Node6 -->
<g id="edge5" class="edge">
<title>Node1&#45;&gt;Node6</title>
<path fill="none" stroke="midnightblue" d="M68.51,-38.41C81.93,-33.73 98.28,-28.03 112.8,-22.97"/>
<polygon fill="midnightblue" stroke="midnightblue" points="114.21,-26.18 122.5,-19.59 111.91,-19.57 114.21,-26.18"/>
</g>
<!-- Node3 -->
<g id="node3" class="node">
<title>Node3</title>
<g id="a_node3"><a xlink:href="utils_8h.html#a49dc116689f1a4202be4d3f0743b1f70" target="_top" xlink:title=" ">
<polygon fill="white" stroke="black" points="227,-95.5 227,-114.5 276,-114.5 276,-95.5 227,-95.5"/>
<text text-anchor="middle" x="251.5" y="-102.5" font-family="Helvetica,sans-Serif" font-size="10.00">appDir</text>
</a>
</g>
</g>
<!-- Node2&#45;&gt;Node3 -->
<g id="edge2" class="edge">
<title>Node2&#45;&gt;Node3</title>
<path fill="none" stroke="midnightblue" d="M177.62,-90.94C189.59,-93.25 203.99,-96.03 216.82,-98.5"/>
<polygon fill="midnightblue" stroke="midnightblue" points="216.21,-101.95 226.7,-100.41 217.54,-95.08 216.21,-101.95"/>
</g>
<!-- Node4 -->
<g id="node4" class="node">
<title>Node4</title>
<g id="a_node4"><a xlink:href="utils_8h.html#a86caea3b83de102899d12b4100e61c1d" target="_top" xlink:title=" ">
<polygon fill="white" stroke="black" points="222,-57.5 222,-76.5 281,-76.5 281,-57.5 222,-57.5"/>
<text text-anchor="middle" x="251.5" y="-64.5" font-family="Helvetica,sans-Serif" font-size="10.00">homeDir</text>
</a>
</g>
</g>
<!-- Node2&#45;&gt;Node4 -->
<g id="edge3" class="edge">
<title>Node2&#45;&gt;Node4</title>
<path fill="none" stroke="midnightblue" d="M177.62,-81.06C188.12,-79.03 200.48,-76.65 212.02,-74.42"/>
<polygon fill="midnightblue" stroke="midnightblue" points="212.72,-77.85 221.88,-72.52 211.4,-70.98 212.72,-77.85"/>
</g>
</g>
</svg>
