<?xml version="1.0" encoding="UTF-8" standalone="no"?>
<!DOCTYPE svg PUBLIC "-//W3C//DTD SVG 1.1//EN"
 "http://www.w3.org/Graphics/SVG/1.1/DTD/svg11.dtd">
<!-- Generated by graphviz version 2.43.0 (0)
 -->
<!-- Title: Alg_Line::params Pages: 1 -->
<svg width="850pt" height="198pt"
 viewBox="0.00 0.00 850.00 198.00" xmlns="http://www.w3.org/2000/svg" xmlns:xlink="http://www.w3.org/1999/xlink">
<g id="graph0" class="graph" transform="scale(1 1) rotate(0) translate(4 194)">
<title>Alg_Line::params</title>
<polygon fill="white" stroke="transparent" points="-4,4 -4,-194 846,-194 846,4 -4,4"/>
<!-- Node1 -->
<g id="node1" class="node">
<title>Node1</title>
<g id="a_node1"><a xlink:title="Parameter variables.">
<polygon fill="#bfbfbf" stroke="black" points="741,-132.5 741,-151.5 842,-151.5 842,-132.5 741,-132.5"/>
<text text-anchor="middle" x="791.5" y="-139.5" font-family="Helvetica,sans-Serif" font-size="10.00">Alg_Line::params</text>
</a>
</g>
</g>
<!-- Node2 -->
<g id="node2" class="node">
<title>Node2</title>
<g id="a_node2"><a xlink:href="class_alg.html#afd5f2e9020a3706a1e2f54999745bf28" target="_top" xlink:title=" ">
<polygon fill="white" stroke="black" points="604,-170.5 604,-189.5 693,-189.5 693,-170.5 604,-170.5"/>
<text text-anchor="middle" x="648.5" y="-177.5" font-family="Helvetica,sans-Serif" font-size="10.00">Alg::_applyKey</text>
</a>
</g>
</g>
<!-- Node1&#45;&gt;Node2 -->
<g id="edge1" class="edge">
<title>Node1&#45;&gt;Node2</title>
<path fill="none" stroke="midnightblue" d="M745.06,-154.25C725.63,-159.48 703.27,-165.51 685.07,-170.41"/>
<polygon fill="midnightblue" stroke="midnightblue" points="746.18,-157.57 754.92,-151.59 744.35,-150.81 746.18,-157.57"/>
</g>
<!-- Node3 -->
<g id="node3" class="node">
<title>Node3</title>
<g id="a_node3"><a xlink:href="class_alg___line.html#a0f9d7702b1cda1516cdb3b8504d8c9d2" target="_top" xlink:title="Get the parameter value with the key.">
<polygon fill="white" stroke="black" points="592,-132.5 592,-151.5 705,-151.5 705,-132.5 592,-132.5"/>
<text text-anchor="middle" x="648.5" y="-139.5" font-family="Helvetica,sans-Serif" font-size="10.00">Alg_Line::operator[]</text>
</a>
</g>
</g>
<!-- Node1&#45;&gt;Node3 -->
<g id="edge2" class="edge">
<title>Node1&#45;&gt;Node3</title>
<path fill="none" stroke="midnightblue" d="M730.58,-142C722.09,-142 713.4,-142 705.01,-142"/>
<polygon fill="midnightblue" stroke="midnightblue" points="730.79,-145.5 740.79,-142 730.79,-138.5 730.79,-145.5"/>
</g>
<!-- Node4 -->
<g id="node4" class="node">
<title>Node4</title>
<g id="a_node4"><a xlink:href="class_alg.html#ada1e8215f047b4ffd736e811b5ea3162" target="_top" xlink:title=" ">
<polygon fill="white" stroke="black" points="617,-76.5 617,-95.5 680,-95.5 680,-76.5 617,-76.5"/>
<text text-anchor="middle" x="648.5" y="-83.5" font-family="Helvetica,sans-Serif" font-size="10.00">Alg::write</text>
</a>
</g>
</g>
<!-- Node1&#45;&gt;Node4 -->
<g id="edge3" class="edge">
<title>Node1&#45;&gt;Node4</title>
<path fill="none" stroke="midnightblue" d="M756.9,-128.65C731.18,-118.44 696.35,-104.61 673.42,-95.5"/>
<polygon fill="midnightblue" stroke="midnightblue" points="755.68,-131.93 766.26,-132.37 758.26,-125.43 755.68,-131.93"/>
</g>
<!-- Node4&#45;&gt;Node4 -->
<g id="edge16" class="edge">
<title>Node4&#45;&gt;Node4</title>
<path fill="none" stroke="midnightblue" d="M675.01,-104.65C673.9,-109.94 665.06,-114 648.5,-114 623.26,-114 615.97,-104.57 626.61,-95.76"/>
<polygon fill="midnightblue" stroke="midnightblue" points="678.1,-103.02 670.39,-95.76 671.89,-106.24 678.1,-103.02"/>
</g>
<!-- Node5 -->
<g id="node5" class="node">
<title>Node5</title>
<g id="a_node5"><a xlink:href="class_export.html#a89d3ae54dd2261cf35be148011b79fe4" target="_top" xlink:title=" ">
<polygon fill="white" stroke="black" points="292,-114.5 292,-133.5 404,-133.5 404,-114.5 292,-114.5"/>
<text text-anchor="middle" x="348" y="-121.5" font-family="Helvetica,sans-Serif" font-size="10.00">Export::_algorithms</text>
</a>
</g>
</g>
<!-- Node4&#45;&gt;Node5 -->
<g id="edge4" class="edge">
<title>Node4&#45;&gt;Node5</title>
<path fill="none" stroke="midnightblue" d="M624.54,-101.23C599.96,-117.38 563.49,-140.86 556,-143 494.93,-160.47 419.99,-144.94 379.12,-133.52"/>
<polygon fill="midnightblue" stroke="midnightblue" points="626.55,-104.09 632.98,-95.67 622.7,-98.25 626.55,-104.09"/>
</g>
<!-- Node9 -->
<g id="node9" class="node">
<title>Node9</title>
<g id="a_node9"><a xlink:href="class_export.html#ae4811e1e4212029122c0ee29613714cc" target="_top" xlink:title=" ">
<polygon fill="white" stroke="black" points="442,-76.5 442,-95.5 554,-95.5 554,-76.5 442,-76.5"/>
<text text-anchor="middle" x="498" y="-83.5" font-family="Helvetica,sans-Serif" font-size="10.00">Export::_estimation</text>
</a>
</g>
</g>
<!-- Node4&#45;&gt;Node9 -->
<g id="edge8" class="edge">
<title>Node4&#45;&gt;Node9</title>
<path fill="none" stroke="midnightblue" d="M606.5,-86C590.29,-86 571.42,-86 554.04,-86"/>
<polygon fill="midnightblue" stroke="midnightblue" points="606.73,-89.5 616.73,-86 606.73,-82.5 606.73,-89.5"/>
</g>
<!-- Node10 -->
<g id="node10" class="node">
<title>Node10</title>
<g id="a_node10"><a xlink:href="class_export.html#a26fa49d9882a342d011ba715e0c14109" target="_top" xlink:title=" ">
<polygon fill="white" stroke="black" points="296,-57.5 296,-76.5 400,-76.5 400,-57.5 296,-57.5"/>
<text text-anchor="middle" x="348" y="-64.5" font-family="Helvetica,sans-Serif" font-size="10.00">Export::_sounding</text>
</a>
</g>
</g>
<!-- Node4&#45;&gt;Node10 -->
<g id="edge15" class="edge">
<title>Node4&#45;&gt;Node10</title>
<path fill="none" stroke="midnightblue" d="M606.87,-75.7C591.1,-72.2 572.81,-68.73 556,-67 503.09,-61.56 442.17,-62.41 400.19,-64.1"/>
<polygon fill="midnightblue" stroke="midnightblue" points="606.3,-79.16 616.83,-77.99 607.87,-72.34 606.3,-79.16"/>
</g>
<!-- Node11 -->
<g id="node11" class="node">
<title>Node11</title>
<g id="a_node11"><a xlink:href="class_export.html#a59ba705b2369f21006ec7d7b7f3a4513" target="_top" xlink:title="Generate RIS reflection matrices.">
<polygon fill="white" stroke="black" points="440,-0.5 440,-19.5 556,-19.5 556,-0.5 440,-0.5"/>
<text text-anchor="middle" x="498" y="-7.5" font-family="Helvetica,sans-Serif" font-size="10.00">Export::_generateBF</text>
</a>
</g>
</g>
<!-- Node4&#45;&gt;Node11 -->
<g id="edge11" class="edge">
<title>Node4&#45;&gt;Node11</title>
<path fill="none" stroke="midnightblue" d="M623.15,-71.12C604.96,-60.25 579.31,-45.48 556,-34 545.5,-28.83 533.61,-23.71 523.41,-19.54"/>
<polygon fill="midnightblue" stroke="midnightblue" points="621.56,-74.25 631.94,-76.4 625.17,-68.25 621.56,-74.25"/>
</g>
<!-- Node12 -->
<g id="node12" class="node">
<title>Node12</title>
<g id="a_node12"><a xlink:href="class_export.html#a833aa02973f6b5c1f3e536e8646cf1ac" target="_top" xlink:title=" ">
<polygon fill="white" stroke="black" points="448,-114.5 448,-133.5 548,-133.5 548,-114.5 448,-114.5"/>
<text text-anchor="middle" x="498" y="-121.5" font-family="Helvetica,sans-Serif" font-size="10.00">Export::_loadALG</text>
</a>
</g>
</g>
<!-- Node4&#45;&gt;Node12 -->
<g id="edge13" class="edge">
<title>Node4&#45;&gt;Node12</title>
<path fill="none" stroke="midnightblue" d="M606.99,-96.37C584.94,-102.01 557.84,-108.94 536.31,-114.45"/>
<polygon fill="midnightblue" stroke="midnightblue" points="607.91,-99.74 616.73,-93.87 606.18,-92.96 607.91,-99.74"/>
</g>
<!-- Node6 -->
<g id="node6" class="node">
<title>Node6</title>
<g id="a_node6"><a xlink:href="class_export.html#affc37d1d677a83d3e5d36a4e37b7a72b" target="_top" xlink:title=" ">
<polygon fill="white" stroke="black" points="146,-95.5 146,-114.5 256,-114.5 256,-95.5 146,-95.5"/>
<text text-anchor="middle" x="201" y="-102.5" font-family="Helvetica,sans-Serif" font-size="10.00">Export::exportCode</text>
</a>
</g>
</g>
<!-- Node5&#45;&gt;Node6 -->
<g id="edge5" class="edge">
<title>Node5&#45;&gt;Node6</title>
<path fill="none" stroke="midnightblue" d="M281.79,-115.45C273.21,-114.33 264.49,-113.19 256.12,-112.09"/>
<polygon fill="midnightblue" stroke="midnightblue" points="281.4,-118.93 291.77,-116.76 282.31,-111.99 281.4,-118.93"/>
</g>
<!-- Node7 -->
<g id="node7" class="node">
<title>Node7</title>
<g id="a_node7"><a xlink:href="class_export.html#a94fab568af6ddd6447efca74e205e081" target="_top" xlink:title=" ">
<polygon fill="white" stroke="black" points="0,-114.5 0,-133.5 110,-133.5 110,-114.5 0,-114.5"/>
<text text-anchor="middle" x="55" y="-121.5" font-family="Helvetica,sans-Serif" font-size="10.00">Export::exportCode</text>
</a>
</g>
</g>
<!-- Node6&#45;&gt;Node7 -->
<g id="edge6" class="edge">
<title>Node6&#45;&gt;Node7</title>
<path fill="none" stroke="midnightblue" d="M136.01,-113.44C127.44,-114.57 118.72,-115.73 110.33,-116.83"/>
<polygon fill="midnightblue" stroke="midnightblue" points="136.51,-116.91 145.97,-112.13 135.6,-109.97 136.51,-116.91"/>
</g>
<!-- Node8 -->
<g id="node8" class="node">
<title>Node8</title>
<g id="a_node8"><a xlink:href="src_2main_8cpp.html#a0ddf1224851353fc92bfbff6f499fa97" target="_top" xlink:title=" ">
<polygon fill="white" stroke="black" points="34.5,-76.5 34.5,-95.5 75.5,-95.5 75.5,-76.5 34.5,-76.5"/>
<text text-anchor="middle" x="55" y="-83.5" font-family="Helvetica,sans-Serif" font-size="10.00">main</text>
</a>
</g>
</g>
<!-- Node6&#45;&gt;Node8 -->
<g id="edge7" class="edge">
<title>Node6&#45;&gt;Node8</title>
<path fill="none" stroke="midnightblue" d="M136.05,-96.56C114.24,-93.68 91.43,-90.67 75.76,-88.61"/>
<polygon fill="midnightblue" stroke="midnightblue" points="135.6,-100.03 145.97,-97.87 136.51,-93.09 135.6,-100.03"/>
</g>
<!-- Node9&#45;&gt;Node10 -->
<g id="edge9" class="edge">
<title>Node9&#45;&gt;Node10</title>
<path fill="none" stroke="midnightblue" d="M431.85,-77.64C421.26,-76.28 410.43,-74.89 400.24,-73.58"/>
<polygon fill="midnightblue" stroke="midnightblue" points="431.53,-81.12 441.89,-78.93 432.42,-74.18 431.53,-81.12"/>
</g>
<!-- Node10&#45;&gt;Node6 -->
<g id="edge10" class="edge">
<title>Node10&#45;&gt;Node6</title>
<path fill="none" stroke="midnightblue" d="M300.51,-79.18C280.38,-84.46 257.16,-90.54 238.33,-95.48"/>
<polygon fill="midnightblue" stroke="midnightblue" points="301.62,-82.51 310.41,-76.59 299.85,-75.74 301.62,-82.51"/>
</g>
<!-- Node11&#45;&gt;Node10 -->
<g id="edge12" class="edge">
<title>Node11&#45;&gt;Node10</title>
<path fill="none" stroke="midnightblue" d="M462.72,-23.2C435.54,-33.67 398.21,-48.05 373.85,-57.43"/>
<polygon fill="midnightblue" stroke="midnightblue" points="464.15,-26.4 472.23,-19.54 461.64,-19.87 464.15,-26.4"/>
</g>
<!-- Node12&#45;&gt;Node5 -->
<g id="edge14" class="edge">
<title>Node12&#45;&gt;Node5</title>
<path fill="none" stroke="midnightblue" d="M437.71,-124C426.65,-124 415.13,-124 404.19,-124"/>
<polygon fill="midnightblue" stroke="midnightblue" points="437.72,-127.5 447.72,-124 437.72,-120.5 437.72,-127.5"/>
</g>
</g>
</svg>
