<?xml version="1.0" encoding="UTF-8" standalone="no"?>
<!DOCTYPE svg PUBLIC "-//W3C//DTD SVG 1.1//EN"
 "http://www.w3.org/Graphics/SVG/1.1/DTD/svg11.dtd">
<!-- Generated by graphviz version 2.43.0 (0)
 -->
<!-- Title: Channel_Graph::arrange Pages: 1 -->
<svg width="424pt" height="122pt"
 viewBox="0.00 0.00 424.00 122.00" xmlns="http://www.w3.org/2000/svg" xmlns:xlink="http://www.w3.org/1999/xlink">
<g id="graph0" class="graph" transform="scale(1 1) rotate(0) translate(4 118)">
<title>Channel_Graph::arrange</title>
<polygon fill="white" stroke="transparent" points="-4,4 -4,-118 420,-118 420,4 -4,4"/>
<!-- Node1 -->
<g id="node1" class="node">
<title>Node1</title>
<g id="a_node1"><a xlink:title=" ">
<polygon fill="#bfbfbf" stroke="black" points="0,-38.5 0,-57.5 134,-57.5 134,-38.5 0,-38.5"/>
<text text-anchor="middle" x="67" y="-45.5" font-family="Helvetica,sans-Serif" font-size="10.00">Channel_Graph::arrange</text>
</a>
</g>
</g>
<!-- Node2 -->
<g id="node2" class="node">
<title>Node2</title>
<g id="a_node2"><a xlink:href="class_channel___graph.html#aee6312375a301acbc05862e28b86dedb" target="_top" xlink:title="Form paths based on the current frontier.">
<polygon fill="white" stroke="black" points="170,-76.5 170,-95.5 322,-95.5 322,-76.5 170,-76.5"/>
<text text-anchor="middle" x="246" y="-83.5" font-family="Helvetica,sans-Serif" font-size="10.00">Channel_Graph::_formPaths</text>
</a>
</g>
</g>
<!-- Node1&#45;&gt;Node2 -->
<g id="edge1" class="edge">
<title>Node1&#45;&gt;Node2</title>
<path fill="none" stroke="midnightblue" d="M112.66,-57.59C136.34,-62.67 165.61,-68.96 190.6,-74.32"/>
<polygon fill="midnightblue" stroke="midnightblue" points="190.14,-77.8 200.66,-76.48 191.61,-70.96 190.14,-77.8"/>
</g>
<!-- Node4 -->
<g id="node4" class="node">
<title>Node4</title>
<g id="a_node4"><a xlink:href="class_log.html#ac7147942832455398ad289b706a02616" target="_top" xlink:title="Write error message to the log file.">
<polygon fill="white" stroke="black" points="219.5,-38.5 219.5,-57.5 272.5,-57.5 272.5,-38.5 219.5,-38.5"/>
<text text-anchor="middle" x="246" y="-45.5" font-family="Helvetica,sans-Serif" font-size="10.00">Log::err</text>
</a>
</g>
</g>
<!-- Node1&#45;&gt;Node4 -->
<g id="edge4" class="edge">
<title>Node1&#45;&gt;Node4</title>
<path fill="none" stroke="midnightblue" d="M134.16,-48C159.64,-48 187.77,-48 209.32,-48"/>
<polygon fill="midnightblue" stroke="midnightblue" points="209.32,-51.5 219.32,-48 209.32,-44.5 209.32,-51.5"/>
</g>
<!-- Node5 -->
<g id="node5" class="node">
<title>Node5</title>
<g id="a_node5"><a xlink:href="class_log.html#add7e611cd3267d3fd5dae017e3aeef67" target="_top" xlink:title="Write infomation to the log file.">
<polygon fill="white" stroke="black" points="216.5,-0.5 216.5,-19.5 275.5,-19.5 275.5,-0.5 216.5,-0.5"/>
<text text-anchor="middle" x="246" y="-7.5" font-family="Helvetica,sans-Serif" font-size="10.00">Log::info</text>
</a>
</g>
</g>
<!-- Node1&#45;&gt;Node5 -->
<g id="edge5" class="edge">
<title>Node1&#45;&gt;Node5</title>
<path fill="none" stroke="midnightblue" d="M112.66,-38.41C141.54,-32.21 178.75,-24.22 206.35,-18.3"/>
<polygon fill="midnightblue" stroke="midnightblue" points="207.38,-21.66 216.43,-16.13 205.91,-14.81 207.38,-21.66"/>
</g>
<!-- Node2&#45;&gt;Node2 -->
<g id="edge2" class="edge">
<title>Node2&#45;&gt;Node2</title>
<path fill="none" stroke="midnightblue" d="M224.42,-95.76C213.92,-104.57 221.12,-114 246,-114 261.94,-114 270.62,-110.13 272.04,-105.03"/>
<polygon fill="midnightblue" stroke="midnightblue" points="275.07,-103.25 267.58,-95.76 268.76,-106.29 275.07,-103.25"/>
</g>
<!-- Node3 -->
<g id="node3" class="node">
<title>Node3</title>
<g id="a_node3"><a xlink:href="utils_8h.html#af11c7cca5b9ad860da4bdb556dce3234" target="_top" xlink:title=" ">
<polygon fill="white" stroke="black" points="358,-76.5 358,-95.5 416,-95.5 416,-76.5 358,-76.5"/>
<text text-anchor="middle" x="387" y="-83.5" font-family="Helvetica,sans-Serif" font-size="10.00">contains</text>
</a>
</g>
</g>
<!-- Node2&#45;&gt;Node3 -->
<g id="edge3" class="edge">
<title>Node2&#45;&gt;Node3</title>
<path fill="none" stroke="midnightblue" d="M322.2,-86C331,-86 339.69,-86 347.68,-86"/>
<polygon fill="midnightblue" stroke="midnightblue" points="347.73,-89.5 357.73,-86 347.73,-82.5 347.73,-89.5"/>
</g>
</g>
</svg>
