<?xml version="1.0" encoding="UTF-8" standalone="no"?>
<!DOCTYPE svg PUBLIC "-//W3C//DTD SVG 1.1//EN"
 "http://www.w3.org/Graphics/SVG/1.1/DTD/svg11.dtd">
<!-- Generated by graphviz version 2.43.0 (0)
 -->
<!-- Title: Export::_algorithms Pages: 1 -->
<svg width="1109pt" height="1130pt"
 viewBox="0.00 0.00 1109.00 1130.00" xmlns="http://www.w3.org/2000/svg" xmlns:xlink="http://www.w3.org/1999/xlink">
<g id="graph0" class="graph" transform="scale(1 1) rotate(0) translate(4 1126)">
<title>Export::_algorithms</title>
<polygon fill="white" stroke="transparent" points="-4,4 -4,-1126 1105,-1126 1105,4 -4,4"/>
<!-- Node1 -->
<g id="node1" class="node">
<title>Node1</title>
<g id="a_node1"><a xlink:title=" ">
<polygon fill="#bfbfbf" stroke="black" points="0,-494.5 0,-513.5 112,-513.5 112,-494.5 0,-494.5"/>
<text text-anchor="middle" x="56" y="-501.5" font-family="Helvetica,sans-Serif" font-size="10.00">Export::_algorithms</text>
</a>
</g>
</g>
<!-- Node2 -->
<g id="node2" class="node">
<title>Node2</title>
<g id="a_node2"><a xlink:href="class_export.html#a638d6b9ced18342503ee6f4d4b274740" target="_top" xlink:title=" ">
<polygon fill="white" stroke="black" points="325.5,-1102.5 325.5,-1121.5 409.5,-1121.5 409.5,-1102.5 325.5,-1102.5"/>
<text text-anchor="middle" x="367.5" y="-1109.5" font-family="Helvetica,sans-Serif" font-size="10.00">Export::_asStr</text>
</a>
</g>
</g>
<!-- Node1&#45;&gt;Node2 -->
<g id="edge1" class="edge">
<title>Node1&#45;&gt;Node2</title>
<path fill="none" stroke="midnightblue" d="M57.54,-513.74C61.27,-577.65 84.83,-937.17 148,-1023 187.27,-1076.35 264.12,-1097.81 315.4,-1106.38"/>
<polygon fill="midnightblue" stroke="midnightblue" points="314.87,-1109.84 325.29,-1107.93 315.96,-1102.93 314.87,-1109.84"/>
</g>
<!-- Node3 -->
<g id="node3" class="node">
<title>Node3</title>
<g id="a_node3"><a xlink:href="class_export.html#abe75ae41d7cc8afe8f1ba4bbf67dfcfc" target="_top" xlink:title=" ">
<polygon fill="white" stroke="black" points="336,-1064.5 336,-1083.5 399,-1083.5 399,-1064.5 336,-1064.5"/>
<text text-anchor="middle" x="367.5" y="-1071.5" font-family="Helvetica,sans-Serif" font-size="10.00">Export::_f</text>
</a>
</g>
</g>
<!-- Node1&#45;&gt;Node3 -->
<g id="edge2" class="edge">
<title>Node1&#45;&gt;Node3</title>
<path fill="none" stroke="midnightblue" d="M57.79,-513.54C62.87,-573.2 92.58,-895.11 148,-974 189.51,-1033.08 274.76,-1057.98 325.64,-1067.92"/>
<polygon fill="midnightblue" stroke="midnightblue" points="325.17,-1071.39 335.64,-1069.76 326.44,-1064.51 325.17,-1071.39"/>
</g>
<!-- Node4 -->
<g id="node4" class="node">
<title>Node4</title>
<g id="a_node4"><a xlink:href="class_export.html#a4dd19b0ff2eb109897fb486769fefffe" target="_top" xlink:title="Get the size of the node (Tx/Rx/RIS).">
<polygon fill="white" stroke="black" points="150.5,-0.5 150.5,-19.5 245.5,-19.5 245.5,-0.5 150.5,-0.5"/>
<text text-anchor="middle" x="198" y="-7.5" font-family="Helvetica,sans-Serif" font-size="10.00">Export::_getSize</text>
</a>
</g>
</g>
<!-- Node1&#45;&gt;Node4 -->
<g id="edge3" class="edge">
<title>Node1&#45;&gt;Node4</title>
<path fill="none" stroke="midnightblue" d="M57.7,-494.4C62.28,-434.36 89.4,-110.56 148,-34 150.76,-30.39 154.21,-27.29 157.99,-24.64"/>
<polygon fill="midnightblue" stroke="midnightblue" points="159.83,-27.62 166.66,-19.51 156.27,-21.59 159.83,-27.62"/>
</g>
<!-- Node5 -->
<g id="node5" class="node">
<title>Node5</title>
<g id="a_node5"><a xlink:href="class_export.html#a68e698a5654fc800aa78c512da8f23b1" target="_top" xlink:title=" ">
<polygon fill="white" stroke="black" points="320.5,-1026.5 320.5,-1045.5 414.5,-1045.5 414.5,-1026.5 320.5,-1026.5"/>
<text text-anchor="middle" x="367.5" y="-1033.5" font-family="Helvetica,sans-Serif" font-size="10.00">Export::_langStr</text>
</a>
</g>
</g>
<!-- Node1&#45;&gt;Node5 -->
<g id="edge4" class="edge">
<title>Node1&#45;&gt;Node5</title>
<path fill="none" stroke="midnightblue" d="M56.57,-513.52C54.87,-561.82 52.77,-782.88 148,-922 186.63,-978.44 262.21,-1008.84 313.53,-1023.72"/>
<polygon fill="midnightblue" stroke="midnightblue" points="312.88,-1027.17 323.45,-1026.49 314.76,-1020.43 312.88,-1027.17"/>
</g>
<!-- Node6 -->
<g id="node6" class="node">
<title>Node6</title>
<g id="a_node6"><a xlink:href="class_export.html#a833aa02973f6b5c1f3e536e8646cf1ac" target="_top" xlink:title=" ">
<polygon fill="white" stroke="black" points="148,-893.5 148,-912.5 248,-912.5 248,-893.5 148,-893.5"/>
<text text-anchor="middle" x="198" y="-900.5" font-family="Helvetica,sans-Serif" font-size="10.00">Export::_loadALG</text>
</a>
</g>
</g>
<!-- Node1&#45;&gt;Node6 -->
<g id="edge5" class="edge">
<title>Node1&#45;&gt;Node6</title>
<path fill="none" stroke="midnightblue" d="M60.46,-513.86C78.88,-566.37 165.53,-813.32 190.35,-884.03"/>
<polygon fill="midnightblue" stroke="midnightblue" points="187.05,-885.2 193.66,-893.48 193.65,-882.89 187.05,-885.2"/>
</g>
<!-- Node11 -->
<g id="node11" class="node">
<title>Node11</title>
<g id="a_node11"><a xlink:href="class_log.html#add7e611cd3267d3fd5dae017e3aeef67" target="_top" xlink:title="Write infomation to the log file.">
<polygon fill="white" stroke="black" points="1023,-684.5 1023,-703.5 1082,-703.5 1082,-684.5 1023,-684.5"/>
<text text-anchor="middle" x="1052.5" y="-691.5" font-family="Helvetica,sans-Serif" font-size="10.00">Log::info</text>
</a>
</g>
</g>
<!-- Node1&#45;&gt;Node11 -->
<g id="edge67" class="edge">
<title>Node1&#45;&gt;Node11</title>
<path fill="none" stroke="midnightblue" d="M58.5,-494.48C69.43,-428.99 142.61,-48 366.5,-48 366.5,-48 366.5,-48 743.5,-48 1028.21,-48 1050,-565.6 1051.44,-674.17"/>
<polygon fill="midnightblue" stroke="midnightblue" points="1047.94,-674.4 1051.53,-684.37 1054.94,-674.34 1047.94,-674.4"/>
</g>
<!-- Node13 -->
<g id="node13" class="node">
<title>Node13</title>
<g id="a_node13"><a xlink:href="class_export.html#a33b5d571af76c0d4f9b9ee6e72afd8a6" target="_top" xlink:title=" ">
<polygon fill="white" stroke="black" points="315,-380.5 315,-399.5 420,-399.5 420,-380.5 315,-380.5"/>
<text text-anchor="middle" x="367.5" y="-387.5" font-family="Helvetica,sans-Serif" font-size="10.00">Export::_preCheck</text>
</a>
</g>
</g>
<!-- Node1&#45;&gt;Node13 -->
<g id="edge66" class="edge">
<title>Node1&#45;&gt;Node13</title>
<path fill="none" stroke="midnightblue" d="M63.38,-494.28C76.56,-475.1 108.88,-432.64 148,-414 197.16,-390.58 259.41,-385.81 304.88,-386.18"/>
<polygon fill="midnightblue" stroke="midnightblue" points="304.84,-389.68 314.9,-386.34 304.96,-382.68 304.84,-389.68"/>
</g>
<!-- Node17 -->
<g id="node17" class="node">
<title>Node17</title>
<g id="a_node17"><a xlink:href="utils_8h.html#a6ef734356291c638e5787a6c668192d4" target="_top" xlink:title=" ">
<polygon fill="white" stroke="black" points="553.5,-114.5 553.5,-133.5 590.5,-133.5 590.5,-114.5 553.5,-114.5"/>
<text text-anchor="middle" x="572" y="-121.5" font-family="Helvetica,sans-Serif" font-size="10.00">trim</text>
</a>
</g>
</g>
<!-- Node1&#45;&gt;Node17 -->
<g id="edge68" class="edge">
<title>Node1&#45;&gt;Node17</title>
<path fill="none" stroke="midnightblue" d="M93.9,-494.47C138.76,-482.94 216.82,-463.08 284,-447 358.03,-429.29 399.56,-465.11 451,-409 530.14,-322.69 410.25,-236.44 487,-148 500.86,-132.03 524.54,-126.34 543.23,-124.46"/>
<polygon fill="midnightblue" stroke="midnightblue" points="543.54,-127.95 553.27,-123.76 543.05,-120.97 543.54,-127.95"/>
</g>
<!-- Node20 -->
<g id="node20" class="node">
<title>Node20</title>
<g id="a_node20"><a xlink:href="class_alg.html#ada1e8215f047b4ffd736e811b5ea3162" target="_top" xlink:title=" ">
<polygon fill="white" stroke="black" points="336,-494.5 336,-513.5 399,-513.5 399,-494.5 336,-494.5"/>
<text text-anchor="middle" x="367.5" y="-501.5" font-family="Helvetica,sans-Serif" font-size="10.00">Alg::write</text>
</a>
</g>
</g>
<!-- Node1&#45;&gt;Node20 -->
<g id="edge69" class="edge">
<title>Node1&#45;&gt;Node20</title>
<path fill="none" stroke="midnightblue" d="M112.33,-504C173.59,-504 270.88,-504 325.62,-504"/>
<polygon fill="midnightblue" stroke="midnightblue" points="325.65,-507.5 335.65,-504 325.65,-500.5 325.65,-507.5"/>
</g>
<!-- Node6&#45;&gt;Node2 -->
<g id="edge6" class="edge">
<title>Node6&#45;&gt;Node2</title>
<path fill="none" stroke="midnightblue" d="M200.29,-912.7C205,-944.11 224.27,-1043.88 284,-1093 292.96,-1100.37 304.23,-1105 315.53,-1107.88"/>
<polygon fill="midnightblue" stroke="midnightblue" points="314.92,-1111.32 325.43,-1109.98 316.37,-1104.48 314.92,-1111.32"/>
</g>
<!-- Node6&#45;&gt;Node3 -->
<g id="edge13" class="edge">
<title>Node6&#45;&gt;Node3</title>
<path fill="none" stroke="midnightblue" d="M201.43,-912.65C208.79,-939.76 233.45,-1017.08 284,-1055 295.92,-1063.94 311.34,-1068.78 325.62,-1071.37"/>
<polygon fill="midnightblue" stroke="midnightblue" points="325.34,-1074.86 335.74,-1072.88 326.37,-1067.94 325.34,-1074.86"/>
</g>
<!-- Node6&#45;&gt;Node5 -->
<g id="edge14" class="edge">
<title>Node6&#45;&gt;Node5</title>
<path fill="none" stroke="midnightblue" d="M205.35,-912.61C221.38,-936.6 263.64,-998.2 284,-1012 291.97,-1017.4 301.17,-1021.61 310.47,-1024.88"/>
<polygon fill="midnightblue" stroke="midnightblue" points="309.56,-1028.26 320.15,-1027.95 311.68,-1021.59 309.56,-1028.26"/>
</g>
<!-- Node7 -->
<g id="node7" class="node">
<title>Node7</title>
<g id="a_node7"><a xlink:href="class_export.html#a966a54f05ada435d6d1ce6e4a9750f41" target="_top" xlink:title=" ">
<polygon fill="white" stroke="black" points="284,-874.5 284,-893.5 451,-893.5 451,-874.5 284,-874.5"/>
<text text-anchor="middle" x="367.5" y="-881.5" font-family="Helvetica,sans-Serif" font-size="10.00">Export::_checkALGdependency</text>
</a>
</g>
</g>
<!-- Node6&#45;&gt;Node7 -->
<g id="edge7" class="edge">
<title>Node6&#45;&gt;Node7</title>
<path fill="none" stroke="midnightblue" d="M248.35,-897.4C256.48,-896.48 265.14,-895.5 273.93,-894.5"/>
<polygon fill="midnightblue" stroke="midnightblue" points="274.34,-897.98 283.88,-893.37 273.55,-891.02 274.34,-897.98"/>
</g>
<!-- Node8 -->
<g id="node8" class="node">
<title>Node8</title>
<g id="a_node8"><a xlink:href="utils_8h.html#a49dc116689f1a4202be4d3f0743b1f70" target="_top" xlink:title=" ">
<polygon fill="white" stroke="black" points="547.5,-988.5 547.5,-1007.5 596.5,-1007.5 596.5,-988.5 547.5,-988.5"/>
<text text-anchor="middle" x="572" y="-995.5" font-family="Helvetica,sans-Serif" font-size="10.00">appDir</text>
</a>
</g>
</g>
<!-- Node6&#45;&gt;Node8 -->
<g id="edge17" class="edge">
<title>Node6&#45;&gt;Node8</title>
<path fill="none" stroke="midnightblue" d="M248.36,-902.08C301.04,-902.96 385.73,-909.81 451,-941 470.58,-950.36 468.06,-963.4 487,-974 502.53,-982.69 521.46,-988.45 537.42,-992.15"/>
<polygon fill="midnightblue" stroke="midnightblue" points="536.9,-995.62 547.41,-994.29 538.37,-988.77 536.9,-995.62"/>
</g>
<!-- Node9 -->
<g id="node9" class="node">
<title>Node9</title>
<g id="a_node9"><a xlink:href="utils_8h.html#af11c7cca5b9ad860da4bdb556dce3234" target="_top" xlink:title=" ">
<polygon fill="white" stroke="black" points="869,-988.5 869,-1007.5 927,-1007.5 927,-988.5 869,-988.5"/>
<text text-anchor="middle" x="898" y="-995.5" font-family="Helvetica,sans-Serif" font-size="10.00">contains</text>
</a>
</g>
</g>
<!-- Node6&#45;&gt;Node9 -->
<g id="edge18" class="edge">
<title>Node6&#45;&gt;Node9</title>
<path fill="none" stroke="midnightblue" d="M239.3,-912.55C242.4,-914.11 245.34,-915.91 248,-918 272.73,-937.48 258.22,-960.93 284,-979 352.23,-1026.82 573.75,-1020.29 657,-1017 728.44,-1014.18 811.57,-1006.64 858.87,-1001.95"/>
<polygon fill="midnightblue" stroke="midnightblue" points="859.36,-1005.42 868.96,-1000.94 858.66,-998.46 859.36,-1005.42"/>
</g>
<!-- Node6&#45;&gt;Node11 -->
<g id="edge20" class="edge">
<title>Node6&#45;&gt;Node11</title>
<path fill="none" stroke="midnightblue" d="M215.98,-893.45C232.73,-884.52 259.32,-871.59 284,-865 444.99,-822.01 494.14,-862.28 657,-827 795.41,-797.01 953.05,-735.01 1019.4,-707.57"/>
<polygon fill="midnightblue" stroke="midnightblue" points="1021,-710.7 1028.88,-703.63 1018.31,-704.24 1021,-710.7"/>
</g>
<!-- Node6&#45;&gt;Node13 -->
<g id="edge15" class="edge">
<title>Node6&#45;&gt;Node13</title>
<path fill="none" stroke="midnightblue" d="M199.79,-893.42C204.78,-834.87 233.29,-525.21 284,-447 296.26,-428.09 317.21,-413.73 334.93,-404.16"/>
<polygon fill="midnightblue" stroke="midnightblue" points="336.54,-407.26 343.84,-399.59 333.35,-401.04 336.54,-407.26"/>
</g>
<!-- Node15 -->
<g id="node15" class="node">
<title>Node15</title>
<g id="a_node15"><a xlink:href="class_log.html#a48b8faa1f9d2590c6fb650f1004e73c9" target="_top" xlink:title="Flush the buff into the log file.">
<polygon fill="white" stroke="black" points="336,-950.5 336,-969.5 399,-969.5 399,-950.5 336,-950.5"/>
<text text-anchor="middle" x="367.5" y="-957.5" font-family="Helvetica,sans-Serif" font-size="10.00">Log::flush</text>
</a>
</g>
</g>
<!-- Node6&#45;&gt;Node15 -->
<g id="edge19" class="edge">
<title>Node6&#45;&gt;Node15</title>
<path fill="none" stroke="midnightblue" d="M221.89,-912.51C238.89,-919.42 262.71,-928.79 284,-936 297.51,-940.58 312.44,-945.08 325.84,-948.93"/>
<polygon fill="midnightblue" stroke="midnightblue" points="325.17,-952.38 335.74,-951.74 327.07,-945.65 325.17,-952.38"/>
</g>
<!-- Node16 -->
<g id="node16" class="node">
<title>Node16</title>
<g id="a_node16"><a xlink:href="utils_8h.html#a88311911bb82476c66e267a39713c170" target="_top" xlink:title=" ">
<polygon fill="white" stroke="black" points="335,-456.5 335,-475.5 400,-475.5 400,-456.5 335,-456.5"/>
<text text-anchor="middle" x="367.5" y="-463.5" font-family="Helvetica,sans-Serif" font-size="10.00">trim_copy</text>
</a>
</g>
</g>
<!-- Node6&#45;&gt;Node16 -->
<g id="edge21" class="edge">
<title>Node6&#45;&gt;Node16</title>
<path fill="none" stroke="midnightblue" d="M199.59,-893.2C203.22,-836.05 224.43,-546.12 284,-485 294.59,-474.14 310.04,-468.95 324.72,-466.62"/>
<polygon fill="midnightblue" stroke="midnightblue" points="325.18,-470.09 334.69,-465.43 324.35,-463.14 325.18,-470.09"/>
</g>
<!-- Node6&#45;&gt;Node20 -->
<g id="edge25" class="edge">
<title>Node6&#45;&gt;Node20</title>
<path fill="none" stroke="midnightblue" d="M203.14,-893.14C225.18,-840.63 328.85,-593.68 358.54,-522.97"/>
<polygon fill="midnightblue" stroke="midnightblue" points="361.86,-524.09 362.5,-513.52 355.41,-521.38 361.86,-524.09"/>
</g>
<!-- Node7&#45;&gt;Node8 -->
<g id="edge8" class="edge">
<title>Node7&#45;&gt;Node8</title>
<path fill="none" stroke="midnightblue" d="M423.84,-893.54C433.57,-896.97 443.1,-901.64 451,-908 477.04,-928.94 460.91,-953.12 487,-974 501.32,-985.46 520.85,-991.45 537.47,-994.58"/>
<polygon fill="midnightblue" stroke="midnightblue" points="536.95,-998.04 547.38,-996.18 538.06,-991.13 536.95,-998.04"/>
</g>
<!-- Node7&#45;&gt;Node9 -->
<g id="edge9" class="edge">
<title>Node7&#45;&gt;Node9</title>
<path fill="none" stroke="midnightblue" d="M438.85,-893.63C443.06,-895.17 447.15,-896.95 451,-899 471.25,-909.79 466.89,-924.95 487,-936 550.74,-971.02 769.24,-989.38 858.52,-995.57"/>
<polygon fill="midnightblue" stroke="midnightblue" points="858.54,-999.07 868.75,-996.26 859.01,-992.09 858.54,-999.07"/>
</g>
<!-- Node10 -->
<g id="node10" class="node">
<title>Node10</title>
<g id="a_node10"><a xlink:href="class_log.html#ac7147942832455398ad289b706a02616" target="_top" xlink:title="Write error message to the log file.">
<polygon fill="white" stroke="black" points="1026,-912.5 1026,-931.5 1079,-931.5 1079,-912.5 1026,-912.5"/>
<text text-anchor="middle" x="1052.5" y="-919.5" font-family="Helvetica,sans-Serif" font-size="10.00">Log::err</text>
</a>
</g>
</g>
<!-- Node7&#45;&gt;Node10 -->
<g id="edge10" class="edge">
<title>Node7&#45;&gt;Node10</title>
<path fill="none" stroke="midnightblue" d="M441.74,-893.52C456.69,-895.22 472.34,-896.82 487,-898 686.43,-914 926.4,-919.74 1015.72,-921.41"/>
<polygon fill="midnightblue" stroke="midnightblue" points="1015.8,-924.91 1025.86,-921.6 1015.92,-917.91 1015.8,-924.91"/>
</g>
<!-- Node7&#45;&gt;Node11 -->
<g id="edge11" class="edge">
<title>Node7&#45;&gt;Node11</title>
<path fill="none" stroke="midnightblue" d="M451.1,-881.16C594.68,-874.89 883.06,-856.06 968,-804 1004.11,-781.87 1030.15,-737.9 1042.82,-712.77"/>
<polygon fill="midnightblue" stroke="midnightblue" points="1046.07,-714.09 1047.28,-703.56 1039.77,-711.03 1046.07,-714.09"/>
</g>
<!-- Node12 -->
<g id="node12" class="node">
<title>Node12</title>
<g id="a_node12"><a xlink:href="class_log.html#ab61203710351f6d33d7ba634d2c4eb32" target="_top" xlink:title="Write warning message to the log file.">
<polygon fill="white" stroke="black" points="543,-798.5 543,-817.5 601,-817.5 601,-798.5 543,-798.5"/>
<text text-anchor="middle" x="572" y="-805.5" font-family="Helvetica,sans-Serif" font-size="10.00">Log::war</text>
</a>
</g>
</g>
<!-- Node7&#45;&gt;Node12 -->
<g id="edge12" class="edge">
<title>Node7&#45;&gt;Node12</title>
<path fill="none" stroke="midnightblue" d="M394.15,-874.37C430.13,-860.87 495.72,-836.25 536.11,-821.09"/>
<polygon fill="midnightblue" stroke="midnightblue" points="537.43,-824.34 545.56,-817.55 534.97,-817.78 537.43,-824.34"/>
</g>
<!-- Node14 -->
<g id="node14" class="node">
<title>Node14</title>
<g id="a_node14"><a xlink:href="error__code_8h.html#ae1bfa02e1106eff84ddecb9f7773a1a4" target="_top" xlink:title="Return the error message of the error code from class Err.">
<polygon fill="white" stroke="black" points="542,-76.5 542,-95.5 602,-95.5 602,-76.5 542,-76.5"/>
<text text-anchor="middle" x="572" y="-83.5" font-family="Helvetica,sans-Serif" font-size="10.00">errorMsg</text>
</a>
</g>
</g>
<!-- Node13&#45;&gt;Node14 -->
<g id="edge16" class="edge">
<title>Node13&#45;&gt;Node14</title>
<path fill="none" stroke="midnightblue" d="M369.4,-380.31C373.71,-339.67 395.98,-181.6 487,-105 499.36,-94.6 516.25,-89.59 531.65,-87.28"/>
<polygon fill="midnightblue" stroke="midnightblue" points="532.47,-90.71 542,-86.08 531.66,-83.75 532.47,-90.71"/>
</g>
<!-- Node16&#45;&gt;Node17 -->
<g id="edge22" class="edge">
<title>Node16&#45;&gt;Node17</title>
<path fill="none" stroke="midnightblue" d="M400.06,-464.96C417.68,-462.64 438.53,-456.66 451,-442 536.29,-341.72 401.47,-248.08 487,-148 500.74,-131.93 524.42,-126.24 543.15,-124.4"/>
<polygon fill="midnightblue" stroke="midnightblue" points="543.48,-127.88 553.22,-123.72 543.01,-120.9 543.48,-127.88"/>
</g>
<!-- Node18 -->
<g id="node18" class="node">
<title>Node18</title>
<g id="a_node18"><a xlink:href="utils_8h.html#a47084ee818936eef3c48be492c0e860f" target="_top" xlink:title=" ">
<polygon fill="white" stroke="black" points="722.5,-76.5 722.5,-95.5 762.5,-95.5 762.5,-76.5 722.5,-76.5"/>
<text text-anchor="middle" x="742.5" y="-83.5" font-family="Helvetica,sans-Serif" font-size="10.00">ltrim</text>
</a>
</g>
</g>
<!-- Node17&#45;&gt;Node18 -->
<g id="edge23" class="edge">
<title>Node17&#45;&gt;Node18</title>
<path fill="none" stroke="midnightblue" d="M590.71,-120.01C619.66,-113.48 677.37,-100.46 712.4,-92.56"/>
<polygon fill="midnightblue" stroke="midnightblue" points="713.5,-95.9 722.48,-90.29 711.96,-89.07 713.5,-95.9"/>
</g>
<!-- Node19 -->
<g id="node19" class="node">
<title>Node19</title>
<g id="a_node19"><a xlink:href="utils_8h.html#af6d6bd5c29782e3b958b5f7c0d1ea9e3" target="_top" xlink:title=" ">
<polygon fill="white" stroke="black" points="722,-114.5 722,-133.5 763,-133.5 763,-114.5 722,-114.5"/>
<text text-anchor="middle" x="742.5" y="-121.5" font-family="Helvetica,sans-Serif" font-size="10.00">rtrim</text>
</a>
</g>
</g>
<!-- Node17&#45;&gt;Node19 -->
<g id="edge24" class="edge">
<title>Node17&#45;&gt;Node19</title>
<path fill="none" stroke="midnightblue" d="M590.71,-124C619.51,-124 676.76,-124 711.84,-124"/>
<polygon fill="midnightblue" stroke="midnightblue" points="711.96,-127.5 721.96,-124 711.96,-120.5 711.96,-127.5"/>
</g>
<!-- Node20&#45;&gt;Node11 -->
<g id="edge44" class="edge">
<title>Node20&#45;&gt;Node11</title>
<path fill="none" stroke="midnightblue" d="M399.1,-505.09C416.84,-503.97 438.14,-499.33 451,-485 541.85,-383.72 385.29,-271.37 487,-181 543.48,-130.81 582.15,-170.67 657,-181 718.75,-189.52 740.34,-184.12 792,-219 898.09,-290.63 907.56,-334.15 968,-447 1010.46,-526.29 1037.31,-631.3 1047.21,-674.33"/>
<polygon fill="midnightblue" stroke="midnightblue" points="1043.79,-675.12 1049.4,-684.11 1050.62,-673.58 1043.79,-675.12"/>
</g>
<!-- Node20&#45;&gt;Node12 -->
<g id="edge63" class="edge">
<title>Node20&#45;&gt;Node12</title>
<path fill="none" stroke="midnightblue" d="M369.4,-513.69C373.71,-554.33 395.98,-712.4 487,-789 499.67,-799.66 517.1,-804.65 532.79,-806.89"/>
<polygon fill="midnightblue" stroke="midnightblue" points="532.47,-810.37 542.79,-807.99 533.24,-803.42 532.47,-810.37"/>
</g>
<!-- Node20&#45;&gt;Node17 -->
<g id="edge62" class="edge">
<title>Node20&#45;&gt;Node17</title>
<path fill="none" stroke="midnightblue" d="M399.16,-505.14C416.92,-504.04 438.23,-499.41 451,-485 550.94,-372.3 390.02,-263.26 487,-148 500.61,-131.82 524.31,-126.15 543.07,-124.33"/>
<polygon fill="midnightblue" stroke="midnightblue" points="543.41,-127.82 553.16,-123.67 542.96,-120.83 543.41,-127.82"/>
</g>
<!-- Node20&#45;&gt;Node20 -->
<g id="edge65" class="edge">
<title>Node20&#45;&gt;Node20</title>
<path fill="none" stroke="midnightblue" d="M341.61,-513.76C329.01,-522.57 337.64,-532 367.5,-532 387.56,-532 398.04,-527.74 398.94,-522.27"/>
<polygon fill="midnightblue" stroke="midnightblue" points="401.78,-520.23 393.39,-513.76 395.92,-524.05 401.78,-520.23"/>
</g>
<!-- Node21 -->
<g id="node21" class="node">
<title>Node21</title>
<g id="a_node21"><a xlink:href="class_alg.html#a2cf2b7f4e37c8e401d9c6dad6687917d" target="_top" xlink:title=" ">
<polygon fill="white" stroke="black" points="522,-532.5 522,-551.5 622,-551.5 622,-532.5 522,-532.5"/>
<text text-anchor="middle" x="572" y="-539.5" font-family="Helvetica,sans-Serif" font-size="10.00">Alg::_wComment</text>
</a>
</g>
</g>
<!-- Node20&#45;&gt;Node21 -->
<g id="edge26" class="edge">
<title>Node20&#45;&gt;Node21</title>
<path fill="none" stroke="midnightblue" d="M399.26,-509.77C428.99,-515.35 474.82,-523.95 511.67,-530.87"/>
<polygon fill="midnightblue" stroke="midnightblue" points="511.32,-534.36 521.8,-532.77 512.62,-527.48 511.32,-534.36"/>
</g>
<!-- Node22 -->
<g id="node22" class="node">
<title>Node22</title>
<g id="a_node22"><a xlink:href="class_calc.html#ad6dbdfdd4bd21322e5836ff72c11ae1b" target="_top" xlink:title="Convert the Alg CALC contents into a language command.">
<polygon fill="white" stroke="black" points="715,-627.5 715,-646.5 770,-646.5 770,-627.5 715,-627.5"/>
<text text-anchor="middle" x="742.5" y="-634.5" font-family="Helvetica,sans-Serif" font-size="10.00">Calc::as</text>
</a>
</g>
</g>
<!-- Node20&#45;&gt;Node22 -->
<g id="edge27" class="edge">
<title>Node20&#45;&gt;Node22</title>
<path fill="none" stroke="midnightblue" d="M385.25,-513.57C407.74,-526.07 449.26,-547.9 487,-561 560.14,-586.39 583.54,-574.55 657,-599 676.46,-605.48 697.51,-614.93 713.72,-622.79"/>
<polygon fill="midnightblue" stroke="midnightblue" points="712.62,-626.15 723.14,-627.43 715.72,-619.87 712.62,-626.15"/>
</g>
<!-- Node33 -->
<g id="node33" class="node">
<title>Node33</title>
<g id="a_node33"><a xlink:href="class_type.html#abe15820e780d2f6646792d54f3ae3311" target="_top" xlink:title=" ">
<polygon fill="white" stroke="black" points="540,-494.5 540,-513.5 604,-513.5 604,-494.5 540,-494.5"/>
<text text-anchor="middle" x="572" y="-501.5" font-family="Helvetica,sans-Serif" font-size="10.00">Type::dim</text>
</a>
</g>
</g>
<!-- Node20&#45;&gt;Node33 -->
<g id="edge41" class="edge">
<title>Node20&#45;&gt;Node33</title>
<path fill="none" stroke="midnightblue" d="M399.26,-504C434.05,-504 490.88,-504 529.56,-504"/>
<polygon fill="midnightblue" stroke="midnightblue" points="529.96,-507.5 539.96,-504 529.96,-500.5 529.96,-507.5"/>
</g>
<!-- Node34 -->
<g id="node34" class="node">
<title>Node34</title>
<g id="a_node34"><a xlink:href="class_alg___line.html#af651454e6ddfce164626b68b2c6cba97" target="_top" xlink:title="Get the function name.">
<polygon fill="white" stroke="black" points="529.5,-456.5 529.5,-475.5 614.5,-475.5 614.5,-456.5 529.5,-456.5"/>
<text text-anchor="middle" x="572" y="-463.5" font-family="Helvetica,sans-Serif" font-size="10.00">Alg_Line::func</text>
</a>
</g>
</g>
<!-- Node20&#45;&gt;Node34 -->
<g id="edge42" class="edge">
<title>Node20&#45;&gt;Node34</title>
<path fill="none" stroke="midnightblue" d="M399.26,-498.23C431.15,-492.24 481.56,-482.78 519.54,-475.66"/>
<polygon fill="midnightblue" stroke="midnightblue" points="520.22,-479.09 529.4,-473.81 518.92,-472.21 520.22,-479.09"/>
</g>
<!-- Node35 -->
<g id="node35" class="node">
<title>Node35</title>
<g id="a_node35"><a xlink:href="class_alg___line.html#a49a98870a1f09e35a3e15a7d7bab1666" target="_top" xlink:title="Check whether parameters contain the key.">
<polygon fill="white" stroke="black" points="522.5,-380.5 522.5,-399.5 621.5,-399.5 621.5,-380.5 522.5,-380.5"/>
<text text-anchor="middle" x="572" y="-387.5" font-family="Helvetica,sans-Serif" font-size="10.00">Alg_Line::hasKey</text>
</a>
</g>
</g>
<!-- Node20&#45;&gt;Node35 -->
<g id="edge43" class="edge">
<title>Node20&#45;&gt;Node35</title>
<path fill="none" stroke="midnightblue" d="M399.03,-503.15C415.88,-501.27 436.3,-496.5 451,-485 478.86,-463.2 459.71,-436.52 487,-414 494.47,-407.84 503.43,-403.26 512.68,-399.85"/>
<polygon fill="midnightblue" stroke="midnightblue" points="513.94,-403.12 522.38,-396.71 511.79,-396.46 513.94,-403.12"/>
</g>
<!-- Node36 -->
<g id="node36" class="node">
<title>Node36</title>
<g id="a_node36"><a xlink:href="class_alg.html#a3ee7f9963027158b3fbd442d97800111" target="_top" xlink:title=" ">
<polygon fill="white" stroke="black" points="529,-608.5 529,-627.5 615,-627.5 615,-608.5 529,-608.5"/>
<text text-anchor="middle" x="572" y="-615.5" font-family="Helvetica,sans-Serif" font-size="10.00">Alg::inlineCalc</text>
</a>
</g>
</g>
<!-- Node20&#45;&gt;Node36 -->
<g id="edge45" class="edge">
<title>Node20&#45;&gt;Node36</title>
<path fill="none" stroke="midnightblue" d="M378.4,-513.62C397.7,-531.87 442.41,-571.69 487,-594 496.97,-598.99 508.14,-603.09 519,-606.4"/>
<polygon fill="midnightblue" stroke="midnightblue" points="518.26,-609.83 528.84,-609.23 520.19,-603.11 518.26,-609.83"/>
</g>
<!-- Node37 -->
<g id="node37" class="node">
<title>Node37</title>
<g id="a_node37"><a xlink:href="class_alg___line.html#ad419191a99be7e34024e569ad833b04e" target="_top" xlink:title="Check whether the line is for function declaration.">
<polygon fill="white" stroke="black" points="487,-342.5 487,-361.5 657,-361.5 657,-342.5 487,-342.5"/>
<text text-anchor="middle" x="572" y="-349.5" font-family="Helvetica,sans-Serif" font-size="10.00">Alg_Line::isFunctionDeclaration</text>
</a>
</g>
</g>
<!-- Node20&#45;&gt;Node37 -->
<g id="edge47" class="edge">
<title>Node20&#45;&gt;Node37</title>
<path fill="none" stroke="midnightblue" d="M399.38,-504.07C416.55,-502.51 437.18,-497.76 451,-485 490.03,-448.95 447.9,-406.97 487,-371 488.7,-369.44 490.5,-367.99 492.38,-366.66"/>
<polygon fill="midnightblue" stroke="midnightblue" points="494.28,-369.61 501.1,-361.5 490.71,-363.58 494.28,-369.61"/>
</g>
<!-- Node38 -->
<g id="node38" class="node">
<title>Node38</title>
<g id="a_node38"><a xlink:href="class_alg.html#af935e64a6eb4afa4ca1540f4da3dcc9c" target="_top" xlink:title=" ">
<polygon fill="white" stroke="black" points="544,-304.5 544,-323.5 600,-323.5 600,-304.5 544,-304.5"/>
<text text-anchor="middle" x="572" y="-311.5" font-family="Helvetica,sans-Serif" font-size="10.00">Alg::line</text>
</a>
</g>
</g>
<!-- Node20&#45;&gt;Node38 -->
<g id="edge48" class="edge">
<title>Node20&#45;&gt;Node38</title>
<path fill="none" stroke="midnightblue" d="M399.34,-504.48C416.71,-503.09 437.55,-498.37 451,-485 500.24,-436.06 437.66,-381.84 487,-333 499.12,-321.01 517.1,-315.93 533.33,-313.98"/>
<polygon fill="midnightblue" stroke="midnightblue" points="533.98,-317.44 543.66,-313.12 533.4,-310.46 533.98,-317.44"/>
</g>
<!-- Node39 -->
<g id="node39" class="node">
<title>Node39</title>
<g id="a_node39"><a xlink:href="class_alg___line.html#a4e79eb77a1cddbdab1dbdde8a499342d" target="_top" xlink:title="Parameter variables.">
<polygon fill="white" stroke="black" points="521.5,-266.5 521.5,-285.5 622.5,-285.5 622.5,-266.5 521.5,-266.5"/>
<text text-anchor="middle" x="572" y="-273.5" font-family="Helvetica,sans-Serif" font-size="10.00">Alg_Line::params</text>
</a>
</g>
</g>
<!-- Node20&#45;&gt;Node39 -->
<g id="edge49" class="edge">
<title>Node20&#45;&gt;Node39</title>
<path fill="none" stroke="midnightblue" d="M399.16,-504.73C416.69,-503.46 437.76,-498.77 451,-485 510.57,-423.05 427.31,-356.83 487,-295 493.71,-288.05 502.37,-283.4 511.58,-280.33"/>
<polygon fill="midnightblue" stroke="midnightblue" points="512.6,-283.68 521.32,-277.67 510.75,-276.93 512.6,-283.68"/>
</g>
<!-- Node40 -->
<g id="node40" class="node">
<title>Node40</title>
<g id="a_node40"><a xlink:href="class_alg___line.html#a801b08c6c164376039a4ba4e980d039e" target="_top" xlink:title="Print Alg_Line contents (including return values, function names and parameters).">
<polygon fill="white" stroke="black" points="529,-760.5 529,-779.5 615,-779.5 615,-760.5 529,-760.5"/>
<text text-anchor="middle" x="572" y="-767.5" font-family="Helvetica,sans-Serif" font-size="10.00">Alg_Line::print</text>
</a>
</g>
</g>
<!-- Node20&#45;&gt;Node40 -->
<g id="edge50" class="edge">
<title>Node20&#45;&gt;Node40</title>
<path fill="none" stroke="midnightblue" d="M370.06,-513.66C376.6,-550.86 405.36,-685.93 487,-751 496.13,-758.28 507.51,-762.89 518.92,-765.77"/>
<polygon fill="midnightblue" stroke="midnightblue" points="518.39,-769.24 528.9,-767.89 519.84,-762.39 518.39,-769.24"/>
</g>
<!-- Node42 -->
<g id="node42" class="node">
<title>Node42</title>
<g id="a_node42"><a xlink:href="class_type___track.html#a4548ba1c289fba60e88b0e725509219e" target="_top" xlink:title=" ">
<polygon fill="white" stroke="black" points="848.5,-456.5 848.5,-475.5 947.5,-475.5 947.5,-456.5 848.5,-456.5"/>
<text text-anchor="middle" x="898" y="-463.5" font-family="Helvetica,sans-Serif" font-size="10.00">Type_Track::push</text>
</a>
</g>
</g>
<!-- Node20&#45;&gt;Node42 -->
<g id="edge53" class="edge">
<title>Node20&#45;&gt;Node42</title>
<path fill="none" stroke="midnightblue" d="M399.06,-501.27C415.33,-498.79 435.18,-494.05 451,-485 471.2,-473.45 465.63,-456.19 487,-447 613.76,-392.48 783.34,-431.31 858.43,-453.46"/>
<polygon fill="midnightblue" stroke="midnightblue" points="857.8,-456.93 868.39,-456.47 859.83,-450.23 857.8,-456.93"/>
</g>
<!-- Node43 -->
<g id="node43" class="node">
<title>Node43</title>
<g id="a_node43"><a xlink:href="utils_8h.html#a0465457013518e168df05799c93cfa6e" target="_top" xlink:title=" ">
<polygon fill="white" stroke="black" points="530.5,-228.5 530.5,-247.5 613.5,-247.5 613.5,-228.5 530.5,-228.5"/>
<text text-anchor="middle" x="572" y="-235.5" font-family="Helvetica,sans-Serif" font-size="10.00">removeQuote</text>
</a>
</g>
</g>
<!-- Node20&#45;&gt;Node43 -->
<g id="edge55" class="edge">
<title>Node20&#45;&gt;Node43</title>
<path fill="none" stroke="midnightblue" d="M399.31,-504.88C416.9,-503.65 437.97,-498.97 451,-485 520.97,-409.97 416.89,-331.89 487,-257 495.71,-247.7 507.93,-242.48 520.35,-239.67"/>
<polygon fill="midnightblue" stroke="midnightblue" points="521.07,-243.09 530.3,-237.89 519.84,-236.2 521.07,-243.09"/>
</g>
<!-- Node45 -->
<g id="node45" class="node">
<title>Node45</title>
<g id="a_node45"><a xlink:href="class_alg___line.html#a8e21f6b69eaf80a2327f7308fb4299e0" target="_top" xlink:title="Return variables.">
<polygon fill="white" stroke="black" points="523,-190.5 523,-209.5 621,-209.5 621,-190.5 523,-190.5"/>
<text text-anchor="middle" x="572" y="-197.5" font-family="Helvetica,sans-Serif" font-size="10.00">Alg_Line::returns</text>
</a>
</g>
</g>
<!-- Node20&#45;&gt;Node45 -->
<g id="edge57" class="edge">
<title>Node20&#45;&gt;Node45</title>
<path fill="none" stroke="midnightblue" d="M399.02,-505.01C416.73,-503.87 438.02,-499.23 451,-485 531.4,-396.86 406.43,-306.98 487,-219 493.89,-211.47 503.08,-206.61 512.85,-203.52"/>
<polygon fill="midnightblue" stroke="midnightblue" points="513.92,-206.86 522.75,-201 512.19,-200.08 513.92,-206.86"/>
</g>
<!-- Node46 -->
<g id="node46" class="node">
<title>Node46</title>
<g id="a_node46"><a xlink:href="class_type.html#a0153b8ff39040caf3ff2a6f7c7329d7c" target="_top" xlink:title="Get the C++ type name.">
<polygon fill="white" stroke="black" points="535.5,-722.5 535.5,-741.5 608.5,-741.5 608.5,-722.5 535.5,-722.5"/>
<text text-anchor="middle" x="572" y="-729.5" font-family="Helvetica,sans-Serif" font-size="10.00">Type::string</text>
</a>
</g>
</g>
<!-- Node20&#45;&gt;Node46 -->
<g id="edge58" class="edge">
<title>Node20&#45;&gt;Node46</title>
<path fill="none" stroke="midnightblue" d="M370.98,-513.78C380.03,-547.42 414.67,-659.29 487,-713 498,-721.17 511.89,-725.92 525.19,-728.66"/>
<polygon fill="midnightblue" stroke="midnightblue" points="524.74,-732.14 535.19,-730.39 525.93,-725.24 524.74,-732.14"/>
</g>
<!-- Node49 -->
<g id="node49" class="node">
<title>Node49</title>
<g id="a_node49"><a xlink:href="namespacemmce.html#ad4a160832ef9fad47c531ece39752208" target="_top" xlink:title="Change a number to string.">
<polygon fill="white" stroke="black" points="524,-684.5 524,-703.5 620,-703.5 620,-684.5 524,-684.5"/>
<text text-anchor="middle" x="572" y="-691.5" font-family="Helvetica,sans-Serif" font-size="10.00">mmce::to_string</text>
</a>
</g>
</g>
<!-- Node20&#45;&gt;Node49 -->
<g id="edge61" class="edge">
<title>Node20&#45;&gt;Node49</title>
<path fill="none" stroke="midnightblue" d="M372.17,-513.62C383.92,-543.01 423.53,-632.17 487,-675 495,-680.4 504.31,-684.29 513.76,-687.08"/>
<polygon fill="midnightblue" stroke="midnightblue" points="513.05,-690.51 523.61,-689.6 514.79,-683.73 513.05,-690.51"/>
</g>
<!-- Node50 -->
<g id="node50" class="node">
<title>Node50</title>
<g id="a_node50"><a xlink:href="class_log.html#a3410828f35c9bf8dd0771ead28de27b0" target="_top" xlink:title="Write contents to the log file.">
<polygon fill="white" stroke="black" points="539.5,-646.5 539.5,-665.5 604.5,-665.5 604.5,-646.5 539.5,-646.5"/>
<text text-anchor="middle" x="572" y="-653.5" font-family="Helvetica,sans-Serif" font-size="10.00">Log::write</text>
</a>
</g>
</g>
<!-- Node20&#45;&gt;Node50 -->
<g id="edge64" class="edge">
<title>Node20&#45;&gt;Node50</title>
<path fill="none" stroke="midnightblue" d="M374.02,-513.54C388.83,-538.24 432.12,-604.64 487,-637 499.75,-644.52 515.19,-649.06 529.35,-651.81"/>
<polygon fill="midnightblue" stroke="midnightblue" points="528.92,-655.29 539.37,-653.51 530.09,-648.38 528.92,-655.29"/>
</g>
<!-- Node23 -->
<g id="node23" class="node">
<title>Node23</title>
<g id="a_node23"><a xlink:href="class_calc.html#af1d1bd5e83f9e5196627f5a4e1a5ee83" target="_top" xlink:title=" ">
<polygon fill="white" stroke="black" points="835.5,-950.5 835.5,-969.5 960.5,-969.5 960.5,-950.5 835.5,-950.5"/>
<text text-anchor="middle" x="898" y="-957.5" font-family="Helvetica,sans-Serif" font-size="10.00">Calc::_changeFunction</text>
</a>
</g>
</g>
<!-- Node22&#45;&gt;Node23 -->
<g id="edge28" class="edge">
<title>Node22&#45;&gt;Node23</title>
<path fill="none" stroke="midnightblue" d="M754.71,-646.7C766.02,-657.17 783.08,-674.94 792,-694 831.96,-779.37 780.72,-821.46 828,-903 838.13,-920.48 855.77,-934.9 870.68,-944.87"/>
<polygon fill="midnightblue" stroke="midnightblue" points="869.2,-948.08 879.51,-950.49 872.95,-942.17 869.2,-948.08"/>
</g>
<!-- Node26 -->
<g id="node26" class="node">
<title>Node26</title>
<g id="a_node26"><a xlink:href="class_calc.html#ae3d88bd40f9bdf2c8ec92c426bdca446" target="_top" xlink:title=" ">
<polygon fill="white" stroke="black" points="834.5,-665.5 834.5,-684.5 961.5,-684.5 961.5,-665.5 834.5,-665.5"/>
<text text-anchor="middle" x="898" y="-672.5" font-family="Helvetica,sans-Serif" font-size="10.00">Calc::_changeOperator</text>
</a>
</g>
</g>
<!-- Node22&#45;&gt;Node26 -->
<g id="edge31" class="edge">
<title>Node22&#45;&gt;Node26</title>
<path fill="none" stroke="midnightblue" d="M770.24,-643.62C791.77,-648.95 822.61,-656.59 848.48,-662.99"/>
<polygon fill="midnightblue" stroke="midnightblue" points="847.94,-666.46 858.49,-665.47 849.62,-659.67 847.94,-666.46"/>
</g>
<!-- Node27 -->
<g id="node27" class="node">
<title>Node27</title>
<g id="a_node27"><a xlink:href="class_calc.html#ad95be528148e0d63848d5fa916b93200" target="_top" xlink:title=" ">
<polygon fill="white" stroke="black" points="842.5,-627.5 842.5,-646.5 953.5,-646.5 953.5,-627.5 842.5,-627.5"/>
<text text-anchor="middle" x="898" y="-634.5" font-family="Helvetica,sans-Serif" font-size="10.00">Calc::_changeParen</text>
</a>
</g>
</g>
<!-- Node22&#45;&gt;Node27 -->
<g id="edge32" class="edge">
<title>Node22&#45;&gt;Node27</title>
<path fill="none" stroke="midnightblue" d="M770.24,-637C787.37,-637 810.38,-637 832.1,-637"/>
<polygon fill="midnightblue" stroke="midnightblue" points="832.29,-640.5 842.29,-637 832.29,-633.5 832.29,-640.5"/>
</g>
<!-- Node28 -->
<g id="node28" class="node">
<title>Node28</title>
<g id="a_node28"><a xlink:href="class_calc.html#ad562619fef96a73cd3b4c27b35bc5f91" target="_top" xlink:title=" ">
<polygon fill="white" stroke="black" points="833,-856.5 833,-875.5 963,-875.5 963,-856.5 833,-856.5"/>
<text text-anchor="middle" x="898" y="-863.5" font-family="Helvetica,sans-Serif" font-size="10.00">Calc::_changeSubScript</text>
</a>
</g>
</g>
<!-- Node22&#45;&gt;Node28 -->
<g id="edge33" class="edge">
<title>Node22&#45;&gt;Node28</title>
<path fill="none" stroke="midnightblue" d="M752.58,-646.7C762.71,-657.75 779.35,-676.53 792,-694 830.5,-747.19 868.99,-814.84 886.78,-847.16"/>
<polygon fill="midnightblue" stroke="midnightblue" points="883.94,-849.25 891.81,-856.34 890.08,-845.89 883.94,-849.25"/>
</g>
<!-- Node32 -->
<g id="node32" class="node">
<title>Node32</title>
<g id="a_node32"><a xlink:href="class_calc.html#a1aec4748092712e0995c0ae5dabbf54f" target="_top" xlink:title=" ">
<polygon fill="white" stroke="black" points="828,-589.5 828,-608.5 968,-608.5 968,-589.5 828,-589.5"/>
<text text-anchor="middle" x="898" y="-596.5" font-family="Helvetica,sans-Serif" font-size="10.00">Calc::_changeSuperScript</text>
</a>
</g>
</g>
<!-- Node22&#45;&gt;Node32 -->
<g id="edge40" class="edge">
<title>Node22&#45;&gt;Node32</title>
<path fill="none" stroke="midnightblue" d="M770.24,-630.38C791.77,-625.05 822.61,-617.41 848.48,-611.01"/>
<polygon fill="midnightblue" stroke="midnightblue" points="849.62,-614.33 858.49,-608.53 847.94,-607.54 849.62,-614.33"/>
</g>
<!-- Node24 -->
<g id="node24" class="node">
<title>Node24</title>
<g id="a_node24"><a xlink:href="class_calc.html#a7d793eba0a7c9fcbafec4310359f165d" target="_top" xlink:title=" ">
<polygon fill="white" stroke="black" points="1006,-988.5 1006,-1007.5 1099,-1007.5 1099,-988.5 1006,-988.5"/>
<text text-anchor="middle" x="1052.5" y="-995.5" font-family="Helvetica,sans-Serif" font-size="10.00">Calc::_addArma</text>
</a>
</g>
</g>
<!-- Node23&#45;&gt;Node24 -->
<g id="edge29" class="edge">
<title>Node23&#45;&gt;Node24</title>
<path fill="none" stroke="midnightblue" d="M937.48,-969.59C957.52,-974.58 982.2,-980.73 1003.48,-986.03"/>
<polygon fill="midnightblue" stroke="midnightblue" points="1002.74,-989.46 1013.29,-988.48 1004.44,-982.67 1002.74,-989.46"/>
</g>
<!-- Node25 -->
<g id="node25" class="node">
<title>Node25</title>
<g id="a_node25"><a xlink:href="class_calc.html#af58cd6a2174e577a6246366de03b949e" target="_top" xlink:title=" ">
<polygon fill="white" stroke="black" points="1004,-950.5 1004,-969.5 1101,-969.5 1101,-950.5 1004,-950.5"/>
<text text-anchor="middle" x="1052.5" y="-957.5" font-family="Helvetica,sans-Serif" font-size="10.00">Calc::_addMmce</text>
</a>
</g>
</g>
<!-- Node23&#45;&gt;Node25 -->
<g id="edge30" class="edge">
<title>Node23&#45;&gt;Node25</title>
<path fill="none" stroke="midnightblue" d="M960.59,-960C971.49,-960 982.8,-960 993.6,-960"/>
<polygon fill="midnightblue" stroke="midnightblue" points="993.76,-963.5 1003.76,-960 993.76,-956.5 993.76,-963.5"/>
</g>
<!-- Node28&#45;&gt;Node10 -->
<g id="edge36" class="edge">
<title>Node28&#45;&gt;Node10</title>
<path fill="none" stroke="midnightblue" d="M925.22,-875.63C950.32,-884.85 988.38,-898.82 1016.16,-909.02"/>
<polygon fill="midnightblue" stroke="midnightblue" points="1015.29,-912.43 1025.88,-912.59 1017.7,-905.86 1015.29,-912.43"/>
</g>
<!-- Node28&#45;&gt;Node11 -->
<g id="edge37" class="edge">
<title>Node28&#45;&gt;Node11</title>
<path fill="none" stroke="midnightblue" d="M942.03,-856.39C951.28,-852.93 960.51,-848.26 968,-842 979.12,-832.71 1022.34,-750.53 1041.85,-712.79"/>
<polygon fill="midnightblue" stroke="midnightblue" points="1045,-714.32 1046.47,-703.83 1038.78,-711.11 1045,-714.32"/>
</g>
<!-- Node28&#45;&gt;Node28 -->
<g id="edge34" class="edge">
<title>Node28&#45;&gt;Node28</title>
<path fill="none" stroke="midnightblue" d="M874.26,-875.76C862.72,-884.57 870.63,-894 898,-894 915.96,-894 925.54,-889.94 926.75,-884.65"/>
<polygon fill="midnightblue" stroke="midnightblue" points="929.69,-882.75 921.74,-875.76 923.59,-886.19 929.69,-882.75"/>
</g>
<!-- Node29 -->
<g id="node29" class="node">
<title>Node29</title>
<g id="a_node29"><a xlink:href="class_calc.html#a284818e83b0d85bdd029f3d72d4ef0bd" target="_top" xlink:title=" ">
<polygon fill="white" stroke="black" points="1017.5,-874.5 1017.5,-893.5 1087.5,-893.5 1087.5,-874.5 1017.5,-874.5"/>
<text text-anchor="middle" x="1052.5" y="-881.5" font-family="Helvetica,sans-Serif" font-size="10.00">Calc::_msg</text>
</a>
</g>
</g>
<!-- Node28&#45;&gt;Node29 -->
<g id="edge35" class="edge">
<title>Node28&#45;&gt;Node29</title>
<path fill="none" stroke="midnightblue" d="M963.23,-873.58C978.02,-875.33 993.43,-877.15 1007.16,-878.77"/>
<polygon fill="midnightblue" stroke="midnightblue" points="1006.94,-882.27 1017.28,-879.96 1007.76,-875.31 1006.94,-882.27"/>
</g>
<!-- Node30 -->
<g id="node30" class="node">
<title>Node30</title>
<g id="a_node30"><a xlink:href="utils_8h.html#aa0a3ba0e1cec6f6b77334767af46eef7" target="_top" xlink:title="Check if the string is an unsigned integer.">
<polygon fill="white" stroke="black" points="1030,-836.5 1030,-855.5 1075,-855.5 1075,-836.5 1030,-836.5"/>
<text text-anchor="middle" x="1052.5" y="-843.5" font-family="Helvetica,sans-Serif" font-size="10.00">isUInt</text>
</a>
</g>
</g>
<!-- Node28&#45;&gt;Node30 -->
<g id="edge38" class="edge">
<title>Node28&#45;&gt;Node30</title>
<path fill="none" stroke="midnightblue" d="M963.23,-857.58C982.73,-855.02 1003.3,-852.32 1019.68,-850.17"/>
<polygon fill="midnightblue" stroke="midnightblue" points="1020.32,-853.62 1029.78,-848.85 1019.41,-846.68 1020.32,-853.62"/>
</g>
<!-- Node31 -->
<g id="node31" class="node">
<title>Node31</title>
<g id="a_node31"><a xlink:href="class_type___track.html#ab510214767b1b4d71e3beadecb814bb7" target="_top" xlink:title=" ">
<polygon fill="white" stroke="black" points="1005,-798.5 1005,-817.5 1100,-817.5 1100,-798.5 1005,-798.5"/>
<text text-anchor="middle" x="1052.5" y="-805.5" font-family="Helvetica,sans-Serif" font-size="10.00">Type_Track::size</text>
</a>
</g>
</g>
<!-- Node28&#45;&gt;Node31 -->
<g id="edge39" class="edge">
<title>Node28&#45;&gt;Node31</title>
<path fill="none" stroke="midnightblue" d="M927.67,-856.46C940.13,-852.2 954.85,-847.02 968,-842 984.19,-835.82 987.95,-833.55 1004,-827 1008.49,-825.17 1013.23,-823.25 1017.9,-821.37"/>
<polygon fill="midnightblue" stroke="midnightblue" points="1019.33,-824.57 1027.31,-817.6 1016.72,-818.07 1019.33,-824.57"/>
</g>
<!-- Node36&#45;&gt;Node22 -->
<g id="edge46" class="edge">
<title>Node36&#45;&gt;Node22</title>
<path fill="none" stroke="midnightblue" d="M615.09,-622.75C642.62,-625.85 678.26,-629.87 704.67,-632.85"/>
<polygon fill="midnightblue" stroke="midnightblue" points="704.33,-636.33 714.66,-633.97 705.12,-629.38 704.33,-636.33"/>
</g>
<!-- Node41 -->
<g id="node41" class="node">
<title>Node41</title>
<g id="a_node41"><a xlink:href="functions_8h.html#ac9dc58cb94b7547813c3a35154d97d18" target="_top" xlink:title=" ">
<polygon fill="white" stroke="black" points="703,-950.5 703,-969.5 782,-969.5 782,-950.5 703,-950.5"/>
<text text-anchor="middle" x="742.5" y="-957.5" font-family="Helvetica,sans-Serif" font-size="10.00">isFuncNoEnd</text>
</a>
</g>
</g>
<!-- Node40&#45;&gt;Node41 -->
<g id="edge51" class="edge">
<title>Node40&#45;&gt;Node41</title>
<path fill="none" stroke="midnightblue" d="M615.04,-772.19C629.56,-774.73 645.14,-779.66 657,-789 706.76,-828.2 729.34,-904.3 737.57,-940.26"/>
<polygon fill="midnightblue" stroke="midnightblue" points="734.23,-941.39 739.76,-950.43 741.08,-939.92 734.23,-941.39"/>
</g>
<!-- Node41&#45;&gt;Node9 -->
<g id="edge52" class="edge">
<title>Node41&#45;&gt;Node9</title>
<path fill="none" stroke="midnightblue" d="M782.23,-969.59C805.75,-975.41 835.64,-982.81 859.02,-988.6"/>
<polygon fill="midnightblue" stroke="midnightblue" points="858.39,-992.05 868.94,-991.05 860.07,-985.25 858.39,-992.05"/>
</g>
<!-- Node42&#45;&gt;Node11 -->
<g id="edge54" class="edge">
<title>Node42&#45;&gt;Node11</title>
<path fill="none" stroke="midnightblue" d="M905.36,-475.51C928.56,-510.2 1008.92,-630.34 1039.53,-676.11"/>
<polygon fill="midnightblue" stroke="midnightblue" points="1036.65,-678.09 1045.11,-684.45 1042.46,-674.19 1036.65,-678.09"/>
</g>
<!-- Node44 -->
<g id="node44" class="node">
<title>Node44</title>
<g id="a_node44"><a xlink:href="utils_8h.html#aaaee605fe46abaa420448438d89b22ed" target="_top" xlink:title=" ">
<polygon fill="white" stroke="black" points="712.5,-228.5 712.5,-247.5 772.5,-247.5 772.5,-228.5 712.5,-228.5"/>
<text text-anchor="middle" x="742.5" y="-235.5" font-family="Helvetica,sans-Serif" font-size="10.00">isQuoted</text>
</a>
</g>
</g>
<!-- Node43&#45;&gt;Node44 -->
<g id="edge56" class="edge">
<title>Node43&#45;&gt;Node44</title>
<path fill="none" stroke="midnightblue" d="M613.79,-238C640.7,-238 675.76,-238 702.34,-238"/>
<polygon fill="midnightblue" stroke="midnightblue" points="702.43,-241.5 712.43,-238 702.43,-234.5 702.43,-241.5"/>
</g>
<!-- Node47 -->
<g id="node47" class="node">
<title>Node47</title>
<g id="a_node47"><a xlink:href="class_type.html#a5b8adffb334040c53940ecf814ebcc65" target="_top" xlink:title=" ">
<polygon fill="white" stroke="black" points="695,-741.5 695,-760.5 790,-760.5 790,-741.5 695,-741.5"/>
<text text-anchor="middle" x="742.5" y="-748.5" font-family="Helvetica,sans-Serif" font-size="10.00">Type::_getString</text>
</a>
</g>
</g>
<!-- Node46&#45;&gt;Node47 -->
<g id="edge59" class="edge">
<title>Node46&#45;&gt;Node47</title>
<path fill="none" stroke="midnightblue" d="M608.73,-736.03C630.81,-738.52 659.63,-741.77 684.77,-744.6"/>
<polygon fill="midnightblue" stroke="midnightblue" points="684.6,-748.11 694.93,-745.75 685.38,-741.15 684.6,-748.11"/>
</g>
<!-- Node48 -->
<g id="node48" class="node">
<title>Node48</title>
<g id="a_node48"><a xlink:href="class_type.html#a836b463aa4740a234e0d304ed4cd958f" target="_top" xlink:title=" ">
<polygon fill="white" stroke="black" points="693,-703.5 693,-722.5 792,-722.5 792,-703.5 693,-703.5"/>
<text text-anchor="middle" x="742.5" y="-710.5" font-family="Helvetica,sans-Serif" font-size="10.00">Type::isUnknown</text>
</a>
</g>
</g>
<!-- Node46&#45;&gt;Node48 -->
<g id="edge60" class="edge">
<title>Node46&#45;&gt;Node48</title>
<path fill="none" stroke="midnightblue" d="M608.73,-727.97C630.22,-725.55 658.08,-722.41 682.73,-719.63"/>
<polygon fill="midnightblue" stroke="midnightblue" points="683.17,-723.1 692.71,-718.5 682.38,-716.14 683.17,-723.1"/>
</g>
</g>
</svg>
