<?xml version="1.0" encoding="UTF-8" standalone="no"?>
<!DOCTYPE svg PUBLIC "-//W3C//DTD SVG 1.1//EN"
 "http://www.w3.org/Graphics/SVG/1.1/DTD/svg11.dtd">
<!-- Generated by graphviz version 2.43.0 (0)
 -->
<!-- Title: Export::_sounding Pages: 1 -->
<svg width="1091pt" height="1066pt"
 viewBox="0.00 0.00 1091.00 1066.21" xmlns="http://www.w3.org/2000/svg" xmlns:xlink="http://www.w3.org/1999/xlink">
<g id="graph0" class="graph" transform="scale(1 1) rotate(0) translate(4 1062.21)">
<title>Export::_sounding</title>
<polygon fill="white" stroke="transparent" points="-4,4 -4,-1062.21 1087,-1062.21 1087,4 -4,4"/>
<!-- Node1 -->
<g id="node1" class="node">
<title>Node1</title>
<g id="a_node1"><a xlink:title=" ">
<polygon fill="#bfbfbf" stroke="black" points="0,-817.5 0,-836.5 104,-836.5 104,-817.5 0,-817.5"/>
<text text-anchor="middle" x="52" y="-824.5" font-family="Helvetica,sans-Serif" font-size="10.00">Export::_sounding</text>
</a>
</g>
</g>
<!-- Node2 -->
<g id="node2" class="node">
<title>Node2</title>
<g id="a_node2"><a xlink:href="class_export.html#a638d6b9ced18342503ee6f4d4b274740" target="_top" xlink:title=" ">
<polygon fill="white" stroke="black" points="338.5,-855.5 338.5,-874.5 422.5,-874.5 422.5,-855.5 338.5,-855.5"/>
<text text-anchor="middle" x="380.5" y="-862.5" font-family="Helvetica,sans-Serif" font-size="10.00">Export::_asStr</text>
</a>
</g>
</g>
<!-- Node1&#45;&gt;Node2 -->
<g id="edge1" class="edge">
<title>Node1&#45;&gt;Node2</title>
<path fill="none" stroke="midnightblue" d="M104.45,-835.8C116.12,-837.65 128.47,-839.5 140,-841 204.66,-849.43 279.48,-856.5 328.05,-860.74"/>
<polygon fill="midnightblue" stroke="midnightblue" points="328.04,-864.25 338.31,-861.62 328.64,-857.28 328.04,-864.25"/>
</g>
<!-- Node3 -->
<g id="node3" class="node">
<title>Node3</title>
<g id="a_node3"><a xlink:href="class_export.html#ae4811e1e4212029122c0ee29613714cc" target="_top" xlink:title=" ">
<polygon fill="white" stroke="black" points="160,-893.5 160,-912.5 272,-912.5 272,-893.5 160,-893.5"/>
<text text-anchor="middle" x="216" y="-900.5" font-family="Helvetica,sans-Serif" font-size="10.00">Export::_estimation</text>
</a>
</g>
</g>
<!-- Node1&#45;&gt;Node3 -->
<g id="edge2" class="edge">
<title>Node1&#45;&gt;Node3</title>
<path fill="none" stroke="midnightblue" d="M66.92,-836.69C83.66,-848.02 112.9,-866.76 140,-879 149.34,-883.22 159.65,-887.03 169.55,-890.3"/>
<polygon fill="midnightblue" stroke="midnightblue" points="168.68,-893.7 179.27,-893.39 170.8,-887.03 168.68,-893.7"/>
</g>
<!-- Node4 -->
<g id="node4" class="node">
<title>Node4</title>
<g id="a_node4"><a xlink:href="class_export.html#abe75ae41d7cc8afe8f1ba4bbf67dfcfc" target="_top" xlink:title=" ">
<polygon fill="white" stroke="black" points="349,-1007.5 349,-1026.5 412,-1026.5 412,-1007.5 349,-1007.5"/>
<text text-anchor="middle" x="380.5" y="-1014.5" font-family="Helvetica,sans-Serif" font-size="10.00">Export::_f</text>
</a>
</g>
</g>
<!-- Node1&#45;&gt;Node4 -->
<g id="edge50" class="edge">
<title>Node1&#45;&gt;Node4</title>
<path fill="none" stroke="midnightblue" d="M53.5,-836.78C55.87,-871.41 69.04,-988.68 140,-1036 204.28,-1078.87 300.93,-1049.75 349.45,-1030.38"/>
<polygon fill="midnightblue" stroke="midnightblue" points="350.86,-1033.59 358.77,-1026.54 348.19,-1027.11 350.86,-1033.59"/>
</g>
<!-- Node5 -->
<g id="node5" class="node">
<title>Node5</title>
<g id="a_node5"><a xlink:href="class_export.html#a68e698a5654fc800aa78c512da8f23b1" target="_top" xlink:title=" ">
<polygon fill="white" stroke="black" points="333.5,-817.5 333.5,-836.5 427.5,-836.5 427.5,-817.5 333.5,-817.5"/>
<text text-anchor="middle" x="380.5" y="-824.5" font-family="Helvetica,sans-Serif" font-size="10.00">Export::_langStr</text>
</a>
</g>
</g>
<!-- Node1&#45;&gt;Node5 -->
<g id="edge66" class="edge">
<title>Node1&#45;&gt;Node5</title>
<path fill="none" stroke="midnightblue" d="M104.02,-827C163.44,-827 261.32,-827 323,-827"/>
<polygon fill="midnightblue" stroke="midnightblue" points="323.33,-830.5 333.33,-827 323.33,-823.5 323.33,-830.5"/>
</g>
<!-- Node6 -->
<g id="node6" class="node">
<title>Node6</title>
<g id="a_node6"><a xlink:href="class_export.html#a33b5d571af76c0d4f9b9ee6e72afd8a6" target="_top" xlink:title=" ">
<polygon fill="white" stroke="black" points="328,-969.5 328,-988.5 433,-988.5 433,-969.5 328,-969.5"/>
<text text-anchor="middle" x="380.5" y="-976.5" font-family="Helvetica,sans-Serif" font-size="10.00">Export::_preCheck</text>
</a>
</g>
</g>
<!-- Node1&#45;&gt;Node6 -->
<g id="edge67" class="edge">
<title>Node1&#45;&gt;Node6</title>
<path fill="none" stroke="midnightblue" d="M55.94,-836.55C64.31,-861.89 90.88,-930.86 140,-960 193.7,-991.85 266.49,-992.95 317.68,-988.37"/>
<polygon fill="midnightblue" stroke="midnightblue" points="318.33,-991.82 327.94,-987.35 317.64,-984.86 318.33,-991.82"/>
</g>
<!-- Node12 -->
<g id="node12" class="node">
<title>Node12</title>
<g id="a_node12"><a xlink:href="class_alg.html#ada1e8215f047b4ffd736e811b5ea3162" target="_top" xlink:title=" ">
<polygon fill="white" stroke="black" points="349,-494.5 349,-513.5 412,-513.5 412,-494.5 349,-494.5"/>
<text text-anchor="middle" x="380.5" y="-501.5" font-family="Helvetica,sans-Serif" font-size="10.00">Alg::write</text>
</a>
</g>
</g>
<!-- Node1&#45;&gt;Node12 -->
<g id="edge72" class="edge">
<title>Node1&#45;&gt;Node12</title>
<path fill="none" stroke="midnightblue" d="M64.98,-817.43C81.15,-804.93 111.25,-783.11 140,-770 203.88,-740.87 239.98,-774.15 292,-727 353.39,-671.37 372.22,-567.29 377.55,-523.85"/>
<polygon fill="midnightblue" stroke="midnightblue" points="381.05,-524.06 378.68,-513.73 374.1,-523.28 381.05,-524.06"/>
</g>
<!-- Node46 -->
<g id="node43" class="node">
<title>Node46</title>
<g id="a_node43"><a xlink:href="class_export.html#a59ba705b2369f21006ec7d7b7f3a4513" target="_top" xlink:title="Generate RIS reflection matrices.">
<polygon fill="white" stroke="black" points="158,-779.5 158,-798.5 274,-798.5 274,-779.5 158,-779.5"/>
<text text-anchor="middle" x="216" y="-786.5" font-family="Helvetica,sans-Serif" font-size="10.00">Export::_generateBF</text>
</a>
</g>
</g>
<!-- Node1&#45;&gt;Node46 -->
<g id="edge51" class="edge">
<title>Node1&#45;&gt;Node46</title>
<path fill="none" stroke="midnightblue" d="M93.88,-817.41C115.35,-812.37 141.86,-806.16 164.6,-800.82"/>
<polygon fill="midnightblue" stroke="midnightblue" points="165.48,-804.21 174.41,-798.52 163.88,-797.4 165.48,-804.21"/>
</g>
<!-- Node47 -->
<g id="node44" class="node">
<title>Node47</title>
<g id="a_node44"><a xlink:href="class_export.html#a4dd19b0ff2eb109897fb486769fefffe" target="_top" xlink:title="Get the size of the node (Tx/Rx/RIS).">
<polygon fill="white" stroke="black" points="333,-133.5 333,-152.5 428,-152.5 428,-133.5 333,-133.5"/>
<text text-anchor="middle" x="380.5" y="-140.5" font-family="Helvetica,sans-Serif" font-size="10.00">Export::_getSize</text>
</a>
</g>
</g>
<!-- Node1&#45;&gt;Node47 -->
<g id="edge63" class="edge">
<title>Node1&#45;&gt;Node47</title>
<path fill="none" stroke="midnightblue" d="M58.34,-817.5C70.19,-797.33 100.79,-750.2 140,-727 199.49,-691.8 246.8,-746.31 292,-694 368.75,-605.18 261.58,-263.78 328,-167 330.42,-163.48 333.49,-160.46 336.93,-157.88"/>
<polygon fill="midnightblue" stroke="midnightblue" points="338.8,-160.83 345.48,-152.61 335.13,-154.88 338.8,-160.83"/>
</g>
<!-- Node49 -->
<g id="node46" class="node">
<title>Node49</title>
<g id="a_node46"><a xlink:href="class_export.html#a2feed8186a8ee3e7e140b1a143ccf233" target="_top" xlink:title=" ">
<polygon fill="white" stroke="black" points="140,-1007.5 140,-1026.5 292,-1026.5 292,-1007.5 140,-1007.5"/>
<text text-anchor="middle" x="216" y="-1014.5" font-family="Helvetica,sans-Serif" font-size="10.00">Export::_generateConstants</text>
</a>
</g>
</g>
<!-- Node1&#45;&gt;Node49 -->
<g id="edge61" class="edge">
<title>Node1&#45;&gt;Node49</title>
<path fill="none" stroke="midnightblue" d="M55.35,-836.89C62.66,-865.5 87.69,-949.04 140,-993 144.95,-997.16 150.62,-1000.6 156.59,-1003.44"/>
<polygon fill="midnightblue" stroke="midnightblue" points="155.56,-1006.81 166.14,-1007.44 158.27,-1000.35 155.56,-1006.81"/>
</g>
<!-- Node50 -->
<g id="node47" class="node">
<title>Node50</title>
<g id="a_node47"><a xlink:href="class_export.html#ab8f7bd9bd6f244d03c3f332df34e0139" target="_top" xlink:title=" ">
<polygon fill="white" stroke="black" points="157,-931.5 157,-950.5 275,-950.5 275,-931.5 157,-931.5"/>
<text text-anchor="middle" x="216" y="-938.5" font-family="Helvetica,sans-Serif" font-size="10.00">Export::_getTestNum</text>
</a>
</g>
</g>
<!-- Node1&#45;&gt;Node50 -->
<g id="edge64" class="edge">
<title>Node1&#45;&gt;Node50</title>
<path fill="none" stroke="midnightblue" d="M58.9,-836.5C71.37,-855.77 102.37,-899.51 140,-922 143.63,-924.17 147.51,-926.09 151.51,-927.8"/>
<polygon fill="midnightblue" stroke="midnightblue" points="150.43,-931.13 161.02,-931.4 152.9,-924.59 150.43,-931.13"/>
</g>
<!-- Node51 -->
<g id="node48" class="node">
<title>Node51</title>
<g id="a_node48"><a xlink:href="class_value___vec.html#ad2bf1b9a255e5433d3e0d4237543e35a" target="_top" xlink:title=" ">
<polygon fill="white" stroke="black" points="167.5,-665.5 167.5,-684.5 264.5,-684.5 264.5,-665.5 167.5,-665.5"/>
<text text-anchor="middle" x="216" y="-672.5" font-family="Helvetica,sans-Serif" font-size="10.00">Value_Vec::asStr</text>
</a>
</g>
</g>
<!-- Node1&#45;&gt;Node51 -->
<g id="edge68" class="edge">
<title>Node1&#45;&gt;Node51</title>
<path fill="none" stroke="midnightblue" d="M56.88,-817.36C66.92,-793.61 96.09,-731.81 140,-699 145.8,-694.67 152.4,-691.1 159.24,-688.17"/>
<polygon fill="midnightblue" stroke="midnightblue" points="160.57,-691.41 168.64,-684.55 158.05,-684.87 160.57,-691.41"/>
</g>
<!-- Node52 -->
<g id="node49" class="node">
<title>Node52</title>
<g id="a_node49"><a xlink:href="class_channel___graph.html#a435ff7fef8f4eb3703ec34945476d845" target="_top" xlink:title="The number of paths in the channel graph.">
<polygon fill="white" stroke="black" points="142.5,-627.5 142.5,-646.5 289.5,-646.5 289.5,-627.5 142.5,-627.5"/>
<text text-anchor="middle" x="216" y="-634.5" font-family="Helvetica,sans-Serif" font-size="10.00">Channel_Graph::pathsNum</text>
</a>
</g>
</g>
<!-- Node1&#45;&gt;Node52 -->
<g id="edge70" class="edge">
<title>Node1&#45;&gt;Node52</title>
<path fill="none" stroke="midnightblue" d="M54.94,-817.49C61.37,-788.42 84.83,-700.08 140,-656 142.19,-654.25 144.52,-652.66 146.95,-651.22"/>
<polygon fill="midnightblue" stroke="midnightblue" points="148.78,-654.22 156.14,-646.59 145.63,-647.96 148.78,-654.22"/>
</g>
<!-- Node53 -->
<g id="node50" class="node">
<title>Node53</title>
<g id="a_node50"><a xlink:href="class_value___vec.html#ace4be7ed03c08409ea3d21e5ba29762e" target="_top" xlink:title=" ">
<polygon fill="white" stroke="black" points="170,-589.5 170,-608.5 262,-608.5 262,-589.5 170,-589.5"/>
<text text-anchor="middle" x="216" y="-596.5" font-family="Helvetica,sans-Serif" font-size="10.00">Value_Vec::size</text>
</a>
</g>
</g>
<!-- Node1&#45;&gt;Node53 -->
<g id="edge71" class="edge">
<title>Node1&#45;&gt;Node53</title>
<path fill="none" stroke="midnightblue" d="M54,-817.35C57.98,-784.13 75.74,-673.48 140,-618 145.73,-613.05 152.58,-609.36 159.76,-606.61"/>
<polygon fill="midnightblue" stroke="midnightblue" points="161.26,-609.81 169.71,-603.42 159.12,-603.15 161.26,-609.81"/>
</g>
<!-- Node3&#45;&gt;Node2 -->
<g id="edge3" class="edge">
<title>Node3&#45;&gt;Node2</title>
<path fill="none" stroke="midnightblue" d="M258.01,-893.41C279.55,-888.37 306.13,-882.16 328.94,-876.82"/>
<polygon fill="midnightblue" stroke="midnightblue" points="329.85,-880.21 338.79,-874.52 328.25,-873.39 329.85,-880.21"/>
</g>
<!-- Node3&#45;&gt;Node4 -->
<g id="edge4" class="edge">
<title>Node3&#45;&gt;Node4</title>
<path fill="none" stroke="midnightblue" d="M272.17,-910.92C279.33,-913.63 286.19,-917.22 292,-922 320.87,-945.74 300.42,-972.77 328,-998 331.41,-1001.12 335.39,-1003.75 339.58,-1005.94"/>
<polygon fill="midnightblue" stroke="midnightblue" points="338.43,-1009.26 348.99,-1010.11 341.27,-1002.86 338.43,-1009.26"/>
</g>
<!-- Node3&#45;&gt;Node5 -->
<g id="edge5" class="edge">
<title>Node3&#45;&gt;Node5</title>
<path fill="none" stroke="midnightblue" d="M233.99,-893.46C255.51,-881.57 293.89,-860.99 328,-846 332.51,-844.02 337.29,-842.07 342.06,-840.21"/>
<polygon fill="midnightblue" stroke="midnightblue" points="343.61,-843.36 351.73,-836.55 341.13,-836.81 343.61,-843.36"/>
</g>
<!-- Node3&#45;&gt;Node6 -->
<g id="edge6" class="edge">
<title>Node3&#45;&gt;Node6</title>
<path fill="none" stroke="midnightblue" d="M268.7,-912.5C276.76,-914.99 284.79,-918.11 292,-922 311.1,-932.31 309.95,-942.94 328,-955 333.49,-958.67 339.63,-962.06 345.71,-965.07"/>
<polygon fill="midnightblue" stroke="midnightblue" points="344.55,-968.39 355.09,-969.46 347.52,-962.05 344.55,-968.39"/>
</g>
<!-- Node8 -->
<g id="node8" class="node">
<title>Node8</title>
<g id="a_node8"><a xlink:href="class_log.html#add7e611cd3267d3fd5dae017e3aeef67" target="_top" xlink:title="Write infomation to the log file.">
<polygon fill="white" stroke="black" points="1005,-703.5 1005,-722.5 1064,-722.5 1064,-703.5 1005,-703.5"/>
<text text-anchor="middle" x="1034.5" y="-710.5" font-family="Helvetica,sans-Serif" font-size="10.00">Log::info</text>
</a>
</g>
</g>
<!-- Node3&#45;&gt;Node8 -->
<g id="edge8" class="edge">
<title>Node3&#45;&gt;Node8</title>
<path fill="none" stroke="midnightblue" d="M268.89,-912.54C334.72,-923.8 451.88,-941 553,-941 553,-941 553,-941 725.5,-941 834.02,-941 867.38,-915.36 950,-845 987.34,-813.2 1013.6,-760.43 1025.8,-732.21"/>
<polygon fill="midnightblue" stroke="midnightblue" points="1029.15,-733.26 1029.78,-722.69 1022.69,-730.56 1029.15,-733.26"/>
</g>
<!-- Node9 -->
<g id="node9" class="node">
<title>Node9</title>
<g id="a_node9"><a xlink:href="utils_8h.html#a6ef734356291c638e5787a6c668192d4" target="_top" xlink:title=" ">
<polygon fill="white" stroke="black" points="535.5,-827.5 535.5,-846.5 572.5,-846.5 572.5,-827.5 535.5,-827.5"/>
<text text-anchor="middle" x="554" y="-834.5" font-family="Helvetica,sans-Serif" font-size="10.00">trim</text>
</a>
</g>
</g>
<!-- Node3&#45;&gt;Node9 -->
<g id="edge9" class="edge">
<title>Node3&#45;&gt;Node9</title>
<path fill="none" stroke="midnightblue" d="M272.28,-902.46C316.33,-901 379.31,-896.6 433,-884 466.12,-876.23 502.23,-861.11 526.09,-850.11"/>
<polygon fill="midnightblue" stroke="midnightblue" points="527.65,-853.24 535.22,-845.83 524.68,-846.91 527.65,-853.24"/>
</g>
<!-- Node3&#45;&gt;Node12 -->
<g id="edge12" class="edge">
<title>Node3&#45;&gt;Node12</title>
<path fill="none" stroke="midnightblue" d="M226.75,-893.37C242.65,-877.17 274.15,-842.77 292,-808 343.31,-708.05 368.49,-573.72 376.54,-523.78"/>
<polygon fill="midnightblue" stroke="midnightblue" points="380.03,-524.12 378.11,-513.7 373.11,-523.04 380.03,-524.12"/>
</g>
<!-- Node7 -->
<g id="node7" class="node">
<title>Node7</title>
<g id="a_node7"><a xlink:href="error__code_8h.html#ae1bfa02e1106eff84ddecb9f7773a1a4" target="_top" xlink:title="Return the error message of the error code from class Err.">
<polygon fill="white" stroke="black" points="524,-969.5 524,-988.5 584,-988.5 584,-969.5 524,-969.5"/>
<text text-anchor="middle" x="554" y="-976.5" font-family="Helvetica,sans-Serif" font-size="10.00">errorMsg</text>
</a>
</g>
</g>
<!-- Node6&#45;&gt;Node7 -->
<g id="edge7" class="edge">
<title>Node6&#45;&gt;Node7</title>
<path fill="none" stroke="midnightblue" d="M433.42,-979C459.18,-979 489.8,-979 513.6,-979"/>
<polygon fill="midnightblue" stroke="midnightblue" points="513.69,-982.5 523.69,-979 513.69,-975.5 513.69,-982.5"/>
</g>
<!-- Node10 -->
<g id="node10" class="node">
<title>Node10</title>
<g id="a_node10"><a xlink:href="utils_8h.html#a47084ee818936eef3c48be492c0e860f" target="_top" xlink:title=" ">
<polygon fill="white" stroke="black" points="704.5,-855.5 704.5,-874.5 744.5,-874.5 744.5,-855.5 704.5,-855.5"/>
<text text-anchor="middle" x="724.5" y="-862.5" font-family="Helvetica,sans-Serif" font-size="10.00">ltrim</text>
</a>
</g>
</g>
<!-- Node9&#45;&gt;Node10 -->
<g id="edge10" class="edge">
<title>Node9&#45;&gt;Node10</title>
<path fill="none" stroke="midnightblue" d="M572.71,-839.94C601.66,-844.75 659.37,-854.34 694.4,-860.16"/>
<polygon fill="midnightblue" stroke="midnightblue" points="694.05,-863.65 704.48,-861.84 695.19,-856.75 694.05,-863.65"/>
</g>
<!-- Node11 -->
<g id="node11" class="node">
<title>Node11</title>
<g id="a_node11"><a xlink:href="utils_8h.html#af6d6bd5c29782e3b958b5f7c0d1ea9e3" target="_top" xlink:title=" ">
<polygon fill="white" stroke="black" points="704,-817.5 704,-836.5 745,-836.5 745,-817.5 704,-817.5"/>
<text text-anchor="middle" x="724.5" y="-824.5" font-family="Helvetica,sans-Serif" font-size="10.00">rtrim</text>
</a>
</g>
</g>
<!-- Node9&#45;&gt;Node11 -->
<g id="edge11" class="edge">
<title>Node9&#45;&gt;Node11</title>
<path fill="none" stroke="midnightblue" d="M572.71,-835.95C601.51,-834.24 658.76,-830.84 693.84,-828.76"/>
<polygon fill="midnightblue" stroke="midnightblue" points="694.18,-832.25 703.96,-828.16 693.77,-825.26 694.18,-832.25"/>
</g>
<!-- Node12&#45;&gt;Node8 -->
<g id="edge28" class="edge">
<title>Node12&#45;&gt;Node8</title>
<path fill="none" stroke="midnightblue" d="M383.72,-513.65C390.7,-541.44 414.95,-621.84 469,-656 514.32,-684.64 897,-685.92 950,-694 964.78,-696.25 980.84,-699.67 994.89,-702.99"/>
<polygon fill="midnightblue" stroke="midnightblue" points="994.17,-706.41 1004.71,-705.37 995.82,-699.61 994.17,-706.41"/>
</g>
<!-- Node12&#45;&gt;Node9 -->
<g id="edge46" class="edge">
<title>Node12&#45;&gt;Node9</title>
<path fill="none" stroke="midnightblue" d="M382.65,-513.59C387.39,-550.07 408.21,-682.59 469,-770 484.19,-791.85 508.54,-810.15 527.12,-822.08"/>
<polygon fill="midnightblue" stroke="midnightblue" points="525.37,-825.11 535.71,-827.41 529.06,-819.16 525.37,-825.11"/>
</g>
<!-- Node12&#45;&gt;Node12 -->
<g id="edge49" class="edge">
<title>Node12&#45;&gt;Node12</title>
<path fill="none" stroke="midnightblue" d="M355.22,-513.76C342.93,-522.57 351.35,-532 380.5,-532 400.08,-532 410.31,-527.74 411.19,-522.27"/>
<polygon fill="midnightblue" stroke="midnightblue" points="414.09,-520.32 405.78,-513.76 408.19,-524.07 414.09,-520.32"/>
</g>
<!-- Node13 -->
<g id="node13" class="node">
<title>Node13</title>
<g id="a_node13"><a xlink:href="class_alg.html#a2cf2b7f4e37c8e401d9c6dad6687917d" target="_top" xlink:title=" ">
<polygon fill="white" stroke="black" points="504,-247.5 504,-266.5 604,-266.5 604,-247.5 504,-247.5"/>
<text text-anchor="middle" x="554" y="-254.5" font-family="Helvetica,sans-Serif" font-size="10.00">Alg::_wComment</text>
</a>
</g>
</g>
<!-- Node12&#45;&gt;Node13 -->
<g id="edge13" class="edge">
<title>Node12&#45;&gt;Node13</title>
<path fill="none" stroke="midnightblue" d="M382.09,-494.42C384.8,-459.29 399.11,-336.49 469,-276 476.22,-269.75 485.06,-265.44 494.26,-262.49"/>
<polygon fill="midnightblue" stroke="midnightblue" points="495.19,-265.86 503.93,-259.88 493.37,-259.1 495.19,-265.86"/>
</g>
<!-- Node14 -->
<g id="node14" class="node">
<title>Node14</title>
<g id="a_node14"><a xlink:href="class_calc.html#ad6dbdfdd4bd21322e5836ff72c11ae1b" target="_top" xlink:title="Convert the Alg CALC contents into a language command.">
<polygon fill="white" stroke="black" points="697,-475.5 697,-494.5 752,-494.5 752,-475.5 697,-475.5"/>
<text text-anchor="middle" x="724.5" y="-482.5" font-family="Helvetica,sans-Serif" font-size="10.00">Calc::as</text>
</a>
</g>
</g>
<!-- Node12&#45;&gt;Node14 -->
<g id="edge14" class="edge">
<title>Node12&#45;&gt;Node14</title>
<path fill="none" stroke="midnightblue" d="M412.14,-506.18C460.52,-509.13 557.47,-513.05 639,-504 654.91,-502.23 672.19,-498.65 686.96,-495.07"/>
<polygon fill="midnightblue" stroke="midnightblue" points="687.89,-498.44 696.74,-492.61 686.19,-491.66 687.89,-498.44"/>
</g>
<!-- Node26 -->
<g id="node23" class="node">
<title>Node26</title>
<g id="a_node23"><a xlink:href="class_type.html#abe15820e780d2f6646792d54f3ae3311" target="_top" xlink:title=" ">
<polygon fill="white" stroke="black" points="522,-209.5 522,-228.5 586,-228.5 586,-209.5 522,-209.5"/>
<text text-anchor="middle" x="554" y="-216.5" font-family="Helvetica,sans-Serif" font-size="10.00">Type::dim</text>
</a>
</g>
</g>
<!-- Node12&#45;&gt;Node26 -->
<g id="edge25" class="edge">
<title>Node12&#45;&gt;Node26</title>
<path fill="none" stroke="midnightblue" d="M381.5,-494.5C382.05,-456 389.49,-310.26 469,-238 480.51,-227.54 496.53,-222.44 511.5,-220.08"/>
<polygon fill="midnightblue" stroke="midnightblue" points="512.12,-223.53 521.62,-218.85 511.27,-216.58 512.12,-223.53"/>
</g>
<!-- Node27 -->
<g id="node24" class="node">
<title>Node27</title>
<g id="a_node24"><a xlink:href="class_alg___line.html#af651454e6ddfce164626b68b2c6cba97" target="_top" xlink:title="Get the function name.">
<polygon fill="white" stroke="black" points="511.5,-171.5 511.5,-190.5 596.5,-190.5 596.5,-171.5 511.5,-171.5"/>
<text text-anchor="middle" x="554" y="-178.5" font-family="Helvetica,sans-Serif" font-size="10.00">Alg_Line::func</text>
</a>
</g>
</g>
<!-- Node12&#45;&gt;Node27 -->
<g id="edge26" class="edge">
<title>Node12&#45;&gt;Node27</title>
<path fill="none" stroke="midnightblue" d="M381.05,-494.34C379.64,-452.35 379.93,-284.06 469,-200 477.83,-191.66 489.52,-186.7 501.36,-183.82"/>
<polygon fill="midnightblue" stroke="midnightblue" points="502.16,-187.23 511.29,-181.85 500.8,-180.36 502.16,-187.23"/>
</g>
<!-- Node28 -->
<g id="node25" class="node">
<title>Node28</title>
<g id="a_node25"><a xlink:href="class_alg___line.html#a49a98870a1f09e35a3e15a7d7bab1666" target="_top" xlink:title="Check whether parameters contain the key.">
<polygon fill="white" stroke="black" points="504.5,-133.5 504.5,-152.5 603.5,-152.5 603.5,-133.5 504.5,-133.5"/>
<text text-anchor="middle" x="554" y="-140.5" font-family="Helvetica,sans-Serif" font-size="10.00">Alg_Line::hasKey</text>
</a>
</g>
</g>
<!-- Node12&#45;&gt;Node28 -->
<g id="edge27" class="edge">
<title>Node12&#45;&gt;Node28</title>
<path fill="none" stroke="midnightblue" d="M382.61,-494.37C388.64,-443.93 418.91,-210.71 469,-162 476,-155.19 484.9,-150.62 494.27,-147.59"/>
<polygon fill="midnightblue" stroke="midnightblue" points="495.38,-150.91 504.14,-144.96 493.58,-144.15 495.38,-150.91"/>
</g>
<!-- Node29 -->
<g id="node26" class="node">
<title>Node29</title>
<g id="a_node26"><a xlink:href="class_alg.html#a3ee7f9963027158b3fbd442d97800111" target="_top" xlink:title=" ">
<polygon fill="white" stroke="black" points="511,-475.5 511,-494.5 597,-494.5 597,-475.5 511,-475.5"/>
<text text-anchor="middle" x="554" y="-482.5" font-family="Helvetica,sans-Serif" font-size="10.00">Alg::inlineCalc</text>
</a>
</g>
</g>
<!-- Node12&#45;&gt;Node29 -->
<g id="edge29" class="edge">
<title>Node12&#45;&gt;Node29</title>
<path fill="none" stroke="midnightblue" d="M412.16,-500.6C436.72,-497.88 471.74,-494 500.72,-490.79"/>
<polygon fill="midnightblue" stroke="midnightblue" points="501.13,-494.27 510.69,-489.69 500.36,-487.31 501.13,-494.27"/>
</g>
<!-- Node30 -->
<g id="node27" class="node">
<title>Node30</title>
<g id="a_node27"><a xlink:href="class_alg___line.html#ad419191a99be7e34024e569ad833b04e" target="_top" xlink:title="Check whether the line is for function declaration.">
<polygon fill="white" stroke="black" points="469,-627.5 469,-646.5 639,-646.5 639,-627.5 469,-627.5"/>
<text text-anchor="middle" x="554" y="-634.5" font-family="Helvetica,sans-Serif" font-size="10.00">Alg_Line::isFunctionDeclaration</text>
</a>
</g>
</g>
<!-- Node12&#45;&gt;Node30 -->
<g id="edge31" class="edge">
<title>Node12&#45;&gt;Node30</title>
<path fill="none" stroke="midnightblue" d="M386.03,-513.78C396.91,-536.11 426.76,-590.97 469,-618 472.21,-620.06 475.62,-621.89 479.14,-623.53"/>
<polygon fill="midnightblue" stroke="midnightblue" points="478.14,-626.9 488.72,-627.42 480.77,-620.41 478.14,-626.9"/>
</g>
<!-- Node31 -->
<g id="node28" class="node">
<title>Node31</title>
<g id="a_node28"><a xlink:href="class_alg.html#af935e64a6eb4afa4ca1540f4da3dcc9c" target="_top" xlink:title=" ">
<polygon fill="white" stroke="black" points="526,-589.5 526,-608.5 582,-608.5 582,-589.5 526,-589.5"/>
<text text-anchor="middle" x="554" y="-596.5" font-family="Helvetica,sans-Serif" font-size="10.00">Alg::line</text>
</a>
</g>
</g>
<!-- Node12&#45;&gt;Node31 -->
<g id="edge32" class="edge">
<title>Node12&#45;&gt;Node31</title>
<path fill="none" stroke="midnightblue" d="M389.6,-513.62C403.88,-529.93 435.25,-562.91 469,-580 483.41,-587.3 500.63,-591.82 515.71,-594.61"/>
<polygon fill="midnightblue" stroke="midnightblue" points="515.31,-598.09 525.75,-596.28 516.45,-591.19 515.31,-598.09"/>
</g>
<!-- Node32 -->
<g id="node29" class="node">
<title>Node32</title>
<g id="a_node29"><a xlink:href="class_alg___line.html#a4e79eb77a1cddbdab1dbdde8a499342d" target="_top" xlink:title="Parameter variables.">
<polygon fill="white" stroke="black" points="503.5,-551.5 503.5,-570.5 604.5,-570.5 604.5,-551.5 503.5,-551.5"/>
<text text-anchor="middle" x="554" y="-558.5" font-family="Helvetica,sans-Serif" font-size="10.00">Alg_Line::params</text>
</a>
</g>
</g>
<!-- Node12&#45;&gt;Node32 -->
<g id="edge33" class="edge">
<title>Node12&#45;&gt;Node32</title>
<path fill="none" stroke="midnightblue" d="M405.45,-513.64C422.93,-520.53 447.27,-529.81 469,-537 481.38,-541.1 494.93,-545.15 507.46,-548.73"/>
<polygon fill="midnightblue" stroke="midnightblue" points="506.67,-552.14 517.24,-551.48 508.57,-545.4 506.67,-552.14"/>
</g>
<!-- Node33 -->
<g id="node30" class="node">
<title>Node33</title>
<g id="a_node30"><a xlink:href="class_alg___line.html#a801b08c6c164376039a4ba4e980d039e" target="_top" xlink:title="Print Alg_Line contents (including return values, function names and parameters).">
<polygon fill="white" stroke="black" points="511,-741.5 511,-760.5 597,-760.5 597,-741.5 511,-741.5"/>
<text text-anchor="middle" x="554" y="-748.5" font-family="Helvetica,sans-Serif" font-size="10.00">Alg_Line::print</text>
</a>
</g>
</g>
<!-- Node12&#45;&gt;Node33 -->
<g id="edge34" class="edge">
<title>Node12&#45;&gt;Node33</title>
<path fill="none" stroke="midnightblue" d="M382.32,-513.72C385.78,-548.28 402.21,-666.31 469,-727 477.94,-735.13 489.46,-740.52 501.08,-744.09"/>
<polygon fill="midnightblue" stroke="midnightblue" points="500.24,-747.49 510.81,-746.69 502.05,-740.73 500.24,-747.49"/>
</g>
<!-- Node36 -->
<g id="node33" class="node">
<title>Node36</title>
<g id="a_node33"><a xlink:href="class_type___track.html#a4548ba1c289fba60e88b0e725509219e" target="_top" xlink:title=" ">
<polygon fill="white" stroke="black" points="830.5,-703.5 830.5,-722.5 929.5,-722.5 929.5,-703.5 830.5,-703.5"/>
<text text-anchor="middle" x="880" y="-710.5" font-family="Helvetica,sans-Serif" font-size="10.00">Type_Track::push</text>
</a>
</g>
</g>
<!-- Node12&#45;&gt;Node36 -->
<g id="edge37" class="edge">
<title>Node12&#45;&gt;Node36</title>
<path fill="none" stroke="midnightblue" d="M382.7,-513.87C387.18,-545.77 405.98,-646.46 469,-689 524.72,-726.61 720.83,-721.84 820.26,-716.71"/>
<polygon fill="midnightblue" stroke="midnightblue" points="820.64,-720.19 830.44,-716.17 820.27,-713.2 820.64,-720.19"/>
</g>
<!-- Node37 -->
<g id="node34" class="node">
<title>Node37</title>
<g id="a_node34"><a xlink:href="utils_8h.html#a0465457013518e168df05799c93cfa6e" target="_top" xlink:title=" ">
<polygon fill="white" stroke="black" points="512.5,-437.5 512.5,-456.5 595.5,-456.5 595.5,-437.5 512.5,-437.5"/>
<text text-anchor="middle" x="554" y="-444.5" font-family="Helvetica,sans-Serif" font-size="10.00">removeQuote</text>
</a>
</g>
</g>
<!-- Node12&#45;&gt;Node37 -->
<g id="edge39" class="edge">
<title>Node12&#45;&gt;Node37</title>
<path fill="none" stroke="midnightblue" d="M400.56,-494.49C418.02,-486.07 444.76,-473.93 469,-466 479.66,-462.51 491.29,-459.44 502.4,-456.83"/>
<polygon fill="midnightblue" stroke="midnightblue" points="503.43,-460.19 512.42,-454.57 501.89,-453.36 503.43,-460.19"/>
</g>
<!-- Node39 -->
<g id="node36" class="node">
<title>Node39</title>
<g id="a_node36"><a xlink:href="class_alg___line.html#a8e21f6b69eaf80a2327f7308fb4299e0" target="_top" xlink:title="Return variables.">
<polygon fill="white" stroke="black" points="505,-399.5 505,-418.5 603,-418.5 603,-399.5 505,-399.5"/>
<text text-anchor="middle" x="554" y="-406.5" font-family="Helvetica,sans-Serif" font-size="10.00">Alg_Line::returns</text>
</a>
</g>
</g>
<!-- Node12&#45;&gt;Node39 -->
<g id="edge41" class="edge">
<title>Node12&#45;&gt;Node39</title>
<path fill="none" stroke="midnightblue" d="M389.6,-494.38C403.88,-478.07 435.25,-445.09 469,-428 477.13,-423.88 486.15,-420.65 495.18,-418.11"/>
<polygon fill="midnightblue" stroke="midnightblue" points="496.11,-421.49 504.93,-415.62 494.38,-414.7 496.11,-421.49"/>
</g>
<!-- Node40 -->
<g id="node37" class="node">
<title>Node40</title>
<g id="a_node37"><a xlink:href="class_type.html#a0153b8ff39040caf3ff2a6f7c7329d7c" target="_top" xlink:title="Get the C++ type name.">
<polygon fill="white" stroke="black" points="517.5,-361.5 517.5,-380.5 590.5,-380.5 590.5,-361.5 517.5,-361.5"/>
<text text-anchor="middle" x="554" y="-368.5" font-family="Helvetica,sans-Serif" font-size="10.00">Type::string</text>
</a>
</g>
</g>
<!-- Node12&#45;&gt;Node40 -->
<g id="edge42" class="edge">
<title>Node12&#45;&gt;Node40</title>
<path fill="none" stroke="midnightblue" d="M386.03,-494.22C396.91,-471.89 426.76,-417.03 469,-390 480.44,-382.68 494.34,-378.16 507.51,-375.38"/>
<polygon fill="midnightblue" stroke="midnightblue" points="508.18,-378.81 517.39,-373.57 506.92,-371.93 508.18,-378.81"/>
</g>
<!-- Node43 -->
<g id="node40" class="node">
<title>Node43</title>
<g id="a_node40"><a xlink:href="namespacemmce.html#ad4a160832ef9fad47c531ece39752208" target="_top" xlink:title="Change a number to string.">
<polygon fill="white" stroke="black" points="506,-95.5 506,-114.5 602,-114.5 602,-95.5 506,-95.5"/>
<text text-anchor="middle" x="554" y="-102.5" font-family="Helvetica,sans-Serif" font-size="10.00">mmce::to_string</text>
</a>
</g>
</g>
<!-- Node12&#45;&gt;Node43 -->
<g id="edge45" class="edge">
<title>Node12&#45;&gt;Node43</title>
<path fill="none" stroke="midnightblue" d="M382.35,-494.39C387.28,-440.75 413.96,-178.82 469,-124 476.39,-116.64 485.98,-111.88 496.03,-108.85"/>
<polygon fill="midnightblue" stroke="midnightblue" points="496.88,-112.25 505.75,-106.45 495.2,-105.45 496.88,-112.25"/>
</g>
<!-- Node44 -->
<g id="node41" class="node">
<title>Node44</title>
<g id="a_node41"><a xlink:href="class_log.html#ab61203710351f6d33d7ba634d2c4eb32" target="_top" xlink:title="Write warning message to the log file.">
<polygon fill="white" stroke="black" points="525,-323.5 525,-342.5 583,-342.5 583,-323.5 525,-323.5"/>
<text text-anchor="middle" x="554" y="-330.5" font-family="Helvetica,sans-Serif" font-size="10.00">Log::war</text>
</a>
</g>
</g>
<!-- Node12&#45;&gt;Node44 -->
<g id="edge47" class="edge">
<title>Node12&#45;&gt;Node44</title>
<path fill="none" stroke="midnightblue" d="M384.09,-494.33C391.87,-467.18 417.78,-389.77 469,-352 482.1,-342.34 499.25,-337.46 514.64,-335.04"/>
<polygon fill="midnightblue" stroke="midnightblue" points="515.46,-338.46 524.94,-333.73 514.58,-331.52 515.46,-338.46"/>
</g>
<!-- Node45 -->
<g id="node42" class="node">
<title>Node45</title>
<g id="a_node42"><a xlink:href="class_log.html#a3410828f35c9bf8dd0771ead28de27b0" target="_top" xlink:title="Write contents to the log file.">
<polygon fill="white" stroke="black" points="521.5,-285.5 521.5,-304.5 586.5,-304.5 586.5,-285.5 521.5,-285.5"/>
<text text-anchor="middle" x="554" y="-292.5" font-family="Helvetica,sans-Serif" font-size="10.00">Log::write</text>
</a>
</g>
</g>
<!-- Node12&#45;&gt;Node45 -->
<g id="edge48" class="edge">
<title>Node12&#45;&gt;Node45</title>
<path fill="none" stroke="midnightblue" d="M382.92,-494.29C388.04,-462.82 408.61,-362.92 469,-314 480.89,-304.37 496.71,-299.4 511.41,-296.91"/>
<polygon fill="midnightblue" stroke="midnightblue" points="511.91,-300.37 521.34,-295.55 510.96,-293.43 511.91,-300.37"/>
</g>
<!-- Node15 -->
<g id="node15" class="node">
<title>Node15</title>
<g id="a_node15"><a xlink:href="class_calc.html#af1d1bd5e83f9e5196627f5a4e1a5ee83" target="_top" xlink:title=" ">
<polygon fill="white" stroke="black" points="817.5,-19.5 817.5,-38.5 942.5,-38.5 942.5,-19.5 817.5,-19.5"/>
<text text-anchor="middle" x="880" y="-26.5" font-family="Helvetica,sans-Serif" font-size="10.00">Calc::_changeFunction</text>
</a>
</g>
</g>
<!-- Node14&#45;&gt;Node15 -->
<g id="edge15" class="edge">
<title>Node14&#45;&gt;Node15</title>
<path fill="none" stroke="midnightblue" d="M752.22,-479.59C760.22,-476.76 768.36,-472.48 774,-466 830.3,-401.36 867.31,-125.76 876.66,-48.95"/>
<polygon fill="midnightblue" stroke="midnightblue" points="880.17,-49.09 877.89,-38.74 873.22,-48.26 880.17,-49.09"/>
</g>
<!-- Node18 -->
<g id="node18" class="node">
<title>Node18</title>
<g id="a_node18"><a xlink:href="class_calc.html#ae3d88bd40f9bdf2c8ec92c426bdca446" target="_top" xlink:title=" ">
<polygon fill="white" stroke="black" points="816.5,-494.5 816.5,-513.5 943.5,-513.5 943.5,-494.5 816.5,-494.5"/>
<text text-anchor="middle" x="880" y="-501.5" font-family="Helvetica,sans-Serif" font-size="10.00">Calc::_changeOperator</text>
</a>
</g>
</g>
<!-- Node14&#45;&gt;Node18 -->
<g id="edge18" class="edge">
<title>Node14&#45;&gt;Node18</title>
<path fill="none" stroke="midnightblue" d="M752.24,-488.31C767.31,-490.17 786.93,-492.6 806.22,-494.99"/>
<polygon fill="midnightblue" stroke="midnightblue" points="805.89,-498.48 816.25,-496.23 806.75,-491.53 805.89,-498.48"/>
</g>
<!-- Node19 -->
<g id="node19" class="node">
<title>Node19</title>
<g id="a_node19"><a xlink:href="class_calc.html#ad95be528148e0d63848d5fa916b93200" target="_top" xlink:title=" ">
<polygon fill="white" stroke="black" points="824.5,-456.5 824.5,-475.5 935.5,-475.5 935.5,-456.5 824.5,-456.5"/>
<text text-anchor="middle" x="880" y="-463.5" font-family="Helvetica,sans-Serif" font-size="10.00">Calc::_changeParen</text>
</a>
</g>
</g>
<!-- Node14&#45;&gt;Node19 -->
<g id="edge19" class="edge">
<title>Node14&#45;&gt;Node19</title>
<path fill="none" stroke="midnightblue" d="M752.24,-481.69C769.37,-479.57 792.38,-476.72 814.1,-474.03"/>
<polygon fill="midnightblue" stroke="midnightblue" points="814.8,-477.47 824.29,-472.77 813.94,-470.53 814.8,-477.47"/>
</g>
<!-- Node20 -->
<g id="node20" class="node">
<title>Node20</title>
<g id="a_node20"><a xlink:href="class_calc.html#ad562619fef96a73cd3b4c27b35bc5f91" target="_top" xlink:title=" ">
<polygon fill="white" stroke="red" points="815,-532.5 815,-551.5 945,-551.5 945,-532.5 815,-532.5"/>
<text text-anchor="middle" x="880" y="-539.5" font-family="Helvetica,sans-Serif" font-size="10.00">Calc::_changeSubScript</text>
</a>
</g>
</g>
<!-- Node14&#45;&gt;Node20 -->
<g id="edge20" class="edge">
<title>Node14&#45;&gt;Node20</title>
<path fill="none" stroke="midnightblue" d="M744.62,-494.62C761.52,-502.87 787,-514.72 810,-523 816.52,-525.35 823.47,-527.57 830.36,-529.62"/>
<polygon fill="midnightblue" stroke="midnightblue" points="829.77,-533.09 840.35,-532.48 831.7,-526.36 829.77,-533.09"/>
</g>
<!-- Node25 -->
<g id="node22" class="node">
<title>Node25</title>
<g id="a_node22"><a xlink:href="class_calc.html#a1aec4748092712e0995c0ae5dabbf54f" target="_top" xlink:title=" ">
<polygon fill="white" stroke="black" points="810,-418.5 810,-437.5 950,-437.5 950,-418.5 810,-418.5"/>
<text text-anchor="middle" x="880" y="-425.5" font-family="Helvetica,sans-Serif" font-size="10.00">Calc::_changeSuperScript</text>
</a>
</g>
</g>
<!-- Node14&#45;&gt;Node25 -->
<g id="edge24" class="edge">
<title>Node14&#45;&gt;Node25</title>
<path fill="none" stroke="midnightblue" d="M751.4,-475.47C758.77,-472.59 766.76,-469.31 774,-466 790.45,-458.47 793.18,-453.66 810,-447 815.99,-444.63 822.38,-442.44 828.77,-440.45"/>
<polygon fill="midnightblue" stroke="midnightblue" points="830.15,-443.69 838.74,-437.5 828.16,-436.98 830.15,-443.69"/>
</g>
<!-- Node16 -->
<g id="node16" class="node">
<title>Node16</title>
<g id="a_node16"><a xlink:href="class_calc.html#a7d793eba0a7c9fcbafec4310359f165d" target="_top" xlink:title=" ">
<polygon fill="white" stroke="black" points="988,-0.5 988,-19.5 1081,-19.5 1081,-0.5 988,-0.5"/>
<text text-anchor="middle" x="1034.5" y="-7.5" font-family="Helvetica,sans-Serif" font-size="10.00">Calc::_addArma</text>
</a>
</g>
</g>
<!-- Node15&#45;&gt;Node16 -->
<g id="edge16" class="edge">
<title>Node15&#45;&gt;Node16</title>
<path fill="none" stroke="midnightblue" d="M942.59,-21.33C954.11,-19.89 966.09,-18.4 977.43,-16.99"/>
<polygon fill="midnightblue" stroke="midnightblue" points="978.14,-20.42 987.63,-15.71 977.28,-13.48 978.14,-20.42"/>
</g>
<!-- Node17 -->
<g id="node17" class="node">
<title>Node17</title>
<g id="a_node17"><a xlink:href="class_calc.html#af58cd6a2174e577a6246366de03b949e" target="_top" xlink:title=" ">
<polygon fill="white" stroke="black" points="986,-38.5 986,-57.5 1083,-57.5 1083,-38.5 986,-38.5"/>
<text text-anchor="middle" x="1034.5" y="-45.5" font-family="Helvetica,sans-Serif" font-size="10.00">Calc::_addMmce</text>
</a>
</g>
</g>
<!-- Node15&#45;&gt;Node17 -->
<g id="edge17" class="edge">
<title>Node15&#45;&gt;Node17</title>
<path fill="none" stroke="midnightblue" d="M942.59,-36.67C953.49,-38.03 964.8,-39.44 975.6,-40.79"/>
<polygon fill="midnightblue" stroke="midnightblue" points="975.4,-44.29 985.76,-42.05 976.27,-37.34 975.4,-44.29"/>
</g>
<!-- Node20&#45;&gt;Node8 -->
<g id="edge23" class="edge">
<title>Node20&#45;&gt;Node8</title>
<path fill="none" stroke="midnightblue" d="M889.64,-551.68C914.49,-579.55 986.41,-660.2 1018.15,-695.78"/>
<polygon fill="midnightblue" stroke="midnightblue" points="1015.69,-698.29 1024.96,-703.42 1020.92,-693.63 1015.69,-698.29"/>
</g>
<!-- Node20&#45;&gt;Node20 -->
<g id="edge21" class="edge">
<title>Node20&#45;&gt;Node20</title>
<path fill="none" stroke="midnightblue" d="M856.26,-551.76C844.72,-560.57 852.63,-570 880,-570 897.96,-570 907.54,-565.94 908.75,-560.65"/>
<polygon fill="midnightblue" stroke="midnightblue" points="911.69,-558.75 903.74,-551.76 905.59,-562.19 911.69,-558.75"/>
</g>
<!-- Node22 -->
<g id="node21" class="node">
<title>Node22</title>
<g id="a_node21"><a xlink:href="class_log.html#ac7147942832455398ad289b706a02616" target="_top" xlink:title="Write error message to the log file.">
<polygon fill="white" stroke="black" points="1008,-304.5 1008,-323.5 1061,-323.5 1061,-304.5 1008,-304.5"/>
<text text-anchor="middle" x="1034.5" y="-311.5" font-family="Helvetica,sans-Serif" font-size="10.00">Log::err</text>
</a>
</g>
</g>
<!-- Node20&#45;&gt;Node22 -->
<g id="edge22" class="edge">
<title>Node20&#45;&gt;Node22</title>
<path fill="none" stroke="midnightblue" d="M935.17,-532.47C940.57,-530 945.65,-526.89 950,-523 1007.5,-471.57 1025.98,-375.15 1031.42,-333.73"/>
<polygon fill="midnightblue" stroke="midnightblue" points="1034.92,-333.94 1032.63,-323.59 1027.97,-333.11 1034.92,-333.94"/>
</g>
<!-- Node29&#45;&gt;Node14 -->
<g id="edge30" class="edge">
<title>Node29&#45;&gt;Node14</title>
<path fill="none" stroke="midnightblue" d="M597.09,-485C624.5,-485 659.94,-485 686.32,-485"/>
<polygon fill="midnightblue" stroke="midnightblue" points="686.66,-488.5 696.66,-485 686.66,-481.5 686.66,-488.5"/>
</g>
<!-- Node34 -->
<g id="node31" class="node">
<title>Node34</title>
<g id="a_node31"><a xlink:href="functions_8h.html#ac9dc58cb94b7547813c3a35154d97d18" target="_top" xlink:title=" ">
<polygon fill="white" stroke="black" points="685,-741.5 685,-760.5 764,-760.5 764,-741.5 685,-741.5"/>
<text text-anchor="middle" x="724.5" y="-748.5" font-family="Helvetica,sans-Serif" font-size="10.00">isFuncNoEnd</text>
</a>
</g>
</g>
<!-- Node33&#45;&gt;Node34 -->
<g id="edge35" class="edge">
<title>Node33&#45;&gt;Node34</title>
<path fill="none" stroke="midnightblue" d="M597.09,-751C620.63,-751 650.08,-751 674.64,-751"/>
<polygon fill="midnightblue" stroke="midnightblue" points="674.83,-754.5 684.83,-751 674.83,-747.5 674.83,-754.5"/>
</g>
<!-- Node35 -->
<g id="node32" class="node">
<title>Node35</title>
<g id="a_node32"><a xlink:href="utils_8h.html#af11c7cca5b9ad860da4bdb556dce3234" target="_top" xlink:title=" ">
<polygon fill="white" stroke="black" points="851,-760.5 851,-779.5 909,-779.5 909,-760.5 851,-760.5"/>
<text text-anchor="middle" x="880" y="-767.5" font-family="Helvetica,sans-Serif" font-size="10.00">contains</text>
</a>
</g>
</g>
<!-- Node34&#45;&gt;Node35 -->
<g id="edge36" class="edge">
<title>Node34&#45;&gt;Node35</title>
<path fill="none" stroke="midnightblue" d="M764.23,-755.79C787.65,-758.69 817.38,-762.37 840.71,-765.26"/>
<polygon fill="midnightblue" stroke="midnightblue" points="840.58,-768.77 850.94,-766.53 841.44,-761.82 840.58,-768.77"/>
</g>
<!-- Node36&#45;&gt;Node8 -->
<g id="edge38" class="edge">
<title>Node36&#45;&gt;Node8</title>
<path fill="none" stroke="midnightblue" d="M929.67,-713C950.66,-713 974.86,-713 994.62,-713"/>
<polygon fill="midnightblue" stroke="midnightblue" points="994.8,-716.5 1004.8,-713 994.8,-709.5 994.8,-716.5"/>
</g>
<!-- Node38 -->
<g id="node35" class="node">
<title>Node38</title>
<g id="a_node35"><a xlink:href="utils_8h.html#aaaee605fe46abaa420448438d89b22ed" target="_top" xlink:title=" ">
<polygon fill="white" stroke="black" points="694.5,-437.5 694.5,-456.5 754.5,-456.5 754.5,-437.5 694.5,-437.5"/>
<text text-anchor="middle" x="724.5" y="-444.5" font-family="Helvetica,sans-Serif" font-size="10.00">isQuoted</text>
</a>
</g>
</g>
<!-- Node37&#45;&gt;Node38 -->
<g id="edge40" class="edge">
<title>Node37&#45;&gt;Node38</title>
<path fill="none" stroke="midnightblue" d="M595.79,-447C622.7,-447 657.76,-447 684.34,-447"/>
<polygon fill="midnightblue" stroke="midnightblue" points="684.43,-450.5 694.43,-447 684.43,-443.5 684.43,-450.5"/>
</g>
<!-- Node41 -->
<g id="node38" class="node">
<title>Node41</title>
<g id="a_node38"><a xlink:href="class_type.html#a5b8adffb334040c53940ecf814ebcc65" target="_top" xlink:title=" ">
<polygon fill="white" stroke="black" points="677,-342.5 677,-361.5 772,-361.5 772,-342.5 677,-342.5"/>
<text text-anchor="middle" x="724.5" y="-349.5" font-family="Helvetica,sans-Serif" font-size="10.00">Type::_getString</text>
</a>
</g>
</g>
<!-- Node40&#45;&gt;Node41 -->
<g id="edge43" class="edge">
<title>Node40&#45;&gt;Node41</title>
<path fill="none" stroke="midnightblue" d="M590.73,-366.97C612.81,-364.48 641.63,-361.23 666.77,-358.4"/>
<polygon fill="midnightblue" stroke="midnightblue" points="667.38,-361.85 676.93,-357.25 666.6,-354.89 667.38,-361.85"/>
</g>
<!-- Node42 -->
<g id="node39" class="node">
<title>Node42</title>
<g id="a_node39"><a xlink:href="class_type.html#a836b463aa4740a234e0d304ed4cd958f" target="_top" xlink:title=" ">
<polygon fill="white" stroke="black" points="675,-380.5 675,-399.5 774,-399.5 774,-380.5 675,-380.5"/>
<text text-anchor="middle" x="724.5" y="-387.5" font-family="Helvetica,sans-Serif" font-size="10.00">Type::isUnknown</text>
</a>
</g>
</g>
<!-- Node40&#45;&gt;Node42 -->
<g id="edge44" class="edge">
<title>Node40&#45;&gt;Node42</title>
<path fill="none" stroke="midnightblue" d="M590.73,-375.03C612.22,-377.45 640.08,-380.59 664.73,-383.37"/>
<polygon fill="midnightblue" stroke="midnightblue" points="664.38,-386.86 674.71,-384.5 665.17,-379.9 664.38,-386.86"/>
</g>
<!-- Node46&#45;&gt;Node2 -->
<g id="edge52" class="edge">
<title>Node46&#45;&gt;Node2</title>
<path fill="none" stroke="midnightblue" d="M233.99,-798.54C255.51,-810.43 293.89,-831.01 328,-846 332.51,-847.98 337.29,-849.93 342.06,-851.79"/>
<polygon fill="midnightblue" stroke="midnightblue" points="341.13,-855.19 351.73,-855.45 343.61,-848.64 341.13,-855.19"/>
</g>
<!-- Node46&#45;&gt;Node4 -->
<g id="edge53" class="edge">
<title>Node46&#45;&gt;Node4</title>
<path fill="none" stroke="midnightblue" d="M226.65,-798.68C242.4,-814.96 273.71,-849.46 292,-884 316.87,-930.95 291.33,-959.55 328,-998 331.23,-1001.39 335.12,-1004.18 339.29,-1006.47"/>
<polygon fill="midnightblue" stroke="midnightblue" points="338.19,-1009.81 348.75,-1010.74 341.07,-1003.43 338.19,-1009.81"/>
</g>
<!-- Node46&#45;&gt;Node5 -->
<g id="edge55" class="edge">
<title>Node46&#45;&gt;Node5</title>
<path fill="none" stroke="midnightblue" d="M258.01,-798.59C279.55,-803.63 306.13,-809.84 328.94,-815.18"/>
<polygon fill="midnightblue" stroke="midnightblue" points="328.25,-818.61 338.79,-817.48 329.85,-811.79 328.25,-818.61"/>
</g>
<!-- Node46&#45;&gt;Node8 -->
<g id="edge59" class="edge">
<title>Node46&#45;&gt;Node8</title>
<path fill="none" stroke="midnightblue" d="M274.36,-781.8C320.16,-778.82 384.47,-781.01 433,-808 456.31,-820.96 446.01,-842.49 469,-856 586.37,-924.96 642.02,-917.35 774,-884 860.18,-862.23 877.48,-840.41 950,-789 975.29,-771.07 1001.19,-746.3 1017.31,-729.97"/>
<polygon fill="midnightblue" stroke="midnightblue" points="1019.91,-732.31 1024.38,-722.7 1014.9,-727.43 1019.91,-732.31"/>
</g>
<!-- Node46&#45;&gt;Node12 -->
<g id="edge60" class="edge">
<title>Node46&#45;&gt;Node12</title>
<path fill="none" stroke="midnightblue" d="M269,-779.43C277.48,-776 285.58,-771.34 292,-765 327.57,-729.91 363.41,-578.02 375.35,-523.54"/>
<polygon fill="midnightblue" stroke="midnightblue" points="378.77,-524.25 377.47,-513.74 371.93,-522.77 378.77,-524.25"/>
</g>
<!-- Node46&#45;&gt;Node22 -->
<g id="edge58" class="edge">
<title>Node46&#45;&gt;Node22</title>
<path fill="none" stroke="midnightblue" d="M233.82,-779.44C251.43,-768.47 278.38,-748.76 292,-724 343.79,-629.89 301.99,-589.22 328,-485 333.69,-462.19 449.81,-99.57 469,-86 661.36,50.04 946.73,-223.7 1017.28,-296.74"/>
<polygon fill="midnightblue" stroke="midnightblue" points="1015.03,-299.44 1024.47,-304.25 1020.09,-294.61 1015.03,-299.44"/>
</g>
<!-- Node46&#45;&gt;Node35 -->
<g id="edge57" class="edge">
<title>Node46&#45;&gt;Node35</title>
<path fill="none" stroke="midnightblue" d="M251.34,-779.44C264.51,-775.06 279.39,-769.22 292,-762 310.07,-751.65 308.42,-739.09 328,-732 371.88,-716.11 390.13,-713.56 433,-732 454.37,-741.19 447.63,-760.81 469,-770 595.93,-824.6 766.11,-796.39 840.96,-779.57"/>
<polygon fill="midnightblue" stroke="midnightblue" points="841.92,-782.94 850.88,-777.28 840.35,-776.12 841.92,-782.94"/>
</g>
<!-- Node46&#45;&gt;Node47 -->
<g id="edge54" class="edge">
<title>Node46&#45;&gt;Node47</title>
<path fill="none" stroke="midnightblue" d="M235.88,-779.35C253.81,-769.05 279.78,-750.92 292,-727 348.71,-615.94 257.65,-269.96 328,-167 330.41,-163.47 333.48,-160.45 336.92,-157.87"/>
<polygon fill="midnightblue" stroke="midnightblue" points="338.79,-160.82 345.46,-152.59 335.11,-154.87 338.79,-160.82"/>
</g>
<!-- Node48 -->
<g id="node45" class="node">
<title>Node48</title>
<g id="a_node45"><a xlink:href="utils_8h.html#a49dc116689f1a4202be4d3f0743b1f70" target="_top" xlink:title=" ">
<polygon fill="white" stroke="black" points="356,-741.5 356,-760.5 405,-760.5 405,-741.5 356,-741.5"/>
<text text-anchor="middle" x="380.5" y="-748.5" font-family="Helvetica,sans-Serif" font-size="10.00">appDir</text>
</a>
</g>
</g>
<!-- Node46&#45;&gt;Node48 -->
<g id="edge56" class="edge">
<title>Node46&#45;&gt;Node48</title>
<path fill="none" stroke="midnightblue" d="M258.01,-779.41C285.11,-773.07 320.21,-764.86 345.71,-758.9"/>
<polygon fill="midnightblue" stroke="midnightblue" points="346.71,-762.26 355.65,-756.58 345.12,-755.45 346.71,-762.26"/>
</g>
<!-- Node49&#45;&gt;Node4 -->
<g id="edge62" class="edge">
<title>Node49&#45;&gt;Node4</title>
<path fill="none" stroke="midnightblue" d="M292.07,-1017C308.1,-1017 324.46,-1017 338.63,-1017"/>
<polygon fill="midnightblue" stroke="midnightblue" points="338.99,-1020.5 348.99,-1017 338.99,-1013.5 338.99,-1020.5"/>
</g>
<!-- Node50&#45;&gt;Node6 -->
<g id="edge65" class="edge">
<title>Node50&#45;&gt;Node6</title>
<path fill="none" stroke="midnightblue" d="M258.01,-950.59C279.55,-955.63 306.13,-961.84 328.94,-967.18"/>
<polygon fill="midnightblue" stroke="midnightblue" points="328.25,-970.61 338.79,-969.48 329.85,-963.79 328.25,-970.61"/>
</g>
<!-- Node51&#45;&gt;Node43 -->
<g id="edge69" class="edge">
<title>Node51&#45;&gt;Node43</title>
<path fill="none" stroke="midnightblue" d="M264.85,-672.11C275.21,-669.2 285.12,-664.25 292,-656 367.89,-565 244.91,-208.48 328,-124 374,-77.23 456,-83.49 507.29,-93.43"/>
<polygon fill="midnightblue" stroke="midnightblue" points="506.61,-96.86 517.11,-95.45 508.02,-90.01 506.61,-96.86"/>
</g>
</g>
</svg>
