<?xml version="1.0" encoding="UTF-8" standalone="no"?>
<!DOCTYPE svg PUBLIC "-//W3C//DTD SVG 1.1//EN"
 "http://www.w3.org/Graphics/SVG/1.1/DTD/svg11.dtd">
<!-- Generated by graphviz version 2.43.0 (0)
 -->
<!-- Title: Alg::inlineCalc Pages: 1 -->
<svg width="494pt" height="265pt"
 viewBox="0.00 0.00 494.00 265.00" xmlns="http://www.w3.org/2000/svg" xmlns:xlink="http://www.w3.org/1999/xlink">
<g id="graph0" class="graph" transform="scale(1 1) rotate(0) translate(4 261)">
<title>Alg::inlineCalc</title>
<polygon fill="white" stroke="transparent" points="-4,4 -4,-261 490,-261 490,4 -4,4"/>
<!-- Node1 -->
<g id="node1" class="node">
<title>Node1</title>
<g id="a_node1"><a xlink:title=" ">
<polygon fill="#bfbfbf" stroke="black" points="0,-132.5 0,-151.5 86,-151.5 86,-132.5 0,-132.5"/>
<text text-anchor="middle" x="43" y="-139.5" font-family="Helvetica,sans-Serif" font-size="10.00">Alg::inlineCalc</text>
</a>
</g>
</g>
<!-- Node2 -->
<g id="node2" class="node">
<title>Node2</title>
<g id="a_node2"><a xlink:href="class_calc.html#ad6dbdfdd4bd21322e5836ff72c11ae1b" target="_top" xlink:title="Convert the Alg CALC contents into a language command.">
<polygon fill="white" stroke="black" points="122,-132.5 122,-151.5 177,-151.5 177,-132.5 122,-132.5"/>
<text text-anchor="middle" x="149.5" y="-139.5" font-family="Helvetica,sans-Serif" font-size="10.00">Calc::as</text>
</a>
</g>
</g>
<!-- Node1&#45;&gt;Node2 -->
<g id="edge1" class="edge">
<title>Node1&#45;&gt;Node2</title>
<path fill="none" stroke="midnightblue" d="M86.2,-142C94.65,-142 103.45,-142 111.7,-142"/>
<polygon fill="midnightblue" stroke="midnightblue" points="111.77,-145.5 121.77,-142 111.77,-138.5 111.77,-145.5"/>
</g>
<!-- Node3 -->
<g id="node3" class="node">
<title>Node3</title>
<g id="a_node3"><a xlink:href="class_calc.html#af1d1bd5e83f9e5196627f5a4e1a5ee83" target="_top" xlink:title=" ">
<polygon fill="white" stroke="black" points="220.5,-208.5 220.5,-227.5 345.5,-227.5 345.5,-208.5 220.5,-208.5"/>
<text text-anchor="middle" x="283" y="-215.5" font-family="Helvetica,sans-Serif" font-size="10.00">Calc::_changeFunction</text>
</a>
</g>
</g>
<!-- Node2&#45;&gt;Node3 -->
<g id="edge2" class="edge">
<title>Node2&#45;&gt;Node3</title>
<path fill="none" stroke="midnightblue" d="M158.37,-151.56C169.31,-164.26 190.37,-186.52 213,-199 217.13,-201.28 221.56,-203.3 226.1,-205.09"/>
<polygon fill="midnightblue" stroke="midnightblue" points="224.94,-208.39 235.53,-208.45 227.29,-201.8 224.94,-208.39"/>
</g>
<!-- Node6 -->
<g id="node6" class="node">
<title>Node6</title>
<g id="a_node6"><a xlink:href="class_calc.html#ae3d88bd40f9bdf2c8ec92c426bdca446" target="_top" xlink:title=" ">
<polygon fill="white" stroke="black" points="219.5,-170.5 219.5,-189.5 346.5,-189.5 346.5,-170.5 219.5,-170.5"/>
<text text-anchor="middle" x="283" y="-177.5" font-family="Helvetica,sans-Serif" font-size="10.00">Calc::_changeOperator</text>
</a>
</g>
</g>
<!-- Node2&#45;&gt;Node6 -->
<g id="edge5" class="edge">
<title>Node2&#45;&gt;Node6</title>
<path fill="none" stroke="midnightblue" d="M177.22,-150.29C188.27,-153.68 201.24,-157.59 213,-161 220.64,-163.21 228.77,-165.5 236.66,-167.7"/>
<polygon fill="midnightblue" stroke="midnightblue" points="235.92,-171.13 246.49,-170.42 237.79,-164.38 235.92,-171.13"/>
</g>
<!-- Node7 -->
<g id="node7" class="node">
<title>Node7</title>
<g id="a_node7"><a xlink:href="class_calc.html#ad95be528148e0d63848d5fa916b93200" target="_top" xlink:title=" ">
<polygon fill="white" stroke="black" points="227.5,-132.5 227.5,-151.5 338.5,-151.5 338.5,-132.5 227.5,-132.5"/>
<text text-anchor="middle" x="283" y="-139.5" font-family="Helvetica,sans-Serif" font-size="10.00">Calc::_changeParen</text>
</a>
</g>
</g>
<!-- Node2&#45;&gt;Node7 -->
<g id="edge6" class="edge">
<title>Node2&#45;&gt;Node7</title>
<path fill="none" stroke="midnightblue" d="M177.11,-142C188.77,-142 203,-142 217.18,-142"/>
<polygon fill="midnightblue" stroke="midnightblue" points="217.45,-145.5 227.45,-142 217.45,-138.5 217.45,-145.5"/>
</g>
<!-- Node8 -->
<g id="node8" class="node">
<title>Node8</title>
<g id="a_node8"><a xlink:href="class_calc.html#ad562619fef96a73cd3b4c27b35bc5f91" target="_top" xlink:title=" ">
<polygon fill="white" stroke="black" points="218,-76.5 218,-95.5 348,-95.5 348,-76.5 218,-76.5"/>
<text text-anchor="middle" x="283" y="-83.5" font-family="Helvetica,sans-Serif" font-size="10.00">Calc::_changeSubScript</text>
</a>
</g>
</g>
<!-- Node2&#45;&gt;Node8 -->
<g id="edge7" class="edge">
<title>Node2&#45;&gt;Node8</title>
<path fill="none" stroke="midnightblue" d="M173.11,-132.37C194.4,-123.3 226.52,-109.63 250.36,-99.48"/>
<polygon fill="midnightblue" stroke="midnightblue" points="251.86,-102.64 259.69,-95.5 249.12,-96.2 251.86,-102.64"/>
</g>
<!-- Node14 -->
<g id="node14" class="node">
<title>Node14</title>
<g id="a_node14"><a xlink:href="class_calc.html#a1aec4748092712e0995c0ae5dabbf54f" target="_top" xlink:title=" ">
<polygon fill="white" stroke="black" points="213,-38.5 213,-57.5 353,-57.5 353,-38.5 213,-38.5"/>
<text text-anchor="middle" x="283" y="-45.5" font-family="Helvetica,sans-Serif" font-size="10.00">Calc::_changeSuperScript</text>
</a>
</g>
</g>
<!-- Node2&#45;&gt;Node14 -->
<g id="edge14" class="edge">
<title>Node2&#45;&gt;Node14</title>
<path fill="none" stroke="midnightblue" d="M155.87,-132.33C165.29,-116.27 186.36,-84.17 213,-67 216.31,-64.87 219.86,-62.97 223.54,-61.28"/>
<polygon fill="midnightblue" stroke="midnightblue" points="224.93,-64.5 232.89,-57.51 222.31,-58.01 224.93,-64.5"/>
</g>
<!-- Node4 -->
<g id="node4" class="node">
<title>Node4</title>
<g id="a_node4"><a xlink:href="class_calc.html#a7d793eba0a7c9fcbafec4310359f165d" target="_top" xlink:title=" ">
<polygon fill="white" stroke="black" points="391,-237.5 391,-256.5 484,-256.5 484,-237.5 391,-237.5"/>
<text text-anchor="middle" x="437.5" y="-244.5" font-family="Helvetica,sans-Serif" font-size="10.00">Calc::_addArma</text>
</a>
</g>
</g>
<!-- Node3&#45;&gt;Node4 -->
<g id="edge3" class="edge">
<title>Node3&#45;&gt;Node4</title>
<path fill="none" stroke="midnightblue" d="M334.36,-227.58C349.16,-230.39 365.44,-233.49 380.57,-236.36"/>
<polygon fill="midnightblue" stroke="midnightblue" points="380.35,-239.88 390.83,-238.31 381.66,-233.01 380.35,-239.88"/>
</g>
<!-- Node5 -->
<g id="node5" class="node">
<title>Node5</title>
<g id="a_node5"><a xlink:href="class_calc.html#af58cd6a2174e577a6246366de03b949e" target="_top" xlink:title=" ">
<polygon fill="white" stroke="black" points="389,-199.5 389,-218.5 486,-218.5 486,-199.5 389,-199.5"/>
<text text-anchor="middle" x="437.5" y="-206.5" font-family="Helvetica,sans-Serif" font-size="10.00">Calc::_addMmce</text>
</a>
</g>
</g>
<!-- Node3&#45;&gt;Node5 -->
<g id="edge4" class="edge">
<title>Node3&#45;&gt;Node5</title>
<path fill="none" stroke="midnightblue" d="M345.59,-214.37C356.49,-213.72 367.8,-213.05 378.6,-212.42"/>
<polygon fill="midnightblue" stroke="midnightblue" points="378.98,-215.9 388.76,-211.82 378.57,-208.91 378.98,-215.9"/>
</g>
<!-- Node8&#45;&gt;Node8 -->
<g id="edge8" class="edge">
<title>Node8&#45;&gt;Node8</title>
<path fill="none" stroke="midnightblue" d="M262.65,-95.76C252.76,-104.57 259.54,-114 283,-114 298.03,-114 306.21,-110.13 307.55,-105.03"/>
<polygon fill="midnightblue" stroke="midnightblue" points="310.67,-103.42 303.35,-95.76 304.29,-106.31 310.67,-103.42"/>
</g>
<!-- Node9 -->
<g id="node9" class="node">
<title>Node9</title>
<g id="a_node9"><a xlink:href="class_calc.html#a284818e83b0d85bdd029f3d72d4ef0bd" target="_top" xlink:title=" ">
<polygon fill="white" stroke="black" points="402.5,-152.5 402.5,-171.5 472.5,-171.5 472.5,-152.5 402.5,-152.5"/>
<text text-anchor="middle" x="437.5" y="-159.5" font-family="Helvetica,sans-Serif" font-size="10.00">Calc::_msg</text>
</a>
</g>
</g>
<!-- Node8&#45;&gt;Node9 -->
<g id="edge9" class="edge">
<title>Node8&#45;&gt;Node9</title>
<path fill="none" stroke="midnightblue" d="M301.91,-95.51C315.86,-102.94 335.7,-113.56 353,-123 369.07,-131.77 372.47,-135.14 389,-143 392.88,-144.84 396.99,-146.67 401.1,-148.42"/>
<polygon fill="midnightblue" stroke="midnightblue" points="400.03,-151.76 410.61,-152.33 402.69,-145.29 400.03,-151.76"/>
</g>
<!-- Node10 -->
<g id="node10" class="node">
<title>Node10</title>
<g id="a_node10"><a xlink:href="class_log.html#ac7147942832455398ad289b706a02616" target="_top" xlink:title="Write error message to the log file.">
<polygon fill="white" stroke="black" points="411,-114.5 411,-133.5 464,-133.5 464,-114.5 411,-114.5"/>
<text text-anchor="middle" x="437.5" y="-121.5" font-family="Helvetica,sans-Serif" font-size="10.00">Log::err</text>
</a>
</g>
</g>
<!-- Node8&#45;&gt;Node10 -->
<g id="edge10" class="edge">
<title>Node8&#45;&gt;Node10</title>
<path fill="none" stroke="midnightblue" d="M322.48,-95.59C346.62,-101.6 377.51,-109.3 401.04,-115.16"/>
<polygon fill="midnightblue" stroke="midnightblue" points="400.41,-118.62 410.96,-117.64 402.11,-111.82 400.41,-118.62"/>
</g>
<!-- Node11 -->
<g id="node11" class="node">
<title>Node11</title>
<g id="a_node11"><a xlink:href="class_log.html#add7e611cd3267d3fd5dae017e3aeef67" target="_top" xlink:title="Write infomation to the log file.">
<polygon fill="white" stroke="black" points="408,-76.5 408,-95.5 467,-95.5 467,-76.5 408,-76.5"/>
<text text-anchor="middle" x="437.5" y="-83.5" font-family="Helvetica,sans-Serif" font-size="10.00">Log::info</text>
</a>
</g>
</g>
<!-- Node8&#45;&gt;Node11 -->
<g id="edge11" class="edge">
<title>Node8&#45;&gt;Node11</title>
<path fill="none" stroke="midnightblue" d="M348.23,-86C365,-86 382.56,-86 397.57,-86"/>
<polygon fill="midnightblue" stroke="midnightblue" points="397.99,-89.5 407.99,-86 397.99,-82.5 397.99,-89.5"/>
</g>
<!-- Node12 -->
<g id="node12" class="node">
<title>Node12</title>
<g id="a_node12"><a xlink:href="utils_8h.html#aa0a3ba0e1cec6f6b77334767af46eef7" target="_top" xlink:title="Check if the string is an unsigned integer.">
<polygon fill="white" stroke="black" points="415,-38.5 415,-57.5 460,-57.5 460,-38.5 415,-38.5"/>
<text text-anchor="middle" x="437.5" y="-45.5" font-family="Helvetica,sans-Serif" font-size="10.00">isUInt</text>
</a>
</g>
</g>
<!-- Node8&#45;&gt;Node12 -->
<g id="edge12" class="edge">
<title>Node8&#45;&gt;Node12</title>
<path fill="none" stroke="midnightblue" d="M322.48,-76.41C348,-70.05 381.07,-61.81 405.02,-55.85"/>
<polygon fill="midnightblue" stroke="midnightblue" points="406.14,-59.17 414.99,-53.36 404.44,-52.38 406.14,-59.17"/>
</g>
<!-- Node13 -->
<g id="node13" class="node">
<title>Node13</title>
<g id="a_node13"><a xlink:href="class_type___track.html#ab510214767b1b4d71e3beadecb814bb7" target="_top" xlink:title=" ">
<polygon fill="white" stroke="black" points="390,-0.5 390,-19.5 485,-19.5 485,-0.5 390,-0.5"/>
<text text-anchor="middle" x="437.5" y="-7.5" font-family="Helvetica,sans-Serif" font-size="10.00">Type_Track::size</text>
</a>
</g>
</g>
<!-- Node8&#45;&gt;Node13 -->
<g id="edge13" class="edge">
<title>Node8&#45;&gt;Node13</title>
<path fill="none" stroke="midnightblue" d="M332.17,-76.39C339.42,-73.92 346.61,-70.84 353,-67 372.95,-55.03 369.75,-42.07 389,-29 391.72,-27.15 394.64,-25.44 397.66,-23.87"/>
<polygon fill="midnightblue" stroke="midnightblue" points="399.29,-26.97 406.86,-19.56 396.32,-20.63 399.29,-26.97"/>
</g>
</g>
</svg>
