<?xml version="1.0" encoding="UTF-8" standalone="no"?>
<!DOCTYPE svg PUBLIC "-//W3C//DTD SVG 1.1//EN"
 "http://www.w3.org/Graphics/SVG/1.1/DTD/svg11.dtd">
<!-- Generated by graphviz version 2.43.0 (0)
 -->
<!-- Title: Config::read Pages: 1 -->
<svg width="373pt" height="66pt"
 viewBox="0.00 0.00 373.00 66.00" xmlns="http://www.w3.org/2000/svg" xmlns:xlink="http://www.w3.org/1999/xlink">
<g id="graph0" class="graph" transform="scale(1 1) rotate(0) translate(4 62)">
<title>Config::read</title>
<polygon fill="white" stroke="transparent" points="-4,4 -4,-62 369,-62 369,4 -4,4"/>
<!-- Node1 -->
<g id="node1" class="node">
<title>Node1</title>
<g id="a_node1"><a xlink:title=" ">
<polygon fill="#bfbfbf" stroke="black" points="290,-19.5 290,-38.5 365,-38.5 365,-19.5 290,-19.5"/>
<text text-anchor="middle" x="327.5" y="-26.5" font-family="Helvetica,sans-Serif" font-size="10.00">Config::read</text>
</a>
</g>
</g>
<!-- Node2 -->
<g id="node2" class="node">
<title>Node2</title>
<g id="a_node2"><a xlink:href="src_2main_8cpp.html#a0ddf1224851353fc92bfbff6f499fa97" target="_top" xlink:title=" ">
<polygon fill="white" stroke="black" points="34,-38.5 34,-57.5 75,-57.5 75,-38.5 34,-38.5"/>
<text text-anchor="middle" x="54.5" y="-45.5" font-family="Helvetica,sans-Serif" font-size="10.00">main</text>
</a>
</g>
</g>
<!-- Node1&#45;&gt;Node2 -->
<g id="edge1" class="edge">
<title>Node1&#45;&gt;Node2</title>
<path fill="none" stroke="midnightblue" d="M279.96,-32.26C219.89,-36.47 117.99,-43.62 75.27,-46.61"/>
<polygon fill="midnightblue" stroke="midnightblue" points="280.22,-35.75 289.95,-31.56 279.73,-28.77 280.22,-35.75"/>
</g>
<!-- Node3 -->
<g id="node3" class="node">
<title>Node3</title>
<g id="a_node3"><a xlink:href="class_simulate.html#a03ef6895241e8accb07491e98bbfcf0c" target="_top" xlink:title=" ">
<polygon fill="white" stroke="black" points="145,-0.5 145,-19.5 254,-19.5 254,-0.5 145,-0.5"/>
<text text-anchor="middle" x="199.5" y="-7.5" font-family="Helvetica,sans-Serif" font-size="10.00">Simulate::simulate</text>
</a>
</g>
</g>
<!-- Node1&#45;&gt;Node3 -->
<g id="edge2" class="edge">
<title>Node1&#45;&gt;Node3</title>
<path fill="none" stroke="midnightblue" d="M279.58,-21.93C271.38,-20.69 262.79,-19.39 254.42,-18.13"/>
<polygon fill="midnightblue" stroke="midnightblue" points="279.31,-25.42 289.72,-23.45 280.35,-18.5 279.31,-25.42"/>
</g>
<!-- Node3&#45;&gt;Node2 -->
<g id="edge3" class="edge">
<title>Node3&#45;&gt;Node2</title>
<path fill="none" stroke="midnightblue" d="M152.69,-22.17C126.57,-29.11 95.16,-37.46 75.26,-42.75"/>
<polygon fill="midnightblue" stroke="midnightblue" points="153.65,-25.54 162.42,-19.59 151.85,-18.77 153.65,-25.54"/>
</g>
<!-- Node4 -->
<g id="node4" class="node">
<title>Node4</title>
<g id="a_node4"><a xlink:href="class_simulate.html#a9b861e2a496da07d9377808c84c3e01b" target="_top" xlink:title=" ">
<polygon fill="white" stroke="black" points="0,-0.5 0,-19.5 109,-19.5 109,-0.5 0,-0.5"/>
<text text-anchor="middle" x="54.5" y="-7.5" font-family="Helvetica,sans-Serif" font-size="10.00">Simulate::simulate</text>
</a>
</g>
</g>
<!-- Node3&#45;&gt;Node4 -->
<g id="edge4" class="edge">
<title>Node3&#45;&gt;Node4</title>
<path fill="none" stroke="midnightblue" d="M134.68,-10C126.25,-10 117.69,-10 109.46,-10"/>
<polygon fill="midnightblue" stroke="midnightblue" points="134.85,-13.5 144.85,-10 134.85,-6.5 134.85,-13.5"/>
</g>
</g>
</svg>
