<?xml version="1.0" encoding="UTF-8" standalone="no"?>
<!DOCTYPE svg PUBLIC "-//W3C//DTD SVG 1.1//EN"
 "http://www.w3.org/Graphics/SVG/1.1/DTD/svg11.dtd">
<!-- Generated by graphviz version 2.43.0 (0)
 -->
<!-- Title: Export Pages: 1 -->
<svg width="415pt" height="95pt"
 viewBox="0.00 0.00 414.50 95.00" xmlns="http://www.w3.org/2000/svg" xmlns:xlink="http://www.w3.org/1999/xlink">
<g id="graph0" class="graph" transform="scale(1 1) rotate(0) translate(4 91)">
<title>Export</title>
<polygon fill="white" stroke="transparent" points="-4,4 -4,-91 410.5,-91 410.5,4 -4,4"/>
<!-- Node1 -->
<g id="node1" class="node">
<title>Node1</title>
<g id="a_node1"><a xlink:title=" ">
<polygon fill="#bfbfbf" stroke="black" points="161,-0.5 161,-19.5 209,-19.5 209,-0.5 161,-0.5"/>
<text text-anchor="middle" x="185" y="-7.5" font-family="Helvetica,sans-Serif" font-size="10.00">Export</text>
</a>
</g>
</g>
<!-- Node2 -->
<g id="node2" class="node">
<title>Node2</title>
<g id="a_node2"><a xlink:href="struct_c_l_i___options.html" target="_top" xlink:title="Command line options.">
<polygon fill="white" stroke="black" points="0,-67.5 0,-86.5 74,-86.5 74,-67.5 0,-67.5"/>
<text text-anchor="middle" x="37" y="-74.5" font-family="Helvetica,sans-Serif" font-size="10.00">CLI_Options</text>
</a>
</g>
</g>
<!-- Node2&#45;&gt;Node1 -->
<g id="edge1" class="edge">
<title>Node2&#45;&gt;Node1</title>
<path fill="none" stroke="#9a32cd" stroke-dasharray="5,2" d="M65.96,-63.28C95.27,-50.41 139.79,-30.85 165.27,-19.67"/>
<polygon fill="#9a32cd" stroke="#9a32cd" points="64.4,-60.14 56.65,-67.37 67.22,-66.55 64.4,-60.14"/>
<text text-anchor="middle" x="132.5" y="-41" font-family="Helvetica,sans-Serif" font-size="10.00"> _opt</text>
</g>
<!-- Node3 -->
<g id="node3" class="node">
<title>Node3</title>
<g id="a_node3"><a xlink:href="struct_shared___info.html" target="_top" xlink:title=" ">
<polygon fill="white" stroke="black" points="92,-67.5 92,-86.5 166,-86.5 166,-67.5 92,-67.5"/>
<text text-anchor="middle" x="129" y="-74.5" font-family="Helvetica,sans-Serif" font-size="10.00">Shared_Info</text>
</a>
</g>
</g>
<!-- Node3&#45;&gt;Node1 -->
<g id="edge2" class="edge">
<title>Node3&#45;&gt;Node1</title>
<path fill="none" stroke="#9a32cd" stroke-dasharray="5,2" d="M143.1,-59.63C154.05,-46.92 168.8,-29.8 177.57,-19.63"/>
<polygon fill="#9a32cd" stroke="#9a32cd" points="140.43,-57.37 136.55,-67.23 145.73,-61.94 140.43,-57.37"/>
<text text-anchor="middle" x="179" y="-41" font-family="Helvetica,sans-Serif" font-size="10.00"> _s_info</text>
</g>
<!-- Node4 -->
<g id="node4" class="node">
<title>Node4</title>
<g id="a_node4"><a xlink:href="struct_export_1_1_data_params.html" target="_top" xlink:title=" ">
<polygon fill="white" stroke="black" points="184.5,-67.5 184.5,-86.5 297.5,-86.5 297.5,-67.5 184.5,-67.5"/>
<text text-anchor="middle" x="241" y="-74.5" font-family="Helvetica,sans-Serif" font-size="10.00">Export::DataParams</text>
</a>
</g>
</g>
<!-- Node4&#45;&gt;Node1 -->
<g id="edge3" class="edge">
<title>Node4&#45;&gt;Node1</title>
<path fill="none" stroke="#9a32cd" stroke-dasharray="5,2" d="M226.9,-59.63C215.95,-46.92 201.2,-29.8 192.43,-19.63"/>
<polygon fill="#9a32cd" stroke="#9a32cd" points="224.27,-61.94 233.45,-67.23 229.57,-57.37 224.27,-61.94"/>
<text text-anchor="middle" x="252.5" y="-41" font-family="Helvetica,sans-Serif" font-size="10.00"> _data_params</text>
</g>
<!-- Node5 -->
<g id="node5" class="node">
<title>Node5</title>
<g id="a_node5"><a xlink:href="class_channel___graph.html" target="_top" xlink:title=" ">
<polygon fill="white" stroke="black" points="315.5,-67.5 315.5,-86.5 406.5,-86.5 406.5,-67.5 315.5,-67.5"/>
<text text-anchor="middle" x="361" y="-74.5" font-family="Helvetica,sans-Serif" font-size="10.00">Channel_Graph</text>
</a>
</g>
</g>
<!-- Node5&#45;&gt;Node1 -->
<g id="edge4" class="edge">
<title>Node5&#45;&gt;Node1</title>
<path fill="none" stroke="#9a32cd" stroke-dasharray="5,2" d="M339.3,-61.92C326.29,-53.99 309.19,-44.41 293,-38 265.15,-26.96 231.43,-19.39 209.16,-15.14"/>
<polygon fill="#9a32cd" stroke="#9a32cd" points="337.64,-65.01 347.97,-67.34 341.34,-59.07 337.64,-65.01"/>
<text text-anchor="middle" x="356" y="-41" font-family="Helvetica,sans-Serif" font-size="10.00"> _channel_graph</text>
</g>
</g>
</svg>
