<?xml version="1.0" encoding="UTF-8" standalone="no"?>
<!DOCTYPE svg PUBLIC "-//W3C//DTD SVG 1.1//EN"
 "http://www.w3.org/Graphics/SVG/1.1/DTD/svg11.dtd">
<!-- Generated by graphviz version 2.43.0 (0)
 -->
<!-- Title: Config::read Pages: 1 -->
<svg width="373pt" height="85pt"
 viewBox="0.00 0.00 373.00 85.00" xmlns="http://www.w3.org/2000/svg" xmlns:xlink="http://www.w3.org/1999/xlink">
<g id="graph0" class="graph" transform="scale(1 1) rotate(0) translate(4 81)">
<title>Config::read</title>
<polygon fill="white" stroke="transparent" points="-4,4 -4,-81 369,-81 369,4 -4,4"/>
<!-- Node1 -->
<g id="node1" class="node">
<title>Node1</title>
<g id="a_node1"><a xlink:title=" ">
<polygon fill="#bfbfbf" stroke="black" points="290,-38.5 290,-57.5 365,-57.5 365,-38.5 290,-38.5"/>
<text text-anchor="middle" x="327.5" y="-45.5" font-family="Helvetica,sans-Serif" font-size="10.00">Config::read</text>
</a>
</g>
</g>
<!-- Node2 -->
<g id="node2" class="node">
<title>Node2</title>
<g id="a_node2"><a xlink:href="src_2main_8cpp.html#a0ddf1224851353fc92bfbff6f499fa97" target="_top" xlink:title=" ">
<polygon fill="white" stroke="black" points="34,-57.5 34,-76.5 75,-76.5 75,-57.5 34,-57.5"/>
<text text-anchor="middle" x="54.5" y="-64.5" font-family="Helvetica,sans-Serif" font-size="10.00">main</text>
</a>
</g>
</g>
<!-- Node1&#45;&gt;Node2 -->
<g id="edge1" class="edge">
<title>Node1&#45;&gt;Node2</title>
<path fill="none" stroke="midnightblue" d="M287.31,-60.23C276.61,-63.02 264.95,-65.59 254,-67 188.89,-75.39 110.76,-71.29 75.05,-68.65"/>
<polygon fill="midnightblue" stroke="midnightblue" points="288.49,-63.53 297.21,-57.5 286.64,-56.78 288.49,-63.53"/>
</g>
<!-- Node3 -->
<g id="node3" class="node">
<title>Node3</title>
<g id="a_node3"><a xlink:href="class_config.html#adf28ed0e82e4109b00e36df09852bd57" target="_top" xlink:title=" ">
<polygon fill="white" stroke="black" points="162,-38.5 162,-57.5 237,-57.5 237,-38.5 162,-38.5"/>
<text text-anchor="middle" x="199.5" y="-45.5" font-family="Helvetica,sans-Serif" font-size="10.00">Config::read</text>
</a>
</g>
</g>
<!-- Node1&#45;&gt;Node3 -->
<g id="edge2" class="edge">
<title>Node1&#45;&gt;Node3</title>
<path fill="none" stroke="midnightblue" d="M279.31,-48C265.35,-48 250.29,-48 237.11,-48"/>
<polygon fill="midnightblue" stroke="midnightblue" points="279.72,-51.5 289.72,-48 279.72,-44.5 279.72,-51.5"/>
</g>
<!-- Node4 -->
<g id="node4" class="node">
<title>Node4</title>
<g id="a_node4"><a xlink:href="class_simulate.html#a03ef6895241e8accb07491e98bbfcf0c" target="_top" xlink:title=" ">
<polygon fill="white" stroke="black" points="145,-0.5 145,-19.5 254,-19.5 254,-0.5 145,-0.5"/>
<text text-anchor="middle" x="199.5" y="-7.5" font-family="Helvetica,sans-Serif" font-size="10.00">Simulate::simulate</text>
</a>
</g>
</g>
<!-- Node1&#45;&gt;Node4 -->
<g id="edge3" class="edge">
<title>Node1&#45;&gt;Node4</title>
<path fill="none" stroke="midnightblue" d="M284.94,-35.46C267.79,-30.3 248.25,-24.4 232.28,-19.59"/>
<polygon fill="midnightblue" stroke="midnightblue" points="284.12,-38.87 294.7,-38.41 286.14,-32.17 284.12,-38.87"/>
</g>
<!-- Node4&#45;&gt;Node2 -->
<g id="edge4" class="edge">
<title>Node4&#45;&gt;Node2</title>
<path fill="none" stroke="midnightblue" d="M161.05,-22.98C155.65,-24.94 150.17,-26.99 145,-29 120.78,-38.43 93.31,-50.27 75.27,-58.2"/>
<polygon fill="midnightblue" stroke="midnightblue" points="162.38,-26.22 170.61,-19.55 160.02,-19.63 162.38,-26.22"/>
</g>
<!-- Node5 -->
<g id="node5" class="node">
<title>Node5</title>
<g id="a_node5"><a xlink:href="class_simulate.html#a9b861e2a496da07d9377808c84c3e01b" target="_top" xlink:title=" ">
<polygon fill="white" stroke="black" points="0,-0.5 0,-19.5 109,-19.5 109,-0.5 0,-0.5"/>
<text text-anchor="middle" x="54.5" y="-7.5" font-family="Helvetica,sans-Serif" font-size="10.00">Simulate::simulate</text>
</a>
</g>
</g>
<!-- Node4&#45;&gt;Node5 -->
<g id="edge5" class="edge">
<title>Node4&#45;&gt;Node5</title>
<path fill="none" stroke="midnightblue" d="M134.68,-10C126.25,-10 117.69,-10 109.46,-10"/>
<polygon fill="midnightblue" stroke="midnightblue" points="134.85,-13.5 144.85,-10 134.85,-6.5 134.85,-13.5"/>
</g>
</g>
</svg>
