<?xml version="1.0" encoding="UTF-8" standalone="no"?>
<!DOCTYPE svg PUBLIC "-//W3C//DTD SVG 1.1//EN"
 "http://www.w3.org/Graphics/SVG/1.1/DTD/svg11.dtd">
<!-- Generated by graphviz version 2.43.0 (0)
 -->
<!-- Title: Alg_Line::_findChars Pages: 1 -->
<svg width="611pt" height="47pt"
 viewBox="0.00 0.00 611.00 47.00" xmlns="http://www.w3.org/2000/svg" xmlns:xlink="http://www.w3.org/1999/xlink">
<g id="graph0" class="graph" transform="scale(1 1) rotate(0) translate(4 43)">
<title>Alg_Line::_findChars</title>
<polygon fill="white" stroke="transparent" points="-4,4 -4,-43 607,-43 607,4 -4,4"/>
<!-- Node1 -->
<g id="node1" class="node">
<title>Node1</title>
<g id="a_node1"><a xlink:title="Find the first occupance of substring in string that is not an escape or within quotes.">
<polygon fill="#bfbfbf" stroke="black" points="488,-0.5 488,-19.5 603,-19.5 603,-0.5 488,-0.5"/>
<text text-anchor="middle" x="545.5" y="-7.5" font-family="Helvetica,sans-Serif" font-size="10.00">Alg_Line::_findChars</text>
</a>
</g>
</g>
<!-- Node2 -->
<g id="node2" class="node">
<title>Node2</title>
<g id="a_node2"><a xlink:href="class_alg___line.html#a02c28dd649a764aabefb625ea87f2938" target="_top" xlink:title="Find the first occupance of character in string that is not an escape or within quotes.">
<polygon fill="white" stroke="black" points="342,-0.5 342,-19.5 452,-19.5 452,-0.5 342,-0.5"/>
<text text-anchor="middle" x="397" y="-7.5" font-family="Helvetica,sans-Serif" font-size="10.00">Alg_Line::_findChar</text>
</a>
</g>
</g>
<!-- Node1&#45;&gt;Node2 -->
<g id="edge1" class="edge">
<title>Node1&#45;&gt;Node2</title>
<path fill="none" stroke="midnightblue" d="M477.83,-10C469.21,-10 460.47,-10 452.08,-10"/>
<polygon fill="midnightblue" stroke="midnightblue" points="477.86,-13.5 487.86,-10 477.86,-6.5 477.86,-13.5"/>
</g>
<!-- Node3 -->
<g id="node3" class="node">
<title>Node3</title>
<g id="a_node3"><a xlink:href="class_alg___line.html#a0047f4df72a2d10ebb74701c3d05bafc" target="_top" xlink:title="Process function name and parameter variables.">
<polygon fill="white" stroke="black" points="141,-19.5 141,-38.5 306,-38.5 306,-19.5 141,-19.5"/>
<text text-anchor="middle" x="223.5" y="-26.5" font-family="Helvetica,sans-Serif" font-size="10.00">Alg_Line::_processFuncParams</text>
</a>
</g>
</g>
<!-- Node2&#45;&gt;Node3 -->
<g id="edge2" class="edge">
<title>Node2&#45;&gt;Node3</title>
<path fill="none" stroke="midnightblue" d="M331.76,-17.12C323.45,-18.04 314.84,-18.99 306.29,-19.94"/>
<polygon fill="midnightblue" stroke="midnightblue" points="332.18,-20.59 341.74,-16.01 331.41,-13.63 332.18,-20.59"/>
</g>
<!-- Node4 -->
<g id="node4" class="node">
<title>Node4</title>
<g id="a_node4"><a xlink:href="class_alg___line.html#a4f478c53dbfaecf16d55be668d959562" target="_top" xlink:title="Construct a new Alg_Line object. Process string at the same time.">
<polygon fill="white" stroke="black" points="0,-0.5 0,-19.5 105,-19.5 105,-0.5 0,-0.5"/>
<text text-anchor="middle" x="52.5" y="-7.5" font-family="Helvetica,sans-Serif" font-size="10.00">Alg_Line::Alg_Line</text>
</a>
</g>
</g>
<!-- Node2&#45;&gt;Node4 -->
<g id="edge4" class="edge">
<title>Node2&#45;&gt;Node4</title>
<path fill="none" stroke="midnightblue" d="M331.52,-10C266.01,-10 165.8,-10 105.27,-10"/>
<polygon fill="midnightblue" stroke="midnightblue" points="331.73,-13.5 341.73,-10 331.73,-6.5 331.73,-13.5"/>
</g>
<!-- Node3&#45;&gt;Node4 -->
<g id="edge3" class="edge">
<title>Node3&#45;&gt;Node4</title>
<path fill="none" stroke="midnightblue" d="M131,-18.71C122.19,-17.72 113.49,-16.74 105.27,-15.82"/>
<polygon fill="midnightblue" stroke="midnightblue" points="130.64,-22.19 140.97,-19.83 131.42,-15.24 130.64,-22.19"/>
</g>
</g>
</svg>
