<?xml version="1.0" encoding="UTF-8" standalone="no"?>
<!DOCTYPE svg PUBLIC "-//W3C//DTD SVG 1.1//EN"
 "http://www.w3.org/Graphics/SVG/1.1/DTD/svg11.dtd">
<!-- Generated by graphviz version 2.43.0 (0)
 -->
<!-- Title: Export::_estimation Pages: 1 -->
<svg width="911pt" height="1054pt"
 viewBox="0.00 0.00 911.00 1054.00" xmlns="http://www.w3.org/2000/svg" xmlns:xlink="http://www.w3.org/1999/xlink">
<g id="graph0" class="graph" transform="scale(1 1) rotate(0) translate(4 1050)">
<title>Export::_estimation</title>
<polygon fill="white" stroke="transparent" points="-4,4 -4,-1050 907,-1050 907,4 -4,4"/>
<!-- Node1 -->
<g id="node1" class="node">
<title>Node1</title>
<g id="a_node1"><a xlink:title=" ">
<polygon fill="#bfbfbf" stroke="black" points="0,-893.5 0,-912.5 112,-912.5 112,-893.5 0,-893.5"/>
<text text-anchor="middle" x="56" y="-900.5" font-family="Helvetica,sans-Serif" font-size="10.00">Export::_estimation</text>
</a>
</g>
</g>
<!-- Node2 -->
<g id="node2" class="node">
<title>Node2</title>
<g id="a_node2"><a xlink:href="class_export.html#a638d6b9ced18342503ee6f4d4b274740" target="_top" xlink:title=" ">
<polygon fill="white" stroke="black" points="158.5,-1026.5 158.5,-1045.5 242.5,-1045.5 242.5,-1026.5 158.5,-1026.5"/>
<text text-anchor="middle" x="200.5" y="-1033.5" font-family="Helvetica,sans-Serif" font-size="10.00">Export::_asStr</text>
</a>
</g>
</g>
<!-- Node1&#45;&gt;Node2 -->
<g id="edge1" class="edge">
<title>Node1&#45;&gt;Node2</title>
<path fill="none" stroke="midnightblue" d="M62.26,-912.72C74.49,-934.45 106.93,-987.35 148,-1017 150.63,-1018.9 153.46,-1020.62 156.41,-1022.2"/>
<polygon fill="midnightblue" stroke="midnightblue" points="154.93,-1025.37 165.47,-1026.45 157.91,-1019.03 154.93,-1025.37"/>
</g>
<!-- Node3 -->
<g id="node3" class="node">
<title>Node3</title>
<g id="a_node3"><a xlink:href="class_export.html#abe75ae41d7cc8afe8f1ba4bbf67dfcfc" target="_top" xlink:title=" ">
<polygon fill="white" stroke="black" points="169,-988.5 169,-1007.5 232,-1007.5 232,-988.5 169,-988.5"/>
<text text-anchor="middle" x="200.5" y="-995.5" font-family="Helvetica,sans-Serif" font-size="10.00">Export::_f</text>
</a>
</g>
</g>
<!-- Node1&#45;&gt;Node3 -->
<g id="edge2" class="edge">
<title>Node1&#45;&gt;Node3</title>
<path fill="none" stroke="midnightblue" d="M66.26,-912.64C81.84,-928.39 114.86,-959.82 148,-979 151.62,-981.09 155.51,-983.03 159.47,-984.8"/>
<polygon fill="midnightblue" stroke="midnightblue" points="158.18,-988.05 168.76,-988.62 160.84,-981.58 158.18,-988.05"/>
</g>
<!-- Node4 -->
<g id="node4" class="node">
<title>Node4</title>
<g id="a_node4"><a xlink:href="class_export.html#a68e698a5654fc800aa78c512da8f23b1" target="_top" xlink:title=" ">
<polygon fill="white" stroke="black" points="153.5,-950.5 153.5,-969.5 247.5,-969.5 247.5,-950.5 153.5,-950.5"/>
<text text-anchor="middle" x="200.5" y="-957.5" font-family="Helvetica,sans-Serif" font-size="10.00">Export::_langStr</text>
</a>
</g>
</g>
<!-- Node1&#45;&gt;Node4 -->
<g id="edge3" class="edge">
<title>Node1&#45;&gt;Node4</title>
<path fill="none" stroke="midnightblue" d="M79.33,-912.63C97.69,-920.48 124.42,-931.73 148,-941 152.92,-942.93 158.12,-944.92 163.26,-946.85"/>
<polygon fill="midnightblue" stroke="midnightblue" points="162.36,-950.25 172.95,-950.45 164.8,-943.69 162.36,-950.25"/>
</g>
<!-- Node5 -->
<g id="node5" class="node">
<title>Node5</title>
<g id="a_node5"><a xlink:href="class_export.html#a33b5d571af76c0d4f9b9ee6e72afd8a6" target="_top" xlink:title=" ">
<polygon fill="white" stroke="black" points="148,-912.5 148,-931.5 253,-931.5 253,-912.5 148,-912.5"/>
<text text-anchor="middle" x="200.5" y="-919.5" font-family="Helvetica,sans-Serif" font-size="10.00">Export::_preCheck</text>
</a>
</g>
</g>
<!-- Node1&#45;&gt;Node5 -->
<g id="edge4" class="edge">
<title>Node1&#45;&gt;Node5</title>
<path fill="none" stroke="midnightblue" d="M112.09,-910.35C120.54,-911.47 129.3,-912.64 137.88,-913.78"/>
<polygon fill="midnightblue" stroke="midnightblue" points="137.45,-917.26 147.82,-915.11 138.37,-910.32 137.45,-917.26"/>
</g>
<!-- Node7 -->
<g id="node7" class="node">
<title>Node7</title>
<g id="a_node7"><a xlink:href="class_log.html#ac7147942832455398ad289b706a02616" target="_top" xlink:title="Write error message to the log file.">
<polygon fill="white" stroke="black" points="828,-608.5 828,-627.5 881,-627.5 881,-608.5 828,-608.5"/>
<text text-anchor="middle" x="854.5" y="-615.5" font-family="Helvetica,sans-Serif" font-size="10.00">Log::err</text>
</a>
</g>
</g>
<!-- Node1&#45;&gt;Node7 -->
<g id="edge6" class="edge">
<title>Node1&#45;&gt;Node7</title>
<path fill="none" stroke="midnightblue" d="M112.03,-897.68C175.03,-892.06 281.35,-884 373,-884 373,-884 373,-884 545.5,-884 645.85,-884 691.5,-922.51 770,-860 840.5,-803.86 851.7,-684.82 853.31,-637.75"/>
<polygon fill="midnightblue" stroke="midnightblue" points="856.82,-637.73 853.55,-627.65 849.82,-637.57 856.82,-637.73"/>
</g>
<!-- Node8 -->
<g id="node8" class="node">
<title>Node8</title>
<g id="a_node8"><a xlink:href="class_log.html#add7e611cd3267d3fd5dae017e3aeef67" target="_top" xlink:title="Write infomation to the log file.">
<polygon fill="white" stroke="black" points="825,-323.5 825,-342.5 884,-342.5 884,-323.5 825,-323.5"/>
<text text-anchor="middle" x="854.5" y="-330.5" font-family="Helvetica,sans-Serif" font-size="10.00">Log::info</text>
</a>
</g>
</g>
<!-- Node1&#45;&gt;Node8 -->
<g id="edge7" class="edge">
<title>Node1&#45;&gt;Node8</title>
<path fill="none" stroke="midnightblue" d="M88.51,-893.46C144.97,-877.23 267.36,-846 373,-846 373,-846 373,-846 545.5,-846 779.85,-846 840.35,-447.64 851.41,-353"/>
<polygon fill="midnightblue" stroke="midnightblue" points="854.92,-353.12 852.55,-342.79 847.97,-352.34 854.92,-353.12"/>
</g>
<!-- Node9 -->
<g id="node9" class="node">
<title>Node9</title>
<g id="a_node9"><a xlink:href="utils_8h.html#a6ef734356291c638e5787a6c668192d4" target="_top" xlink:title=" ">
<polygon fill="white" stroke="black" points="355.5,-798.5 355.5,-817.5 392.5,-817.5 392.5,-798.5 355.5,-798.5"/>
<text text-anchor="middle" x="374" y="-805.5" font-family="Helvetica,sans-Serif" font-size="10.00">trim</text>
</a>
</g>
</g>
<!-- Node1&#45;&gt;Node9 -->
<g id="edge8" class="edge">
<title>Node1&#45;&gt;Node9</title>
<path fill="none" stroke="midnightblue" d="M65.7,-893.37C80.72,-877.46 113.26,-846.05 148,-832 214.81,-804.97 301.41,-804.36 345.13,-806.18"/>
<polygon fill="midnightblue" stroke="midnightblue" points="345.12,-809.68 355.28,-806.68 345.47,-802.69 345.12,-809.68"/>
</g>
<!-- Node12 -->
<g id="node12" class="node">
<title>Node12</title>
<g id="a_node12"><a xlink:href="class_alg.html#ada1e8215f047b4ffd736e811b5ea3162" target="_top" xlink:title=" ">
<polygon fill="white" stroke="black" points="169,-418.5 169,-437.5 232,-437.5 232,-418.5 169,-418.5"/>
<text text-anchor="middle" x="200.5" y="-425.5" font-family="Helvetica,sans-Serif" font-size="10.00">Alg::write</text>
</a>
</g>
</g>
<!-- Node1&#45;&gt;Node12 -->
<g id="edge11" class="edge">
<title>Node1&#45;&gt;Node12</title>
<path fill="none" stroke="midnightblue" d="M59.98,-893.08C77.69,-834.04 169.26,-528.78 193.57,-447.76"/>
<polygon fill="midnightblue" stroke="midnightblue" points="197.02,-448.45 196.54,-437.87 190.31,-446.44 197.02,-448.45"/>
</g>
<!-- Node6 -->
<g id="node6" class="node">
<title>Node6</title>
<g id="a_node6"><a xlink:href="error__code_8h.html#ae1bfa02e1106eff84ddecb9f7773a1a4" target="_top" xlink:title="Return the error message of the error code from class Err.">
<polygon fill="white" stroke="black" points="344,-912.5 344,-931.5 404,-931.5 404,-912.5 344,-912.5"/>
<text text-anchor="middle" x="374" y="-919.5" font-family="Helvetica,sans-Serif" font-size="10.00">errorMsg</text>
</a>
</g>
</g>
<!-- Node5&#45;&gt;Node6 -->
<g id="edge5" class="edge">
<title>Node5&#45;&gt;Node6</title>
<path fill="none" stroke="midnightblue" d="M253.42,-922C279.18,-922 309.8,-922 333.6,-922"/>
<polygon fill="midnightblue" stroke="midnightblue" points="333.69,-925.5 343.69,-922 333.69,-918.5 333.69,-925.5"/>
</g>
<!-- Node10 -->
<g id="node10" class="node">
<title>Node10</title>
<g id="a_node10"><a xlink:href="utils_8h.html#a47084ee818936eef3c48be492c0e860f" target="_top" xlink:title=" ">
<polygon fill="white" stroke="black" points="524.5,-760.5 524.5,-779.5 564.5,-779.5 564.5,-760.5 524.5,-760.5"/>
<text text-anchor="middle" x="544.5" y="-767.5" font-family="Helvetica,sans-Serif" font-size="10.00">ltrim</text>
</a>
</g>
</g>
<!-- Node9&#45;&gt;Node10 -->
<g id="edge9" class="edge">
<title>Node9&#45;&gt;Node10</title>
<path fill="none" stroke="midnightblue" d="M392.71,-804.01C421.66,-797.48 479.37,-784.46 514.4,-776.56"/>
<polygon fill="midnightblue" stroke="midnightblue" points="515.5,-779.9 524.48,-774.29 513.96,-773.07 515.5,-779.9"/>
</g>
<!-- Node11 -->
<g id="node11" class="node">
<title>Node11</title>
<g id="a_node11"><a xlink:href="utils_8h.html#af6d6bd5c29782e3b958b5f7c0d1ea9e3" target="_top" xlink:title=" ">
<polygon fill="white" stroke="black" points="524,-798.5 524,-817.5 565,-817.5 565,-798.5 524,-798.5"/>
<text text-anchor="middle" x="544.5" y="-805.5" font-family="Helvetica,sans-Serif" font-size="10.00">rtrim</text>
</a>
</g>
</g>
<!-- Node9&#45;&gt;Node11 -->
<g id="edge10" class="edge">
<title>Node9&#45;&gt;Node11</title>
<path fill="none" stroke="midnightblue" d="M392.71,-808C421.51,-808 478.76,-808 513.84,-808"/>
<polygon fill="midnightblue" stroke="midnightblue" points="513.96,-811.5 523.96,-808 513.96,-804.5 513.96,-811.5"/>
</g>
<!-- Node12&#45;&gt;Node7 -->
<g id="edge28" class="edge">
<title>Node12&#45;&gt;Node7</title>
<path fill="none" stroke="midnightblue" d="M203,-437.63C208.28,-467.83 229.04,-560.92 289,-599 376.92,-654.83 707.62,-631.09 817.65,-621.39"/>
<polygon fill="midnightblue" stroke="midnightblue" points="818.24,-624.85 827.89,-620.47 817.61,-617.88 818.24,-624.85"/>
</g>
<!-- Node12&#45;&gt;Node8 -->
<g id="edge32" class="edge">
<title>Node12&#45;&gt;Node8</title>
<path fill="none" stroke="midnightblue" d="M212.13,-418.42C227.7,-405.05 258.22,-381.28 289,-371 386.82,-338.34 703.94,-333.69 814.81,-333.08"/>
<polygon fill="midnightblue" stroke="midnightblue" points="814.9,-336.58 824.88,-333.03 814.86,-329.58 814.9,-336.58"/>
</g>
<!-- Node12&#45;&gt;Node9 -->
<g id="edge50" class="edge">
<title>Node12&#45;&gt;Node9</title>
<path fill="none" stroke="midnightblue" d="M202.49,-437.81C208.01,-490.29 236.5,-737.3 289,-789 303.69,-803.47 326.94,-807.86 345.25,-808.84"/>
<polygon fill="midnightblue" stroke="midnightblue" points="345.29,-812.34 355.37,-809.07 345.45,-805.34 345.29,-812.34"/>
</g>
<!-- Node12&#45;&gt;Node12 -->
<g id="edge54" class="edge">
<title>Node12&#45;&gt;Node12</title>
<path fill="none" stroke="midnightblue" d="M178.31,-437.76C167.51,-446.57 174.91,-456 200.5,-456 217.3,-456 226.26,-451.94 227.38,-446.65"/>
<polygon fill="midnightblue" stroke="midnightblue" points="230.45,-444.97 222.69,-437.76 224.26,-448.24 230.45,-444.97"/>
</g>
<!-- Node13 -->
<g id="node13" class="node">
<title>Node13</title>
<g id="a_node13"><a xlink:href="class_alg.html#a2cf2b7f4e37c8e401d9c6dad6687917d" target="_top" xlink:title=" ">
<polygon fill="white" stroke="black" points="324,-114.5 324,-133.5 424,-133.5 424,-114.5 324,-114.5"/>
<text text-anchor="middle" x="374" y="-121.5" font-family="Helvetica,sans-Serif" font-size="10.00">Alg::_wComment</text>
</a>
</g>
</g>
<!-- Node12&#45;&gt;Node13 -->
<g id="edge12" class="edge">
<title>Node12&#45;&gt;Node13</title>
<path fill="none" stroke="midnightblue" d="M201.26,-418.39C200.82,-378.08 204.74,-221.13 289,-143 296.08,-136.44 304.93,-131.97 314.21,-128.97"/>
<polygon fill="midnightblue" stroke="midnightblue" points="315.23,-132.32 323.98,-126.34 313.42,-125.56 315.23,-132.32"/>
</g>
<!-- Node14 -->
<g id="node14" class="node">
<title>Node14</title>
<g id="a_node14"><a xlink:href="class_calc.html#ad6dbdfdd4bd21322e5836ff72c11ae1b" target="_top" xlink:title="Convert the Alg CALC contents into a language command.">
<polygon fill="white" stroke="black" points="517,-190.5 517,-209.5 572,-209.5 572,-190.5 517,-190.5"/>
<text text-anchor="middle" x="544.5" y="-197.5" font-family="Helvetica,sans-Serif" font-size="10.00">Calc::as</text>
</a>
</g>
</g>
<!-- Node12&#45;&gt;Node14 -->
<g id="edge13" class="edge">
<title>Node12&#45;&gt;Node14</title>
<path fill="none" stroke="midnightblue" d="M202.15,-418.4C205.03,-384.38 219.75,-268.9 289,-219 353.7,-172.37 453.24,-181.92 506.64,-191.7"/>
<polygon fill="midnightblue" stroke="midnightblue" points="506.19,-195.18 516.68,-193.64 507.52,-188.31 506.19,-195.18"/>
</g>
<!-- Node25 -->
<g id="node25" class="node">
<title>Node25</title>
<g id="a_node25"><a xlink:href="class_type.html#abe15820e780d2f6646792d54f3ae3311" target="_top" xlink:title=" ">
<polygon fill="white" stroke="black" points="342,-76.5 342,-95.5 406,-95.5 406,-76.5 342,-76.5"/>
<text text-anchor="middle" x="374" y="-83.5" font-family="Helvetica,sans-Serif" font-size="10.00">Type::dim</text>
</a>
</g>
</g>
<!-- Node12&#45;&gt;Node25 -->
<g id="edge27" class="edge">
<title>Node12&#45;&gt;Node25</title>
<path fill="none" stroke="midnightblue" d="M202.78,-418.26C209.42,-369.3 241.4,-150.64 289,-105 300.31,-94.15 316.44,-89 331.55,-86.71"/>
<polygon fill="midnightblue" stroke="midnightblue" points="332.24,-90.15 341.77,-85.53 331.44,-83.19 332.24,-90.15"/>
</g>
<!-- Node26 -->
<g id="node26" class="node">
<title>Node26</title>
<g id="a_node26"><a xlink:href="class_term.html#abd955a8def100354b03e33911c3b21f8" target="_top" xlink:title="Print error message.">
<polygon fill="white" stroke="black" points="339,-38.5 339,-57.5 409,-57.5 409,-38.5 339,-38.5"/>
<text text-anchor="middle" x="374" y="-45.5" font-family="Helvetica,sans-Serif" font-size="10.00">Term::error</text>
</a>
</g>
</g>
<!-- Node12&#45;&gt;Node26 -->
<g id="edge29" class="edge">
<title>Node12&#45;&gt;Node26</title>
<path fill="none" stroke="midnightblue" d="M202.49,-418.19C208.01,-365.71 236.5,-118.7 289,-67 299.46,-56.7 314.25,-51.51 328.51,-49.02"/>
<polygon fill="midnightblue" stroke="midnightblue" points="329.29,-52.44 338.73,-47.65 328.36,-45.51 329.29,-52.44"/>
</g>
<!-- Node27 -->
<g id="node27" class="node">
<title>Node27</title>
<g id="a_node27"><a xlink:href="class_alg___line.html#af651454e6ddfce164626b68b2c6cba97" target="_top" xlink:title="Get the function name.">
<polygon fill="white" stroke="black" points="331.5,-0.5 331.5,-19.5 416.5,-19.5 416.5,-0.5 331.5,-0.5"/>
<text text-anchor="middle" x="374" y="-7.5" font-family="Helvetica,sans-Serif" font-size="10.00">Alg_Line::func</text>
</a>
</g>
</g>
<!-- Node12&#45;&gt;Node27 -->
<g id="edge30" class="edge">
<title>Node12&#45;&gt;Node27</title>
<path fill="none" stroke="midnightblue" d="M202.25,-418.28C206.7,-362.82 231.52,-86.86 289,-29 297.64,-20.3 309.37,-15.22 321.32,-12.34"/>
<polygon fill="midnightblue" stroke="midnightblue" points="322.19,-15.74 331.35,-10.41 320.87,-8.87 322.19,-15.74"/>
</g>
<!-- Node28 -->
<g id="node28" class="node">
<title>Node28</title>
<g id="a_node28"><a xlink:href="class_alg___line.html#a49a98870a1f09e35a3e15a7d7bab1666" target="_top" xlink:title="Check whether parameters contain the key.">
<polygon fill="white" stroke="black" points="324.5,-760.5 324.5,-779.5 423.5,-779.5 423.5,-760.5 324.5,-760.5"/>
<text text-anchor="middle" x="374" y="-767.5" font-family="Helvetica,sans-Serif" font-size="10.00">Alg_Line::hasKey</text>
</a>
</g>
</g>
<!-- Node12&#45;&gt;Node28 -->
<g id="edge31" class="edge">
<title>Node12&#45;&gt;Node28</title>
<path fill="none" stroke="midnightblue" d="M202.78,-437.74C209.42,-486.7 241.4,-705.36 289,-751 296.05,-757.76 304.97,-762.3 314.35,-765.33"/>
<polygon fill="midnightblue" stroke="midnightblue" points="313.66,-768.77 324.22,-767.96 315.46,-762 313.66,-768.77"/>
</g>
<!-- Node29 -->
<g id="node29" class="node">
<title>Node29</title>
<g id="a_node29"><a xlink:href="class_alg.html#a3ee7f9963027158b3fbd442d97800111" target="_top" xlink:title=" ">
<polygon fill="white" stroke="black" points="331,-228.5 331,-247.5 417,-247.5 417,-228.5 331,-228.5"/>
<text text-anchor="middle" x="374" y="-235.5" font-family="Helvetica,sans-Serif" font-size="10.00">Alg::inlineCalc</text>
</a>
</g>
</g>
<!-- Node12&#45;&gt;Node29 -->
<g id="edge33" class="edge">
<title>Node12&#45;&gt;Node29</title>
<path fill="none" stroke="midnightblue" d="M203.71,-418.43C210.8,-390 235.64,-305.33 289,-262 298.2,-254.53 309.6,-249.39 321.01,-245.84"/>
<polygon fill="midnightblue" stroke="midnightblue" points="322.26,-249.13 330.99,-243.12 320.42,-242.38 322.26,-249.13"/>
</g>
<!-- Node30 -->
<g id="node30" class="node">
<title>Node30</title>
<g id="a_node30"><a xlink:href="class_alg___line.html#ad419191a99be7e34024e569ad833b04e" target="_top" xlink:title="Check whether the line is for function declaration.">
<polygon fill="white" stroke="black" points="289,-722.5 289,-741.5 459,-741.5 459,-722.5 289,-722.5"/>
<text text-anchor="middle" x="374" y="-729.5" font-family="Helvetica,sans-Serif" font-size="10.00">Alg_Line::isFunctionDeclaration</text>
</a>
</g>
</g>
<!-- Node12&#45;&gt;Node30 -->
<g id="edge35" class="edge">
<title>Node12&#45;&gt;Node30</title>
<path fill="none" stroke="midnightblue" d="M201.26,-437.61C200.82,-477.92 204.74,-634.87 289,-713 290.52,-714.41 292.12,-715.72 293.8,-716.95"/>
<polygon fill="midnightblue" stroke="midnightblue" points="292.3,-720.13 302.66,-722.33 295.93,-714.15 292.3,-720.13"/>
</g>
<!-- Node31 -->
<g id="node31" class="node">
<title>Node31</title>
<g id="a_node31"><a xlink:href="class_alg.html#af935e64a6eb4afa4ca1540f4da3dcc9c" target="_top" xlink:title=" ">
<polygon fill="white" stroke="black" points="346,-684.5 346,-703.5 402,-703.5 402,-684.5 346,-684.5"/>
<text text-anchor="middle" x="374" y="-691.5" font-family="Helvetica,sans-Serif" font-size="10.00">Alg::line</text>
</a>
</g>
</g>
<!-- Node12&#45;&gt;Node31 -->
<g id="edge36" class="edge">
<title>Node12&#45;&gt;Node31</title>
<path fill="none" stroke="midnightblue" d="M201.78,-437.59C203.39,-474.5 214.35,-608.68 289,-675 301.65,-686.24 319.54,-691.26 335.56,-693.35"/>
<polygon fill="midnightblue" stroke="midnightblue" points="335.45,-696.86 345.74,-694.35 336.13,-689.89 335.45,-696.86"/>
</g>
<!-- Node32 -->
<g id="node32" class="node">
<title>Node32</title>
<g id="a_node32"><a xlink:href="class_alg___line.html#a4e79eb77a1cddbdab1dbdde8a499342d" target="_top" xlink:title="Parameter variables.">
<polygon fill="white" stroke="black" points="323.5,-646.5 323.5,-665.5 424.5,-665.5 424.5,-646.5 323.5,-646.5"/>
<text text-anchor="middle" x="374" y="-653.5" font-family="Helvetica,sans-Serif" font-size="10.00">Alg_Line::params</text>
</a>
</g>
</g>
<!-- Node12&#45;&gt;Node32 -->
<g id="edge37" class="edge">
<title>Node12&#45;&gt;Node32</title>
<path fill="none" stroke="midnightblue" d="M202.73,-437.81C207.36,-470.57 226.82,-577.25 289,-632 296.02,-638.18 304.54,-642.78 313.42,-646.2"/>
<polygon fill="midnightblue" stroke="midnightblue" points="312.55,-649.6 323.15,-649.46 314.78,-642.96 312.55,-649.6"/>
</g>
<!-- Node33 -->
<g id="node33" class="node">
<title>Node33</title>
<g id="a_node33"><a xlink:href="class_alg___line.html#a801b08c6c164376039a4ba4e980d039e" target="_top" xlink:title="Print Alg_Line contents (including return values, function names and parameters).">
<polygon fill="white" stroke="black" points="331,-570.5 331,-589.5 417,-589.5 417,-570.5 331,-570.5"/>
<text text-anchor="middle" x="374" y="-577.5" font-family="Helvetica,sans-Serif" font-size="10.00">Alg_Line::print</text>
</a>
</g>
</g>
<!-- Node12&#45;&gt;Node33 -->
<g id="edge38" class="edge">
<title>Node12&#45;&gt;Node33</title>
<path fill="none" stroke="midnightblue" d="M204.85,-437.53C214.06,-462.22 242.19,-528.59 289,-561 298.41,-567.52 309.71,-571.84 320.92,-574.69"/>
<polygon fill="midnightblue" stroke="midnightblue" points="320.18,-578.11 330.7,-576.84 321.68,-571.27 320.18,-578.11"/>
</g>
<!-- Node36 -->
<g id="node36" class="node">
<title>Node36</title>
<g id="a_node36"><a xlink:href="class_type___track.html#a4548ba1c289fba60e88b0e725509219e" target="_top" xlink:title=" ">
<polygon fill="white" stroke="black" points="650.5,-304.5 650.5,-323.5 749.5,-323.5 749.5,-304.5 650.5,-304.5"/>
<text text-anchor="middle" x="700" y="-311.5" font-family="Helvetica,sans-Serif" font-size="10.00">Type_Track::push</text>
</a>
</g>
</g>
<!-- Node12&#45;&gt;Node36 -->
<g id="edge41" class="edge">
<title>Node12&#45;&gt;Node36</title>
<path fill="none" stroke="midnightblue" d="M204.35,-418.23C212.51,-392.35 238.64,-322.15 289,-295 347.99,-263.2 541.63,-288.39 640.21,-303.99"/>
<polygon fill="midnightblue" stroke="midnightblue" points="639.88,-307.48 650.31,-305.6 640.99,-300.57 639.88,-307.48"/>
</g>
<!-- Node37 -->
<g id="node37" class="node">
<title>Node37</title>
<g id="a_node37"><a xlink:href="utils_8h.html#a0465457013518e168df05799c93cfa6e" target="_top" xlink:title=" ">
<polygon fill="white" stroke="black" points="332.5,-532.5 332.5,-551.5 415.5,-551.5 415.5,-532.5 332.5,-532.5"/>
<text text-anchor="middle" x="374" y="-539.5" font-family="Helvetica,sans-Serif" font-size="10.00">removeQuote</text>
</a>
</g>
</g>
<!-- Node12&#45;&gt;Node37 -->
<g id="edge43" class="edge">
<title>Node12&#45;&gt;Node37</title>
<path fill="none" stroke="midnightblue" d="M207.4,-437.58C219.88,-457 250.96,-500.99 289,-523 299.11,-528.85 310.87,-532.9 322.34,-535.7"/>
<polygon fill="midnightblue" stroke="midnightblue" points="321.77,-539.16 332.28,-537.86 323.25,-532.32 321.77,-539.16"/>
</g>
<!-- Node39 -->
<g id="node39" class="node">
<title>Node39</title>
<g id="a_node39"><a xlink:href="class_alg___line.html#a8e21f6b69eaf80a2327f7308fb4299e0" target="_top" xlink:title="Return variables.">
<polygon fill="white" stroke="black" points="325,-494.5 325,-513.5 423,-513.5 423,-494.5 325,-494.5"/>
<text text-anchor="middle" x="374" y="-501.5" font-family="Helvetica,sans-Serif" font-size="10.00">Alg_Line::returns</text>
</a>
</g>
</g>
<!-- Node12&#45;&gt;Node39 -->
<g id="edge45" class="edge">
<title>Node12&#45;&gt;Node39</title>
<path fill="none" stroke="midnightblue" d="M213.18,-437.58C229.27,-450.29 259.61,-472.58 289,-485 297.21,-488.47 306.14,-491.35 315.02,-493.73"/>
<polygon fill="midnightblue" stroke="midnightblue" points="314.44,-497.19 324.99,-496.22 316.13,-490.4 314.44,-497.19"/>
</g>
<!-- Node40 -->
<g id="node40" class="node">
<title>Node40</title>
<g id="a_node40"><a xlink:href="class_type.html#a0153b8ff39040caf3ff2a6f7c7329d7c" target="_top" xlink:title="Get the C++ type name.">
<polygon fill="white" stroke="black" points="337.5,-456.5 337.5,-475.5 410.5,-475.5 410.5,-456.5 337.5,-456.5"/>
<text text-anchor="middle" x="374" y="-463.5" font-family="Helvetica,sans-Serif" font-size="10.00">Type::string</text>
</a>
</g>
</g>
<!-- Node12&#45;&gt;Node40 -->
<g id="edge46" class="edge">
<title>Node12&#45;&gt;Node40</title>
<path fill="none" stroke="midnightblue" d="M232.16,-434.79C258.65,-440.66 297.3,-449.23 327.41,-455.9"/>
<polygon fill="midnightblue" stroke="midnightblue" points="326.75,-459.34 337.27,-458.08 328.26,-452.5 326.75,-459.34"/>
</g>
<!-- Node43 -->
<g id="node43" class="node">
<title>Node43</title>
<g id="a_node43"><a xlink:href="namespacemmce.html#ad4a160832ef9fad47c531ece39752208" target="_top" xlink:title="Change a number to string.">
<polygon fill="white" stroke="black" points="326,-418.5 326,-437.5 422,-437.5 422,-418.5 326,-418.5"/>
<text text-anchor="middle" x="374" y="-425.5" font-family="Helvetica,sans-Serif" font-size="10.00">mmce::to_string</text>
</a>
</g>
</g>
<!-- Node12&#45;&gt;Node43 -->
<g id="edge49" class="edge">
<title>Node12&#45;&gt;Node43</title>
<path fill="none" stroke="midnightblue" d="M232.16,-428C255.33,-428 287.8,-428 315.73,-428"/>
<polygon fill="midnightblue" stroke="midnightblue" points="315.79,-431.5 325.79,-428 315.79,-424.5 315.79,-431.5"/>
</g>
<!-- Node44 -->
<g id="node44" class="node">
<title>Node44</title>
<g id="a_node44"><a xlink:href="class_log.html#ab61203710351f6d33d7ba634d2c4eb32" target="_top" xlink:title="Write warning message to the log file.">
<polygon fill="white" stroke="black" points="345,-380.5 345,-399.5 403,-399.5 403,-380.5 345,-380.5"/>
<text text-anchor="middle" x="374" y="-387.5" font-family="Helvetica,sans-Serif" font-size="10.00">Log::war</text>
</a>
</g>
</g>
<!-- Node12&#45;&gt;Node44 -->
<g id="edge51" class="edge">
<title>Node12&#45;&gt;Node44</title>
<path fill="none" stroke="midnightblue" d="M232.16,-421.21C260.9,-414.84 303.95,-405.3 334.89,-398.44"/>
<polygon fill="midnightblue" stroke="midnightblue" points="335.87,-401.81 344.88,-396.23 334.36,-394.98 335.87,-401.81"/>
</g>
<!-- Node45 -->
<g id="node45" class="node">
<title>Node45</title>
<g id="a_node45"><a xlink:href="class_term.html#aab5d22a2c1060bfba638a5574d4c5639" target="_top" xlink:title="Print a warning message.">
<polygon fill="white" stroke="black" points="331,-304.5 331,-323.5 417,-323.5 417,-304.5 331,-304.5"/>
<text text-anchor="middle" x="374" y="-311.5" font-family="Helvetica,sans-Serif" font-size="10.00">Term::warning</text>
</a>
</g>
</g>
<!-- Node12&#45;&gt;Node45 -->
<g id="edge52" class="edge">
<title>Node12&#45;&gt;Node45</title>
<path fill="none" stroke="midnightblue" d="M208.23,-418.25C221.5,-399.78 252.9,-359.58 289,-338 298.67,-332.22 309.8,-327.77 320.72,-324.37"/>
<polygon fill="midnightblue" stroke="midnightblue" points="322,-327.65 330.65,-321.54 320.08,-320.92 322,-327.65"/>
</g>
<!-- Node46 -->
<g id="node46" class="node">
<title>Node46</title>
<g id="a_node46"><a xlink:href="class_log.html#a3410828f35c9bf8dd0771ead28de27b0" target="_top" xlink:title="Write contents to the log file.">
<polygon fill="white" stroke="black" points="341.5,-152.5 341.5,-171.5 406.5,-171.5 406.5,-152.5 341.5,-152.5"/>
<text text-anchor="middle" x="374" y="-159.5" font-family="Helvetica,sans-Serif" font-size="10.00">Log::write</text>
</a>
</g>
</g>
<!-- Node12&#45;&gt;Node46 -->
<g id="edge53" class="edge">
<title>Node12&#45;&gt;Node46</title>
<path fill="none" stroke="midnightblue" d="M201.97,-418.48C204.29,-382.4 217.48,-252.77 289,-186 300.44,-175.32 316.3,-169.35 331.17,-166.03"/>
<polygon fill="midnightblue" stroke="midnightblue" points="332.06,-169.42 341.23,-164.13 330.76,-162.54 332.06,-169.42"/>
</g>
<!-- Node15 -->
<g id="node15" class="node">
<title>Node15</title>
<g id="a_node15"><a xlink:href="class_calc.html#af1d1bd5e83f9e5196627f5a4e1a5ee83" target="_top" xlink:title=" ">
<polygon fill="white" stroke="black" points="637.5,-134.5 637.5,-153.5 762.5,-153.5 762.5,-134.5 637.5,-134.5"/>
<text text-anchor="middle" x="700" y="-141.5" font-family="Helvetica,sans-Serif" font-size="10.00">Calc::_changeFunction</text>
</a>
</g>
</g>
<!-- Node14&#45;&gt;Node15 -->
<g id="edge14" class="edge">
<title>Node14&#45;&gt;Node15</title>
<path fill="none" stroke="midnightblue" d="M565.32,-190.35C582.24,-182.35 607.36,-171.03 630,-163 636.53,-160.68 643.49,-158.48 650.38,-156.44"/>
<polygon fill="midnightblue" stroke="midnightblue" points="651.72,-159.7 660.37,-153.58 649.8,-152.97 651.72,-159.7"/>
</g>
<!-- Node18 -->
<g id="node18" class="node">
<title>Node18</title>
<g id="a_node18"><a xlink:href="class_calc.html#ae3d88bd40f9bdf2c8ec92c426bdca446" target="_top" xlink:title=" ">
<polygon fill="white" stroke="black" points="636.5,-96.5 636.5,-115.5 763.5,-115.5 763.5,-96.5 636.5,-96.5"/>
<text text-anchor="middle" x="700" y="-103.5" font-family="Helvetica,sans-Serif" font-size="10.00">Calc::_changeOperator</text>
</a>
</g>
</g>
<!-- Node14&#45;&gt;Node18 -->
<g id="edge17" class="edge">
<title>Node14&#45;&gt;Node18</title>
<path fill="none" stroke="midnightblue" d="M553.58,-190.41C567.53,-174.45 597.76,-142.5 630,-125 634.21,-122.71 638.73,-120.68 643.35,-118.89"/>
<polygon fill="midnightblue" stroke="midnightblue" points="644.67,-122.13 652.94,-115.51 642.34,-115.53 644.67,-122.13"/>
</g>
<!-- Node19 -->
<g id="node19" class="node">
<title>Node19</title>
<g id="a_node19"><a xlink:href="class_calc.html#ad95be528148e0d63848d5fa916b93200" target="_top" xlink:title=" ">
<polygon fill="white" stroke="black" points="644.5,-266.5 644.5,-285.5 755.5,-285.5 755.5,-266.5 644.5,-266.5"/>
<text text-anchor="middle" x="700" y="-273.5" font-family="Helvetica,sans-Serif" font-size="10.00">Calc::_changeParen</text>
</a>
</g>
</g>
<!-- Node14&#45;&gt;Node19 -->
<g id="edge18" class="edge">
<title>Node14&#45;&gt;Node19</title>
<path fill="none" stroke="midnightblue" d="M557.08,-209.62C572.71,-222.18 601.87,-244.06 630,-257 635.08,-259.34 640.51,-261.44 646,-263.32"/>
<polygon fill="midnightblue" stroke="midnightblue" points="645.31,-266.77 655.9,-266.46 647.43,-260.1 645.31,-266.77"/>
</g>
<!-- Node20 -->
<g id="node20" class="node">
<title>Node20</title>
<g id="a_node20"><a xlink:href="class_calc.html#ad562619fef96a73cd3b4c27b35bc5f91" target="_top" xlink:title=" ">
<polygon fill="white" stroke="black" points="635,-172.5 635,-191.5 765,-191.5 765,-172.5 635,-172.5"/>
<text text-anchor="middle" x="700" y="-179.5" font-family="Helvetica,sans-Serif" font-size="10.00">Calc::_changeSubScript</text>
</a>
</g>
</g>
<!-- Node14&#45;&gt;Node20 -->
<g id="edge19" class="edge">
<title>Node14&#45;&gt;Node20</title>
<path fill="none" stroke="midnightblue" d="M572.24,-196.86C586.95,-195.14 605.99,-192.91 624.83,-190.7"/>
<polygon fill="midnightblue" stroke="midnightblue" points="625.42,-194.15 634.94,-189.51 624.6,-187.2 625.42,-194.15"/>
</g>
<!-- Node24 -->
<g id="node24" class="node">
<title>Node24</title>
<g id="a_node24"><a xlink:href="class_calc.html#a1aec4748092712e0995c0ae5dabbf54f" target="_top" xlink:title=" ">
<polygon fill="white" stroke="black" points="630,-228.5 630,-247.5 770,-247.5 770,-228.5 630,-228.5"/>
<text text-anchor="middle" x="700" y="-235.5" font-family="Helvetica,sans-Serif" font-size="10.00">Calc::_changeSuperScript</text>
</a>
</g>
</g>
<!-- Node14&#45;&gt;Node24 -->
<g id="edge26" class="edge">
<title>Node14&#45;&gt;Node24</title>
<path fill="none" stroke="midnightblue" d="M572.24,-206.62C593.77,-211.95 624.61,-219.59 650.48,-225.99"/>
<polygon fill="midnightblue" stroke="midnightblue" points="649.94,-229.46 660.49,-228.47 651.62,-222.67 649.94,-229.46"/>
</g>
<!-- Node16 -->
<g id="node16" class="node">
<title>Node16</title>
<g id="a_node16"><a xlink:href="class_calc.html#a7d793eba0a7c9fcbafec4310359f165d" target="_top" xlink:title=" ">
<polygon fill="white" stroke="black" points="808,-96.5 808,-115.5 901,-115.5 901,-96.5 808,-96.5"/>
<text text-anchor="middle" x="854.5" y="-103.5" font-family="Helvetica,sans-Serif" font-size="10.00">Calc::_addArma</text>
</a>
</g>
</g>
<!-- Node15&#45;&gt;Node16 -->
<g id="edge15" class="edge">
<title>Node15&#45;&gt;Node16</title>
<path fill="none" stroke="midnightblue" d="M739.48,-134.41C759.52,-129.42 784.2,-123.27 805.48,-117.97"/>
<polygon fill="midnightblue" stroke="midnightblue" points="806.44,-121.33 815.29,-115.52 804.74,-114.54 806.44,-121.33"/>
</g>
<!-- Node17 -->
<g id="node17" class="node">
<title>Node17</title>
<g id="a_node17"><a xlink:href="class_calc.html#af58cd6a2174e577a6246366de03b949e" target="_top" xlink:title=" ">
<polygon fill="white" stroke="black" points="806,-134.5 806,-153.5 903,-153.5 903,-134.5 806,-134.5"/>
<text text-anchor="middle" x="854.5" y="-141.5" font-family="Helvetica,sans-Serif" font-size="10.00">Calc::_addMmce</text>
</a>
</g>
</g>
<!-- Node15&#45;&gt;Node17 -->
<g id="edge16" class="edge">
<title>Node15&#45;&gt;Node17</title>
<path fill="none" stroke="midnightblue" d="M762.59,-144C773.49,-144 784.8,-144 795.6,-144"/>
<polygon fill="midnightblue" stroke="midnightblue" points="795.76,-147.5 805.76,-144 795.76,-140.5 795.76,-147.5"/>
</g>
<!-- Node20&#45;&gt;Node7 -->
<g id="edge22" class="edge">
<title>Node20&#45;&gt;Node7</title>
<path fill="none" stroke="midnightblue" d="M731.51,-191.62C745.24,-197.44 760.47,-206.27 770,-219 781.7,-234.63 835.26,-519.73 849.83,-598.17"/>
<polygon fill="midnightblue" stroke="midnightblue" points="846.42,-598.99 851.69,-608.19 853.31,-597.72 846.42,-598.99"/>
</g>
<!-- Node20&#45;&gt;Node8 -->
<g id="edge23" class="edge">
<title>Node20&#45;&gt;Node8</title>
<path fill="none" stroke="midnightblue" d="M725.99,-191.57C740.06,-197.84 757.31,-207.09 770,-219 792.12,-239.76 788.14,-252.48 806,-277 815.93,-290.63 828.28,-305.13 837.9,-315.96"/>
<polygon fill="midnightblue" stroke="midnightblue" points="835.35,-318.35 844.64,-323.45 840.55,-313.67 835.35,-318.35"/>
</g>
<!-- Node20&#45;&gt;Node20 -->
<g id="edge20" class="edge">
<title>Node20&#45;&gt;Node20</title>
<path fill="none" stroke="midnightblue" d="M676.26,-191.76C664.72,-200.57 672.63,-210 700,-210 717.96,-210 727.54,-205.94 728.75,-200.65"/>
<polygon fill="midnightblue" stroke="midnightblue" points="731.69,-198.75 723.74,-191.76 725.59,-202.19 731.69,-198.75"/>
</g>
<!-- Node21 -->
<g id="node21" class="node">
<title>Node21</title>
<g id="a_node21"><a xlink:href="class_calc.html#a284818e83b0d85bdd029f3d72d4ef0bd" target="_top" xlink:title=" ">
<polygon fill="white" stroke="black" points="819.5,-248.5 819.5,-267.5 889.5,-267.5 889.5,-248.5 819.5,-248.5"/>
<text text-anchor="middle" x="854.5" y="-255.5" font-family="Helvetica,sans-Serif" font-size="10.00">Calc::_msg</text>
</a>
</g>
</g>
<!-- Node20&#45;&gt;Node21 -->
<g id="edge21" class="edge">
<title>Node20&#45;&gt;Node21</title>
<path fill="none" stroke="midnightblue" d="M718.91,-191.51C732.86,-198.94 752.7,-209.56 770,-219 786.07,-227.77 789.47,-231.14 806,-239 809.88,-240.84 813.99,-242.67 818.1,-244.42"/>
<polygon fill="midnightblue" stroke="midnightblue" points="817.03,-247.76 827.61,-248.33 819.69,-241.29 817.03,-247.76"/>
</g>
<!-- Node22 -->
<g id="node22" class="node">
<title>Node22</title>
<g id="a_node22"><a xlink:href="utils_8h.html#aa0a3ba0e1cec6f6b77334767af46eef7" target="_top" xlink:title="Check if the string is an unsigned integer.">
<polygon fill="white" stroke="black" points="832,-210.5 832,-229.5 877,-229.5 877,-210.5 832,-210.5"/>
<text text-anchor="middle" x="854.5" y="-217.5" font-family="Helvetica,sans-Serif" font-size="10.00">isUInt</text>
</a>
</g>
</g>
<!-- Node20&#45;&gt;Node22 -->
<g id="edge24" class="edge">
<title>Node20&#45;&gt;Node22</title>
<path fill="none" stroke="midnightblue" d="M739.48,-191.59C765,-197.95 798.07,-206.19 822.02,-212.15"/>
<polygon fill="midnightblue" stroke="midnightblue" points="821.44,-215.62 831.99,-214.64 823.14,-208.83 821.44,-215.62"/>
</g>
<!-- Node23 -->
<g id="node23" class="node">
<title>Node23</title>
<g id="a_node23"><a xlink:href="class_type___track.html#ab510214767b1b4d71e3beadecb814bb7" target="_top" xlink:title=" ">
<polygon fill="white" stroke="black" points="807,-172.5 807,-191.5 902,-191.5 902,-172.5 807,-172.5"/>
<text text-anchor="middle" x="854.5" y="-179.5" font-family="Helvetica,sans-Serif" font-size="10.00">Type_Track::size</text>
</a>
</g>
</g>
<!-- Node20&#45;&gt;Node23 -->
<g id="edge25" class="edge">
<title>Node20&#45;&gt;Node23</title>
<path fill="none" stroke="midnightblue" d="M765.23,-182C775.73,-182 786.55,-182 796.85,-182"/>
<polygon fill="midnightblue" stroke="midnightblue" points="796.95,-185.5 806.95,-182 796.95,-178.5 796.95,-185.5"/>
</g>
<!-- Node29&#45;&gt;Node14 -->
<g id="edge34" class="edge">
<title>Node29&#45;&gt;Node14</title>
<path fill="none" stroke="midnightblue" d="M417.09,-228.51C444.62,-222.3 480.26,-214.26 506.67,-208.31"/>
<polygon fill="midnightblue" stroke="midnightblue" points="507.68,-211.67 516.66,-206.05 506.14,-204.84 507.68,-211.67"/>
</g>
<!-- Node34 -->
<g id="node34" class="node">
<title>Node34</title>
<g id="a_node34"><a xlink:href="functions_8h.html#ac9dc58cb94b7547813c3a35154d97d18" target="_top" xlink:title=" ">
<polygon fill="white" stroke="black" points="505,-570.5 505,-589.5 584,-589.5 584,-570.5 505,-570.5"/>
<text text-anchor="middle" x="544.5" y="-577.5" font-family="Helvetica,sans-Serif" font-size="10.00">isFuncNoEnd</text>
</a>
</g>
</g>
<!-- Node33&#45;&gt;Node34 -->
<g id="edge39" class="edge">
<title>Node33&#45;&gt;Node34</title>
<path fill="none" stroke="midnightblue" d="M417.09,-580C440.63,-580 470.08,-580 494.64,-580"/>
<polygon fill="midnightblue" stroke="midnightblue" points="494.83,-583.5 504.83,-580 494.83,-576.5 494.83,-583.5"/>
</g>
<!-- Node35 -->
<g id="node35" class="node">
<title>Node35</title>
<g id="a_node35"><a xlink:href="utils_8h.html#af11c7cca5b9ad860da4bdb556dce3234" target="_top" xlink:title=" ">
<polygon fill="white" stroke="black" points="671,-570.5 671,-589.5 729,-589.5 729,-570.5 671,-570.5"/>
<text text-anchor="middle" x="700" y="-577.5" font-family="Helvetica,sans-Serif" font-size="10.00">contains</text>
</a>
</g>
</g>
<!-- Node34&#45;&gt;Node35 -->
<g id="edge40" class="edge">
<title>Node34&#45;&gt;Node35</title>
<path fill="none" stroke="midnightblue" d="M584.23,-580C607.65,-580 637.38,-580 660.71,-580"/>
<polygon fill="midnightblue" stroke="midnightblue" points="660.94,-583.5 670.94,-580 660.93,-576.5 660.94,-583.5"/>
</g>
<!-- Node36&#45;&gt;Node8 -->
<g id="edge42" class="edge">
<title>Node36&#45;&gt;Node8</title>
<path fill="none" stroke="midnightblue" d="M749.67,-320.06C770.66,-322.68 794.86,-325.69 814.62,-328.16"/>
<polygon fill="midnightblue" stroke="midnightblue" points="814.44,-331.66 824.8,-329.42 815.31,-324.71 814.44,-331.66"/>
</g>
<!-- Node38 -->
<g id="node38" class="node">
<title>Node38</title>
<g id="a_node38"><a xlink:href="utils_8h.html#aaaee605fe46abaa420448438d89b22ed" target="_top" xlink:title=" ">
<polygon fill="white" stroke="black" points="514.5,-532.5 514.5,-551.5 574.5,-551.5 574.5,-532.5 514.5,-532.5"/>
<text text-anchor="middle" x="544.5" y="-539.5" font-family="Helvetica,sans-Serif" font-size="10.00">isQuoted</text>
</a>
</g>
</g>
<!-- Node37&#45;&gt;Node38 -->
<g id="edge44" class="edge">
<title>Node37&#45;&gt;Node38</title>
<path fill="none" stroke="midnightblue" d="M415.79,-542C442.7,-542 477.76,-542 504.34,-542"/>
<polygon fill="midnightblue" stroke="midnightblue" points="504.43,-545.5 514.43,-542 504.43,-538.5 504.43,-545.5"/>
</g>
<!-- Node41 -->
<g id="node41" class="node">
<title>Node41</title>
<g id="a_node41"><a xlink:href="class_type.html#a5b8adffb334040c53940ecf814ebcc65" target="_top" xlink:title=" ">
<polygon fill="white" stroke="black" points="497,-475.5 497,-494.5 592,-494.5 592,-475.5 497,-475.5"/>
<text text-anchor="middle" x="544.5" y="-482.5" font-family="Helvetica,sans-Serif" font-size="10.00">Type::_getString</text>
</a>
</g>
</g>
<!-- Node40&#45;&gt;Node41 -->
<g id="edge47" class="edge">
<title>Node40&#45;&gt;Node41</title>
<path fill="none" stroke="midnightblue" d="M410.73,-470.03C432.81,-472.52 461.63,-475.77 486.77,-478.6"/>
<polygon fill="midnightblue" stroke="midnightblue" points="486.6,-482.11 496.93,-479.75 487.38,-475.15 486.6,-482.11"/>
</g>
<!-- Node42 -->
<g id="node42" class="node">
<title>Node42</title>
<g id="a_node42"><a xlink:href="class_type.html#a836b463aa4740a234e0d304ed4cd958f" target="_top" xlink:title=" ">
<polygon fill="white" stroke="black" points="495,-437.5 495,-456.5 594,-456.5 594,-437.5 495,-437.5"/>
<text text-anchor="middle" x="544.5" y="-444.5" font-family="Helvetica,sans-Serif" font-size="10.00">Type::isUnknown</text>
</a>
</g>
</g>
<!-- Node40&#45;&gt;Node42 -->
<g id="edge48" class="edge">
<title>Node40&#45;&gt;Node42</title>
<path fill="none" stroke="midnightblue" d="M410.73,-461.97C432.22,-459.55 460.08,-456.41 484.73,-453.63"/>
<polygon fill="midnightblue" stroke="midnightblue" points="485.17,-457.1 494.71,-452.5 484.38,-450.14 485.17,-457.1"/>
</g>
</g>
</svg>
