<?xml version="1.0" encoding="UTF-8" standalone="no"?>
<!DOCTYPE svg PUBLIC "-//W3C//DTD SVG 1.1//EN"
 "http://www.w3.org/Graphics/SVG/1.1/DTD/svg11.dtd">
<!-- Generated by graphviz version 2.43.0 (0)
 -->
<!-- Title: Export::_langMmcesimExtension Pages: 1 -->
<svg width="660pt" height="66pt"
 viewBox="0.00 0.00 660.00 66.00" xmlns="http://www.w3.org/2000/svg" xmlns:xlink="http://www.w3.org/1999/xlink">
<g id="graph0" class="graph" transform="scale(1 1) rotate(0) translate(4 62)">
<title>Export::_langMmcesimExtension</title>
<polygon fill="white" stroke="transparent" points="-4,4 -4,-62 656,-62 656,4 -4,4"/>
<!-- Node1 -->
<g id="node1" class="node">
<title>Node1</title>
<g id="a_node1"><a xlink:title=" ">
<polygon fill="#bfbfbf" stroke="black" points="476,-19.5 476,-38.5 652,-38.5 652,-19.5 476,-19.5"/>
<text text-anchor="middle" x="564" y="-26.5" font-family="Helvetica,sans-Serif" font-size="10.00">Export::_langMmcesimExtension</text>
</a>
</g>
</g>
<!-- Node2 -->
<g id="node2" class="node">
<title>Node2</title>
<g id="a_node2"><a xlink:href="class_export.html#a6000afae41f65b45b6a1e11447c1789c" target="_top" xlink:title=" ">
<polygon fill="white" stroke="black" points="312.5,-38.5 312.5,-57.5 419.5,-57.5 419.5,-38.5 312.5,-38.5"/>
<text text-anchor="middle" x="366" y="-45.5" font-family="Helvetica,sans-Serif" font-size="10.00">Export::_beginning</text>
</a>
</g>
</g>
<!-- Node1&#45;&gt;Node2 -->
<g id="edge1" class="edge">
<title>Node1&#45;&gt;Node2</title>
<path fill="none" stroke="midnightblue" d="M465.49,-38.45C449.64,-39.99 433.77,-41.53 419.54,-42.91"/>
<polygon fill="midnightblue" stroke="midnightblue" points="466.27,-41.89 475.89,-37.44 465.6,-34.93 466.27,-41.89"/>
</g>
<!-- Node6 -->
<g id="node6" class="node">
<title>Node6</title>
<g id="a_node6"><a xlink:href="class_export.html#ad7268f886ac4826f4b6ea738e423e520" target="_top" xlink:title=" ">
<polygon fill="white" stroke="black" points="292,-0.5 292,-19.5 440,-19.5 440,-0.5 292,-0.5"/>
<text text-anchor="middle" x="366" y="-7.5" font-family="Helvetica,sans-Serif" font-size="10.00">Export::_generateChannels</text>
</a>
</g>
</g>
<!-- Node1&#45;&gt;Node6 -->
<g id="edge5" class="edge">
<title>Node1&#45;&gt;Node6</title>
<path fill="none" stroke="midnightblue" d="M465.76,-19.57C457.12,-18.74 448.46,-17.9 440.07,-17.08"/>
<polygon fill="midnightblue" stroke="midnightblue" points="465.6,-23.07 475.89,-20.56 466.27,-16.11 465.6,-23.07"/>
</g>
<!-- Node3 -->
<g id="node3" class="node">
<title>Node3</title>
<g id="a_node3"><a xlink:href="class_export.html#affc37d1d677a83d3e5d36a4e37b7a72b" target="_top" xlink:title=" ">
<polygon fill="white" stroke="black" points="146,-19.5 146,-38.5 256,-38.5 256,-19.5 146,-19.5"/>
<text text-anchor="middle" x="201" y="-26.5" font-family="Helvetica,sans-Serif" font-size="10.00">Export::exportCode</text>
</a>
</g>
</g>
<!-- Node2&#45;&gt;Node3 -->
<g id="edge2" class="edge">
<title>Node2&#45;&gt;Node3</title>
<path fill="none" stroke="midnightblue" d="M301.79,-40.63C286.69,-38.87 270.7,-37.01 256.05,-35.3"/>
<polygon fill="midnightblue" stroke="midnightblue" points="301.74,-44.15 312.08,-41.83 302.55,-37.2 301.74,-44.15"/>
</g>
<!-- Node4 -->
<g id="node4" class="node">
<title>Node4</title>
<g id="a_node4"><a xlink:href="class_export.html#a94fab568af6ddd6447efca74e205e081" target="_top" xlink:title=" ">
<polygon fill="white" stroke="black" points="0,-38.5 0,-57.5 110,-57.5 110,-38.5 0,-38.5"/>
<text text-anchor="middle" x="55" y="-45.5" font-family="Helvetica,sans-Serif" font-size="10.00">Export::exportCode</text>
</a>
</g>
</g>
<!-- Node3&#45;&gt;Node4 -->
<g id="edge3" class="edge">
<title>Node3&#45;&gt;Node4</title>
<path fill="none" stroke="midnightblue" d="M136.01,-37.44C127.44,-38.57 118.72,-39.73 110.33,-40.83"/>
<polygon fill="midnightblue" stroke="midnightblue" points="136.51,-40.91 145.97,-36.13 135.6,-33.97 136.51,-40.91"/>
</g>
<!-- Node5 -->
<g id="node5" class="node">
<title>Node5</title>
<g id="a_node5"><a xlink:href="src_2main_8cpp.html#a0ddf1224851353fc92bfbff6f499fa97" target="_top" xlink:title=" ">
<polygon fill="white" stroke="black" points="34.5,-0.5 34.5,-19.5 75.5,-19.5 75.5,-0.5 34.5,-0.5"/>
<text text-anchor="middle" x="55" y="-7.5" font-family="Helvetica,sans-Serif" font-size="10.00">main</text>
</a>
</g>
</g>
<!-- Node3&#45;&gt;Node5 -->
<g id="edge4" class="edge">
<title>Node3&#45;&gt;Node5</title>
<path fill="none" stroke="midnightblue" d="M136.05,-20.56C114.24,-17.68 91.43,-14.67 75.76,-12.61"/>
<polygon fill="midnightblue" stroke="midnightblue" points="135.6,-24.03 145.97,-21.87 136.51,-17.09 135.6,-24.03"/>
</g>
<!-- Node6&#45;&gt;Node3 -->
<g id="edge6" class="edge">
<title>Node6&#45;&gt;Node3</title>
<path fill="none" stroke="midnightblue" d="M281.59,-19.72C273.05,-20.72 264.54,-21.71 256.44,-22.65"/>
<polygon fill="midnightblue" stroke="midnightblue" points="282.08,-23.19 291.61,-18.56 281.27,-16.24 282.08,-23.19"/>
</g>
</g>
</svg>
