<?xml version="1.0" encoding="UTF-8" standalone="no"?>
<!DOCTYPE svg PUBLIC "-//W3C//DTD SVG 1.1//EN"
 "http://www.w3.org/Graphics/SVG/1.1/DTD/svg11.dtd">
<!-- Generated by graphviz version 2.43.0 (0)
 -->
<!-- Title: Alg::write Pages: 1 -->
<!--zoomable 939 -->
<svg id="main" version="1.1" xmlns="http://www.w3.org/2000/svg" xmlns:xlink="http://www.w3.org/1999/xlink" xml:space="preserve" onload="init(evt)">
<style type="text/css"><![CDATA[
.edge:hover path { stroke: red; }
.edge:hover polygon { stroke: red; fill: red; }
]]></style>
<script type="text/javascript"><![CDATA[
var edges = document.getElementsByTagName('g');
if (edges && edges.length) {
  for (var i=0;i<edges.length;i++) {
    if (edges[i].id.substr(0,4)=='edge') {
      edges[i].setAttribute('class','edge');
    }
  }
}
]]></script>
        <defs>
                <circle id="rim" cx="0" cy="0" r="7"/>
                <circle id="rim2" cx="0" cy="0" r="3.5"/>
                <g id="zoomPlus">
                        <use xlink:href="#rim" fill="#404040">
                                <set attributeName="fill" to="#808080" begin="zoomplus.mouseover" end="zoomplus.mouseout"/>
                        </use>
                        <path d="M-4,0h8M0,-4v8" fill="none" stroke="white" stroke-width="1.5" pointer-events="none"/>
                </g>
                <g id="zoomMin">
                        <use xlink:href="#rim" fill="#404040">
                                <set attributeName="fill" to="#808080" begin="zoomminus.mouseover" end="zoomminus.mouseout"/>
                        </use>
                        <path d="M-4,0h8" fill="none" stroke="white" stroke-width="1.5" pointer-events="none"/>
                </g>
                <g id="dirArrow">
                        <path fill="none" stroke="white" stroke-width="1.5" d="M0,-3.0v7 M-2.5,-0.5L0,-3.0L2.5,-0.5"/>
                </g>
               <g id="resetDef">
                       <use xlink:href="#rim2" fill="#404040">
                               <set attributeName="fill" to="#808080" begin="reset.mouseover" end="reset.mouseout"/>
                       </use>
               </g>
        </defs>

<script type="text/javascript">
var viewWidth = 721;
var viewHeight = 939;
var sectionId = 'dynsection-7';
</script>
<script xlink:href="svgpan.js"/>
<svg id="graph" class="graph">
<g id="viewport">
<title>Alg::write</title>
<polygon fill="white" stroke="transparent" points="-4,4 -4,-935 717,-935 717,4 -4,4"/>
<!-- Node1 -->
<g id="node1" class="node">
<title>Node1</title>
<g id="a_node1"><a xlink:title=" ">
<polygon fill="#bfbfbf" stroke="black" points="0,-399.5 0,-418.5 63,-418.5 63,-399.5 0,-399.5"/>
<text text-anchor="middle" x="31.5" y="-406.5" font-family="Helvetica,sans-Serif" font-size="10.00">Alg::write</text>
</a>
</g>
</g>
<!-- Node1&#45;&gt;Node1 -->
<g id="edge45" class="edge">
<title>Node1&#45;&gt;Node1</title>
<path fill="none" stroke="midnightblue" d="M8.07,-418.76C-3.32,-427.57 4.48,-437 31.5,-437 49.23,-437 58.69,-432.94 59.87,-427.65"/>
<polygon fill="midnightblue" stroke="midnightblue" points="62.84,-425.8 54.93,-418.76 56.73,-429.2 62.84,-425.8"/>
</g>
<!-- Node2 -->
<g id="node2" class="node">
<title>Node2</title>
<g id="a_node2"><a xlink:href="class_alg.html#a2cf2b7f4e37c8e401d9c6dad6687917d" target="_top" xlink:title=" ">
<polygon fill="white" stroke="black" points="134,-798.5 134,-817.5 234,-817.5 234,-798.5 134,-798.5"/>
<text text-anchor="middle" x="184" y="-805.5" font-family="Helvetica,sans-Serif" font-size="10.00">Alg::_wComment</text>
</a>
</g>
</g>
<!-- Node1&#45;&gt;Node2 -->
<g id="edge1" class="edge">
<title>Node1&#45;&gt;Node2</title>
<path fill="none" stroke="midnightblue" d="M32.87,-418.76C35.09,-472.07 48.29,-727.79 99,-784 105.78,-791.52 114.74,-796.75 124.27,-800.37"/>
<polygon fill="midnightblue" stroke="midnightblue" points="123.35,-803.75 133.94,-803.48 125.5,-797.08 123.35,-803.75"/>
</g>
<!-- Node3 -->
<g id="node3" class="node">
<title>Node3</title>
<g id="a_node3"><a xlink:href="class_calc.html#ad6dbdfdd4bd21322e5836ff72c11ae1b" target="_top" xlink:title="Convert the Alg CALC contents into a language command.">
<polygon fill="white" stroke="black" points="327,-760.5 327,-779.5 382,-779.5 382,-760.5 327,-760.5"/>
<text text-anchor="middle" x="354.5" y="-767.5" font-family="Helvetica,sans-Serif" font-size="10.00">Calc::as</text>
</a>
</g>
</g>
<!-- Node1&#45;&gt;Node3 -->
<g id="edge2" class="edge">
<title>Node1&#45;&gt;Node3</title>
<path fill="none" stroke="midnightblue" d="M32.86,-418.73C34.98,-469.7 47.46,-705.19 99,-751 130.23,-778.76 253.56,-775.93 316.35,-772.52"/>
<polygon fill="midnightblue" stroke="midnightblue" points="316.83,-775.99 326.61,-771.92 316.42,-769.01 316.83,-775.99"/>
</g>
<!-- Node11 -->
<g id="node11" class="node">
<title>Node11</title>
<g id="a_node11"><a xlink:href="class_log.html#ac7147942832455398ad289b706a02616" target="_top" xlink:title="Write error message to the log file.">
<polygon fill="white" stroke="black" points="638,-684.5 638,-703.5 691,-703.5 691,-684.5 638,-684.5"/>
<text text-anchor="middle" x="664.5" y="-691.5" font-family="Helvetica,sans-Serif" font-size="10.00">Log::err</text>
</a>
</g>
</g>
<!-- Node1&#45;&gt;Node11 -->
<g id="edge17" class="edge">
<title>Node1&#45;&gt;Node11</title>
<path fill="none" stroke="midnightblue" d="M33.57,-418.62C38.46,-460.85 60.2,-629.29 99,-662 178.88,-729.35 516.27,-706.81 627.65,-697.31"/>
<polygon fill="midnightblue" stroke="midnightblue" points="628.05,-700.79 637.71,-696.44 627.44,-693.82 628.05,-700.79"/>
</g>
<!-- Node12 -->
<g id="node12" class="node">
<title>Node12</title>
<g id="a_node12"><a xlink:href="class_log.html#add7e611cd3267d3fd5dae017e3aeef67" target="_top" xlink:title="Write infomation to the log file.">
<polygon fill="white" stroke="black" points="635,-646.5 635,-665.5 694,-665.5 694,-646.5 635,-646.5"/>
<text text-anchor="middle" x="664.5" y="-653.5" font-family="Helvetica,sans-Serif" font-size="10.00">Log::info</text>
</a>
</g>
</g>
<!-- Node1&#45;&gt;Node12 -->
<g id="edge21" class="edge">
<title>Node1&#45;&gt;Node12</title>
<path fill="none" stroke="midnightblue" d="M31.95,-418.97C30.62,-454.34 31.39,-574.49 99,-628 180.14,-692.22 510.76,-669.63 624.69,-659.68"/>
<polygon fill="midnightblue" stroke="midnightblue" points="625.06,-663.16 634.72,-658.78 624.44,-656.18 625.06,-663.16"/>
</g>
<!-- Node16 -->
<g id="node16" class="node">
<title>Node16</title>
<g id="a_node16"><a xlink:href="class_type.html#abe15820e780d2f6646792d54f3ae3311" target="_top" xlink:title=" ">
<polygon fill="white" stroke="black" points="152,-570.5 152,-589.5 216,-589.5 216,-570.5 152,-570.5"/>
<text text-anchor="middle" x="184" y="-577.5" font-family="Helvetica,sans-Serif" font-size="10.00">Type::dim</text>
</a>
</g>
</g>
<!-- Node1&#45;&gt;Node16 -->
<g id="edge16" class="edge">
<title>Node1&#45;&gt;Node16</title>
<path fill="none" stroke="midnightblue" d="M33.71,-418.61C37.63,-445.61 52.59,-522.66 99,-561 110.89,-570.83 126.85,-575.82 141.66,-578.28"/>
<polygon fill="midnightblue" stroke="midnightblue" points="141.29,-581.76 151.66,-579.6 142.21,-574.82 141.29,-581.76"/>
</g>
<!-- Node17 -->
<g id="node17" class="node">
<title>Node17</title>
<g id="a_node17"><a xlink:href="class_term.html#abd955a8def100354b03e33911c3b21f8" target="_top" xlink:title="Print error message.">
<polygon fill="white" stroke="black" points="149,-532.5 149,-551.5 219,-551.5 219,-532.5 149,-532.5"/>
<text text-anchor="middle" x="184" y="-539.5" font-family="Helvetica,sans-Serif" font-size="10.00">Term::error</text>
</a>
</g>
</g>
<!-- Node1&#45;&gt;Node17 -->
<g id="edge18" class="edge">
<title>Node1&#45;&gt;Node17</title>
<path fill="none" stroke="midnightblue" d="M35.25,-418.75C42.04,-441.02 61.86,-495.77 99,-523 110.43,-531.38 124.92,-536.16 138.64,-538.86"/>
<polygon fill="midnightblue" stroke="midnightblue" points="138.47,-542.38 148.91,-540.54 139.6,-535.47 138.47,-542.38"/>
</g>
<!-- Node18 -->
<g id="node18" class="node">
<title>Node18</title>
<g id="a_node18"><a xlink:href="class_alg___line.html#af651454e6ddfce164626b68b2c6cba97" target="_top" xlink:title="Get the function name.">
<polygon fill="white" stroke="black" points="141.5,-494.5 141.5,-513.5 226.5,-513.5 226.5,-494.5 141.5,-494.5"/>
<text text-anchor="middle" x="184" y="-501.5" font-family="Helvetica,sans-Serif" font-size="10.00">Alg_Line::func</text>
</a>
</g>
</g>
<!-- Node1&#45;&gt;Node18 -->
<g id="edge19" class="edge">
<title>Node1&#45;&gt;Node18</title>
<path fill="none" stroke="midnightblue" d="M38.09,-418.67C48.09,-435.05 70.68,-468.13 99,-485 108.84,-490.86 120.3,-494.91 131.55,-497.72"/>
<polygon fill="midnightblue" stroke="midnightblue" points="130.8,-501.14 141.32,-499.87 132.31,-494.3 130.8,-501.14"/>
</g>
<!-- Node19 -->
<g id="node19" class="node">
<title>Node19</title>
<g id="a_node19"><a xlink:href="class_alg___line.html#a49a98870a1f09e35a3e15a7d7bab1666" target="_top" xlink:title="Check whether parameters contain the key.">
<polygon fill="white" stroke="black" points="134.5,-456.5 134.5,-475.5 233.5,-475.5 233.5,-456.5 134.5,-456.5"/>
<text text-anchor="middle" x="184" y="-463.5" font-family="Helvetica,sans-Serif" font-size="10.00">Alg_Line::hasKey</text>
</a>
</g>
</g>
<!-- Node1&#45;&gt;Node19 -->
<g id="edge20" class="edge">
<title>Node1&#45;&gt;Node19</title>
<path fill="none" stroke="midnightblue" d="M46.42,-418.59C59.46,-427.18 79.79,-439.53 99,-447 107.1,-450.15 115.85,-452.85 124.54,-455.14"/>
<polygon fill="midnightblue" stroke="midnightblue" points="123.74,-458.55 134.29,-457.55 125.43,-451.75 123.74,-458.55"/>
</g>
<!-- Node20 -->
<g id="node20" class="node">
<title>Node20</title>
<g id="a_node20"><a xlink:href="class_alg.html#a3ee7f9963027158b3fbd442d97800111" target="_top" xlink:title=" ">
<polygon fill="white" stroke="black" points="141,-722.5 141,-741.5 227,-741.5 227,-722.5 141,-722.5"/>
<text text-anchor="middle" x="184" y="-729.5" font-family="Helvetica,sans-Serif" font-size="10.00">Alg::inlineCalc</text>
</a>
</g>
</g>
<!-- Node1&#45;&gt;Node20 -->
<g id="edge22" class="edge">
<title>Node1&#45;&gt;Node20</title>
<path fill="none" stroke="midnightblue" d="M33.33,-418.55C37.51,-464.72 57.79,-664.26 99,-708 107.45,-716.97 119,-722.66 130.83,-726.26"/>
<polygon fill="midnightblue" stroke="midnightblue" points="130.21,-729.71 140.77,-728.81 131.95,-722.93 130.21,-729.71"/>
</g>
<!-- Node21 -->
<g id="node21" class="node">
<title>Node21</title>
<g id="a_node21"><a xlink:href="class_alg___line.html#ad419191a99be7e34024e569ad833b04e" target="_top" xlink:title="Check whether the line is for function declaration.">
<polygon fill="white" stroke="black" points="99,-418.5 99,-437.5 269,-437.5 269,-418.5 99,-418.5"/>
<text text-anchor="middle" x="184" y="-425.5" font-family="Helvetica,sans-Serif" font-size="10.00">Alg_Line::isFunctionDeclaration</text>
</a>
</g>
</g>
<!-- Node1&#45;&gt;Node21 -->
<g id="edge24" class="edge">
<title>Node1&#45;&gt;Node21</title>
<path fill="none" stroke="midnightblue" d="M63.32,-412.89C73.4,-414.16 85.13,-415.64 97.24,-417.17"/>
<polygon fill="midnightblue" stroke="midnightblue" points="97.1,-420.68 107.46,-418.46 97.98,-413.74 97.1,-420.68"/>
</g>
<!-- Node22 -->
<g id="node22" class="node">
<title>Node22</title>
<g id="a_node22"><a xlink:href="class_alg.html#af935e64a6eb4afa4ca1540f4da3dcc9c" target="_top" xlink:title=" ">
<polygon fill="white" stroke="black" points="156,-380.5 156,-399.5 212,-399.5 212,-380.5 156,-380.5"/>
<text text-anchor="middle" x="184" y="-387.5" font-family="Helvetica,sans-Serif" font-size="10.00">Alg::line</text>
</a>
</g>
</g>
<!-- Node1&#45;&gt;Node22 -->
<g id="edge25" class="edge">
<title>Node1&#45;&gt;Node22</title>
<path fill="none" stroke="midnightblue" d="M63.32,-405.11C87.2,-402.09 120.39,-397.9 145.76,-394.7"/>
<polygon fill="midnightblue" stroke="midnightblue" points="146.28,-398.16 155.76,-393.44 145.4,-391.22 146.28,-398.16"/>
</g>
<!-- Node23 -->
<g id="node23" class="node">
<title>Node23</title>
<g id="a_node23"><a xlink:href="class_alg___line.html#a4e79eb77a1cddbdab1dbdde8a499342d" target="_top" xlink:title="Parameter variables.">
<polygon fill="white" stroke="black" points="133.5,-342.5 133.5,-361.5 234.5,-361.5 234.5,-342.5 133.5,-342.5"/>
<text text-anchor="middle" x="184" y="-349.5" font-family="Helvetica,sans-Serif" font-size="10.00">Alg_Line::params</text>
</a>
</g>
</g>
<!-- Node1&#45;&gt;Node23 -->
<g id="edge26" class="edge">
<title>Node1&#45;&gt;Node23</title>
<path fill="none" stroke="midnightblue" d="M46.42,-399.41C59.46,-390.82 79.79,-378.47 99,-371 106.81,-367.96 115.23,-365.34 123.62,-363.11"/>
<polygon fill="midnightblue" stroke="midnightblue" points="124.56,-366.48 133.41,-360.65 122.86,-359.69 124.56,-366.48"/>
</g>
<!-- Node24 -->
<g id="node24" class="node">
<title>Node24</title>
<g id="a_node24"><a xlink:href="class_alg___line.html#a801b08c6c164376039a4ba4e980d039e" target="_top" xlink:title="Print Alg_Line contents (including return values, function names and parameters).">
<polygon fill="white" stroke="black" points="141,-304.5 141,-323.5 227,-323.5 227,-304.5 141,-304.5"/>
<text text-anchor="middle" x="184" y="-311.5" font-family="Helvetica,sans-Serif" font-size="10.00">Alg_Line::print</text>
</a>
</g>
</g>
<!-- Node1&#45;&gt;Node24 -->
<g id="edge27" class="edge">
<title>Node1&#45;&gt;Node24</title>
<path fill="none" stroke="midnightblue" d="M38.09,-399.33C48.09,-382.95 70.68,-349.87 99,-333 108.64,-327.26 119.84,-323.25 130.87,-320.45"/>
<polygon fill="midnightblue" stroke="midnightblue" points="131.9,-323.81 140.89,-318.21 130.37,-316.98 131.9,-323.81"/>
</g>
<!-- Node27 -->
<g id="node27" class="node">
<title>Node27</title>
<g id="a_node27"><a xlink:href="class_type___track.html#a4548ba1c289fba60e88b0e725509219e" target="_top" xlink:title=" ">
<polygon fill="white" stroke="black" points="460.5,-608.5 460.5,-627.5 559.5,-627.5 559.5,-608.5 460.5,-608.5"/>
<text text-anchor="middle" x="510" y="-615.5" font-family="Helvetica,sans-Serif" font-size="10.00">Type_Track::push</text>
</a>
</g>
</g>
<!-- Node1&#45;&gt;Node27 -->
<g id="edge30" class="edge">
<title>Node1&#45;&gt;Node27</title>
<path fill="none" stroke="midnightblue" d="M32.43,-418.61C32.79,-450.61 38.74,-554.11 99,-599 152.95,-639.19 350.36,-630.43 450.26,-623.06"/>
<polygon fill="midnightblue" stroke="midnightblue" points="450.78,-626.53 460.49,-622.29 450.25,-619.55 450.78,-626.53"/>
</g>
<!-- Node28 -->
<g id="node28" class="node">
<title>Node28</title>
<g id="a_node28"><a xlink:href="utils_8h.html#a0465457013518e168df05799c93cfa6e" target="_top" xlink:title=" ">
<polygon fill="white" stroke="black" points="142.5,-266.5 142.5,-285.5 225.5,-285.5 225.5,-266.5 142.5,-266.5"/>
<text text-anchor="middle" x="184" y="-273.5" font-family="Helvetica,sans-Serif" font-size="10.00">removeQuote</text>
</a>
</g>
</g>
<!-- Node1&#45;&gt;Node28 -->
<g id="edge32" class="edge">
<title>Node1&#45;&gt;Node28</title>
<path fill="none" stroke="midnightblue" d="M35.25,-399.25C42.04,-376.98 61.86,-322.23 99,-295 108.7,-287.89 120.61,-283.37 132.37,-280.52"/>
<polygon fill="midnightblue" stroke="midnightblue" points="133.08,-283.94 142.16,-278.49 131.66,-277.09 133.08,-283.94"/>
</g>
<!-- Node30 -->
<g id="node30" class="node">
<title>Node30</title>
<g id="a_node30"><a xlink:href="class_alg___line.html#a8e21f6b69eaf80a2327f7308fb4299e0" target="_top" xlink:title="Return variables.">
<polygon fill="white" stroke="black" points="135,-228.5 135,-247.5 233,-247.5 233,-228.5 135,-228.5"/>
<text text-anchor="middle" x="184" y="-235.5" font-family="Helvetica,sans-Serif" font-size="10.00">Alg_Line::returns</text>
</a>
</g>
</g>
<!-- Node1&#45;&gt;Node30 -->
<g id="edge34" class="edge">
<title>Node1&#45;&gt;Node30</title>
<path fill="none" stroke="midnightblue" d="M33.71,-399.39C37.63,-372.39 52.59,-295.34 99,-257 106.44,-250.85 115.48,-246.6 124.82,-243.67"/>
<polygon fill="midnightblue" stroke="midnightblue" points="125.85,-247.02 134.62,-241.08 124.06,-240.25 125.85,-247.02"/>
</g>
<!-- Node31 -->
<g id="node31" class="node">
<title>Node31</title>
<g id="a_node31"><a xlink:href="class_type.html#a0153b8ff39040caf3ff2a6f7c7329d7c" target="_top" xlink:title="Get the C++ type name.">
<polygon fill="white" stroke="black" points="147.5,-190.5 147.5,-209.5 220.5,-209.5 220.5,-190.5 147.5,-190.5"/>
<text text-anchor="middle" x="184" y="-197.5" font-family="Helvetica,sans-Serif" font-size="10.00">Type::string</text>
</a>
</g>
</g>
<!-- Node1&#45;&gt;Node31 -->
<g id="edge35" class="edge">
<title>Node1&#45;&gt;Node31</title>
<path fill="none" stroke="midnightblue" d="M32.78,-399.36C34.22,-368.1 43.18,-268.78 99,-219 109.4,-209.72 123.37,-204.68 136.93,-202.02"/>
<polygon fill="midnightblue" stroke="midnightblue" points="137.81,-205.43 147.15,-200.42 136.73,-198.51 137.81,-205.43"/>
</g>
<!-- Node34 -->
<g id="node34" class="node">
<title>Node34</title>
<g id="a_node34"><a xlink:href="namespacemmce.html#ad4a160832ef9fad47c531ece39752208" target="_top" xlink:title="Change a number to string.">
<polygon fill="white" stroke="black" points="136,-152.5 136,-171.5 232,-171.5 232,-152.5 136,-152.5"/>
<text text-anchor="middle" x="184" y="-159.5" font-family="Helvetica,sans-Serif" font-size="10.00">mmce::to_string</text>
</a>
</g>
</g>
<!-- Node1&#45;&gt;Node34 -->
<g id="edge38" class="edge">
<title>Node1&#45;&gt;Node34</title>
<path fill="none" stroke="midnightblue" d="M32.13,-399.49C31.34,-364.62 33.52,-242.58 99,-181 106.43,-174.01 115.87,-169.4 125.72,-166.39"/>
<polygon fill="midnightblue" stroke="midnightblue" points="126.81,-169.72 135.65,-163.89 125.1,-162.94 126.81,-169.72"/>
</g>
<!-- Node35 -->
<g id="node35" class="node">
<title>Node35</title>
<g id="a_node35"><a xlink:href="utils_8h.html#a6ef734356291c638e5787a6c668192d4" target="_top" xlink:title=" ">
<polygon fill="white" stroke="black" points="165.5,-114.5 165.5,-133.5 202.5,-133.5 202.5,-114.5 165.5,-114.5"/>
<text text-anchor="middle" x="184" y="-121.5" font-family="Helvetica,sans-Serif" font-size="10.00">trim</text>
</a>
</g>
</g>
<!-- Node1&#45;&gt;Node35 -->
<g id="edge39" class="edge">
<title>Node1&#45;&gt;Node35</title>
<path fill="none" stroke="midnightblue" d="M33.57,-399.32C38.56,-355.97 60.88,-180.27 99,-143 113.75,-128.58 136.99,-124.19 155.29,-123.2"/>
<polygon fill="midnightblue" stroke="midnightblue" points="155.48,-126.69 165.39,-122.96 155.31,-119.69 155.48,-126.69"/>
</g>
<!-- Node38 -->
<g id="node38" class="node">
<title>Node38</title>
<g id="a_node38"><a xlink:href="class_log.html#ab61203710351f6d33d7ba634d2c4eb32" target="_top" xlink:title="Write warning message to the log file.">
<polygon fill="white" stroke="black" points="155,-76.5 155,-95.5 213,-95.5 213,-76.5 155,-76.5"/>
<text text-anchor="middle" x="184" y="-83.5" font-family="Helvetica,sans-Serif" font-size="10.00">Log::war</text>
</a>
</g>
</g>
<!-- Node1&#45;&gt;Node38 -->
<g id="edge42" class="edge">
<title>Node1&#45;&gt;Node38</title>
<path fill="none" stroke="midnightblue" d="M33.25,-399.24C37.09,-352.08 55.99,-148.32 99,-105 110.84,-93.08 128.47,-87.96 144.53,-85.97"/>
<polygon fill="midnightblue" stroke="midnightblue" points="145.12,-89.43 154.78,-85.08 144.51,-82.46 145.12,-89.43"/>
</g>
<!-- Node39 -->
<g id="node39" class="node">
<title>Node39</title>
<g id="a_node39"><a xlink:href="class_term.html#aab5d22a2c1060bfba638a5574d4c5639" target="_top" xlink:title="Print a warning message.">
<polygon fill="white" stroke="black" points="141,-38.5 141,-57.5 227,-57.5 227,-38.5 141,-38.5"/>
<text text-anchor="middle" x="184" y="-45.5" font-family="Helvetica,sans-Serif" font-size="10.00">Term::warning</text>
</a>
</g>
</g>
<!-- Node1&#45;&gt;Node39 -->
<g id="edge43" class="edge">
<title>Node1&#45;&gt;Node39</title>
<path fill="none" stroke="midnightblue" d="M32.99,-399.4C35.75,-349.11 50.99,-116.49 99,-67 107.46,-58.28 119.01,-53.18 130.84,-50.28"/>
<polygon fill="midnightblue" stroke="midnightblue" points="131.64,-53.69 140.78,-48.34 130.29,-46.82 131.64,-53.69"/>
</g>
<!-- Node40 -->
<g id="node40" class="node">
<title>Node40</title>
<g id="a_node40"><a xlink:href="class_log.html#a3410828f35c9bf8dd0771ead28de27b0" target="_top" xlink:title="Write contents to the log file.">
<polygon fill="white" stroke="black" points="151.5,-0.5 151.5,-19.5 216.5,-19.5 216.5,-0.5 151.5,-0.5"/>
<text text-anchor="middle" x="184" y="-7.5" font-family="Helvetica,sans-Serif" font-size="10.00">Log::write</text>
</a>
</g>
</g>
<!-- Node1&#45;&gt;Node40 -->
<g id="edge44" class="edge">
<title>Node1&#45;&gt;Node40</title>
<path fill="none" stroke="midnightblue" d="M32.79,-399.42C34.58,-345.92 46.01,-84.66 99,-29 109.81,-17.65 125.84,-12.41 141.02,-10.18"/>
<polygon fill="midnightblue" stroke="midnightblue" points="141.74,-13.62 151.31,-9.07 141,-6.66 141.74,-13.62"/>
</g>
<!-- Node4 -->
<g id="node4" class="node">
<title>Node4</title>
<g id="a_node4"><a xlink:href="class_calc.html#af1d1bd5e83f9e5196627f5a4e1a5ee83" target="_top" xlink:title=" ">
<polygon fill="white" stroke="black" points="447.5,-892.5 447.5,-911.5 572.5,-911.5 572.5,-892.5 447.5,-892.5"/>
<text text-anchor="middle" x="510" y="-899.5" font-family="Helvetica,sans-Serif" font-size="10.00">Calc::_changeFunction</text>
</a>
</g>
</g>
<!-- Node3&#45;&gt;Node4 -->
<g id="edge3" class="edge">
<title>Node3&#45;&gt;Node4</title>
<path fill="none" stroke="midnightblue" d="M359.89,-779.56C370.43,-801.42 399.33,-855.25 440,-883 442.91,-884.99 446.02,-886.76 449.26,-888.36"/>
<polygon fill="midnightblue" stroke="midnightblue" points="448.06,-891.65 458.63,-892.38 450.82,-885.22 448.06,-891.65"/>
</g>
<!-- Node7 -->
<g id="node7" class="node">
<title>Node7</title>
<g id="a_node7"><a xlink:href="class_calc.html#ae3d88bd40f9bdf2c8ec92c426bdca446" target="_top" xlink:title=" ">
<polygon fill="white" stroke="black" points="446.5,-854.5 446.5,-873.5 573.5,-873.5 573.5,-854.5 446.5,-854.5"/>
<text text-anchor="middle" x="510" y="-861.5" font-family="Helvetica,sans-Serif" font-size="10.00">Calc::_changeOperator</text>
</a>
</g>
</g>
<!-- Node3&#45;&gt;Node7 -->
<g id="edge6" class="edge">
<title>Node3&#45;&gt;Node7</title>
<path fill="none" stroke="midnightblue" d="M363.58,-779.59C377.53,-795.55 407.76,-827.5 440,-845 444.21,-847.29 448.73,-849.32 453.35,-851.11"/>
<polygon fill="midnightblue" stroke="midnightblue" points="452.34,-854.47 462.94,-854.49 454.67,-847.87 452.34,-854.47"/>
</g>
<!-- Node8 -->
<g id="node8" class="node">
<title>Node8</title>
<g id="a_node8"><a xlink:href="class_calc.html#ad95be528148e0d63848d5fa916b93200" target="_top" xlink:title=" ">
<polygon fill="white" stroke="black" points="454.5,-816.5 454.5,-835.5 565.5,-835.5 565.5,-816.5 454.5,-816.5"/>
<text text-anchor="middle" x="510" y="-823.5" font-family="Helvetica,sans-Serif" font-size="10.00">Calc::_changeParen</text>
</a>
</g>
</g>
<!-- Node3&#45;&gt;Node8 -->
<g id="edge7" class="edge">
<title>Node3&#45;&gt;Node8</title>
<path fill="none" stroke="midnightblue" d="M375.32,-779.65C392.24,-787.65 417.36,-798.97 440,-807 446.53,-809.32 453.49,-811.52 460.38,-813.56"/>
<polygon fill="midnightblue" stroke="midnightblue" points="459.8,-817.03 470.37,-816.42 461.72,-810.3 459.8,-817.03"/>
</g>
<!-- Node9 -->
<g id="node9" class="node">
<title>Node9</title>
<g id="a_node9"><a xlink:href="class_calc.html#ad562619fef96a73cd3b4c27b35bc5f91" target="_top" xlink:title=" ">
<polygon fill="white" stroke="black" points="445,-760.5 445,-779.5 575,-779.5 575,-760.5 445,-760.5"/>
<text text-anchor="middle" x="510" y="-767.5" font-family="Helvetica,sans-Serif" font-size="10.00">Calc::_changeSubScript</text>
</a>
</g>
</g>
<!-- Node3&#45;&gt;Node9 -->
<g id="edge8" class="edge">
<title>Node3&#45;&gt;Node9</title>
<path fill="none" stroke="midnightblue" d="M382.24,-770C396.95,-770 415.99,-770 434.83,-770"/>
<polygon fill="midnightblue" stroke="midnightblue" points="434.94,-773.5 444.94,-770 434.94,-766.5 434.94,-773.5"/>
</g>
<!-- Node15 -->
<g id="node15" class="node">
<title>Node15</title>
<g id="a_node15"><a xlink:href="class_calc.html#a1aec4748092712e0995c0ae5dabbf54f" target="_top" xlink:title=" ">
<polygon fill="white" stroke="black" points="440,-722.5 440,-741.5 580,-741.5 580,-722.5 440,-722.5"/>
<text text-anchor="middle" x="510" y="-729.5" font-family="Helvetica,sans-Serif" font-size="10.00">Calc::_changeSuperScript</text>
</a>
</g>
</g>
<!-- Node3&#45;&gt;Node15 -->
<g id="edge15" class="edge">
<title>Node3&#45;&gt;Node15</title>
<path fill="none" stroke="midnightblue" d="M382.24,-763.38C403.77,-758.05 434.61,-750.41 460.48,-744.01"/>
<polygon fill="midnightblue" stroke="midnightblue" points="461.62,-747.33 470.49,-741.53 459.94,-740.54 461.62,-747.33"/>
</g>
<!-- Node5 -->
<g id="node5" class="node">
<title>Node5</title>
<g id="a_node5"><a xlink:href="class_calc.html#a7d793eba0a7c9fcbafec4310359f165d" target="_top" xlink:title=" ">
<polygon fill="white" stroke="black" points="618,-911.5 618,-930.5 711,-930.5 711,-911.5 618,-911.5"/>
<text text-anchor="middle" x="664.5" y="-918.5" font-family="Helvetica,sans-Serif" font-size="10.00">Calc::_addArma</text>
</a>
</g>
</g>
<!-- Node4&#45;&gt;Node5 -->
<g id="edge4" class="edge">
<title>Node4&#45;&gt;Node5</title>
<path fill="none" stroke="midnightblue" d="M572.59,-909.67C584.11,-911.11 596.09,-912.6 607.43,-914.01"/>
<polygon fill="midnightblue" stroke="midnightblue" points="607.28,-917.52 617.63,-915.29 608.14,-910.58 607.28,-917.52"/>
</g>
<!-- Node6 -->
<g id="node6" class="node">
<title>Node6</title>
<g id="a_node6"><a xlink:href="class_calc.html#af58cd6a2174e577a6246366de03b949e" target="_top" xlink:title=" ">
<polygon fill="white" stroke="black" points="616,-873.5 616,-892.5 713,-892.5 713,-873.5 616,-873.5"/>
<text text-anchor="middle" x="664.5" y="-880.5" font-family="Helvetica,sans-Serif" font-size="10.00">Calc::_addMmce</text>
</a>
</g>
</g>
<!-- Node4&#45;&gt;Node6 -->
<g id="edge5" class="edge">
<title>Node4&#45;&gt;Node6</title>
<path fill="none" stroke="midnightblue" d="M572.59,-894.33C583.49,-892.97 594.8,-891.56 605.6,-890.21"/>
<polygon fill="midnightblue" stroke="midnightblue" points="606.27,-893.66 615.76,-888.95 605.4,-886.71 606.27,-893.66"/>
</g>
<!-- Node9&#45;&gt;Node9 -->
<g id="edge9" class="edge">
<title>Node9&#45;&gt;Node9</title>
<path fill="none" stroke="midnightblue" d="M486.26,-779.76C474.72,-788.57 482.63,-798 510,-798 527.96,-798 537.54,-793.94 538.75,-788.65"/>
<polygon fill="midnightblue" stroke="midnightblue" points="541.69,-786.75 533.74,-779.76 535.59,-790.19 541.69,-786.75"/>
</g>
<!-- Node10 -->
<g id="node10" class="node">
<title>Node10</title>
<g id="a_node10"><a xlink:href="class_calc.html#a284818e83b0d85bdd029f3d72d4ef0bd" target="_top" xlink:title=" ">
<polygon fill="white" stroke="black" points="629.5,-798.5 629.5,-817.5 699.5,-817.5 699.5,-798.5 629.5,-798.5"/>
<text text-anchor="middle" x="664.5" y="-805.5" font-family="Helvetica,sans-Serif" font-size="10.00">Calc::_msg</text>
</a>
</g>
</g>
<!-- Node9&#45;&gt;Node10 -->
<g id="edge10" class="edge">
<title>Node9&#45;&gt;Node10</title>
<path fill="none" stroke="midnightblue" d="M549.48,-779.59C570.83,-784.91 597.46,-791.54 619.62,-797.07"/>
<polygon fill="midnightblue" stroke="midnightblue" points="618.9,-800.49 629.45,-799.51 620.59,-793.7 618.9,-800.49"/>
</g>
<!-- Node9&#45;&gt;Node11 -->
<g id="edge11" class="edge">
<title>Node9&#45;&gt;Node11</title>
<path fill="none" stroke="midnightblue" d="M559.17,-760.39C566.42,-757.92 573.61,-754.84 580,-751 599.95,-739.03 596.75,-726.07 616,-713 619.82,-710.4 624.05,-708.08 628.37,-706.02"/>
<polygon fill="midnightblue" stroke="midnightblue" points="630.03,-709.12 637.83,-701.94 627.26,-702.69 630.03,-709.12"/>
</g>
<!-- Node9&#45;&gt;Node12 -->
<g id="edge12" class="edge">
<title>Node9&#45;&gt;Node12</title>
<path fill="none" stroke="midnightblue" d="M564.59,-760.35C570.15,-757.9 575.43,-754.84 580,-751 608.62,-726.96 588.77,-700.6 616,-675 618.9,-672.27 622.25,-669.92 625.79,-667.89"/>
<polygon fill="midnightblue" stroke="midnightblue" points="627.38,-671 634.85,-663.49 624.33,-664.7 627.38,-671"/>
</g>
<!-- Node13 -->
<g id="node13" class="node">
<title>Node13</title>
<g id="a_node13"><a xlink:href="utils_8h.html#aa0a3ba0e1cec6f6b77334767af46eef7" target="_top" xlink:title="Check if the string is an unsigned integer.">
<polygon fill="white" stroke="black" points="642,-760.5 642,-779.5 687,-779.5 687,-760.5 642,-760.5"/>
<text text-anchor="middle" x="664.5" y="-767.5" font-family="Helvetica,sans-Serif" font-size="10.00">isUInt</text>
</a>
</g>
</g>
<!-- Node9&#45;&gt;Node13 -->
<g id="edge13" class="edge">
<title>Node9&#45;&gt;Node13</title>
<path fill="none" stroke="midnightblue" d="M575.23,-770C594.73,-770 615.3,-770 631.68,-770"/>
<polygon fill="midnightblue" stroke="midnightblue" points="631.78,-773.5 641.78,-770 631.78,-766.5 631.78,-773.5"/>
</g>
<!-- Node14 -->
<g id="node14" class="node">
<title>Node14</title>
<g id="a_node14"><a xlink:href="class_type___track.html#ab510214767b1b4d71e3beadecb814bb7" target="_top" xlink:title=" ">
<polygon fill="white" stroke="black" points="617,-722.5 617,-741.5 712,-741.5 712,-722.5 617,-722.5"/>
<text text-anchor="middle" x="664.5" y="-729.5" font-family="Helvetica,sans-Serif" font-size="10.00">Type_Track::size</text>
</a>
</g>
</g>
<!-- Node9&#45;&gt;Node14 -->
<g id="edge14" class="edge">
<title>Node9&#45;&gt;Node14</title>
<path fill="none" stroke="midnightblue" d="M549.48,-760.41C569.52,-755.42 594.2,-749.27 615.48,-743.97"/>
<polygon fill="midnightblue" stroke="midnightblue" points="616.44,-747.33 625.29,-741.52 614.74,-740.54 616.44,-747.33"/>
</g>
<!-- Node20&#45;&gt;Node3 -->
<g id="edge23" class="edge">
<title>Node20&#45;&gt;Node3</title>
<path fill="none" stroke="midnightblue" d="M227.09,-741.49C254.62,-747.7 290.26,-755.74 316.67,-761.69"/>
<polygon fill="midnightblue" stroke="midnightblue" points="316.14,-765.16 326.66,-763.95 317.68,-758.33 316.14,-765.16"/>
</g>
<!-- Node25 -->
<g id="node25" class="node">
<title>Node25</title>
<g id="a_node25"><a xlink:href="functions_8h.html#ac9dc58cb94b7547813c3a35154d97d18" target="_top" xlink:title=" ">
<polygon fill="white" stroke="black" points="315,-304.5 315,-323.5 394,-323.5 394,-304.5 315,-304.5"/>
<text text-anchor="middle" x="354.5" y="-311.5" font-family="Helvetica,sans-Serif" font-size="10.00">isFuncNoEnd</text>
</a>
</g>
</g>
<!-- Node24&#45;&gt;Node25 -->
<g id="edge28" class="edge">
<title>Node24&#45;&gt;Node25</title>
<path fill="none" stroke="midnightblue" d="M227.09,-314C250.63,-314 280.08,-314 304.64,-314"/>
<polygon fill="midnightblue" stroke="midnightblue" points="304.83,-317.5 314.83,-314 304.83,-310.5 304.83,-317.5"/>
</g>
<!-- Node26 -->
<g id="node26" class="node">
<title>Node26</title>
<g id="a_node26"><a xlink:href="utils_8h.html#af11c7cca5b9ad860da4bdb556dce3234" target="_top" xlink:title=" ">
<polygon fill="white" stroke="black" points="481,-304.5 481,-323.5 539,-323.5 539,-304.5 481,-304.5"/>
<text text-anchor="middle" x="510" y="-311.5" font-family="Helvetica,sans-Serif" font-size="10.00">contains</text>
</a>
</g>
</g>
<!-- Node25&#45;&gt;Node26 -->
<g id="edge29" class="edge">
<title>Node25&#45;&gt;Node26</title>
<path fill="none" stroke="midnightblue" d="M394.23,-314C417.65,-314 447.38,-314 470.71,-314"/>
<polygon fill="midnightblue" stroke="midnightblue" points="470.94,-317.5 480.94,-314 470.93,-310.5 470.94,-317.5"/>
</g>
<!-- Node27&#45;&gt;Node12 -->
<g id="edge31" class="edge">
<title>Node27&#45;&gt;Node12</title>
<path fill="none" stroke="midnightblue" d="M549.48,-627.59C572.54,-633.33 601.76,-640.62 624.85,-646.37"/>
<polygon fill="midnightblue" stroke="midnightblue" points="624.11,-649.79 634.66,-648.81 625.8,-643 624.11,-649.79"/>
</g>
<!-- Node29 -->
<g id="node29" class="node">
<title>Node29</title>
<g id="a_node29"><a xlink:href="utils_8h.html#aaaee605fe46abaa420448438d89b22ed" target="_top" xlink:title=" ">
<polygon fill="white" stroke="black" points="324.5,-266.5 324.5,-285.5 384.5,-285.5 384.5,-266.5 324.5,-266.5"/>
<text text-anchor="middle" x="354.5" y="-273.5" font-family="Helvetica,sans-Serif" font-size="10.00">isQuoted</text>
</a>
</g>
</g>
<!-- Node28&#45;&gt;Node29 -->
<g id="edge33" class="edge">
<title>Node28&#45;&gt;Node29</title>
<path fill="none" stroke="midnightblue" d="M225.79,-276C252.7,-276 287.76,-276 314.34,-276"/>
<polygon fill="midnightblue" stroke="midnightblue" points="314.43,-279.5 324.43,-276 314.43,-272.5 314.43,-279.5"/>
</g>
<!-- Node32 -->
<g id="node32" class="node">
<title>Node32</title>
<g id="a_node32"><a xlink:href="class_type.html#a5b8adffb334040c53940ecf814ebcc65" target="_top" xlink:title=" ">
<polygon fill="white" stroke="black" points="307,-219.5 307,-238.5 402,-238.5 402,-219.5 307,-219.5"/>
<text text-anchor="middle" x="354.5" y="-226.5" font-family="Helvetica,sans-Serif" font-size="10.00">Type::_getString</text>
</a>
</g>
</g>
<!-- Node31&#45;&gt;Node32 -->
<g id="edge36" class="edge">
<title>Node31&#45;&gt;Node32</title>
<path fill="none" stroke="midnightblue" d="M220.73,-206.15C242.81,-209.95 271.63,-214.91 296.77,-219.24"/>
<polygon fill="midnightblue" stroke="midnightblue" points="296.48,-222.74 306.93,-220.98 297.67,-215.84 296.48,-222.74"/>
</g>
<!-- Node33 -->
<g id="node33" class="node">
<title>Node33</title>
<g id="a_node33"><a xlink:href="class_type.html#a836b463aa4740a234e0d304ed4cd958f" target="_top" xlink:title=" ">
<polygon fill="white" stroke="black" points="305,-181.5 305,-200.5 404,-200.5 404,-181.5 305,-181.5"/>
<text text-anchor="middle" x="354.5" y="-188.5" font-family="Helvetica,sans-Serif" font-size="10.00">Type::isUnknown</text>
</a>
</g>
</g>
<!-- Node31&#45;&gt;Node33 -->
<g id="edge37" class="edge">
<title>Node31&#45;&gt;Node33</title>
<path fill="none" stroke="midnightblue" d="M220.73,-198.09C242.12,-196.95 269.83,-195.47 294.4,-194.16"/>
<polygon fill="midnightblue" stroke="midnightblue" points="294.91,-197.63 304.71,-193.61 294.54,-190.64 294.91,-197.63"/>
</g>
<!-- Node36 -->
<g id="node36" class="node">
<title>Node36</title>
<g id="a_node36"><a xlink:href="utils_8h.html#a47084ee818936eef3c48be492c0e860f" target="_top" xlink:title=" ">
<polygon fill="white" stroke="black" points="334.5,-133.5 334.5,-152.5 374.5,-152.5 374.5,-133.5 334.5,-133.5"/>
<text text-anchor="middle" x="354.5" y="-140.5" font-family="Helvetica,sans-Serif" font-size="10.00">ltrim</text>
</a>
</g>
</g>
<!-- Node35&#45;&gt;Node36 -->
<g id="edge40" class="edge">
<title>Node35&#45;&gt;Node36</title>
<path fill="none" stroke="midnightblue" d="M202.71,-126C231.66,-129.26 289.37,-135.77 324.4,-139.72"/>
<polygon fill="midnightblue" stroke="midnightblue" points="324.16,-143.21 334.48,-140.86 324.94,-136.26 324.16,-143.21"/>
</g>
<!-- Node37 -->
<g id="node37" class="node">
<title>Node37</title>
<g id="a_node37"><a xlink:href="utils_8h.html#af6d6bd5c29782e3b958b5f7c0d1ea9e3" target="_top" xlink:title=" ">
<polygon fill="white" stroke="black" points="334,-95.5 334,-114.5 375,-114.5 375,-95.5 334,-95.5"/>
<text text-anchor="middle" x="354.5" y="-102.5" font-family="Helvetica,sans-Serif" font-size="10.00">rtrim</text>
</a>
</g>
</g>
<!-- Node35&#45;&gt;Node37 -->
<g id="edge41" class="edge">
<title>Node35&#45;&gt;Node37</title>
<path fill="none" stroke="midnightblue" d="M202.71,-122C231.51,-118.76 288.76,-112.3 323.84,-108.34"/>
<polygon fill="midnightblue" stroke="midnightblue" points="324.42,-111.8 333.96,-107.2 323.63,-104.85 324.42,-111.8"/>
</g>
</g>
</svg>
        <g id="navigator" transform="translate(0 0)" fill="#404254">
                <rect fill="#f2f5e9" fill-opacity="0.5" stroke="#606060" stroke-width=".5" x="0" y="0" width="60" height="60"/>
                <use id="zoomplus" xlink:href="#zoomPlus" x="17" y="9" onmousedown="handleZoom(evt,'in')"/>
                <use id="zoomminus" xlink:href="#zoomMin" x="42" y="9" onmousedown="handleZoom(evt,'out')"/>
                <use id="reset" xlink:href="#resetDef" x="30" y="36" onmousedown="handleReset()"/>
                <g id="arrowUp" xlink:href="#dirArrow" transform="translate(30 24)" onmousedown="handlePan(0,-1)">
                  <use xlink:href="#rim" fill="#404040">
                        <set attributeName="fill" to="#808080" begin="arrowUp.mouseover" end="arrowUp.mouseout"/>
                  </use>
                  <path fill="none" stroke="white" stroke-width="1.5" d="M0,-3.0v7 M-2.5,-0.5L0,-3.0L2.5,-0.5"/>
                </g>
                <g id="arrowRight" xlink:href="#dirArrow" transform="rotate(90) translate(36 -43)" onmousedown="handlePan(1,0)">
                  <use xlink:href="#rim" fill="#404040">
                        <set attributeName="fill" to="#808080" begin="arrowRight.mouseover" end="arrowRight.mouseout"/>
                  </use>
                  <path fill="none" stroke="white" stroke-width="1.5" d="M0,-3.0v7 M-2.5,-0.5L0,-3.0L2.5,-0.5"/>
                </g>
                <g id="arrowDown" xlink:href="#dirArrow" transform="rotate(180) translate(-30 -48)" onmousedown="handlePan(0,1)">
                  <use xlink:href="#rim" fill="#404040">
                        <set attributeName="fill" to="#808080" begin="arrowDown.mouseover" end="arrowDown.mouseout"/>
                  </use>
                  <path fill="none" stroke="white" stroke-width="1.5" d="M0,-3.0v7 M-2.5,-0.5L0,-3.0L2.5,-0.5"/>
                </g>
                <g id="arrowLeft" xlink:href="#dirArrow" transform="rotate(270) translate(-36 17)" onmousedown="handlePan(-1,0)">
                  <use xlink:href="#rim" fill="#404040">
                        <set attributeName="fill" to="#808080" begin="arrowLeft.mouseover" end="arrowLeft.mouseout"/>
                  </use>
                  <path fill="none" stroke="white" stroke-width="1.5" d="M0,-3.0v7 M-2.5,-0.5L0,-3.0L2.5,-0.5"/>
                </g>
        </g>
        <svg viewBox="0 0 15 15" width="100%" height="30px" preserveAspectRatio="xMaxYMin meet">
         <g id="arrow_out" transform="scale(0.3 0.3)">
          <a xlink:href="class_alg_ada1e8215f047b4ffd736e811b5ea3162_cgraph_org.svg" target="_base">
           <rect id="button" ry="5" rx="5" y="6" x="6" height="38" width="38"
                fill="#f2f5e9" fill-opacity="0.5" stroke="#606060" stroke-width="1.0"/>
           <path id="arrow"
             d="M 11.500037,31.436501 C 11.940474,20.09759 22.043105,11.32322 32.158766,21.979434 L 37.068811,17.246167 C 37.068811,17.246167 37.088388,32 37.088388,32 L 22.160133,31.978069 C 22.160133,31.978069 26.997745,27.140456 26.997745,27.140456 C 18.528582,18.264221 13.291696,25.230495 11.500037,31.436501 z"
             style="fill:#404040;"/>
          </a>
         </g>
        </svg>
</svg>
