<?xml version="1.0" encoding="UTF-8" standalone="no"?>
<!DOCTYPE svg PUBLIC "-//W3C//DTD SVG 1.1//EN"
 "http://www.w3.org/Graphics/SVG/1.1/DTD/svg11.dtd">
<!-- Generated by graphviz version 2.43.0 (0)
 -->
<!-- Title: Alg::write Pages: 1 -->
<svg width="721pt" height="712pt"
 viewBox="0.00 0.00 721.00 712.00" xmlns="http://www.w3.org/2000/svg" xmlns:xlink="http://www.w3.org/1999/xlink">
<g id="graph0" class="graph" transform="scale(1 1) rotate(0) translate(4 708)">
<title>Alg::write</title>
<polygon fill="white" stroke="transparent" points="-4,4 -4,-708 717,-708 717,4 -4,4"/>
<!-- Node1 -->
<g id="node1" class="node">
<title>Node1</title>
<g id="a_node1"><a xlink:title=" ">
<polygon fill="#bfbfbf" stroke="black" points="0,-342.5 0,-361.5 63,-361.5 63,-342.5 0,-342.5"/>
<text text-anchor="middle" x="31.5" y="-349.5" font-family="Helvetica,sans-Serif" font-size="10.00">Alg::write</text>
</a>
</g>
</g>
<!-- Node1&#45;&gt;Node1 -->
<g id="edge42" class="edge">
<title>Node1&#45;&gt;Node1</title>
<path fill="none" stroke="midnightblue" d="M8.07,-361.76C-3.32,-370.57 4.48,-380 31.5,-380 49.23,-380 58.69,-375.94 59.87,-370.65"/>
<polygon fill="midnightblue" stroke="midnightblue" points="62.84,-368.8 54.93,-361.76 56.73,-372.2 62.84,-368.8"/>
</g>
<!-- Node2 -->
<g id="node2" class="node">
<title>Node2</title>
<g id="a_node2"><a xlink:href="class_alg.html#a2cf2b7f4e37c8e401d9c6dad6687917d" target="_top" xlink:title=" ">
<polygon fill="white" stroke="black" points="134,-684.5 134,-703.5 234,-703.5 234,-684.5 134,-684.5"/>
<text text-anchor="middle" x="184" y="-691.5" font-family="Helvetica,sans-Serif" font-size="10.00">Alg::_wComment</text>
</a>
</g>
</g>
<!-- Node1&#45;&gt;Node2 -->
<g id="edge1" class="edge">
<title>Node1&#45;&gt;Node2</title>
<path fill="none" stroke="midnightblue" d="M33.19,-361.51C36.83,-409.35 55.4,-623.13 99,-670 105.82,-677.33 114.7,-682.47 124.14,-686.07"/>
<polygon fill="midnightblue" stroke="midnightblue" points="123.11,-689.42 133.7,-689.18 125.27,-682.76 123.11,-689.42"/>
</g>
<!-- Node3 -->
<g id="node3" class="node">
<title>Node3</title>
<g id="a_node3"><a xlink:href="class_calc.html#ad6dbdfdd4bd21322e5836ff72c11ae1b" target="_top" xlink:title="Convert the Alg CALC contents into a language command.">
<polygon fill="white" stroke="black" points="327,-456.5 327,-475.5 382,-475.5 382,-456.5 327,-456.5"/>
<text text-anchor="middle" x="354.5" y="-463.5" font-family="Helvetica,sans-Serif" font-size="10.00">Calc::as</text>
</a>
</g>
</g>
<!-- Node1&#45;&gt;Node3 -->
<g id="edge2" class="edge">
<title>Node1&#45;&gt;Node3</title>
<path fill="none" stroke="midnightblue" d="M35.98,-361.69C43.73,-381.7 64.53,-427.39 99,-447 167.81,-486.15 264.56,-479.9 316.71,-472.56"/>
<polygon fill="midnightblue" stroke="midnightblue" points="317.47,-475.99 326.84,-471.04 316.43,-469.06 317.47,-475.99"/>
</g>
<!-- Node12 -->
<g id="node12" class="node">
<title>Node12</title>
<g id="a_node12"><a xlink:href="class_log.html#add7e611cd3267d3fd5dae017e3aeef67" target="_top" xlink:title="Write infomation to the log file.">
<polygon fill="white" stroke="black" points="635,-608.5 635,-627.5 694,-627.5 694,-608.5 635,-608.5"/>
<text text-anchor="middle" x="664.5" y="-615.5" font-family="Helvetica,sans-Serif" font-size="10.00">Log::info</text>
</a>
</g>
</g>
<!-- Node1&#45;&gt;Node12 -->
<g id="edge19" class="edge">
<title>Node1&#45;&gt;Node12</title>
<path fill="none" stroke="midnightblue" d="M33.33,-361.59C37.37,-406.13 56.63,-592.23 99,-628 180.69,-696.96 473.94,-650.44 580,-637 594.84,-635.12 610.9,-631.78 624.95,-628.43"/>
<polygon fill="midnightblue" stroke="midnightblue" points="625.9,-631.8 634.77,-626 624.22,-625 625.9,-631.8"/>
</g>
<!-- Node16 -->
<g id="node16" class="node">
<title>Node16</title>
<g id="a_node16"><a xlink:href="class_type.html#abe15820e780d2f6646792d54f3ae3311" target="_top" xlink:title=" ">
<polygon fill="white" stroke="black" points="152,-570.5 152,-589.5 216,-589.5 216,-570.5 152,-570.5"/>
<text text-anchor="middle" x="184" y="-577.5" font-family="Helvetica,sans-Serif" font-size="10.00">Type::dim</text>
</a>
</g>
</g>
<!-- Node1&#45;&gt;Node16 -->
<g id="edge16" class="edge">
<title>Node1&#45;&gt;Node16</title>
<path fill="none" stroke="midnightblue" d="M32.43,-361.64C32.72,-394.83 38.41,-505.38 99,-561 110.55,-571.6 126.72,-576.7 141.79,-579.03"/>
<polygon fill="midnightblue" stroke="midnightblue" points="141.64,-582.54 151.98,-580.24 142.46,-575.59 141.64,-582.54"/>
</g>
<!-- Node17 -->
<g id="node17" class="node">
<title>Node17</title>
<g id="a_node17"><a xlink:href="class_alg___line.html#af651454e6ddfce164626b68b2c6cba97" target="_top" xlink:title="Get the function name.">
<polygon fill="white" stroke="black" points="141.5,-532.5 141.5,-551.5 226.5,-551.5 226.5,-532.5 141.5,-532.5"/>
<text text-anchor="middle" x="184" y="-539.5" font-family="Helvetica,sans-Serif" font-size="10.00">Alg_Line::func</text>
</a>
</g>
</g>
<!-- Node1&#45;&gt;Node17 -->
<g id="edge17" class="edge">
<title>Node1&#45;&gt;Node17</title>
<path fill="none" stroke="midnightblue" d="M33.18,-361.51C35.81,-390.58 47.84,-478.92 99,-523 108.11,-530.85 119.8,-535.65 131.54,-538.53"/>
<polygon fill="midnightblue" stroke="midnightblue" points="130.86,-541.96 141.35,-540.52 132.25,-535.1 130.86,-541.96"/>
</g>
<!-- Node18 -->
<g id="node18" class="node">
<title>Node18</title>
<g id="a_node18"><a xlink:href="class_alg___line.html#a49a98870a1f09e35a3e15a7d7bab1666" target="_top" xlink:title="Check whether parameters contain the key.">
<polygon fill="white" stroke="black" points="134.5,-494.5 134.5,-513.5 233.5,-513.5 233.5,-494.5 134.5,-494.5"/>
<text text-anchor="middle" x="184" y="-501.5" font-family="Helvetica,sans-Serif" font-size="10.00">Alg_Line::hasKey</text>
</a>
</g>
</g>
<!-- Node1&#45;&gt;Node18 -->
<g id="edge18" class="edge">
<title>Node1&#45;&gt;Node18</title>
<path fill="none" stroke="midnightblue" d="M34.72,-361.7C40.7,-385.59 59.44,-447.68 99,-480 106.5,-486.12 115.48,-490.69 124.74,-494.09"/>
<polygon fill="midnightblue" stroke="midnightblue" points="123.84,-497.47 134.43,-497.22 126,-490.81 123.84,-497.47"/>
</g>
<!-- Node19 -->
<g id="node19" class="node">
<title>Node19</title>
<g id="a_node19"><a xlink:href="class_alg.html#a3ee7f9963027158b3fbd442d97800111" target="_top" xlink:title=" ">
<polygon fill="white" stroke="black" points="141,-304.5 141,-323.5 227,-323.5 227,-304.5 141,-304.5"/>
<text text-anchor="middle" x="184" y="-311.5" font-family="Helvetica,sans-Serif" font-size="10.00">Alg::inlineCalc</text>
</a>
</g>
</g>
<!-- Node1&#45;&gt;Node19 -->
<g id="edge20" class="edge">
<title>Node1&#45;&gt;Node19</title>
<path fill="none" stroke="midnightblue" d="M63.19,-342.84C74.42,-339.6 87.25,-336 99,-333 109.21,-330.39 120.16,-327.78 130.68,-325.36"/>
<polygon fill="midnightblue" stroke="midnightblue" points="131.61,-328.74 140.59,-323.11 130.06,-321.91 131.61,-328.74"/>
</g>
<!-- Node20 -->
<g id="node20" class="node">
<title>Node20</title>
<g id="a_node20"><a xlink:href="class_alg___line.html#ad419191a99be7e34024e569ad833b04e" target="_top" xlink:title="Check whether the line is for function declaration.">
<polygon fill="white" stroke="black" points="99,-418.5 99,-437.5 269,-437.5 269,-418.5 99,-418.5"/>
<text text-anchor="middle" x="184" y="-425.5" font-family="Helvetica,sans-Serif" font-size="10.00">Alg_Line::isFunctionDeclaration</text>
</a>
</g>
</g>
<!-- Node1&#45;&gt;Node20 -->
<g id="edge22" class="edge">
<title>Node1&#45;&gt;Node20</title>
<path fill="none" stroke="midnightblue" d="M40.92,-361.7C52.62,-374.55 75.09,-396.99 99,-409 103.84,-411.43 109,-413.56 114.28,-415.41"/>
<polygon fill="midnightblue" stroke="midnightblue" points="113.3,-418.77 123.89,-418.47 115.42,-412.1 113.3,-418.77"/>
</g>
<!-- Node21 -->
<g id="node21" class="node">
<title>Node21</title>
<g id="a_node21"><a xlink:href="class_alg.html#af935e64a6eb4afa4ca1540f4da3dcc9c" target="_top" xlink:title=" ">
<polygon fill="white" stroke="black" points="156,-380.5 156,-399.5 212,-399.5 212,-380.5 156,-380.5"/>
<text text-anchor="middle" x="184" y="-387.5" font-family="Helvetica,sans-Serif" font-size="10.00">Alg::line</text>
</a>
</g>
</g>
<!-- Node1&#45;&gt;Node21 -->
<g id="edge23" class="edge">
<title>Node1&#45;&gt;Node21</title>
<path fill="none" stroke="midnightblue" d="M63.19,-361.16C74.42,-364.4 87.25,-368 99,-371 114.15,-374.88 130.95,-378.76 145.51,-381.99"/>
<polygon fill="midnightblue" stroke="midnightblue" points="145.15,-385.49 155.67,-384.22 146.65,-378.66 145.15,-385.49"/>
</g>
<!-- Node22 -->
<g id="node22" class="node">
<title>Node22</title>
<g id="a_node22"><a xlink:href="class_alg___line.html#a4e79eb77a1cddbdab1dbdde8a499342d" target="_top" xlink:title="Parameter variables.">
<polygon fill="white" stroke="black" points="133.5,-342.5 133.5,-361.5 234.5,-361.5 234.5,-342.5 133.5,-342.5"/>
<text text-anchor="middle" x="184" y="-349.5" font-family="Helvetica,sans-Serif" font-size="10.00">Alg_Line::params</text>
</a>
</g>
</g>
<!-- Node1&#45;&gt;Node22 -->
<g id="edge24" class="edge">
<title>Node1&#45;&gt;Node22</title>
<path fill="none" stroke="midnightblue" d="M63.32,-352C80.53,-352 102.58,-352 123.05,-352"/>
<polygon fill="midnightblue" stroke="midnightblue" points="123.26,-355.5 133.26,-352 123.26,-348.5 123.26,-355.5"/>
</g>
<!-- Node23 -->
<g id="node23" class="node">
<title>Node23</title>
<g id="a_node23"><a xlink:href="class_alg___line.html#a801b08c6c164376039a4ba4e980d039e" target="_top" xlink:title="Print Alg_Line contents (including return values, function names and parameters).">
<polygon fill="white" stroke="black" points="141,-266.5 141,-285.5 227,-285.5 227,-266.5 141,-266.5"/>
<text text-anchor="middle" x="184" y="-273.5" font-family="Helvetica,sans-Serif" font-size="10.00">Alg_Line::print</text>
</a>
</g>
</g>
<!-- Node1&#45;&gt;Node23 -->
<g id="edge25" class="edge">
<title>Node1&#45;&gt;Node23</title>
<path fill="none" stroke="midnightblue" d="M40.92,-342.3C52.62,-329.45 75.09,-307.01 99,-295 108.82,-290.07 119.93,-286.4 130.77,-283.68"/>
<polygon fill="midnightblue" stroke="midnightblue" points="131.64,-287.07 140.61,-281.44 130.08,-280.25 131.64,-287.07"/>
</g>
<!-- Node26 -->
<g id="node26" class="node">
<title>Node26</title>
<g id="a_node26"><a xlink:href="class_type___track.html#a4548ba1c289fba60e88b0e725509219e" target="_top" xlink:title=" ">
<polygon fill="white" stroke="black" points="460.5,-608.5 460.5,-627.5 559.5,-627.5 559.5,-608.5 460.5,-608.5"/>
<text text-anchor="middle" x="510" y="-615.5" font-family="Helvetica,sans-Serif" font-size="10.00">Type_Track::push</text>
</a>
</g>
</g>
<!-- Node1&#45;&gt;Node26 -->
<g id="edge28" class="edge">
<title>Node1&#45;&gt;Node26</title>
<path fill="none" stroke="midnightblue" d="M33.61,-361.71C38.59,-403.58 60.41,-567.98 99,-599 151.49,-641.19 349.97,-631.44 450.25,-623.44"/>
<polygon fill="midnightblue" stroke="midnightblue" points="450.54,-626.93 460.22,-622.63 449.97,-619.96 450.54,-626.93"/>
</g>
<!-- Node27 -->
<g id="node27" class="node">
<title>Node27</title>
<g id="a_node27"><a xlink:href="utils_8h.html#a0465457013518e168df05799c93cfa6e" target="_top" xlink:title=" ">
<polygon fill="white" stroke="black" points="142.5,-228.5 142.5,-247.5 225.5,-247.5 225.5,-228.5 142.5,-228.5"/>
<text text-anchor="middle" x="184" y="-235.5" font-family="Helvetica,sans-Serif" font-size="10.00">removeQuote</text>
</a>
</g>
</g>
<!-- Node1&#45;&gt;Node27 -->
<g id="edge30" class="edge">
<title>Node1&#45;&gt;Node27</title>
<path fill="none" stroke="midnightblue" d="M36.35,-342.42C44.66,-323 66.24,-278.99 99,-257 108.79,-250.43 120.53,-246.1 132.08,-243.26"/>
<polygon fill="midnightblue" stroke="midnightblue" points="133.07,-246.63 142.13,-241.13 131.62,-239.78 133.07,-246.63"/>
</g>
<!-- Node29 -->
<g id="node29" class="node">
<title>Node29</title>
<g id="a_node29"><a xlink:href="class_alg___line.html#a8e21f6b69eaf80a2327f7308fb4299e0" target="_top" xlink:title="Return variables.">
<polygon fill="white" stroke="black" points="135,-190.5 135,-209.5 233,-209.5 233,-190.5 135,-190.5"/>
<text text-anchor="middle" x="184" y="-197.5" font-family="Helvetica,sans-Serif" font-size="10.00">Alg_Line::returns</text>
</a>
</g>
</g>
<!-- Node1&#45;&gt;Node29 -->
<g id="edge32" class="edge">
<title>Node1&#45;&gt;Node29</title>
<path fill="none" stroke="midnightblue" d="M34.41,-342.15C39.76,-317.29 57.35,-251.65 99,-219 106.6,-213.04 115.71,-208.88 125.08,-205.99"/>
<polygon fill="midnightblue" stroke="midnightblue" points="126.11,-209.34 134.9,-203.42 124.33,-202.57 126.11,-209.34"/>
</g>
<!-- Node30 -->
<g id="node30" class="node">
<title>Node30</title>
<g id="a_node30"><a xlink:href="class_type.html#a0153b8ff39040caf3ff2a6f7c7329d7c" target="_top" xlink:title="Get the C++ type name.">
<polygon fill="white" stroke="black" points="147.5,-152.5 147.5,-171.5 220.5,-171.5 220.5,-152.5 147.5,-152.5"/>
<text text-anchor="middle" x="184" y="-159.5" font-family="Helvetica,sans-Serif" font-size="10.00">Type::string</text>
</a>
</g>
</g>
<!-- Node1&#45;&gt;Node30 -->
<g id="edge33" class="edge">
<title>Node1&#45;&gt;Node30</title>
<path fill="none" stroke="midnightblue" d="M33.18,-342.49C35.81,-313.42 47.84,-225.08 99,-181 109.56,-171.9 123.57,-166.91 137.12,-164.24"/>
<polygon fill="midnightblue" stroke="midnightblue" points="137.99,-167.65 147.32,-162.62 136.9,-160.73 137.99,-167.65"/>
</g>
<!-- Node33 -->
<g id="node33" class="node">
<title>Node33</title>
<g id="a_node33"><a xlink:href="namespacemmce.html#ad4a160832ef9fad47c531ece39752208" target="_top" xlink:title="Change a number to string.">
<polygon fill="white" stroke="black" points="136,-114.5 136,-133.5 232,-133.5 232,-114.5 136,-114.5"/>
<text text-anchor="middle" x="184" y="-121.5" font-family="Helvetica,sans-Serif" font-size="10.00">mmce::to_string</text>
</a>
</g>
</g>
<!-- Node1&#45;&gt;Node33 -->
<g id="edge36" class="edge">
<title>Node1&#45;&gt;Node33</title>
<path fill="none" stroke="midnightblue" d="M32.43,-342.36C32.72,-309.17 38.41,-198.62 99,-143 106.52,-136.1 116,-131.53 125.86,-128.53"/>
<polygon fill="midnightblue" stroke="midnightblue" points="126.94,-131.87 135.79,-126.04 125.24,-125.08 126.94,-131.87"/>
</g>
<!-- Node34 -->
<g id="node34" class="node">
<title>Node34</title>
<g id="a_node34"><a xlink:href="utils_8h.html#a6ef734356291c638e5787a6c668192d4" target="_top" xlink:title=" ">
<polygon fill="white" stroke="black" points="165.5,-76.5 165.5,-95.5 202.5,-95.5 202.5,-76.5 165.5,-76.5"/>
<text text-anchor="middle" x="184" y="-83.5" font-family="Helvetica,sans-Serif" font-size="10.00">trim</text>
</a>
</g>
</g>
<!-- Node1&#45;&gt;Node34 -->
<g id="edge37" class="edge">
<title>Node1&#45;&gt;Node34</title>
<path fill="none" stroke="midnightblue" d="M33.75,-342.45C39.33,-301.27 63.28,-139.3 99,-105 113.88,-90.72 137.11,-86.31 155.37,-85.28"/>
<polygon fill="midnightblue" stroke="midnightblue" points="155.54,-88.78 165.45,-85.02 155.36,-81.78 155.54,-88.78"/>
</g>
<!-- Node37 -->
<g id="node37" class="node">
<title>Node37</title>
<g id="a_node37"><a xlink:href="class_log.html#ab61203710351f6d33d7ba634d2c4eb32" target="_top" xlink:title="Write warning message to the log file.">
<polygon fill="white" stroke="black" points="155,-38.5 155,-57.5 213,-57.5 213,-38.5 155,-38.5"/>
<text text-anchor="middle" x="184" y="-45.5" font-family="Helvetica,sans-Serif" font-size="10.00">Log::war</text>
</a>
</g>
</g>
<!-- Node1&#45;&gt;Node37 -->
<g id="edge40" class="edge">
<title>Node1&#45;&gt;Node37</title>
<path fill="none" stroke="midnightblue" d="M33.41,-342.25C37.81,-296.91 58.45,-107.28 99,-67 110.92,-55.16 128.56,-50.05 144.61,-48.05"/>
<polygon fill="midnightblue" stroke="midnightblue" points="145.19,-51.51 154.84,-47.14 144.57,-44.54 145.19,-51.51"/>
</g>
<!-- Node38 -->
<g id="node38" class="node">
<title>Node38</title>
<g id="a_node38"><a xlink:href="class_log.html#a3410828f35c9bf8dd0771ead28de27b0" target="_top" xlink:title="Write contents to the log file.">
<polygon fill="white" stroke="black" points="151.5,-0.5 151.5,-19.5 216.5,-19.5 216.5,-0.5 151.5,-0.5"/>
<text text-anchor="middle" x="184" y="-7.5" font-family="Helvetica,sans-Serif" font-size="10.00">Log::write</text>
</a>
</g>
</g>
<!-- Node1&#45;&gt;Node38 -->
<g id="edge41" class="edge">
<title>Node1&#45;&gt;Node38</title>
<path fill="none" stroke="midnightblue" d="M33.12,-342.29C36.4,-293.48 53.5,-75.39 99,-29 109.97,-17.81 126.04,-12.6 141.19,-10.35"/>
<polygon fill="midnightblue" stroke="midnightblue" points="141.9,-13.79 151.46,-9.22 141.14,-6.83 141.9,-13.79"/>
</g>
<!-- Node4 -->
<g id="node4" class="node">
<title>Node4</title>
<g id="a_node4"><a xlink:href="class_calc.html#af1d1bd5e83f9e5196627f5a4e1a5ee83" target="_top" xlink:title=" ">
<polygon fill="white" stroke="black" points="447.5,-390.5 447.5,-409.5 572.5,-409.5 572.5,-390.5 447.5,-390.5"/>
<text text-anchor="middle" x="510" y="-397.5" font-family="Helvetica,sans-Serif" font-size="10.00">Calc::_changeFunction</text>
</a>
</g>
</g>
<!-- Node3&#45;&gt;Node4 -->
<g id="edge3" class="edge">
<title>Node3&#45;&gt;Node4</title>
<path fill="none" stroke="midnightblue" d="M370.22,-456.38C386.67,-445.98 414.36,-429.48 440,-419 445.81,-416.62 452.02,-414.45 458.23,-412.48"/>
<polygon fill="midnightblue" stroke="midnightblue" points="459.39,-415.79 467.96,-409.57 457.38,-409.08 459.39,-415.79"/>
</g>
<!-- Node7 -->
<g id="node7" class="node">
<title>Node7</title>
<g id="a_node7"><a xlink:href="class_calc.html#ae3d88bd40f9bdf2c8ec92c426bdca446" target="_top" xlink:title=" ">
<polygon fill="white" stroke="black" points="446.5,-466.5 446.5,-485.5 573.5,-485.5 573.5,-466.5 446.5,-466.5"/>
<text text-anchor="middle" x="510" y="-473.5" font-family="Helvetica,sans-Serif" font-size="10.00">Calc::_changeOperator</text>
</a>
</g>
</g>
<!-- Node3&#45;&gt;Node7 -->
<g id="edge6" class="edge">
<title>Node3&#45;&gt;Node7</title>
<path fill="none" stroke="midnightblue" d="M382.24,-467.74C397.31,-468.72 416.93,-470 436.22,-471.26"/>
<polygon fill="midnightblue" stroke="midnightblue" points="436.04,-474.75 446.25,-471.91 436.5,-467.77 436.04,-474.75"/>
</g>
<!-- Node8 -->
<g id="node8" class="node">
<title>Node8</title>
<g id="a_node8"><a xlink:href="class_calc.html#ad95be528148e0d63848d5fa916b93200" target="_top" xlink:title=" ">
<polygon fill="white" stroke="black" points="454.5,-428.5 454.5,-447.5 565.5,-447.5 565.5,-428.5 454.5,-428.5"/>
<text text-anchor="middle" x="510" y="-435.5" font-family="Helvetica,sans-Serif" font-size="10.00">Calc::_changeParen</text>
</a>
</g>
</g>
<!-- Node3&#45;&gt;Node8 -->
<g id="edge7" class="edge">
<title>Node3&#45;&gt;Node8</title>
<path fill="none" stroke="midnightblue" d="M382.24,-461.12C400.12,-457.86 424.42,-453.43 446.96,-449.32"/>
<polygon fill="midnightblue" stroke="midnightblue" points="447.61,-452.76 456.82,-447.52 446.36,-445.87 447.61,-452.76"/>
</g>
<!-- Node9 -->
<g id="node9" class="node">
<title>Node9</title>
<g id="a_node9"><a xlink:href="class_calc.html#ad562619fef96a73cd3b4c27b35bc5f91" target="_top" xlink:title=" ">
<polygon fill="white" stroke="black" points="445,-504.5 445,-523.5 575,-523.5 575,-504.5 445,-504.5"/>
<text text-anchor="middle" x="510" y="-511.5" font-family="Helvetica,sans-Serif" font-size="10.00">Calc::_changeSubScript</text>
</a>
</g>
</g>
<!-- Node3&#45;&gt;Node9 -->
<g id="edge8" class="edge">
<title>Node3&#45;&gt;Node9</title>
<path fill="none" stroke="midnightblue" d="M382,-475.57C398.58,-481.44 420.44,-488.96 440,-495 447.35,-497.27 455.17,-499.55 462.82,-501.71"/>
<polygon fill="midnightblue" stroke="midnightblue" points="462.14,-505.15 472.71,-504.46 464.01,-498.41 462.14,-505.15"/>
</g>
<!-- Node15 -->
<g id="node15" class="node">
<title>Node15</title>
<g id="a_node15"><a xlink:href="class_calc.html#a1aec4748092712e0995c0ae5dabbf54f" target="_top" xlink:title=" ">
<polygon fill="white" stroke="black" points="440,-560.5 440,-579.5 580,-579.5 580,-560.5 440,-560.5"/>
<text text-anchor="middle" x="510" y="-567.5" font-family="Helvetica,sans-Serif" font-size="10.00">Calc::_changeSuperScript</text>
</a>
</g>
</g>
<!-- Node3&#45;&gt;Node15 -->
<g id="edge15" class="edge">
<title>Node3&#45;&gt;Node15</title>
<path fill="none" stroke="midnightblue" d="M362.23,-475.5C375.22,-493.11 405.5,-530.85 440,-551 443.85,-553.25 447.97,-555.24 452.21,-557"/>
<polygon fill="midnightblue" stroke="midnightblue" points="451.05,-560.3 461.64,-560.5 453.49,-553.73 451.05,-560.3"/>
</g>
<!-- Node5 -->
<g id="node5" class="node">
<title>Node5</title>
<g id="a_node5"><a xlink:href="class_calc.html#a7d793eba0a7c9fcbafec4310359f165d" target="_top" xlink:title=" ">
<polygon fill="white" stroke="black" points="618,-400.5 618,-419.5 711,-419.5 711,-400.5 618,-400.5"/>
<text text-anchor="middle" x="664.5" y="-407.5" font-family="Helvetica,sans-Serif" font-size="10.00">Calc::_addArma</text>
</a>
</g>
</g>
<!-- Node4&#45;&gt;Node5 -->
<g id="edge4" class="edge">
<title>Node4&#45;&gt;Node5</title>
<path fill="none" stroke="midnightblue" d="M572.59,-404.04C584.11,-404.79 596.09,-405.58 607.43,-406.32"/>
<polygon fill="midnightblue" stroke="midnightblue" points="607.43,-409.83 617.63,-406.99 607.88,-402.85 607.43,-409.83"/>
</g>
<!-- Node6 -->
<g id="node6" class="node">
<title>Node6</title>
<g id="a_node6"><a xlink:href="class_calc.html#af58cd6a2174e577a6246366de03b949e" target="_top" xlink:title=" ">
<polygon fill="white" stroke="black" points="616,-362.5 616,-381.5 713,-381.5 713,-362.5 616,-362.5"/>
<text text-anchor="middle" x="664.5" y="-369.5" font-family="Helvetica,sans-Serif" font-size="10.00">Calc::_addMmce</text>
</a>
</g>
</g>
<!-- Node4&#45;&gt;Node6 -->
<g id="edge5" class="edge">
<title>Node4&#45;&gt;Node6</title>
<path fill="none" stroke="midnightblue" d="M563.06,-390.44C576.8,-387.92 591.72,-385.18 605.75,-382.6"/>
<polygon fill="midnightblue" stroke="midnightblue" points="606.58,-386.01 615.78,-380.76 605.31,-379.13 606.58,-386.01"/>
</g>
<!-- Node9&#45;&gt;Node9 -->
<g id="edge9" class="edge">
<title>Node9&#45;&gt;Node9</title>
<path fill="none" stroke="midnightblue" d="M486.26,-523.76C474.72,-532.57 482.63,-542 510,-542 527.96,-542 537.54,-537.94 538.75,-532.65"/>
<polygon fill="midnightblue" stroke="midnightblue" points="541.69,-530.75 533.74,-523.76 535.59,-534.19 541.69,-530.75"/>
</g>
<!-- Node10 -->
<g id="node10" class="node">
<title>Node10</title>
<g id="a_node10"><a xlink:href="class_calc.html#a284818e83b0d85bdd029f3d72d4ef0bd" target="_top" xlink:title=" ">
<polygon fill="white" stroke="black" points="629.5,-523.5 629.5,-542.5 699.5,-542.5 699.5,-523.5 629.5,-523.5"/>
<text text-anchor="middle" x="664.5" y="-530.5" font-family="Helvetica,sans-Serif" font-size="10.00">Calc::_msg</text>
</a>
</g>
</g>
<!-- Node9&#45;&gt;Node10 -->
<g id="edge10" class="edge">
<title>Node9&#45;&gt;Node10</title>
<path fill="none" stroke="midnightblue" d="M575.23,-522C590.02,-523.85 605.43,-525.76 619.16,-527.48"/>
<polygon fill="midnightblue" stroke="midnightblue" points="618.93,-530.97 629.28,-528.74 619.79,-524.03 618.93,-530.97"/>
</g>
<!-- Node11 -->
<g id="node11" class="node">
<title>Node11</title>
<g id="a_node11"><a xlink:href="class_log.html#ac7147942832455398ad289b706a02616" target="_top" xlink:title="Write error message to the log file.">
<polygon fill="white" stroke="black" points="638,-485.5 638,-504.5 691,-504.5 691,-485.5 638,-485.5"/>
<text text-anchor="middle" x="664.5" y="-492.5" font-family="Helvetica,sans-Serif" font-size="10.00">Log::err</text>
</a>
</g>
</g>
<!-- Node9&#45;&gt;Node11 -->
<g id="edge11" class="edge">
<title>Node9&#45;&gt;Node11</title>
<path fill="none" stroke="midnightblue" d="M575.23,-506C593.09,-503.77 611.85,-501.44 627.46,-499.49"/>
<polygon fill="midnightblue" stroke="midnightblue" points="628.22,-502.92 637.71,-498.21 627.36,-495.98 628.22,-502.92"/>
</g>
<!-- Node9&#45;&gt;Node12 -->
<g id="edge12" class="edge">
<title>Node9&#45;&gt;Node12</title>
<path fill="none" stroke="midnightblue" d="M533.26,-523.6C547.37,-530.24 565.6,-539.85 580,-551 598.65,-565.44 597.64,-575.19 616,-590 621.94,-594.79 628.79,-599.32 635.41,-603.28"/>
<polygon fill="midnightblue" stroke="midnightblue" points="633.76,-606.37 644.17,-608.29 637.23,-600.29 633.76,-606.37"/>
</g>
<!-- Node13 -->
<g id="node13" class="node">
<title>Node13</title>
<g id="a_node13"><a xlink:href="utils_8h.html#aa0a3ba0e1cec6f6b77334767af46eef7" target="_top" xlink:title="Check if the string is an unsigned integer.">
<polygon fill="white" stroke="black" points="642,-447.5 642,-466.5 687,-466.5 687,-447.5 642,-447.5"/>
<text text-anchor="middle" x="664.5" y="-454.5" font-family="Helvetica,sans-Serif" font-size="10.00">isUInt</text>
</a>
</g>
</g>
<!-- Node9&#45;&gt;Node13 -->
<g id="edge13" class="edge">
<title>Node9&#45;&gt;Node13</title>
<path fill="none" stroke="midnightblue" d="M551.26,-504.5C560.81,-501.81 570.87,-498.61 580,-495 596.82,-488.34 599.58,-483.59 616,-476 621.14,-473.62 626.66,-471.25 632.07,-469.03"/>
<polygon fill="midnightblue" stroke="midnightblue" points="633.56,-472.2 641.54,-465.23 630.96,-465.71 633.56,-472.2"/>
</g>
<!-- Node14 -->
<g id="node14" class="node">
<title>Node14</title>
<g id="a_node14"><a xlink:href="class_type___track.html#ab510214767b1b4d71e3beadecb814bb7" target="_top" xlink:title=" ">
<polygon fill="white" stroke="black" points="617,-561.5 617,-580.5 712,-580.5 712,-561.5 617,-561.5"/>
<text text-anchor="middle" x="664.5" y="-568.5" font-family="Helvetica,sans-Serif" font-size="10.00">Type_Track::size</text>
</a>
</g>
</g>
<!-- Node9&#45;&gt;Node14 -->
<g id="edge14" class="edge">
<title>Node9&#45;&gt;Node14</title>
<path fill="none" stroke="midnightblue" d="M536.53,-523.54C561.71,-532.95 600.4,-547.41 628.45,-557.9"/>
<polygon fill="midnightblue" stroke="midnightblue" points="627.3,-561.21 637.89,-561.43 629.75,-554.65 627.3,-561.21"/>
</g>
<!-- Node19&#45;&gt;Node3 -->
<g id="edge21" class="edge">
<title>Node19&#45;&gt;Node3</title>
<path fill="none" stroke="midnightblue" d="M227.37,-317.06C241.59,-319.7 256.9,-324.48 269,-333 310.03,-361.9 335.65,-417.69 346.88,-446.98"/>
<polygon fill="midnightblue" stroke="midnightblue" points="343.63,-448.29 350.36,-456.47 350.2,-445.88 343.63,-448.29"/>
</g>
<!-- Node24 -->
<g id="node24" class="node">
<title>Node24</title>
<g id="a_node24"><a xlink:href="functions_8h.html#ac9dc58cb94b7547813c3a35154d97d18" target="_top" xlink:title=" ">
<polygon fill="white" stroke="black" points="315,-266.5 315,-285.5 394,-285.5 394,-266.5 315,-266.5"/>
<text text-anchor="middle" x="354.5" y="-273.5" font-family="Helvetica,sans-Serif" font-size="10.00">isFuncNoEnd</text>
</a>
</g>
</g>
<!-- Node23&#45;&gt;Node24 -->
<g id="edge26" class="edge">
<title>Node23&#45;&gt;Node24</title>
<path fill="none" stroke="midnightblue" d="M227.09,-276C250.63,-276 280.08,-276 304.64,-276"/>
<polygon fill="midnightblue" stroke="midnightblue" points="304.83,-279.5 314.83,-276 304.83,-272.5 304.83,-279.5"/>
</g>
<!-- Node25 -->
<g id="node25" class="node">
<title>Node25</title>
<g id="a_node25"><a xlink:href="utils_8h.html#af11c7cca5b9ad860da4bdb556dce3234" target="_top" xlink:title=" ">
<polygon fill="white" stroke="black" points="481,-266.5 481,-285.5 539,-285.5 539,-266.5 481,-266.5"/>
<text text-anchor="middle" x="510" y="-273.5" font-family="Helvetica,sans-Serif" font-size="10.00">contains</text>
</a>
</g>
</g>
<!-- Node24&#45;&gt;Node25 -->
<g id="edge27" class="edge">
<title>Node24&#45;&gt;Node25</title>
<path fill="none" stroke="midnightblue" d="M394.23,-276C417.65,-276 447.38,-276 470.71,-276"/>
<polygon fill="midnightblue" stroke="midnightblue" points="470.94,-279.5 480.94,-276 470.93,-272.5 470.94,-279.5"/>
</g>
<!-- Node26&#45;&gt;Node12 -->
<g id="edge29" class="edge">
<title>Node26&#45;&gt;Node12</title>
<path fill="none" stroke="midnightblue" d="M559.67,-618C580.66,-618 604.86,-618 624.62,-618"/>
<polygon fill="midnightblue" stroke="midnightblue" points="624.8,-621.5 634.8,-618 624.8,-614.5 624.8,-621.5"/>
</g>
<!-- Node28 -->
<g id="node28" class="node">
<title>Node28</title>
<g id="a_node28"><a xlink:href="utils_8h.html#aaaee605fe46abaa420448438d89b22ed" target="_top" xlink:title=" ">
<polygon fill="white" stroke="black" points="324.5,-228.5 324.5,-247.5 384.5,-247.5 384.5,-228.5 324.5,-228.5"/>
<text text-anchor="middle" x="354.5" y="-235.5" font-family="Helvetica,sans-Serif" font-size="10.00">isQuoted</text>
</a>
</g>
</g>
<!-- Node27&#45;&gt;Node28 -->
<g id="edge31" class="edge">
<title>Node27&#45;&gt;Node28</title>
<path fill="none" stroke="midnightblue" d="M225.79,-238C252.7,-238 287.76,-238 314.34,-238"/>
<polygon fill="midnightblue" stroke="midnightblue" points="314.43,-241.5 324.43,-238 314.43,-234.5 314.43,-241.5"/>
</g>
<!-- Node31 -->
<g id="node31" class="node">
<title>Node31</title>
<g id="a_node31"><a xlink:href="class_type.html#a5b8adffb334040c53940ecf814ebcc65" target="_top" xlink:title=" ">
<polygon fill="white" stroke="black" points="307,-152.5 307,-171.5 402,-171.5 402,-152.5 307,-152.5"/>
<text text-anchor="middle" x="354.5" y="-159.5" font-family="Helvetica,sans-Serif" font-size="10.00">Type::_getString</text>
</a>
</g>
</g>
<!-- Node30&#45;&gt;Node31 -->
<g id="edge34" class="edge">
<title>Node30&#45;&gt;Node31</title>
<path fill="none" stroke="midnightblue" d="M220.73,-162C242.81,-162 271.63,-162 296.77,-162"/>
<polygon fill="midnightblue" stroke="midnightblue" points="296.93,-165.5 306.93,-162 296.93,-158.5 296.93,-165.5"/>
</g>
<!-- Node32 -->
<g id="node32" class="node">
<title>Node32</title>
<g id="a_node32"><a xlink:href="class_type.html#a836b463aa4740a234e0d304ed4cd958f" target="_top" xlink:title=" ">
<polygon fill="white" stroke="black" points="305,-190.5 305,-209.5 404,-209.5 404,-190.5 305,-190.5"/>
<text text-anchor="middle" x="354.5" y="-197.5" font-family="Helvetica,sans-Serif" font-size="10.00">Type::isUnknown</text>
</a>
</g>
</g>
<!-- Node30&#45;&gt;Node32 -->
<g id="edge35" class="edge">
<title>Node30&#45;&gt;Node32</title>
<path fill="none" stroke="midnightblue" d="M220.73,-170.06C244.21,-175.35 275.3,-182.36 301.49,-188.27"/>
<polygon fill="midnightblue" stroke="midnightblue" points="300.74,-191.69 311.27,-190.48 302.28,-184.86 300.74,-191.69"/>
</g>
<!-- Node35 -->
<g id="node35" class="node">
<title>Node35</title>
<g id="a_node35"><a xlink:href="utils_8h.html#a47084ee818936eef3c48be492c0e860f" target="_top" xlink:title=" ">
<polygon fill="white" stroke="black" points="334.5,-57.5 334.5,-76.5 374.5,-76.5 374.5,-57.5 334.5,-57.5"/>
<text text-anchor="middle" x="354.5" y="-64.5" font-family="Helvetica,sans-Serif" font-size="10.00">ltrim</text>
</a>
</g>
</g>
<!-- Node34&#45;&gt;Node35 -->
<g id="edge38" class="edge">
<title>Node34&#45;&gt;Node35</title>
<path fill="none" stroke="midnightblue" d="M202.71,-84C231.66,-80.74 289.37,-74.23 324.4,-70.28"/>
<polygon fill="midnightblue" stroke="midnightblue" points="324.94,-73.74 334.48,-69.14 324.16,-66.79 324.94,-73.74"/>
</g>
<!-- Node36 -->
<g id="node36" class="node">
<title>Node36</title>
<g id="a_node36"><a xlink:href="utils_8h.html#af6d6bd5c29782e3b958b5f7c0d1ea9e3" target="_top" xlink:title=" ">
<polygon fill="white" stroke="black" points="334,-95.5 334,-114.5 375,-114.5 375,-95.5 334,-95.5"/>
<text text-anchor="middle" x="354.5" y="-102.5" font-family="Helvetica,sans-Serif" font-size="10.00">rtrim</text>
</a>
</g>
</g>
<!-- Node34&#45;&gt;Node36 -->
<g id="edge39" class="edge">
<title>Node34&#45;&gt;Node36</title>
<path fill="none" stroke="midnightblue" d="M202.71,-88C231.51,-91.24 288.76,-97.7 323.84,-101.66"/>
<polygon fill="midnightblue" stroke="midnightblue" points="323.63,-105.15 333.96,-102.8 324.42,-98.2 323.63,-105.15"/>
</g>
</g>
</svg>
