<?xml version="1.0" encoding="UTF-8" standalone="no"?>
<!DOCTYPE svg PUBLIC "-//W3C//DTD SVG 1.1//EN"
 "http://www.w3.org/Graphics/SVG/1.1/DTD/svg11.dtd">
<!-- Generated by graphviz version 2.43.0 (0)
 -->
<!-- Title: Export::_loadALG Pages: 1 -->
<svg width="969pt" height="902pt"
 viewBox="0.00 0.00 969.00 902.00" xmlns="http://www.w3.org/2000/svg" xmlns:xlink="http://www.w3.org/1999/xlink">
<g id="graph0" class="graph" transform="scale(1 1) rotate(0) translate(4 898)">
<title>Export::_loadALG</title>
<polygon fill="white" stroke="transparent" points="-4,4 -4,-898 965,-898 965,4 -4,4"/>
<!-- Node1 -->
<g id="node1" class="node">
<title>Node1</title>
<g id="a_node1"><a xlink:title=" ">
<polygon fill="#bfbfbf" stroke="black" points="0,-684.5 0,-703.5 100,-703.5 100,-684.5 0,-684.5"/>
<text text-anchor="middle" x="50" y="-691.5" font-family="Helvetica,sans-Serif" font-size="10.00">Export::_loadALG</text>
</a>
</g>
</g>
<!-- Node2 -->
<g id="node2" class="node">
<title>Node2</title>
<g id="a_node2"><a xlink:href="class_export.html#a638d6b9ced18342503ee6f4d4b274740" target="_top" xlink:title=" ">
<polygon fill="white" stroke="black" points="146.5,-874.5 146.5,-893.5 230.5,-893.5 230.5,-874.5 146.5,-874.5"/>
<text text-anchor="middle" x="188.5" y="-881.5" font-family="Helvetica,sans-Serif" font-size="10.00">Export::_asStr</text>
</a>
</g>
</g>
<!-- Node1&#45;&gt;Node2 -->
<g id="edge1" class="edge">
<title>Node1&#45;&gt;Node2</title>
<path fill="none" stroke="midnightblue" d="M53.5,-703.58C61.21,-731.34 87.04,-812.82 136,-860 139.95,-863.81 144.62,-867.09 149.5,-869.9"/>
<polygon fill="midnightblue" stroke="midnightblue" points="147.92,-873.03 158.42,-874.46 151.11,-866.79 147.92,-873.03"/>
</g>
<!-- Node3 -->
<g id="node3" class="node">
<title>Node3</title>
<g id="a_node3"><a xlink:href="class_export.html#a966a54f05ada435d6d1ce6e4a9750f41" target="_top" xlink:title=" ">
<polygon fill="white" stroke="black" points="483,-798.5 483,-817.5 650,-817.5 650,-798.5 483,-798.5"/>
<text text-anchor="middle" x="566.5" y="-805.5" font-family="Helvetica,sans-Serif" font-size="10.00">Export::_checkALGdependency</text>
</a>
</g>
</g>
<!-- Node1&#45;&gt;Node3 -->
<g id="edge2" class="edge">
<title>Node1&#45;&gt;Node3</title>
<path fill="none" stroke="midnightblue" d="M56.52,-703.59C68.27,-722.92 97.8,-766.25 136,-784 254.41,-839.01 411.4,-830.08 499.05,-818.88"/>
<polygon fill="midnightblue" stroke="midnightblue" points="499.68,-822.33 509.13,-817.55 498.76,-815.39 499.68,-822.33"/>
</g>
<!-- Node4 -->
<g id="node4" class="node">
<title>Node4</title>
<g id="a_node4"><a xlink:href="utils_8h.html#a49dc116689f1a4202be4d3f0743b1f70" target="_top" xlink:title=" ">
<polygon fill="white" stroke="black" points="731.5,-684.5 731.5,-703.5 780.5,-703.5 780.5,-684.5 731.5,-684.5"/>
<text text-anchor="middle" x="756" y="-691.5" font-family="Helvetica,sans-Serif" font-size="10.00">appDir</text>
</a>
</g>
</g>
<!-- Node1&#45;&gt;Node4 -->
<g id="edge12" class="edge">
<title>Node1&#45;&gt;Node4</title>
<path fill="none" stroke="midnightblue" d="M62.13,-703.64C77.51,-716.26 106.69,-737.75 136,-746 245.95,-776.96 544.77,-790.43 650,-746 671.14,-737.07 665.94,-720.13 686,-709 696.78,-703.02 709.73,-699.42 721.49,-697.26"/>
<polygon fill="midnightblue" stroke="midnightblue" points="722.1,-700.71 731.44,-695.7 721.02,-693.79 722.1,-700.71"/>
</g>
<!-- Node5 -->
<g id="node5" class="node">
<title>Node5</title>
<g id="a_node5"><a xlink:href="utils_8h.html#af11c7cca5b9ad860da4bdb556dce3234" target="_top" xlink:title=" ">
<polygon fill="white" stroke="black" points="727,-646.5 727,-665.5 785,-665.5 785,-646.5 727,-646.5"/>
<text text-anchor="middle" x="756" y="-653.5" font-family="Helvetica,sans-Serif" font-size="10.00">contains</text>
</a>
</g>
</g>
<!-- Node1&#45;&gt;Node5 -->
<g id="edge13" class="edge">
<title>Node1&#45;&gt;Node5</title>
<path fill="none" stroke="midnightblue" d="M85.45,-703.51C100.79,-707.27 119.17,-711.14 136,-713 249.53,-725.53 545.07,-758.13 650,-713 671.37,-703.81 666.05,-686.97 686,-675 695.37,-669.38 706.43,-665.38 716.93,-662.55"/>
<polygon fill="midnightblue" stroke="midnightblue" points="717.85,-665.93 726.75,-660.18 716.21,-659.12 717.85,-665.93"/>
</g>
<!-- Node7 -->
<g id="node7" class="node">
<title>Node7</title>
<g id="a_node7"><a xlink:href="class_log.html#add7e611cd3267d3fd5dae017e3aeef67" target="_top" xlink:title="Write infomation to the log file.">
<polygon fill="white" stroke="black" points="882,-532.5 882,-551.5 941,-551.5 941,-532.5 882,-532.5"/>
<text text-anchor="middle" x="911.5" y="-539.5" font-family="Helvetica,sans-Serif" font-size="10.00">Log::info</text>
</a>
</g>
</g>
<!-- Node1&#45;&gt;Node7 -->
<g id="edge15" class="edge">
<title>Node1&#45;&gt;Node7</title>
<path fill="none" stroke="midnightblue" d="M54.76,-703.74C64.34,-727.05 92.01,-786.15 136,-813 222.27,-865.66 259.93,-846 361,-846 361,-846 361,-846 567.5,-846 682.7,-846 736.28,-899.25 826,-827 868.49,-792.78 898.43,-620.72 907.57,-561.82"/>
<polygon fill="midnightblue" stroke="midnightblue" points="911.08,-562.03 909.12,-551.62 904.16,-560.98 911.08,-562.03"/>
</g>
<!-- Node9 -->
<g id="node9" class="node">
<title>Node9</title>
<g id="a_node9"><a xlink:href="class_export.html#abe75ae41d7cc8afe8f1ba4bbf67dfcfc" target="_top" xlink:title=" ">
<polygon fill="white" stroke="black" points="157,-684.5 157,-703.5 220,-703.5 220,-684.5 157,-684.5"/>
<text text-anchor="middle" x="188.5" y="-691.5" font-family="Helvetica,sans-Serif" font-size="10.00">Export::_f</text>
</a>
</g>
</g>
<!-- Node1&#45;&gt;Node9 -->
<g id="edge8" class="edge">
<title>Node1&#45;&gt;Node9</title>
<path fill="none" stroke="midnightblue" d="M100.28,-694C115.52,-694 132.13,-694 146.73,-694"/>
<polygon fill="midnightblue" stroke="midnightblue" points="146.95,-697.5 156.95,-694 146.95,-690.5 146.95,-697.5"/>
</g>
<!-- Node10 -->
<g id="node10" class="node">
<title>Node10</title>
<g id="a_node10"><a xlink:href="class_export.html#a68e698a5654fc800aa78c512da8f23b1" target="_top" xlink:title=" ">
<polygon fill="white" stroke="black" points="141.5,-646.5 141.5,-665.5 235.5,-665.5 235.5,-646.5 141.5,-646.5"/>
<text text-anchor="middle" x="188.5" y="-653.5" font-family="Helvetica,sans-Serif" font-size="10.00">Export::_langStr</text>
</a>
</g>
</g>
<!-- Node1&#45;&gt;Node10 -->
<g id="edge9" class="edge">
<title>Node1&#45;&gt;Node10</title>
<path fill="none" stroke="midnightblue" d="M85.44,-684.41C102.98,-679.53 124.51,-673.54 143.26,-668.32"/>
<polygon fill="midnightblue" stroke="midnightblue" points="144.37,-671.64 153.07,-665.59 142.49,-664.9 144.37,-671.64"/>
</g>
<!-- Node11 -->
<g id="node11" class="node">
<title>Node11</title>
<g id="a_node11"><a xlink:href="class_export.html#a33b5d571af76c0d4f9b9ee6e72afd8a6" target="_top" xlink:title=" ">
<polygon fill="white" stroke="black" points="136,-608.5 136,-627.5 241,-627.5 241,-608.5 136,-608.5"/>
<text text-anchor="middle" x="188.5" y="-615.5" font-family="Helvetica,sans-Serif" font-size="10.00">Export::_preCheck</text>
</a>
</g>
</g>
<!-- Node1&#45;&gt;Node11 -->
<g id="edge10" class="edge">
<title>Node1&#45;&gt;Node11</title>
<path fill="none" stroke="midnightblue" d="M63.38,-684.32C79.43,-672.09 108.62,-650.98 136,-637 139.97,-634.97 144.22,-633.05 148.5,-631.26"/>
<polygon fill="midnightblue" stroke="midnightblue" points="149.82,-634.5 157.84,-627.58 147.26,-627.99 149.82,-634.5"/>
</g>
<!-- Node13 -->
<g id="node13" class="node">
<title>Node13</title>
<g id="a_node13"><a xlink:href="class_log.html#a48b8faa1f9d2590c6fb650f1004e73c9" target="_top" xlink:title="Flush the buff into the log file.">
<polygon fill="white" stroke="black" points="157,-570.5 157,-589.5 220,-589.5 220,-570.5 157,-570.5"/>
<text text-anchor="middle" x="188.5" y="-577.5" font-family="Helvetica,sans-Serif" font-size="10.00">Log::flush</text>
</a>
</g>
</g>
<!-- Node1&#45;&gt;Node13 -->
<g id="edge14" class="edge">
<title>Node1&#45;&gt;Node13</title>
<path fill="none" stroke="midnightblue" d="M57.29,-684.23C69.99,-665.25 100.5,-623.14 136,-599 139.55,-596.59 143.44,-594.44 147.44,-592.53"/>
<polygon fill="midnightblue" stroke="midnightblue" points="149.05,-595.65 156.88,-588.51 146.31,-589.21 149.05,-595.65"/>
</g>
<!-- Node14 -->
<g id="node14" class="node">
<title>Node14</title>
<g id="a_node14"><a xlink:href="utils_8h.html#a88311911bb82476c66e267a39713c170" target="_top" xlink:title=" ">
<polygon fill="white" stroke="black" points="156,-532.5 156,-551.5 221,-551.5 221,-532.5 156,-532.5"/>
<text text-anchor="middle" x="188.5" y="-539.5" font-family="Helvetica,sans-Serif" font-size="10.00">trim_copy</text>
</a>
</g>
</g>
<!-- Node1&#45;&gt;Node14 -->
<g id="edge16" class="edge">
<title>Node1&#45;&gt;Node14</title>
<path fill="none" stroke="midnightblue" d="M54.57,-684.46C64.06,-660.32 92.24,-596.23 136,-561 139.17,-558.45 142.71,-556.22 146.41,-554.28"/>
<polygon fill="midnightblue" stroke="midnightblue" points="148.16,-557.33 155.83,-550.02 145.27,-550.95 148.16,-557.33"/>
</g>
<!-- Node18 -->
<g id="node18" class="node">
<title>Node18</title>
<g id="a_node18"><a xlink:href="class_alg.html#ada1e8215f047b4ffd736e811b5ea3162" target="_top" xlink:title=" ">
<polygon fill="white" stroke="black" points="157,-342.5 157,-361.5 220,-361.5 220,-342.5 157,-342.5"/>
<text text-anchor="middle" x="188.5" y="-349.5" font-family="Helvetica,sans-Serif" font-size="10.00">Alg::write</text>
</a>
</g>
</g>
<!-- Node1&#45;&gt;Node18 -->
<g id="edge20" class="edge">
<title>Node1&#45;&gt;Node18</title>
<path fill="none" stroke="midnightblue" d="M54.79,-684.5C73.31,-638.09 154.37,-435 179.82,-371.23"/>
<polygon fill="midnightblue" stroke="midnightblue" points="183.2,-372.21 183.66,-361.62 176.7,-369.61 183.2,-372.21"/>
</g>
<!-- Node3&#45;&gt;Node4 -->
<g id="edge3" class="edge">
<title>Node3&#45;&gt;Node4</title>
<path fill="none" stroke="midnightblue" d="M622.84,-798.46C632.57,-795.03 642.1,-790.36 650,-784 676.04,-763.06 660.51,-739.6 686,-718 696.05,-709.48 709.31,-703.92 721.52,-700.33"/>
<polygon fill="midnightblue" stroke="midnightblue" points="722.64,-703.65 731.43,-697.74 720.87,-696.88 722.64,-703.65"/>
</g>
<!-- Node3&#45;&gt;Node5 -->
<g id="edge4" class="edge">
<title>Node3&#45;&gt;Node5</title>
<path fill="none" stroke="midnightblue" d="M584.49,-798.46C602.57,-787.63 631.12,-768.52 650,-746 672.73,-718.89 658.6,-697.39 686,-675 694.77,-667.84 706.03,-663.37 716.91,-660.58"/>
<polygon fill="midnightblue" stroke="midnightblue" points="717.67,-663.99 726.7,-658.46 716.19,-657.15 717.67,-663.99"/>
</g>
<!-- Node6 -->
<g id="node6" class="node">
<title>Node6</title>
<g id="a_node6"><a xlink:href="class_log.html#ac7147942832455398ad289b706a02616" target="_top" xlink:title="Write error message to the log file.">
<polygon fill="white" stroke="black" points="885,-430.5 885,-449.5 938,-449.5 938,-430.5 885,-430.5"/>
<text text-anchor="middle" x="911.5" y="-437.5" font-family="Helvetica,sans-Serif" font-size="10.00">Log::err</text>
</a>
</g>
</g>
<!-- Node3&#45;&gt;Node6 -->
<g id="edge5" class="edge">
<title>Node3&#45;&gt;Node6</title>
<path fill="none" stroke="midnightblue" d="M616.42,-798.38C627.94,-794.89 639.81,-790.21 650,-784 669.86,-771.88 665.83,-757.6 686,-746 741.42,-714.13 781.81,-759.19 826,-713 885.41,-650.9 831.88,-603.5 862,-523 870.9,-499.22 886.35,-474.39 897.42,-458.16"/>
<polygon fill="midnightblue" stroke="midnightblue" points="900.5,-459.87 903.35,-449.67 894.76,-455.86 900.5,-459.87"/>
</g>
<!-- Node3&#45;&gt;Node7 -->
<g id="edge6" class="edge">
<title>Node3&#45;&gt;Node7</title>
<path fill="none" stroke="midnightblue" d="M617.85,-798.47C688.49,-784.73 810.18,-759.5 826,-746 883.29,-697.08 902.42,-603.05 908.21,-562"/>
<polygon fill="midnightblue" stroke="midnightblue" points="911.71,-562.27 909.52,-551.9 904.76,-561.37 911.71,-562.27"/>
</g>
<!-- Node8 -->
<g id="node8" class="node">
<title>Node8</title>
<g id="a_node8"><a xlink:href="class_log.html#ab61203710351f6d33d7ba634d2c4eb32" target="_top" xlink:title="Write warning message to the log file.">
<polygon fill="white" stroke="black" points="727,-798.5 727,-817.5 785,-817.5 785,-798.5 727,-798.5"/>
<text text-anchor="middle" x="756" y="-805.5" font-family="Helvetica,sans-Serif" font-size="10.00">Log::war</text>
</a>
</g>
</g>
<!-- Node3&#45;&gt;Node8 -->
<g id="edge7" class="edge">
<title>Node3&#45;&gt;Node8</title>
<path fill="none" stroke="midnightblue" d="M650.01,-808C673.22,-808 697.37,-808 716.64,-808"/>
<polygon fill="midnightblue" stroke="midnightblue" points="716.81,-811.5 726.81,-808 716.81,-804.5 716.81,-811.5"/>
</g>
<!-- Node12 -->
<g id="node12" class="node">
<title>Node12</title>
<g id="a_node12"><a xlink:href="error__code_8h.html#ae1bfa02e1106eff84ddecb9f7773a1a4" target="_top" xlink:title="Return the error message of the error code from class Err.">
<polygon fill="white" stroke="black" points="332,-684.5 332,-703.5 392,-703.5 392,-684.5 332,-684.5"/>
<text text-anchor="middle" x="362" y="-691.5" font-family="Helvetica,sans-Serif" font-size="10.00">errorMsg</text>
</a>
</g>
</g>
<!-- Node11&#45;&gt;Node12 -->
<g id="edge11" class="edge">
<title>Node11&#45;&gt;Node12</title>
<path fill="none" stroke="midnightblue" d="M222.46,-627.59C228.87,-630.16 235.35,-633.28 241,-637 260.42,-649.81 256.78,-663.49 277,-675 290.62,-682.75 307.17,-687.34 321.96,-690.06"/>
<polygon fill="midnightblue" stroke="midnightblue" points="321.44,-693.52 331.87,-691.66 322.55,-686.61 321.44,-693.52"/>
</g>
<!-- Node15 -->
<g id="node15" class="node">
<title>Node15</title>
<g id="a_node15"><a xlink:href="utils_8h.html#a6ef734356291c638e5787a6c668192d4" target="_top" xlink:title=" ">
<polygon fill="white" stroke="black" points="343.5,-646.5 343.5,-665.5 380.5,-665.5 380.5,-646.5 343.5,-646.5"/>
<text text-anchor="middle" x="362" y="-653.5" font-family="Helvetica,sans-Serif" font-size="10.00">trim</text>
</a>
</g>
</g>
<!-- Node14&#45;&gt;Node15 -->
<g id="edge17" class="edge">
<title>Node14&#45;&gt;Node15</title>
<path fill="none" stroke="midnightblue" d="M221.08,-549.3C228.24,-552.07 235.37,-555.85 241,-561 268.58,-586.23 247.83,-613.63 277,-637 292.83,-649.68 315.46,-654.26 333.24,-655.76"/>
<polygon fill="midnightblue" stroke="midnightblue" points="333.14,-659.26 343.33,-656.33 333.54,-652.27 333.14,-659.26"/>
</g>
<!-- Node16 -->
<g id="node16" class="node">
<title>Node16</title>
<g id="a_node16"><a xlink:href="utils_8h.html#a47084ee818936eef3c48be492c0e860f" target="_top" xlink:title=" ">
<polygon fill="white" stroke="black" points="546.5,-646.5 546.5,-665.5 586.5,-665.5 586.5,-646.5 546.5,-646.5"/>
<text text-anchor="middle" x="566.5" y="-653.5" font-family="Helvetica,sans-Serif" font-size="10.00">ltrim</text>
</a>
</g>
</g>
<!-- Node15&#45;&gt;Node16 -->
<g id="edge18" class="edge">
<title>Node15&#45;&gt;Node16</title>
<path fill="none" stroke="midnightblue" d="M380.62,-656C415.48,-656 493.58,-656 536.27,-656"/>
<polygon fill="midnightblue" stroke="midnightblue" points="536.31,-659.5 546.31,-656 536.31,-652.5 536.31,-659.5"/>
</g>
<!-- Node17 -->
<g id="node17" class="node">
<title>Node17</title>
<g id="a_node17"><a xlink:href="utils_8h.html#af6d6bd5c29782e3b958b5f7c0d1ea9e3" target="_top" xlink:title=" ">
<polygon fill="white" stroke="black" points="546,-684.5 546,-703.5 587,-703.5 587,-684.5 546,-684.5"/>
<text text-anchor="middle" x="566.5" y="-691.5" font-family="Helvetica,sans-Serif" font-size="10.00">rtrim</text>
</a>
</g>
</g>
<!-- Node15&#45;&gt;Node17 -->
<g id="edge19" class="edge">
<title>Node15&#45;&gt;Node17</title>
<path fill="none" stroke="midnightblue" d="M380.62,-659.31C415.3,-665.81 492.78,-680.35 535.61,-688.39"/>
<polygon fill="midnightblue" stroke="midnightblue" points="535.23,-691.88 545.71,-690.29 536.52,-685 535.23,-691.88"/>
</g>
<!-- Node18&#45;&gt;Node7 -->
<g id="edge41" class="edge">
<title>Node18&#45;&gt;Node7</title>
<path fill="none" stroke="midnightblue" d="M220.08,-359.78C236.79,-363.74 257.92,-368.28 277,-371 519.14,-405.48 615.84,-283.89 826,-409 837.39,-415.78 879.95,-488.5 899.97,-523.45"/>
<polygon fill="midnightblue" stroke="midnightblue" points="896.98,-525.27 904.97,-532.22 903.06,-521.8 896.98,-525.27"/>
</g>
<!-- Node18&#45;&gt;Node15 -->
<g id="edge60" class="edge">
<title>Node18&#45;&gt;Node15</title>
<path fill="none" stroke="midnightblue" d="M192.41,-361.72C207.3,-411.37 274.3,-634.5 277,-637 292.03,-650.94 315.05,-655.4 333.2,-656.53"/>
<polygon fill="midnightblue" stroke="midnightblue" points="333.11,-660.03 343.22,-656.86 333.34,-653.03 333.11,-660.03"/>
</g>
<!-- Node18&#45;&gt;Node18 -->
<g id="edge62" class="edge">
<title>Node18&#45;&gt;Node18</title>
<path fill="none" stroke="midnightblue" d="M167.23,-361.76C156.88,-370.57 163.97,-380 188.5,-380 204.21,-380 212.77,-376.13 214.17,-371.03"/>
<polygon fill="midnightblue" stroke="midnightblue" points="217.22,-369.29 209.77,-361.76 210.89,-372.29 217.22,-369.29"/>
</g>
<!-- Node19 -->
<g id="node19" class="node">
<title>Node19</title>
<g id="a_node19"><a xlink:href="class_alg.html#a2cf2b7f4e37c8e401d9c6dad6687917d" target="_top" xlink:title=" ">
<polygon fill="white" stroke="black" points="312,-342.5 312,-361.5 412,-361.5 412,-342.5 312,-342.5"/>
<text text-anchor="middle" x="362" y="-349.5" font-family="Helvetica,sans-Serif" font-size="10.00">Alg::_wComment</text>
</a>
</g>
</g>
<!-- Node18&#45;&gt;Node19 -->
<g id="edge21" class="edge">
<title>Node18&#45;&gt;Node19</title>
<path fill="none" stroke="midnightblue" d="M220.16,-352C242.71,-352 274.09,-352 301.5,-352"/>
<polygon fill="midnightblue" stroke="midnightblue" points="301.78,-355.5 311.78,-352 301.78,-348.5 301.78,-355.5"/>
</g>
<!-- Node20 -->
<g id="node20" class="node">
<title>Node20</title>
<g id="a_node20"><a xlink:href="class_calc.html#ad6dbdfdd4bd21322e5836ff72c11ae1b" target="_top" xlink:title="Convert the Alg CALC contents into a language command.">
<polygon fill="white" stroke="black" points="539,-124.5 539,-143.5 594,-143.5 594,-124.5 539,-124.5"/>
<text text-anchor="middle" x="566.5" y="-131.5" font-family="Helvetica,sans-Serif" font-size="10.00">Calc::as</text>
</a>
</g>
</g>
<!-- Node18&#45;&gt;Node20 -->
<g id="edge22" class="edge">
<title>Node18&#45;&gt;Node20</title>
<path fill="none" stroke="midnightblue" d="M191.3,-342.27C197.35,-312.58 219.86,-222.63 277,-181 297.08,-166.37 455.32,-146.61 528.55,-138.14"/>
<polygon fill="midnightblue" stroke="midnightblue" points="529.17,-141.59 538.71,-136.97 528.38,-134.64 529.17,-141.59"/>
</g>
<!-- Node28 -->
<g id="node28" class="node">
<title>Node28</title>
<g id="a_node28"><a xlink:href="class_type.html#abe15820e780d2f6646792d54f3ae3311" target="_top" xlink:title=" ">
<polygon fill="white" stroke="black" points="879.5,-276.5 879.5,-295.5 943.5,-295.5 943.5,-276.5 879.5,-276.5"/>
<text text-anchor="middle" x="911.5" y="-283.5" font-family="Helvetica,sans-Serif" font-size="10.00">Type::dim</text>
</a>
</g>
</g>
<!-- Node18&#45;&gt;Node28 -->
<g id="edge38" class="edge">
<title>Node18&#45;&gt;Node28</title>
<path fill="none" stroke="midnightblue" d="M207.67,-342.36C224.97,-333.71 251.99,-321.56 277,-316 495.77,-267.35 767.14,-277.1 869.17,-283.13"/>
<polygon fill="midnightblue" stroke="midnightblue" points="869.15,-286.64 879.35,-283.76 869.58,-279.65 869.15,-286.64"/>
</g>
<!-- Node33 -->
<g id="node33" class="node">
<title>Node33</title>
<g id="a_node33"><a xlink:href="class_alg___line.html#af651454e6ddfce164626b68b2c6cba97" target="_top" xlink:title="Get the function name.">
<polygon fill="white" stroke="black" points="319.5,-228.5 319.5,-247.5 404.5,-247.5 404.5,-228.5 319.5,-228.5"/>
<text text-anchor="middle" x="362" y="-235.5" font-family="Helvetica,sans-Serif" font-size="10.00">Alg_Line::func</text>
</a>
</g>
</g>
<!-- Node18&#45;&gt;Node33 -->
<g id="edge39" class="edge">
<title>Node18&#45;&gt;Node33</title>
<path fill="none" stroke="midnightblue" d="M196.23,-342.25C209.5,-323.78 240.9,-283.58 277,-262 286.87,-256.1 298.25,-251.59 309.4,-248.16"/>
<polygon fill="midnightblue" stroke="midnightblue" points="310.41,-251.51 319.08,-245.42 308.51,-244.78 310.41,-251.51"/>
</g>
<!-- Node34 -->
<g id="node34" class="node">
<title>Node34</title>
<g id="a_node34"><a xlink:href="class_alg___line.html#a49a98870a1f09e35a3e15a7d7bab1666" target="_top" xlink:title="Check whether parameters contain the key.">
<polygon fill="white" stroke="black" points="312.5,-190.5 312.5,-209.5 411.5,-209.5 411.5,-190.5 312.5,-190.5"/>
<text text-anchor="middle" x="362" y="-197.5" font-family="Helvetica,sans-Serif" font-size="10.00">Alg_Line::hasKey</text>
</a>
</g>
</g>
<!-- Node18&#45;&gt;Node34 -->
<g id="edge40" class="edge">
<title>Node18&#45;&gt;Node34</title>
<path fill="none" stroke="midnightblue" d="M192.85,-342.47C202.06,-317.78 230.19,-251.41 277,-219 284.58,-213.75 293.39,-209.93 302.39,-207.15"/>
<polygon fill="midnightblue" stroke="midnightblue" points="303.43,-210.49 312.18,-204.52 301.61,-203.73 303.43,-210.49"/>
</g>
<!-- Node35 -->
<g id="node35" class="node">
<title>Node35</title>
<g id="a_node35"><a xlink:href="class_alg.html#a3ee7f9963027158b3fbd442d97800111" target="_top" xlink:title=" ">
<polygon fill="white" stroke="black" points="319,-0.5 319,-19.5 405,-19.5 405,-0.5 319,-0.5"/>
<text text-anchor="middle" x="362" y="-7.5" font-family="Helvetica,sans-Serif" font-size="10.00">Alg::inlineCalc</text>
</a>
</g>
</g>
<!-- Node18&#45;&gt;Node35 -->
<g id="edge42" class="edge">
<title>Node18&#45;&gt;Node35</title>
<path fill="none" stroke="midnightblue" d="M190.78,-342.26C197.42,-293.3 229.4,-74.64 277,-29 285.68,-20.67 297.21,-15.7 308.93,-12.8"/>
<polygon fill="midnightblue" stroke="midnightblue" points="309.65,-16.23 318.76,-10.83 308.27,-9.37 309.65,-16.23"/>
</g>
<!-- Node36 -->
<g id="node36" class="node">
<title>Node36</title>
<g id="a_node36"><a xlink:href="class_alg___line.html#ad419191a99be7e34024e569ad833b04e" target="_top" xlink:title="Check whether the line is for function declaration.">
<polygon fill="white" stroke="black" points="277,-114.5 277,-133.5 447,-133.5 447,-114.5 277,-114.5"/>
<text text-anchor="middle" x="362" y="-121.5" font-family="Helvetica,sans-Serif" font-size="10.00">Alg_Line::isFunctionDeclaration</text>
</a>
</g>
</g>
<!-- Node18&#45;&gt;Node36 -->
<g id="edge44" class="edge">
<title>Node18&#45;&gt;Node36</title>
<path fill="none" stroke="midnightblue" d="M190.73,-342.19C195.36,-309.43 214.82,-202.75 277,-148 281.71,-143.86 287.08,-140.42 292.79,-137.58"/>
<polygon fill="midnightblue" stroke="midnightblue" points="294.21,-140.78 301.99,-133.59 291.42,-134.36 294.21,-140.78"/>
</g>
<!-- Node37 -->
<g id="node37" class="node">
<title>Node37</title>
<g id="a_node37"><a xlink:href="class_alg.html#af935e64a6eb4afa4ca1540f4da3dcc9c" target="_top" xlink:title=" ">
<polygon fill="white" stroke="black" points="334,-76.5 334,-95.5 390,-95.5 390,-76.5 334,-76.5"/>
<text text-anchor="middle" x="362" y="-83.5" font-family="Helvetica,sans-Serif" font-size="10.00">Alg::line</text>
</a>
</g>
</g>
<!-- Node18&#45;&gt;Node37 -->
<g id="edge45" class="edge">
<title>Node18&#45;&gt;Node37</title>
<path fill="none" stroke="midnightblue" d="M189.78,-342.41C191.39,-305.5 202.35,-171.32 277,-105 289.65,-93.76 307.54,-88.74 323.56,-86.65"/>
<polygon fill="midnightblue" stroke="midnightblue" points="324.13,-90.11 333.74,-85.65 323.45,-83.14 324.13,-90.11"/>
</g>
<!-- Node38 -->
<g id="node38" class="node">
<title>Node38</title>
<g id="a_node38"><a xlink:href="class_alg___line.html#a4e79eb77a1cddbdab1dbdde8a499342d" target="_top" xlink:title="Parameter variables.">
<polygon fill="white" stroke="black" points="311.5,-38.5 311.5,-57.5 412.5,-57.5 412.5,-38.5 311.5,-38.5"/>
<text text-anchor="middle" x="362" y="-45.5" font-family="Helvetica,sans-Serif" font-size="10.00">Alg_Line::params</text>
</a>
</g>
</g>
<!-- Node18&#45;&gt;Node38 -->
<g id="edge46" class="edge">
<title>Node18&#45;&gt;Node38</title>
<path fill="none" stroke="midnightblue" d="M189.26,-342.39C188.82,-302.08 192.74,-145.13 277,-67 283.84,-60.65 292.34,-56.27 301.29,-53.28"/>
<polygon fill="midnightblue" stroke="midnightblue" points="302.41,-56.6 311.11,-50.54 300.53,-49.85 302.41,-56.6"/>
</g>
<!-- Node39 -->
<g id="node39" class="node">
<title>Node39</title>
<g id="a_node39"><a xlink:href="class_alg___line.html#a801b08c6c164376039a4ba4e980d039e" target="_top" xlink:title="Print Alg_Line contents (including return values, function names and parameters).">
<polygon fill="white" stroke="black" points="319,-608.5 319,-627.5 405,-627.5 405,-608.5 319,-608.5"/>
<text text-anchor="middle" x="362" y="-615.5" font-family="Helvetica,sans-Serif" font-size="10.00">Alg_Line::print</text>
</a>
</g>
</g>
<!-- Node18&#45;&gt;Node39 -->
<g id="edge47" class="edge">
<title>Node18&#45;&gt;Node39</title>
<path fill="none" stroke="midnightblue" d="M192.28,-361.53C205.01,-404.87 257.91,-582.04 277,-599 285.82,-606.83 297.18,-611.64 308.68,-614.55"/>
<polygon fill="midnightblue" stroke="midnightblue" points="308.25,-618.04 318.76,-616.64 309.68,-611.18 308.25,-618.04"/>
</g>
<!-- Node41 -->
<g id="node41" class="node">
<title>Node41</title>
<g id="a_node41"><a xlink:href="class_type___track.html#a4548ba1c289fba60e88b0e725509219e" target="_top" xlink:title=" ">
<polygon fill="white" stroke="black" points="312.5,-532.5 312.5,-551.5 411.5,-551.5 411.5,-532.5 312.5,-532.5"/>
<text text-anchor="middle" x="362" y="-539.5" font-family="Helvetica,sans-Serif" font-size="10.00">Type_Track::push</text>
</a>
</g>
</g>
<!-- Node18&#45;&gt;Node41 -->
<g id="edge50" class="edge">
<title>Node18&#45;&gt;Node41</title>
<path fill="none" stroke="midnightblue" d="M191.42,-361.58C197.8,-390.83 221.15,-479.65 277,-523 284.37,-528.72 293.14,-532.79 302.19,-535.66"/>
<polygon fill="midnightblue" stroke="midnightblue" points="301.5,-539.09 312.07,-538.32 303.33,-532.34 301.5,-539.09"/>
</g>
<!-- Node42 -->
<g id="node42" class="node">
<title>Node42</title>
<g id="a_node42"><a xlink:href="class_type.html#a0153b8ff39040caf3ff2a6f7c7329d7c" target="_top" xlink:title="Get the C++ type name.">
<polygon fill="white" stroke="black" points="530,-418.5 530,-437.5 603,-437.5 603,-418.5 530,-418.5"/>
<text text-anchor="middle" x="566.5" y="-425.5" font-family="Helvetica,sans-Serif" font-size="10.00">Type::string</text>
</a>
</g>
</g>
<!-- Node18&#45;&gt;Node42 -->
<g id="edge58" class="edge">
<title>Node18&#45;&gt;Node42</title>
<path fill="none" stroke="midnightblue" d="M218.69,-342.43C267.51,-328.04 368.13,-305.29 447,-333 490.87,-348.41 530.53,-387.67 550.96,-410.61"/>
<polygon fill="midnightblue" stroke="midnightblue" points="548.39,-412.99 557.59,-418.25 553.68,-408.4 548.39,-412.99"/>
</g>
<!-- Node44 -->
<g id="node44" class="node">
<title>Node44</title>
<g id="a_node44"><a xlink:href="utils_8h.html#a0465457013518e168df05799c93cfa6e" target="_top" xlink:title=" ">
<polygon fill="white" stroke="black" points="320.5,-570.5 320.5,-589.5 403.5,-589.5 403.5,-570.5 320.5,-570.5"/>
<text text-anchor="middle" x="362" y="-577.5" font-family="Helvetica,sans-Serif" font-size="10.00">removeQuote</text>
</a>
</g>
</g>
<!-- Node18&#45;&gt;Node44 -->
<g id="edge55" class="edge">
<title>Node18&#45;&gt;Node44</title>
<path fill="none" stroke="midnightblue" d="M190.47,-361.71C194.37,-395.14 211.93,-506.37 277,-561 286.39,-568.89 298.39,-573.67 310.36,-576.53"/>
<polygon fill="midnightblue" stroke="midnightblue" points="309.86,-580 320.35,-578.5 311.22,-573.13 309.86,-580"/>
</g>
<!-- Node46 -->
<g id="node46" class="node">
<title>Node46</title>
<g id="a_node46"><a xlink:href="class_alg___line.html#a8e21f6b69eaf80a2327f7308fb4299e0" target="_top" xlink:title="Return variables.">
<polygon fill="white" stroke="black" points="313,-494.5 313,-513.5 411,-513.5 411,-494.5 313,-494.5"/>
<text text-anchor="middle" x="362" y="-501.5" font-family="Helvetica,sans-Serif" font-size="10.00">Alg_Line::returns</text>
</a>
</g>
</g>
<!-- Node18&#45;&gt;Node46 -->
<g id="edge57" class="edge">
<title>Node18&#45;&gt;Node46</title>
<path fill="none" stroke="midnightblue" d="M192.85,-361.53C202.06,-386.22 230.19,-452.59 277,-485 284.67,-490.31 293.6,-494.17 302.71,-496.95"/>
<polygon fill="midnightblue" stroke="midnightblue" points="302.05,-500.4 312.62,-499.58 303.85,-493.63 302.05,-500.4"/>
</g>
<!-- Node47 -->
<g id="node47" class="node">
<title>Node47</title>
<g id="a_node47"><a xlink:href="namespacemmce.html#ad4a160832ef9fad47c531ece39752208" target="_top" xlink:title="Change a number to string.">
<polygon fill="white" stroke="black" points="314,-456.5 314,-475.5 410,-475.5 410,-456.5 314,-456.5"/>
<text text-anchor="middle" x="362" y="-463.5" font-family="Helvetica,sans-Serif" font-size="10.00">mmce::to_string</text>
</a>
</g>
</g>
<!-- Node18&#45;&gt;Node47 -->
<g id="edge59" class="edge">
<title>Node18&#45;&gt;Node47</title>
<path fill="none" stroke="midnightblue" d="M195.4,-361.58C207.88,-381 238.96,-424.99 277,-447 285.26,-451.78 294.62,-455.36 304.03,-458.03"/>
<polygon fill="midnightblue" stroke="midnightblue" points="303.24,-461.44 313.79,-460.51 304.96,-454.66 303.24,-461.44"/>
</g>
<!-- Node48 -->
<g id="node48" class="node">
<title>Node48</title>
<g id="a_node48"><a xlink:href="class_log.html#a3410828f35c9bf8dd0771ead28de27b0" target="_top" xlink:title="Write contents to the log file.">
<polygon fill="white" stroke="black" points="329.5,-418.5 329.5,-437.5 394.5,-437.5 394.5,-418.5 329.5,-418.5"/>
<text text-anchor="middle" x="362" y="-425.5" font-family="Helvetica,sans-Serif" font-size="10.00">Log::write</text>
</a>
</g>
</g>
<!-- Node18&#45;&gt;Node48 -->
<g id="edge61" class="edge">
<title>Node18&#45;&gt;Node48</title>
<path fill="none" stroke="midnightblue" d="M203.15,-361.63C219.88,-373.07 249.42,-392.1 277,-404 290.45,-409.8 305.7,-414.64 319.49,-418.42"/>
<polygon fill="midnightblue" stroke="midnightblue" points="318.66,-421.82 329.22,-420.98 320.44,-415.05 318.66,-421.82"/>
</g>
<!-- Node21 -->
<g id="node21" class="node">
<title>Node21</title>
<g id="a_node21"><a xlink:href="class_calc.html#af1d1bd5e83f9e5196627f5a4e1a5ee83" target="_top" xlink:title=" ">
<polygon fill="white" stroke="black" points="693.5,-124.5 693.5,-143.5 818.5,-143.5 818.5,-124.5 693.5,-124.5"/>
<text text-anchor="middle" x="756" y="-131.5" font-family="Helvetica,sans-Serif" font-size="10.00">Calc::_changeFunction</text>
</a>
</g>
</g>
<!-- Node20&#45;&gt;Node21 -->
<g id="edge23" class="edge">
<title>Node20&#45;&gt;Node21</title>
<path fill="none" stroke="midnightblue" d="M594.36,-134C617.47,-134 651.89,-134 682.95,-134"/>
<polygon fill="midnightblue" stroke="midnightblue" points="683.33,-137.5 693.33,-134 683.33,-130.5 683.33,-137.5"/>
</g>
<!-- Node24 -->
<g id="node24" class="node">
<title>Node24</title>
<g id="a_node24"><a xlink:href="class_calc.html#ae3d88bd40f9bdf2c8ec92c426bdca446" target="_top" xlink:title=" ">
<polygon fill="white" stroke="black" points="692.5,-86.5 692.5,-105.5 819.5,-105.5 819.5,-86.5 692.5,-86.5"/>
<text text-anchor="middle" x="756" y="-93.5" font-family="Helvetica,sans-Serif" font-size="10.00">Calc::_changeOperator</text>
</a>
</g>
</g>
<!-- Node20&#45;&gt;Node24 -->
<g id="edge26" class="edge">
<title>Node20&#45;&gt;Node24</title>
<path fill="none" stroke="midnightblue" d="M594.36,-128.56C621.28,-123.1 663.53,-114.54 697.95,-107.56"/>
<polygon fill="midnightblue" stroke="midnightblue" points="698.78,-110.96 707.89,-105.55 697.39,-104.1 698.78,-110.96"/>
</g>
<!-- Node25 -->
<g id="node25" class="node">
<title>Node25</title>
<g id="a_node25"><a xlink:href="class_calc.html#ad95be528148e0d63848d5fa916b93200" target="_top" xlink:title=" ">
<polygon fill="white" stroke="black" points="700.5,-48.5 700.5,-67.5 811.5,-67.5 811.5,-48.5 700.5,-48.5"/>
<text text-anchor="middle" x="756" y="-55.5" font-family="Helvetica,sans-Serif" font-size="10.00">Calc::_changeParen</text>
</a>
</g>
</g>
<!-- Node20&#45;&gt;Node25 -->
<g id="edge27" class="edge">
<title>Node20&#45;&gt;Node25</title>
<path fill="none" stroke="midnightblue" d="M584.74,-124.49C607.43,-112.26 648.8,-90.94 686,-77 692.33,-74.63 699.09,-72.4 705.81,-70.38"/>
<polygon fill="midnightblue" stroke="midnightblue" points="706.93,-73.69 715.56,-67.55 704.98,-66.97 706.93,-73.69"/>
</g>
<!-- Node26 -->
<g id="node26" class="node">
<title>Node26</title>
<g id="a_node26"><a xlink:href="class_calc.html#ad562619fef96a73cd3b4c27b35bc5f91" target="_top" xlink:title=" ">
<polygon fill="white" stroke="black" points="691,-210.5 691,-229.5 821,-229.5 821,-210.5 691,-210.5"/>
<text text-anchor="middle" x="756" y="-217.5" font-family="Helvetica,sans-Serif" font-size="10.00">Calc::_changeSubScript</text>
</a>
</g>
</g>
<!-- Node20&#45;&gt;Node26 -->
<g id="edge28" class="edge">
<title>Node20&#45;&gt;Node26</title>
<path fill="none" stroke="midnightblue" d="M586.65,-143.58C609.97,-155.16 650.61,-175.06 686,-191 697.76,-196.29 710.76,-201.84 722.29,-206.65"/>
<polygon fill="midnightblue" stroke="midnightblue" points="720.98,-209.9 731.56,-210.49 723.66,-203.43 720.98,-209.9"/>
</g>
<!-- Node32 -->
<g id="node32" class="node">
<title>Node32</title>
<g id="a_node32"><a xlink:href="class_calc.html#a1aec4748092712e0995c0ae5dabbf54f" target="_top" xlink:title=" ">
<polygon fill="white" stroke="black" points="686,-162.5 686,-181.5 826,-181.5 826,-162.5 686,-162.5"/>
<text text-anchor="middle" x="756" y="-169.5" font-family="Helvetica,sans-Serif" font-size="10.00">Calc::_changeSuperScript</text>
</a>
</g>
</g>
<!-- Node20&#45;&gt;Node32 -->
<g id="edge37" class="edge">
<title>Node20&#45;&gt;Node32</title>
<path fill="none" stroke="midnightblue" d="M594.36,-139.44C621.28,-144.9 663.53,-153.46 697.95,-160.44"/>
<polygon fill="midnightblue" stroke="midnightblue" points="697.39,-163.9 707.89,-162.45 698.78,-157.04 697.39,-163.9"/>
</g>
<!-- Node22 -->
<g id="node22" class="node">
<title>Node22</title>
<g id="a_node22"><a xlink:href="class_calc.html#a7d793eba0a7c9fcbafec4310359f165d" target="_top" xlink:title=" ">
<polygon fill="white" stroke="black" points="865,-124.5 865,-143.5 958,-143.5 958,-124.5 865,-124.5"/>
<text text-anchor="middle" x="911.5" y="-131.5" font-family="Helvetica,sans-Serif" font-size="10.00">Calc::_addArma</text>
</a>
</g>
</g>
<!-- Node21&#45;&gt;Node22 -->
<g id="edge24" class="edge">
<title>Node21&#45;&gt;Node22</title>
<path fill="none" stroke="midnightblue" d="M818.55,-134C830.42,-134 842.8,-134 854.48,-134"/>
<polygon fill="midnightblue" stroke="midnightblue" points="854.54,-137.5 864.54,-134 854.54,-130.5 854.54,-137.5"/>
</g>
<!-- Node23 -->
<g id="node23" class="node">
<title>Node23</title>
<g id="a_node23"><a xlink:href="class_calc.html#af58cd6a2174e577a6246366de03b949e" target="_top" xlink:title=" ">
<polygon fill="white" stroke="black" points="863,-86.5 863,-105.5 960,-105.5 960,-86.5 863,-86.5"/>
<text text-anchor="middle" x="911.5" y="-93.5" font-family="Helvetica,sans-Serif" font-size="10.00">Calc::_addMmce</text>
</a>
</g>
</g>
<!-- Node21&#45;&gt;Node23 -->
<g id="edge25" class="edge">
<title>Node21&#45;&gt;Node23</title>
<path fill="none" stroke="midnightblue" d="M795.73,-124.41C815.9,-119.42 840.75,-113.27 862.16,-107.97"/>
<polygon fill="midnightblue" stroke="midnightblue" points="863.18,-111.32 872.04,-105.52 861.5,-104.53 863.18,-111.32"/>
</g>
<!-- Node26&#45;&gt;Node6 -->
<g id="edge32" class="edge">
<title>Node26&#45;&gt;Node6</title>
<path fill="none" stroke="midnightblue" d="M763.79,-229.74C787.52,-263.74 866.93,-377.55 897.94,-422"/>
<polygon fill="midnightblue" stroke="midnightblue" points="895.19,-424.18 903.78,-430.38 900.93,-420.17 895.19,-424.18"/>
</g>
<!-- Node26&#45;&gt;Node7 -->
<g id="edge33" class="edge">
<title>Node26&#45;&gt;Node7</title>
<path fill="none" stroke="midnightblue" d="M761.38,-229.85C772.34,-254.46 801.76,-320.66 826,-376 842.13,-412.83 843.82,-423.13 862,-459 873.6,-481.9 888.77,-507.24 899.03,-523.83"/>
<polygon fill="midnightblue" stroke="midnightblue" points="896.18,-525.87 904.44,-532.5 902.12,-522.16 896.18,-525.87"/>
</g>
<!-- Node26&#45;&gt;Node26 -->
<g id="edge29" class="edge">
<title>Node26&#45;&gt;Node26</title>
<path fill="none" stroke="midnightblue" d="M732.26,-229.76C720.72,-238.57 728.63,-248 756,-248 773.96,-248 783.54,-243.94 784.75,-238.65"/>
<polygon fill="midnightblue" stroke="midnightblue" points="787.69,-236.75 779.74,-229.76 781.59,-240.19 787.69,-236.75"/>
</g>
<!-- Node27 -->
<g id="node27" class="node">
<title>Node27</title>
<g id="a_node27"><a xlink:href="class_calc.html#a284818e83b0d85bdd029f3d72d4ef0bd" target="_top" xlink:title=" ">
<polygon fill="white" stroke="black" points="876.5,-200.5 876.5,-219.5 946.5,-219.5 946.5,-200.5 876.5,-200.5"/>
<text text-anchor="middle" x="911.5" y="-207.5" font-family="Helvetica,sans-Serif" font-size="10.00">Calc::_msg</text>
</a>
</g>
</g>
<!-- Node26&#45;&gt;Node27 -->
<g id="edge30" class="edge">
<title>Node26&#45;&gt;Node27</title>
<path fill="none" stroke="midnightblue" d="M821.21,-215.82C836.27,-214.84 851.99,-213.81 865.96,-212.9"/>
<polygon fill="midnightblue" stroke="midnightblue" points="866.52,-216.37 876.27,-212.23 866.07,-209.39 866.52,-216.37"/>
</g>
<!-- Node26&#45;&gt;Node28 -->
<g id="edge31" class="edge">
<title>Node26&#45;&gt;Node28</title>
<path fill="none" stroke="midnightblue" d="M777.79,-229.66C798.88,-239.37 832.53,-254.64 862,-267 866.46,-268.87 871.17,-270.79 875.83,-272.65"/>
<polygon fill="midnightblue" stroke="midnightblue" points="874.65,-275.95 885.24,-276.36 877.22,-269.44 874.65,-275.95"/>
</g>
<!-- Node29 -->
<g id="node29" class="node">
<title>Node29</title>
<g id="a_node29"><a xlink:href="utils_8h.html#aa0a3ba0e1cec6f6b77334767af46eef7" target="_top" xlink:title="Check if the string is an unsigned integer.">
<polygon fill="white" stroke="black" points="889,-162.5 889,-181.5 934,-181.5 934,-162.5 889,-162.5"/>
<text text-anchor="middle" x="911.5" y="-169.5" font-family="Helvetica,sans-Serif" font-size="10.00">isUInt</text>
</a>
</g>
</g>
<!-- Node26&#45;&gt;Node29 -->
<g id="edge34" class="edge">
<title>Node26&#45;&gt;Node29</title>
<path fill="none" stroke="midnightblue" d="M787.69,-210.4C814.23,-202.11 852.41,-190.16 879.14,-181.81"/>
<polygon fill="midnightblue" stroke="midnightblue" points="880.27,-185.12 888.77,-178.79 878.18,-178.44 880.27,-185.12"/>
</g>
<!-- Node30 -->
<g id="node30" class="node">
<title>Node30</title>
<g id="a_node30"><a xlink:href="class_type.html#a836b463aa4740a234e0d304ed4cd958f" target="_top" xlink:title=" ">
<polygon fill="white" stroke="black" points="862,-321.5 862,-340.5 961,-340.5 961,-321.5 862,-321.5"/>
<text text-anchor="middle" x="911.5" y="-328.5" font-family="Helvetica,sans-Serif" font-size="10.00">Type::isUnknown</text>
</a>
</g>
</g>
<!-- Node26&#45;&gt;Node30 -->
<g id="edge35" class="edge">
<title>Node26&#45;&gt;Node30</title>
<path fill="none" stroke="midnightblue" d="M767.52,-229.64C785.86,-246.2 825.27,-280.6 862,-305 868.1,-309.05 874.89,-313 881.41,-316.55"/>
<polygon fill="midnightblue" stroke="midnightblue" points="880.18,-319.87 890.66,-321.44 883.45,-313.68 880.18,-319.87"/>
</g>
<!-- Node31 -->
<g id="node31" class="node">
<title>Node31</title>
<g id="a_node31"><a xlink:href="class_type___track.html#ab510214767b1b4d71e3beadecb814bb7" target="_top" xlink:title=" ">
<polygon fill="white" stroke="black" points="864,-238.5 864,-257.5 959,-257.5 959,-238.5 864,-238.5"/>
<text text-anchor="middle" x="911.5" y="-245.5" font-family="Helvetica,sans-Serif" font-size="10.00">Type_Track::size</text>
</a>
</g>
</g>
<!-- Node26&#45;&gt;Node31 -->
<g id="edge36" class="edge">
<title>Node26&#45;&gt;Node31</title>
<path fill="none" stroke="midnightblue" d="M809.4,-229.56C823.79,-232.18 839.46,-235.04 854.07,-237.71"/>
<polygon fill="midnightblue" stroke="midnightblue" points="853.53,-241.17 863.99,-239.52 854.78,-234.28 853.53,-241.17"/>
</g>
<!-- Node35&#45;&gt;Node20 -->
<g id="edge43" class="edge">
<title>Node35&#45;&gt;Node20</title>
<path fill="none" stroke="midnightblue" d="M405.02,-15.23C418.91,-18.05 434.09,-22.38 447,-29 490.35,-51.23 530.47,-93 551.06,-116.61"/>
<polygon fill="midnightblue" stroke="midnightblue" points="548.57,-119.09 557.73,-124.41 553.89,-114.54 548.57,-119.09"/>
</g>
<!-- Node40 -->
<g id="node40" class="node">
<title>Node40</title>
<g id="a_node40"><a xlink:href="functions_8h.html#ac9dc58cb94b7547813c3a35154d97d18" target="_top" xlink:title=" ">
<polygon fill="white" stroke="black" points="527,-608.5 527,-627.5 606,-627.5 606,-608.5 527,-608.5"/>
<text text-anchor="middle" x="566.5" y="-615.5" font-family="Helvetica,sans-Serif" font-size="10.00">isFuncNoEnd</text>
</a>
</g>
</g>
<!-- Node39&#45;&gt;Node40 -->
<g id="edge48" class="edge">
<title>Node39&#45;&gt;Node40</title>
<path fill="none" stroke="midnightblue" d="M405.45,-618C437.93,-618 482.76,-618 516.71,-618"/>
<polygon fill="midnightblue" stroke="midnightblue" points="516.87,-621.5 526.87,-618 516.87,-614.5 516.87,-621.5"/>
</g>
<!-- Node40&#45;&gt;Node5 -->
<g id="edge49" class="edge">
<title>Node40&#45;&gt;Node5</title>
<path fill="none" stroke="midnightblue" d="M606.35,-625.87C638.77,-632.45 684.73,-641.76 716.93,-648.28"/>
<polygon fill="midnightblue" stroke="midnightblue" points="716.37,-651.74 726.87,-650.3 717.77,-644.88 716.37,-651.74"/>
</g>
<!-- Node41&#45;&gt;Node7 -->
<g id="edge51" class="edge">
<title>Node41&#45;&gt;Node7</title>
<path fill="none" stroke="midnightblue" d="M411.59,-542C518.9,-542 774.34,-542 871.8,-542"/>
<polygon fill="midnightblue" stroke="midnightblue" points="871.81,-545.5 881.81,-542 871.81,-538.5 871.81,-545.5"/>
</g>
<!-- Node41&#45;&gt;Node42 -->
<g id="edge52" class="edge">
<title>Node41&#45;&gt;Node42</title>
<path fill="none" stroke="midnightblue" d="M411.8,-534.87C423.67,-532.09 436.09,-528.26 447,-523 488.28,-503.1 528.13,-466.44 549.46,-444.94"/>
<polygon fill="midnightblue" stroke="midnightblue" points="552.23,-447.12 556.7,-437.51 547.21,-442.23 552.23,-447.12"/>
</g>
<!-- Node42&#45;&gt;Node30 -->
<g id="edge54" class="edge">
<title>Node42&#45;&gt;Node30</title>
<path fill="none" stroke="midnightblue" d="M601.33,-418.43C663.91,-400.74 797.68,-362.9 866.94,-343.32"/>
<polygon fill="midnightblue" stroke="midnightblue" points="868,-346.66 876.67,-340.57 866.1,-339.92 868,-346.66"/>
</g>
<!-- Node43 -->
<g id="node43" class="node">
<title>Node43</title>
<g id="a_node43"><a xlink:href="class_type.html#a5b8adffb334040c53940ecf814ebcc65" target="_top" xlink:title=" ">
<polygon fill="white" stroke="black" points="708.5,-418.5 708.5,-437.5 803.5,-437.5 803.5,-418.5 708.5,-418.5"/>
<text text-anchor="middle" x="756" y="-425.5" font-family="Helvetica,sans-Serif" font-size="10.00">Type::_getString</text>
</a>
</g>
</g>
<!-- Node42&#45;&gt;Node43 -->
<g id="edge53" class="edge">
<title>Node42&#45;&gt;Node43</title>
<path fill="none" stroke="midnightblue" d="M603.21,-428C630.03,-428 667.31,-428 698.21,-428"/>
<polygon fill="midnightblue" stroke="midnightblue" points="698.42,-431.5 708.42,-428 698.42,-424.5 698.42,-431.5"/>
</g>
<!-- Node45 -->
<g id="node45" class="node">
<title>Node45</title>
<g id="a_node45"><a xlink:href="utils_8h.html#aaaee605fe46abaa420448438d89b22ed" target="_top" xlink:title=" ">
<polygon fill="white" stroke="black" points="536.5,-570.5 536.5,-589.5 596.5,-589.5 596.5,-570.5 536.5,-570.5"/>
<text text-anchor="middle" x="566.5" y="-577.5" font-family="Helvetica,sans-Serif" font-size="10.00">isQuoted</text>
</a>
</g>
</g>
<!-- Node44&#45;&gt;Node45 -->
<g id="edge56" class="edge">
<title>Node44&#45;&gt;Node45</title>
<path fill="none" stroke="midnightblue" d="M403.98,-580C439.59,-580 490.84,-580 526,-580"/>
<polygon fill="midnightblue" stroke="midnightblue" points="526.37,-583.5 536.37,-580 526.37,-576.5 526.37,-583.5"/>
</g>
</g>
</svg>
