<?xml version="1.0" encoding="UTF-8" standalone="no"?>
<!DOCTYPE svg PUBLIC "-//W3C//DTD SVG 1.1//EN"
 "http://www.w3.org/Graphics/SVG/1.1/DTD/svg11.dtd">
<!-- Generated by graphviz version 2.43.0 (0)
 -->
<!-- Title: Calc::_msg Pages: 1 -->
<svg width="1148pt" height="162pt"
 viewBox="0.00 0.00 1148.00 162.17" xmlns="http://www.w3.org/2000/svg" xmlns:xlink="http://www.w3.org/1999/xlink">
<g id="graph0" class="graph" transform="scale(1 1) rotate(0) translate(4 158.17)">
<title>Calc::_msg</title>
<polygon fill="white" stroke="transparent" points="-4,4 -4,-158.17 1144,-158.17 1144,4 -4,4"/>
<!-- Node1 -->
<g id="node1" class="node">
<title>Node1</title>
<g id="a_node1"><a xlink:title=" ">
<polygon fill="#bfbfbf" stroke="black" points="1070,-95.5 1070,-114.5 1140,-114.5 1140,-95.5 1070,-95.5"/>
<text text-anchor="middle" x="1105" y="-102.5" font-family="Helvetica,sans-Serif" font-size="10.00">Calc::_msg</text>
</a>
</g>
</g>
<!-- Node2 -->
<g id="node2" class="node">
<title>Node2</title>
<g id="a_node2"><a xlink:href="class_calc.html#ad562619fef96a73cd3b4c27b35bc5f91" target="_top" xlink:title=" ">
<polygon fill="white" stroke="black" points="904,-95.5 904,-114.5 1034,-114.5 1034,-95.5 904,-95.5"/>
<text text-anchor="middle" x="969" y="-102.5" font-family="Helvetica,sans-Serif" font-size="10.00">Calc::_changeSubScript</text>
</a>
</g>
</g>
<!-- Node1&#45;&gt;Node2 -->
<g id="edge1" class="edge">
<title>Node1&#45;&gt;Node2</title>
<path fill="none" stroke="midnightblue" d="M1059.74,-105C1051.51,-105 1042.76,-105 1034.07,-105"/>
<polygon fill="midnightblue" stroke="midnightblue" points="1059.84,-108.5 1069.84,-105 1059.84,-101.5 1059.84,-108.5"/>
</g>
<!-- Node2&#45;&gt;Node2 -->
<g id="edge2" class="edge">
<title>Node2&#45;&gt;Node2</title>
<path fill="none" stroke="midnightblue" d="M992.81,-124.03C991.51,-129.13 983.57,-133 969,-133 946.25,-133 939.67,-123.57 949.27,-114.76"/>
<polygon fill="midnightblue" stroke="midnightblue" points="995.96,-122.5 988.73,-114.76 989.55,-125.32 995.96,-122.5"/>
</g>
<!-- Node3 -->
<g id="node3" class="node">
<title>Node3</title>
<g id="a_node3"><a xlink:href="class_calc.html#ad6dbdfdd4bd21322e5836ff72c11ae1b" target="_top" xlink:title="Convert the Alg CALC contents into a language command.">
<polygon fill="white" stroke="black" points="813,-95.5 813,-114.5 868,-114.5 868,-95.5 813,-95.5"/>
<text text-anchor="middle" x="840.5" y="-102.5" font-family="Helvetica,sans-Serif" font-size="10.00">Calc::as</text>
</a>
</g>
</g>
<!-- Node2&#45;&gt;Node3 -->
<g id="edge3" class="edge">
<title>Node2&#45;&gt;Node3</title>
<path fill="none" stroke="midnightblue" d="M893.38,-105C884.37,-105 875.69,-105 868.08,-105"/>
<polygon fill="midnightblue" stroke="midnightblue" points="893.64,-108.5 903.64,-105 893.64,-101.5 893.64,-108.5"/>
</g>
<!-- Node4 -->
<g id="node4" class="node">
<title>Node4</title>
<g id="a_node4"><a xlink:href="class_calc.html#ad26b51e3caa182fb7cb4d8e5c03ca8b1" target="_top" xlink:title=" ">
<polygon fill="white" stroke="black" points="706.5,-133.5 706.5,-152.5 761.5,-152.5 761.5,-133.5 706.5,-133.5"/>
<text text-anchor="middle" x="734" y="-140.5" font-family="Helvetica,sans-Serif" font-size="10.00">Calc::as</text>
</a>
</g>
</g>
<!-- Node3&#45;&gt;Node4 -->
<g id="edge4" class="edge">
<title>Node3&#45;&gt;Node4</title>
<path fill="none" stroke="midnightblue" d="M803.43,-118.12C789.6,-123.14 774.11,-128.78 761.36,-133.41"/>
<polygon fill="midnightblue" stroke="midnightblue" points="804.93,-121.3 813.13,-114.59 802.54,-114.72 804.93,-121.3"/>
</g>
<!-- Node5 -->
<g id="node5" class="node">
<title>Node5</title>
<g id="a_node5"><a xlink:href="class_alg.html#a3ee7f9963027158b3fbd442d97800111" target="_top" xlink:title=" ">
<polygon fill="white" stroke="black" points="691,-95.5 691,-114.5 777,-114.5 777,-95.5 691,-95.5"/>
<text text-anchor="middle" x="734" y="-102.5" font-family="Helvetica,sans-Serif" font-size="10.00">Alg::inlineCalc</text>
</a>
</g>
</g>
<!-- Node3&#45;&gt;Node5 -->
<g id="edge5" class="edge">
<title>Node3&#45;&gt;Node5</title>
<path fill="none" stroke="midnightblue" d="M802.72,-105C794.41,-105 785.53,-105 777.03,-105"/>
<polygon fill="midnightblue" stroke="midnightblue" points="802.86,-108.5 812.86,-105 802.86,-101.5 802.86,-108.5"/>
</g>
<!-- Node6 -->
<g id="node6" class="node">
<title>Node6</title>
<g id="a_node6"><a xlink:href="class_alg.html#ada1e8215f047b4ffd736e811b5ea3162" target="_top" xlink:title=" ">
<polygon fill="white" stroke="black" points="592,-76.5 592,-95.5 655,-95.5 655,-76.5 592,-76.5"/>
<text text-anchor="middle" x="623.5" y="-83.5" font-family="Helvetica,sans-Serif" font-size="10.00">Alg::write</text>
</a>
</g>
</g>
<!-- Node3&#45;&gt;Node6 -->
<g id="edge20" class="edge">
<title>Node3&#45;&gt;Node6</title>
<path fill="none" stroke="midnightblue" d="M804.43,-92.36C795.6,-89.73 786.05,-87.34 777,-86 735.1,-79.77 686,-81.33 655.08,-83.37"/>
<polygon fill="midnightblue" stroke="midnightblue" points="803.46,-95.72 814.05,-95.4 805.57,-89.05 803.46,-95.72"/>
</g>
<!-- Node5&#45;&gt;Node6 -->
<g id="edge6" class="edge">
<title>Node5&#45;&gt;Node6</title>
<path fill="none" stroke="midnightblue" d="M680.85,-95.87C672.01,-94.32 663.1,-92.76 655.06,-91.35"/>
<polygon fill="midnightblue" stroke="midnightblue" points="680.29,-99.32 690.74,-97.6 681.49,-92.43 680.29,-99.32"/>
</g>
<!-- Node6&#45;&gt;Node6 -->
<g id="edge19" class="edge">
<title>Node6&#45;&gt;Node6</title>
<path fill="none" stroke="midnightblue" d="M643.87,-105.4C642.51,-110.31 635.72,-114 623.5,-114 603.95,-114 598.3,-104.57 606.55,-95.76"/>
<polygon fill="midnightblue" stroke="midnightblue" points="647.09,-104.01 640.45,-95.76 640.49,-106.35 647.09,-104.01"/>
</g>
<!-- Node7 -->
<g id="node7" class="node">
<title>Node7</title>
<g id="a_node7"><a xlink:href="class_export.html#a89d3ae54dd2261cf35be148011b79fe4" target="_top" xlink:title=" ">
<polygon fill="white" stroke="black" points="292,-114.5 292,-133.5 404,-133.5 404,-114.5 292,-114.5"/>
<text text-anchor="middle" x="348" y="-121.5" font-family="Helvetica,sans-Serif" font-size="10.00">Export::_algorithms</text>
</a>
</g>
</g>
<!-- Node6&#45;&gt;Node7 -->
<g id="edge7" class="edge">
<title>Node6&#45;&gt;Node7</title>
<path fill="none" stroke="midnightblue" d="M608.51,-103.41C596.31,-117.1 577.26,-135.14 556,-143 494.4,-165.79 415.76,-146.57 375.45,-133.56"/>
<polygon fill="midnightblue" stroke="midnightblue" points="611.36,-105.46 615.18,-95.58 606.04,-100.92 611.36,-105.46"/>
</g>
<!-- Node11 -->
<g id="node11" class="node">
<title>Node11</title>
<g id="a_node11"><a xlink:href="class_export.html#ae4811e1e4212029122c0ee29613714cc" target="_top" xlink:title=" ">
<polygon fill="white" stroke="black" points="442,-76.5 442,-95.5 554,-95.5 554,-76.5 442,-76.5"/>
<text text-anchor="middle" x="498" y="-83.5" font-family="Helvetica,sans-Serif" font-size="10.00">Export::_estimation</text>
</a>
</g>
</g>
<!-- Node6&#45;&gt;Node11 -->
<g id="edge11" class="edge">
<title>Node6&#45;&gt;Node11</title>
<path fill="none" stroke="midnightblue" d="M581.92,-86C573.06,-86 563.53,-86 554.2,-86"/>
<polygon fill="midnightblue" stroke="midnightblue" points="581.97,-89.5 591.97,-86 581.97,-82.5 581.97,-89.5"/>
</g>
<!-- Node12 -->
<g id="node12" class="node">
<title>Node12</title>
<g id="a_node12"><a xlink:href="class_export.html#a26fa49d9882a342d011ba715e0c14109" target="_top" xlink:title=" ">
<polygon fill="white" stroke="black" points="296,-57.5 296,-76.5 400,-76.5 400,-57.5 296,-57.5"/>
<text text-anchor="middle" x="348" y="-64.5" font-family="Helvetica,sans-Serif" font-size="10.00">Export::_sounding</text>
</a>
</g>
</g>
<!-- Node6&#45;&gt;Node12 -->
<g id="edge18" class="edge">
<title>Node6&#45;&gt;Node12</title>
<path fill="none" stroke="midnightblue" d="M586,-73.6C576.36,-70.87 565.88,-68.38 556,-67 503.33,-59.62 442.37,-60.78 400.32,-63.06"/>
<polygon fill="midnightblue" stroke="midnightblue" points="585.11,-76.99 595.69,-76.5 587.11,-70.28 585.11,-76.99"/>
</g>
<!-- Node13 -->
<g id="node13" class="node">
<title>Node13</title>
<g id="a_node13"><a xlink:href="class_export.html#a59ba705b2369f21006ec7d7b7f3a4513" target="_top" xlink:title="Generate RIS reflection matrices.">
<polygon fill="white" stroke="black" points="440,-0.5 440,-19.5 556,-19.5 556,-0.5 440,-0.5"/>
<text text-anchor="middle" x="498" y="-7.5" font-family="Helvetica,sans-Serif" font-size="10.00">Export::_generateBF</text>
</a>
</g>
</g>
<!-- Node6&#45;&gt;Node13 -->
<g id="edge14" class="edge">
<title>Node6&#45;&gt;Node13</title>
<path fill="none" stroke="midnightblue" d="M604.2,-69.52C591.35,-58.51 573.42,-44.23 556,-34 546.56,-28.45 535.59,-23.52 525.81,-19.58"/>
<polygon fill="midnightblue" stroke="midnightblue" points="602.02,-72.27 611.85,-76.21 606.63,-67 602.02,-72.27"/>
</g>
<!-- Node14 -->
<g id="node14" class="node">
<title>Node14</title>
<g id="a_node14"><a xlink:href="class_export.html#a833aa02973f6b5c1f3e536e8646cf1ac" target="_top" xlink:title=" ">
<polygon fill="white" stroke="black" points="448,-114.5 448,-133.5 548,-133.5 548,-114.5 448,-114.5"/>
<text text-anchor="middle" x="498" y="-121.5" font-family="Helvetica,sans-Serif" font-size="10.00">Export::_loadALG</text>
</a>
</g>
</g>
<!-- Node6&#45;&gt;Node14 -->
<g id="edge16" class="edge">
<title>Node6&#45;&gt;Node14</title>
<path fill="none" stroke="midnightblue" d="M582.31,-98.37C565.34,-103.59 545.88,-109.58 530.03,-114.45"/>
<polygon fill="midnightblue" stroke="midnightblue" points="583.44,-101.68 591.97,-95.39 581.38,-94.99 583.44,-101.68"/>
</g>
<!-- Node8 -->
<g id="node8" class="node">
<title>Node8</title>
<g id="a_node8"><a xlink:href="class_export.html#affc37d1d677a83d3e5d36a4e37b7a72b" target="_top" xlink:title=" ">
<polygon fill="white" stroke="black" points="146,-76.5 146,-95.5 256,-95.5 256,-76.5 146,-76.5"/>
<text text-anchor="middle" x="201" y="-83.5" font-family="Helvetica,sans-Serif" font-size="10.00">Export::exportCode</text>
</a>
</g>
</g>
<!-- Node7&#45;&gt;Node8 -->
<g id="edge8" class="edge">
<title>Node7&#45;&gt;Node8</title>
<path fill="none" stroke="midnightblue" d="M300.51,-111.82C280.38,-106.54 257.16,-100.46 238.33,-95.52"/>
<polygon fill="midnightblue" stroke="midnightblue" points="299.85,-115.26 310.41,-114.41 301.62,-108.49 299.85,-115.26"/>
</g>
<!-- Node9 -->
<g id="node9" class="node">
<title>Node9</title>
<g id="a_node9"><a xlink:href="class_export.html#a94fab568af6ddd6447efca74e205e081" target="_top" xlink:title=" ">
<polygon fill="white" stroke="black" points="0,-95.5 0,-114.5 110,-114.5 110,-95.5 0,-95.5"/>
<text text-anchor="middle" x="55" y="-102.5" font-family="Helvetica,sans-Serif" font-size="10.00">Export::exportCode</text>
</a>
</g>
</g>
<!-- Node8&#45;&gt;Node9 -->
<g id="edge9" class="edge">
<title>Node8&#45;&gt;Node9</title>
<path fill="none" stroke="midnightblue" d="M136.01,-94.44C127.44,-95.57 118.72,-96.73 110.33,-97.83"/>
<polygon fill="midnightblue" stroke="midnightblue" points="136.51,-97.91 145.97,-93.13 135.6,-90.97 136.51,-97.91"/>
</g>
<!-- Node10 -->
<g id="node10" class="node">
<title>Node10</title>
<g id="a_node10"><a xlink:href="src_2main_8cpp.html#a0ddf1224851353fc92bfbff6f499fa97" target="_top" xlink:title=" ">
<polygon fill="white" stroke="black" points="34.5,-57.5 34.5,-76.5 75.5,-76.5 75.5,-57.5 34.5,-57.5"/>
<text text-anchor="middle" x="55" y="-64.5" font-family="Helvetica,sans-Serif" font-size="10.00">main</text>
</a>
</g>
</g>
<!-- Node8&#45;&gt;Node10 -->
<g id="edge10" class="edge">
<title>Node8&#45;&gt;Node10</title>
<path fill="none" stroke="midnightblue" d="M136.05,-77.56C114.24,-74.68 91.43,-71.67 75.76,-69.61"/>
<polygon fill="midnightblue" stroke="midnightblue" points="135.6,-81.03 145.97,-78.87 136.51,-74.09 135.6,-81.03"/>
</g>
<!-- Node11&#45;&gt;Node12 -->
<g id="edge12" class="edge">
<title>Node11&#45;&gt;Node12</title>
<path fill="none" stroke="midnightblue" d="M431.85,-77.64C421.26,-76.28 410.43,-74.89 400.24,-73.58"/>
<polygon fill="midnightblue" stroke="midnightblue" points="431.53,-81.12 441.89,-78.93 432.42,-74.18 431.53,-81.12"/>
</g>
<!-- Node12&#45;&gt;Node8 -->
<g id="edge13" class="edge">
<title>Node12&#45;&gt;Node8</title>
<path fill="none" stroke="midnightblue" d="M285.75,-75.03C275.9,-76.32 265.77,-77.64 256.1,-78.91"/>
<polygon fill="midnightblue" stroke="midnightblue" points="286.42,-78.47 295.88,-73.7 285.51,-71.53 286.42,-78.47"/>
</g>
<!-- Node13&#45;&gt;Node12 -->
<g id="edge15" class="edge">
<title>Node13&#45;&gt;Node12</title>
<path fill="none" stroke="midnightblue" d="M462.72,-23.2C435.54,-33.67 398.21,-48.05 373.85,-57.43"/>
<polygon fill="midnightblue" stroke="midnightblue" points="464.15,-26.4 472.23,-19.54 461.64,-19.87 464.15,-26.4"/>
</g>
<!-- Node14&#45;&gt;Node7 -->
<g id="edge17" class="edge">
<title>Node14&#45;&gt;Node7</title>
<path fill="none" stroke="midnightblue" d="M437.71,-124C426.65,-124 415.13,-124 404.19,-124"/>
<polygon fill="midnightblue" stroke="midnightblue" points="437.72,-127.5 447.72,-124 437.72,-120.5 437.72,-127.5"/>
</g>
</g>
</svg>
