<?xml version="1.0" encoding="UTF-8" standalone="no"?>
<!DOCTYPE svg PUBLIC "-//W3C//DTD SVG 1.1//EN"
 "http://www.w3.org/Graphics/SVG/1.1/DTD/svg11.dtd">
<!-- Generated by graphviz version 2.43.0 (0)
 -->
<!-- Title: ReadConfig::read Pages: 1 -->
<svg width="244pt" height="66pt"
 viewBox="0.00 0.00 244.00 66.00" xmlns="http://www.w3.org/2000/svg" xmlns:xlink="http://www.w3.org/1999/xlink">
<g id="graph0" class="graph" transform="scale(1 1) rotate(0) translate(4 62)">
<title>ReadConfig::read</title>
<polygon fill="white" stroke="transparent" points="-4,4 -4,-62 240,-62 240,4 -4,4"/>
<!-- Node1 -->
<g id="node1" class="node">
<title>Node1</title>
<g id="a_node1"><a xlink:title=" ">
<polygon fill="#bfbfbf" stroke="black" points="136,-19.5 136,-38.5 236,-38.5 236,-19.5 136,-19.5"/>
<text text-anchor="middle" x="186" y="-26.5" font-family="Helvetica,sans-Serif" font-size="10.00">ReadConfig::read</text>
</a>
</g>
</g>
<!-- Node2 -->
<g id="node2" class="node">
<title>Node2</title>
<g id="a_node2"><a xlink:href="class_export.html#a23f9a3cb5f7cd82b36037e6d4f7123ed" target="_top" xlink:title=" ">
<polygon fill="white" stroke="black" points="7,-38.5 7,-57.5 93,-57.5 93,-38.5 7,-38.5"/>
<text text-anchor="middle" x="50" y="-45.5" font-family="Helvetica,sans-Serif" font-size="10.00">Export::Export</text>
</a>
</g>
</g>
<!-- Node1&#45;&gt;Node2 -->
<g id="edge1" class="edge">
<title>Node1&#45;&gt;Node2</title>
<path fill="none" stroke="midnightblue" d="M125.84,-37.39C114.8,-38.95 103.47,-40.56 93.07,-42.03"/>
<polygon fill="midnightblue" stroke="midnightblue" points="126.45,-40.84 135.86,-35.97 125.47,-33.91 126.45,-40.84"/>
</g>
<!-- Node3 -->
<g id="node3" class="node">
<title>Node3</title>
<g id="a_node3"><a xlink:href="class_read_config.html#aa7976fbf5c2cb70d4a3cca8f1c6f3f11" target="_top" xlink:title=" ">
<polygon fill="white" stroke="black" points="0,-0.5 0,-19.5 100,-19.5 100,-0.5 0,-0.5"/>
<text text-anchor="middle" x="50" y="-7.5" font-family="Helvetica,sans-Serif" font-size="10.00">ReadConfig::read</text>
</a>
</g>
</g>
<!-- Node1&#45;&gt;Node3 -->
<g id="edge2" class="edge">
<title>Node1&#45;&gt;Node3</title>
<path fill="none" stroke="midnightblue" d="M125.88,-20.62C117.28,-19.4 108.5,-18.15 100.13,-16.97"/>
<polygon fill="midnightblue" stroke="midnightblue" points="125.47,-24.09 135.86,-22.03 126.45,-17.16 125.47,-24.09"/>
</g>
</g>
</svg>
