<?xml version="1.0" encoding="UTF-8" standalone="no"?>
<!DOCTYPE svg PUBLIC "-//W3C//DTD SVG 1.1//EN"
 "http://www.w3.org/Graphics/SVG/1.1/DTD/svg11.dtd">
<!-- Generated by graphviz version 2.43.0 (0)
 -->
<!-- Title: Calc::_changeSubScript Pages: 1 -->
<svg width="269pt" height="180pt"
 viewBox="0.00 0.00 269.00 180.00" xmlns="http://www.w3.org/2000/svg" xmlns:xlink="http://www.w3.org/1999/xlink">
<g id="graph0" class="graph" transform="scale(1 1) rotate(0) translate(4 176)">
<title>Calc::_changeSubScript</title>
<polygon fill="white" stroke="transparent" points="-4,4 -4,-176 265,-176 265,4 -4,4"/>
<!-- Node1 -->
<g id="node1" class="node">
<title>Node1</title>
<g id="a_node1"><a xlink:title=" ">
<polygon fill="#bfbfbf" stroke="black" points="0,-76.5 0,-95.5 130,-95.5 130,-76.5 0,-76.5"/>
<text text-anchor="middle" x="65" y="-83.5" font-family="Helvetica,sans-Serif" font-size="10.00">Calc::_changeSubScript</text>
</a>
</g>
</g>
<!-- Node1&#45;&gt;Node1 -->
<g id="edge1" class="edge">
<title>Node1&#45;&gt;Node1</title>
<path fill="none" stroke="midnightblue" d="M42.19,-95.76C31.09,-104.57 38.7,-114 65,-114 82.26,-114 91.47,-109.94 92.63,-104.65"/>
<polygon fill="midnightblue" stroke="midnightblue" points="95.65,-102.89 87.81,-95.76 89.49,-106.22 95.65,-102.89"/>
</g>
<!-- Node2 -->
<g id="node2" class="node">
<title>Node2</title>
<g id="a_node2"><a xlink:href="class_calc.html#a284818e83b0d85bdd029f3d72d4ef0bd" target="_top" xlink:title=" ">
<polygon fill="white" stroke="black" points="178.5,-152.5 178.5,-171.5 248.5,-171.5 248.5,-152.5 178.5,-152.5"/>
<text text-anchor="middle" x="213.5" y="-159.5" font-family="Helvetica,sans-Serif" font-size="10.00">Calc::_msg</text>
</a>
</g>
</g>
<!-- Node1&#45;&gt;Node2 -->
<g id="edge2" class="edge">
<title>Node1&#45;&gt;Node2</title>
<path fill="none" stroke="midnightblue" d="M81.25,-95.52C100.58,-107.4 135.1,-127.96 166,-143 169.79,-144.85 173.81,-146.67 177.84,-148.42"/>
<polygon fill="midnightblue" stroke="midnightblue" points="176.56,-151.68 187.14,-152.33 179.28,-145.23 176.56,-151.68"/>
</g>
<!-- Node3 -->
<g id="node3" class="node">
<title>Node3</title>
<g id="a_node3"><a xlink:href="class_log.html#ac7147942832455398ad289b706a02616" target="_top" xlink:title="Write error message to the log file.">
<polygon fill="white" stroke="black" points="187,-114.5 187,-133.5 240,-133.5 240,-114.5 187,-114.5"/>
<text text-anchor="middle" x="213.5" y="-121.5" font-family="Helvetica,sans-Serif" font-size="10.00">Log::err</text>
</a>
</g>
</g>
<!-- Node1&#45;&gt;Node3 -->
<g id="edge3" class="edge">
<title>Node1&#45;&gt;Node3</title>
<path fill="none" stroke="midnightblue" d="M102.97,-95.59C125.61,-101.46 154.43,-108.94 176.83,-114.75"/>
<polygon fill="midnightblue" stroke="midnightblue" points="176.07,-118.17 186.62,-117.29 177.82,-111.39 176.07,-118.17"/>
</g>
<!-- Node4 -->
<g id="node4" class="node">
<title>Node4</title>
<g id="a_node4"><a xlink:href="class_log.html#add7e611cd3267d3fd5dae017e3aeef67" target="_top" xlink:title="Write infomation to the log file.">
<polygon fill="white" stroke="black" points="184,-76.5 184,-95.5 243,-95.5 243,-76.5 184,-76.5"/>
<text text-anchor="middle" x="213.5" y="-83.5" font-family="Helvetica,sans-Serif" font-size="10.00">Log::info</text>
</a>
</g>
</g>
<!-- Node1&#45;&gt;Node4 -->
<g id="edge4" class="edge">
<title>Node1&#45;&gt;Node4</title>
<path fill="none" stroke="midnightblue" d="M130.26,-86C145.06,-86 160.36,-86 173.69,-86"/>
<polygon fill="midnightblue" stroke="midnightblue" points="173.91,-89.5 183.91,-86 173.91,-82.5 173.91,-89.5"/>
</g>
<!-- Node5 -->
<g id="node5" class="node">
<title>Node5</title>
<g id="a_node5"><a xlink:href="utils_8h.html#aa0a3ba0e1cec6f6b77334767af46eef7" target="_top" xlink:title="Check if the string is an unsigned integer.">
<polygon fill="white" stroke="black" points="191,-38.5 191,-57.5 236,-57.5 236,-38.5 191,-38.5"/>
<text text-anchor="middle" x="213.5" y="-45.5" font-family="Helvetica,sans-Serif" font-size="10.00">isUInt</text>
</a>
</g>
</g>
<!-- Node1&#45;&gt;Node5 -->
<g id="edge5" class="edge">
<title>Node1&#45;&gt;Node5</title>
<path fill="none" stroke="midnightblue" d="M102.97,-76.41C126.93,-70.2 157.83,-62.18 180.69,-56.25"/>
<polygon fill="midnightblue" stroke="midnightblue" points="181.78,-59.59 190.58,-53.69 180.02,-52.81 181.78,-59.59"/>
</g>
<!-- Node6 -->
<g id="node6" class="node">
<title>Node6</title>
<g id="a_node6"><a xlink:href="class_type___track.html#ab510214767b1b4d71e3beadecb814bb7" target="_top" xlink:title=" ">
<polygon fill="white" stroke="black" points="166,-0.5 166,-19.5 261,-19.5 261,-0.5 166,-0.5"/>
<text text-anchor="middle" x="213.5" y="-7.5" font-family="Helvetica,sans-Serif" font-size="10.00">Type_Track::size</text>
</a>
</g>
</g>
<!-- Node1&#45;&gt;Node6 -->
<g id="edge6" class="edge">
<title>Node1&#45;&gt;Node6</title>
<path fill="none" stroke="midnightblue" d="M81.25,-76.48C100.58,-64.6 135.1,-44.04 166,-29 169.79,-27.15 173.81,-25.33 177.84,-23.58"/>
<polygon fill="midnightblue" stroke="midnightblue" points="179.28,-26.77 187.14,-19.67 176.56,-20.32 179.28,-26.77"/>
</g>
</g>
</svg>
