<?xml version="1.0" encoding="UTF-8" standalone="no"?>
<!DOCTYPE svg PUBLIC "-//W3C//DTD SVG 1.1//EN"
 "http://www.w3.org/Graphics/SVG/1.1/DTD/svg11.dtd">
<!-- Generated by graphviz version 2.43.0 (0)
 -->
<!-- Title: Calc::as Pages: 1 -->
<svg width="374pt" height="332pt"
 viewBox="0.00 0.00 374.00 332.00" xmlns="http://www.w3.org/2000/svg" xmlns:xlink="http://www.w3.org/1999/xlink">
<g id="graph0" class="graph" transform="scale(1 1) rotate(0) translate(4 328)">
<title>Calc::as</title>
<polygon fill="white" stroke="transparent" points="-4,4 -4,-328 370,-328 370,4 -4,4"/>
<!-- Node1 -->
<g id="node1" class="node">
<title>Node1</title>
<g id="a_node1"><a xlink:title="Convert the Alg CALC contents into a language command.">
<polygon fill="#bfbfbf" stroke="black" points="0,-180.5 0,-199.5 55,-199.5 55,-180.5 0,-180.5"/>
<text text-anchor="middle" x="27.5" y="-187.5" font-family="Helvetica,sans-Serif" font-size="10.00">Calc::as</text>
</a>
</g>
</g>
<!-- Node2 -->
<g id="node2" class="node">
<title>Node2</title>
<g id="a_node2"><a xlink:href="class_calc.html#af1d1bd5e83f9e5196627f5a4e1a5ee83" target="_top" xlink:title=" ">
<polygon fill="white" stroke="black" points="98.5,-266.5 98.5,-285.5 223.5,-285.5 223.5,-266.5 98.5,-266.5"/>
<text text-anchor="middle" x="161" y="-273.5" font-family="Helvetica,sans-Serif" font-size="10.00">Calc::_changeFunction</text>
</a>
</g>
</g>
<!-- Node1&#45;&gt;Node2 -->
<g id="edge1" class="edge">
<title>Node1&#45;&gt;Node2</title>
<path fill="none" stroke="midnightblue" d="M37,-199.56C48.33,-211.85 69.47,-233.24 91,-247 100.56,-253.11 111.62,-258.42 122.05,-262.77"/>
<polygon fill="midnightblue" stroke="midnightblue" points="120.8,-266.04 131.38,-266.49 123.39,-259.54 120.8,-266.04"/>
</g>
<!-- Node5 -->
<g id="node5" class="node">
<title>Node5</title>
<g id="a_node5"><a xlink:href="class_calc.html#ae3d88bd40f9bdf2c8ec92c426bdca446" target="_top" xlink:title=" ">
<polygon fill="white" stroke="black" points="97.5,-218.5 97.5,-237.5 224.5,-237.5 224.5,-218.5 97.5,-218.5"/>
<text text-anchor="middle" x="161" y="-225.5" font-family="Helvetica,sans-Serif" font-size="10.00">Calc::_changeOperator</text>
</a>
</g>
</g>
<!-- Node1&#45;&gt;Node5 -->
<g id="edge4" class="edge">
<title>Node1&#45;&gt;Node5</title>
<path fill="none" stroke="midnightblue" d="M55.22,-198.29C66.27,-201.68 79.24,-205.59 91,-209 98.64,-211.21 106.77,-213.5 114.66,-215.7"/>
<polygon fill="midnightblue" stroke="midnightblue" points="113.92,-219.13 124.49,-218.42 115.79,-212.38 113.92,-219.13"/>
</g>
<!-- Node6 -->
<g id="node6" class="node">
<title>Node6</title>
<g id="a_node6"><a xlink:href="class_calc.html#ad95be528148e0d63848d5fa916b93200" target="_top" xlink:title=" ">
<polygon fill="white" stroke="black" points="105.5,-180.5 105.5,-199.5 216.5,-199.5 216.5,-180.5 105.5,-180.5"/>
<text text-anchor="middle" x="161" y="-187.5" font-family="Helvetica,sans-Serif" font-size="10.00">Calc::_changeParen</text>
</a>
</g>
</g>
<!-- Node1&#45;&gt;Node6 -->
<g id="edge5" class="edge">
<title>Node1&#45;&gt;Node6</title>
<path fill="none" stroke="midnightblue" d="M55.11,-190C66.77,-190 81,-190 95.18,-190"/>
<polygon fill="midnightblue" stroke="midnightblue" points="95.45,-193.5 105.45,-190 95.45,-186.5 95.45,-193.5"/>
</g>
<!-- Node7 -->
<g id="node7" class="node">
<title>Node7</title>
<g id="a_node7"><a xlink:href="class_calc.html#ad562619fef96a73cd3b4c27b35bc5f91" target="_top" xlink:title=" ">
<polygon fill="white" stroke="black" points="96,-124.5 96,-143.5 226,-143.5 226,-124.5 96,-124.5"/>
<text text-anchor="middle" x="161" y="-131.5" font-family="Helvetica,sans-Serif" font-size="10.00">Calc::_changeSubScript</text>
</a>
</g>
</g>
<!-- Node1&#45;&gt;Node7 -->
<g id="edge6" class="edge">
<title>Node1&#45;&gt;Node7</title>
<path fill="none" stroke="midnightblue" d="M51.11,-180.37C72.4,-171.3 104.52,-157.63 128.36,-147.48"/>
<polygon fill="midnightblue" stroke="midnightblue" points="129.86,-150.64 137.69,-143.5 127.12,-144.2 129.86,-150.64"/>
</g>
<!-- Node15 -->
<g id="node15" class="node">
<title>Node15</title>
<g id="a_node15"><a xlink:href="class_calc.html#a1aec4748092712e0995c0ae5dabbf54f" target="_top" xlink:title=" ">
<polygon fill="white" stroke="black" points="91,-86.5 91,-105.5 231,-105.5 231,-86.5 91,-86.5"/>
<text text-anchor="middle" x="161" y="-93.5" font-family="Helvetica,sans-Serif" font-size="10.00">Calc::_changeSuperScript</text>
</a>
</g>
</g>
<!-- Node1&#45;&gt;Node15 -->
<g id="edge15" class="edge">
<title>Node1&#45;&gt;Node15</title>
<path fill="none" stroke="midnightblue" d="M33.87,-180.33C43.29,-164.27 64.36,-132.17 91,-115 94.31,-112.87 97.86,-110.97 101.54,-109.28"/>
<polygon fill="midnightblue" stroke="midnightblue" points="102.93,-112.5 110.89,-105.51 100.31,-106.01 102.93,-112.5"/>
</g>
<!-- Node3 -->
<g id="node3" class="node">
<title>Node3</title>
<g id="a_node3"><a xlink:href="class_calc.html#a7d793eba0a7c9fcbafec4310359f165d" target="_top" xlink:title=" ">
<polygon fill="white" stroke="black" points="270,-304.5 270,-323.5 363,-323.5 363,-304.5 270,-304.5"/>
<text text-anchor="middle" x="316.5" y="-311.5" font-family="Helvetica,sans-Serif" font-size="10.00">Calc::_addArma</text>
</a>
</g>
</g>
<!-- Node2&#45;&gt;Node3 -->
<g id="edge2" class="edge">
<title>Node2&#45;&gt;Node3</title>
<path fill="none" stroke="midnightblue" d="M200.73,-285.59C220.9,-290.58 245.75,-296.73 267.16,-302.03"/>
<polygon fill="midnightblue" stroke="midnightblue" points="266.5,-305.47 277.04,-304.48 268.18,-298.68 266.5,-305.47"/>
</g>
<!-- Node4 -->
<g id="node4" class="node">
<title>Node4</title>
<g id="a_node4"><a xlink:href="class_calc.html#af58cd6a2174e577a6246366de03b949e" target="_top" xlink:title=" ">
<polygon fill="white" stroke="black" points="268,-266.5 268,-285.5 365,-285.5 365,-266.5 268,-266.5"/>
<text text-anchor="middle" x="316.5" y="-273.5" font-family="Helvetica,sans-Serif" font-size="10.00">Calc::_addMmce</text>
</a>
</g>
</g>
<!-- Node2&#45;&gt;Node4 -->
<g id="edge3" class="edge">
<title>Node2&#45;&gt;Node4</title>
<path fill="none" stroke="midnightblue" d="M223.55,-276C234.79,-276 246.48,-276 257.61,-276"/>
<polygon fill="midnightblue" stroke="midnightblue" points="257.64,-279.5 267.64,-276 257.64,-272.5 257.64,-279.5"/>
</g>
<!-- Node7&#45;&gt;Node7 -->
<g id="edge7" class="edge">
<title>Node7&#45;&gt;Node7</title>
<path fill="none" stroke="midnightblue" d="M140.65,-143.76C130.76,-152.57 137.54,-162 161,-162 176.03,-162 184.21,-158.13 185.55,-153.03"/>
<polygon fill="midnightblue" stroke="midnightblue" points="188.67,-151.42 181.35,-143.76 182.29,-154.31 188.67,-151.42"/>
</g>
<!-- Node8 -->
<g id="node8" class="node">
<title>Node8</title>
<g id="a_node8"><a xlink:href="class_calc.html#a284818e83b0d85bdd029f3d72d4ef0bd" target="_top" xlink:title=" ">
<polygon fill="white" stroke="black" points="281.5,-228.5 281.5,-247.5 351.5,-247.5 351.5,-228.5 281.5,-228.5"/>
<text text-anchor="middle" x="316.5" y="-235.5" font-family="Helvetica,sans-Serif" font-size="10.00">Calc::_msg</text>
</a>
</g>
</g>
<!-- Node7&#45;&gt;Node8 -->
<g id="edge8" class="edge">
<title>Node7&#45;&gt;Node8</title>
<path fill="none" stroke="midnightblue" d="M185.63,-143.55C199.74,-149.98 217.49,-159.4 231,-171 251.23,-188.38 245.78,-202.85 267,-219 269.33,-220.77 271.84,-222.4 274.46,-223.89"/>
<polygon fill="midnightblue" stroke="midnightblue" points="273.11,-227.13 283.62,-228.44 276.22,-220.86 273.11,-227.13"/>
</g>
<!-- Node9 -->
<g id="node9" class="node">
<title>Node9</title>
<g id="a_node9"><a xlink:href="class_type.html#abe15820e780d2f6646792d54f3ae3311" target="_top" xlink:title=" ">
<polygon fill="white" stroke="black" points="284.5,-190.5 284.5,-209.5 348.5,-209.5 348.5,-190.5 284.5,-190.5"/>
<text text-anchor="middle" x="316.5" y="-197.5" font-family="Helvetica,sans-Serif" font-size="10.00">Type::dim</text>
</a>
</g>
</g>
<!-- Node7&#45;&gt;Node9 -->
<g id="edge9" class="edge">
<title>Node7&#45;&gt;Node9</title>
<path fill="none" stroke="midnightblue" d="M182.79,-143.66C203.88,-153.37 237.53,-168.64 267,-181 271.46,-182.87 276.17,-184.79 280.83,-186.65"/>
<polygon fill="midnightblue" stroke="midnightblue" points="279.65,-189.95 290.24,-190.36 282.22,-183.44 279.65,-189.95"/>
</g>
<!-- Node10 -->
<g id="node10" class="node">
<title>Node10</title>
<g id="a_node10"><a xlink:href="class_log.html#ac7147942832455398ad289b706a02616" target="_top" xlink:title="Write error message to the log file.">
<polygon fill="white" stroke="black" points="290,-152.5 290,-171.5 343,-171.5 343,-152.5 290,-152.5"/>
<text text-anchor="middle" x="316.5" y="-159.5" font-family="Helvetica,sans-Serif" font-size="10.00">Log::err</text>
</a>
</g>
</g>
<!-- Node7&#45;&gt;Node10 -->
<g id="edge10" class="edge">
<title>Node7&#45;&gt;Node10</title>
<path fill="none" stroke="midnightblue" d="M214.4,-143.56C235.89,-147.48 260.23,-151.92 279.65,-155.46"/>
<polygon fill="midnightblue" stroke="midnightblue" points="279.12,-158.92 289.59,-157.27 280.38,-152.04 279.12,-158.92"/>
</g>
<!-- Node11 -->
<g id="node11" class="node">
<title>Node11</title>
<g id="a_node11"><a xlink:href="class_log.html#add7e611cd3267d3fd5dae017e3aeef67" target="_top" xlink:title="Write infomation to the log file.">
<polygon fill="white" stroke="black" points="287,-114.5 287,-133.5 346,-133.5 346,-114.5 287,-114.5"/>
<text text-anchor="middle" x="316.5" y="-121.5" font-family="Helvetica,sans-Serif" font-size="10.00">Log::info</text>
</a>
</g>
</g>
<!-- Node7&#45;&gt;Node11 -->
<g id="edge11" class="edge">
<title>Node7&#45;&gt;Node11</title>
<path fill="none" stroke="midnightblue" d="M226.21,-129.82C243.3,-128.7 261.24,-127.54 276.52,-126.54"/>
<polygon fill="midnightblue" stroke="midnightblue" points="276.88,-130.02 286.63,-125.88 276.42,-123.04 276.88,-130.02"/>
</g>
<!-- Node12 -->
<g id="node12" class="node">
<title>Node12</title>
<g id="a_node12"><a xlink:href="utils_8h.html#aa0a3ba0e1cec6f6b77334767af46eef7" target="_top" xlink:title="Check if the string is an unsigned integer.">
<polygon fill="white" stroke="black" points="294,-76.5 294,-95.5 339,-95.5 339,-76.5 294,-76.5"/>
<text text-anchor="middle" x="316.5" y="-83.5" font-family="Helvetica,sans-Serif" font-size="10.00">isUInt</text>
</a>
</g>
</g>
<!-- Node7&#45;&gt;Node12 -->
<g id="edge12" class="edge">
<title>Node7&#45;&gt;Node12</title>
<path fill="none" stroke="midnightblue" d="M198.29,-124.46C208.88,-121.56 220.43,-118.26 231,-115 248.63,-109.55 268.12,-102.91 283.93,-97.35"/>
<polygon fill="midnightblue" stroke="midnightblue" points="285.48,-100.52 293.74,-93.88 283.14,-93.92 285.48,-100.52"/>
</g>
<!-- Node13 -->
<g id="node13" class="node">
<title>Node13</title>
<g id="a_node13"><a xlink:href="class_type.html#a836b463aa4740a234e0d304ed4cd958f" target="_top" xlink:title=" ">
<polygon fill="white" stroke="black" points="267,-38.5 267,-57.5 366,-57.5 366,-38.5 267,-38.5"/>
<text text-anchor="middle" x="316.5" y="-45.5" font-family="Helvetica,sans-Serif" font-size="10.00">Type::isUnknown</text>
</a>
</g>
</g>
<!-- Node7&#45;&gt;Node13 -->
<g id="edge13" class="edge">
<title>Node7&#45;&gt;Node13</title>
<path fill="none" stroke="midnightblue" d="M212.37,-124.37C218.95,-121.92 225.35,-118.85 231,-115 253.04,-99.99 245.78,-83.15 267,-67 269.33,-65.23 271.84,-63.6 274.46,-62.11"/>
<polygon fill="midnightblue" stroke="midnightblue" points="276.22,-65.14 283.62,-57.56 273.11,-58.87 276.22,-65.14"/>
</g>
<!-- Node14 -->
<g id="node14" class="node">
<title>Node14</title>
<g id="a_node14"><a xlink:href="class_type___track.html#ab510214767b1b4d71e3beadecb814bb7" target="_top" xlink:title=" ">
<polygon fill="white" stroke="black" points="269,-0.5 269,-19.5 364,-19.5 364,-0.5 269,-0.5"/>
<text text-anchor="middle" x="316.5" y="-7.5" font-family="Helvetica,sans-Serif" font-size="10.00">Type_Track::size</text>
</a>
</g>
</g>
<!-- Node7&#45;&gt;Node14 -->
<g id="edge14" class="edge">
<title>Node7&#45;&gt;Node14</title>
<path fill="none" stroke="midnightblue" d="M216.11,-124.4C221.52,-121.94 226.62,-118.86 231,-115 262.11,-87.63 237.36,-57.96 267,-29 268.46,-27.58 270.03,-26.26 271.69,-25.04"/>
<polygon fill="midnightblue" stroke="midnightblue" points="273.81,-27.85 280.57,-19.69 270.2,-21.85 273.81,-27.85"/>
</g>
</g>
</svg>
