<?xml version="1.0" encoding="UTF-8" standalone="no"?>
<!DOCTYPE svg PUBLIC "-//W3C//DTD SVG 1.1//EN"
 "http://www.w3.org/Graphics/SVG/1.1/DTD/svg11.dtd">
<!-- Generated by graphviz version 2.43.0 (0)
 -->
<!-- Title: Alg::Alg Pages: 1 -->
<!--zoomable 339 -->
<svg id="main" version="1.1" xmlns="http://www.w3.org/2000/svg" xmlns:xlink="http://www.w3.org/1999/xlink" xml:space="preserve" onload="init(evt)">
<style type="text/css"><![CDATA[
.edge:hover path { stroke: red; }
.edge:hover polygon { stroke: red; fill: red; }
]]></style>
<script type="text/javascript"><![CDATA[
var edges = document.getElementsByTagName('g');
if (edges && edges.length) {
  for (var i=0;i<edges.length;i++) {
    if (edges[i].id.substr(0,4)=='edge') {
      edges[i].setAttribute('class','edge');
    }
  }
}
]]></script>
        <defs>
                <circle id="rim" cx="0" cy="0" r="7"/>
                <circle id="rim2" cx="0" cy="0" r="3.5"/>
                <g id="zoomPlus">
                        <use xlink:href="#rim" fill="#404040">
                                <set attributeName="fill" to="#808080" begin="zoomplus.mouseover" end="zoomplus.mouseout"/>
                        </use>
                        <path d="M-4,0h8M0,-4v8" fill="none" stroke="white" stroke-width="1.5" pointer-events="none"/>
                </g>
                <g id="zoomMin">
                        <use xlink:href="#rim" fill="#404040">
                                <set attributeName="fill" to="#808080" begin="zoomminus.mouseover" end="zoomminus.mouseout"/>
                        </use>
                        <path d="M-4,0h8" fill="none" stroke="white" stroke-width="1.5" pointer-events="none"/>
                </g>
                <g id="dirArrow">
                        <path fill="none" stroke="white" stroke-width="1.5" d="M0,-3.0v7 M-2.5,-0.5L0,-3.0L2.5,-0.5"/>
                </g>
               <g id="resetDef">
                       <use xlink:href="#rim2" fill="#404040">
                               <set attributeName="fill" to="#808080" begin="reset.mouseover" end="reset.mouseout"/>
                       </use>
               </g>
        </defs>

<script type="text/javascript">
var viewWidth = 633;
var viewHeight = 339;
var sectionId = 'dynsection-1';
</script>
<script xlink:href="svgpan.js"/>
<svg id="graph" class="graph">
<g id="viewport">
<title>Alg::Alg</title>
<polygon fill="white" stroke="transparent" points="-4,4 -4,-335.34 629,-335.34 629,4 -4,4"/>
<!-- Node1 -->
<g id="node1" class="node">
<title>Node1</title>
<g id="a_node1"><a xlink:title=" ">
<polygon fill="#bfbfbf" stroke="black" points="0,-190.5 0,-209.5 54,-209.5 54,-190.5 0,-190.5"/>
<text text-anchor="middle" x="27" y="-197.5" font-family="Helvetica,sans-Serif" font-size="10.00">Alg::Alg</text>
</a>
</g>
</g>
<!-- Node2 -->
<g id="node2" class="node">
<title>Node2</title>
<g id="a_node2"><a xlink:href="class_alg.html#af935e64a6eb4afa4ca1540f4da3dcc9c" target="_top" xlink:title=" ">
<polygon fill="white" stroke="black" points="121.5,-228.5 121.5,-247.5 177.5,-247.5 177.5,-228.5 121.5,-228.5"/>
<text text-anchor="middle" x="149.5" y="-235.5" font-family="Helvetica,sans-Serif" font-size="10.00">Alg::line</text>
</a>
</g>
</g>
<!-- Node1&#45;&gt;Node2 -->
<g id="edge1" class="edge">
<title>Node1&#45;&gt;Node2</title>
<path fill="none" stroke="midnightblue" d="M54.15,-208.25C70.93,-213.54 92.97,-220.49 111.53,-226.34"/>
<polygon fill="midnightblue" stroke="midnightblue" points="110.56,-229.71 121.15,-229.37 112.67,-223.03 110.56,-229.71"/>
</g>
<!-- Node3 -->
<g id="node3" class="node">
<title>Node3</title>
<g id="a_node3"><a xlink:href="struct_macro.html#ac0ddd588c300108ca443b10316d99877" target="_top" xlink:title=" ">
<polygon fill="white" stroke="black" points="90,-190.5 90,-209.5 209,-209.5 209,-190.5 90,-190.5"/>
<text text-anchor="middle" x="149.5" y="-197.5" font-family="Helvetica,sans-Serif" font-size="10.00">Macro::replaceMacro</text>
</a>
</g>
</g>
<!-- Node1&#45;&gt;Node3 -->
<g id="edge2" class="edge">
<title>Node1&#45;&gt;Node3</title>
<path fill="none" stroke="midnightblue" d="M54.15,-200C61.79,-200 70.53,-200 79.53,-200"/>
<polygon fill="midnightblue" stroke="midnightblue" points="79.76,-203.5 89.76,-200 79.76,-196.5 79.76,-203.5"/>
</g>
<!-- Node17 -->
<g id="node17" class="node">
<title>Node17</title>
<g id="a_node17"><a xlink:href="utils_8h.html#a6ef734356291c638e5787a6c668192d4" target="_top" xlink:title=" ">
<polygon fill="white" stroke="black" points="131,-38.5 131,-57.5 168,-57.5 168,-38.5 131,-38.5"/>
<text text-anchor="middle" x="149.5" y="-45.5" font-family="Helvetica,sans-Serif" font-size="10.00">trim</text>
</a>
</g>
</g>
<!-- Node1&#45;&gt;Node17 -->
<g id="edge24" class="edge">
<title>Node1&#45;&gt;Node17</title>
<path fill="none" stroke="midnightblue" d="M35.54,-190.49C55.32,-165.54 108.95,-97.89 134.54,-65.61"/>
<polygon fill="midnightblue" stroke="midnightblue" points="137.5,-67.52 140.97,-57.5 132.01,-63.17 137.5,-67.52"/>
</g>
<!-- Node4 -->
<g id="node4" class="node">
<title>Node4</title>
<g id="a_node4"><a xlink:href="struct_x_y___size.html#a7bd57d020a1b15aaa09af45eff3ce6b4" target="_top" xlink:title=" ">
<polygon fill="white" stroke="black" points="404,-266.5 404,-285.5 470,-285.5 470,-266.5 404,-266.5"/>
<text text-anchor="middle" x="437" y="-273.5" font-family="Helvetica,sans-Serif" font-size="10.00">XY_Size::_</text>
</a>
</g>
</g>
<!-- Node3&#45;&gt;Node4 -->
<g id="edge3" class="edge">
<title>Node3&#45;&gt;Node4</title>
<path fill="none" stroke="midnightblue" d="M183.71,-209.56C192.08,-212.3 200.97,-215.51 209,-219 225.78,-226.31 227.8,-232.74 245,-239 294.38,-256.98 354.29,-266.77 393.69,-271.69"/>
<polygon fill="midnightblue" stroke="midnightblue" points="393.4,-275.18 403.74,-272.89 394.23,-268.23 393.4,-275.18"/>
</g>
<!-- Node5 -->
<g id="node5" class="node">
<title>Node5</title>
<g id="a_node5"><a xlink:href="struct_x_y___size.html#a9792ad3175a0f85674ae7e5e2ffe3a5e" target="_top" xlink:title=" ">
<polygon fill="white" stroke="black" points="540.5,-285.5 540.5,-304.5 605.5,-304.5 605.5,-285.5 540.5,-285.5"/>
<text text-anchor="middle" x="573" y="-292.5" font-family="Helvetica,sans-Serif" font-size="10.00">XY_Size::r</text>
</a>
</g>
</g>
<!-- Node3&#45;&gt;Node5 -->
<g id="edge8" class="edge">
<title>Node3&#45;&gt;Node5</title>
<path fill="none" stroke="midnightblue" d="M193.87,-209.62C199.34,-212.07 204.57,-215.14 209,-219 236.59,-243.01 215.26,-271.71 245,-293 332.21,-355.41 468.75,-326.81 534.35,-307.53"/>
<polygon fill="midnightblue" stroke="midnightblue" points="535.69,-310.78 544.25,-304.53 533.66,-304.08 535.69,-310.78"/>
</g>
<!-- Node6 -->
<g id="node6" class="node">
<title>Node6</title>
<g id="a_node6"><a xlink:href="struct_x_y___size.html#a643eedefc10d0cdfd930ad024cc30f40" target="_top" xlink:title=" ">
<polygon fill="white" stroke="black" points="540.5,-247.5 540.5,-266.5 605.5,-266.5 605.5,-247.5 540.5,-247.5"/>
<text text-anchor="middle" x="573" y="-254.5" font-family="Helvetica,sans-Serif" font-size="10.00">XY_Size::t</text>
</a>
</g>
</g>
<!-- Node3&#45;&gt;Node6 -->
<g id="edge22" class="edge">
<title>Node3&#45;&gt;Node6</title>
<path fill="none" stroke="midnightblue" d="M191.06,-209.61C197.38,-212.09 203.59,-215.18 209,-219 230.48,-234.19 222.68,-252.07 245,-266 300.38,-300.56 324.04,-288.52 389,-295 431.46,-299.23 443.58,-305.26 485,-295 502.56,-290.65 504.49,-283.4 521,-276 525.45,-274 530.19,-272.04 534.91,-270.18"/>
<polygon fill="midnightblue" stroke="midnightblue" points="536.39,-273.36 544.48,-266.51 533.89,-266.82 536.39,-273.36"/>
</g>
<!-- Node7 -->
<g id="node7" class="node">
<title>Node7</title>
<g id="a_node7"><a xlink:href="struct_macro.html#a2b2226fb501a9da22d7fb047ea769c5d" target="_top" xlink:title=" ">
<polygon fill="white" stroke="black" points="245,-190.5 245,-209.5 353,-209.5 353,-190.5 245,-190.5"/>
<text text-anchor="middle" x="299" y="-197.5" font-family="Helvetica,sans-Serif" font-size="10.00">Macro::constantStr</text>
</a>
</g>
</g>
<!-- Node3&#45;&gt;Node7 -->
<g id="edge6" class="edge">
<title>Node3&#45;&gt;Node7</title>
<path fill="none" stroke="midnightblue" d="M209.22,-200C217.56,-200 226.17,-200 234.59,-200"/>
<polygon fill="midnightblue" stroke="midnightblue" points="234.74,-203.5 244.74,-200 234.74,-196.5 234.74,-203.5"/>
</g>
<!-- Node8 -->
<g id="node8" class="node">
<title>Node8</title>
<g id="a_node8"><a xlink:href="class_log.html#a48b8faa1f9d2590c6fb650f1004e73c9" target="_top" xlink:title="Flush the buff into the log file.">
<polygon fill="white" stroke="black" points="267.5,-152.5 267.5,-171.5 330.5,-171.5 330.5,-152.5 267.5,-152.5"/>
<text text-anchor="middle" x="299" y="-159.5" font-family="Helvetica,sans-Serif" font-size="10.00">Log::flush</text>
</a>
</g>
</g>
<!-- Node3&#45;&gt;Node8 -->
<g id="edge7" class="edge">
<title>Node3&#45;&gt;Node8</title>
<path fill="none" stroke="midnightblue" d="M187.72,-190.41C208.94,-184.94 235.55,-178.09 257.32,-172.48"/>
<polygon fill="midnightblue" stroke="midnightblue" points="258.45,-175.8 267.26,-169.92 256.7,-169.03 258.45,-175.8"/>
</g>
<!-- Node9 -->
<g id="node9" class="node">
<title>Node9</title>
<g id="a_node9"><a xlink:href="struct_macro.html#a94360db4bd4a0a2516339dadc6c37bbd" target="_top" xlink:title="RegEx replace.">
<polygon fill="white" stroke="black" points="392.5,-38.5 392.5,-57.5 481.5,-57.5 481.5,-38.5 392.5,-38.5"/>
<text text-anchor="middle" x="437" y="-45.5" font-family="Helvetica,sans-Serif" font-size="10.00">Macro::replace</text>
</a>
</g>
</g>
<!-- Node3&#45;&gt;Node9 -->
<g id="edge9" class="edge">
<title>Node3&#45;&gt;Node9</title>
<path fill="none" stroke="midnightblue" d="M157.41,-190.36C171.62,-171.22 206.07,-128.29 245,-105 268.78,-90.78 337.52,-72.05 385.69,-60.02"/>
<polygon fill="midnightblue" stroke="midnightblue" points="386.77,-63.35 395.63,-57.55 385.08,-56.56 386.77,-63.35"/>
</g>
<!-- Node12 -->
<g id="node12" class="node">
<title>Node12</title>
<g id="a_node12"><a xlink:href="struct_macro.html#aee7d20953d25a4e783b8e897d78c4bf7" target="_top" xlink:title=" ">
<polygon fill="white" stroke="black" points="248.5,-114.5 248.5,-133.5 349.5,-133.5 349.5,-114.5 248.5,-114.5"/>
<text text-anchor="middle" x="299" y="-121.5" font-family="Helvetica,sans-Serif" font-size="10.00">Macro::replaceXY</text>
</a>
</g>
</g>
<!-- Node3&#45;&gt;Node12 -->
<g id="edge12" class="edge">
<title>Node3&#45;&gt;Node12</title>
<path fill="none" stroke="midnightblue" d="M164.42,-190.4C182.43,-178.25 215.06,-157.22 245,-143 249.35,-140.93 253.99,-138.96 258.65,-137.12"/>
<polygon fill="midnightblue" stroke="midnightblue" points="260.02,-140.34 268.14,-133.53 257.55,-133.79 260.02,-140.34"/>
</g>
<!-- Node13 -->
<g id="node13" class="node">
<title>Node13</title>
<g id="a_node13"><a xlink:href="namespacemmce.html#ad4a160832ef9fad47c531ece39752208" target="_top" xlink:title="Change a number to string.">
<polygon fill="white" stroke="black" points="389,-228.5 389,-247.5 485,-247.5 485,-228.5 389,-228.5"/>
<text text-anchor="middle" x="437" y="-235.5" font-family="Helvetica,sans-Serif" font-size="10.00">mmce::to_string</text>
</a>
</g>
</g>
<!-- Node3&#45;&gt;Node13 -->
<g id="edge23" class="edge">
<title>Node3&#45;&gt;Node13</title>
<path fill="none" stroke="midnightblue" d="M193.15,-209.51C209.33,-212.87 227.95,-216.44 245,-219 289.58,-225.68 340.38,-230.61 378.38,-233.77"/>
<polygon fill="midnightblue" stroke="midnightblue" points="378.49,-237.29 388.74,-234.61 379.06,-230.31 378.49,-237.29"/>
</g>
<!-- Node4&#45;&gt;Node5 -->
<g id="edge4" class="edge">
<title>Node4&#45;&gt;Node5</title>
<path fill="none" stroke="midnightblue" d="M470.1,-280.55C488.08,-283.1 510.72,-286.31 530.09,-289.06"/>
<polygon fill="midnightblue" stroke="midnightblue" points="529.77,-292.55 540.17,-290.49 530.76,-285.62 529.77,-292.55"/>
</g>
<!-- Node4&#45;&gt;Node6 -->
<g id="edge5" class="edge">
<title>Node4&#45;&gt;Node6</title>
<path fill="none" stroke="midnightblue" d="M470.1,-271.45C488.08,-268.9 510.72,-265.69 530.09,-262.94"/>
<polygon fill="midnightblue" stroke="midnightblue" points="530.76,-266.38 540.17,-261.51 529.77,-259.45 530.76,-266.38"/>
</g>
<!-- Node10 -->
<g id="node10" class="node">
<title>Node10</title>
<g id="a_node10"><a xlink:href="class_log.html#add7e611cd3267d3fd5dae017e3aeef67" target="_top" xlink:title="Write infomation to the log file.">
<polygon fill="white" stroke="black" points="543.5,-76.5 543.5,-95.5 602.5,-95.5 602.5,-76.5 543.5,-76.5"/>
<text text-anchor="middle" x="573" y="-83.5" font-family="Helvetica,sans-Serif" font-size="10.00">Log::info</text>
</a>
</g>
</g>
<!-- Node9&#45;&gt;Node10 -->
<g id="edge10" class="edge">
<title>Node9&#45;&gt;Node10</title>
<path fill="none" stroke="midnightblue" d="M471.81,-57.59C490.56,-62.91 513.95,-69.54 533.42,-75.06"/>
<polygon fill="midnightblue" stroke="midnightblue" points="532.62,-78.47 543.19,-77.83 534.53,-71.74 532.62,-78.47"/>
</g>
<!-- Node11 -->
<g id="node11" class="node">
<title>Node11</title>
<g id="a_node11"><a xlink:href="struct_macro.html#a0a64263ca28e6e30160145a33ed5d77f" target="_top" xlink:title="Get the name of Type.">
<polygon fill="white" stroke="black" points="521,-38.5 521,-57.5 625,-57.5 625,-38.5 521,-38.5"/>
<text text-anchor="middle" x="573" y="-45.5" font-family="Helvetica,sans-Serif" font-size="10.00">Macro::typeName</text>
</a>
</g>
</g>
<!-- Node9&#45;&gt;Node11 -->
<g id="edge11" class="edge">
<title>Node9&#45;&gt;Node11</title>
<path fill="none" stroke="midnightblue" d="M481.51,-48C490.81,-48 500.8,-48 510.63,-48"/>
<polygon fill="midnightblue" stroke="midnightblue" points="510.78,-51.5 520.78,-48 510.78,-44.5 510.78,-51.5"/>
</g>
<!-- Node12&#45;&gt;Node4 -->
<g id="edge13" class="edge">
<title>Node12&#45;&gt;Node4</title>
<path fill="none" stroke="midnightblue" d="M339.82,-133.58C344.7,-136.04 349.27,-139.13 353,-143 389.84,-181.28 352.93,-217.99 389,-257 390.78,-258.92 392.78,-260.65 394.92,-262.22"/>
<polygon fill="midnightblue" stroke="midnightblue" points="393.37,-265.36 403.76,-267.42 396.92,-259.33 393.37,-265.36"/>
</g>
<!-- Node12&#45;&gt;Node5 -->
<g id="edge15" class="edge">
<title>Node12&#45;&gt;Node5</title>
<path fill="none" stroke="midnightblue" d="M333.89,-133.54C340.49,-136.11 347.16,-139.25 353,-143 372.3,-155.41 369.97,-167.19 389,-180 427.2,-205.72 449.68,-189.45 485,-219 507.98,-238.23 497.74,-257.11 521,-276 524.09,-278.51 527.54,-280.71 531.15,-282.63"/>
<polygon fill="midnightblue" stroke="midnightblue" points="529.8,-285.86 540.35,-286.85 532.72,-279.5 529.8,-285.86"/>
</g>
<!-- Node12&#45;&gt;Node6 -->
<g id="edge17" class="edge">
<title>Node12&#45;&gt;Node6</title>
<path fill="none" stroke="midnightblue" d="M342.57,-133.59C381.28,-143.38 439.17,-160.73 485,-186 512,-200.89 538.83,-224.47 555.41,-240.33"/>
<polygon fill="midnightblue" stroke="midnightblue" points="553.08,-242.94 562.68,-247.42 557.97,-237.93 553.08,-242.94"/>
</g>
<!-- Node12&#45;&gt;Node9 -->
<g id="edge16" class="edge">
<title>Node12&#45;&gt;Node9</title>
<path fill="none" stroke="midnightblue" d="M324.35,-114.41C333.57,-110.41 344.01,-105.43 353,-100 370.35,-89.52 371.9,-82.88 389,-72 394.25,-68.66 400.02,-65.4 405.67,-62.42"/>
<polygon fill="midnightblue" stroke="midnightblue" points="407.62,-65.35 414.94,-57.69 404.44,-59.12 407.62,-65.35"/>
</g>
<!-- Node12&#45;&gt;Node10 -->
<g id="edge14" class="edge">
<title>Node12&#45;&gt;Node10</title>
<path fill="none" stroke="midnightblue" d="M340.15,-114.48C355.38,-111.12 372.93,-107.54 389,-105 438.39,-97.19 495.81,-91.82 532.96,-88.84"/>
<polygon fill="midnightblue" stroke="midnightblue" points="533.65,-92.29 543.35,-88.02 533.11,-85.32 533.65,-92.29"/>
</g>
<!-- Node12&#45;&gt;Node13 -->
<g id="edge18" class="edge">
<title>Node12&#45;&gt;Node13</title>
<path fill="none" stroke="midnightblue" d="M337.9,-133.54C343.35,-136.02 348.6,-139.12 353,-143 379.53,-166.41 364.02,-188.95 389,-214 392.53,-217.54 396.7,-220.67 401.07,-223.39"/>
<polygon fill="midnightblue" stroke="midnightblue" points="399.73,-226.65 410.18,-228.42 403.11,-220.52 399.73,-226.65"/>
</g>
<!-- Node14 -->
<g id="node14" class="node">
<title>Node14</title>
<g id="a_node14"><a xlink:href="struct_x_y___size.html#a4a5192df22d9d6bc1793eabc6ae1ffa0" target="_top" xlink:title=" ">
<polygon fill="white" stroke="black" points="400.5,-114.5 400.5,-133.5 473.5,-133.5 473.5,-114.5 400.5,-114.5"/>
<text text-anchor="middle" x="437" y="-121.5" font-family="Helvetica,sans-Serif" font-size="10.00">XY_Size::xy</text>
</a>
</g>
</g>
<!-- Node12&#45;&gt;Node14 -->
<g id="edge19" class="edge">
<title>Node12&#45;&gt;Node14</title>
<path fill="none" stroke="midnightblue" d="M349.87,-124C363.03,-124 377.17,-124 390.11,-124"/>
<polygon fill="midnightblue" stroke="midnightblue" points="390.18,-127.5 400.18,-124 390.18,-120.5 390.18,-127.5"/>
</g>
<!-- Node15 -->
<g id="node15" class="node">
<title>Node15</title>
<g id="a_node15"><a xlink:href="class_log.html#ac7147942832455398ad289b706a02616" target="_top" xlink:title="Write error message to the log file.">
<polygon fill="white" stroke="black" points="546.5,-152.5 546.5,-171.5 599.5,-171.5 599.5,-152.5 546.5,-152.5"/>
<text text-anchor="middle" x="573" y="-159.5" font-family="Helvetica,sans-Serif" font-size="10.00">Log::err</text>
</a>
</g>
</g>
<!-- Node14&#45;&gt;Node15 -->
<g id="edge20" class="edge">
<title>Node14&#45;&gt;Node15</title>
<path fill="none" stroke="midnightblue" d="M471.81,-133.59C491.58,-139.19 516.5,-146.26 536.54,-151.94"/>
<polygon fill="midnightblue" stroke="midnightblue" points="535.66,-155.33 546.23,-154.69 537.57,-148.6 535.66,-155.33"/>
</g>
<!-- Node16 -->
<g id="node16" class="node">
<title>Node16</title>
<g id="a_node16"><a xlink:href="class_term.html#abd955a8def100354b03e33911c3b21f8" target="_top" xlink:title="Print error message.">
<polygon fill="white" stroke="black" points="538,-114.5 538,-133.5 608,-133.5 608,-114.5 538,-114.5"/>
<text text-anchor="middle" x="573" y="-121.5" font-family="Helvetica,sans-Serif" font-size="10.00">Term::error</text>
</a>
</g>
</g>
<!-- Node14&#45;&gt;Node16 -->
<g id="edge21" class="edge">
<title>Node14&#45;&gt;Node16</title>
<path fill="none" stroke="midnightblue" d="M473.56,-124C490.15,-124 510.07,-124 527.64,-124"/>
<polygon fill="midnightblue" stroke="midnightblue" points="527.67,-127.5 537.67,-124 527.67,-120.5 527.67,-127.5"/>
</g>
<!-- Node18 -->
<g id="node18" class="node">
<title>Node18</title>
<g id="a_node18"><a xlink:href="utils_8h.html#a47084ee818936eef3c48be492c0e860f" target="_top" xlink:title=" ">
<polygon fill="white" stroke="black" points="279,-38.5 279,-57.5 319,-57.5 319,-38.5 279,-38.5"/>
<text text-anchor="middle" x="299" y="-45.5" font-family="Helvetica,sans-Serif" font-size="10.00">ltrim</text>
</a>
</g>
</g>
<!-- Node17&#45;&gt;Node18 -->
<g id="edge25" class="edge">
<title>Node17&#45;&gt;Node18</title>
<path fill="none" stroke="midnightblue" d="M168.29,-48C193.13,-48 238.52,-48 268.47,-48"/>
<polygon fill="midnightblue" stroke="midnightblue" points="268.74,-51.5 278.74,-48 268.74,-44.5 268.74,-51.5"/>
</g>
<!-- Node19 -->
<g id="node19" class="node">
<title>Node19</title>
<g id="a_node19"><a xlink:href="utils_8h.html#af6d6bd5c29782e3b958b5f7c0d1ea9e3" target="_top" xlink:title=" ">
<polygon fill="white" stroke="black" points="278.5,-0.5 278.5,-19.5 319.5,-19.5 319.5,-0.5 278.5,-0.5"/>
<text text-anchor="middle" x="299" y="-7.5" font-family="Helvetica,sans-Serif" font-size="10.00">rtrim</text>
</a>
</g>
</g>
<!-- Node17&#45;&gt;Node19 -->
<g id="edge26" class="edge">
<title>Node17&#45;&gt;Node19</title>
<path fill="none" stroke="midnightblue" d="M168.29,-43.42C193.1,-37.02 238.41,-25.35 268.37,-17.63"/>
<polygon fill="midnightblue" stroke="midnightblue" points="269.46,-20.97 278.27,-15.08 267.71,-14.19 269.46,-20.97"/>
</g>
</g>
</svg>
        <g id="navigator" transform="translate(0 0)" fill="#404254">
                <rect fill="#f2f5e9" fill-opacity="0.5" stroke="#606060" stroke-width=".5" x="0" y="0" width="60" height="60"/>
                <use id="zoomplus" xlink:href="#zoomPlus" x="17" y="9" onmousedown="handleZoom(evt,'in')"/>
                <use id="zoomminus" xlink:href="#zoomMin" x="42" y="9" onmousedown="handleZoom(evt,'out')"/>
                <use id="reset" xlink:href="#resetDef" x="30" y="36" onmousedown="handleReset()"/>
                <g id="arrowUp" xlink:href="#dirArrow" transform="translate(30 24)" onmousedown="handlePan(0,-1)">
                  <use xlink:href="#rim" fill="#404040">
                        <set attributeName="fill" to="#808080" begin="arrowUp.mouseover" end="arrowUp.mouseout"/>
                  </use>
                  <path fill="none" stroke="white" stroke-width="1.5" d="M0,-3.0v7 M-2.5,-0.5L0,-3.0L2.5,-0.5"/>
                </g>
                <g id="arrowRight" xlink:href="#dirArrow" transform="rotate(90) translate(36 -43)" onmousedown="handlePan(1,0)">
                  <use xlink:href="#rim" fill="#404040">
                        <set attributeName="fill" to="#808080" begin="arrowRight.mouseover" end="arrowRight.mouseout"/>
                  </use>
                  <path fill="none" stroke="white" stroke-width="1.5" d="M0,-3.0v7 M-2.5,-0.5L0,-3.0L2.5,-0.5"/>
                </g>
                <g id="arrowDown" xlink:href="#dirArrow" transform="rotate(180) translate(-30 -48)" onmousedown="handlePan(0,1)">
                  <use xlink:href="#rim" fill="#404040">
                        <set attributeName="fill" to="#808080" begin="arrowDown.mouseover" end="arrowDown.mouseout"/>
                  </use>
                  <path fill="none" stroke="white" stroke-width="1.5" d="M0,-3.0v7 M-2.5,-0.5L0,-3.0L2.5,-0.5"/>
                </g>
                <g id="arrowLeft" xlink:href="#dirArrow" transform="rotate(270) translate(-36 17)" onmousedown="handlePan(-1,0)">
                  <use xlink:href="#rim" fill="#404040">
                        <set attributeName="fill" to="#808080" begin="arrowLeft.mouseover" end="arrowLeft.mouseout"/>
                  </use>
                  <path fill="none" stroke="white" stroke-width="1.5" d="M0,-3.0v7 M-2.5,-0.5L0,-3.0L2.5,-0.5"/>
                </g>
        </g>
        <svg viewBox="0 0 15 15" width="100%" height="30px" preserveAspectRatio="xMaxYMin meet">
         <g id="arrow_out" transform="scale(0.3 0.3)">
          <a xlink:href="class_alg_a45e536cf797bba52c851877371ea64c5_cgraph_org.svg" target="_base">
           <rect id="button" ry="5" rx="5" y="6" x="6" height="38" width="38"
                fill="#f2f5e9" fill-opacity="0.5" stroke="#606060" stroke-width="1.0"/>
           <path id="arrow"
             d="M 11.500037,31.436501 C 11.940474,20.09759 22.043105,11.32322 32.158766,21.979434 L 37.068811,17.246167 C 37.068811,17.246167 37.088388,32 37.088388,32 L 22.160133,31.978069 C 22.160133,31.978069 26.997745,27.140456 26.997745,27.140456 C 18.528582,18.264221 13.291696,25.230495 11.500037,31.436501 z"
             style="fill:#404040;"/>
          </a>
         </g>
        </svg>
</svg>
