<?xml version="1.0" encoding="UTF-8" standalone="no"?>
<!DOCTYPE svg PUBLIC "-//W3C//DTD SVG 1.1//EN"
 "http://www.w3.org/Graphics/SVG/1.1/DTD/svg11.dtd">
<!-- Generated by graphviz version 2.43.0 (0)
 -->
<!-- Title: Config::set Pages: 1 -->
<svg width="277pt" height="142pt"
 viewBox="0.00 0.00 277.00 142.00" xmlns="http://www.w3.org/2000/svg" xmlns:xlink="http://www.w3.org/1999/xlink">
<g id="graph0" class="graph" transform="scale(1 1) rotate(0) translate(4 138)">
<title>Config::set</title>
<polygon fill="white" stroke="transparent" points="-4,4 -4,-138 273,-138 273,4 -4,4"/>
<!-- Node1 -->
<g id="node1" class="node">
<title>Node1</title>
<g id="a_node1"><a xlink:title="Set the key value.">
<polygon fill="#bfbfbf" stroke="black" points="0,-57.5 0,-76.5 68,-76.5 68,-57.5 0,-57.5"/>
<text text-anchor="middle" x="34" y="-64.5" font-family="Helvetica,sans-Serif" font-size="10.00">Config::set</text>
</a>
</g>
</g>
<!-- Node2 -->
<g id="node2" class="node">
<title>Node2</title>
<g id="a_node2"><a xlink:href="utils_8h.html#af11c7cca5b9ad860da4bdb556dce3234" target="_top" xlink:title=" ">
<polygon fill="white" stroke="black" points="110,-114.5 110,-133.5 168,-133.5 168,-114.5 110,-114.5"/>
<text text-anchor="middle" x="139" y="-121.5" font-family="Helvetica,sans-Serif" font-size="10.00">contains</text>
</a>
</g>
</g>
<!-- Node1&#45;&gt;Node2 -->
<g id="edge1" class="edge">
<title>Node1&#45;&gt;Node2</title>
<path fill="none" stroke="midnightblue" d="M52.47,-76.67C68.77,-85.69 93.31,-99.27 111.92,-109.57"/>
<polygon fill="midnightblue" stroke="midnightblue" points="110.34,-112.69 120.79,-114.47 113.73,-106.57 110.34,-112.69"/>
</g>
<!-- Node3 -->
<g id="node3" class="node">
<title>Node3</title>
<g id="a_node3"><a xlink:href="utils_8h.html#a4b2e6c6245b704aeb7448bf62b1cf422" target="_top" xlink:title=" ">
<polygon fill="white" stroke="black" points="112.5,-76.5 112.5,-95.5 165.5,-95.5 165.5,-76.5 112.5,-76.5"/>
<text text-anchor="middle" x="139" y="-83.5" font-family="Helvetica,sans-Serif" font-size="10.00">dataDir</text>
</a>
</g>
</g>
<!-- Node1&#45;&gt;Node3 -->
<g id="edge2" class="edge">
<title>Node1&#45;&gt;Node3</title>
<path fill="none" stroke="midnightblue" d="M68.16,-73.12C79.14,-75.14 91.41,-77.41 102.56,-79.46"/>
<polygon fill="midnightblue" stroke="midnightblue" points="101.95,-82.91 112.42,-81.28 103.22,-76.03 101.95,-82.91"/>
</g>
<!-- Node6 -->
<g id="node6" class="node">
<title>Node6</title>
<g id="a_node6"><a xlink:href="class_log.html#ac7147942832455398ad289b706a02616" target="_top" xlink:title="Write error message to the log file.">
<polygon fill="white" stroke="black" points="112.5,-38.5 112.5,-57.5 165.5,-57.5 165.5,-38.5 112.5,-38.5"/>
<text text-anchor="middle" x="139" y="-45.5" font-family="Helvetica,sans-Serif" font-size="10.00">Log::err</text>
</a>
</g>
</g>
<!-- Node1&#45;&gt;Node6 -->
<g id="edge5" class="edge">
<title>Node1&#45;&gt;Node6</title>
<path fill="none" stroke="midnightblue" d="M68.16,-60.88C79.14,-58.86 91.41,-56.59 102.56,-54.54"/>
<polygon fill="midnightblue" stroke="midnightblue" points="103.22,-57.97 112.42,-52.72 101.95,-51.09 103.22,-57.97"/>
</g>
<!-- Node7 -->
<g id="node7" class="node">
<title>Node7</title>
<g id="a_node7"><a xlink:href="class_term.html#abd955a8def100354b03e33911c3b21f8" target="_top" xlink:title="Print error message.">
<polygon fill="white" stroke="black" points="104,-0.5 104,-19.5 174,-19.5 174,-0.5 104,-0.5"/>
<text text-anchor="middle" x="139" y="-7.5" font-family="Helvetica,sans-Serif" font-size="10.00">Term::error</text>
</a>
</g>
</g>
<!-- Node1&#45;&gt;Node7 -->
<g id="edge6" class="edge">
<title>Node1&#45;&gt;Node7</title>
<path fill="none" stroke="midnightblue" d="M52.47,-57.33C68.77,-48.31 93.31,-34.73 111.92,-24.43"/>
<polygon fill="midnightblue" stroke="midnightblue" points="113.73,-27.43 120.79,-19.53 110.34,-21.31 113.73,-27.43"/>
</g>
<!-- Node4 -->
<g id="node4" class="node">
<title>Node4</title>
<g id="a_node4"><a xlink:href="utils_8h.html#a49dc116689f1a4202be4d3f0743b1f70" target="_top" xlink:title=" ">
<polygon fill="white" stroke="black" points="215,-95.5 215,-114.5 264,-114.5 264,-95.5 215,-95.5"/>
<text text-anchor="middle" x="239.5" y="-102.5" font-family="Helvetica,sans-Serif" font-size="10.00">appDir</text>
</a>
</g>
</g>
<!-- Node3&#45;&gt;Node4 -->
<g id="edge3" class="edge">
<title>Node3&#45;&gt;Node4</title>
<path fill="none" stroke="midnightblue" d="M165.62,-90.94C177.59,-93.25 191.99,-96.03 204.82,-98.5"/>
<polygon fill="midnightblue" stroke="midnightblue" points="204.21,-101.95 214.7,-100.41 205.54,-95.08 204.21,-101.95"/>
</g>
<!-- Node5 -->
<g id="node5" class="node">
<title>Node5</title>
<g id="a_node5"><a xlink:href="utils_8h.html#a86caea3b83de102899d12b4100e61c1d" target="_top" xlink:title=" ">
<polygon fill="white" stroke="black" points="210,-57.5 210,-76.5 269,-76.5 269,-57.5 210,-57.5"/>
<text text-anchor="middle" x="239.5" y="-64.5" font-family="Helvetica,sans-Serif" font-size="10.00">homeDir</text>
</a>
</g>
</g>
<!-- Node3&#45;&gt;Node5 -->
<g id="edge4" class="edge">
<title>Node3&#45;&gt;Node5</title>
<path fill="none" stroke="midnightblue" d="M165.62,-81.06C176.12,-79.03 188.48,-76.65 200.02,-74.42"/>
<polygon fill="midnightblue" stroke="midnightblue" points="200.72,-77.85 209.88,-72.52 199.4,-70.98 200.72,-77.85"/>
</g>
</g>
</svg>
