<?xml version="1.0" encoding="UTF-8" standalone="no"?>
<!DOCTYPE svg PUBLIC "-//W3C//DTD SVG 1.1//EN"
 "http://www.w3.org/Graphics/SVG/1.1/DTD/svg11.dtd">
<!-- Generated by graphviz version 2.43.0 (0)
 -->
<!-- Title: Export::_f Pages: 1 -->
<!--zoomable 477 -->
<svg id="main" version="1.1" xmlns="http://www.w3.org/2000/svg" xmlns:xlink="http://www.w3.org/1999/xlink" xml:space="preserve" onload="init(evt)">
<style type="text/css"><![CDATA[
.edge:hover path { stroke: red; }
.edge:hover polygon { stroke: red; fill: red; }
]]></style>
<script type="text/javascript"><![CDATA[
var edges = document.getElementsByTagName('g');
if (edges && edges.length) {
  for (var i=0;i<edges.length;i++) {
    if (edges[i].id.substr(0,4)=='edge') {
      edges[i].setAttribute('class','edge');
    }
  }
}
]]></script>
        <defs>
                <circle id="rim" cx="0" cy="0" r="7"/>
                <circle id="rim2" cx="0" cy="0" r="3.5"/>
                <g id="zoomPlus">
                        <use xlink:href="#rim" fill="#404040">
                                <set attributeName="fill" to="#808080" begin="zoomplus.mouseover" end="zoomplus.mouseout"/>
                        </use>
                        <path d="M-4,0h8M0,-4v8" fill="none" stroke="white" stroke-width="1.5" pointer-events="none"/>
                </g>
                <g id="zoomMin">
                        <use xlink:href="#rim" fill="#404040">
                                <set attributeName="fill" to="#808080" begin="zoomminus.mouseover" end="zoomminus.mouseout"/>
                        </use>
                        <path d="M-4,0h8" fill="none" stroke="white" stroke-width="1.5" pointer-events="none"/>
                </g>
                <g id="dirArrow">
                        <path fill="none" stroke="white" stroke-width="1.5" d="M0,-3.0v7 M-2.5,-0.5L0,-3.0L2.5,-0.5"/>
                </g>
               <g id="resetDef">
                       <use xlink:href="#rim2" fill="#404040">
                               <set attributeName="fill" to="#808080" begin="reset.mouseover" end="reset.mouseout"/>
                       </use>
               </g>
        </defs>

<script type="text/javascript">
var viewWidth = 699;
var viewHeight = 477;
var sectionId = 'dynsection-16';
</script>
<script xlink:href="svgpan.js"/>
<svg id="graph" class="graph">
<g id="viewport">
<title>Export::_f</title>
<polygon fill="white" stroke="transparent" points="-4,4 -4,-473.34 695,-473.34 695,4 -4,4"/>
<!-- Node1 -->
<g id="node1" class="node">
<title>Node1</title>
<g id="a_node1"><a xlink:title=" ">
<polygon fill="#bfbfbf" stroke="black" points="628,-228.5 628,-247.5 691,-247.5 691,-228.5 628,-228.5"/>
<text text-anchor="middle" x="659.5" y="-235.5" font-family="Helvetica,sans-Serif" font-size="10.00">Export::_f</text>
</a>
</g>
</g>
<!-- Node2 -->
<g id="node2" class="node">
<title>Node2</title>
<g id="a_node2"><a xlink:href="class_export.html#a89d3ae54dd2261cf35be148011b79fe4" target="_top" xlink:title=" ">
<polygon fill="white" stroke="black" points="310,-418.5 310,-437.5 422,-437.5 422,-418.5 310,-418.5"/>
<text text-anchor="middle" x="366" y="-425.5" font-family="Helvetica,sans-Serif" font-size="10.00">Export::_algorithms</text>
</a>
</g>
</g>
<!-- Node1&#45;&gt;Node2 -->
<g id="edge1" class="edge">
<title>Node1&#45;&gt;Node2</title>
<path fill="none" stroke="midnightblue" d="M659.17,-257.69C659.43,-300.59 653.23,-402.23 592,-447 529.34,-492.81 429.01,-456.39 386.77,-437.54"/>
<polygon fill="midnightblue" stroke="midnightblue" points="662.67,-257.61 658.98,-247.68 655.67,-257.74 662.67,-257.61"/>
</g>
<!-- Node3 -->
<g id="node3" class="node">
<title>Node3</title>
<g id="a_node3"><a xlink:href="class_export.html#affc37d1d677a83d3e5d36a4e37b7a72b" target="_top" xlink:title=" ">
<polygon fill="white" stroke="black" points="146,-256.5 146,-275.5 256,-275.5 256,-256.5 146,-256.5"/>
<text text-anchor="middle" x="201" y="-263.5" font-family="Helvetica,sans-Serif" font-size="10.00">Export::exportCode</text>
</a>
</g>
</g>
<!-- Node1&#45;&gt;Node3 -->
<g id="edge26" class="edge">
<title>Node1&#45;&gt;Node3</title>
<path fill="none" stroke="midnightblue" d="M652.26,-257.43C643.22,-282.18 623.96,-324.25 592,-345 534.81,-382.15 508.04,-361.32 440,-366 374.38,-370.51 352.09,-392.76 292,-366 249.33,-346.99 218.4,-296.65 206.91,-275.53"/>
<polygon fill="midnightblue" stroke="midnightblue" points="655.66,-258.29 655.61,-247.7 649.05,-256.01 655.66,-258.29"/>
</g>
<!-- Node6 -->
<g id="node6" class="node">
<title>Node6</title>
<g id="a_node6"><a xlink:href="class_export.html#a6000afae41f65b45b6a1e11447c1789c" target="_top" xlink:title=" ">
<polygon fill="white" stroke="black" points="312.5,-337.5 312.5,-356.5 419.5,-356.5 419.5,-337.5 312.5,-337.5"/>
<text text-anchor="middle" x="366" y="-344.5" font-family="Helvetica,sans-Serif" font-size="10.00">Export::_beginning</text>
</a>
</g>
</g>
<!-- Node1&#45;&gt;Node6 -->
<g id="edge5" class="edge">
<title>Node1&#45;&gt;Node6</title>
<path fill="none" stroke="midnightblue" d="M648.37,-256.3C637.15,-274.67 617.26,-302.17 592,-316 538.56,-345.25 467.67,-350.49 419.86,-350.04"/>
<polygon fill="midnightblue" stroke="midnightblue" points="651.41,-258.04 653.43,-247.64 645.36,-254.51 651.41,-258.04"/>
</g>
<!-- Node7 -->
<g id="node7" class="node">
<title>Node7</title>
<g id="a_node7"><a xlink:href="class_export.html#a7278a492ec0a0394684cccc5949185ca" target="_top" xlink:title=" ">
<polygon fill="white" stroke="black" points="320,-280.5 320,-299.5 412,-299.5 412,-280.5 320,-280.5"/>
<text text-anchor="middle" x="366" y="-287.5" font-family="Helvetica,sans-Serif" font-size="10.00">Export::_ending</text>
</a>
</g>
</g>
<!-- Node1&#45;&gt;Node7 -->
<g id="edge7" class="edge">
<title>Node1&#45;&gt;Node7</title>
<path fill="none" stroke="midnightblue" d="M644.51,-255.41C632.31,-269.1 613.26,-287.14 592,-295 530.62,-317.71 453.24,-308.56 407.07,-299.52"/>
<polygon fill="midnightblue" stroke="midnightblue" points="647.36,-257.46 651.18,-247.58 642.04,-252.92 647.36,-257.46"/>
</g>
<!-- Node8 -->
<g id="node8" class="node">
<title>Node8</title>
<g id="a_node8"><a xlink:href="class_export.html#ae4811e1e4212029122c0ee29613714cc" target="_top" xlink:title=" ">
<polygon fill="white" stroke="black" points="478,-266.5 478,-285.5 590,-285.5 590,-266.5 478,-266.5"/>
<text text-anchor="middle" x="534" y="-273.5" font-family="Helvetica,sans-Serif" font-size="10.00">Export::_estimation</text>
</a>
</g>
</g>
<!-- Node1&#45;&gt;Node8 -->
<g id="edge9" class="edge">
<title>Node1&#45;&gt;Node8</title>
<path fill="none" stroke="midnightblue" d="M618.31,-250.37C601.34,-255.59 581.88,-261.58 566.03,-266.45"/>
<polygon fill="midnightblue" stroke="midnightblue" points="619.44,-253.68 627.97,-247.39 617.38,-246.99 619.44,-253.68"/>
</g>
<!-- Node9 -->
<g id="node9" class="node">
<title>Node9</title>
<g id="a_node9"><a xlink:href="class_export.html#a26fa49d9882a342d011ba715e0c14109" target="_top" xlink:title=" ">
<polygon fill="white" stroke="black" points="314,-233.5 314,-252.5 418,-252.5 418,-233.5 314,-233.5"/>
<text text-anchor="middle" x="366" y="-240.5" font-family="Helvetica,sans-Serif" font-size="10.00">Export::_sounding</text>
</a>
</g>
</g>
<!-- Node1&#45;&gt;Node9 -->
<g id="edge20" class="edge">
<title>Node1&#45;&gt;Node9</title>
<path fill="none" stroke="midnightblue" d="M617.63,-238.7C565.39,-239.6 474.94,-241.15 418.18,-242.12"/>
<polygon fill="midnightblue" stroke="midnightblue" points="617.92,-242.2 627.86,-238.53 617.8,-235.2 617.92,-242.2"/>
</g>
<!-- Node10 -->
<g id="node10" class="node">
<title>Node10</title>
<g id="a_node10"><a xlink:href="class_export.html#a59ba705b2369f21006ec7d7b7f3a4513" target="_top" xlink:title="Generate RIS reflection matrices.">
<polygon fill="white" stroke="black" points="476,-190.5 476,-209.5 592,-209.5 592,-190.5 476,-190.5"/>
<text text-anchor="middle" x="534" y="-197.5" font-family="Helvetica,sans-Serif" font-size="10.00">Export::_generateBF</text>
</a>
</g>
</g>
<!-- Node1&#45;&gt;Node10 -->
<g id="edge12" class="edge">
<title>Node1&#45;&gt;Node10</title>
<path fill="none" stroke="midnightblue" d="M618.31,-225.63C601.34,-220.41 581.88,-214.42 566.03,-209.55"/>
<polygon fill="midnightblue" stroke="midnightblue" points="617.38,-229.01 627.97,-228.61 619.44,-222.32 617.38,-229.01"/>
</g>
<!-- Node11 -->
<g id="node11" class="node">
<title>Node11</title>
<g id="a_node11"><a xlink:href="class_export.html#ad7268f886ac4826f4b6ea738e423e520" target="_top" xlink:title=" ">
<polygon fill="white" stroke="black" points="292,-180.5 292,-199.5 440,-199.5 440,-180.5 292,-180.5"/>
<text text-anchor="middle" x="366" y="-187.5" font-family="Helvetica,sans-Serif" font-size="10.00">Export::_generateChannels</text>
</a>
</g>
</g>
<!-- Node1&#45;&gt;Node11 -->
<g id="edge14" class="edge">
<title>Node1&#45;&gt;Node11</title>
<path fill="none" stroke="midnightblue" d="M644.51,-220.59C632.31,-206.9 613.26,-188.86 592,-181 528.39,-157.47 447.65,-169.97 402.22,-180.47"/>
<polygon fill="midnightblue" stroke="midnightblue" points="642.04,-223.08 651.18,-228.42 647.36,-218.54 642.04,-223.08"/>
</g>
<!-- Node12 -->
<g id="node12" class="node">
<title>Node12</title>
<g id="a_node12"><a xlink:href="class_export.html#a833aa02973f6b5c1f3e536e8646cf1ac" target="_top" xlink:title=" ">
<polygon fill="white" stroke="black" points="484,-418.5 484,-437.5 584,-437.5 584,-418.5 484,-418.5"/>
<text text-anchor="middle" x="534" y="-425.5" font-family="Helvetica,sans-Serif" font-size="10.00">Export::_loadALG</text>
</a>
</g>
</g>
<!-- Node1&#45;&gt;Node12 -->
<g id="edge16" class="edge">
<title>Node1&#45;&gt;Node12</title>
<path fill="none" stroke="midnightblue" d="M655.64,-257.74C649.72,-291.86 633.05,-362.22 592,-404 585.9,-410.2 577.96,-414.88 569.95,-418.38"/>
<polygon fill="midnightblue" stroke="midnightblue" points="659.13,-258.08 657.26,-247.65 652.22,-256.97 659.13,-258.08"/>
</g>
<!-- Node13 -->
<g id="node13" class="node">
<title>Node13</title>
<g id="a_node13"><a xlink:href="class_export.html#af64597af0c0b4cf569f96216bcd23b2c" target="_top" xlink:title=" ">
<polygon fill="white" stroke="black" points="482,-114.5 482,-133.5 586,-133.5 586,-114.5 482,-114.5"/>
<text text-anchor="middle" x="534" y="-121.5" font-family="Helvetica,sans-Serif" font-size="10.00">Export::_reporting</text>
</a>
</g>
</g>
<!-- Node1&#45;&gt;Node13 -->
<g id="edge18" class="edge">
<title>Node1&#45;&gt;Node13</title>
<path fill="none" stroke="midnightblue" d="M648.82,-219.48C637.54,-199.48 617.2,-167.82 592,-148 584.32,-141.96 574.9,-137.18 565.94,-133.53"/>
<polygon fill="midnightblue" stroke="midnightblue" points="645.74,-221.16 653.61,-228.26 651.89,-217.81 645.74,-221.16"/>
</g>
<!-- Node14 -->
<g id="node14" class="node">
<title>Node14</title>
<g id="a_node14"><a xlink:href="class_export.html#a1ba2d8e9de49698d93a6dedbafbe6a0f" target="_top" xlink:title=" ">
<polygon fill="white" stroke="black" points="304.5,-76.5 304.5,-95.5 427.5,-95.5 427.5,-76.5 304.5,-76.5"/>
<text text-anchor="middle" x="366" y="-83.5" font-family="Helvetica,sans-Serif" font-size="10.00">Export::_topComment</text>
</a>
</g>
</g>
<!-- Node1&#45;&gt;Node14 -->
<g id="edge21" class="edge">
<title>Node1&#45;&gt;Node14</title>
<path fill="none" stroke="midnightblue" d="M654.86,-218.02C648.22,-187.87 631.03,-131.46 592,-105 542.19,-71.24 471.22,-71.13 422.37,-76.46"/>
<polygon fill="midnightblue" stroke="midnightblue" points="651.51,-219.07 656.92,-228.18 658.37,-217.68 651.51,-219.07"/>
</g>
<!-- Node15 -->
<g id="node15" class="node">
<title>Node15</title>
<g id="a_node15"><a xlink:href="class_export.html#a568b2f04e1b7837923d3f3af5f47abe2" target="_top" xlink:title=" ">
<polygon fill="white" stroke="black" points="476,-38.5 476,-57.5 592,-57.5 592,-38.5 476,-38.5"/>
<text text-anchor="middle" x="534" y="-45.5" font-family="Helvetica,sans-Serif" font-size="10.00">Export::_wComment</text>
</a>
</g>
</g>
<!-- Node1&#45;&gt;Node15 -->
<g id="edge23" class="edge">
<title>Node1&#45;&gt;Node15</title>
<path fill="none" stroke="midnightblue" d="M655.64,-218.26C649.72,-184.14 633.05,-113.78 592,-72 585.9,-65.8 577.96,-61.12 569.95,-57.62"/>
<polygon fill="midnightblue" stroke="midnightblue" points="652.22,-219.03 657.26,-228.35 659.13,-217.92 652.22,-219.03"/>
</g>
<!-- Node16 -->
<g id="node16" class="node">
<title>Node16</title>
<g id="a_node16"><a xlink:href="class_export.html#a23f9a3cb5f7cd82b36037e6d4f7123ed" target="_top" xlink:title=" ">
<polygon fill="white" stroke="black" points="491,-0.5 491,-19.5 577,-19.5 577,-0.5 491,-0.5"/>
<text text-anchor="middle" x="534" y="-7.5" font-family="Helvetica,sans-Serif" font-size="10.00">Export::Export</text>
</a>
</g>
</g>
<!-- Node1&#45;&gt;Node16 -->
<g id="edge25" class="edge">
<title>Node1&#45;&gt;Node16</title>
<path fill="none" stroke="midnightblue" d="M657.91,-218.02C655.61,-176.92 644.55,-82.27 592,-29 587.82,-24.77 582.68,-21.48 577.21,-18.92"/>
<polygon fill="midnightblue" stroke="midnightblue" points="654.42,-218.28 658.35,-228.12 661.41,-217.98 654.42,-218.28"/>
</g>
<!-- Node2&#45;&gt;Node3 -->
<g id="edge2" class="edge">
<title>Node2&#45;&gt;Node3</title>
<path fill="none" stroke="midnightblue" d="M310.19,-414.58C303.71,-411.69 297.47,-408.21 292,-404 245.28,-368.09 215.47,-300.62 205.61,-275.63"/>
<polygon fill="midnightblue" stroke="midnightblue" points="309.2,-417.95 319.79,-418.39 311.78,-411.44 309.2,-417.95"/>
</g>
<!-- Node4 -->
<g id="node4" class="node">
<title>Node4</title>
<g id="a_node4"><a xlink:href="class_export.html#a94fab568af6ddd6447efca74e205e081" target="_top" xlink:title=" ">
<polygon fill="white" stroke="black" points="0,-275.5 0,-294.5 110,-294.5 110,-275.5 0,-275.5"/>
<text text-anchor="middle" x="55" y="-282.5" font-family="Helvetica,sans-Serif" font-size="10.00">Export::exportCode</text>
</a>
</g>
</g>
<!-- Node3&#45;&gt;Node4 -->
<g id="edge3" class="edge">
<title>Node3&#45;&gt;Node4</title>
<path fill="none" stroke="midnightblue" d="M136.01,-274.44C127.44,-275.57 118.72,-276.73 110.33,-277.83"/>
<polygon fill="midnightblue" stroke="midnightblue" points="136.51,-277.91 145.97,-273.13 135.6,-270.97 136.51,-277.91"/>
</g>
<!-- Node5 -->
<g id="node5" class="node">
<title>Node5</title>
<g id="a_node5"><a xlink:href="src_2main_8cpp.html#a0ddf1224851353fc92bfbff6f499fa97" target="_top" xlink:title=" ">
<polygon fill="white" stroke="black" points="34.5,-237.5 34.5,-256.5 75.5,-256.5 75.5,-237.5 34.5,-237.5"/>
<text text-anchor="middle" x="55" y="-244.5" font-family="Helvetica,sans-Serif" font-size="10.00">main</text>
</a>
</g>
</g>
<!-- Node3&#45;&gt;Node5 -->
<g id="edge4" class="edge">
<title>Node3&#45;&gt;Node5</title>
<path fill="none" stroke="midnightblue" d="M136.05,-257.56C114.24,-254.68 91.43,-251.67 75.76,-249.61"/>
<polygon fill="midnightblue" stroke="midnightblue" points="135.6,-261.03 145.97,-258.87 136.51,-254.09 135.6,-261.03"/>
</g>
<!-- Node6&#45;&gt;Node3 -->
<g id="edge6" class="edge">
<title>Node6&#45;&gt;Node3</title>
<path fill="none" stroke="midnightblue" d="M336.52,-332.85C303.46,-316.42 249.85,-289.78 221.31,-275.6"/>
<polygon fill="midnightblue" stroke="midnightblue" points="335.15,-336.07 345.66,-337.39 338.26,-329.81 335.15,-336.07"/>
</g>
<!-- Node7&#45;&gt;Node3 -->
<g id="edge8" class="edge">
<title>Node7&#45;&gt;Node3</title>
<path fill="none" stroke="midnightblue" d="M309.65,-281.85C292.36,-279.3 273.32,-276.5 256.12,-273.97"/>
<polygon fill="midnightblue" stroke="midnightblue" points="309.19,-285.32 319.6,-283.31 310.21,-278.4 309.19,-285.32"/>
</g>
<!-- Node8&#45;&gt;Node9 -->
<g id="edge10" class="edge">
<title>Node8&#45;&gt;Node9</title>
<path fill="none" stroke="midnightblue" d="M474.94,-264.46C455.32,-260.56 433.65,-256.25 414.91,-252.52"/>
<polygon fill="midnightblue" stroke="midnightblue" points="474.5,-267.94 484.99,-266.46 475.86,-261.07 474.5,-267.94"/>
</g>
<!-- Node9&#45;&gt;Node3 -->
<g id="edge11" class="edge">
<title>Node9&#45;&gt;Node3</title>
<path fill="none" stroke="midnightblue" d="M303.75,-251.64C288.07,-253.85 271.33,-256.22 256.05,-258.37"/>
<polygon fill="midnightblue" stroke="midnightblue" points="304.46,-255.08 313.87,-250.21 303.48,-248.15 304.46,-255.08"/>
</g>
<!-- Node10&#45;&gt;Node9 -->
<g id="edge13" class="edge">
<title>Node10&#45;&gt;Node9</title>
<path fill="none" stroke="midnightblue" d="M486.46,-212.06C460.3,-218.83 428.11,-227.17 403.74,-233.48"/>
<polygon fill="midnightblue" stroke="midnightblue" points="487.36,-215.44 496.16,-209.54 485.6,-208.66 487.36,-215.44"/>
</g>
<!-- Node11&#45;&gt;Node3 -->
<g id="edge15" class="edge">
<title>Node11&#45;&gt;Node3</title>
<path fill="none" stroke="midnightblue" d="M335.4,-203.78C322.12,-209.96 306.28,-217.34 292,-224 268.09,-235.15 240.61,-247.97 222.37,-256.49"/>
<polygon fill="midnightblue" stroke="midnightblue" points="336.96,-206.92 344.54,-199.52 334,-200.57 336.96,-206.92"/>
</g>
<!-- Node12&#45;&gt;Node2 -->
<g id="edge17" class="edge">
<title>Node12&#45;&gt;Node2</title>
<path fill="none" stroke="midnightblue" d="M473.46,-428C456.77,-428 438.7,-428 422.27,-428"/>
<polygon fill="midnightblue" stroke="midnightblue" points="473.64,-431.5 483.64,-428 473.64,-424.5 473.64,-431.5"/>
</g>
<!-- Node13&#45;&gt;Node3 -->
<g id="edge19" class="edge">
<title>Node13&#45;&gt;Node3</title>
<path fill="none" stroke="midnightblue" d="M471.76,-125.68C420.84,-129.41 347.92,-140.27 292,-171 252.98,-192.45 220.95,-236.74 208.08,-256.32"/>
<polygon fill="midnightblue" stroke="midnightblue" points="472.21,-129.16 481.96,-125.01 471.75,-122.18 472.21,-129.16"/>
</g>
<!-- Node14&#45;&gt;Node3 -->
<g id="edge22" class="edge">
<title>Node14&#45;&gt;Node3</title>
<path fill="none" stroke="midnightblue" d="M324.21,-99.34C312.95,-104.32 301.29,-110.8 292,-119 245.55,-159.98 215.38,-230.8 205.52,-256.41"/>
<polygon fill="midnightblue" stroke="midnightblue" points="325.59,-102.56 333.51,-95.51 322.93,-96.08 325.59,-102.56"/>
</g>
<!-- Node15&#45;&gt;Node14 -->
<g id="edge24" class="edge">
<title>Node15&#45;&gt;Node14</title>
<path fill="none" stroke="midnightblue" d="M481.35,-59.82C457.94,-65.18 430.64,-71.43 408.59,-76.48"/>
<polygon fill="midnightblue" stroke="midnightblue" points="482.14,-63.23 491.11,-57.59 480.58,-56.41 482.14,-63.23"/>
</g>
</g>
</svg>
        <g id="navigator" transform="translate(0 0)" fill="#404254">
                <rect fill="#f2f5e9" fill-opacity="0.5" stroke="#606060" stroke-width=".5" x="0" y="0" width="60" height="60"/>
                <use id="zoomplus" xlink:href="#zoomPlus" x="17" y="9" onmousedown="handleZoom(evt,'in')"/>
                <use id="zoomminus" xlink:href="#zoomMin" x="42" y="9" onmousedown="handleZoom(evt,'out')"/>
                <use id="reset" xlink:href="#resetDef" x="30" y="36" onmousedown="handleReset()"/>
                <g id="arrowUp" xlink:href="#dirArrow" transform="translate(30 24)" onmousedown="handlePan(0,-1)">
                  <use xlink:href="#rim" fill="#404040">
                        <set attributeName="fill" to="#808080" begin="arrowUp.mouseover" end="arrowUp.mouseout"/>
                  </use>
                  <path fill="none" stroke="white" stroke-width="1.5" d="M0,-3.0v7 M-2.5,-0.5L0,-3.0L2.5,-0.5"/>
                </g>
                <g id="arrowRight" xlink:href="#dirArrow" transform="rotate(90) translate(36 -43)" onmousedown="handlePan(1,0)">
                  <use xlink:href="#rim" fill="#404040">
                        <set attributeName="fill" to="#808080" begin="arrowRight.mouseover" end="arrowRight.mouseout"/>
                  </use>
                  <path fill="none" stroke="white" stroke-width="1.5" d="M0,-3.0v7 M-2.5,-0.5L0,-3.0L2.5,-0.5"/>
                </g>
                <g id="arrowDown" xlink:href="#dirArrow" transform="rotate(180) translate(-30 -48)" onmousedown="handlePan(0,1)">
                  <use xlink:href="#rim" fill="#404040">
                        <set attributeName="fill" to="#808080" begin="arrowDown.mouseover" end="arrowDown.mouseout"/>
                  </use>
                  <path fill="none" stroke="white" stroke-width="1.5" d="M0,-3.0v7 M-2.5,-0.5L0,-3.0L2.5,-0.5"/>
                </g>
                <g id="arrowLeft" xlink:href="#dirArrow" transform="rotate(270) translate(-36 17)" onmousedown="handlePan(-1,0)">
                  <use xlink:href="#rim" fill="#404040">
                        <set attributeName="fill" to="#808080" begin="arrowLeft.mouseover" end="arrowLeft.mouseout"/>
                  </use>
                  <path fill="none" stroke="white" stroke-width="1.5" d="M0,-3.0v7 M-2.5,-0.5L0,-3.0L2.5,-0.5"/>
                </g>
        </g>
        <svg viewBox="0 0 15 15" width="100%" height="30px" preserveAspectRatio="xMaxYMin meet">
         <g id="arrow_out" transform="scale(0.3 0.3)">
          <a xlink:href="class_export_abe75ae41d7cc8afe8f1ba4bbf67dfcfc_icgraph_org.svg" target="_base">
           <rect id="button" ry="5" rx="5" y="6" x="6" height="38" width="38"
                fill="#f2f5e9" fill-opacity="0.5" stroke="#606060" stroke-width="1.0"/>
           <path id="arrow"
             d="M 11.500037,31.436501 C 11.940474,20.09759 22.043105,11.32322 32.158766,21.979434 L 37.068811,17.246167 C 37.068811,17.246167 37.088388,32 37.088388,32 L 22.160133,31.978069 C 22.160133,31.978069 26.997745,27.140456 26.997745,27.140456 C 18.528582,18.264221 13.291696,25.230495 11.500037,31.436501 z"
             style="fill:#404040;"/>
          </a>
         </g>
        </svg>
</svg>
