<?xml version="1.0" encoding="UTF-8" standalone="no"?>
<!DOCTYPE svg PUBLIC "-//W3C//DTD SVG 1.1//EN"
 "http://www.w3.org/Graphics/SVG/1.1/DTD/svg11.dtd">
<!-- Generated by graphviz version 2.43.0 (0)
 -->
<!-- Title: Export::_preCheck Pages: 1 -->
<svg width="780pt" height="440pt"
 viewBox="0.00 0.00 780.00 440.49" xmlns="http://www.w3.org/2000/svg" xmlns:xlink="http://www.w3.org/1999/xlink">
<g id="graph0" class="graph" transform="scale(1 1) rotate(0) translate(4 436.49)">
<title>Export::_preCheck</title>
<polygon fill="white" stroke="transparent" points="-4,4 -4,-436.49 776,-436.49 776,4 -4,4"/>
<!-- Node1 -->
<g id="node1" class="node">
<title>Node1</title>
<g id="a_node1"><a xlink:title=" ">
<polygon fill="#bfbfbf" stroke="black" points="667,-209.5 667,-228.5 772,-228.5 772,-209.5 667,-209.5"/>
<text text-anchor="middle" x="719.5" y="-216.5" font-family="Helvetica,sans-Serif" font-size="10.00">Export::_preCheck</text>
</a>
</g>
</g>
<!-- Node2 -->
<g id="node2" class="node">
<title>Node2</title>
<g id="a_node2"><a xlink:href="class_export.html#a89d3ae54dd2261cf35be148011b79fe4" target="_top" xlink:title=" ">
<polygon fill="white" stroke="black" points="316.5,-380.5 316.5,-399.5 428.5,-399.5 428.5,-380.5 316.5,-380.5"/>
<text text-anchor="middle" x="372.5" y="-387.5" font-family="Helvetica,sans-Serif" font-size="10.00">Export::_algorithms</text>
</a>
</g>
</g>
<!-- Node1&#45;&gt;Node2 -->
<g id="edge1" class="edge">
<title>Node1&#45;&gt;Node2</title>
<path fill="none" stroke="midnightblue" d="M716.26,-238.77C710.49,-279.15 691.1,-370.51 631,-409 555.88,-457.11 441.95,-418.94 394.94,-399.56"/>
<polygon fill="midnightblue" stroke="midnightblue" points="719.73,-239.19 717.55,-228.82 712.79,-238.29 719.73,-239.19"/>
</g>
<!-- Node6 -->
<g id="node6" class="node">
<title>Node6</title>
<g id="a_node6"><a xlink:href="class_export.html#a3ff90e2904a31b18ffaf7dd81c28d01a" target="_top" xlink:title=" ">
<polygon fill="white" stroke="black" points="524.5,-38.5 524.5,-57.5 595.5,-57.5 595.5,-38.5 524.5,-38.5"/>
<text text-anchor="middle" x="560" y="-45.5" font-family="Helvetica,sans-Serif" font-size="10.00">Export::_as</text>
</a>
</g>
</g>
<!-- Node1&#45;&gt;Node6 -->
<g id="edge5" class="edge">
<title>Node1&#45;&gt;Node6</title>
<path fill="none" stroke="midnightblue" d="M711.92,-199.43C700.4,-168.09 673.69,-106.67 631,-72 620.93,-63.82 607.91,-58.36 595.83,-54.74"/>
<polygon fill="midnightblue" stroke="midnightblue" points="708.72,-200.9 715.36,-209.16 715.32,-198.57 708.72,-200.9"/>
</g>
<!-- Node7 -->
<g id="node7" class="node">
<title>Node7</title>
<g id="a_node7"><a xlink:href="class_export.html#ae4811e1e4212029122c0ee29613714cc" target="_top" xlink:title=" ">
<polygon fill="white" stroke="black" points="504,-304.5 504,-323.5 616,-323.5 616,-304.5 504,-304.5"/>
<text text-anchor="middle" x="560" y="-311.5" font-family="Helvetica,sans-Serif" font-size="10.00">Export::_estimation</text>
</a>
</g>
</g>
<!-- Node1&#45;&gt;Node7 -->
<g id="edge6" class="edge">
<title>Node1&#45;&gt;Node7</title>
<path fill="none" stroke="midnightblue" d="M703.01,-236.43C686.72,-253.72 659.53,-279.78 631,-295 623.78,-298.85 615.71,-301.97 607.69,-304.49"/>
<polygon fill="midnightblue" stroke="midnightblue" points="705.9,-238.46 710.09,-228.73 700.75,-233.72 705.9,-238.46"/>
</g>
<!-- Node8 -->
<g id="node8" class="node">
<title>Node8</title>
<g id="a_node8"><a xlink:href="class_export.html#a26fa49d9882a342d011ba715e0c14109" target="_top" xlink:title=" ">
<polygon fill="white" stroke="black" points="320.5,-285.5 320.5,-304.5 424.5,-304.5 424.5,-285.5 320.5,-285.5"/>
<text text-anchor="middle" x="372.5" y="-292.5" font-family="Helvetica,sans-Serif" font-size="10.00">Export::_sounding</text>
</a>
</g>
</g>
<!-- Node1&#45;&gt;Node8 -->
<g id="edge26" class="edge">
<title>Node1&#45;&gt;Node8</title>
<path fill="none" stroke="midnightblue" d="M710.59,-237.92C698.18,-264.85 671.28,-313.14 631,-333 548.93,-373.47 435.58,-326.14 391.78,-304.59"/>
<polygon fill="midnightblue" stroke="midnightblue" points="713.8,-239.32 714.64,-228.76 707.4,-236.49 713.8,-239.32"/>
</g>
<!-- Node9 -->
<g id="node9" class="node">
<title>Node9</title>
<g id="a_node9"><a xlink:href="class_export.html#ad7268f886ac4826f4b6ea738e423e520" target="_top" xlink:title=" ">
<polygon fill="white" stroke="black" points="298.5,-190.5 298.5,-209.5 446.5,-209.5 446.5,-190.5 298.5,-190.5"/>
<text text-anchor="middle" x="372.5" y="-197.5" font-family="Helvetica,sans-Serif" font-size="10.00">Export::_generateChannels</text>
</a>
</g>
</g>
<!-- Node1&#45;&gt;Node9 -->
<g id="edge9" class="edge">
<title>Node1&#45;&gt;Node9</title>
<path fill="none" stroke="midnightblue" d="M656.57,-215.59C597.65,-212.34 508.97,-207.46 446.6,-204.03"/>
<polygon fill="midnightblue" stroke="midnightblue" points="656.67,-219.1 666.85,-216.16 657.06,-212.11 656.67,-219.1"/>
</g>
<!-- Node10 -->
<g id="node10" class="node">
<title>Node10</title>
<g id="a_node10"><a xlink:href="class_export.html#ab8f7bd9bd6f244d03c3f332df34e0139" target="_top" xlink:title=" ">
<polygon fill="white" stroke="black" points="501,-266.5 501,-285.5 619,-285.5 619,-266.5 501,-266.5"/>
<text text-anchor="middle" x="560" y="-273.5" font-family="Helvetica,sans-Serif" font-size="10.00">Export::_getTestNum</text>
</a>
</g>
</g>
<!-- Node1&#45;&gt;Node10 -->
<g id="edge11" class="edge">
<title>Node1&#45;&gt;Node10</title>
<path fill="none" stroke="midnightblue" d="M684.14,-232.23C668.05,-238.36 648.58,-245.67 631,-252 617.46,-256.87 602.37,-262.08 589.68,-266.39"/>
<polygon fill="midnightblue" stroke="midnightblue" points="685.59,-235.43 693.68,-228.59 683.09,-228.89 685.59,-235.43"/>
</g>
<!-- Node11 -->
<g id="node11" class="node">
<title>Node11</title>
<g id="a_node11"><a xlink:href="class_export.html#af64597af0c0b4cf569f96216bcd23b2c" target="_top" xlink:title=" ">
<polygon fill="white" stroke="black" points="320.5,-228.5 320.5,-247.5 424.5,-247.5 424.5,-228.5 320.5,-228.5"/>
<text text-anchor="middle" x="372.5" y="-235.5" font-family="Helvetica,sans-Serif" font-size="10.00">Export::_reporting</text>
</a>
</g>
</g>
<!-- Node1&#45;&gt;Node11 -->
<g id="edge17" class="edge">
<title>Node1&#45;&gt;Node11</title>
<path fill="none" stroke="midnightblue" d="M656.66,-222.56C648.04,-223.04 639.3,-223.54 631,-224 559.48,-227.99 476.77,-232.46 424.8,-235.25"/>
<polygon fill="midnightblue" stroke="midnightblue" points="656.9,-226.05 666.68,-221.98 656.5,-219.06 656.9,-226.05"/>
</g>
<!-- Node12 -->
<g id="node12" class="node">
<title>Node12</title>
<g id="a_node12"><a xlink:href="class_export.html#a833aa02973f6b5c1f3e536e8646cf1ac" target="_top" xlink:title=" ">
<polygon fill="white" stroke="black" points="510,-380.5 510,-399.5 610,-399.5 610,-380.5 510,-380.5"/>
<text text-anchor="middle" x="560" y="-387.5" font-family="Helvetica,sans-Serif" font-size="10.00">Export::_loadALG</text>
</a>
</g>
</g>
<!-- Node1&#45;&gt;Node12 -->
<g id="edge15" class="edge">
<title>Node1&#45;&gt;Node12</title>
<path fill="none" stroke="midnightblue" d="M711.92,-238.57C700.4,-269.91 673.69,-331.33 631,-366 623.22,-372.32 613.68,-377.01 604.18,-380.49"/>
<polygon fill="midnightblue" stroke="midnightblue" points="715.32,-239.43 715.36,-228.84 708.72,-237.1 715.32,-239.43"/>
</g>
<!-- Node13 -->
<g id="node13" class="node">
<title>Node13</title>
<g id="a_node13"><a xlink:href="class_export.html#ad7bd412c3fe1d5accc38cf1f2ab65ea0" target="_top" xlink:title=" ">
<polygon fill="white" stroke="black" points="292,-143.5 292,-162.5 453,-162.5 453,-143.5 292,-143.5"/>
<text text-anchor="middle" x="372.5" y="-150.5" font-family="Helvetica,sans-Serif" font-size="10.00">Export::_setCascadedChannel</text>
</a>
</g>
</g>
<!-- Node1&#45;&gt;Node13 -->
<g id="edge18" class="edge">
<title>Node1&#45;&gt;Node13</title>
<path fill="none" stroke="midnightblue" d="M704.95,-201.38C689.42,-182.79 662.08,-154.61 631,-143 555.56,-114.81 458.91,-131.21 408.16,-143.43"/>
<polygon fill="midnightblue" stroke="midnightblue" points="702.4,-203.8 711.4,-209.39 707.85,-199.41 702.4,-203.8"/>
</g>
<!-- Node14 -->
<g id="node14" class="node">
<title>Node14</title>
<g id="a_node14"><a xlink:href="class_export.html#a709b6e378fd97721b07a369d8a6191d7" target="_top" xlink:title=" ">
<polygon fill="white" stroke="black" points="489,-152.5 489,-171.5 631,-171.5 631,-152.5 489,-152.5"/>
<text text-anchor="middle" x="560" y="-159.5" font-family="Helvetica,sans-Serif" font-size="10.00">Export::_setChannelGains</text>
</a>
</g>
</g>
<!-- Node1&#45;&gt;Node14 -->
<g id="edge20" class="edge">
<title>Node1&#45;&gt;Node14</title>
<path fill="none" stroke="midnightblue" d="M684.14,-205.77C668.05,-199.64 648.58,-192.33 631,-186 617.46,-181.13 602.37,-175.92 589.68,-171.61"/>
<polygon fill="midnightblue" stroke="midnightblue" points="683.09,-209.11 693.68,-209.41 685.59,-202.57 683.09,-209.11"/>
</g>
<!-- Node15 -->
<g id="node15" class="node">
<title>Node15</title>
<g id="a_node15"><a xlink:href="class_export.html#a4e527db408e6caeca560fb9b3c38fe87" target="_top" xlink:title=" ">
<polygon fill="white" stroke="black" points="511,-0.5 511,-19.5 609,-19.5 609,-0.5 511,-0.5"/>
<text text-anchor="middle" x="560" y="-7.5" font-family="Helvetica,sans-Serif" font-size="10.00">Export::_setLang</text>
</a>
</g>
</g>
<!-- Node1&#45;&gt;Node15 -->
<g id="edge22" class="edge">
<title>Node1&#45;&gt;Node15</title>
<path fill="none" stroke="midnightblue" d="M715.15,-199.43C707.48,-160.84 685,-74.68 631,-29 624.75,-23.71 617.16,-19.89 609.32,-17.12"/>
<polygon fill="midnightblue" stroke="midnightblue" points="711.73,-200.2 717,-209.39 718.61,-198.92 711.73,-200.2"/>
</g>
<!-- Node17 -->
<g id="node17" class="node">
<title>Node17</title>
<g id="a_node17"><a xlink:href="class_export.html#a69e74a4cd5dd68dec262869fecc0d359" target="_top" xlink:title=" ">
<polygon fill="white" stroke="black" points="303.5,-86.5 303.5,-105.5 441.5,-105.5 441.5,-86.5 303.5,-86.5"/>
<text text-anchor="middle" x="372.5" y="-93.5" font-family="Helvetica,sans-Serif" font-size="10.00">Export::_setMaxTestNum</text>
</a>
</g>
</g>
<!-- Node1&#45;&gt;Node17 -->
<g id="edge24" class="edge">
<title>Node1&#45;&gt;Node17</title>
<path fill="none" stroke="midnightblue" d="M707.69,-200.58C693.34,-177.98 665.69,-140.54 631,-123 572.03,-93.19 495.88,-88.71 441.72,-90.3"/>
<polygon fill="midnightblue" stroke="midnightblue" points="704.8,-202.55 713.02,-209.25 710.77,-198.89 704.8,-202.55"/>
</g>
<!-- Node3 -->
<g id="node3" class="node">
<title>Node3</title>
<g id="a_node3"><a xlink:href="class_export.html#affc37d1d677a83d3e5d36a4e37b7a72b" target="_top" xlink:title=" ">
<polygon fill="white" stroke="black" points="146,-209.5 146,-228.5 256,-228.5 256,-209.5 146,-209.5"/>
<text text-anchor="middle" x="201" y="-216.5" font-family="Helvetica,sans-Serif" font-size="10.00">Export::exportCode</text>
</a>
</g>
</g>
<!-- Node2&#45;&gt;Node3 -->
<g id="edge2" class="edge">
<title>Node2&#45;&gt;Node3</title>
<path fill="none" stroke="midnightblue" d="M353.35,-373.13C337.07,-357.89 312.65,-334.74 292,-314 261.55,-283.41 226.72,-245.9 210.79,-228.59"/>
<polygon fill="midnightblue" stroke="midnightblue" points="351.35,-376.06 361.05,-380.32 356.13,-370.94 351.35,-376.06"/>
</g>
<!-- Node4 -->
<g id="node4" class="node">
<title>Node4</title>
<g id="a_node4"><a xlink:href="class_export.html#a94fab568af6ddd6447efca74e205e081" target="_top" xlink:title=" ">
<polygon fill="white" stroke="black" points="0,-228.5 0,-247.5 110,-247.5 110,-228.5 0,-228.5"/>
<text text-anchor="middle" x="55" y="-235.5" font-family="Helvetica,sans-Serif" font-size="10.00">Export::exportCode</text>
</a>
</g>
</g>
<!-- Node3&#45;&gt;Node4 -->
<g id="edge3" class="edge">
<title>Node3&#45;&gt;Node4</title>
<path fill="none" stroke="midnightblue" d="M136.01,-227.44C127.44,-228.57 118.72,-229.73 110.33,-230.83"/>
<polygon fill="midnightblue" stroke="midnightblue" points="136.51,-230.91 145.97,-226.13 135.6,-223.97 136.51,-230.91"/>
</g>
<!-- Node5 -->
<g id="node5" class="node">
<title>Node5</title>
<g id="a_node5"><a xlink:href="src_2main_8cpp.html#a0ddf1224851353fc92bfbff6f499fa97" target="_top" xlink:title=" ">
<polygon fill="white" stroke="black" points="34.5,-190.5 34.5,-209.5 75.5,-209.5 75.5,-190.5 34.5,-190.5"/>
<text text-anchor="middle" x="55" y="-197.5" font-family="Helvetica,sans-Serif" font-size="10.00">main</text>
</a>
</g>
</g>
<!-- Node3&#45;&gt;Node5 -->
<g id="edge4" class="edge">
<title>Node3&#45;&gt;Node5</title>
<path fill="none" stroke="midnightblue" d="M136.05,-210.56C114.24,-207.68 91.43,-204.67 75.76,-202.61"/>
<polygon fill="midnightblue" stroke="midnightblue" points="135.6,-214.03 145.97,-211.87 136.51,-207.09 135.6,-214.03"/>
</g>
<!-- Node7&#45;&gt;Node8 -->
<g id="edge7" class="edge">
<title>Node7&#45;&gt;Node8</title>
<path fill="none" stroke="midnightblue" d="M493.63,-307.3C470.99,-304.99 445.96,-302.42 424.64,-300.24"/>
<polygon fill="midnightblue" stroke="midnightblue" points="493.54,-310.81 503.85,-308.35 494.25,-303.85 493.54,-310.81"/>
</g>
<!-- Node8&#45;&gt;Node3 -->
<g id="edge8" class="edge">
<title>Node8&#45;&gt;Node3</title>
<path fill="none" stroke="midnightblue" d="M340.58,-281.14C306.59,-265.9 252.87,-241.81 223.29,-228.55"/>
<polygon fill="midnightblue" stroke="midnightblue" points="339.48,-284.48 350.03,-285.37 342.34,-278.09 339.48,-284.48"/>
</g>
<!-- Node9&#45;&gt;Node3 -->
<g id="edge10" class="edge">
<title>Node9&#45;&gt;Node3</title>
<path fill="none" stroke="midnightblue" d="M288.15,-209.34C277.24,-210.57 266.3,-211.79 256.05,-212.94"/>
<polygon fill="midnightblue" stroke="midnightblue" points="288.59,-212.82 298.14,-208.22 287.81,-205.86 288.59,-212.82"/>
</g>
<!-- Node10&#45;&gt;Node8 -->
<g id="edge14" class="edge">
<title>Node10&#45;&gt;Node8</title>
<path fill="none" stroke="midnightblue" d="M490.6,-283.01C468.76,-285.24 444.97,-287.68 424.58,-289.77"/>
<polygon fill="midnightblue" stroke="midnightblue" points="491.22,-286.46 500.82,-281.96 490.51,-279.5 491.22,-286.46"/>
</g>
<!-- Node10&#45;&gt;Node11 -->
<g id="edge12" class="edge">
<title>Node10&#45;&gt;Node11</title>
<path fill="none" stroke="midnightblue" d="M502.33,-264.39C475.94,-258.99 444.95,-252.64 419.97,-247.52"/>
<polygon fill="midnightblue" stroke="midnightblue" points="501.69,-267.83 512.19,-266.41 503.1,-260.98 501.69,-267.83"/>
</g>
<!-- Node11&#45;&gt;Node3 -->
<g id="edge13" class="edge">
<title>Node11&#45;&gt;Node3</title>
<path fill="none" stroke="midnightblue" d="M309.99,-231.11C292.35,-229.13 273.24,-226.99 256.08,-225.06"/>
<polygon fill="midnightblue" stroke="midnightblue" points="309.86,-234.61 320.18,-232.25 310.64,-227.66 309.86,-234.61"/>
</g>
<!-- Node12&#45;&gt;Node2 -->
<g id="edge16" class="edge">
<title>Node12&#45;&gt;Node2</title>
<path fill="none" stroke="midnightblue" d="M499.55,-390C476.76,-390 450.87,-390 428.52,-390"/>
<polygon fill="midnightblue" stroke="midnightblue" points="499.78,-393.5 509.78,-390 499.78,-386.5 499.78,-393.5"/>
</g>
<!-- Node13&#45;&gt;Node3 -->
<g id="edge19" class="edge">
<title>Node13&#45;&gt;Node3</title>
<path fill="none" stroke="midnightblue" d="M333.32,-165.92C320.16,-170.51 305.38,-175.83 292,-181 268.43,-190.12 241.81,-201.49 223.67,-209.41"/>
<polygon fill="midnightblue" stroke="midnightblue" points="334.71,-169.14 343.01,-162.56 332.42,-162.53 334.71,-169.14"/>
</g>
<!-- Node14&#45;&gt;Node9 -->
<g id="edge21" class="edge">
<title>Node14&#45;&gt;Node9</title>
<path fill="none" stroke="midnightblue" d="M502.33,-173.61C475.94,-179.01 444.95,-185.36 419.97,-190.48"/>
<polygon fill="midnightblue" stroke="midnightblue" points="503.1,-177.02 512.19,-171.59 501.69,-170.17 503.1,-177.02"/>
</g>
<!-- Node16 -->
<g id="node16" class="node">
<title>Node16</title>
<g id="a_node16"><a xlink:href="class_export.html#a23f9a3cb5f7cd82b36037e6d4f7123ed" target="_top" xlink:title=" ">
<polygon fill="white" stroke="black" points="329.5,-0.5 329.5,-19.5 415.5,-19.5 415.5,-0.5 329.5,-0.5"/>
<text text-anchor="middle" x="372.5" y="-7.5" font-family="Helvetica,sans-Serif" font-size="10.00">Export::Export</text>
</a>
</g>
</g>
<!-- Node15&#45;&gt;Node16 -->
<g id="edge23" class="edge">
<title>Node15&#45;&gt;Node16</title>
<path fill="none" stroke="midnightblue" d="M500.44,-10C472.87,-10 440.62,-10 415.52,-10"/>
<polygon fill="midnightblue" stroke="midnightblue" points="500.75,-13.5 510.75,-10 500.75,-6.5 500.75,-13.5"/>
</g>
<!-- Node17&#45;&gt;Node3 -->
<g id="edge25" class="edge">
<title>Node17&#45;&gt;Node3</title>
<path fill="none" stroke="midnightblue" d="M336.84,-109.75C322.41,-116.17 305.84,-124.51 292,-134 258.51,-156.98 225.41,-192.36 210.38,-209.3"/>
<polygon fill="midnightblue" stroke="midnightblue" points="338.62,-112.79 346.42,-105.61 335.85,-106.36 338.62,-112.79"/>
</g>
</g>
</svg>
