<?xml version="1.0" encoding="UTF-8" standalone="no"?>
<!DOCTYPE svg PUBLIC "-//W3C//DTD SVG 1.1//EN"
 "http://www.w3.org/Graphics/SVG/1.1/DTD/svg11.dtd">
<!-- Generated by graphviz version 2.43.0 (0)
 -->
<!-- Title: Alg_Line::Alg_Line Pages: 1 -->
<!--zoomable 327 -->
<svg id="main" version="1.1" xmlns="http://www.w3.org/2000/svg" xmlns:xlink="http://www.w3.org/1999/xlink" xml:space="preserve" onload="init(evt)">
<style type="text/css"><![CDATA[
.edge:hover path { stroke: red; }
.edge:hover polygon { stroke: red; fill: red; }
]]></style>
<script type="text/javascript"><![CDATA[
var edges = document.getElementsByTagName('g');
if (edges && edges.length) {
  for (var i=0;i<edges.length;i++) {
    if (edges[i].id.substr(0,4)=='edge') {
      edges[i].setAttribute('class','edge');
    }
  }
}
]]></script>
        <defs>
                <circle id="rim" cx="0" cy="0" r="7"/>
                <circle id="rim2" cx="0" cy="0" r="3.5"/>
                <g id="zoomPlus">
                        <use xlink:href="#rim" fill="#404040">
                                <set attributeName="fill" to="#808080" begin="zoomplus.mouseover" end="zoomplus.mouseout"/>
                        </use>
                        <path d="M-4,0h8M0,-4v8" fill="none" stroke="white" stroke-width="1.5" pointer-events="none"/>
                </g>
                <g id="zoomMin">
                        <use xlink:href="#rim" fill="#404040">
                                <set attributeName="fill" to="#808080" begin="zoomminus.mouseover" end="zoomminus.mouseout"/>
                        </use>
                        <path d="M-4,0h8" fill="none" stroke="white" stroke-width="1.5" pointer-events="none"/>
                </g>
                <g id="dirArrow">
                        <path fill="none" stroke="white" stroke-width="1.5" d="M0,-3.0v7 M-2.5,-0.5L0,-3.0L2.5,-0.5"/>
                </g>
               <g id="resetDef">
                       <use xlink:href="#rim2" fill="#404040">
                               <set attributeName="fill" to="#808080" begin="reset.mouseover" end="reset.mouseout"/>
                       </use>
               </g>
        </defs>

<script type="text/javascript">
var viewWidth = 705;
var viewHeight = 327;
var sectionId = 'dynsection-0';
</script>
<script xlink:href="svgpan.js"/>
<svg id="graph" class="graph">
<g id="viewport">
<title>Alg_Line::Alg_Line</title>
<polygon fill="white" stroke="transparent" points="-4,4 -4,-323 701,-323 701,4 -4,4"/>
<!-- Node1 -->
<g id="node1" class="node">
<title>Node1</title>
<g id="a_node1"><a xlink:title="Construct a new Alg_Line object. Process string at the same time.">
<polygon fill="#bfbfbf" stroke="black" points="0,-114.5 0,-133.5 105,-133.5 105,-114.5 0,-114.5"/>
<text text-anchor="middle" x="52.5" y="-121.5" font-family="Helvetica,sans-Serif" font-size="10.00">Alg_Line::Alg_Line</text>
</a>
</g>
</g>
<!-- Node2 -->
<g id="node2" class="node">
<title>Node2</title>
<g id="a_node2"><a xlink:href="class_alg___line.html#a02c28dd649a764aabefb625ea87f2938" target="_top" xlink:title="Find the first occupance of character in string that is not an escape or within quotes.">
<polygon fill="white" stroke="black" points="342,-261.5 342,-280.5 452,-280.5 452,-261.5 342,-261.5"/>
<text text-anchor="middle" x="397" y="-268.5" font-family="Helvetica,sans-Serif" font-size="10.00">Alg_Line::_findChar</text>
</a>
</g>
</g>
<!-- Node1&#45;&gt;Node2 -->
<g id="edge1" class="edge">
<title>Node1&#45;&gt;Node2</title>
<path fill="none" stroke="midnightblue" d="M59.88,-133.77C72.78,-152.68 103.9,-194.22 141,-215 200.35,-248.24 277.75,-261.75 331.64,-267.25"/>
<polygon fill="midnightblue" stroke="midnightblue" points="331.47,-270.74 341.76,-268.21 332.13,-263.78 331.47,-270.74"/>
</g>
<!-- Node5 -->
<g id="node5" class="node">
<title>Node5</title>
<g id="a_node5"><a xlink:href="class_alg___line.html#a0047f4df72a2d10ebb74701c3d05bafc" target="_top" xlink:title="Process function name and parameter variables.">
<polygon fill="white" stroke="black" points="141,-152.5 141,-171.5 306,-171.5 306,-152.5 141,-152.5"/>
<text text-anchor="middle" x="223.5" y="-159.5" font-family="Helvetica,sans-Serif" font-size="10.00">Alg_Line::_processFuncParams</text>
</a>
</g>
</g>
<!-- Node1&#45;&gt;Node5 -->
<g id="edge4" class="edge">
<title>Node1&#45;&gt;Node5</title>
<path fill="none" stroke="midnightblue" d="M96.15,-133.59C118.65,-138.65 146.45,-144.9 170.24,-150.25"/>
<polygon fill="midnightblue" stroke="midnightblue" points="169.64,-153.7 180.16,-152.48 171.17,-146.87 169.64,-153.7"/>
</g>
<!-- Node6 -->
<g id="node6" class="node">
<title>Node6</title>
<g id="a_node6"><a xlink:href="class_log.html#ac7147942832455398ad289b706a02616" target="_top" xlink:title="Write error message to the log file.">
<polygon fill="white" stroke="black" points="370.5,-109.5 370.5,-128.5 423.5,-128.5 423.5,-109.5 370.5,-109.5"/>
<text text-anchor="middle" x="397" y="-116.5" font-family="Helvetica,sans-Serif" font-size="10.00">Log::err</text>
</a>
</g>
</g>
<!-- Node1&#45;&gt;Node6 -->
<g id="edge20" class="edge">
<title>Node1&#45;&gt;Node6</title>
<path fill="none" stroke="midnightblue" d="M105.15,-123.25C175.31,-122.22 298.98,-120.42 359.95,-119.53"/>
<polygon fill="midnightblue" stroke="midnightblue" points="360.28,-123.02 370.23,-119.38 360.17,-116.02 360.28,-123.02"/>
</g>
<!-- Node8 -->
<g id="node8" class="node">
<title>Node8</title>
<g id="a_node8"><a xlink:href="class_log.html#add7e611cd3267d3fd5dae017e3aeef67" target="_top" xlink:title="Write infomation to the log file.">
<polygon fill="white" stroke="black" points="367.5,-71.5 367.5,-90.5 426.5,-90.5 426.5,-71.5 367.5,-71.5"/>
<text text-anchor="middle" x="397" y="-78.5" font-family="Helvetica,sans-Serif" font-size="10.00">Log::info</text>
</a>
</g>
</g>
<!-- Node1&#45;&gt;Node8 -->
<g id="edge21" class="edge">
<title>Node1&#45;&gt;Node8</title>
<path fill="none" stroke="midnightblue" d="M105.15,-117.52C174.22,-108.84 295.14,-93.66 357.06,-85.89"/>
<polygon fill="midnightblue" stroke="midnightblue" points="357.7,-89.34 367.19,-84.62 356.83,-82.39 357.7,-89.34"/>
</g>
<!-- Node9 -->
<g id="node9" class="node">
<title>Node9</title>
<g id="a_node9"><a xlink:href="functions_8h.html#a327f8ee07c785b0b6cb9f59b061effeb" target="_top" xlink:title=" ">
<polygon fill="white" stroke="black" points="373.5,-223.5 373.5,-242.5 420.5,-242.5 420.5,-223.5 373.5,-223.5"/>
<text text-anchor="middle" x="397" y="-230.5" font-family="Helvetica,sans-Serif" font-size="10.00">isFunc</text>
</a>
</g>
</g>
<!-- Node1&#45;&gt;Node9 -->
<g id="edge22" class="edge">
<title>Node1&#45;&gt;Node9</title>
<path fill="none" stroke="midnightblue" d="M65.15,-133.67C81.19,-146.49 111.48,-168.89 141,-181 216.94,-212.15 313.52,-225.28 363.2,-230.27"/>
<polygon fill="midnightblue" stroke="midnightblue" points="363.06,-233.78 373.35,-231.25 363.73,-226.81 363.06,-233.78"/>
</g>
<!-- Node15 -->
<g id="node15" class="node">
<title>Node15</title>
<g id="a_node15"><a xlink:href="class_alg___line.html#ab07f32f58fb0a05428e54c1d6038fce2" target="_top" xlink:title="Process returns variables.">
<polygon fill="white" stroke="black" points="151.5,-38.5 151.5,-57.5 295.5,-57.5 295.5,-38.5 151.5,-38.5"/>
<text text-anchor="middle" x="223.5" y="-45.5" font-family="Helvetica,sans-Serif" font-size="10.00">Alg_Line::_processReturns</text>
</a>
</g>
</g>
<!-- Node1&#45;&gt;Node15 -->
<g id="edge18" class="edge">
<title>Node1&#45;&gt;Node15</title>
<path fill="none" stroke="midnightblue" d="M67.17,-114.4C83.91,-103 113.46,-84.01 141,-72 151.14,-67.58 162.34,-63.68 173.11,-60.39"/>
<polygon fill="midnightblue" stroke="midnightblue" points="174.22,-63.71 182.83,-57.54 172.25,-57 174.22,-63.71"/>
</g>
<!-- Node16 -->
<g id="node16" class="node">
<title>Node16</title>
<g id="a_node16"><a xlink:href="class_alg___line.html#a8d9eb8bd82f763883018ea0f7c443b43" target="_top" xlink:title="Remove the comment from the string.">
<polygon fill="white" stroke="black" points="146,-0.5 146,-19.5 301,-19.5 301,-0.5 146,-0.5"/>
<text text-anchor="middle" x="223.5" y="-7.5" font-family="Helvetica,sans-Serif" font-size="10.00">Alg_Line::_removeComment</text>
</a>
</g>
</g>
<!-- Node1&#45;&gt;Node16 -->
<g id="edge19" class="edge">
<title>Node1&#45;&gt;Node16</title>
<path fill="none" stroke="midnightblue" d="M59.41,-114.44C71.91,-95.06 103.03,-51.13 141,-29 144.85,-26.76 148.94,-24.78 153.16,-23.04"/>
<polygon fill="midnightblue" stroke="midnightblue" points="154.4,-26.31 162.58,-19.58 151.99,-19.74 154.4,-26.31"/>
</g>
<!-- Node3 -->
<g id="node3" class="node">
<title>Node3</title>
<g id="a_node3"><a xlink:href="class_alg___line.html#aa0ac36c0f72f54317b686035693ec046" target="_top" xlink:title="Find the first occupance of substring in string that is not an escape or within quotes.">
<polygon fill="white" stroke="black" points="488,-299.5 488,-318.5 603,-318.5 603,-299.5 488,-299.5"/>
<text text-anchor="middle" x="545.5" y="-306.5" font-family="Helvetica,sans-Serif" font-size="10.00">Alg_Line::_findChars</text>
</a>
</g>
</g>
<!-- Node2&#45;&gt;Node3 -->
<g id="edge2" class="edge">
<title>Node2&#45;&gt;Node3</title>
<path fill="none" stroke="midnightblue" d="M434.97,-280.59C454.13,-285.56 477.71,-291.68 498.09,-296.96"/>
<polygon fill="midnightblue" stroke="midnightblue" points="497.24,-300.36 507.8,-299.48 499,-293.58 497.24,-300.36"/>
</g>
<!-- Node4 -->
<g id="node4" class="node">
<title>Node4</title>
<g id="a_node4"><a xlink:href="utils_8h.html#af11c7cca5b9ad860da4bdb556dce3234" target="_top" xlink:title=" ">
<polygon fill="white" stroke="black" points="639,-242.5 639,-261.5 697,-261.5 697,-242.5 639,-242.5"/>
<text text-anchor="middle" x="668" y="-249.5" font-family="Helvetica,sans-Serif" font-size="10.00">contains</text>
</a>
</g>
</g>
<!-- Node3&#45;&gt;Node4 -->
<g id="edge3" class="edge">
<title>Node3&#45;&gt;Node4</title>
<path fill="none" stroke="midnightblue" d="M578.93,-299.4C586.93,-296.68 595.38,-293.5 603,-290 617.23,-283.47 632.32,-274.62 644.27,-267.09"/>
<polygon fill="midnightblue" stroke="midnightblue" points="646.21,-270.01 652.73,-261.66 642.43,-264.12 646.21,-270.01"/>
</g>
<!-- Node5&#45;&gt;Node2 -->
<g id="edge5" class="edge">
<title>Node5&#45;&gt;Node2</title>
<path fill="none" stroke="midnightblue" d="M234.72,-171.66C254.21,-189.64 298.61,-228.52 342,-252 345.79,-254.05 349.84,-255.95 353.95,-257.69"/>
<polygon fill="midnightblue" stroke="midnightblue" points="353,-261.08 363.59,-261.46 355.55,-254.56 353,-261.08"/>
</g>
<!-- Node5&#45;&gt;Node6 -->
<g id="edge6" class="edge">
<title>Node5&#45;&gt;Node6</title>
<path fill="none" stroke="midnightblue" d="M262.56,-152.46C291.74,-145.14 331.72,-135.12 360.3,-127.95"/>
<polygon fill="midnightblue" stroke="midnightblue" points="361.42,-131.28 370.27,-125.45 359.72,-124.49 361.42,-131.28"/>
</g>
<!-- Node7 -->
<g id="node7" class="node">
<title>Node7</title>
<g id="a_node7"><a xlink:href="class_alg___line.html#af651454e6ddfce164626b68b2c6cba97" target="_top" xlink:title="Get the function name.">
<polygon fill="white" stroke="black" points="354.5,-185.5 354.5,-204.5 439.5,-204.5 439.5,-185.5 354.5,-185.5"/>
<text text-anchor="middle" x="397" y="-192.5" font-family="Helvetica,sans-Serif" font-size="10.00">Alg_Line::func</text>
</a>
</g>
</g>
<!-- Node5&#45;&gt;Node7 -->
<g id="edge7" class="edge">
<title>Node5&#45;&gt;Node7</title>
<path fill="none" stroke="midnightblue" d="M274.1,-171.54C296.15,-175.79 322.1,-180.78 344.38,-185.07"/>
<polygon fill="midnightblue" stroke="midnightblue" points="343.85,-188.53 354.33,-186.98 345.17,-181.66 343.85,-188.53"/>
</g>
<!-- Node5&#45;&gt;Node8 -->
<g id="edge8" class="edge">
<title>Node5&#45;&gt;Node8</title>
<path fill="none" stroke="midnightblue" d="M240.85,-152.38C263.21,-139.46 304.8,-116.25 342,-100 347.07,-97.79 352.48,-95.64 357.85,-93.63"/>
<polygon fill="midnightblue" stroke="midnightblue" points="359.17,-96.87 367.39,-90.19 356.8,-90.29 359.17,-96.87"/>
</g>
<!-- Node5&#45;&gt;Node9 -->
<g id="edge9" class="edge">
<title>Node5&#45;&gt;Node9</title>
<path fill="none" stroke="midnightblue" d="M244.67,-171.51C267.92,-182.32 307.37,-200.27 342,-214 348.99,-216.77 356.56,-219.56 363.76,-222.12"/>
<polygon fill="midnightblue" stroke="midnightblue" points="362.66,-225.45 373.26,-225.44 364.97,-218.84 362.66,-225.45"/>
</g>
<!-- Node13 -->
<g id="node13" class="node">
<title>Node13</title>
<g id="a_node13"><a xlink:href="utils_8h.html#a0465457013518e168df05799c93cfa6e" target="_top" xlink:title=" ">
<polygon fill="white" stroke="black" points="355.5,-147.5 355.5,-166.5 438.5,-166.5 438.5,-147.5 355.5,-147.5"/>
<text text-anchor="middle" x="397" y="-154.5" font-family="Helvetica,sans-Serif" font-size="10.00">removeQuote</text>
</a>
</g>
</g>
<!-- Node5&#45;&gt;Node13 -->
<g id="edge16" class="edge">
<title>Node5&#45;&gt;Node13</title>
<path fill="none" stroke="midnightblue" d="M306.23,-159.62C319.58,-159.23 333.05,-158.84 345.36,-158.48"/>
<polygon fill="midnightblue" stroke="midnightblue" points="345.5,-161.97 355.4,-158.18 345.3,-154.98 345.5,-161.97"/>
</g>
<!-- Node10 -->
<g id="node10" class="node">
<title>Node10</title>
<g id="a_node10"><a xlink:href="functions_8h.html#a874ba6c7a581632b5ca72a1bd9fecdd1" target="_top" xlink:title=" ">
<polygon fill="white" stroke="black" points="508.5,-261.5 508.5,-280.5 582.5,-280.5 582.5,-261.5 508.5,-261.5"/>
<text text-anchor="middle" x="545.5" y="-268.5" font-family="Helvetica,sans-Serif" font-size="10.00">isFuncIsEnd</text>
</a>
</g>
</g>
<!-- Node9&#45;&gt;Node10 -->
<g id="edge10" class="edge">
<title>Node9&#45;&gt;Node10</title>
<path fill="none" stroke="midnightblue" d="M420.57,-238.85C441.19,-244.2 472.32,-252.28 498.22,-258.99"/>
<polygon fill="midnightblue" stroke="midnightblue" points="497.66,-262.47 508.22,-261.59 499.42,-255.69 497.66,-262.47"/>
</g>
<!-- Node11 -->
<g id="node11" class="node">
<title>Node11</title>
<g id="a_node11"><a xlink:href="functions_8h.html#a6f29a04c07a24fbea22fa058f8005608" target="_top" xlink:title=" ">
<polygon fill="white" stroke="black" points="497.5,-223.5 497.5,-242.5 593.5,-242.5 593.5,-223.5 497.5,-223.5"/>
<text text-anchor="middle" x="545.5" y="-230.5" font-family="Helvetica,sans-Serif" font-size="10.00">isFuncNeedsEnd</text>
</a>
</g>
</g>
<!-- Node9&#45;&gt;Node11 -->
<g id="edge12" class="edge">
<title>Node9&#45;&gt;Node11</title>
<path fill="none" stroke="midnightblue" d="M420.57,-233C438.33,-233 463.88,-233 487.18,-233"/>
<polygon fill="midnightblue" stroke="midnightblue" points="487.34,-236.5 497.34,-233 487.34,-229.5 487.34,-236.5"/>
</g>
<!-- Node12 -->
<g id="node12" class="node">
<title>Node12</title>
<g id="a_node12"><a xlink:href="functions_8h.html#ac9dc58cb94b7547813c3a35154d97d18" target="_top" xlink:title=" ">
<polygon fill="white" stroke="black" points="506,-185.5 506,-204.5 585,-204.5 585,-185.5 506,-185.5"/>
<text text-anchor="middle" x="545.5" y="-192.5" font-family="Helvetica,sans-Serif" font-size="10.00">isFuncNoEnd</text>
</a>
</g>
</g>
<!-- Node9&#45;&gt;Node12 -->
<g id="edge14" class="edge">
<title>Node9&#45;&gt;Node12</title>
<path fill="none" stroke="midnightblue" d="M420.57,-227.15C441.05,-221.83 471.89,-213.83 497.68,-207.14"/>
<polygon fill="midnightblue" stroke="midnightblue" points="498.85,-210.46 507.65,-204.56 497.09,-203.68 498.85,-210.46"/>
</g>
<!-- Node10&#45;&gt;Node4 -->
<g id="edge11" class="edge">
<title>Node10&#45;&gt;Node4</title>
<path fill="none" stroke="midnightblue" d="M582.65,-265.3C597.16,-263.01 613.89,-260.37 628.61,-258.05"/>
<polygon fill="midnightblue" stroke="midnightblue" points="629.58,-261.44 638.91,-256.43 628.49,-254.53 629.58,-261.44"/>
</g>
<!-- Node11&#45;&gt;Node4 -->
<g id="edge13" class="edge">
<title>Node11&#45;&gt;Node4</title>
<path fill="none" stroke="midnightblue" d="M593.78,-240.45C605.49,-242.3 617.89,-244.26 629.09,-246.02"/>
<polygon fill="midnightblue" stroke="midnightblue" points="628.56,-249.48 638.98,-247.58 629.65,-242.57 628.56,-249.48"/>
</g>
<!-- Node12&#45;&gt;Node4 -->
<g id="edge15" class="edge">
<title>Node12&#45;&gt;Node4</title>
<path fill="none" stroke="midnightblue" d="M578.93,-204.6C586.93,-207.32 595.38,-210.5 603,-214 617.23,-220.53 632.32,-229.38 644.27,-236.91"/>
<polygon fill="midnightblue" stroke="midnightblue" points="642.43,-239.88 652.73,-242.34 646.21,-233.99 642.43,-239.88"/>
</g>
<!-- Node14 -->
<g id="node14" class="node">
<title>Node14</title>
<g id="a_node14"><a xlink:href="utils_8h.html#aaaee605fe46abaa420448438d89b22ed" target="_top" xlink:title=" ">
<polygon fill="white" stroke="black" points="515.5,-147.5 515.5,-166.5 575.5,-166.5 575.5,-147.5 515.5,-147.5"/>
<text text-anchor="middle" x="545.5" y="-154.5" font-family="Helvetica,sans-Serif" font-size="10.00">isQuoted</text>
</a>
</g>
</g>
<!-- Node13&#45;&gt;Node14 -->
<g id="edge17" class="edge">
<title>Node13&#45;&gt;Node14</title>
<path fill="none" stroke="midnightblue" d="M438.81,-157C459.43,-157 484.35,-157 504.81,-157"/>
<polygon fill="midnightblue" stroke="midnightblue" points="505.05,-160.5 515.05,-157 505.05,-153.5 505.05,-160.5"/>
</g>
</g>
</svg>
        <g id="navigator" transform="translate(0 0)" fill="#404254">
                <rect fill="#f2f5e9" fill-opacity="0.5" stroke="#606060" stroke-width=".5" x="0" y="0" width="60" height="60"/>
                <use id="zoomplus" xlink:href="#zoomPlus" x="17" y="9" onmousedown="handleZoom(evt,'in')"/>
                <use id="zoomminus" xlink:href="#zoomMin" x="42" y="9" onmousedown="handleZoom(evt,'out')"/>
                <use id="reset" xlink:href="#resetDef" x="30" y="36" onmousedown="handleReset()"/>
                <g id="arrowUp" xlink:href="#dirArrow" transform="translate(30 24)" onmousedown="handlePan(0,-1)">
                  <use xlink:href="#rim" fill="#404040">
                        <set attributeName="fill" to="#808080" begin="arrowUp.mouseover" end="arrowUp.mouseout"/>
                  </use>
                  <path fill="none" stroke="white" stroke-width="1.5" d="M0,-3.0v7 M-2.5,-0.5L0,-3.0L2.5,-0.5"/>
                </g>
                <g id="arrowRight" xlink:href="#dirArrow" transform="rotate(90) translate(36 -43)" onmousedown="handlePan(1,0)">
                  <use xlink:href="#rim" fill="#404040">
                        <set attributeName="fill" to="#808080" begin="arrowRight.mouseover" end="arrowRight.mouseout"/>
                  </use>
                  <path fill="none" stroke="white" stroke-width="1.5" d="M0,-3.0v7 M-2.5,-0.5L0,-3.0L2.5,-0.5"/>
                </g>
                <g id="arrowDown" xlink:href="#dirArrow" transform="rotate(180) translate(-30 -48)" onmousedown="handlePan(0,1)">
                  <use xlink:href="#rim" fill="#404040">
                        <set attributeName="fill" to="#808080" begin="arrowDown.mouseover" end="arrowDown.mouseout"/>
                  </use>
                  <path fill="none" stroke="white" stroke-width="1.5" d="M0,-3.0v7 M-2.5,-0.5L0,-3.0L2.5,-0.5"/>
                </g>
                <g id="arrowLeft" xlink:href="#dirArrow" transform="rotate(270) translate(-36 17)" onmousedown="handlePan(-1,0)">
                  <use xlink:href="#rim" fill="#404040">
                        <set attributeName="fill" to="#808080" begin="arrowLeft.mouseover" end="arrowLeft.mouseout"/>
                  </use>
                  <path fill="none" stroke="white" stroke-width="1.5" d="M0,-3.0v7 M-2.5,-0.5L0,-3.0L2.5,-0.5"/>
                </g>
        </g>
        <svg viewBox="0 0 15 15" width="100%" height="30px" preserveAspectRatio="xMaxYMin meet">
         <g id="arrow_out" transform="scale(0.3 0.3)">
          <a xlink:href="class_alg___line_a4f478c53dbfaecf16d55be668d959562_cgraph_org.svg" target="_base">
           <rect id="button" ry="5" rx="5" y="6" x="6" height="38" width="38"
                fill="#f2f5e9" fill-opacity="0.5" stroke="#606060" stroke-width="1.0"/>
           <path id="arrow"
             d="M 11.500037,31.436501 C 11.940474,20.09759 22.043105,11.32322 32.158766,21.979434 L 37.068811,17.246167 C 37.068811,17.246167 37.088388,32 37.088388,32 L 22.160133,31.978069 C 22.160133,31.978069 26.997745,27.140456 26.997745,27.140456 C 18.528582,18.264221 13.291696,25.230495 11.500037,31.436501 z"
             style="fill:#404040;"/>
          </a>
         </g>
        </svg>
</svg>
