<?xml version="1.0" encoding="UTF-8" standalone="no"?>
<!DOCTYPE svg PUBLIC "-//W3C//DTD SVG 1.1//EN"
 "http://www.w3.org/Graphics/SVG/1.1/DTD/svg11.dtd">
<!-- Generated by graphviz version 2.43.0 (0)
 -->
<!-- Title: Export::_generateBF Pages: 1 -->
<svg width="905pt" height="978pt"
 viewBox="0.00 0.00 905.00 978.00" xmlns="http://www.w3.org/2000/svg" xmlns:xlink="http://www.w3.org/1999/xlink">
<g id="graph0" class="graph" transform="scale(1 1) rotate(0) translate(4 974)">
<title>Export::_generateBF</title>
<polygon fill="white" stroke="transparent" points="-4,4 -4,-974 901,-974 901,4 -4,4"/>
<!-- Node1 -->
<g id="node1" class="node">
<title>Node1</title>
<g id="a_node1"><a xlink:title="Generate RIS reflection matrices.">
<polygon fill="#bfbfbf" stroke="black" points="0,-798.5 0,-817.5 116,-817.5 116,-798.5 0,-798.5"/>
<text text-anchor="middle" x="58" y="-805.5" font-family="Helvetica,sans-Serif" font-size="10.00">Export::_generateBF</text>
</a>
</g>
</g>
<!-- Node2 -->
<g id="node2" class="node">
<title>Node2</title>
<g id="a_node2"><a xlink:href="class_export.html#a638d6b9ced18342503ee6f4d4b274740" target="_top" xlink:title=" ">
<polygon fill="white" stroke="black" points="157.5,-950.5 157.5,-969.5 241.5,-969.5 241.5,-950.5 157.5,-950.5"/>
<text text-anchor="middle" x="199.5" y="-957.5" font-family="Helvetica,sans-Serif" font-size="10.00">Export::_asStr</text>
</a>
</g>
</g>
<!-- Node1&#45;&gt;Node2 -->
<g id="edge1" class="edge">
<title>Node1&#45;&gt;Node2</title>
<path fill="none" stroke="midnightblue" d="M63.39,-817.79C74.7,-841.97 107.1,-905.12 152,-941 154.03,-942.62 156.21,-944.12 158.49,-945.51"/>
<polygon fill="midnightblue" stroke="midnightblue" points="157.12,-948.74 167.59,-950.3 160.38,-942.54 157.12,-948.74"/>
</g>
<!-- Node3 -->
<g id="node3" class="node">
<title>Node3</title>
<g id="a_node3"><a xlink:href="class_export.html#abe75ae41d7cc8afe8f1ba4bbf67dfcfc" target="_top" xlink:title=" ">
<polygon fill="white" stroke="black" points="168,-912.5 168,-931.5 231,-931.5 231,-912.5 168,-912.5"/>
<text text-anchor="middle" x="199.5" y="-919.5" font-family="Helvetica,sans-Serif" font-size="10.00">Export::_f</text>
</a>
</g>
</g>
<!-- Node1&#45;&gt;Node3 -->
<g id="edge2" class="edge">
<title>Node1&#45;&gt;Node3</title>
<path fill="none" stroke="midnightblue" d="M66.18,-817.62C80.59,-836.34 114.84,-878.02 152,-903 154.59,-904.74 157.37,-906.37 160.23,-907.88"/>
<polygon fill="midnightblue" stroke="midnightblue" points="159,-911.17 169.53,-912.31 162,-904.85 159,-911.17"/>
</g>
<!-- Node4 -->
<g id="node4" class="node">
<title>Node4</title>
<g id="a_node4"><a xlink:href="class_export.html#a4dd19b0ff2eb109897fb486769fefffe" target="_top" xlink:title="Get the size of the node (Tx/Rx/RIS).">
<polygon fill="white" stroke="black" points="152,-874.5 152,-893.5 247,-893.5 247,-874.5 152,-874.5"/>
<text text-anchor="middle" x="199.5" y="-881.5" font-family="Helvetica,sans-Serif" font-size="10.00">Export::_getSize</text>
</a>
</g>
</g>
<!-- Node1&#45;&gt;Node4 -->
<g id="edge3" class="edge">
<title>Node1&#45;&gt;Node4</title>
<path fill="none" stroke="midnightblue" d="M73.08,-817.63C90.95,-829.61 122.94,-850.28 152,-865 155.76,-866.91 159.76,-868.77 163.78,-870.54"/>
<polygon fill="midnightblue" stroke="midnightblue" points="162.5,-873.8 173.07,-874.48 165.23,-867.35 162.5,-873.8"/>
</g>
<!-- Node5 -->
<g id="node5" class="node">
<title>Node5</title>
<g id="a_node5"><a xlink:href="class_export.html#a68e698a5654fc800aa78c512da8f23b1" target="_top" xlink:title=" ">
<polygon fill="white" stroke="black" points="152.5,-836.5 152.5,-855.5 246.5,-855.5 246.5,-836.5 152.5,-836.5"/>
<text text-anchor="middle" x="199.5" y="-843.5" font-family="Helvetica,sans-Serif" font-size="10.00">Export::_langStr</text>
</a>
</g>
</g>
<!-- Node1&#45;&gt;Node5 -->
<g id="edge4" class="edge">
<title>Node1&#45;&gt;Node5</title>
<path fill="none" stroke="midnightblue" d="M94.2,-817.59C112.21,-822.49 134.33,-828.52 153.56,-833.76"/>
<polygon fill="midnightblue" stroke="midnightblue" points="152.74,-837.16 163.31,-836.41 154.58,-830.41 152.74,-837.16"/>
</g>
<!-- Node6 -->
<g id="node6" class="node">
<title>Node6</title>
<g id="a_node6"><a xlink:href="utils_8h.html#a49dc116689f1a4202be4d3f0743b1f70" target="_top" xlink:title=" ">
<polygon fill="white" stroke="black" points="175,-798.5 175,-817.5 224,-817.5 224,-798.5 175,-798.5"/>
<text text-anchor="middle" x="199.5" y="-805.5" font-family="Helvetica,sans-Serif" font-size="10.00">appDir</text>
</a>
</g>
</g>
<!-- Node1&#45;&gt;Node6 -->
<g id="edge5" class="edge">
<title>Node1&#45;&gt;Node6</title>
<path fill="none" stroke="midnightblue" d="M116.14,-808C132.61,-808 150.05,-808 164.62,-808"/>
<polygon fill="midnightblue" stroke="midnightblue" points="164.67,-811.5 174.67,-808 164.67,-804.5 164.67,-811.5"/>
</g>
<!-- Node7 -->
<g id="node7" class="node">
<title>Node7</title>
<g id="a_node7"><a xlink:href="utils_8h.html#af11c7cca5b9ad860da4bdb556dce3234" target="_top" xlink:title=" ">
<polygon fill="white" stroke="black" points="665,-665.5 665,-684.5 723,-684.5 723,-665.5 665,-665.5"/>
<text text-anchor="middle" x="694" y="-672.5" font-family="Helvetica,sans-Serif" font-size="10.00">contains</text>
</a>
</g>
</g>
<!-- Node1&#45;&gt;Node7 -->
<g id="edge6" class="edge">
<title>Node1&#45;&gt;Node7</title>
<path fill="none" stroke="midnightblue" d="M65.32,-798.47C78.67,-779.25 111.86,-736.12 152,-718 197.54,-697.44 539.07,-681.43 654.79,-676.54"/>
<polygon fill="midnightblue" stroke="midnightblue" points="655.11,-680.03 664.95,-676.12 654.82,-673.04 655.11,-680.03"/>
</g>
<!-- Node8 -->
<g id="node8" class="node">
<title>Node8</title>
<g id="a_node8"><a xlink:href="class_log.html#ac7147942832455398ad289b706a02616" target="_top" xlink:title="Write error message to the log file.">
<polygon fill="white" stroke="black" points="822,-698.5 822,-717.5 875,-717.5 875,-698.5 822,-698.5"/>
<text text-anchor="middle" x="848.5" y="-705.5" font-family="Helvetica,sans-Serif" font-size="10.00">Log::err</text>
</a>
</g>
</g>
<!-- Node1&#45;&gt;Node8 -->
<g id="edge7" class="edge">
<title>Node1&#45;&gt;Node8</title>
<path fill="none" stroke="midnightblue" d="M100.49,-798.48C116.51,-795.07 135.04,-791.47 152,-789 246.92,-775.15 271.07,-770 367,-770 367,-770 367,-770 539.5,-770 639.85,-770 667.2,-772.45 764,-746 784.1,-740.51 805.47,-730.7 821.56,-722.43"/>
<polygon fill="midnightblue" stroke="midnightblue" points="823.62,-725.29 830.83,-717.53 820.35,-719.1 823.62,-725.29"/>
</g>
<!-- Node9 -->
<g id="node9" class="node">
<title>Node9</title>
<g id="a_node9"><a xlink:href="class_log.html#add7e611cd3267d3fd5dae017e3aeef67" target="_top" xlink:title="Write infomation to the log file.">
<polygon fill="white" stroke="black" points="819,-599.5 819,-618.5 878,-618.5 878,-599.5 819,-599.5"/>
<text text-anchor="middle" x="848.5" y="-606.5" font-family="Helvetica,sans-Serif" font-size="10.00">Log::info</text>
</a>
</g>
</g>
<!-- Node1&#45;&gt;Node9 -->
<g id="edge8" class="edge">
<title>Node1&#45;&gt;Node9</title>
<path fill="none" stroke="midnightblue" d="M79.64,-798.41C98.21,-790.11 126.44,-778.32 152,-771 245.36,-744.25 269.89,-732 367,-732 367,-732 367,-732 539.5,-732 640.7,-732 674.28,-740.82 764,-694 794.69,-677.98 820.94,-646.58 835.44,-626.75"/>
<polygon fill="midnightblue" stroke="midnightblue" points="838.32,-628.74 841.25,-618.55 832.61,-624.69 838.32,-628.74"/>
</g>
<!-- Node10 -->
<g id="node10" class="node">
<title>Node10</title>
<g id="a_node10"><a xlink:href="class_alg.html#ada1e8215f047b4ffd736e811b5ea3162" target="_top" xlink:title=" ">
<polygon fill="white" stroke="black" points="168,-342.5 168,-361.5 231,-361.5 231,-342.5 168,-342.5"/>
<text text-anchor="middle" x="199.5" y="-349.5" font-family="Helvetica,sans-Serif" font-size="10.00">Alg::write</text>
</a>
</g>
</g>
<!-- Node1&#45;&gt;Node10 -->
<g id="edge9" class="edge">
<title>Node1&#45;&gt;Node10</title>
<path fill="none" stroke="midnightblue" d="M61.91,-798.48C79.22,-741.92 168.52,-450.01 192.54,-371.48"/>
<polygon fill="midnightblue" stroke="midnightblue" points="195.91,-372.44 195.48,-361.86 189.21,-370.4 195.91,-372.44"/>
</g>
<!-- Node10&#45;&gt;Node9 -->
<g id="edge28" class="edge">
<title>Node10&#45;&gt;Node9</title>
<path fill="none" stroke="midnightblue" d="M200.18,-361.53C199.5,-399.4 202.63,-540.02 283,-599 366.34,-660.16 695.53,-627.33 808.9,-613.87"/>
<polygon fill="midnightblue" stroke="midnightblue" points="809.36,-617.34 818.87,-612.67 808.52,-610.39 809.36,-617.34"/>
</g>
<!-- Node10&#45;&gt;Node10 -->
<g id="edge50" class="edge">
<title>Node10&#45;&gt;Node10</title>
<path fill="none" stroke="midnightblue" d="M177.92,-361.76C167.42,-370.57 174.62,-380 199.5,-380 215.44,-380 224.12,-376.13 225.54,-371.03"/>
<polygon fill="midnightblue" stroke="midnightblue" points="228.57,-369.25 221.08,-361.76 222.26,-372.29 228.57,-369.25"/>
</g>
<!-- Node11 -->
<g id="node11" class="node">
<title>Node11</title>
<g id="a_node11"><a xlink:href="class_alg.html#a2cf2b7f4e37c8e401d9c6dad6687917d" target="_top" xlink:title=" ">
<polygon fill="white" stroke="black" points="318,-0.5 318,-19.5 418,-19.5 418,-0.5 318,-0.5"/>
<text text-anchor="middle" x="368" y="-7.5" font-family="Helvetica,sans-Serif" font-size="10.00">Alg::_wComment</text>
</a>
</g>
</g>
<!-- Node10&#45;&gt;Node11 -->
<g id="edge10" class="edge">
<title>Node10&#45;&gt;Node11</title>
<path fill="none" stroke="midnightblue" d="M201.62,-342.27C207.46,-293.34 235.91,-74.8 283,-29 289.92,-22.27 298.69,-17.72 307.94,-14.69"/>
<polygon fill="midnightblue" stroke="midnightblue" points="308.96,-18.04 317.7,-12.05 307.13,-11.28 308.96,-18.04"/>
</g>
<!-- Node12 -->
<g id="node12" class="node">
<title>Node12</title>
<g id="a_node12"><a xlink:href="class_calc.html#ad6dbdfdd4bd21322e5836ff72c11ae1b" target="_top" xlink:title="Convert the Alg CALC contents into a language command.">
<polygon fill="white" stroke="black" points="511,-76.5 511,-95.5 566,-95.5 566,-76.5 511,-76.5"/>
<text text-anchor="middle" x="538.5" y="-83.5" font-family="Helvetica,sans-Serif" font-size="10.00">Calc::as</text>
</a>
</g>
</g>
<!-- Node10&#45;&gt;Node12 -->
<g id="edge11" class="edge">
<title>Node10&#45;&gt;Node12</title>
<path fill="none" stroke="midnightblue" d="M200.28,-342.34C200,-304.6 204.51,-166.1 283,-105 346.1,-55.88 446.71,-66.57 500.59,-77.16"/>
<polygon fill="midnightblue" stroke="midnightblue" points="500.21,-80.66 510.71,-79.26 501.63,-73.8 500.21,-80.66"/>
</g>
<!-- Node23 -->
<g id="node23" class="node">
<title>Node23</title>
<g id="a_node23"><a xlink:href="class_type.html#abe15820e780d2f6646792d54f3ae3311" target="_top" xlink:title=" ">
<polygon fill="white" stroke="black" points="336,-570.5 336,-589.5 400,-589.5 400,-570.5 336,-570.5"/>
<text text-anchor="middle" x="368" y="-577.5" font-family="Helvetica,sans-Serif" font-size="10.00">Type::dim</text>
</a>
</g>
</g>
<!-- Node10&#45;&gt;Node23 -->
<g id="edge25" class="edge">
<title>Node10&#45;&gt;Node23</title>
<path fill="none" stroke="midnightblue" d="M201.23,-361.7C204.28,-395.07 219.03,-506.16 283,-561 294.81,-571.12 310.88,-576.15 325.81,-578.56"/>
<polygon fill="midnightblue" stroke="midnightblue" points="325.54,-582.06 335.9,-579.84 326.42,-575.11 325.54,-582.06"/>
</g>
<!-- Node24 -->
<g id="node24" class="node">
<title>Node24</title>
<g id="a_node24"><a xlink:href="class_alg___line.html#af651454e6ddfce164626b68b2c6cba97" target="_top" xlink:title="Get the function name.">
<polygon fill="white" stroke="black" points="325.5,-532.5 325.5,-551.5 410.5,-551.5 410.5,-532.5 325.5,-532.5"/>
<text text-anchor="middle" x="368" y="-539.5" font-family="Helvetica,sans-Serif" font-size="10.00">Alg_Line::func</text>
</a>
</g>
</g>
<!-- Node10&#45;&gt;Node24 -->
<g id="edge26" class="edge">
<title>Node10&#45;&gt;Node24</title>
<path fill="none" stroke="midnightblue" d="M202.13,-361.56C207.62,-390.78 228.31,-479.5 283,-523 292.23,-530.34 303.75,-534.96 315.27,-537.84"/>
<polygon fill="midnightblue" stroke="midnightblue" points="314.83,-541.33 325.34,-539.95 316.27,-534.48 314.83,-541.33"/>
</g>
<!-- Node25 -->
<g id="node25" class="node">
<title>Node25</title>
<g id="a_node25"><a xlink:href="class_alg___line.html#a49a98870a1f09e35a3e15a7d7bab1666" target="_top" xlink:title="Check whether parameters contain the key.">
<polygon fill="white" stroke="black" points="318.5,-494.5 318.5,-513.5 417.5,-513.5 417.5,-494.5 318.5,-494.5"/>
<text text-anchor="middle" x="368" y="-501.5" font-family="Helvetica,sans-Serif" font-size="10.00">Alg_Line::hasKey</text>
</a>
</g>
</g>
<!-- Node10&#45;&gt;Node25 -->
<g id="edge27" class="edge">
<title>Node10&#45;&gt;Node25</title>
<path fill="none" stroke="midnightblue" d="M203.49,-361.52C211.77,-386.19 237.41,-452.52 283,-485 290.6,-490.42 299.49,-494.32 308.59,-497.13"/>
<polygon fill="midnightblue" stroke="midnightblue" points="307.92,-500.57 318.49,-499.76 309.72,-493.81 307.92,-500.57"/>
</g>
<!-- Node26 -->
<g id="node26" class="node">
<title>Node26</title>
<g id="a_node26"><a xlink:href="class_alg.html#a3ee7f9963027158b3fbd442d97800111" target="_top" xlink:title=" ">
<polygon fill="white" stroke="black" points="325,-38.5 325,-57.5 411,-57.5 411,-38.5 325,-38.5"/>
<text text-anchor="middle" x="368" y="-45.5" font-family="Helvetica,sans-Serif" font-size="10.00">Alg::inlineCalc</text>
</a>
</g>
</g>
<!-- Node10&#45;&gt;Node26 -->
<g id="edge29" class="edge">
<title>Node10&#45;&gt;Node26</title>
<path fill="none" stroke="midnightblue" d="M200.25,-342.42C199.76,-302.92 203.3,-151.05 283,-72 291.67,-63.41 303.18,-57.84 314.9,-54.26"/>
<polygon fill="midnightblue" stroke="midnightblue" points="315.95,-57.6 324.74,-51.68 314.18,-50.83 315.95,-57.6"/>
</g>
<!-- Node27 -->
<g id="node27" class="node">
<title>Node27</title>
<g id="a_node27"><a xlink:href="class_alg___line.html#ad419191a99be7e34024e569ad833b04e" target="_top" xlink:title="Check whether the line is for function declaration.">
<polygon fill="white" stroke="black" points="283,-456.5 283,-475.5 453,-475.5 453,-456.5 283,-456.5"/>
<text text-anchor="middle" x="368" y="-463.5" font-family="Helvetica,sans-Serif" font-size="10.00">Alg_Line::isFunctionDeclaration</text>
</a>
</g>
</g>
<!-- Node10&#45;&gt;Node27 -->
<g id="edge31" class="edge">
<title>Node10&#45;&gt;Node27</title>
<path fill="none" stroke="midnightblue" d="M205.92,-361.59C217.42,-381.01 246.26,-425.02 283,-447 286.68,-449.2 290.59,-451.15 294.63,-452.87"/>
<polygon fill="midnightblue" stroke="midnightblue" points="293.67,-456.25 304.26,-456.49 296.13,-449.7 293.67,-456.25"/>
</g>
<!-- Node28 -->
<g id="node28" class="node">
<title>Node28</title>
<g id="a_node28"><a xlink:href="class_alg.html#af935e64a6eb4afa4ca1540f4da3dcc9c" target="_top" xlink:title=" ">
<polygon fill="white" stroke="black" points="340,-418.5 340,-437.5 396,-437.5 396,-418.5 340,-418.5"/>
<text text-anchor="middle" x="368" y="-425.5" font-family="Helvetica,sans-Serif" font-size="10.00">Alg::line</text>
</a>
</g>
</g>
<!-- Node10&#45;&gt;Node28 -->
<g id="edge32" class="edge">
<title>Node10&#45;&gt;Node28</title>
<path fill="none" stroke="midnightblue" d="M211.41,-361.61C226.47,-374.36 254.94,-396.69 283,-409 297.68,-415.44 314.81,-419.82 329.75,-422.74"/>
<polygon fill="midnightblue" stroke="midnightblue" points="329.23,-426.2 339.69,-424.53 330.47,-419.31 329.23,-426.2"/>
</g>
<!-- Node29 -->
<g id="node29" class="node">
<title>Node29</title>
<g id="a_node29"><a xlink:href="class_alg___line.html#a4e79eb77a1cddbdab1dbdde8a499342d" target="_top" xlink:title="Parameter variables.">
<polygon fill="white" stroke="black" points="317.5,-380.5 317.5,-399.5 418.5,-399.5 418.5,-380.5 317.5,-380.5"/>
<text text-anchor="middle" x="368" y="-387.5" font-family="Helvetica,sans-Serif" font-size="10.00">Alg_Line::params</text>
</a>
</g>
</g>
<!-- Node10&#45;&gt;Node29 -->
<g id="edge33" class="edge">
<title>Node10&#45;&gt;Node29</title>
<path fill="none" stroke="midnightblue" d="M231.05,-359.07C246.6,-362.66 265.8,-367.08 283,-371 293.27,-373.34 304.26,-375.84 314.78,-378.22"/>
<polygon fill="midnightblue" stroke="midnightblue" points="314.16,-381.67 324.69,-380.46 315.71,-374.84 314.16,-381.67"/>
</g>
<!-- Node30 -->
<g id="node30" class="node">
<title>Node30</title>
<g id="a_node30"><a xlink:href="class_alg___line.html#a801b08c6c164376039a4ba4e980d039e" target="_top" xlink:title="Print Alg_Line contents (including return values, function names and parameters).">
<polygon fill="white" stroke="black" points="325,-646.5 325,-665.5 411,-665.5 411,-646.5 325,-646.5"/>
<text text-anchor="middle" x="368" y="-653.5" font-family="Helvetica,sans-Serif" font-size="10.00">Alg_Line::print</text>
</a>
</g>
</g>
<!-- Node10&#45;&gt;Node30 -->
<g id="edge34" class="edge">
<title>Node10&#45;&gt;Node30</title>
<path fill="none" stroke="midnightblue" d="M200.25,-361.58C199.76,-401.08 203.3,-552.95 283,-632 291.67,-640.59 303.18,-646.16 314.9,-649.74"/>
<polygon fill="midnightblue" stroke="midnightblue" points="314.18,-653.17 324.74,-652.32 315.95,-646.4 314.18,-653.17"/>
</g>
<!-- Node32 -->
<g id="node32" class="node">
<title>Node32</title>
<g id="a_node32"><a xlink:href="class_type___track.html#a4548ba1c289fba60e88b0e725509219e" target="_top" xlink:title=" ">
<polygon fill="white" stroke="black" points="644.5,-570.5 644.5,-589.5 743.5,-589.5 743.5,-570.5 644.5,-570.5"/>
<text text-anchor="middle" x="694" y="-577.5" font-family="Helvetica,sans-Serif" font-size="10.00">Type_Track::push</text>
</a>
</g>
</g>
<!-- Node10&#45;&gt;Node32 -->
<g id="edge37" class="edge">
<title>Node10&#45;&gt;Node32</title>
<path fill="none" stroke="midnightblue" d="M205.23,-342.34C215.82,-321.96 243.65,-274.95 283,-257 344.67,-228.88 537.33,-211.98 588,-257 638.85,-302.19 579.66,-509.41 624,-561 627.09,-564.6 630.79,-567.54 634.85,-569.95"/>
<polygon fill="midnightblue" stroke="midnightblue" points="633.69,-573.27 644.23,-574.41 636.7,-566.95 633.69,-573.27"/>
</g>
<!-- Node33 -->
<g id="node33" class="node">
<title>Node33</title>
<g id="a_node33"><a xlink:href="utils_8h.html#a0465457013518e168df05799c93cfa6e" target="_top" xlink:title=" ">
<polygon fill="white" stroke="black" points="326.5,-342.5 326.5,-361.5 409.5,-361.5 409.5,-342.5 326.5,-342.5"/>
<text text-anchor="middle" x="368" y="-349.5" font-family="Helvetica,sans-Serif" font-size="10.00">removeQuote</text>
</a>
</g>
</g>
<!-- Node10&#45;&gt;Node33 -->
<g id="edge39" class="edge">
<title>Node10&#45;&gt;Node33</title>
<path fill="none" stroke="midnightblue" d="M231.04,-352C254.76,-352 288.19,-352 315.96,-352"/>
<polygon fill="midnightblue" stroke="midnightblue" points="316.3,-355.5 326.3,-352 316.3,-348.5 316.3,-355.5"/>
</g>
<!-- Node35 -->
<g id="node35" class="node">
<title>Node35</title>
<g id="a_node35"><a xlink:href="class_alg___line.html#a8e21f6b69eaf80a2327f7308fb4299e0" target="_top" xlink:title="Return variables.">
<polygon fill="white" stroke="black" points="319,-304.5 319,-323.5 417,-323.5 417,-304.5 319,-304.5"/>
<text text-anchor="middle" x="368" y="-311.5" font-family="Helvetica,sans-Serif" font-size="10.00">Alg_Line::returns</text>
</a>
</g>
</g>
<!-- Node10&#45;&gt;Node35 -->
<g id="edge41" class="edge">
<title>Node10&#45;&gt;Node35</title>
<path fill="none" stroke="midnightblue" d="M231.05,-344.93C246.6,-341.34 265.8,-336.92 283,-333 293.27,-330.66 304.26,-328.16 314.78,-325.78"/>
<polygon fill="midnightblue" stroke="midnightblue" points="315.71,-329.16 324.69,-323.54 314.16,-322.33 315.71,-329.16"/>
</g>
<!-- Node36 -->
<g id="node36" class="node">
<title>Node36</title>
<g id="a_node36"><a xlink:href="class_type.html#a0153b8ff39040caf3ff2a6f7c7329d7c" target="_top" xlink:title="Get the C++ type name.">
<polygon fill="white" stroke="black" points="331.5,-266.5 331.5,-285.5 404.5,-285.5 404.5,-266.5 331.5,-266.5"/>
<text text-anchor="middle" x="368" y="-273.5" font-family="Helvetica,sans-Serif" font-size="10.00">Type::string</text>
</a>
</g>
</g>
<!-- Node10&#45;&gt;Node36 -->
<g id="edge42" class="edge">
<title>Node10&#45;&gt;Node36</title>
<path fill="none" stroke="midnightblue" d="M211.41,-342.39C226.47,-329.64 254.94,-307.31 283,-295 294.99,-289.74 308.61,-285.85 321.34,-283.02"/>
<polygon fill="midnightblue" stroke="midnightblue" points="322.22,-286.41 331.31,-280.96 320.81,-279.55 322.22,-286.41"/>
</g>
<!-- Node39 -->
<g id="node39" class="node">
<title>Node39</title>
<g id="a_node39"><a xlink:href="namespacemmce.html#ad4a160832ef9fad47c531ece39752208" target="_top" xlink:title="Change a number to string.">
<polygon fill="white" stroke="black" points="320,-190.5 320,-209.5 416,-209.5 416,-190.5 320,-190.5"/>
<text text-anchor="middle" x="368" y="-197.5" font-family="Helvetica,sans-Serif" font-size="10.00">mmce::to_string</text>
</a>
</g>
</g>
<!-- Node10&#45;&gt;Node39 -->
<g id="edge45" class="edge">
<title>Node10&#45;&gt;Node39</title>
<path fill="none" stroke="midnightblue" d="M203.97,-342.28C213.01,-318.34 239.68,-256.13 283,-224 291.04,-218.04 300.52,-213.55 310.16,-210.18"/>
<polygon fill="midnightblue" stroke="midnightblue" points="311.3,-213.49 319.8,-207.17 309.21,-206.81 311.3,-213.49"/>
</g>
<!-- Node40 -->
<g id="node40" class="node">
<title>Node40</title>
<g id="a_node40"><a xlink:href="utils_8h.html#a6ef734356291c638e5787a6c668192d4" target="_top" xlink:title=" ">
<polygon fill="white" stroke="black" points="349.5,-152.5 349.5,-171.5 386.5,-171.5 386.5,-152.5 349.5,-152.5"/>
<text text-anchor="middle" x="368" y="-159.5" font-family="Helvetica,sans-Serif" font-size="10.00">trim</text>
</a>
</g>
</g>
<!-- Node10&#45;&gt;Node40 -->
<g id="edge46" class="edge">
<title>Node10&#45;&gt;Node40</title>
<path fill="none" stroke="midnightblue" d="M202.13,-342.44C207.62,-313.22 228.31,-224.5 283,-181 298.87,-168.38 321.5,-163.8 339.27,-162.28"/>
<polygon fill="midnightblue" stroke="midnightblue" points="339.57,-165.77 349.35,-161.69 339.16,-158.78 339.57,-165.77"/>
</g>
<!-- Node43 -->
<g id="node43" class="node">
<title>Node43</title>
<g id="a_node43"><a xlink:href="class_log.html#a3410828f35c9bf8dd0771ead28de27b0" target="_top" xlink:title="Write contents to the log file.">
<polygon fill="white" stroke="black" points="335.5,-114.5 335.5,-133.5 400.5,-133.5 400.5,-114.5 335.5,-114.5"/>
<text text-anchor="middle" x="368" y="-121.5" font-family="Helvetica,sans-Serif" font-size="10.00">Log::write</text>
</a>
</g>
</g>
<!-- Node10&#45;&gt;Node43 -->
<g id="edge49" class="edge">
<title>Node10&#45;&gt;Node43</title>
<path fill="none" stroke="midnightblue" d="M201.23,-342.3C204.28,-308.93 219.03,-197.84 283,-143 294.71,-132.96 310.63,-127.93 325.46,-125.49"/>
<polygon fill="midnightblue" stroke="midnightblue" points="326.02,-128.95 335.49,-124.2 325.12,-122.01 326.02,-128.95"/>
</g>
<!-- Node13 -->
<g id="node13" class="node">
<title>Node13</title>
<g id="a_node13"><a xlink:href="class_calc.html#af1d1bd5e83f9e5196627f5a4e1a5ee83" target="_top" xlink:title=" ">
<polygon fill="white" stroke="black" points="631.5,-133.5 631.5,-152.5 756.5,-152.5 756.5,-133.5 631.5,-133.5"/>
<text text-anchor="middle" x="694" y="-140.5" font-family="Helvetica,sans-Serif" font-size="10.00">Calc::_changeFunction</text>
</a>
</g>
</g>
<!-- Node12&#45;&gt;Node13 -->
<g id="edge12" class="edge">
<title>Node12&#45;&gt;Node13</title>
<path fill="none" stroke="midnightblue" d="M558.62,-95.62C575.52,-103.87 601,-115.72 624,-124 630.52,-126.35 637.47,-128.57 644.36,-130.62"/>
<polygon fill="midnightblue" stroke="midnightblue" points="643.77,-134.09 654.35,-133.48 645.7,-127.36 643.77,-134.09"/>
</g>
<!-- Node16 -->
<g id="node16" class="node">
<title>Node16</title>
<g id="a_node16"><a xlink:href="class_calc.html#ae3d88bd40f9bdf2c8ec92c426bdca446" target="_top" xlink:title=" ">
<polygon fill="white" stroke="black" points="630.5,-95.5 630.5,-114.5 757.5,-114.5 757.5,-95.5 630.5,-95.5"/>
<text text-anchor="middle" x="694" y="-102.5" font-family="Helvetica,sans-Serif" font-size="10.00">Calc::_changeOperator</text>
</a>
</g>
</g>
<!-- Node12&#45;&gt;Node16 -->
<g id="edge15" class="edge">
<title>Node12&#45;&gt;Node16</title>
<path fill="none" stroke="midnightblue" d="M566.24,-89.31C581.31,-91.17 600.93,-93.6 620.22,-95.99"/>
<polygon fill="midnightblue" stroke="midnightblue" points="619.89,-99.48 630.25,-97.23 620.75,-92.53 619.89,-99.48"/>
</g>
<!-- Node17 -->
<g id="node17" class="node">
<title>Node17</title>
<g id="a_node17"><a xlink:href="class_calc.html#ad95be528148e0d63848d5fa916b93200" target="_top" xlink:title=" ">
<polygon fill="white" stroke="black" points="638.5,-57.5 638.5,-76.5 749.5,-76.5 749.5,-57.5 638.5,-57.5"/>
<text text-anchor="middle" x="694" y="-64.5" font-family="Helvetica,sans-Serif" font-size="10.00">Calc::_changeParen</text>
</a>
</g>
</g>
<!-- Node12&#45;&gt;Node17 -->
<g id="edge16" class="edge">
<title>Node12&#45;&gt;Node17</title>
<path fill="none" stroke="midnightblue" d="M566.24,-82.69C583.37,-80.57 606.38,-77.72 628.1,-75.03"/>
<polygon fill="midnightblue" stroke="midnightblue" points="628.8,-78.47 638.29,-73.77 627.94,-71.53 628.8,-78.47"/>
</g>
<!-- Node18 -->
<g id="node18" class="node">
<title>Node18</title>
<g id="a_node18"><a xlink:href="class_calc.html#ad562619fef96a73cd3b4c27b35bc5f91" target="_top" xlink:title=" ">
<polygon fill="white" stroke="black" points="629,-514.5 629,-533.5 759,-533.5 759,-514.5 629,-514.5"/>
<text text-anchor="middle" x="694" y="-521.5" font-family="Helvetica,sans-Serif" font-size="10.00">Calc::_changeSubScript</text>
</a>
</g>
</g>
<!-- Node12&#45;&gt;Node18 -->
<g id="edge17" class="edge">
<title>Node12&#45;&gt;Node18</title>
<path fill="none" stroke="midnightblue" d="M556.68,-95.5C567.21,-102.17 580.13,-112.02 588,-124 671.72,-251.39 688.8,-442.61 692.18,-504.16"/>
<polygon fill="midnightblue" stroke="midnightblue" points="688.7,-504.58 692.68,-514.39 695.69,-504.24 688.7,-504.58"/>
</g>
<!-- Node22 -->
<g id="node22" class="node">
<title>Node22</title>
<g id="a_node22"><a xlink:href="class_calc.html#a1aec4748092712e0995c0ae5dabbf54f" target="_top" xlink:title=" ">
<polygon fill="white" stroke="black" points="624,-19.5 624,-38.5 764,-38.5 764,-19.5 624,-19.5"/>
<text text-anchor="middle" x="694" y="-26.5" font-family="Helvetica,sans-Serif" font-size="10.00">Calc::_changeSuperScript</text>
</a>
</g>
</g>
<!-- Node12&#45;&gt;Node22 -->
<g id="edge24" class="edge">
<title>Node12&#45;&gt;Node22</title>
<path fill="none" stroke="midnightblue" d="M558.62,-76.38C575.52,-68.13 601,-56.28 624,-48 630.52,-45.65 637.47,-43.43 644.36,-41.38"/>
<polygon fill="midnightblue" stroke="midnightblue" points="645.7,-44.64 654.35,-38.52 643.77,-37.91 645.7,-44.64"/>
</g>
<!-- Node14 -->
<g id="node14" class="node">
<title>Node14</title>
<g id="a_node14"><a xlink:href="class_calc.html#a7d793eba0a7c9fcbafec4310359f165d" target="_top" xlink:title=" ">
<polygon fill="white" stroke="black" points="802,-152.5 802,-171.5 895,-171.5 895,-152.5 802,-152.5"/>
<text text-anchor="middle" x="848.5" y="-159.5" font-family="Helvetica,sans-Serif" font-size="10.00">Calc::_addArma</text>
</a>
</g>
</g>
<!-- Node13&#45;&gt;Node14 -->
<g id="edge13" class="edge">
<title>Node13&#45;&gt;Node14</title>
<path fill="none" stroke="midnightblue" d="M756.59,-150.67C768.11,-152.11 780.09,-153.6 791.43,-155.01"/>
<polygon fill="midnightblue" stroke="midnightblue" points="791.28,-158.52 801.63,-156.29 792.14,-151.58 791.28,-158.52"/>
</g>
<!-- Node15 -->
<g id="node15" class="node">
<title>Node15</title>
<g id="a_node15"><a xlink:href="class_calc.html#af58cd6a2174e577a6246366de03b949e" target="_top" xlink:title=" ">
<polygon fill="white" stroke="black" points="800,-114.5 800,-133.5 897,-133.5 897,-114.5 800,-114.5"/>
<text text-anchor="middle" x="848.5" y="-121.5" font-family="Helvetica,sans-Serif" font-size="10.00">Calc::_addMmce</text>
</a>
</g>
</g>
<!-- Node13&#45;&gt;Node15 -->
<g id="edge14" class="edge">
<title>Node13&#45;&gt;Node15</title>
<path fill="none" stroke="midnightblue" d="M756.59,-135.33C767.49,-133.97 778.8,-132.56 789.6,-131.21"/>
<polygon fill="midnightblue" stroke="midnightblue" points="790.27,-134.66 799.76,-129.95 789.4,-127.71 790.27,-134.66"/>
</g>
<!-- Node18&#45;&gt;Node8 -->
<g id="edge20" class="edge">
<title>Node18&#45;&gt;Node8</title>
<path fill="none" stroke="midnightblue" d="M720.94,-533.57C734.98,-539.74 751.88,-548.89 764,-561 787.91,-584.89 783.37,-598.57 800,-628 811.98,-649.19 826.32,-673.16 836.08,-689.29"/>
<polygon fill="midnightblue" stroke="midnightblue" points="833.33,-691.5 841.51,-698.23 839.31,-687.86 833.33,-691.5"/>
</g>
<!-- Node18&#45;&gt;Node9 -->
<g id="edge21" class="edge">
<title>Node18&#45;&gt;Node9</title>
<path fill="none" stroke="midnightblue" d="M713.24,-533.59C727.2,-540.98 746.89,-551.5 764,-561 783.67,-571.93 805.74,-584.63 822.25,-594.22"/>
<polygon fill="midnightblue" stroke="midnightblue" points="820.86,-597.47 831.26,-599.48 824.38,-591.42 820.86,-597.47"/>
</g>
<!-- Node18&#45;&gt;Node18 -->
<g id="edge18" class="edge">
<title>Node18&#45;&gt;Node18</title>
<path fill="none" stroke="midnightblue" d="M670.26,-533.76C658.72,-542.57 666.63,-552 694,-552 711.96,-552 721.54,-547.94 722.75,-542.65"/>
<polygon fill="midnightblue" stroke="midnightblue" points="725.69,-540.75 717.74,-533.76 719.59,-544.19 725.69,-540.75"/>
</g>
<!-- Node19 -->
<g id="node19" class="node">
<title>Node19</title>
<g id="a_node19"><a xlink:href="class_calc.html#a284818e83b0d85bdd029f3d72d4ef0bd" target="_top" xlink:title=" ">
<polygon fill="white" stroke="black" points="813.5,-514.5 813.5,-533.5 883.5,-533.5 883.5,-514.5 813.5,-514.5"/>
<text text-anchor="middle" x="848.5" y="-521.5" font-family="Helvetica,sans-Serif" font-size="10.00">Calc::_msg</text>
</a>
</g>
</g>
<!-- Node18&#45;&gt;Node19 -->
<g id="edge19" class="edge">
<title>Node18&#45;&gt;Node19</title>
<path fill="none" stroke="midnightblue" d="M759.23,-524C774.02,-524 789.43,-524 803.16,-524"/>
<polygon fill="midnightblue" stroke="midnightblue" points="803.28,-527.5 813.28,-524 803.28,-520.5 803.28,-527.5"/>
</g>
<!-- Node20 -->
<g id="node20" class="node">
<title>Node20</title>
<g id="a_node20"><a xlink:href="utils_8h.html#aa0a3ba0e1cec6f6b77334767af46eef7" target="_top" xlink:title="Check if the string is an unsigned integer.">
<polygon fill="white" stroke="black" points="826,-476.5 826,-495.5 871,-495.5 871,-476.5 826,-476.5"/>
<text text-anchor="middle" x="848.5" y="-483.5" font-family="Helvetica,sans-Serif" font-size="10.00">isUInt</text>
</a>
</g>
</g>
<!-- Node18&#45;&gt;Node20 -->
<g id="edge22" class="edge">
<title>Node18&#45;&gt;Node20</title>
<path fill="none" stroke="midnightblue" d="M733.48,-514.41C759,-508.05 792.07,-499.81 816.02,-493.85"/>
<polygon fill="midnightblue" stroke="midnightblue" points="817.14,-497.17 825.99,-491.36 815.44,-490.38 817.14,-497.17"/>
</g>
<!-- Node21 -->
<g id="node21" class="node">
<title>Node21</title>
<g id="a_node21"><a xlink:href="class_type___track.html#ab510214767b1b4d71e3beadecb814bb7" target="_top" xlink:title=" ">
<polygon fill="white" stroke="black" points="801,-552.5 801,-571.5 896,-571.5 896,-552.5 801,-552.5"/>
<text text-anchor="middle" x="848.5" y="-559.5" font-family="Helvetica,sans-Serif" font-size="10.00">Type_Track::size</text>
</a>
</g>
</g>
<!-- Node18&#45;&gt;Node21 -->
<g id="edge23" class="edge">
<title>Node18&#45;&gt;Node21</title>
<path fill="none" stroke="midnightblue" d="M733.48,-533.59C753.52,-538.58 778.2,-544.73 799.48,-550.03"/>
<polygon fill="midnightblue" stroke="midnightblue" points="798.74,-553.46 809.29,-552.48 800.44,-546.67 798.74,-553.46"/>
</g>
<!-- Node26&#45;&gt;Node12 -->
<g id="edge30" class="edge">
<title>Node26&#45;&gt;Node12</title>
<path fill="none" stroke="midnightblue" d="M411.09,-57.49C438.62,-63.7 474.26,-71.74 500.67,-77.69"/>
<polygon fill="midnightblue" stroke="midnightblue" points="500.14,-81.16 510.66,-79.95 501.68,-74.33 500.14,-81.16"/>
</g>
<!-- Node31 -->
<g id="node31" class="node">
<title>Node31</title>
<g id="a_node31"><a xlink:href="functions_8h.html#ac9dc58cb94b7547813c3a35154d97d18" target="_top" xlink:title=" ">
<polygon fill="white" stroke="black" points="499,-646.5 499,-665.5 578,-665.5 578,-646.5 499,-646.5"/>
<text text-anchor="middle" x="538.5" y="-653.5" font-family="Helvetica,sans-Serif" font-size="10.00">isFuncNoEnd</text>
</a>
</g>
</g>
<!-- Node30&#45;&gt;Node31 -->
<g id="edge35" class="edge">
<title>Node30&#45;&gt;Node31</title>
<path fill="none" stroke="midnightblue" d="M411.09,-656C434.63,-656 464.08,-656 488.64,-656"/>
<polygon fill="midnightblue" stroke="midnightblue" points="488.83,-659.5 498.83,-656 488.83,-652.5 488.83,-659.5"/>
</g>
<!-- Node31&#45;&gt;Node7 -->
<g id="edge36" class="edge">
<title>Node31&#45;&gt;Node7</title>
<path fill="none" stroke="midnightblue" d="M578.23,-660.79C601.65,-663.69 631.38,-667.37 654.71,-670.26"/>
<polygon fill="midnightblue" stroke="midnightblue" points="654.58,-673.77 664.94,-671.53 655.44,-666.82 654.58,-673.77"/>
</g>
<!-- Node32&#45;&gt;Node9 -->
<g id="edge38" class="edge">
<title>Node32&#45;&gt;Node9</title>
<path fill="none" stroke="midnightblue" d="M743.67,-589.26C764.75,-593.26 789.08,-597.89 808.89,-601.66"/>
<polygon fill="midnightblue" stroke="midnightblue" points="808.32,-605.11 818.8,-603.54 809.63,-598.23 808.32,-605.11"/>
</g>
<!-- Node34 -->
<g id="node34" class="node">
<title>Node34</title>
<g id="a_node34"><a xlink:href="utils_8h.html#aaaee605fe46abaa420448438d89b22ed" target="_top" xlink:title=" ">
<polygon fill="white" stroke="black" points="508.5,-342.5 508.5,-361.5 568.5,-361.5 568.5,-342.5 508.5,-342.5"/>
<text text-anchor="middle" x="538.5" y="-349.5" font-family="Helvetica,sans-Serif" font-size="10.00">isQuoted</text>
</a>
</g>
</g>
<!-- Node33&#45;&gt;Node34 -->
<g id="edge40" class="edge">
<title>Node33&#45;&gt;Node34</title>
<path fill="none" stroke="midnightblue" d="M409.79,-352C436.7,-352 471.76,-352 498.34,-352"/>
<polygon fill="midnightblue" stroke="midnightblue" points="498.43,-355.5 508.43,-352 498.43,-348.5 498.43,-355.5"/>
</g>
<!-- Node37 -->
<g id="node37" class="node">
<title>Node37</title>
<g id="a_node37"><a xlink:href="class_type.html#a5b8adffb334040c53940ecf814ebcc65" target="_top" xlink:title=" ">
<polygon fill="white" stroke="black" points="491,-304.5 491,-323.5 586,-323.5 586,-304.5 491,-304.5"/>
<text text-anchor="middle" x="538.5" y="-311.5" font-family="Helvetica,sans-Serif" font-size="10.00">Type::_getString</text>
</a>
</g>
</g>
<!-- Node36&#45;&gt;Node37 -->
<g id="edge43" class="edge">
<title>Node36&#45;&gt;Node37</title>
<path fill="none" stroke="midnightblue" d="M404.73,-284.06C428.21,-289.35 459.3,-296.36 485.49,-302.27"/>
<polygon fill="midnightblue" stroke="midnightblue" points="484.74,-305.69 495.27,-304.48 486.28,-298.86 484.74,-305.69"/>
</g>
<!-- Node38 -->
<g id="node38" class="node">
<title>Node38</title>
<g id="a_node38"><a xlink:href="class_type.html#a836b463aa4740a234e0d304ed4cd958f" target="_top" xlink:title=" ">
<polygon fill="white" stroke="black" points="489,-266.5 489,-285.5 588,-285.5 588,-266.5 489,-266.5"/>
<text text-anchor="middle" x="538.5" y="-273.5" font-family="Helvetica,sans-Serif" font-size="10.00">Type::isUnknown</text>
</a>
</g>
</g>
<!-- Node36&#45;&gt;Node38 -->
<g id="edge44" class="edge">
<title>Node36&#45;&gt;Node38</title>
<path fill="none" stroke="midnightblue" d="M404.73,-276C426.12,-276 453.83,-276 478.4,-276"/>
<polygon fill="midnightblue" stroke="midnightblue" points="478.71,-279.5 488.71,-276 478.71,-272.5 478.71,-279.5"/>
</g>
<!-- Node41 -->
<g id="node41" class="node">
<title>Node41</title>
<g id="a_node41"><a xlink:href="utils_8h.html#a47084ee818936eef3c48be492c0e860f" target="_top" xlink:title=" ">
<polygon fill="white" stroke="black" points="518.5,-133.5 518.5,-152.5 558.5,-152.5 558.5,-133.5 518.5,-133.5"/>
<text text-anchor="middle" x="538.5" y="-140.5" font-family="Helvetica,sans-Serif" font-size="10.00">ltrim</text>
</a>
</g>
</g>
<!-- Node40&#45;&gt;Node41 -->
<g id="edge47" class="edge">
<title>Node40&#45;&gt;Node41</title>
<path fill="none" stroke="midnightblue" d="M386.71,-160C415.66,-156.74 473.37,-150.23 508.4,-146.28"/>
<polygon fill="midnightblue" stroke="midnightblue" points="508.94,-149.74 518.48,-145.14 508.16,-142.79 508.94,-149.74"/>
</g>
<!-- Node42 -->
<g id="node42" class="node">
<title>Node42</title>
<g id="a_node42"><a xlink:href="utils_8h.html#af6d6bd5c29782e3b958b5f7c0d1ea9e3" target="_top" xlink:title=" ">
<polygon fill="white" stroke="black" points="518,-171.5 518,-190.5 559,-190.5 559,-171.5 518,-171.5"/>
<text text-anchor="middle" x="538.5" y="-178.5" font-family="Helvetica,sans-Serif" font-size="10.00">rtrim</text>
</a>
</g>
</g>
<!-- Node40&#45;&gt;Node42 -->
<g id="edge48" class="edge">
<title>Node40&#45;&gt;Node42</title>
<path fill="none" stroke="midnightblue" d="M386.71,-164C415.51,-167.24 472.76,-173.7 507.84,-177.66"/>
<polygon fill="midnightblue" stroke="midnightblue" points="507.63,-181.15 517.96,-178.8 508.42,-174.2 507.63,-181.15"/>
</g>
</g>
</svg>
