<?xml version="1.0" encoding="UTF-8" standalone="no"?>
<!DOCTYPE svg PUBLIC "-//W3C//DTD SVG 1.1//EN"
 "http://www.w3.org/Graphics/SVG/1.1/DTD/svg11.dtd">
<!-- Generated by graphviz version 2.43.0 (0)
 -->
<!-- Title: Log::err Pages: 1 -->
<svg width="1445pt" height="938pt"
 viewBox="0.00 0.00 1445.00 937.55" xmlns="http://www.w3.org/2000/svg" xmlns:xlink="http://www.w3.org/1999/xlink">
<g id="graph0" class="graph" transform="scale(1 1) rotate(0) translate(4 933.55)">
<title>Log::err</title>
<polygon fill="white" stroke="transparent" points="-4,4 -4,-933.55 1441,-933.55 1441,4 -4,4"/>
<!-- Node1 -->
<g id="node1" class="node">
<title>Node1</title>
<g id="a_node1"><a xlink:title="Write error message to the log file.">
<polygon fill="#bfbfbf" stroke="black" points="1384,-494.5 1384,-513.5 1437,-513.5 1437,-494.5 1384,-494.5"/>
<text text-anchor="middle" x="1410.5" y="-501.5" font-family="Helvetica,sans-Serif" font-size="10.00">Log::err</text>
</a>
</g>
</g>
<!-- Node2 -->
<g id="node2" class="node">
<title>Node2</title>
<g id="a_node2"><a xlink:href="class_export.html#a89d3ae54dd2261cf35be148011b79fe4" target="_top" xlink:title=" ">
<polygon fill="white" stroke="black" points="316.5,-760.5 316.5,-779.5 428.5,-779.5 428.5,-760.5 316.5,-760.5"/>
<text text-anchor="middle" x="372.5" y="-767.5" font-family="Helvetica,sans-Serif" font-size="10.00">Export::_algorithms</text>
</a>
</g>
</g>
<!-- Node1&#45;&gt;Node2 -->
<g id="edge1" class="edge">
<title>Node1&#45;&gt;Node2</title>
<path fill="none" stroke="midnightblue" d="M1409.01,-523.79C1406.91,-592.37 1396.38,-818.29 1348,-868 1261.44,-956.95 1198.12,-922 1074,-922 1074,-922 1074,-922 723.5,-922 579.74,-922 428.22,-812.78 385.38,-779.51"/>
<polygon fill="midnightblue" stroke="midnightblue" points="1412.52,-523.63 1409.3,-513.54 1405.52,-523.44 1412.52,-523.63"/>
</g>
<!-- Node5 -->
<g id="node5" class="node">
<title>Node5</title>
<g id="a_node5"><a xlink:href="src_2main_8cpp.html#a0ddf1224851353fc92bfbff6f499fa97" target="_top" xlink:title=" ">
<polygon fill="white" stroke="black" points="34.5,-310.5 34.5,-329.5 75.5,-329.5 75.5,-310.5 34.5,-310.5"/>
<text text-anchor="middle" x="55" y="-317.5" font-family="Helvetica,sans-Serif" font-size="10.00">main</text>
</a>
</g>
</g>
<!-- Node1&#45;&gt;Node5 -->
<g id="edge41" class="edge">
<title>Node1&#45;&gt;Node5</title>
<path fill="none" stroke="midnightblue" d="M1407.52,-484.13C1401.76,-430.8 1383.17,-286.5 1348,-257 1301.24,-217.77 1135.04,-238 1074,-238 1074,-238 1074,-238 371.5,-238 269.55,-238 243.36,-249.76 146,-280 120.2,-288.01 91.96,-301.37 74.13,-310.43"/>
<polygon fill="midnightblue" stroke="midnightblue" points="1404.06,-484.74 1408.58,-494.32 1411.02,-484.01 1404.06,-484.74"/>
</g>
<!-- Node6 -->
<g id="node6" class="node">
<title>Node6</title>
<g id="a_node6"><a xlink:href="class_calc.html#ad562619fef96a73cd3b4c27b35bc5f91" target="_top" xlink:title=" ">
<polygon fill="white" stroke="black" points="1200.5,-732.5 1200.5,-751.5 1330.5,-751.5 1330.5,-732.5 1200.5,-732.5"/>
<text text-anchor="middle" x="1265.5" y="-739.5" font-family="Helvetica,sans-Serif" font-size="10.00">Calc::_changeSubScript</text>
</a>
</g>
</g>
<!-- Node1&#45;&gt;Node6 -->
<g id="edge5" class="edge">
<title>Node1&#45;&gt;Node6</title>
<path fill="none" stroke="midnightblue" d="M1408.93,-523.99C1406.73,-563.94 1396.38,-654.4 1348,-708 1337.52,-719.61 1322.46,-727.36 1308.12,-732.49"/>
<polygon fill="midnightblue" stroke="midnightblue" points="1412.43,-524.07 1409.36,-513.93 1405.43,-523.77 1412.43,-524.07"/>
</g>
<!-- Node10 -->
<g id="node10" class="node">
<title>Node10</title>
<g id="a_node10"><a xlink:href="class_alg.html#ada1e8215f047b4ffd736e811b5ea3162" target="_top" xlink:title=" ">
<polygon fill="white" stroke="black" points="693,-741.5 693,-760.5 756,-760.5 756,-741.5 693,-741.5"/>
<text text-anchor="middle" x="724.5" y="-748.5" font-family="Helvetica,sans-Serif" font-size="10.00">Alg::write</text>
</a>
</g>
</g>
<!-- Node1&#45;&gt;Node10 -->
<g id="edge53" class="edge">
<title>Node1&#45;&gt;Node10</title>
<path fill="none" stroke="midnightblue" d="M1407.94,-524.08C1403.05,-581.49 1386.03,-744.46 1348,-779 1264.72,-854.65 951.96,-858.65 844,-827 799.2,-813.87 755.29,-778.03 735.88,-760.67"/>
<polygon fill="midnightblue" stroke="midnightblue" points="1411.46,-524.04 1408.78,-513.79 1404.48,-523.47 1411.46,-524.04"/>
</g>
<!-- Node11 -->
<g id="node11" class="node">
<title>Node11</title>
<g id="a_node11"><a xlink:href="class_export.html#ae4811e1e4212029122c0ee29613714cc" target="_top" xlink:title=" ">
<polygon fill="white" stroke="black" points="491,-760.5 491,-779.5 603,-779.5 603,-760.5 491,-760.5"/>
<text text-anchor="middle" x="547" y="-767.5" font-family="Helvetica,sans-Serif" font-size="10.00">Export::_estimation</text>
</a>
</g>
</g>
<!-- Node1&#45;&gt;Node11 -->
<g id="edge26" class="edge">
<title>Node1&#45;&gt;Node11</title>
<path fill="none" stroke="midnightblue" d="M1408.43,-523.58C1404.61,-585.87 1389.62,-777.92 1348,-821 1261.17,-910.86 1198.96,-884 1074,-884 1074,-884 1074,-884 902.5,-884 766.41,-884 614.44,-806.92 564.72,-779.52"/>
<polygon fill="midnightblue" stroke="midnightblue" points="1411.92,-523.71 1409.01,-513.52 1404.94,-523.3 1411.92,-523.71"/>
</g>
<!-- Node13 -->
<g id="node13" class="node">
<title>Node13</title>
<g id="a_node13"><a xlink:href="class_export.html#a59ba705b2369f21006ec7d7b7f3a4513" target="_top" xlink:title="Generate RIS reflection matrices.">
<polygon fill="white" stroke="black" points="489,-646.5 489,-665.5 605,-665.5 605,-646.5 489,-646.5"/>
<text text-anchor="middle" x="547" y="-653.5" font-family="Helvetica,sans-Serif" font-size="10.00">Export::_generateBF</text>
</a>
</g>
</g>
<!-- Node1&#45;&gt;Node13 -->
<g id="edge27" class="edge">
<title>Node1&#45;&gt;Node13</title>
<path fill="none" stroke="midnightblue" d="M1406.67,-524C1401.23,-554.18 1386.26,-610.63 1348,-637 1297.74,-671.64 1135.04,-656 1074,-656 1074,-656 1074,-656 902.5,-656 797.57,-656 675.16,-656 605.1,-656"/>
<polygon fill="midnightblue" stroke="midnightblue" points="1410.17,-524.27 1408.32,-513.84 1403.26,-523.15 1410.17,-524.27"/>
</g>
<!-- Node15 -->
<g id="node15" class="node">
<title>Node15</title>
<g id="a_node15"><a xlink:href="class_export.html#a966a54f05ada435d6d1ce6e4a9750f41" target="_top" xlink:title=" ">
<polygon fill="white" stroke="black" points="641,-684.5 641,-703.5 808,-703.5 808,-684.5 641,-684.5"/>
<text text-anchor="middle" x="724.5" y="-691.5" font-family="Helvetica,sans-Serif" font-size="10.00">Export::_checkALGdependency</text>
</a>
</g>
</g>
<!-- Node1&#45;&gt;Node15 -->
<g id="edge22" class="edge">
<title>Node1&#45;&gt;Node15</title>
<path fill="none" stroke="midnightblue" d="M1408.82,-523.84C1406.4,-559.86 1395.6,-635.49 1348,-670 1264.16,-730.78 957.42,-714.06 808.17,-701.77"/>
<polygon fill="midnightblue" stroke="midnightblue" points="1412.33,-523.8 1409.35,-513.64 1405.34,-523.44 1412.33,-523.8"/>
</g>
<!-- Node17 -->
<g id="node17" class="node">
<title>Node17</title>
<g id="a_node17"><a xlink:href="class_export.html#ad7268f886ac4826f4b6ea738e423e520" target="_top" xlink:title=" ">
<polygon fill="white" stroke="black" points="999,-532.5 999,-551.5 1147,-551.5 1147,-532.5 999,-532.5"/>
<text text-anchor="middle" x="1073" y="-539.5" font-family="Helvetica,sans-Serif" font-size="10.00">Export::_generateChannels</text>
</a>
</g>
</g>
<!-- Node1&#45;&gt;Node17 -->
<g id="edge28" class="edge">
<title>Node1&#45;&gt;Node17</title>
<path fill="none" stroke="midnightblue" d="M1374.19,-516.43C1365.7,-518.99 1356.61,-521.39 1348,-523 1280.73,-535.55 1202.79,-540 1147.27,-541.49"/>
<polygon fill="midnightblue" stroke="midnightblue" points="1375.32,-519.74 1383.8,-513.39 1373.21,-513.07 1375.32,-519.74"/>
</g>
<!-- Node18 -->
<g id="node18" class="node">
<title>Node18</title>
<g id="a_node18"><a xlink:href="class_config.html#a2f8720e9953fb42b8304089c40fe896e" target="_top" xlink:title=" ">
<polygon fill="white" stroke="black" points="1225.5,-608.5 1225.5,-627.5 1305.5,-627.5 1305.5,-608.5 1225.5,-608.5"/>
<text text-anchor="middle" x="1265.5" y="-615.5" font-family="Helvetica,sans-Serif" font-size="10.00">Config::_load</text>
</a>
</g>
</g>
<!-- Node1&#45;&gt;Node18 -->
<g id="edge30" class="edge">
<title>Node1&#45;&gt;Node18</title>
<path fill="none" stroke="midnightblue" d="M1402.34,-523.06C1393.15,-544.86 1375.07,-579.97 1348,-599 1335.64,-607.69 1319.87,-612.45 1305.5,-615.05"/>
<polygon fill="midnightblue" stroke="midnightblue" points="1405.68,-524.14 1406.14,-513.56 1399.18,-521.54 1405.68,-524.14"/>
</g>
<!-- Node20 -->
<g id="node20" class="node">
<title>Node20</title>
<g id="a_node20"><a xlink:href="class_alg___line.html#a0047f4df72a2d10ebb74701c3d05bafc" target="_top" xlink:title="Process function name and parameter variables.">
<polygon fill="white" stroke="black" points="1183,-380.5 1183,-399.5 1348,-399.5 1348,-380.5 1183,-380.5"/>
<text text-anchor="middle" x="1265.5" y="-387.5" font-family="Helvetica,sans-Serif" font-size="10.00">Alg_Line::_processFuncParams</text>
</a>
</g>
</g>
<!-- Node1&#45;&gt;Node20 -->
<g id="edge32" class="edge">
<title>Node1&#45;&gt;Node20</title>
<path fill="none" stroke="midnightblue" d="M1401.3,-484.97C1391.52,-464.49 1373.27,-432.38 1348,-414 1339.29,-407.67 1328.92,-402.99 1318.55,-399.55"/>
<polygon fill="midnightblue" stroke="midnightblue" points="1398.19,-486.59 1405.53,-494.23 1404.56,-483.68 1398.19,-486.59"/>
</g>
<!-- Node21 -->
<g id="node21" class="node">
<title>Node21</title>
<g id="a_node21"><a xlink:href="class_alg___line.html#a4f478c53dbfaecf16d55be668d959562" target="_top" xlink:title="Construct a new Alg_Line object. Process string at the same time.">
<polygon fill="white" stroke="black" points="1020.5,-385.5 1020.5,-404.5 1125.5,-404.5 1125.5,-385.5 1020.5,-385.5"/>
<text text-anchor="middle" x="1073" y="-392.5" font-family="Helvetica,sans-Serif" font-size="10.00">Alg_Line::Alg_Line</text>
</a>
</g>
</g>
<!-- Node1&#45;&gt;Node21 -->
<g id="edge34" class="edge">
<title>Node1&#45;&gt;Node21</title>
<path fill="none" stroke="midnightblue" d="M1395.32,-486.34C1383.92,-473.39 1366.76,-456.47 1348,-447 1309.8,-427.72 1193.74,-410.27 1125.54,-401.32"/>
<polygon fill="midnightblue" stroke="midnightblue" points="1392.81,-488.79 1401.94,-494.16 1398.15,-484.27 1392.81,-488.79"/>
</g>
<!-- Node22 -->
<g id="node22" class="node">
<title>Node22</title>
<g id="a_node22"><a xlink:href="class_channel___graph.html#ac8aeff35f809d61816b2e1fadde523bf" target="_top" xlink:title=" ">
<polygon fill="white" stroke="black" points="1198.5,-570.5 1198.5,-589.5 1332.5,-589.5 1332.5,-570.5 1198.5,-570.5"/>
<text text-anchor="middle" x="1265.5" y="-577.5" font-family="Helvetica,sans-Serif" font-size="10.00">Channel_Graph::arrange</text>
</a>
</g>
</g>
<!-- Node1&#45;&gt;Node22 -->
<g id="edge35" class="edge">
<title>Node1&#45;&gt;Node22</title>
<path fill="none" stroke="midnightblue" d="M1393.21,-521.1C1381.56,-532.43 1365,-546.84 1348,-556 1336.7,-562.09 1323.67,-566.81 1311.39,-570.39"/>
<polygon fill="midnightblue" stroke="midnightblue" points="1395.85,-523.4 1400.43,-513.85 1390.89,-518.46 1395.85,-523.4"/>
</g>
<!-- Node24 -->
<g id="node24" class="node">
<title>Node24</title>
<g id="a_node24"><a xlink:href="error__code_8h.html#a9c6b4516abc67a835f41887633fe69e1" target="_top" xlink:title="Print error message and exit with exit code.">
<polygon fill="white" stroke="black" points="1236,-494.5 1236,-513.5 1295,-513.5 1295,-494.5 1236,-494.5"/>
<text text-anchor="middle" x="1265.5" y="-501.5" font-family="Helvetica,sans-Serif" font-size="10.00">errorExit</text>
</a>
</g>
</g>
<!-- Node1&#45;&gt;Node24 -->
<g id="edge38" class="edge">
<title>Node1&#45;&gt;Node24</title>
<path fill="none" stroke="midnightblue" d="M1373.68,-504C1349.36,-504 1317.64,-504 1295.03,-504"/>
<polygon fill="midnightblue" stroke="midnightblue" points="1373.93,-507.5 1383.93,-504 1373.93,-500.5 1373.93,-507.5"/>
</g>
<!-- Node25 -->
<g id="node25" class="node">
<title>Node25</title>
<g id="a_node25"><a xlink:href="class_type___track.html#af8662cb8617cd3a968d9aaebbd24cd82" target="_top" xlink:title=" ">
<polygon fill="white" stroke="black" points="1203,-342.5 1203,-361.5 1328,-361.5 1328,-342.5 1203,-342.5"/>
<text text-anchor="middle" x="1265.5" y="-349.5" font-family="Helvetica,sans-Serif" font-size="10.00">Type_Track::operator&#45;&#45;</text>
</a>
</g>
</g>
<!-- Node1&#45;&gt;Node25 -->
<g id="edge42" class="edge">
<title>Node1&#45;&gt;Node25</title>
<path fill="none" stroke="midnightblue" d="M1406.03,-484.31C1399.8,-454.99 1383.86,-400.2 1348,-371 1342.14,-366.23 1335.3,-362.61 1328.12,-359.88"/>
<polygon fill="midnightblue" stroke="midnightblue" points="1402.61,-485.05 1407.97,-494.19 1409.48,-483.7 1402.61,-485.05"/>
</g>
<!-- Node26 -->
<g id="node26" class="node">
<title>Node26</title>
<g id="a_node26"><a xlink:href="class_config.html#a33247625b70e062fbd93ba91ae0c7d76" target="_top" xlink:title="Read the key.">
<polygon fill="white" stroke="black" points="1214.5,-304.5 1214.5,-323.5 1316.5,-323.5 1316.5,-304.5 1214.5,-304.5"/>
<text text-anchor="middle" x="1265.5" y="-311.5" font-family="Helvetica,sans-Serif" font-size="10.00">Config::operator[]</text>
</a>
</g>
</g>
<!-- Node1&#45;&gt;Node26 -->
<g id="edge43" class="edge">
<title>Node1&#45;&gt;Node26</title>
<path fill="none" stroke="midnightblue" d="M1408.29,-483.93C1405.02,-448.05 1392.87,-372.94 1348,-333 1339.32,-325.27 1328.1,-320.52 1316.79,-317.64"/>
<polygon fill="midnightblue" stroke="midnightblue" points="1404.82,-484.41 1409.08,-494.11 1411.8,-483.87 1404.82,-484.41"/>
</g>
<!-- Node27 -->
<g id="node27" class="node">
<title>Node27</title>
<g id="a_node27"><a xlink:href="class_config.html#a568ec68975e8e9338356619ebfb6a4f8" target="_top" xlink:title="Set the key value.">
<polygon fill="white" stroke="black" points="1231.5,-456.5 1231.5,-475.5 1299.5,-475.5 1299.5,-456.5 1231.5,-456.5"/>
<text text-anchor="middle" x="1265.5" y="-463.5" font-family="Helvetica,sans-Serif" font-size="10.00">Config::set</text>
</a>
</g>
</g>
<!-- Node1&#45;&gt;Node27 -->
<g id="edge44" class="edge">
<title>Node1&#45;&gt;Node27</title>
<path fill="none" stroke="midnightblue" d="M1374.2,-492.63C1365.65,-490 1356.53,-487.31 1348,-485 1332.15,-480.71 1314.42,-476.51 1299.55,-473.15"/>
<polygon fill="midnightblue" stroke="midnightblue" points="1373.3,-496.01 1383.88,-495.64 1375.38,-489.33 1373.3,-496.01"/>
</g>
<!-- Node29 -->
<g id="node29" class="node">
<title>Node29</title>
<g id="a_node29"><a xlink:href="class_simulate.html#a03ef6895241e8accb07491e98bbfcf0c" target="_top" xlink:title=" ">
<polygon fill="white" stroke="black" points="1211,-266.5 1211,-285.5 1320,-285.5 1320,-266.5 1211,-266.5"/>
<text text-anchor="middle" x="1265.5" y="-273.5" font-family="Helvetica,sans-Serif" font-size="10.00">Simulate::simulate</text>
</a>
</g>
</g>
<!-- Node1&#45;&gt;Node29 -->
<g id="edge47" class="edge">
<title>Node1&#45;&gt;Node29</title>
<path fill="none" stroke="midnightblue" d="M1409.84,-484.24C1409.42,-442.77 1402.29,-346.27 1348,-295 1340.29,-287.72 1330.35,-283.04 1320.08,-280.08"/>
<polygon fill="midnightblue" stroke="midnightblue" points="1406.34,-484.39 1409.82,-494.4 1413.34,-484.4 1406.34,-484.39"/>
</g>
<!-- Node31 -->
<g id="node31" class="node">
<title>Node31</title>
<g id="a_node31"><a xlink:href="class_style.html#a06fd4016b36d2fa2e46c8c092701c7ea" target="_top" xlink:title="Call the astyle child process to style the generated C++ code.">
<polygon fill="white" stroke="black" points="1230,-190.5 1230,-209.5 1301,-209.5 1301,-190.5 1230,-190.5"/>
<text text-anchor="middle" x="1265.5" y="-197.5" font-family="Helvetica,sans-Serif" font-size="10.00">Style::style</text>
</a>
</g>
</g>
<!-- Node1&#45;&gt;Node31 -->
<g id="edge50" class="edge">
<title>Node1&#45;&gt;Node31</title>
<path fill="none" stroke="midnightblue" d="M1407.75,-484.24C1402.28,-426.93 1383.72,-262.32 1348,-224 1336.03,-211.16 1317.58,-205.07 1301.26,-202.23"/>
<polygon fill="midnightblue" stroke="midnightblue" points="1404.29,-484.84 1408.69,-494.48 1411.26,-484.2 1404.29,-484.84"/>
</g>
<!-- Node33 -->
<g id="node33" class="node">
<title>Node33</title>
<g id="a_node33"><a xlink:href="struct_x_y___size.html#a4a5192df22d9d6bc1793eabc6ae1ffa0" target="_top" xlink:title=" ">
<polygon fill="white" stroke="black" points="1229,-76.5 1229,-95.5 1302,-95.5 1302,-76.5 1229,-76.5"/>
<text text-anchor="middle" x="1265.5" y="-83.5" font-family="Helvetica,sans-Serif" font-size="10.00">XY_Size::xy</text>
</a>
</g>
</g>
<!-- Node1&#45;&gt;Node33 -->
<g id="edge54" class="edge">
<title>Node1&#45;&gt;Node33</title>
<path fill="none" stroke="midnightblue" d="M1409.22,-484.27C1407.78,-432.09 1399.1,-287.16 1348,-181 1330.56,-144.78 1295.77,-111.29 1277.81,-95.51"/>
<polygon fill="midnightblue" stroke="midnightblue" points="1405.73,-484.54 1409.44,-494.46 1412.73,-484.39 1405.73,-484.54"/>
</g>
<!-- Node3 -->
<g id="node3" class="node">
<title>Node3</title>
<g id="a_node3"><a xlink:href="class_export.html#affc37d1d677a83d3e5d36a4e37b7a72b" target="_top" xlink:title=" ">
<polygon fill="white" stroke="black" points="146,-589.5 146,-608.5 256,-608.5 256,-589.5 146,-589.5"/>
<text text-anchor="middle" x="201" y="-596.5" font-family="Helvetica,sans-Serif" font-size="10.00">Export::exportCode</text>
</a>
</g>
</g>
<!-- Node2&#45;&gt;Node3 -->
<g id="edge2" class="edge">
<title>Node2&#45;&gt;Node3</title>
<path fill="none" stroke="midnightblue" d="M347.04,-755.04C330.58,-744.38 308.89,-729.13 292,-713 255.89,-678.52 221.8,-629.18 208.21,-608.59"/>
<polygon fill="midnightblue" stroke="midnightblue" points="345.26,-758.06 355.57,-760.47 349.01,-752.15 345.26,-758.06"/>
</g>
<!-- Node4 -->
<g id="node4" class="node">
<title>Node4</title>
<g id="a_node4"><a xlink:href="class_export.html#a94fab568af6ddd6447efca74e205e081" target="_top" xlink:title=" ">
<polygon fill="white" stroke="black" points="0,-589.5 0,-608.5 110,-608.5 110,-589.5 0,-589.5"/>
<text text-anchor="middle" x="55" y="-596.5" font-family="Helvetica,sans-Serif" font-size="10.00">Export::exportCode</text>
</a>
</g>
</g>
<!-- Node3&#45;&gt;Node4 -->
<g id="edge3" class="edge">
<title>Node3&#45;&gt;Node4</title>
<path fill="none" stroke="midnightblue" d="M135.73,-599C127.25,-599 118.62,-599 110.33,-599"/>
<polygon fill="midnightblue" stroke="midnightblue" points="135.97,-602.5 145.97,-599 135.97,-595.5 135.97,-602.5"/>
</g>
<!-- Node3&#45;&gt;Node5 -->
<g id="edge4" class="edge">
<title>Node3&#45;&gt;Node5</title>
<path fill="none" stroke="midnightblue" d="M188.26,-580.61C176.94,-562.63 159.59,-534.33 146,-509 109.92,-441.75 72.47,-357.65 60.18,-329.6"/>
<polygon fill="midnightblue" stroke="midnightblue" points="185.55,-582.88 193.86,-589.45 191.46,-579.13 185.55,-582.88"/>
</g>
<!-- Node6&#45;&gt;Node6 -->
<g id="edge6" class="edge">
<title>Node6&#45;&gt;Node6</title>
<path fill="none" stroke="midnightblue" d="M1292.38,-760.65C1291.26,-765.94 1282.3,-770 1265.5,-770 1239.91,-770 1232.51,-760.57 1243.31,-751.76"/>
<polygon fill="midnightblue" stroke="midnightblue" points="1295.45,-758.97 1287.69,-751.76 1289.26,-762.24 1295.45,-758.97"/>
</g>
<!-- Node7 -->
<g id="node7" class="node">
<title>Node7</title>
<g id="a_node7"><a xlink:href="class_calc.html#ad6dbdfdd4bd21322e5836ff72c11ae1b" target="_top" xlink:title="Convert the Alg CALC contents into a language command.">
<polygon fill="white" stroke="black" points="1045.5,-751.5 1045.5,-770.5 1100.5,-770.5 1100.5,-751.5 1045.5,-751.5"/>
<text text-anchor="middle" x="1073" y="-758.5" font-family="Helvetica,sans-Serif" font-size="10.00">Calc::as</text>
</a>
</g>
</g>
<!-- Node6&#45;&gt;Node7 -->
<g id="edge7" class="edge">
<title>Node6&#45;&gt;Node7</title>
<path fill="none" stroke="midnightblue" d="M1190.18,-749.41C1158.71,-752.55 1124.03,-756.01 1100.83,-758.32"/>
<polygon fill="midnightblue" stroke="midnightblue" points="1190.67,-752.88 1200.27,-748.41 1189.97,-745.92 1190.67,-752.88"/>
</g>
<!-- Node8 -->
<g id="node8" class="node">
<title>Node8</title>
<g id="a_node8"><a xlink:href="class_calc.html#ad26b51e3caa182fb7cb4d8e5c03ca8b1" target="_top" xlink:title=" ">
<polygon fill="white" stroke="black" points="876,-798.5 876,-817.5 931,-817.5 931,-798.5 876,-798.5"/>
<text text-anchor="middle" x="903.5" y="-805.5" font-family="Helvetica,sans-Serif" font-size="10.00">Calc::as</text>
</a>
</g>
</g>
<!-- Node7&#45;&gt;Node8 -->
<g id="edge8" class="edge">
<title>Node7&#45;&gt;Node8</title>
<path fill="none" stroke="midnightblue" d="M1035.75,-771.17C1004.29,-780 959.47,-792.58 931.19,-800.51"/>
<polygon fill="midnightblue" stroke="midnightblue" points="1036.78,-774.52 1045.46,-768.45 1034.89,-767.78 1036.78,-774.52"/>
</g>
<!-- Node9 -->
<g id="node9" class="node">
<title>Node9</title>
<g id="a_node9"><a xlink:href="class_alg.html#a3ee7f9963027158b3fbd442d97800111" target="_top" xlink:title=" ">
<polygon fill="white" stroke="black" points="860.5,-760.5 860.5,-779.5 946.5,-779.5 946.5,-760.5 860.5,-760.5"/>
<text text-anchor="middle" x="903.5" y="-767.5" font-family="Helvetica,sans-Serif" font-size="10.00">Alg::inlineCalc</text>
</a>
</g>
</g>
<!-- Node7&#45;&gt;Node9 -->
<g id="edge9" class="edge">
<title>Node7&#45;&gt;Node9</title>
<path fill="none" stroke="midnightblue" d="M1035.2,-762.98C1009.04,-764.38 973.85,-766.27 946.58,-767.74"/>
<polygon fill="midnightblue" stroke="midnightblue" points="1035.66,-766.46 1045.46,-762.43 1035.29,-759.47 1035.66,-766.46"/>
</g>
<!-- Node7&#45;&gt;Node10 -->
<g id="edge21" class="edge">
<title>Node7&#45;&gt;Node10</title>
<path fill="none" stroke="midnightblue" d="M1035.03,-756.76C1013.96,-754.56 987.03,-752.1 963,-751 888.86,-747.61 801.56,-748.98 756.26,-750.1"/>
<polygon fill="midnightblue" stroke="midnightblue" points="1034.85,-760.26 1045.17,-757.85 1035.6,-753.3 1034.85,-760.26"/>
</g>
<!-- Node9&#45;&gt;Node10 -->
<g id="edge10" class="edge">
<title>Node9&#45;&gt;Node10</title>
<path fill="none" stroke="midnightblue" d="M850.03,-764.37C819.47,-761.09 782,-757.06 756.19,-754.29"/>
<polygon fill="midnightblue" stroke="midnightblue" points="849.79,-767.86 860.1,-765.45 850.53,-760.9 849.79,-767.86"/>
</g>
<!-- Node10&#45;&gt;Node2 -->
<g id="edge11" class="edge">
<title>Node10&#45;&gt;Node2</title>
<path fill="none" stroke="midnightblue" d="M691.4,-764.29C667.93,-773.26 635.07,-784.3 605,-789 539.66,-799.22 463.03,-788.55 416.39,-779.56"/>
<polygon fill="midnightblue" stroke="midnightblue" points="692.81,-767.5 700.85,-760.59 690.27,-760.98 692.81,-767.5"/>
</g>
<!-- Node10&#45;&gt;Node10 -->
<g id="edge20" class="edge">
<title>Node10&#45;&gt;Node10</title>
<path fill="none" stroke="midnightblue" d="M757.48,-768.89C757,-774.54 746.01,-779 724.5,-779 693.22,-779 684.18,-769.57 697.37,-760.76"/>
<polygon fill="midnightblue" stroke="midnightblue" points="760.31,-766.83 751.63,-760.76 754.63,-770.92 760.31,-766.83"/>
</g>
<!-- Node10&#45;&gt;Node11 -->
<g id="edge12" class="edge">
<title>Node10&#45;&gt;Node11</title>
<path fill="none" stroke="midnightblue" d="M682.86,-755.4C659.13,-757.97 628.86,-761.25 603.02,-764.04"/>
<polygon fill="midnightblue" stroke="midnightblue" points="683.37,-758.87 692.93,-754.31 682.61,-751.91 683.37,-758.87"/>
</g>
<!-- Node12 -->
<g id="node12" class="node">
<title>Node12</title>
<g id="a_node12"><a xlink:href="class_export.html#a26fa49d9882a342d011ba715e0c14109" target="_top" xlink:title=" ">
<polygon fill="white" stroke="black" points="320.5,-684.5 320.5,-703.5 424.5,-703.5 424.5,-684.5 320.5,-684.5"/>
<text text-anchor="middle" x="372.5" y="-691.5" font-family="Helvetica,sans-Serif" font-size="10.00">Export::_sounding</text>
</a>
</g>
</g>
<!-- Node10&#45;&gt;Node12 -->
<g id="edge19" class="edge">
<title>Node10&#45;&gt;Node12</title>
<path fill="none" stroke="midnightblue" d="M682.72,-744.42C635.94,-736.87 556.93,-724.09 489,-713 467.94,-709.56 444.73,-705.75 424.67,-702.44"/>
<polygon fill="midnightblue" stroke="midnightblue" points="682.34,-747.91 692.77,-746.04 683.45,-740.99 682.34,-747.91"/>
</g>
<!-- Node10&#45;&gt;Node13 -->
<g id="edge15" class="edge">
<title>Node10&#45;&gt;Node13</title>
<path fill="none" stroke="midnightblue" d="M686.65,-737.58C671.77,-731.28 654.88,-722.95 641,-713 622.09,-699.44 624.62,-687.5 605,-675 599.02,-671.19 592.19,-668.06 585.39,-665.53"/>
<polygon fill="midnightblue" stroke="midnightblue" points="685.51,-740.89 696.09,-741.43 688.15,-734.41 685.51,-740.89"/>
</g>
<!-- Node14 -->
<g id="node14" class="node">
<title>Node14</title>
<g id="a_node14"><a xlink:href="class_export.html#a833aa02973f6b5c1f3e536e8646cf1ac" target="_top" xlink:title=" ">
<polygon fill="white" stroke="black" points="497,-684.5 497,-703.5 597,-703.5 597,-684.5 497,-684.5"/>
<text text-anchor="middle" x="547" y="-691.5" font-family="Helvetica,sans-Serif" font-size="10.00">Export::_loadALG</text>
</a>
</g>
</g>
<!-- Node10&#45;&gt;Node14 -->
<g id="edge17" class="edge">
<title>Node10&#45;&gt;Node14</title>
<path fill="none" stroke="midnightblue" d="M684.53,-738.34C652.18,-727.84 606.86,-713.12 577.47,-703.57"/>
<polygon fill="midnightblue" stroke="midnightblue" points="683.53,-741.7 694.13,-741.46 685.7,-735.04 683.53,-741.7"/>
</g>
<!-- Node11&#45;&gt;Node12 -->
<g id="edge13" class="edge">
<title>Node11&#45;&gt;Node12</title>
<path fill="none" stroke="midnightblue" d="M513.49,-756.47C505.47,-753.09 496.91,-749.44 489,-746 455.73,-731.51 417.37,-714.1 394.3,-703.55"/>
<polygon fill="midnightblue" stroke="midnightblue" points="512.35,-759.79 522.93,-760.44 515.06,-753.34 512.35,-759.79"/>
</g>
<!-- Node12&#45;&gt;Node3 -->
<g id="edge14" class="edge">
<title>Node12&#45;&gt;Node3</title>
<path fill="none" stroke="midnightblue" d="M345.58,-679.47C310.46,-659.79 248.73,-625.19 218.98,-608.52"/>
<polygon fill="midnightblue" stroke="midnightblue" points="343.88,-682.53 354.31,-684.37 347.3,-676.43 343.88,-682.53"/>
</g>
<!-- Node13&#45;&gt;Node12 -->
<g id="edge16" class="edge">
<title>Node13&#45;&gt;Node12</title>
<path fill="none" stroke="midnightblue" d="M492.65,-667.75C468.26,-673.13 439.74,-679.41 416.72,-684.48"/>
<polygon fill="midnightblue" stroke="midnightblue" points="493.46,-671.16 502.47,-665.59 491.95,-664.32 493.46,-671.16"/>
</g>
<!-- Node14&#45;&gt;Node2 -->
<g id="edge18" class="edge">
<title>Node14&#45;&gt;Node2</title>
<path fill="none" stroke="midnightblue" d="M514.98,-707.67C480.41,-722.9 425.4,-747.13 395.17,-760.45"/>
<polygon fill="midnightblue" stroke="midnightblue" points="516.41,-710.86 524.15,-703.63 513.59,-704.45 516.41,-710.86"/>
</g>
<!-- Node15&#45;&gt;Node14 -->
<g id="edge23" class="edge">
<title>Node15&#45;&gt;Node14</title>
<path fill="none" stroke="midnightblue" d="M630.73,-694C619.17,-694 607.74,-694 597.22,-694"/>
<polygon fill="midnightblue" stroke="midnightblue" points="630.89,-697.5 640.89,-694 630.89,-690.5 630.89,-697.5"/>
</g>
<!-- Node16 -->
<g id="node16" class="node">
<title>Node16</title>
<g id="a_node16"><a xlink:href="class_export.html#af64597af0c0b4cf569f96216bcd23b2c" target="_top" xlink:title=" ">
<polygon fill="white" stroke="black" points="320.5,-608.5 320.5,-627.5 424.5,-627.5 424.5,-608.5 320.5,-608.5"/>
<text text-anchor="middle" x="372.5" y="-615.5" font-family="Helvetica,sans-Serif" font-size="10.00">Export::_reporting</text>
</a>
</g>
</g>
<!-- Node15&#45;&gt;Node16 -->
<g id="edge24" class="edge">
<title>Node15&#45;&gt;Node16</title>
<path fill="none" stroke="midnightblue" d="M699.31,-679.09C676.06,-665.57 639.47,-646.36 605,-637 544.48,-620.57 472.07,-617.09 424.54,-616.89"/>
<polygon fill="midnightblue" stroke="midnightblue" points="697.74,-682.22 708.12,-684.32 701.31,-676.2 697.74,-682.22"/>
</g>
<!-- Node16&#45;&gt;Node3 -->
<g id="edge25" class="edge">
<title>Node16&#45;&gt;Node3</title>
<path fill="none" stroke="midnightblue" d="M309.99,-611.11C292.35,-609.13 273.24,-606.99 256.08,-605.06"/>
<polygon fill="midnightblue" stroke="midnightblue" points="309.86,-614.61 320.18,-612.25 310.64,-607.66 309.86,-614.61"/>
</g>
<!-- Node17&#45;&gt;Node3 -->
<g id="edge29" class="edge">
<title>Node17&#45;&gt;Node3</title>
<path fill="none" stroke="midnightblue" d="M988.88,-542C918.69,-542 815.52,-542 725.5,-542 725.5,-542 725.5,-542 546,-542 432.8,-542 402.04,-534.41 292,-561 265.79,-567.33 237.42,-580.46 219.68,-589.5"/>
<polygon fill="midnightblue" stroke="midnightblue" points="988.99,-545.5 998.99,-542 988.99,-538.5 988.99,-545.5"/>
</g>
<!-- Node19 -->
<g id="node19" class="node">
<title>Node19</title>
<g id="a_node19"><a xlink:href="class_config.html#abd0c571c116924871e30444b192b792a" target="_top" xlink:title="Construct a new Config object.">
<polygon fill="white" stroke="black" points="1031,-608.5 1031,-627.5 1115,-627.5 1115,-608.5 1031,-608.5"/>
<text text-anchor="middle" x="1073" y="-615.5" font-family="Helvetica,sans-Serif" font-size="10.00">Config::Config</text>
</a>
</g>
</g>
<!-- Node18&#45;&gt;Node19 -->
<g id="edge31" class="edge">
<title>Node18&#45;&gt;Node19</title>
<path fill="none" stroke="midnightblue" d="M1215.32,-618C1184.29,-618 1144.66,-618 1115.27,-618"/>
<polygon fill="midnightblue" stroke="midnightblue" points="1215.49,-621.5 1225.49,-618 1215.49,-614.5 1215.49,-621.5"/>
</g>
<!-- Node20&#45;&gt;Node21 -->
<g id="edge33" class="edge">
<title>Node20&#45;&gt;Node21</title>
<path fill="none" stroke="midnightblue" d="M1172.83,-392.41C1156.64,-392.83 1140.3,-393.26 1125.71,-393.64"/>
<polygon fill="midnightblue" stroke="midnightblue" points="1172.98,-395.9 1182.88,-392.14 1172.79,-388.91 1172.98,-395.9"/>
</g>
<!-- Node23 -->
<g id="node23" class="node">
<title>Node23</title>
<g id="a_node23"><a xlink:href="class_export.html#ad7bd412c3fe1d5accc38cf1f2ab65ea0" target="_top" xlink:title=" ">
<polygon fill="white" stroke="black" points="292,-570.5 292,-589.5 453,-589.5 453,-570.5 292,-570.5"/>
<text text-anchor="middle" x="372.5" y="-577.5" font-family="Helvetica,sans-Serif" font-size="10.00">Export::_setCascadedChannel</text>
</a>
</g>
</g>
<!-- Node22&#45;&gt;Node23 -->
<g id="edge36" class="edge">
<title>Node22&#45;&gt;Node23</title>
<path fill="none" stroke="midnightblue" d="M1188.47,-580C1115.61,-580 1002.54,-580 904.5,-580 904.5,-580 904.5,-580 723.5,-580 630.68,-580 524.02,-580 453.08,-580"/>
<polygon fill="midnightblue" stroke="midnightblue" points="1188.48,-583.5 1198.48,-580 1188.48,-576.5 1188.48,-583.5"/>
</g>
<!-- Node23&#45;&gt;Node3 -->
<g id="edge37" class="edge">
<title>Node23&#45;&gt;Node3</title>
<path fill="none" stroke="midnightblue" d="M281.56,-590.08C272.92,-591.05 264.35,-592.01 256.22,-592.92"/>
<polygon fill="midnightblue" stroke="midnightblue" points="282.17,-593.54 291.71,-588.94 281.39,-586.58 282.17,-593.54"/>
</g>
<!-- Node24&#45;&gt;Node5 -->
<g id="edge40" class="edge">
<title>Node24&#45;&gt;Node5</title>
<path fill="none" stroke="midnightblue" d="M1225.21,-502.37C1159.04,-499.78 1021.17,-495 904.5,-495 904.5,-495 904.5,-495 371.5,-495 266.82,-495 233.44,-484.56 146,-427 105.65,-400.44 73.65,-350.52 61.4,-329.6"/>
<polygon fill="midnightblue" stroke="midnightblue" points="1225.44,-505.89 1235.57,-502.79 1225.72,-498.89 1225.44,-505.89"/>
</g>
<!-- Node24&#45;&gt;Node17 -->
<g id="edge39" class="edge">
<title>Node24&#45;&gt;Node17</title>
<path fill="none" stroke="midnightblue" d="M1225.9,-511.7C1195.9,-517.68 1154.12,-526.02 1121.97,-532.43"/>
<polygon fill="midnightblue" stroke="midnightblue" points="1226.86,-515.08 1235.98,-509.69 1225.49,-508.21 1226.86,-515.08"/>
</g>
<!-- Node28 -->
<g id="node28" class="node">
<title>Node28</title>
<g id="a_node28"><a xlink:href="class_config.html#aaba73cd0c0ca87e1ecd654d2ffee5927" target="_top" xlink:title=" ">
<polygon fill="white" stroke="black" points="165,-398.5 165,-417.5 237,-417.5 237,-398.5 165,-398.5"/>
<text text-anchor="middle" x="201" y="-405.5" font-family="Helvetica,sans-Serif" font-size="10.00">Config::edit</text>
</a>
</g>
</g>
<!-- Node27&#45;&gt;Node28 -->
<g id="edge45" class="edge">
<title>Node27&#45;&gt;Node28</title>
<path fill="none" stroke="midnightblue" d="M1220.99,-463.22C1153.33,-459.13 1018.79,-452 904.5,-452 904.5,-452 904.5,-452 546,-452 432.51,-452 299.64,-428.14 237.46,-415.56"/>
<polygon fill="midnightblue" stroke="midnightblue" points="1221.07,-466.73 1231.26,-463.84 1221.5,-459.74 1221.07,-466.73"/>
</g>
<!-- Node28&#45;&gt;Node5 -->
<g id="edge46" class="edge">
<title>Node28&#45;&gt;Node5</title>
<path fill="none" stroke="midnightblue" d="M175.41,-392.97C145.71,-374.82 96.65,-344.84 71.67,-329.57"/>
<polygon fill="midnightblue" stroke="midnightblue" points="173.96,-396.19 184.32,-398.41 177.61,-390.21 173.96,-396.19"/>
</g>
<!-- Node29&#45;&gt;Node5 -->
<g id="edge48" class="edge">
<title>Node29&#45;&gt;Node5</title>
<path fill="none" stroke="midnightblue" d="M1200.57,-276C1128.59,-276 1008.15,-276 904.5,-276 904.5,-276 904.5,-276 371.5,-276 258.68,-276 125.32,-303.94 75.8,-315.29"/>
<polygon fill="midnightblue" stroke="midnightblue" points="1200.83,-279.5 1210.83,-276 1200.83,-272.5 1200.83,-279.5"/>
</g>
<!-- Node30 -->
<g id="node30" class="node">
<title>Node30</title>
<g id="a_node30"><a xlink:href="class_simulate.html#a9b861e2a496da07d9377808c84c3e01b" target="_top" xlink:title=" ">
<polygon fill="white" stroke="black" points="1018.5,-304.5 1018.5,-323.5 1127.5,-323.5 1127.5,-304.5 1018.5,-304.5"/>
<text text-anchor="middle" x="1073" y="-311.5" font-family="Helvetica,sans-Serif" font-size="10.00">Simulate::simulate</text>
</a>
</g>
</g>
<!-- Node29&#45;&gt;Node30 -->
<g id="edge49" class="edge">
<title>Node29&#45;&gt;Node30</title>
<path fill="none" stroke="midnightblue" d="M1206.3,-287.61C1179.21,-293.01 1147.37,-299.36 1121.73,-304.48"/>
<polygon fill="midnightblue" stroke="midnightblue" points="1207.31,-290.98 1216.43,-285.59 1205.94,-284.11 1207.31,-290.98"/>
</g>
<!-- Node31&#45;&gt;Node5 -->
<g id="edge51" class="edge">
<title>Node31&#45;&gt;Node5</title>
<path fill="none" stroke="midnightblue" d="M1219.89,-191.9C1197.99,-188.15 1171.18,-183.9 1147,-181 1039.66,-168.14 1012.61,-162 904.5,-162 904.5,-162 904.5,-162 371.5,-162 267.56,-162 234.99,-170.29 146,-224 107.66,-247.14 75.27,-291.12 62.2,-310.46"/>
<polygon fill="midnightblue" stroke="midnightblue" points="1219.45,-195.38 1229.9,-193.64 1220.65,-188.48 1219.45,-195.38"/>
</g>
<!-- Node32 -->
<g id="node32" class="node">
<title>Node32</title>
<g id="a_node32"><a xlink:href="class_style.html#a4202615ba5c3a3b4c1b81a53f9c62b63" target="_top" xlink:title="Call the astyle child process to style the generated C++ code.">
<polygon fill="white" stroke="black" points="1037.5,-190.5 1037.5,-209.5 1108.5,-209.5 1108.5,-190.5 1037.5,-190.5"/>
<text text-anchor="middle" x="1073" y="-197.5" font-family="Helvetica,sans-Serif" font-size="10.00">Style::style</text>
</a>
</g>
</g>
<!-- Node31&#45;&gt;Node32 -->
<g id="edge52" class="edge">
<title>Node31&#45;&gt;Node32</title>
<path fill="none" stroke="midnightblue" d="M1219.45,-200C1185.56,-200 1139.8,-200 1108.72,-200"/>
<polygon fill="midnightblue" stroke="midnightblue" points="1219.56,-203.5 1229.56,-200 1219.56,-196.5 1219.56,-203.5"/>
</g>
<!-- Node34 -->
<g id="node34" class="node">
<title>Node34</title>
<g id="a_node34"><a xlink:href="struct_macro.html#aee7d20953d25a4e783b8e897d78c4bf7" target="_top" xlink:title=" ">
<polygon fill="white" stroke="black" points="1022.5,-0.5 1022.5,-19.5 1123.5,-19.5 1123.5,-0.5 1022.5,-0.5"/>
<text text-anchor="middle" x="1073" y="-7.5" font-family="Helvetica,sans-Serif" font-size="10.00">Macro::replaceXY</text>
</a>
</g>
</g>
<!-- Node33&#45;&gt;Node34 -->
<g id="edge55" class="edge">
<title>Node33&#45;&gt;Node34</title>
<path fill="none" stroke="midnightblue" d="M1238.52,-71.55C1215.13,-59 1179.53,-40.99 1147,-29 1137.29,-25.42 1126.62,-22.24 1116.51,-19.56"/>
<polygon fill="midnightblue" stroke="midnightblue" points="1236.99,-74.71 1247.45,-76.4 1240.33,-68.55 1236.99,-74.71"/>
</g>
<!-- Node37 -->
<g id="node37" class="node">
<title>Node37</title>
<g id="a_node37"><a xlink:href="struct_x_y___size.html#a1044ad37af4e25277b6f7cda06052fc1" target="_top" xlink:title=" ">
<polygon fill="white" stroke="black" points="1039.5,-114.5 1039.5,-133.5 1106.5,-133.5 1106.5,-114.5 1039.5,-114.5"/>
<text text-anchor="middle" x="1073" y="-121.5" font-family="Helvetica,sans-Serif" font-size="10.00">XY_Size::x</text>
</a>
</g>
</g>
<!-- Node33&#45;&gt;Node37 -->
<g id="edge58" class="edge">
<title>Node33&#45;&gt;Node37</title>
<path fill="none" stroke="midnightblue" d="M1218.82,-95.11C1184.29,-102 1137.71,-111.29 1106.81,-117.46"/>
<polygon fill="midnightblue" stroke="midnightblue" points="1219.55,-98.54 1228.67,-93.15 1218.18,-91.67 1219.55,-98.54"/>
</g>
<!-- Node38 -->
<g id="node38" class="node">
<title>Node38</title>
<g id="a_node38"><a xlink:href="struct_x_y___size.html#a42f2c088d4a2090d3ddc884be3547d39" target="_top" xlink:title=" ">
<polygon fill="white" stroke="black" points="1022,-76.5 1022,-95.5 1124,-95.5 1124,-76.5 1022,-76.5"/>
<text text-anchor="middle" x="1073" y="-83.5" font-family="Helvetica,sans-Serif" font-size="10.00">XY_Size::x_mul_y</text>
</a>
</g>
</g>
<!-- Node33&#45;&gt;Node38 -->
<g id="edge59" class="edge">
<title>Node33&#45;&gt;Node38</title>
<path fill="none" stroke="midnightblue" d="M1218.55,-86C1190.01,-86 1153.32,-86 1124.05,-86"/>
<polygon fill="midnightblue" stroke="midnightblue" points="1218.67,-89.5 1228.67,-86 1218.67,-82.5 1218.67,-89.5"/>
</g>
<!-- Node39 -->
<g id="node39" class="node">
<title>Node39</title>
<g id="a_node39"><a xlink:href="struct_x_y___size.html#a2db4fb0d73fbbafb70315253aa4171d4" target="_top" xlink:title=" ">
<polygon fill="white" stroke="black" points="1039.5,-38.5 1039.5,-57.5 1106.5,-57.5 1106.5,-38.5 1039.5,-38.5"/>
<text text-anchor="middle" x="1073" y="-45.5" font-family="Helvetica,sans-Serif" font-size="10.00">XY_Size::y</text>
</a>
</g>
</g>
<!-- Node33&#45;&gt;Node39 -->
<g id="edge60" class="edge">
<title>Node33&#45;&gt;Node39</title>
<path fill="none" stroke="midnightblue" d="M1218.82,-76.89C1184.29,-70 1137.71,-60.71 1106.81,-54.54"/>
<polygon fill="midnightblue" stroke="midnightblue" points="1218.18,-80.33 1228.67,-78.85 1219.55,-73.46 1218.18,-80.33"/>
</g>
<!-- Node35 -->
<g id="node35" class="node">
<title>Node35</title>
<g id="a_node35"><a xlink:href="struct_macro.html#ac0ddd588c300108ca443b10316d99877" target="_top" xlink:title=" ">
<polygon fill="white" stroke="black" points="844,-0.5 844,-19.5 963,-19.5 963,-0.5 844,-0.5"/>
<text text-anchor="middle" x="903.5" y="-7.5" font-family="Helvetica,sans-Serif" font-size="10.00">Macro::replaceMacro</text>
</a>
</g>
</g>
<!-- Node34&#45;&gt;Node35 -->
<g id="edge56" class="edge">
<title>Node34&#45;&gt;Node35</title>
<path fill="none" stroke="midnightblue" d="M1011.99,-10C996.13,-10 979.04,-10 963.26,-10"/>
<polygon fill="midnightblue" stroke="midnightblue" points="1012.2,-13.5 1022.2,-10 1012.2,-6.5 1012.2,-13.5"/>
</g>
<!-- Node36 -->
<g id="node36" class="node">
<title>Node36</title>
<g id="a_node36"><a xlink:href="class_alg.html#a45e536cf797bba52c851877371ea64c5" target="_top" xlink:title=" ">
<polygon fill="white" stroke="black" points="697.5,-0.5 697.5,-19.5 751.5,-19.5 751.5,-0.5 697.5,-0.5"/>
<text text-anchor="middle" x="724.5" y="-7.5" font-family="Helvetica,sans-Serif" font-size="10.00">Alg::Alg</text>
</a>
</g>
</g>
<!-- Node35&#45;&gt;Node36 -->
<g id="edge57" class="edge">
<title>Node35&#45;&gt;Node36</title>
<path fill="none" stroke="midnightblue" d="M833.53,-10C804.78,-10 773.14,-10 751.57,-10"/>
<polygon fill="midnightblue" stroke="midnightblue" points="833.56,-13.5 843.56,-10 833.56,-6.5 833.56,-13.5"/>
</g>
</g>
</svg>
