<?xml version="1.0" encoding="UTF-8" standalone="no"?>
<!DOCTYPE svg PUBLIC "-//W3C//DTD SVG 1.1//EN"
 "http://www.w3.org/Graphics/SVG/1.1/DTD/svg11.dtd">
<!-- Generated by graphviz version 2.43.0 (0)
 -->
<!-- Title: Calc::as Pages: 1 -->
<svg width="465pt" height="332pt"
 viewBox="0.00 0.00 465.00 332.00" xmlns="http://www.w3.org/2000/svg" xmlns:xlink="http://www.w3.org/1999/xlink">
<g id="graph0" class="graph" transform="scale(1 1) rotate(0) translate(4 328)">
<title>Calc::as</title>
<polygon fill="white" stroke="transparent" points="-4,4 -4,-328 461,-328 461,4 -4,4"/>
<!-- Node1 -->
<g id="node1" class="node">
<title>Node1</title>
<g id="a_node1"><a xlink:title=" ">
<polygon fill="#bfbfbf" stroke="black" points="0,-180.5 0,-199.5 55,-199.5 55,-180.5 0,-180.5"/>
<text text-anchor="middle" x="27.5" y="-187.5" font-family="Helvetica,sans-Serif" font-size="10.00">Calc::as</text>
</a>
</g>
</g>
<!-- Node2 -->
<g id="node2" class="node">
<title>Node2</title>
<g id="a_node2"><a xlink:href="class_calc.html#ad6dbdfdd4bd21322e5836ff72c11ae1b" target="_top" xlink:title="Convert the Alg CALC contents into a language command.">
<polygon fill="white" stroke="black" points="91,-180.5 91,-199.5 146,-199.5 146,-180.5 91,-180.5"/>
<text text-anchor="middle" x="118.5" y="-187.5" font-family="Helvetica,sans-Serif" font-size="10.00">Calc::as</text>
</a>
</g>
</g>
<!-- Node1&#45;&gt;Node2 -->
<g id="edge1" class="edge">
<title>Node1&#45;&gt;Node2</title>
<path fill="none" stroke="midnightblue" d="M55.2,-190C63.21,-190 72.14,-190 80.68,-190"/>
<polygon fill="midnightblue" stroke="midnightblue" points="80.82,-193.5 90.82,-190 80.82,-186.5 80.82,-193.5"/>
</g>
<!-- Node3 -->
<g id="node3" class="node">
<title>Node3</title>
<g id="a_node3"><a xlink:href="class_calc.html#af1d1bd5e83f9e5196627f5a4e1a5ee83" target="_top" xlink:title=" ">
<polygon fill="white" stroke="black" points="189.5,-266.5 189.5,-285.5 314.5,-285.5 314.5,-266.5 189.5,-266.5"/>
<text text-anchor="middle" x="252" y="-273.5" font-family="Helvetica,sans-Serif" font-size="10.00">Calc::_changeFunction</text>
</a>
</g>
</g>
<!-- Node2&#45;&gt;Node3 -->
<g id="edge2" class="edge">
<title>Node2&#45;&gt;Node3</title>
<path fill="none" stroke="midnightblue" d="M128,-199.56C139.33,-211.85 160.47,-233.24 182,-247 191.56,-253.11 202.62,-258.42 213.05,-262.77"/>
<polygon fill="midnightblue" stroke="midnightblue" points="211.8,-266.04 222.38,-266.49 214.39,-259.54 211.8,-266.04"/>
</g>
<!-- Node6 -->
<g id="node6" class="node">
<title>Node6</title>
<g id="a_node6"><a xlink:href="class_calc.html#ae3d88bd40f9bdf2c8ec92c426bdca446" target="_top" xlink:title=" ">
<polygon fill="white" stroke="black" points="188.5,-218.5 188.5,-237.5 315.5,-237.5 315.5,-218.5 188.5,-218.5"/>
<text text-anchor="middle" x="252" y="-225.5" font-family="Helvetica,sans-Serif" font-size="10.00">Calc::_changeOperator</text>
</a>
</g>
</g>
<!-- Node2&#45;&gt;Node6 -->
<g id="edge5" class="edge">
<title>Node2&#45;&gt;Node6</title>
<path fill="none" stroke="midnightblue" d="M146.22,-198.29C157.27,-201.68 170.24,-205.59 182,-209 189.64,-211.21 197.77,-213.5 205.66,-215.7"/>
<polygon fill="midnightblue" stroke="midnightblue" points="204.92,-219.13 215.49,-218.42 206.79,-212.38 204.92,-219.13"/>
</g>
<!-- Node7 -->
<g id="node7" class="node">
<title>Node7</title>
<g id="a_node7"><a xlink:href="class_calc.html#ad95be528148e0d63848d5fa916b93200" target="_top" xlink:title=" ">
<polygon fill="white" stroke="black" points="196.5,-180.5 196.5,-199.5 307.5,-199.5 307.5,-180.5 196.5,-180.5"/>
<text text-anchor="middle" x="252" y="-187.5" font-family="Helvetica,sans-Serif" font-size="10.00">Calc::_changeParen</text>
</a>
</g>
</g>
<!-- Node2&#45;&gt;Node7 -->
<g id="edge6" class="edge">
<title>Node2&#45;&gt;Node7</title>
<path fill="none" stroke="midnightblue" d="M146.11,-190C157.77,-190 172,-190 186.18,-190"/>
<polygon fill="midnightblue" stroke="midnightblue" points="186.45,-193.5 196.45,-190 186.45,-186.5 186.45,-193.5"/>
</g>
<!-- Node8 -->
<g id="node8" class="node">
<title>Node8</title>
<g id="a_node8"><a xlink:href="class_calc.html#ad562619fef96a73cd3b4c27b35bc5f91" target="_top" xlink:title=" ">
<polygon fill="white" stroke="black" points="187,-124.5 187,-143.5 317,-143.5 317,-124.5 187,-124.5"/>
<text text-anchor="middle" x="252" y="-131.5" font-family="Helvetica,sans-Serif" font-size="10.00">Calc::_changeSubScript</text>
</a>
</g>
</g>
<!-- Node2&#45;&gt;Node8 -->
<g id="edge7" class="edge">
<title>Node2&#45;&gt;Node8</title>
<path fill="none" stroke="midnightblue" d="M142.11,-180.37C163.4,-171.3 195.52,-157.63 219.36,-147.48"/>
<polygon fill="midnightblue" stroke="midnightblue" points="220.86,-150.64 228.69,-143.5 218.12,-144.2 220.86,-150.64"/>
</g>
<!-- Node16 -->
<g id="node16" class="node">
<title>Node16</title>
<g id="a_node16"><a xlink:href="class_calc.html#a1aec4748092712e0995c0ae5dabbf54f" target="_top" xlink:title=" ">
<polygon fill="white" stroke="black" points="182,-86.5 182,-105.5 322,-105.5 322,-86.5 182,-86.5"/>
<text text-anchor="middle" x="252" y="-93.5" font-family="Helvetica,sans-Serif" font-size="10.00">Calc::_changeSuperScript</text>
</a>
</g>
</g>
<!-- Node2&#45;&gt;Node16 -->
<g id="edge16" class="edge">
<title>Node2&#45;&gt;Node16</title>
<path fill="none" stroke="midnightblue" d="M124.87,-180.33C134.29,-164.27 155.36,-132.17 182,-115 185.31,-112.87 188.86,-110.97 192.54,-109.28"/>
<polygon fill="midnightblue" stroke="midnightblue" points="193.93,-112.5 201.89,-105.51 191.31,-106.01 193.93,-112.5"/>
</g>
<!-- Node4 -->
<g id="node4" class="node">
<title>Node4</title>
<g id="a_node4"><a xlink:href="class_calc.html#a7d793eba0a7c9fcbafec4310359f165d" target="_top" xlink:title=" ">
<polygon fill="white" stroke="black" points="361,-304.5 361,-323.5 454,-323.5 454,-304.5 361,-304.5"/>
<text text-anchor="middle" x="407.5" y="-311.5" font-family="Helvetica,sans-Serif" font-size="10.00">Calc::_addArma</text>
</a>
</g>
</g>
<!-- Node3&#45;&gt;Node4 -->
<g id="edge3" class="edge">
<title>Node3&#45;&gt;Node4</title>
<path fill="none" stroke="midnightblue" d="M291.73,-285.59C311.9,-290.58 336.75,-296.73 358.16,-302.03"/>
<polygon fill="midnightblue" stroke="midnightblue" points="357.5,-305.47 368.04,-304.48 359.18,-298.68 357.5,-305.47"/>
</g>
<!-- Node5 -->
<g id="node5" class="node">
<title>Node5</title>
<g id="a_node5"><a xlink:href="class_calc.html#af58cd6a2174e577a6246366de03b949e" target="_top" xlink:title=" ">
<polygon fill="white" stroke="black" points="359,-266.5 359,-285.5 456,-285.5 456,-266.5 359,-266.5"/>
<text text-anchor="middle" x="407.5" y="-273.5" font-family="Helvetica,sans-Serif" font-size="10.00">Calc::_addMmce</text>
</a>
</g>
</g>
<!-- Node3&#45;&gt;Node5 -->
<g id="edge4" class="edge">
<title>Node3&#45;&gt;Node5</title>
<path fill="none" stroke="midnightblue" d="M314.55,-276C325.79,-276 337.48,-276 348.61,-276"/>
<polygon fill="midnightblue" stroke="midnightblue" points="348.64,-279.5 358.64,-276 348.64,-272.5 348.64,-279.5"/>
</g>
<!-- Node8&#45;&gt;Node8 -->
<g id="edge8" class="edge">
<title>Node8&#45;&gt;Node8</title>
<path fill="none" stroke="midnightblue" d="M231.65,-143.76C221.76,-152.57 228.54,-162 252,-162 267.03,-162 275.21,-158.13 276.55,-153.03"/>
<polygon fill="midnightblue" stroke="midnightblue" points="279.67,-151.42 272.35,-143.76 273.29,-154.31 279.67,-151.42"/>
</g>
<!-- Node9 -->
<g id="node9" class="node">
<title>Node9</title>
<g id="a_node9"><a xlink:href="class_calc.html#a284818e83b0d85bdd029f3d72d4ef0bd" target="_top" xlink:title=" ">
<polygon fill="white" stroke="black" points="372.5,-228.5 372.5,-247.5 442.5,-247.5 442.5,-228.5 372.5,-228.5"/>
<text text-anchor="middle" x="407.5" y="-235.5" font-family="Helvetica,sans-Serif" font-size="10.00">Calc::_msg</text>
</a>
</g>
</g>
<!-- Node8&#45;&gt;Node9 -->
<g id="edge9" class="edge">
<title>Node8&#45;&gt;Node9</title>
<path fill="none" stroke="midnightblue" d="M276.63,-143.55C290.74,-149.98 308.49,-159.4 322,-171 342.23,-188.38 336.78,-202.85 358,-219 360.33,-220.77 362.84,-222.4 365.46,-223.89"/>
<polygon fill="midnightblue" stroke="midnightblue" points="364.11,-227.13 374.62,-228.44 367.22,-220.86 364.11,-227.13"/>
</g>
<!-- Node10 -->
<g id="node10" class="node">
<title>Node10</title>
<g id="a_node10"><a xlink:href="class_type.html#abe15820e780d2f6646792d54f3ae3311" target="_top" xlink:title=" ">
<polygon fill="white" stroke="black" points="375.5,-190.5 375.5,-209.5 439.5,-209.5 439.5,-190.5 375.5,-190.5"/>
<text text-anchor="middle" x="407.5" y="-197.5" font-family="Helvetica,sans-Serif" font-size="10.00">Type::dim</text>
</a>
</g>
</g>
<!-- Node8&#45;&gt;Node10 -->
<g id="edge10" class="edge">
<title>Node8&#45;&gt;Node10</title>
<path fill="none" stroke="midnightblue" d="M273.79,-143.66C294.88,-153.37 328.53,-168.64 358,-181 362.46,-182.87 367.17,-184.79 371.83,-186.65"/>
<polygon fill="midnightblue" stroke="midnightblue" points="370.65,-189.95 381.24,-190.36 373.22,-183.44 370.65,-189.95"/>
</g>
<!-- Node11 -->
<g id="node11" class="node">
<title>Node11</title>
<g id="a_node11"><a xlink:href="class_log.html#ac7147942832455398ad289b706a02616" target="_top" xlink:title="Write error message to the log file.">
<polygon fill="white" stroke="black" points="381,-152.5 381,-171.5 434,-171.5 434,-152.5 381,-152.5"/>
<text text-anchor="middle" x="407.5" y="-159.5" font-family="Helvetica,sans-Serif" font-size="10.00">Log::err</text>
</a>
</g>
</g>
<!-- Node8&#45;&gt;Node11 -->
<g id="edge11" class="edge">
<title>Node8&#45;&gt;Node11</title>
<path fill="none" stroke="midnightblue" d="M305.4,-143.56C326.89,-147.48 351.23,-151.92 370.65,-155.46"/>
<polygon fill="midnightblue" stroke="midnightblue" points="370.12,-158.92 380.59,-157.27 371.38,-152.04 370.12,-158.92"/>
</g>
<!-- Node12 -->
<g id="node12" class="node">
<title>Node12</title>
<g id="a_node12"><a xlink:href="class_log.html#add7e611cd3267d3fd5dae017e3aeef67" target="_top" xlink:title="Write infomation to the log file.">
<polygon fill="white" stroke="black" points="378,-114.5 378,-133.5 437,-133.5 437,-114.5 378,-114.5"/>
<text text-anchor="middle" x="407.5" y="-121.5" font-family="Helvetica,sans-Serif" font-size="10.00">Log::info</text>
</a>
</g>
</g>
<!-- Node8&#45;&gt;Node12 -->
<g id="edge12" class="edge">
<title>Node8&#45;&gt;Node12</title>
<path fill="none" stroke="midnightblue" d="M317.21,-129.82C334.3,-128.7 352.24,-127.54 367.52,-126.54"/>
<polygon fill="midnightblue" stroke="midnightblue" points="367.88,-130.02 377.63,-125.88 367.42,-123.04 367.88,-130.02"/>
</g>
<!-- Node13 -->
<g id="node13" class="node">
<title>Node13</title>
<g id="a_node13"><a xlink:href="utils_8h.html#aa0a3ba0e1cec6f6b77334767af46eef7" target="_top" xlink:title="Check if the string is an unsigned integer.">
<polygon fill="white" stroke="black" points="385,-76.5 385,-95.5 430,-95.5 430,-76.5 385,-76.5"/>
<text text-anchor="middle" x="407.5" y="-83.5" font-family="Helvetica,sans-Serif" font-size="10.00">isUInt</text>
</a>
</g>
</g>
<!-- Node8&#45;&gt;Node13 -->
<g id="edge13" class="edge">
<title>Node8&#45;&gt;Node13</title>
<path fill="none" stroke="midnightblue" d="M289.29,-124.46C299.88,-121.56 311.43,-118.26 322,-115 339.63,-109.55 359.12,-102.91 374.93,-97.35"/>
<polygon fill="midnightblue" stroke="midnightblue" points="376.48,-100.52 384.74,-93.88 374.14,-93.92 376.48,-100.52"/>
</g>
<!-- Node14 -->
<g id="node14" class="node">
<title>Node14</title>
<g id="a_node14"><a xlink:href="class_type.html#a836b463aa4740a234e0d304ed4cd958f" target="_top" xlink:title=" ">
<polygon fill="white" stroke="black" points="358,-38.5 358,-57.5 457,-57.5 457,-38.5 358,-38.5"/>
<text text-anchor="middle" x="407.5" y="-45.5" font-family="Helvetica,sans-Serif" font-size="10.00">Type::isUnknown</text>
</a>
</g>
</g>
<!-- Node8&#45;&gt;Node14 -->
<g id="edge14" class="edge">
<title>Node8&#45;&gt;Node14</title>
<path fill="none" stroke="midnightblue" d="M303.37,-124.37C309.95,-121.92 316.35,-118.85 322,-115 344.04,-99.99 336.78,-83.15 358,-67 360.33,-65.23 362.84,-63.6 365.46,-62.11"/>
<polygon fill="midnightblue" stroke="midnightblue" points="367.22,-65.14 374.62,-57.56 364.11,-58.87 367.22,-65.14"/>
</g>
<!-- Node15 -->
<g id="node15" class="node">
<title>Node15</title>
<g id="a_node15"><a xlink:href="class_type___track.html#ab510214767b1b4d71e3beadecb814bb7" target="_top" xlink:title=" ">
<polygon fill="white" stroke="black" points="360,-0.5 360,-19.5 455,-19.5 455,-0.5 360,-0.5"/>
<text text-anchor="middle" x="407.5" y="-7.5" font-family="Helvetica,sans-Serif" font-size="10.00">Type_Track::size</text>
</a>
</g>
</g>
<!-- Node8&#45;&gt;Node15 -->
<g id="edge15" class="edge">
<title>Node8&#45;&gt;Node15</title>
<path fill="none" stroke="midnightblue" d="M307.11,-124.4C312.52,-121.94 317.62,-118.86 322,-115 353.11,-87.63 328.36,-57.96 358,-29 359.46,-27.58 361.03,-26.26 362.69,-25.04"/>
<polygon fill="midnightblue" stroke="midnightblue" points="364.81,-27.85 371.57,-19.69 361.2,-21.85 364.81,-27.85"/>
</g>
</g>
</svg>
