<?xml version="1.0" encoding="UTF-8" standalone="no"?>
<!DOCTYPE svg PUBLIC "-//W3C//DTD SVG 1.1//EN"
 "http://www.w3.org/Graphics/SVG/1.1/DTD/svg11.dtd">
<!-- Generated by graphviz version 2.43.0 (0)
 -->
<!-- Title: Export::_estimation Pages: 1 -->
<!--zoomable 921 -->
<svg id="main" version="1.1" xmlns="http://www.w3.org/2000/svg" xmlns:xlink="http://www.w3.org/1999/xlink" xml:space="preserve" onload="init(evt)">
<style type="text/css"><![CDATA[
.edge:hover path { stroke: red; }
.edge:hover polygon { stroke: red; fill: red; }
]]></style>
<script type="text/javascript"><![CDATA[
var edges = document.getElementsByTagName('g');
if (edges && edges.length) {
  for (var i=0;i<edges.length;i++) {
    if (edges[i].id.substr(0,4)=='edge') {
      edges[i].setAttribute('class','edge');
    }
  }
}
]]></script>
        <defs>
                <circle id="rim" cx="0" cy="0" r="7"/>
                <circle id="rim2" cx="0" cy="0" r="3.5"/>
                <g id="zoomPlus">
                        <use xlink:href="#rim" fill="#404040">
                                <set attributeName="fill" to="#808080" begin="zoomplus.mouseover" end="zoomplus.mouseout"/>
                        </use>
                        <path d="M-4,0h8M0,-4v8" fill="none" stroke="white" stroke-width="1.5" pointer-events="none"/>
                </g>
                <g id="zoomMin">
                        <use xlink:href="#rim" fill="#404040">
                                <set attributeName="fill" to="#808080" begin="zoomminus.mouseover" end="zoomminus.mouseout"/>
                        </use>
                        <path d="M-4,0h8" fill="none" stroke="white" stroke-width="1.5" pointer-events="none"/>
                </g>
                <g id="dirArrow">
                        <path fill="none" stroke="white" stroke-width="1.5" d="M0,-3.0v7 M-2.5,-0.5L0,-3.0L2.5,-0.5"/>
                </g>
               <g id="resetDef">
                       <use xlink:href="#rim2" fill="#404040">
                               <set attributeName="fill" to="#808080" begin="reset.mouseover" end="reset.mouseout"/>
                       </use>
               </g>
        </defs>

<script type="text/javascript">
var viewWidth = 911;
var viewHeight = 921;
var sectionId = 'dynsection-14';
</script>
<script xlink:href="svgpan.js"/>
<svg id="graph" class="graph">
<g id="viewport">
<title>Export::_estimation</title>
<polygon fill="white" stroke="transparent" points="-4,4 -4,-917 907,-917 907,4 -4,4"/>
<!-- Node1 -->
<g id="node1" class="node">
<title>Node1</title>
<g id="a_node1"><a xlink:title=" ">
<polygon fill="#bfbfbf" stroke="black" points="0,-779.5 0,-798.5 112,-798.5 112,-779.5 0,-779.5"/>
<text text-anchor="middle" x="56" y="-786.5" font-family="Helvetica,sans-Serif" font-size="10.00">Export::_estimation</text>
</a>
</g>
</g>
<!-- Node2 -->
<g id="node2" class="node">
<title>Node2</title>
<g id="a_node2"><a xlink:href="class_export.html#a638d6b9ced18342503ee6f4d4b274740" target="_top" xlink:title=" ">
<polygon fill="white" stroke="black" points="158.5,-893.5 158.5,-912.5 242.5,-912.5 242.5,-893.5 158.5,-893.5"/>
<text text-anchor="middle" x="200.5" y="-900.5" font-family="Helvetica,sans-Serif" font-size="10.00">Export::_asStr</text>
</a>
</g>
</g>
<!-- Node1&#45;&gt;Node2 -->
<g id="edge1" class="edge">
<title>Node1&#45;&gt;Node2</title>
<path fill="none" stroke="midnightblue" d="M63.91,-798.74C77.79,-817.68 110.94,-859.71 148,-884 150.96,-885.94 154.14,-887.72 157.42,-889.34"/>
<polygon fill="midnightblue" stroke="midnightblue" points="156.26,-892.65 166.82,-893.49 159.09,-886.25 156.26,-892.65"/>
</g>
<!-- Node3 -->
<g id="node3" class="node">
<title>Node3</title>
<g id="a_node3"><a xlink:href="class_export.html#abe75ae41d7cc8afe8f1ba4bbf67dfcfc" target="_top" xlink:title=" ">
<polygon fill="white" stroke="black" points="169,-855.5 169,-874.5 232,-874.5 232,-855.5 169,-855.5"/>
<text text-anchor="middle" x="200.5" y="-862.5" font-family="Helvetica,sans-Serif" font-size="10.00">Export::_f</text>
</a>
</g>
</g>
<!-- Node1&#45;&gt;Node3 -->
<g id="edge2" class="edge">
<title>Node1&#45;&gt;Node3</title>
<path fill="none" stroke="midnightblue" d="M70.37,-798.61C87.67,-810.75 119.05,-831.78 148,-846 152.1,-848.02 156.48,-849.94 160.88,-851.75"/>
<polygon fill="midnightblue" stroke="midnightblue" points="159.87,-855.11 170.46,-855.47 162.41,-848.58 159.87,-855.11"/>
</g>
<!-- Node4 -->
<g id="node4" class="node">
<title>Node4</title>
<g id="a_node4"><a xlink:href="class_export.html#a68e698a5654fc800aa78c512da8f23b1" target="_top" xlink:title=" ">
<polygon fill="white" stroke="black" points="153.5,-817.5 153.5,-836.5 247.5,-836.5 247.5,-817.5 153.5,-817.5"/>
<text text-anchor="middle" x="200.5" y="-824.5" font-family="Helvetica,sans-Serif" font-size="10.00">Export::_langStr</text>
</a>
</g>
</g>
<!-- Node1&#45;&gt;Node4 -->
<g id="edge3" class="edge">
<title>Node1&#45;&gt;Node4</title>
<path fill="none" stroke="midnightblue" d="M92.96,-798.59C111.44,-803.52 134.16,-809.57 153.86,-814.83"/>
<polygon fill="midnightblue" stroke="midnightblue" points="152.99,-818.22 163.55,-817.41 154.79,-811.46 152.99,-818.22"/>
</g>
<!-- Node5 -->
<g id="node5" class="node">
<title>Node5</title>
<g id="a_node5"><a xlink:href="class_export.html#a33b5d571af76c0d4f9b9ee6e72afd8a6" target="_top" xlink:title=" ">
<polygon fill="white" stroke="black" points="148,-779.5 148,-798.5 253,-798.5 253,-779.5 148,-779.5"/>
<text text-anchor="middle" x="200.5" y="-786.5" font-family="Helvetica,sans-Serif" font-size="10.00">Export::_preCheck</text>
</a>
</g>
</g>
<!-- Node1&#45;&gt;Node5 -->
<g id="edge4" class="edge">
<title>Node1&#45;&gt;Node5</title>
<path fill="none" stroke="midnightblue" d="M112.09,-789C120.45,-789 129.11,-789 137.6,-789"/>
<polygon fill="midnightblue" stroke="midnightblue" points="137.82,-792.5 147.82,-789 137.82,-785.5 137.82,-792.5"/>
</g>
<!-- Node7 -->
<g id="node7" class="node">
<title>Node7</title>
<g id="a_node7"><a xlink:href="class_log.html#add7e611cd3267d3fd5dae017e3aeef67" target="_top" xlink:title="Write infomation to the log file.">
<polygon fill="white" stroke="black" points="825,-531.5 825,-550.5 884,-550.5 884,-531.5 825,-531.5"/>
<text text-anchor="middle" x="854.5" y="-538.5" font-family="Helvetica,sans-Serif" font-size="10.00">Log::info</text>
</a>
</g>
</g>
<!-- Node1&#45;&gt;Node7 -->
<g id="edge6" class="edge">
<title>Node1&#45;&gt;Node7</title>
<path fill="none" stroke="midnightblue" d="M97.58,-779.43C113.26,-776.02 131.39,-772.43 148,-770 247.3,-755.5 272.64,-751 373,-751 373,-751 373,-751 545.5,-751 681.65,-751 802.02,-609.19 840.61,-558.64"/>
<polygon fill="midnightblue" stroke="midnightblue" points="843.46,-560.67 846.66,-550.57 837.86,-556.47 843.46,-560.67"/>
</g>
<!-- Node8 -->
<g id="node8" class="node">
<title>Node8</title>
<g id="a_node8"><a xlink:href="utils_8h.html#a6ef734356291c638e5787a6c668192d4" target="_top" xlink:title=" ">
<polygon fill="white" stroke="black" points="355.5,-703.5 355.5,-722.5 392.5,-722.5 392.5,-703.5 355.5,-703.5"/>
<text text-anchor="middle" x="374" y="-710.5" font-family="Helvetica,sans-Serif" font-size="10.00">trim</text>
</a>
</g>
</g>
<!-- Node1&#45;&gt;Node8 -->
<g id="edge7" class="edge">
<title>Node1&#45;&gt;Node8</title>
<path fill="none" stroke="midnightblue" d="M69.76,-779.41C86.66,-767.26 117.87,-746.74 148,-737 216.4,-714.89 301.98,-712.12 345.23,-712.35"/>
<polygon fill="midnightblue" stroke="midnightblue" points="345.24,-715.85 355.28,-712.46 345.31,-708.85 345.24,-715.85"/>
</g>
<!-- Node11 -->
<g id="node11" class="node">
<title>Node11</title>
<g id="a_node11"><a xlink:href="class_alg.html#ada1e8215f047b4ffd736e811b5ea3162" target="_top" xlink:title=" ">
<polygon fill="white" stroke="black" points="169,-380.5 169,-399.5 232,-399.5 232,-380.5 169,-380.5"/>
<text text-anchor="middle" x="200.5" y="-387.5" font-family="Helvetica,sans-Serif" font-size="10.00">Alg::write</text>
</a>
</g>
</g>
<!-- Node1&#45;&gt;Node11 -->
<g id="edge10" class="edge">
<title>Node1&#45;&gt;Node11</title>
<path fill="none" stroke="midnightblue" d="M60.52,-779.14C79.27,-726.63 167.47,-479.68 192.73,-408.97"/>
<polygon fill="midnightblue" stroke="midnightblue" points="196.03,-410.11 196.1,-399.52 189.44,-407.76 196.03,-410.11"/>
</g>
<!-- Node6 -->
<g id="node6" class="node">
<title>Node6</title>
<g id="a_node6"><a xlink:href="error__code_8h.html#ae1bfa02e1106eff84ddecb9f7773a1a4" target="_top" xlink:title="Return the error message of the error code from class Err.">
<polygon fill="white" stroke="black" points="344,-779.5 344,-798.5 404,-798.5 404,-779.5 344,-779.5"/>
<text text-anchor="middle" x="374" y="-786.5" font-family="Helvetica,sans-Serif" font-size="10.00">errorMsg</text>
</a>
</g>
</g>
<!-- Node5&#45;&gt;Node6 -->
<g id="edge5" class="edge">
<title>Node5&#45;&gt;Node6</title>
<path fill="none" stroke="midnightblue" d="M253.42,-789C279.18,-789 309.8,-789 333.6,-789"/>
<polygon fill="midnightblue" stroke="midnightblue" points="333.69,-792.5 343.69,-789 333.69,-785.5 333.69,-792.5"/>
</g>
<!-- Node9 -->
<g id="node9" class="node">
<title>Node9</title>
<g id="a_node9"><a xlink:href="utils_8h.html#a47084ee818936eef3c48be492c0e860f" target="_top" xlink:title=" ">
<polygon fill="white" stroke="black" points="524.5,-703.5 524.5,-722.5 564.5,-722.5 564.5,-703.5 524.5,-703.5"/>
<text text-anchor="middle" x="544.5" y="-710.5" font-family="Helvetica,sans-Serif" font-size="10.00">ltrim</text>
</a>
</g>
</g>
<!-- Node8&#45;&gt;Node9 -->
<g id="edge8" class="edge">
<title>Node8&#45;&gt;Node9</title>
<path fill="none" stroke="midnightblue" d="M392.71,-713C421.66,-713 479.37,-713 514.4,-713"/>
<polygon fill="midnightblue" stroke="midnightblue" points="514.48,-716.5 524.48,-713 514.48,-709.5 514.48,-716.5"/>
</g>
<!-- Node10 -->
<g id="node10" class="node">
<title>Node10</title>
<g id="a_node10"><a xlink:href="utils_8h.html#af6d6bd5c29782e3b958b5f7c0d1ea9e3" target="_top" xlink:title=" ">
<polygon fill="white" stroke="black" points="524,-665.5 524,-684.5 565,-684.5 565,-665.5 524,-665.5"/>
<text text-anchor="middle" x="544.5" y="-672.5" font-family="Helvetica,sans-Serif" font-size="10.00">rtrim</text>
</a>
</g>
</g>
<!-- Node8&#45;&gt;Node10 -->
<g id="edge9" class="edge">
<title>Node8&#45;&gt;Node10</title>
<path fill="none" stroke="midnightblue" d="M392.71,-709.01C421.51,-702.51 478.76,-689.6 513.84,-681.69"/>
<polygon fill="midnightblue" stroke="midnightblue" points="514.97,-685.02 523.96,-679.41 513.43,-678.19 514.97,-685.02"/>
</g>
<!-- Node11&#45;&gt;Node7 -->
<g id="edge29" class="edge">
<title>Node11&#45;&gt;Node7</title>
<path fill="none" stroke="midnightblue" d="M203.6,-399.86C210.23,-428.21 233.64,-509.99 289,-542 378.28,-593.62 702.29,-559.69 814.74,-545.98"/>
<polygon fill="midnightblue" stroke="midnightblue" points="815.45,-549.42 824.95,-544.72 814.6,-542.48 815.45,-549.42"/>
</g>
<!-- Node11&#45;&gt;Node8 -->
<g id="edge47" class="edge">
<title>Node11&#45;&gt;Node8</title>
<path fill="none" stroke="midnightblue" d="M201.05,-399.66C199.64,-441.65 199.93,-609.94 289,-694 303.91,-708.07 326.94,-712.52 345.12,-713.62"/>
<polygon fill="midnightblue" stroke="midnightblue" points="345.06,-717.12 355.16,-713.92 345.27,-710.12 345.06,-717.12"/>
</g>
<!-- Node11&#45;&gt;Node11 -->
<g id="edge50" class="edge">
<title>Node11&#45;&gt;Node11</title>
<path fill="none" stroke="midnightblue" d="M178.31,-399.76C167.51,-408.57 174.91,-418 200.5,-418 217.3,-418 226.26,-413.94 227.38,-408.65"/>
<polygon fill="midnightblue" stroke="midnightblue" points="230.45,-406.97 222.69,-399.76 224.26,-410.24 230.45,-406.97"/>
</g>
<!-- Node12 -->
<g id="node12" class="node">
<title>Node12</title>
<g id="a_node12"><a xlink:href="class_alg.html#a2cf2b7f4e37c8e401d9c6dad6687917d" target="_top" xlink:title=" ">
<polygon fill="white" stroke="black" points="324,-513.5 324,-532.5 424,-532.5 424,-513.5 324,-513.5"/>
<text text-anchor="middle" x="374" y="-520.5" font-family="Helvetica,sans-Serif" font-size="10.00">Alg::_wComment</text>
</a>
</g>
</g>
<!-- Node11&#45;&gt;Node12 -->
<g id="edge11" class="edge">
<title>Node11&#45;&gt;Node12</title>
<path fill="none" stroke="midnightblue" d="M206.43,-399.51C217.91,-420.72 248.57,-472.15 289,-499 296.61,-504.05 305.28,-508.06 314.11,-511.23"/>
<polygon fill="midnightblue" stroke="midnightblue" points="313.1,-514.58 323.69,-514.35 315.27,-507.92 313.1,-514.58"/>
</g>
<!-- Node13 -->
<g id="node13" class="node">
<title>Node13</title>
<g id="a_node13"><a xlink:href="class_calc.html#ad6dbdfdd4bd21322e5836ff72c11ae1b" target="_top" xlink:title="Convert the Alg CALC contents into a language command.">
<polygon fill="white" stroke="black" points="517,-323.5 517,-342.5 572,-342.5 572,-323.5 517,-323.5"/>
<text text-anchor="middle" x="544.5" y="-330.5" font-family="Helvetica,sans-Serif" font-size="10.00">Calc::as</text>
</a>
</g>
</g>
<!-- Node11&#45;&gt;Node13 -->
<g id="edge12" class="edge">
<title>Node11&#45;&gt;Node13</title>
<path fill="none" stroke="midnightblue" d="M218.66,-380.49C235.87,-371.44 263.43,-358.31 289,-352 364.7,-333.31 456.59,-331.33 506.64,-331.93"/>
<polygon fill="midnightblue" stroke="midnightblue" points="506.61,-335.43 516.66,-332.09 506.72,-328.43 506.61,-335.43"/>
</g>
<!-- Node25 -->
<g id="node25" class="node">
<title>Node25</title>
<g id="a_node25"><a xlink:href="class_type.html#abe15820e780d2f6646792d54f3ae3311" target="_top" xlink:title=" ">
<polygon fill="white" stroke="black" points="342,-437.5 342,-456.5 406,-456.5 406,-437.5 342,-437.5"/>
<text text-anchor="middle" x="374" y="-444.5" font-family="Helvetica,sans-Serif" font-size="10.00">Type::dim</text>
</a>
</g>
</g>
<!-- Node11&#45;&gt;Node25 -->
<g id="edge26" class="edge">
<title>Node11&#45;&gt;Node25</title>
<path fill="none" stroke="midnightblue" d="M220.56,-399.51C238.02,-407.93 264.76,-420.07 289,-428 302.7,-432.48 318,-436.28 331.75,-439.28"/>
<polygon fill="midnightblue" stroke="midnightblue" points="331.4,-442.78 341.9,-441.41 332.84,-435.93 331.4,-442.78"/>
</g>
<!-- Node26 -->
<g id="node26" class="node">
<title>Node26</title>
<g id="a_node26"><a xlink:href="class_alg___line.html#af651454e6ddfce164626b68b2c6cba97" target="_top" xlink:title="Get the function name.">
<polygon fill="white" stroke="black" points="331.5,-399.5 331.5,-418.5 416.5,-418.5 416.5,-399.5 331.5,-399.5"/>
<text text-anchor="middle" x="374" y="-406.5" font-family="Helvetica,sans-Serif" font-size="10.00">Alg_Line::func</text>
</a>
</g>
</g>
<!-- Node11&#45;&gt;Node26 -->
<g id="edge27" class="edge">
<title>Node11&#45;&gt;Node26</title>
<path fill="none" stroke="midnightblue" d="M232.16,-393.4C256.9,-396.14 292.24,-400.05 321.33,-403.28"/>
<polygon fill="midnightblue" stroke="midnightblue" points="321,-406.76 331.33,-404.38 321.78,-399.8 321,-406.76"/>
</g>
<!-- Node27 -->
<g id="node27" class="node">
<title>Node27</title>
<g id="a_node27"><a xlink:href="class_alg___line.html#a49a98870a1f09e35a3e15a7d7bab1666" target="_top" xlink:title="Check whether parameters contain the key.">
<polygon fill="white" stroke="black" points="324.5,-361.5 324.5,-380.5 423.5,-380.5 423.5,-361.5 324.5,-361.5"/>
<text text-anchor="middle" x="374" y="-368.5" font-family="Helvetica,sans-Serif" font-size="10.00">Alg_Line::hasKey</text>
</a>
</g>
</g>
<!-- Node11&#45;&gt;Node27 -->
<g id="edge28" class="edge">
<title>Node11&#45;&gt;Node27</title>
<path fill="none" stroke="midnightblue" d="M232.16,-386.6C254.99,-384.07 286.84,-380.55 314.48,-377.48"/>
<polygon fill="midnightblue" stroke="midnightblue" points="314.9,-380.96 324.45,-376.38 314.13,-374 314.9,-380.96"/>
</g>
<!-- Node28 -->
<g id="node28" class="node">
<title>Node28</title>
<g id="a_node28"><a xlink:href="class_alg.html#a3ee7f9963027158b3fbd442d97800111" target="_top" xlink:title=" ">
<polygon fill="white" stroke="black" points="331,-171.5 331,-190.5 417,-190.5 417,-171.5 331,-171.5"/>
<text text-anchor="middle" x="374" y="-178.5" font-family="Helvetica,sans-Serif" font-size="10.00">Alg::inlineCalc</text>
</a>
</g>
</g>
<!-- Node11&#45;&gt;Node28 -->
<g id="edge30" class="edge">
<title>Node11&#45;&gt;Node28</title>
<path fill="none" stroke="midnightblue" d="M202.92,-380.29C208.04,-348.82 228.61,-248.92 289,-200 298.08,-192.65 309.43,-188.01 320.84,-185.12"/>
<polygon fill="midnightblue" stroke="midnightblue" points="321.76,-188.51 330.81,-183.01 320.3,-181.66 321.76,-188.51"/>
</g>
<!-- Node29 -->
<g id="node29" class="node">
<title>Node29</title>
<g id="a_node29"><a xlink:href="class_alg___line.html#ad419191a99be7e34024e569ad833b04e" target="_top" xlink:title="Check whether the line is for function declaration.">
<polygon fill="white" stroke="black" points="289,-285.5 289,-304.5 459,-304.5 459,-285.5 289,-285.5"/>
<text text-anchor="middle" x="374" y="-292.5" font-family="Helvetica,sans-Serif" font-size="10.00">Alg_Line::isFunctionDeclaration</text>
</a>
</g>
</g>
<!-- Node11&#45;&gt;Node29 -->
<g id="edge32" class="edge">
<title>Node11&#45;&gt;Node29</title>
<path fill="none" stroke="midnightblue" d="M210.79,-380.25C225.84,-365.03 257.07,-335.62 289,-319 297.78,-314.43 307.54,-310.63 317.21,-307.51"/>
<polygon fill="midnightblue" stroke="midnightblue" points="318.25,-310.85 326.81,-304.6 316.23,-304.15 318.25,-310.85"/>
</g>
<!-- Node30 -->
<g id="node30" class="node">
<title>Node30</title>
<g id="a_node30"><a xlink:href="class_alg.html#af935e64a6eb4afa4ca1540f4da3dcc9c" target="_top" xlink:title=" ">
<polygon fill="white" stroke="black" points="346,-247.5 346,-266.5 402,-266.5 402,-247.5 346,-247.5"/>
<text text-anchor="middle" x="374" y="-254.5" font-family="Helvetica,sans-Serif" font-size="10.00">Alg::line</text>
</a>
</g>
</g>
<!-- Node11&#45;&gt;Node30 -->
<g id="edge33" class="edge">
<title>Node11&#45;&gt;Node30</title>
<path fill="none" stroke="midnightblue" d="M206.03,-380.22C216.91,-357.89 246.76,-303.03 289,-276 302.81,-267.16 320.21,-262.41 335.58,-259.86"/>
<polygon fill="midnightblue" stroke="midnightblue" points="336.42,-263.28 345.84,-258.43 335.45,-256.35 336.42,-263.28"/>
</g>
<!-- Node31 -->
<g id="node31" class="node">
<title>Node31</title>
<g id="a_node31"><a xlink:href="class_alg___line.html#a4e79eb77a1cddbdab1dbdde8a499342d" target="_top" xlink:title="Parameter variables.">
<polygon fill="white" stroke="black" points="323.5,-209.5 323.5,-228.5 424.5,-228.5 424.5,-209.5 323.5,-209.5"/>
<text text-anchor="middle" x="374" y="-216.5" font-family="Helvetica,sans-Serif" font-size="10.00">Alg_Line::params</text>
</a>
</g>
</g>
<!-- Node11&#45;&gt;Node31 -->
<g id="edge34" class="edge">
<title>Node11&#45;&gt;Node31</title>
<path fill="none" stroke="midnightblue" d="M204.09,-380.33C211.87,-353.18 237.78,-275.77 289,-238 296.33,-232.59 304.94,-228.68 313.79,-225.86"/>
<polygon fill="midnightblue" stroke="midnightblue" points="314.73,-229.23 323.45,-223.21 312.88,-222.48 314.73,-229.23"/>
</g>
<!-- Node32 -->
<g id="node32" class="node">
<title>Node32</title>
<g id="a_node32"><a xlink:href="class_alg___line.html#a801b08c6c164376039a4ba4e980d039e" target="_top" xlink:title="Print Alg_Line contents (including return values, function names and parameters).">
<polygon fill="white" stroke="black" points="331,-133.5 331,-152.5 417,-152.5 417,-133.5 331,-133.5"/>
<text text-anchor="middle" x="374" y="-140.5" font-family="Helvetica,sans-Serif" font-size="10.00">Alg_Line::print</text>
</a>
</g>
</g>
<!-- Node11&#45;&gt;Node32 -->
<g id="edge35" class="edge">
<title>Node11&#45;&gt;Node32</title>
<path fill="none" stroke="midnightblue" d="M202.09,-380.42C204.8,-345.29 219.11,-222.49 289,-162 297.92,-154.28 309.32,-149.51 320.82,-146.62"/>
<polygon fill="midnightblue" stroke="midnightblue" points="321.82,-149.98 330.9,-144.52 320.4,-143.13 321.82,-149.98"/>
</g>
<!-- Node35 -->
<g id="node35" class="node">
<title>Node35</title>
<g id="a_node35"><a xlink:href="class_type___track.html#a4548ba1c289fba60e88b0e725509219e" target="_top" xlink:title=" ">
<polygon fill="white" stroke="black" points="650.5,-498.5 650.5,-517.5 749.5,-517.5 749.5,-498.5 650.5,-498.5"/>
<text text-anchor="middle" x="700" y="-505.5" font-family="Helvetica,sans-Serif" font-size="10.00">Type_Track::push</text>
</a>
</g>
</g>
<!-- Node11&#45;&gt;Node35 -->
<g id="edge38" class="edge">
<title>Node11&#45;&gt;Node35</title>
<path fill="none" stroke="midnightblue" d="M208.95,-399.52C222.71,-416.3 253.92,-450.81 289,-466 350.67,-492.7 542.6,-502.83 640.42,-506.33"/>
<polygon fill="midnightblue" stroke="midnightblue" points="640.32,-509.83 650.44,-506.68 640.57,-502.84 640.32,-509.83"/>
</g>
<!-- Node36 -->
<g id="node36" class="node">
<title>Node36</title>
<g id="a_node36"><a xlink:href="utils_8h.html#a0465457013518e168df05799c93cfa6e" target="_top" xlink:title=" ">
<polygon fill="white" stroke="black" points="332.5,-95.5 332.5,-114.5 415.5,-114.5 415.5,-95.5 332.5,-95.5"/>
<text text-anchor="middle" x="374" y="-102.5" font-family="Helvetica,sans-Serif" font-size="10.00">removeQuote</text>
</a>
</g>
</g>
<!-- Node11&#45;&gt;Node36 -->
<g id="edge40" class="edge">
<title>Node11&#45;&gt;Node36</title>
<path fill="none" stroke="midnightblue" d="M201.5,-380.5C202.05,-342 209.49,-196.26 289,-124 298.16,-115.67 310.19,-110.74 322.26,-107.89"/>
<polygon fill="midnightblue" stroke="midnightblue" points="323.2,-111.27 332.36,-105.95 321.88,-104.4 323.2,-111.27"/>
</g>
<!-- Node38 -->
<g id="node38" class="node">
<title>Node38</title>
<g id="a_node38"><a xlink:href="class_alg___line.html#a8e21f6b69eaf80a2327f7308fb4299e0" target="_top" xlink:title="Return variables.">
<polygon fill="white" stroke="black" points="325,-57.5 325,-76.5 423,-76.5 423,-57.5 325,-57.5"/>
<text text-anchor="middle" x="374" y="-64.5" font-family="Helvetica,sans-Serif" font-size="10.00">Alg_Line::returns</text>
</a>
</g>
</g>
<!-- Node11&#45;&gt;Node38 -->
<g id="edge42" class="edge">
<title>Node11&#45;&gt;Node38</title>
<path fill="none" stroke="midnightblue" d="M201.05,-380.34C199.64,-338.35 199.93,-170.06 289,-86 296.26,-79.15 305.44,-74.58 315.05,-71.57"/>
<polygon fill="midnightblue" stroke="midnightblue" points="315.96,-74.95 324.75,-69.05 314.19,-68.17 315.96,-74.95"/>
</g>
<!-- Node39 -->
<g id="node39" class="node">
<title>Node39</title>
<g id="a_node39"><a xlink:href="class_type.html#a0153b8ff39040caf3ff2a6f7c7329d7c" target="_top" xlink:title="Get the C++ type name.">
<polygon fill="white" stroke="black" points="337.5,-19.5 337.5,-38.5 410.5,-38.5 410.5,-19.5 337.5,-19.5"/>
<text text-anchor="middle" x="374" y="-26.5" font-family="Helvetica,sans-Serif" font-size="10.00">Type::string</text>
</a>
</g>
</g>
<!-- Node11&#45;&gt;Node39 -->
<g id="edge43" class="edge">
<title>Node11&#45;&gt;Node39</title>
<path fill="none" stroke="midnightblue" d="M202.61,-380.37C208.64,-329.93 238.91,-96.71 289,-48 299.18,-38.1 313.36,-32.93 327.18,-30.35"/>
<polygon fill="midnightblue" stroke="midnightblue" points="327.73,-33.8 337.12,-28.89 326.71,-26.88 327.73,-33.8"/>
</g>
<!-- Node42 -->
<g id="node42" class="node">
<title>Node42</title>
<g id="a_node42"><a xlink:href="namespacemmce.html#ad4a160832ef9fad47c531ece39752208" target="_top" xlink:title="Change a number to string.">
<polygon fill="white" stroke="black" points="326,-665.5 326,-684.5 422,-684.5 422,-665.5 326,-665.5"/>
<text text-anchor="middle" x="374" y="-672.5" font-family="Helvetica,sans-Serif" font-size="10.00">mmce::to_string</text>
</a>
</g>
</g>
<!-- Node11&#45;&gt;Node42 -->
<g id="edge46" class="edge">
<title>Node11&#45;&gt;Node42</title>
<path fill="none" stroke="midnightblue" d="M201.5,-399.5C202.05,-438 209.49,-583.74 289,-656 296.55,-662.86 306.05,-667.42 315.91,-670.41"/>
<polygon fill="midnightblue" stroke="midnightblue" points="315.29,-673.86 325.84,-672.9 317,-667.07 315.29,-673.86"/>
</g>
<!-- Node43 -->
<g id="node43" class="node">
<title>Node43</title>
<g id="a_node43"><a xlink:href="class_log.html#ab61203710351f6d33d7ba634d2c4eb32" target="_top" xlink:title="Write warning message to the log file.">
<polygon fill="white" stroke="black" points="345,-627.5 345,-646.5 403,-646.5 403,-627.5 345,-627.5"/>
<text text-anchor="middle" x="374" y="-634.5" font-family="Helvetica,sans-Serif" font-size="10.00">Log::war</text>
</a>
</g>
</g>
<!-- Node11&#45;&gt;Node43 -->
<g id="edge48" class="edge">
<title>Node11&#45;&gt;Node43</title>
<path fill="none" stroke="midnightblue" d="M202.09,-399.58C204.8,-434.71 219.11,-557.51 289,-618 301.52,-628.84 318.93,-633.85 334.65,-636.06"/>
<polygon fill="midnightblue" stroke="midnightblue" points="334.35,-639.54 344.67,-637.13 335.1,-632.58 334.35,-639.54"/>
</g>
<!-- Node44 -->
<g id="node44" class="node">
<title>Node44</title>
<g id="a_node44"><a xlink:href="class_log.html#a3410828f35c9bf8dd0771ead28de27b0" target="_top" xlink:title="Write contents to the log file.">
<polygon fill="white" stroke="black" points="341.5,-589.5 341.5,-608.5 406.5,-608.5 406.5,-589.5 341.5,-589.5"/>
<text text-anchor="middle" x="374" y="-596.5" font-family="Helvetica,sans-Serif" font-size="10.00">Log::write</text>
</a>
</g>
</g>
<!-- Node11&#45;&gt;Node44 -->
<g id="edge49" class="edge">
<title>Node11&#45;&gt;Node44</title>
<path fill="none" stroke="midnightblue" d="M203.19,-399.76C209.04,-430.48 231.3,-526.04 289,-575 300.84,-585.05 316.64,-590.9 331.35,-594.3"/>
<polygon fill="midnightblue" stroke="midnightblue" points="330.8,-597.76 341.29,-596.28 332.17,-590.89 330.8,-597.76"/>
</g>
<!-- Node14 -->
<g id="node14" class="node">
<title>Node14</title>
<g id="a_node14"><a xlink:href="class_calc.html#af1d1bd5e83f9e5196627f5a4e1a5ee83" target="_top" xlink:title=" ">
<polygon fill="white" stroke="black" points="637.5,-238.5 637.5,-257.5 762.5,-257.5 762.5,-238.5 637.5,-238.5"/>
<text text-anchor="middle" x="700" y="-245.5" font-family="Helvetica,sans-Serif" font-size="10.00">Calc::_changeFunction</text>
</a>
</g>
</g>
<!-- Node13&#45;&gt;Node14 -->
<g id="edge13" class="edge">
<title>Node13&#45;&gt;Node14</title>
<path fill="none" stroke="midnightblue" d="M562.81,-323.41C589.53,-308.62 641,-280.11 672.45,-262.7"/>
<polygon fill="midnightblue" stroke="midnightblue" points="674.46,-265.59 681.52,-257.68 671.07,-259.46 674.46,-265.59"/>
</g>
<!-- Node17 -->
<g id="node17" class="node">
<title>Node17</title>
<g id="a_node17"><a xlink:href="class_calc.html#ae3d88bd40f9bdf2c8ec92c426bdca446" target="_top" xlink:title=" ">
<polygon fill="white" stroke="black" points="636.5,-446.5 636.5,-465.5 763.5,-465.5 763.5,-446.5 636.5,-446.5"/>
<text text-anchor="middle" x="700" y="-453.5" font-family="Helvetica,sans-Serif" font-size="10.00">Calc::_changeOperator</text>
</a>
</g>
</g>
<!-- Node13&#45;&gt;Node17 -->
<g id="edge16" class="edge">
<title>Node13&#45;&gt;Node17</title>
<path fill="none" stroke="midnightblue" d="M550.61,-342.72C561.98,-363.37 591.43,-411.81 630,-437 633.15,-439.06 636.52,-440.89 640.01,-442.53"/>
<polygon fill="midnightblue" stroke="midnightblue" points="638.91,-445.86 649.49,-446.43 641.57,-439.39 638.91,-445.86"/>
</g>
<!-- Node18 -->
<g id="node18" class="node">
<title>Node18</title>
<g id="a_node18"><a xlink:href="class_calc.html#ad95be528148e0d63848d5fa916b93200" target="_top" xlink:title=" ">
<polygon fill="white" stroke="black" points="644.5,-408.5 644.5,-427.5 755.5,-427.5 755.5,-408.5 644.5,-408.5"/>
<text text-anchor="middle" x="700" y="-415.5" font-family="Helvetica,sans-Serif" font-size="10.00">Calc::_changeParen</text>
</a>
</g>
</g>
<!-- Node13&#45;&gt;Node18 -->
<g id="edge17" class="edge">
<title>Node13&#45;&gt;Node18</title>
<path fill="none" stroke="midnightblue" d="M555.01,-342.54C569.79,-356.84 599.73,-383.78 630,-399 634.6,-401.31 639.52,-403.37 644.53,-405.21"/>
<polygon fill="midnightblue" stroke="midnightblue" points="643.64,-408.6 654.23,-408.45 645.86,-401.96 643.64,-408.6"/>
</g>
<!-- Node19 -->
<g id="node19" class="node">
<title>Node19</title>
<g id="a_node19"><a xlink:href="class_calc.html#ad562619fef96a73cd3b4c27b35bc5f91" target="_top" xlink:title=" ">
<polygon fill="white" stroke="black" points="635,-314.5 635,-333.5 765,-333.5 765,-314.5 635,-314.5"/>
<text text-anchor="middle" x="700" y="-321.5" font-family="Helvetica,sans-Serif" font-size="10.00">Calc::_changeSubScript</text>
</a>
</g>
</g>
<!-- Node13&#45;&gt;Node19 -->
<g id="edge18" class="edge">
<title>Node13&#45;&gt;Node19</title>
<path fill="none" stroke="midnightblue" d="M572.24,-331.43C586.95,-330.57 605.99,-329.45 624.83,-328.35"/>
<polygon fill="midnightblue" stroke="midnightblue" points="625.17,-331.84 634.94,-327.76 624.76,-324.85 625.17,-331.84"/>
</g>
<!-- Node24 -->
<g id="node24" class="node">
<title>Node24</title>
<g id="a_node24"><a xlink:href="class_calc.html#a1aec4748092712e0995c0ae5dabbf54f" target="_top" xlink:title=" ">
<polygon fill="white" stroke="black" points="630,-370.5 630,-389.5 770,-389.5 770,-370.5 630,-370.5"/>
<text text-anchor="middle" x="700" y="-377.5" font-family="Helvetica,sans-Serif" font-size="10.00">Calc::_changeSuperScript</text>
</a>
</g>
</g>
<!-- Node13&#45;&gt;Node24 -->
<g id="edge25" class="edge">
<title>Node13&#45;&gt;Node24</title>
<path fill="none" stroke="midnightblue" d="M572.03,-342.18C588.62,-347.82 610.48,-355.08 630,-361 637.52,-363.28 645.55,-365.6 653.36,-367.79"/>
<polygon fill="midnightblue" stroke="midnightblue" points="652.52,-371.19 663.09,-370.49 654.39,-364.44 652.52,-371.19"/>
</g>
<!-- Node15 -->
<g id="node15" class="node">
<title>Node15</title>
<g id="a_node15"><a xlink:href="class_calc.html#a7d793eba0a7c9fcbafec4310359f165d" target="_top" xlink:title=" ">
<polygon fill="white" stroke="black" points="808,-200.5 808,-219.5 901,-219.5 901,-200.5 808,-200.5"/>
<text text-anchor="middle" x="854.5" y="-207.5" font-family="Helvetica,sans-Serif" font-size="10.00">Calc::_addArma</text>
</a>
</g>
</g>
<!-- Node14&#45;&gt;Node15 -->
<g id="edge14" class="edge">
<title>Node14&#45;&gt;Node15</title>
<path fill="none" stroke="midnightblue" d="M739.48,-238.41C759.52,-233.42 784.2,-227.27 805.48,-221.97"/>
<polygon fill="midnightblue" stroke="midnightblue" points="806.44,-225.33 815.29,-219.52 804.74,-218.54 806.44,-225.33"/>
</g>
<!-- Node16 -->
<g id="node16" class="node">
<title>Node16</title>
<g id="a_node16"><a xlink:href="class_calc.html#af58cd6a2174e577a6246366de03b949e" target="_top" xlink:title=" ">
<polygon fill="white" stroke="black" points="806,-238.5 806,-257.5 903,-257.5 903,-238.5 806,-238.5"/>
<text text-anchor="middle" x="854.5" y="-245.5" font-family="Helvetica,sans-Serif" font-size="10.00">Calc::_addMmce</text>
</a>
</g>
</g>
<!-- Node14&#45;&gt;Node16 -->
<g id="edge15" class="edge">
<title>Node14&#45;&gt;Node16</title>
<path fill="none" stroke="midnightblue" d="M762.59,-248C773.49,-248 784.8,-248 795.6,-248"/>
<polygon fill="midnightblue" stroke="midnightblue" points="795.76,-251.5 805.76,-248 795.76,-244.5 795.76,-251.5"/>
</g>
<!-- Node19&#45;&gt;Node7 -->
<g id="edge22" class="edge">
<title>Node19&#45;&gt;Node7</title>
<path fill="none" stroke="midnightblue" d="M727.89,-333.59C741.88,-339.68 758.43,-348.74 770,-361 793.49,-385.89 830.82,-480.59 846.35,-521.73"/>
<polygon fill="midnightblue" stroke="midnightblue" points="843.11,-523.03 849.89,-531.17 849.66,-520.58 843.11,-523.03"/>
</g>
<!-- Node19&#45;&gt;Node19 -->
<g id="edge19" class="edge">
<title>Node19&#45;&gt;Node19</title>
<path fill="none" stroke="midnightblue" d="M676.26,-333.76C664.72,-342.57 672.63,-352 700,-352 717.96,-352 727.54,-347.94 728.75,-342.65"/>
<polygon fill="midnightblue" stroke="midnightblue" points="731.69,-340.75 723.74,-333.76 725.59,-344.19 731.69,-340.75"/>
</g>
<!-- Node20 -->
<g id="node20" class="node">
<title>Node20</title>
<g id="a_node20"><a xlink:href="class_calc.html#a284818e83b0d85bdd029f3d72d4ef0bd" target="_top" xlink:title=" ">
<polygon fill="white" stroke="black" points="819.5,-276.5 819.5,-295.5 889.5,-295.5 889.5,-276.5 819.5,-276.5"/>
<text text-anchor="middle" x="854.5" y="-283.5" font-family="Helvetica,sans-Serif" font-size="10.00">Calc::_msg</text>
</a>
</g>
</g>
<!-- Node19&#45;&gt;Node20 -->
<g id="edge20" class="edge">
<title>Node19&#45;&gt;Node20</title>
<path fill="none" stroke="midnightblue" d="M739.48,-314.41C760.83,-309.09 787.46,-302.46 809.62,-296.93"/>
<polygon fill="midnightblue" stroke="midnightblue" points="810.59,-300.3 819.45,-294.49 808.9,-293.51 810.59,-300.3"/>
</g>
<!-- Node21 -->
<g id="node21" class="node">
<title>Node21</title>
<g id="a_node21"><a xlink:href="class_log.html#ac7147942832455398ad289b706a02616" target="_top" xlink:title="Write error message to the log file.">
<polygon fill="white" stroke="black" points="828,-390.5 828,-409.5 881,-409.5 881,-390.5 828,-390.5"/>
<text text-anchor="middle" x="854.5" y="-397.5" font-family="Helvetica,sans-Serif" font-size="10.00">Log::err</text>
</a>
</g>
</g>
<!-- Node19&#45;&gt;Node21 -->
<g id="edge21" class="edge">
<title>Node19&#45;&gt;Node21</title>
<path fill="none" stroke="midnightblue" d="M718.91,-333.51C732.86,-340.94 752.7,-351.56 770,-361 786.07,-369.77 789.47,-373.14 806,-381 809.88,-382.84 813.99,-384.67 818.1,-386.42"/>
<polygon fill="midnightblue" stroke="midnightblue" points="817.03,-389.76 827.61,-390.33 819.69,-383.29 817.03,-389.76"/>
</g>
<!-- Node22 -->
<g id="node22" class="node">
<title>Node22</title>
<g id="a_node22"><a xlink:href="utils_8h.html#aa0a3ba0e1cec6f6b77334767af46eef7" target="_top" xlink:title="Check if the string is an unsigned integer.">
<polygon fill="white" stroke="black" points="832,-352.5 832,-371.5 877,-371.5 877,-352.5 832,-352.5"/>
<text text-anchor="middle" x="854.5" y="-359.5" font-family="Helvetica,sans-Serif" font-size="10.00">isUInt</text>
</a>
</g>
</g>
<!-- Node19&#45;&gt;Node22 -->
<g id="edge23" class="edge">
<title>Node19&#45;&gt;Node22</title>
<path fill="none" stroke="midnightblue" d="M739.48,-333.59C765,-339.95 798.07,-348.19 822.02,-354.15"/>
<polygon fill="midnightblue" stroke="midnightblue" points="821.44,-357.62 831.99,-356.64 823.14,-350.83 821.44,-357.62"/>
</g>
<!-- Node23 -->
<g id="node23" class="node">
<title>Node23</title>
<g id="a_node23"><a xlink:href="class_type___track.html#ab510214767b1b4d71e3beadecb814bb7" target="_top" xlink:title=" ">
<polygon fill="white" stroke="black" points="807,-314.5 807,-333.5 902,-333.5 902,-314.5 807,-314.5"/>
<text text-anchor="middle" x="854.5" y="-321.5" font-family="Helvetica,sans-Serif" font-size="10.00">Type_Track::size</text>
</a>
</g>
</g>
<!-- Node19&#45;&gt;Node23 -->
<g id="edge24" class="edge">
<title>Node19&#45;&gt;Node23</title>
<path fill="none" stroke="midnightblue" d="M765.23,-324C775.73,-324 786.55,-324 796.85,-324"/>
<polygon fill="midnightblue" stroke="midnightblue" points="796.95,-327.5 806.95,-324 796.95,-320.5 796.95,-327.5"/>
</g>
<!-- Node28&#45;&gt;Node13 -->
<g id="edge31" class="edge">
<title>Node28&#45;&gt;Node13</title>
<path fill="none" stroke="midnightblue" d="M417.37,-184.06C431.59,-186.7 446.9,-191.48 459,-200 500.03,-228.9 525.65,-284.69 536.88,-313.98"/>
<polygon fill="midnightblue" stroke="midnightblue" points="533.63,-315.29 540.36,-323.47 540.2,-312.88 533.63,-315.29"/>
</g>
<!-- Node33 -->
<g id="node33" class="node">
<title>Node33</title>
<g id="a_node33"><a xlink:href="functions_8h.html#ac9dc58cb94b7547813c3a35154d97d18" target="_top" xlink:title=" ">
<polygon fill="white" stroke="black" points="505,-133.5 505,-152.5 584,-152.5 584,-133.5 505,-133.5"/>
<text text-anchor="middle" x="544.5" y="-140.5" font-family="Helvetica,sans-Serif" font-size="10.00">isFuncNoEnd</text>
</a>
</g>
</g>
<!-- Node32&#45;&gt;Node33 -->
<g id="edge36" class="edge">
<title>Node32&#45;&gt;Node33</title>
<path fill="none" stroke="midnightblue" d="M417.09,-143C440.63,-143 470.08,-143 494.64,-143"/>
<polygon fill="midnightblue" stroke="midnightblue" points="494.83,-146.5 504.83,-143 494.83,-139.5 494.83,-146.5"/>
</g>
<!-- Node34 -->
<g id="node34" class="node">
<title>Node34</title>
<g id="a_node34"><a xlink:href="utils_8h.html#af11c7cca5b9ad860da4bdb556dce3234" target="_top" xlink:title=" ">
<polygon fill="white" stroke="black" points="671,-133.5 671,-152.5 729,-152.5 729,-133.5 671,-133.5"/>
<text text-anchor="middle" x="700" y="-140.5" font-family="Helvetica,sans-Serif" font-size="10.00">contains</text>
</a>
</g>
</g>
<!-- Node33&#45;&gt;Node34 -->
<g id="edge37" class="edge">
<title>Node33&#45;&gt;Node34</title>
<path fill="none" stroke="midnightblue" d="M584.23,-143C607.65,-143 637.38,-143 660.71,-143"/>
<polygon fill="midnightblue" stroke="midnightblue" points="660.94,-146.5 670.94,-143 660.93,-139.5 660.94,-146.5"/>
</g>
<!-- Node35&#45;&gt;Node7 -->
<g id="edge39" class="edge">
<title>Node35&#45;&gt;Node7</title>
<path fill="none" stroke="midnightblue" d="M745.11,-517.54C767.18,-522.32 793.66,-528.05 814.91,-532.65"/>
<polygon fill="midnightblue" stroke="midnightblue" points="814.37,-536.11 824.89,-534.81 815.86,-529.27 814.37,-536.11"/>
</g>
<!-- Node37 -->
<g id="node37" class="node">
<title>Node37</title>
<g id="a_node37"><a xlink:href="utils_8h.html#aaaee605fe46abaa420448438d89b22ed" target="_top" xlink:title=" ">
<polygon fill="white" stroke="black" points="514.5,-95.5 514.5,-114.5 574.5,-114.5 574.5,-95.5 514.5,-95.5"/>
<text text-anchor="middle" x="544.5" y="-102.5" font-family="Helvetica,sans-Serif" font-size="10.00">isQuoted</text>
</a>
</g>
</g>
<!-- Node36&#45;&gt;Node37 -->
<g id="edge41" class="edge">
<title>Node36&#45;&gt;Node37</title>
<path fill="none" stroke="midnightblue" d="M415.79,-105C442.7,-105 477.76,-105 504.34,-105"/>
<polygon fill="midnightblue" stroke="midnightblue" points="504.43,-108.5 514.43,-105 504.43,-101.5 504.43,-108.5"/>
</g>
<!-- Node40 -->
<g id="node40" class="node">
<title>Node40</title>
<g id="a_node40"><a xlink:href="class_type.html#a5b8adffb334040c53940ecf814ebcc65" target="_top" xlink:title=" ">
<polygon fill="white" stroke="black" points="497,-38.5 497,-57.5 592,-57.5 592,-38.5 497,-38.5"/>
<text text-anchor="middle" x="544.5" y="-45.5" font-family="Helvetica,sans-Serif" font-size="10.00">Type::_getString</text>
</a>
</g>
</g>
<!-- Node39&#45;&gt;Node40 -->
<g id="edge44" class="edge">
<title>Node39&#45;&gt;Node40</title>
<path fill="none" stroke="midnightblue" d="M410.73,-33.03C432.81,-35.52 461.63,-38.77 486.77,-41.6"/>
<polygon fill="midnightblue" stroke="midnightblue" points="486.6,-45.11 496.93,-42.75 487.38,-38.15 486.6,-45.11"/>
</g>
<!-- Node41 -->
<g id="node41" class="node">
<title>Node41</title>
<g id="a_node41"><a xlink:href="class_type.html#a836b463aa4740a234e0d304ed4cd958f" target="_top" xlink:title=" ">
<polygon fill="white" stroke="black" points="495,-0.5 495,-19.5 594,-19.5 594,-0.5 495,-0.5"/>
<text text-anchor="middle" x="544.5" y="-7.5" font-family="Helvetica,sans-Serif" font-size="10.00">Type::isUnknown</text>
</a>
</g>
</g>
<!-- Node39&#45;&gt;Node41 -->
<g id="edge45" class="edge">
<title>Node39&#45;&gt;Node41</title>
<path fill="none" stroke="midnightblue" d="M410.73,-24.97C432.22,-22.55 460.08,-19.41 484.73,-16.63"/>
<polygon fill="midnightblue" stroke="midnightblue" points="485.17,-20.1 494.71,-15.5 484.38,-13.14 485.17,-20.1"/>
</g>
</g>
</svg>
        <g id="navigator" transform="translate(0 0)" fill="#404254">
                <rect fill="#f2f5e9" fill-opacity="0.5" stroke="#606060" stroke-width=".5" x="0" y="0" width="60" height="60"/>
                <use id="zoomplus" xlink:href="#zoomPlus" x="17" y="9" onmousedown="handleZoom(evt,'in')"/>
                <use id="zoomminus" xlink:href="#zoomMin" x="42" y="9" onmousedown="handleZoom(evt,'out')"/>
                <use id="reset" xlink:href="#resetDef" x="30" y="36" onmousedown="handleReset()"/>
                <g id="arrowUp" xlink:href="#dirArrow" transform="translate(30 24)" onmousedown="handlePan(0,-1)">
                  <use xlink:href="#rim" fill="#404040">
                        <set attributeName="fill" to="#808080" begin="arrowUp.mouseover" end="arrowUp.mouseout"/>
                  </use>
                  <path fill="none" stroke="white" stroke-width="1.5" d="M0,-3.0v7 M-2.5,-0.5L0,-3.0L2.5,-0.5"/>
                </g>
                <g id="arrowRight" xlink:href="#dirArrow" transform="rotate(90) translate(36 -43)" onmousedown="handlePan(1,0)">
                  <use xlink:href="#rim" fill="#404040">
                        <set attributeName="fill" to="#808080" begin="arrowRight.mouseover" end="arrowRight.mouseout"/>
                  </use>
                  <path fill="none" stroke="white" stroke-width="1.5" d="M0,-3.0v7 M-2.5,-0.5L0,-3.0L2.5,-0.5"/>
                </g>
                <g id="arrowDown" xlink:href="#dirArrow" transform="rotate(180) translate(-30 -48)" onmousedown="handlePan(0,1)">
                  <use xlink:href="#rim" fill="#404040">
                        <set attributeName="fill" to="#808080" begin="arrowDown.mouseover" end="arrowDown.mouseout"/>
                  </use>
                  <path fill="none" stroke="white" stroke-width="1.5" d="M0,-3.0v7 M-2.5,-0.5L0,-3.0L2.5,-0.5"/>
                </g>
                <g id="arrowLeft" xlink:href="#dirArrow" transform="rotate(270) translate(-36 17)" onmousedown="handlePan(-1,0)">
                  <use xlink:href="#rim" fill="#404040">
                        <set attributeName="fill" to="#808080" begin="arrowLeft.mouseover" end="arrowLeft.mouseout"/>
                  </use>
                  <path fill="none" stroke="white" stroke-width="1.5" d="M0,-3.0v7 M-2.5,-0.5L0,-3.0L2.5,-0.5"/>
                </g>
        </g>
        <svg viewBox="0 0 15 15" width="100%" height="30px" preserveAspectRatio="xMaxYMin meet">
         <g id="arrow_out" transform="scale(0.3 0.3)">
          <a xlink:href="class_export_ae4811e1e4212029122c0ee29613714cc_cgraph_org.svg" target="_base">
           <rect id="button" ry="5" rx="5" y="6" x="6" height="38" width="38"
                fill="#f2f5e9" fill-opacity="0.5" stroke="#606060" stroke-width="1.0"/>
           <path id="arrow"
             d="M 11.500037,31.436501 C 11.940474,20.09759 22.043105,11.32322 32.158766,21.979434 L 37.068811,17.246167 C 37.068811,17.246167 37.088388,32 37.088388,32 L 22.160133,31.978069 C 22.160133,31.978069 26.997745,27.140456 26.997745,27.140456 C 18.528582,18.264221 13.291696,25.230495 11.500037,31.436501 z"
             style="fill:#404040;"/>
          </a>
         </g>
        </svg>
</svg>
