<?xml version="1.0" encoding="UTF-8" standalone="no"?>
<!DOCTYPE svg PUBLIC "-//W3C//DTD SVG 1.1//EN"
 "http://www.w3.org/Graphics/SVG/1.1/DTD/svg11.dtd">
<!-- Generated by graphviz version 2.43.0 (0)
 -->
<!-- Title: Type::isUnknown Pages: 1 -->
<svg width="1208pt" height="218pt"
 viewBox="0.00 0.00 1208.00 218.00" xmlns="http://www.w3.org/2000/svg" xmlns:xlink="http://www.w3.org/1999/xlink">
<g id="graph0" class="graph" transform="scale(1 1) rotate(0) translate(4 214)">
<title>Type::isUnknown</title>
<polygon fill="white" stroke="transparent" points="-4,4 -4,-214 1204,-214 1204,4 -4,4"/>
<!-- Node1 -->
<g id="node1" class="node">
<title>Node1</title>
<g id="a_node1"><a xlink:title=" ">
<polygon fill="#bfbfbf" stroke="black" points="1101,-86.5 1101,-105.5 1200,-105.5 1200,-86.5 1101,-86.5"/>
<text text-anchor="middle" x="1150.5" y="-93.5" font-family="Helvetica,sans-Serif" font-size="10.00">Type::isUnknown</text>
</a>
</g>
</g>
<!-- Node2 -->
<g id="node2" class="node">
<title>Node2</title>
<g id="a_node2"><a xlink:href="class_calc.html#ad562619fef96a73cd3b4c27b35bc5f91" target="_top" xlink:title=" ">
<polygon fill="white" stroke="black" points="935,-124.5 935,-143.5 1065,-143.5 1065,-124.5 935,-124.5"/>
<text text-anchor="middle" x="1000" y="-131.5" font-family="Helvetica,sans-Serif" font-size="10.00">Calc::_changeSubScript</text>
</a>
</g>
</g>
<!-- Node1&#45;&gt;Node2 -->
<g id="edge1" class="edge">
<title>Node1&#45;&gt;Node2</title>
<path fill="none" stroke="midnightblue" d="M1102.17,-108.11C1081.49,-113.4 1057.58,-119.52 1038.2,-124.48"/>
<polygon fill="midnightblue" stroke="midnightblue" points="1103.21,-111.46 1112.03,-105.59 1101.47,-104.68 1103.21,-111.46"/>
</g>
<!-- Node15 -->
<g id="node15" class="node">
<title>Node15</title>
<g id="a_node15"><a xlink:href="class_type.html#a0153b8ff39040caf3ff2a6f7c7329d7c" target="_top" xlink:title="Get the C++ type name.">
<polygon fill="white" stroke="black" points="826,-43.5 826,-62.5 899,-62.5 899,-43.5 826,-43.5"/>
<text text-anchor="middle" x="862.5" y="-50.5" font-family="Helvetica,sans-Serif" font-size="10.00">Type::string</text>
</a>
</g>
</g>
<!-- Node1&#45;&gt;Node15 -->
<g id="edge21" class="edge">
<title>Node1&#45;&gt;Node15</title>
<path fill="none" stroke="midnightblue" d="M1090.93,-87.19C1033.29,-78.53 947.15,-65.58 899.12,-58.36"/>
<polygon fill="midnightblue" stroke="midnightblue" points="1090.57,-90.68 1100.98,-88.71 1091.62,-83.76 1090.57,-90.68"/>
</g>
<!-- Node2&#45;&gt;Node2 -->
<g id="edge2" class="edge">
<title>Node2&#45;&gt;Node2</title>
<path fill="none" stroke="midnightblue" d="M1025.3,-153.03C1023.92,-158.13 1015.49,-162 1000,-162 975.83,-162 968.84,-152.57 979.04,-143.76"/>
<polygon fill="midnightblue" stroke="midnightblue" points="1028.37,-151.33 1020.96,-143.76 1022.03,-154.3 1028.37,-151.33"/>
</g>
<!-- Node3 -->
<g id="node3" class="node">
<title>Node3</title>
<g id="a_node3"><a xlink:href="class_calc.html#ad6dbdfdd4bd21322e5836ff72c11ae1b" target="_top" xlink:title="Convert the Alg CALC contents into a language command.">
<polygon fill="white" stroke="black" points="835,-133.5 835,-152.5 890,-152.5 890,-133.5 835,-133.5"/>
<text text-anchor="middle" x="862.5" y="-140.5" font-family="Helvetica,sans-Serif" font-size="10.00">Calc::as</text>
</a>
</g>
</g>
<!-- Node2&#45;&gt;Node3 -->
<g id="edge3" class="edge">
<title>Node2&#45;&gt;Node3</title>
<path fill="none" stroke="midnightblue" d="M924.5,-138.95C912.24,-139.76 900.29,-140.56 890.26,-141.22"/>
<polygon fill="midnightblue" stroke="midnightblue" points="925.08,-142.42 934.82,-138.26 924.61,-135.43 925.08,-142.42"/>
</g>
<!-- Node4 -->
<g id="node4" class="node">
<title>Node4</title>
<g id="a_node4"><a xlink:href="class_calc.html#ad26b51e3caa182fb7cb4d8e5c03ca8b1" target="_top" xlink:title=" ">
<polygon fill="white" stroke="black" points="713,-190.5 713,-209.5 768,-209.5 768,-190.5 713,-190.5"/>
<text text-anchor="middle" x="740.5" y="-197.5" font-family="Helvetica,sans-Serif" font-size="10.00">Calc::as</text>
</a>
</g>
</g>
<!-- Node3&#45;&gt;Node4 -->
<g id="edge4" class="edge">
<title>Node3&#45;&gt;Node4</title>
<path fill="none" stroke="midnightblue" d="M835.61,-157.68C822.19,-165.06 805.42,-173.91 790,-181 782.77,-184.32 774.78,-187.61 767.41,-190.49"/>
<polygon fill="midnightblue" stroke="midnightblue" points="837.69,-160.54 844.73,-152.62 834.29,-154.42 837.69,-160.54"/>
</g>
<!-- Node5 -->
<g id="node5" class="node">
<title>Node5</title>
<g id="a_node5"><a xlink:href="class_alg.html#a3ee7f9963027158b3fbd442d97800111" target="_top" xlink:title=" ">
<polygon fill="white" stroke="black" points="697.5,-152.5 697.5,-171.5 783.5,-171.5 783.5,-152.5 697.5,-152.5"/>
<text text-anchor="middle" x="740.5" y="-159.5" font-family="Helvetica,sans-Serif" font-size="10.00">Alg::inlineCalc</text>
</a>
</g>
</g>
<!-- Node3&#45;&gt;Node5 -->
<g id="edge5" class="edge">
<title>Node3&#45;&gt;Node5</title>
<path fill="none" stroke="midnightblue" d="M824.85,-148.8C811.83,-150.87 797.06,-153.2 783.61,-155.33"/>
<polygon fill="midnightblue" stroke="midnightblue" points="825.54,-152.24 834.87,-147.22 824.44,-145.32 825.54,-152.24"/>
</g>
<!-- Node6 -->
<g id="node6" class="node">
<title>Node6</title>
<g id="a_node6"><a xlink:href="class_alg.html#ada1e8215f047b4ffd736e811b5ea3162" target="_top" xlink:title=" ">
<polygon fill="white" stroke="black" points="592,-95.5 592,-114.5 655,-114.5 655,-95.5 592,-95.5"/>
<text text-anchor="middle" x="623.5" y="-102.5" font-family="Helvetica,sans-Serif" font-size="10.00">Alg::write</text>
</a>
</g>
</g>
<!-- Node3&#45;&gt;Node6 -->
<g id="edge20" class="edge">
<title>Node3&#45;&gt;Node6</title>
<path fill="none" stroke="midnightblue" d="M824.8,-137.12C778.24,-129.65 698.76,-116.91 655.23,-109.93"/>
<polygon fill="midnightblue" stroke="midnightblue" points="824.35,-140.59 834.77,-138.71 825.45,-133.68 824.35,-140.59"/>
</g>
<!-- Node5&#45;&gt;Node6 -->
<g id="edge6" class="edge">
<title>Node5&#45;&gt;Node6</title>
<path fill="none" stroke="midnightblue" d="M710.93,-147.87C704.38,-144.63 697.45,-141.2 691,-138 675.06,-130.1 656.98,-121.13 643.7,-114.54"/>
<polygon fill="midnightblue" stroke="midnightblue" points="709.63,-151.13 720.15,-152.43 712.73,-144.86 709.63,-151.13"/>
</g>
<!-- Node6&#45;&gt;Node6 -->
<g id="edge19" class="edge">
<title>Node6&#45;&gt;Node6</title>
<path fill="none" stroke="midnightblue" d="M644.98,-124.4C643.55,-129.31 636.39,-133 623.5,-133 602.88,-133 596.92,-123.57 605.62,-114.76"/>
<polygon fill="midnightblue" stroke="midnightblue" points="648.16,-122.9 641.38,-114.76 641.6,-125.35 648.16,-122.9"/>
</g>
<!-- Node7 -->
<g id="node7" class="node">
<title>Node7</title>
<g id="a_node7"><a xlink:href="class_export.html#a89d3ae54dd2261cf35be148011b79fe4" target="_top" xlink:title=" ">
<polygon fill="white" stroke="black" points="292,-133.5 292,-152.5 404,-152.5 404,-133.5 292,-133.5"/>
<text text-anchor="middle" x="348" y="-140.5" font-family="Helvetica,sans-Serif" font-size="10.00">Export::_algorithms</text>
</a>
</g>
</g>
<!-- Node6&#45;&gt;Node7 -->
<g id="edge7" class="edge">
<title>Node6&#45;&gt;Node7</title>
<path fill="none" stroke="midnightblue" d="M608.51,-122.41C596.31,-136.1 577.26,-154.14 556,-162 494.4,-184.79 415.76,-165.57 375.45,-152.56"/>
<polygon fill="midnightblue" stroke="midnightblue" points="611.36,-124.46 615.18,-114.58 606.04,-119.92 611.36,-124.46"/>
</g>
<!-- Node11 -->
<g id="node11" class="node">
<title>Node11</title>
<g id="a_node11"><a xlink:href="class_export.html#ae4811e1e4212029122c0ee29613714cc" target="_top" xlink:title=" ">
<polygon fill="white" stroke="black" points="442,-95.5 442,-114.5 554,-114.5 554,-95.5 442,-95.5"/>
<text text-anchor="middle" x="498" y="-102.5" font-family="Helvetica,sans-Serif" font-size="10.00">Export::_estimation</text>
</a>
</g>
</g>
<!-- Node6&#45;&gt;Node11 -->
<g id="edge11" class="edge">
<title>Node6&#45;&gt;Node11</title>
<path fill="none" stroke="midnightblue" d="M581.92,-105C573.06,-105 563.53,-105 554.2,-105"/>
<polygon fill="midnightblue" stroke="midnightblue" points="581.97,-108.5 591.97,-105 581.97,-101.5 581.97,-108.5"/>
</g>
<!-- Node12 -->
<g id="node12" class="node">
<title>Node12</title>
<g id="a_node12"><a xlink:href="class_export.html#a26fa49d9882a342d011ba715e0c14109" target="_top" xlink:title=" ">
<polygon fill="white" stroke="black" points="296,-76.5 296,-95.5 400,-95.5 400,-76.5 296,-76.5"/>
<text text-anchor="middle" x="348" y="-83.5" font-family="Helvetica,sans-Serif" font-size="10.00">Export::_sounding</text>
</a>
</g>
</g>
<!-- Node6&#45;&gt;Node12 -->
<g id="edge18" class="edge">
<title>Node6&#45;&gt;Node12</title>
<path fill="none" stroke="midnightblue" d="M586,-92.6C576.36,-89.87 565.88,-87.38 556,-86 503.33,-78.62 442.37,-79.78 400.32,-82.06"/>
<polygon fill="midnightblue" stroke="midnightblue" points="585.11,-95.99 595.69,-95.5 587.11,-89.28 585.11,-95.99"/>
</g>
<!-- Node13 -->
<g id="node13" class="node">
<title>Node13</title>
<g id="a_node13"><a xlink:href="class_export.html#a59ba705b2369f21006ec7d7b7f3a4513" target="_top" xlink:title="Generate RIS reflection matrices.">
<polygon fill="white" stroke="black" points="440,-19.5 440,-38.5 556,-38.5 556,-19.5 440,-19.5"/>
<text text-anchor="middle" x="498" y="-26.5" font-family="Helvetica,sans-Serif" font-size="10.00">Export::_generateBF</text>
</a>
</g>
</g>
<!-- Node6&#45;&gt;Node13 -->
<g id="edge14" class="edge">
<title>Node6&#45;&gt;Node13</title>
<path fill="none" stroke="midnightblue" d="M604.2,-88.52C591.35,-77.51 573.42,-63.23 556,-53 546.56,-47.45 535.59,-42.52 525.81,-38.58"/>
<polygon fill="midnightblue" stroke="midnightblue" points="602.02,-91.27 611.85,-95.21 606.63,-86 602.02,-91.27"/>
</g>
<!-- Node14 -->
<g id="node14" class="node">
<title>Node14</title>
<g id="a_node14"><a xlink:href="class_export.html#a833aa02973f6b5c1f3e536e8646cf1ac" target="_top" xlink:title=" ">
<polygon fill="white" stroke="black" points="448,-133.5 448,-152.5 548,-152.5 548,-133.5 448,-133.5"/>
<text text-anchor="middle" x="498" y="-140.5" font-family="Helvetica,sans-Serif" font-size="10.00">Export::_loadALG</text>
</a>
</g>
</g>
<!-- Node6&#45;&gt;Node14 -->
<g id="edge16" class="edge">
<title>Node6&#45;&gt;Node14</title>
<path fill="none" stroke="midnightblue" d="M582.31,-117.37C565.34,-122.59 545.88,-128.58 530.03,-133.45"/>
<polygon fill="midnightblue" stroke="midnightblue" points="583.44,-120.68 591.97,-114.39 581.38,-113.99 583.44,-120.68"/>
</g>
<!-- Node8 -->
<g id="node8" class="node">
<title>Node8</title>
<g id="a_node8"><a xlink:href="class_export.html#affc37d1d677a83d3e5d36a4e37b7a72b" target="_top" xlink:title=" ">
<polygon fill="white" stroke="black" points="146,-95.5 146,-114.5 256,-114.5 256,-95.5 146,-95.5"/>
<text text-anchor="middle" x="201" y="-102.5" font-family="Helvetica,sans-Serif" font-size="10.00">Export::exportCode</text>
</a>
</g>
</g>
<!-- Node7&#45;&gt;Node8 -->
<g id="edge8" class="edge">
<title>Node7&#45;&gt;Node8</title>
<path fill="none" stroke="midnightblue" d="M300.51,-130.82C280.38,-125.54 257.16,-119.46 238.33,-114.52"/>
<polygon fill="midnightblue" stroke="midnightblue" points="299.85,-134.26 310.41,-133.41 301.62,-127.49 299.85,-134.26"/>
</g>
<!-- Node9 -->
<g id="node9" class="node">
<title>Node9</title>
<g id="a_node9"><a xlink:href="class_export.html#a94fab568af6ddd6447efca74e205e081" target="_top" xlink:title=" ">
<polygon fill="white" stroke="black" points="0,-114.5 0,-133.5 110,-133.5 110,-114.5 0,-114.5"/>
<text text-anchor="middle" x="55" y="-121.5" font-family="Helvetica,sans-Serif" font-size="10.00">Export::exportCode</text>
</a>
</g>
</g>
<!-- Node8&#45;&gt;Node9 -->
<g id="edge9" class="edge">
<title>Node8&#45;&gt;Node9</title>
<path fill="none" stroke="midnightblue" d="M136.01,-113.44C127.44,-114.57 118.72,-115.73 110.33,-116.83"/>
<polygon fill="midnightblue" stroke="midnightblue" points="136.51,-116.91 145.97,-112.13 135.6,-109.97 136.51,-116.91"/>
</g>
<!-- Node10 -->
<g id="node10" class="node">
<title>Node10</title>
<g id="a_node10"><a xlink:href="src_2main_8cpp.html#a0ddf1224851353fc92bfbff6f499fa97" target="_top" xlink:title=" ">
<polygon fill="white" stroke="black" points="34.5,-76.5 34.5,-95.5 75.5,-95.5 75.5,-76.5 34.5,-76.5"/>
<text text-anchor="middle" x="55" y="-83.5" font-family="Helvetica,sans-Serif" font-size="10.00">main</text>
</a>
</g>
</g>
<!-- Node8&#45;&gt;Node10 -->
<g id="edge10" class="edge">
<title>Node8&#45;&gt;Node10</title>
<path fill="none" stroke="midnightblue" d="M136.05,-96.56C114.24,-93.68 91.43,-90.67 75.76,-88.61"/>
<polygon fill="midnightblue" stroke="midnightblue" points="135.6,-100.03 145.97,-97.87 136.51,-93.09 135.6,-100.03"/>
</g>
<!-- Node11&#45;&gt;Node12 -->
<g id="edge12" class="edge">
<title>Node11&#45;&gt;Node12</title>
<path fill="none" stroke="midnightblue" d="M431.85,-96.64C421.26,-95.28 410.43,-93.89 400.24,-92.58"/>
<polygon fill="midnightblue" stroke="midnightblue" points="431.53,-100.12 441.89,-97.93 432.42,-93.18 431.53,-100.12"/>
</g>
<!-- Node12&#45;&gt;Node8 -->
<g id="edge13" class="edge">
<title>Node12&#45;&gt;Node8</title>
<path fill="none" stroke="midnightblue" d="M285.75,-94.03C275.9,-95.32 265.77,-96.64 256.1,-97.91"/>
<polygon fill="midnightblue" stroke="midnightblue" points="286.42,-97.47 295.88,-92.7 285.51,-90.53 286.42,-97.47"/>
</g>
<!-- Node13&#45;&gt;Node12 -->
<g id="edge15" class="edge">
<title>Node13&#45;&gt;Node12</title>
<path fill="none" stroke="midnightblue" d="M462.72,-42.2C435.54,-52.67 398.21,-67.05 373.85,-76.43"/>
<polygon fill="midnightblue" stroke="midnightblue" points="464.15,-45.4 472.23,-38.54 461.64,-38.87 464.15,-45.4"/>
</g>
<!-- Node14&#45;&gt;Node7 -->
<g id="edge17" class="edge">
<title>Node14&#45;&gt;Node7</title>
<path fill="none" stroke="midnightblue" d="M437.71,-143C426.65,-143 415.13,-143 404.19,-143"/>
<polygon fill="midnightblue" stroke="midnightblue" points="437.72,-146.5 447.72,-143 437.72,-139.5 437.72,-146.5"/>
</g>
<!-- Node15&#45;&gt;Node6 -->
<g id="edge25" class="edge">
<title>Node15&#45;&gt;Node6</title>
<path fill="none" stroke="midnightblue" d="M815.79,-63.03C768.53,-73.4 696.07,-89.3 655.24,-98.26"/>
<polygon fill="midnightblue" stroke="midnightblue" points="816.74,-66.4 825.76,-60.84 815.24,-59.57 816.74,-66.4"/>
</g>
<!-- Node16 -->
<g id="node16" class="node">
<title>Node16</title>
<g id="a_node16"><a xlink:href="class_type___track.html#a4548ba1c289fba60e88b0e725509219e" target="_top" xlink:title=" ">
<polygon fill="white" stroke="black" points="691,-38.5 691,-57.5 790,-57.5 790,-38.5 691,-38.5"/>
<text text-anchor="middle" x="740.5" y="-45.5" font-family="Helvetica,sans-Serif" font-size="10.00">Type_Track::push</text>
</a>
</g>
</g>
<!-- Node15&#45;&gt;Node16 -->
<g id="edge22" class="edge">
<title>Node15&#45;&gt;Node16</title>
<path fill="none" stroke="midnightblue" d="M815.82,-51.1C807.42,-50.75 798.63,-50.38 790.15,-50.03"/>
<polygon fill="midnightblue" stroke="midnightblue" points="815.68,-54.59 825.82,-51.51 815.98,-47.6 815.68,-54.59"/>
</g>
<!-- Node17 -->
<g id="node17" class="node">
<title>Node17</title>
<g id="a_node17"><a xlink:href="class_type.html#afda11a690ae44985e9f7153dfbc5eab8" target="_top" xlink:title=" ">
<polygon fill="white" stroke="black" points="704,-0.5 704,-19.5 777,-19.5 777,-0.5 704,-0.5"/>
<text text-anchor="middle" x="740.5" y="-7.5" font-family="Helvetica,sans-Serif" font-size="10.00">Type::string</text>
</a>
</g>
</g>
<!-- Node15&#45;&gt;Node17 -->
<g id="edge24" class="edge">
<title>Node15&#45;&gt;Node17</title>
<path fill="none" stroke="midnightblue" d="M825.33,-40.04C806.91,-33.44 784.9,-25.55 768.06,-19.52"/>
<polygon fill="midnightblue" stroke="midnightblue" points="824.27,-43.38 834.87,-43.46 826.63,-36.79 824.27,-43.38"/>
</g>
<!-- Node16&#45;&gt;Node6 -->
<g id="edge23" class="edge">
<title>Node16&#45;&gt;Node6</title>
<path fill="none" stroke="midnightblue" d="M710.93,-62.13C704.38,-65.37 697.45,-68.8 691,-72 675.06,-79.9 656.98,-88.87 643.7,-95.46"/>
<polygon fill="midnightblue" stroke="midnightblue" points="712.73,-65.14 720.15,-57.57 709.63,-58.87 712.73,-65.14"/>
</g>
</g>
</svg>
