<?xml version="1.0" encoding="UTF-8" standalone="no"?>
<!DOCTYPE svg PUBLIC "-//W3C//DTD SVG 1.1//EN"
 "http://www.w3.org/Graphics/SVG/1.1/DTD/svg11.dtd">
<!-- Generated by graphviz version 2.43.0 (0)
 -->
<!-- Title: Alg::write Pages: 1 -->
<svg width="703pt" height="844pt"
 viewBox="0.00 0.00 703.00 844.00" xmlns="http://www.w3.org/2000/svg" xmlns:xlink="http://www.w3.org/1999/xlink">
<g id="graph0" class="graph" transform="scale(1 1) rotate(0) translate(4 840)">
<title>Alg::write</title>
<polygon fill="white" stroke="transparent" points="-4,4 -4,-840 699,-840 699,4 -4,4"/>
<!-- Node1 -->
<g id="node1" class="node">
<title>Node1</title>
<g id="a_node1"><a xlink:title=" ">
<polygon fill="#bfbfbf" stroke="black" points="0,-323.5 0,-342.5 63,-342.5 63,-323.5 0,-323.5"/>
<text text-anchor="middle" x="31.5" y="-330.5" font-family="Helvetica,sans-Serif" font-size="10.00">Alg::write</text>
</a>
</g>
</g>
<!-- Node1&#45;&gt;Node1 -->
<g id="edge44" class="edge">
<title>Node1&#45;&gt;Node1</title>
<path fill="none" stroke="midnightblue" d="M8.07,-342.76C-3.32,-351.57 4.48,-361 31.5,-361 49.23,-361 58.69,-356.94 59.87,-351.65"/>
<polygon fill="midnightblue" stroke="midnightblue" points="62.84,-349.8 54.93,-342.76 56.73,-353.2 62.84,-349.8"/>
</g>
<!-- Node2 -->
<g id="node2" class="node">
<title>Node2</title>
<g id="a_node2"><a xlink:href="class_alg.html#a2cf2b7f4e37c8e401d9c6dad6687917d" target="_top" xlink:title=" ">
<polygon fill="white" stroke="black" points="134,-816.5 134,-835.5 234,-835.5 234,-816.5 134,-816.5"/>
<text text-anchor="middle" x="184" y="-823.5" font-family="Helvetica,sans-Serif" font-size="10.00">Alg::_wComment</text>
</a>
</g>
</g>
<!-- Node1&#45;&gt;Node2 -->
<g id="edge1" class="edge">
<title>Node1&#45;&gt;Node2</title>
<path fill="none" stroke="midnightblue" d="M32.49,-342.7C32.63,-403.33 36.34,-730.07 99,-802 105.65,-809.63 114.54,-814.92 124.06,-818.56"/>
<polygon fill="midnightblue" stroke="midnightblue" points="123.13,-821.94 133.72,-821.68 125.28,-815.28 123.13,-821.94"/>
</g>
<!-- Node3 -->
<g id="node3" class="node">
<title>Node3</title>
<g id="a_node3"><a xlink:href="class_calc.html#ad6dbdfdd4bd21322e5836ff72c11ae1b" target="_top" xlink:title="Convert the Alg CALC contents into a language command.">
<polygon fill="white" stroke="black" points="317,-608.5 317,-627.5 372,-627.5 372,-608.5 317,-608.5"/>
<text text-anchor="middle" x="344.5" y="-615.5" font-family="Helvetica,sans-Serif" font-size="10.00">Calc::as</text>
</a>
</g>
</g>
<!-- Node1&#45;&gt;Node3 -->
<g id="edge2" class="edge">
<title>Node1&#45;&gt;Node3</title>
<path fill="none" stroke="midnightblue" d="M31.91,-342.99C30.35,-379.61 30.19,-507.65 99,-571 156.12,-623.59 253.46,-625.52 306.45,-621.99"/>
<polygon fill="midnightblue" stroke="midnightblue" points="307.04,-625.45 316.74,-621.2 306.51,-618.47 307.04,-625.45"/>
</g>
<!-- Node11 -->
<g id="node11" class="node">
<title>Node11</title>
<g id="a_node11"><a xlink:href="class_type.html#abe15820e780d2f6646792d54f3ae3311" target="_top" xlink:title=" ">
<polygon fill="white" stroke="black" points="613.5,-788.5 613.5,-807.5 677.5,-807.5 677.5,-788.5 613.5,-788.5"/>
<text text-anchor="middle" x="645.5" y="-795.5" font-family="Helvetica,sans-Serif" font-size="10.00">Type::dim</text>
</a>
</g>
</g>
<!-- Node1&#45;&gt;Node11 -->
<g id="edge18" class="edge">
<title>Node1&#45;&gt;Node11</title>
<path fill="none" stroke="midnightblue" d="M32.04,-342.62C30.72,-381.05 30.7,-525.51 99,-611 227.08,-771.31 499.74,-794.79 603.37,-797.78"/>
<polygon fill="midnightblue" stroke="midnightblue" points="603.36,-801.28 613.44,-798.02 603.52,-794.28 603.36,-801.28"/>
</g>
<!-- Node13 -->
<g id="node13" class="node">
<title>Node13</title>
<g id="a_node13"><a xlink:href="class_log.html#add7e611cd3267d3fd5dae017e3aeef67" target="_top" xlink:title="Write infomation to the log file.">
<polygon fill="white" stroke="black" points="616,-456.5 616,-475.5 675,-475.5 675,-456.5 616,-456.5"/>
<text text-anchor="middle" x="645.5" y="-463.5" font-family="Helvetica,sans-Serif" font-size="10.00">Log::info</text>
</a>
</g>
</g>
<!-- Node1&#45;&gt;Node13 -->
<g id="edge21" class="edge">
<title>Node1&#45;&gt;Node13</title>
<path fill="none" stroke="midnightblue" d="M37.73,-342.76C47.35,-359.6 69.58,-393.76 99,-409 143.79,-432.2 488.13,-456.05 605.48,-463.57"/>
<polygon fill="midnightblue" stroke="midnightblue" points="605.58,-467.09 615.79,-464.23 606.03,-460.1 605.58,-467.09"/>
</g>
<!-- Node18 -->
<g id="node18" class="node">
<title>Node18</title>
<g id="a_node18"><a xlink:href="class_alg___line.html#af651454e6ddfce164626b68b2c6cba97" target="_top" xlink:title="Get the function name.">
<polygon fill="white" stroke="black" points="141.5,-380.5 141.5,-399.5 226.5,-399.5 226.5,-380.5 141.5,-380.5"/>
<text text-anchor="middle" x="184" y="-387.5" font-family="Helvetica,sans-Serif" font-size="10.00">Alg_Line::func</text>
</a>
</g>
</g>
<!-- Node1&#45;&gt;Node18 -->
<g id="edge19" class="edge">
<title>Node1&#45;&gt;Node18</title>
<path fill="none" stroke="midnightblue" d="M46.42,-342.59C59.46,-351.18 79.79,-363.53 99,-371 109.24,-374.98 120.53,-378.24 131.41,-380.87"/>
<polygon fill="midnightblue" stroke="midnightblue" points="130.73,-384.3 141.26,-383.11 132.28,-377.48 130.73,-384.3"/>
</g>
<!-- Node19 -->
<g id="node19" class="node">
<title>Node19</title>
<g id="a_node19"><a xlink:href="class_alg___line.html#a49a98870a1f09e35a3e15a7d7bab1666" target="_top" xlink:title="Check whether parameters contain the key.">
<polygon fill="white" stroke="black" points="134.5,-342.5 134.5,-361.5 233.5,-361.5 233.5,-342.5 134.5,-342.5"/>
<text text-anchor="middle" x="184" y="-349.5" font-family="Helvetica,sans-Serif" font-size="10.00">Alg_Line::hasKey</text>
</a>
</g>
</g>
<!-- Node1&#45;&gt;Node19 -->
<g id="edge20" class="edge">
<title>Node1&#45;&gt;Node19</title>
<path fill="none" stroke="midnightblue" d="M63.32,-336.89C80.91,-339.11 103.54,-341.97 124.39,-344.6"/>
<polygon fill="midnightblue" stroke="midnightblue" points="124.08,-348.09 134.44,-345.87 124.96,-341.14 124.08,-348.09"/>
</g>
<!-- Node20 -->
<g id="node20" class="node">
<title>Node20</title>
<g id="a_node20"><a xlink:href="class_alg.html#a3ee7f9963027158b3fbd442d97800111" target="_top" xlink:title=" ">
<polygon fill="white" stroke="black" points="141,-542.5 141,-561.5 227,-561.5 227,-542.5 141,-542.5"/>
<text text-anchor="middle" x="184" y="-549.5" font-family="Helvetica,sans-Serif" font-size="10.00">Alg::inlineCalc</text>
</a>
</g>
</g>
<!-- Node1&#45;&gt;Node20 -->
<g id="edge22" class="edge">
<title>Node1&#45;&gt;Node20</title>
<path fill="none" stroke="midnightblue" d="M33.27,-342.89C36.16,-373.2 48.86,-465.84 99,-518 107.86,-527.22 119.56,-534.01 131.41,-538.99"/>
<polygon fill="midnightblue" stroke="midnightblue" points="130.29,-542.31 140.89,-542.6 132.79,-535.77 130.29,-542.31"/>
</g>
<!-- Node21 -->
<g id="node21" class="node">
<title>Node21</title>
<g id="a_node21"><a xlink:href="class_alg___line.html#ad419191a99be7e34024e569ad833b04e" target="_top" xlink:title="Check whether the line is for function declaration.">
<polygon fill="white" stroke="black" points="99,-304.5 99,-323.5 269,-323.5 269,-304.5 99,-304.5"/>
<text text-anchor="middle" x="184" y="-311.5" font-family="Helvetica,sans-Serif" font-size="10.00">Alg_Line::isFunctionDeclaration</text>
</a>
</g>
</g>
<!-- Node1&#45;&gt;Node21 -->
<g id="edge24" class="edge">
<title>Node1&#45;&gt;Node21</title>
<path fill="none" stroke="midnightblue" d="M63.32,-329.11C73.4,-327.84 85.13,-326.36 97.24,-324.83"/>
<polygon fill="midnightblue" stroke="midnightblue" points="97.98,-328.26 107.46,-323.54 97.1,-321.32 97.98,-328.26"/>
</g>
<!-- Node22 -->
<g id="node22" class="node">
<title>Node22</title>
<g id="a_node22"><a xlink:href="class_alg.html#af935e64a6eb4afa4ca1540f4da3dcc9c" target="_top" xlink:title=" ">
<polygon fill="white" stroke="black" points="156,-266.5 156,-285.5 212,-285.5 212,-266.5 156,-266.5"/>
<text text-anchor="middle" x="184" y="-273.5" font-family="Helvetica,sans-Serif" font-size="10.00">Alg::line</text>
</a>
</g>
</g>
<!-- Node1&#45;&gt;Node22 -->
<g id="edge25" class="edge">
<title>Node1&#45;&gt;Node22</title>
<path fill="none" stroke="midnightblue" d="M46.42,-323.41C59.46,-314.82 79.79,-302.47 99,-295 113.95,-289.19 131.11,-284.91 146.01,-281.9"/>
<polygon fill="midnightblue" stroke="midnightblue" points="146.75,-285.33 155.92,-280.02 145.44,-278.45 146.75,-285.33"/>
</g>
<!-- Node23 -->
<g id="node23" class="node">
<title>Node23</title>
<g id="a_node23"><a xlink:href="class_alg___line.html#a4e79eb77a1cddbdab1dbdde8a499342d" target="_top" xlink:title="Parameter variables.">
<polygon fill="white" stroke="black" points="133.5,-228.5 133.5,-247.5 234.5,-247.5 234.5,-228.5 133.5,-228.5"/>
<text text-anchor="middle" x="184" y="-235.5" font-family="Helvetica,sans-Serif" font-size="10.00">Alg_Line::params</text>
</a>
</g>
</g>
<!-- Node1&#45;&gt;Node23 -->
<g id="edge26" class="edge">
<title>Node1&#45;&gt;Node23</title>
<path fill="none" stroke="midnightblue" d="M38.09,-323.33C48.09,-306.95 70.68,-273.87 99,-257 106.56,-252.5 115.08,-249.06 123.73,-246.44"/>
<polygon fill="midnightblue" stroke="midnightblue" points="124.75,-249.79 133.49,-243.81 122.93,-243.03 124.75,-249.79"/>
</g>
<!-- Node24 -->
<g id="node24" class="node">
<title>Node24</title>
<g id="a_node24"><a xlink:href="class_alg___line.html#a801b08c6c164376039a4ba4e980d039e" target="_top" xlink:title="Print Alg_Line contents (including return values, function names and parameters).">
<polygon fill="white" stroke="black" points="141,-190.5 141,-209.5 227,-209.5 227,-190.5 141,-190.5"/>
<text text-anchor="middle" x="184" y="-197.5" font-family="Helvetica,sans-Serif" font-size="10.00">Alg_Line::print</text>
</a>
</g>
</g>
<!-- Node1&#45;&gt;Node24 -->
<g id="edge27" class="edge">
<title>Node1&#45;&gt;Node24</title>
<path fill="none" stroke="midnightblue" d="M35.25,-323.25C42.04,-300.98 61.86,-246.23 99,-219 108.33,-212.16 119.69,-207.72 131,-204.86"/>
<polygon fill="midnightblue" stroke="midnightblue" points="131.84,-208.25 140.87,-202.72 130.36,-201.41 131.84,-208.25"/>
</g>
<!-- Node27 -->
<g id="node27" class="node">
<title>Node27</title>
<g id="a_node27"><a xlink:href="class_type___track.html#a4548ba1c289fba60e88b0e725509219e" target="_top" xlink:title=" ">
<polygon fill="white" stroke="black" points="134.5,-456.5 134.5,-475.5 233.5,-475.5 233.5,-456.5 134.5,-456.5"/>
<text text-anchor="middle" x="184" y="-463.5" font-family="Helvetica,sans-Serif" font-size="10.00">Type_Track::push</text>
</a>
</g>
</g>
<!-- Node1&#45;&gt;Node27 -->
<g id="edge30" class="edge">
<title>Node1&#45;&gt;Node27</title>
<path fill="none" stroke="midnightblue" d="M35.59,-342.51C42.98,-363.72 63.72,-415.15 99,-442 106.61,-447.8 115.58,-452.19 124.76,-455.53"/>
<polygon fill="midnightblue" stroke="midnightblue" points="123.77,-458.89 134.36,-458.63 125.92,-452.23 123.77,-458.89"/>
</g>
<!-- Node28 -->
<g id="node28" class="node">
<title>Node28</title>
<g id="a_node28"><a xlink:href="class_type.html#a0153b8ff39040caf3ff2a6f7c7329d7c" target="_top" xlink:title="Get the C++ type name.">
<polygon fill="white" stroke="black" points="308,-494.5 308,-513.5 381,-513.5 381,-494.5 308,-494.5"/>
<text text-anchor="middle" x="344.5" y="-501.5" font-family="Helvetica,sans-Serif" font-size="10.00">Type::string</text>
</a>
</g>
</g>
<!-- Node1&#45;&gt;Node28 -->
<g id="edge38" class="edge">
<title>Node1&#45;&gt;Node28</title>
<path fill="none" stroke="midnightblue" d="M33.39,-342.56C36.53,-370.12 49.7,-449.95 99,-485 157.4,-526.51 244.67,-521.66 297.62,-513.46"/>
<polygon fill="midnightblue" stroke="midnightblue" points="298.44,-516.87 307.74,-511.79 297.3,-509.96 298.44,-516.87"/>
</g>
<!-- Node30 -->
<g id="node30" class="node">
<title>Node30</title>
<g id="a_node30"><a xlink:href="utils_8h.html#a0465457013518e168df05799c93cfa6e" target="_top" xlink:title=" ">
<polygon fill="white" stroke="black" points="142.5,-152.5 142.5,-171.5 225.5,-171.5 225.5,-152.5 142.5,-152.5"/>
<text text-anchor="middle" x="184" y="-159.5" font-family="Helvetica,sans-Serif" font-size="10.00">removeQuote</text>
</a>
</g>
</g>
<!-- Node1&#45;&gt;Node30 -->
<g id="edge35" class="edge">
<title>Node1&#45;&gt;Node30</title>
<path fill="none" stroke="midnightblue" d="M33.71,-323.39C37.63,-296.39 52.59,-219.34 99,-181 108.46,-173.19 120.48,-168.43 132.45,-165.58"/>
<polygon fill="midnightblue" stroke="midnightblue" points="133.31,-168.97 142.43,-163.6 131.95,-162.11 133.31,-168.97"/>
</g>
<!-- Node32 -->
<g id="node32" class="node">
<title>Node32</title>
<g id="a_node32"><a xlink:href="class_alg___line.html#a8e21f6b69eaf80a2327f7308fb4299e0" target="_top" xlink:title="Return variables.">
<polygon fill="white" stroke="black" points="135,-114.5 135,-133.5 233,-133.5 233,-114.5 135,-114.5"/>
<text text-anchor="middle" x="184" y="-121.5" font-family="Helvetica,sans-Serif" font-size="10.00">Alg_Line::returns</text>
</a>
</g>
</g>
<!-- Node1&#45;&gt;Node32 -->
<g id="edge37" class="edge">
<title>Node1&#45;&gt;Node32</title>
<path fill="none" stroke="midnightblue" d="M32.78,-323.36C34.22,-292.1 43.18,-192.78 99,-143 106.29,-136.5 115.32,-132.08 124.74,-129.1"/>
<polygon fill="midnightblue" stroke="midnightblue" points="125.86,-132.43 134.64,-126.49 124.08,-125.66 125.86,-132.43"/>
</g>
<!-- Node33 -->
<g id="node33" class="node">
<title>Node33</title>
<g id="a_node33"><a xlink:href="namespacemmce.html#ad4a160832ef9fad47c531ece39752208" target="_top" xlink:title="Change a number to string.">
<polygon fill="white" stroke="black" points="136,-76.5 136,-95.5 232,-95.5 232,-76.5 136,-76.5"/>
<text text-anchor="middle" x="184" y="-83.5" font-family="Helvetica,sans-Serif" font-size="10.00">mmce::to_string</text>
</a>
</g>
</g>
<!-- Node1&#45;&gt;Node33 -->
<g id="edge39" class="edge">
<title>Node1&#45;&gt;Node33</title>
<path fill="none" stroke="midnightblue" d="M32.13,-323.49C31.34,-288.62 33.52,-166.58 99,-105 106.43,-98.01 115.87,-93.4 125.72,-90.39"/>
<polygon fill="midnightblue" stroke="midnightblue" points="126.81,-93.72 135.65,-87.89 125.1,-86.94 126.81,-93.72"/>
</g>
<!-- Node34 -->
<g id="node34" class="node">
<title>Node34</title>
<g id="a_node34"><a xlink:href="utils_8h.html#a6ef734356291c638e5787a6c668192d4" target="_top" xlink:title=" ">
<polygon fill="white" stroke="black" points="165.5,-38.5 165.5,-57.5 202.5,-57.5 202.5,-38.5 165.5,-38.5"/>
<text text-anchor="middle" x="184" y="-45.5" font-family="Helvetica,sans-Serif" font-size="10.00">trim</text>
</a>
</g>
</g>
<!-- Node1&#45;&gt;Node34 -->
<g id="edge40" class="edge">
<title>Node1&#45;&gt;Node34</title>
<path fill="none" stroke="midnightblue" d="M33.57,-323.32C38.56,-279.97 60.88,-104.27 99,-67 113.75,-52.58 136.99,-48.19 155.29,-47.2"/>
<polygon fill="midnightblue" stroke="midnightblue" points="155.48,-50.69 165.39,-46.96 155.31,-43.69 155.48,-50.69"/>
</g>
<!-- Node37 -->
<g id="node37" class="node">
<title>Node37</title>
<g id="a_node37"><a xlink:href="class_log.html#a3410828f35c9bf8dd0771ead28de27b0" target="_top" xlink:title="Write contents to the log file.">
<polygon fill="white" stroke="black" points="151.5,-0.5 151.5,-19.5 216.5,-19.5 216.5,-0.5 151.5,-0.5"/>
<text text-anchor="middle" x="184" y="-7.5" font-family="Helvetica,sans-Serif" font-size="10.00">Log::write</text>
</a>
</g>
</g>
<!-- Node1&#45;&gt;Node37 -->
<g id="edge43" class="edge">
<title>Node1&#45;&gt;Node37</title>
<path fill="none" stroke="midnightblue" d="M33.25,-323.24C37.09,-276.08 55.99,-72.32 99,-29 109.96,-17.97 125.87,-12.76 140.91,-10.47"/>
<polygon fill="midnightblue" stroke="midnightblue" points="141.57,-13.92 151.11,-9.31 140.78,-6.96 141.57,-13.92"/>
</g>
<!-- Node4 -->
<g id="node4" class="node">
<title>Node4</title>
<g id="a_node4"><a xlink:href="class_calc.html#af1d1bd5e83f9e5196627f5a4e1a5ee83" target="_top" xlink:title=" ">
<polygon fill="white" stroke="black" points="427.5,-532.5 427.5,-551.5 552.5,-551.5 552.5,-532.5 427.5,-532.5"/>
<text text-anchor="middle" x="490" y="-539.5" font-family="Helvetica,sans-Serif" font-size="10.00">Calc::_changeFunction</text>
</a>
</g>
</g>
<!-- Node3&#45;&gt;Node4 -->
<g id="edge3" class="edge">
<title>Node3&#45;&gt;Node4</title>
<path fill="none" stroke="midnightblue" d="M363.67,-608.37C388.47,-595.24 433.11,-571.6 461.88,-556.36"/>
<polygon fill="midnightblue" stroke="midnightblue" points="463.77,-559.32 470.97,-551.55 460.5,-553.13 463.77,-559.32"/>
</g>
<!-- Node7 -->
<g id="node7" class="node">
<title>Node7</title>
<g id="a_node7"><a xlink:href="class_calc.html#ae3d88bd40f9bdf2c8ec92c426bdca446" target="_top" xlink:title=" ">
<polygon fill="white" stroke="black" points="426.5,-646.5 426.5,-665.5 553.5,-665.5 553.5,-646.5 426.5,-646.5"/>
<text text-anchor="middle" x="490" y="-653.5" font-family="Helvetica,sans-Serif" font-size="10.00">Calc::_changeOperator</text>
</a>
</g>
</g>
<!-- Node3&#45;&gt;Node7 -->
<g id="edge6" class="edge">
<title>Node3&#45;&gt;Node7</title>
<path fill="none" stroke="midnightblue" d="M372.15,-625.06C392.08,-630.34 419.82,-637.68 443.27,-643.89"/>
<polygon fill="midnightblue" stroke="midnightblue" points="442.45,-647.29 453.02,-646.47 444.25,-640.53 442.45,-647.29"/>
</g>
<!-- Node8 -->
<g id="node8" class="node">
<title>Node8</title>
<g id="a_node8"><a xlink:href="class_calc.html#ad95be528148e0d63848d5fa916b93200" target="_top" xlink:title=" ">
<polygon fill="white" stroke="black" points="434.5,-608.5 434.5,-627.5 545.5,-627.5 545.5,-608.5 434.5,-608.5"/>
<text text-anchor="middle" x="490" y="-615.5" font-family="Helvetica,sans-Serif" font-size="10.00">Calc::_changeParen</text>
</a>
</g>
</g>
<!-- Node3&#45;&gt;Node8 -->
<g id="edge7" class="edge">
<title>Node3&#45;&gt;Node8</title>
<path fill="none" stroke="midnightblue" d="M372.15,-618C386.86,-618 405.81,-618 424.16,-618"/>
<polygon fill="midnightblue" stroke="midnightblue" points="424.25,-621.5 434.25,-618 424.25,-614.5 424.25,-621.5"/>
</g>
<!-- Node9 -->
<g id="node9" class="node">
<title>Node9</title>
<g id="a_node9"><a xlink:href="class_calc.html#ad562619fef96a73cd3b4c27b35bc5f91" target="_top" xlink:title=" ">
<polygon fill="white" stroke="black" points="425,-722.5 425,-741.5 555,-741.5 555,-722.5 425,-722.5"/>
<text text-anchor="middle" x="490" y="-729.5" font-family="Helvetica,sans-Serif" font-size="10.00">Calc::_changeSubScript</text>
</a>
</g>
</g>
<!-- Node3&#45;&gt;Node9 -->
<g id="edge8" class="edge">
<title>Node3&#45;&gt;Node9</title>
<path fill="none" stroke="midnightblue" d="M350.38,-627.75C360.56,-647.09 385.98,-690.35 420,-713 423.08,-715.05 426.37,-716.88 429.79,-718.51"/>
<polygon fill="midnightblue" stroke="midnightblue" points="428.49,-721.76 439.07,-722.39 431.19,-715.3 428.49,-721.76"/>
</g>
<!-- Node17 -->
<g id="node17" class="node">
<title>Node17</title>
<g id="a_node17"><a xlink:href="class_calc.html#a1aec4748092712e0995c0ae5dabbf54f" target="_top" xlink:title=" ">
<polygon fill="white" stroke="black" points="420,-684.5 420,-703.5 560,-703.5 560,-684.5 420,-684.5"/>
<text text-anchor="middle" x="490" y="-691.5" font-family="Helvetica,sans-Serif" font-size="10.00">Calc::_changeSuperScript</text>
</a>
</g>
</g>
<!-- Node3&#45;&gt;Node17 -->
<g id="edge17" class="edge">
<title>Node3&#45;&gt;Node17</title>
<path fill="none" stroke="midnightblue" d="M355.72,-627.92C369.32,-640.59 394.62,-662.4 420,-675 424.61,-677.29 429.54,-679.34 434.56,-681.16"/>
<polygon fill="midnightblue" stroke="midnightblue" points="433.67,-684.55 444.26,-684.39 435.88,-677.91 433.67,-684.55"/>
</g>
<!-- Node5 -->
<g id="node5" class="node">
<title>Node5</title>
<g id="a_node5"><a xlink:href="class_calc.html#a7d793eba0a7c9fcbafec4310359f165d" target="_top" xlink:title=" ">
<polygon fill="white" stroke="black" points="599,-503.5 599,-522.5 692,-522.5 692,-503.5 599,-503.5"/>
<text text-anchor="middle" x="645.5" y="-510.5" font-family="Helvetica,sans-Serif" font-size="10.00">Calc::_addArma</text>
</a>
</g>
</g>
<!-- Node4&#45;&gt;Node5 -->
<g id="edge4" class="edge">
<title>Node4&#45;&gt;Node5</title>
<path fill="none" stroke="midnightblue" d="M541.69,-532.42C556.8,-529.57 573.45,-526.42 588.86,-523.51"/>
<polygon fill="midnightblue" stroke="midnightblue" points="589.61,-526.93 598.78,-521.64 588.31,-520.05 589.61,-526.93"/>
</g>
<!-- Node6 -->
<g id="node6" class="node">
<title>Node6</title>
<g id="a_node6"><a xlink:href="class_calc.html#af58cd6a2174e577a6246366de03b949e" target="_top" xlink:title=" ">
<polygon fill="white" stroke="black" points="597,-541.5 597,-560.5 694,-560.5 694,-541.5 597,-541.5"/>
<text text-anchor="middle" x="645.5" y="-548.5" font-family="Helvetica,sans-Serif" font-size="10.00">Calc::_addMmce</text>
</a>
</g>
</g>
<!-- Node4&#45;&gt;Node6 -->
<g id="edge5" class="edge">
<title>Node4&#45;&gt;Node6</title>
<path fill="none" stroke="midnightblue" d="M552.55,-545.61C563.79,-546.27 575.48,-546.95 586.61,-547.61"/>
<polygon fill="midnightblue" stroke="midnightblue" points="586.45,-551.1 596.64,-548.19 586.86,-544.11 586.45,-551.1"/>
</g>
<!-- Node9&#45;&gt;Node9 -->
<g id="edge9" class="edge">
<title>Node9&#45;&gt;Node9</title>
<path fill="none" stroke="midnightblue" d="M467.81,-741.76C457.01,-750.57 464.41,-760 490,-760 506.8,-760 515.76,-755.94 516.88,-750.65"/>
<polygon fill="midnightblue" stroke="midnightblue" points="519.95,-748.97 512.19,-741.76 513.76,-752.24 519.95,-748.97"/>
</g>
<!-- Node10 -->
<g id="node10" class="node">
<title>Node10</title>
<g id="a_node10"><a xlink:href="class_calc.html#a284818e83b0d85bdd029f3d72d4ef0bd" target="_top" xlink:title=" ">
<polygon fill="white" stroke="black" points="610.5,-674.5 610.5,-693.5 680.5,-693.5 680.5,-674.5 610.5,-674.5"/>
<text text-anchor="middle" x="645.5" y="-681.5" font-family="Helvetica,sans-Serif" font-size="10.00">Calc::_msg</text>
</a>
</g>
</g>
<!-- Node9&#45;&gt;Node10 -->
<g id="edge10" class="edge">
<title>Node9&#45;&gt;Node10</title>
<path fill="none" stroke="midnightblue" d="M527.29,-722.46C537.88,-719.56 549.43,-716.26 560,-713 575.89,-708.09 593.3,-702.2 608.16,-697.02"/>
<polygon fill="midnightblue" stroke="midnightblue" points="609.72,-700.18 618,-693.57 607.4,-693.58 609.72,-700.18"/>
</g>
<!-- Node9&#45;&gt;Node11 -->
<g id="edge11" class="edge">
<title>Node9&#45;&gt;Node11</title>
<path fill="none" stroke="midnightblue" d="M511.79,-741.66C532.88,-751.37 566.53,-766.64 596,-779 600.46,-780.87 605.17,-782.79 609.83,-784.65"/>
<polygon fill="midnightblue" stroke="midnightblue" points="608.65,-787.95 619.24,-788.36 611.22,-781.44 608.65,-787.95"/>
</g>
<!-- Node12 -->
<g id="node12" class="node">
<title>Node12</title>
<g id="a_node12"><a xlink:href="class_log.html#ac7147942832455398ad289b706a02616" target="_top" xlink:title="Write error message to the log file.">
<polygon fill="white" stroke="black" points="619,-636.5 619,-655.5 672,-655.5 672,-636.5 619,-636.5"/>
<text text-anchor="middle" x="645.5" y="-643.5" font-family="Helvetica,sans-Serif" font-size="10.00">Log::err</text>
</a>
</g>
</g>
<!-- Node9&#45;&gt;Node12 -->
<g id="edge12" class="edge">
<title>Node9&#45;&gt;Node12</title>
<path fill="none" stroke="midnightblue" d="M541.37,-722.37C547.95,-719.92 554.35,-716.85 560,-713 582.04,-697.99 574.78,-681.15 596,-665 600.12,-661.86 604.83,-659.18 609.65,-656.9"/>
<polygon fill="midnightblue" stroke="midnightblue" points="611.07,-660.1 618.94,-653.01 608.37,-653.65 611.07,-660.1"/>
</g>
<!-- Node9&#45;&gt;Node13 -->
<g id="edge13" class="edge">
<title>Node9&#45;&gt;Node13</title>
<path fill="none" stroke="midnightblue" d="M548.05,-722.32C552.51,-719.85 556.59,-716.79 560,-713 625.96,-639.66 539.89,-575.13 596,-494 599.63,-488.75 604.59,-484.36 609.95,-480.72"/>
<polygon fill="midnightblue" stroke="midnightblue" points="611.75,-483.72 618.58,-475.61 608.19,-477.69 611.75,-483.72"/>
</g>
<!-- Node14 -->
<g id="node14" class="node">
<title>Node14</title>
<g id="a_node14"><a xlink:href="utils_8h.html#aa0a3ba0e1cec6f6b77334767af46eef7" target="_top" xlink:title="Check if the string is an unsigned integer.">
<polygon fill="white" stroke="black" points="623,-750.5 623,-769.5 668,-769.5 668,-750.5 623,-750.5"/>
<text text-anchor="middle" x="645.5" y="-757.5" font-family="Helvetica,sans-Serif" font-size="10.00">isUInt</text>
</a>
</g>
</g>
<!-- Node9&#45;&gt;Node14 -->
<g id="edge14" class="edge">
<title>Node9&#45;&gt;Node14</title>
<path fill="none" stroke="midnightblue" d="M543.4,-741.56C566.37,-745.75 592.58,-750.53 612.56,-754.17"/>
<polygon fill="midnightblue" stroke="midnightblue" points="612.21,-757.67 622.68,-756.02 613.47,-750.78 612.21,-757.67"/>
</g>
<!-- Node15 -->
<g id="node15" class="node">
<title>Node15</title>
<g id="a_node15"><a xlink:href="class_type.html#a836b463aa4740a234e0d304ed4cd958f" target="_top" xlink:title=" ">
<polygon fill="white" stroke="black" points="596,-594.5 596,-613.5 695,-613.5 695,-594.5 596,-594.5"/>
<text text-anchor="middle" x="645.5" y="-601.5" font-family="Helvetica,sans-Serif" font-size="10.00">Type::isUnknown</text>
</a>
</g>
</g>
<!-- Node9&#45;&gt;Node15 -->
<g id="edge15" class="edge">
<title>Node9&#45;&gt;Node15</title>
<path fill="none" stroke="midnightblue" d="M545.11,-722.4C550.52,-719.94 555.62,-716.86 560,-713 591.11,-685.63 567.39,-656.97 596,-627 599.12,-623.73 602.81,-620.87 606.73,-618.38"/>
<polygon fill="midnightblue" stroke="midnightblue" points="608.48,-621.41 615.56,-613.53 605.11,-615.28 608.48,-621.41"/>
</g>
<!-- Node16 -->
<g id="node16" class="node">
<title>Node16</title>
<g id="a_node16"><a xlink:href="class_type___track.html#ab510214767b1b4d71e3beadecb814bb7" target="_top" xlink:title=" ">
<polygon fill="white" stroke="black" points="598,-712.5 598,-731.5 693,-731.5 693,-712.5 598,-712.5"/>
<text text-anchor="middle" x="645.5" y="-719.5" font-family="Helvetica,sans-Serif" font-size="10.00">Type_Track::size</text>
</a>
</g>
</g>
<!-- Node9&#45;&gt;Node16 -->
<g id="edge16" class="edge">
<title>Node9&#45;&gt;Node16</title>
<path fill="none" stroke="midnightblue" d="M555.21,-727.82C566.04,-727.11 577.22,-726.38 587.84,-725.69"/>
<polygon fill="midnightblue" stroke="midnightblue" points="588.07,-729.18 597.83,-725.04 587.62,-722.2 588.07,-729.18"/>
</g>
<!-- Node20&#45;&gt;Node3 -->
<g id="edge23" class="edge">
<title>Node20&#45;&gt;Node3</title>
<path fill="none" stroke="midnightblue" d="M208.05,-561.6C235.24,-572.92 280.62,-591.82 311.29,-604.59"/>
<polygon fill="midnightblue" stroke="midnightblue" points="310.1,-607.89 320.68,-608.5 312.8,-601.42 310.1,-607.89"/>
</g>
<!-- Node25 -->
<g id="node25" class="node">
<title>Node25</title>
<g id="a_node25"><a xlink:href="functions_8h.html#ac9dc58cb94b7547813c3a35154d97d18" target="_top" xlink:title=" ">
<polygon fill="white" stroke="black" points="305,-190.5 305,-209.5 384,-209.5 384,-190.5 305,-190.5"/>
<text text-anchor="middle" x="344.5" y="-197.5" font-family="Helvetica,sans-Serif" font-size="10.00">isFuncNoEnd</text>
</a>
</g>
</g>
<!-- Node24&#45;&gt;Node25 -->
<g id="edge28" class="edge">
<title>Node24&#45;&gt;Node25</title>
<path fill="none" stroke="midnightblue" d="M227.06,-200C247.79,-200 272.91,-200 294.5,-200"/>
<polygon fill="midnightblue" stroke="midnightblue" points="294.78,-203.5 304.78,-200 294.78,-196.5 294.78,-203.5"/>
</g>
<!-- Node26 -->
<g id="node26" class="node">
<title>Node26</title>
<g id="a_node26"><a xlink:href="utils_8h.html#af11c7cca5b9ad860da4bdb556dce3234" target="_top" xlink:title=" ">
<polygon fill="white" stroke="black" points="461,-190.5 461,-209.5 519,-209.5 519,-190.5 461,-190.5"/>
<text text-anchor="middle" x="490" y="-197.5" font-family="Helvetica,sans-Serif" font-size="10.00">contains</text>
</a>
</g>
</g>
<!-- Node25&#45;&gt;Node26 -->
<g id="edge29" class="edge">
<title>Node25&#45;&gt;Node26</title>
<path fill="none" stroke="midnightblue" d="M384.33,-200C404.83,-200 429.91,-200 450.37,-200"/>
<polygon fill="midnightblue" stroke="midnightblue" points="450.61,-203.5 460.61,-200 450.61,-196.5 450.61,-203.5"/>
</g>
<!-- Node27&#45;&gt;Node13 -->
<g id="edge31" class="edge">
<title>Node27&#45;&gt;Node13</title>
<path fill="none" stroke="midnightblue" d="M233.74,-466C325.55,-466 522.39,-466 605.83,-466"/>
<polygon fill="midnightblue" stroke="midnightblue" points="605.9,-469.5 615.9,-466 605.9,-462.5 605.9,-469.5"/>
</g>
<!-- Node27&#45;&gt;Node28 -->
<g id="edge32" class="edge">
<title>Node27&#45;&gt;Node28</title>
<path fill="none" stroke="midnightblue" d="M225,-475.59C247.2,-480.91 274.91,-487.56 297.95,-493.08"/>
<polygon fill="midnightblue" stroke="midnightblue" points="297.3,-496.52 307.84,-495.45 298.93,-489.72 297.3,-496.52"/>
</g>
<!-- Node28&#45;&gt;Node15 -->
<g id="edge34" class="edge">
<title>Node28&#45;&gt;Node15</title>
<path fill="none" stroke="midnightblue" d="M355.12,-513.79C368.44,-526.73 393.84,-549.28 420,-561 473.03,-584.76 538.84,-595.4 585.47,-600.17"/>
<polygon fill="midnightblue" stroke="midnightblue" points="585.41,-603.68 595.7,-601.15 586.08,-596.71 585.41,-603.68"/>
</g>
<!-- Node29 -->
<g id="node29" class="node">
<title>Node29</title>
<g id="a_node29"><a xlink:href="class_type.html#a5b8adffb334040c53940ecf814ebcc65" target="_top" xlink:title=" ">
<polygon fill="white" stroke="black" points="442.5,-494.5 442.5,-513.5 537.5,-513.5 537.5,-494.5 442.5,-494.5"/>
<text text-anchor="middle" x="490" y="-501.5" font-family="Helvetica,sans-Serif" font-size="10.00">Type::_getString</text>
</a>
</g>
</g>
<!-- Node28&#45;&gt;Node29 -->
<g id="edge33" class="edge">
<title>Node28&#45;&gt;Node29</title>
<path fill="none" stroke="midnightblue" d="M381.34,-504C396.6,-504 414.79,-504 431.82,-504"/>
<polygon fill="midnightblue" stroke="midnightblue" points="432.25,-507.5 442.25,-504 432.25,-500.5 432.25,-507.5"/>
</g>
<!-- Node31 -->
<g id="node31" class="node">
<title>Node31</title>
<g id="a_node31"><a xlink:href="utils_8h.html#aaaee605fe46abaa420448438d89b22ed" target="_top" xlink:title=" ">
<polygon fill="white" stroke="black" points="314.5,-152.5 314.5,-171.5 374.5,-171.5 374.5,-152.5 314.5,-152.5"/>
<text text-anchor="middle" x="344.5" y="-159.5" font-family="Helvetica,sans-Serif" font-size="10.00">isQuoted</text>
</a>
</g>
</g>
<!-- Node30&#45;&gt;Node31 -->
<g id="edge36" class="edge">
<title>Node30&#45;&gt;Node31</title>
<path fill="none" stroke="midnightblue" d="M225.82,-162C249.95,-162 280.35,-162 304.21,-162"/>
<polygon fill="midnightblue" stroke="midnightblue" points="304.33,-165.5 314.33,-162 304.33,-158.5 304.33,-165.5"/>
</g>
<!-- Node35 -->
<g id="node35" class="node">
<title>Node35</title>
<g id="a_node35"><a xlink:href="utils_8h.html#a47084ee818936eef3c48be492c0e860f" target="_top" xlink:title=" ">
<polygon fill="white" stroke="black" points="324.5,-19.5 324.5,-38.5 364.5,-38.5 364.5,-19.5 324.5,-19.5"/>
<text text-anchor="middle" x="344.5" y="-26.5" font-family="Helvetica,sans-Serif" font-size="10.00">ltrim</text>
</a>
</g>
</g>
<!-- Node34&#45;&gt;Node35 -->
<g id="edge41" class="edge">
<title>Node34&#45;&gt;Node35</title>
<path fill="none" stroke="midnightblue" d="M202.57,-45.89C229.51,-42.66 281.33,-36.45 314.07,-32.53"/>
<polygon fill="midnightblue" stroke="midnightblue" points="314.86,-35.96 324.38,-31.29 314.03,-29.01 314.86,-35.96"/>
</g>
<!-- Node36 -->
<g id="node36" class="node">
<title>Node36</title>
<g id="a_node36"><a xlink:href="utils_8h.html#af6d6bd5c29782e3b958b5f7c0d1ea9e3" target="_top" xlink:title=" ">
<polygon fill="white" stroke="black" points="324,-57.5 324,-76.5 365,-76.5 365,-57.5 324,-57.5"/>
<text text-anchor="middle" x="344.5" y="-64.5" font-family="Helvetica,sans-Serif" font-size="10.00">rtrim</text>
</a>
</g>
</g>
<!-- Node34&#45;&gt;Node36 -->
<g id="edge42" class="edge">
<title>Node34&#45;&gt;Node36</title>
<path fill="none" stroke="midnightblue" d="M202.57,-50.11C229.36,-53.32 280.77,-59.48 313.54,-63.41"/>
<polygon fill="midnightblue" stroke="midnightblue" points="313.53,-66.93 323.87,-64.65 314.36,-59.98 313.53,-66.93"/>
</g>
</g>
</svg>
