<?xml version="1.0" encoding="UTF-8" standalone="no"?>
<!DOCTYPE svg PUBLIC "-//W3C//DTD SVG 1.1//EN"
 "http://www.w3.org/Graphics/SVG/1.1/DTD/svg11.dtd">
<!-- Generated by graphviz version 2.43.0 (0)
 -->
<!-- Title: Config::edit Pages: 1 -->
<svg width="383pt" height="85pt"
 viewBox="0.00 0.00 383.00 85.00" xmlns="http://www.w3.org/2000/svg" xmlns:xlink="http://www.w3.org/1999/xlink">
<g id="graph0" class="graph" transform="scale(1 1) rotate(0) translate(4 81)">
<title>Config::edit</title>
<polygon fill="white" stroke="transparent" points="-4,4 -4,-81 379,-81 379,4 -4,4"/>
<!-- Node1 -->
<g id="node1" class="node">
<title>Node1</title>
<g id="a_node1"><a xlink:title=" ">
<polygon fill="#bfbfbf" stroke="black" points="0,-38.5 0,-57.5 72,-57.5 72,-38.5 0,-38.5"/>
<text text-anchor="middle" x="36" y="-45.5" font-family="Helvetica,sans-Serif" font-size="10.00">Config::edit</text>
</a>
</g>
</g>
<!-- Node2 -->
<g id="node2" class="node">
<title>Node2</title>
<g id="a_node2"><a xlink:href="class_config.html#af93e3fef79689ca4feaaeb45aae2645e" target="_top" xlink:title="Set the key value.">
<polygon fill="white" stroke="black" points="113,-57.5 113,-76.5 181,-76.5 181,-57.5 113,-57.5"/>
<text text-anchor="middle" x="147" y="-64.5" font-family="Helvetica,sans-Serif" font-size="10.00">Config::set</text>
</a>
</g>
</g>
<!-- Node1&#45;&gt;Node2 -->
<g id="edge1" class="edge">
<title>Node1&#45;&gt;Node2</title>
<path fill="none" stroke="midnightblue" d="M72.09,-54.12C81.89,-55.82 92.66,-57.7 102.86,-59.48"/>
<polygon fill="midnightblue" stroke="midnightblue" points="102.38,-62.95 112.83,-61.22 103.58,-56.05 102.38,-62.95"/>
</g>
<!-- Node4 -->
<g id="node4" class="node">
<title>Node4</title>
<g id="a_node4"><a xlink:href="class_config.html#a4a54bc469b3d615089ee1df7b549c60b" target="_top" xlink:title=" ">
<polygon fill="white" stroke="black" points="108,-19.5 108,-38.5 186,-38.5 186,-19.5 108,-19.5"/>
<text text-anchor="middle" x="147" y="-26.5" font-family="Helvetica,sans-Serif" font-size="10.00">Config::write</text>
</a>
</g>
</g>
<!-- Node1&#45;&gt;Node4 -->
<g id="edge3" class="edge">
<title>Node1&#45;&gt;Node4</title>
<path fill="none" stroke="midnightblue" d="M72.09,-41.88C80.32,-40.45 89.23,-38.9 97.92,-37.38"/>
<polygon fill="midnightblue" stroke="midnightblue" points="98.71,-40.8 107.96,-35.63 97.51,-33.9 98.71,-40.8"/>
</g>
<!-- Node3 -->
<g id="node3" class="node">
<title>Node3</title>
<g id="a_node3"><a xlink:href="utils_8h.html#af11c7cca5b9ad860da4bdb556dce3234" target="_top" xlink:title=" ">
<polygon fill="white" stroke="black" points="222,-57.5 222,-76.5 280,-76.5 280,-57.5 222,-57.5"/>
<text text-anchor="middle" x="251" y="-64.5" font-family="Helvetica,sans-Serif" font-size="10.00">contains</text>
</a>
</g>
</g>
<!-- Node2&#45;&gt;Node3 -->
<g id="edge2" class="edge">
<title>Node2&#45;&gt;Node3</title>
<path fill="none" stroke="midnightblue" d="M181.12,-67C190.87,-67 201.63,-67 211.69,-67"/>
<polygon fill="midnightblue" stroke="midnightblue" points="211.84,-70.5 221.84,-67 211.84,-63.5 211.84,-70.5"/>
</g>
<!-- Node5 -->
<g id="node5" class="node">
<title>Node5</title>
<g id="a_node5"><a xlink:href="utils_8h.html#a4b2e6c6245b704aeb7448bf62b1cf422" target="_top" xlink:title=" ">
<polygon fill="white" stroke="black" points="224.5,-19.5 224.5,-38.5 277.5,-38.5 277.5,-19.5 224.5,-19.5"/>
<text text-anchor="middle" x="251" y="-26.5" font-family="Helvetica,sans-Serif" font-size="10.00">dataDir</text>
</a>
</g>
</g>
<!-- Node4&#45;&gt;Node5 -->
<g id="edge4" class="edge">
<title>Node4&#45;&gt;Node5</title>
<path fill="none" stroke="midnightblue" d="M186.27,-29C195.37,-29 205.05,-29 214.04,-29"/>
<polygon fill="midnightblue" stroke="midnightblue" points="214.21,-32.5 224.21,-29 214.21,-25.5 214.21,-32.5"/>
</g>
<!-- Node6 -->
<g id="node6" class="node">
<title>Node6</title>
<g id="a_node6"><a xlink:href="utils_8h.html#a49dc116689f1a4202be4d3f0743b1f70" target="_top" xlink:title=" ">
<polygon fill="white" stroke="black" points="321,-38.5 321,-57.5 370,-57.5 370,-38.5 321,-38.5"/>
<text text-anchor="middle" x="345.5" y="-45.5" font-family="Helvetica,sans-Serif" font-size="10.00">appDir</text>
</a>
</g>
</g>
<!-- Node5&#45;&gt;Node6 -->
<g id="edge5" class="edge">
<title>Node5&#45;&gt;Node6</title>
<path fill="none" stroke="midnightblue" d="M277.77,-34.29C287.98,-36.39 299.85,-38.83 310.73,-41.06"/>
<polygon fill="midnightblue" stroke="midnightblue" points="310.27,-44.54 320.77,-43.13 311.68,-37.69 310.27,-44.54"/>
</g>
<!-- Node7 -->
<g id="node7" class="node">
<title>Node7</title>
<g id="a_node7"><a xlink:href="utils_8h.html#a86caea3b83de102899d12b4100e61c1d" target="_top" xlink:title=" ">
<polygon fill="white" stroke="black" points="316,-0.5 316,-19.5 375,-19.5 375,-0.5 316,-0.5"/>
<text text-anchor="middle" x="345.5" y="-7.5" font-family="Helvetica,sans-Serif" font-size="10.00">homeDir</text>
</a>
</g>
</g>
<!-- Node5&#45;&gt;Node7 -->
<g id="edge6" class="edge">
<title>Node5&#45;&gt;Node7</title>
<path fill="none" stroke="midnightblue" d="M277.77,-23.71C286.48,-21.92 296.41,-19.88 305.9,-17.93"/>
<polygon fill="midnightblue" stroke="midnightblue" points="306.86,-21.31 315.95,-15.86 305.45,-14.45 306.86,-21.31"/>
</g>
</g>
</svg>
