<?xml version="1.0" encoding="UTF-8" standalone="no"?>
<!DOCTYPE svg PUBLIC "-//W3C//DTD SVG 1.1//EN"
 "http://www.w3.org/Graphics/SVG/1.1/DTD/svg11.dtd">
<!-- Generated by graphviz version 2.43.0 (0)
 -->
<!-- Title: Log::war Pages: 1 -->
<!--zoomable 66 -->
<svg id="main" version="1.1" xmlns="http://www.w3.org/2000/svg" xmlns:xlink="http://www.w3.org/1999/xlink" xml:space="preserve" onload="init(evt)">
<style type="text/css"><![CDATA[
.edge:hover path { stroke: red; }
.edge:hover polygon { stroke: red; fill: red; }
]]></style>
<script type="text/javascript"><![CDATA[
var edges = document.getElementsByTagName('g');
if (edges && edges.length) {
  for (var i=0;i<edges.length;i++) {
    if (edges[i].id.substr(0,4)=='edge') {
      edges[i].setAttribute('class','edge');
    }
  }
}
]]></script>
        <defs>
                <circle id="rim" cx="0" cy="0" r="7"/>
                <circle id="rim2" cx="0" cy="0" r="3.5"/>
                <g id="zoomPlus">
                        <use xlink:href="#rim" fill="#404040">
                                <set attributeName="fill" to="#808080" begin="zoomplus.mouseover" end="zoomplus.mouseout"/>
                        </use>
                        <path d="M-4,0h8M0,-4v8" fill="none" stroke="white" stroke-width="1.5" pointer-events="none"/>
                </g>
                <g id="zoomMin">
                        <use xlink:href="#rim" fill="#404040">
                                <set attributeName="fill" to="#808080" begin="zoomminus.mouseover" end="zoomminus.mouseout"/>
                        </use>
                        <path d="M-4,0h8" fill="none" stroke="white" stroke-width="1.5" pointer-events="none"/>
                </g>
                <g id="dirArrow">
                        <path fill="none" stroke="white" stroke-width="1.5" d="M0,-3.0v7 M-2.5,-0.5L0,-3.0L2.5,-0.5"/>
                </g>
               <g id="resetDef">
                       <use xlink:href="#rim2" fill="#404040">
                               <set attributeName="fill" to="#808080" begin="reset.mouseover" end="reset.mouseout"/>
                       </use>
               </g>
        </defs>

<script type="text/javascript">
var viewWidth = 845;
var viewHeight = 66;
var sectionId = 'dynsection-4';
</script>
<script xlink:href="svgpan.js"/>
<svg id="graph" class="graph">
<g id="viewport">
<title>Log::war</title>
<polygon fill="white" stroke="transparent" points="-4,4 -4,-62 841,-62 841,4 -4,4"/>
<!-- Node1 -->
<g id="node1" class="node">
<title>Node1</title>
<g id="a_node1"><a xlink:title="Write warning message to the log file.">
<polygon fill="#bfbfbf" stroke="black" points="779,-19.5 779,-38.5 837,-38.5 837,-19.5 779,-19.5"/>
<text text-anchor="middle" x="808" y="-26.5" font-family="Helvetica,sans-Serif" font-size="10.00">Log::war</text>
</a>
</g>
</g>
<!-- Node2 -->
<g id="node2" class="node">
<title>Node2</title>
<g id="a_node2"><a xlink:href="class_export.html#a966a54f05ada435d6d1ce6e4a9750f41" target="_top" xlink:title=" ">
<polygon fill="white" stroke="black" points="576,-19.5 576,-38.5 743,-38.5 743,-19.5 576,-19.5"/>
<text text-anchor="middle" x="659.5" y="-26.5" font-family="Helvetica,sans-Serif" font-size="10.00">Export::_checkALGdependency</text>
</a>
</g>
</g>
<!-- Node1&#45;&gt;Node2 -->
<g id="edge1" class="edge">
<title>Node1&#45;&gt;Node2</title>
<path fill="none" stroke="midnightblue" d="M768.75,-29C760.79,-29 752.11,-29 743.24,-29"/>
<polygon fill="midnightblue" stroke="midnightblue" points="768.75,-32.5 778.75,-29 768.75,-25.5 768.75,-32.5"/>
</g>
<!-- Node3 -->
<g id="node3" class="node">
<title>Node3</title>
<g id="a_node3"><a xlink:href="class_export.html#a833aa02973f6b5c1f3e536e8646cf1ac" target="_top" xlink:title=" ">
<polygon fill="white" stroke="black" points="440,-38.5 440,-57.5 540,-57.5 540,-38.5 440,-38.5"/>
<text text-anchor="middle" x="490" y="-45.5" font-family="Helvetica,sans-Serif" font-size="10.00">Export::_loadALG</text>
</a>
</g>
</g>
<!-- Node2&#45;&gt;Node3 -->
<g id="edge2" class="edge">
<title>Node2&#45;&gt;Node3</title>
<path fill="none" stroke="midnightblue" d="M565.74,-39.52C556.92,-40.52 548.24,-41.51 540.09,-42.43"/>
<polygon fill="midnightblue" stroke="midnightblue" points="566.19,-42.99 575.73,-38.39 565.4,-36.04 566.19,-42.99"/>
</g>
<!-- Node8 -->
<g id="node8" class="node">
<title>Node8</title>
<g id="a_node8"><a xlink:href="class_export.html#af64597af0c0b4cf569f96216bcd23b2c" target="_top" xlink:title=" ">
<polygon fill="white" stroke="black" points="296,-0.5 296,-19.5 400,-19.5 400,-0.5 296,-0.5"/>
<text text-anchor="middle" x="348" y="-7.5" font-family="Helvetica,sans-Serif" font-size="10.00">Export::_reporting</text>
</a>
</g>
</g>
<!-- Node2&#45;&gt;Node8 -->
<g id="edge7" class="edge">
<title>Node2&#45;&gt;Node8</title>
<path fill="none" stroke="midnightblue" d="M565.65,-23.3C511.46,-19.97 445.14,-15.9 400.26,-13.15"/>
<polygon fill="midnightblue" stroke="midnightblue" points="565.77,-26.81 575.97,-23.93 566.2,-19.83 565.77,-26.81"/>
</g>
<!-- Node4 -->
<g id="node4" class="node">
<title>Node4</title>
<g id="a_node4"><a xlink:href="class_export.html#a89d3ae54dd2261cf35be148011b79fe4" target="_top" xlink:title=" ">
<polygon fill="white" stroke="black" points="292,-38.5 292,-57.5 404,-57.5 404,-38.5 292,-38.5"/>
<text text-anchor="middle" x="348" y="-45.5" font-family="Helvetica,sans-Serif" font-size="10.00">Export::_algorithms</text>
</a>
</g>
</g>
<!-- Node3&#45;&gt;Node4 -->
<g id="edge3" class="edge">
<title>Node3&#45;&gt;Node4</title>
<path fill="none" stroke="midnightblue" d="M429.5,-48C421.08,-48 412.45,-48 404.11,-48"/>
<polygon fill="midnightblue" stroke="midnightblue" points="429.64,-51.5 439.64,-48 429.64,-44.5 429.64,-51.5"/>
</g>
<!-- Node5 -->
<g id="node5" class="node">
<title>Node5</title>
<g id="a_node5"><a xlink:href="class_export.html#affc37d1d677a83d3e5d36a4e37b7a72b" target="_top" xlink:title=" ">
<polygon fill="white" stroke="black" points="146,-19.5 146,-38.5 256,-38.5 256,-19.5 146,-19.5"/>
<text text-anchor="middle" x="201" y="-26.5" font-family="Helvetica,sans-Serif" font-size="10.00">Export::exportCode</text>
</a>
</g>
</g>
<!-- Node4&#45;&gt;Node5 -->
<g id="edge4" class="edge">
<title>Node4&#45;&gt;Node5</title>
<path fill="none" stroke="midnightblue" d="M281.79,-39.45C273.21,-38.33 264.49,-37.19 256.12,-36.09"/>
<polygon fill="midnightblue" stroke="midnightblue" points="281.4,-42.93 291.77,-40.76 282.31,-35.99 281.4,-42.93"/>
</g>
<!-- Node6 -->
<g id="node6" class="node">
<title>Node6</title>
<g id="a_node6"><a xlink:href="class_export.html#a94fab568af6ddd6447efca74e205e081" target="_top" xlink:title=" ">
<polygon fill="white" stroke="black" points="0,-38.5 0,-57.5 110,-57.5 110,-38.5 0,-38.5"/>
<text text-anchor="middle" x="55" y="-45.5" font-family="Helvetica,sans-Serif" font-size="10.00">Export::exportCode</text>
</a>
</g>
</g>
<!-- Node5&#45;&gt;Node6 -->
<g id="edge5" class="edge">
<title>Node5&#45;&gt;Node6</title>
<path fill="none" stroke="midnightblue" d="M136.01,-37.44C127.44,-38.57 118.72,-39.73 110.33,-40.83"/>
<polygon fill="midnightblue" stroke="midnightblue" points="136.51,-40.91 145.97,-36.13 135.6,-33.97 136.51,-40.91"/>
</g>
<!-- Node7 -->
<g id="node7" class="node">
<title>Node7</title>
<g id="a_node7"><a xlink:href="src_2main_8cpp.html#a0ddf1224851353fc92bfbff6f499fa97" target="_top" xlink:title=" ">
<polygon fill="white" stroke="black" points="34.5,-0.5 34.5,-19.5 75.5,-19.5 75.5,-0.5 34.5,-0.5"/>
<text text-anchor="middle" x="55" y="-7.5" font-family="Helvetica,sans-Serif" font-size="10.00">main</text>
</a>
</g>
</g>
<!-- Node5&#45;&gt;Node7 -->
<g id="edge6" class="edge">
<title>Node5&#45;&gt;Node7</title>
<path fill="none" stroke="midnightblue" d="M136.05,-20.56C114.24,-17.68 91.43,-14.67 75.76,-12.61"/>
<polygon fill="midnightblue" stroke="midnightblue" points="135.6,-24.03 145.97,-21.87 136.51,-17.09 135.6,-24.03"/>
</g>
<!-- Node8&#45;&gt;Node5 -->
<g id="edge8" class="edge">
<title>Node8&#45;&gt;Node5</title>
<path fill="none" stroke="midnightblue" d="M285.75,-18.03C275.9,-19.32 265.77,-20.64 256.1,-21.91"/>
<polygon fill="midnightblue" stroke="midnightblue" points="286.42,-21.47 295.88,-16.7 285.51,-14.53 286.42,-21.47"/>
</g>
</g>
</svg>
        <g id="navigator" transform="translate(0 0)" fill="#404254">
                <rect fill="#f2f5e9" fill-opacity="0.5" stroke="#606060" stroke-width=".5" x="0" y="0" width="60" height="60"/>
                <use id="zoomplus" xlink:href="#zoomPlus" x="17" y="9" onmousedown="handleZoom(evt,'in')"/>
                <use id="zoomminus" xlink:href="#zoomMin" x="42" y="9" onmousedown="handleZoom(evt,'out')"/>
                <use id="reset" xlink:href="#resetDef" x="30" y="36" onmousedown="handleReset()"/>
                <g id="arrowUp" xlink:href="#dirArrow" transform="translate(30 24)" onmousedown="handlePan(0,-1)">
                  <use xlink:href="#rim" fill="#404040">
                        <set attributeName="fill" to="#808080" begin="arrowUp.mouseover" end="arrowUp.mouseout"/>
                  </use>
                  <path fill="none" stroke="white" stroke-width="1.5" d="M0,-3.0v7 M-2.5,-0.5L0,-3.0L2.5,-0.5"/>
                </g>
                <g id="arrowRight" xlink:href="#dirArrow" transform="rotate(90) translate(36 -43)" onmousedown="handlePan(1,0)">
                  <use xlink:href="#rim" fill="#404040">
                        <set attributeName="fill" to="#808080" begin="arrowRight.mouseover" end="arrowRight.mouseout"/>
                  </use>
                  <path fill="none" stroke="white" stroke-width="1.5" d="M0,-3.0v7 M-2.5,-0.5L0,-3.0L2.5,-0.5"/>
                </g>
                <g id="arrowDown" xlink:href="#dirArrow" transform="rotate(180) translate(-30 -48)" onmousedown="handlePan(0,1)">
                  <use xlink:href="#rim" fill="#404040">
                        <set attributeName="fill" to="#808080" begin="arrowDown.mouseover" end="arrowDown.mouseout"/>
                  </use>
                  <path fill="none" stroke="white" stroke-width="1.5" d="M0,-3.0v7 M-2.5,-0.5L0,-3.0L2.5,-0.5"/>
                </g>
                <g id="arrowLeft" xlink:href="#dirArrow" transform="rotate(270) translate(-36 17)" onmousedown="handlePan(-1,0)">
                  <use xlink:href="#rim" fill="#404040">
                        <set attributeName="fill" to="#808080" begin="arrowLeft.mouseover" end="arrowLeft.mouseout"/>
                  </use>
                  <path fill="none" stroke="white" stroke-width="1.5" d="M0,-3.0v7 M-2.5,-0.5L0,-3.0L2.5,-0.5"/>
                </g>
        </g>
        <svg viewBox="0 0 15 15" width="100%" height="30px" preserveAspectRatio="xMaxYMin meet">
         <g id="arrow_out" transform="scale(0.3 0.3)">
          <a xlink:href="class_log_ab61203710351f6d33d7ba634d2c4eb32_icgraph_org.svg" target="_base">
           <rect id="button" ry="5" rx="5" y="6" x="6" height="38" width="38"
                fill="#f2f5e9" fill-opacity="0.5" stroke="#606060" stroke-width="1.0"/>
           <path id="arrow"
             d="M 11.500037,31.436501 C 11.940474,20.09759 22.043105,11.32322 32.158766,21.979434 L 37.068811,17.246167 C 37.068811,17.246167 37.088388,32 37.088388,32 L 22.160133,31.978069 C 22.160133,31.978069 26.997745,27.140456 26.997745,27.140456 C 18.528582,18.264221 13.291696,25.230495 11.500037,31.436501 z"
             style="fill:#404040;"/>
          </a>
         </g>
        </svg>
</svg>
