<?xml version="1.0" encoding="UTF-8" standalone="no"?>
<!DOCTYPE svg PUBLIC "-//W3C//DTD SVG 1.1//EN"
 "http://www.w3.org/Graphics/SVG/1.1/DTD/svg11.dtd">
<!-- Generated by graphviz version 2.43.0 (0)
 -->
<!-- Title: Export::_sounding Pages: 1 -->
<svg width="1086pt" height="931pt"
 viewBox="0.00 0.00 1086.00 930.62" xmlns="http://www.w3.org/2000/svg" xmlns:xlink="http://www.w3.org/1999/xlink">
<g id="graph0" class="graph" transform="scale(1 1) rotate(0) translate(4 926.62)">
<title>Export::_sounding</title>
<polygon fill="white" stroke="transparent" points="-4,4 -4,-926.62 1082,-926.62 1082,4 -4,4"/>
<!-- Node1 -->
<g id="node1" class="node">
<title>Node1</title>
<g id="a_node1"><a xlink:title=" ">
<polygon fill="#bfbfbf" stroke="black" points="0,-522.12 0,-541.12 104,-541.12 104,-522.12 0,-522.12"/>
<text text-anchor="middle" x="52" y="-529.12" font-family="Helvetica,sans-Serif" font-size="10.00">Export::_sounding</text>
</a>
</g>
</g>
<!-- Node2 -->
<g id="node2" class="node">
<title>Node2</title>
<g id="a_node2"><a xlink:href="class_export.html#a638d6b9ced18342503ee6f4d4b274740" target="_top" xlink:title=" ">
<polygon fill="white" stroke="black" points="333.5,-693.12 333.5,-712.12 417.5,-712.12 417.5,-693.12 333.5,-693.12"/>
<text text-anchor="middle" x="375.5" y="-700.12" font-family="Helvetica,sans-Serif" font-size="10.00">Export::_asStr</text>
</a>
</g>
</g>
<!-- Node1&#45;&gt;Node2 -->
<g id="edge1" class="edge">
<title>Node1&#45;&gt;Node2</title>
<path fill="none" stroke="midnightblue" d="M57.52,-541.36C68.37,-563.59 98.11,-618.26 140,-645.62 147.76,-650.69 256.79,-675.98 323.41,-691.12"/>
<polygon fill="midnightblue" stroke="midnightblue" points="322.79,-694.57 333.32,-693.36 324.34,-687.74 322.79,-694.57"/>
</g>
<!-- Node3 -->
<g id="node3" class="node">
<title>Node3</title>
<g id="a_node3"><a xlink:href="class_export.html#ae4811e1e4212029122c0ee29613714cc" target="_top" xlink:title=" ">
<polygon fill="white" stroke="black" points="157.5,-617.12 157.5,-636.12 269.5,-636.12 269.5,-617.12 157.5,-617.12"/>
<text text-anchor="middle" x="213.5" y="-624.12" font-family="Helvetica,sans-Serif" font-size="10.00">Export::_estimation</text>
</a>
</g>
</g>
<!-- Node1&#45;&gt;Node3 -->
<g id="edge2" class="edge">
<title>Node1&#45;&gt;Node3</title>
<path fill="none" stroke="midnightblue" d="M62.31,-541.22C77.37,-556.24 108.56,-585.36 140,-602.62 147.85,-606.94 156.61,-610.64 165.25,-613.77"/>
<polygon fill="midnightblue" stroke="midnightblue" points="164.3,-617.14 174.9,-617.04 166.56,-610.51 164.3,-617.14"/>
</g>
<!-- Node4 -->
<g id="node4" class="node">
<title>Node4</title>
<g id="a_node4"><a xlink:href="class_export.html#abe75ae41d7cc8afe8f1ba4bbf67dfcfc" target="_top" xlink:title=" ">
<polygon fill="white" stroke="black" points="344,-579.12 344,-598.12 407,-598.12 407,-579.12 344,-579.12"/>
<text text-anchor="middle" x="375.5" y="-586.12" font-family="Helvetica,sans-Serif" font-size="10.00">Export::_f</text>
</a>
</g>
</g>
<!-- Node1&#45;&gt;Node4 -->
<g id="edge51" class="edge">
<title>Node1&#45;&gt;Node4</title>
<path fill="none" stroke="midnightblue" d="M85.43,-541.14C101.7,-545.68 121.78,-550.91 140,-554.62 207.45,-568.38 286.92,-578.68 333.88,-584.17"/>
<polygon fill="midnightblue" stroke="midnightblue" points="333.62,-587.66 343.95,-585.33 334.42,-580.71 333.62,-587.66"/>
</g>
<!-- Node5 -->
<g id="node5" class="node">
<title>Node5</title>
<g id="a_node5"><a xlink:href="class_export.html#a68e698a5654fc800aa78c512da8f23b1" target="_top" xlink:title=" ">
<polygon fill="white" stroke="black" points="328.5,-541.12 328.5,-560.12 422.5,-560.12 422.5,-541.12 328.5,-541.12"/>
<text text-anchor="middle" x="375.5" y="-548.12" font-family="Helvetica,sans-Serif" font-size="10.00">Export::_langStr</text>
</a>
</g>
</g>
<!-- Node1&#45;&gt;Node5 -->
<g id="edge65" class="edge">
<title>Node1&#45;&gt;Node5</title>
<path fill="none" stroke="midnightblue" d="M104.3,-534.66C162.7,-538.11 257.81,-543.73 318.22,-547.3"/>
<polygon fill="midnightblue" stroke="midnightblue" points="318.15,-550.8 328.34,-547.9 318.56,-543.81 318.15,-550.8"/>
</g>
<!-- Node6 -->
<g id="node6" class="node">
<title>Node6</title>
<g id="a_node6"><a xlink:href="class_export.html#a33b5d571af76c0d4f9b9ee6e72afd8a6" target="_top" xlink:title=" ">
<polygon fill="white" stroke="black" points="323,-731.12 323,-750.12 428,-750.12 428,-731.12 323,-731.12"/>
<text text-anchor="middle" x="375.5" y="-738.12" font-family="Helvetica,sans-Serif" font-size="10.00">Export::_preCheck</text>
</a>
</g>
</g>
<!-- Node1&#45;&gt;Node6 -->
<g id="edge66" class="edge">
<title>Node1&#45;&gt;Node6</title>
<path fill="none" stroke="midnightblue" d="M54.06,-541.24C58.17,-573.27 76.12,-676.87 140,-721.62 190.7,-757.14 263.56,-757.27 314.57,-751.45"/>
<polygon fill="midnightblue" stroke="midnightblue" points="315.3,-754.89 324.79,-750.18 314.43,-747.94 315.3,-754.89"/>
</g>
<!-- Node12 -->
<g id="node12" class="node">
<title>Node12</title>
<g id="a_node12"><a xlink:href="class_alg.html#ada1e8215f047b4ffd736e811b5ea3162" target="_top" xlink:title=" ">
<polygon fill="white" stroke="black" points="344,-485.12 344,-504.12 407,-504.12 407,-485.12 344,-485.12"/>
<text text-anchor="middle" x="375.5" y="-492.12" font-family="Helvetica,sans-Serif" font-size="10.00">Alg::write</text>
</a>
</g>
</g>
<!-- Node1&#45;&gt;Node12 -->
<g id="edge71" class="edge">
<title>Node1&#45;&gt;Node12</title>
<path fill="none" stroke="midnightblue" d="M104.3,-525.72C168.02,-518.39 275.43,-506.03 333.79,-499.31"/>
<polygon fill="midnightblue" stroke="midnightblue" points="334.22,-502.78 343.75,-498.16 333.42,-495.83 334.22,-502.78"/>
</g>
<!-- Node45 -->
<g id="node44" class="node">
<title>Node45</title>
<g id="a_node44"><a xlink:href="class_export.html#a59ba705b2369f21006ec7d7b7f3a4513" target="_top" xlink:title="Generate RIS reflection matrices.">
<polygon fill="white" stroke="black" points="155.5,-465.12 155.5,-484.12 271.5,-484.12 271.5,-465.12 155.5,-465.12"/>
<text text-anchor="middle" x="213.5" y="-472.12" font-family="Helvetica,sans-Serif" font-size="10.00">Export::_generateBF</text>
</a>
</g>
</g>
<!-- Node1&#45;&gt;Node45 -->
<g id="edge52" class="edge">
<title>Node1&#45;&gt;Node45</title>
<path fill="none" stroke="midnightblue" d="M77.27,-522.1C94.67,-515.35 118.69,-506.19 140,-498.62 150.71,-494.82 162.39,-490.87 173.17,-487.3"/>
<polygon fill="midnightblue" stroke="midnightblue" points="174.36,-490.6 182.77,-484.15 172.18,-483.95 174.36,-490.6"/>
</g>
<!-- Node46 -->
<g id="node45" class="node">
<title>Node46</title>
<g id="a_node45"><a xlink:href="class_export.html#a4dd19b0ff2eb109897fb486769fefffe" target="_top" xlink:title="Get the size of the node (Tx/Rx/RIS).">
<polygon fill="white" stroke="black" points="328,-29.12 328,-48.12 423,-48.12 423,-29.12 328,-29.12"/>
<text text-anchor="middle" x="375.5" y="-36.12" font-family="Helvetica,sans-Serif" font-size="10.00">Export::_getSize</text>
</a>
</g>
</g>
<!-- Node1&#45;&gt;Node46 -->
<g id="edge62" class="edge">
<title>Node1&#45;&gt;Node46</title>
<path fill="none" stroke="midnightblue" d="M61.1,-522.11C75.36,-505.96 106.65,-473.22 140,-455.62 199.68,-424.13 243.04,-468.82 287,-417.62 338.65,-357.46 277.06,-127.26 323,-62.62 325.51,-59.1 328.67,-56.07 332.18,-53.48"/>
<polygon fill="midnightblue" stroke="midnightblue" points="334.16,-56.38 340.89,-48.2 330.53,-50.4 334.16,-56.38"/>
</g>
<!-- Node48 -->
<g id="node47" class="node">
<title>Node48</title>
<g id="a_node47"><a xlink:href="class_export.html#ab8f7bd9bd6f244d03c3f332df34e0139" target="_top" xlink:title=" ">
<polygon fill="white" stroke="black" points="154.5,-693.12 154.5,-712.12 272.5,-712.12 272.5,-693.12 154.5,-693.12"/>
<text text-anchor="middle" x="213.5" y="-700.12" font-family="Helvetica,sans-Serif" font-size="10.00">Export::_getTestNum</text>
</a>
</g>
</g>
<!-- Node1&#45;&gt;Node48 -->
<g id="edge63" class="edge">
<title>Node1&#45;&gt;Node48</title>
<path fill="none" stroke="midnightblue" d="M56.09,-541.49C64.82,-567.77 92.19,-640.12 140,-678.62 145.27,-682.87 151.33,-686.38 157.64,-689.27"/>
<polygon fill="midnightblue" stroke="midnightblue" points="156.43,-692.56 167.01,-693.09 159.07,-686.08 156.43,-692.56"/>
</g>
<!-- Node49 -->
<g id="node48" class="node">
<title>Node49</title>
<g id="a_node48"><a xlink:href="class_value___vec.html#ad2bf1b9a255e5433d3e0d4237543e35a" target="_top" xlink:title=" ">
<polygon fill="white" stroke="black" points="165,-389.12 165,-408.12 262,-408.12 262,-389.12 165,-389.12"/>
<text text-anchor="middle" x="213.5" y="-396.12" font-family="Helvetica,sans-Serif" font-size="10.00">Value_Vec::asStr</text>
</a>
</g>
</g>
<!-- Node1&#45;&gt;Node49 -->
<g id="edge67" class="edge">
<title>Node1&#45;&gt;Node49</title>
<path fill="none" stroke="midnightblue" d="M58.14,-521.92C69.82,-500.75 100.46,-450.16 140,-422.62 146.13,-418.35 153.08,-414.8 160.19,-411.85"/>
<polygon fill="midnightblue" stroke="midnightblue" points="161.78,-414.99 169.91,-408.2 159.32,-408.44 161.78,-414.99"/>
</g>
<!-- Node50 -->
<g id="node49" class="node">
<title>Node50</title>
<g id="a_node49"><a xlink:href="class_channel___graph.html#a6b7627957e70f8d68f488a903e08f966" target="_top" xlink:title=" ">
<polygon fill="white" stroke="black" points="140,-351.12 140,-370.12 287,-370.12 287,-351.12 140,-351.12"/>
<text text-anchor="middle" x="213.5" y="-358.12" font-family="Helvetica,sans-Serif" font-size="10.00">Channel_Graph::pathsNum</text>
</a>
</g>
</g>
<!-- Node1&#45;&gt;Node50 -->
<g id="edge69" class="edge">
<title>Node1&#45;&gt;Node50</title>
<path fill="none" stroke="midnightblue" d="M55.62,-522.04C63.49,-495.12 89.55,-418.27 140,-379.62 142.45,-377.75 145.07,-376.05 147.81,-374.53"/>
<polygon fill="midnightblue" stroke="midnightblue" points="149.36,-377.66 156.88,-370.2 146.35,-371.35 149.36,-377.66"/>
</g>
<!-- Node51 -->
<g id="node50" class="node">
<title>Node51</title>
<g id="a_node50"><a xlink:href="class_value___vec.html#ace4be7ed03c08409ea3d21e5ba29762e" target="_top" xlink:title=" ">
<polygon fill="white" stroke="black" points="167.5,-313.12 167.5,-332.12 259.5,-332.12 259.5,-313.12 167.5,-313.12"/>
<text text-anchor="middle" x="213.5" y="-320.12" font-family="Helvetica,sans-Serif" font-size="10.00">Value_Vec::size</text>
</a>
</g>
</g>
<!-- Node1&#45;&gt;Node51 -->
<g id="edge70" class="edge">
<title>Node1&#45;&gt;Node51</title>
<path fill="none" stroke="midnightblue" d="M54.46,-521.99C59.7,-490.78 80.56,-391.57 140,-341.62 145.22,-337.24 151.34,-333.85 157.78,-331.24"/>
<polygon fill="midnightblue" stroke="midnightblue" points="159.04,-334.5 167.36,-327.94 156.76,-327.88 159.04,-334.5"/>
</g>
<!-- Node3&#45;&gt;Node2 -->
<g id="edge3" class="edge">
<title>Node3&#45;&gt;Node2</title>
<path fill="none" stroke="midnightblue" d="M251.65,-636.24C263.31,-639.96 276.01,-644.76 287,-650.62 304.88,-660.17 305.7,-668.05 323,-678.62 328.94,-682.25 335.51,-685.7 341.93,-688.8"/>
<polygon fill="midnightblue" stroke="midnightblue" points="340.56,-692.03 351.11,-693.06 343.51,-685.68 340.56,-692.03"/>
</g>
<!-- Node3&#45;&gt;Node4 -->
<g id="edge4" class="edge">
<title>Node3&#45;&gt;Node4</title>
<path fill="none" stroke="midnightblue" d="M254.87,-617.04C279.09,-611.28 309.8,-603.99 334.03,-598.24"/>
<polygon fill="midnightblue" stroke="midnightblue" points="335.07,-601.59 343.99,-595.87 333.45,-594.78 335.07,-601.59"/>
</g>
<!-- Node3&#45;&gt;Node5 -->
<g id="edge5" class="edge">
<title>Node3&#45;&gt;Node5</title>
<path fill="none" stroke="midnightblue" d="M231.08,-617.05C252.08,-605.12 289.56,-584.5 323,-569.62 327.5,-567.62 332.28,-565.66 337.04,-563.79"/>
<polygon fill="midnightblue" stroke="midnightblue" points="338.6,-566.95 346.71,-560.13 336.11,-560.4 338.6,-566.95"/>
</g>
<!-- Node3&#45;&gt;Node6 -->
<g id="edge6" class="edge">
<title>Node3&#45;&gt;Node6</title>
<path fill="none" stroke="midnightblue" d="M227.8,-636.17C242.71,-647.07 267.36,-665.72 287,-683.62 304.19,-699.3 303.58,-708.82 323,-721.62 325.91,-723.54 329.05,-725.3 332.28,-726.91"/>
<polygon fill="midnightblue" stroke="midnightblue" points="330.98,-730.16 341.54,-731.03 333.82,-723.77 330.98,-730.16"/>
</g>
<!-- Node8 -->
<g id="node8" class="node">
<title>Node8</title>
<g id="a_node8"><a xlink:href="class_log.html#add7e611cd3267d3fd5dae017e3aeef67" target="_top" xlink:title="Write infomation to the log file.">
<polygon fill="white" stroke="black" points="1000,-713.12 1000,-732.12 1059,-732.12 1059,-713.12 1000,-713.12"/>
<text text-anchor="middle" x="1029.5" y="-720.12" font-family="Helvetica,sans-Serif" font-size="10.00">Log::info</text>
</a>
</g>
</g>
<!-- Node3&#45;&gt;Node8 -->
<g id="edge8" class="edge">
<title>Node3&#45;&gt;Node8</title>
<path fill="none" stroke="midnightblue" d="M250.71,-617.11C297.54,-607.17 378.9,-598.31 428,-640.62 485.18,-689.91 405.93,-758.39 464,-806.62 546.23,-874.93 846.91,-841.13 945,-798.62 974.37,-785.9 1000.24,-758.49 1015.13,-740.3"/>
<polygon fill="midnightblue" stroke="midnightblue" points="1018.07,-742.24 1021.53,-732.22 1012.58,-737.89 1018.07,-742.24"/>
</g>
<!-- Node9 -->
<g id="node9" class="node">
<title>Node9</title>
<g id="a_node9"><a xlink:href="utils_8h.html#a6ef734356291c638e5787a6c668192d4" target="_top" xlink:title=" ">
<polygon fill="white" stroke="black" points="530.5,-865.12 530.5,-884.12 567.5,-884.12 567.5,-865.12 530.5,-865.12"/>
<text text-anchor="middle" x="549" y="-872.12" font-family="Helvetica,sans-Serif" font-size="10.00">trim</text>
</a>
</g>
</g>
<!-- Node3&#45;&gt;Node9 -->
<g id="edge9" class="edge">
<title>Node3&#45;&gt;Node9</title>
<path fill="none" stroke="midnightblue" d="M269.63,-634.56C325.52,-643.74 406.7,-660.61 428,-683.62 479.58,-739.34 412.11,-795.19 464,-850.62 478.3,-865.9 501.57,-871.68 520,-873.76"/>
<polygon fill="midnightblue" stroke="midnightblue" points="519.93,-877.27 530.19,-874.61 520.51,-870.29 519.93,-877.27"/>
</g>
<!-- Node3&#45;&gt;Node12 -->
<g id="edge12" class="edge">
<title>Node3&#45;&gt;Node12</title>
<path fill="none" stroke="midnightblue" d="M224.69,-617.11C243.58,-599.61 285.55,-561.36 323,-531.62 332.28,-524.26 342.86,-516.55 352,-510.08"/>
<polygon fill="midnightblue" stroke="midnightblue" points="354.05,-512.92 360.24,-504.32 350.04,-507.18 354.05,-512.92"/>
</g>
<!-- Node7 -->
<g id="node7" class="node">
<title>Node7</title>
<g id="a_node7"><a xlink:href="error__code_8h.html#ae1bfa02e1106eff84ddecb9f7773a1a4" target="_top" xlink:title="Return the error message of the error code from class Err.">
<polygon fill="white" stroke="black" points="519,-903.12 519,-922.12 579,-922.12 579,-903.12 519,-903.12"/>
<text text-anchor="middle" x="549" y="-910.12" font-family="Helvetica,sans-Serif" font-size="10.00">errorMsg</text>
</a>
</g>
</g>
<!-- Node6&#45;&gt;Node7 -->
<g id="edge7" class="edge">
<title>Node6&#45;&gt;Node7</title>
<path fill="none" stroke="midnightblue" d="M379.07,-750.36C386.8,-777.68 412.58,-855.59 464,-893.62 476.79,-903.09 493.47,-907.97 508.59,-910.44"/>
<polygon fill="midnightblue" stroke="midnightblue" points="508.36,-913.94 518.74,-911.79 509.29,-907 508.36,-913.94"/>
</g>
<!-- Node10 -->
<g id="node10" class="node">
<title>Node10</title>
<g id="a_node10"><a xlink:href="utils_8h.html#a47084ee818936eef3c48be492c0e860f" target="_top" xlink:title=" ">
<polygon fill="white" stroke="black" points="699.5,-903.12 699.5,-922.12 739.5,-922.12 739.5,-903.12 699.5,-903.12"/>
<text text-anchor="middle" x="719.5" y="-910.12" font-family="Helvetica,sans-Serif" font-size="10.00">ltrim</text>
</a>
</g>
</g>
<!-- Node9&#45;&gt;Node10 -->
<g id="edge10" class="edge">
<title>Node9&#45;&gt;Node10</title>
<path fill="none" stroke="midnightblue" d="M567.71,-878.62C596.66,-885.15 654.37,-898.16 689.4,-906.06"/>
<polygon fill="midnightblue" stroke="midnightblue" points="688.96,-909.55 699.48,-908.34 690.5,-902.72 688.96,-909.55"/>
</g>
<!-- Node11 -->
<g id="node11" class="node">
<title>Node11</title>
<g id="a_node11"><a xlink:href="utils_8h.html#af6d6bd5c29782e3b958b5f7c0d1ea9e3" target="_top" xlink:title=" ">
<polygon fill="white" stroke="black" points="699,-865.12 699,-884.12 740,-884.12 740,-865.12 699,-865.12"/>
<text text-anchor="middle" x="719.5" y="-872.12" font-family="Helvetica,sans-Serif" font-size="10.00">rtrim</text>
</a>
</g>
</g>
<!-- Node9&#45;&gt;Node11 -->
<g id="edge11" class="edge">
<title>Node9&#45;&gt;Node11</title>
<path fill="none" stroke="midnightblue" d="M567.71,-874.62C596.51,-874.62 653.76,-874.62 688.84,-874.62"/>
<polygon fill="midnightblue" stroke="midnightblue" points="688.96,-878.12 698.96,-874.62 688.96,-871.12 688.96,-878.12"/>
</g>
<!-- Node12&#45;&gt;Node8 -->
<g id="edge30" class="edge">
<title>Node12&#45;&gt;Node8</title>
<path fill="none" stroke="midnightblue" d="M396.48,-504.27C407.44,-510.56 420.31,-519.81 428,-531.62 470.61,-597.08 404.22,-653.37 464,-703.62 503.98,-737.24 868.45,-728.06 989.57,-724.04"/>
<polygon fill="midnightblue" stroke="midnightblue" points="989.98,-727.52 999.86,-723.69 989.74,-720.53 989.98,-727.52"/>
</g>
<!-- Node12&#45;&gt;Node9 -->
<g id="edge48" class="edge">
<title>Node12&#45;&gt;Node9</title>
<path fill="none" stroke="midnightblue" d="M397.1,-504.19C408.11,-510.42 420.84,-519.62 428,-531.62 492.48,-639.77 400.22,-704.06 464,-812.62 477.18,-835.05 501.98,-851.82 521.23,-862.22"/>
<polygon fill="midnightblue" stroke="midnightblue" points="519.67,-865.36 530.16,-866.82 522.87,-859.13 519.67,-865.36"/>
</g>
<!-- Node12&#45;&gt;Node12 -->
<g id="edge50" class="edge">
<title>Node12&#45;&gt;Node12</title>
<path fill="none" stroke="midnightblue" d="M350.53,-504.38C338.38,-513.19 346.71,-522.62 375.5,-522.62 394.85,-522.62 404.95,-518.37 405.81,-512.9"/>
<polygon fill="midnightblue" stroke="midnightblue" points="408.75,-510.99 400.47,-504.38 402.82,-514.71 408.75,-510.99"/>
</g>
<!-- Node13 -->
<g id="node13" class="node">
<title>Node13</title>
<g id="a_node13"><a xlink:href="class_alg.html#a2cf2b7f4e37c8e401d9c6dad6687917d" target="_top" xlink:title=" ">
<polygon fill="white" stroke="black" points="499,-675.12 499,-694.12 599,-694.12 599,-675.12 499,-675.12"/>
<text text-anchor="middle" x="549" y="-682.12" font-family="Helvetica,sans-Serif" font-size="10.00">Alg::_wComment</text>
</a>
</g>
</g>
<!-- Node12&#45;&gt;Node13 -->
<g id="edge13" class="edge">
<title>Node12&#45;&gt;Node13</title>
<path fill="none" stroke="midnightblue" d="M395.73,-504.14C406.71,-510.5 419.86,-519.85 428,-531.62 463.08,-582.34 419.53,-622.9 464,-665.62 470.96,-672.31 479.76,-676.84 489.01,-679.86"/>
<polygon fill="midnightblue" stroke="midnightblue" points="488.21,-683.27 498.77,-682.5 490.03,-676.51 488.21,-683.27"/>
</g>
<!-- Node14 -->
<g id="node14" class="node">
<title>Node14</title>
<g id="a_node14"><a xlink:href="class_calc.html#ad6dbdfdd4bd21322e5836ff72c11ae1b" target="_top" xlink:title="Convert the Alg CALC contents into a language command.">
<polygon fill="white" stroke="black" points="692,-428.12 692,-447.12 747,-447.12 747,-428.12 692,-428.12"/>
<text text-anchor="middle" x="719.5" y="-435.12" font-family="Helvetica,sans-Serif" font-size="10.00">Calc::as</text>
</a>
</g>
</g>
<!-- Node12&#45;&gt;Node14 -->
<g id="edge14" class="edge">
<title>Node12&#45;&gt;Node14</title>
<path fill="none" stroke="midnightblue" d="M407.18,-495.77C456,-496.83 554.05,-495.88 634,-475.62 654.72,-470.37 676.71,-460.33 693.05,-451.89"/>
<polygon fill="midnightblue" stroke="midnightblue" points="694.79,-454.93 701.98,-447.15 691.5,-448.75 694.79,-454.93"/>
</g>
<!-- Node26 -->
<g id="node25" class="node">
<title>Node26</title>
<g id="a_node25"><a xlink:href="class_type.html#abe15820e780d2f6646792d54f3ae3311" target="_top" xlink:title=" ">
<polygon fill="white" stroke="black" points="517,-637.12 517,-656.12 581,-656.12 581,-637.12 517,-637.12"/>
<text text-anchor="middle" x="549" y="-644.12" font-family="Helvetica,sans-Serif" font-size="10.00">Type::dim</text>
</a>
</g>
</g>
<!-- Node12&#45;&gt;Node26 -->
<g id="edge27" class="edge">
<title>Node12&#45;&gt;Node26</title>
<path fill="none" stroke="midnightblue" d="M394.83,-504.14C405.75,-510.61 419.17,-520.08 428,-531.62 455.7,-567.81 429.66,-597.67 464,-627.62 475.72,-637.85 491.78,-642.9 506.72,-645.29"/>
<polygon fill="midnightblue" stroke="midnightblue" points="506.46,-648.79 516.82,-646.56 507.33,-641.84 506.46,-648.79"/>
</g>
<!-- Node27 -->
<g id="node26" class="node">
<title>Node27</title>
<g id="a_node26"><a xlink:href="class_alg___line.html#af651454e6ddfce164626b68b2c6cba97" target="_top" xlink:title="Get the function name.">
<polygon fill="white" stroke="black" points="506.5,-599.12 506.5,-618.12 591.5,-618.12 591.5,-599.12 506.5,-599.12"/>
<text text-anchor="middle" x="549" y="-606.12" font-family="Helvetica,sans-Serif" font-size="10.00">Alg_Line::func</text>
</a>
</g>
</g>
<!-- Node12&#45;&gt;Node27 -->
<g id="edge28" class="edge">
<title>Node12&#45;&gt;Node27</title>
<path fill="none" stroke="midnightblue" d="M393.1,-504.18C403.88,-510.93 417.78,-520.69 428,-531.62 448.72,-553.79 439.29,-572.02 464,-589.62 473.51,-596.4 485.04,-600.81 496.47,-603.67"/>
<polygon fill="midnightblue" stroke="midnightblue" points="495.92,-607.13 506.44,-605.8 497.39,-600.28 495.92,-607.13"/>
</g>
<!-- Node28 -->
<g id="node27" class="node">
<title>Node28</title>
<g id="a_node27"><a xlink:href="class_alg___line.html#a49a98870a1f09e35a3e15a7d7bab1666" target="_top" xlink:title="Check whether parameters contain the key.">
<polygon fill="white" stroke="black" points="499.5,-561.12 499.5,-580.12 598.5,-580.12 598.5,-561.12 499.5,-561.12"/>
<text text-anchor="middle" x="549" y="-568.12" font-family="Helvetica,sans-Serif" font-size="10.00">Alg_Line::hasKey</text>
</a>
</g>
</g>
<!-- Node12&#45;&gt;Node28 -->
<g id="edge29" class="edge">
<title>Node12&#45;&gt;Node28</title>
<path fill="none" stroke="midnightblue" d="M390.06,-504.31C410.57,-518.81 448.72,-545.17 464,-551.62 472,-555.01 480.71,-557.83 489.37,-560.18"/>
<polygon fill="midnightblue" stroke="midnightblue" points="488.55,-563.59 499.1,-562.63 490.26,-556.8 488.55,-563.59"/>
</g>
<!-- Node29 -->
<g id="node28" class="node">
<title>Node29</title>
<g id="a_node28"><a xlink:href="class_alg.html#a3ee7f9963027158b3fbd442d97800111" target="_top" xlink:title=" ">
<polygon fill="white" stroke="black" points="506,-523.12 506,-542.12 592,-542.12 592,-523.12 506,-523.12"/>
<text text-anchor="middle" x="549" y="-530.12" font-family="Helvetica,sans-Serif" font-size="10.00">Alg::inlineCalc</text>
</a>
</g>
</g>
<!-- Node12&#45;&gt;Node29 -->
<g id="edge31" class="edge">
<title>Node12&#45;&gt;Node29</title>
<path fill="none" stroke="midnightblue" d="M407.16,-501.42C431.72,-506.86 466.74,-514.62 495.72,-521.04"/>
<polygon fill="midnightblue" stroke="midnightblue" points="495.17,-524.5 505.69,-523.25 496.68,-517.67 495.17,-524.5"/>
</g>
<!-- Node30 -->
<g id="node29" class="node">
<title>Node30</title>
<g id="a_node29"><a xlink:href="class_alg___line.html#ad419191a99be7e34024e569ad833b04e" target="_top" xlink:title="Check whether the line is for function declaration.">
<polygon fill="white" stroke="black" points="464,-447.12 464,-466.12 634,-466.12 634,-447.12 464,-447.12"/>
<text text-anchor="middle" x="549" y="-454.12" font-family="Helvetica,sans-Serif" font-size="10.00">Alg_Line::isFunctionDeclaration</text>
</a>
</g>
</g>
<!-- Node12&#45;&gt;Node30 -->
<g id="edge33" class="edge">
<title>Node12&#45;&gt;Node30</title>
<path fill="none" stroke="midnightblue" d="M407.16,-487.83C431.55,-482.43 466.25,-474.74 495.11,-468.34"/>
<polygon fill="midnightblue" stroke="midnightblue" points="496.04,-471.72 505.04,-466.14 494.52,-464.89 496.04,-471.72"/>
</g>
<!-- Node31 -->
<g id="node30" class="node">
<title>Node31</title>
<g id="a_node30"><a xlink:href="class_alg.html#af935e64a6eb4afa4ca1540f4da3dcc9c" target="_top" xlink:title=" ">
<polygon fill="white" stroke="black" points="521,-409.12 521,-428.12 577,-428.12 577,-409.12 521,-409.12"/>
<text text-anchor="middle" x="549" y="-416.12" font-family="Helvetica,sans-Serif" font-size="10.00">Alg::line</text>
</a>
</g>
</g>
<!-- Node12&#45;&gt;Node31 -->
<g id="edge34" class="edge">
<title>Node12&#45;&gt;Node31</title>
<path fill="none" stroke="midnightblue" d="M388.18,-485.04C404.27,-472.33 434.61,-450.05 464,-437.62 478.77,-431.38 495.91,-427.03 510.84,-424.09"/>
<polygon fill="midnightblue" stroke="midnightblue" points="511.56,-427.52 520.76,-422.27 510.3,-420.63 511.56,-427.52"/>
</g>
<!-- Node32 -->
<g id="node31" class="node">
<title>Node32</title>
<g id="a_node31"><a xlink:href="class_alg___line.html#a4e79eb77a1cddbdab1dbdde8a499342d" target="_top" xlink:title="Parameter variables.">
<polygon fill="white" stroke="black" points="498.5,-371.12 498.5,-390.12 599.5,-390.12 599.5,-371.12 498.5,-371.12"/>
<text text-anchor="middle" x="549" y="-378.12" font-family="Helvetica,sans-Serif" font-size="10.00">Alg_Line::params</text>
</a>
</g>
</g>
<!-- Node12&#45;&gt;Node32 -->
<g id="edge35" class="edge">
<title>Node12&#45;&gt;Node32</title>
<path fill="none" stroke="midnightblue" d="M382.4,-485.04C394.88,-465.63 425.96,-421.63 464,-399.62 471.52,-395.27 479.96,-391.92 488.51,-389.33"/>
<polygon fill="midnightblue" stroke="midnightblue" points="489.42,-392.71 498.16,-386.72 487.6,-385.95 489.42,-392.71"/>
</g>
<!-- Node33 -->
<g id="node32" class="node">
<title>Node33</title>
<g id="a_node32"><a xlink:href="class_alg___line.html#a801b08c6c164376039a4ba4e980d039e" target="_top" xlink:title="Print Alg_Line contents (including return values, function names and parameters).">
<polygon fill="white" stroke="black" points="506,-219.12 506,-238.12 592,-238.12 592,-219.12 506,-219.12"/>
<text text-anchor="middle" x="549" y="-226.12" font-family="Helvetica,sans-Serif" font-size="10.00">Alg_Line::print</text>
</a>
</g>
</g>
<!-- Node12&#45;&gt;Node33 -->
<g id="edge36" class="edge">
<title>Node12&#45;&gt;Node33</title>
<path fill="none" stroke="midnightblue" d="M376.78,-485.04C378.39,-448.12 389.35,-313.95 464,-247.62 472.82,-239.79 484.18,-234.98 495.68,-232.07"/>
<polygon fill="midnightblue" stroke="midnightblue" points="496.68,-235.44 505.76,-229.98 495.25,-228.59 496.68,-235.44"/>
</g>
<!-- Node36 -->
<g id="node35" class="node">
<title>Node36</title>
<g id="a_node35"><a xlink:href="class_type___track.html#a4548ba1c289fba60e88b0e725509219e" target="_top" xlink:title=" ">
<polygon fill="white" stroke="black" points="825.5,-770.12 825.5,-789.12 924.5,-789.12 924.5,-770.12 825.5,-770.12"/>
<text text-anchor="middle" x="875" y="-777.12" font-family="Helvetica,sans-Serif" font-size="10.00">Type_Track::push</text>
</a>
</g>
</g>
<!-- Node12&#45;&gt;Node36 -->
<g id="edge39" class="edge">
<title>Node12&#45;&gt;Node36</title>
<path fill="none" stroke="midnightblue" d="M397.02,-504.24C408.01,-510.48 420.74,-519.68 428,-531.62 485.83,-626.81 379.78,-706.74 464,-779.62 514.93,-823.7 714.63,-802.61 815.3,-788.61"/>
<polygon fill="midnightblue" stroke="midnightblue" points="815.9,-792.06 825.31,-787.2 814.92,-785.13 815.9,-792.06"/>
</g>
<!-- Node37 -->
<g id="node36" class="node">
<title>Node37</title>
<g id="a_node36"><a xlink:href="utils_8h.html#a0465457013518e168df05799c93cfa6e" target="_top" xlink:title=" ">
<polygon fill="white" stroke="black" points="507.5,-333.12 507.5,-352.12 590.5,-352.12 590.5,-333.12 507.5,-333.12"/>
<text text-anchor="middle" x="549" y="-340.12" font-family="Helvetica,sans-Serif" font-size="10.00">removeQuote</text>
</a>
</g>
</g>
<!-- Node12&#45;&gt;Node37 -->
<g id="edge41" class="edge">
<title>Node12&#45;&gt;Node37</title>
<path fill="none" stroke="midnightblue" d="M379.85,-485.1C389.06,-460.41 417.19,-394.04 464,-361.62 473.79,-354.84 485.62,-350.44 497.28,-347.6"/>
<polygon fill="midnightblue" stroke="midnightblue" points="498.35,-350.95 507.42,-345.48 496.91,-344.1 498.35,-350.95"/>
</g>
<!-- Node39 -->
<g id="node38" class="node">
<title>Node39</title>
<g id="a_node38"><a xlink:href="class_alg___line.html#a8e21f6b69eaf80a2327f7308fb4299e0" target="_top" xlink:title="Return variables.">
<polygon fill="white" stroke="black" points="500,-295.12 500,-314.12 598,-314.12 598,-295.12 500,-295.12"/>
<text text-anchor="middle" x="549" y="-302.12" font-family="Helvetica,sans-Serif" font-size="10.00">Alg_Line::returns</text>
</a>
</g>
</g>
<!-- Node12&#45;&gt;Node39 -->
<g id="edge43" class="edge">
<title>Node12&#45;&gt;Node39</title>
<path fill="none" stroke="midnightblue" d="M378.42,-485.05C384.8,-455.8 408.15,-366.98 464,-323.62 471.63,-317.7 480.75,-313.56 490.13,-310.68"/>
<polygon fill="midnightblue" stroke="midnightblue" points="491.16,-314.03 499.94,-308.1 489.38,-307.25 491.16,-314.03"/>
</g>
<!-- Node40 -->
<g id="node39" class="node">
<title>Node40</title>
<g id="a_node39"><a xlink:href="class_type.html#a0153b8ff39040caf3ff2a6f7c7329d7c" target="_top" xlink:title="Get the C++ type name.">
<polygon fill="white" stroke="black" points="512.5,-257.12 512.5,-276.12 585.5,-276.12 585.5,-257.12 512.5,-257.12"/>
<text text-anchor="middle" x="549" y="-264.12" font-family="Helvetica,sans-Serif" font-size="10.00">Type::string</text>
</a>
</g>
</g>
<!-- Node12&#45;&gt;Node40 -->
<g id="edge44" class="edge">
<title>Node12&#45;&gt;Node40</title>
<path fill="none" stroke="midnightblue" d="M377.47,-484.91C381.37,-451.49 398.93,-340.26 464,-285.62 474.68,-276.66 488.72,-271.71 502.26,-269.03"/>
<polygon fill="midnightblue" stroke="midnightblue" points="503.13,-272.43 512.45,-267.4 502.02,-265.52 503.13,-272.43"/>
</g>
<!-- Node43 -->
<g id="node42" class="node">
<title>Node43</title>
<g id="a_node42"><a xlink:href="namespacemmce.html#ad4a160832ef9fad47c531ece39752208" target="_top" xlink:title="Change a number to string.">
<polygon fill="white" stroke="black" points="501,-143.12 501,-162.12 597,-162.12 597,-143.12 501,-143.12"/>
<text text-anchor="middle" x="549" y="-150.12" font-family="Helvetica,sans-Serif" font-size="10.00">mmce::to_string</text>
</a>
</g>
</g>
<!-- Node12&#45;&gt;Node43 -->
<g id="edge47" class="edge">
<title>Node12&#45;&gt;Node43</title>
<path fill="none" stroke="midnightblue" d="M377.17,-485C380.28,-446.52 396.19,-301.42 464,-209.62 477.73,-191.03 499.44,-176.53 517.35,-166.81"/>
<polygon fill="midnightblue" stroke="midnightblue" points="519.04,-169.88 526.3,-162.16 515.81,-163.66 519.04,-169.88"/>
</g>
<!-- Node44 -->
<g id="node43" class="node">
<title>Node44</title>
<g id="a_node43"><a xlink:href="class_log.html#a3410828f35c9bf8dd0771ead28de27b0" target="_top" xlink:title="Write contents to the log file.">
<polygon fill="white" stroke="black" points="516.5,-751.12 516.5,-770.12 581.5,-770.12 581.5,-751.12 516.5,-751.12"/>
<text text-anchor="middle" x="549" y="-758.12" font-family="Helvetica,sans-Serif" font-size="10.00">Log::write</text>
</a>
</g>
</g>
<!-- Node12&#45;&gt;Node44 -->
<g id="edge49" class="edge">
<title>Node12&#45;&gt;Node44</title>
<path fill="none" stroke="midnightblue" d="M396.63,-504.17C407.63,-510.44 420.5,-519.69 428,-531.62 477.2,-609.96 402.09,-667.89 464,-736.62 474.74,-748.55 490.95,-754.72 506.28,-757.85"/>
<polygon fill="midnightblue" stroke="midnightblue" points="505.72,-761.3 516.16,-759.5 506.87,-754.4 505.72,-761.3"/>
</g>
<!-- Node15 -->
<g id="node15" class="node">
<title>Node15</title>
<g id="a_node15"><a xlink:href="class_calc.html#af1d1bd5e83f9e5196627f5a4e1a5ee83" target="_top" xlink:title=" ">
<polygon fill="white" stroke="black" points="812.5,-143.12 812.5,-162.12 937.5,-162.12 937.5,-143.12 812.5,-143.12"/>
<text text-anchor="middle" x="875" y="-150.12" font-family="Helvetica,sans-Serif" font-size="10.00">Calc::_changeFunction</text>
</a>
</g>
</g>
<!-- Node14&#45;&gt;Node15 -->
<g id="edge15" class="edge">
<title>Node14&#45;&gt;Node15</title>
<path fill="none" stroke="midnightblue" d="M728.4,-427.97C739.29,-414.15 758.73,-387.52 769,-361.62 800.69,-281.73 746.75,-234.82 805,-171.62 806.22,-170.31 807.51,-169.07 808.88,-167.93"/>
<polygon fill="midnightblue" stroke="midnightblue" points="811.03,-170.7 817.38,-162.21 807.13,-164.89 811.03,-170.7"/>
</g>
<!-- Node18 -->
<g id="node18" class="node">
<title>Node18</title>
<g id="a_node18"><a xlink:href="class_calc.html#ae3d88bd40f9bdf2c8ec92c426bdca446" target="_top" xlink:title=" ">
<polygon fill="white" stroke="black" points="811.5,-390.12 811.5,-409.12 938.5,-409.12 938.5,-390.12 811.5,-390.12"/>
<text text-anchor="middle" x="875" y="-397.12" font-family="Helvetica,sans-Serif" font-size="10.00">Calc::_changeOperator</text>
</a>
</g>
</g>
<!-- Node14&#45;&gt;Node18 -->
<g id="edge18" class="edge">
<title>Node14&#45;&gt;Node18</title>
<path fill="none" stroke="midnightblue" d="M747.24,-431.01C768.77,-425.67 799.61,-418.04 825.48,-411.64"/>
<polygon fill="midnightblue" stroke="midnightblue" points="826.62,-414.96 835.49,-409.16 824.94,-408.16 826.62,-414.96"/>
</g>
<!-- Node19 -->
<g id="node19" class="node">
<title>Node19</title>
<g id="a_node19"><a xlink:href="class_calc.html#ad95be528148e0d63848d5fa916b93200" target="_top" xlink:title=" ">
<polygon fill="white" stroke="black" points="819.5,-466.12 819.5,-485.12 930.5,-485.12 930.5,-466.12 819.5,-466.12"/>
<text text-anchor="middle" x="875" y="-473.12" font-family="Helvetica,sans-Serif" font-size="10.00">Calc::_changeParen</text>
</a>
</g>
</g>
<!-- Node14&#45;&gt;Node19 -->
<g id="edge19" class="edge">
<title>Node14&#45;&gt;Node19</title>
<path fill="none" stroke="midnightblue" d="M747.24,-444.24C768.77,-449.57 799.61,-457.21 825.48,-463.61"/>
<polygon fill="midnightblue" stroke="midnightblue" points="824.94,-467.08 835.49,-466.09 826.62,-460.29 824.94,-467.08"/>
</g>
<!-- Node20 -->
<g id="node20" class="node">
<title>Node20</title>
<g id="a_node20"><a xlink:href="class_calc.html#ad562619fef96a73cd3b4c27b35bc5f91" target="_top" xlink:title=" ">
<polygon fill="white" stroke="red" points="810,-181.12 810,-200.12 940,-200.12 940,-181.12 810,-181.12"/>
<text text-anchor="middle" x="875" y="-188.12" font-family="Helvetica,sans-Serif" font-size="10.00">Calc::_changeSubScript</text>
</a>
</g>
</g>
<!-- Node14&#45;&gt;Node20 -->
<g id="edge20" class="edge">
<title>Node14&#45;&gt;Node20</title>
<path fill="none" stroke="midnightblue" d="M726.83,-427.82C736.15,-413.38 754.05,-385.5 769,-361.62 803.68,-306.23 843.92,-240.2 862.94,-208.86"/>
<polygon fill="midnightblue" stroke="midnightblue" points="865.94,-210.67 868.14,-200.3 859.96,-207.04 865.94,-210.67"/>
</g>
<!-- Node25 -->
<g id="node24" class="node">
<title>Node25</title>
<g id="a_node24"><a xlink:href="class_calc.html#a1aec4748092712e0995c0ae5dabbf54f" target="_top" xlink:title=" ">
<polygon fill="white" stroke="black" points="805,-428.12 805,-447.12 945,-447.12 945,-428.12 805,-428.12"/>
<text text-anchor="middle" x="875" y="-435.12" font-family="Helvetica,sans-Serif" font-size="10.00">Calc::_changeSuperScript</text>
</a>
</g>
</g>
<!-- Node14&#45;&gt;Node25 -->
<g id="edge26" class="edge">
<title>Node14&#45;&gt;Node25</title>
<path fill="none" stroke="midnightblue" d="M747.24,-437.62C760.59,-437.62 777.53,-437.62 794.63,-437.62"/>
<polygon fill="midnightblue" stroke="midnightblue" points="794.7,-441.12 804.7,-437.62 794.7,-434.12 794.7,-441.12"/>
</g>
<!-- Node16 -->
<g id="node16" class="node">
<title>Node16</title>
<g id="a_node16"><a xlink:href="class_calc.html#a7d793eba0a7c9fcbafec4310359f165d" target="_top" xlink:title=" ">
<polygon fill="white" stroke="black" points="983,-105.12 983,-124.12 1076,-124.12 1076,-105.12 983,-105.12"/>
<text text-anchor="middle" x="1029.5" y="-112.12" font-family="Helvetica,sans-Serif" font-size="10.00">Calc::_addArma</text>
</a>
</g>
</g>
<!-- Node15&#45;&gt;Node16 -->
<g id="edge16" class="edge">
<title>Node15&#45;&gt;Node16</title>
<path fill="none" stroke="midnightblue" d="M914.48,-143.04C934.52,-138.04 959.2,-131.89 980.48,-126.59"/>
<polygon fill="midnightblue" stroke="midnightblue" points="981.44,-129.96 990.29,-124.14 979.74,-123.17 981.44,-129.96"/>
</g>
<!-- Node17 -->
<g id="node17" class="node">
<title>Node17</title>
<g id="a_node17"><a xlink:href="class_calc.html#af58cd6a2174e577a6246366de03b949e" target="_top" xlink:title=" ">
<polygon fill="white" stroke="black" points="981,-143.12 981,-162.12 1078,-162.12 1078,-143.12 981,-143.12"/>
<text text-anchor="middle" x="1029.5" y="-150.12" font-family="Helvetica,sans-Serif" font-size="10.00">Calc::_addMmce</text>
</a>
</g>
</g>
<!-- Node15&#45;&gt;Node17 -->
<g id="edge17" class="edge">
<title>Node15&#45;&gt;Node17</title>
<path fill="none" stroke="midnightblue" d="M937.59,-152.62C948.49,-152.62 959.8,-152.62 970.6,-152.62"/>
<polygon fill="midnightblue" stroke="midnightblue" points="970.76,-156.12 980.76,-152.62 970.76,-149.12 970.76,-156.12"/>
</g>
<!-- Node20&#45;&gt;Node8 -->
<g id="edge24" class="edge">
<title>Node20&#45;&gt;Node8</title>
<path fill="none" stroke="midnightblue" d="M902.25,-200.17C917.13,-206.95 934.76,-217.54 945,-232.62 998.7,-311.73 1022,-621.05 1027.29,-702.75"/>
<polygon fill="midnightblue" stroke="midnightblue" points="1023.82,-703.33 1027.94,-713.09 1030.81,-702.89 1023.82,-703.33"/>
</g>
<!-- Node20&#45;&gt;Node20 -->
<g id="edge21" class="edge">
<title>Node20&#45;&gt;Node20</title>
<path fill="none" stroke="midnightblue" d="M851.26,-200.38C839.72,-209.19 847.63,-218.62 875,-218.62 892.96,-218.62 902.54,-214.56 903.75,-209.28"/>
<polygon fill="midnightblue" stroke="midnightblue" points="906.69,-207.38 898.74,-200.38 900.59,-210.81 906.69,-207.38"/>
</g>
<!-- Node21 -->
<g id="node21" class="node">
<title>Node21</title>
<g id="a_node21"><a xlink:href="class_calc.html#a284818e83b0d85bdd029f3d72d4ef0bd" target="_top" xlink:title=" ">
<polygon fill="white" stroke="black" points="994.5,-219.12 994.5,-238.12 1064.5,-238.12 1064.5,-219.12 994.5,-219.12"/>
<text text-anchor="middle" x="1029.5" y="-226.12" font-family="Helvetica,sans-Serif" font-size="10.00">Calc::_msg</text>
</a>
</g>
</g>
<!-- Node20&#45;&gt;Node21 -->
<g id="edge22" class="edge">
<title>Node20&#45;&gt;Node21</title>
<path fill="none" stroke="midnightblue" d="M914.48,-200.21C935.83,-205.53 962.46,-212.17 984.62,-217.69"/>
<polygon fill="midnightblue" stroke="midnightblue" points="983.9,-221.12 994.45,-220.14 985.59,-214.33 983.9,-221.12"/>
</g>
<!-- Node22 -->
<g id="node22" class="node">
<title>Node22</title>
<g id="a_node22"><a xlink:href="class_log.html#ac7147942832455398ad289b706a02616" target="_top" xlink:title="Write error message to the log file.">
<polygon fill="white" stroke="black" points="1003,-67.12 1003,-86.12 1056,-86.12 1056,-67.12 1003,-67.12"/>
<text text-anchor="middle" x="1029.5" y="-74.12" font-family="Helvetica,sans-Serif" font-size="10.00">Log::err</text>
</a>
</g>
</g>
<!-- Node20&#45;&gt;Node22 -->
<g id="edge23" class="edge">
<title>Node20&#45;&gt;Node22</title>
<path fill="none" stroke="midnightblue" d="M929.59,-180.97C935.15,-178.53 940.43,-175.46 945,-171.62 973.62,-147.59 953.77,-121.22 981,-95.62 984.61,-92.23 988.91,-89.41 993.41,-87.08"/>
<polygon fill="midnightblue" stroke="midnightblue" points="995.07,-90.18 1002.82,-82.95 992.25,-83.77 995.07,-90.18"/>
</g>
<!-- Node23 -->
<g id="node23" class="node">
<title>Node23</title>
<g id="a_node23"><a xlink:href="utils_8h.html#aa0a3ba0e1cec6f6b77334767af46eef7" target="_top" xlink:title="Check if the string is an unsigned integer.">
<polygon fill="white" stroke="black" points="1007,-181.12 1007,-200.12 1052,-200.12 1052,-181.12 1007,-181.12"/>
<text text-anchor="middle" x="1029.5" y="-188.12" font-family="Helvetica,sans-Serif" font-size="10.00">isUInt</text>
</a>
</g>
</g>
<!-- Node20&#45;&gt;Node23 -->
<g id="edge25" class="edge">
<title>Node20&#45;&gt;Node23</title>
<path fill="none" stroke="midnightblue" d="M940.23,-190.62C959.73,-190.62 980.3,-190.62 996.68,-190.62"/>
<polygon fill="midnightblue" stroke="midnightblue" points="996.78,-194.12 1006.78,-190.62 996.78,-187.12 996.78,-194.12"/>
</g>
<!-- Node29&#45;&gt;Node14 -->
<g id="edge32" class="edge">
<title>Node29&#45;&gt;Node14</title>
<path fill="none" stroke="midnightblue" d="M592.36,-524.23C606.12,-520.54 621.14,-515.46 634,-508.62 660.75,-494.4 686.7,-470.66 702.62,-454.59"/>
<polygon fill="midnightblue" stroke="midnightblue" points="705.15,-457.01 709.6,-447.39 700.12,-452.14 705.15,-457.01"/>
</g>
<!-- Node34 -->
<g id="node33" class="node">
<title>Node34</title>
<g id="a_node33"><a xlink:href="functions_8h.html#ac9dc58cb94b7547813c3a35154d97d18" target="_top" xlink:title=" ">
<polygon fill="white" stroke="black" points="680,-219.12 680,-238.12 759,-238.12 759,-219.12 680,-219.12"/>
<text text-anchor="middle" x="719.5" y="-226.12" font-family="Helvetica,sans-Serif" font-size="10.00">isFuncNoEnd</text>
</a>
</g>
</g>
<!-- Node33&#45;&gt;Node34 -->
<g id="edge37" class="edge">
<title>Node33&#45;&gt;Node34</title>
<path fill="none" stroke="midnightblue" d="M592.09,-228.62C615.63,-228.62 645.08,-228.62 669.64,-228.62"/>
<polygon fill="midnightblue" stroke="midnightblue" points="669.83,-232.12 679.83,-228.62 669.83,-225.12 669.83,-232.12"/>
</g>
<!-- Node35 -->
<g id="node34" class="node">
<title>Node35</title>
<g id="a_node34"><a xlink:href="utils_8h.html#af11c7cca5b9ad860da4bdb556dce3234" target="_top" xlink:title=" ">
<polygon fill="white" stroke="black" points="846,-105.12 846,-124.12 904,-124.12 904,-105.12 846,-105.12"/>
<text text-anchor="middle" x="875" y="-112.12" font-family="Helvetica,sans-Serif" font-size="10.00">contains</text>
</a>
</g>
</g>
<!-- Node34&#45;&gt;Node35 -->
<g id="edge38" class="edge">
<title>Node34&#45;&gt;Node35</title>
<path fill="none" stroke="midnightblue" d="M726.38,-218.88C738.55,-199.58 768.45,-156.35 805,-133.62 814.36,-127.81 825.51,-123.74 836.09,-120.91"/>
<polygon fill="midnightblue" stroke="midnightblue" points="837.06,-124.28 845.98,-118.56 835.44,-117.47 837.06,-124.28"/>
</g>
<!-- Node36&#45;&gt;Node8 -->
<g id="edge40" class="edge">
<title>Node36&#45;&gt;Node8</title>
<path fill="none" stroke="midnightblue" d="M901.53,-770.08C926.71,-760.67 965.4,-746.21 993.45,-735.72"/>
<polygon fill="midnightblue" stroke="midnightblue" points="994.75,-738.98 1002.89,-732.2 992.3,-732.42 994.75,-738.98"/>
</g>
<!-- Node38 -->
<g id="node37" class="node">
<title>Node38</title>
<g id="a_node37"><a xlink:href="utils_8h.html#aaaee605fe46abaa420448438d89b22ed" target="_top" xlink:title=" ">
<polygon fill="white" stroke="black" points="689.5,-333.12 689.5,-352.12 749.5,-352.12 749.5,-333.12 689.5,-333.12"/>
<text text-anchor="middle" x="719.5" y="-340.12" font-family="Helvetica,sans-Serif" font-size="10.00">isQuoted</text>
</a>
</g>
</g>
<!-- Node37&#45;&gt;Node38 -->
<g id="edge42" class="edge">
<title>Node37&#45;&gt;Node38</title>
<path fill="none" stroke="midnightblue" d="M590.79,-342.62C617.7,-342.62 652.76,-342.62 679.34,-342.62"/>
<polygon fill="midnightblue" stroke="midnightblue" points="679.43,-346.12 689.43,-342.62 679.43,-339.12 679.43,-346.12"/>
</g>
<!-- Node41 -->
<g id="node40" class="node">
<title>Node41</title>
<g id="a_node40"><a xlink:href="class_type.html#a5b8adffb334040c53940ecf814ebcc65" target="_top" xlink:title=" ">
<polygon fill="white" stroke="black" points="672,-257.12 672,-276.12 767,-276.12 767,-257.12 672,-257.12"/>
<text text-anchor="middle" x="719.5" y="-264.12" font-family="Helvetica,sans-Serif" font-size="10.00">Type::_getString</text>
</a>
</g>
</g>
<!-- Node40&#45;&gt;Node41 -->
<g id="edge45" class="edge">
<title>Node40&#45;&gt;Node41</title>
<path fill="none" stroke="midnightblue" d="M585.73,-266.62C607.81,-266.62 636.63,-266.62 661.77,-266.62"/>
<polygon fill="midnightblue" stroke="midnightblue" points="661.93,-270.12 671.93,-266.62 661.93,-263.12 661.93,-270.12"/>
</g>
<!-- Node42 -->
<g id="node41" class="node">
<title>Node42</title>
<g id="a_node41"><a xlink:href="class_type.html#a836b463aa4740a234e0d304ed4cd958f" target="_top" xlink:title=" ">
<polygon fill="white" stroke="black" points="670,-295.12 670,-314.12 769,-314.12 769,-295.12 670,-295.12"/>
<text text-anchor="middle" x="719.5" y="-302.12" font-family="Helvetica,sans-Serif" font-size="10.00">Type::isUnknown</text>
</a>
</g>
</g>
<!-- Node40&#45;&gt;Node42 -->
<g id="edge46" class="edge">
<title>Node40&#45;&gt;Node42</title>
<path fill="none" stroke="midnightblue" d="M585.73,-274.68C609.21,-279.98 640.3,-286.99 666.49,-292.9"/>
<polygon fill="midnightblue" stroke="midnightblue" points="665.74,-296.31 676.27,-295.1 667.28,-289.49 665.74,-296.31"/>
</g>
<!-- Node45&#45;&gt;Node2 -->
<g id="edge53" class="edge">
<title>Node45&#45;&gt;Node2</title>
<path fill="none" stroke="midnightblue" d="M221.17,-484.13C245.52,-518.82 329.83,-638.96 361.94,-684.73"/>
<polygon fill="midnightblue" stroke="midnightblue" points="359.19,-686.9 367.8,-693.08 364.92,-682.88 359.19,-686.9"/>
</g>
<!-- Node45&#45;&gt;Node4 -->
<g id="edge54" class="edge">
<title>Node45&#45;&gt;Node4</title>
<path fill="none" stroke="midnightblue" d="M223.16,-484.27C240.47,-503.05 281.25,-544.81 323,-569.62 326.64,-571.79 330.57,-573.77 334.58,-575.58"/>
<polygon fill="midnightblue" stroke="midnightblue" points="333.39,-578.87 343.97,-579.45 336.06,-572.4 333.39,-578.87"/>
</g>
<!-- Node45&#45;&gt;Node5 -->
<g id="edge56" class="edge">
<title>Node45&#45;&gt;Node5</title>
<path fill="none" stroke="midnightblue" d="M231.08,-484.2C252.08,-496.13 289.56,-516.75 323,-531.62 327.5,-533.63 332.28,-535.59 337.04,-537.46"/>
<polygon fill="midnightblue" stroke="midnightblue" points="336.11,-540.85 346.71,-541.12 338.6,-534.3 336.11,-540.85"/>
</g>
<!-- Node45&#45;&gt;Node8 -->
<g id="edge60" class="edge">
<title>Node45&#45;&gt;Node8</title>
<path fill="none" stroke="midnightblue" d="M258.02,-465.03C268.12,-461.54 278.42,-456.86 287,-450.62 394.5,-372.49 345.43,-269.65 464,-209.62 524.47,-179.01 706.2,-184.14 769,-209.62 819.53,-230.13 917.92,-333.29 945,-380.62 1008.19,-491.07 1023.82,-648.07 1027.46,-702.85"/>
<polygon fill="midnightblue" stroke="midnightblue" points="1023.97,-703.17 1028.07,-712.94 1030.96,-702.75 1023.97,-703.17"/>
</g>
<!-- Node45&#45;&gt;Node12 -->
<g id="edge61" class="edge">
<title>Node45&#45;&gt;Node12</title>
<path fill="none" stroke="midnightblue" d="M271.81,-481.79C292.24,-484.34 314.82,-487.16 333.59,-489.51"/>
<polygon fill="midnightblue" stroke="midnightblue" points="333.23,-492.99 343.59,-490.76 334.1,-486.05 333.23,-492.99"/>
</g>
<!-- Node45&#45;&gt;Node22 -->
<g id="edge59" class="edge">
<title>Node45&#45;&gt;Node22</title>
<path fill="none" stroke="midnightblue" d="M267.8,-465.04C275.17,-461.6 281.94,-456.93 287,-450.62 336.62,-388.77 266.46,-151.22 323,-95.62 394.56,-25.26 447.64,-76.62 548,-76.62 548,-76.62 548,-76.62 720.5,-76.62 819.16,-76.62 935.61,-76.62 992.94,-76.62"/>
<polygon fill="midnightblue" stroke="midnightblue" points="992.95,-80.12 1002.95,-76.62 992.95,-73.12 992.95,-80.12"/>
</g>
<!-- Node45&#45;&gt;Node35 -->
<g id="edge58" class="edge">
<title>Node45&#45;&gt;Node35</title>
<path fill="none" stroke="midnightblue" d="M267.74,-464.99C275.12,-461.55 281.9,-456.9 287,-450.62 331.7,-395.59 270.94,-181.75 323,-133.62 397.14,-65.1 723.22,-96.6 835.7,-109.82"/>
<polygon fill="midnightblue" stroke="midnightblue" points="835.55,-113.32 845.9,-111.03 836.38,-106.37 835.55,-113.32"/>
</g>
<!-- Node45&#45;&gt;Node46 -->
<g id="edge55" class="edge">
<title>Node45&#45;&gt;Node46</title>
<path fill="none" stroke="midnightblue" d="M267.85,-465.08C275.21,-461.63 281.97,-456.95 287,-450.62 340.9,-382.85 273.14,-133.42 323,-62.62 325.49,-59.09 328.64,-56.06 332.15,-53.46"/>
<polygon fill="midnightblue" stroke="midnightblue" points="334.13,-56.36 340.86,-48.17 330.49,-50.38 334.13,-56.36"/>
</g>
<!-- Node47 -->
<g id="node46" class="node">
<title>Node47</title>
<g id="a_node46"><a xlink:href="utils_8h.html#a49dc116689f1a4202be4d3f0743b1f70" target="_top" xlink:title=" ">
<polygon fill="white" stroke="black" points="351,-143.12 351,-162.12 400,-162.12 400,-143.12 351,-143.12"/>
<text text-anchor="middle" x="375.5" y="-150.12" font-family="Helvetica,sans-Serif" font-size="10.00">appDir</text>
</a>
</g>
</g>
<!-- Node45&#45;&gt;Node47 -->
<g id="edge57" class="edge">
<title>Node45&#45;&gt;Node47</title>
<path fill="none" stroke="midnightblue" d="M267.28,-465.08C274.81,-461.63 281.76,-456.96 287,-450.62 365.27,-355.97 250.37,-275.68 323,-176.62 327.61,-170.34 334.29,-165.64 341.31,-162.16"/>
<polygon fill="midnightblue" stroke="midnightblue" points="343.07,-165.21 350.95,-158.12 340.37,-158.76 343.07,-165.21"/>
</g>
<!-- Node48&#45;&gt;Node6 -->
<g id="edge64" class="edge">
<title>Node48&#45;&gt;Node6</title>
<path fill="none" stroke="midnightblue" d="M254.87,-712.21C275.99,-717.23 302.03,-723.41 324.42,-728.73"/>
<polygon fill="midnightblue" stroke="midnightblue" points="323.88,-732.2 334.42,-731.1 325.49,-725.39 323.88,-732.2"/>
</g>
<!-- Node49&#45;&gt;Node43 -->
<g id="edge68" class="edge">
<title>Node49&#45;&gt;Node43</title>
<path fill="none" stroke="midnightblue" d="M262.1,-394.8C271.58,-391.87 280.58,-387.14 287,-379.62 339.23,-318.5 263.39,-73.57 323,-19.62 357.6,11.69 385.36,-0.67 428,-19.62 481.34,-43.34 520.97,-103.77 538.32,-134.33"/>
<polygon fill="midnightblue" stroke="midnightblue" points="535.27,-136.05 543.16,-143.12 541.4,-132.67 535.27,-136.05"/>
</g>
</g>
</svg>
