<?xml version="1.0" encoding="UTF-8" standalone="no"?>
<!DOCTYPE svg PUBLIC "-//W3C//DTD SVG 1.1//EN"
 "http://www.w3.org/Graphics/SVG/1.1/DTD/svg11.dtd">
<!-- Generated by graphviz version 2.43.0 (0)
 -->
<!-- Title: Term::error Pages: 1 -->
<!--zoomable 142 -->
<svg id="main" version="1.1" xmlns="http://www.w3.org/2000/svg" xmlns:xlink="http://www.w3.org/1999/xlink" xml:space="preserve" onload="init(evt)">
<style type="text/css"><![CDATA[
.edge:hover path { stroke: red; }
.edge:hover polygon { stroke: red; fill: red; }
]]></style>
<script type="text/javascript"><![CDATA[
var edges = document.getElementsByTagName('g');
if (edges && edges.length) {
  for (var i=0;i<edges.length;i++) {
    if (edges[i].id.substr(0,4)=='edge') {
      edges[i].setAttribute('class','edge');
    }
  }
}
]]></script>
        <defs>
                <circle id="rim" cx="0" cy="0" r="7"/>
                <circle id="rim2" cx="0" cy="0" r="3.5"/>
                <g id="zoomPlus">
                        <use xlink:href="#rim" fill="#404040">
                                <set attributeName="fill" to="#808080" begin="zoomplus.mouseover" end="zoomplus.mouseout"/>
                        </use>
                        <path d="M-4,0h8M0,-4v8" fill="none" stroke="white" stroke-width="1.5" pointer-events="none"/>
                </g>
                <g id="zoomMin">
                        <use xlink:href="#rim" fill="#404040">
                                <set attributeName="fill" to="#808080" begin="zoomminus.mouseover" end="zoomminus.mouseout"/>
                        </use>
                        <path d="M-4,0h8" fill="none" stroke="white" stroke-width="1.5" pointer-events="none"/>
                </g>
                <g id="dirArrow">
                        <path fill="none" stroke="white" stroke-width="1.5" d="M0,-3.0v7 M-2.5,-0.5L0,-3.0L2.5,-0.5"/>
                </g>
               <g id="resetDef">
                       <use xlink:href="#rim2" fill="#404040">
                               <set attributeName="fill" to="#808080" begin="reset.mouseover" end="reset.mouseout"/>
                       </use>
               </g>
        </defs>

<script type="text/javascript">
var viewWidth = 570;
var viewHeight = 142;
var sectionId = 'dynsection-4';
</script>
<script xlink:href="svgpan.js"/>
<svg id="graph" class="graph">
<g id="viewport">
<title>Term::error</title>
<polygon fill="white" stroke="transparent" points="-4,4 -4,-138 566,-138 566,4 -4,4"/>
<!-- Node1 -->
<g id="node1" class="node">
<title>Node1</title>
<g id="a_node1"><a xlink:title="Print error message.">
<polygon fill="#bfbfbf" stroke="black" points="492,-57.5 492,-76.5 562,-76.5 562,-57.5 492,-57.5"/>
<text text-anchor="middle" x="527" y="-64.5" font-family="Helvetica,sans-Serif" font-size="10.00">Term::error</text>
</a>
</g>
</g>
<!-- Node2 -->
<g id="node2" class="node">
<title>Node2</title>
<g id="a_node2"><a xlink:href="struct_x_y___size.html#a4a5192df22d9d6bc1793eabc6ae1ffa0" target="_top" xlink:title=" ">
<polygon fill="white" stroke="black" points="383,-57.5 383,-76.5 456,-76.5 456,-57.5 383,-57.5"/>
<text text-anchor="middle" x="419.5" y="-64.5" font-family="Helvetica,sans-Serif" font-size="10.00">XY_Size::xy</text>
</a>
</g>
</g>
<!-- Node1&#45;&gt;Node2 -->
<g id="edge1" class="edge">
<title>Node1&#45;&gt;Node2</title>
<path fill="none" stroke="midnightblue" d="M481.56,-67C473.04,-67 464.22,-67 456.03,-67"/>
<polygon fill="midnightblue" stroke="midnightblue" points="481.75,-70.5 491.75,-67 481.75,-63.5 481.75,-70.5"/>
</g>
<!-- Node3 -->
<g id="node3" class="node">
<title>Node3</title>
<g id="a_node3"><a xlink:href="struct_macro.html#aee7d20953d25a4e783b8e897d78c4bf7" target="_top" xlink:title=" ">
<polygon fill="white" stroke="black" points="245.5,-114.5 245.5,-133.5 346.5,-133.5 346.5,-114.5 245.5,-114.5"/>
<text text-anchor="middle" x="296" y="-121.5" font-family="Helvetica,sans-Serif" font-size="10.00">Macro::replaceXY</text>
</a>
</g>
</g>
<!-- Node2&#45;&gt;Node3 -->
<g id="edge2" class="edge">
<title>Node2&#45;&gt;Node3</title>
<path fill="none" stroke="midnightblue" d="M393.3,-81.39C379.78,-88.85 362.71,-97.88 347,-105 339.64,-108.34 331.51,-111.6 323.98,-114.45"/>
<polygon fill="midnightblue" stroke="midnightblue" points="395.01,-84.44 402.04,-76.51 391.6,-78.33 395.01,-84.44"/>
</g>
<!-- Node6 -->
<g id="node6" class="node">
<title>Node6</title>
<g id="a_node6"><a xlink:href="struct_x_y___size.html#a1044ad37af4e25277b6f7cda06052fc1" target="_top" xlink:title=" ">
<polygon fill="white" stroke="black" points="262.5,-76.5 262.5,-95.5 329.5,-95.5 329.5,-76.5 262.5,-76.5"/>
<text text-anchor="middle" x="296" y="-83.5" font-family="Helvetica,sans-Serif" font-size="10.00">XY_Size::x</text>
</a>
</g>
</g>
<!-- Node2&#45;&gt;Node6 -->
<g id="edge5" class="edge">
<title>Node2&#45;&gt;Node6</title>
<path fill="none" stroke="midnightblue" d="M372.56,-74.18C358.27,-76.42 342.82,-78.83 329.64,-80.9"/>
<polygon fill="midnightblue" stroke="midnightblue" points="373.36,-77.6 382.7,-72.6 372.28,-70.68 373.36,-77.6"/>
</g>
<!-- Node7 -->
<g id="node7" class="node">
<title>Node7</title>
<g id="a_node7"><a xlink:href="struct_x_y___size.html#a42f2c088d4a2090d3ddc884be3547d39" target="_top" xlink:title=" ">
<polygon fill="white" stroke="black" points="245,-38.5 245,-57.5 347,-57.5 347,-38.5 245,-38.5"/>
<text text-anchor="middle" x="296" y="-45.5" font-family="Helvetica,sans-Serif" font-size="10.00">XY_Size::x_mul_y</text>
</a>
</g>
</g>
<!-- Node2&#45;&gt;Node7 -->
<g id="edge6" class="edge">
<title>Node2&#45;&gt;Node7</title>
<path fill="none" stroke="midnightblue" d="M372.82,-59.86C364.52,-58.56 355.82,-57.2 347.39,-55.88"/>
<polygon fill="midnightblue" stroke="midnightblue" points="372.28,-63.32 382.7,-61.4 373.36,-56.4 372.28,-63.32"/>
</g>
<!-- Node8 -->
<g id="node8" class="node">
<title>Node8</title>
<g id="a_node8"><a xlink:href="struct_x_y___size.html#a2db4fb0d73fbbafb70315253aa4171d4" target="_top" xlink:title=" ">
<polygon fill="white" stroke="black" points="262.5,-0.5 262.5,-19.5 329.5,-19.5 329.5,-0.5 262.5,-0.5"/>
<text text-anchor="middle" x="296" y="-7.5" font-family="Helvetica,sans-Serif" font-size="10.00">XY_Size::y</text>
</a>
</g>
</g>
<!-- Node2&#45;&gt;Node8 -->
<g id="edge7" class="edge">
<title>Node2&#45;&gt;Node8</title>
<path fill="none" stroke="midnightblue" d="M393.3,-52.61C379.78,-45.15 362.71,-36.12 347,-29 339.64,-25.66 331.51,-22.4 323.98,-19.55"/>
<polygon fill="midnightblue" stroke="midnightblue" points="391.6,-55.67 402.04,-57.49 395.01,-49.56 391.6,-55.67"/>
</g>
<!-- Node4 -->
<g id="node4" class="node">
<title>Node4</title>
<g id="a_node4"><a xlink:href="struct_macro.html#ac0ddd588c300108ca443b10316d99877" target="_top" xlink:title=" ">
<polygon fill="white" stroke="black" points="90,-114.5 90,-133.5 209,-133.5 209,-114.5 90,-114.5"/>
<text text-anchor="middle" x="149.5" y="-121.5" font-family="Helvetica,sans-Serif" font-size="10.00">Macro::replaceMacro</text>
</a>
</g>
</g>
<!-- Node3&#45;&gt;Node4 -->
<g id="edge3" class="edge">
<title>Node3&#45;&gt;Node4</title>
<path fill="none" stroke="midnightblue" d="M235.25,-124C226.58,-124 217.67,-124 209.03,-124"/>
<polygon fill="midnightblue" stroke="midnightblue" points="235.27,-127.5 245.27,-124 235.27,-120.5 235.27,-127.5"/>
</g>
<!-- Node5 -->
<g id="node5" class="node">
<title>Node5</title>
<g id="a_node5"><a xlink:href="class_alg.html#a45e536cf797bba52c851877371ea64c5" target="_top" xlink:title=" ">
<polygon fill="white" stroke="black" points="0,-114.5 0,-133.5 54,-133.5 54,-114.5 0,-114.5"/>
<text text-anchor="middle" x="27" y="-121.5" font-family="Helvetica,sans-Serif" font-size="10.00">Alg::Alg</text>
</a>
</g>
</g>
<!-- Node4&#45;&gt;Node5 -->
<g id="edge4" class="edge">
<title>Node4&#45;&gt;Node5</title>
<path fill="none" stroke="midnightblue" d="M79.49,-124C70.55,-124 61.87,-124 54.26,-124"/>
<polygon fill="midnightblue" stroke="midnightblue" points="79.66,-127.5 89.66,-124 79.66,-120.5 79.66,-127.5"/>
</g>
</g>
</svg>
        <g id="navigator" transform="translate(0 0)" fill="#404254">
                <rect fill="#f2f5e9" fill-opacity="0.5" stroke="#606060" stroke-width=".5" x="0" y="0" width="60" height="60"/>
                <use id="zoomplus" xlink:href="#zoomPlus" x="17" y="9" onmousedown="handleZoom(evt,'in')"/>
                <use id="zoomminus" xlink:href="#zoomMin" x="42" y="9" onmousedown="handleZoom(evt,'out')"/>
                <use id="reset" xlink:href="#resetDef" x="30" y="36" onmousedown="handleReset()"/>
                <g id="arrowUp" xlink:href="#dirArrow" transform="translate(30 24)" onmousedown="handlePan(0,-1)">
                  <use xlink:href="#rim" fill="#404040">
                        <set attributeName="fill" to="#808080" begin="arrowUp.mouseover" end="arrowUp.mouseout"/>
                  </use>
                  <path fill="none" stroke="white" stroke-width="1.5" d="M0,-3.0v7 M-2.5,-0.5L0,-3.0L2.5,-0.5"/>
                </g>
                <g id="arrowRight" xlink:href="#dirArrow" transform="rotate(90) translate(36 -43)" onmousedown="handlePan(1,0)">
                  <use xlink:href="#rim" fill="#404040">
                        <set attributeName="fill" to="#808080" begin="arrowRight.mouseover" end="arrowRight.mouseout"/>
                  </use>
                  <path fill="none" stroke="white" stroke-width="1.5" d="M0,-3.0v7 M-2.5,-0.5L0,-3.0L2.5,-0.5"/>
                </g>
                <g id="arrowDown" xlink:href="#dirArrow" transform="rotate(180) translate(-30 -48)" onmousedown="handlePan(0,1)">
                  <use xlink:href="#rim" fill="#404040">
                        <set attributeName="fill" to="#808080" begin="arrowDown.mouseover" end="arrowDown.mouseout"/>
                  </use>
                  <path fill="none" stroke="white" stroke-width="1.5" d="M0,-3.0v7 M-2.5,-0.5L0,-3.0L2.5,-0.5"/>
                </g>
                <g id="arrowLeft" xlink:href="#dirArrow" transform="rotate(270) translate(-36 17)" onmousedown="handlePan(-1,0)">
                  <use xlink:href="#rim" fill="#404040">
                        <set attributeName="fill" to="#808080" begin="arrowLeft.mouseover" end="arrowLeft.mouseout"/>
                  </use>
                  <path fill="none" stroke="white" stroke-width="1.5" d="M0,-3.0v7 M-2.5,-0.5L0,-3.0L2.5,-0.5"/>
                </g>
        </g>
        <svg viewBox="0 0 15 15" width="100%" height="30px" preserveAspectRatio="xMaxYMin meet">
         <g id="arrow_out" transform="scale(0.3 0.3)">
          <a xlink:href="class_term_abd955a8def100354b03e33911c3b21f8_icgraph_org.svg" target="_base">
           <rect id="button" ry="5" rx="5" y="6" x="6" height="38" width="38"
                fill="#f2f5e9" fill-opacity="0.5" stroke="#606060" stroke-width="1.0"/>
           <path id="arrow"
             d="M 11.500037,31.436501 C 11.940474,20.09759 22.043105,11.32322 32.158766,21.979434 L 37.068811,17.246167 C 37.068811,17.246167 37.088388,32 37.088388,32 L 22.160133,31.978069 C 22.160133,31.978069 26.997745,27.140456 26.997745,27.140456 C 18.528582,18.264221 13.291696,25.230495 11.500037,31.436501 z"
             style="fill:#404040;"/>
          </a>
         </g>
        </svg>
</svg>
