<?xml version="1.0" encoding="UTF-8" standalone="no"?>
<!DOCTYPE svg PUBLIC "-//W3C//DTD SVG 1.1//EN"
 "http://www.w3.org/Graphics/SVG/1.1/DTD/svg11.dtd">
<!-- Generated by graphviz version 2.43.0 (0)
 -->
<!-- Title: Calc::as Pages: 1 -->
<svg width="372pt" height="265pt"
 viewBox="0.00 0.00 372.00 265.00" xmlns="http://www.w3.org/2000/svg" xmlns:xlink="http://www.w3.org/1999/xlink">
<g id="graph0" class="graph" transform="scale(1 1) rotate(0) translate(4 261)">
<title>Calc::as</title>
<polygon fill="white" stroke="transparent" points="-4,4 -4,-261 368,-261 368,4 -4,4"/>
<!-- Node1 -->
<g id="node1" class="node">
<title>Node1</title>
<g id="a_node1"><a xlink:title="Convert the Alg CALC contents into a language command.">
<polygon fill="#bfbfbf" stroke="black" points="0,-132.5 0,-151.5 55,-151.5 55,-132.5 0,-132.5"/>
<text text-anchor="middle" x="27.5" y="-139.5" font-family="Helvetica,sans-Serif" font-size="10.00">Calc::as</text>
</a>
</g>
</g>
<!-- Node2 -->
<g id="node2" class="node">
<title>Node2</title>
<g id="a_node2"><a xlink:href="class_calc.html#af1d1bd5e83f9e5196627f5a4e1a5ee83" target="_top" xlink:title=" ">
<polygon fill="white" stroke="black" points="98.5,-208.5 98.5,-227.5 223.5,-227.5 223.5,-208.5 98.5,-208.5"/>
<text text-anchor="middle" x="161" y="-215.5" font-family="Helvetica,sans-Serif" font-size="10.00">Calc::_changeFunction</text>
</a>
</g>
</g>
<!-- Node1&#45;&gt;Node2 -->
<g id="edge1" class="edge">
<title>Node1&#45;&gt;Node2</title>
<path fill="none" stroke="midnightblue" d="M36.37,-151.56C47.31,-164.26 68.37,-186.52 91,-199 95.13,-201.28 99.56,-203.3 104.1,-205.09"/>
<polygon fill="midnightblue" stroke="midnightblue" points="102.94,-208.39 113.53,-208.45 105.29,-201.8 102.94,-208.39"/>
</g>
<!-- Node5 -->
<g id="node5" class="node">
<title>Node5</title>
<g id="a_node5"><a xlink:href="class_calc.html#ae3d88bd40f9bdf2c8ec92c426bdca446" target="_top" xlink:title=" ">
<polygon fill="white" stroke="black" points="97.5,-170.5 97.5,-189.5 224.5,-189.5 224.5,-170.5 97.5,-170.5"/>
<text text-anchor="middle" x="161" y="-177.5" font-family="Helvetica,sans-Serif" font-size="10.00">Calc::_changeOperator</text>
</a>
</g>
</g>
<!-- Node1&#45;&gt;Node5 -->
<g id="edge4" class="edge">
<title>Node1&#45;&gt;Node5</title>
<path fill="none" stroke="midnightblue" d="M55.22,-150.29C66.27,-153.68 79.24,-157.59 91,-161 98.64,-163.21 106.77,-165.5 114.66,-167.7"/>
<polygon fill="midnightblue" stroke="midnightblue" points="113.92,-171.13 124.49,-170.42 115.79,-164.38 113.92,-171.13"/>
</g>
<!-- Node6 -->
<g id="node6" class="node">
<title>Node6</title>
<g id="a_node6"><a xlink:href="class_calc.html#ad95be528148e0d63848d5fa916b93200" target="_top" xlink:title=" ">
<polygon fill="white" stroke="black" points="105.5,-132.5 105.5,-151.5 216.5,-151.5 216.5,-132.5 105.5,-132.5"/>
<text text-anchor="middle" x="161" y="-139.5" font-family="Helvetica,sans-Serif" font-size="10.00">Calc::_changeParen</text>
</a>
</g>
</g>
<!-- Node1&#45;&gt;Node6 -->
<g id="edge5" class="edge">
<title>Node1&#45;&gt;Node6</title>
<path fill="none" stroke="midnightblue" d="M55.11,-142C66.77,-142 81,-142 95.18,-142"/>
<polygon fill="midnightblue" stroke="midnightblue" points="95.45,-145.5 105.45,-142 95.45,-138.5 95.45,-145.5"/>
</g>
<!-- Node7 -->
<g id="node7" class="node">
<title>Node7</title>
<g id="a_node7"><a xlink:href="class_calc.html#ad562619fef96a73cd3b4c27b35bc5f91" target="_top" xlink:title=" ">
<polygon fill="white" stroke="black" points="96,-76.5 96,-95.5 226,-95.5 226,-76.5 96,-76.5"/>
<text text-anchor="middle" x="161" y="-83.5" font-family="Helvetica,sans-Serif" font-size="10.00">Calc::_changeSubScript</text>
</a>
</g>
</g>
<!-- Node1&#45;&gt;Node7 -->
<g id="edge6" class="edge">
<title>Node1&#45;&gt;Node7</title>
<path fill="none" stroke="midnightblue" d="M51.11,-132.37C72.4,-123.3 104.52,-109.63 128.36,-99.48"/>
<polygon fill="midnightblue" stroke="midnightblue" points="129.86,-102.64 137.69,-95.5 127.12,-96.2 129.86,-102.64"/>
</g>
<!-- Node13 -->
<g id="node13" class="node">
<title>Node13</title>
<g id="a_node13"><a xlink:href="class_calc.html#a1aec4748092712e0995c0ae5dabbf54f" target="_top" xlink:title=" ">
<polygon fill="white" stroke="black" points="91,-38.5 91,-57.5 231,-57.5 231,-38.5 91,-38.5"/>
<text text-anchor="middle" x="161" y="-45.5" font-family="Helvetica,sans-Serif" font-size="10.00">Calc::_changeSuperScript</text>
</a>
</g>
</g>
<!-- Node1&#45;&gt;Node13 -->
<g id="edge13" class="edge">
<title>Node1&#45;&gt;Node13</title>
<path fill="none" stroke="midnightblue" d="M33.87,-132.33C43.29,-116.27 64.36,-84.17 91,-67 94.31,-64.87 97.86,-62.97 101.54,-61.28"/>
<polygon fill="midnightblue" stroke="midnightblue" points="102.93,-64.5 110.89,-57.51 100.31,-58.01 102.93,-64.5"/>
</g>
<!-- Node3 -->
<g id="node3" class="node">
<title>Node3</title>
<g id="a_node3"><a xlink:href="class_calc.html#a7d793eba0a7c9fcbafec4310359f165d" target="_top" xlink:title=" ">
<polygon fill="white" stroke="black" points="269,-237.5 269,-256.5 362,-256.5 362,-237.5 269,-237.5"/>
<text text-anchor="middle" x="315.5" y="-244.5" font-family="Helvetica,sans-Serif" font-size="10.00">Calc::_addArma</text>
</a>
</g>
</g>
<!-- Node2&#45;&gt;Node3 -->
<g id="edge2" class="edge">
<title>Node2&#45;&gt;Node3</title>
<path fill="none" stroke="midnightblue" d="M212.36,-227.58C227.16,-230.39 243.44,-233.49 258.57,-236.36"/>
<polygon fill="midnightblue" stroke="midnightblue" points="258.35,-239.88 268.83,-238.31 259.66,-233.01 258.35,-239.88"/>
</g>
<!-- Node4 -->
<g id="node4" class="node">
<title>Node4</title>
<g id="a_node4"><a xlink:href="class_calc.html#af58cd6a2174e577a6246366de03b949e" target="_top" xlink:title=" ">
<polygon fill="white" stroke="black" points="267,-199.5 267,-218.5 364,-218.5 364,-199.5 267,-199.5"/>
<text text-anchor="middle" x="315.5" y="-206.5" font-family="Helvetica,sans-Serif" font-size="10.00">Calc::_addMmce</text>
</a>
</g>
</g>
<!-- Node2&#45;&gt;Node4 -->
<g id="edge3" class="edge">
<title>Node2&#45;&gt;Node4</title>
<path fill="none" stroke="midnightblue" d="M223.59,-214.37C234.49,-213.72 245.8,-213.05 256.6,-212.42"/>
<polygon fill="midnightblue" stroke="midnightblue" points="256.98,-215.9 266.76,-211.82 256.57,-208.91 256.98,-215.9"/>
</g>
<!-- Node7&#45;&gt;Node7 -->
<g id="edge7" class="edge">
<title>Node7&#45;&gt;Node7</title>
<path fill="none" stroke="midnightblue" d="M140.65,-95.76C130.76,-104.57 137.54,-114 161,-114 176.03,-114 184.21,-110.13 185.55,-105.03"/>
<polygon fill="midnightblue" stroke="midnightblue" points="188.67,-103.42 181.35,-95.76 182.29,-106.31 188.67,-103.42"/>
</g>
<!-- Node8 -->
<g id="node8" class="node">
<title>Node8</title>
<g id="a_node8"><a xlink:href="class_calc.html#a284818e83b0d85bdd029f3d72d4ef0bd" target="_top" xlink:title=" ">
<polygon fill="white" stroke="black" points="280.5,-152.5 280.5,-171.5 350.5,-171.5 350.5,-152.5 280.5,-152.5"/>
<text text-anchor="middle" x="315.5" y="-159.5" font-family="Helvetica,sans-Serif" font-size="10.00">Calc::_msg</text>
</a>
</g>
</g>
<!-- Node7&#45;&gt;Node8 -->
<g id="edge8" class="edge">
<title>Node7&#45;&gt;Node8</title>
<path fill="none" stroke="midnightblue" d="M179.91,-95.51C193.86,-102.94 213.7,-113.56 231,-123 247.07,-131.77 250.47,-135.14 267,-143 270.88,-144.84 274.99,-146.67 279.1,-148.42"/>
<polygon fill="midnightblue" stroke="midnightblue" points="278.03,-151.76 288.61,-152.33 280.69,-145.29 278.03,-151.76"/>
</g>
<!-- Node9 -->
<g id="node9" class="node">
<title>Node9</title>
<g id="a_node9"><a xlink:href="class_log.html#ac7147942832455398ad289b706a02616" target="_top" xlink:title="Write error message to the log file.">
<polygon fill="white" stroke="black" points="289,-114.5 289,-133.5 342,-133.5 342,-114.5 289,-114.5"/>
<text text-anchor="middle" x="315.5" y="-121.5" font-family="Helvetica,sans-Serif" font-size="10.00">Log::err</text>
</a>
</g>
</g>
<!-- Node7&#45;&gt;Node9 -->
<g id="edge9" class="edge">
<title>Node7&#45;&gt;Node9</title>
<path fill="none" stroke="midnightblue" d="M200.48,-95.59C224.62,-101.6 255.51,-109.3 279.04,-115.16"/>
<polygon fill="midnightblue" stroke="midnightblue" points="278.41,-118.62 288.96,-117.64 280.11,-111.82 278.41,-118.62"/>
</g>
<!-- Node10 -->
<g id="node10" class="node">
<title>Node10</title>
<g id="a_node10"><a xlink:href="class_log.html#add7e611cd3267d3fd5dae017e3aeef67" target="_top" xlink:title="Write infomation to the log file.">
<polygon fill="white" stroke="black" points="286,-76.5 286,-95.5 345,-95.5 345,-76.5 286,-76.5"/>
<text text-anchor="middle" x="315.5" y="-83.5" font-family="Helvetica,sans-Serif" font-size="10.00">Log::info</text>
</a>
</g>
</g>
<!-- Node7&#45;&gt;Node10 -->
<g id="edge10" class="edge">
<title>Node7&#45;&gt;Node10</title>
<path fill="none" stroke="midnightblue" d="M226.23,-86C243,-86 260.56,-86 275.57,-86"/>
<polygon fill="midnightblue" stroke="midnightblue" points="275.99,-89.5 285.99,-86 275.99,-82.5 275.99,-89.5"/>
</g>
<!-- Node11 -->
<g id="node11" class="node">
<title>Node11</title>
<g id="a_node11"><a xlink:href="utils_8h.html#aa0a3ba0e1cec6f6b77334767af46eef7" target="_top" xlink:title="Check if the string is an unsigned integer.">
<polygon fill="white" stroke="black" points="293,-38.5 293,-57.5 338,-57.5 338,-38.5 293,-38.5"/>
<text text-anchor="middle" x="315.5" y="-45.5" font-family="Helvetica,sans-Serif" font-size="10.00">isUInt</text>
</a>
</g>
</g>
<!-- Node7&#45;&gt;Node11 -->
<g id="edge11" class="edge">
<title>Node7&#45;&gt;Node11</title>
<path fill="none" stroke="midnightblue" d="M200.48,-76.41C226,-70.05 259.07,-61.81 283.02,-55.85"/>
<polygon fill="midnightblue" stroke="midnightblue" points="284.14,-59.17 292.99,-53.36 282.44,-52.38 284.14,-59.17"/>
</g>
<!-- Node12 -->
<g id="node12" class="node">
<title>Node12</title>
<g id="a_node12"><a xlink:href="class_type___track.html#ab510214767b1b4d71e3beadecb814bb7" target="_top" xlink:title=" ">
<polygon fill="white" stroke="black" points="268,-0.5 268,-19.5 363,-19.5 363,-0.5 268,-0.5"/>
<text text-anchor="middle" x="315.5" y="-7.5" font-family="Helvetica,sans-Serif" font-size="10.00">Type_Track::size</text>
</a>
</g>
</g>
<!-- Node7&#45;&gt;Node12 -->
<g id="edge12" class="edge">
<title>Node7&#45;&gt;Node12</title>
<path fill="none" stroke="midnightblue" d="M210.17,-76.39C217.42,-73.92 224.61,-70.84 231,-67 250.95,-55.03 247.75,-42.07 267,-29 269.72,-27.15 272.64,-25.44 275.66,-23.87"/>
<polygon fill="midnightblue" stroke="midnightblue" points="277.29,-26.97 284.86,-19.56 274.32,-20.63 277.29,-26.97"/>
</g>
</g>
</svg>
