<?xml version="1.0" encoding="UTF-8" standalone="no"?>
<!DOCTYPE svg PUBLIC "-//W3C//DTD SVG 1.1//EN"
 "http://www.w3.org/Graphics/SVG/1.1/DTD/svg11.dtd">
<!-- Generated by graphviz version 2.43.0 (0)
 -->
<!-- Title: Alg::Alg Pages: 1 -->
<svg width="489pt" height="288pt"
 viewBox="0.00 0.00 489.00 288.00" xmlns="http://www.w3.org/2000/svg" xmlns:xlink="http://www.w3.org/1999/xlink">
<g id="graph0" class="graph" transform="scale(1 1) rotate(0) translate(4 284)">
<title>Alg::Alg</title>
<polygon fill="white" stroke="transparent" points="-4,4 -4,-284 485,-284 485,4 -4,4"/>
<!-- Node1 -->
<g id="node1" class="node">
<title>Node1</title>
<g id="a_node1"><a xlink:title=" ">
<polygon fill="#bfbfbf" stroke="black" points="0,-152.5 0,-171.5 54,-171.5 54,-152.5 0,-152.5"/>
<text text-anchor="middle" x="27" y="-159.5" font-family="Helvetica,sans-Serif" font-size="10.00">Alg::Alg</text>
</a>
</g>
</g>
<!-- Node2 -->
<g id="node2" class="node">
<title>Node2</title>
<g id="a_node2"><a xlink:href="class_alg.html#af935e64a6eb4afa4ca1540f4da3dcc9c" target="_top" xlink:title=" ">
<polygon fill="white" stroke="black" points="121.5,-190.5 121.5,-209.5 177.5,-209.5 177.5,-190.5 121.5,-190.5"/>
<text text-anchor="middle" x="149.5" y="-197.5" font-family="Helvetica,sans-Serif" font-size="10.00">Alg::line</text>
</a>
</g>
</g>
<!-- Node1&#45;&gt;Node2 -->
<g id="edge1" class="edge">
<title>Node1&#45;&gt;Node2</title>
<path fill="none" stroke="midnightblue" d="M54.15,-170.25C70.93,-175.54 92.97,-182.49 111.53,-188.34"/>
<polygon fill="midnightblue" stroke="midnightblue" points="110.56,-191.71 121.15,-191.37 112.67,-185.03 110.56,-191.71"/>
</g>
<!-- Node3 -->
<g id="node3" class="node">
<title>Node3</title>
<g id="a_node3"><a xlink:href="struct_macro.html#ac0ddd588c300108ca443b10316d99877" target="_top" xlink:title=" ">
<polygon fill="white" stroke="black" points="90,-152.5 90,-171.5 209,-171.5 209,-152.5 90,-152.5"/>
<text text-anchor="middle" x="149.5" y="-159.5" font-family="Helvetica,sans-Serif" font-size="10.00">Macro::replaceMacro</text>
</a>
</g>
</g>
<!-- Node1&#45;&gt;Node3 -->
<g id="edge2" class="edge">
<title>Node1&#45;&gt;Node3</title>
<path fill="none" stroke="midnightblue" d="M54.15,-162C61.79,-162 70.53,-162 79.53,-162"/>
<polygon fill="midnightblue" stroke="midnightblue" points="79.76,-165.5 89.76,-162 79.76,-158.5 79.76,-165.5"/>
</g>
<!-- Node12 -->
<g id="node12" class="node">
<title>Node12</title>
<g id="a_node12"><a xlink:href="utils_8h.html#a6ef734356291c638e5787a6c668192d4" target="_top" xlink:title=" ">
<polygon fill="white" stroke="black" points="131,-38.5 131,-57.5 168,-57.5 168,-38.5 131,-38.5"/>
<text text-anchor="middle" x="149.5" y="-45.5" font-family="Helvetica,sans-Serif" font-size="10.00">trim</text>
</a>
</g>
</g>
<!-- Node1&#45;&gt;Node12 -->
<g id="edge13" class="edge">
<title>Node1&#45;&gt;Node12</title>
<path fill="none" stroke="midnightblue" d="M38.27,-152.28C58.82,-132.85 105.17,-88.99 130.74,-64.8"/>
<polygon fill="midnightblue" stroke="midnightblue" points="133.39,-67.11 138.25,-57.69 128.58,-62.02 133.39,-67.11"/>
</g>
<!-- Node4 -->
<g id="node4" class="node">
<title>Node4</title>
<g id="a_node4"><a xlink:href="struct_x_y___size.html#a5e681ada57de15aeca79e2d09f3162f1" target="_top" xlink:title=" ">
<polygon fill="white" stroke="black" points="260,-228.5 260,-247.5 326,-247.5 326,-228.5 260,-228.5"/>
<text text-anchor="middle" x="293" y="-235.5" font-family="Helvetica,sans-Serif" font-size="10.00">XY_Size::_</text>
</a>
</g>
</g>
<!-- Node3&#45;&gt;Node4 -->
<g id="edge3" class="edge">
<title>Node3&#45;&gt;Node4</title>
<path fill="none" stroke="midnightblue" d="M188.04,-171.55C195.24,-174.11 202.54,-177.23 209,-181 227.75,-191.94 227.17,-201.62 245,-214 250.01,-217.48 255.6,-220.78 261.12,-223.75"/>
<polygon fill="midnightblue" stroke="midnightblue" points="259.75,-226.97 270.25,-228.41 262.94,-220.74 259.75,-226.97"/>
</g>
<!-- Node5 -->
<g id="node5" class="node">
<title>Node5</title>
<g id="a_node5"><a xlink:href="struct_x_y___size.html#a0c52dcb9cfa4d7ccbe373c482ebf2337" target="_top" xlink:title=" ">
<polygon fill="white" stroke="black" points="396.5,-256.5 396.5,-275.5 461.5,-275.5 461.5,-256.5 396.5,-256.5"/>
<text text-anchor="middle" x="429" y="-263.5" font-family="Helvetica,sans-Serif" font-size="10.00">XY_Size::r</text>
</a>
</g>
</g>
<!-- Node3&#45;&gt;Node5 -->
<g id="edge7" class="edge">
<title>Node3&#45;&gt;Node5</title>
<path fill="none" stroke="midnightblue" d="M193.9,-171.57C199.37,-174.03 204.59,-177.12 209,-181 237.07,-205.68 213.92,-236.24 245,-257 286.73,-284.87 346.53,-281.81 386.28,-275.35"/>
<polygon fill="midnightblue" stroke="midnightblue" points="386.94,-278.79 396.18,-273.61 385.72,-271.9 386.94,-278.79"/>
</g>
<!-- Node6 -->
<g id="node6" class="node">
<title>Node6</title>
<g id="a_node6"><a xlink:href="struct_x_y___size.html#acc0b4290938fb650a451fdd851d900a6" target="_top" xlink:title=" ">
<polygon fill="white" stroke="black" points="396.5,-209.5 396.5,-228.5 461.5,-228.5 461.5,-209.5 396.5,-209.5"/>
<text text-anchor="middle" x="429" y="-216.5" font-family="Helvetica,sans-Serif" font-size="10.00">XY_Size::t</text>
</a>
</g>
</g>
<!-- Node3&#45;&gt;Node6 -->
<g id="edge11" class="edge">
<title>Node3&#45;&gt;Node6</title>
<path fill="none" stroke="midnightblue" d="M196.95,-171.54C249.78,-182.39 335.28,-199.96 386.13,-210.4"/>
<polygon fill="midnightblue" stroke="midnightblue" points="385.63,-213.87 396.13,-212.45 387.04,-207.01 385.63,-213.87"/>
</g>
<!-- Node7 -->
<g id="node7" class="node">
<title>Node7</title>
<g id="a_node7"><a xlink:href="class_log.html#a48b8faa1f9d2590c6fb650f1004e73c9" target="_top" xlink:title="Flush the buff into the log file.">
<polygon fill="white" stroke="black" points="261.5,-152.5 261.5,-171.5 324.5,-171.5 324.5,-152.5 261.5,-152.5"/>
<text text-anchor="middle" x="293" y="-159.5" font-family="Helvetica,sans-Serif" font-size="10.00">Log::flush</text>
</a>
</g>
</g>
<!-- Node3&#45;&gt;Node7 -->
<g id="edge6" class="edge">
<title>Node3&#45;&gt;Node7</title>
<path fill="none" stroke="midnightblue" d="M209.28,-162C223.42,-162 238.22,-162 251.32,-162"/>
<polygon fill="midnightblue" stroke="midnightblue" points="251.42,-165.5 261.42,-162 251.42,-158.5 251.42,-165.5"/>
</g>
<!-- Node8 -->
<g id="node8" class="node">
<title>Node8</title>
<g id="a_node8"><a xlink:href="struct_macro.html#a94360db4bd4a0a2516339dadc6c37bbd" target="_top" xlink:title="RegEx replace.">
<polygon fill="white" stroke="black" points="248.5,-114.5 248.5,-133.5 337.5,-133.5 337.5,-114.5 248.5,-114.5"/>
<text text-anchor="middle" x="293" y="-121.5" font-family="Helvetica,sans-Serif" font-size="10.00">Macro::replace</text>
</a>
</g>
</g>
<!-- Node3&#45;&gt;Node8 -->
<g id="edge8" class="edge">
<title>Node3&#45;&gt;Node8</title>
<path fill="none" stroke="midnightblue" d="M186.21,-152.41C204.47,-147.51 226.91,-141.48 246.41,-136.24"/>
<polygon fill="midnightblue" stroke="midnightblue" points="247.55,-139.56 256.3,-133.59 245.74,-132.8 247.55,-139.56"/>
</g>
<!-- Node11 -->
<g id="node11" class="node">
<title>Node11</title>
<g id="a_node11"><a xlink:href="namespacemmce.html#ad4a160832ef9fad47c531ece39752208" target="_top" xlink:title="Change a number to string.">
<polygon fill="white" stroke="black" points="245,-76.5 245,-95.5 341,-95.5 341,-76.5 245,-76.5"/>
<text text-anchor="middle" x="293" y="-83.5" font-family="Helvetica,sans-Serif" font-size="10.00">mmce::to_string</text>
</a>
</g>
</g>
<!-- Node3&#45;&gt;Node11 -->
<g id="edge12" class="edge">
<title>Node3&#45;&gt;Node11</title>
<path fill="none" stroke="midnightblue" d="M164.82,-152.37C183,-140.4 215.52,-119.73 245,-105 248.81,-103.1 252.86,-101.23 256.92,-99.47"/>
<polygon fill="midnightblue" stroke="midnightblue" points="258.43,-102.62 266.31,-95.53 255.73,-96.17 258.43,-102.62"/>
</g>
<!-- Node4&#45;&gt;Node5 -->
<g id="edge4" class="edge">
<title>Node4&#45;&gt;Node5</title>
<path fill="none" stroke="midnightblue" d="M326.1,-244.71C344.16,-248.48 366.93,-253.24 386.35,-257.3"/>
<polygon fill="midnightblue" stroke="midnightblue" points="385.66,-260.73 396.17,-259.35 387.09,-253.88 385.66,-260.73"/>
</g>
<!-- Node4&#45;&gt;Node6 -->
<g id="edge5" class="edge">
<title>Node4&#45;&gt;Node6</title>
<path fill="none" stroke="midnightblue" d="M326.1,-233.45C344.08,-230.9 366.72,-227.69 386.09,-224.94"/>
<polygon fill="midnightblue" stroke="midnightblue" points="386.76,-228.38 396.17,-223.51 385.77,-221.45 386.76,-228.38"/>
</g>
<!-- Node9 -->
<g id="node9" class="node">
<title>Node9</title>
<g id="a_node9"><a xlink:href="class_log.html#add7e611cd3267d3fd5dae017e3aeef67" target="_top" xlink:title="Write infomation to the log file.">
<polygon fill="white" stroke="black" points="399.5,-133.5 399.5,-152.5 458.5,-152.5 458.5,-133.5 399.5,-133.5"/>
<text text-anchor="middle" x="429" y="-140.5" font-family="Helvetica,sans-Serif" font-size="10.00">Log::info</text>
</a>
</g>
</g>
<!-- Node8&#45;&gt;Node9 -->
<g id="edge9" class="edge">
<title>Node8&#45;&gt;Node9</title>
<path fill="none" stroke="midnightblue" d="M337.51,-130.17C354.18,-132.53 373.08,-135.21 389.28,-137.51"/>
<polygon fill="midnightblue" stroke="midnightblue" points="389.09,-141.02 399.48,-138.96 390.07,-134.09 389.09,-141.02"/>
</g>
<!-- Node10 -->
<g id="node10" class="node">
<title>Node10</title>
<g id="a_node10"><a xlink:href="struct_macro.html#a0a64263ca28e6e30160145a33ed5d77f" target="_top" xlink:title="Get the name of Type.">
<polygon fill="white" stroke="black" points="377,-95.5 377,-114.5 481,-114.5 481,-95.5 377,-95.5"/>
<text text-anchor="middle" x="429" y="-102.5" font-family="Helvetica,sans-Serif" font-size="10.00">Macro::typeName</text>
</a>
</g>
</g>
<!-- Node8&#45;&gt;Node10 -->
<g id="edge10" class="edge">
<title>Node8&#45;&gt;Node10</title>
<path fill="none" stroke="midnightblue" d="M337.51,-117.83C346.81,-116.51 356.8,-115.1 366.63,-113.7"/>
<polygon fill="midnightblue" stroke="midnightblue" points="367.37,-117.13 376.78,-112.26 366.39,-110.2 367.37,-117.13"/>
</g>
<!-- Node13 -->
<g id="node13" class="node">
<title>Node13</title>
<g id="a_node13"><a xlink:href="utils_8h.html#a47084ee818936eef3c48be492c0e860f" target="_top" xlink:title=" ">
<polygon fill="white" stroke="black" points="273,-38.5 273,-57.5 313,-57.5 313,-38.5 273,-38.5"/>
<text text-anchor="middle" x="293" y="-45.5" font-family="Helvetica,sans-Serif" font-size="10.00">ltrim</text>
</a>
</g>
</g>
<!-- Node12&#45;&gt;Node13 -->
<g id="edge14" class="edge">
<title>Node12&#45;&gt;Node13</title>
<path fill="none" stroke="midnightblue" d="M168.13,-48C191.78,-48 234.09,-48 262.6,-48"/>
<polygon fill="midnightblue" stroke="midnightblue" points="262.78,-51.5 272.78,-48 262.78,-44.5 262.78,-51.5"/>
</g>
<!-- Node14 -->
<g id="node14" class="node">
<title>Node14</title>
<g id="a_node14"><a xlink:href="utils_8h.html#af6d6bd5c29782e3b958b5f7c0d1ea9e3" target="_top" xlink:title=" ">
<polygon fill="white" stroke="black" points="272.5,-0.5 272.5,-19.5 313.5,-19.5 313.5,-0.5 272.5,-0.5"/>
<text text-anchor="middle" x="293" y="-7.5" font-family="Helvetica,sans-Serif" font-size="10.00">rtrim</text>
</a>
</g>
</g>
<!-- Node12&#45;&gt;Node14 -->
<g id="edge15" class="edge">
<title>Node12&#45;&gt;Node14</title>
<path fill="none" stroke="midnightblue" d="M168.13,-43.26C191.76,-36.92 233.99,-25.58 262.5,-17.92"/>
<polygon fill="midnightblue" stroke="midnightblue" points="263.57,-21.26 272.32,-15.28 261.76,-14.5 263.57,-21.26"/>
</g>
</g>
</svg>
