<?xml version="1.0" encoding="UTF-8" standalone="no"?>
<!DOCTYPE svg PUBLIC "-//W3C//DTD SVG 1.1//EN"
 "http://www.w3.org/Graphics/SVG/1.1/DTD/svg11.dtd">
<!-- Generated by graphviz version 2.43.0 (0)
 -->
<!-- Title: Calc::_changeSubScript Pages: 1 -->
<svg width="273pt" height="256pt"
 viewBox="0.00 0.00 273.00 256.00" xmlns="http://www.w3.org/2000/svg" xmlns:xlink="http://www.w3.org/1999/xlink">
<g id="graph0" class="graph" transform="scale(1 1) rotate(0) translate(4 252)">
<title>Calc::_changeSubScript</title>
<polygon fill="white" stroke="transparent" points="-4,4 -4,-252 269,-252 269,4 -4,4"/>
<!-- Node1 -->
<g id="node1" class="node">
<title>Node1</title>
<g id="a_node1"><a xlink:title=" ">
<polygon fill="#bfbfbf" stroke="black" points="0,-114.5 0,-133.5 130,-133.5 130,-114.5 0,-114.5"/>
<text text-anchor="middle" x="65" y="-121.5" font-family="Helvetica,sans-Serif" font-size="10.00">Calc::_changeSubScript</text>
</a>
</g>
</g>
<!-- Node1&#45;&gt;Node1 -->
<g id="edge1" class="edge">
<title>Node1&#45;&gt;Node1</title>
<path fill="none" stroke="midnightblue" d="M41.88,-133.76C30.63,-142.57 38.34,-152 65,-152 82.5,-152 91.83,-147.94 93,-142.65"/>
<polygon fill="midnightblue" stroke="midnightblue" points="96,-140.84 88.12,-133.76 89.86,-144.21 96,-140.84"/>
</g>
<!-- Node2 -->
<g id="node2" class="node">
<title>Node2</title>
<g id="a_node2"><a xlink:href="class_calc.html#a284818e83b0d85bdd029f3d72d4ef0bd" target="_top" xlink:title=" ">
<polygon fill="white" stroke="black" points="180.5,-228.5 180.5,-247.5 250.5,-247.5 250.5,-228.5 180.5,-228.5"/>
<text text-anchor="middle" x="215.5" y="-235.5" font-family="Helvetica,sans-Serif" font-size="10.00">Calc::_msg</text>
</a>
</g>
</g>
<!-- Node1&#45;&gt;Node2 -->
<g id="edge2" class="edge">
<title>Node1&#45;&gt;Node2</title>
<path fill="none" stroke="midnightblue" d="M73.86,-133.63C89.59,-152.37 126.8,-194.07 166,-219 168.95,-220.88 172.12,-222.62 175.37,-224.23"/>
<polygon fill="midnightblue" stroke="midnightblue" points="174.08,-227.49 184.63,-228.4 176.95,-221.1 174.08,-227.49"/>
</g>
<!-- Node3 -->
<g id="node3" class="node">
<title>Node3</title>
<g id="a_node3"><a xlink:href="class_type.html#abe15820e780d2f6646792d54f3ae3311" target="_top" xlink:title=" ">
<polygon fill="white" stroke="black" points="183.5,-190.5 183.5,-209.5 247.5,-209.5 247.5,-190.5 183.5,-190.5"/>
<text text-anchor="middle" x="215.5" y="-197.5" font-family="Helvetica,sans-Serif" font-size="10.00">Type::dim</text>
</a>
</g>
</g>
<!-- Node1&#45;&gt;Node3 -->
<g id="edge3" class="edge">
<title>Node1&#45;&gt;Node3</title>
<path fill="none" stroke="midnightblue" d="M81.22,-133.6C100.51,-145.55 134.99,-166.18 166,-181 170.06,-182.94 174.37,-184.84 178.68,-186.65"/>
<polygon fill="midnightblue" stroke="midnightblue" points="177.44,-189.92 188.03,-190.43 180.07,-183.43 177.44,-189.92"/>
</g>
<!-- Node4 -->
<g id="node4" class="node">
<title>Node4</title>
<g id="a_node4"><a xlink:href="class_log.html#ac7147942832455398ad289b706a02616" target="_top" xlink:title="Write error message to the log file.">
<polygon fill="white" stroke="black" points="189,-152.5 189,-171.5 242,-171.5 242,-152.5 189,-152.5"/>
<text text-anchor="middle" x="215.5" y="-159.5" font-family="Helvetica,sans-Serif" font-size="10.00">Log::err</text>
</a>
</g>
</g>
<!-- Node1&#45;&gt;Node4 -->
<g id="edge4" class="edge">
<title>Node1&#45;&gt;Node4</title>
<path fill="none" stroke="midnightblue" d="M103.47,-133.59C126.57,-139.5 156.02,-147.04 178.79,-152.86"/>
<polygon fill="midnightblue" stroke="midnightblue" points="178.17,-156.32 188.73,-155.41 179.91,-149.54 178.17,-156.32"/>
</g>
<!-- Node5 -->
<g id="node5" class="node">
<title>Node5</title>
<g id="a_node5"><a xlink:href="class_log.html#add7e611cd3267d3fd5dae017e3aeef67" target="_top" xlink:title="Write infomation to the log file.">
<polygon fill="white" stroke="black" points="186,-114.5 186,-133.5 245,-133.5 245,-114.5 186,-114.5"/>
<text text-anchor="middle" x="215.5" y="-121.5" font-family="Helvetica,sans-Serif" font-size="10.00">Log::info</text>
</a>
</g>
</g>
<!-- Node1&#45;&gt;Node5 -->
<g id="edge5" class="edge">
<title>Node1&#45;&gt;Node5</title>
<path fill="none" stroke="midnightblue" d="M130.27,-124C145.76,-124 161.84,-124 175.75,-124"/>
<polygon fill="midnightblue" stroke="midnightblue" points="175.92,-127.5 185.92,-124 175.92,-120.5 175.92,-127.5"/>
</g>
<!-- Node6 -->
<g id="node6" class="node">
<title>Node6</title>
<g id="a_node6"><a xlink:href="utils_8h.html#aa0a3ba0e1cec6f6b77334767af46eef7" target="_top" xlink:title="Check if the string is an unsigned integer.">
<polygon fill="white" stroke="black" points="193,-76.5 193,-95.5 238,-95.5 238,-76.5 193,-76.5"/>
<text text-anchor="middle" x="215.5" y="-83.5" font-family="Helvetica,sans-Serif" font-size="10.00">isUInt</text>
</a>
</g>
</g>
<!-- Node1&#45;&gt;Node6 -->
<g id="edge6" class="edge">
<title>Node1&#45;&gt;Node6</title>
<path fill="none" stroke="midnightblue" d="M103.47,-114.41C128.02,-108.13 159.75,-100.01 183,-94.06"/>
<polygon fill="midnightblue" stroke="midnightblue" points="183.89,-97.45 192.71,-91.58 182.15,-90.66 183.89,-97.45"/>
</g>
<!-- Node7 -->
<g id="node7" class="node">
<title>Node7</title>
<g id="a_node7"><a xlink:href="class_type.html#a836b463aa4740a234e0d304ed4cd958f" target="_top" xlink:title=" ">
<polygon fill="white" stroke="black" points="166,-38.5 166,-57.5 265,-57.5 265,-38.5 166,-38.5"/>
<text text-anchor="middle" x="215.5" y="-45.5" font-family="Helvetica,sans-Serif" font-size="10.00">Type::isUnknown</text>
</a>
</g>
</g>
<!-- Node1&#45;&gt;Node7 -->
<g id="edge7" class="edge">
<title>Node1&#45;&gt;Node7</title>
<path fill="none" stroke="midnightblue" d="M81.22,-114.4C100.51,-102.45 134.99,-81.82 166,-67 170.06,-65.06 174.37,-63.16 178.68,-61.35"/>
<polygon fill="midnightblue" stroke="midnightblue" points="180.07,-64.57 188.03,-57.57 177.44,-58.08 180.07,-64.57"/>
</g>
<!-- Node8 -->
<g id="node8" class="node">
<title>Node8</title>
<g id="a_node8"><a xlink:href="class_type___track.html#ab510214767b1b4d71e3beadecb814bb7" target="_top" xlink:title=" ">
<polygon fill="white" stroke="black" points="168,-0.5 168,-19.5 263,-19.5 263,-0.5 168,-0.5"/>
<text text-anchor="middle" x="215.5" y="-7.5" font-family="Helvetica,sans-Serif" font-size="10.00">Type_Track::size</text>
</a>
</g>
</g>
<!-- Node1&#45;&gt;Node8 -->
<g id="edge8" class="edge">
<title>Node1&#45;&gt;Node8</title>
<path fill="none" stroke="midnightblue" d="M73.86,-114.37C89.59,-95.63 126.8,-53.93 166,-29 168.95,-27.12 172.12,-25.38 175.37,-23.77"/>
<polygon fill="midnightblue" stroke="midnightblue" points="176.95,-26.9 184.63,-19.6 174.08,-20.51 176.95,-26.9"/>
</g>
</g>
</svg>
