<?xml version="1.0" encoding="UTF-8" standalone="no"?>
<!DOCTYPE svg PUBLIC "-//W3C//DTD SVG 1.1//EN"
 "http://www.w3.org/Graphics/SVG/1.1/DTD/svg11.dtd">
<!-- Generated by graphviz version 2.43.0 (0)
 -->
<!-- Title: Export::_generateBF Pages: 1 -->
<svg width="905pt" height="1016pt"
 viewBox="0.00 0.00 905.00 1016.00" xmlns="http://www.w3.org/2000/svg" xmlns:xlink="http://www.w3.org/1999/xlink">
<g id="graph0" class="graph" transform="scale(1 1) rotate(0) translate(4 1012)">
<title>Export::_generateBF</title>
<polygon fill="white" stroke="transparent" points="-4,4 -4,-1012 901,-1012 901,4 -4,4"/>
<!-- Node1 -->
<g id="node1" class="node">
<title>Node1</title>
<g id="a_node1"><a xlink:title="Generate RIS reflection matrices.">
<polygon fill="#bfbfbf" stroke="black" points="0,-836.5 0,-855.5 116,-855.5 116,-836.5 0,-836.5"/>
<text text-anchor="middle" x="58" y="-843.5" font-family="Helvetica,sans-Serif" font-size="10.00">Export::_generateBF</text>
</a>
</g>
</g>
<!-- Node2 -->
<g id="node2" class="node">
<title>Node2</title>
<g id="a_node2"><a xlink:href="class_export.html#a638d6b9ced18342503ee6f4d4b274740" target="_top" xlink:title=" ">
<polygon fill="white" stroke="black" points="157.5,-988.5 157.5,-1007.5 241.5,-1007.5 241.5,-988.5 157.5,-988.5"/>
<text text-anchor="middle" x="199.5" y="-995.5" font-family="Helvetica,sans-Serif" font-size="10.00">Export::_asStr</text>
</a>
</g>
</g>
<!-- Node1&#45;&gt;Node2 -->
<g id="edge1" class="edge">
<title>Node1&#45;&gt;Node2</title>
<path fill="none" stroke="midnightblue" d="M63.39,-855.79C74.7,-879.97 107.1,-943.12 152,-979 154.03,-980.62 156.21,-982.12 158.49,-983.51"/>
<polygon fill="midnightblue" stroke="midnightblue" points="157.12,-986.74 167.59,-988.3 160.38,-980.54 157.12,-986.74"/>
</g>
<!-- Node3 -->
<g id="node3" class="node">
<title>Node3</title>
<g id="a_node3"><a xlink:href="class_export.html#abe75ae41d7cc8afe8f1ba4bbf67dfcfc" target="_top" xlink:title=" ">
<polygon fill="white" stroke="black" points="168,-950.5 168,-969.5 231,-969.5 231,-950.5 168,-950.5"/>
<text text-anchor="middle" x="199.5" y="-957.5" font-family="Helvetica,sans-Serif" font-size="10.00">Export::_f</text>
</a>
</g>
</g>
<!-- Node1&#45;&gt;Node3 -->
<g id="edge2" class="edge">
<title>Node1&#45;&gt;Node3</title>
<path fill="none" stroke="midnightblue" d="M66.18,-855.62C80.59,-874.34 114.84,-916.02 152,-941 154.59,-942.74 157.37,-944.37 160.23,-945.88"/>
<polygon fill="midnightblue" stroke="midnightblue" points="159,-949.17 169.53,-950.31 162,-942.85 159,-949.17"/>
</g>
<!-- Node4 -->
<g id="node4" class="node">
<title>Node4</title>
<g id="a_node4"><a xlink:href="class_export.html#a4dd19b0ff2eb109897fb486769fefffe" target="_top" xlink:title="Get the size of the node (Tx/Rx/RIS).">
<polygon fill="white" stroke="black" points="152,-912.5 152,-931.5 247,-931.5 247,-912.5 152,-912.5"/>
<text text-anchor="middle" x="199.5" y="-919.5" font-family="Helvetica,sans-Serif" font-size="10.00">Export::_getSize</text>
</a>
</g>
</g>
<!-- Node1&#45;&gt;Node4 -->
<g id="edge3" class="edge">
<title>Node1&#45;&gt;Node4</title>
<path fill="none" stroke="midnightblue" d="M73.08,-855.63C90.95,-867.61 122.94,-888.28 152,-903 155.76,-904.91 159.76,-906.77 163.78,-908.54"/>
<polygon fill="midnightblue" stroke="midnightblue" points="162.5,-911.8 173.07,-912.48 165.23,-905.35 162.5,-911.8"/>
</g>
<!-- Node5 -->
<g id="node5" class="node">
<title>Node5</title>
<g id="a_node5"><a xlink:href="class_export.html#a68e698a5654fc800aa78c512da8f23b1" target="_top" xlink:title=" ">
<polygon fill="white" stroke="black" points="152.5,-874.5 152.5,-893.5 246.5,-893.5 246.5,-874.5 152.5,-874.5"/>
<text text-anchor="middle" x="199.5" y="-881.5" font-family="Helvetica,sans-Serif" font-size="10.00">Export::_langStr</text>
</a>
</g>
</g>
<!-- Node1&#45;&gt;Node5 -->
<g id="edge4" class="edge">
<title>Node1&#45;&gt;Node5</title>
<path fill="none" stroke="midnightblue" d="M94.2,-855.59C112.21,-860.49 134.33,-866.52 153.56,-871.76"/>
<polygon fill="midnightblue" stroke="midnightblue" points="152.74,-875.16 163.31,-874.41 154.58,-868.41 152.74,-875.16"/>
</g>
<!-- Node6 -->
<g id="node6" class="node">
<title>Node6</title>
<g id="a_node6"><a xlink:href="utils_8h.html#a49dc116689f1a4202be4d3f0743b1f70" target="_top" xlink:title=" ">
<polygon fill="white" stroke="black" points="175,-836.5 175,-855.5 224,-855.5 224,-836.5 175,-836.5"/>
<text text-anchor="middle" x="199.5" y="-843.5" font-family="Helvetica,sans-Serif" font-size="10.00">appDir</text>
</a>
</g>
</g>
<!-- Node1&#45;&gt;Node6 -->
<g id="edge5" class="edge">
<title>Node1&#45;&gt;Node6</title>
<path fill="none" stroke="midnightblue" d="M116.14,-846C132.61,-846 150.05,-846 164.62,-846"/>
<polygon fill="midnightblue" stroke="midnightblue" points="164.67,-849.5 174.67,-846 164.67,-842.5 164.67,-849.5"/>
</g>
<!-- Node7 -->
<g id="node7" class="node">
<title>Node7</title>
<g id="a_node7"><a xlink:href="utils_8h.html#af11c7cca5b9ad860da4bdb556dce3234" target="_top" xlink:title=" ">
<polygon fill="white" stroke="black" points="665,-703.5 665,-722.5 723,-722.5 723,-703.5 665,-703.5"/>
<text text-anchor="middle" x="694" y="-710.5" font-family="Helvetica,sans-Serif" font-size="10.00">contains</text>
</a>
</g>
</g>
<!-- Node1&#45;&gt;Node7 -->
<g id="edge6" class="edge">
<title>Node1&#45;&gt;Node7</title>
<path fill="none" stroke="midnightblue" d="M65.32,-836.47C78.67,-817.25 111.86,-774.12 152,-756 197.54,-735.44 539.07,-719.43 654.79,-714.54"/>
<polygon fill="midnightblue" stroke="midnightblue" points="655.11,-718.03 664.95,-714.12 654.82,-711.04 655.11,-718.03"/>
</g>
<!-- Node8 -->
<g id="node8" class="node">
<title>Node8</title>
<g id="a_node8"><a xlink:href="class_log.html#ac7147942832455398ad289b706a02616" target="_top" xlink:title="Write error message to the log file.">
<polygon fill="white" stroke="black" points="822,-673.5 822,-692.5 875,-692.5 875,-673.5 822,-673.5"/>
<text text-anchor="middle" x="848.5" y="-680.5" font-family="Helvetica,sans-Serif" font-size="10.00">Log::err</text>
</a>
</g>
</g>
<!-- Node1&#45;&gt;Node8 -->
<g id="edge7" class="edge">
<title>Node1&#45;&gt;Node8</title>
<path fill="none" stroke="midnightblue" d="M100.49,-836.48C116.51,-833.07 135.04,-829.47 152,-827 246.92,-813.15 271.07,-808 367,-808 367,-808 367,-808 539.5,-808 639.85,-808 675.61,-831.51 764,-784 798.89,-765.24 824.95,-725.28 838.05,-701.63"/>
<polygon fill="midnightblue" stroke="midnightblue" points="841.24,-703.07 842.86,-692.6 835.07,-699.78 841.24,-703.07"/>
</g>
<!-- Node9 -->
<g id="node9" class="node">
<title>Node9</title>
<g id="a_node9"><a xlink:href="class_log.html#add7e611cd3267d3fd5dae017e3aeef67" target="_top" xlink:title="Write infomation to the log file.">
<polygon fill="white" stroke="black" points="819,-511.5 819,-530.5 878,-530.5 878,-511.5 819,-511.5"/>
<text text-anchor="middle" x="848.5" y="-518.5" font-family="Helvetica,sans-Serif" font-size="10.00">Log::info</text>
</a>
</g>
</g>
<!-- Node1&#45;&gt;Node9 -->
<g id="edge8" class="edge">
<title>Node1&#45;&gt;Node9</title>
<path fill="none" stroke="midnightblue" d="M79.64,-836.41C98.21,-828.11 126.44,-816.32 152,-809 245.36,-782.25 269.89,-770 367,-770 367,-770 367,-770 539.5,-770 640.7,-770 685.36,-795.7 764,-732 779.79,-719.21 824.38,-589.94 841.08,-540.28"/>
<polygon fill="midnightblue" stroke="midnightblue" points="844.43,-541.31 844.28,-530.72 837.79,-539.09 844.43,-541.31"/>
</g>
<!-- Node10 -->
<g id="node10" class="node">
<title>Node10</title>
<g id="a_node10"><a xlink:href="class_alg.html#ada1e8215f047b4ffd736e811b5ea3162" target="_top" xlink:title=" ">
<polygon fill="white" stroke="black" points="168,-361.5 168,-380.5 231,-380.5 231,-361.5 168,-361.5"/>
<text text-anchor="middle" x="199.5" y="-368.5" font-family="Helvetica,sans-Serif" font-size="10.00">Alg::write</text>
</a>
</g>
</g>
<!-- Node1&#45;&gt;Node10 -->
<g id="edge9" class="edge">
<title>Node1&#45;&gt;Node10</title>
<path fill="none" stroke="midnightblue" d="M61.91,-836.08C79.25,-777.04 168.9,-471.78 192.7,-390.76"/>
<polygon fill="midnightblue" stroke="midnightblue" points="196.14,-391.45 195.6,-380.87 189.43,-389.47 196.14,-391.45"/>
</g>
<!-- Node10&#45;&gt;Node9 -->
<g id="edge28" class="edge">
<title>Node10&#45;&gt;Node9</title>
<path fill="none" stroke="midnightblue" d="M215.91,-361.43C231.96,-352.07 258.2,-338.44 283,-333 415.62,-303.93 460.65,-302.94 588,-350 688.17,-387.01 788.56,-469.01 828.96,-504.31"/>
<polygon fill="midnightblue" stroke="midnightblue" points="826.83,-507.1 836.65,-511.1 831.47,-501.85 826.83,-507.1"/>
</g>
<!-- Node10&#45;&gt;Node10 -->
<g id="edge51" class="edge">
<title>Node10&#45;&gt;Node10</title>
<path fill="none" stroke="midnightblue" d="M177.92,-380.76C167.42,-389.57 174.62,-399 199.5,-399 215.44,-399 224.12,-395.13 225.54,-390.03"/>
<polygon fill="midnightblue" stroke="midnightblue" points="228.57,-388.25 221.08,-380.76 222.26,-391.29 228.57,-388.25"/>
</g>
<!-- Node11 -->
<g id="node11" class="node">
<title>Node11</title>
<g id="a_node11"><a xlink:href="class_alg.html#a2cf2b7f4e37c8e401d9c6dad6687917d" target="_top" xlink:title=" ">
<polygon fill="white" stroke="black" points="318,-152.5 318,-171.5 418,-171.5 418,-152.5 318,-152.5"/>
<text text-anchor="middle" x="368" y="-159.5" font-family="Helvetica,sans-Serif" font-size="10.00">Alg::_wComment</text>
</a>
</g>
</g>
<!-- Node10&#45;&gt;Node11 -->
<g id="edge10" class="edge">
<title>Node10&#45;&gt;Node11</title>
<path fill="none" stroke="midnightblue" d="M201.65,-361.3C205.9,-329.88 223.73,-230.09 283,-181 290.19,-175.05 298.86,-170.87 307.88,-167.95"/>
<polygon fill="midnightblue" stroke="midnightblue" points="309.01,-171.27 317.73,-165.25 307.16,-164.52 309.01,-171.27"/>
</g>
<!-- Node12 -->
<g id="node12" class="node">
<title>Node12</title>
<g id="a_node12"><a xlink:href="class_calc.html#ad6dbdfdd4bd21322e5836ff72c11ae1b" target="_top" xlink:title="Convert the Alg CALC contents into a language command.">
<polygon fill="white" stroke="black" points="511,-190.5 511,-209.5 566,-209.5 566,-190.5 511,-190.5"/>
<text text-anchor="middle" x="538.5" y="-197.5" font-family="Helvetica,sans-Serif" font-size="10.00">Calc::as</text>
</a>
</g>
</g>
<!-- Node10&#45;&gt;Node12 -->
<g id="edge11" class="edge">
<title>Node10&#45;&gt;Node12</title>
<path fill="none" stroke="midnightblue" d="M204.61,-361.21C214.52,-338.88 241.98,-284 283,-257 347.67,-214.43 377.46,-235.94 453,-219 468.74,-215.47 486.12,-211.57 501,-208.22"/>
<polygon fill="midnightblue" stroke="midnightblue" points="501.87,-211.61 510.86,-206 500.34,-204.78 501.87,-211.61"/>
</g>
<!-- Node23 -->
<g id="node23" class="node">
<title>Node23</title>
<g id="a_node23"><a xlink:href="class_type.html#abe15820e780d2f6646792d54f3ae3311" target="_top" xlink:title=" ">
<polygon fill="white" stroke="black" points="336,-114.5 336,-133.5 400,-133.5 400,-114.5 336,-114.5"/>
<text text-anchor="middle" x="368" y="-121.5" font-family="Helvetica,sans-Serif" font-size="10.00">Type::dim</text>
</a>
</g>
</g>
<!-- Node10&#45;&gt;Node23 -->
<g id="edge25" class="edge">
<title>Node10&#45;&gt;Node23</title>
<path fill="none" stroke="midnightblue" d="M200.87,-361.43C202.75,-326.36 214.19,-203.72 283,-143 294.66,-132.71 310.71,-127.65 325.66,-125.26"/>
<polygon fill="midnightblue" stroke="midnightblue" points="326.27,-128.71 335.76,-124 325.41,-121.76 326.27,-128.71"/>
</g>
<!-- Node24 -->
<g id="node24" class="node">
<title>Node24</title>
<g id="a_node24"><a xlink:href="class_alg___line.html#af651454e6ddfce164626b68b2c6cba97" target="_top" xlink:title="Get the function name.">
<polygon fill="white" stroke="black" points="325.5,-76.5 325.5,-95.5 410.5,-95.5 410.5,-76.5 325.5,-76.5"/>
<text text-anchor="middle" x="368" y="-83.5" font-family="Helvetica,sans-Serif" font-size="10.00">Alg_Line::func</text>
</a>
</g>
</g>
<!-- Node10&#45;&gt;Node24 -->
<g id="edge26" class="edge">
<title>Node10&#45;&gt;Node24</title>
<path fill="none" stroke="midnightblue" d="M200.3,-361.25C200.08,-322.42 204.72,-177.38 283,-105 291.92,-96.75 303.64,-91.83 315.48,-88.94"/>
<polygon fill="midnightblue" stroke="midnightblue" points="316.27,-92.36 325.4,-86.98 314.91,-85.49 316.27,-92.36"/>
</g>
<!-- Node25 -->
<g id="node25" class="node">
<title>Node25</title>
<g id="a_node25"><a xlink:href="class_alg___line.html#a49a98870a1f09e35a3e15a7d7bab1666" target="_top" xlink:title="Check whether parameters contain the key.">
<polygon fill="white" stroke="black" points="318.5,-38.5 318.5,-57.5 417.5,-57.5 417.5,-38.5 318.5,-38.5"/>
<text text-anchor="middle" x="368" y="-45.5" font-family="Helvetica,sans-Serif" font-size="10.00">Alg_Line::hasKey</text>
</a>
</g>
</g>
<!-- Node10&#45;&gt;Node25 -->
<g id="edge27" class="edge">
<title>Node10&#45;&gt;Node25</title>
<path fill="none" stroke="midnightblue" d="M201.8,-361.22C208.25,-313.95 238.38,-109.76 283,-67 290.05,-60.24 298.97,-55.7 308.35,-52.67"/>
<polygon fill="midnightblue" stroke="midnightblue" points="309.46,-56 318.23,-50.05 307.66,-49.24 309.46,-56"/>
</g>
<!-- Node26 -->
<g id="node26" class="node">
<title>Node26</title>
<g id="a_node26"><a xlink:href="class_alg.html#a3ee7f9963027158b3fbd442d97800111" target="_top" xlink:title=" ">
<polygon fill="white" stroke="black" points="325,-190.5 325,-209.5 411,-209.5 411,-190.5 325,-190.5"/>
<text text-anchor="middle" x="368" y="-197.5" font-family="Helvetica,sans-Serif" font-size="10.00">Alg::inlineCalc</text>
</a>
</g>
</g>
<!-- Node10&#45;&gt;Node26 -->
<g id="edge29" class="edge">
<title>Node10&#45;&gt;Node26</title>
<path fill="none" stroke="midnightblue" d="M203.08,-361.42C210.63,-335.2 235.24,-261.75 283,-224 292.2,-216.73 303.51,-211.66 314.82,-208.12"/>
<polygon fill="midnightblue" stroke="midnightblue" points="315.99,-211.43 324.69,-205.4 314.12,-204.68 315.99,-211.43"/>
</g>
<!-- Node27 -->
<g id="node27" class="node">
<title>Node27</title>
<g id="a_node27"><a xlink:href="class_alg___line.html#ad419191a99be7e34024e569ad833b04e" target="_top" xlink:title="Check whether the line is for function declaration.">
<polygon fill="white" stroke="black" points="283,-0.5 283,-19.5 453,-19.5 453,-0.5 283,-0.5"/>
<text text-anchor="middle" x="368" y="-7.5" font-family="Helvetica,sans-Serif" font-size="10.00">Alg_Line::isFunctionDeclaration</text>
</a>
</g>
</g>
<!-- Node10&#45;&gt;Node27 -->
<g id="edge31" class="edge">
<title>Node10&#45;&gt;Node27</title>
<path fill="none" stroke="midnightblue" d="M201.47,-361.38C206.71,-310.97 233.42,-77.88 283,-29 284.44,-27.58 285.96,-26.26 287.55,-25.03"/>
<polygon fill="midnightblue" stroke="midnightblue" points="289.48,-27.95 296.01,-19.61 285.7,-22.06 289.48,-27.95"/>
</g>
<!-- Node28 -->
<g id="node28" class="node">
<title>Node28</title>
<g id="a_node28"><a xlink:href="class_alg.html#af935e64a6eb4afa4ca1540f4da3dcc9c" target="_top" xlink:title=" ">
<polygon fill="white" stroke="black" points="340,-608.5 340,-627.5 396,-627.5 396,-608.5 340,-608.5"/>
<text text-anchor="middle" x="368" y="-615.5" font-family="Helvetica,sans-Serif" font-size="10.00">Alg::line</text>
</a>
</g>
</g>
<!-- Node10&#45;&gt;Node28 -->
<g id="edge32" class="edge">
<title>Node10&#45;&gt;Node28</title>
<path fill="none" stroke="midnightblue" d="M200.87,-380.57C202.75,-415.64 214.19,-538.28 283,-599 295.69,-610.2 313.58,-615.21 329.6,-617.31"/>
<polygon fill="midnightblue" stroke="midnightblue" points="329.48,-620.82 339.77,-618.31 330.16,-613.85 329.48,-620.82"/>
</g>
<!-- Node29 -->
<g id="node29" class="node">
<title>Node29</title>
<g id="a_node29"><a xlink:href="class_alg___line.html#a4e79eb77a1cddbdab1dbdde8a499342d" target="_top" xlink:title="Parameter variables.">
<polygon fill="white" stroke="black" points="317.5,-570.5 317.5,-589.5 418.5,-589.5 418.5,-570.5 317.5,-570.5"/>
<text text-anchor="middle" x="368" y="-577.5" font-family="Helvetica,sans-Serif" font-size="10.00">Alg_Line::params</text>
</a>
</g>
</g>
<!-- Node10&#45;&gt;Node29 -->
<g id="edge33" class="edge">
<title>Node10&#45;&gt;Node29</title>
<path fill="none" stroke="midnightblue" d="M201.65,-380.7C205.9,-412.12 223.73,-511.91 283,-561 290.1,-566.88 298.66,-571.04 307.56,-573.95"/>
<polygon fill="midnightblue" stroke="midnightblue" points="306.72,-577.35 317.3,-576.64 308.59,-570.6 306.72,-577.35"/>
</g>
<!-- Node30 -->
<g id="node30" class="node">
<title>Node30</title>
<g id="a_node30"><a xlink:href="class_alg___line.html#a801b08c6c164376039a4ba4e980d039e" target="_top" xlink:title="Print Alg_Line contents (including return values, function names and parameters).">
<polygon fill="white" stroke="black" points="325,-684.5 325,-703.5 411,-703.5 411,-684.5 325,-684.5"/>
<text text-anchor="middle" x="368" y="-691.5" font-family="Helvetica,sans-Serif" font-size="10.00">Alg_Line::print</text>
</a>
</g>
</g>
<!-- Node10&#45;&gt;Node30 -->
<g id="edge34" class="edge">
<title>Node10&#45;&gt;Node30</title>
<path fill="none" stroke="midnightblue" d="M200.04,-380.65C198.61,-421.86 198.66,-584.89 283,-670 291.59,-678.67 303.08,-684.26 314.8,-687.85"/>
<polygon fill="midnightblue" stroke="midnightblue" points="314.08,-691.28 324.63,-690.42 315.84,-684.51 314.08,-691.28"/>
</g>
<!-- Node32 -->
<g id="node32" class="node">
<title>Node32</title>
<g id="a_node32"><a xlink:href="class_type___track.html#a4548ba1c289fba60e88b0e725509219e" target="_top" xlink:title=" ">
<polygon fill="white" stroke="black" points="644.5,-579.5 644.5,-598.5 743.5,-598.5 743.5,-579.5 644.5,-579.5"/>
<text text-anchor="middle" x="694" y="-586.5" font-family="Helvetica,sans-Serif" font-size="10.00">Type_Track::push</text>
</a>
</g>
</g>
<!-- Node10&#45;&gt;Node32 -->
<g id="edge37" class="edge">
<title>Node10&#45;&gt;Node32</title>
<path fill="none" stroke="midnightblue" d="M201.96,-380.63C208.8,-424.51 239.31,-604.8 283,-637 340.55,-679.4 557.36,-626.58 650.29,-601.19"/>
<polygon fill="midnightblue" stroke="midnightblue" points="651.23,-604.56 659.94,-598.53 649.37,-597.81 651.23,-604.56"/>
</g>
<!-- Node33 -->
<g id="node33" class="node">
<title>Node33</title>
<g id="a_node33"><a xlink:href="utils_8h.html#a0465457013518e168df05799c93cfa6e" target="_top" xlink:title=" ">
<polygon fill="white" stroke="black" points="326.5,-532.5 326.5,-551.5 409.5,-551.5 409.5,-532.5 326.5,-532.5"/>
<text text-anchor="middle" x="368" y="-539.5" font-family="Helvetica,sans-Serif" font-size="10.00">removeQuote</text>
</a>
</g>
</g>
<!-- Node10&#45;&gt;Node33 -->
<g id="edge39" class="edge">
<title>Node10&#45;&gt;Node33</title>
<path fill="none" stroke="midnightblue" d="M202.76,-380.66C209.64,-407.78 232.97,-485.12 283,-523 292.69,-530.33 304.68,-534.92 316.55,-537.78"/>
<polygon fill="midnightblue" stroke="midnightblue" points="315.94,-541.22 326.44,-539.79 317.34,-534.36 315.94,-541.22"/>
</g>
<!-- Node35 -->
<g id="node35" class="node">
<title>Node35</title>
<g id="a_node35"><a xlink:href="class_alg___line.html#a8e21f6b69eaf80a2327f7308fb4299e0" target="_top" xlink:title="Return variables.">
<polygon fill="white" stroke="black" points="319,-494.5 319,-513.5 417,-513.5 417,-494.5 319,-494.5"/>
<text text-anchor="middle" x="368" y="-501.5" font-family="Helvetica,sans-Serif" font-size="10.00">Alg_Line::returns</text>
</a>
</g>
</g>
<!-- Node10&#45;&gt;Node35 -->
<g id="edge41" class="edge">
<title>Node10&#45;&gt;Node35</title>
<path fill="none" stroke="midnightblue" d="M204.61,-380.78C214.53,-403.1 242.02,-457.95 283,-485 290.79,-490.14 299.77,-493.9 308.91,-496.66"/>
<polygon fill="midnightblue" stroke="midnightblue" points="308.27,-500.11 318.83,-499.26 310.05,-493.34 308.27,-500.11"/>
</g>
<!-- Node36 -->
<g id="node36" class="node">
<title>Node36</title>
<g id="a_node36"><a xlink:href="class_type.html#a0153b8ff39040caf3ff2a6f7c7329d7c" target="_top" xlink:title="Get the C++ type name.">
<polygon fill="white" stroke="black" points="331.5,-456.5 331.5,-475.5 404.5,-475.5 404.5,-456.5 331.5,-456.5"/>
<text text-anchor="middle" x="368" y="-463.5" font-family="Helvetica,sans-Serif" font-size="10.00">Type::string</text>
</a>
</g>
</g>
<!-- Node10&#45;&gt;Node36 -->
<g id="edge42" class="edge">
<title>Node10&#45;&gt;Node36</title>
<path fill="none" stroke="midnightblue" d="M208.01,-380.64C221.29,-396.97 250.58,-429.98 283,-447 294.7,-453.14 308.33,-457.31 321.17,-460.13"/>
<polygon fill="midnightblue" stroke="midnightblue" points="320.75,-463.61 331.24,-462.12 322.11,-456.75 320.75,-463.61"/>
</g>
<!-- Node39 -->
<g id="node39" class="node">
<title>Node39</title>
<g id="a_node39"><a xlink:href="namespacemmce.html#ad4a160832ef9fad47c531ece39752208" target="_top" xlink:title="Change a number to string.">
<polygon fill="white" stroke="black" points="320,-418.5 320,-437.5 416,-437.5 416,-418.5 320,-418.5"/>
<text text-anchor="middle" x="368" y="-425.5" font-family="Helvetica,sans-Serif" font-size="10.00">mmce::to_string</text>
</a>
</g>
</g>
<!-- Node10&#45;&gt;Node39 -->
<g id="edge45" class="edge">
<title>Node10&#45;&gt;Node39</title>
<path fill="none" stroke="midnightblue" d="M218.4,-380.58C234.82,-389.03 260,-401.2 283,-409 291.63,-411.93 300.91,-414.54 310.05,-416.82"/>
<polygon fill="midnightblue" stroke="midnightblue" points="309.33,-420.24 319.87,-419.16 310.95,-413.43 309.33,-420.24"/>
</g>
<!-- Node40 -->
<g id="node40" class="node">
<title>Node40</title>
<g id="a_node40"><a xlink:href="utils_8h.html#a6ef734356291c638e5787a6c668192d4" target="_top" xlink:title=" ">
<polygon fill="white" stroke="black" points="349.5,-380.5 349.5,-399.5 386.5,-399.5 386.5,-380.5 349.5,-380.5"/>
<text text-anchor="middle" x="368" y="-387.5" font-family="Helvetica,sans-Serif" font-size="10.00">trim</text>
</a>
</g>
</g>
<!-- Node10&#45;&gt;Node40 -->
<g id="edge46" class="edge">
<title>Node10&#45;&gt;Node40</title>
<path fill="none" stroke="midnightblue" d="M231.04,-374.48C261.98,-378.02 309.41,-383.43 339.29,-386.84"/>
<polygon fill="midnightblue" stroke="midnightblue" points="339.11,-390.34 349.44,-388 339.9,-383.39 339.11,-390.34"/>
</g>
<!-- Node43 -->
<g id="node43" class="node">
<title>Node43</title>
<g id="a_node43"><a xlink:href="class_log.html#ab61203710351f6d33d7ba634d2c4eb32" target="_top" xlink:title="Write warning message to the log file.">
<polygon fill="white" stroke="black" points="339,-342.5 339,-361.5 397,-361.5 397,-342.5 339,-342.5"/>
<text text-anchor="middle" x="368" y="-349.5" font-family="Helvetica,sans-Serif" font-size="10.00">Log::war</text>
</a>
</g>
</g>
<!-- Node10&#45;&gt;Node43 -->
<g id="edge49" class="edge">
<title>Node10&#45;&gt;Node43</title>
<path fill="none" stroke="midnightblue" d="M231.04,-367.52C258.58,-364.37 299.21,-359.74 328.88,-356.35"/>
<polygon fill="midnightblue" stroke="midnightblue" points="329.33,-359.82 338.87,-355.21 328.54,-352.87 329.33,-359.82"/>
</g>
<!-- Node44 -->
<g id="node44" class="node">
<title>Node44</title>
<g id="a_node44"><a xlink:href="class_log.html#a3410828f35c9bf8dd0771ead28de27b0" target="_top" xlink:title="Write contents to the log file.">
<polygon fill="white" stroke="black" points="335.5,-266.5 335.5,-285.5 400.5,-285.5 400.5,-266.5 335.5,-266.5"/>
<text text-anchor="middle" x="368" y="-273.5" font-family="Helvetica,sans-Serif" font-size="10.00">Log::write</text>
</a>
</g>
</g>
<!-- Node10&#45;&gt;Node44 -->
<g id="edge50" class="edge">
<title>Node10&#45;&gt;Node44</title>
<path fill="none" stroke="midnightblue" d="M209.14,-361.23C223.16,-345.96 252.39,-316.5 283,-300 296.11,-292.93 311.51,-287.76 325.53,-284.06"/>
<polygon fill="midnightblue" stroke="midnightblue" points="326.56,-287.41 335.44,-281.63 324.89,-280.61 326.56,-287.41"/>
</g>
<!-- Node13 -->
<g id="node13" class="node">
<title>Node13</title>
<g id="a_node13"><a xlink:href="class_calc.html#af1d1bd5e83f9e5196627f5a4e1a5ee83" target="_top" xlink:title=" ">
<polygon fill="white" stroke="black" points="631.5,-224.5 631.5,-243.5 756.5,-243.5 756.5,-224.5 631.5,-224.5"/>
<text text-anchor="middle" x="694" y="-231.5" font-family="Helvetica,sans-Serif" font-size="10.00">Calc::_changeFunction</text>
</a>
</g>
</g>
<!-- Node12&#45;&gt;Node13 -->
<g id="edge12" class="edge">
<title>Node12&#45;&gt;Node13</title>
<path fill="none" stroke="midnightblue" d="M566.24,-205.92C586.55,-210.42 615.13,-216.75 640.01,-222.26"/>
<polygon fill="midnightblue" stroke="midnightblue" points="639.54,-225.74 650.06,-224.49 641.05,-218.91 639.54,-225.74"/>
</g>
<!-- Node16 -->
<g id="node16" class="node">
<title>Node16</title>
<g id="a_node16"><a xlink:href="class_calc.html#ae3d88bd40f9bdf2c8ec92c426bdca446" target="_top" xlink:title=" ">
<polygon fill="white" stroke="black" points="630.5,-186.5 630.5,-205.5 757.5,-205.5 757.5,-186.5 630.5,-186.5"/>
<text text-anchor="middle" x="694" y="-193.5" font-family="Helvetica,sans-Serif" font-size="10.00">Calc::_changeOperator</text>
</a>
</g>
</g>
<!-- Node12&#45;&gt;Node16 -->
<g id="edge15" class="edge">
<title>Node12&#45;&gt;Node16</title>
<path fill="none" stroke="midnightblue" d="M566.24,-199.3C581.31,-198.91 600.93,-198.4 620.22,-197.9"/>
<polygon fill="midnightblue" stroke="midnightblue" points="620.34,-201.39 630.25,-197.64 620.16,-194.4 620.34,-201.39"/>
</g>
<!-- Node17 -->
<g id="node17" class="node">
<title>Node17</title>
<g id="a_node17"><a xlink:href="class_calc.html#ad95be528148e0d63848d5fa916b93200" target="_top" xlink:title=" ">
<polygon fill="white" stroke="black" points="638.5,-148.5 638.5,-167.5 749.5,-167.5 749.5,-148.5 638.5,-148.5"/>
<text text-anchor="middle" x="694" y="-155.5" font-family="Helvetica,sans-Serif" font-size="10.00">Calc::_changeParen</text>
</a>
</g>
</g>
<!-- Node12&#45;&gt;Node17 -->
<g id="edge16" class="edge">
<title>Node12&#45;&gt;Node17</title>
<path fill="none" stroke="midnightblue" d="M566.24,-192.68C588.86,-186.49 621.75,-177.5 648.35,-170.22"/>
<polygon fill="midnightblue" stroke="midnightblue" points="649.49,-173.53 658.21,-167.52 647.64,-166.78 649.49,-173.53"/>
</g>
<!-- Node18 -->
<g id="node18" class="node">
<title>Node18</title>
<g id="a_node18"><a xlink:href="class_calc.html#ad562619fef96a73cd3b4c27b35bc5f91" target="_top" xlink:title=" ">
<polygon fill="white" stroke="black" points="629,-262.5 629,-281.5 759,-281.5 759,-262.5 629,-262.5"/>
<text text-anchor="middle" x="694" y="-269.5" font-family="Helvetica,sans-Serif" font-size="10.00">Calc::_changeSubScript</text>
</a>
</g>
</g>
<!-- Node12&#45;&gt;Node18 -->
<g id="edge17" class="edge">
<title>Node12&#45;&gt;Node18</title>
<path fill="none" stroke="midnightblue" d="M552.02,-209.5C567.96,-221.2 596.74,-241.01 624,-253 629.39,-255.37 635.15,-257.52 640.96,-259.44"/>
<polygon fill="midnightblue" stroke="midnightblue" points="640.14,-262.85 650.72,-262.46 642.21,-256.16 640.14,-262.85"/>
</g>
<!-- Node22 -->
<g id="node22" class="node">
<title>Node22</title>
<g id="a_node22"><a xlink:href="class_calc.html#a1aec4748092712e0995c0ae5dabbf54f" target="_top" xlink:title=" ">
<polygon fill="white" stroke="black" points="624,-110.5 624,-129.5 764,-129.5 764,-110.5 624,-110.5"/>
<text text-anchor="middle" x="694" y="-117.5" font-family="Helvetica,sans-Serif" font-size="10.00">Calc::_changeSuperScript</text>
</a>
</g>
</g>
<!-- Node12&#45;&gt;Node22 -->
<g id="edge24" class="edge">
<title>Node12&#45;&gt;Node22</title>
<path fill="none" stroke="midnightblue" d="M550.17,-190.34C565.45,-176.97 594.96,-152.92 624,-139 628.9,-136.65 634.14,-134.55 639.47,-132.68"/>
<polygon fill="midnightblue" stroke="midnightblue" points="640.64,-135.98 649.08,-129.56 638.48,-129.32 640.64,-135.98"/>
</g>
<!-- Node14 -->
<g id="node14" class="node">
<title>Node14</title>
<g id="a_node14"><a xlink:href="class_calc.html#a7d793eba0a7c9fcbafec4310359f165d" target="_top" xlink:title=" ">
<polygon fill="white" stroke="black" points="802,-186.5 802,-205.5 895,-205.5 895,-186.5 802,-186.5"/>
<text text-anchor="middle" x="848.5" y="-193.5" font-family="Helvetica,sans-Serif" font-size="10.00">Calc::_addArma</text>
</a>
</g>
</g>
<!-- Node13&#45;&gt;Node14 -->
<g id="edge13" class="edge">
<title>Node13&#45;&gt;Node14</title>
<path fill="none" stroke="midnightblue" d="M733.48,-224.41C753.52,-219.42 778.2,-213.27 799.48,-207.97"/>
<polygon fill="midnightblue" stroke="midnightblue" points="800.44,-211.33 809.29,-205.52 798.74,-204.54 800.44,-211.33"/>
</g>
<!-- Node15 -->
<g id="node15" class="node">
<title>Node15</title>
<g id="a_node15"><a xlink:href="class_calc.html#af58cd6a2174e577a6246366de03b949e" target="_top" xlink:title=" ">
<polygon fill="white" stroke="black" points="800,-224.5 800,-243.5 897,-243.5 897,-224.5 800,-224.5"/>
<text text-anchor="middle" x="848.5" y="-231.5" font-family="Helvetica,sans-Serif" font-size="10.00">Calc::_addMmce</text>
</a>
</g>
</g>
<!-- Node13&#45;&gt;Node15 -->
<g id="edge14" class="edge">
<title>Node13&#45;&gt;Node15</title>
<path fill="none" stroke="midnightblue" d="M756.59,-234C767.49,-234 778.8,-234 789.6,-234"/>
<polygon fill="midnightblue" stroke="midnightblue" points="789.76,-237.5 799.76,-234 789.76,-230.5 789.76,-237.5"/>
</g>
<!-- Node18&#45;&gt;Node8 -->
<g id="edge20" class="edge">
<title>Node18&#45;&gt;Node8</title>
<path fill="none" stroke="midnightblue" d="M698.62,-281.75C718.35,-334.94 813.09,-590.25 840.22,-663.38"/>
<polygon fill="midnightblue" stroke="midnightblue" points="837.09,-665 843.85,-673.15 843.65,-662.56 837.09,-665"/>
</g>
<!-- Node18&#45;&gt;Node9 -->
<g id="edge21" class="edge">
<title>Node18&#45;&gt;Node9</title>
<path fill="none" stroke="midnightblue" d="M718.46,-281.6C733.23,-288.67 751.75,-299.57 764,-314 812.94,-371.67 835.79,-461.74 843.89,-501.27"/>
<polygon fill="midnightblue" stroke="midnightblue" points="840.48,-502.07 845.83,-511.22 847.35,-500.73 840.48,-502.07"/>
</g>
<!-- Node18&#45;&gt;Node18 -->
<g id="edge18" class="edge">
<title>Node18&#45;&gt;Node18</title>
<path fill="none" stroke="midnightblue" d="M670.26,-281.76C658.72,-290.57 666.63,-300 694,-300 711.96,-300 721.54,-295.94 722.75,-290.65"/>
<polygon fill="midnightblue" stroke="midnightblue" points="725.69,-288.75 717.74,-281.76 719.59,-292.19 725.69,-288.75"/>
</g>
<!-- Node19 -->
<g id="node19" class="node">
<title>Node19</title>
<g id="a_node19"><a xlink:href="class_calc.html#a284818e83b0d85bdd029f3d72d4ef0bd" target="_top" xlink:title=" ">
<polygon fill="white" stroke="black" points="813.5,-338.5 813.5,-357.5 883.5,-357.5 883.5,-338.5 813.5,-338.5"/>
<text text-anchor="middle" x="848.5" y="-345.5" font-family="Helvetica,sans-Serif" font-size="10.00">Calc::_msg</text>
</a>
</g>
</g>
<!-- Node18&#45;&gt;Node19 -->
<g id="edge19" class="edge">
<title>Node18&#45;&gt;Node19</title>
<path fill="none" stroke="midnightblue" d="M711.42,-281.69C731.83,-293.56 767.89,-313.93 800,-329 804.09,-330.92 808.43,-332.83 812.76,-334.65"/>
<polygon fill="midnightblue" stroke="midnightblue" points="811.54,-337.93 822.12,-338.48 814.19,-331.46 811.54,-337.93"/>
</g>
<!-- Node20 -->
<g id="node20" class="node">
<title>Node20</title>
<g id="a_node20"><a xlink:href="utils_8h.html#aa0a3ba0e1cec6f6b77334767af46eef7" target="_top" xlink:title="Check if the string is an unsigned integer.">
<polygon fill="white" stroke="black" points="826,-300.5 826,-319.5 871,-319.5 871,-300.5 826,-300.5"/>
<text text-anchor="middle" x="848.5" y="-307.5" font-family="Helvetica,sans-Serif" font-size="10.00">isUInt</text>
</a>
</g>
</g>
<!-- Node18&#45;&gt;Node20 -->
<g id="edge22" class="edge">
<title>Node18&#45;&gt;Node20</title>
<path fill="none" stroke="midnightblue" d="M733.48,-281.59C759,-287.95 792.07,-296.19 816.02,-302.15"/>
<polygon fill="midnightblue" stroke="midnightblue" points="815.44,-305.62 825.99,-304.64 817.14,-298.83 815.44,-305.62"/>
</g>
<!-- Node21 -->
<g id="node21" class="node">
<title>Node21</title>
<g id="a_node21"><a xlink:href="class_type___track.html#ab510214767b1b4d71e3beadecb814bb7" target="_top" xlink:title=" ">
<polygon fill="white" stroke="black" points="801,-262.5 801,-281.5 896,-281.5 896,-262.5 801,-262.5"/>
<text text-anchor="middle" x="848.5" y="-269.5" font-family="Helvetica,sans-Serif" font-size="10.00">Type_Track::size</text>
</a>
</g>
</g>
<!-- Node18&#45;&gt;Node21 -->
<g id="edge23" class="edge">
<title>Node18&#45;&gt;Node21</title>
<path fill="none" stroke="midnightblue" d="M759.23,-272C769.73,-272 780.55,-272 790.85,-272"/>
<polygon fill="midnightblue" stroke="midnightblue" points="790.95,-275.5 800.95,-272 790.95,-268.5 790.95,-275.5"/>
</g>
<!-- Node26&#45;&gt;Node12 -->
<g id="edge30" class="edge">
<title>Node26&#45;&gt;Node12</title>
<path fill="none" stroke="midnightblue" d="M411.09,-200C438.5,-200 473.94,-200 500.32,-200"/>
<polygon fill="midnightblue" stroke="midnightblue" points="500.66,-203.5 510.66,-200 500.66,-196.5 500.66,-203.5"/>
</g>
<!-- Node31 -->
<g id="node31" class="node">
<title>Node31</title>
<g id="a_node31"><a xlink:href="functions_8h.html#ac9dc58cb94b7547813c3a35154d97d18" target="_top" xlink:title=" ">
<polygon fill="white" stroke="black" points="499,-684.5 499,-703.5 578,-703.5 578,-684.5 499,-684.5"/>
<text text-anchor="middle" x="538.5" y="-691.5" font-family="Helvetica,sans-Serif" font-size="10.00">isFuncNoEnd</text>
</a>
</g>
</g>
<!-- Node30&#45;&gt;Node31 -->
<g id="edge35" class="edge">
<title>Node30&#45;&gt;Node31</title>
<path fill="none" stroke="midnightblue" d="M411.09,-694C434.63,-694 464.08,-694 488.64,-694"/>
<polygon fill="midnightblue" stroke="midnightblue" points="488.83,-697.5 498.83,-694 488.83,-690.5 488.83,-697.5"/>
</g>
<!-- Node31&#45;&gt;Node7 -->
<g id="edge36" class="edge">
<title>Node31&#45;&gt;Node7</title>
<path fill="none" stroke="midnightblue" d="M578.23,-698.79C601.65,-701.69 631.38,-705.37 654.71,-708.26"/>
<polygon fill="midnightblue" stroke="midnightblue" points="654.58,-711.77 664.94,-709.53 655.44,-704.82 654.58,-711.77"/>
</g>
<!-- Node32&#45;&gt;Node9 -->
<g id="edge38" class="edge">
<title>Node32&#45;&gt;Node9</title>
<path fill="none" stroke="midnightblue" d="M716.53,-579.4C742.64,-567.76 786.85,-548.04 816.6,-534.78"/>
<polygon fill="midnightblue" stroke="midnightblue" points="818.38,-537.82 826.08,-530.55 815.52,-531.43 818.38,-537.82"/>
</g>
<!-- Node34 -->
<g id="node34" class="node">
<title>Node34</title>
<g id="a_node34"><a xlink:href="utils_8h.html#aaaee605fe46abaa420448438d89b22ed" target="_top" xlink:title=" ">
<polygon fill="white" stroke="black" points="508.5,-532.5 508.5,-551.5 568.5,-551.5 568.5,-532.5 508.5,-532.5"/>
<text text-anchor="middle" x="538.5" y="-539.5" font-family="Helvetica,sans-Serif" font-size="10.00">isQuoted</text>
</a>
</g>
</g>
<!-- Node33&#45;&gt;Node34 -->
<g id="edge40" class="edge">
<title>Node33&#45;&gt;Node34</title>
<path fill="none" stroke="midnightblue" d="M409.79,-542C436.7,-542 471.76,-542 498.34,-542"/>
<polygon fill="midnightblue" stroke="midnightblue" points="498.43,-545.5 508.43,-542 498.43,-538.5 498.43,-545.5"/>
</g>
<!-- Node37 -->
<g id="node37" class="node">
<title>Node37</title>
<g id="a_node37"><a xlink:href="class_type.html#a5b8adffb334040c53940ecf814ebcc65" target="_top" xlink:title=" ">
<polygon fill="white" stroke="black" points="491,-449.5 491,-468.5 586,-468.5 586,-449.5 491,-449.5"/>
<text text-anchor="middle" x="538.5" y="-456.5" font-family="Helvetica,sans-Serif" font-size="10.00">Type::_getString</text>
</a>
</g>
</g>
<!-- Node36&#45;&gt;Node37 -->
<g id="edge43" class="edge">
<title>Node36&#45;&gt;Node37</title>
<path fill="none" stroke="midnightblue" d="M404.73,-464.52C426.81,-463.6 455.63,-462.4 480.77,-461.36"/>
<polygon fill="midnightblue" stroke="midnightblue" points="481.08,-464.85 490.93,-460.93 480.79,-457.85 481.08,-464.85"/>
</g>
<!-- Node38 -->
<g id="node38" class="node">
<title>Node38</title>
<g id="a_node38"><a xlink:href="class_type.html#a836b463aa4740a234e0d304ed4cd958f" target="_top" xlink:title=" ">
<polygon fill="white" stroke="black" points="489,-487.5 489,-506.5 588,-506.5 588,-487.5 489,-487.5"/>
<text text-anchor="middle" x="538.5" y="-494.5" font-family="Helvetica,sans-Serif" font-size="10.00">Type::isUnknown</text>
</a>
</g>
</g>
<!-- Node36&#45;&gt;Node38 -->
<g id="edge44" class="edge">
<title>Node36&#45;&gt;Node38</title>
<path fill="none" stroke="midnightblue" d="M404.73,-472.57C426.22,-476.53 454.08,-481.65 478.73,-486.19"/>
<polygon fill="midnightblue" stroke="midnightblue" points="478.25,-489.66 488.71,-488.02 479.51,-482.77 478.25,-489.66"/>
</g>
<!-- Node41 -->
<g id="node41" class="node">
<title>Node41</title>
<g id="a_node41"><a xlink:href="utils_8h.html#a47084ee818936eef3c48be492c0e860f" target="_top" xlink:title=" ">
<polygon fill="white" stroke="black" points="518.5,-359.5 518.5,-378.5 558.5,-378.5 558.5,-359.5 518.5,-359.5"/>
<text text-anchor="middle" x="538.5" y="-366.5" font-family="Helvetica,sans-Serif" font-size="10.00">ltrim</text>
</a>
</g>
</g>
<!-- Node40&#45;&gt;Node41 -->
<g id="edge47" class="edge">
<title>Node40&#45;&gt;Node41</title>
<path fill="none" stroke="midnightblue" d="M386.71,-387.79C415.66,-384.18 473.37,-376.99 508.4,-372.63"/>
<polygon fill="midnightblue" stroke="midnightblue" points="508.99,-376.08 518.48,-371.37 508.13,-369.13 508.99,-376.08"/>
</g>
<!-- Node42 -->
<g id="node42" class="node">
<title>Node42</title>
<g id="a_node42"><a xlink:href="utils_8h.html#af6d6bd5c29782e3b958b5f7c0d1ea9e3" target="_top" xlink:title=" ">
<polygon fill="white" stroke="black" points="518,-397.5 518,-416.5 559,-416.5 559,-397.5 518,-397.5"/>
<text text-anchor="middle" x="538.5" y="-404.5" font-family="Helvetica,sans-Serif" font-size="10.00">rtrim</text>
</a>
</g>
</g>
<!-- Node40&#45;&gt;Node42 -->
<g id="edge48" class="edge">
<title>Node40&#45;&gt;Node42</title>
<path fill="none" stroke="midnightblue" d="M386.71,-391.79C415.51,-394.69 472.76,-400.47 507.84,-404.01"/>
<polygon fill="midnightblue" stroke="midnightblue" points="507.66,-407.51 517.96,-405.03 508.36,-400.54 507.66,-407.51"/>
</g>
</g>
</svg>
