<?xml version="1.0" encoding="UTF-8" standalone="no"?>
<!DOCTYPE svg PUBLIC "-//W3C//DTD SVG 1.1//EN"
 "http://www.w3.org/Graphics/SVG/1.1/DTD/svg11.dtd">
<!-- Generated by graphviz version 2.43.0 (0)
 -->
<!-- Title: Export::_estimation Pages: 1 -->
<svg width="911pt" height="864pt"
 viewBox="0.00 0.00 911.00 864.00" xmlns="http://www.w3.org/2000/svg" xmlns:xlink="http://www.w3.org/1999/xlink">
<g id="graph0" class="graph" transform="scale(1 1) rotate(0) translate(4 860)">
<title>Export::_estimation</title>
<polygon fill="white" stroke="transparent" points="-4,4 -4,-860 907,-860 907,4 -4,4"/>
<!-- Node1 -->
<g id="node1" class="node">
<title>Node1</title>
<g id="a_node1"><a xlink:title=" ">
<polygon fill="#bfbfbf" stroke="black" points="0,-722.5 0,-741.5 112,-741.5 112,-722.5 0,-722.5"/>
<text text-anchor="middle" x="56" y="-729.5" font-family="Helvetica,sans-Serif" font-size="10.00">Export::_estimation</text>
</a>
</g>
</g>
<!-- Node2 -->
<g id="node2" class="node">
<title>Node2</title>
<g id="a_node2"><a xlink:href="class_export.html#a638d6b9ced18342503ee6f4d4b274740" target="_top" xlink:title=" ">
<polygon fill="white" stroke="black" points="158.5,-836.5 158.5,-855.5 242.5,-855.5 242.5,-836.5 158.5,-836.5"/>
<text text-anchor="middle" x="200.5" y="-843.5" font-family="Helvetica,sans-Serif" font-size="10.00">Export::_asStr</text>
</a>
</g>
</g>
<!-- Node1&#45;&gt;Node2 -->
<g id="edge1" class="edge">
<title>Node1&#45;&gt;Node2</title>
<path fill="none" stroke="midnightblue" d="M63.91,-741.74C77.79,-760.68 110.94,-802.71 148,-827 150.96,-828.94 154.14,-830.72 157.42,-832.34"/>
<polygon fill="midnightblue" stroke="midnightblue" points="156.26,-835.65 166.82,-836.49 159.09,-829.25 156.26,-835.65"/>
</g>
<!-- Node3 -->
<g id="node3" class="node">
<title>Node3</title>
<g id="a_node3"><a xlink:href="class_export.html#abe75ae41d7cc8afe8f1ba4bbf67dfcfc" target="_top" xlink:title=" ">
<polygon fill="white" stroke="black" points="169,-798.5 169,-817.5 232,-817.5 232,-798.5 169,-798.5"/>
<text text-anchor="middle" x="200.5" y="-805.5" font-family="Helvetica,sans-Serif" font-size="10.00">Export::_f</text>
</a>
</g>
</g>
<!-- Node1&#45;&gt;Node3 -->
<g id="edge2" class="edge">
<title>Node1&#45;&gt;Node3</title>
<path fill="none" stroke="midnightblue" d="M70.37,-741.61C87.67,-753.75 119.05,-774.78 148,-789 152.1,-791.02 156.48,-792.94 160.88,-794.75"/>
<polygon fill="midnightblue" stroke="midnightblue" points="159.87,-798.11 170.46,-798.47 162.41,-791.58 159.87,-798.11"/>
</g>
<!-- Node4 -->
<g id="node4" class="node">
<title>Node4</title>
<g id="a_node4"><a xlink:href="class_export.html#a68e698a5654fc800aa78c512da8f23b1" target="_top" xlink:title=" ">
<polygon fill="white" stroke="black" points="153.5,-760.5 153.5,-779.5 247.5,-779.5 247.5,-760.5 153.5,-760.5"/>
<text text-anchor="middle" x="200.5" y="-767.5" font-family="Helvetica,sans-Serif" font-size="10.00">Export::_langStr</text>
</a>
</g>
</g>
<!-- Node1&#45;&gt;Node4 -->
<g id="edge3" class="edge">
<title>Node1&#45;&gt;Node4</title>
<path fill="none" stroke="midnightblue" d="M92.96,-741.59C111.44,-746.52 134.16,-752.57 153.86,-757.83"/>
<polygon fill="midnightblue" stroke="midnightblue" points="152.99,-761.22 163.55,-760.41 154.79,-754.46 152.99,-761.22"/>
</g>
<!-- Node5 -->
<g id="node5" class="node">
<title>Node5</title>
<g id="a_node5"><a xlink:href="class_export.html#a33b5d571af76c0d4f9b9ee6e72afd8a6" target="_top" xlink:title=" ">
<polygon fill="white" stroke="black" points="148,-722.5 148,-741.5 253,-741.5 253,-722.5 148,-722.5"/>
<text text-anchor="middle" x="200.5" y="-729.5" font-family="Helvetica,sans-Serif" font-size="10.00">Export::_preCheck</text>
</a>
</g>
</g>
<!-- Node1&#45;&gt;Node5 -->
<g id="edge4" class="edge">
<title>Node1&#45;&gt;Node5</title>
<path fill="none" stroke="midnightblue" d="M112.09,-732C120.45,-732 129.11,-732 137.6,-732"/>
<polygon fill="midnightblue" stroke="midnightblue" points="137.82,-735.5 147.82,-732 137.82,-728.5 137.82,-735.5"/>
</g>
<!-- Node7 -->
<g id="node7" class="node">
<title>Node7</title>
<g id="a_node7"><a xlink:href="class_log.html#add7e611cd3267d3fd5dae017e3aeef67" target="_top" xlink:title="Write infomation to the log file.">
<polygon fill="white" stroke="black" points="825,-474.5 825,-493.5 884,-493.5 884,-474.5 825,-474.5"/>
<text text-anchor="middle" x="854.5" y="-481.5" font-family="Helvetica,sans-Serif" font-size="10.00">Log::info</text>
</a>
</g>
</g>
<!-- Node1&#45;&gt;Node7 -->
<g id="edge6" class="edge">
<title>Node1&#45;&gt;Node7</title>
<path fill="none" stroke="midnightblue" d="M97.58,-722.43C113.26,-719.02 131.39,-715.43 148,-713 247.3,-698.5 272.64,-694 373,-694 373,-694 373,-694 545.5,-694 681.65,-694 802.02,-552.19 840.61,-501.64"/>
<polygon fill="midnightblue" stroke="midnightblue" points="843.46,-503.67 846.66,-493.57 837.86,-499.47 843.46,-503.67"/>
</g>
<!-- Node8 -->
<g id="node8" class="node">
<title>Node8</title>
<g id="a_node8"><a xlink:href="utils_8h.html#a6ef734356291c638e5787a6c668192d4" target="_top" xlink:title=" ">
<polygon fill="white" stroke="black" points="355.5,-646.5 355.5,-665.5 392.5,-665.5 392.5,-646.5 355.5,-646.5"/>
<text text-anchor="middle" x="374" y="-653.5" font-family="Helvetica,sans-Serif" font-size="10.00">trim</text>
</a>
</g>
</g>
<!-- Node1&#45;&gt;Node8 -->
<g id="edge7" class="edge">
<title>Node1&#45;&gt;Node8</title>
<path fill="none" stroke="midnightblue" d="M69.76,-722.41C86.66,-710.26 117.87,-689.74 148,-680 216.4,-657.89 301.98,-655.12 345.23,-655.35"/>
<polygon fill="midnightblue" stroke="midnightblue" points="345.24,-658.85 355.28,-655.46 345.31,-651.85 345.24,-658.85"/>
</g>
<!-- Node11 -->
<g id="node11" class="node">
<title>Node11</title>
<g id="a_node11"><a xlink:href="class_alg.html#ada1e8215f047b4ffd736e811b5ea3162" target="_top" xlink:title=" ">
<polygon fill="white" stroke="black" points="169,-342.5 169,-361.5 232,-361.5 232,-342.5 169,-342.5"/>
<text text-anchor="middle" x="200.5" y="-349.5" font-family="Helvetica,sans-Serif" font-size="10.00">Alg::write</text>
</a>
</g>
</g>
<!-- Node1&#45;&gt;Node11 -->
<g id="edge10" class="edge">
<title>Node1&#45;&gt;Node11</title>
<path fill="none" stroke="midnightblue" d="M60.67,-722.22C79.6,-671.72 166.48,-440.06 192.26,-371.3"/>
<polygon fill="midnightblue" stroke="midnightblue" points="195.62,-372.3 195.86,-361.71 189.07,-369.84 195.62,-372.3"/>
</g>
<!-- Node6 -->
<g id="node6" class="node">
<title>Node6</title>
<g id="a_node6"><a xlink:href="error__code_8h.html#ae1bfa02e1106eff84ddecb9f7773a1a4" target="_top" xlink:title="Return the error message of the error code from class Err.">
<polygon fill="white" stroke="black" points="344,-722.5 344,-741.5 404,-741.5 404,-722.5 344,-722.5"/>
<text text-anchor="middle" x="374" y="-729.5" font-family="Helvetica,sans-Serif" font-size="10.00">errorMsg</text>
</a>
</g>
</g>
<!-- Node5&#45;&gt;Node6 -->
<g id="edge5" class="edge">
<title>Node5&#45;&gt;Node6</title>
<path fill="none" stroke="midnightblue" d="M253.42,-732C279.18,-732 309.8,-732 333.6,-732"/>
<polygon fill="midnightblue" stroke="midnightblue" points="333.69,-735.5 343.69,-732 333.69,-728.5 333.69,-735.5"/>
</g>
<!-- Node9 -->
<g id="node9" class="node">
<title>Node9</title>
<g id="a_node9"><a xlink:href="utils_8h.html#a47084ee818936eef3c48be492c0e860f" target="_top" xlink:title=" ">
<polygon fill="white" stroke="black" points="524.5,-646.5 524.5,-665.5 564.5,-665.5 564.5,-646.5 524.5,-646.5"/>
<text text-anchor="middle" x="544.5" y="-653.5" font-family="Helvetica,sans-Serif" font-size="10.00">ltrim</text>
</a>
</g>
</g>
<!-- Node8&#45;&gt;Node9 -->
<g id="edge8" class="edge">
<title>Node8&#45;&gt;Node9</title>
<path fill="none" stroke="midnightblue" d="M392.71,-656C421.66,-656 479.37,-656 514.4,-656"/>
<polygon fill="midnightblue" stroke="midnightblue" points="514.48,-659.5 524.48,-656 514.48,-652.5 514.48,-659.5"/>
</g>
<!-- Node10 -->
<g id="node10" class="node">
<title>Node10</title>
<g id="a_node10"><a xlink:href="utils_8h.html#af6d6bd5c29782e3b958b5f7c0d1ea9e3" target="_top" xlink:title=" ">
<polygon fill="white" stroke="black" points="524,-608.5 524,-627.5 565,-627.5 565,-608.5 524,-608.5"/>
<text text-anchor="middle" x="544.5" y="-615.5" font-family="Helvetica,sans-Serif" font-size="10.00">rtrim</text>
</a>
</g>
</g>
<!-- Node8&#45;&gt;Node10 -->
<g id="edge9" class="edge">
<title>Node8&#45;&gt;Node10</title>
<path fill="none" stroke="midnightblue" d="M392.71,-652.01C421.51,-645.51 478.76,-632.6 513.84,-624.69"/>
<polygon fill="midnightblue" stroke="midnightblue" points="514.97,-628.02 523.96,-622.41 513.43,-621.19 514.97,-628.02"/>
</g>
<!-- Node11&#45;&gt;Node7 -->
<g id="edge29" class="edge">
<title>Node11&#45;&gt;Node7</title>
<path fill="none" stroke="midnightblue" d="M204.35,-361.77C212.51,-387.65 238.64,-457.85 289,-485 379.67,-533.88 702.08,-501.81 814.5,-488.77"/>
<polygon fill="midnightblue" stroke="midnightblue" points="815.18,-492.22 824.7,-487.58 814.36,-485.27 815.18,-492.22"/>
</g>
<!-- Node11&#45;&gt;Node8 -->
<g id="edge47" class="edge">
<title>Node11&#45;&gt;Node8</title>
<path fill="none" stroke="midnightblue" d="M201.26,-361.61C200.82,-401.92 204.74,-558.87 289,-637 304.03,-650.94 327.05,-655.4 345.2,-656.53"/>
<polygon fill="midnightblue" stroke="midnightblue" points="345.11,-660.03 355.22,-656.86 345.34,-653.03 345.11,-660.03"/>
</g>
<!-- Node11&#45;&gt;Node11 -->
<g id="edge49" class="edge">
<title>Node11&#45;&gt;Node11</title>
<path fill="none" stroke="midnightblue" d="M178.31,-361.76C167.51,-370.57 174.91,-380 200.5,-380 217.3,-380 226.26,-375.94 227.38,-370.65"/>
<polygon fill="midnightblue" stroke="midnightblue" points="230.45,-368.97 222.69,-361.76 224.26,-372.24 230.45,-368.97"/>
</g>
<!-- Node12 -->
<g id="node12" class="node">
<title>Node12</title>
<g id="a_node12"><a xlink:href="class_alg.html#a2cf2b7f4e37c8e401d9c6dad6687917d" target="_top" xlink:title=" ">
<polygon fill="white" stroke="black" points="324,-456.5 324,-475.5 424,-475.5 424,-456.5 324,-456.5"/>
<text text-anchor="middle" x="374" y="-463.5" font-family="Helvetica,sans-Serif" font-size="10.00">Alg::_wComment</text>
</a>
</g>
</g>
<!-- Node11&#45;&gt;Node12 -->
<g id="edge11" class="edge">
<title>Node11&#45;&gt;Node12</title>
<path fill="none" stroke="midnightblue" d="M208.23,-361.75C221.5,-380.22 252.9,-420.42 289,-442 296.66,-446.58 305.24,-450.32 313.91,-453.37"/>
<polygon fill="midnightblue" stroke="midnightblue" points="313.1,-456.79 323.69,-456.53 315.25,-450.13 313.1,-456.79"/>
</g>
<!-- Node13 -->
<g id="node13" class="node">
<title>Node13</title>
<g id="a_node13"><a xlink:href="class_calc.html#ad6dbdfdd4bd21322e5836ff72c11ae1b" target="_top" xlink:title="Convert the Alg CALC contents into a language command.">
<polygon fill="white" stroke="black" points="517,-266.5 517,-285.5 572,-285.5 572,-266.5 517,-266.5"/>
<text text-anchor="middle" x="544.5" y="-273.5" font-family="Helvetica,sans-Serif" font-size="10.00">Calc::as</text>
</a>
</g>
</g>
<!-- Node11&#45;&gt;Node13 -->
<g id="edge12" class="edge">
<title>Node11&#45;&gt;Node13</title>
<path fill="none" stroke="midnightblue" d="M202.03,-342.22C204.48,-307.58 217.94,-190.29 289,-143 351.9,-101.14 392.78,-106.62 459,-143 503.4,-167.39 527.78,-226.08 537.87,-256.69"/>
<polygon fill="midnightblue" stroke="midnightblue" points="534.53,-257.74 540.85,-266.24 541.21,-255.66 534.53,-257.74"/>
</g>
<!-- Node25 -->
<g id="node25" class="node">
<title>Node25</title>
<g id="a_node25"><a xlink:href="class_type.html#abe15820e780d2f6646792d54f3ae3311" target="_top" xlink:title=" ">
<polygon fill="white" stroke="black" points="342,-380.5 342,-399.5 406,-399.5 406,-380.5 342,-380.5"/>
<text text-anchor="middle" x="374" y="-387.5" font-family="Helvetica,sans-Serif" font-size="10.00">Type::dim</text>
</a>
</g>
</g>
<!-- Node11&#45;&gt;Node25 -->
<g id="edge26" class="edge">
<title>Node11&#45;&gt;Node25</title>
<path fill="none" stroke="midnightblue" d="M232.16,-358.79C259.95,-364.95 301.12,-374.07 331.78,-380.87"/>
<polygon fill="midnightblue" stroke="midnightblue" points="331.22,-384.33 341.74,-383.07 332.73,-377.49 331.22,-384.33"/>
</g>
<!-- Node26 -->
<g id="node26" class="node">
<title>Node26</title>
<g id="a_node26"><a xlink:href="class_alg___line.html#af651454e6ddfce164626b68b2c6cba97" target="_top" xlink:title="Get the function name.">
<polygon fill="white" stroke="black" points="331.5,-342.5 331.5,-361.5 416.5,-361.5 416.5,-342.5 331.5,-342.5"/>
<text text-anchor="middle" x="374" y="-349.5" font-family="Helvetica,sans-Serif" font-size="10.00">Alg_Line::func</text>
</a>
</g>
</g>
<!-- Node11&#45;&gt;Node26 -->
<g id="edge27" class="edge">
<title>Node11&#45;&gt;Node26</title>
<path fill="none" stroke="midnightblue" d="M232.16,-352C256.9,-352 292.24,-352 321.33,-352"/>
<polygon fill="midnightblue" stroke="midnightblue" points="321.33,-355.5 331.33,-352 321.33,-348.5 321.33,-355.5"/>
</g>
<!-- Node27 -->
<g id="node27" class="node">
<title>Node27</title>
<g id="a_node27"><a xlink:href="class_alg___line.html#a49a98870a1f09e35a3e15a7d7bab1666" target="_top" xlink:title="Check whether parameters contain the key.">
<polygon fill="white" stroke="black" points="324.5,-304.5 324.5,-323.5 423.5,-323.5 423.5,-304.5 324.5,-304.5"/>
<text text-anchor="middle" x="374" y="-311.5" font-family="Helvetica,sans-Serif" font-size="10.00">Alg_Line::hasKey</text>
</a>
</g>
</g>
<!-- Node11&#45;&gt;Node27 -->
<g id="edge28" class="edge">
<title>Node11&#45;&gt;Node27</title>
<path fill="none" stroke="midnightblue" d="M232.16,-345.21C256.55,-339.8 291.25,-332.11 320.11,-325.72"/>
<polygon fill="midnightblue" stroke="midnightblue" points="321.04,-329.1 330.04,-323.52 319.52,-322.26 321.04,-329.1"/>
</g>
<!-- Node28 -->
<g id="node28" class="node">
<title>Node28</title>
<g id="a_node28"><a xlink:href="class_alg.html#a3ee7f9963027158b3fbd442d97800111" target="_top" xlink:title=" ">
<polygon fill="white" stroke="black" points="331,-266.5 331,-285.5 417,-285.5 417,-266.5 331,-266.5"/>
<text text-anchor="middle" x="374" y="-273.5" font-family="Helvetica,sans-Serif" font-size="10.00">Alg::inlineCalc</text>
</a>
</g>
</g>
<!-- Node11&#45;&gt;Node28 -->
<g id="edge30" class="edge">
<title>Node11&#45;&gt;Node28</title>
<path fill="none" stroke="midnightblue" d="M213.18,-342.42C229.27,-329.71 259.61,-307.42 289,-295 299.02,-290.77 310.12,-287.4 320.89,-284.76"/>
<polygon fill="midnightblue" stroke="midnightblue" points="321.67,-288.17 330.64,-282.53 320.11,-281.35 321.67,-288.17"/>
</g>
<!-- Node29 -->
<g id="node29" class="node">
<title>Node29</title>
<g id="a_node29"><a xlink:href="class_alg___line.html#ad419191a99be7e34024e569ad833b04e" target="_top" xlink:title="Check whether the line is for function declaration.">
<polygon fill="white" stroke="black" points="289,-228.5 289,-247.5 459,-247.5 459,-228.5 289,-228.5"/>
<text text-anchor="middle" x="374" y="-235.5" font-family="Helvetica,sans-Serif" font-size="10.00">Alg_Line::isFunctionDeclaration</text>
</a>
</g>
</g>
<!-- Node11&#45;&gt;Node29 -->
<g id="edge32" class="edge">
<title>Node11&#45;&gt;Node29</title>
<path fill="none" stroke="midnightblue" d="M207.4,-342.42C219.88,-323 250.96,-279.01 289,-257 292.89,-254.75 297.03,-252.77 301.29,-251.02"/>
<polygon fill="midnightblue" stroke="midnightblue" points="302.61,-254.26 310.81,-247.55 300.22,-247.68 302.61,-254.26"/>
</g>
<!-- Node30 -->
<g id="node30" class="node">
<title>Node30</title>
<g id="a_node30"><a xlink:href="class_alg.html#af935e64a6eb4afa4ca1540f4da3dcc9c" target="_top" xlink:title=" ">
<polygon fill="white" stroke="black" points="346,-190.5 346,-209.5 402,-209.5 402,-190.5 346,-190.5"/>
<text text-anchor="middle" x="374" y="-197.5" font-family="Helvetica,sans-Serif" font-size="10.00">Alg::line</text>
</a>
</g>
</g>
<!-- Node11&#45;&gt;Node30 -->
<g id="edge33" class="edge">
<title>Node11&#45;&gt;Node30</title>
<path fill="none" stroke="midnightblue" d="M204.85,-342.47C214.06,-317.78 242.19,-251.41 289,-219 302.58,-209.59 320.09,-204.77 335.6,-202.32"/>
<polygon fill="midnightblue" stroke="midnightblue" points="336.48,-205.74 345.95,-200.98 335.59,-198.79 336.48,-205.74"/>
</g>
<!-- Node31 -->
<g id="node31" class="node">
<title>Node31</title>
<g id="a_node31"><a xlink:href="class_alg___line.html#a4e79eb77a1cddbdab1dbdde8a499342d" target="_top" xlink:title="Parameter variables.">
<polygon fill="white" stroke="black" points="323.5,-152.5 323.5,-171.5 424.5,-171.5 424.5,-152.5 323.5,-152.5"/>
<text text-anchor="middle" x="374" y="-159.5" font-family="Helvetica,sans-Serif" font-size="10.00">Alg_Line::params</text>
</a>
</g>
</g>
<!-- Node11&#45;&gt;Node31 -->
<g id="edge34" class="edge">
<title>Node11&#45;&gt;Node31</title>
<path fill="none" stroke="midnightblue" d="M203.42,-342.42C209.8,-313.17 233.15,-224.35 289,-181 296.2,-175.41 304.73,-171.41 313.56,-168.55"/>
<polygon fill="midnightblue" stroke="midnightblue" points="314.49,-171.92 323.19,-165.88 312.62,-165.18 314.49,-171.92"/>
</g>
<!-- Node32 -->
<g id="node32" class="node">
<title>Node32</title>
<g id="a_node32"><a xlink:href="class_alg___line.html#a801b08c6c164376039a4ba4e980d039e" target="_top" xlink:title="Print Alg_Line contents (including return values, function names and parameters).">
<polygon fill="white" stroke="black" points="331,-76.5 331,-95.5 417,-95.5 417,-76.5 331,-76.5"/>
<text text-anchor="middle" x="374" y="-83.5" font-family="Helvetica,sans-Serif" font-size="10.00">Alg_Line::print</text>
</a>
</g>
</g>
<!-- Node11&#45;&gt;Node32 -->
<g id="edge35" class="edge">
<title>Node11&#45;&gt;Node32</title>
<path fill="none" stroke="midnightblue" d="M201.97,-342.48C204.29,-306.4 217.48,-176.77 289,-110 297.83,-101.75 309.31,-96.31 320.92,-92.73"/>
<polygon fill="midnightblue" stroke="midnightblue" points="321.89,-96.1 330.66,-90.14 320.09,-89.33 321.89,-96.1"/>
</g>
<!-- Node35 -->
<g id="node35" class="node">
<title>Node35</title>
<g id="a_node35"><a xlink:href="class_type___track.html#a4548ba1c289fba60e88b0e725509219e" target="_top" xlink:title=" ">
<polygon fill="white" stroke="black" points="650.5,-441.5 650.5,-460.5 749.5,-460.5 749.5,-441.5 650.5,-441.5"/>
<text text-anchor="middle" x="700" y="-448.5" font-family="Helvetica,sans-Serif" font-size="10.00">Type_Track::push</text>
</a>
</g>
</g>
<!-- Node11&#45;&gt;Node35 -->
<g id="edge38" class="edge">
<title>Node11&#45;&gt;Node35</title>
<path fill="none" stroke="midnightblue" d="M212.45,-361.66C228.16,-374.89 258.57,-398.25 289,-409 408.53,-451.24 558.99,-455.13 640.32,-453.52"/>
<polygon fill="midnightblue" stroke="midnightblue" points="640.45,-457.02 650.36,-453.29 640.29,-450.02 640.45,-457.02"/>
</g>
<!-- Node36 -->
<g id="node36" class="node">
<title>Node36</title>
<g id="a_node36"><a xlink:href="utils_8h.html#a0465457013518e168df05799c93cfa6e" target="_top" xlink:title=" ">
<polygon fill="white" stroke="black" points="332.5,-38.5 332.5,-57.5 415.5,-57.5 415.5,-38.5 332.5,-38.5"/>
<text text-anchor="middle" x="374" y="-45.5" font-family="Helvetica,sans-Serif" font-size="10.00">removeQuote</text>
</a>
</g>
</g>
<!-- Node11&#45;&gt;Node36 -->
<g id="edge40" class="edge">
<title>Node11&#45;&gt;Node36</title>
<path fill="none" stroke="midnightblue" d="M201.26,-342.39C200.82,-302.08 204.74,-145.13 289,-67 298.08,-58.58 310.07,-53.62 322.15,-50.76"/>
<polygon fill="midnightblue" stroke="midnightblue" points="323.09,-54.15 332.25,-48.83 321.77,-47.27 323.09,-54.15"/>
</g>
<!-- Node38 -->
<g id="node38" class="node">
<title>Node38</title>
<g id="a_node38"><a xlink:href="class_alg___line.html#a8e21f6b69eaf80a2327f7308fb4299e0" target="_top" xlink:title="Return variables.">
<polygon fill="white" stroke="black" points="325,-0.5 325,-19.5 423,-19.5 423,-0.5 325,-0.5"/>
<text text-anchor="middle" x="374" y="-7.5" font-family="Helvetica,sans-Serif" font-size="10.00">Alg_Line::returns</text>
</a>
</g>
</g>
<!-- Node11&#45;&gt;Node38 -->
<g id="edge42" class="edge">
<title>Node11&#45;&gt;Node38</title>
<path fill="none" stroke="midnightblue" d="M202.78,-342.26C209.42,-293.3 241.4,-74.64 289,-29 296.2,-22.09 305.36,-17.5 314.97,-14.47"/>
<polygon fill="midnightblue" stroke="midnightblue" points="315.87,-17.86 324.66,-11.95 314.1,-11.08 315.87,-17.86"/>
</g>
<!-- Node39 -->
<g id="node39" class="node">
<title>Node39</title>
<g id="a_node39"><a xlink:href="class_type.html#a0153b8ff39040caf3ff2a6f7c7329d7c" target="_top" xlink:title="Get the C++ type name.">
<polygon fill="white" stroke="black" points="337.5,-608.5 337.5,-627.5 410.5,-627.5 410.5,-608.5 337.5,-608.5"/>
<text text-anchor="middle" x="374" y="-615.5" font-family="Helvetica,sans-Serif" font-size="10.00">Type::string</text>
</a>
</g>
</g>
<!-- Node11&#45;&gt;Node39 -->
<g id="edge43" class="edge">
<title>Node11&#45;&gt;Node39</title>
<path fill="none" stroke="midnightblue" d="M201.78,-361.59C203.39,-398.5 214.35,-532.68 289,-599 299.42,-608.26 313.39,-613.29 326.95,-615.95"/>
<polygon fill="midnightblue" stroke="midnightblue" points="326.74,-619.46 337.17,-617.55 327.83,-612.55 326.74,-619.46"/>
</g>
<!-- Node42 -->
<g id="node42" class="node">
<title>Node42</title>
<g id="a_node42"><a xlink:href="namespacemmce.html#ad4a160832ef9fad47c531ece39752208" target="_top" xlink:title="Change a number to string.">
<polygon fill="white" stroke="black" points="326,-570.5 326,-589.5 422,-589.5 422,-570.5 326,-570.5"/>
<text text-anchor="middle" x="374" y="-577.5" font-family="Helvetica,sans-Serif" font-size="10.00">mmce::to_string</text>
</a>
</g>
</g>
<!-- Node11&#45;&gt;Node42 -->
<g id="edge46" class="edge">
<title>Node11&#45;&gt;Node42</title>
<path fill="none" stroke="midnightblue" d="M202.47,-361.71C206.37,-395.14 223.93,-506.37 289,-561 296.73,-567.49 306.22,-571.88 316.01,-574.82"/>
<polygon fill="midnightblue" stroke="midnightblue" points="315.29,-578.25 325.85,-577.31 317.01,-571.46 315.29,-578.25"/>
</g>
<!-- Node43 -->
<g id="node43" class="node">
<title>Node43</title>
<g id="a_node43"><a xlink:href="class_log.html#a3410828f35c9bf8dd0771ead28de27b0" target="_top" xlink:title="Write contents to the log file.">
<polygon fill="white" stroke="black" points="341.5,-532.5 341.5,-551.5 406.5,-551.5 406.5,-532.5 341.5,-532.5"/>
<text text-anchor="middle" x="374" y="-539.5" font-family="Helvetica,sans-Serif" font-size="10.00">Log::write</text>
</a>
</g>
</g>
<!-- Node11&#45;&gt;Node43 -->
<g id="edge48" class="edge">
<title>Node11&#45;&gt;Node43</title>
<path fill="none" stroke="midnightblue" d="M203.71,-361.57C210.8,-390 235.64,-474.67 289,-518 301.05,-527.79 316.9,-533.58 331.58,-537.02"/>
<polygon fill="midnightblue" stroke="midnightblue" points="331,-540.47 341.49,-539.04 332.39,-533.61 331,-540.47"/>
</g>
<!-- Node14 -->
<g id="node14" class="node">
<title>Node14</title>
<g id="a_node14"><a xlink:href="class_calc.html#af1d1bd5e83f9e5196627f5a4e1a5ee83" target="_top" xlink:title=" ">
<polygon fill="white" stroke="black" points="637.5,-181.5 637.5,-200.5 762.5,-200.5 762.5,-181.5 637.5,-181.5"/>
<text text-anchor="middle" x="700" y="-188.5" font-family="Helvetica,sans-Serif" font-size="10.00">Calc::_changeFunction</text>
</a>
</g>
</g>
<!-- Node13&#45;&gt;Node14 -->
<g id="edge13" class="edge">
<title>Node13&#45;&gt;Node14</title>
<path fill="none" stroke="midnightblue" d="M562.81,-266.41C589.53,-251.62 641,-223.11 672.45,-205.7"/>
<polygon fill="midnightblue" stroke="midnightblue" points="674.46,-208.59 681.52,-200.68 671.07,-202.46 674.46,-208.59"/>
</g>
<!-- Node17 -->
<g id="node17" class="node">
<title>Node17</title>
<g id="a_node17"><a xlink:href="class_calc.html#ae3d88bd40f9bdf2c8ec92c426bdca446" target="_top" xlink:title=" ">
<polygon fill="white" stroke="black" points="636.5,-389.5 636.5,-408.5 763.5,-408.5 763.5,-389.5 636.5,-389.5"/>
<text text-anchor="middle" x="700" y="-396.5" font-family="Helvetica,sans-Serif" font-size="10.00">Calc::_changeOperator</text>
</a>
</g>
</g>
<!-- Node13&#45;&gt;Node17 -->
<g id="edge16" class="edge">
<title>Node13&#45;&gt;Node17</title>
<path fill="none" stroke="midnightblue" d="M550.61,-285.72C561.98,-306.37 591.43,-354.81 630,-380 633.15,-382.06 636.52,-383.89 640.01,-385.53"/>
<polygon fill="midnightblue" stroke="midnightblue" points="638.91,-388.86 649.49,-389.43 641.57,-382.39 638.91,-388.86"/>
</g>
<!-- Node18 -->
<g id="node18" class="node">
<title>Node18</title>
<g id="a_node18"><a xlink:href="class_calc.html#ad95be528148e0d63848d5fa916b93200" target="_top" xlink:title=" ">
<polygon fill="white" stroke="black" points="644.5,-351.5 644.5,-370.5 755.5,-370.5 755.5,-351.5 644.5,-351.5"/>
<text text-anchor="middle" x="700" y="-358.5" font-family="Helvetica,sans-Serif" font-size="10.00">Calc::_changeParen</text>
</a>
</g>
</g>
<!-- Node13&#45;&gt;Node18 -->
<g id="edge17" class="edge">
<title>Node13&#45;&gt;Node18</title>
<path fill="none" stroke="midnightblue" d="M555.01,-285.54C569.79,-299.84 599.73,-326.78 630,-342 634.6,-344.31 639.52,-346.37 644.53,-348.21"/>
<polygon fill="midnightblue" stroke="midnightblue" points="643.64,-351.6 654.23,-351.45 645.86,-344.96 643.64,-351.6"/>
</g>
<!-- Node19 -->
<g id="node19" class="node">
<title>Node19</title>
<g id="a_node19"><a xlink:href="class_calc.html#ad562619fef96a73cd3b4c27b35bc5f91" target="_top" xlink:title=" ">
<polygon fill="white" stroke="black" points="635,-257.5 635,-276.5 765,-276.5 765,-257.5 635,-257.5"/>
<text text-anchor="middle" x="700" y="-264.5" font-family="Helvetica,sans-Serif" font-size="10.00">Calc::_changeSubScript</text>
</a>
</g>
</g>
<!-- Node13&#45;&gt;Node19 -->
<g id="edge18" class="edge">
<title>Node13&#45;&gt;Node19</title>
<path fill="none" stroke="midnightblue" d="M572.24,-274.43C586.95,-273.57 605.99,-272.45 624.83,-271.35"/>
<polygon fill="midnightblue" stroke="midnightblue" points="625.17,-274.84 634.94,-270.76 624.76,-267.85 625.17,-274.84"/>
</g>
<!-- Node24 -->
<g id="node24" class="node">
<title>Node24</title>
<g id="a_node24"><a xlink:href="class_calc.html#a1aec4748092712e0995c0ae5dabbf54f" target="_top" xlink:title=" ">
<polygon fill="white" stroke="black" points="630,-313.5 630,-332.5 770,-332.5 770,-313.5 630,-313.5"/>
<text text-anchor="middle" x="700" y="-320.5" font-family="Helvetica,sans-Serif" font-size="10.00">Calc::_changeSuperScript</text>
</a>
</g>
</g>
<!-- Node13&#45;&gt;Node24 -->
<g id="edge25" class="edge">
<title>Node13&#45;&gt;Node24</title>
<path fill="none" stroke="midnightblue" d="M572.03,-285.18C588.62,-290.82 610.48,-298.08 630,-304 637.52,-306.28 645.55,-308.6 653.36,-310.79"/>
<polygon fill="midnightblue" stroke="midnightblue" points="652.52,-314.19 663.09,-313.49 654.39,-307.44 652.52,-314.19"/>
</g>
<!-- Node15 -->
<g id="node15" class="node">
<title>Node15</title>
<g id="a_node15"><a xlink:href="class_calc.html#a7d793eba0a7c9fcbafec4310359f165d" target="_top" xlink:title=" ">
<polygon fill="white" stroke="black" points="808,-143.5 808,-162.5 901,-162.5 901,-143.5 808,-143.5"/>
<text text-anchor="middle" x="854.5" y="-150.5" font-family="Helvetica,sans-Serif" font-size="10.00">Calc::_addArma</text>
</a>
</g>
</g>
<!-- Node14&#45;&gt;Node15 -->
<g id="edge14" class="edge">
<title>Node14&#45;&gt;Node15</title>
<path fill="none" stroke="midnightblue" d="M739.48,-181.41C759.52,-176.42 784.2,-170.27 805.48,-164.97"/>
<polygon fill="midnightblue" stroke="midnightblue" points="806.44,-168.33 815.29,-162.52 804.74,-161.54 806.44,-168.33"/>
</g>
<!-- Node16 -->
<g id="node16" class="node">
<title>Node16</title>
<g id="a_node16"><a xlink:href="class_calc.html#af58cd6a2174e577a6246366de03b949e" target="_top" xlink:title=" ">
<polygon fill="white" stroke="black" points="806,-181.5 806,-200.5 903,-200.5 903,-181.5 806,-181.5"/>
<text text-anchor="middle" x="854.5" y="-188.5" font-family="Helvetica,sans-Serif" font-size="10.00">Calc::_addMmce</text>
</a>
</g>
</g>
<!-- Node14&#45;&gt;Node16 -->
<g id="edge15" class="edge">
<title>Node14&#45;&gt;Node16</title>
<path fill="none" stroke="midnightblue" d="M762.59,-191C773.49,-191 784.8,-191 795.6,-191"/>
<polygon fill="midnightblue" stroke="midnightblue" points="795.76,-194.5 805.76,-191 795.76,-187.5 795.76,-194.5"/>
</g>
<!-- Node19&#45;&gt;Node7 -->
<g id="edge22" class="edge">
<title>Node19&#45;&gt;Node7</title>
<path fill="none" stroke="midnightblue" d="M727.89,-276.59C741.88,-282.68 758.43,-291.74 770,-304 793.49,-328.89 830.82,-423.59 846.35,-464.73"/>
<polygon fill="midnightblue" stroke="midnightblue" points="843.11,-466.03 849.89,-474.17 849.66,-463.58 843.11,-466.03"/>
</g>
<!-- Node19&#45;&gt;Node19 -->
<g id="edge19" class="edge">
<title>Node19&#45;&gt;Node19</title>
<path fill="none" stroke="midnightblue" d="M676.26,-276.76C664.72,-285.57 672.63,-295 700,-295 717.96,-295 727.54,-290.94 728.75,-285.65"/>
<polygon fill="midnightblue" stroke="midnightblue" points="731.69,-283.75 723.74,-276.76 725.59,-287.19 731.69,-283.75"/>
</g>
<!-- Node20 -->
<g id="node20" class="node">
<title>Node20</title>
<g id="a_node20"><a xlink:href="class_calc.html#a284818e83b0d85bdd029f3d72d4ef0bd" target="_top" xlink:title=" ">
<polygon fill="white" stroke="black" points="819.5,-219.5 819.5,-238.5 889.5,-238.5 889.5,-219.5 819.5,-219.5"/>
<text text-anchor="middle" x="854.5" y="-226.5" font-family="Helvetica,sans-Serif" font-size="10.00">Calc::_msg</text>
</a>
</g>
</g>
<!-- Node19&#45;&gt;Node20 -->
<g id="edge20" class="edge">
<title>Node19&#45;&gt;Node20</title>
<path fill="none" stroke="midnightblue" d="M739.48,-257.41C760.83,-252.09 787.46,-245.46 809.62,-239.93"/>
<polygon fill="midnightblue" stroke="midnightblue" points="810.59,-243.3 819.45,-237.49 808.9,-236.51 810.59,-243.3"/>
</g>
<!-- Node21 -->
<g id="node21" class="node">
<title>Node21</title>
<g id="a_node21"><a xlink:href="class_log.html#ac7147942832455398ad289b706a02616" target="_top" xlink:title="Write error message to the log file.">
<polygon fill="white" stroke="black" points="828,-333.5 828,-352.5 881,-352.5 881,-333.5 828,-333.5"/>
<text text-anchor="middle" x="854.5" y="-340.5" font-family="Helvetica,sans-Serif" font-size="10.00">Log::err</text>
</a>
</g>
</g>
<!-- Node19&#45;&gt;Node21 -->
<g id="edge21" class="edge">
<title>Node19&#45;&gt;Node21</title>
<path fill="none" stroke="midnightblue" d="M718.91,-276.51C732.86,-283.94 752.7,-294.56 770,-304 786.07,-312.77 789.47,-316.14 806,-324 809.88,-325.84 813.99,-327.67 818.1,-329.42"/>
<polygon fill="midnightblue" stroke="midnightblue" points="817.03,-332.76 827.61,-333.33 819.69,-326.29 817.03,-332.76"/>
</g>
<!-- Node22 -->
<g id="node22" class="node">
<title>Node22</title>
<g id="a_node22"><a xlink:href="utils_8h.html#aa0a3ba0e1cec6f6b77334767af46eef7" target="_top" xlink:title="Check if the string is an unsigned integer.">
<polygon fill="white" stroke="black" points="832,-295.5 832,-314.5 877,-314.5 877,-295.5 832,-295.5"/>
<text text-anchor="middle" x="854.5" y="-302.5" font-family="Helvetica,sans-Serif" font-size="10.00">isUInt</text>
</a>
</g>
</g>
<!-- Node19&#45;&gt;Node22 -->
<g id="edge23" class="edge">
<title>Node19&#45;&gt;Node22</title>
<path fill="none" stroke="midnightblue" d="M739.48,-276.59C765,-282.95 798.07,-291.19 822.02,-297.15"/>
<polygon fill="midnightblue" stroke="midnightblue" points="821.44,-300.62 831.99,-299.64 823.14,-293.83 821.44,-300.62"/>
</g>
<!-- Node23 -->
<g id="node23" class="node">
<title>Node23</title>
<g id="a_node23"><a xlink:href="class_type___track.html#ab510214767b1b4d71e3beadecb814bb7" target="_top" xlink:title=" ">
<polygon fill="white" stroke="black" points="807,-257.5 807,-276.5 902,-276.5 902,-257.5 807,-257.5"/>
<text text-anchor="middle" x="854.5" y="-264.5" font-family="Helvetica,sans-Serif" font-size="10.00">Type_Track::size</text>
</a>
</g>
</g>
<!-- Node19&#45;&gt;Node23 -->
<g id="edge24" class="edge">
<title>Node19&#45;&gt;Node23</title>
<path fill="none" stroke="midnightblue" d="M765.23,-267C775.73,-267 786.55,-267 796.85,-267"/>
<polygon fill="midnightblue" stroke="midnightblue" points="796.95,-270.5 806.95,-267 796.95,-263.5 796.95,-270.5"/>
</g>
<!-- Node28&#45;&gt;Node13 -->
<g id="edge31" class="edge">
<title>Node28&#45;&gt;Node13</title>
<path fill="none" stroke="midnightblue" d="M417.09,-276C444.5,-276 479.94,-276 506.32,-276"/>
<polygon fill="midnightblue" stroke="midnightblue" points="506.66,-279.5 516.66,-276 506.66,-272.5 506.66,-279.5"/>
</g>
<!-- Node33 -->
<g id="node33" class="node">
<title>Node33</title>
<g id="a_node33"><a xlink:href="functions_8h.html#ac9dc58cb94b7547813c3a35154d97d18" target="_top" xlink:title=" ">
<polygon fill="white" stroke="black" points="505,-76.5 505,-95.5 584,-95.5 584,-76.5 505,-76.5"/>
<text text-anchor="middle" x="544.5" y="-83.5" font-family="Helvetica,sans-Serif" font-size="10.00">isFuncNoEnd</text>
</a>
</g>
</g>
<!-- Node32&#45;&gt;Node33 -->
<g id="edge36" class="edge">
<title>Node32&#45;&gt;Node33</title>
<path fill="none" stroke="midnightblue" d="M417.09,-86C440.63,-86 470.08,-86 494.64,-86"/>
<polygon fill="midnightblue" stroke="midnightblue" points="494.83,-89.5 504.83,-86 494.83,-82.5 494.83,-89.5"/>
</g>
<!-- Node34 -->
<g id="node34" class="node">
<title>Node34</title>
<g id="a_node34"><a xlink:href="utils_8h.html#af11c7cca5b9ad860da4bdb556dce3234" target="_top" xlink:title=" ">
<polygon fill="white" stroke="black" points="671,-76.5 671,-95.5 729,-95.5 729,-76.5 671,-76.5"/>
<text text-anchor="middle" x="700" y="-83.5" font-family="Helvetica,sans-Serif" font-size="10.00">contains</text>
</a>
</g>
</g>
<!-- Node33&#45;&gt;Node34 -->
<g id="edge37" class="edge">
<title>Node33&#45;&gt;Node34</title>
<path fill="none" stroke="midnightblue" d="M584.23,-86C607.65,-86 637.38,-86 660.71,-86"/>
<polygon fill="midnightblue" stroke="midnightblue" points="660.94,-89.5 670.94,-86 660.93,-82.5 660.94,-89.5"/>
</g>
<!-- Node35&#45;&gt;Node7 -->
<g id="edge39" class="edge">
<title>Node35&#45;&gt;Node7</title>
<path fill="none" stroke="midnightblue" d="M745.11,-460.54C767.18,-465.32 793.66,-471.05 814.91,-475.65"/>
<polygon fill="midnightblue" stroke="midnightblue" points="814.37,-479.11 824.89,-477.81 815.86,-472.27 814.37,-479.11"/>
</g>
<!-- Node37 -->
<g id="node37" class="node">
<title>Node37</title>
<g id="a_node37"><a xlink:href="utils_8h.html#aaaee605fe46abaa420448438d89b22ed" target="_top" xlink:title=" ">
<polygon fill="white" stroke="black" points="514.5,-38.5 514.5,-57.5 574.5,-57.5 574.5,-38.5 514.5,-38.5"/>
<text text-anchor="middle" x="544.5" y="-45.5" font-family="Helvetica,sans-Serif" font-size="10.00">isQuoted</text>
</a>
</g>
</g>
<!-- Node36&#45;&gt;Node37 -->
<g id="edge41" class="edge">
<title>Node36&#45;&gt;Node37</title>
<path fill="none" stroke="midnightblue" d="M415.79,-48C442.7,-48 477.76,-48 504.34,-48"/>
<polygon fill="midnightblue" stroke="midnightblue" points="504.43,-51.5 514.43,-48 504.43,-44.5 504.43,-51.5"/>
</g>
<!-- Node40 -->
<g id="node40" class="node">
<title>Node40</title>
<g id="a_node40"><a xlink:href="class_type.html#a5b8adffb334040c53940ecf814ebcc65" target="_top" xlink:title=" ">
<polygon fill="white" stroke="black" points="497,-570.5 497,-589.5 592,-589.5 592,-570.5 497,-570.5"/>
<text text-anchor="middle" x="544.5" y="-577.5" font-family="Helvetica,sans-Serif" font-size="10.00">Type::_getString</text>
</a>
</g>
</g>
<!-- Node39&#45;&gt;Node40 -->
<g id="edge44" class="edge">
<title>Node39&#45;&gt;Node40</title>
<path fill="none" stroke="midnightblue" d="M410.73,-609.94C434.21,-604.65 465.3,-597.64 491.49,-591.73"/>
<polygon fill="midnightblue" stroke="midnightblue" points="492.28,-595.14 501.27,-589.52 490.74,-588.31 492.28,-595.14"/>
</g>
<!-- Node41 -->
<g id="node41" class="node">
<title>Node41</title>
<g id="a_node41"><a xlink:href="class_type.html#a836b463aa4740a234e0d304ed4cd958f" target="_top" xlink:title=" ">
<polygon fill="white" stroke="black" points="495,-532.5 495,-551.5 594,-551.5 594,-532.5 495,-532.5"/>
<text text-anchor="middle" x="544.5" y="-539.5" font-family="Helvetica,sans-Serif" font-size="10.00">Type::isUnknown</text>
</a>
</g>
</g>
<!-- Node39&#45;&gt;Node41 -->
<g id="edge45" class="edge">
<title>Node39&#45;&gt;Node41</title>
<path fill="none" stroke="midnightblue" d="M410.6,-614.66C426.23,-612.04 444.32,-607.36 459,-599 479.22,-587.49 475.71,-574 495,-561 497.74,-559.16 500.68,-557.45 503.71,-555.88"/>
<polygon fill="midnightblue" stroke="midnightblue" points="505.37,-558.97 512.97,-551.59 502.43,-552.62 505.37,-558.97"/>
</g>
</g>
</svg>
