<?xml version="1.0" encoding="UTF-8" standalone="no"?>
<!DOCTYPE svg PUBLIC "-//W3C//DTD SVG 1.1//EN"
 "http://www.w3.org/Graphics/SVG/1.1/DTD/svg11.dtd">
<!-- Generated by graphviz version 2.43.0 (0)
 -->
<!-- Title: Export Pages: 1 -->
<svg width="284pt" height="95pt"
 viewBox="0.00 0.00 283.50 95.00" xmlns="http://www.w3.org/2000/svg" xmlns:xlink="http://www.w3.org/1999/xlink">
<g id="graph0" class="graph" transform="scale(1 1) rotate(0) translate(4 91)">
<title>Export</title>
<polygon fill="white" stroke="transparent" points="-4,4 -4,-91 279.5,-91 279.5,4 -4,4"/>
<!-- Node1 -->
<g id="node1" class="node">
<title>Node1</title>
<g id="a_node1"><a xlink:title=" ">
<polygon fill="#bfbfbf" stroke="black" points="105,-0.5 105,-19.5 153,-19.5 153,-0.5 105,-0.5"/>
<text text-anchor="middle" x="129" y="-7.5" font-family="Helvetica,sans-Serif" font-size="10.00">Export</text>
</a>
</g>
</g>
<!-- Node2 -->
<g id="node2" class="node">
<title>Node2</title>
<g id="a_node2"><a xlink:href="struct_c_l_i___options.html" target="_top" xlink:title="Command line options.">
<polygon fill="white" stroke="black" points="0,-67.5 0,-86.5 74,-86.5 74,-67.5 0,-67.5"/>
<text text-anchor="middle" x="37" y="-74.5" font-family="Helvetica,sans-Serif" font-size="10.00">CLI_Options</text>
</a>
</g>
</g>
<!-- Node2&#45;&gt;Node1 -->
<g id="edge1" class="edge">
<title>Node2&#45;&gt;Node1</title>
<path fill="none" stroke="#9a32cd" stroke-dasharray="5,2" d="M57.64,-61.42C75.82,-48.57 101.71,-30.28 116.79,-19.63"/>
<polygon fill="#9a32cd" stroke="#9a32cd" points="55.56,-58.6 49.41,-67.23 59.59,-64.32 55.56,-58.6"/>
<text text-anchor="middle" x="101.5" y="-41" font-family="Helvetica,sans-Serif" font-size="10.00"> _opt</text>
</g>
<!-- Node3 -->
<g id="node3" class="node">
<title>Node3</title>
<g id="a_node3"><a xlink:href="struct_shared___info.html" target="_top" xlink:title=" ">
<polygon fill="white" stroke="black" points="92,-67.5 92,-86.5 166,-86.5 166,-67.5 92,-67.5"/>
<text text-anchor="middle" x="129" y="-74.5" font-family="Helvetica,sans-Serif" font-size="10.00">Shared_Info</text>
</a>
</g>
</g>
<!-- Node3&#45;&gt;Node1 -->
<g id="edge2" class="edge">
<title>Node3&#45;&gt;Node1</title>
<path fill="none" stroke="#9a32cd" stroke-dasharray="5,2" d="M129,-57.04C129,-44.67 129,-29.12 129,-19.63"/>
<polygon fill="#9a32cd" stroke="#9a32cd" points="125.5,-57.23 129,-67.23 132.5,-57.23 125.5,-57.23"/>
<text text-anchor="middle" x="148" y="-41" font-family="Helvetica,sans-Serif" font-size="10.00"> _s_info</text>
</g>
<!-- Node4 -->
<g id="node4" class="node">
<title>Node4</title>
<g id="a_node4"><a xlink:href="class_channel___graph.html" target="_top" xlink:title=" ">
<polygon fill="white" stroke="black" points="184.5,-67.5 184.5,-86.5 275.5,-86.5 275.5,-67.5 184.5,-67.5"/>
<text text-anchor="middle" x="230" y="-74.5" font-family="Helvetica,sans-Serif" font-size="10.00">Channel_Graph</text>
</a>
</g>
</g>
<!-- Node4&#45;&gt;Node1 -->
<g id="edge3" class="edge">
<title>Node4&#45;&gt;Node1</title>
<path fill="none" stroke="#9a32cd" stroke-dasharray="5,2" d="M207.8,-61.7C196.74,-54.57 183.17,-45.83 171,-38 161.38,-31.81 150.51,-24.82 142.24,-19.51"/>
<polygon fill="#9a32cd" stroke="#9a32cd" points="206.11,-64.77 216.41,-67.24 209.9,-58.88 206.11,-64.77"/>
<text text-anchor="middle" x="227" y="-41" font-family="Helvetica,sans-Serif" font-size="10.00"> _channel_graph</text>
</g>
</g>
</svg>
