<?xml version="1.0" encoding="UTF-8" standalone="no"?>
<!DOCTYPE svg PUBLIC "-//W3C//DTD SVG 1.1//EN"
 "http://www.w3.org/Graphics/SVG/1.1/DTD/svg11.dtd">
<!-- Generated by graphviz version 2.43.0 (0)
 -->
<!-- Title: Export::_setCascadedChannel Pages: 1 -->
<svg width="642pt" height="218pt"
 viewBox="0.00 0.00 642.00 218.00" xmlns="http://www.w3.org/2000/svg" xmlns:xlink="http://www.w3.org/1999/xlink">
<g id="graph0" class="graph" transform="scale(1 1) rotate(0) translate(4 214)">
<title>Export::_setCascadedChannel</title>
<polygon fill="white" stroke="transparent" points="-4,4 -4,-214 638,-214 638,4 -4,4"/>
<!-- Node1 -->
<g id="node1" class="node">
<title>Node1</title>
<g id="a_node1"><a xlink:title=" ">
<polygon fill="#bfbfbf" stroke="black" points="0,-95.5 0,-114.5 161,-114.5 161,-95.5 0,-95.5"/>
<text text-anchor="middle" x="80.5" y="-102.5" font-family="Helvetica,sans-Serif" font-size="10.00">Export::_setCascadedChannel</text>
</a>
</g>
</g>
<!-- Node2 -->
<g id="node2" class="node">
<title>Node2</title>
<g id="a_node2"><a xlink:href="class_export.html#a33b5d571af76c0d4f9b9ee6e72afd8a6" target="_top" xlink:title=" ">
<polygon fill="white" stroke="black" points="222,-190.5 222,-209.5 327,-209.5 327,-190.5 222,-190.5"/>
<text text-anchor="middle" x="274.5" y="-197.5" font-family="Helvetica,sans-Serif" font-size="10.00">Export::_preCheck</text>
</a>
</g>
</g>
<!-- Node1&#45;&gt;Node2 -->
<g id="edge1" class="edge">
<title>Node1&#45;&gt;Node2</title>
<path fill="none" stroke="midnightblue" d="M93.19,-114.66C113.21,-130.74 155.88,-163 197,-181 202.68,-183.49 208.74,-185.69 214.87,-187.62"/>
<polygon fill="midnightblue" stroke="midnightblue" points="213.94,-191 224.52,-190.46 215.91,-184.28 213.94,-191"/>
</g>
<!-- Node4 -->
<g id="node4" class="node">
<title>Node4</title>
<g id="a_node4"><a xlink:href="class_channel___graph.html#a1d5672c3f2f82748ae7ca25d38cdeffd" target="_top" xlink:title="Add channel from configuration to the channel graph.">
<polygon fill="white" stroke="black" points="197,-152.5 197,-171.5 352,-171.5 352,-152.5 197,-152.5"/>
<text text-anchor="middle" x="274.5" y="-159.5" font-family="Helvetica,sans-Serif" font-size="10.00">Channel_Graph::addChannel</text>
</a>
</g>
</g>
<!-- Node1&#45;&gt;Node4 -->
<g id="edge3" class="edge">
<title>Node1&#45;&gt;Node4</title>
<path fill="none" stroke="midnightblue" d="M113.64,-114.54C146.03,-124.16 196.19,-139.05 231.67,-149.58"/>
<polygon fill="midnightblue" stroke="midnightblue" points="230.68,-152.94 241.26,-152.43 232.67,-146.23 230.68,-152.94"/>
</g>
<!-- Node5 -->
<g id="node5" class="node">
<title>Node5</title>
<g id="a_node5"><a xlink:href="class_log.html#add7e611cd3267d3fd5dae017e3aeef67" target="_top" xlink:title="Write infomation to the log file.">
<polygon fill="white" stroke="black" points="434.5,-114.5 434.5,-133.5 493.5,-133.5 493.5,-114.5 434.5,-114.5"/>
<text text-anchor="middle" x="464" y="-121.5" font-family="Helvetica,sans-Serif" font-size="10.00">Log::info</text>
</a>
</g>
</g>
<!-- Node1&#45;&gt;Node5 -->
<g id="edge12" class="edge">
<title>Node1&#45;&gt;Node5</title>
<path fill="none" stroke="midnightblue" d="M161.01,-108.96C241.52,-112.97 362.66,-119 424.18,-122.07"/>
<polygon fill="midnightblue" stroke="midnightblue" points="424.08,-125.57 434.24,-122.57 424.43,-118.57 424.08,-125.57"/>
</g>
<!-- Node7 -->
<g id="node7" class="node">
<title>Node7</title>
<g id="a_node7"><a xlink:href="class_channel___graph.html#ac8aeff35f809d61816b2e1fadde523bf" target="_top" xlink:title=" ">
<polygon fill="white" stroke="black" points="207.5,-76.5 207.5,-95.5 341.5,-95.5 341.5,-76.5 207.5,-76.5"/>
<text text-anchor="middle" x="274.5" y="-83.5" font-family="Helvetica,sans-Serif" font-size="10.00">Channel_Graph::arrange</text>
</a>
</g>
</g>
<!-- Node1&#45;&gt;Node7 -->
<g id="edge6" class="edge">
<title>Node1&#45;&gt;Node7</title>
<path fill="none" stroke="midnightblue" d="M161.26,-97.11C173.13,-95.93 185.35,-94.72 197.15,-93.56"/>
<polygon fill="midnightblue" stroke="midnightblue" points="197.79,-97.01 207.39,-92.54 197.1,-90.04 197.79,-97.01"/>
</g>
<!-- Node11 -->
<g id="node11" class="node">
<title>Node11</title>
<g id="a_node11"><a xlink:href="class_channel___graph.html#a6b7627957e70f8d68f488a903e08f966" target="_top" xlink:title=" ">
<polygon fill="white" stroke="black" points="201,-38.5 201,-57.5 348,-57.5 348,-38.5 201,-38.5"/>
<text text-anchor="middle" x="274.5" y="-45.5" font-family="Helvetica,sans-Serif" font-size="10.00">Channel_Graph::pathsNum</text>
</a>
</g>
</g>
<!-- Node1&#45;&gt;Node11 -->
<g id="edge13" class="edge">
<title>Node1&#45;&gt;Node11</title>
<path fill="none" stroke="midnightblue" d="M108.86,-95.36C132.15,-87.31 166.57,-75.77 197,-67 205.22,-64.63 213.99,-62.28 222.55,-60.09"/>
<polygon fill="midnightblue" stroke="midnightblue" points="223.62,-63.43 232.46,-57.6 221.91,-56.65 223.62,-63.43"/>
</g>
<!-- Node12 -->
<g id="node12" class="node">
<title>Node12</title>
<g id="a_node12"><a xlink:href="namespacemmce.html#ad4a160832ef9fad47c531ece39752208" target="_top" xlink:title="Change a number to string.">
<polygon fill="white" stroke="black" points="226.5,-0.5 226.5,-19.5 322.5,-19.5 322.5,-0.5 226.5,-0.5"/>
<text text-anchor="middle" x="274.5" y="-7.5" font-family="Helvetica,sans-Serif" font-size="10.00">mmce::to_string</text>
</a>
</g>
</g>
<!-- Node1&#45;&gt;Node12 -->
<g id="edge14" class="edge">
<title>Node1&#45;&gt;Node12</title>
<path fill="none" stroke="midnightblue" d="M93.19,-95.34C113.21,-79.26 155.88,-47 197,-29 203.15,-26.31 209.75,-23.95 216.4,-21.9"/>
<polygon fill="midnightblue" stroke="midnightblue" points="217.49,-25.22 226.14,-19.1 215.57,-18.5 217.49,-25.22"/>
</g>
<!-- Node3 -->
<g id="node3" class="node">
<title>Node3</title>
<g id="a_node3"><a xlink:href="error__code_8h.html#ae1bfa02e1106eff84ddecb9f7773a1a4" target="_top" xlink:title="Return the error message of the error code from class Err.">
<polygon fill="white" stroke="black" points="434,-190.5 434,-209.5 494,-209.5 494,-190.5 434,-190.5"/>
<text text-anchor="middle" x="464" y="-197.5" font-family="Helvetica,sans-Serif" font-size="10.00">errorMsg</text>
</a>
</g>
</g>
<!-- Node2&#45;&gt;Node3 -->
<g id="edge2" class="edge">
<title>Node2&#45;&gt;Node3</title>
<path fill="none" stroke="midnightblue" d="M327.23,-200C357.7,-200 395.64,-200 423.66,-200"/>
<polygon fill="midnightblue" stroke="midnightblue" points="423.87,-203.5 433.87,-200 423.87,-196.5 423.87,-203.5"/>
</g>
<!-- Node4&#45;&gt;Node5 -->
<g id="edge4" class="edge">
<title>Node4&#45;&gt;Node5</title>
<path fill="none" stroke="midnightblue" d="M322.81,-152.41C354.26,-146.04 395.02,-137.78 424.48,-131.81"/>
<polygon fill="midnightblue" stroke="midnightblue" points="425.29,-135.21 434.4,-129.8 423.9,-128.35 425.29,-135.21"/>
</g>
<!-- Node6 -->
<g id="node6" class="node">
<title>Node6</title>
<g id="a_node6"><a xlink:href="class_channel___graph.html#a1e00fd8527dbc9d1da191e507dbd090d" target="_top" xlink:title=" ">
<polygon fill="white" stroke="black" points="390,-152.5 390,-171.5 538,-171.5 538,-152.5 390,-152.5"/>
<text text-anchor="middle" x="464" y="-159.5" font-family="Helvetica,sans-Serif" font-size="10.00">Channel_Graph::nodeIndex</text>
</a>
</g>
</g>
<!-- Node4&#45;&gt;Node6 -->
<g id="edge5" class="edge">
<title>Node4&#45;&gt;Node6</title>
<path fill="none" stroke="midnightblue" d="M352.03,-162C361.08,-162 370.35,-162 379.49,-162"/>
<polygon fill="midnightblue" stroke="midnightblue" points="379.74,-165.5 389.74,-162 379.74,-158.5 379.74,-165.5"/>
</g>
<!-- Node7&#45;&gt;Node5 -->
<g id="edge11" class="edge">
<title>Node7&#45;&gt;Node5</title>
<path fill="none" stroke="midnightblue" d="M322.81,-95.59C354.26,-101.96 395.02,-110.22 424.48,-116.19"/>
<polygon fill="midnightblue" stroke="midnightblue" points="423.9,-119.65 434.4,-118.2 425.29,-112.79 423.9,-119.65"/>
</g>
<!-- Node8 -->
<g id="node8" class="node">
<title>Node8</title>
<g id="a_node8"><a xlink:href="class_channel___graph.html#aee6312375a301acbc05862e28b86dedb" target="_top" xlink:title="Form paths based on the current frontier.">
<polygon fill="white" stroke="black" points="388,-20.5 388,-39.5 540,-39.5 540,-20.5 388,-20.5"/>
<text text-anchor="middle" x="464" y="-27.5" font-family="Helvetica,sans-Serif" font-size="10.00">Channel_Graph::_formPaths</text>
</a>
</g>
</g>
<!-- Node7&#45;&gt;Node8 -->
<g id="edge7" class="edge">
<title>Node7&#45;&gt;Node8</title>
<path fill="none" stroke="midnightblue" d="M316.55,-76.43C328.07,-73.58 340.57,-70.32 352,-67 377.09,-59.71 404.99,-50.41 426.54,-42.95"/>
<polygon fill="midnightblue" stroke="midnightblue" points="427.98,-46.16 436.27,-39.56 425.67,-39.55 427.98,-46.16"/>
</g>
<!-- Node10 -->
<g id="node10" class="node">
<title>Node10</title>
<g id="a_node10"><a xlink:href="class_log.html#ac7147942832455398ad289b706a02616" target="_top" xlink:title="Write error message to the log file.">
<polygon fill="white" stroke="black" points="437.5,-76.5 437.5,-95.5 490.5,-95.5 490.5,-76.5 437.5,-76.5"/>
<text text-anchor="middle" x="464" y="-83.5" font-family="Helvetica,sans-Serif" font-size="10.00">Log::err</text>
</a>
</g>
</g>
<!-- Node7&#45;&gt;Node10 -->
<g id="edge10" class="edge">
<title>Node7&#45;&gt;Node10</title>
<path fill="none" stroke="midnightblue" d="M341.61,-86C370.44,-86 403.12,-86 427.29,-86"/>
<polygon fill="midnightblue" stroke="midnightblue" points="427.43,-89.5 437.43,-86 427.43,-82.5 427.43,-89.5"/>
</g>
<!-- Node8&#45;&gt;Node8 -->
<g id="edge8" class="edge">
<title>Node8&#45;&gt;Node8</title>
<path fill="none" stroke="midnightblue" d="M442.42,-39.76C431.92,-48.57 439.12,-58 464,-58 479.94,-58 488.62,-54.13 490.04,-49.03"/>
<polygon fill="midnightblue" stroke="midnightblue" points="493.07,-47.25 485.58,-39.76 486.76,-50.29 493.07,-47.25"/>
</g>
<!-- Node9 -->
<g id="node9" class="node">
<title>Node9</title>
<g id="a_node9"><a xlink:href="utils_8h.html#af11c7cca5b9ad860da4bdb556dce3234" target="_top" xlink:title=" ">
<polygon fill="white" stroke="black" points="576,-20.5 576,-39.5 634,-39.5 634,-20.5 576,-20.5"/>
<text text-anchor="middle" x="605" y="-27.5" font-family="Helvetica,sans-Serif" font-size="10.00">contains</text>
</a>
</g>
</g>
<!-- Node8&#45;&gt;Node9 -->
<g id="edge9" class="edge">
<title>Node8&#45;&gt;Node9</title>
<path fill="none" stroke="midnightblue" d="M540.2,-30C549,-30 557.69,-30 565.68,-30"/>
<polygon fill="midnightblue" stroke="midnightblue" points="565.73,-33.5 575.73,-30 565.73,-26.5 565.73,-33.5"/>
</g>
</g>
</svg>
