<?xml version="1.0" encoding="UTF-8" standalone="no"?>
<!DOCTYPE svg PUBLIC "-//W3C//DTD SVG 1.1//EN"
 "http://www.w3.org/Graphics/SVG/1.1/DTD/svg11.dtd">
<!-- Generated by graphviz version 2.43.0 (0)
 -->
<!-- Title: Alg Pages: 1 -->
<svg width="76pt" height="184pt"
 viewBox="0.00 0.00 75.50 184.00" xmlns="http://www.w3.org/2000/svg" xmlns:xlink="http://www.w3.org/1999/xlink">
<g id="graph0" class="graph" transform="scale(1 1) rotate(0) translate(4 180)">
<title>Alg</title>
<polygon fill="white" stroke="transparent" points="-4,4 -4,-180 71.5,-180 71.5,4 -4,4"/>
<!-- Node1 -->
<g id="node1" class="node">
<title>Node1</title>
<g id="a_node1"><a xlink:title=" ">
<polygon fill="#bfbfbf" stroke="black" points="11.5,-0.5 11.5,-19.5 43.5,-19.5 43.5,-0.5 11.5,-0.5"/>
<text text-anchor="middle" x="27.5" y="-7.5" font-family="Helvetica,sans-Serif" font-size="10.00">Alg</text>
</a>
</g>
</g>
<!-- Node2 -->
<g id="node2" class="node">
<title>Node2</title>
<g id="a_node2"><a xlink:href="struct_macro.html" target="_top" xlink:title=" ">
<polygon fill="white" stroke="black" points="4,-67.5 4,-86.5 51,-86.5 51,-67.5 4,-67.5"/>
<text text-anchor="middle" x="27.5" y="-74.5" font-family="Helvetica,sans-Serif" font-size="10.00">Macro</text>
</a>
</g>
</g>
<!-- Node2&#45;&gt;Node1 -->
<g id="edge1" class="edge">
<title>Node2&#45;&gt;Node1</title>
<path fill="none" stroke="#9a32cd" stroke-dasharray="5,2" d="M27.5,-57.04C27.5,-44.67 27.5,-29.12 27.5,-19.63"/>
<polygon fill="#9a32cd" stroke="#9a32cd" points="24,-57.23 27.5,-67.23 31,-57.23 24,-57.23"/>
<text text-anchor="middle" x="47.5" y="-41" font-family="Helvetica,sans-Serif" font-size="10.00"> _macro</text>
</g>
<!-- Node3 -->
<g id="node3" class="node">
<title>Node3</title>
<g id="a_node3"><a xlink:href="struct_x_y___size.html" target="_top" xlink:title=" ">
<polygon fill="white" stroke="black" points="0,-156.5 0,-175.5 55,-175.5 55,-156.5 0,-156.5"/>
<text text-anchor="middle" x="27.5" y="-163.5" font-family="Helvetica,sans-Serif" font-size="10.00">XY_Size</text>
</a>
</g>
</g>
<!-- Node3&#45;&gt;Node2 -->
<g id="edge2" class="edge">
<title>Node3&#45;&gt;Node2</title>
<path fill="none" stroke="#9a32cd" stroke-dasharray="5,2" d="M27.5,-146.19C27.5,-127.74 27.5,-100.41 27.5,-86.62"/>
<polygon fill="#9a32cd" stroke="#9a32cd" points="24,-146.34 27.5,-156.34 31,-146.34 24,-146.34"/>
<text text-anchor="middle" x="35.5" y="-130" font-family="Helvetica,sans-Serif" font-size="10.00"> _B</text>
<text text-anchor="middle" x="35.5" y="-119" font-family="Helvetica,sans-Serif" font-size="10.00">_G</text>
<text text-anchor="middle" x="35.5" y="-108" font-family="Helvetica,sans-Serif" font-size="10.00">_N</text>
</g>
</g>
</svg>
