<?xml version="1.0" encoding="UTF-8" standalone="no"?>
<!DOCTYPE svg PUBLIC "-//W3C//DTD SVG 1.1//EN"
 "http://www.w3.org/Graphics/SVG/1.1/DTD/svg11.dtd">
<!-- Generated by graphviz version 2.43.0 (0)
 -->
<!-- Title: Term::error Pages: 1 -->
<!--zoomable 484 -->
<svg id="main" version="1.1" xmlns="http://www.w3.org/2000/svg" xmlns:xlink="http://www.w3.org/1999/xlink" xml:space="preserve" onload="init(evt)">
<style type="text/css"><![CDATA[
.edge:hover path { stroke: red; }
.edge:hover polygon { stroke: red; fill: red; }
]]></style>
<script type="text/javascript"><![CDATA[
var edges = document.getElementsByTagName('g');
if (edges && edges.length) {
  for (var i=0;i<edges.length;i++) {
    if (edges[i].id.substr(0,4)=='edge') {
      edges[i].setAttribute('class','edge');
    }
  }
}
]]></script>
        <defs>
                <circle id="rim" cx="0" cy="0" r="7"/>
                <circle id="rim2" cx="0" cy="0" r="3.5"/>
                <g id="zoomPlus">
                        <use xlink:href="#rim" fill="#404040">
                                <set attributeName="fill" to="#808080" begin="zoomplus.mouseover" end="zoomplus.mouseout"/>
                        </use>
                        <path d="M-4,0h8M0,-4v8" fill="none" stroke="white" stroke-width="1.5" pointer-events="none"/>
                </g>
                <g id="zoomMin">
                        <use xlink:href="#rim" fill="#404040">
                                <set attributeName="fill" to="#808080" begin="zoomminus.mouseover" end="zoomminus.mouseout"/>
                        </use>
                        <path d="M-4,0h8" fill="none" stroke="white" stroke-width="1.5" pointer-events="none"/>
                </g>
                <g id="dirArrow">
                        <path fill="none" stroke="white" stroke-width="1.5" d="M0,-3.0v7 M-2.5,-0.5L0,-3.0L2.5,-0.5"/>
                </g>
               <g id="resetDef">
                       <use xlink:href="#rim2" fill="#404040">
                               <set attributeName="fill" to="#808080" begin="reset.mouseover" end="reset.mouseout"/>
                       </use>
               </g>
        </defs>

<script type="text/javascript">
var viewWidth = 844;
var viewHeight = 484;
var sectionId = 'dynsection-4';
</script>
<script xlink:href="svgpan.js"/>
<svg id="graph" class="graph">
<g id="viewport">
<title>Term::error</title>
<polygon fill="white" stroke="transparent" points="-4,4 -4,-480 840,-480 840,4 -4,4"/>
<!-- Node1 -->
<g id="node1" class="node">
<title>Node1</title>
<g id="a_node1"><a xlink:title="Print error message.">
<polygon fill="#bfbfbf" stroke="black" points="766,-190.5 766,-209.5 836,-209.5 836,-190.5 766,-190.5"/>
<text text-anchor="middle" x="801" y="-197.5" font-family="Helvetica,sans-Serif" font-size="10.00">Term::error</text>
</a>
</g>
</g>
<!-- Node2 -->
<g id="node2" class="node">
<title>Node2</title>
<g id="a_node2"><a xlink:href="class_config.html#a2f8720e9953fb42b8304089c40fe896e" target="_top" xlink:title=" ">
<polygon fill="white" stroke="black" points="639,-417.5 639,-436.5 719,-436.5 719,-417.5 639,-417.5"/>
<text text-anchor="middle" x="679" y="-424.5" font-family="Helvetica,sans-Serif" font-size="10.00">Config::_load</text>
</a>
</g>
</g>
<!-- Node1&#45;&gt;Node2 -->
<g id="edge1" class="edge">
<title>Node1&#45;&gt;Node2</title>
<path fill="none" stroke="midnightblue" d="M794.32,-219.4C784.28,-252.04 761.45,-319.32 730,-370 718.62,-388.34 701.3,-406.58 690.32,-417.31"/>
<polygon fill="midnightblue" stroke="midnightblue" points="797.7,-220.32 797.23,-209.74 791,-218.31 797.7,-220.32"/>
</g>
<!-- Node4 -->
<g id="node4" class="node">
<title>Node4</title>
<g id="a_node4"><a xlink:href="error__code_8h.html#a9c6b4516abc67a835f41887633fe69e1" target="_top" xlink:title="Print error message and exit with exit code.">
<polygon fill="white" stroke="black" points="504.5,-228.5 504.5,-247.5 563.5,-247.5 563.5,-228.5 504.5,-228.5"/>
<text text-anchor="middle" x="534" y="-235.5" font-family="Helvetica,sans-Serif" font-size="10.00">errorExit</text>
</a>
</g>
</g>
<!-- Node1&#45;&gt;Node4 -->
<g id="edge3" class="edge">
<title>Node1&#45;&gt;Node4</title>
<path fill="none" stroke="midnightblue" d="M756.03,-209.32C747.42,-210.99 738.44,-212.64 730,-214 671.07,-223.51 601.58,-231.23 563.51,-235.17"/>
<polygon fill="midnightblue" stroke="midnightblue" points="756.79,-212.73 765.91,-207.35 755.42,-205.87 756.79,-212.73"/>
</g>
<!-- Node8 -->
<g id="node8" class="node">
<title>Node8</title>
<g id="a_node8"><a xlink:href="src_2main_8cpp.html#a0ddf1224851353fc92bfbff6f499fa97" target="_top" xlink:title=" ">
<polygon fill="white" stroke="black" points="34.5,-209.5 34.5,-228.5 75.5,-228.5 75.5,-209.5 34.5,-209.5"/>
<text text-anchor="middle" x="55" y="-216.5" font-family="Helvetica,sans-Serif" font-size="10.00">main</text>
</a>
</g>
</g>
<!-- Node1&#45;&gt;Node8 -->
<g id="edge9" class="edge">
<title>Node1&#45;&gt;Node8</title>
<path fill="none" stroke="midnightblue" d="M755.69,-200C703.07,-200 612.64,-200 535,-200 535,-200 535,-200 365,-200 255.62,-200 124.88,-212.01 75.86,-216.93"/>
<polygon fill="midnightblue" stroke="midnightblue" points="755.7,-203.5 765.7,-200 755.7,-196.5 755.7,-203.5"/>
</g>
<!-- Node9 -->
<g id="node9" class="node">
<title>Node9</title>
<g id="a_node9"><a xlink:href="class_config.html#a33247625b70e062fbd93ba91ae0c7d76" target="_top" xlink:title="Read the key.">
<polygon fill="white" stroke="black" points="628,-114.5 628,-133.5 730,-133.5 730,-114.5 628,-114.5"/>
<text text-anchor="middle" x="679" y="-121.5" font-family="Helvetica,sans-Serif" font-size="10.00">Config::operator[]</text>
</a>
</g>
</g>
<!-- Node1&#45;&gt;Node9 -->
<g id="edge10" class="edge">
<title>Node1&#45;&gt;Node9</title>
<path fill="none" stroke="midnightblue" d="M782.78,-183.32C769.28,-170.92 749.56,-154.28 730,-143 723.73,-139.38 716.63,-136.2 709.8,-133.53"/>
<polygon fill="midnightblue" stroke="midnightblue" points="780.64,-186.11 790.33,-190.4 785.43,-181 780.64,-186.11"/>
</g>
<!-- Node10 -->
<g id="node10" class="node">
<title>Node10</title>
<g id="a_node10"><a xlink:href="class_config.html#a568ec68975e8e9338356619ebfb6a4f8" target="_top" xlink:title="Set the key value.">
<polygon fill="white" stroke="black" points="645,-152.5 645,-171.5 713,-171.5 713,-152.5 645,-152.5"/>
<text text-anchor="middle" x="679" y="-159.5" font-family="Helvetica,sans-Serif" font-size="10.00">Config::set</text>
</a>
</g>
</g>
<!-- Node1&#45;&gt;Node10 -->
<g id="edge11" class="edge">
<title>Node1&#45;&gt;Node10</title>
<path fill="none" stroke="midnightblue" d="M759.96,-187.32C743.74,-182.19 725.33,-176.36 710.27,-171.59"/>
<polygon fill="midnightblue" stroke="midnightblue" points="759.13,-190.73 769.72,-190.41 761.24,-184.06 759.13,-190.73"/>
</g>
<!-- Node12 -->
<g id="node12" class="node">
<title>Node12</title>
<g id="a_node12"><a xlink:href="class_alg.html#ada1e8215f047b4ffd736e811b5ea3162" target="_top" xlink:title=" ">
<polygon fill="white" stroke="black" points="647.5,-323.5 647.5,-342.5 710.5,-342.5 710.5,-323.5 647.5,-323.5"/>
<text text-anchor="middle" x="679" y="-330.5" font-family="Helvetica,sans-Serif" font-size="10.00">Alg::write</text>
</a>
</g>
</g>
<!-- Node1&#45;&gt;Node12 -->
<g id="edge14" class="edge">
<title>Node1&#45;&gt;Node12</title>
<path fill="none" stroke="midnightblue" d="M784.61,-217.06C759.18,-245.25 709.17,-300.67 688.88,-323.16"/>
<polygon fill="midnightblue" stroke="midnightblue" points="787.27,-219.33 791.37,-209.57 782.07,-214.65 787.27,-219.33"/>
</g>
<!-- Node18 -->
<g id="node18" class="node">
<title>Node18</title>
<g id="a_node18"><a xlink:href="struct_x_y___size.html#a4a5192df22d9d6bc1793eabc6ae1ffa0" target="_top" xlink:title=" ">
<polygon fill="white" stroke="black" points="642.5,-76.5 642.5,-95.5 715.5,-95.5 715.5,-76.5 642.5,-76.5"/>
<text text-anchor="middle" x="679" y="-83.5" font-family="Helvetica,sans-Serif" font-size="10.00">XY_Size::xy</text>
</a>
</g>
</g>
<!-- Node1&#45;&gt;Node18 -->
<g id="edge26" class="edge">
<title>Node1&#45;&gt;Node18</title>
<path fill="none" stroke="midnightblue" d="M790.48,-181.22C778.86,-160.01 757.33,-125.75 730,-105 724.97,-101.18 719.09,-98.05 713.15,-95.51"/>
<polygon fill="midnightblue" stroke="midnightblue" points="787.47,-183.01 795.24,-190.21 793.65,-179.74 787.47,-183.01"/>
</g>
<!-- Node3 -->
<g id="node3" class="node">
<title>Node3</title>
<g id="a_node3"><a xlink:href="class_config.html#abd0c571c116924871e30444b192b792a" target="_top" xlink:title="Construct a new Config object.">
<polygon fill="white" stroke="black" points="492,-456.5 492,-475.5 576,-475.5 576,-456.5 492,-456.5"/>
<text text-anchor="middle" x="534" y="-463.5" font-family="Helvetica,sans-Serif" font-size="10.00">Config::Config</text>
</a>
</g>
</g>
<!-- Node2&#45;&gt;Node3 -->
<g id="edge2" class="edge">
<title>Node2&#45;&gt;Node3</title>
<path fill="none" stroke="midnightblue" d="M633.33,-439.18C612.95,-444.74 589.18,-451.22 570.12,-456.42"/>
<polygon fill="midnightblue" stroke="midnightblue" points="634.29,-442.55 643.02,-436.54 632.45,-435.8 634.29,-442.55"/>
</g>
<!-- Node5 -->
<g id="node5" class="node">
<title>Node5</title>
<g id="a_node5"><a xlink:href="class_export.html#ad7268f886ac4826f4b6ea738e423e520" target="_top" xlink:title=" ">
<polygon fill="white" stroke="black" points="292,-266.5 292,-285.5 440,-285.5 440,-266.5 292,-266.5"/>
<text text-anchor="middle" x="366" y="-273.5" font-family="Helvetica,sans-Serif" font-size="10.00">Export::_generateChannels</text>
</a>
</g>
</g>
<!-- Node4&#45;&gt;Node5 -->
<g id="edge4" class="edge">
<title>Node4&#45;&gt;Node5</title>
<path fill="none" stroke="midnightblue" d="M494.67,-246.77C468.9,-252.67 434.94,-260.45 408.52,-266.49"/>
<polygon fill="midnightblue" stroke="midnightblue" points="495.5,-250.18 504.46,-244.53 493.93,-243.35 495.5,-250.18"/>
</g>
<!-- Node4&#45;&gt;Node8 -->
<g id="edge8" class="edge">
<title>Node4&#45;&gt;Node8</title>
<path fill="none" stroke="midnightblue" d="M493.98,-236.45C396.95,-232.58 147.41,-222.64 75.6,-219.78"/>
<polygon fill="midnightblue" stroke="midnightblue" points="494.1,-239.95 504.24,-236.85 494.38,-232.96 494.1,-239.95"/>
</g>
<!-- Node6 -->
<g id="node6" class="node">
<title>Node6</title>
<g id="a_node6"><a xlink:href="class_export.html#affc37d1d677a83d3e5d36a4e37b7a72b" target="_top" xlink:title=" ">
<polygon fill="white" stroke="black" points="146,-266.5 146,-285.5 256,-285.5 256,-266.5 146,-266.5"/>
<text text-anchor="middle" x="201" y="-273.5" font-family="Helvetica,sans-Serif" font-size="10.00">Export::exportCode</text>
</a>
</g>
</g>
<!-- Node5&#45;&gt;Node6 -->
<g id="edge5" class="edge">
<title>Node5&#45;&gt;Node6</title>
<path fill="none" stroke="midnightblue" d="M281.59,-276C273.05,-276 264.54,-276 256.44,-276"/>
<polygon fill="midnightblue" stroke="midnightblue" points="281.61,-279.5 291.61,-276 281.61,-272.5 281.61,-279.5"/>
</g>
<!-- Node7 -->
<g id="node7" class="node">
<title>Node7</title>
<g id="a_node7"><a xlink:href="class_export.html#a94fab568af6ddd6447efca74e205e081" target="_top" xlink:title=" ">
<polygon fill="white" stroke="black" points="0,-266.5 0,-285.5 110,-285.5 110,-266.5 0,-266.5"/>
<text text-anchor="middle" x="55" y="-273.5" font-family="Helvetica,sans-Serif" font-size="10.00">Export::exportCode</text>
</a>
</g>
</g>
<!-- Node6&#45;&gt;Node7 -->
<g id="edge6" class="edge">
<title>Node6&#45;&gt;Node7</title>
<path fill="none" stroke="midnightblue" d="M135.73,-276C127.25,-276 118.62,-276 110.33,-276"/>
<polygon fill="midnightblue" stroke="midnightblue" points="135.97,-279.5 145.97,-276 135.97,-272.5 135.97,-279.5"/>
</g>
<!-- Node6&#45;&gt;Node8 -->
<g id="edge7" class="edge">
<title>Node6&#45;&gt;Node8</title>
<path fill="none" stroke="midnightblue" d="M166.43,-262.71C138.21,-251.54 98.86,-235.97 75.55,-226.74"/>
<polygon fill="midnightblue" stroke="midnightblue" points="165.31,-266.03 175.9,-266.46 167.89,-259.52 165.31,-266.03"/>
</g>
<!-- Node11 -->
<g id="node11" class="node">
<title>Node11</title>
<g id="a_node11"><a xlink:href="class_config.html#aaba73cd0c0ca87e1ecd654d2ffee5927" target="_top" xlink:title=" ">
<polygon fill="white" stroke="black" points="165,-152.5 165,-171.5 237,-171.5 237,-152.5 165,-152.5"/>
<text text-anchor="middle" x="201" y="-159.5" font-family="Helvetica,sans-Serif" font-size="10.00">Config::edit</text>
</a>
</g>
</g>
<!-- Node10&#45;&gt;Node11 -->
<g id="edge12" class="edge">
<title>Node10&#45;&gt;Node11</title>
<path fill="none" stroke="midnightblue" d="M634.68,-162C541.3,-162 322.59,-162 237.11,-162"/>
<polygon fill="midnightblue" stroke="midnightblue" points="634.91,-165.5 644.91,-162 634.91,-158.5 634.91,-165.5"/>
</g>
<!-- Node11&#45;&gt;Node8 -->
<g id="edge13" class="edge">
<title>Node11&#45;&gt;Node8</title>
<path fill="none" stroke="midnightblue" d="M166.43,-175.29C138.21,-186.46 98.86,-202.03 75.55,-211.26"/>
<polygon fill="midnightblue" stroke="midnightblue" points="167.89,-178.48 175.9,-171.54 165.31,-171.97 167.89,-178.48"/>
</g>
<!-- Node12&#45;&gt;Node12 -->
<g id="edge25" class="edge">
<title>Node12&#45;&gt;Node12</title>
<path fill="none" stroke="midnightblue" d="M701.69,-352.03C700.46,-357.13 692.89,-361 679,-361 657.32,-361 651.05,-351.57 660.2,-342.76"/>
<polygon fill="midnightblue" stroke="midnightblue" points="704.9,-350.62 697.8,-342.76 698.44,-353.33 704.9,-350.62"/>
</g>
<!-- Node13 -->
<g id="node13" class="node">
<title>Node13</title>
<g id="a_node13"><a xlink:href="class_export.html#a89d3ae54dd2261cf35be148011b79fe4" target="_top" xlink:title=" ">
<polygon fill="white" stroke="black" points="310,-380.5 310,-399.5 422,-399.5 422,-380.5 310,-380.5"/>
<text text-anchor="middle" x="366" y="-387.5" font-family="Helvetica,sans-Serif" font-size="10.00">Export::_algorithms</text>
</a>
</g>
</g>
<!-- Node12&#45;&gt;Node13 -->
<g id="edge15" class="edge">
<title>Node12&#45;&gt;Node13</title>
<path fill="none" stroke="midnightblue" d="M651.74,-347.34C635.11,-355.72 612.89,-365.66 592,-371 535.41,-385.46 468.47,-389.52 422.4,-390.4"/>
<polygon fill="midnightblue" stroke="midnightblue" points="653.55,-350.34 660.83,-342.64 650.34,-344.13 653.55,-350.34"/>
</g>
<!-- Node14 -->
<g id="node14" class="node">
<title>Node14</title>
<g id="a_node14"><a xlink:href="class_export.html#ae4811e1e4212029122c0ee29613714cc" target="_top" xlink:title=" ">
<polygon fill="white" stroke="black" points="478,-342.5 478,-361.5 590,-361.5 590,-342.5 478,-342.5"/>
<text text-anchor="middle" x="534" y="-349.5" font-family="Helvetica,sans-Serif" font-size="10.00">Export::_estimation</text>
</a>
</g>
</g>
<!-- Node12&#45;&gt;Node14 -->
<g id="edge17" class="edge">
<title>Node12&#45;&gt;Node14</title>
<path fill="none" stroke="midnightblue" d="M637.1,-338.43C622.48,-340.38 605.77,-342.6 590.15,-344.67"/>
<polygon fill="midnightblue" stroke="midnightblue" points="637.87,-341.86 647.32,-337.08 636.95,-334.92 637.87,-341.86"/>
</g>
<!-- Node15 -->
<g id="node15" class="node">
<title>Node15</title>
<g id="a_node15"><a xlink:href="class_export.html#a26fa49d9882a342d011ba715e0c14109" target="_top" xlink:title=" ">
<polygon fill="white" stroke="black" points="314,-304.5 314,-323.5 418,-323.5 418,-304.5 314,-304.5"/>
<text text-anchor="middle" x="366" y="-311.5" font-family="Helvetica,sans-Serif" font-size="10.00">Export::_sounding</text>
</a>
</g>
</g>
<!-- Node12&#45;&gt;Node15 -->
<g id="edge24" class="edge">
<title>Node12&#45;&gt;Node15</title>
<path fill="none" stroke="midnightblue" d="M652.82,-318.53C636.16,-309.81 613.49,-299.54 592,-295 526.6,-281.2 448.51,-294.21 403.64,-304.44"/>
<polygon fill="midnightblue" stroke="midnightblue" points="651.42,-321.75 661.88,-323.43 654.75,-315.59 651.42,-321.75"/>
</g>
<!-- Node16 -->
<g id="node16" class="node">
<title>Node16</title>
<g id="a_node16"><a xlink:href="class_export.html#a59ba705b2369f21006ec7d7b7f3a4513" target="_top" xlink:title="Generate RIS reflection matrices.">
<polygon fill="white" stroke="black" points="476,-304.5 476,-323.5 592,-323.5 592,-304.5 476,-304.5"/>
<text text-anchor="middle" x="534" y="-311.5" font-family="Helvetica,sans-Serif" font-size="10.00">Export::_generateBF</text>
</a>
</g>
</g>
<!-- Node12&#45;&gt;Node16 -->
<g id="edge20" class="edge">
<title>Node12&#45;&gt;Node16</title>
<path fill="none" stroke="midnightblue" d="M637.05,-327.56C623.08,-325.7 607.18,-323.59 592.16,-321.6"/>
<polygon fill="midnightblue" stroke="midnightblue" points="636.95,-331.08 647.32,-328.92 637.87,-324.14 636.95,-331.08"/>
</g>
<!-- Node17 -->
<g id="node17" class="node">
<title>Node17</title>
<g id="a_node17"><a xlink:href="class_export.html#a833aa02973f6b5c1f3e536e8646cf1ac" target="_top" xlink:title=" ">
<polygon fill="white" stroke="black" points="484,-418.5 484,-437.5 584,-437.5 584,-418.5 484,-418.5"/>
<text text-anchor="middle" x="534" y="-425.5" font-family="Helvetica,sans-Serif" font-size="10.00">Export::_loadALG</text>
</a>
</g>
</g>
<!-- Node12&#45;&gt;Node17 -->
<g id="edge22" class="edge">
<title>Node12&#45;&gt;Node17</title>
<path fill="none" stroke="midnightblue" d="M661.11,-349.5C644.55,-365.04 618.05,-388.23 592,-404 582.72,-409.62 571.89,-414.54 562.18,-418.44"/>
<polygon fill="midnightblue" stroke="midnightblue" points="663.58,-351.99 668.4,-342.55 658.75,-346.92 663.58,-351.99"/>
</g>
<!-- Node13&#45;&gt;Node6 -->
<g id="edge16" class="edge">
<title>Node13&#45;&gt;Node6</title>
<path fill="none" stroke="midnightblue" d="M343.02,-374.63C308.93,-350.79 244.28,-305.57 215.92,-285.74"/>
<polygon fill="midnightblue" stroke="midnightblue" points="341.18,-377.61 351.38,-380.48 345.19,-371.88 341.18,-377.61"/>
</g>
<!-- Node14&#45;&gt;Node15 -->
<g id="edge18" class="edge">
<title>Node14&#45;&gt;Node15</title>
<path fill="none" stroke="midnightblue" d="M481.35,-340.18C457.94,-334.82 430.64,-328.57 408.59,-323.52"/>
<polygon fill="midnightblue" stroke="midnightblue" points="480.58,-343.59 491.11,-342.41 482.14,-336.77 480.58,-343.59"/>
</g>
<!-- Node15&#45;&gt;Node6 -->
<g id="edge19" class="edge">
<title>Node15&#45;&gt;Node6</title>
<path fill="none" stroke="midnightblue" d="M313.97,-302.1C291.06,-296.76 264.4,-290.55 242.84,-285.52"/>
<polygon fill="midnightblue" stroke="midnightblue" points="313.33,-305.55 323.87,-304.41 314.92,-298.73 313.33,-305.55"/>
</g>
<!-- Node16&#45;&gt;Node15 -->
<g id="edge21" class="edge">
<title>Node16&#45;&gt;Node15</title>
<path fill="none" stroke="midnightblue" d="M465.6,-314C449.75,-314 433.11,-314 418.12,-314"/>
<polygon fill="midnightblue" stroke="midnightblue" points="465.87,-317.5 475.87,-314 465.87,-310.5 465.87,-317.5"/>
</g>
<!-- Node17&#45;&gt;Node13 -->
<g id="edge23" class="edge">
<title>Node17&#45;&gt;Node13</title>
<path fill="none" stroke="midnightblue" d="M481.35,-416.18C457.94,-410.82 430.64,-404.57 408.59,-399.52"/>
<polygon fill="midnightblue" stroke="midnightblue" points="480.58,-419.59 491.11,-418.41 482.14,-412.77 480.58,-419.59"/>
</g>
<!-- Node19 -->
<g id="node19" class="node">
<title>Node19</title>
<g id="a_node19"><a xlink:href="struct_macro.html#aee7d20953d25a4e783b8e897d78c4bf7" target="_top" xlink:title=" ">
<polygon fill="white" stroke="black" points="483.5,-76.5 483.5,-95.5 584.5,-95.5 584.5,-76.5 483.5,-76.5"/>
<text text-anchor="middle" x="534" y="-83.5" font-family="Helvetica,sans-Serif" font-size="10.00">Macro::replaceXY</text>
</a>
</g>
</g>
<!-- Node18&#45;&gt;Node19 -->
<g id="edge27" class="edge">
<title>Node18&#45;&gt;Node19</title>
<path fill="none" stroke="midnightblue" d="M632.1,-86C616.93,-86 599.98,-86 584.54,-86"/>
<polygon fill="midnightblue" stroke="midnightblue" points="632.28,-89.5 642.28,-86 632.28,-82.5 632.28,-89.5"/>
</g>
<!-- Node22 -->
<g id="node22" class="node">
<title>Node22</title>
<g id="a_node22"><a xlink:href="struct_x_y___size.html#a1044ad37af4e25277b6f7cda06052fc1" target="_top" xlink:title=" ">
<polygon fill="white" stroke="black" points="500.5,-38.5 500.5,-57.5 567.5,-57.5 567.5,-38.5 500.5,-38.5"/>
<text text-anchor="middle" x="534" y="-45.5" font-family="Helvetica,sans-Serif" font-size="10.00">XY_Size::x</text>
</a>
</g>
</g>
<!-- Node18&#45;&gt;Node22 -->
<g id="edge30" class="edge">
<title>Node18&#45;&gt;Node22</title>
<path fill="none" stroke="midnightblue" d="M632.59,-73.93C611.55,-68.34 587.02,-61.82 567.82,-56.72"/>
<polygon fill="midnightblue" stroke="midnightblue" points="631.72,-77.32 642.28,-76.51 633.52,-70.56 631.72,-77.32"/>
</g>
<!-- Node23 -->
<g id="node23" class="node">
<title>Node23</title>
<g id="a_node23"><a xlink:href="struct_x_y___size.html#a42f2c088d4a2090d3ddc884be3547d39" target="_top" xlink:title=" ">
<polygon fill="white" stroke="black" points="483,-0.5 483,-19.5 585,-19.5 585,-0.5 483,-0.5"/>
<text text-anchor="middle" x="534" y="-7.5" font-family="Helvetica,sans-Serif" font-size="10.00">XY_Size::x_mul_y</text>
</a>
</g>
</g>
<!-- Node18&#45;&gt;Node23 -->
<g id="edge31" class="edge">
<title>Node18&#45;&gt;Node23</title>
<path fill="none" stroke="midnightblue" d="M657.78,-70.37C640.91,-57.89 615.86,-40.63 592,-29 584.59,-25.39 576.33,-22.2 568.44,-19.51"/>
<polygon fill="midnightblue" stroke="midnightblue" points="655.71,-73.19 665.81,-76.41 659.92,-67.6 655.71,-73.19"/>
</g>
<!-- Node24 -->
<g id="node24" class="node">
<title>Node24</title>
<g id="a_node24"><a xlink:href="struct_x_y___size.html#a2db4fb0d73fbbafb70315253aa4171d4" target="_top" xlink:title=" ">
<polygon fill="white" stroke="black" points="500.5,-114.5 500.5,-133.5 567.5,-133.5 567.5,-114.5 500.5,-114.5"/>
<text text-anchor="middle" x="534" y="-121.5" font-family="Helvetica,sans-Serif" font-size="10.00">XY_Size::y</text>
</a>
</g>
</g>
<!-- Node18&#45;&gt;Node24 -->
<g id="edge32" class="edge">
<title>Node18&#45;&gt;Node24</title>
<path fill="none" stroke="midnightblue" d="M632.59,-98.07C611.55,-103.66 587.02,-110.18 567.82,-115.28"/>
<polygon fill="midnightblue" stroke="midnightblue" points="633.52,-101.44 642.28,-95.49 631.72,-94.68 633.52,-101.44"/>
</g>
<!-- Node20 -->
<g id="node20" class="node">
<title>Node20</title>
<g id="a_node20"><a xlink:href="struct_macro.html#ac0ddd588c300108ca443b10316d99877" target="_top" xlink:title=" ">
<polygon fill="white" stroke="black" points="306.5,-76.5 306.5,-95.5 425.5,-95.5 425.5,-76.5 306.5,-76.5"/>
<text text-anchor="middle" x="366" y="-83.5" font-family="Helvetica,sans-Serif" font-size="10.00">Macro::replaceMacro</text>
</a>
</g>
</g>
<!-- Node19&#45;&gt;Node20 -->
<g id="edge28" class="edge">
<title>Node19&#45;&gt;Node20</title>
<path fill="none" stroke="midnightblue" d="M473.19,-86C457.68,-86 440.99,-86 425.54,-86"/>
<polygon fill="midnightblue" stroke="midnightblue" points="473.19,-89.5 483.19,-86 473.19,-82.5 473.19,-89.5"/>
</g>
<!-- Node21 -->
<g id="node21" class="node">
<title>Node21</title>
<g id="a_node21"><a xlink:href="class_alg.html#a45e536cf797bba52c851877371ea64c5" target="_top" xlink:title=" ">
<polygon fill="white" stroke="black" points="174,-76.5 174,-95.5 228,-95.5 228,-76.5 174,-76.5"/>
<text text-anchor="middle" x="201" y="-83.5" font-family="Helvetica,sans-Serif" font-size="10.00">Alg::Alg</text>
</a>
</g>
</g>
<!-- Node20&#45;&gt;Node21 -->
<g id="edge29" class="edge">
<title>Node20&#45;&gt;Node21</title>
<path fill="none" stroke="midnightblue" d="M296.03,-86C272.14,-86 246.77,-86 228.42,-86"/>
<polygon fill="midnightblue" stroke="midnightblue" points="296.15,-89.5 306.15,-86 296.15,-82.5 296.15,-89.5"/>
</g>
</g>
</svg>
        <g id="navigator" transform="translate(0 0)" fill="#404254">
                <rect fill="#f2f5e9" fill-opacity="0.5" stroke="#606060" stroke-width=".5" x="0" y="0" width="60" height="60"/>
                <use id="zoomplus" xlink:href="#zoomPlus" x="17" y="9" onmousedown="handleZoom(evt,'in')"/>
                <use id="zoomminus" xlink:href="#zoomMin" x="42" y="9" onmousedown="handleZoom(evt,'out')"/>
                <use id="reset" xlink:href="#resetDef" x="30" y="36" onmousedown="handleReset()"/>
                <g id="arrowUp" xlink:href="#dirArrow" transform="translate(30 24)" onmousedown="handlePan(0,-1)">
                  <use xlink:href="#rim" fill="#404040">
                        <set attributeName="fill" to="#808080" begin="arrowUp.mouseover" end="arrowUp.mouseout"/>
                  </use>
                  <path fill="none" stroke="white" stroke-width="1.5" d="M0,-3.0v7 M-2.5,-0.5L0,-3.0L2.5,-0.5"/>
                </g>
                <g id="arrowRight" xlink:href="#dirArrow" transform="rotate(90) translate(36 -43)" onmousedown="handlePan(1,0)">
                  <use xlink:href="#rim" fill="#404040">
                        <set attributeName="fill" to="#808080" begin="arrowRight.mouseover" end="arrowRight.mouseout"/>
                  </use>
                  <path fill="none" stroke="white" stroke-width="1.5" d="M0,-3.0v7 M-2.5,-0.5L0,-3.0L2.5,-0.5"/>
                </g>
                <g id="arrowDown" xlink:href="#dirArrow" transform="rotate(180) translate(-30 -48)" onmousedown="handlePan(0,1)">
                  <use xlink:href="#rim" fill="#404040">
                        <set attributeName="fill" to="#808080" begin="arrowDown.mouseover" end="arrowDown.mouseout"/>
                  </use>
                  <path fill="none" stroke="white" stroke-width="1.5" d="M0,-3.0v7 M-2.5,-0.5L0,-3.0L2.5,-0.5"/>
                </g>
                <g id="arrowLeft" xlink:href="#dirArrow" transform="rotate(270) translate(-36 17)" onmousedown="handlePan(-1,0)">
                  <use xlink:href="#rim" fill="#404040">
                        <set attributeName="fill" to="#808080" begin="arrowLeft.mouseover" end="arrowLeft.mouseout"/>
                  </use>
                  <path fill="none" stroke="white" stroke-width="1.5" d="M0,-3.0v7 M-2.5,-0.5L0,-3.0L2.5,-0.5"/>
                </g>
        </g>
        <svg viewBox="0 0 15 15" width="100%" height="30px" preserveAspectRatio="xMaxYMin meet">
         <g id="arrow_out" transform="scale(0.3 0.3)">
          <a xlink:href="class_term_abd955a8def100354b03e33911c3b21f8_icgraph_org.svg" target="_base">
           <rect id="button" ry="5" rx="5" y="6" x="6" height="38" width="38"
                fill="#f2f5e9" fill-opacity="0.5" stroke="#606060" stroke-width="1.0"/>
           <path id="arrow"
             d="M 11.500037,31.436501 C 11.940474,20.09759 22.043105,11.32322 32.158766,21.979434 L 37.068811,17.246167 C 37.068811,17.246167 37.088388,32 37.088388,32 L 22.160133,31.978069 C 22.160133,31.978069 26.997745,27.140456 26.997745,27.140456 C 18.528582,18.264221 13.291696,25.230495 11.500037,31.436501 z"
             style="fill:#404040;"/>
          </a>
         </g>
        </svg>
</svg>
