<?xml version="1.0" encoding="UTF-8" standalone="no"?>
<!DOCTYPE svg PUBLIC "-//W3C//DTD SVG 1.1//EN"
 "http://www.w3.org/Graphics/SVG/1.1/DTD/svg11.dtd">
<!-- Generated by graphviz version 2.43.0 (0)
 -->
<!-- Title: Export::_generateBF Pages: 1 -->
<!--zoomable 1035 -->
<svg id="main" version="1.1" xmlns="http://www.w3.org/2000/svg" xmlns:xlink="http://www.w3.org/1999/xlink" xml:space="preserve" onload="init(evt)">
<style type="text/css"><![CDATA[
.edge:hover path { stroke: red; }
.edge:hover polygon { stroke: red; fill: red; }
]]></style>
<script type="text/javascript"><![CDATA[
var edges = document.getElementsByTagName('g');
if (edges && edges.length) {
  for (var i=0;i<edges.length;i++) {
    if (edges[i].id.substr(0,4)=='edge') {
      edges[i].setAttribute('class','edge');
    }
  }
}
]]></script>
        <defs>
                <circle id="rim" cx="0" cy="0" r="7"/>
                <circle id="rim2" cx="0" cy="0" r="3.5"/>
                <g id="zoomPlus">
                        <use xlink:href="#rim" fill="#404040">
                                <set attributeName="fill" to="#808080" begin="zoomplus.mouseover" end="zoomplus.mouseout"/>
                        </use>
                        <path d="M-4,0h8M0,-4v8" fill="none" stroke="white" stroke-width="1.5" pointer-events="none"/>
                </g>
                <g id="zoomMin">
                        <use xlink:href="#rim" fill="#404040">
                                <set attributeName="fill" to="#808080" begin="zoomminus.mouseover" end="zoomminus.mouseout"/>
                        </use>
                        <path d="M-4,0h8" fill="none" stroke="white" stroke-width="1.5" pointer-events="none"/>
                </g>
                <g id="dirArrow">
                        <path fill="none" stroke="white" stroke-width="1.5" d="M0,-3.0v7 M-2.5,-0.5L0,-3.0L2.5,-0.5"/>
                </g>
               <g id="resetDef">
                       <use xlink:href="#rim2" fill="#404040">
                               <set attributeName="fill" to="#808080" begin="reset.mouseover" end="reset.mouseout"/>
                       </use>
               </g>
        </defs>

<script type="text/javascript">
var viewWidth = 887;
var viewHeight = 1035;
var sectionId = 'dynsection-17';
</script>
<script xlink:href="svgpan.js"/>
<svg id="graph" class="graph">
<g id="viewport">
<title>Export::_generateBF</title>
<polygon fill="white" stroke="transparent" points="-4,4 -4,-1031 883,-1031 883,4 -4,4"/>
<!-- Node1 -->
<g id="node1" class="node">
<title>Node1</title>
<g id="a_node1"><a xlink:title="Generate RIS reflection matrices.">
<polygon fill="#bfbfbf" stroke="black" points="0,-855.5 0,-874.5 116,-874.5 116,-855.5 0,-855.5"/>
<text text-anchor="middle" x="58" y="-862.5" font-family="Helvetica,sans-Serif" font-size="10.00">Export::_generateBF</text>
</a>
</g>
</g>
<!-- Node2 -->
<g id="node2" class="node">
<title>Node2</title>
<g id="a_node2"><a xlink:href="class_export.html#a638d6b9ced18342503ee6f4d4b274740" target="_top" xlink:title=" ">
<polygon fill="white" stroke="black" points="157.5,-1007.5 157.5,-1026.5 241.5,-1026.5 241.5,-1007.5 157.5,-1007.5"/>
<text text-anchor="middle" x="199.5" y="-1014.5" font-family="Helvetica,sans-Serif" font-size="10.00">Export::_asStr</text>
</a>
</g>
</g>
<!-- Node1&#45;&gt;Node2 -->
<g id="edge1" class="edge">
<title>Node1&#45;&gt;Node2</title>
<path fill="none" stroke="midnightblue" d="M63.39,-874.79C74.7,-898.97 107.1,-962.12 152,-998 154.03,-999.62 156.21,-1001.12 158.49,-1002.51"/>
<polygon fill="midnightblue" stroke="midnightblue" points="157.12,-1005.74 167.59,-1007.3 160.38,-999.54 157.12,-1005.74"/>
</g>
<!-- Node3 -->
<g id="node3" class="node">
<title>Node3</title>
<g id="a_node3"><a xlink:href="class_export.html#abe75ae41d7cc8afe8f1ba4bbf67dfcfc" target="_top" xlink:title=" ">
<polygon fill="white" stroke="black" points="168,-969.5 168,-988.5 231,-988.5 231,-969.5 168,-969.5"/>
<text text-anchor="middle" x="199.5" y="-976.5" font-family="Helvetica,sans-Serif" font-size="10.00">Export::_f</text>
</a>
</g>
</g>
<!-- Node1&#45;&gt;Node3 -->
<g id="edge2" class="edge">
<title>Node1&#45;&gt;Node3</title>
<path fill="none" stroke="midnightblue" d="M66.18,-874.62C80.59,-893.34 114.84,-935.02 152,-960 154.59,-961.74 157.37,-963.37 160.23,-964.88"/>
<polygon fill="midnightblue" stroke="midnightblue" points="159,-968.17 169.53,-969.31 162,-961.85 159,-968.17"/>
</g>
<!-- Node4 -->
<g id="node4" class="node">
<title>Node4</title>
<g id="a_node4"><a xlink:href="class_export.html#a4dd19b0ff2eb109897fb486769fefffe" target="_top" xlink:title="Get the size of the node (Tx/Rx/RIS).">
<polygon fill="white" stroke="black" points="152,-931.5 152,-950.5 247,-950.5 247,-931.5 152,-931.5"/>
<text text-anchor="middle" x="199.5" y="-938.5" font-family="Helvetica,sans-Serif" font-size="10.00">Export::_getSize</text>
</a>
</g>
</g>
<!-- Node1&#45;&gt;Node4 -->
<g id="edge3" class="edge">
<title>Node1&#45;&gt;Node4</title>
<path fill="none" stroke="midnightblue" d="M73.08,-874.63C90.95,-886.61 122.94,-907.28 152,-922 155.76,-923.91 159.76,-925.77 163.78,-927.54"/>
<polygon fill="midnightblue" stroke="midnightblue" points="162.5,-930.8 173.07,-931.48 165.23,-924.35 162.5,-930.8"/>
</g>
<!-- Node5 -->
<g id="node5" class="node">
<title>Node5</title>
<g id="a_node5"><a xlink:href="class_export.html#a68e698a5654fc800aa78c512da8f23b1" target="_top" xlink:title=" ">
<polygon fill="white" stroke="black" points="152.5,-893.5 152.5,-912.5 246.5,-912.5 246.5,-893.5 152.5,-893.5"/>
<text text-anchor="middle" x="199.5" y="-900.5" font-family="Helvetica,sans-Serif" font-size="10.00">Export::_langStr</text>
</a>
</g>
</g>
<!-- Node1&#45;&gt;Node5 -->
<g id="edge4" class="edge">
<title>Node1&#45;&gt;Node5</title>
<path fill="none" stroke="midnightblue" d="M94.2,-874.59C112.21,-879.49 134.33,-885.52 153.56,-890.76"/>
<polygon fill="midnightblue" stroke="midnightblue" points="152.74,-894.16 163.31,-893.41 154.58,-887.41 152.74,-894.16"/>
</g>
<!-- Node6 -->
<g id="node6" class="node">
<title>Node6</title>
<g id="a_node6"><a xlink:href="utils_8h.html#a49dc116689f1a4202be4d3f0743b1f70" target="_top" xlink:title=" ">
<polygon fill="white" stroke="black" points="175,-855.5 175,-874.5 224,-874.5 224,-855.5 175,-855.5"/>
<text text-anchor="middle" x="199.5" y="-862.5" font-family="Helvetica,sans-Serif" font-size="10.00">appDir</text>
</a>
</g>
</g>
<!-- Node1&#45;&gt;Node6 -->
<g id="edge5" class="edge">
<title>Node1&#45;&gt;Node6</title>
<path fill="none" stroke="midnightblue" d="M116.14,-865C132.61,-865 150.05,-865 164.62,-865"/>
<polygon fill="midnightblue" stroke="midnightblue" points="164.67,-868.5 174.67,-865 164.67,-861.5 164.67,-868.5"/>
</g>
<!-- Node7 -->
<g id="node7" class="node">
<title>Node7</title>
<g id="a_node7"><a xlink:href="utils_8h.html#af11c7cca5b9ad860da4bdb556dce3234" target="_top" xlink:title=" ">
<polygon fill="white" stroke="black" points="645,-760.5 645,-779.5 703,-779.5 703,-760.5 645,-760.5"/>
<text text-anchor="middle" x="674" y="-767.5" font-family="Helvetica,sans-Serif" font-size="10.00">contains</text>
</a>
</g>
</g>
<!-- Node1&#45;&gt;Node7 -->
<g id="edge6" class="edge">
<title>Node1&#45;&gt;Node7</title>
<path fill="none" stroke="midnightblue" d="M72.04,-855.3C89.31,-843.04 121.21,-822.39 152,-813 242.33,-785.45 530.08,-774.27 634.6,-771.06"/>
<polygon fill="midnightblue" stroke="midnightblue" points="634.81,-774.55 644.7,-770.76 634.6,-767.56 634.81,-774.55"/>
</g>
<!-- Node8 -->
<g id="node8" class="node">
<title>Node8</title>
<g id="a_node8"><a xlink:href="class_log.html#ac7147942832455398ad289b706a02616" target="_top" xlink:title="Write error message to the log file.">
<polygon fill="white" stroke="black" points="803,-110.5 803,-129.5 856,-129.5 856,-110.5 803,-110.5"/>
<text text-anchor="middle" x="829.5" y="-117.5" font-family="Helvetica,sans-Serif" font-size="10.00">Log::err</text>
</a>
</g>
</g>
<!-- Node1&#45;&gt;Node8 -->
<g id="edge7" class="edge">
<title>Node1&#45;&gt;Node8</title>
<path fill="none" stroke="midnightblue" d="M60.32,-855.36C71.77,-773.5 156.54,-195.51 283,-86 311.93,-60.94 328.72,-67 367,-67 367,-67 367,-67 529.5,-67 626.03,-67 737.44,-94.11 793.06,-109.56"/>
<polygon fill="midnightblue" stroke="midnightblue" points="792.2,-112.95 802.78,-112.29 794.1,-106.21 792.2,-112.95"/>
</g>
<!-- Node9 -->
<g id="node9" class="node">
<title>Node9</title>
<g id="a_node9"><a xlink:href="class_log.html#add7e611cd3267d3fd5dae017e3aeef67" target="_top" xlink:title="Write infomation to the log file.">
<polygon fill="white" stroke="black" points="800,-532.5 800,-551.5 859,-551.5 859,-532.5 800,-532.5"/>
<text text-anchor="middle" x="829.5" y="-539.5" font-family="Helvetica,sans-Serif" font-size="10.00">Log::info</text>
</a>
</g>
</g>
<!-- Node1&#45;&gt;Node9 -->
<g id="edge8" class="edge">
<title>Node1&#45;&gt;Node9</title>
<path fill="none" stroke="midnightblue" d="M100.49,-855.48C116.51,-852.07 135.04,-848.47 152,-846 246.92,-832.15 271.07,-827 367,-827 367,-827 367,-827 529.5,-827 626.32,-827 670.47,-851.98 744,-789 813.8,-729.22 826.04,-609.17 828.11,-561.83"/>
<polygon fill="midnightblue" stroke="midnightblue" points="831.62,-561.79 828.44,-551.69 824.62,-561.57 831.62,-561.79"/>
</g>
<!-- Node10 -->
<g id="node10" class="node">
<title>Node10</title>
<g id="a_node10"><a xlink:href="class_alg.html#ada1e8215f047b4ffd736e811b5ea3162" target="_top" xlink:title=" ">
<polygon fill="white" stroke="black" points="168,-437.5 168,-456.5 231,-456.5 231,-437.5 168,-437.5"/>
<text text-anchor="middle" x="199.5" y="-444.5" font-family="Helvetica,sans-Serif" font-size="10.00">Alg::write</text>
</a>
</g>
</g>
<!-- Node1&#45;&gt;Node10 -->
<g id="edge9" class="edge">
<title>Node1&#45;&gt;Node10</title>
<path fill="none" stroke="midnightblue" d="M62.18,-855.48C79.96,-802.2 167.27,-540.57 191.98,-466.55"/>
<polygon fill="midnightblue" stroke="midnightblue" points="195.42,-467.28 195.27,-456.68 188.78,-465.06 195.42,-467.28"/>
</g>
<!-- Node10&#45;&gt;Node9 -->
<g id="edge30" class="edge">
<title>Node10&#45;&gt;Node9</title>
<path fill="none" stroke="midnightblue" d="M205.25,-456.61C215.88,-476.9 243.79,-523.75 283,-542 372.84,-583.82 680.36,-557.26 789.6,-546.18"/>
<polygon fill="midnightblue" stroke="midnightblue" points="790.25,-549.63 799.84,-545.13 789.54,-542.67 790.25,-549.63"/>
</g>
<!-- Node10&#45;&gt;Node10 -->
<g id="edge53" class="edge">
<title>Node10&#45;&gt;Node10</title>
<path fill="none" stroke="midnightblue" d="M177.92,-456.76C167.42,-465.57 174.62,-475 199.5,-475 215.44,-475 224.12,-471.13 225.54,-466.03"/>
<polygon fill="midnightblue" stroke="midnightblue" points="228.57,-464.25 221.08,-456.76 222.26,-467.29 228.57,-464.25"/>
</g>
<!-- Node11 -->
<g id="node11" class="node">
<title>Node11</title>
<g id="a_node11"><a xlink:href="class_alg.html#a2cf2b7f4e37c8e401d9c6dad6687917d" target="_top" xlink:title=" ">
<polygon fill="white" stroke="black" points="318,-133.5 318,-152.5 418,-152.5 418,-133.5 318,-133.5"/>
<text text-anchor="middle" x="368" y="-140.5" font-family="Helvetica,sans-Serif" font-size="10.00">Alg::_wComment</text>
</a>
</g>
</g>
<!-- Node10&#45;&gt;Node11 -->
<g id="edge10" class="edge">
<title>Node10&#45;&gt;Node11</title>
<path fill="none" stroke="midnightblue" d="M200.25,-437.42C199.76,-397.92 203.3,-246.05 283,-167 289.95,-160.1 298.74,-155.16 308,-151.62"/>
<polygon fill="midnightblue" stroke="midnightblue" points="309.35,-154.86 317.76,-148.42 307.17,-148.21 309.35,-154.86"/>
</g>
<!-- Node12 -->
<g id="node12" class="node">
<title>Node12</title>
<g id="a_node12"><a xlink:href="class_calc.html#ad6dbdfdd4bd21322e5836ff72c11ae1b" target="_top" xlink:title="Convert the Alg CALC contents into a language command.">
<polygon fill="white" stroke="black" points="501,-247.5 501,-266.5 556,-266.5 556,-247.5 501,-247.5"/>
<text text-anchor="middle" x="528.5" y="-254.5" font-family="Helvetica,sans-Serif" font-size="10.00">Calc::as</text>
</a>
</g>
</g>
<!-- Node10&#45;&gt;Node12 -->
<g id="edge11" class="edge">
<title>Node10&#45;&gt;Node12</title>
<path fill="none" stroke="midnightblue" d="M201.97,-437.34C207.01,-407.89 226.53,-318.87 283,-280 345.59,-236.92 439.53,-242.67 490.84,-250.15"/>
<polygon fill="midnightblue" stroke="midnightblue" points="490.39,-253.62 500.81,-251.7 491.47,-246.7 490.39,-253.62"/>
</g>
<!-- Node20 -->
<g id="node20" class="node">
<title>Node20</title>
<g id="a_node20"><a xlink:href="class_type.html#abe15820e780d2f6646792d54f3ae3311" target="_top" xlink:title=" ">
<polygon fill="white" stroke="black" points="797.5,-214.5 797.5,-233.5 861.5,-233.5 861.5,-214.5 797.5,-214.5"/>
<text text-anchor="middle" x="829.5" y="-221.5" font-family="Helvetica,sans-Serif" font-size="10.00">Type::dim</text>
</a>
</g>
</g>
<!-- Node10&#45;&gt;Node20 -->
<g id="edge27" class="edge">
<title>Node10&#45;&gt;Node20</title>
<path fill="none" stroke="midnightblue" d="M200.15,-437.43C199.36,-399.41 202.11,-258.26 283,-200 366.13,-140.12 642.53,-185.87 744,-200 760.08,-202.24 777.39,-206.76 792.14,-211.29"/>
<polygon fill="midnightblue" stroke="midnightblue" points="791.3,-214.69 801.89,-214.39 793.42,-208.02 791.3,-214.69"/>
</g>
<!-- Node25 -->
<g id="node25" class="node">
<title>Node25</title>
<g id="a_node25"><a xlink:href="class_alg___line.html#af651454e6ddfce164626b68b2c6cba97" target="_top" xlink:title="Get the function name.">
<polygon fill="white" stroke="black" points="325.5,-95.5 325.5,-114.5 410.5,-114.5 410.5,-95.5 325.5,-95.5"/>
<text text-anchor="middle" x="368" y="-102.5" font-family="Helvetica,sans-Serif" font-size="10.00">Alg_Line::func</text>
</a>
</g>
</g>
<!-- Node10&#45;&gt;Node25 -->
<g id="edge28" class="edge">
<title>Node10&#45;&gt;Node25</title>
<path fill="none" stroke="midnightblue" d="M201.62,-437.27C207.46,-388.34 235.91,-169.8 283,-124 291.71,-115.53 303.35,-110.52 315.19,-107.63"/>
<polygon fill="midnightblue" stroke="midnightblue" points="315.98,-111.04 325.11,-105.67 314.63,-104.18 315.98,-111.04"/>
</g>
<!-- Node26 -->
<g id="node26" class="node">
<title>Node26</title>
<g id="a_node26"><a xlink:href="class_alg___line.html#a49a98870a1f09e35a3e15a7d7bab1666" target="_top" xlink:title="Check whether parameters contain the key.">
<polygon fill="white" stroke="black" points="318.5,-703.5 318.5,-722.5 417.5,-722.5 417.5,-703.5 318.5,-703.5"/>
<text text-anchor="middle" x="368" y="-710.5" font-family="Helvetica,sans-Serif" font-size="10.00">Alg_Line::hasKey</text>
</a>
</g>
</g>
<!-- Node10&#45;&gt;Node26 -->
<g id="edge29" class="edge">
<title>Node10&#45;&gt;Node26</title>
<path fill="none" stroke="midnightblue" d="M200.57,-456.57C201.36,-493.43 209.41,-627.42 283,-694 290.16,-700.48 299.05,-704.9 308.35,-707.88"/>
<polygon fill="midnightblue" stroke="midnightblue" points="307.56,-711.29 318.12,-710.5 309.37,-704.53 307.56,-711.29"/>
</g>
<!-- Node27 -->
<g id="node27" class="node">
<title>Node27</title>
<g id="a_node27"><a xlink:href="class_alg.html#a3ee7f9963027158b3fbd442d97800111" target="_top" xlink:title=" ">
<polygon fill="white" stroke="black" points="325,-209.5 325,-228.5 411,-228.5 411,-209.5 325,-209.5"/>
<text text-anchor="middle" x="368" y="-216.5" font-family="Helvetica,sans-Serif" font-size="10.00">Alg::inlineCalc</text>
</a>
</g>
</g>
<!-- Node10&#45;&gt;Node27 -->
<g id="edge31" class="edge">
<title>Node10&#45;&gt;Node27</title>
<path fill="none" stroke="midnightblue" d="M201.47,-437.2C205.25,-404.48 221.93,-297.92 283,-243 291.99,-234.92 303.52,-229.54 315.14,-225.97"/>
<polygon fill="midnightblue" stroke="midnightblue" points="316.11,-229.34 324.87,-223.38 314.3,-222.57 316.11,-229.34"/>
</g>
<!-- Node28 -->
<g id="node28" class="node">
<title>Node28</title>
<g id="a_node28"><a xlink:href="class_alg___line.html#ad419191a99be7e34024e569ad833b04e" target="_top" xlink:title="Check whether the line is for function declaration.">
<polygon fill="white" stroke="black" points="283,-665.5 283,-684.5 453,-684.5 453,-665.5 283,-665.5"/>
<text text-anchor="middle" x="368" y="-672.5" font-family="Helvetica,sans-Serif" font-size="10.00">Alg_Line::isFunctionDeclaration</text>
</a>
</g>
</g>
<!-- Node10&#45;&gt;Node28 -->
<g id="edge33" class="edge">
<title>Node10&#45;&gt;Node28</title>
<path fill="none" stroke="midnightblue" d="M201.23,-456.7C204.28,-490.07 219.03,-601.16 283,-656 284.8,-657.54 286.7,-658.97 288.67,-660.28"/>
<polygon fill="midnightblue" stroke="midnightblue" points="287.36,-663.55 297.8,-665.37 290.77,-657.44 287.36,-663.55"/>
</g>
<!-- Node29 -->
<g id="node29" class="node">
<title>Node29</title>
<g id="a_node29"><a xlink:href="class_alg.html#af935e64a6eb4afa4ca1540f4da3dcc9c" target="_top" xlink:title=" ">
<polygon fill="white" stroke="black" points="340,-627.5 340,-646.5 396,-646.5 396,-627.5 340,-627.5"/>
<text text-anchor="middle" x="368" y="-634.5" font-family="Helvetica,sans-Serif" font-size="10.00">Alg::line</text>
</a>
</g>
</g>
<!-- Node10&#45;&gt;Node29 -->
<g id="edge34" class="edge">
<title>Node10&#45;&gt;Node29</title>
<path fill="none" stroke="midnightblue" d="M202.13,-456.56C207.62,-485.78 228.31,-574.5 283,-618 296.15,-628.46 313.94,-633.4 329.77,-635.65"/>
<polygon fill="midnightblue" stroke="midnightblue" points="329.49,-639.14 339.81,-636.77 330.26,-632.18 329.49,-639.14"/>
</g>
<!-- Node30 -->
<g id="node30" class="node">
<title>Node30</title>
<g id="a_node30"><a xlink:href="class_alg___line.html#a4e79eb77a1cddbdab1dbdde8a499342d" target="_top" xlink:title="Parameter variables.">
<polygon fill="white" stroke="black" points="317.5,-475.5 317.5,-494.5 418.5,-494.5 418.5,-475.5 317.5,-475.5"/>
<text text-anchor="middle" x="368" y="-482.5" font-family="Helvetica,sans-Serif" font-size="10.00">Alg_Line::params</text>
</a>
</g>
</g>
<!-- Node10&#45;&gt;Node30 -->
<g id="edge35" class="edge">
<title>Node10&#45;&gt;Node30</title>
<path fill="none" stroke="midnightblue" d="M231.05,-454.07C246.6,-457.66 265.8,-462.08 283,-466 293.27,-468.34 304.26,-470.84 314.78,-473.22"/>
<polygon fill="midnightblue" stroke="midnightblue" points="314.16,-476.67 324.69,-475.46 315.71,-469.84 314.16,-476.67"/>
</g>
<!-- Node31 -->
<g id="node31" class="node">
<title>Node31</title>
<g id="a_node31"><a xlink:href="class_alg___line.html#a801b08c6c164376039a4ba4e980d039e" target="_top" xlink:title="Print Alg_Line contents (including return values, function names and parameters).">
<polygon fill="white" stroke="black" points="325,-741.5 325,-760.5 411,-760.5 411,-741.5 325,-741.5"/>
<text text-anchor="middle" x="368" y="-748.5" font-family="Helvetica,sans-Serif" font-size="10.00">Alg_Line::print</text>
</a>
</g>
</g>
<!-- Node10&#45;&gt;Node31 -->
<g id="edge36" class="edge">
<title>Node10&#45;&gt;Node31</title>
<path fill="none" stroke="midnightblue" d="M200.08,-456.6C198.85,-496.84 199.78,-653.57 283,-732 291.76,-740.25 303.31,-745.19 315.03,-748.09"/>
<polygon fill="midnightblue" stroke="midnightblue" points="314.37,-751.53 324.86,-750.07 315.75,-744.66 314.37,-751.53"/>
</g>
<!-- Node33 -->
<g id="node33" class="node">
<title>Node33</title>
<g id="a_node33"><a xlink:href="class_type___track.html#a4548ba1c289fba60e88b0e725509219e" target="_top" xlink:title=" ">
<polygon fill="white" stroke="black" points="318.5,-513.5 318.5,-532.5 417.5,-532.5 417.5,-513.5 318.5,-513.5"/>
<text text-anchor="middle" x="368" y="-520.5" font-family="Helvetica,sans-Serif" font-size="10.00">Type_Track::push</text>
</a>
</g>
</g>
<!-- Node10&#45;&gt;Node33 -->
<g id="edge39" class="edge">
<title>Node10&#45;&gt;Node33</title>
<path fill="none" stroke="midnightblue" d="M211.41,-456.61C226.47,-469.36 254.94,-491.69 283,-504 291.06,-507.54 299.85,-510.45 308.61,-512.84"/>
<polygon fill="midnightblue" stroke="midnightblue" points="307.9,-516.27 318.45,-515.33 309.61,-509.48 307.9,-516.27"/>
</g>
<!-- Node34 -->
<g id="node34" class="node">
<title>Node34</title>
<g id="a_node34"><a xlink:href="class_type.html#a0153b8ff39040caf3ff2a6f7c7329d7c" target="_top" xlink:title="Get the C++ type name.">
<polygon fill="white" stroke="black" points="492,-413.5 492,-432.5 565,-432.5 565,-413.5 492,-413.5"/>
<text text-anchor="middle" x="528.5" y="-420.5" font-family="Helvetica,sans-Serif" font-size="10.00">Type::string</text>
</a>
</g>
</g>
<!-- Node10&#45;&gt;Node34 -->
<g id="edge47" class="edge">
<title>Node10&#45;&gt;Node34</title>
<path fill="none" stroke="midnightblue" d="M203.01,-437.25C210.24,-411.43 233.85,-341.35 283,-314 349.02,-277.26 389.65,-272.83 453,-314 486.03,-335.47 464.22,-364.37 489,-395 492.7,-399.58 497.33,-403.78 502.07,-407.45"/>
<polygon fill="midnightblue" stroke="midnightblue" points="500.39,-410.55 510.57,-413.47 504.44,-404.84 500.39,-410.55"/>
</g>
<!-- Node36 -->
<g id="node36" class="node">
<title>Node36</title>
<g id="a_node36"><a xlink:href="utils_8h.html#a0465457013518e168df05799c93cfa6e" target="_top" xlink:title=" ">
<polygon fill="white" stroke="black" points="326.5,-589.5 326.5,-608.5 409.5,-608.5 409.5,-589.5 326.5,-589.5"/>
<text text-anchor="middle" x="368" y="-596.5" font-family="Helvetica,sans-Serif" font-size="10.00">removeQuote</text>
</a>
</g>
</g>
<!-- Node10&#45;&gt;Node36 -->
<g id="edge44" class="edge">
<title>Node10&#45;&gt;Node36</title>
<path fill="none" stroke="midnightblue" d="M203.97,-456.72C213.01,-480.66 239.68,-542.87 283,-575 292.8,-582.27 304.74,-587.34 316.51,-590.88"/>
<polygon fill="midnightblue" stroke="midnightblue" points="315.73,-594.3 326.3,-593.5 317.54,-587.53 315.73,-594.3"/>
</g>
<!-- Node38 -->
<g id="node38" class="node">
<title>Node38</title>
<g id="a_node38"><a xlink:href="class_alg___line.html#a8e21f6b69eaf80a2327f7308fb4299e0" target="_top" xlink:title="Return variables.">
<polygon fill="white" stroke="black" points="319,-437.5 319,-456.5 417,-456.5 417,-437.5 319,-437.5"/>
<text text-anchor="middle" x="368" y="-444.5" font-family="Helvetica,sans-Serif" font-size="10.00">Alg_Line::returns</text>
</a>
</g>
</g>
<!-- Node10&#45;&gt;Node38 -->
<g id="edge46" class="edge">
<title>Node10&#45;&gt;Node38</title>
<path fill="none" stroke="midnightblue" d="M231.04,-447C252.67,-447 282.37,-447 308.49,-447"/>
<polygon fill="midnightblue" stroke="midnightblue" points="308.68,-450.5 318.68,-447 308.68,-443.5 308.68,-450.5"/>
</g>
<!-- Node39 -->
<g id="node39" class="node">
<title>Node39</title>
<g id="a_node39"><a xlink:href="namespacemmce.html#ad4a160832ef9fad47c531ece39752208" target="_top" xlink:title="Change a number to string.">
<polygon fill="white" stroke="black" points="320,-399.5 320,-418.5 416,-418.5 416,-399.5 320,-399.5"/>
<text text-anchor="middle" x="368" y="-406.5" font-family="Helvetica,sans-Serif" font-size="10.00">mmce::to_string</text>
</a>
</g>
</g>
<!-- Node10&#45;&gt;Node39 -->
<g id="edge48" class="edge">
<title>Node10&#45;&gt;Node39</title>
<path fill="none" stroke="midnightblue" d="M231.05,-439.93C246.6,-436.34 265.8,-431.92 283,-428 293.27,-425.66 304.26,-423.16 314.78,-420.78"/>
<polygon fill="midnightblue" stroke="midnightblue" points="315.71,-424.16 324.69,-418.54 314.16,-417.33 315.71,-424.16"/>
</g>
<!-- Node40 -->
<g id="node40" class="node">
<title>Node40</title>
<g id="a_node40"><a xlink:href="utils_8h.html#a6ef734356291c638e5787a6c668192d4" target="_top" xlink:title=" ">
<polygon fill="white" stroke="black" points="349.5,-361.5 349.5,-380.5 386.5,-380.5 386.5,-361.5 349.5,-361.5"/>
<text text-anchor="middle" x="368" y="-368.5" font-family="Helvetica,sans-Serif" font-size="10.00">trim</text>
</a>
</g>
</g>
<!-- Node10&#45;&gt;Node40 -->
<g id="edge49" class="edge">
<title>Node10&#45;&gt;Node40</title>
<path fill="none" stroke="midnightblue" d="M211.41,-437.39C226.47,-424.64 254.94,-402.31 283,-390 300.86,-382.16 322.32,-377.38 339.09,-374.57"/>
<polygon fill="midnightblue" stroke="midnightblue" points="339.98,-377.98 349.34,-373 338.92,-371.06 339.98,-377.98"/>
</g>
<!-- Node43 -->
<g id="node43" class="node">
<title>Node43</title>
<g id="a_node43"><a xlink:href="class_log.html#a3410828f35c9bf8dd0771ead28de27b0" target="_top" xlink:title="Write contents to the log file.">
<polygon fill="white" stroke="black" points="335.5,-323.5 335.5,-342.5 400.5,-342.5 400.5,-323.5 335.5,-323.5"/>
<text text-anchor="middle" x="368" y="-330.5" font-family="Helvetica,sans-Serif" font-size="10.00">Log::write</text>
</a>
</g>
</g>
<!-- Node10&#45;&gt;Node43 -->
<g id="edge52" class="edge">
<title>Node10&#45;&gt;Node43</title>
<path fill="none" stroke="midnightblue" d="M205.92,-437.41C217.42,-417.99 246.26,-373.98 283,-352 295.7,-344.4 311.14,-339.84 325.29,-337.1"/>
<polygon fill="midnightblue" stroke="midnightblue" points="326.04,-340.52 335.32,-335.41 324.88,-333.62 326.04,-340.52"/>
</g>
<!-- Node13 -->
<g id="node13" class="node">
<title>Node13</title>
<g id="a_node13"><a xlink:href="class_calc.html#af1d1bd5e83f9e5196627f5a4e1a5ee83" target="_top" xlink:title=" ">
<polygon fill="white" stroke="black" points="611.5,-19.5 611.5,-38.5 736.5,-38.5 736.5,-19.5 611.5,-19.5"/>
<text text-anchor="middle" x="674" y="-26.5" font-family="Helvetica,sans-Serif" font-size="10.00">Calc::_changeFunction</text>
</a>
</g>
</g>
<!-- Node12&#45;&gt;Node13 -->
<g id="edge12" class="edge">
<title>Node12&#45;&gt;Node13</title>
<path fill="none" stroke="midnightblue" d="M535.48,-247.49C557.27,-212.87 632.62,-93.16 661.56,-47.18"/>
<polygon fill="midnightblue" stroke="midnightblue" points="664.63,-48.87 666.99,-38.55 658.7,-45.15 664.63,-48.87"/>
</g>
<!-- Node16 -->
<g id="node16" class="node">
<title>Node16</title>
<g id="a_node16"><a xlink:href="class_calc.html#ae3d88bd40f9bdf2c8ec92c426bdca446" target="_top" xlink:title=" ">
<polygon fill="white" stroke="black" points="610.5,-285.5 610.5,-304.5 737.5,-304.5 737.5,-285.5 610.5,-285.5"/>
<text text-anchor="middle" x="674" y="-292.5" font-family="Helvetica,sans-Serif" font-size="10.00">Calc::_changeOperator</text>
</a>
</g>
</g>
<!-- Node12&#45;&gt;Node16 -->
<g id="edge15" class="edge">
<title>Node12&#45;&gt;Node16</title>
<path fill="none" stroke="midnightblue" d="M556.15,-264.06C576.08,-269.34 603.82,-276.68 627.27,-282.89"/>
<polygon fill="midnightblue" stroke="midnightblue" points="626.45,-286.29 637.02,-285.47 628.25,-279.53 626.45,-286.29"/>
</g>
<!-- Node17 -->
<g id="node17" class="node">
<title>Node17</title>
<g id="a_node17"><a xlink:href="class_calc.html#ad95be528148e0d63848d5fa916b93200" target="_top" xlink:title=" ">
<polygon fill="white" stroke="black" points="618.5,-247.5 618.5,-266.5 729.5,-266.5 729.5,-247.5 618.5,-247.5"/>
<text text-anchor="middle" x="674" y="-254.5" font-family="Helvetica,sans-Serif" font-size="10.00">Calc::_changeParen</text>
</a>
</g>
</g>
<!-- Node12&#45;&gt;Node17 -->
<g id="edge16" class="edge">
<title>Node12&#45;&gt;Node17</title>
<path fill="none" stroke="midnightblue" d="M556.15,-257C570.86,-257 589.81,-257 608.16,-257"/>
<polygon fill="midnightblue" stroke="midnightblue" points="608.25,-260.5 618.25,-257 608.25,-253.5 608.25,-260.5"/>
</g>
<!-- Node18 -->
<g id="node18" class="node">
<title>Node18</title>
<g id="a_node18"><a xlink:href="class_calc.html#ad562619fef96a73cd3b4c27b35bc5f91" target="_top" xlink:title=" ">
<polygon fill="white" stroke="black" points="609,-323.5 609,-342.5 739,-342.5 739,-323.5 609,-323.5"/>
<text text-anchor="middle" x="674" y="-330.5" font-family="Helvetica,sans-Serif" font-size="10.00">Calc::_changeSubScript</text>
</a>
</g>
</g>
<!-- Node12&#45;&gt;Node18 -->
<g id="edge17" class="edge">
<title>Node12&#45;&gt;Node18</title>
<path fill="none" stroke="midnightblue" d="M539.72,-266.92C553.32,-279.59 578.62,-301.4 604,-314 608.61,-316.29 613.54,-318.34 618.56,-320.16"/>
<polygon fill="midnightblue" stroke="midnightblue" points="617.67,-323.55 628.26,-323.39 619.88,-316.91 617.67,-323.55"/>
</g>
<!-- Node24 -->
<g id="node24" class="node">
<title>Node24</title>
<g id="a_node24"><a xlink:href="class_calc.html#a1aec4748092712e0995c0ae5dabbf54f" target="_top" xlink:title=" ">
<polygon fill="white" stroke="black" points="604,-209.5 604,-228.5 744,-228.5 744,-209.5 604,-209.5"/>
<text text-anchor="middle" x="674" y="-216.5" font-family="Helvetica,sans-Serif" font-size="10.00">Calc::_changeSuperScript</text>
</a>
</g>
</g>
<!-- Node12&#45;&gt;Node24 -->
<g id="edge26" class="edge">
<title>Node12&#45;&gt;Node24</title>
<path fill="none" stroke="midnightblue" d="M556.15,-249.94C576.08,-244.66 603.82,-237.32 627.27,-231.11"/>
<polygon fill="midnightblue" stroke="midnightblue" points="628.25,-234.47 637.02,-228.53 626.45,-227.71 628.25,-234.47"/>
</g>
<!-- Node14 -->
<g id="node14" class="node">
<title>Node14</title>
<g id="a_node14"><a xlink:href="class_calc.html#a7d793eba0a7c9fcbafec4310359f165d" target="_top" xlink:title=" ">
<polygon fill="white" stroke="black" points="783,-0.5 783,-19.5 876,-19.5 876,-0.5 783,-0.5"/>
<text text-anchor="middle" x="829.5" y="-7.5" font-family="Helvetica,sans-Serif" font-size="10.00">Calc::_addArma</text>
</a>
</g>
</g>
<!-- Node13&#45;&gt;Node14 -->
<g id="edge13" class="edge">
<title>Node13&#45;&gt;Node14</title>
<path fill="none" stroke="midnightblue" d="M736.55,-21.38C748.42,-19.91 760.8,-18.38 772.48,-16.93"/>
<polygon fill="midnightblue" stroke="midnightblue" points="773.04,-20.39 782.54,-15.69 772.18,-13.44 773.04,-20.39"/>
</g>
<!-- Node15 -->
<g id="node15" class="node">
<title>Node15</title>
<g id="a_node15"><a xlink:href="class_calc.html#af58cd6a2174e577a6246366de03b949e" target="_top" xlink:title=" ">
<polygon fill="white" stroke="black" points="781,-38.5 781,-57.5 878,-57.5 878,-38.5 781,-38.5"/>
<text text-anchor="middle" x="829.5" y="-45.5" font-family="Helvetica,sans-Serif" font-size="10.00">Calc::_addMmce</text>
</a>
</g>
</g>
<!-- Node13&#45;&gt;Node15 -->
<g id="edge14" class="edge">
<title>Node13&#45;&gt;Node15</title>
<path fill="none" stroke="midnightblue" d="M736.55,-36.62C747.79,-38.01 759.48,-39.46 770.61,-40.83"/>
<polygon fill="midnightblue" stroke="midnightblue" points="770.29,-44.32 780.64,-42.08 771.15,-37.37 770.29,-44.32"/>
</g>
<!-- Node18&#45;&gt;Node8 -->
<g id="edge21" class="edge">
<title>Node18&#45;&gt;Node8</title>
<path fill="none" stroke="midnightblue" d="M730.1,-323.41C735.19,-320.94 739.95,-317.85 744,-314 780.97,-278.84 759.25,-251.61 780,-205 790.63,-181.12 805.99,-155.25 816.57,-138.41"/>
<polygon fill="midnightblue" stroke="midnightblue" points="819.75,-139.93 822.17,-129.61 813.84,-136.17 819.75,-139.93"/>
</g>
<!-- Node18&#45;&gt;Node9 -->
<g id="edge22" class="edge">
<title>Node18&#45;&gt;Node9</title>
<path fill="none" stroke="midnightblue" d="M701.44,-342.55C715.47,-348.67 732.2,-357.77 744,-370 749.83,-376.04 798.98,-479.46 819.53,-522.96"/>
<polygon fill="midnightblue" stroke="midnightblue" points="816.45,-524.64 823.88,-532.19 822.78,-521.65 816.45,-524.64"/>
</g>
<!-- Node18&#45;&gt;Node18 -->
<g id="edge18" class="edge">
<title>Node18&#45;&gt;Node18</title>
<path fill="none" stroke="midnightblue" d="M651.81,-342.76C641.01,-351.57 648.41,-361 674,-361 690.8,-361 699.76,-356.94 700.88,-351.65"/>
<polygon fill="midnightblue" stroke="midnightblue" points="703.95,-349.97 696.19,-342.76 697.76,-353.24 703.95,-349.97"/>
</g>
<!-- Node19 -->
<g id="node19" class="node">
<title>Node19</title>
<g id="a_node19"><a xlink:href="class_calc.html#a284818e83b0d85bdd029f3d72d4ef0bd" target="_top" xlink:title=" ">
<polygon fill="white" stroke="black" points="794.5,-285.5 794.5,-304.5 864.5,-304.5 864.5,-285.5 794.5,-285.5"/>
<text text-anchor="middle" x="829.5" y="-292.5" font-family="Helvetica,sans-Serif" font-size="10.00">Calc::_msg</text>
</a>
</g>
</g>
<!-- Node18&#45;&gt;Node19 -->
<g id="edge19" class="edge">
<title>Node18&#45;&gt;Node19</title>
<path fill="none" stroke="midnightblue" d="M713.73,-323.41C735.3,-318.07 762.22,-311.41 784.57,-305.88"/>
<polygon fill="midnightblue" stroke="midnightblue" points="785.62,-309.22 794.48,-303.42 783.93,-302.43 785.62,-309.22"/>
</g>
<!-- Node18&#45;&gt;Node20 -->
<g id="edge20" class="edge">
<title>Node18&#45;&gt;Node20</title>
<path fill="none" stroke="midnightblue" d="M723.18,-323.41C730.44,-320.94 737.62,-317.85 744,-314 745.06,-313.36 788.28,-267.11 812.49,-241.17"/>
<polygon fill="midnightblue" stroke="midnightblue" points="815.34,-243.24 819.6,-233.54 810.22,-238.47 815.34,-243.24"/>
</g>
<!-- Node21 -->
<g id="node21" class="node">
<title>Node21</title>
<g id="a_node21"><a xlink:href="utils_8h.html#aa0a3ba0e1cec6f6b77334767af46eef7" target="_top" xlink:title="Check if the string is an unsigned integer.">
<polygon fill="white" stroke="black" points="807,-361.5 807,-380.5 852,-380.5 852,-361.5 807,-361.5"/>
<text text-anchor="middle" x="829.5" y="-368.5" font-family="Helvetica,sans-Serif" font-size="10.00">isUInt</text>
</a>
</g>
</g>
<!-- Node18&#45;&gt;Node21 -->
<g id="edge23" class="edge">
<title>Node18&#45;&gt;Node21</title>
<path fill="none" stroke="midnightblue" d="M713.73,-342.59C739.54,-348.98 773,-357.26 797.13,-363.23"/>
<polygon fill="midnightblue" stroke="midnightblue" points="796.3,-366.64 806.85,-365.64 797.99,-359.84 796.3,-366.64"/>
</g>
<!-- Node22 -->
<g id="node22" class="node">
<title>Node22</title>
<g id="a_node22"><a xlink:href="class_type.html#a836b463aa4740a234e0d304ed4cd958f" target="_top" xlink:title=" ">
<polygon fill="white" stroke="black" points="780,-408.5 780,-427.5 879,-427.5 879,-408.5 780,-408.5"/>
<text text-anchor="middle" x="829.5" y="-415.5" font-family="Helvetica,sans-Serif" font-size="10.00">Type::isUnknown</text>
</a>
</g>
</g>
<!-- Node18&#45;&gt;Node22 -->
<g id="edge24" class="edge">
<title>Node18&#45;&gt;Node22</title>
<path fill="none" stroke="midnightblue" d="M693.23,-342.62C707.17,-350.02 726.86,-360.54 744,-370 763.88,-380.97 786.21,-393.68 802.92,-403.26"/>
<polygon fill="midnightblue" stroke="midnightblue" points="801.64,-406.55 812.05,-408.5 805.12,-400.48 801.64,-406.55"/>
</g>
<!-- Node23 -->
<g id="node23" class="node">
<title>Node23</title>
<g id="a_node23"><a xlink:href="class_type___track.html#ab510214767b1b4d71e3beadecb814bb7" target="_top" xlink:title=" ">
<polygon fill="white" stroke="black" points="782,-323.5 782,-342.5 877,-342.5 877,-323.5 782,-323.5"/>
<text text-anchor="middle" x="829.5" y="-330.5" font-family="Helvetica,sans-Serif" font-size="10.00">Type_Track::size</text>
</a>
</g>
</g>
<!-- Node18&#45;&gt;Node23 -->
<g id="edge25" class="edge">
<title>Node18&#45;&gt;Node23</title>
<path fill="none" stroke="midnightblue" d="M739.21,-333C749.93,-333 760.99,-333 771.51,-333"/>
<polygon fill="midnightblue" stroke="midnightblue" points="771.83,-336.5 781.83,-333 771.83,-329.5 771.83,-336.5"/>
</g>
<!-- Node27&#45;&gt;Node12 -->
<g id="edge32" class="edge">
<title>Node27&#45;&gt;Node12</title>
<path fill="none" stroke="midnightblue" d="M409,-228.59C434.19,-234.63 466.47,-242.37 490.98,-248.24"/>
<polygon fill="midnightblue" stroke="midnightblue" points="490.42,-251.71 500.96,-250.64 492.05,-244.9 490.42,-251.71"/>
</g>
<!-- Node32 -->
<g id="node32" class="node">
<title>Node32</title>
<g id="a_node32"><a xlink:href="functions_8h.html#ac9dc58cb94b7547813c3a35154d97d18" target="_top" xlink:title=" ">
<polygon fill="white" stroke="black" points="489,-741.5 489,-760.5 568,-760.5 568,-741.5 489,-741.5"/>
<text text-anchor="middle" x="528.5" y="-748.5" font-family="Helvetica,sans-Serif" font-size="10.00">isFuncNoEnd</text>
</a>
</g>
</g>
<!-- Node31&#45;&gt;Node32 -->
<g id="edge37" class="edge">
<title>Node31&#45;&gt;Node32</title>
<path fill="none" stroke="midnightblue" d="M411.06,-751C431.79,-751 456.91,-751 478.5,-751"/>
<polygon fill="midnightblue" stroke="midnightblue" points="478.78,-754.5 488.78,-751 478.78,-747.5 478.78,-754.5"/>
</g>
<!-- Node32&#45;&gt;Node7 -->
<g id="edge38" class="edge">
<title>Node32&#45;&gt;Node7</title>
<path fill="none" stroke="midnightblue" d="M568.33,-756.14C588.93,-758.87 614.14,-762.21 634.65,-764.92"/>
<polygon fill="midnightblue" stroke="midnightblue" points="634.23,-768.4 644.61,-766.24 635.15,-761.46 634.23,-768.4"/>
</g>
<!-- Node33&#45;&gt;Node9 -->
<g id="edge40" class="edge">
<title>Node33&#45;&gt;Node9</title>
<path fill="none" stroke="midnightblue" d="M417.74,-525.02C509.55,-528.81 706.39,-536.95 789.83,-540.4"/>
<polygon fill="midnightblue" stroke="midnightblue" points="789.77,-543.9 799.9,-540.82 790.05,-536.91 789.77,-543.9"/>
</g>
<!-- Node33&#45;&gt;Node34 -->
<g id="edge41" class="edge">
<title>Node33&#45;&gt;Node34</title>
<path fill="none" stroke="midnightblue" d="M417.52,-517.22C429.65,-514.4 442.26,-510.22 453,-504 479.88,-488.44 502.66,-459.99 515.71,-441.28"/>
<polygon fill="midnightblue" stroke="midnightblue" points="518.77,-443 521.46,-432.75 512.97,-439.08 518.77,-443"/>
</g>
<!-- Node34&#45;&gt;Node22 -->
<g id="edge43" class="edge">
<title>Node34&#45;&gt;Node22</title>
<path fill="none" stroke="midnightblue" d="M565.27,-422.4C615.82,-421.56 708.78,-420 769.6,-418.98"/>
<polygon fill="midnightblue" stroke="midnightblue" points="769.88,-422.48 779.82,-418.81 769.77,-415.48 769.88,-422.48"/>
</g>
<!-- Node35 -->
<g id="node35" class="node">
<title>Node35</title>
<g id="a_node35"><a xlink:href="class_type.html#a5b8adffb334040c53940ecf814ebcc65" target="_top" xlink:title=" ">
<polygon fill="white" stroke="black" points="626.5,-379.5 626.5,-398.5 721.5,-398.5 721.5,-379.5 626.5,-379.5"/>
<text text-anchor="middle" x="674" y="-386.5" font-family="Helvetica,sans-Serif" font-size="10.00">Type::_getString</text>
</a>
</g>
</g>
<!-- Node34&#45;&gt;Node35 -->
<g id="edge42" class="edge">
<title>Node34&#45;&gt;Node35</title>
<path fill="none" stroke="midnightblue" d="M565.34,-414.51C582.72,-410.39 603.89,-405.37 622.84,-400.88"/>
<polygon fill="midnightblue" stroke="midnightblue" points="623.89,-404.23 632.81,-398.52 622.27,-397.42 623.89,-404.23"/>
</g>
<!-- Node37 -->
<g id="node37" class="node">
<title>Node37</title>
<g id="a_node37"><a xlink:href="utils_8h.html#aaaee605fe46abaa420448438d89b22ed" target="_top" xlink:title=" ">
<polygon fill="white" stroke="black" points="498.5,-589.5 498.5,-608.5 558.5,-608.5 558.5,-589.5 498.5,-589.5"/>
<text text-anchor="middle" x="528.5" y="-596.5" font-family="Helvetica,sans-Serif" font-size="10.00">isQuoted</text>
</a>
</g>
</g>
<!-- Node36&#45;&gt;Node37 -->
<g id="edge45" class="edge">
<title>Node36&#45;&gt;Node37</title>
<path fill="none" stroke="midnightblue" d="M409.82,-599C433.95,-599 464.35,-599 488.21,-599"/>
<polygon fill="midnightblue" stroke="midnightblue" points="488.33,-602.5 498.33,-599 488.33,-595.5 488.33,-602.5"/>
</g>
<!-- Node41 -->
<g id="node41" class="node">
<title>Node41</title>
<g id="a_node41"><a xlink:href="utils_8h.html#a47084ee818936eef3c48be492c0e860f" target="_top" xlink:title=" ">
<polygon fill="white" stroke="black" points="508.5,-328.5 508.5,-347.5 548.5,-347.5 548.5,-328.5 508.5,-328.5"/>
<text text-anchor="middle" x="528.5" y="-335.5" font-family="Helvetica,sans-Serif" font-size="10.00">ltrim</text>
</a>
</g>
</g>
<!-- Node40&#45;&gt;Node41 -->
<g id="edge50" class="edge">
<title>Node40&#45;&gt;Node41</title>
<path fill="none" stroke="midnightblue" d="M386.57,-367.34C413.62,-361.71 465.78,-350.85 498.49,-344.04"/>
<polygon fill="midnightblue" stroke="midnightblue" points="499.3,-347.45 508.38,-341.98 497.87,-340.59 499.3,-347.45"/>
</g>
<!-- Node42 -->
<g id="node42" class="node">
<title>Node42</title>
<g id="a_node42"><a xlink:href="utils_8h.html#af6d6bd5c29782e3b958b5f7c0d1ea9e3" target="_top" xlink:title=" ">
<polygon fill="white" stroke="black" points="508,-366.5 508,-385.5 549,-385.5 549,-366.5 508,-366.5"/>
<text text-anchor="middle" x="528.5" y="-373.5" font-family="Helvetica,sans-Serif" font-size="10.00">rtrim</text>
</a>
</g>
</g>
<!-- Node40&#45;&gt;Node42 -->
<g id="edge51" class="edge">
<title>Node40&#45;&gt;Node42</title>
<path fill="none" stroke="midnightblue" d="M386.57,-371.55C413.36,-372.4 464.77,-374.02 497.54,-375.05"/>
<polygon fill="midnightblue" stroke="midnightblue" points="497.77,-378.56 507.87,-375.38 497.99,-371.57 497.77,-378.56"/>
</g>
</g>
</svg>
        <g id="navigator" transform="translate(0 0)" fill="#404254">
                <rect fill="#f2f5e9" fill-opacity="0.5" stroke="#606060" stroke-width=".5" x="0" y="0" width="60" height="60"/>
                <use id="zoomplus" xlink:href="#zoomPlus" x="17" y="9" onmousedown="handleZoom(evt,'in')"/>
                <use id="zoomminus" xlink:href="#zoomMin" x="42" y="9" onmousedown="handleZoom(evt,'out')"/>
                <use id="reset" xlink:href="#resetDef" x="30" y="36" onmousedown="handleReset()"/>
                <g id="arrowUp" xlink:href="#dirArrow" transform="translate(30 24)" onmousedown="handlePan(0,-1)">
                  <use xlink:href="#rim" fill="#404040">
                        <set attributeName="fill" to="#808080" begin="arrowUp.mouseover" end="arrowUp.mouseout"/>
                  </use>
                  <path fill="none" stroke="white" stroke-width="1.5" d="M0,-3.0v7 M-2.5,-0.5L0,-3.0L2.5,-0.5"/>
                </g>
                <g id="arrowRight" xlink:href="#dirArrow" transform="rotate(90) translate(36 -43)" onmousedown="handlePan(1,0)">
                  <use xlink:href="#rim" fill="#404040">
                        <set attributeName="fill" to="#808080" begin="arrowRight.mouseover" end="arrowRight.mouseout"/>
                  </use>
                  <path fill="none" stroke="white" stroke-width="1.5" d="M0,-3.0v7 M-2.5,-0.5L0,-3.0L2.5,-0.5"/>
                </g>
                <g id="arrowDown" xlink:href="#dirArrow" transform="rotate(180) translate(-30 -48)" onmousedown="handlePan(0,1)">
                  <use xlink:href="#rim" fill="#404040">
                        <set attributeName="fill" to="#808080" begin="arrowDown.mouseover" end="arrowDown.mouseout"/>
                  </use>
                  <path fill="none" stroke="white" stroke-width="1.5" d="M0,-3.0v7 M-2.5,-0.5L0,-3.0L2.5,-0.5"/>
                </g>
                <g id="arrowLeft" xlink:href="#dirArrow" transform="rotate(270) translate(-36 17)" onmousedown="handlePan(-1,0)">
                  <use xlink:href="#rim" fill="#404040">
                        <set attributeName="fill" to="#808080" begin="arrowLeft.mouseover" end="arrowLeft.mouseout"/>
                  </use>
                  <path fill="none" stroke="white" stroke-width="1.5" d="M0,-3.0v7 M-2.5,-0.5L0,-3.0L2.5,-0.5"/>
                </g>
        </g>
        <svg viewBox="0 0 15 15" width="100%" height="30px" preserveAspectRatio="xMaxYMin meet">
         <g id="arrow_out" transform="scale(0.3 0.3)">
          <a xlink:href="class_export_a59ba705b2369f21006ec7d7b7f3a4513_cgraph_org.svg" target="_base">
           <rect id="button" ry="5" rx="5" y="6" x="6" height="38" width="38"
                fill="#f2f5e9" fill-opacity="0.5" stroke="#606060" stroke-width="1.0"/>
           <path id="arrow"
             d="M 11.500037,31.436501 C 11.940474,20.09759 22.043105,11.32322 32.158766,21.979434 L 37.068811,17.246167 C 37.068811,17.246167 37.088388,32 37.088388,32 L 22.160133,31.978069 C 22.160133,31.978069 26.997745,27.140456 26.997745,27.140456 C 18.528582,18.264221 13.291696,25.230495 11.500037,31.436501 z"
             style="fill:#404040;"/>
          </a>
         </g>
        </svg>
</svg>
