<?xml version="1.0" encoding="UTF-8" standalone="no"?>
<!DOCTYPE svg PUBLIC "-//W3C//DTD SVG 1.1//EN"
 "http://www.w3.org/Graphics/SVG/1.1/DTD/svg11.dtd">
<!-- Generated by graphviz version 2.43.0 (0)
 -->
<!-- Title: Term Pages: 1 -->
<svg width="106pt" height="205pt"
 viewBox="0.00 0.00 106.00 205.00" xmlns="http://www.w3.org/2000/svg" xmlns:xlink="http://www.w3.org/1999/xlink">
<g id="graph0" class="graph" transform="scale(1 1) rotate(0) translate(4 201)">
<title>Term</title>
<polygon fill="white" stroke="transparent" points="-4,4 -4,-201 102,-201 102,4 -4,4"/>
<!-- Node1 -->
<g id="node1" class="node">
<title>Node1</title>
<g id="a_node1"><a xlink:title="Control terminal colors and styles.">
<polygon fill="#bfbfbf" stroke="black" points="8.5,-0.5 8.5,-19.5 49.5,-19.5 49.5,-0.5 8.5,-0.5"/>
<text text-anchor="middle" x="29" y="-7.5" font-family="Helvetica,sans-Serif" font-size="10.00">Term</text>
</a>
</g>
</g>
<!-- Node2 -->
<g id="node2" class="node">
<title>Node2</title>
<g id="a_node2"><a xlink:href="class_term_opt.html" target="_top" xlink:title="Terminal option.">
<polygon fill="white" stroke="black" points="0,-177.5 0,-196.5 58,-196.5 58,-177.5 0,-177.5"/>
<text text-anchor="middle" x="29" y="-184.5" font-family="Helvetica,sans-Serif" font-size="10.00">TermOpt</text>
</a>
</g>
</g>
<!-- Node2&#45;&gt;Node1 -->
<g id="edge1" class="edge">
<title>Node2&#45;&gt;Node1</title>
<path fill="none" stroke="#9a32cd" stroke-dasharray="5,2" d="M29,-166.95C29,-129.3 29,-46.65 29,-19.69"/>
<polygon fill="#9a32cd" stroke="#9a32cd" points="25.5,-167.08 29,-177.08 32.5,-167.08 25.5,-167.08"/>
<text text-anchor="middle" x="63.5" y="-151" font-family="Helvetica,sans-Serif" font-size="10.00"> BF</text>
<text text-anchor="middle" x="63.5" y="-140" font-family="Helvetica,sans-Serif" font-size="10.00">BG_BLACK</text>
<text text-anchor="middle" x="63.5" y="-129" font-family="Helvetica,sans-Serif" font-size="10.00">BG_BLUE</text>
<text text-anchor="middle" x="63.5" y="-118" font-family="Helvetica,sans-Serif" font-size="10.00">BG_CYAN</text>
<text text-anchor="middle" x="63.5" y="-107" font-family="Helvetica,sans-Serif" font-size="10.00">BG_DEFAULT</text>
<text text-anchor="middle" x="63.5" y="-96" font-family="Helvetica,sans-Serif" font-size="10.00">BG_GREEN</text>
<text text-anchor="middle" x="63.5" y="-85" font-family="Helvetica,sans-Serif" font-size="10.00">BG_MAGENTA</text>
<text text-anchor="middle" x="63.5" y="-74" font-family="Helvetica,sans-Serif" font-size="10.00">BG_RED</text>
<text text-anchor="middle" x="63.5" y="-63" font-family="Helvetica,sans-Serif" font-size="10.00">BG_WHITE</text>
<text text-anchor="middle" x="63.5" y="-52" font-family="Helvetica,sans-Serif" font-size="10.00">BG_YELLOW</text>
<text text-anchor="middle" x="63.5" y="-41" font-family="Helvetica,sans-Serif" font-size="10.00">...</text>
</g>
</g>
</svg>
