<?xml version="1.0" encoding="UTF-8" standalone="no"?>
<!DOCTYPE svg PUBLIC "-//W3C//DTD SVG 1.1//EN"
 "http://www.w3.org/Graphics/SVG/1.1/DTD/svg11.dtd">
<!-- Generated by graphviz version 2.43.0 (0)
 -->
<!-- Title: Log::err Pages: 1 -->
<!--zoomable 702 -->
<svg id="main" version="1.1" xmlns="http://www.w3.org/2000/svg" xmlns:xlink="http://www.w3.org/1999/xlink" xml:space="preserve" onload="init(evt)">
<style type="text/css"><![CDATA[
.edge:hover path { stroke: red; }
.edge:hover polygon { stroke: red; fill: red; }
]]></style>
<script type="text/javascript"><![CDATA[
var edges = document.getElementsByTagName('g');
if (edges && edges.length) {
  for (var i=0;i<edges.length;i++) {
    if (edges[i].id.substr(0,4)=='edge') {
      edges[i].setAttribute('class','edge');
    }
  }
}
]]></script>
        <defs>
                <circle id="rim" cx="0" cy="0" r="7"/>
                <circle id="rim2" cx="0" cy="0" r="3.5"/>
                <g id="zoomPlus">
                        <use xlink:href="#rim" fill="#404040">
                                <set attributeName="fill" to="#808080" begin="zoomplus.mouseover" end="zoomplus.mouseout"/>
                        </use>
                        <path d="M-4,0h8M0,-4v8" fill="none" stroke="white" stroke-width="1.5" pointer-events="none"/>
                </g>
                <g id="zoomMin">
                        <use xlink:href="#rim" fill="#404040">
                                <set attributeName="fill" to="#808080" begin="zoomminus.mouseover" end="zoomminus.mouseout"/>
                        </use>
                        <path d="M-4,0h8" fill="none" stroke="white" stroke-width="1.5" pointer-events="none"/>
                </g>
                <g id="dirArrow">
                        <path fill="none" stroke="white" stroke-width="1.5" d="M0,-3.0v7 M-2.5,-0.5L0,-3.0L2.5,-0.5"/>
                </g>
               <g id="resetDef">
                       <use xlink:href="#rim2" fill="#404040">
                               <set attributeName="fill" to="#808080" begin="reset.mouseover" end="reset.mouseout"/>
                       </use>
               </g>
        </defs>

<script type="text/javascript">
var viewWidth = 1445;
var viewHeight = 702;
var sectionId = 'dynsection-1';
</script>
<script xlink:href="svgpan.js"/>
<svg id="graph" class="graph">
<g id="viewport">
<title>Log::err</title>
<polygon fill="white" stroke="transparent" points="-4,4 -4,-697.71 1441,-697.71 1441,4 -4,4"/>
<!-- Node1 -->
<g id="node1" class="node">
<title>Node1</title>
<g id="a_node1"><a xlink:title="Write error message to the log file.">
<polygon fill="#bfbfbf" stroke="black" points="1384,-323.5 1384,-342.5 1437,-342.5 1437,-323.5 1384,-323.5"/>
<text text-anchor="middle" x="1410.5" y="-330.5" font-family="Helvetica,sans-Serif" font-size="10.00">Log::err</text>
</a>
</g>
</g>
<!-- Node2 -->
<g id="node2" class="node">
<title>Node2</title>
<g id="a_node2"><a xlink:href="class_calc.html#ad562619fef96a73cd3b4c27b35bc5f91" target="_top" xlink:title=" ">
<polygon fill="white" stroke="black" points="1200.5,-542.5 1200.5,-561.5 1330.5,-561.5 1330.5,-542.5 1200.5,-542.5"/>
<text text-anchor="middle" x="1265.5" y="-549.5" font-family="Helvetica,sans-Serif" font-size="10.00">Calc::_changeSubScript</text>
</a>
</g>
</g>
<!-- Node1&#45;&gt;Node2 -->
<g id="edge1" class="edge">
<title>Node1&#45;&gt;Node2</title>
<path fill="none" stroke="midnightblue" d="M1408.19,-352.9C1404.72,-390.02 1392.24,-470.34 1348,-518 1337.26,-529.57 1321.96,-537.34 1307.52,-542.48"/>
<polygon fill="midnightblue" stroke="midnightblue" points="1411.68,-353.11 1409,-342.86 1404.71,-352.54 1411.68,-353.11"/>
</g>
<!-- Node10 -->
<g id="node10" class="node">
<title>Node10</title>
<g id="a_node10"><a xlink:href="src_2main_8cpp.html#a0ddf1224851353fc92bfbff6f499fa97" target="_top" xlink:title=" ">
<polygon fill="white" stroke="black" points="34.5,-342.5 34.5,-361.5 75.5,-361.5 75.5,-342.5 34.5,-342.5"/>
<text text-anchor="middle" x="55" y="-349.5" font-family="Helvetica,sans-Serif" font-size="10.00">main</text>
</a>
</g>
</g>
<!-- Node1&#45;&gt;Node10 -->
<g id="edge37" class="edge">
<title>Node1&#45;&gt;Node10</title>
<path fill="none" stroke="midnightblue" d="M1399.94,-314.36C1389.69,-296.44 1371.63,-270.19 1348,-257 1304.62,-232.78 954.18,-200 904.5,-200 904.5,-200 904.5,-200 371.5,-200 268.55,-200 234.73,-200.78 146,-253 106.56,-276.21 74.53,-322.32 61.85,-342.35"/>
<polygon fill="midnightblue" stroke="midnightblue" points="1396.97,-316.21 1404.82,-323.32 1403.11,-312.86 1396.97,-316.21"/>
</g>
<!-- Node13 -->
<g id="node13" class="node">
<title>Node13</title>
<g id="a_node13"><a xlink:href="class_export.html#a59ba705b2369f21006ec7d7b7f3a4513" target="_top" xlink:title="Generate RIS reflection matrices.">
<polygon fill="white" stroke="black" points="489,-494.5 489,-513.5 605,-513.5 605,-494.5 489,-494.5"/>
<text text-anchor="middle" x="547" y="-501.5" font-family="Helvetica,sans-Serif" font-size="10.00">Export::_generateBF</text>
</a>
</g>
</g>
<!-- Node1&#45;&gt;Node13 -->
<g id="edge25" class="edge">
<title>Node1&#45;&gt;Node13</title>
<path fill="none" stroke="midnightblue" d="M1407.43,-352.82C1402.91,-384.98 1389.05,-447.94 1348,-478 1249.31,-550.28 1196.32,-504 1074,-504 1074,-504 1074,-504 902.5,-504 797.57,-504 675.16,-504 605.1,-504"/>
<polygon fill="midnightblue" stroke="midnightblue" points="1410.91,-353.19 1408.66,-342.84 1403.96,-352.33 1410.91,-353.19"/>
</g>
<!-- Node15 -->
<g id="node15" class="node">
<title>Node15</title>
<g id="a_node15"><a xlink:href="class_export.html#a966a54f05ada435d6d1ce6e4a9750f41" target="_top" xlink:title=" ">
<polygon fill="white" stroke="black" points="641,-646.5 641,-665.5 808,-665.5 808,-646.5 641,-646.5"/>
<text text-anchor="middle" x="724.5" y="-653.5" font-family="Helvetica,sans-Serif" font-size="10.00">Export::_checkALGdependency</text>
</a>
</g>
</g>
<!-- Node1&#45;&gt;Node15 -->
<g id="edge21" class="edge">
<title>Node1&#45;&gt;Node15</title>
<path fill="none" stroke="midnightblue" d="M1407.62,-352.77C1402.01,-407.17 1383.55,-557.22 1348,-589 1179.05,-740.06 872.38,-689.5 764.39,-665.54"/>
<polygon fill="midnightblue" stroke="midnightblue" points="1411.11,-352.98 1408.62,-342.68 1404.15,-352.29 1411.11,-352.98"/>
</g>
<!-- Node17 -->
<g id="node17" class="node">
<title>Node17</title>
<g id="a_node17"><a xlink:href="class_export.html#ad7268f886ac4826f4b6ea738e423e520" target="_top" xlink:title=" ">
<polygon fill="white" stroke="black" points="999,-456.5 999,-475.5 1147,-475.5 1147,-456.5 999,-456.5"/>
<text text-anchor="middle" x="1073" y="-463.5" font-family="Helvetica,sans-Serif" font-size="10.00">Export::_generateChannels</text>
</a>
</g>
</g>
<!-- Node1&#45;&gt;Node17 -->
<g id="edge26" class="edge">
<title>Node1&#45;&gt;Node17</title>
<path fill="none" stroke="midnightblue" d="M1405.07,-352.82C1398,-379.32 1381.41,-425.46 1348,-447 1278.97,-491.51 1178.78,-484.72 1120.62,-475.52"/>
<polygon fill="midnightblue" stroke="midnightblue" points="1408.55,-353.34 1407.54,-342.79 1401.75,-351.66 1408.55,-353.34"/>
</g>
<!-- Node18 -->
<g id="node18" class="node">
<title>Node18</title>
<g id="a_node18"><a xlink:href="class_alg___line.html#a0047f4df72a2d10ebb74701c3d05bafc" target="_top" xlink:title="Process function name and parameter variables.">
<polygon fill="white" stroke="black" points="1183,-190.5 1183,-209.5 1348,-209.5 1348,-190.5 1183,-190.5"/>
<text text-anchor="middle" x="1265.5" y="-197.5" font-family="Helvetica,sans-Serif" font-size="10.00">Alg_Line::_processFuncParams</text>
</a>
</g>
</g>
<!-- Node1&#45;&gt;Node18 -->
<g id="edge28" class="edge">
<title>Node1&#45;&gt;Node18</title>
<path fill="none" stroke="midnightblue" d="M1403.63,-313.58C1395.24,-289.11 1377.48,-247.44 1348,-224 1340.03,-217.67 1330.44,-213 1320.68,-209.57"/>
<polygon fill="midnightblue" stroke="midnightblue" points="1400.33,-314.76 1406.74,-323.2 1406.99,-312.61 1400.33,-314.76"/>
</g>
<!-- Node19 -->
<g id="node19" class="node">
<title>Node19</title>
<g id="a_node19"><a xlink:href="class_alg___line.html#a4f478c53dbfaecf16d55be668d959562" target="_top" xlink:title="Construct a new Alg_Line object. Process string at the same time.">
<polygon fill="white" stroke="black" points="1020.5,-152.5 1020.5,-171.5 1125.5,-171.5 1125.5,-152.5 1020.5,-152.5"/>
<text text-anchor="middle" x="1073" y="-159.5" font-family="Helvetica,sans-Serif" font-size="10.00">Alg_Line::Alg_Line</text>
</a>
</g>
</g>
<!-- Node1&#45;&gt;Node19 -->
<g id="edge30" class="edge">
<title>Node1&#45;&gt;Node19</title>
<path fill="none" stroke="midnightblue" d="M1407.95,-313.1C1404.16,-279.57 1391.28,-212.41 1348,-181 1279.11,-131.01 1173.08,-141.49 1115.19,-152.42"/>
<polygon fill="midnightblue" stroke="midnightblue" points="1404.5,-313.82 1408.94,-323.44 1411.47,-313.15 1404.5,-313.82"/>
</g>
<!-- Node20 -->
<g id="node20" class="node">
<title>Node20</title>
<g id="a_node20"><a xlink:href="class_channel___graph.html#ac8aeff35f809d61816b2e1fadde523bf" target="_top" xlink:title=" ">
<polygon fill="white" stroke="black" points="1198.5,-418.5 1198.5,-437.5 1332.5,-437.5 1332.5,-418.5 1198.5,-418.5"/>
<text text-anchor="middle" x="1265.5" y="-425.5" font-family="Helvetica,sans-Serif" font-size="10.00">Channel_Graph::arrange</text>
</a>
</g>
</g>
<!-- Node1&#45;&gt;Node20 -->
<g id="edge31" class="edge">
<title>Node1&#45;&gt;Node20</title>
<path fill="none" stroke="midnightblue" d="M1399.48,-351.42C1388.97,-368.95 1370.81,-394.7 1348,-409 1341.84,-412.86 1334.98,-415.93 1327.93,-418.38"/>
<polygon fill="midnightblue" stroke="midnightblue" points="1402.57,-353.07 1404.51,-342.65 1396.5,-349.58 1402.57,-353.07"/>
</g>
<!-- Node22 -->
<g id="node22" class="node">
<title>Node22</title>
<g id="a_node22"><a xlink:href="error__code_8h.html#a19ac3b5328ffcb7b241c272b98d3f002" target="_top" xlink:title="Print error message and exit with exit code.">
<polygon fill="white" stroke="black" points="1236,-380.5 1236,-399.5 1295,-399.5 1295,-380.5 1236,-380.5"/>
<text text-anchor="middle" x="1265.5" y="-387.5" font-family="Helvetica,sans-Serif" font-size="10.00">errorExit</text>
</a>
</g>
</g>
<!-- Node1&#45;&gt;Node22 -->
<g id="edge34" class="edge">
<title>Node1&#45;&gt;Node22</title>
<path fill="none" stroke="midnightblue" d="M1376.03,-346.34C1349.8,-356.8 1313.95,-371.09 1290.51,-380.43"/>
<polygon fill="midnightblue" stroke="midnightblue" points="1377.57,-349.49 1385.57,-342.54 1374.98,-342.99 1377.57,-349.49"/>
</g>
<!-- Node23 -->
<g id="node23" class="node">
<title>Node23</title>
<g id="a_node23"><a xlink:href="class_type___track.html#af8662cb8617cd3a968d9aaebbd24cd82" target="_top" xlink:title=" ">
<polygon fill="white" stroke="black" points="1203,-114.5 1203,-133.5 1328,-133.5 1328,-114.5 1203,-114.5"/>
<text text-anchor="middle" x="1265.5" y="-121.5" font-family="Helvetica,sans-Serif" font-size="10.00">Type_Track::operator&#45;&#45;</text>
</a>
</g>
</g>
<!-- Node1&#45;&gt;Node23 -->
<g id="edge38" class="edge">
<title>Node1&#45;&gt;Node23</title>
<path fill="none" stroke="midnightblue" d="M1408.7,-313.17C1406.08,-275.51 1394.99,-193.39 1348,-148 1341.42,-141.65 1333.25,-136.96 1324.64,-133.51"/>
<polygon fill="midnightblue" stroke="midnightblue" points="1405.21,-313.55 1409.27,-323.33 1412.2,-313.15 1405.21,-313.55"/>
</g>
<!-- Node24 -->
<g id="node24" class="node">
<title>Node24</title>
<g id="a_node24"><a xlink:href="class_simulate.html#a03ef6895241e8accb07491e98bbfcf0c" target="_top" xlink:title=" ">
<polygon fill="white" stroke="black" points="1211,-266.5 1211,-285.5 1320,-285.5 1320,-266.5 1211,-266.5"/>
<text text-anchor="middle" x="1265.5" y="-273.5" font-family="Helvetica,sans-Serif" font-size="10.00">Simulate::simulate</text>
</a>
</g>
</g>
<!-- Node1&#45;&gt;Node24 -->
<g id="edge39" class="edge">
<title>Node1&#45;&gt;Node24</title>
<path fill="none" stroke="midnightblue" d="M1376.03,-319.66C1349.8,-309.2 1313.95,-294.91 1290.51,-285.57"/>
<polygon fill="midnightblue" stroke="midnightblue" points="1374.98,-323.01 1385.57,-323.46 1377.57,-316.51 1374.98,-323.01"/>
</g>
<!-- Node26 -->
<g id="node26" class="node">
<title>Node26</title>
<g id="a_node26"><a xlink:href="class_style.html#a06fd4016b36d2fa2e46c8c092701c7ea" target="_top" xlink:title="Call the astyle child process to style the generated C++ code.">
<polygon fill="white" stroke="black" points="1230,-323.5 1230,-342.5 1301,-342.5 1301,-323.5 1230,-323.5"/>
<text text-anchor="middle" x="1265.5" y="-330.5" font-family="Helvetica,sans-Serif" font-size="10.00">Style::style</text>
</a>
</g>
</g>
<!-- Node1&#45;&gt;Node26 -->
<g id="edge42" class="edge">
<title>Node1&#45;&gt;Node26</title>
<path fill="none" stroke="midnightblue" d="M1373.91,-333C1351.71,-333 1323.28,-333 1301.25,-333"/>
<polygon fill="midnightblue" stroke="midnightblue" points="1373.93,-336.5 1383.93,-333 1373.93,-329.5 1373.93,-336.5"/>
</g>
<!-- Node28 -->
<g id="node28" class="node">
<title>Node28</title>
<g id="a_node28"><a xlink:href="struct_x_y___size.html#a4a5192df22d9d6bc1793eabc6ae1ffa0" target="_top" xlink:title=" ">
<polygon fill="white" stroke="black" points="1229,-76.5 1229,-95.5 1302,-95.5 1302,-76.5 1229,-76.5"/>
<text text-anchor="middle" x="1265.5" y="-83.5" font-family="Helvetica,sans-Serif" font-size="10.00">XY_Size::xy</text>
</a>
</g>
</g>
<!-- Node1&#45;&gt;Node28 -->
<g id="edge45" class="edge">
<title>Node1&#45;&gt;Node28</title>
<path fill="none" stroke="midnightblue" d="M1406.8,-313.3C1399.58,-263.46 1378.29,-134.27 1348,-105 1335.88,-93.29 1318.01,-88.29 1302.09,-86.33"/>
<polygon fill="midnightblue" stroke="midnightblue" points="1403.37,-314 1408.23,-323.41 1410.3,-313.02 1403.37,-314"/>
</g>
<!-- Node2&#45;&gt;Node2 -->
<g id="edge2" class="edge">
<title>Node2&#45;&gt;Node2</title>
<path fill="none" stroke="midnightblue" d="M1292.38,-570.65C1291.26,-575.94 1282.3,-580 1265.5,-580 1239.91,-580 1232.51,-570.57 1243.31,-561.76"/>
<polygon fill="midnightblue" stroke="midnightblue" points="1295.45,-568.97 1287.69,-561.76 1289.26,-572.24 1295.45,-568.97"/>
</g>
<!-- Node3 -->
<g id="node3" class="node">
<title>Node3</title>
<g id="a_node3"><a xlink:href="class_calc.html#ad6dbdfdd4bd21322e5836ff72c11ae1b" target="_top" xlink:title="Convert the Alg CALC contents into a language command.">
<polygon fill="white" stroke="black" points="1045.5,-551.5 1045.5,-570.5 1100.5,-570.5 1100.5,-551.5 1045.5,-551.5"/>
<text text-anchor="middle" x="1073" y="-558.5" font-family="Helvetica,sans-Serif" font-size="10.00">Calc::as</text>
</a>
</g>
</g>
<!-- Node2&#45;&gt;Node3 -->
<g id="edge3" class="edge">
<title>Node2&#45;&gt;Node3</title>
<path fill="none" stroke="midnightblue" d="M1190.18,-555.51C1158.71,-557 1124.03,-558.64 1100.83,-559.73"/>
<polygon fill="midnightblue" stroke="midnightblue" points="1190.45,-559 1200.27,-555.03 1190.12,-552.01 1190.45,-559"/>
</g>
<!-- Node4 -->
<g id="node4" class="node">
<title>Node4</title>
<g id="a_node4"><a xlink:href="class_calc.html#ad26b51e3caa182fb7cb4d8e5c03ca8b1" target="_top" xlink:title=" ">
<polygon fill="white" stroke="black" points="876,-532.5 876,-551.5 931,-551.5 931,-532.5 876,-532.5"/>
<text text-anchor="middle" x="903.5" y="-539.5" font-family="Helvetica,sans-Serif" font-size="10.00">Calc::as</text>
</a>
</g>
</g>
<!-- Node3&#45;&gt;Node4 -->
<g id="edge4" class="edge">
<title>Node3&#45;&gt;Node4</title>
<path fill="none" stroke="midnightblue" d="M1035.34,-556.84C1003.9,-553.28 959.35,-548.22 931.19,-545.03"/>
<polygon fill="midnightblue" stroke="midnightblue" points="1035.13,-560.34 1045.46,-557.99 1035.92,-553.38 1035.13,-560.34"/>
</g>
<!-- Node5 -->
<g id="node5" class="node">
<title>Node5</title>
<g id="a_node5"><a xlink:href="class_alg.html#a3ee7f9963027158b3fbd442d97800111" target="_top" xlink:title=" ">
<polygon fill="white" stroke="black" points="860.5,-608.5 860.5,-627.5 946.5,-627.5 946.5,-608.5 860.5,-608.5"/>
<text text-anchor="middle" x="903.5" y="-615.5" font-family="Helvetica,sans-Serif" font-size="10.00">Alg::inlineCalc</text>
</a>
</g>
</g>
<!-- Node3&#45;&gt;Node5 -->
<g id="edge5" class="edge">
<title>Node3&#45;&gt;Node5</title>
<path fill="none" stroke="midnightblue" d="M1035.9,-573.28C1004.95,-583.82 960.98,-598.78 932.59,-608.44"/>
<polygon fill="midnightblue" stroke="midnightblue" points="1037.12,-576.57 1045.46,-570.03 1034.86,-569.94 1037.12,-576.57"/>
</g>
<!-- Node6 -->
<g id="node6" class="node">
<title>Node6</title>
<g id="a_node6"><a xlink:href="class_alg.html#ada1e8215f047b4ffd736e811b5ea3162" target="_top" xlink:title=" ">
<polygon fill="white" stroke="black" points="693,-570.5 693,-589.5 756,-589.5 756,-570.5 693,-570.5"/>
<text text-anchor="middle" x="724.5" y="-577.5" font-family="Helvetica,sans-Serif" font-size="10.00">Alg::write</text>
</a>
</g>
</g>
<!-- Node3&#45;&gt;Node6 -->
<g id="edge20" class="edge">
<title>Node3&#45;&gt;Node6</title>
<path fill="none" stroke="midnightblue" d="M1035.04,-563.03C966.25,-566.8 819.8,-574.83 756.13,-578.32"/>
<polygon fill="midnightblue" stroke="midnightblue" points="1035.59,-566.5 1045.39,-562.46 1035.21,-559.51 1035.59,-566.5"/>
</g>
<!-- Node5&#45;&gt;Node6 -->
<g id="edge6" class="edge">
<title>Node5&#45;&gt;Node6</title>
<path fill="none" stroke="midnightblue" d="M850.03,-606.74C819.47,-600.17 782,-592.13 756.19,-586.59"/>
<polygon fill="midnightblue" stroke="midnightblue" points="849.59,-610.22 860.1,-608.9 851.06,-603.38 849.59,-610.22"/>
</g>
<!-- Node6&#45;&gt;Node6 -->
<g id="edge19" class="edge">
<title>Node6&#45;&gt;Node6</title>
<path fill="none" stroke="midnightblue" d="M757.48,-597.89C757,-603.54 746.01,-608 724.5,-608 693.22,-608 684.18,-598.57 697.37,-589.76"/>
<polygon fill="midnightblue" stroke="midnightblue" points="760.31,-595.83 751.63,-589.76 754.63,-599.92 760.31,-595.83"/>
</g>
<!-- Node7 -->
<g id="node7" class="node">
<title>Node7</title>
<g id="a_node7"><a xlink:href="class_export.html#a89d3ae54dd2261cf35be148011b79fe4" target="_top" xlink:title=" ">
<polygon fill="white" stroke="black" points="316.5,-608.5 316.5,-627.5 428.5,-627.5 428.5,-608.5 316.5,-608.5"/>
<text text-anchor="middle" x="372.5" y="-615.5" font-family="Helvetica,sans-Serif" font-size="10.00">Export::_algorithms</text>
</a>
</g>
</g>
<!-- Node6&#45;&gt;Node7 -->
<g id="edge7" class="edge">
<title>Node6&#45;&gt;Node7</title>
<path fill="none" stroke="midnightblue" d="M682.88,-587.31C660.06,-591.21 631.01,-595.85 605,-599 544.95,-606.27 475.79,-611.54 428.82,-614.66"/>
<polygon fill="midnightblue" stroke="midnightblue" points="683.64,-590.73 692.9,-585.57 682.45,-583.83 683.64,-590.73"/>
</g>
<!-- Node11 -->
<g id="node11" class="node">
<title>Node11</title>
<g id="a_node11"><a xlink:href="class_export.html#ae4811e1e4212029122c0ee29613714cc" target="_top" xlink:title=" ">
<polygon fill="white" stroke="black" points="491,-570.5 491,-589.5 603,-589.5 603,-570.5 491,-570.5"/>
<text text-anchor="middle" x="547" y="-577.5" font-family="Helvetica,sans-Serif" font-size="10.00">Export::_estimation</text>
</a>
</g>
</g>
<!-- Node6&#45;&gt;Node11 -->
<g id="edge11" class="edge">
<title>Node6&#45;&gt;Node11</title>
<path fill="none" stroke="midnightblue" d="M682.86,-580C659.13,-580 628.86,-580 603.02,-580"/>
<polygon fill="midnightblue" stroke="midnightblue" points="682.93,-583.5 692.93,-580 682.93,-576.5 682.93,-583.5"/>
</g>
<!-- Node12 -->
<g id="node12" class="node">
<title>Node12</title>
<g id="a_node12"><a xlink:href="class_export.html#a26fa49d9882a342d011ba715e0c14109" target="_top" xlink:title=" ">
<polygon fill="white" stroke="black" points="320.5,-513.5 320.5,-532.5 424.5,-532.5 424.5,-513.5 320.5,-513.5"/>
<text text-anchor="middle" x="372.5" y="-520.5" font-family="Helvetica,sans-Serif" font-size="10.00">Export::_sounding</text>
</a>
</g>
</g>
<!-- Node6&#45;&gt;Node12 -->
<g id="edge18" class="edge">
<title>Node6&#45;&gt;Node12</title>
<path fill="none" stroke="midnightblue" d="M682.62,-573.34C618.56,-562.91 494.63,-542.73 424.71,-531.34"/>
<polygon fill="midnightblue" stroke="midnightblue" points="682.31,-576.84 692.75,-574.99 683.44,-569.93 682.31,-576.84"/>
</g>
<!-- Node6&#45;&gt;Node13 -->
<g id="edge14" class="edge">
<title>Node6&#45;&gt;Node13</title>
<path fill="none" stroke="midnightblue" d="M692.44,-566.22C668.57,-555.66 634.75,-540.79 605,-528 593.85,-523.21 581.44,-517.97 571.05,-513.61"/>
<polygon fill="midnightblue" stroke="midnightblue" points="691.14,-569.47 701.7,-570.32 693.97,-563.07 691.14,-569.47"/>
</g>
<!-- Node14 -->
<g id="node14" class="node">
<title>Node14</title>
<g id="a_node14"><a xlink:href="class_export.html#a833aa02973f6b5c1f3e536e8646cf1ac" target="_top" xlink:title=" ">
<polygon fill="white" stroke="black" points="497,-646.5 497,-665.5 597,-665.5 597,-646.5 497,-646.5"/>
<text text-anchor="middle" x="547" y="-653.5" font-family="Helvetica,sans-Serif" font-size="10.00">Export::_loadALG</text>
</a>
</g>
</g>
<!-- Node6&#45;&gt;Node14 -->
<g id="edge16" class="edge">
<title>Node6&#45;&gt;Node14</title>
<path fill="none" stroke="midnightblue" d="M692.44,-593.78C668.57,-604.34 634.75,-619.21 605,-632 593.85,-636.79 581.44,-642.03 571.05,-646.39"/>
<polygon fill="midnightblue" stroke="midnightblue" points="693.97,-596.93 701.7,-589.68 691.14,-590.53 693.97,-596.93"/>
</g>
<!-- Node8 -->
<g id="node8" class="node">
<title>Node8</title>
<g id="a_node8"><a xlink:href="class_export.html#affc37d1d677a83d3e5d36a4e37b7a72b" target="_top" xlink:title=" ">
<polygon fill="white" stroke="black" points="146,-494.5 146,-513.5 256,-513.5 256,-494.5 146,-494.5"/>
<text text-anchor="middle" x="201" y="-501.5" font-family="Helvetica,sans-Serif" font-size="10.00">Export::exportCode</text>
</a>
</g>
</g>
<!-- Node7&#45;&gt;Node8 -->
<g id="edge8" class="edge">
<title>Node7&#45;&gt;Node8</title>
<path fill="none" stroke="midnightblue" d="M348.65,-602.63C313.2,-578.79 245.97,-533.57 216.48,-513.74"/>
<polygon fill="midnightblue" stroke="midnightblue" points="347.09,-605.8 357.34,-608.48 351,-599.99 347.09,-605.8"/>
</g>
<!-- Node9 -->
<g id="node9" class="node">
<title>Node9</title>
<g id="a_node9"><a xlink:href="class_export.html#a94fab568af6ddd6447efca74e205e081" target="_top" xlink:title=" ">
<polygon fill="white" stroke="black" points="0,-494.5 0,-513.5 110,-513.5 110,-494.5 0,-494.5"/>
<text text-anchor="middle" x="55" y="-501.5" font-family="Helvetica,sans-Serif" font-size="10.00">Export::exportCode</text>
</a>
</g>
</g>
<!-- Node8&#45;&gt;Node9 -->
<g id="edge9" class="edge">
<title>Node8&#45;&gt;Node9</title>
<path fill="none" stroke="midnightblue" d="M135.73,-504C127.25,-504 118.62,-504 110.33,-504"/>
<polygon fill="midnightblue" stroke="midnightblue" points="135.97,-507.5 145.97,-504 135.97,-500.5 135.97,-507.5"/>
</g>
<!-- Node8&#45;&gt;Node10 -->
<g id="edge10" class="edge">
<title>Node8&#45;&gt;Node10</title>
<path fill="none" stroke="midnightblue" d="M184.09,-487.21C153.82,-455.26 88.84,-386.67 65,-361.5"/>
<polygon fill="midnightblue" stroke="midnightblue" points="181.57,-489.64 190.99,-494.49 186.66,-484.83 181.57,-489.64"/>
</g>
<!-- Node11&#45;&gt;Node12 -->
<g id="edge12" class="edge">
<title>Node11&#45;&gt;Node12</title>
<path fill="none" stroke="midnightblue" d="M507.29,-567.21C475.52,-556.71 431.23,-542.08 402.47,-532.57"/>
<polygon fill="midnightblue" stroke="midnightblue" points="506.53,-570.65 517.13,-570.46 508.73,-564 506.53,-570.65"/>
</g>
<!-- Node12&#45;&gt;Node8 -->
<g id="edge13" class="edge">
<title>Node12&#45;&gt;Node8</title>
<path fill="none" stroke="midnightblue" d="M309.99,-516.11C292.35,-514.13 273.24,-511.99 256.08,-510.06"/>
<polygon fill="midnightblue" stroke="midnightblue" points="309.86,-519.61 320.18,-517.25 310.64,-512.66 309.86,-519.61"/>
</g>
<!-- Node13&#45;&gt;Node12 -->
<g id="edge15" class="edge">
<title>Node13&#45;&gt;Node12</title>
<path fill="none" stroke="midnightblue" d="M478.45,-511.44C460.54,-513.41 441.48,-515.51 424.6,-517.37"/>
<polygon fill="midnightblue" stroke="midnightblue" points="479,-514.9 488.56,-510.33 478.24,-507.94 479,-514.9"/>
</g>
<!-- Node14&#45;&gt;Node7 -->
<g id="edge17" class="edge">
<title>Node14&#45;&gt;Node7</title>
<path fill="none" stroke="midnightblue" d="M492.65,-644.25C468.26,-638.87 439.74,-632.59 416.72,-627.52"/>
<polygon fill="midnightblue" stroke="midnightblue" points="491.95,-647.68 502.47,-646.41 493.46,-640.84 491.95,-647.68"/>
</g>
<!-- Node15&#45;&gt;Node14 -->
<g id="edge22" class="edge">
<title>Node15&#45;&gt;Node14</title>
<path fill="none" stroke="midnightblue" d="M630.73,-656C619.17,-656 607.74,-656 597.22,-656"/>
<polygon fill="midnightblue" stroke="midnightblue" points="630.89,-659.5 640.89,-656 630.89,-652.5 630.89,-659.5"/>
</g>
<!-- Node16 -->
<g id="node16" class="node">
<title>Node16</title>
<g id="a_node16"><a xlink:href="class_export.html#af64597af0c0b4cf569f96216bcd23b2c" target="_top" xlink:title=" ">
<polygon fill="white" stroke="black" points="320.5,-665.5 320.5,-684.5 424.5,-684.5 424.5,-665.5 320.5,-665.5"/>
<text text-anchor="middle" x="372.5" y="-672.5" font-family="Helvetica,sans-Serif" font-size="10.00">Export::_reporting</text>
</a>
</g>
</g>
<!-- Node15&#45;&gt;Node16 -->
<g id="edge23" class="edge">
<title>Node15&#45;&gt;Node16</title>
<path fill="none" stroke="midnightblue" d="M665.22,-667.23C646.11,-670.41 624.72,-673.43 605,-675 543.1,-679.93 471.6,-678.91 424.63,-677.33"/>
<polygon fill="midnightblue" stroke="midnightblue" points="666.01,-670.65 675.28,-665.51 664.83,-663.75 666.01,-670.65"/>
</g>
<!-- Node16&#45;&gt;Node8 -->
<g id="edge24" class="edge">
<title>Node16&#45;&gt;Node8</title>
<path fill="none" stroke="midnightblue" d="M333.12,-661.55C319.2,-655.47 303.96,-647.3 292,-637 248.9,-599.89 217.34,-537.47 206.3,-513.64"/>
<polygon fill="midnightblue" stroke="midnightblue" points="331.92,-664.84 342.5,-665.43 334.6,-658.38 331.92,-664.84"/>
</g>
<!-- Node17&#45;&gt;Node8 -->
<g id="edge27" class="edge">
<title>Node17&#45;&gt;Node8</title>
<path fill="none" stroke="midnightblue" d="M988.88,-466C918.69,-466 815.52,-466 725.5,-466 725.5,-466 725.5,-466 546,-466 442.5,-466 322.54,-483.2 255.13,-494.46"/>
<polygon fill="midnightblue" stroke="midnightblue" points="988.99,-469.5 998.99,-466 988.99,-462.5 988.99,-469.5"/>
</g>
<!-- Node18&#45;&gt;Node19 -->
<g id="edge29" class="edge">
<title>Node18&#45;&gt;Node19</title>
<path fill="none" stroke="midnightblue" d="M1206.3,-188.39C1179.21,-182.99 1147.37,-176.64 1121.73,-171.52"/>
<polygon fill="midnightblue" stroke="midnightblue" points="1205.94,-191.89 1216.43,-190.41 1207.31,-185.02 1205.94,-191.89"/>
</g>
<!-- Node21 -->
<g id="node21" class="node">
<title>Node21</title>
<g id="a_node21"><a xlink:href="class_export.html#ad7bd412c3fe1d5accc38cf1f2ab65ea0" target="_top" xlink:title=" ">
<polygon fill="white" stroke="black" points="292,-418.5 292,-437.5 453,-437.5 453,-418.5 292,-418.5"/>
<text text-anchor="middle" x="372.5" y="-425.5" font-family="Helvetica,sans-Serif" font-size="10.00">Export::_setCascadedChannel</text>
</a>
</g>
</g>
<!-- Node20&#45;&gt;Node21 -->
<g id="edge32" class="edge">
<title>Node20&#45;&gt;Node21</title>
<path fill="none" stroke="midnightblue" d="M1188.47,-428C1115.61,-428 1002.54,-428 904.5,-428 904.5,-428 904.5,-428 723.5,-428 630.68,-428 524.02,-428 453.08,-428"/>
<polygon fill="midnightblue" stroke="midnightblue" points="1188.48,-431.5 1198.48,-428 1188.48,-424.5 1188.48,-431.5"/>
</g>
<!-- Node21&#45;&gt;Node8 -->
<g id="edge33" class="edge">
<title>Node21&#45;&gt;Node8</title>
<path fill="none" stroke="midnightblue" d="M323.36,-440.58C312.86,-443.86 301.93,-447.7 292,-452 263.85,-464.19 233.4,-483.12 216.12,-494.46"/>
<polygon fill="midnightblue" stroke="midnightblue" points="324.68,-443.84 333.25,-437.61 322.67,-437.14 324.68,-443.84"/>
</g>
<!-- Node22&#45;&gt;Node10 -->
<g id="edge36" class="edge">
<title>Node22&#45;&gt;Node10</title>
<path fill="none" stroke="midnightblue" d="M1225.2,-390C1159.02,-390 1021.13,-390 904.5,-390 904.5,-390 904.5,-390 371.5,-390 258.95,-390 125.43,-365.87 75.83,-356.07"/>
<polygon fill="midnightblue" stroke="midnightblue" points="1225.57,-393.5 1235.57,-390 1225.57,-386.5 1225.57,-393.5"/>
</g>
<!-- Node22&#45;&gt;Node17 -->
<g id="edge35" class="edge">
<title>Node22&#45;&gt;Node17</title>
<path fill="none" stroke="midnightblue" d="M1225.6,-396.97C1211.92,-399.97 1196.57,-403.96 1183,-409 1147.96,-422 1109.89,-443.87 1089.31,-456.4"/>
<polygon fill="midnightblue" stroke="midnightblue" points="1226.62,-400.33 1235.69,-394.87 1225.19,-393.48 1226.62,-400.33"/>
</g>
<!-- Node24&#45;&gt;Node10 -->
<g id="edge40" class="edge">
<title>Node24&#45;&gt;Node10</title>
<path fill="none" stroke="midnightblue" d="M1201.28,-264.8C1183.74,-261.96 1164.67,-259.12 1147,-257 1039.66,-244.14 1012.61,-238 904.5,-238 904.5,-238 904.5,-238 371.5,-238 248.9,-238 114.6,-315.08 70.74,-342.48"/>
<polygon fill="midnightblue" stroke="midnightblue" points="1200.97,-268.3 1211.4,-266.47 1202.1,-261.39 1200.97,-268.3"/>
</g>
<!-- Node25 -->
<g id="node25" class="node">
<title>Node25</title>
<g id="a_node25"><a xlink:href="class_simulate.html#a9b861e2a496da07d9377808c84c3e01b" target="_top" xlink:title=" ">
<polygon fill="white" stroke="black" points="1018.5,-266.5 1018.5,-285.5 1127.5,-285.5 1127.5,-266.5 1018.5,-266.5"/>
<text text-anchor="middle" x="1073" y="-273.5" font-family="Helvetica,sans-Serif" font-size="10.00">Simulate::simulate</text>
</a>
</g>
</g>
<!-- Node24&#45;&gt;Node25 -->
<g id="edge41" class="edge">
<title>Node24&#45;&gt;Node25</title>
<path fill="none" stroke="midnightblue" d="M1200.65,-276C1177.02,-276 1150.48,-276 1127.83,-276"/>
<polygon fill="midnightblue" stroke="midnightblue" points="1200.93,-279.5 1210.93,-276 1200.93,-272.5 1200.93,-279.5"/>
</g>
<!-- Node26&#45;&gt;Node10 -->
<g id="edge43" class="edge">
<title>Node26&#45;&gt;Node10</title>
<path fill="none" stroke="midnightblue" d="M1219.42,-336.91C1151.28,-342.47 1017.97,-352 904.5,-352 904.5,-352 904.5,-352 371.5,-352 259.49,-352 125.1,-352 75.57,-352"/>
<polygon fill="midnightblue" stroke="midnightblue" points="1220.1,-340.36 1229.78,-336.05 1219.53,-333.39 1220.1,-340.36"/>
</g>
<!-- Node27 -->
<g id="node27" class="node">
<title>Node27</title>
<g id="a_node27"><a xlink:href="class_style.html#a4202615ba5c3a3b4c1b81a53f9c62b63" target="_top" xlink:title="Call the astyle child process to style the generated C++ code.">
<polygon fill="white" stroke="black" points="1037.5,-304.5 1037.5,-323.5 1108.5,-323.5 1108.5,-304.5 1037.5,-304.5"/>
<text text-anchor="middle" x="1073" y="-311.5" font-family="Helvetica,sans-Serif" font-size="10.00">Style::style</text>
</a>
</g>
</g>
<!-- Node26&#45;&gt;Node27 -->
<g id="edge44" class="edge">
<title>Node26&#45;&gt;Node27</title>
<path fill="none" stroke="midnightblue" d="M1219.45,-328.51C1185.56,-325.13 1139.8,-320.56 1108.72,-317.46"/>
<polygon fill="midnightblue" stroke="midnightblue" points="1219.26,-332.01 1229.56,-329.52 1219.96,-325.04 1219.26,-332.01"/>
</g>
<!-- Node29 -->
<g id="node29" class="node">
<title>Node29</title>
<g id="a_node29"><a xlink:href="struct_macro.html#aee7d20953d25a4e783b8e897d78c4bf7" target="_top" xlink:title=" ">
<polygon fill="white" stroke="black" points="1022.5,-114.5 1022.5,-133.5 1123.5,-133.5 1123.5,-114.5 1022.5,-114.5"/>
<text text-anchor="middle" x="1073" y="-121.5" font-family="Helvetica,sans-Serif" font-size="10.00">Macro::replaceXY</text>
</a>
</g>
</g>
<!-- Node28&#45;&gt;Node29 -->
<g id="edge46" class="edge">
<title>Node28&#45;&gt;Node29</title>
<path fill="none" stroke="midnightblue" d="M1218.71,-95.13C1189.44,-100.97 1151.56,-108.53 1121.9,-114.44"/>
<polygon fill="midnightblue" stroke="midnightblue" points="1219.55,-98.54 1228.67,-93.15 1218.18,-91.67 1219.55,-98.54"/>
</g>
<!-- Node32 -->
<g id="node32" class="node">
<title>Node32</title>
<g id="a_node32"><a xlink:href="struct_x_y___size.html#a1044ad37af4e25277b6f7cda06052fc1" target="_top" xlink:title=" ">
<polygon fill="white" stroke="black" points="1039.5,-76.5 1039.5,-95.5 1106.5,-95.5 1106.5,-76.5 1039.5,-76.5"/>
<text text-anchor="middle" x="1073" y="-83.5" font-family="Helvetica,sans-Serif" font-size="10.00">XY_Size::x</text>
</a>
</g>
</g>
<!-- Node28&#45;&gt;Node32 -->
<g id="edge49" class="edge">
<title>Node28&#45;&gt;Node32</title>
<path fill="none" stroke="midnightblue" d="M1218.38,-86C1183.89,-86 1137.58,-86 1106.81,-86"/>
<polygon fill="midnightblue" stroke="midnightblue" points="1218.67,-89.5 1228.67,-86 1218.67,-82.5 1218.67,-89.5"/>
</g>
<!-- Node33 -->
<g id="node33" class="node">
<title>Node33</title>
<g id="a_node33"><a xlink:href="struct_x_y___size.html#a42f2c088d4a2090d3ddc884be3547d39" target="_top" xlink:title=" ">
<polygon fill="white" stroke="black" points="1022,-38.5 1022,-57.5 1124,-57.5 1124,-38.5 1022,-38.5"/>
<text text-anchor="middle" x="1073" y="-45.5" font-family="Helvetica,sans-Serif" font-size="10.00">XY_Size::x_mul_y</text>
</a>
</g>
</g>
<!-- Node28&#45;&gt;Node33 -->
<g id="edge50" class="edge">
<title>Node28&#45;&gt;Node33</title>
<path fill="none" stroke="midnightblue" d="M1218.71,-76.87C1189.44,-71.03 1151.56,-63.47 1121.9,-57.56"/>
<polygon fill="midnightblue" stroke="midnightblue" points="1218.18,-80.33 1228.67,-78.85 1219.55,-73.46 1218.18,-80.33"/>
</g>
<!-- Node34 -->
<g id="node34" class="node">
<title>Node34</title>
<g id="a_node34"><a xlink:href="struct_x_y___size.html#a2db4fb0d73fbbafb70315253aa4171d4" target="_top" xlink:title=" ">
<polygon fill="white" stroke="black" points="1039.5,-0.5 1039.5,-19.5 1106.5,-19.5 1106.5,-0.5 1039.5,-0.5"/>
<text text-anchor="middle" x="1073" y="-7.5" font-family="Helvetica,sans-Serif" font-size="10.00">XY_Size::y</text>
</a>
</g>
</g>
<!-- Node28&#45;&gt;Node34 -->
<g id="edge51" class="edge">
<title>Node28&#45;&gt;Node34</title>
<path fill="none" stroke="midnightblue" d="M1238.52,-71.55C1215.13,-59 1179.53,-40.99 1147,-29 1134.1,-24.24 1119.5,-20.19 1106.77,-17.07"/>
<polygon fill="midnightblue" stroke="midnightblue" points="1236.99,-74.71 1247.45,-76.4 1240.33,-68.55 1236.99,-74.71"/>
</g>
<!-- Node30 -->
<g id="node30" class="node">
<title>Node30</title>
<g id="a_node30"><a xlink:href="struct_macro.html#ac0ddd588c300108ca443b10316d99877" target="_top" xlink:title=" ">
<polygon fill="white" stroke="black" points="844,-114.5 844,-133.5 963,-133.5 963,-114.5 844,-114.5"/>
<text text-anchor="middle" x="903.5" y="-121.5" font-family="Helvetica,sans-Serif" font-size="10.00">Macro::replaceMacro</text>
</a>
</g>
</g>
<!-- Node29&#45;&gt;Node30 -->
<g id="edge47" class="edge">
<title>Node29&#45;&gt;Node30</title>
<path fill="none" stroke="midnightblue" d="M1011.99,-124C996.13,-124 979.04,-124 963.26,-124"/>
<polygon fill="midnightblue" stroke="midnightblue" points="1012.2,-127.5 1022.2,-124 1012.2,-120.5 1012.2,-127.5"/>
</g>
<!-- Node31 -->
<g id="node31" class="node">
<title>Node31</title>
<g id="a_node31"><a xlink:href="class_alg.html#a45e536cf797bba52c851877371ea64c5" target="_top" xlink:title=" ">
<polygon fill="white" stroke="black" points="697.5,-114.5 697.5,-133.5 751.5,-133.5 751.5,-114.5 697.5,-114.5"/>
<text text-anchor="middle" x="724.5" y="-121.5" font-family="Helvetica,sans-Serif" font-size="10.00">Alg::Alg</text>
</a>
</g>
</g>
<!-- Node30&#45;&gt;Node31 -->
<g id="edge48" class="edge">
<title>Node30&#45;&gt;Node31</title>
<path fill="none" stroke="midnightblue" d="M833.53,-124C804.78,-124 773.14,-124 751.57,-124"/>
<polygon fill="midnightblue" stroke="midnightblue" points="833.56,-127.5 843.56,-124 833.56,-120.5 833.56,-127.5"/>
</g>
</g>
</svg>
        <g id="navigator" transform="translate(0 0)" fill="#404254">
                <rect fill="#f2f5e9" fill-opacity="0.5" stroke="#606060" stroke-width=".5" x="0" y="0" width="60" height="60"/>
                <use id="zoomplus" xlink:href="#zoomPlus" x="17" y="9" onmousedown="handleZoom(evt,'in')"/>
                <use id="zoomminus" xlink:href="#zoomMin" x="42" y="9" onmousedown="handleZoom(evt,'out')"/>
                <use id="reset" xlink:href="#resetDef" x="30" y="36" onmousedown="handleReset()"/>
                <g id="arrowUp" xlink:href="#dirArrow" transform="translate(30 24)" onmousedown="handlePan(0,-1)">
                  <use xlink:href="#rim" fill="#404040">
                        <set attributeName="fill" to="#808080" begin="arrowUp.mouseover" end="arrowUp.mouseout"/>
                  </use>
                  <path fill="none" stroke="white" stroke-width="1.5" d="M0,-3.0v7 M-2.5,-0.5L0,-3.0L2.5,-0.5"/>
                </g>
                <g id="arrowRight" xlink:href="#dirArrow" transform="rotate(90) translate(36 -43)" onmousedown="handlePan(1,0)">
                  <use xlink:href="#rim" fill="#404040">
                        <set attributeName="fill" to="#808080" begin="arrowRight.mouseover" end="arrowRight.mouseout"/>
                  </use>
                  <path fill="none" stroke="white" stroke-width="1.5" d="M0,-3.0v7 M-2.5,-0.5L0,-3.0L2.5,-0.5"/>
                </g>
                <g id="arrowDown" xlink:href="#dirArrow" transform="rotate(180) translate(-30 -48)" onmousedown="handlePan(0,1)">
                  <use xlink:href="#rim" fill="#404040">
                        <set attributeName="fill" to="#808080" begin="arrowDown.mouseover" end="arrowDown.mouseout"/>
                  </use>
                  <path fill="none" stroke="white" stroke-width="1.5" d="M0,-3.0v7 M-2.5,-0.5L0,-3.0L2.5,-0.5"/>
                </g>
                <g id="arrowLeft" xlink:href="#dirArrow" transform="rotate(270) translate(-36 17)" onmousedown="handlePan(-1,0)">
                  <use xlink:href="#rim" fill="#404040">
                        <set attributeName="fill" to="#808080" begin="arrowLeft.mouseover" end="arrowLeft.mouseout"/>
                  </use>
                  <path fill="none" stroke="white" stroke-width="1.5" d="M0,-3.0v7 M-2.5,-0.5L0,-3.0L2.5,-0.5"/>
                </g>
        </g>
        <svg viewBox="0 0 15 15" width="100%" height="30px" preserveAspectRatio="xMaxYMin meet">
         <g id="arrow_out" transform="scale(0.3 0.3)">
          <a xlink:href="class_log_ac7147942832455398ad289b706a02616_icgraph_org.svg" target="_base">
           <rect id="button" ry="5" rx="5" y="6" x="6" height="38" width="38"
                fill="#f2f5e9" fill-opacity="0.5" stroke="#606060" stroke-width="1.0"/>
           <path id="arrow"
             d="M 11.500037,31.436501 C 11.940474,20.09759 22.043105,11.32322 32.158766,21.979434 L 37.068811,17.246167 C 37.068811,17.246167 37.088388,32 37.088388,32 L 22.160133,31.978069 C 22.160133,31.978069 26.997745,27.140456 26.997745,27.140456 C 18.528582,18.264221 13.291696,25.230495 11.500037,31.436501 z"
             style="fill:#404040;"/>
          </a>
         </g>
        </svg>
</svg>
