<?xml version="1.0" encoding="UTF-8" standalone="no"?>
<!DOCTYPE svg PUBLIC "-//W3C//DTD SVG 1.1//EN"
 "http://www.w3.org/Graphics/SVG/1.1/DTD/svg11.dtd">
<!-- Generated by graphviz version 2.43.0 (0)
 -->
<!-- Title: Alg_Line::Alg_Line Pages: 1 -->
<svg width="734pt" height="332pt"
 viewBox="0.00 0.00 734.00 332.00" xmlns="http://www.w3.org/2000/svg" xmlns:xlink="http://www.w3.org/1999/xlink">
<g id="graph0" class="graph" transform="scale(1 1) rotate(0) translate(4 328)">
<title>Alg_Line::Alg_Line</title>
<polygon fill="white" stroke="transparent" points="-4,4 -4,-328 730,-328 730,4 -4,4"/>
<!-- Node1 -->
<g id="node1" class="node">
<title>Node1</title>
<g id="a_node1"><a xlink:title="Construct a new Alg_Line object. Process string at the same time.">
<polygon fill="#bfbfbf" stroke="black" points="0,-114.5 0,-133.5 105,-133.5 105,-114.5 0,-114.5"/>
<text text-anchor="middle" x="52.5" y="-121.5" font-family="Helvetica,sans-Serif" font-size="10.00">Alg_Line::Alg_Line</text>
</a>
</g>
</g>
<!-- Node2 -->
<g id="node2" class="node">
<title>Node2</title>
<g id="a_node2"><a xlink:href="class_alg___line.html#a02c28dd649a764aabefb625ea87f2938" target="_top" xlink:title="Find the first occupance of character in string that is not an escape or within quotes.">
<polygon fill="white" stroke="black" points="356.5,-266.5 356.5,-285.5 466.5,-285.5 466.5,-266.5 356.5,-266.5"/>
<text text-anchor="middle" x="411.5" y="-273.5" font-family="Helvetica,sans-Serif" font-size="10.00">Alg_Line::_findChar</text>
</a>
</g>
</g>
<!-- Node1&#45;&gt;Node2 -->
<g id="edge1" class="edge">
<title>Node1&#45;&gt;Node2</title>
<path fill="none" stroke="midnightblue" d="M59.66,-133.58C72.4,-152.54 103.59,-194.84 141,-216 205.06,-252.23 289.21,-266.59 346.32,-272.27"/>
<polygon fill="midnightblue" stroke="midnightblue" points="346.02,-275.76 356.3,-273.2 346.67,-268.79 346.02,-275.76"/>
</g>
<!-- Node5 -->
<g id="node5" class="node">
<title>Node5</title>
<g id="a_node5"><a xlink:href="class_alg___line.html#a0047f4df72a2d10ebb74701c3d05bafc" target="_top" xlink:title="Process function name and parameter variables.">
<polygon fill="white" stroke="black" points="141,-152.5 141,-171.5 306,-171.5 306,-152.5 141,-152.5"/>
<text text-anchor="middle" x="223.5" y="-159.5" font-family="Helvetica,sans-Serif" font-size="10.00">Alg_Line::_processFuncParams</text>
</a>
</g>
</g>
<!-- Node1&#45;&gt;Node5 -->
<g id="edge4" class="edge">
<title>Node1&#45;&gt;Node5</title>
<path fill="none" stroke="midnightblue" d="M96.15,-133.59C118.65,-138.65 146.45,-144.9 170.24,-150.25"/>
<polygon fill="midnightblue" stroke="midnightblue" points="169.64,-153.7 180.16,-152.48 171.17,-146.87 169.64,-153.7"/>
</g>
<!-- Node7 -->
<g id="node7" class="node">
<title>Node7</title>
<g id="a_node7"><a xlink:href="class_log.html#ac7147942832455398ad289b706a02616" target="_top" xlink:title="Write error message to the log file.">
<polygon fill="white" stroke="black" points="385,-76.5 385,-95.5 438,-95.5 438,-76.5 385,-76.5"/>
<text text-anchor="middle" x="411.5" y="-83.5" font-family="Helvetica,sans-Serif" font-size="10.00">Log::err</text>
</a>
</g>
</g>
<!-- Node1&#45;&gt;Node7 -->
<g id="edge22" class="edge">
<title>Node1&#45;&gt;Node7</title>
<path fill="none" stroke="midnightblue" d="M91.62,-114.48C106.88,-110.99 124.69,-107.33 141,-105 224.19,-93.1 322.93,-88.55 374.72,-86.89"/>
<polygon fill="midnightblue" stroke="midnightblue" points="374.84,-90.39 384.73,-86.59 374.63,-83.39 374.84,-90.39"/>
</g>
<!-- Node9 -->
<g id="node9" class="node">
<title>Node9</title>
<g id="a_node9"><a xlink:href="class_log.html#add7e611cd3267d3fd5dae017e3aeef67" target="_top" xlink:title="Write infomation to the log file.">
<polygon fill="white" stroke="black" points="382,-38.5 382,-57.5 441,-57.5 441,-38.5 382,-38.5"/>
<text text-anchor="middle" x="411.5" y="-45.5" font-family="Helvetica,sans-Serif" font-size="10.00">Log::info</text>
</a>
</g>
</g>
<!-- Node1&#45;&gt;Node9 -->
<g id="edge23" class="edge">
<title>Node1&#45;&gt;Node9</title>
<path fill="none" stroke="midnightblue" d="M71.74,-114.35C89.08,-105.59 116.13,-93.01 141,-86 221.15,-63.39 318.68,-53.9 371.67,-50.18"/>
<polygon fill="midnightblue" stroke="midnightblue" points="371.91,-53.68 381.65,-49.52 371.44,-46.69 371.91,-53.68"/>
</g>
<!-- Node10 -->
<g id="node10" class="node">
<title>Node10</title>
<g id="a_node10"><a xlink:href="functions_8h.html#a327f8ee07c785b0b6cb9f59b061effeb" target="_top" xlink:title=" ">
<polygon fill="white" stroke="black" points="388,-228.5 388,-247.5 435,-247.5 435,-228.5 388,-228.5"/>
<text text-anchor="middle" x="411.5" y="-235.5" font-family="Helvetica,sans-Serif" font-size="10.00">isFunc</text>
</a>
</g>
</g>
<!-- Node1&#45;&gt;Node10 -->
<g id="edge24" class="edge">
<title>Node1&#45;&gt;Node10</title>
<path fill="none" stroke="midnightblue" d="M65.16,-133.64C81.22,-146.42 111.52,-168.78 141,-181 222.22,-214.66 325.76,-229.37 377.69,-234.99"/>
<polygon fill="midnightblue" stroke="midnightblue" points="377.35,-238.47 387.66,-236.02 378.08,-231.51 377.35,-238.47"/>
</g>
<!-- Node16 -->
<g id="node16" class="node">
<title>Node16</title>
<g id="a_node16"><a xlink:href="class_alg___line.html#ab07f32f58fb0a05428e54c1d6038fce2" target="_top" xlink:title="Process returns variables.">
<polygon fill="white" stroke="black" points="151.5,-114.5 151.5,-133.5 295.5,-133.5 295.5,-114.5 151.5,-114.5"/>
<text text-anchor="middle" x="223.5" y="-121.5" font-family="Helvetica,sans-Serif" font-size="10.00">Alg_Line::_processReturns</text>
</a>
</g>
</g>
<!-- Node1&#45;&gt;Node16 -->
<g id="edge19" class="edge">
<title>Node1&#45;&gt;Node16</title>
<path fill="none" stroke="midnightblue" d="M105.12,-124C116.5,-124 128.82,-124 141.05,-124"/>
<polygon fill="midnightblue" stroke="midnightblue" points="141.28,-127.5 151.28,-124 141.28,-120.5 141.28,-127.5"/>
</g>
<!-- Node17 -->
<g id="node17" class="node">
<title>Node17</title>
<g id="a_node17"><a xlink:href="class_alg___line.html#a8d9eb8bd82f763883018ea0f7c443b43" target="_top" xlink:title="Remove the comment from the string.">
<polygon fill="white" stroke="black" points="146,-0.5 146,-19.5 301,-19.5 301,-0.5 146,-0.5"/>
<text text-anchor="middle" x="223.5" y="-7.5" font-family="Helvetica,sans-Serif" font-size="10.00">Alg_Line::_removeComment</text>
</a>
</g>
</g>
<!-- Node1&#45;&gt;Node17 -->
<g id="edge21" class="edge">
<title>Node1&#45;&gt;Node17</title>
<path fill="none" stroke="midnightblue" d="M60.25,-114.28C73.54,-95.85 104.99,-55.73 141,-34 148.52,-29.46 156.96,-25.73 165.48,-22.69"/>
<polygon fill="midnightblue" stroke="midnightblue" points="166.67,-25.98 175.08,-19.53 164.49,-19.33 166.67,-25.98"/>
</g>
<!-- Node3 -->
<g id="node3" class="node">
<title>Node3</title>
<g id="a_node3"><a xlink:href="class_alg___line.html#aa0ac36c0f72f54317b686035693ec046" target="_top" xlink:title="Find the first occupance of substring in string that is not an escape or within quotes.">
<polygon fill="white" stroke="black" points="517,-304.5 517,-323.5 632,-323.5 632,-304.5 517,-304.5"/>
<text text-anchor="middle" x="574.5" y="-311.5" font-family="Helvetica,sans-Serif" font-size="10.00">Alg_Line::_findChars</text>
</a>
</g>
</g>
<!-- Node2&#45;&gt;Node3 -->
<g id="edge2" class="edge">
<title>Node2&#45;&gt;Node3</title>
<path fill="none" stroke="midnightblue" d="M453.13,-285.59C474.47,-290.63 500.81,-296.84 523.41,-302.18"/>
<polygon fill="midnightblue" stroke="midnightblue" points="522.63,-305.59 533.17,-304.48 524.24,-298.78 522.63,-305.59"/>
</g>
<!-- Node4 -->
<g id="node4" class="node">
<title>Node4</title>
<g id="a_node4"><a xlink:href="utils_8h.html#af11c7cca5b9ad860da4bdb556dce3234" target="_top" xlink:title=" ">
<polygon fill="white" stroke="black" points="668,-247.5 668,-266.5 726,-266.5 726,-247.5 668,-247.5"/>
<text text-anchor="middle" x="697" y="-254.5" font-family="Helvetica,sans-Serif" font-size="10.00">contains</text>
</a>
</g>
</g>
<!-- Node3&#45;&gt;Node4 -->
<g id="edge3" class="edge">
<title>Node3&#45;&gt;Node4</title>
<path fill="none" stroke="midnightblue" d="M607.93,-304.4C615.93,-301.68 624.38,-298.5 632,-295 646.23,-288.47 661.32,-279.62 673.27,-272.09"/>
<polygon fill="midnightblue" stroke="midnightblue" points="675.21,-275.01 681.73,-266.66 671.43,-269.12 675.21,-275.01"/>
</g>
<!-- Node5&#45;&gt;Node2 -->
<g id="edge6" class="edge">
<title>Node5&#45;&gt;Node2</title>
<path fill="none" stroke="midnightblue" d="M233.59,-171.62C252.15,-190.73 296.52,-233.59 342,-257 346.48,-259.31 351.27,-261.36 356.17,-263.18"/>
<polygon fill="midnightblue" stroke="midnightblue" points="355.05,-266.5 365.64,-266.41 357.31,-259.87 355.05,-266.5"/>
</g>
<!-- Node6 -->
<g id="node6" class="node">
<title>Node6</title>
<g id="a_node6"><a xlink:href="class_alg___line.html#aad290711330e17b2dd88f49223374638" target="_top" xlink:title=" ">
<polygon fill="white" stroke="black" points="342,-114.5 342,-133.5 481,-133.5 481,-114.5 342,-114.5"/>
<text text-anchor="middle" x="411.5" y="-121.5" font-family="Helvetica,sans-Serif" font-size="10.00">Alg_Line::_decodeEscape</text>
</a>
</g>
</g>
<!-- Node5&#45;&gt;Node6 -->
<g id="edge5" class="edge">
<title>Node5&#45;&gt;Node6</title>
<path fill="none" stroke="midnightblue" d="M271.44,-152.41C296.53,-147.28 327.62,-140.93 354.03,-135.54"/>
<polygon fill="midnightblue" stroke="midnightblue" points="354.8,-138.95 363.9,-133.52 353.4,-132.09 354.8,-138.95"/>
</g>
<!-- Node5&#45;&gt;Node7 -->
<g id="edge7" class="edge">
<title>Node5&#45;&gt;Node7</title>
<path fill="none" stroke="midnightblue" d="M283.94,-152.47C291.63,-150.01 299.19,-146.9 306,-143 326.18,-131.43 322.06,-116.99 342,-105 351.96,-99.01 363.86,-94.86 374.93,-92"/>
<polygon fill="midnightblue" stroke="midnightblue" points="375.82,-95.38 384.78,-89.72 374.25,-88.56 375.82,-95.38"/>
</g>
<!-- Node8 -->
<g id="node8" class="node">
<title>Node8</title>
<g id="a_node8"><a xlink:href="class_alg___line.html#af651454e6ddfce164626b68b2c6cba97" target="_top" xlink:title="Get the function name.">
<polygon fill="white" stroke="black" points="369,-152.5 369,-171.5 454,-171.5 454,-152.5 369,-152.5"/>
<text text-anchor="middle" x="411.5" y="-159.5" font-family="Helvetica,sans-Serif" font-size="10.00">Alg_Line::func</text>
</a>
</g>
</g>
<!-- Node5&#45;&gt;Node8 -->
<g id="edge8" class="edge">
<title>Node5&#45;&gt;Node8</title>
<path fill="none" stroke="midnightblue" d="M306.08,-162C323.86,-162 342.2,-162 358.45,-162"/>
<polygon fill="midnightblue" stroke="midnightblue" points="358.81,-165.5 368.81,-162 358.81,-158.5 358.81,-165.5"/>
</g>
<!-- Node5&#45;&gt;Node9 -->
<g id="edge9" class="edge">
<title>Node5&#45;&gt;Node9</title>
<path fill="none" stroke="midnightblue" d="M290.18,-152.4C295.87,-149.92 301.25,-146.83 306,-143 335.09,-119.54 313.4,-91.06 342,-67 350.44,-59.89 361.35,-55.44 371.96,-52.64"/>
<polygon fill="midnightblue" stroke="midnightblue" points="372.95,-56.01 381.96,-50.44 371.44,-49.17 372.95,-56.01"/>
</g>
<!-- Node5&#45;&gt;Node10 -->
<g id="edge10" class="edge">
<title>Node5&#45;&gt;Node10</title>
<path fill="none" stroke="midnightblue" d="M241.58,-171.51C264.07,-183.74 305.09,-205.06 342,-219 353.61,-223.38 366.67,-227.26 378.24,-230.34"/>
<polygon fill="midnightblue" stroke="midnightblue" points="377.4,-233.74 387.96,-232.84 379.15,-226.96 377.4,-233.74"/>
</g>
<!-- Node14 -->
<g id="node14" class="node">
<title>Node14</title>
<g id="a_node14"><a xlink:href="utils_8h.html#a0465457013518e168df05799c93cfa6e" target="_top" xlink:title=" ">
<polygon fill="white" stroke="black" points="370,-190.5 370,-209.5 453,-209.5 453,-190.5 370,-190.5"/>
<text text-anchor="middle" x="411.5" y="-197.5" font-family="Helvetica,sans-Serif" font-size="10.00">removeQuote</text>
</a>
</g>
</g>
<!-- Node5&#45;&gt;Node14 -->
<g id="edge17" class="edge">
<title>Node5&#45;&gt;Node14</title>
<path fill="none" stroke="midnightblue" d="M271.44,-171.59C298.46,-177.11 332.44,-184.05 360.04,-189.69"/>
<polygon fill="midnightblue" stroke="midnightblue" points="359.4,-193.13 369.9,-191.7 360.8,-186.27 359.4,-193.13"/>
</g>
<!-- Node11 -->
<g id="node11" class="node">
<title>Node11</title>
<g id="a_node11"><a xlink:href="functions_8h.html#a874ba6c7a581632b5ca72a1bd9fecdd1" target="_top" xlink:title=" ">
<polygon fill="white" stroke="black" points="537.5,-266.5 537.5,-285.5 611.5,-285.5 611.5,-266.5 537.5,-266.5"/>
<text text-anchor="middle" x="574.5" y="-273.5" font-family="Helvetica,sans-Serif" font-size="10.00">isFuncIsEnd</text>
</a>
</g>
</g>
<!-- Node10&#45;&gt;Node11 -->
<g id="edge11" class="edge">
<title>Node10&#45;&gt;Node11</title>
<path fill="none" stroke="midnightblue" d="M435.23,-243.36C459.06,-248.99 497.16,-257.98 527.34,-265.11"/>
<polygon fill="midnightblue" stroke="midnightblue" points="526.7,-268.55 537.24,-267.44 528.31,-261.74 526.7,-268.55"/>
</g>
<!-- Node12 -->
<g id="node12" class="node">
<title>Node12</title>
<g id="a_node12"><a xlink:href="functions_8h.html#a6f29a04c07a24fbea22fa058f8005608" target="_top" xlink:title=" ">
<polygon fill="white" stroke="black" points="526.5,-228.5 526.5,-247.5 622.5,-247.5 622.5,-228.5 526.5,-228.5"/>
<text text-anchor="middle" x="574.5" y="-235.5" font-family="Helvetica,sans-Serif" font-size="10.00">isFuncNeedsEnd</text>
</a>
</g>
</g>
<!-- Node10&#45;&gt;Node12 -->
<g id="edge13" class="edge">
<title>Node10&#45;&gt;Node12</title>
<path fill="none" stroke="midnightblue" d="M435.23,-238C456.22,-238 488.31,-238 516.28,-238"/>
<polygon fill="midnightblue" stroke="midnightblue" points="516.38,-241.5 526.38,-238 516.38,-234.5 516.38,-241.5"/>
</g>
<!-- Node13 -->
<g id="node13" class="node">
<title>Node13</title>
<g id="a_node13"><a xlink:href="functions_8h.html#ac9dc58cb94b7547813c3a35154d97d18" target="_top" xlink:title=" ">
<polygon fill="white" stroke="black" points="535,-190.5 535,-209.5 614,-209.5 614,-190.5 535,-190.5"/>
<text text-anchor="middle" x="574.5" y="-197.5" font-family="Helvetica,sans-Serif" font-size="10.00">isFuncNoEnd</text>
</a>
</g>
</g>
<!-- Node10&#45;&gt;Node13 -->
<g id="edge15" class="edge">
<title>Node10&#45;&gt;Node13</title>
<path fill="none" stroke="midnightblue" d="M435.23,-232.64C458.43,-227.16 495.18,-218.49 524.96,-211.46"/>
<polygon fill="midnightblue" stroke="midnightblue" points="525.83,-214.85 534.76,-209.14 524.23,-208.03 525.83,-214.85"/>
</g>
<!-- Node11&#45;&gt;Node4 -->
<g id="edge12" class="edge">
<title>Node11&#45;&gt;Node4</title>
<path fill="none" stroke="midnightblue" d="M611.65,-270.3C626.16,-268.01 642.89,-265.37 657.61,-263.05"/>
<polygon fill="midnightblue" stroke="midnightblue" points="658.58,-266.44 667.91,-261.43 657.49,-259.53 658.58,-266.44"/>
</g>
<!-- Node12&#45;&gt;Node4 -->
<g id="edge14" class="edge">
<title>Node12&#45;&gt;Node4</title>
<path fill="none" stroke="midnightblue" d="M622.78,-245.45C634.49,-247.3 646.89,-249.26 658.09,-251.02"/>
<polygon fill="midnightblue" stroke="midnightblue" points="657.56,-254.48 667.98,-252.58 658.65,-247.57 657.56,-254.48"/>
</g>
<!-- Node13&#45;&gt;Node4 -->
<g id="edge16" class="edge">
<title>Node13&#45;&gt;Node4</title>
<path fill="none" stroke="midnightblue" d="M607.93,-209.6C615.93,-212.32 624.38,-215.5 632,-219 646.23,-225.53 661.32,-234.38 673.27,-241.91"/>
<polygon fill="midnightblue" stroke="midnightblue" points="671.43,-244.88 681.73,-247.34 675.21,-238.99 671.43,-244.88"/>
</g>
<!-- Node15 -->
<g id="node15" class="node">
<title>Node15</title>
<g id="a_node15"><a xlink:href="utils_8h.html#aaaee605fe46abaa420448438d89b22ed" target="_top" xlink:title=" ">
<polygon fill="white" stroke="black" points="544.5,-152.5 544.5,-171.5 604.5,-171.5 604.5,-152.5 544.5,-152.5"/>
<text text-anchor="middle" x="574.5" y="-159.5" font-family="Helvetica,sans-Serif" font-size="10.00">isQuoted</text>
</a>
</g>
</g>
<!-- Node14&#45;&gt;Node15 -->
<g id="edge18" class="edge">
<title>Node14&#45;&gt;Node15</title>
<path fill="none" stroke="midnightblue" d="M453.13,-190.41C478.02,-184.54 509.71,-177.06 534.33,-171.25"/>
<polygon fill="midnightblue" stroke="midnightblue" points="535.14,-174.65 544.06,-168.95 533.53,-167.84 535.14,-174.65"/>
</g>
<!-- Node16&#45;&gt;Node6 -->
<g id="edge20" class="edge">
<title>Node16&#45;&gt;Node6</title>
<path fill="none" stroke="midnightblue" d="M295.61,-124C307.47,-124 319.83,-124 331.87,-124"/>
<polygon fill="midnightblue" stroke="midnightblue" points="331.88,-127.5 341.88,-124 331.88,-120.5 331.88,-127.5"/>
</g>
</g>
</svg>
