<?xml version="1.0" encoding="UTF-8" standalone="no"?>
<!DOCTYPE svg PUBLIC "-//W3C//DTD SVG 1.1//EN"
 "http://www.w3.org/Graphics/SVG/1.1/DTD/svg11.dtd">
<!-- Generated by graphviz version 2.43.0 (0)
 -->
<!-- Title: Log::info Pages: 1 -->
<svg width="1395pt" height="947pt"
 viewBox="0.00 0.00 1395.00 947.10" xmlns="http://www.w3.org/2000/svg" xmlns:xlink="http://www.w3.org/1999/xlink">
<g id="graph0" class="graph" transform="scale(1 1) rotate(0) translate(4 943.1)">
<title>Log::info</title>
<polygon fill="white" stroke="transparent" points="-4,4 -4,-943.1 1391,-943.1 1391,4 -4,4"/>
<!-- Node1 -->
<g id="node1" class="node">
<title>Node1</title>
<g id="a_node1"><a xlink:title="Write infomation to the log file.">
<polygon fill="#bfbfbf" stroke="black" points="1328,-399.5 1328,-418.5 1387,-418.5 1387,-399.5 1328,-399.5"/>
<text text-anchor="middle" x="1357.5" y="-406.5" font-family="Helvetica,sans-Serif" font-size="10.00">Log::info</text>
</a>
</g>
</g>
<!-- Node2 -->
<g id="node2" class="node">
<title>Node2</title>
<g id="a_node2"><a xlink:href="class_export.html#a89d3ae54dd2261cf35be148011b79fe4" target="_top" xlink:title=" ">
<polygon fill="white" stroke="black" points="292,-698.5 292,-717.5 404,-717.5 404,-698.5 292,-698.5"/>
<text text-anchor="middle" x="348" y="-705.5" font-family="Helvetica,sans-Serif" font-size="10.00">Export::_algorithms</text>
</a>
</g>
</g>
<!-- Node1&#45;&gt;Node2 -->
<g id="edge1" class="edge">
<title>Node1&#45;&gt;Node2</title>
<path fill="none" stroke="midnightblue" d="M1356.35,-428.66C1355.35,-502 1347.84,-758.24 1292,-812 1246.76,-855.55 1074.29,-846 1011.5,-846 1011.5,-846 1011.5,-846 674.5,-846 542.84,-846 403.29,-749.12 361.51,-717.7"/>
<polygon fill="midnightblue" stroke="midnightblue" points="1359.85,-428.55 1356.46,-418.51 1352.85,-428.47 1359.85,-428.55"/>
</g>
<!-- Node5 -->
<g id="node5" class="node">
<title>Node5</title>
<g id="a_node5"><a xlink:href="src_2main_8cpp.html#a0ddf1224851353fc92bfbff6f499fa97" target="_top" xlink:title=" ">
<polygon fill="white" stroke="black" points="34.5,-304.5 34.5,-323.5 75.5,-323.5 75.5,-304.5 34.5,-304.5"/>
<text text-anchor="middle" x="55" y="-311.5" font-family="Helvetica,sans-Serif" font-size="10.00">main</text>
</a>
</g>
</g>
<!-- Node1&#45;&gt;Node5 -->
<g id="edge43" class="edge">
<title>Node1&#45;&gt;Node5</title>
<path fill="none" stroke="midnightblue" d="M1317.72,-398.33C1254.23,-381.83 1123.93,-352 1011.5,-352 1011.5,-352 1011.5,-352 347,-352 257.27,-352 234.71,-346.51 146,-333 121.53,-329.27 93.7,-323.09 75.55,-318.8"/>
<polygon fill="midnightblue" stroke="midnightblue" points="1317.13,-401.79 1327.69,-400.95 1318.91,-395.02 1317.13,-401.79"/>
</g>
<!-- Node6 -->
<g id="node6" class="node">
<title>Node6</title>
<g id="a_node6"><a xlink:href="class_calc.html#ad562619fef96a73cd3b4c27b35bc5f91" target="_top" xlink:title=" ">
<polygon fill="white" stroke="black" points="1144.5,-618.5 1144.5,-637.5 1274.5,-637.5 1274.5,-618.5 1144.5,-618.5"/>
<text text-anchor="middle" x="1209.5" y="-625.5" font-family="Helvetica,sans-Serif" font-size="10.00">Calc::_changeSubScript</text>
</a>
</g>
</g>
<!-- Node1&#45;&gt;Node6 -->
<g id="edge5" class="edge">
<title>Node1&#45;&gt;Node6</title>
<path fill="none" stroke="midnightblue" d="M1354.83,-428.92C1350.69,-466.06 1336.81,-546.43 1292,-594 1281.17,-605.49 1265.86,-613.24 1251.43,-618.4"/>
<polygon fill="midnightblue" stroke="midnightblue" points="1358.32,-429.16 1355.82,-418.86 1351.35,-428.47 1358.32,-429.16"/>
</g>
<!-- Node10 -->
<g id="node10" class="node">
<title>Node10</title>
<g id="a_node10"><a xlink:href="class_alg.html#ada1e8215f047b4ffd736e811b5ea3162" target="_top" xlink:title=" ">
<polygon fill="white" stroke="black" points="644,-646.5 644,-665.5 707,-665.5 707,-646.5 644,-646.5"/>
<text text-anchor="middle" x="675.5" y="-653.5" font-family="Helvetica,sans-Serif" font-size="10.00">Alg::write</text>
</a>
</g>
</g>
<!-- Node1&#45;&gt;Node10 -->
<g id="edge57" class="edge">
<title>Node1&#45;&gt;Node10</title>
<path fill="none" stroke="midnightblue" d="M1354.38,-428.78C1348.12,-483.24 1327.89,-633.4 1292,-665 1208.73,-738.33 903.18,-737.67 795,-713 754.94,-703.87 712.63,-679.4 691.04,-665.67"/>
<polygon fill="midnightblue" stroke="midnightblue" points="1357.88,-429.02 1355.5,-418.69 1350.92,-428.24 1357.88,-429.02"/>
</g>
<!-- Node11 -->
<g id="node11" class="node">
<title>Node11</title>
<g id="a_node11"><a xlink:href="class_export.html#ae4811e1e4212029122c0ee29613714cc" target="_top" xlink:title=" ">
<polygon fill="white" stroke="black" points="442,-570.5 442,-589.5 554,-589.5 554,-570.5 442,-570.5"/>
<text text-anchor="middle" x="498" y="-577.5" font-family="Helvetica,sans-Serif" font-size="10.00">Export::_estimation</text>
</a>
</g>
</g>
<!-- Node1&#45;&gt;Node11 -->
<g id="edge26" class="edge">
<title>Node1&#45;&gt;Node11</title>
<path fill="none" stroke="midnightblue" d="M1353.4,-428.51C1347.44,-459.06 1331.28,-517.62 1292,-546 1190.21,-619.55 1137.08,-580 1011.5,-580 1011.5,-580 1011.5,-580 843.5,-580 741.38,-580 622.22,-580 554.19,-580"/>
<polygon fill="midnightblue" stroke="midnightblue" points="1356.85,-429.09 1355.16,-418.63 1349.96,-427.86 1356.85,-429.09"/>
</g>
<!-- Node13 -->
<g id="node13" class="node">
<title>Node13</title>
<g id="a_node13"><a xlink:href="class_export.html#a59ba705b2369f21006ec7d7b7f3a4513" target="_top" xlink:title="Generate RIS reflection matrices.">
<polygon fill="white" stroke="black" points="440,-532.5 440,-551.5 556,-551.5 556,-532.5 440,-532.5"/>
<text text-anchor="middle" x="498" y="-539.5" font-family="Helvetica,sans-Serif" font-size="10.00">Export::_generateBF</text>
</a>
</g>
</g>
<!-- Node1&#45;&gt;Node13 -->
<g id="edge27" class="edge">
<title>Node1&#45;&gt;Node13</title>
<path fill="none" stroke="midnightblue" d="M1350.56,-428.05C1341.92,-452.28 1323.37,-493.36 1292,-513 1185.77,-579.5 1136.83,-542 1011.5,-542 1011.5,-542 1011.5,-542 843.5,-542 742.42,-542 624.66,-542 556.3,-542"/>
<polygon fill="midnightblue" stroke="midnightblue" points="1353.9,-429.11 1353.76,-418.52 1347.26,-426.88 1353.9,-429.11"/>
</g>
<!-- Node14 -->
<g id="node14" class="node">
<title>Node14</title>
<g id="a_node14"><a xlink:href="class_export.html#a833aa02973f6b5c1f3e536e8646cf1ac" target="_top" xlink:title=" ">
<polygon fill="white" stroke="black" points="448,-722.5 448,-741.5 548,-741.5 548,-722.5 448,-722.5"/>
<text text-anchor="middle" x="498" y="-729.5" font-family="Helvetica,sans-Serif" font-size="10.00">Export::_loadALG</text>
</a>
</g>
</g>
<!-- Node1&#45;&gt;Node14 -->
<g id="edge30" class="edge">
<title>Node1&#45;&gt;Node14</title>
<path fill="none" stroke="midnightblue" d="M1356.91,-428.64C1358.12,-507.9 1358.07,-802.71 1292,-860 1048.88,-1070.82 599.76,-797.59 513.53,-741.64"/>
<polygon fill="midnightblue" stroke="midnightblue" points="1360.41,-428.5 1356.73,-418.56 1353.41,-428.62 1360.41,-428.5"/>
</g>
<!-- Node15 -->
<g id="node15" class="node">
<title>Node15</title>
<g id="a_node15"><a xlink:href="class_export.html#a966a54f05ada435d6d1ce6e4a9750f41" target="_top" xlink:title=" ">
<polygon fill="white" stroke="black" points="592,-722.5 592,-741.5 759,-741.5 759,-722.5 592,-722.5"/>
<text text-anchor="middle" x="675.5" y="-729.5" font-family="Helvetica,sans-Serif" font-size="10.00">Export::_checkALGdependency</text>
</a>
</g>
</g>
<!-- Node1&#45;&gt;Node15 -->
<g id="edge22" class="edge">
<title>Node1&#45;&gt;Node15</title>
<path fill="none" stroke="midnightblue" d="M1356.08,-428.79C1354.16,-498.27 1343.91,-729.52 1292,-777 1210.48,-851.56 902.24,-815.55 795,-789 755.33,-779.18 713.2,-755.23 691.45,-741.7"/>
<polygon fill="midnightblue" stroke="midnightblue" points="1359.58,-428.83 1356.33,-418.74 1352.58,-428.65 1359.58,-428.83"/>
</g>
<!-- Node17 -->
<g id="node17" class="node">
<title>Node17</title>
<g id="a_node17"><a xlink:href="class_export.html#ad7268f886ac4826f4b6ea738e423e520" target="_top" xlink:title=" ">
<polygon fill="white" stroke="black" points="601.5,-494.5 601.5,-513.5 749.5,-513.5 749.5,-494.5 601.5,-494.5"/>
<text text-anchor="middle" x="675.5" y="-501.5" font-family="Helvetica,sans-Serif" font-size="10.00">Export::_generateChannels</text>
</a>
</g>
</g>
<!-- Node1&#45;&gt;Node17 -->
<g id="edge28" class="edge">
<title>Node1&#45;&gt;Node17</title>
<path fill="none" stroke="midnightblue" d="M1346.83,-427.62C1336.15,-445.95 1317.11,-472.9 1292,-485 1198.27,-530.15 891.31,-517.63 749.51,-509.03"/>
<polygon fill="midnightblue" stroke="midnightblue" points="1349.98,-429.15 1351.76,-418.7 1343.85,-425.76 1349.98,-429.15"/>
</g>
<!-- Node18 -->
<g id="node18" class="node">
<title>Node18</title>
<g id="a_node18"><a xlink:href="class_alg___line.html#a0047f4df72a2d10ebb74701c3d05bafc" target="_top" xlink:title="Process function name and parameter variables.">
<polygon fill="white" stroke="black" points="1127,-152.5 1127,-171.5 1292,-171.5 1292,-152.5 1127,-152.5"/>
<text text-anchor="middle" x="1209.5" y="-159.5" font-family="Helvetica,sans-Serif" font-size="10.00">Alg_Line::_processFuncParams</text>
</a>
</g>
</g>
<!-- Node1&#45;&gt;Node18 -->
<g id="edge31" class="edge">
<title>Node1&#45;&gt;Node18</title>
<path fill="none" stroke="midnightblue" d="M1356.75,-389.34C1356.18,-346.27 1348.63,-242.9 1292,-186 1285.76,-179.73 1277.96,-175.08 1269.69,-171.63"/>
<polygon fill="midnightblue" stroke="midnightblue" points="1353.25,-389.37 1356.76,-399.37 1360.25,-389.36 1353.25,-389.37"/>
</g>
<!-- Node19 -->
<g id="node19" class="node">
<title>Node19</title>
<g id="a_node19"><a xlink:href="class_alg___line.html#a4f478c53dbfaecf16d55be668d959562" target="_top" xlink:title="Construct a new Alg_Line object. Process string at the same time.">
<polygon fill="white" stroke="black" points="958,-114.5 958,-133.5 1063,-133.5 1063,-114.5 958,-114.5"/>
<text text-anchor="middle" x="1010.5" y="-121.5" font-family="Helvetica,sans-Serif" font-size="10.00">Alg_Line::Alg_Line</text>
</a>
</g>
</g>
<!-- Node1&#45;&gt;Node19 -->
<g id="edge37" class="edge">
<title>Node1&#45;&gt;Node19</title>
<path fill="none" stroke="midnightblue" d="M1355.8,-388.9C1353.32,-350.01 1342.12,-264.3 1292,-219 1236.17,-168.54 1193.6,-216.03 1127,-181 1107.79,-170.9 1109.86,-158.74 1091,-148 1080.23,-141.87 1067.72,-137.14 1055.86,-133.58"/>
<polygon fill="midnightblue" stroke="midnightblue" points="1352.33,-389.56 1356.33,-399.37 1359.32,-389.21 1352.33,-389.56"/>
</g>
<!-- Node20 -->
<g id="node20" class="node">
<title>Node20</title>
<g id="a_node20"><a xlink:href="class_export.html#ad7bd412c3fe1d5accc38cf1f2ab65ea0" target="_top" xlink:title=" ">
<polygon fill="white" stroke="black" points="930,-428.5 930,-447.5 1091,-447.5 1091,-428.5 930,-428.5"/>
<text text-anchor="middle" x="1010.5" y="-435.5" font-family="Helvetica,sans-Serif" font-size="10.00">Export::_setCascadedChannel</text>
</a>
</g>
</g>
<!-- Node1&#45;&gt;Node20 -->
<g id="edge33" class="edge">
<title>Node1&#45;&gt;Node20</title>
<path fill="none" stroke="midnightblue" d="M1317.65,-406.11C1271.87,-403.37 1193.58,-400.77 1127,-409 1097.25,-412.68 1064.15,-421.49 1041.03,-428.45"/>
<polygon fill="midnightblue" stroke="midnightblue" points="1317.54,-409.61 1327.74,-406.75 1317.98,-402.62 1317.54,-409.61"/>
</g>
<!-- Node21 -->
<g id="node21" class="node">
<title>Node21</title>
<g id="a_node21"><a xlink:href="class_channel___graph.html#a1d5672c3f2f82748ae7ca25d38cdeffd" target="_top" xlink:title="Add channel from configuration to the channel graph.">
<polygon fill="white" stroke="black" points="1132,-456.5 1132,-475.5 1287,-475.5 1287,-456.5 1132,-456.5"/>
<text text-anchor="middle" x="1209.5" y="-463.5" font-family="Helvetica,sans-Serif" font-size="10.00">Channel_Graph::addChannel</text>
</a>
</g>
</g>
<!-- Node1&#45;&gt;Node21 -->
<g id="edge35" class="edge">
<title>Node1&#45;&gt;Node21</title>
<path fill="none" stroke="midnightblue" d="M1334.3,-424.36C1322.24,-432.1 1306.81,-441.07 1292,-447 1282.56,-450.78 1272.19,-453.91 1262.1,-456.47"/>
<polygon fill="midnightblue" stroke="midnightblue" points="1336.37,-427.18 1342.79,-418.75 1332.52,-421.34 1336.37,-427.18"/>
</g>
<!-- Node22 -->
<g id="node22" class="node">
<title>Node22</title>
<g id="a_node22"><a xlink:href="class_channel___graph.html#ac8aeff35f809d61816b2e1fadde523bf" target="_top" xlink:title=" ">
<polygon fill="white" stroke="black" points="1142.5,-418.5 1142.5,-437.5 1276.5,-437.5 1276.5,-418.5 1142.5,-418.5"/>
<text text-anchor="middle" x="1209.5" y="-425.5" font-family="Helvetica,sans-Serif" font-size="10.00">Channel_Graph::arrange</text>
</a>
</g>
</g>
<!-- Node1&#45;&gt;Node22 -->
<g id="edge38" class="edge">
<title>Node1&#45;&gt;Node22</title>
<path fill="none" stroke="midnightblue" d="M1317.56,-414.07C1305,-415.7 1290.71,-417.56 1276.75,-419.38"/>
<polygon fill="midnightblue" stroke="midnightblue" points="1318.19,-417.52 1327.66,-412.75 1317.29,-410.57 1318.19,-417.52"/>
</g>
<!-- Node23 -->
<g id="node23" class="node">
<title>Node23</title>
<g id="a_node23"><a xlink:href="class_term.html#a9cddc77e6bb55a5231b31cf79d59e39a" target="_top" xlink:title="Detect environment variable of NO_COLOR.">
<polygon fill="white" stroke="black" points="153.5,-304.5 153.5,-323.5 248.5,-323.5 248.5,-304.5 153.5,-304.5"/>
<text text-anchor="middle" x="201" y="-311.5" font-family="Helvetica,sans-Serif" font-size="10.00">Term::detectEnv</text>
</a>
</g>
</g>
<!-- Node1&#45;&gt;Node23 -->
<g id="edge40" class="edge">
<title>Node1&#45;&gt;Node23</title>
<path fill="none" stroke="midnightblue" d="M1345.7,-390.81C1334.57,-373.91 1315.55,-349.65 1292,-338 1179.85,-282.53 1136.62,-314 1011.5,-314 1011.5,-314 1011.5,-314 497,-314 409.29,-314 306.92,-314 248.75,-314"/>
<polygon fill="midnightblue" stroke="midnightblue" points="1342.77,-392.71 1351.05,-399.32 1348.69,-388.99 1342.77,-392.71"/>
</g>
<!-- Node24 -->
<g id="node24" class="node">
<title>Node24</title>
<g id="a_node24"><a xlink:href="class_log.html#af6071a60aa52b6c1b511f99b4bc1b8fe" target="_top" xlink:title="Construct a new Log object.">
<polygon fill="white" stroke="black" points="1181,-114.5 1181,-133.5 1238,-133.5 1238,-114.5 1181,-114.5"/>
<text text-anchor="middle" x="1209.5" y="-121.5" font-family="Helvetica,sans-Serif" font-size="10.00">Log::Log</text>
</a>
</g>
</g>
<!-- Node1&#45;&gt;Node24 -->
<g id="edge42" class="edge">
<title>Node1&#45;&gt;Node24</title>
<path fill="none" stroke="midnightblue" d="M1354.39,-389.38C1348.05,-333.97 1327.36,-178.05 1292,-143 1277.97,-129.09 1255.84,-124.6 1238.18,-123.44"/>
<polygon fill="midnightblue" stroke="midnightblue" points="1350.92,-389.77 1355.5,-399.33 1357.87,-389 1350.92,-389.77"/>
</g>
<!-- Node25 -->
<g id="node25" class="node">
<title>Node25</title>
<g id="a_node25"><a xlink:href="class_type___track.html#a399ed85504214c9a85a32b5ecce4bc3e" target="_top" xlink:title=" ">
<polygon fill="white" stroke="black" points="1142.5,-76.5 1142.5,-95.5 1276.5,-95.5 1276.5,-76.5 1142.5,-76.5"/>
<text text-anchor="middle" x="1209.5" y="-83.5" font-family="Helvetica,sans-Serif" font-size="10.00">Type_Track::operator++</text>
</a>
</g>
</g>
<!-- Node1&#45;&gt;Node25 -->
<g id="edge44" class="edge">
<title>Node1&#45;&gt;Node25</title>
<path fill="none" stroke="midnightblue" d="M1355.01,-389.04C1350.05,-328.06 1332.09,-145.9 1292,-105 1287.63,-100.54 1282.42,-97.04 1276.79,-94.31"/>
<polygon fill="midnightblue" stroke="midnightblue" points="1351.54,-389.55 1355.81,-399.25 1358.52,-389 1351.54,-389.55"/>
</g>
<!-- Node26 -->
<g id="node26" class="node">
<title>Node26</title>
<g id="a_node26"><a xlink:href="class_type___track.html#af8662cb8617cd3a968d9aaebbd24cd82" target="_top" xlink:title=" ">
<polygon fill="white" stroke="black" points="1147,-38.5 1147,-57.5 1272,-57.5 1272,-38.5 1147,-38.5"/>
<text text-anchor="middle" x="1209.5" y="-45.5" font-family="Helvetica,sans-Serif" font-size="10.00">Type_Track::operator&#45;&#45;</text>
</a>
</g>
</g>
<!-- Node1&#45;&gt;Node26 -->
<g id="edge45" class="edge">
<title>Node1&#45;&gt;Node26</title>
<path fill="none" stroke="midnightblue" d="M1355.53,-389.18C1351.9,-323.41 1336.96,-113.92 1292,-67 1286.47,-61.23 1279.56,-57.06 1272.11,-54.08"/>
<polygon fill="midnightblue" stroke="midnightblue" points="1352.05,-389.6 1356.06,-399.41 1359.04,-389.24 1352.05,-389.6"/>
</g>
<!-- Node27 -->
<g id="node27" class="node">
<title>Node27</title>
<g id="a_node27"><a xlink:href="class_type___track.html#a4548ba1c289fba60e88b0e725509219e" target="_top" xlink:title=" ">
<polygon fill="white" stroke="black" points="795,-760.5 795,-779.5 894,-779.5 894,-760.5 795,-760.5"/>
<text text-anchor="middle" x="844.5" y="-767.5" font-family="Helvetica,sans-Serif" font-size="10.00">Type_Track::push</text>
</a>
</g>
</g>
<!-- Node1&#45;&gt;Node27 -->
<g id="edge46" class="edge">
<title>Node1&#45;&gt;Node27</title>
<path fill="none" stroke="midnightblue" d="M1355.78,-428.84C1352.96,-494.64 1340.26,-703.87 1292,-746 1233.96,-796.67 997.48,-783.19 894.17,-774.58"/>
<polygon fill="midnightblue" stroke="midnightblue" points="1359.29,-428.74 1356.19,-418.61 1352.29,-428.46 1359.29,-428.74"/>
</g>
<!-- Node28 -->
<g id="node28" class="node">
<title>Node28</title>
<g id="a_node28"><a xlink:href="struct_macro.html#a94360db4bd4a0a2516339dadc6c37bbd" target="_top" xlink:title="RegEx replace.">
<polygon fill="white" stroke="black" points="1165,-0.5 1165,-19.5 1254,-19.5 1254,-0.5 1165,-0.5"/>
<text text-anchor="middle" x="1209.5" y="-7.5" font-family="Helvetica,sans-Serif" font-size="10.00">Macro::replace</text>
</a>
</g>
</g>
<!-- Node1&#45;&gt;Node28 -->
<g id="edge48" class="edge">
<title>Node1&#45;&gt;Node28</title>
<path fill="none" stroke="midnightblue" d="M1355.94,-389.3C1353.55,-319.02 1341.84,-81.97 1292,-29 1282.24,-18.63 1268.01,-13.42 1254.16,-10.93"/>
<polygon fill="midnightblue" stroke="midnightblue" points="1352.45,-389.54 1356.26,-399.43 1359.44,-389.32 1352.45,-389.54"/>
</g>
<!-- Node31 -->
<g id="node31" class="node">
<title>Node31</title>
<g id="a_node31"><a xlink:href="class_simulate.html#a03ef6895241e8accb07491e98bbfcf0c" target="_top" xlink:title=" ">
<polygon fill="white" stroke="black" points="1155,-228.5 1155,-247.5 1264,-247.5 1264,-228.5 1155,-228.5"/>
<text text-anchor="middle" x="1209.5" y="-235.5" font-family="Helvetica,sans-Serif" font-size="10.00">Simulate::simulate</text>
</a>
</g>
</g>
<!-- Node1&#45;&gt;Node31 -->
<g id="edge51" class="edge">
<title>Node1&#45;&gt;Node31</title>
<path fill="none" stroke="midnightblue" d="M1353.91,-389.32C1348.52,-356.67 1333.02,-291.5 1292,-257 1284.11,-250.36 1274.32,-245.94 1264.3,-243.02"/>
<polygon fill="midnightblue" stroke="midnightblue" points="1350.47,-390.04 1355.41,-399.41 1357.4,-389 1350.47,-390.04"/>
</g>
<!-- Node33 -->
<g id="node33" class="node">
<title>Node33</title>
<g id="a_node33"><a xlink:href="class_style.html#a06fd4016b36d2fa2e46c8c092701c7ea" target="_top" xlink:title="Call the astyle child process to style the generated C++ code.">
<polygon fill="white" stroke="black" points="1174,-266.5 1174,-285.5 1245,-285.5 1245,-266.5 1174,-266.5"/>
<text text-anchor="middle" x="1209.5" y="-273.5" font-family="Helvetica,sans-Serif" font-size="10.00">Style::style</text>
</a>
</g>
</g>
<!-- Node1&#45;&gt;Node33 -->
<g id="edge54" class="edge">
<title>Node1&#45;&gt;Node33</title>
<path fill="none" stroke="midnightblue" d="M1350.08,-389.57C1341,-365.1 1322.08,-323.41 1292,-300 1278.61,-289.58 1260.81,-283.68 1245.25,-280.34"/>
<polygon fill="midnightblue" stroke="midnightblue" points="1346.84,-390.92 1353.47,-399.19 1353.44,-388.6 1346.84,-390.92"/>
</g>
<!-- Node3 -->
<g id="node3" class="node">
<title>Node3</title>
<g id="a_node3"><a xlink:href="class_export.html#affc37d1d677a83d3e5d36a4e37b7a72b" target="_top" xlink:title=" ">
<polygon fill="white" stroke="black" points="146,-532.5 146,-551.5 256,-551.5 256,-532.5 146,-532.5"/>
<text text-anchor="middle" x="201" y="-539.5" font-family="Helvetica,sans-Serif" font-size="10.00">Export::exportCode</text>
</a>
</g>
</g>
<!-- Node2&#45;&gt;Node3 -->
<g id="edge2" class="edge">
<title>Node2&#45;&gt;Node3</title>
<path fill="none" stroke="midnightblue" d="M326.08,-691.91C315.39,-683.26 302.47,-672.11 292,-661 256.83,-623.67 222.23,-572.9 208.35,-551.81"/>
<polygon fill="midnightblue" stroke="midnightblue" points="324.07,-694.79 334.08,-698.27 328.42,-689.31 324.07,-694.79"/>
</g>
<!-- Node4 -->
<g id="node4" class="node">
<title>Node4</title>
<g id="a_node4"><a xlink:href="class_export.html#a94fab568af6ddd6447efca74e205e081" target="_top" xlink:title=" ">
<polygon fill="white" stroke="black" points="0,-532.5 0,-551.5 110,-551.5 110,-532.5 0,-532.5"/>
<text text-anchor="middle" x="55" y="-539.5" font-family="Helvetica,sans-Serif" font-size="10.00">Export::exportCode</text>
</a>
</g>
</g>
<!-- Node3&#45;&gt;Node4 -->
<g id="edge3" class="edge">
<title>Node3&#45;&gt;Node4</title>
<path fill="none" stroke="midnightblue" d="M135.73,-542C127.25,-542 118.62,-542 110.33,-542"/>
<polygon fill="midnightblue" stroke="midnightblue" points="135.97,-545.5 145.97,-542 135.97,-538.5 135.97,-545.5"/>
</g>
<!-- Node3&#45;&gt;Node5 -->
<g id="edge4" class="edge">
<title>Node3&#45;&gt;Node5</title>
<path fill="none" stroke="midnightblue" d="M188.55,-523.87C159.55,-477.95 83.94,-358.23 62.03,-323.55"/>
<polygon fill="midnightblue" stroke="midnightblue" points="185.7,-525.91 194,-532.49 191.62,-522.17 185.7,-525.91"/>
</g>
<!-- Node6&#45;&gt;Node6 -->
<g id="edge6" class="edge">
<title>Node6&#45;&gt;Node6</title>
<path fill="none" stroke="midnightblue" d="M1237.13,-646.65C1235.97,-651.94 1226.76,-656 1209.5,-656 1183.2,-656 1175.59,-646.57 1186.69,-637.76"/>
<polygon fill="midnightblue" stroke="midnightblue" points="1240.15,-644.89 1232.31,-637.76 1233.99,-648.22 1240.15,-644.89"/>
</g>
<!-- Node7 -->
<g id="node7" class="node">
<title>Node7</title>
<g id="a_node7"><a xlink:href="class_calc.html#ad6dbdfdd4bd21322e5836ff72c11ae1b" target="_top" xlink:title="Convert the Alg CALC contents into a language command.">
<polygon fill="white" stroke="black" points="983,-637.5 983,-656.5 1038,-656.5 1038,-637.5 983,-637.5"/>
<text text-anchor="middle" x="1010.5" y="-644.5" font-family="Helvetica,sans-Serif" font-size="10.00">Calc::as</text>
</a>
</g>
</g>
<!-- Node6&#45;&gt;Node7 -->
<g id="edge7" class="edge">
<title>Node6&#45;&gt;Node7</title>
<path fill="none" stroke="midnightblue" d="M1133.96,-635.19C1100.3,-638.44 1062.65,-642.07 1038.1,-644.43"/>
<polygon fill="midnightblue" stroke="midnightblue" points="1134.65,-638.64 1144.27,-634.2 1133.98,-631.67 1134.65,-638.64"/>
</g>
<!-- Node8 -->
<g id="node8" class="node">
<title>Node8</title>
<g id="a_node8"><a xlink:href="class_calc.html#ad26b51e3caa182fb7cb4d8e5c03ca8b1" target="_top" xlink:title=" ">
<polygon fill="white" stroke="black" points="817,-684.5 817,-703.5 872,-703.5 872,-684.5 817,-684.5"/>
<text text-anchor="middle" x="844.5" y="-691.5" font-family="Helvetica,sans-Serif" font-size="10.00">Calc::as</text>
</a>
</g>
</g>
<!-- Node7&#45;&gt;Node8 -->
<g id="edge8" class="edge">
<title>Node7&#45;&gt;Node8</title>
<path fill="none" stroke="midnightblue" d="M972.94,-657.48C942.41,-666.23 899.6,-678.5 872.2,-686.35"/>
<polygon fill="midnightblue" stroke="midnightblue" points="974.14,-660.78 982.79,-654.66 972.21,-654.05 974.14,-660.78"/>
</g>
<!-- Node9 -->
<g id="node9" class="node">
<title>Node9</title>
<g id="a_node9"><a xlink:href="class_alg.html#a3ee7f9963027158b3fbd442d97800111" target="_top" xlink:title=" ">
<polygon fill="white" stroke="black" points="801.5,-608.5 801.5,-627.5 887.5,-627.5 887.5,-608.5 801.5,-608.5"/>
<text text-anchor="middle" x="844.5" y="-615.5" font-family="Helvetica,sans-Serif" font-size="10.00">Alg::inlineCalc</text>
</a>
</g>
</g>
<!-- Node7&#45;&gt;Node9 -->
<g id="edge9" class="edge">
<title>Node7&#45;&gt;Node9</title>
<path fill="none" stroke="midnightblue" d="M972.86,-640.52C947.6,-636.05 913.96,-630.1 887.59,-625.44"/>
<polygon fill="midnightblue" stroke="midnightblue" points="972.33,-643.98 982.79,-642.28 973.55,-637.09 972.33,-643.98"/>
</g>
<!-- Node7&#45;&gt;Node10 -->
<g id="edge21" class="edge">
<title>Node7&#45;&gt;Node10</title>
<path fill="none" stroke="midnightblue" d="M972.43,-648C906.13,-649.79 768.47,-653.51 707.13,-655.17"/>
<polygon fill="midnightblue" stroke="midnightblue" points="972.91,-651.49 982.81,-647.72 972.72,-644.49 972.91,-651.49"/>
</g>
<!-- Node9&#45;&gt;Node10 -->
<g id="edge10" class="edge">
<title>Node9&#45;&gt;Node10</title>
<path fill="none" stroke="midnightblue" d="M791.42,-629.85C763.7,-636.16 730.58,-643.69 707.03,-649.05"/>
<polygon fill="midnightblue" stroke="midnightblue" points="792.38,-633.22 801.36,-627.59 790.83,-626.4 792.38,-633.22"/>
</g>
<!-- Node10&#45;&gt;Node2 -->
<g id="edge11" class="edge">
<title>Node10&#45;&gt;Node2</title>
<path fill="none" stroke="midnightblue" d="M633.98,-662.47C575.98,-671.74 469.13,-688.81 404.03,-699.21"/>
<polygon fill="midnightblue" stroke="midnightblue" points="634.56,-665.93 643.88,-660.89 633.45,-659.01 634.56,-665.93"/>
</g>
<!-- Node10&#45;&gt;Node10 -->
<g id="edge20" class="edge">
<title>Node10&#45;&gt;Node10</title>
<path fill="none" stroke="midnightblue" d="M706.94,-674.27C706.04,-679.74 695.56,-684 675.5,-684 645.64,-684 637.01,-674.57 649.61,-665.76"/>
<polygon fill="midnightblue" stroke="midnightblue" points="709.78,-672.23 701.39,-665.76 703.92,-676.05 709.78,-672.23"/>
</g>
<!-- Node10&#45;&gt;Node11 -->
<g id="edge12" class="edge">
<title>Node10&#45;&gt;Node11</title>
<path fill="none" stroke="midnightblue" d="M643.44,-642.22C619.57,-631.66 585.75,-616.79 556,-604 544.85,-599.21 532.44,-593.97 522.05,-589.61"/>
<polygon fill="midnightblue" stroke="midnightblue" points="642.14,-645.47 652.7,-646.32 644.97,-639.07 642.14,-645.47"/>
</g>
<!-- Node12 -->
<g id="node12" class="node">
<title>Node12</title>
<g id="a_node12"><a xlink:href="class_export.html#a26fa49d9882a342d011ba715e0c14109" target="_top" xlink:title=" ">
<polygon fill="white" stroke="black" points="296,-551.5 296,-570.5 400,-570.5 400,-551.5 296,-551.5"/>
<text text-anchor="middle" x="348" y="-558.5" font-family="Helvetica,sans-Serif" font-size="10.00">Export::_sounding</text>
</a>
</g>
</g>
<!-- Node10&#45;&gt;Node12 -->
<g id="edge19" class="edge">
<title>Node10&#45;&gt;Node12</title>
<path fill="none" stroke="midnightblue" d="M633.87,-648.15C586.68,-638.57 506.76,-620.9 440,-599 415.11,-590.83 387.47,-578.86 369.25,-570.54"/>
<polygon fill="midnightblue" stroke="midnightblue" points="633.22,-651.59 643.72,-650.13 634.6,-644.73 633.22,-651.59"/>
</g>
<!-- Node10&#45;&gt;Node13 -->
<g id="edge15" class="edge">
<title>Node10&#45;&gt;Node13</title>
<path fill="none" stroke="midnightblue" d="M657.47,-639.04C635.64,-618.13 595.83,-582.7 556,-561 549.22,-557.31 541.6,-554.16 534.19,-551.56"/>
<polygon fill="midnightblue" stroke="midnightblue" points="655.31,-641.82 664.92,-646.29 660.19,-636.81 655.31,-641.82"/>
</g>
<!-- Node10&#45;&gt;Node14 -->
<g id="edge17" class="edge">
<title>Node10&#45;&gt;Node14</title>
<path fill="none" stroke="midnightblue" d="M643.44,-669.78C619.57,-680.34 585.75,-695.21 556,-708 544.85,-712.79 532.44,-718.03 522.05,-722.39"/>
<polygon fill="midnightblue" stroke="midnightblue" points="644.97,-672.93 652.7,-665.68 642.14,-666.53 644.97,-672.93"/>
</g>
<!-- Node11&#45;&gt;Node12 -->
<g id="edge13" class="edge">
<title>Node11&#45;&gt;Node12</title>
<path fill="none" stroke="midnightblue" d="M431.85,-571.64C421.26,-570.28 410.43,-568.89 400.24,-567.58"/>
<polygon fill="midnightblue" stroke="midnightblue" points="431.53,-575.12 441.89,-572.93 432.42,-568.18 431.53,-575.12"/>
</g>
<!-- Node12&#45;&gt;Node3 -->
<g id="edge14" class="edge">
<title>Node12&#45;&gt;Node3</title>
<path fill="none" stroke="midnightblue" d="M285.75,-552.97C275.9,-551.68 265.77,-550.36 256.1,-549.09"/>
<polygon fill="midnightblue" stroke="midnightblue" points="285.51,-556.47 295.88,-554.3 286.42,-549.53 285.51,-556.47"/>
</g>
<!-- Node13&#45;&gt;Node12 -->
<g id="edge16" class="edge">
<title>Node13&#45;&gt;Node12</title>
<path fill="none" stroke="midnightblue" d="M429.6,-550.65C419.74,-551.92 409.73,-553.2 400.27,-554.42"/>
<polygon fill="midnightblue" stroke="midnightblue" points="430.31,-554.09 439.78,-549.35 429.42,-547.15 430.31,-554.09"/>
</g>
<!-- Node14&#45;&gt;Node2 -->
<g id="edge18" class="edge">
<title>Node14&#45;&gt;Node2</title>
<path fill="none" stroke="midnightblue" d="M437.71,-722.39C426.65,-720.59 415.13,-718.72 404.19,-716.95"/>
<polygon fill="midnightblue" stroke="midnightblue" points="437.29,-725.86 447.72,-724.01 438.41,-718.95 437.29,-725.86"/>
</g>
<!-- Node15&#45;&gt;Node14 -->
<g id="edge23" class="edge">
<title>Node15&#45;&gt;Node14</title>
<path fill="none" stroke="midnightblue" d="M581.73,-732C570.17,-732 558.74,-732 548.22,-732"/>
<polygon fill="midnightblue" stroke="midnightblue" points="581.89,-735.5 591.89,-732 581.89,-728.5 581.89,-735.5"/>
</g>
<!-- Node16 -->
<g id="node16" class="node">
<title>Node16</title>
<g id="a_node16"><a xlink:href="class_export.html#af64597af0c0b4cf569f96216bcd23b2c" target="_top" xlink:title=" ">
<polygon fill="white" stroke="black" points="296,-632.5 296,-651.5 400,-651.5 400,-632.5 296,-632.5"/>
<text text-anchor="middle" x="348" y="-639.5" font-family="Helvetica,sans-Serif" font-size="10.00">Export::_reporting</text>
</a>
</g>
</g>
<!-- Node15&#45;&gt;Node16 -->
<g id="edge24" class="edge">
<title>Node15&#45;&gt;Node16</title>
<path fill="none" stroke="midnightblue" d="M629.94,-719.68C564.32,-701.54 443.08,-668.01 383.66,-651.58"/>
<polygon fill="midnightblue" stroke="midnightblue" points="629.4,-723.16 639.97,-722.45 631.27,-716.42 629.4,-723.16"/>
</g>
<!-- Node16&#45;&gt;Node3 -->
<g id="edge25" class="edge">
<title>Node16&#45;&gt;Node3</title>
<path fill="none" stroke="midnightblue" d="M324.48,-626.47C294.2,-605.59 241.25,-569.07 216.07,-551.71"/>
<polygon fill="midnightblue" stroke="midnightblue" points="322.88,-629.62 333.1,-632.41 326.85,-623.85 322.88,-629.62"/>
</g>
<!-- Node17&#45;&gt;Node3 -->
<g id="edge29" class="edge">
<title>Node17&#45;&gt;Node3</title>
<path fill="none" stroke="midnightblue" d="M591.42,-510.68C494.81,-518.45 338.12,-531.05 256.05,-537.65"/>
<polygon fill="midnightblue" stroke="midnightblue" points="591.76,-514.17 601.45,-509.88 591.2,-507.19 591.76,-514.17"/>
</g>
<!-- Node18&#45;&gt;Node19 -->
<g id="edge32" class="edge">
<title>Node18&#45;&gt;Node19</title>
<path fill="none" stroke="midnightblue" d="M1148.94,-150.51C1120.83,-145.09 1087.68,-138.69 1060.98,-133.54"/>
<polygon fill="midnightblue" stroke="midnightblue" points="1148.56,-154 1159.04,-152.46 1149.89,-147.13 1148.56,-154"/>
</g>
<!-- Node20&#45;&gt;Node3 -->
<g id="edge34" class="edge">
<title>Node20&#45;&gt;Node3</title>
<path fill="none" stroke="midnightblue" d="M919.74,-445.9C852.77,-451.12 758.98,-457 676.5,-457 676.5,-457 676.5,-457 497,-457 389.07,-457 267.31,-510.18 221.13,-532.41"/>
<polygon fill="midnightblue" stroke="midnightblue" points="920.15,-449.38 929.84,-445.1 919.6,-442.4 920.15,-449.38"/>
</g>
<!-- Node21&#45;&gt;Node20 -->
<g id="edge36" class="edge">
<title>Node21&#45;&gt;Node20</title>
<path fill="none" stroke="midnightblue" d="M1131.39,-455.04C1113.97,-452.56 1095.6,-449.95 1078.62,-447.54"/>
<polygon fill="midnightblue" stroke="midnightblue" points="1131.14,-458.54 1141.53,-456.48 1132.12,-451.61 1131.14,-458.54"/>
</g>
<!-- Node22&#45;&gt;Node20 -->
<g id="edge39" class="edge">
<title>Node22&#45;&gt;Node20</title>
<path fill="none" stroke="midnightblue" d="M1132.19,-431.87C1118.73,-432.56 1104.69,-433.27 1091.14,-433.96"/>
<polygon fill="midnightblue" stroke="midnightblue" points="1132.54,-435.36 1142.35,-431.36 1132.19,-428.37 1132.54,-435.36"/>
</g>
<!-- Node23&#45;&gt;Node5 -->
<g id="edge41" class="edge">
<title>Node23&#45;&gt;Node5</title>
<path fill="none" stroke="midnightblue" d="M143.18,-314C119.29,-314 93.07,-314 75.68,-314"/>
<polygon fill="midnightblue" stroke="midnightblue" points="143.25,-317.5 153.25,-314 143.25,-310.5 143.25,-317.5"/>
</g>
<!-- Node27&#45;&gt;Node10 -->
<g id="edge47" class="edge">
<title>Node27&#45;&gt;Node10</title>
<path fill="none" stroke="midnightblue" d="M811.29,-755.67C805.7,-752.73 800.06,-749.47 795,-746 777.09,-733.73 775.97,-726.53 759,-713 736.54,-695.09 708.76,-676.59 691.85,-665.7"/>
<polygon fill="midnightblue" stroke="midnightblue" points="810.03,-758.95 820.54,-760.27 813.15,-752.68 810.03,-758.95"/>
</g>
<!-- Node29 -->
<g id="node29" class="node">
<title>Node29</title>
<g id="a_node29"><a xlink:href="struct_macro.html#ac0ddd588c300108ca443b10316d99877" target="_top" xlink:title=" ">
<polygon fill="white" stroke="black" points="951,-0.5 951,-19.5 1070,-19.5 1070,-0.5 951,-0.5"/>
<text text-anchor="middle" x="1010.5" y="-7.5" font-family="Helvetica,sans-Serif" font-size="10.00">Macro::replaceMacro</text>
</a>
</g>
</g>
<!-- Node28&#45;&gt;Node29 -->
<g id="edge49" class="edge">
<title>Node28&#45;&gt;Node29</title>
<path fill="none" stroke="midnightblue" d="M1154.65,-10C1128.43,-10 1096.86,-10 1070.05,-10"/>
<polygon fill="midnightblue" stroke="midnightblue" points="1154.78,-13.5 1164.78,-10 1154.78,-6.5 1154.78,-13.5"/>
</g>
<!-- Node30 -->
<g id="node30" class="node">
<title>Node30</title>
<g id="a_node30"><a xlink:href="class_alg.html#a45e536cf797bba52c851877371ea64c5" target="_top" xlink:title=" ">
<polygon fill="white" stroke="black" points="817.5,-0.5 817.5,-19.5 871.5,-19.5 871.5,-0.5 817.5,-0.5"/>
<text text-anchor="middle" x="844.5" y="-7.5" font-family="Helvetica,sans-Serif" font-size="10.00">Alg::Alg</text>
</a>
</g>
</g>
<!-- Node29&#45;&gt;Node30 -->
<g id="edge50" class="edge">
<title>Node29&#45;&gt;Node30</title>
<path fill="none" stroke="midnightblue" d="M940.48,-10C916.21,-10 890.38,-10 871.8,-10"/>
<polygon fill="midnightblue" stroke="midnightblue" points="940.76,-13.5 950.76,-10 940.76,-6.5 940.76,-13.5"/>
</g>
<!-- Node31&#45;&gt;Node5 -->
<g id="edge52" class="edge">
<title>Node31&#45;&gt;Node5</title>
<path fill="none" stroke="midnightblue" d="M1152.93,-225.35C1143.97,-222.28 1135.02,-218.53 1127,-214 1108.1,-203.33 1110.91,-189.64 1091,-181 990.61,-137.42 954.94,-162 845.5,-162 845.5,-162 845.5,-162 347,-162 223.32,-162 100.23,-271.22 65.59,-304.49"/>
<polygon fill="midnightblue" stroke="midnightblue" points="1152.01,-228.73 1162.6,-228.43 1154.13,-222.06 1152.01,-228.73"/>
</g>
<!-- Node32 -->
<g id="node32" class="node">
<title>Node32</title>
<g id="a_node32"><a xlink:href="class_simulate.html#a9b861e2a496da07d9377808c84c3e01b" target="_top" xlink:title=" ">
<polygon fill="white" stroke="black" points="956,-190.5 956,-209.5 1065,-209.5 1065,-190.5 956,-190.5"/>
<text text-anchor="middle" x="1010.5" y="-197.5" font-family="Helvetica,sans-Serif" font-size="10.00">Simulate::simulate</text>
</a>
</g>
</g>
<!-- Node31&#45;&gt;Node32 -->
<g id="edge53" class="edge">
<title>Node31&#45;&gt;Node32</title>
<path fill="none" stroke="midnightblue" d="M1148.94,-226.51C1120.83,-221.09 1087.68,-214.69 1060.98,-209.54"/>
<polygon fill="midnightblue" stroke="midnightblue" points="1148.56,-230 1159.04,-228.46 1149.89,-223.13 1148.56,-230"/>
</g>
<!-- Node33&#45;&gt;Node5 -->
<g id="edge55" class="edge">
<title>Node33&#45;&gt;Node5</title>
<path fill="none" stroke="midnightblue" d="M1163.96,-276C1095.5,-276 960.29,-276 845.5,-276 845.5,-276 845.5,-276 347,-276 257.27,-276 234.71,-281.49 146,-295 121.53,-298.73 93.7,-304.91 75.55,-309.2"/>
<polygon fill="midnightblue" stroke="midnightblue" points="1163.96,-279.5 1173.96,-276 1163.96,-272.5 1163.96,-279.5"/>
</g>
<!-- Node34 -->
<g id="node34" class="node">
<title>Node34</title>
<g id="a_node34"><a xlink:href="class_style.html#a4202615ba5c3a3b4c1b81a53f9c62b63" target="_top" xlink:title="Call the astyle child process to style the generated C++ code.">
<polygon fill="white" stroke="black" points="975,-228.5 975,-247.5 1046,-247.5 1046,-228.5 975,-228.5"/>
<text text-anchor="middle" x="1010.5" y="-235.5" font-family="Helvetica,sans-Serif" font-size="10.00">Style::style</text>
</a>
</g>
</g>
<!-- Node33&#45;&gt;Node34 -->
<g id="edge56" class="edge">
<title>Node33&#45;&gt;Node34</title>
<path fill="none" stroke="midnightblue" d="M1163.61,-267.34C1127.99,-260.47 1078.92,-251 1046.25,-244.7"/>
<polygon fill="midnightblue" stroke="midnightblue" points="1163.25,-270.84 1173.73,-269.29 1164.58,-263.96 1163.25,-270.84"/>
</g>
</g>
</svg>
