<?xml version="1.0" encoding="UTF-8" standalone="no"?>
<!DOCTYPE svg PUBLIC "-//W3C//DTD SVG 1.1//EN"
 "http://www.w3.org/Graphics/SVG/1.1/DTD/svg11.dtd">
<!-- Generated by graphviz version 2.43.0 (0)
 -->
<!-- Title: Export::Export Pages: 1 -->
<svg width="523pt" height="180pt"
 viewBox="0.00 0.00 523.00 180.00" xmlns="http://www.w3.org/2000/svg" xmlns:xlink="http://www.w3.org/1999/xlink">
<g id="graph0" class="graph" transform="scale(1 1) rotate(0) translate(4 176)">
<title>Export::Export</title>
<polygon fill="white" stroke="transparent" points="-4,4 -4,-176 519,-176 519,4 -4,4"/>
<!-- Node1 -->
<g id="node1" class="node">
<title>Node1</title>
<g id="a_node1"><a xlink:title=" ">
<polygon fill="#bfbfbf" stroke="black" points="0,-76.5 0,-95.5 86,-95.5 86,-76.5 0,-76.5"/>
<text text-anchor="middle" x="43" y="-83.5" font-family="Helvetica,sans-Serif" font-size="10.00">Export::Export</text>
</a>
</g>
</g>
<!-- Node2 -->
<g id="node2" class="node">
<title>Node2</title>
<g id="a_node2"><a xlink:href="class_export.html#abe75ae41d7cc8afe8f1ba4bbf67dfcfc" target="_top" xlink:title=" ">
<polygon fill="white" stroke="black" points="154.5,-152.5 154.5,-171.5 217.5,-171.5 217.5,-152.5 154.5,-152.5"/>
<text text-anchor="middle" x="186" y="-159.5" font-family="Helvetica,sans-Serif" font-size="10.00">Export::_f</text>
</a>
</g>
</g>
<!-- Node1&#45;&gt;Node2 -->
<g id="edge1" class="edge">
<title>Node1&#45;&gt;Node2</title>
<path fill="none" stroke="midnightblue" d="M54.59,-95.58C68.92,-108.08 95.73,-129.92 122,-143 129.12,-146.54 137.02,-149.57 144.76,-152.09"/>
<polygon fill="midnightblue" stroke="midnightblue" points="143.82,-155.46 154.4,-155.01 145.85,-148.76 143.82,-155.46"/>
</g>
<!-- Node3 -->
<g id="node3" class="node">
<title>Node3</title>
<g id="a_node3"><a xlink:href="class_export.html#a49e3c27dc494833b91eef96ceb708bf1" target="_top" xlink:title=" ">
<polygon fill="white" stroke="black" points="122,-114.5 122,-133.5 250,-133.5 250,-114.5 122,-114.5"/>
<text text-anchor="middle" x="186" y="-121.5" font-family="Helvetica,sans-Serif" font-size="10.00">Export::_langExtension</text>
</a>
</g>
</g>
<!-- Node1&#45;&gt;Node3 -->
<g id="edge2" class="edge">
<title>Node1&#45;&gt;Node3</title>
<path fill="none" stroke="midnightblue" d="M79.58,-95.59C97.78,-100.49 120.14,-106.52 139.57,-111.76"/>
<polygon fill="midnightblue" stroke="midnightblue" points="138.86,-115.19 149.43,-114.41 140.69,-108.43 138.86,-115.19"/>
</g>
<!-- Node4 -->
<g id="node4" class="node">
<title>Node4</title>
<g id="a_node4"><a xlink:href="class_export.html#a4e527db408e6caeca560fb9b3c38fe87" target="_top" xlink:title=" ">
<polygon fill="white" stroke="black" points="137,-76.5 137,-95.5 235,-95.5 235,-76.5 137,-76.5"/>
<text text-anchor="middle" x="186" y="-83.5" font-family="Helvetica,sans-Serif" font-size="10.00">Export::_setLang</text>
</a>
</g>
</g>
<!-- Node1&#45;&gt;Node4 -->
<g id="edge3" class="edge">
<title>Node1&#45;&gt;Node4</title>
<path fill="none" stroke="midnightblue" d="M86.3,-86C98.97,-86 113.1,-86 126.61,-86"/>
<polygon fill="midnightblue" stroke="midnightblue" points="126.79,-89.5 136.79,-86 126.79,-82.5 126.79,-89.5"/>
</g>
<!-- Node10 -->
<g id="node10" class="node">
<title>Node10</title>
<g id="a_node10"><a xlink:href="read_8h.html#a90e5345c902a238d6a6b0e75eed3aa26" target="_top" xlink:title=" ">
<polygon fill="white" stroke="black" points="157.5,-38.5 157.5,-57.5 214.5,-57.5 214.5,-38.5 157.5,-38.5"/>
<text text-anchor="middle" x="186" y="-45.5" font-family="Helvetica,sans-Serif" font-size="10.00">hasError</text>
</a>
</g>
</g>
<!-- Node1&#45;&gt;Node10 -->
<g id="edge9" class="edge">
<title>Node1&#45;&gt;Node10</title>
<path fill="none" stroke="midnightblue" d="M79.58,-76.41C100.33,-70.82 126.49,-63.77 147.55,-58.09"/>
<polygon fill="midnightblue" stroke="midnightblue" points="148.69,-61.41 157.44,-55.43 146.87,-54.65 148.69,-61.41"/>
</g>
<!-- Node13 -->
<g id="node13" class="node">
<title>Node13</title>
<g id="a_node13"><a xlink:href="class_read_config.html#a2c8f10578b84a966baca70aa9de7ffb2" target="_top" xlink:title=" ">
<polygon fill="white" stroke="black" points="136,-0.5 136,-19.5 236,-19.5 236,-0.5 136,-0.5"/>
<text text-anchor="middle" x="186" y="-7.5" font-family="Helvetica,sans-Serif" font-size="10.00">ReadConfig::read</text>
</a>
</g>
</g>
<!-- Node1&#45;&gt;Node13 -->
<g id="edge12" class="edge">
<title>Node1&#45;&gt;Node13</title>
<path fill="none" stroke="midnightblue" d="M54.59,-76.42C68.92,-63.92 95.73,-42.08 122,-29 126.55,-26.73 131.42,-24.68 136.36,-22.84"/>
<polygon fill="midnightblue" stroke="midnightblue" points="137.58,-26.12 145.89,-19.55 135.3,-19.5 137.58,-26.12"/>
</g>
<!-- Node5 -->
<g id="node5" class="node">
<title>Node5</title>
<g id="a_node5"><a xlink:href="class_export.html#a21d0cb6d76223b8e7bcaae31c667219b" target="_top" xlink:title=" ">
<polygon fill="white" stroke="black" points="311,-152.5 311,-171.5 389,-171.5 389,-152.5 311,-152.5"/>
<text text-anchor="middle" x="350" y="-159.5" font-family="Helvetica,sans-Serif" font-size="10.00">Export::_info</text>
</a>
</g>
</g>
<!-- Node4&#45;&gt;Node5 -->
<g id="edge4" class="edge">
<title>Node4&#45;&gt;Node5</title>
<path fill="none" stroke="midnightblue" d="M229.66,-95.55C236.73,-98.06 243.78,-101.16 250,-105 269.8,-117.21 266.2,-130.79 286,-143 290.74,-145.92 295.96,-148.42 301.3,-150.55"/>
<polygon fill="midnightblue" stroke="midnightblue" points="300.39,-153.94 310.98,-154 302.74,-147.35 300.39,-153.94"/>
</g>
<!-- Node6 -->
<g id="node6" class="node">
<title>Node6</title>
<g id="a_node6"><a xlink:href="class_export.html#a135d577609524ca7a7fbaa9ee07e315a" target="_top" xlink:title=" ">
<polygon fill="white" stroke="black" points="295,-114.5 295,-133.5 405,-133.5 405,-114.5 295,-114.5"/>
<text text-anchor="middle" x="350" y="-121.5" font-family="Helvetica,sans-Serif" font-size="10.00">Export::_langName</text>
</a>
</g>
</g>
<!-- Node4&#45;&gt;Node6 -->
<g id="edge5" class="edge">
<title>Node4&#45;&gt;Node6</title>
<path fill="none" stroke="midnightblue" d="M227.88,-95.59C249.35,-100.63 275.86,-106.84 298.6,-112.18"/>
<polygon fill="midnightblue" stroke="midnightblue" points="297.88,-115.6 308.41,-114.48 299.48,-108.79 297.88,-115.6"/>
</g>
<!-- Node7 -->
<g id="node7" class="node">
<title>Node7</title>
<g id="a_node7"><a xlink:href="class_export.html#a33b5d571af76c0d4f9b9ee6e72afd8a6" target="_top" xlink:title=" ">
<polygon fill="white" stroke="black" points="297.5,-76.5 297.5,-95.5 402.5,-95.5 402.5,-76.5 297.5,-76.5"/>
<text text-anchor="middle" x="350" y="-83.5" font-family="Helvetica,sans-Serif" font-size="10.00">Export::_preCheck</text>
</a>
</g>
</g>
<!-- Node4&#45;&gt;Node7 -->
<g id="edge6" class="edge">
<title>Node4&#45;&gt;Node7</title>
<path fill="none" stroke="midnightblue" d="M235.17,-86C251.54,-86 270.07,-86 287.35,-86"/>
<polygon fill="midnightblue" stroke="midnightblue" points="287.35,-89.5 297.35,-86 287.35,-82.5 287.35,-89.5"/>
</g>
<!-- Node9 -->
<g id="node9" class="node">
<title>Node9</title>
<g id="a_node9"><a xlink:href="class_export.html#a6223103ee7fb91e057fe72c574b61317" target="_top" xlink:title=" ">
<polygon fill="white" stroke="black" points="286,-38.5 286,-57.5 414,-57.5 414,-38.5 286,-38.5"/>
<text text-anchor="middle" x="350" y="-45.5" font-family="Helvetica,sans-Serif" font-size="10.00">Export::_setLatestError</text>
</a>
</g>
</g>
<!-- Node4&#45;&gt;Node9 -->
<g id="edge8" class="edge">
<title>Node4&#45;&gt;Node9</title>
<path fill="none" stroke="midnightblue" d="M227.88,-76.41C249.35,-71.37 275.86,-65.16 298.6,-59.82"/>
<polygon fill="midnightblue" stroke="midnightblue" points="299.48,-63.21 308.41,-57.52 297.88,-56.4 299.48,-63.21"/>
</g>
<!-- Node8 -->
<g id="node8" class="node">
<title>Node8</title>
<g id="a_node8"><a xlink:href="error__code_8h.html#ae1bfa02e1106eff84ddecb9f7773a1a4" target="_top" xlink:title="Return the error message of the error code from class Err.">
<polygon fill="white" stroke="black" points="452.5,-76.5 452.5,-95.5 512.5,-95.5 512.5,-76.5 452.5,-76.5"/>
<text text-anchor="middle" x="482.5" y="-83.5" font-family="Helvetica,sans-Serif" font-size="10.00">errorMsg</text>
</a>
</g>
</g>
<!-- Node7&#45;&gt;Node8 -->
<g id="edge7" class="edge">
<title>Node7&#45;&gt;Node8</title>
<path fill="none" stroke="midnightblue" d="M402.58,-86C415.82,-86 429.86,-86 442.36,-86"/>
<polygon fill="midnightblue" stroke="midnightblue" points="442.45,-89.5 452.45,-86 442.45,-82.5 442.45,-89.5"/>
</g>
<!-- Node11 -->
<g id="node11" class="node">
<title>Node11</title>
<g id="a_node11"><a xlink:href="error__code_8h.html#a81aa27a794998cf874bbef6d0f34b9d9" target="_top" xlink:title="Check if the error code corresponds to an error.">
<polygon fill="white" stroke="black" points="326,-0.5 326,-19.5 374,-19.5 374,-0.5 326,-0.5"/>
<text text-anchor="middle" x="350" y="-7.5" font-family="Helvetica,sans-Serif" font-size="10.00">isError</text>
</a>
</g>
</g>
<!-- Node10&#45;&gt;Node11 -->
<g id="edge10" class="edge">
<title>Node10&#45;&gt;Node11</title>
<path fill="none" stroke="midnightblue" d="M214.85,-41.47C242.93,-34.88 286.27,-24.71 316.04,-17.73"/>
<polygon fill="midnightblue" stroke="midnightblue" points="317.03,-21.09 325.96,-15.4 315.43,-14.28 317.03,-21.09"/>
</g>
<!-- Node12 -->
<g id="node12" class="node">
<title>Node12</title>
<g id="a_node12"><a xlink:href="error__code_8h.html#ae1ca599cceb33d2db79940c7d98937f8" target="_top" xlink:title="Return the integer of the error code from class Err.">
<polygon fill="white" stroke="black" points="450,-0.5 450,-19.5 515,-19.5 515,-0.5 450,-0.5"/>
<text text-anchor="middle" x="482.5" y="-7.5" font-family="Helvetica,sans-Serif" font-size="10.00">errorCode</text>
</a>
</g>
</g>
<!-- Node11&#45;&gt;Node12 -->
<g id="edge11" class="edge">
<title>Node11&#45;&gt;Node12</title>
<path fill="none" stroke="midnightblue" d="M374.03,-10C392.22,-10 418.09,-10 439.89,-10"/>
<polygon fill="midnightblue" stroke="midnightblue" points="439.89,-13.5 449.89,-10 439.89,-6.5 439.89,-13.5"/>
</g>
</g>
</svg>
