<?xml version="1.0" encoding="UTF-8" standalone="no"?>
<!DOCTYPE svg PUBLIC "-//W3C//DTD SVG 1.1//EN"
 "http://www.w3.org/Graphics/SVG/1.1/DTD/svg11.dtd">
<!-- Generated by graphviz version 2.43.0 (0)
 -->
<!-- Title: Export::_estimation Pages: 1 -->
<!--zoomable 935 -->
<svg id="main" version="1.1" xmlns="http://www.w3.org/2000/svg" xmlns:xlink="http://www.w3.org/1999/xlink" xml:space="preserve" onload="init(evt)">
<style type="text/css"><![CDATA[
.edge:hover path { stroke: red; }
.edge:hover polygon { stroke: red; fill: red; }
]]></style>
<script type="text/javascript"><![CDATA[
var edges = document.getElementsByTagName('g');
if (edges && edges.length) {
  for (var i=0;i<edges.length;i++) {
    if (edges[i].id.substr(0,4)=='edge') {
      edges[i].setAttribute('class','edge');
    }
  }
}
]]></script>
        <defs>
                <circle id="rim" cx="0" cy="0" r="7"/>
                <circle id="rim2" cx="0" cy="0" r="3.5"/>
                <g id="zoomPlus">
                        <use xlink:href="#rim" fill="#404040">
                                <set attributeName="fill" to="#808080" begin="zoomplus.mouseover" end="zoomplus.mouseout"/>
                        </use>
                        <path d="M-4,0h8M0,-4v8" fill="none" stroke="white" stroke-width="1.5" pointer-events="none"/>
                </g>
                <g id="zoomMin">
                        <use xlink:href="#rim" fill="#404040">
                                <set attributeName="fill" to="#808080" begin="zoomminus.mouseover" end="zoomminus.mouseout"/>
                        </use>
                        <path d="M-4,0h8" fill="none" stroke="white" stroke-width="1.5" pointer-events="none"/>
                </g>
                <g id="dirArrow">
                        <path fill="none" stroke="white" stroke-width="1.5" d="M0,-3.0v7 M-2.5,-0.5L0,-3.0L2.5,-0.5"/>
                </g>
               <g id="resetDef">
                       <use xlink:href="#rim2" fill="#404040">
                               <set attributeName="fill" to="#808080" begin="reset.mouseover" end="reset.mouseout"/>
                       </use>
               </g>
        </defs>

<script type="text/javascript">
var viewWidth = 893;
var viewHeight = 935;
var sectionId = 'dynsection-14';
</script>
<script xlink:href="svgpan.js"/>
<svg id="graph" class="graph">
<g id="viewport">
<title>Export::_estimation</title>
<polygon fill="white" stroke="transparent" points="-4,4 -4,-931 889,-931 889,4 -4,4"/>
<!-- Node1 -->
<g id="node1" class="node">
<title>Node1</title>
<g id="a_node1"><a xlink:title=" ">
<polygon fill="#bfbfbf" stroke="black" points="0,-793.5 0,-812.5 112,-812.5 112,-793.5 0,-793.5"/>
<text text-anchor="middle" x="56" y="-800.5" font-family="Helvetica,sans-Serif" font-size="10.00">Export::_estimation</text>
</a>
</g>
</g>
<!-- Node2 -->
<g id="node2" class="node">
<title>Node2</title>
<g id="a_node2"><a xlink:href="class_export.html#a638d6b9ced18342503ee6f4d4b274740" target="_top" xlink:title=" ">
<polygon fill="white" stroke="black" points="158.5,-907.5 158.5,-926.5 242.5,-926.5 242.5,-907.5 158.5,-907.5"/>
<text text-anchor="middle" x="200.5" y="-914.5" font-family="Helvetica,sans-Serif" font-size="10.00">Export::_asStr</text>
</a>
</g>
</g>
<!-- Node1&#45;&gt;Node2 -->
<g id="edge1" class="edge">
<title>Node1&#45;&gt;Node2</title>
<path fill="none" stroke="midnightblue" d="M63.91,-812.74C77.79,-831.68 110.94,-873.71 148,-898 150.96,-899.94 154.14,-901.72 157.42,-903.34"/>
<polygon fill="midnightblue" stroke="midnightblue" points="156.26,-906.65 166.82,-907.49 159.09,-900.25 156.26,-906.65"/>
</g>
<!-- Node3 -->
<g id="node3" class="node">
<title>Node3</title>
<g id="a_node3"><a xlink:href="class_export.html#abe75ae41d7cc8afe8f1ba4bbf67dfcfc" target="_top" xlink:title=" ">
<polygon fill="white" stroke="black" points="169,-869.5 169,-888.5 232,-888.5 232,-869.5 169,-869.5"/>
<text text-anchor="middle" x="200.5" y="-876.5" font-family="Helvetica,sans-Serif" font-size="10.00">Export::_f</text>
</a>
</g>
</g>
<!-- Node1&#45;&gt;Node3 -->
<g id="edge2" class="edge">
<title>Node1&#45;&gt;Node3</title>
<path fill="none" stroke="midnightblue" d="M70.37,-812.61C87.67,-824.75 119.05,-845.78 148,-860 152.1,-862.02 156.48,-863.94 160.88,-865.75"/>
<polygon fill="midnightblue" stroke="midnightblue" points="159.87,-869.11 170.46,-869.47 162.41,-862.58 159.87,-869.11"/>
</g>
<!-- Node4 -->
<g id="node4" class="node">
<title>Node4</title>
<g id="a_node4"><a xlink:href="class_export.html#a68e698a5654fc800aa78c512da8f23b1" target="_top" xlink:title=" ">
<polygon fill="white" stroke="black" points="153.5,-831.5 153.5,-850.5 247.5,-850.5 247.5,-831.5 153.5,-831.5"/>
<text text-anchor="middle" x="200.5" y="-838.5" font-family="Helvetica,sans-Serif" font-size="10.00">Export::_langStr</text>
</a>
</g>
</g>
<!-- Node1&#45;&gt;Node4 -->
<g id="edge3" class="edge">
<title>Node1&#45;&gt;Node4</title>
<path fill="none" stroke="midnightblue" d="M92.96,-812.59C111.44,-817.52 134.16,-823.57 153.86,-828.83"/>
<polygon fill="midnightblue" stroke="midnightblue" points="152.99,-832.22 163.55,-831.41 154.79,-825.46 152.99,-832.22"/>
</g>
<!-- Node5 -->
<g id="node5" class="node">
<title>Node5</title>
<g id="a_node5"><a xlink:href="class_export.html#a33b5d571af76c0d4f9b9ee6e72afd8a6" target="_top" xlink:title=" ">
<polygon fill="white" stroke="black" points="148,-793.5 148,-812.5 253,-812.5 253,-793.5 148,-793.5"/>
<text text-anchor="middle" x="200.5" y="-800.5" font-family="Helvetica,sans-Serif" font-size="10.00">Export::_preCheck</text>
</a>
</g>
</g>
<!-- Node1&#45;&gt;Node5 -->
<g id="edge4" class="edge">
<title>Node1&#45;&gt;Node5</title>
<path fill="none" stroke="midnightblue" d="M112.09,-803C120.45,-803 129.11,-803 137.6,-803"/>
<polygon fill="midnightblue" stroke="midnightblue" points="137.82,-806.5 147.82,-803 137.82,-799.5 137.82,-806.5"/>
</g>
<!-- Node7 -->
<g id="node7" class="node">
<title>Node7</title>
<g id="a_node7"><a xlink:href="class_log.html#add7e611cd3267d3fd5dae017e3aeef67" target="_top" xlink:title="Write infomation to the log file.">
<polygon fill="white" stroke="black" points="806,-384.5 806,-403.5 865,-403.5 865,-384.5 806,-384.5"/>
<text text-anchor="middle" x="835.5" y="-391.5" font-family="Helvetica,sans-Serif" font-size="10.00">Log::info</text>
</a>
</g>
</g>
<!-- Node1&#45;&gt;Node7 -->
<g id="edge6" class="edge">
<title>Node1&#45;&gt;Node7</title>
<path fill="none" stroke="midnightblue" d="M97.58,-793.43C113.26,-790.02 131.39,-786.43 148,-784 247.3,-769.5 272.64,-765 373,-765 373,-765 373,-765 535.5,-765 718.03,-765 808.03,-489.39 829.41,-413.27"/>
<polygon fill="midnightblue" stroke="midnightblue" points="832.81,-414.11 832.07,-403.54 826.06,-412.27 832.81,-414.11"/>
</g>
<!-- Node8 -->
<g id="node8" class="node">
<title>Node8</title>
<g id="a_node8"><a xlink:href="utils_8h.html#a6ef734356291c638e5787a6c668192d4" target="_top" xlink:title=" ">
<polygon fill="white" stroke="black" points="355.5,-717.5 355.5,-736.5 392.5,-736.5 392.5,-717.5 355.5,-717.5"/>
<text text-anchor="middle" x="374" y="-724.5" font-family="Helvetica,sans-Serif" font-size="10.00">trim</text>
</a>
</g>
</g>
<!-- Node1&#45;&gt;Node8 -->
<g id="edge7" class="edge">
<title>Node1&#45;&gt;Node8</title>
<path fill="none" stroke="midnightblue" d="M69.76,-793.41C86.66,-781.26 117.87,-760.74 148,-751 216.4,-728.89 301.98,-726.12 345.23,-726.35"/>
<polygon fill="midnightblue" stroke="midnightblue" points="345.24,-729.85 355.28,-726.46 345.31,-722.85 345.24,-729.85"/>
</g>
<!-- Node11 -->
<g id="node11" class="node">
<title>Node11</title>
<g id="a_node11"><a xlink:href="class_alg.html#ada1e8215f047b4ffd736e811b5ea3162" target="_top" xlink:title=" ">
<polygon fill="white" stroke="black" points="169,-413.5 169,-432.5 232,-432.5 232,-413.5 169,-413.5"/>
<text text-anchor="middle" x="200.5" y="-420.5" font-family="Helvetica,sans-Serif" font-size="10.00">Alg::write</text>
</a>
</g>
</g>
<!-- Node1&#45;&gt;Node11 -->
<g id="edge10" class="edge">
<title>Node1&#45;&gt;Node11</title>
<path fill="none" stroke="midnightblue" d="M60.67,-793.22C79.6,-742.72 166.48,-511.06 192.26,-442.3"/>
<polygon fill="midnightblue" stroke="midnightblue" points="195.62,-443.3 195.86,-432.71 189.07,-440.84 195.62,-443.3"/>
</g>
<!-- Node6 -->
<g id="node6" class="node">
<title>Node6</title>
<g id="a_node6"><a xlink:href="error__code_8h.html#ae1bfa02e1106eff84ddecb9f7773a1a4" target="_top" xlink:title="Return the error message of the error code from class Err.">
<polygon fill="white" stroke="black" points="344,-793.5 344,-812.5 404,-812.5 404,-793.5 344,-793.5"/>
<text text-anchor="middle" x="374" y="-800.5" font-family="Helvetica,sans-Serif" font-size="10.00">errorMsg</text>
</a>
</g>
</g>
<!-- Node5&#45;&gt;Node6 -->
<g id="edge5" class="edge">
<title>Node5&#45;&gt;Node6</title>
<path fill="none" stroke="midnightblue" d="M253.42,-803C279.18,-803 309.8,-803 333.6,-803"/>
<polygon fill="midnightblue" stroke="midnightblue" points="333.69,-806.5 343.69,-803 333.69,-799.5 333.69,-806.5"/>
</g>
<!-- Node9 -->
<g id="node9" class="node">
<title>Node9</title>
<g id="a_node9"><a xlink:href="utils_8h.html#a47084ee818936eef3c48be492c0e860f" target="_top" xlink:title=" ">
<polygon fill="white" stroke="black" points="514.5,-717.5 514.5,-736.5 554.5,-736.5 554.5,-717.5 514.5,-717.5"/>
<text text-anchor="middle" x="534.5" y="-724.5" font-family="Helvetica,sans-Serif" font-size="10.00">ltrim</text>
</a>
</g>
</g>
<!-- Node8&#45;&gt;Node9 -->
<g id="edge8" class="edge">
<title>Node8&#45;&gt;Node9</title>
<path fill="none" stroke="midnightblue" d="M392.57,-727C419.51,-727 471.33,-727 504.07,-727"/>
<polygon fill="midnightblue" stroke="midnightblue" points="504.38,-730.5 514.38,-727 504.38,-723.5 504.38,-730.5"/>
</g>
<!-- Node10 -->
<g id="node10" class="node">
<title>Node10</title>
<g id="a_node10"><a xlink:href="utils_8h.html#af6d6bd5c29782e3b958b5f7c0d1ea9e3" target="_top" xlink:title=" ">
<polygon fill="white" stroke="black" points="514,-679.5 514,-698.5 555,-698.5 555,-679.5 514,-679.5"/>
<text text-anchor="middle" x="534.5" y="-686.5" font-family="Helvetica,sans-Serif" font-size="10.00">rtrim</text>
</a>
</g>
</g>
<!-- Node8&#45;&gt;Node10 -->
<g id="edge9" class="edge">
<title>Node8&#45;&gt;Node10</title>
<path fill="none" stroke="midnightblue" d="M392.73,-723.14C409.75,-719.39 436.18,-713.49 459,-708 473.89,-704.42 490.4,-700.23 504.09,-696.7"/>
<polygon fill="midnightblue" stroke="midnightblue" points="505.13,-700.04 513.93,-694.15 503.37,-693.27 505.13,-700.04"/>
</g>
<!-- Node11&#45;&gt;Node7 -->
<g id="edge31" class="edge">
<title>Node11&#45;&gt;Node7</title>
<path fill="none" stroke="midnightblue" d="M232.03,-414.84C248.73,-410.76 269.85,-406.23 289,-404 387.22,-392.55 688.1,-393.12 795.72,-393.73"/>
<polygon fill="midnightblue" stroke="midnightblue" points="795.79,-397.23 805.81,-393.79 795.83,-390.23 795.79,-397.23"/>
</g>
<!-- Node11&#45;&gt;Node8 -->
<g id="edge50" class="edge">
<title>Node11&#45;&gt;Node8</title>
<path fill="none" stroke="midnightblue" d="M201.26,-432.61C200.82,-472.92 204.74,-629.87 289,-708 304.03,-721.94 327.05,-726.4 345.2,-727.53"/>
<polygon fill="midnightblue" stroke="midnightblue" points="345.11,-731.03 355.22,-727.86 345.34,-724.03 345.11,-731.03"/>
</g>
<!-- Node11&#45;&gt;Node11 -->
<g id="edge52" class="edge">
<title>Node11&#45;&gt;Node11</title>
<path fill="none" stroke="midnightblue" d="M178.31,-432.76C167.51,-441.57 174.91,-451 200.5,-451 217.3,-451 226.26,-446.94 227.38,-441.65"/>
<polygon fill="midnightblue" stroke="midnightblue" points="230.45,-439.97 222.69,-432.76 224.26,-443.24 230.45,-439.97"/>
</g>
<!-- Node12 -->
<g id="node12" class="node">
<title>Node12</title>
<g id="a_node12"><a xlink:href="class_alg.html#a2cf2b7f4e37c8e401d9c6dad6687917d" target="_top" xlink:title=" ">
<polygon fill="white" stroke="black" points="324,-185.5 324,-204.5 424,-204.5 424,-185.5 324,-185.5"/>
<text text-anchor="middle" x="374" y="-192.5" font-family="Helvetica,sans-Serif" font-size="10.00">Alg::_wComment</text>
</a>
</g>
</g>
<!-- Node11&#45;&gt;Node12 -->
<g id="edge11" class="edge">
<title>Node11&#45;&gt;Node12</title>
<path fill="none" stroke="midnightblue" d="M202.73,-413.19C207.36,-380.43 226.82,-273.75 289,-219 296.18,-212.68 304.92,-208.01 314.02,-204.57"/>
<polygon fill="midnightblue" stroke="midnightblue" points="315.19,-207.88 323.58,-201.42 312.99,-201.23 315.19,-207.88"/>
</g>
<!-- Node13 -->
<g id="node13" class="node">
<title>Node13</title>
<g id="a_node13"><a xlink:href="class_calc.html#ad6dbdfdd4bd21322e5836ff72c11ae1b" target="_top" xlink:title="Convert the Alg CALC contents into a language command.">
<polygon fill="white" stroke="black" points="507,-228.5 507,-247.5 562,-247.5 562,-228.5 507,-228.5"/>
<text text-anchor="middle" x="534.5" y="-235.5" font-family="Helvetica,sans-Serif" font-size="10.00">Calc::as</text>
</a>
</g>
</g>
<!-- Node11&#45;&gt;Node13 -->
<g id="edge12" class="edge">
<title>Node11&#45;&gt;Node13</title>
<path fill="none" stroke="midnightblue" d="M203.04,-413.43C208.43,-383.41 229.49,-290.78 289,-252 352.49,-210.63 446.08,-220.08 497.09,-229.64"/>
<polygon fill="midnightblue" stroke="midnightblue" points="496.51,-233.09 507,-231.6 497.87,-226.22 496.51,-233.09"/>
</g>
<!-- Node21 -->
<g id="node21" class="node">
<title>Node21</title>
<g id="a_node21"><a xlink:href="class_type.html#abe15820e780d2f6646792d54f3ae3311" target="_top" xlink:title=" ">
<polygon fill="white" stroke="black" points="803.5,-47.5 803.5,-66.5 867.5,-66.5 867.5,-47.5 803.5,-47.5"/>
<text text-anchor="middle" x="835.5" y="-54.5" font-family="Helvetica,sans-Serif" font-size="10.00">Type::dim</text>
</a>
</g>
</g>
<!-- Node11&#45;&gt;Node21 -->
<g id="edge28" class="edge">
<title>Node11&#45;&gt;Node21</title>
<path fill="none" stroke="midnightblue" d="M202.9,-413.27C209.89,-366.3 242.42,-163.57 289,-124 436.85,1.59 693.91,-30.04 793.47,-48.38"/>
<polygon fill="midnightblue" stroke="midnightblue" points="792.96,-51.85 803.44,-50.27 794.26,-44.97 792.96,-51.85"/>
</g>
<!-- Node27 -->
<g id="node27" class="node">
<title>Node27</title>
<g id="a_node27"><a xlink:href="class_alg___line.html#af651454e6ddfce164626b68b2c6cba97" target="_top" xlink:title="Get the function name.">
<polygon fill="white" stroke="black" points="331.5,-0.5 331.5,-19.5 416.5,-19.5 416.5,-0.5 331.5,-0.5"/>
<text text-anchor="middle" x="374" y="-7.5" font-family="Helvetica,sans-Serif" font-size="10.00">Alg_Line::func</text>
</a>
</g>
</g>
<!-- Node11&#45;&gt;Node27 -->
<g id="edge29" class="edge">
<title>Node11&#45;&gt;Node27</title>
<path fill="none" stroke="midnightblue" d="M202.37,-413.21C207.39,-358.59 234.46,-91.75 289,-34 297.54,-24.96 309.24,-19.24 321.18,-15.66"/>
<polygon fill="midnightblue" stroke="midnightblue" points="322.38,-18.96 331.22,-13.12 320.66,-12.18 322.38,-18.96"/>
</g>
<!-- Node28 -->
<g id="node28" class="node">
<title>Node28</title>
<g id="a_node28"><a xlink:href="class_alg___line.html#a49a98870a1f09e35a3e15a7d7bab1666" target="_top" xlink:title="Check whether parameters contain the key.">
<polygon fill="white" stroke="black" points="324.5,-679.5 324.5,-698.5 423.5,-698.5 423.5,-679.5 324.5,-679.5"/>
<text text-anchor="middle" x="374" y="-686.5" font-family="Helvetica,sans-Serif" font-size="10.00">Alg_Line::hasKey</text>
</a>
</g>
</g>
<!-- Node11&#45;&gt;Node28 -->
<g id="edge30" class="edge">
<title>Node11&#45;&gt;Node28</title>
<path fill="none" stroke="midnightblue" d="M201.78,-432.59C203.39,-469.5 214.35,-603.68 289,-670 296.22,-676.41 305.14,-680.8 314.44,-683.77"/>
<polygon fill="midnightblue" stroke="midnightblue" points="313.66,-687.19 324.22,-686.39 315.47,-680.42 313.66,-687.19"/>
</g>
<!-- Node29 -->
<g id="node29" class="node">
<title>Node29</title>
<g id="a_node29"><a xlink:href="class_alg.html#a3ee7f9963027158b3fbd442d97800111" target="_top" xlink:title=" ">
<polygon fill="white" stroke="black" points="331,-299.5 331,-318.5 417,-318.5 417,-299.5 331,-299.5"/>
<text text-anchor="middle" x="374" y="-306.5" font-family="Helvetica,sans-Serif" font-size="10.00">Alg::inlineCalc</text>
</a>
</g>
</g>
<!-- Node11&#45;&gt;Node29 -->
<g id="edge32" class="edge">
<title>Node11&#45;&gt;Node29</title>
<path fill="none" stroke="midnightblue" d="M207.4,-413.42C219.88,-394 250.96,-350.01 289,-328 298.71,-322.38 309.94,-318.43 320.98,-315.64"/>
<polygon fill="midnightblue" stroke="midnightblue" points="322.01,-318.99 331,-313.39 320.48,-312.16 322.01,-318.99"/>
</g>
<!-- Node30 -->
<g id="node30" class="node">
<title>Node30</title>
<g id="a_node30"><a xlink:href="class_alg___line.html#ad419191a99be7e34024e569ad833b04e" target="_top" xlink:title="Check whether the line is for function declaration.">
<polygon fill="white" stroke="black" points="289,-641.5 289,-660.5 459,-660.5 459,-641.5 289,-641.5"/>
<text text-anchor="middle" x="374" y="-648.5" font-family="Helvetica,sans-Serif" font-size="10.00">Alg_Line::isFunctionDeclaration</text>
</a>
</g>
</g>
<!-- Node11&#45;&gt;Node30 -->
<g id="edge34" class="edge">
<title>Node11&#45;&gt;Node30</title>
<path fill="none" stroke="midnightblue" d="M202.47,-432.71C206.37,-466.14 223.93,-577.37 289,-632 291,-633.68 293.13,-635.22 295.34,-636.63"/>
<polygon fill="midnightblue" stroke="midnightblue" points="293.83,-639.8 304.29,-641.46 297.15,-633.63 293.83,-639.8"/>
</g>
<!-- Node31 -->
<g id="node31" class="node">
<title>Node31</title>
<g id="a_node31"><a xlink:href="class_alg.html#af935e64a6eb4afa4ca1540f4da3dcc9c" target="_top" xlink:title=" ">
<polygon fill="white" stroke="black" points="346,-603.5 346,-622.5 402,-622.5 402,-603.5 346,-603.5"/>
<text text-anchor="middle" x="374" y="-610.5" font-family="Helvetica,sans-Serif" font-size="10.00">Alg::line</text>
</a>
</g>
</g>
<!-- Node11&#45;&gt;Node31 -->
<g id="edge35" class="edge">
<title>Node11&#45;&gt;Node31</title>
<path fill="none" stroke="midnightblue" d="M203.42,-432.58C209.8,-461.83 233.15,-550.65 289,-594 302.27,-604.3 320.08,-609.22 335.88,-611.5"/>
<polygon fill="midnightblue" stroke="midnightblue" points="335.58,-614.99 345.91,-612.64 336.37,-608.03 335.58,-614.99"/>
</g>
<!-- Node32 -->
<g id="node32" class="node">
<title>Node32</title>
<g id="a_node32"><a xlink:href="class_alg___line.html#a4e79eb77a1cddbdab1dbdde8a499342d" target="_top" xlink:title="Parameter variables.">
<polygon fill="white" stroke="black" points="323.5,-565.5 323.5,-584.5 424.5,-584.5 424.5,-565.5 323.5,-565.5"/>
<text text-anchor="middle" x="374" y="-572.5" font-family="Helvetica,sans-Serif" font-size="10.00">Alg_Line::params</text>
</a>
</g>
</g>
<!-- Node11&#45;&gt;Node32 -->
<g id="edge36" class="edge">
<title>Node11&#45;&gt;Node32</title>
<path fill="none" stroke="midnightblue" d="M204.85,-432.53C214.06,-457.22 242.19,-523.59 289,-556 296.32,-561.07 304.79,-564.81 313.47,-567.56"/>
<polygon fill="midnightblue" stroke="midnightblue" points="312.73,-570.99 323.3,-570.27 314.59,-564.24 312.73,-570.99"/>
</g>
<!-- Node33 -->
<g id="node33" class="node">
<title>Node33</title>
<g id="a_node33"><a xlink:href="class_alg___line.html#a801b08c6c164376039a4ba4e980d039e" target="_top" xlink:title="Print Alg_Line contents (including return values, function names and parameters).">
<polygon fill="white" stroke="black" points="331,-527.5 331,-546.5 417,-546.5 417,-527.5 331,-527.5"/>
<text text-anchor="middle" x="374" y="-534.5" font-family="Helvetica,sans-Serif" font-size="10.00">Alg_Line::print</text>
</a>
</g>
</g>
<!-- Node11&#45;&gt;Node33 -->
<g id="edge37" class="edge">
<title>Node11&#45;&gt;Node33</title>
<path fill="none" stroke="midnightblue" d="M207.4,-432.58C219.88,-452 250.96,-495.99 289,-518 298.71,-523.62 309.94,-527.57 320.98,-530.36"/>
<polygon fill="midnightblue" stroke="midnightblue" points="320.48,-533.84 331,-532.61 322.01,-527.01 320.48,-533.84"/>
</g>
<!-- Node36 -->
<g id="node36" class="node">
<title>Node36</title>
<g id="a_node36"><a xlink:href="class_type___track.html#a4548ba1c289fba60e88b0e725509219e" target="_top" xlink:title=" ">
<polygon fill="white" stroke="black" points="324.5,-337.5 324.5,-356.5 423.5,-356.5 423.5,-337.5 324.5,-337.5"/>
<text text-anchor="middle" x="374" y="-344.5" font-family="Helvetica,sans-Serif" font-size="10.00">Type_Track::push</text>
</a>
</g>
</g>
<!-- Node11&#45;&gt;Node36 -->
<g id="edge40" class="edge">
<title>Node11&#45;&gt;Node36</title>
<path fill="none" stroke="midnightblue" d="M215.15,-413.37C231.88,-401.93 261.42,-382.9 289,-371 299.34,-366.54 310.75,-362.65 321.74,-359.37"/>
<polygon fill="midnightblue" stroke="midnightblue" points="323.02,-362.64 331.67,-356.53 321.1,-355.91 323.02,-362.64"/>
</g>
<!-- Node37 -->
<g id="node37" class="node">
<title>Node37</title>
<g id="a_node37"><a xlink:href="class_type.html#a0153b8ff39040caf3ff2a6f7c7329d7c" target="_top" xlink:title="Get the C++ type name.">
<polygon fill="white" stroke="black" points="498,-123.5 498,-142.5 571,-142.5 571,-123.5 498,-123.5"/>
<text text-anchor="middle" x="534.5" y="-130.5" font-family="Helvetica,sans-Serif" font-size="10.00">Type::string</text>
</a>
</g>
</g>
<!-- Node11&#45;&gt;Node37 -->
<g id="edge48" class="edge">
<title>Node11&#45;&gt;Node37</title>
<path fill="none" stroke="midnightblue" d="M201.68,-413.3C202.93,-375.98 212.77,-240.5 289,-176 344.68,-128.89 433.58,-125.27 487.45,-128.23"/>
<polygon fill="midnightblue" stroke="midnightblue" points="487.54,-131.75 497.74,-128.9 487.99,-124.76 487.54,-131.75"/>
</g>
<!-- Node39 -->
<g id="node39" class="node">
<title>Node39</title>
<g id="a_node39"><a xlink:href="utils_8h.html#a0465457013518e168df05799c93cfa6e" target="_top" xlink:title=" ">
<polygon fill="white" stroke="black" points="332.5,-489.5 332.5,-508.5 415.5,-508.5 415.5,-489.5 332.5,-489.5"/>
<text text-anchor="middle" x="374" y="-496.5" font-family="Helvetica,sans-Serif" font-size="10.00">removeQuote</text>
</a>
</g>
</g>
<!-- Node11&#45;&gt;Node39 -->
<g id="edge45" class="edge">
<title>Node11&#45;&gt;Node39</title>
<path fill="none" stroke="midnightblue" d="M213.18,-432.58C229.27,-445.29 259.61,-467.58 289,-480 299.55,-484.46 311.3,-487.95 322.59,-490.65"/>
<polygon fill="midnightblue" stroke="midnightblue" points="321.83,-494.07 332.35,-492.83 323.36,-487.24 321.83,-494.07"/>
</g>
<!-- Node41 -->
<g id="node41" class="node">
<title>Node41</title>
<g id="a_node41"><a xlink:href="class_alg___line.html#a8e21f6b69eaf80a2327f7308fb4299e0" target="_top" xlink:title="Return variables.">
<polygon fill="white" stroke="black" points="325,-451.5 325,-470.5 423,-470.5 423,-451.5 325,-451.5"/>
<text text-anchor="middle" x="374" y="-458.5" font-family="Helvetica,sans-Serif" font-size="10.00">Alg_Line::returns</text>
</a>
</g>
</g>
<!-- Node11&#45;&gt;Node41 -->
<g id="edge47" class="edge">
<title>Node11&#45;&gt;Node41</title>
<path fill="none" stroke="midnightblue" d="M232.16,-429.79C256.55,-435.2 291.25,-442.89 320.11,-449.28"/>
<polygon fill="midnightblue" stroke="midnightblue" points="319.52,-452.74 330.04,-451.48 321.04,-445.9 319.52,-452.74"/>
</g>
<!-- Node42 -->
<g id="node42" class="node">
<title>Node42</title>
<g id="a_node42"><a xlink:href="namespacemmce.html#ad4a160832ef9fad47c531ece39752208" target="_top" xlink:title="Change a number to string.">
<polygon fill="white" stroke="black" points="326,-413.5 326,-432.5 422,-432.5 422,-413.5 326,-413.5"/>
<text text-anchor="middle" x="374" y="-420.5" font-family="Helvetica,sans-Serif" font-size="10.00">mmce::to_string</text>
</a>
</g>
</g>
<!-- Node11&#45;&gt;Node42 -->
<g id="edge49" class="edge">
<title>Node11&#45;&gt;Node42</title>
<path fill="none" stroke="midnightblue" d="M232.16,-423C255.33,-423 287.8,-423 315.73,-423"/>
<polygon fill="midnightblue" stroke="midnightblue" points="315.79,-426.5 325.79,-423 315.79,-419.5 315.79,-426.5"/>
</g>
<!-- Node43 -->
<g id="node43" class="node">
<title>Node43</title>
<g id="a_node43"><a xlink:href="class_log.html#a3410828f35c9bf8dd0771ead28de27b0" target="_top" xlink:title="Write contents to the log file.">
<polygon fill="white" stroke="black" points="341.5,-261.5 341.5,-280.5 406.5,-280.5 406.5,-261.5 341.5,-261.5"/>
<text text-anchor="middle" x="374" y="-268.5" font-family="Helvetica,sans-Serif" font-size="10.00">Log::write</text>
</a>
</g>
</g>
<!-- Node11&#45;&gt;Node43 -->
<g id="edge51" class="edge">
<title>Node11&#45;&gt;Node43</title>
<path fill="none" stroke="midnightblue" d="M204.85,-413.47C214.06,-388.78 242.19,-322.41 289,-290 301.27,-281.51 316.73,-276.75 331.04,-274.1"/>
<polygon fill="midnightblue" stroke="midnightblue" points="331.84,-277.52 341.19,-272.53 330.77,-270.6 331.84,-277.52"/>
</g>
<!-- Node14 -->
<g id="node14" class="node">
<title>Node14</title>
<g id="a_node14"><a xlink:href="class_calc.html#af1d1bd5e83f9e5196627f5a4e1a5ee83" target="_top" xlink:title=" ">
<polygon fill="white" stroke="black" points="617.5,-284.5 617.5,-303.5 742.5,-303.5 742.5,-284.5 617.5,-284.5"/>
<text text-anchor="middle" x="680" y="-291.5" font-family="Helvetica,sans-Serif" font-size="10.00">Calc::_changeFunction</text>
</a>
</g>
</g>
<!-- Node13&#45;&gt;Node14 -->
<g id="edge13" class="edge">
<title>Node13&#45;&gt;Node14</title>
<path fill="none" stroke="midnightblue" d="M552.54,-247.64C567.37,-255.74 589.63,-267.22 610,-275 616.24,-277.38 622.9,-279.6 629.53,-281.62"/>
<polygon fill="midnightblue" stroke="midnightblue" points="628.59,-284.99 639.17,-284.44 630.55,-278.27 628.59,-284.99"/>
</g>
<!-- Node17 -->
<g id="node17" class="node">
<title>Node17</title>
<g id="a_node17"><a xlink:href="class_calc.html#ae3d88bd40f9bdf2c8ec92c426bdca446" target="_top" xlink:title=" ">
<polygon fill="white" stroke="black" points="616.5,-322.5 616.5,-341.5 743.5,-341.5 743.5,-322.5 616.5,-322.5"/>
<text text-anchor="middle" x="680" y="-329.5" font-family="Helvetica,sans-Serif" font-size="10.00">Calc::_changeOperator</text>
</a>
</g>
</g>
<!-- Node13&#45;&gt;Node17 -->
<g id="edge16" class="edge">
<title>Node13&#45;&gt;Node17</title>
<path fill="none" stroke="midnightblue" d="M542.36,-247.64C554.27,-263.65 580.37,-295.69 610,-313 613.85,-315.25 617.97,-317.24 622.21,-319"/>
<polygon fill="midnightblue" stroke="midnightblue" points="621.05,-322.3 631.64,-322.5 623.48,-315.74 621.05,-322.3"/>
</g>
<!-- Node18 -->
<g id="node18" class="node">
<title>Node18</title>
<g id="a_node18"><a xlink:href="class_calc.html#ad95be528148e0d63848d5fa916b93200" target="_top" xlink:title=" ">
<polygon fill="white" stroke="black" points="624.5,-190.5 624.5,-209.5 735.5,-209.5 735.5,-190.5 624.5,-190.5"/>
<text text-anchor="middle" x="680" y="-197.5" font-family="Helvetica,sans-Serif" font-size="10.00">Calc::_changeParen</text>
</a>
</g>
</g>
<!-- Node13&#45;&gt;Node18 -->
<g id="edge17" class="edge">
<title>Node13&#45;&gt;Node18</title>
<path fill="none" stroke="midnightblue" d="M562.15,-230.94C582.08,-225.66 609.82,-218.32 633.27,-212.11"/>
<polygon fill="midnightblue" stroke="midnightblue" points="634.25,-215.47 643.02,-209.53 632.45,-208.71 634.25,-215.47"/>
</g>
<!-- Node19 -->
<g id="node19" class="node">
<title>Node19</title>
<g id="a_node19"><a xlink:href="class_calc.html#ad562619fef96a73cd3b4c27b35bc5f91" target="_top" xlink:title=" ">
<polygon fill="white" stroke="black" points="615,-228.5 615,-247.5 745,-247.5 745,-228.5 615,-228.5"/>
<text text-anchor="middle" x="680" y="-235.5" font-family="Helvetica,sans-Serif" font-size="10.00">Calc::_changeSubScript</text>
</a>
</g>
</g>
<!-- Node13&#45;&gt;Node19 -->
<g id="edge18" class="edge">
<title>Node13&#45;&gt;Node19</title>
<path fill="none" stroke="midnightblue" d="M562.15,-238C574.39,-238 589.56,-238 604.88,-238"/>
<polygon fill="midnightblue" stroke="midnightblue" points="604.94,-241.5 614.94,-238 604.94,-234.5 604.94,-241.5"/>
</g>
<!-- Node26 -->
<g id="node26" class="node">
<title>Node26</title>
<g id="a_node26"><a xlink:href="class_calc.html#a1aec4748092712e0995c0ae5dabbf54f" target="_top" xlink:title=" ">
<polygon fill="white" stroke="black" points="610,-152.5 610,-171.5 750,-171.5 750,-152.5 610,-152.5"/>
<text text-anchor="middle" x="680" y="-159.5" font-family="Helvetica,sans-Serif" font-size="10.00">Calc::_changeSuperScript</text>
</a>
</g>
</g>
<!-- Node13&#45;&gt;Node26 -->
<g id="edge27" class="edge">
<title>Node13&#45;&gt;Node26</title>
<path fill="none" stroke="midnightblue" d="M545.72,-228.08C559.32,-215.41 584.62,-193.6 610,-181 614.61,-178.71 619.54,-176.66 624.56,-174.84"/>
<polygon fill="midnightblue" stroke="midnightblue" points="625.88,-178.09 634.26,-171.61 623.67,-171.45 625.88,-178.09"/>
</g>
<!-- Node15 -->
<g id="node15" class="node">
<title>Node15</title>
<g id="a_node15"><a xlink:href="class_calc.html#a7d793eba0a7c9fcbafec4310359f165d" target="_top" xlink:title=" ">
<polygon fill="white" stroke="black" points="789,-294.5 789,-313.5 882,-313.5 882,-294.5 789,-294.5"/>
<text text-anchor="middle" x="835.5" y="-301.5" font-family="Helvetica,sans-Serif" font-size="10.00">Calc::_addArma</text>
</a>
</g>
</g>
<!-- Node14&#45;&gt;Node15 -->
<g id="edge14" class="edge">
<title>Node14&#45;&gt;Node15</title>
<path fill="none" stroke="midnightblue" d="M742.55,-298.01C754.42,-298.78 766.8,-299.59 778.48,-300.35"/>
<polygon fill="midnightblue" stroke="midnightblue" points="778.33,-303.85 788.54,-301.01 778.78,-296.86 778.33,-303.85"/>
</g>
<!-- Node16 -->
<g id="node16" class="node">
<title>Node16</title>
<g id="a_node16"><a xlink:href="class_calc.html#af58cd6a2174e577a6246366de03b949e" target="_top" xlink:title=" ">
<polygon fill="white" stroke="black" points="787,-332.5 787,-351.5 884,-351.5 884,-332.5 787,-332.5"/>
<text text-anchor="middle" x="835.5" y="-339.5" font-family="Helvetica,sans-Serif" font-size="10.00">Calc::_addMmce</text>
</a>
</g>
</g>
<!-- Node14&#45;&gt;Node16 -->
<g id="edge15" class="edge">
<title>Node14&#45;&gt;Node16</title>
<path fill="none" stroke="midnightblue" d="M717.29,-303.54C727.88,-306.44 739.43,-309.74 750,-313 765.89,-317.91 783.3,-323.8 798.16,-328.98"/>
<polygon fill="midnightblue" stroke="midnightblue" points="797.4,-332.42 808,-332.43 799.72,-325.82 797.4,-332.42"/>
</g>
<!-- Node19&#45;&gt;Node7 -->
<g id="edge23" class="edge">
<title>Node19&#45;&gt;Node7</title>
<path fill="none" stroke="midnightblue" d="M708.42,-247.56C722.39,-253.6 738.76,-262.63 750,-275 777.86,-305.67 759.79,-328.91 786,-361 791.65,-367.92 799.12,-373.97 806.5,-378.93"/>
<polygon fill="midnightblue" stroke="midnightblue" points="804.67,-381.92 815.01,-384.25 808.38,-375.98 804.67,-381.92"/>
</g>
<!-- Node19&#45;&gt;Node19 -->
<g id="edge19" class="edge">
<title>Node19&#45;&gt;Node19</title>
<path fill="none" stroke="midnightblue" d="M657.81,-247.76C647.01,-256.57 654.41,-266 680,-266 696.8,-266 705.76,-261.94 706.88,-256.65"/>
<polygon fill="midnightblue" stroke="midnightblue" points="709.95,-254.97 702.19,-247.76 703.76,-258.24 709.95,-254.97"/>
</g>
<!-- Node20 -->
<g id="node20" class="node">
<title>Node20</title>
<g id="a_node20"><a xlink:href="class_calc.html#a284818e83b0d85bdd029f3d72d4ef0bd" target="_top" xlink:title=" ">
<polygon fill="white" stroke="black" points="800.5,-218.5 800.5,-237.5 870.5,-237.5 870.5,-218.5 800.5,-218.5"/>
<text text-anchor="middle" x="835.5" y="-225.5" font-family="Helvetica,sans-Serif" font-size="10.00">Calc::_msg</text>
</a>
</g>
</g>
<!-- Node19&#45;&gt;Node20 -->
<g id="edge20" class="edge">
<title>Node19&#45;&gt;Node20</title>
<path fill="none" stroke="midnightblue" d="M745.21,-233.82C760.27,-232.84 775.99,-231.81 789.96,-230.9"/>
<polygon fill="midnightblue" stroke="midnightblue" points="790.52,-234.37 800.27,-230.23 790.07,-227.39 790.52,-234.37"/>
</g>
<!-- Node19&#45;&gt;Node21 -->
<g id="edge21" class="edge">
<title>Node19&#45;&gt;Node21</title>
<path fill="none" stroke="midnightblue" d="M737.03,-228.33C741.81,-225.87 746.25,-222.81 750,-219 794.78,-173.53 745.34,-129.19 786,-80 788.6,-76.86 791.72,-74.12 795.12,-71.73"/>
<polygon fill="midnightblue" stroke="midnightblue" points="797.14,-74.61 803.98,-66.52 793.59,-68.57 797.14,-74.61"/>
</g>
<!-- Node22 -->
<g id="node22" class="node">
<title>Node22</title>
<g id="a_node22"><a xlink:href="class_log.html#ac7147942832455398ad289b706a02616" target="_top" xlink:title="Write error message to the log file.">
<polygon fill="white" stroke="black" points="809,-180.5 809,-199.5 862,-199.5 862,-180.5 809,-180.5"/>
<text text-anchor="middle" x="835.5" y="-187.5" font-family="Helvetica,sans-Serif" font-size="10.00">Log::err</text>
</a>
</g>
</g>
<!-- Node19&#45;&gt;Node22 -->
<g id="edge22" class="edge">
<title>Node19&#45;&gt;Node22</title>
<path fill="none" stroke="midnightblue" d="M717.29,-228.46C727.88,-225.56 739.43,-222.26 750,-219 766.29,-213.97 784.17,-207.91 799.27,-202.64"/>
<polygon fill="midnightblue" stroke="midnightblue" points="800.48,-205.92 808.75,-199.3 798.15,-199.32 800.48,-205.92"/>
</g>
<!-- Node23 -->
<g id="node23" class="node">
<title>Node23</title>
<g id="a_node23"><a xlink:href="utils_8h.html#aa0a3ba0e1cec6f6b77334767af46eef7" target="_top" xlink:title="Check if the string is an unsigned integer.">
<polygon fill="white" stroke="black" points="813,-142.5 813,-161.5 858,-161.5 858,-142.5 813,-142.5"/>
<text text-anchor="middle" x="835.5" y="-149.5" font-family="Helvetica,sans-Serif" font-size="10.00">isUInt</text>
</a>
</g>
</g>
<!-- Node19&#45;&gt;Node23 -->
<g id="edge24" class="edge">
<title>Node19&#45;&gt;Node23</title>
<path fill="none" stroke="midnightblue" d="M731.37,-228.37C737.95,-225.92 744.35,-222.85 750,-219 772.04,-203.99 764.78,-187.15 786,-171 791.2,-167.05 797.32,-163.81 803.43,-161.21"/>
<polygon fill="midnightblue" stroke="midnightblue" points="804.79,-164.44 812.89,-157.61 802.3,-157.89 804.79,-164.44"/>
</g>
<!-- Node24 -->
<g id="node24" class="node">
<title>Node24</title>
<g id="a_node24"><a xlink:href="class_type.html#a836b463aa4740a234e0d304ed4cd958f" target="_top" xlink:title=" ">
<polygon fill="white" stroke="black" points="786,-89.5 786,-108.5 885,-108.5 885,-89.5 786,-89.5"/>
<text text-anchor="middle" x="835.5" y="-96.5" font-family="Helvetica,sans-Serif" font-size="10.00">Type::isUnknown</text>
</a>
</g>
</g>
<!-- Node19&#45;&gt;Node24 -->
<g id="edge25" class="edge">
<title>Node19&#45;&gt;Node24</title>
<path fill="none" stroke="midnightblue" d="M735.11,-228.4C740.52,-225.94 745.62,-222.86 750,-219 781.11,-191.63 760.01,-165.27 786,-133 791.84,-125.75 799.62,-119.37 807.23,-114.16"/>
<polygon fill="midnightblue" stroke="midnightblue" points="809.42,-116.92 815.97,-108.59 805.65,-111.01 809.42,-116.92"/>
</g>
<!-- Node25 -->
<g id="node25" class="node">
<title>Node25</title>
<g id="a_node25"><a xlink:href="class_type___track.html#ab510214767b1b4d71e3beadecb814bb7" target="_top" xlink:title=" ">
<polygon fill="white" stroke="black" points="788,-256.5 788,-275.5 883,-275.5 883,-256.5 788,-256.5"/>
<text text-anchor="middle" x="835.5" y="-263.5" font-family="Helvetica,sans-Serif" font-size="10.00">Type_Track::size</text>
</a>
</g>
</g>
<!-- Node19&#45;&gt;Node25 -->
<g id="edge26" class="edge">
<title>Node19&#45;&gt;Node25</title>
<path fill="none" stroke="midnightblue" d="M733.4,-247.56C747.79,-250.18 763.46,-253.04 778.07,-255.71"/>
<polygon fill="midnightblue" stroke="midnightblue" points="777.53,-259.17 787.99,-257.52 778.78,-252.28 777.53,-259.17"/>
</g>
<!-- Node29&#45;&gt;Node13 -->
<g id="edge33" class="edge">
<title>Node29&#45;&gt;Node13</title>
<path fill="none" stroke="midnightblue" d="M417.04,-302.81C430.77,-299.92 445.87,-295.8 459,-290 479.55,-280.92 500.3,-265.85 514.66,-254.26"/>
<polygon fill="midnightblue" stroke="midnightblue" points="517.25,-256.66 522.72,-247.58 512.78,-251.27 517.25,-256.66"/>
</g>
<!-- Node34 -->
<g id="node34" class="node">
<title>Node34</title>
<g id="a_node34"><a xlink:href="functions_8h.html#ac9dc58cb94b7547813c3a35154d97d18" target="_top" xlink:title=" ">
<polygon fill="white" stroke="black" points="495,-527.5 495,-546.5 574,-546.5 574,-527.5 495,-527.5"/>
<text text-anchor="middle" x="534.5" y="-534.5" font-family="Helvetica,sans-Serif" font-size="10.00">isFuncNoEnd</text>
</a>
</g>
</g>
<!-- Node33&#45;&gt;Node34 -->
<g id="edge38" class="edge">
<title>Node33&#45;&gt;Node34</title>
<path fill="none" stroke="midnightblue" d="M417.06,-537C437.79,-537 462.91,-537 484.5,-537"/>
<polygon fill="midnightblue" stroke="midnightblue" points="484.78,-540.5 494.78,-537 484.78,-533.5 484.78,-540.5"/>
</g>
<!-- Node35 -->
<g id="node35" class="node">
<title>Node35</title>
<g id="a_node35"><a xlink:href="utils_8h.html#af11c7cca5b9ad860da4bdb556dce3234" target="_top" xlink:title=" ">
<polygon fill="white" stroke="black" points="651,-527.5 651,-546.5 709,-546.5 709,-527.5 651,-527.5"/>
<text text-anchor="middle" x="680" y="-534.5" font-family="Helvetica,sans-Serif" font-size="10.00">contains</text>
</a>
</g>
</g>
<!-- Node34&#45;&gt;Node35 -->
<g id="edge39" class="edge">
<title>Node34&#45;&gt;Node35</title>
<path fill="none" stroke="midnightblue" d="M574.33,-537C594.83,-537 619.91,-537 640.37,-537"/>
<polygon fill="midnightblue" stroke="midnightblue" points="640.61,-540.5 650.61,-537 640.61,-533.5 640.61,-540.5"/>
</g>
<!-- Node36&#45;&gt;Node7 -->
<g id="edge41" class="edge">
<title>Node36&#45;&gt;Node7</title>
<path fill="none" stroke="midnightblue" d="M423.74,-351.99C515.55,-361.38 712.39,-381.51 795.83,-390.05"/>
<polygon fill="midnightblue" stroke="midnightblue" points="795.6,-393.54 805.9,-391.07 796.31,-386.58 795.6,-393.54"/>
</g>
<!-- Node36&#45;&gt;Node37 -->
<g id="edge42" class="edge">
<title>Node36&#45;&gt;Node37</title>
<path fill="none" stroke="midnightblue" d="M423.9,-344.52C436.58,-341.74 449.37,-336.74 459,-328 496.77,-293.71 476.55,-266.57 495,-219 504.1,-195.54 516.16,-169.23 524.34,-151.96"/>
<polygon fill="midnightblue" stroke="midnightblue" points="527.51,-153.45 528.66,-142.92 521.19,-150.44 527.51,-153.45"/>
</g>
<!-- Node37&#45;&gt;Node24 -->
<g id="edge44" class="edge">
<title>Node37&#45;&gt;Node24</title>
<path fill="none" stroke="midnightblue" d="M555.52,-123.39C570.22,-116.85 590.88,-108.74 610,-105 665.5,-94.15 730.17,-93.67 775.8,-95.29"/>
<polygon fill="midnightblue" stroke="midnightblue" points="775.69,-98.79 785.82,-95.69 775.97,-91.79 775.69,-98.79"/>
</g>
<!-- Node38 -->
<g id="node38" class="node">
<title>Node38</title>
<g id="a_node38"><a xlink:href="class_type.html#a5b8adffb334040c53940ecf814ebcc65" target="_top" xlink:title=" ">
<polygon fill="white" stroke="black" points="632.5,-114.5 632.5,-133.5 727.5,-133.5 727.5,-114.5 632.5,-114.5"/>
<text text-anchor="middle" x="680" y="-121.5" font-family="Helvetica,sans-Serif" font-size="10.00">Type::_getString</text>
</a>
</g>
</g>
<!-- Node37&#45;&gt;Node38 -->
<g id="edge43" class="edge">
<title>Node37&#45;&gt;Node38</title>
<path fill="none" stroke="midnightblue" d="M571.34,-130.75C586.6,-129.79 604.79,-128.65 621.82,-127.59"/>
<polygon fill="midnightblue" stroke="midnightblue" points="622.49,-131.05 632.25,-126.93 622.05,-124.07 622.49,-131.05"/>
</g>
<!-- Node40 -->
<g id="node40" class="node">
<title>Node40</title>
<g id="a_node40"><a xlink:href="utils_8h.html#aaaee605fe46abaa420448438d89b22ed" target="_top" xlink:title=" ">
<polygon fill="white" stroke="black" points="504.5,-489.5 504.5,-508.5 564.5,-508.5 564.5,-489.5 504.5,-489.5"/>
<text text-anchor="middle" x="534.5" y="-496.5" font-family="Helvetica,sans-Serif" font-size="10.00">isQuoted</text>
</a>
</g>
</g>
<!-- Node39&#45;&gt;Node40 -->
<g id="edge46" class="edge">
<title>Node39&#45;&gt;Node40</title>
<path fill="none" stroke="midnightblue" d="M415.82,-499C439.95,-499 470.35,-499 494.21,-499"/>
<polygon fill="midnightblue" stroke="midnightblue" points="494.33,-502.5 504.33,-499 494.33,-495.5 494.33,-502.5"/>
</g>
</g>
</svg>
        <g id="navigator" transform="translate(0 0)" fill="#404254">
                <rect fill="#f2f5e9" fill-opacity="0.5" stroke="#606060" stroke-width=".5" x="0" y="0" width="60" height="60"/>
                <use id="zoomplus" xlink:href="#zoomPlus" x="17" y="9" onmousedown="handleZoom(evt,'in')"/>
                <use id="zoomminus" xlink:href="#zoomMin" x="42" y="9" onmousedown="handleZoom(evt,'out')"/>
                <use id="reset" xlink:href="#resetDef" x="30" y="36" onmousedown="handleReset()"/>
                <g id="arrowUp" xlink:href="#dirArrow" transform="translate(30 24)" onmousedown="handlePan(0,-1)">
                  <use xlink:href="#rim" fill="#404040">
                        <set attributeName="fill" to="#808080" begin="arrowUp.mouseover" end="arrowUp.mouseout"/>
                  </use>
                  <path fill="none" stroke="white" stroke-width="1.5" d="M0,-3.0v7 M-2.5,-0.5L0,-3.0L2.5,-0.5"/>
                </g>
                <g id="arrowRight" xlink:href="#dirArrow" transform="rotate(90) translate(36 -43)" onmousedown="handlePan(1,0)">
                  <use xlink:href="#rim" fill="#404040">
                        <set attributeName="fill" to="#808080" begin="arrowRight.mouseover" end="arrowRight.mouseout"/>
                  </use>
                  <path fill="none" stroke="white" stroke-width="1.5" d="M0,-3.0v7 M-2.5,-0.5L0,-3.0L2.5,-0.5"/>
                </g>
                <g id="arrowDown" xlink:href="#dirArrow" transform="rotate(180) translate(-30 -48)" onmousedown="handlePan(0,1)">
                  <use xlink:href="#rim" fill="#404040">
                        <set attributeName="fill" to="#808080" begin="arrowDown.mouseover" end="arrowDown.mouseout"/>
                  </use>
                  <path fill="none" stroke="white" stroke-width="1.5" d="M0,-3.0v7 M-2.5,-0.5L0,-3.0L2.5,-0.5"/>
                </g>
                <g id="arrowLeft" xlink:href="#dirArrow" transform="rotate(270) translate(-36 17)" onmousedown="handlePan(-1,0)">
                  <use xlink:href="#rim" fill="#404040">
                        <set attributeName="fill" to="#808080" begin="arrowLeft.mouseover" end="arrowLeft.mouseout"/>
                  </use>
                  <path fill="none" stroke="white" stroke-width="1.5" d="M0,-3.0v7 M-2.5,-0.5L0,-3.0L2.5,-0.5"/>
                </g>
        </g>
        <svg viewBox="0 0 15 15" width="100%" height="30px" preserveAspectRatio="xMaxYMin meet">
         <g id="arrow_out" transform="scale(0.3 0.3)">
          <a xlink:href="class_export_ae4811e1e4212029122c0ee29613714cc_cgraph_org.svg" target="_base">
           <rect id="button" ry="5" rx="5" y="6" x="6" height="38" width="38"
                fill="#f2f5e9" fill-opacity="0.5" stroke="#606060" stroke-width="1.0"/>
           <path id="arrow"
             d="M 11.500037,31.436501 C 11.940474,20.09759 22.043105,11.32322 32.158766,21.979434 L 37.068811,17.246167 C 37.068811,17.246167 37.088388,32 37.088388,32 L 22.160133,31.978069 C 22.160133,31.978069 26.997745,27.140456 26.997745,27.140456 C 18.528582,18.264221 13.291696,25.230495 11.500037,31.436501 z"
             style="fill:#404040;"/>
          </a>
         </g>
        </svg>
</svg>
