<?xml version="1.0" encoding="UTF-8" standalone="no"?>
<!DOCTYPE svg PUBLIC "-//W3C//DTD SVG 1.1//EN"
 "http://www.w3.org/Graphics/SVG/1.1/DTD/svg11.dtd">
<!-- Generated by graphviz version 2.43.0 (0)
 -->
<!-- Title: Type_Track::operator&#45;&#45; Pages: 1 -->
<svg width="264pt" height="104pt"
 viewBox="0.00 0.00 264.00 104.00" xmlns="http://www.w3.org/2000/svg" xmlns:xlink="http://www.w3.org/1999/xlink">
<g id="graph0" class="graph" transform="scale(1 1) rotate(0) translate(4 100)">
<title>Type_Track::operator&#45;&#45;</title>
<polygon fill="white" stroke="transparent" points="-4,4 -4,-100 260,-100 260,4 -4,4"/>
<!-- Node1 -->
<g id="node1" class="node">
<title>Node1</title>
<g id="a_node1"><a xlink:title=" ">
<polygon fill="#bfbfbf" stroke="black" points="0,-38.5 0,-57.5 125,-57.5 125,-38.5 0,-38.5"/>
<text text-anchor="middle" x="62.5" y="-45.5" font-family="Helvetica,sans-Serif" font-size="10.00">Type_Track::operator&#45;&#45;</text>
</a>
</g>
</g>
<!-- Node2 -->
<g id="node2" class="node">
<title>Node2</title>
<g id="a_node2"><a xlink:href="class_log.html#ac7147942832455398ad289b706a02616" target="_top" xlink:title="Write error message to the log file.">
<polygon fill="white" stroke="black" points="182,-76.5 182,-95.5 235,-95.5 235,-76.5 182,-76.5"/>
<text text-anchor="middle" x="208.5" y="-83.5" font-family="Helvetica,sans-Serif" font-size="10.00">Log::err</text>
</a>
</g>
</g>
<!-- Node1&#45;&gt;Node2 -->
<g id="edge1" class="edge">
<title>Node1&#45;&gt;Node2</title>
<path fill="none" stroke="midnightblue" d="M99.84,-57.59C121.85,-63.4 149.8,-70.77 171.71,-76.56"/>
<polygon fill="midnightblue" stroke="midnightblue" points="171.06,-80 181.62,-79.17 172.84,-73.23 171.06,-80"/>
</g>
<!-- Node3 -->
<g id="node3" class="node">
<title>Node3</title>
<g id="a_node3"><a xlink:href="class_log.html#add7e611cd3267d3fd5dae017e3aeef67" target="_top" xlink:title="Write infomation to the log file.">
<polygon fill="white" stroke="black" points="179,-38.5 179,-57.5 238,-57.5 238,-38.5 179,-38.5"/>
<text text-anchor="middle" x="208.5" y="-45.5" font-family="Helvetica,sans-Serif" font-size="10.00">Log::info</text>
</a>
</g>
</g>
<!-- Node1&#45;&gt;Node3 -->
<g id="edge2" class="edge">
<title>Node1&#45;&gt;Node3</title>
<path fill="none" stroke="midnightblue" d="M125.4,-48C140.08,-48 155.33,-48 168.64,-48"/>
<polygon fill="midnightblue" stroke="midnightblue" points="168.86,-51.5 178.86,-48 168.86,-44.5 168.86,-51.5"/>
</g>
<!-- Node4 -->
<g id="node4" class="node">
<title>Node4</title>
<g id="a_node4"><a xlink:href="class_type___track.html#ab510214767b1b4d71e3beadecb814bb7" target="_top" xlink:title=" ">
<polygon fill="white" stroke="black" points="161,-0.5 161,-19.5 256,-19.5 256,-0.5 161,-0.5"/>
<text text-anchor="middle" x="208.5" y="-7.5" font-family="Helvetica,sans-Serif" font-size="10.00">Type_Track::size</text>
</a>
</g>
</g>
<!-- Node1&#45;&gt;Node4 -->
<g id="edge3" class="edge">
<title>Node1&#45;&gt;Node4</title>
<path fill="none" stroke="midnightblue" d="M99.84,-38.41C118.58,-33.46 141.64,-27.38 161.61,-22.11"/>
<polygon fill="midnightblue" stroke="midnightblue" points="162.65,-25.46 171.42,-19.52 160.86,-18.69 162.65,-25.46"/>
</g>
</g>
</svg>
