<?xml version="1.0" encoding="UTF-8" standalone="no"?>
<!DOCTYPE svg PUBLIC "-//W3C//DTD SVG 1.1//EN"
 "http://www.w3.org/Graphics/SVG/1.1/DTD/svg11.dtd">
<!-- Generated by graphviz version 2.43.0 (0)
 -->
<!-- Title: Export::_setDataParams Pages: 1 -->
<svg width="379pt" height="66pt"
 viewBox="0.00 0.00 379.00 66.00" xmlns="http://www.w3.org/2000/svg" xmlns:xlink="http://www.w3.org/1999/xlink">
<g id="graph0" class="graph" transform="scale(1 1) rotate(0) translate(4 62)">
<title>Export::_setDataParams</title>
<polygon fill="white" stroke="transparent" points="-4,4 -4,-62 375,-62 375,4 -4,4"/>
<!-- Node1 -->
<g id="node1" class="node">
<title>Node1</title>
<g id="a_node1"><a xlink:title=" ">
<polygon fill="#bfbfbf" stroke="black" points="0,-19.5 0,-38.5 134,-38.5 134,-19.5 0,-19.5"/>
<text text-anchor="middle" x="67" y="-26.5" font-family="Helvetica,sans-Serif" font-size="10.00">Export::_setDataParams</text>
</a>
</g>
</g>
<!-- Node2 -->
<g id="node2" class="node">
<title>Node2</title>
<g id="a_node2"><a xlink:href="class_export.html#a33b5d571af76c0d4f9b9ee6e72afd8a6" target="_top" xlink:title=" ">
<polygon fill="white" stroke="black" points="170,-38.5 170,-57.5 275,-57.5 275,-38.5 170,-38.5"/>
<text text-anchor="middle" x="222.5" y="-45.5" font-family="Helvetica,sans-Serif" font-size="10.00">Export::_preCheck</text>
</a>
</g>
</g>
<!-- Node1&#45;&gt;Node2 -->
<g id="edge1" class="edge">
<title>Node1&#45;&gt;Node2</title>
<path fill="none" stroke="midnightblue" d="M134.43,-37.22C142.84,-38.26 151.42,-39.33 159.76,-40.36"/>
<polygon fill="midnightblue" stroke="midnightblue" points="159.42,-43.84 169.77,-41.6 160.28,-36.9 159.42,-43.84"/>
</g>
<!-- Node4 -->
<g id="node4" class="node">
<title>Node4</title>
<g id="a_node4"><a xlink:href="class_value___vec.html#a85176364e598138b4233bb824676f921" target="_top" xlink:title=" ">
<polygon fill="white" stroke="black" points="175.5,-0.5 175.5,-19.5 269.5,-19.5 269.5,-0.5 175.5,-0.5"/>
<text text-anchor="middle" x="222.5" y="-7.5" font-family="Helvetica,sans-Serif" font-size="10.00">Value_Vec::max</text>
</a>
</g>
</g>
<!-- Node1&#45;&gt;Node4 -->
<g id="edge3" class="edge">
<title>Node1&#45;&gt;Node4</title>
<path fill="none" stroke="midnightblue" d="M134.43,-20.78C144.66,-19.51 155.13,-18.22 165.11,-16.98"/>
<polygon fill="midnightblue" stroke="midnightblue" points="165.8,-20.42 175.29,-15.72 164.94,-13.47 165.8,-20.42"/>
</g>
<!-- Node3 -->
<g id="node3" class="node">
<title>Node3</title>
<g id="a_node3"><a xlink:href="error__code_8h.html#ae1bfa02e1106eff84ddecb9f7773a1a4" target="_top" xlink:title="Return the error message of the error code from class Err.">
<polygon fill="white" stroke="black" points="311,-38.5 311,-57.5 371,-57.5 371,-38.5 311,-38.5"/>
<text text-anchor="middle" x="341" y="-45.5" font-family="Helvetica,sans-Serif" font-size="10.00">errorMsg</text>
</a>
</g>
</g>
<!-- Node2&#45;&gt;Node3 -->
<g id="edge2" class="edge">
<title>Node2&#45;&gt;Node3</title>
<path fill="none" stroke="midnightblue" d="M275.28,-48C283.73,-48 292.36,-48 300.46,-48"/>
<polygon fill="midnightblue" stroke="midnightblue" points="300.73,-51.5 310.73,-48 300.73,-44.5 300.73,-51.5"/>
</g>
</g>
</svg>
