<?xml version="1.0" encoding="UTF-8" standalone="no"?>
<!DOCTYPE svg PUBLIC "-//W3C//DTD SVG 1.1//EN"
 "http://www.w3.org/Graphics/SVG/1.1/DTD/svg11.dtd">
<!-- Generated by graphviz version 2.43.0 (0)
 -->
<!-- Title: Export::_topComment Pages: 1 -->
<svg width="484pt" height="104pt"
 viewBox="0.00 0.00 484.00 104.00" xmlns="http://www.w3.org/2000/svg" xmlns:xlink="http://www.w3.org/1999/xlink">
<g id="graph0" class="graph" transform="scale(1 1) rotate(0) translate(4 100)">
<title>Export::_topComment</title>
<polygon fill="white" stroke="transparent" points="-4,4 -4,-100 480,-100 480,4 -4,4"/>
<!-- Node1 -->
<g id="node1" class="node">
<title>Node1</title>
<g id="a_node1"><a xlink:title=" ">
<polygon fill="#bfbfbf" stroke="black" points="0,-38.5 0,-57.5 123,-57.5 123,-38.5 0,-38.5"/>
<text text-anchor="middle" x="61.5" y="-45.5" font-family="Helvetica,sans-Serif" font-size="10.00">Export::_topComment</text>
</a>
</g>
</g>
<!-- Node2 -->
<g id="node2" class="node">
<title>Node2</title>
<g id="a_node2"><a xlink:href="class_export.html#a638d6b9ced18342503ee6f4d4b274740" target="_top" xlink:title=" ">
<polygon fill="white" stroke="black" points="175,-76.5 175,-95.5 259,-95.5 259,-76.5 175,-76.5"/>
<text text-anchor="middle" x="217" y="-83.5" font-family="Helvetica,sans-Serif" font-size="10.00">Export::_asStr</text>
</a>
</g>
</g>
<!-- Node1&#45;&gt;Node2 -->
<g id="edge1" class="edge">
<title>Node1&#45;&gt;Node2</title>
<path fill="none" stroke="midnightblue" d="M101.23,-57.59C121.4,-62.58 146.25,-68.73 167.66,-74.03"/>
<polygon fill="midnightblue" stroke="midnightblue" points="167,-77.47 177.54,-76.48 168.68,-70.68 167,-77.47"/>
</g>
<!-- Node3 -->
<g id="node3" class="node">
<title>Node3</title>
<g id="a_node3"><a xlink:href="class_export.html#abe75ae41d7cc8afe8f1ba4bbf67dfcfc" target="_top" xlink:title=" ">
<polygon fill="white" stroke="black" points="362,-38.5 362,-57.5 425,-57.5 425,-38.5 362,-38.5"/>
<text text-anchor="middle" x="393.5" y="-45.5" font-family="Helvetica,sans-Serif" font-size="10.00">Export::_f</text>
</a>
</g>
</g>
<!-- Node1&#45;&gt;Node3 -->
<g id="edge2" class="edge">
<title>Node1&#45;&gt;Node3</title>
<path fill="none" stroke="midnightblue" d="M123.03,-48C189.42,-48 294.14,-48 351.53,-48"/>
<polygon fill="midnightblue" stroke="midnightblue" points="351.67,-51.5 361.67,-48 351.67,-44.5 351.67,-51.5"/>
</g>
<!-- Node4 -->
<g id="node4" class="node">
<title>Node4</title>
<g id="a_node4"><a xlink:href="class_export.html#a568b2f04e1b7837923d3f3af5f47abe2" target="_top" xlink:title=" ">
<polygon fill="white" stroke="black" points="159,-0.5 159,-19.5 275,-19.5 275,-0.5 159,-0.5"/>
<text text-anchor="middle" x="217" y="-7.5" font-family="Helvetica,sans-Serif" font-size="10.00">Export::_wComment</text>
</a>
</g>
</g>
<!-- Node1&#45;&gt;Node4 -->
<g id="edge3" class="edge">
<title>Node1&#45;&gt;Node4</title>
<path fill="none" stroke="midnightblue" d="M101.23,-38.41C121.4,-33.42 146.25,-27.27 167.66,-21.97"/>
<polygon fill="midnightblue" stroke="midnightblue" points="168.68,-25.32 177.54,-19.52 167,-18.53 168.68,-25.32"/>
</g>
<!-- Node4&#45;&gt;Node3 -->
<g id="edge4" class="edge">
<title>Node4&#45;&gt;Node3</title>
<path fill="none" stroke="midnightblue" d="M262.03,-19.59C289.7,-25.61 325.12,-33.33 352.07,-39.2"/>
<polygon fill="midnightblue" stroke="midnightblue" points="351.43,-42.64 361.95,-41.35 352.92,-35.8 351.43,-42.64"/>
</g>
<!-- Node5 -->
<g id="node5" class="node">
<title>Node5</title>
<g id="a_node5"><a xlink:href="class_export.html#a830d30748b6b214e036e794d5ed08093" target="_top" xlink:title=" ">
<polygon fill="white" stroke="black" points="311,-0.5 311,-19.5 476,-19.5 476,-0.5 311,-0.5"/>
<text text-anchor="middle" x="393.5" y="-7.5" font-family="Helvetica,sans-Serif" font-size="10.00">Export::_langCommentSymbol</text>
</a>
</g>
</g>
<!-- Node4&#45;&gt;Node5 -->
<g id="edge5" class="edge">
<title>Node4&#45;&gt;Node5</title>
<path fill="none" stroke="midnightblue" d="M275.14,-10C283.35,-10 291.98,-10 300.66,-10"/>
<polygon fill="midnightblue" stroke="midnightblue" points="300.86,-13.5 310.86,-10 300.86,-6.5 300.86,-13.5"/>
</g>
</g>
</svg>
