<?xml version="1.0" encoding="UTF-8" standalone="no"?>
<!DOCTYPE svg PUBLIC "-//W3C//DTD SVG 1.1//EN"
 "http://www.w3.org/Graphics/SVG/1.1/DTD/svg11.dtd">
<!-- Generated by graphviz version 2.43.0 (0)
 -->
<!-- Title: Export::_wComment Pages: 1 -->
<svg width="325pt" height="66pt"
 viewBox="0.00 0.00 325.00 66.00" xmlns="http://www.w3.org/2000/svg" xmlns:xlink="http://www.w3.org/1999/xlink">
<g id="graph0" class="graph" transform="scale(1 1) rotate(0) translate(4 62)">
<title>Export::_wComment</title>
<polygon fill="white" stroke="transparent" points="-4,4 -4,-62 321,-62 321,4 -4,4"/>
<!-- Node1 -->
<g id="node1" class="node">
<title>Node1</title>
<g id="a_node1"><a xlink:title=" ">
<polygon fill="#bfbfbf" stroke="black" points="0,-19.5 0,-38.5 116,-38.5 116,-19.5 0,-19.5"/>
<text text-anchor="middle" x="58" y="-26.5" font-family="Helvetica,sans-Serif" font-size="10.00">Export::_wComment</text>
</a>
</g>
</g>
<!-- Node2 -->
<g id="node2" class="node">
<title>Node2</title>
<g id="a_node2"><a xlink:href="class_export.html#abe75ae41d7cc8afe8f1ba4bbf67dfcfc" target="_top" xlink:title=" ">
<polygon fill="white" stroke="black" points="203,-38.5 203,-57.5 266,-57.5 266,-38.5 203,-38.5"/>
<text text-anchor="middle" x="234.5" y="-45.5" font-family="Helvetica,sans-Serif" font-size="10.00">Export::_f</text>
</a>
</g>
</g>
<!-- Node1&#45;&gt;Node2 -->
<g id="edge1" class="edge">
<title>Node1&#45;&gt;Node2</title>
<path fill="none" stroke="midnightblue" d="M116.14,-35.22C141.13,-37.94 169.89,-41.07 192.68,-43.56"/>
<polygon fill="midnightblue" stroke="midnightblue" points="192.38,-47.04 202.7,-44.65 193.14,-40.08 192.38,-47.04"/>
</g>
<!-- Node3 -->
<g id="node3" class="node">
<title>Node3</title>
<g id="a_node3"><a xlink:href="class_export.html#a830d30748b6b214e036e794d5ed08093" target="_top" xlink:title=" ">
<polygon fill="white" stroke="black" points="152,-0.5 152,-19.5 317,-19.5 317,-0.5 152,-0.5"/>
<text text-anchor="middle" x="234.5" y="-7.5" font-family="Helvetica,sans-Serif" font-size="10.00">Export::_langCommentSymbol</text>
</a>
</g>
</g>
<!-- Node1&#45;&gt;Node3 -->
<g id="edge2" class="edge">
<title>Node1&#45;&gt;Node3</title>
<path fill="none" stroke="midnightblue" d="M116.14,-22.78C124.35,-21.88 132.98,-20.95 141.66,-20"/>
<polygon fill="midnightblue" stroke="midnightblue" points="142.3,-23.45 151.86,-18.89 141.54,-16.49 142.3,-23.45"/>
</g>
</g>
</svg>
