<?xml version="1.0" encoding="UTF-8" standalone="no"?>
<!DOCTYPE svg PUBLIC "-//W3C//DTD SVG 1.1//EN"
 "http://www.w3.org/Graphics/SVG/1.1/DTD/svg11.dtd">
<!-- Generated by graphviz version 2.43.0 (0)
 -->
<!-- Title: Alg_Line::hasKey Pages: 1 -->
<!--zoomable 160 -->
<svg id="main" version="1.1" xmlns="http://www.w3.org/2000/svg" xmlns:xlink="http://www.w3.org/1999/xlink" xml:space="preserve" onload="init(evt)">
<style type="text/css"><![CDATA[
.edge:hover path { stroke: red; }
.edge:hover polygon { stroke: red; fill: red; }
]]></style>
<script type="text/javascript"><![CDATA[
var edges = document.getElementsByTagName('g');
if (edges && edges.length) {
  for (var i=0;i<edges.length;i++) {
    if (edges[i].id.substr(0,4)=='edge') {
      edges[i].setAttribute('class','edge');
    }
  }
}
]]></script>
        <defs>
                <circle id="rim" cx="0" cy="0" r="7"/>
                <circle id="rim2" cx="0" cy="0" r="3.5"/>
                <g id="zoomPlus">
                        <use xlink:href="#rim" fill="#404040">
                                <set attributeName="fill" to="#808080" begin="zoomplus.mouseover" end="zoomplus.mouseout"/>
                        </use>
                        <path d="M-4,0h8M0,-4v8" fill="none" stroke="white" stroke-width="1.5" pointer-events="none"/>
                </g>
                <g id="zoomMin">
                        <use xlink:href="#rim" fill="#404040">
                                <set attributeName="fill" to="#808080" begin="zoomminus.mouseover" end="zoomminus.mouseout"/>
                        </use>
                        <path d="M-4,0h8" fill="none" stroke="white" stroke-width="1.5" pointer-events="none"/>
                </g>
                <g id="dirArrow">
                        <path fill="none" stroke="white" stroke-width="1.5" d="M0,-3.0v7 M-2.5,-0.5L0,-3.0L2.5,-0.5"/>
                </g>
               <g id="resetDef">
                       <use xlink:href="#rim2" fill="#404040">
                               <set attributeName="fill" to="#808080" begin="reset.mouseover" end="reset.mouseout"/>
                       </use>
               </g>
        </defs>

<script type="text/javascript">
var viewWidth = 849;
var viewHeight = 160;
var sectionId = 'dynsection-12';
</script>
<script xlink:href="svgpan.js"/>
<svg id="graph" class="graph">
<g id="viewport">
<title>Alg_Line::hasKey</title>
<polygon fill="white" stroke="transparent" points="-4,4 -4,-156 845,-156 845,4 -4,4"/>
<!-- Node1 -->
<g id="node1" class="node">
<title>Node1</title>
<g id="a_node1"><a xlink:title="Check whether parameters contain the key.">
<polygon fill="#bfbfbf" stroke="black" points="742,-104.5 742,-123.5 841,-123.5 841,-104.5 742,-104.5"/>
<text text-anchor="middle" x="791.5" y="-111.5" font-family="Helvetica,sans-Serif" font-size="10.00">Alg_Line::hasKey</text>
</a>
</g>
</g>
<!-- Node2 -->
<g id="node2" class="node">
<title>Node2</title>
<g id="a_node2"><a xlink:href="class_alg___line.html#ae7ed4751a3a31f23ab51da7db4fdb199" target="_top" xlink:title="Check is the key is valid. (not violating the needed sequence.)">
<polygon fill="white" stroke="black" points="592,-132.5 592,-151.5 706,-151.5 706,-132.5 592,-132.5"/>
<text text-anchor="middle" x="649" y="-139.5" font-family="Helvetica,sans-Serif" font-size="10.00">Alg_Line::isValidKey</text>
</a>
</g>
</g>
<!-- Node1&#45;&gt;Node2 -->
<g id="edge1" class="edge">
<title>Node1&#45;&gt;Node2</title>
<path fill="none" stroke="midnightblue" d="M732.52,-125.55C720.95,-127.86 708.92,-130.26 697.74,-132.49"/>
<polygon fill="midnightblue" stroke="midnightblue" points="733.42,-128.94 742.54,-123.56 732.05,-122.08 733.42,-128.94"/>
</g>
<!-- Node3 -->
<g id="node3" class="node">
<title>Node3</title>
<g id="a_node3"><a xlink:href="class_alg.html#ada1e8215f047b4ffd736e811b5ea3162" target="_top" xlink:title=" ">
<polygon fill="white" stroke="black" points="617.5,-76.5 617.5,-95.5 680.5,-95.5 680.5,-76.5 617.5,-76.5"/>
<text text-anchor="middle" x="649" y="-83.5" font-family="Helvetica,sans-Serif" font-size="10.00">Alg::write</text>
</a>
</g>
</g>
<!-- Node1&#45;&gt;Node3 -->
<g id="edge2" class="edge">
<title>Node1&#45;&gt;Node3</title>
<path fill="none" stroke="midnightblue" d="M732.25,-102.39C714.51,-98.86 695.72,-95.11 680.59,-92.1"/>
<polygon fill="midnightblue" stroke="midnightblue" points="732.05,-105.92 742.54,-104.44 733.42,-99.06 732.05,-105.92"/>
</g>
<!-- Node3&#45;&gt;Node3 -->
<g id="edge15" class="edge">
<title>Node3&#45;&gt;Node3</title>
<path fill="none" stroke="midnightblue" d="M675.51,-104.65C674.4,-109.94 665.56,-114 649,-114 623.76,-114 616.47,-104.57 627.11,-95.76"/>
<polygon fill="midnightblue" stroke="midnightblue" points="678.6,-103.02 670.89,-95.76 672.39,-106.24 678.6,-103.02"/>
</g>
<!-- Node4 -->
<g id="node4" class="node">
<title>Node4</title>
<g id="a_node4"><a xlink:href="class_export.html#a89d3ae54dd2261cf35be148011b79fe4" target="_top" xlink:title=" ">
<polygon fill="white" stroke="black" points="292,-114.5 292,-133.5 404,-133.5 404,-114.5 292,-114.5"/>
<text text-anchor="middle" x="348" y="-121.5" font-family="Helvetica,sans-Serif" font-size="10.00">Export::_algorithms</text>
</a>
</g>
</g>
<!-- Node3&#45;&gt;Node4 -->
<g id="edge3" class="edge">
<title>Node3&#45;&gt;Node4</title>
<path fill="none" stroke="midnightblue" d="M624.91,-101.23C600.2,-117.38 563.52,-140.86 556,-143 494.91,-160.39 419.98,-144.89 379.11,-133.5"/>
<polygon fill="midnightblue" stroke="midnightblue" points="626.95,-104.08 633.39,-95.67 623.11,-98.22 626.95,-104.08"/>
</g>
<!-- Node8 -->
<g id="node8" class="node">
<title>Node8</title>
<g id="a_node8"><a xlink:href="class_export.html#ae4811e1e4212029122c0ee29613714cc" target="_top" xlink:title=" ">
<polygon fill="white" stroke="black" points="442,-76.5 442,-95.5 554,-95.5 554,-76.5 442,-76.5"/>
<text text-anchor="middle" x="498" y="-83.5" font-family="Helvetica,sans-Serif" font-size="10.00">Export::_estimation</text>
</a>
</g>
</g>
<!-- Node3&#45;&gt;Node8 -->
<g id="edge7" class="edge">
<title>Node3&#45;&gt;Node8</title>
<path fill="none" stroke="midnightblue" d="M607.18,-86C590.83,-86 571.73,-86 554.18,-86"/>
<polygon fill="midnightblue" stroke="midnightblue" points="607.49,-89.5 617.49,-86 607.49,-82.5 607.49,-89.5"/>
</g>
<!-- Node9 -->
<g id="node9" class="node">
<title>Node9</title>
<g id="a_node9"><a xlink:href="class_export.html#a26fa49d9882a342d011ba715e0c14109" target="_top" xlink:title=" ">
<polygon fill="white" stroke="black" points="296,-57.5 296,-76.5 400,-76.5 400,-57.5 296,-57.5"/>
<text text-anchor="middle" x="348" y="-64.5" font-family="Helvetica,sans-Serif" font-size="10.00">Export::_sounding</text>
</a>
</g>
</g>
<!-- Node3&#45;&gt;Node9 -->
<g id="edge14" class="edge">
<title>Node3&#45;&gt;Node9</title>
<path fill="none" stroke="midnightblue" d="M607.14,-75.7C591.28,-72.2 572.9,-68.73 556,-67 503.09,-61.59 442.17,-62.44 400.19,-64.11"/>
<polygon fill="midnightblue" stroke="midnightblue" points="606.63,-79.17 617.16,-77.99 608.19,-72.35 606.63,-79.17"/>
</g>
<!-- Node10 -->
<g id="node10" class="node">
<title>Node10</title>
<g id="a_node10"><a xlink:href="class_export.html#a59ba705b2369f21006ec7d7b7f3a4513" target="_top" xlink:title="Generate RIS reflection matrices.">
<polygon fill="white" stroke="black" points="440,-0.5 440,-19.5 556,-19.5 556,-0.5 440,-0.5"/>
<text text-anchor="middle" x="498" y="-7.5" font-family="Helvetica,sans-Serif" font-size="10.00">Export::_generateBF</text>
</a>
</g>
</g>
<!-- Node3&#45;&gt;Node10 -->
<g id="edge10" class="edge">
<title>Node3&#45;&gt;Node10</title>
<path fill="none" stroke="midnightblue" d="M623.76,-71.28C605.45,-60.41 579.53,-45.55 556,-34 545.49,-28.84 533.6,-23.72 523.41,-19.55"/>
<polygon fill="midnightblue" stroke="midnightblue" points="621.97,-74.28 632.35,-76.41 625.56,-68.28 621.97,-74.28"/>
</g>
<!-- Node11 -->
<g id="node11" class="node">
<title>Node11</title>
<g id="a_node11"><a xlink:href="class_export.html#a833aa02973f6b5c1f3e536e8646cf1ac" target="_top" xlink:title=" ">
<polygon fill="white" stroke="black" points="448,-114.5 448,-133.5 548,-133.5 548,-114.5 448,-114.5"/>
<text text-anchor="middle" x="498" y="-121.5" font-family="Helvetica,sans-Serif" font-size="10.00">Export::_loadALG</text>
</a>
</g>
</g>
<!-- Node3&#45;&gt;Node11 -->
<g id="edge12" class="edge">
<title>Node3&#45;&gt;Node11</title>
<path fill="none" stroke="midnightblue" d="M607.68,-96.28C585.46,-101.95 558.07,-108.94 536.34,-114.48"/>
<polygon fill="midnightblue" stroke="midnightblue" points="608.66,-99.64 617.49,-93.78 606.93,-92.86 608.66,-99.64"/>
</g>
<!-- Node5 -->
<g id="node5" class="node">
<title>Node5</title>
<g id="a_node5"><a xlink:href="class_export.html#affc37d1d677a83d3e5d36a4e37b7a72b" target="_top" xlink:title=" ">
<polygon fill="white" stroke="black" points="146,-95.5 146,-114.5 256,-114.5 256,-95.5 146,-95.5"/>
<text text-anchor="middle" x="201" y="-102.5" font-family="Helvetica,sans-Serif" font-size="10.00">Export::exportCode</text>
</a>
</g>
</g>
<!-- Node4&#45;&gt;Node5 -->
<g id="edge4" class="edge">
<title>Node4&#45;&gt;Node5</title>
<path fill="none" stroke="midnightblue" d="M281.79,-115.45C273.21,-114.33 264.49,-113.19 256.12,-112.09"/>
<polygon fill="midnightblue" stroke="midnightblue" points="281.4,-118.93 291.77,-116.76 282.31,-111.99 281.4,-118.93"/>
</g>
<!-- Node6 -->
<g id="node6" class="node">
<title>Node6</title>
<g id="a_node6"><a xlink:href="class_export.html#a94fab568af6ddd6447efca74e205e081" target="_top" xlink:title=" ">
<polygon fill="white" stroke="black" points="0,-114.5 0,-133.5 110,-133.5 110,-114.5 0,-114.5"/>
<text text-anchor="middle" x="55" y="-121.5" font-family="Helvetica,sans-Serif" font-size="10.00">Export::exportCode</text>
</a>
</g>
</g>
<!-- Node5&#45;&gt;Node6 -->
<g id="edge5" class="edge">
<title>Node5&#45;&gt;Node6</title>
<path fill="none" stroke="midnightblue" d="M136.01,-113.44C127.44,-114.57 118.72,-115.73 110.33,-116.83"/>
<polygon fill="midnightblue" stroke="midnightblue" points="136.51,-116.91 145.97,-112.13 135.6,-109.97 136.51,-116.91"/>
</g>
<!-- Node7 -->
<g id="node7" class="node">
<title>Node7</title>
<g id="a_node7"><a xlink:href="src_2main_8cpp.html#a0ddf1224851353fc92bfbff6f499fa97" target="_top" xlink:title=" ">
<polygon fill="white" stroke="black" points="34.5,-76.5 34.5,-95.5 75.5,-95.5 75.5,-76.5 34.5,-76.5"/>
<text text-anchor="middle" x="55" y="-83.5" font-family="Helvetica,sans-Serif" font-size="10.00">main</text>
</a>
</g>
</g>
<!-- Node5&#45;&gt;Node7 -->
<g id="edge6" class="edge">
<title>Node5&#45;&gt;Node7</title>
<path fill="none" stroke="midnightblue" d="M136.05,-96.56C114.24,-93.68 91.43,-90.67 75.76,-88.61"/>
<polygon fill="midnightblue" stroke="midnightblue" points="135.6,-100.03 145.97,-97.87 136.51,-93.09 135.6,-100.03"/>
</g>
<!-- Node8&#45;&gt;Node9 -->
<g id="edge8" class="edge">
<title>Node8&#45;&gt;Node9</title>
<path fill="none" stroke="midnightblue" d="M431.85,-77.64C421.26,-76.28 410.43,-74.89 400.24,-73.58"/>
<polygon fill="midnightblue" stroke="midnightblue" points="431.53,-81.12 441.89,-78.93 432.42,-74.18 431.53,-81.12"/>
</g>
<!-- Node9&#45;&gt;Node5 -->
<g id="edge9" class="edge">
<title>Node9&#45;&gt;Node5</title>
<path fill="none" stroke="midnightblue" d="M300.51,-79.18C280.38,-84.46 257.16,-90.54 238.33,-95.48"/>
<polygon fill="midnightblue" stroke="midnightblue" points="301.62,-82.51 310.41,-76.59 299.85,-75.74 301.62,-82.51"/>
</g>
<!-- Node10&#45;&gt;Node9 -->
<g id="edge11" class="edge">
<title>Node10&#45;&gt;Node9</title>
<path fill="none" stroke="midnightblue" d="M462.72,-23.2C435.54,-33.67 398.21,-48.05 373.85,-57.43"/>
<polygon fill="midnightblue" stroke="midnightblue" points="464.15,-26.4 472.23,-19.54 461.64,-19.87 464.15,-26.4"/>
</g>
<!-- Node11&#45;&gt;Node4 -->
<g id="edge13" class="edge">
<title>Node11&#45;&gt;Node4</title>
<path fill="none" stroke="midnightblue" d="M437.71,-124C426.65,-124 415.13,-124 404.19,-124"/>
<polygon fill="midnightblue" stroke="midnightblue" points="437.72,-127.5 447.72,-124 437.72,-120.5 437.72,-127.5"/>
</g>
</g>
</svg>
        <g id="navigator" transform="translate(0 0)" fill="#404254">
                <rect fill="#f2f5e9" fill-opacity="0.5" stroke="#606060" stroke-width=".5" x="0" y="0" width="60" height="60"/>
                <use id="zoomplus" xlink:href="#zoomPlus" x="17" y="9" onmousedown="handleZoom(evt,'in')"/>
                <use id="zoomminus" xlink:href="#zoomMin" x="42" y="9" onmousedown="handleZoom(evt,'out')"/>
                <use id="reset" xlink:href="#resetDef" x="30" y="36" onmousedown="handleReset()"/>
                <g id="arrowUp" xlink:href="#dirArrow" transform="translate(30 24)" onmousedown="handlePan(0,-1)">
                  <use xlink:href="#rim" fill="#404040">
                        <set attributeName="fill" to="#808080" begin="arrowUp.mouseover" end="arrowUp.mouseout"/>
                  </use>
                  <path fill="none" stroke="white" stroke-width="1.5" d="M0,-3.0v7 M-2.5,-0.5L0,-3.0L2.5,-0.5"/>
                </g>
                <g id="arrowRight" xlink:href="#dirArrow" transform="rotate(90) translate(36 -43)" onmousedown="handlePan(1,0)">
                  <use xlink:href="#rim" fill="#404040">
                        <set attributeName="fill" to="#808080" begin="arrowRight.mouseover" end="arrowRight.mouseout"/>
                  </use>
                  <path fill="none" stroke="white" stroke-width="1.5" d="M0,-3.0v7 M-2.5,-0.5L0,-3.0L2.5,-0.5"/>
                </g>
                <g id="arrowDown" xlink:href="#dirArrow" transform="rotate(180) translate(-30 -48)" onmousedown="handlePan(0,1)">
                  <use xlink:href="#rim" fill="#404040">
                        <set attributeName="fill" to="#808080" begin="arrowDown.mouseover" end="arrowDown.mouseout"/>
                  </use>
                  <path fill="none" stroke="white" stroke-width="1.5" d="M0,-3.0v7 M-2.5,-0.5L0,-3.0L2.5,-0.5"/>
                </g>
                <g id="arrowLeft" xlink:href="#dirArrow" transform="rotate(270) translate(-36 17)" onmousedown="handlePan(-1,0)">
                  <use xlink:href="#rim" fill="#404040">
                        <set attributeName="fill" to="#808080" begin="arrowLeft.mouseover" end="arrowLeft.mouseout"/>
                  </use>
                  <path fill="none" stroke="white" stroke-width="1.5" d="M0,-3.0v7 M-2.5,-0.5L0,-3.0L2.5,-0.5"/>
                </g>
        </g>
        <svg viewBox="0 0 15 15" width="100%" height="30px" preserveAspectRatio="xMaxYMin meet">
         <g id="arrow_out" transform="scale(0.3 0.3)">
          <a xlink:href="class_alg___line_a49a98870a1f09e35a3e15a7d7bab1666_icgraph_org.svg" target="_base">
           <rect id="button" ry="5" rx="5" y="6" x="6" height="38" width="38"
                fill="#f2f5e9" fill-opacity="0.5" stroke="#606060" stroke-width="1.0"/>
           <path id="arrow"
             d="M 11.500037,31.436501 C 11.940474,20.09759 22.043105,11.32322 32.158766,21.979434 L 37.068811,17.246167 C 37.068811,17.246167 37.088388,32 37.088388,32 L 22.160133,31.978069 C 22.160133,31.978069 26.997745,27.140456 26.997745,27.140456 C 18.528582,18.264221 13.291696,25.230495 11.500037,31.436501 z"
             style="fill:#404040;"/>
          </a>
         </g>
        </svg>
</svg>
