<?xml version="1.0" encoding="UTF-8" standalone="no"?>
<!DOCTYPE svg PUBLIC "-//W3C//DTD SVG 1.1//EN"
 "http://www.w3.org/Graphics/SVG/1.1/DTD/svg11.dtd">
<!-- Generated by graphviz version 2.43.0 (0)
 -->
<!-- Title: Alg_Line::_decodeEscape Pages: 1 -->
<svg width="489pt" height="66pt"
 viewBox="0.00 0.00 489.00 66.00" xmlns="http://www.w3.org/2000/svg" xmlns:xlink="http://www.w3.org/1999/xlink">
<g id="graph0" class="graph" transform="scale(1 1) rotate(0) translate(4 62)">
<title>Alg_Line::_decodeEscape</title>
<polygon fill="white" stroke="transparent" points="-4,4 -4,-62 485,-62 485,4 -4,4"/>
<!-- Node1 -->
<g id="node1" class="node">
<title>Node1</title>
<g id="a_node1"><a xlink:title=" ">
<polygon fill="#bfbfbf" stroke="black" points="342,-19.5 342,-38.5 481,-38.5 481,-19.5 342,-19.5"/>
<text text-anchor="middle" x="411.5" y="-26.5" font-family="Helvetica,sans-Serif" font-size="10.00">Alg_Line::_decodeEscape</text>
</a>
</g>
</g>
<!-- Node2 -->
<g id="node2" class="node">
<title>Node2</title>
<g id="a_node2"><a xlink:href="class_alg___line.html#a0047f4df72a2d10ebb74701c3d05bafc" target="_top" xlink:title="Process function name and parameter variables.">
<polygon fill="white" stroke="black" points="141,-38.5 141,-57.5 306,-57.5 306,-38.5 141,-38.5"/>
<text text-anchor="middle" x="223.5" y="-45.5" font-family="Helvetica,sans-Serif" font-size="10.00">Alg_Line::_processFuncParams</text>
</a>
</g>
</g>
<!-- Node1&#45;&gt;Node2 -->
<g id="edge1" class="edge">
<title>Node1&#45;&gt;Node2</title>
<path fill="none" stroke="midnightblue" d="M331.6,-37.06C323.19,-37.92 314.61,-38.79 306.17,-39.66"/>
<polygon fill="midnightblue" stroke="midnightblue" points="332.18,-40.52 341.77,-36.02 331.46,-33.56 332.18,-40.52"/>
</g>
<!-- Node4 -->
<g id="node4" class="node">
<title>Node4</title>
<g id="a_node4"><a xlink:href="class_alg___line.html#ab07f32f58fb0a05428e54c1d6038fce2" target="_top" xlink:title="Process returns variables.">
<polygon fill="white" stroke="black" points="151.5,-0.5 151.5,-19.5 295.5,-19.5 295.5,-0.5 151.5,-0.5"/>
<text text-anchor="middle" x="223.5" y="-7.5" font-family="Helvetica,sans-Serif" font-size="10.00">Alg_Line::_processReturns</text>
</a>
</g>
</g>
<!-- Node1&#45;&gt;Node4 -->
<g id="edge3" class="edge">
<title>Node1&#45;&gt;Node4</title>
<path fill="none" stroke="midnightblue" d="M331.81,-20.96C319.84,-19.74 307.55,-18.48 295.75,-17.28"/>
<polygon fill="midnightblue" stroke="midnightblue" points="331.46,-24.44 341.77,-21.98 332.18,-17.48 331.46,-24.44"/>
</g>
<!-- Node3 -->
<g id="node3" class="node">
<title>Node3</title>
<g id="a_node3"><a xlink:href="class_alg___line.html#a4f478c53dbfaecf16d55be668d959562" target="_top" xlink:title="Construct a new Alg_Line object. Process string at the same time.">
<polygon fill="white" stroke="black" points="0,-19.5 0,-38.5 105,-38.5 105,-19.5 0,-19.5"/>
<text text-anchor="middle" x="52.5" y="-26.5" font-family="Helvetica,sans-Serif" font-size="10.00">Alg_Line::Alg_Line</text>
</a>
</g>
</g>
<!-- Node2&#45;&gt;Node3 -->
<g id="edge2" class="edge">
<title>Node2&#45;&gt;Node3</title>
<path fill="none" stroke="midnightblue" d="M131,-37.71C122.19,-36.72 113.49,-35.74 105.27,-34.82"/>
<polygon fill="midnightblue" stroke="midnightblue" points="130.64,-41.19 140.97,-38.83 131.42,-34.24 130.64,-41.19"/>
</g>
<!-- Node4&#45;&gt;Node3 -->
<g id="edge4" class="edge">
<title>Node4&#45;&gt;Node3</title>
<path fill="none" stroke="midnightblue" d="M141.07,-19.15C128.82,-20.53 116.48,-21.92 105.09,-23.2"/>
<polygon fill="midnightblue" stroke="midnightblue" points="141.77,-22.6 151.32,-18 140.99,-15.64 141.77,-22.6"/>
</g>
</g>
</svg>
