<?xml version="1.0" encoding="UTF-8" standalone="no"?>
<!DOCTYPE svg PUBLIC "-//W3C//DTD SVG 1.1//EN"
 "http://www.w3.org/Graphics/SVG/1.1/DTD/svg11.dtd">
<!-- Generated by graphviz version 2.43.0 (0)
 -->
<!-- Title: src/config.cpp Pages: 1 -->
<svg width="1058pt" height="319pt"
 viewBox="0.00 0.00 1057.50 319.00" xmlns="http://www.w3.org/2000/svg" xmlns:xlink="http://www.w3.org/1999/xlink">
<g id="graph0" class="graph" transform="scale(1 1) rotate(0) translate(4 315)">
<title>src/config.cpp</title>
<polygon fill="white" stroke="transparent" points="-4,4 -4,-315 1053.5,-315 1053.5,4 -4,4"/>
<!-- Node1 -->
<g id="node1" class="node">
<title>Node1</title>
<g id="a_node1"><a xlink:title="Implementation of Config Class.">
<polygon fill="#bfbfbf" stroke="black" points="501,-291.5 501,-310.5 584,-310.5 584,-291.5 501,-291.5"/>
<text text-anchor="middle" x="542.5" y="-298.5" font-family="Helvetica,sans-Serif" font-size="10.00">src/config.cpp</text>
</a>
</g>
</g>
<!-- Node2 -->
<g id="node2" class="node">
<title>Node2</title>
<g id="a_node2"><a xlink:href="config_8h.html" target="_top" xlink:title="Read and Write User Configuration.">
<polygon fill="white" stroke="black" points="515,-235.5 515,-254.5 570,-254.5 570,-235.5 515,-235.5"/>
<text text-anchor="middle" x="542.5" y="-242.5" font-family="Helvetica,sans-Serif" font-size="10.00">config.h</text>
</a>
</g>
</g>
<!-- Node1&#45;&gt;Node2 -->
<g id="edge1" class="edge">
<title>Node1&#45;&gt;Node2</title>
<path fill="none" stroke="midnightblue" d="M542.5,-291.08C542.5,-284.01 542.5,-273.86 542.5,-264.99"/>
<polygon fill="midnightblue" stroke="midnightblue" points="546,-264.75 542.5,-254.75 539,-264.75 546,-264.75"/>
</g>
<!-- Node3 -->
<g id="node3" class="node">
<title>Node3</title>
<g id="a_node3"><a xlink:href="log__global_8h.html" target="_top" xlink:title="Global Access of Log.">
<polygon fill="white" stroke="black" points="381.5,-179.5 381.5,-198.5 457.5,-198.5 457.5,-179.5 381.5,-179.5"/>
<text text-anchor="middle" x="419.5" y="-186.5" font-family="Helvetica,sans-Serif" font-size="10.00">log_global.h</text>
</a>
</g>
</g>
<!-- Node2&#45;&gt;Node3 -->
<g id="edge2" class="edge">
<title>Node2&#45;&gt;Node3</title>
<path fill="none" stroke="midnightblue" d="M523.01,-235.44C502.86,-226.6 471.18,-212.69 448.17,-202.59"/>
<polygon fill="midnightblue" stroke="midnightblue" points="449.46,-199.33 438.9,-198.52 446.65,-205.74 449.46,-199.33"/>
</g>
<!-- Node6 -->
<g id="node6" class="node">
<title>Node6</title>
<g id="a_node6"><a xlink:title=" ">
<polygon fill="white" stroke="#bfbfbf" points="145.5,-6 145.5,-25 189.5,-25 189.5,-6 145.5,-6"/>
<text text-anchor="middle" x="167.5" y="-13" font-family="Helvetica,sans-Serif" font-size="10.00">string</text>
</a>
</g>
</g>
<!-- Node2&#45;&gt;Node6 -->
<g id="edge36" class="edge">
<title>Node2&#45;&gt;Node6</title>
<path fill="none" stroke="midnightblue" d="M514.99,-239.04C480.76,-232.34 420.93,-218.91 372.5,-199 280.06,-161 233.53,-169.76 177.5,-87 167.23,-71.83 165.5,-50.59 165.86,-35.4"/>
<polygon fill="midnightblue" stroke="midnightblue" points="169.37,-35.34 166.44,-25.16 162.38,-34.95 169.37,-35.34"/>
</g>
<!-- Node7 -->
<g id="node7" class="node">
<title>Node7</title>
<g id="a_node7"><a xlink:href="term_8h.html" target="_top" xlink:title="Terminal Color and Style Control.">
<polygon fill="white" stroke="black" points="81,-67.5 81,-86.5 130,-86.5 130,-67.5 81,-67.5"/>
<text text-anchor="middle" x="105.5" y="-74.5" font-family="Helvetica,sans-Serif" font-size="10.00">term.h</text>
</a>
</g>
</g>
<!-- Node2&#45;&gt;Node7 -->
<g id="edge27" class="edge">
<title>Node2&#45;&gt;Node7</title>
<path fill="none" stroke="midnightblue" d="M514.91,-244.63C434.28,-245.9 201.21,-245.4 144.5,-199 113.71,-173.81 106.94,-124.1 105.64,-96.9"/>
<polygon fill="midnightblue" stroke="midnightblue" points="109.13,-96.65 105.36,-86.75 102.13,-96.84 109.13,-96.65"/>
</g>
<!-- Node10 -->
<g id="node10" class="node">
<title>Node10</title>
<g id="a_node10"><a xlink:href="utils_8h.html" target="_top" xlink:title="Utilities.">
<polygon fill="white" stroke="black" points="463,-67.5 463,-86.5 510,-86.5 510,-67.5 463,-67.5"/>
<text text-anchor="middle" x="486.5" y="-74.5" font-family="Helvetica,sans-Serif" font-size="10.00">utils.h</text>
</a>
</g>
</g>
<!-- Node2&#45;&gt;Node10 -->
<g id="edge28" class="edge">
<title>Node2&#45;&gt;Node10</title>
<path fill="none" stroke="midnightblue" d="M539.49,-235.08C530.64,-208.83 504.56,-131.55 492.61,-96.12"/>
<polygon fill="midnightblue" stroke="midnightblue" points="495.9,-94.92 489.39,-86.57 489.27,-97.16 495.9,-94.92"/>
</g>
<!-- Node22 -->
<g id="node22" class="node">
<title>Node22</title>
<g id="a_node22"><a xlink:title=" ">
<polygon fill="white" stroke="#bfbfbf" points="528.5,-67.5 528.5,-86.5 596.5,-86.5 596.5,-67.5 528.5,-67.5"/>
<text text-anchor="middle" x="562.5" y="-74.5" font-family="Helvetica,sans-Serif" font-size="10.00">filesystem</text>
</a>
</g>
</g>
<!-- Node2&#45;&gt;Node22 -->
<g id="edge33" class="edge">
<title>Node2&#45;&gt;Node22</title>
<path fill="none" stroke="midnightblue" d="M542.04,-235.4C541.14,-215.45 539.87,-164.57 547.5,-123 549.15,-113.99 552.2,-104.31 555.12,-96.25"/>
<polygon fill="midnightblue" stroke="midnightblue" points="558.44,-97.36 558.76,-86.77 551.91,-94.85 558.44,-97.36"/>
</g>
<!-- Node23 -->
<g id="node23" class="node">
<title>Node23</title>
<g id="a_node23"><a xlink:title=" ">
<polygon fill="white" stroke="#bfbfbf" points="615,-67.5 615,-86.5 670,-86.5 670,-67.5 615,-67.5"/>
<text text-anchor="middle" x="642.5" y="-74.5" font-family="Helvetica,sans-Serif" font-size="10.00">fstream</text>
</a>
</g>
</g>
<!-- Node2&#45;&gt;Node23 -->
<g id="edge35" class="edge">
<title>Node2&#45;&gt;Node23</title>
<path fill="none" stroke="midnightblue" d="M543.46,-235.27C546.14,-214.15 555.34,-159.37 581.5,-123 590.68,-110.23 604.59,-99.57 616.81,-91.84"/>
<polygon fill="midnightblue" stroke="midnightblue" points="618.93,-94.65 625.71,-86.51 615.34,-88.64 618.93,-94.65"/>
</g>
<!-- Node26 -->
<g id="node26" class="node">
<title>Node26</title>
<g id="a_node26"><a xlink:href="yaml_8h.html" target="_top" xlink:title="Wrapper for yaml&#45;cpp for static linking.">
<polygon fill="white" stroke="black" points="589.5,-179.5 589.5,-198.5 639.5,-198.5 639.5,-179.5 589.5,-179.5"/>
<text text-anchor="middle" x="614.5" y="-186.5" font-family="Helvetica,sans-Serif" font-size="10.00">yaml.h</text>
</a>
</g>
</g>
<!-- Node2&#45;&gt;Node26 -->
<g id="edge29" class="edge">
<title>Node2&#45;&gt;Node26</title>
<path fill="none" stroke="midnightblue" d="M554.07,-235.32C564.92,-227.18 581.38,-214.84 594.38,-205.09"/>
<polygon fill="midnightblue" stroke="midnightblue" points="596.82,-207.63 602.72,-198.83 592.62,-202.03 596.82,-207.63"/>
</g>
<!-- Node28 -->
<g id="node28" class="node">
<title>Node28</title>
<g id="a_node28"><a xlink:title=" ">
<polygon fill="white" stroke="#bfbfbf" points="657.5,-179.5 657.5,-198.5 699.5,-198.5 699.5,-179.5 657.5,-179.5"/>
<text text-anchor="middle" x="678.5" y="-186.5" font-family="Helvetica,sans-Serif" font-size="10.00">array</text>
</a>
</g>
</g>
<!-- Node2&#45;&gt;Node28 -->
<g id="edge31" class="edge">
<title>Node2&#45;&gt;Node28</title>
<path fill="none" stroke="midnightblue" d="M564.05,-235.44C586.66,-226.46 622.41,-212.27 647.93,-202.14"/>
<polygon fill="midnightblue" stroke="midnightblue" points="649.5,-205.28 657.5,-198.34 646.91,-198.78 649.5,-205.28"/>
</g>
<!-- Node29 -->
<g id="node29" class="node">
<title>Node29</title>
<g id="a_node29"><a xlink:title=" ">
<polygon fill="white" stroke="#bfbfbf" points="718,-179.5 718,-198.5 783,-198.5 783,-179.5 718,-179.5"/>
<text text-anchor="middle" x="750.5" y="-186.5" font-family="Helvetica,sans-Serif" font-size="10.00">exception</text>
</a>
</g>
</g>
<!-- Node2&#45;&gt;Node29 -->
<g id="edge32" class="edge">
<title>Node2&#45;&gt;Node29</title>
<path fill="none" stroke="midnightblue" d="M570.12,-236.83C605.44,-227.66 666.97,-211.69 708.21,-200.98"/>
<polygon fill="midnightblue" stroke="midnightblue" points="709.17,-204.35 717.97,-198.45 707.41,-197.57 709.17,-204.35"/>
</g>
<!-- Node30 -->
<g id="node30" class="node">
<title>Node30</title>
<g id="a_node30"><a xlink:title=" ">
<polygon fill="white" stroke="#bfbfbf" points="801,-179.5 801,-198.5 868,-198.5 868,-179.5 801,-179.5"/>
<text text-anchor="middle" x="834.5" y="-186.5" font-family="Helvetica,sans-Serif" font-size="10.00">fmt/core.h</text>
</a>
</g>
</g>
<!-- Node2&#45;&gt;Node30 -->
<g id="edge34" class="edge">
<title>Node2&#45;&gt;Node30</title>
<path fill="none" stroke="midnightblue" d="M570.3,-239.3C614.8,-231.72 705,-216.08 790.71,-199.31"/>
<polygon fill="midnightblue" stroke="midnightblue" points="791.46,-202.73 800.59,-197.37 790.11,-195.86 791.46,-202.73"/>
</g>
<!-- Node4 -->
<g id="node4" class="node">
<title>Node4</title>
<g id="a_node4"><a xlink:href="include_2log_8h.html" target="_top" xlink:title="Log Utilities.">
<polygon fill="white" stroke="black" points="399,-123.5 399,-142.5 440,-142.5 440,-123.5 399,-123.5"/>
<text text-anchor="middle" x="419.5" y="-130.5" font-family="Helvetica,sans-Serif" font-size="10.00">log.h</text>
</a>
</g>
</g>
<!-- Node3&#45;&gt;Node4 -->
<g id="edge3" class="edge">
<title>Node3&#45;&gt;Node4</title>
<path fill="none" stroke="midnightblue" d="M419.5,-179.08C419.5,-172.01 419.5,-161.86 419.5,-152.99"/>
<polygon fill="midnightblue" stroke="midnightblue" points="423,-152.75 419.5,-142.75 416,-152.75 423,-152.75"/>
</g>
<!-- Node5 -->
<g id="node5" class="node">
<title>Node5</title>
<g id="a_node5"><a xlink:href="meta_8h.html" target="_top" xlink:title="mmCEsim meta data">
<polygon fill="white" stroke="black" points="394,-67.5 394,-86.5 445,-86.5 445,-67.5 394,-67.5"/>
<text text-anchor="middle" x="419.5" y="-74.5" font-family="Helvetica,sans-Serif" font-size="10.00">meta.h</text>
</a>
</g>
</g>
<!-- Node4&#45;&gt;Node5 -->
<g id="edge4" class="edge">
<title>Node4&#45;&gt;Node5</title>
<path fill="none" stroke="midnightblue" d="M419.5,-123.08C419.5,-116.01 419.5,-105.86 419.5,-96.99"/>
<polygon fill="midnightblue" stroke="midnightblue" points="423,-96.75 419.5,-86.75 416,-96.75 423,-96.75"/>
</g>
<!-- Node4&#45;&gt;Node7 -->
<g id="edge6" class="edge">
<title>Node4&#45;&gt;Node7</title>
<path fill="none" stroke="midnightblue" d="M398.9,-128.46C346.17,-119.39 205.87,-95.26 140.25,-83.98"/>
<polygon fill="midnightblue" stroke="midnightblue" points="140.46,-80.46 130.01,-82.21 139.27,-87.36 140.46,-80.46"/>
</g>
<!-- Node4&#45;&gt;Node10 -->
<g id="edge10" class="edge">
<title>Node4&#45;&gt;Node10</title>
<path fill="none" stroke="midnightblue" d="M430.26,-123.32C440.27,-115.26 455.39,-103.08 467.43,-93.37"/>
<polygon fill="midnightblue" stroke="midnightblue" points="469.95,-95.83 475.54,-86.83 465.56,-90.38 469.95,-95.83"/>
</g>
<!-- Node21 -->
<g id="node21" class="node">
<title>Node21</title>
<g id="a_node21"><a xlink:title=" ">
<polygon fill="white" stroke="#bfbfbf" points="186.5,-67.5 186.5,-86.5 230.5,-86.5 230.5,-67.5 186.5,-67.5"/>
<text text-anchor="middle" x="208.5" y="-74.5" font-family="Helvetica,sans-Serif" font-size="10.00">ctime</text>
</a>
</g>
</g>
<!-- Node4&#45;&gt;Node21 -->
<g id="edge22" class="edge">
<title>Node4&#45;&gt;Node21</title>
<path fill="none" stroke="midnightblue" d="M398.92,-127.12C367.05,-119.51 303.63,-104.14 240.53,-87.21"/>
<polygon fill="midnightblue" stroke="midnightblue" points="241.39,-83.81 230.82,-84.59 239.57,-90.57 241.39,-83.81"/>
</g>
<!-- Node4&#45;&gt;Node22 -->
<g id="edge23" class="edge">
<title>Node4&#45;&gt;Node22</title>
<path fill="none" stroke="midnightblue" d="M440.29,-124.15C463.89,-115.24 502.66,-100.6 530.2,-90.2"/>
<polygon fill="midnightblue" stroke="midnightblue" points="531.67,-93.38 539.79,-86.58 529.2,-86.83 531.67,-93.38"/>
</g>
<!-- Node4&#45;&gt;Node23 -->
<g id="edge24" class="edge">
<title>Node4&#45;&gt;Node23</title>
<path fill="none" stroke="midnightblue" d="M440.15,-127.01C472.86,-119.11 538.87,-103.16 604.89,-87.15"/>
<polygon fill="midnightblue" stroke="midnightblue" points="605.73,-90.54 614.62,-84.79 604.08,-83.74 605.73,-90.54"/>
</g>
<!-- Node24 -->
<g id="node24" class="node">
<title>Node24</title>
<g id="a_node24"><a xlink:title=" ">
<polygon fill="white" stroke="#bfbfbf" points="248.5,-67.5 248.5,-86.5 304.5,-86.5 304.5,-67.5 248.5,-67.5"/>
<text text-anchor="middle" x="276.5" y="-74.5" font-family="Helvetica,sans-Serif" font-size="10.00">iomanip</text>
</a>
</g>
</g>
<!-- Node4&#45;&gt;Node24 -->
<g id="edge25" class="edge">
<title>Node4&#45;&gt;Node24</title>
<path fill="none" stroke="midnightblue" d="M398.71,-124.15C375.11,-115.24 336.34,-100.6 308.8,-90.2"/>
<polygon fill="midnightblue" stroke="midnightblue" points="309.8,-86.83 299.21,-86.58 307.33,-93.38 309.8,-86.83"/>
</g>
<!-- Node25 -->
<g id="node25" class="node">
<title>Node25</title>
<g id="a_node25"><a xlink:title=" ">
<polygon fill="white" stroke="#bfbfbf" points="323,-67.5 323,-86.5 376,-86.5 376,-67.5 323,-67.5"/>
<text text-anchor="middle" x="349.5" y="-74.5" font-family="Helvetica,sans-Serif" font-size="10.00">spy.hpp</text>
</a>
</g>
</g>
<!-- Node4&#45;&gt;Node25 -->
<g id="edge26" class="edge">
<title>Node4&#45;&gt;Node25</title>
<path fill="none" stroke="midnightblue" d="M408.25,-123.32C397.7,-115.18 381.7,-102.84 369.06,-93.09"/>
<polygon fill="midnightblue" stroke="midnightblue" points="371.01,-90.17 360.95,-86.83 366.73,-95.71 371.01,-90.17"/>
</g>
<!-- Node5&#45;&gt;Node6 -->
<g id="edge5" class="edge">
<title>Node5&#45;&gt;Node6</title>
<path fill="none" stroke="midnightblue" d="M393.93,-69.23C390.76,-68.45 387.56,-67.69 384.5,-67 302.36,-48.51 278.57,-57.03 198.5,-31 196.83,-30.46 195.13,-29.85 193.43,-29.19"/>
<polygon fill="midnightblue" stroke="midnightblue" points="194.5,-25.84 183.93,-25.1 191.73,-32.27 194.5,-25.84"/>
</g>
<!-- Node7&#45;&gt;Node6 -->
<g id="edge9" class="edge">
<title>Node7&#45;&gt;Node6</title>
<path fill="none" stroke="midnightblue" d="M114.38,-67.48C123.96,-58.28 139.41,-43.46 151.19,-32.16"/>
<polygon fill="midnightblue" stroke="midnightblue" points="153.84,-34.46 158.63,-25.01 148.99,-29.41 153.84,-34.46"/>
</g>
<!-- Node8 -->
<g id="node8" class="node">
<title>Node8</title>
<g id="a_node8"><a xlink:title=" ">
<polygon fill="white" stroke="#bfbfbf" points="0,-6 0,-25 49,-25 49,-6 0,-6"/>
<text text-anchor="middle" x="24.5" y="-13" font-family="Helvetica,sans-Serif" font-size="10.00">cstdlib</text>
</a>
</g>
</g>
<!-- Node7&#45;&gt;Node8 -->
<g id="edge7" class="edge">
<title>Node7&#45;&gt;Node8</title>
<path fill="none" stroke="midnightblue" d="M93.89,-67.48C81.02,-58.02 60.03,-42.6 44.49,-31.19"/>
<polygon fill="midnightblue" stroke="midnightblue" points="46.22,-28.11 36.08,-25.01 42.07,-33.75 46.22,-28.11"/>
</g>
<!-- Node9 -->
<g id="node9" class="node">
<title>Node9</title>
<g id="a_node9"><a xlink:title=" ">
<polygon fill="white" stroke="#bfbfbf" points="67.5,-6 67.5,-25 127.5,-25 127.5,-6 67.5,-6"/>
<text text-anchor="middle" x="97.5" y="-13" font-family="Helvetica,sans-Serif" font-size="10.00">iostream</text>
</a>
</g>
</g>
<!-- Node7&#45;&gt;Node9 -->
<g id="edge8" class="edge">
<title>Node7&#45;&gt;Node9</title>
<path fill="none" stroke="midnightblue" d="M104.35,-67.48C103.23,-59.08 101.46,-45.98 100.01,-35.16"/>
<polygon fill="midnightblue" stroke="midnightblue" points="103.45,-34.45 98.64,-25.01 96.51,-35.39 103.45,-34.45"/>
</g>
<!-- Node10&#45;&gt;Node6 -->
<g id="edge15" class="edge">
<title>Node10&#45;&gt;Node6</title>
<path fill="none" stroke="midnightblue" d="M462.79,-69.15C459.68,-68.36 456.52,-67.62 453.5,-67 341.4,-43.9 308.21,-63.61 198.5,-31 196.62,-30.44 194.71,-29.79 192.81,-29.07"/>
<polygon fill="midnightblue" stroke="midnightblue" points="194.12,-25.82 183.55,-25.11 191.37,-32.26 194.12,-25.82"/>
</g>
<!-- Node11 -->
<g id="node11" class="node">
<title>Node11</title>
<g id="a_node11"><a xlink:title=" ">
<polygon fill="white" stroke="#bfbfbf" points="281.5,-6 281.5,-25 345.5,-25 345.5,-6 281.5,-6"/>
<text text-anchor="middle" x="313.5" y="-13" font-family="Helvetica,sans-Serif" font-size="10.00">algorithm</text>
</a>
</g>
</g>
<!-- Node10&#45;&gt;Node11 -->
<g id="edge11" class="edge">
<title>Node10&#45;&gt;Node11</title>
<path fill="none" stroke="midnightblue" d="M462.63,-67.95C436.17,-59.01 392.24,-44.11 354.5,-31 352.13,-30.18 349.68,-29.32 347.22,-28.46"/>
<polygon fill="midnightblue" stroke="midnightblue" points="348.36,-25.15 337.77,-25.13 346.04,-31.75 348.36,-25.15"/>
</g>
<!-- Node12 -->
<g id="node12" class="node">
<title>Node12</title>
<g id="a_node12"><a xlink:title=" ">
<polygon fill="white" stroke="#bfbfbf" points="364,-6 364,-25 413,-25 413,-6 364,-6"/>
<text text-anchor="middle" x="388.5" y="-13" font-family="Helvetica,sans-Serif" font-size="10.00">cctype</text>
</a>
</g>
</g>
<!-- Node10&#45;&gt;Node12 -->
<g id="edge12" class="edge">
<title>Node10&#45;&gt;Node12</title>
<path fill="none" stroke="midnightblue" d="M472.46,-67.48C456.45,-57.75 430.05,-41.73 411.13,-30.24"/>
<polygon fill="midnightblue" stroke="midnightblue" points="412.88,-27.21 402.51,-25.01 409.25,-33.19 412.88,-27.21"/>
</g>
<!-- Node13 -->
<g id="node13" class="node">
<title>Node13</title>
<g id="a_node13"><a xlink:title=" ">
<polygon fill="white" stroke="#bfbfbf" points="431.5,-6 431.5,-25 485.5,-25 485.5,-6 431.5,-6"/>
<text text-anchor="middle" x="458.5" y="-13" font-family="Helvetica,sans-Serif" font-size="10.00">random</text>
</a>
</g>
</g>
<!-- Node10&#45;&gt;Node13 -->
<g id="edge13" class="edge">
<title>Node10&#45;&gt;Node13</title>
<path fill="none" stroke="midnightblue" d="M482.49,-67.48C478.41,-58.82 471.98,-45.15 466.8,-34.15"/>
<polygon fill="midnightblue" stroke="midnightblue" points="469.93,-32.57 462.5,-25.01 463.6,-35.55 469.93,-32.57"/>
</g>
<!-- Node14 -->
<g id="node14" class="node">
<title>Node14</title>
<g id="a_node14"><a xlink:title=" ">
<polygon fill="white" stroke="#bfbfbf" points="503.5,-6 503.5,-25 559.5,-25 559.5,-6 503.5,-6"/>
<text text-anchor="middle" x="531.5" y="-13" font-family="Helvetica,sans-Serif" font-size="10.00">sstream</text>
</a>
</g>
</g>
<!-- Node10&#45;&gt;Node14 -->
<g id="edge14" class="edge">
<title>Node10&#45;&gt;Node14</title>
<path fill="none" stroke="midnightblue" d="M492.95,-67.48C499.7,-58.55 510.47,-44.31 518.91,-33.14"/>
<polygon fill="midnightblue" stroke="midnightblue" points="521.82,-35.1 525.06,-25.01 516.24,-30.87 521.82,-35.1"/>
</g>
<!-- Node15 -->
<g id="node15" class="node">
<title>Node15</title>
<g id="a_node15"><a xlink:title=" ">
<polygon fill="white" stroke="#bfbfbf" points="578,-6 578,-25 625,-25 625,-6 578,-6"/>
<text text-anchor="middle" x="601.5" y="-13" font-family="Helvetica,sans-Serif" font-size="10.00">vector</text>
</a>
</g>
</g>
<!-- Node10&#45;&gt;Node15 -->
<g id="edge16" class="edge">
<title>Node10&#45;&gt;Node15</title>
<path fill="none" stroke="midnightblue" d="M502.98,-67.48C522.11,-57.58 553.87,-41.14 576.15,-29.62"/>
<polygon fill="midnightblue" stroke="midnightblue" points="577.78,-32.71 585.05,-25.01 574.56,-26.5 577.78,-32.71"/>
</g>
<!-- Node16 -->
<g id="node16" class="node">
<title>Node16</title>
<g id="a_node16"><a xlink:href="__boost__config_8h.html" target="_top" xlink:title="Boost Configurations.">
<polygon fill="white" stroke="black" points="643.5,-6 643.5,-25 735.5,-25 735.5,-6 643.5,-6"/>
<text text-anchor="middle" x="689.5" y="-13" font-family="Helvetica,sans-Serif" font-size="10.00">_boost_config.h</text>
</a>
</g>
</g>
<!-- Node10&#45;&gt;Node16 -->
<g id="edge17" class="edge">
<title>Node10&#45;&gt;Node16</title>
<path fill="none" stroke="midnightblue" d="M510.18,-69.06C544.68,-58.95 609.14,-40.05 650.64,-27.89"/>
<polygon fill="midnightblue" stroke="midnightblue" points="651.8,-31.2 660.41,-25.03 649.83,-24.48 651.8,-31.2"/>
</g>
<!-- Node17 -->
<g id="node17" class="node">
<title>Node17</title>
<g id="a_node17"><a xlink:title=" ">
<polygon fill="white" stroke="#bfbfbf" points="754,-0.5 754,-30.5 895,-30.5 895,-0.5 754,-0.5"/>
<text text-anchor="start" x="762" y="-18.5" font-family="Helvetica,sans-Serif" font-size="10.00">boost/dll/runtime_symbol</text>
<text text-anchor="middle" x="824.5" y="-7.5" font-family="Helvetica,sans-Serif" font-size="10.00">_info.hpp</text>
</a>
</g>
</g>
<!-- Node10&#45;&gt;Node17 -->
<g id="edge18" class="edge">
<title>Node10&#45;&gt;Node17</title>
<path fill="none" stroke="midnightblue" d="M510.22,-69.2C513.33,-68.41 516.48,-67.65 519.5,-67 615.4,-46.31 642.96,-47.91 743.85,-31.08"/>
<polygon fill="midnightblue" stroke="midnightblue" points="744.57,-34.5 753.84,-29.39 743.4,-27.6 744.57,-34.5"/>
</g>
<!-- Node18 -->
<g id="node18" class="node">
<title>Node18</title>
<g id="a_node18"><a xlink:title=" ">
<polygon fill="white" stroke="#bfbfbf" points="913.5,-6 913.5,-25 959.5,-25 959.5,-6 913.5,-6"/>
<text text-anchor="middle" x="936.5" y="-13" font-family="Helvetica,sans-Serif" font-size="10.00">pwd.h</text>
</a>
</g>
</g>
<!-- Node10&#45;&gt;Node18 -->
<g id="edge19" class="edge">
<title>Node10&#45;&gt;Node18</title>
<path fill="none" stroke="midnightblue" d="M510.18,-69.01C513.3,-68.25 516.46,-67.55 519.5,-67 688.59,-36.28 738.39,-75.07 904.5,-31 906.66,-30.43 908.85,-29.72 911.02,-28.94"/>
<polygon fill="midnightblue" stroke="midnightblue" points="912.37,-32.17 920.28,-25.11 909.7,-25.7 912.37,-32.17"/>
</g>
<!-- Node19 -->
<g id="node19" class="node">
<title>Node19</title>
<g id="a_node19"><a xlink:title=" ">
<polygon fill="white" stroke="#bfbfbf" points="977.5,-6 977.5,-25 1049.5,-25 1049.5,-6 977.5,-6"/>
<text text-anchor="middle" x="1013.5" y="-13" font-family="Helvetica,sans-Serif" font-size="10.00">sys/types.h</text>
</a>
</g>
</g>
<!-- Node10&#45;&gt;Node19 -->
<g id="edge20" class="edge">
<title>Node10&#45;&gt;Node19</title>
<path fill="none" stroke="midnightblue" d="M510.17,-68.98C513.29,-68.22 516.46,-67.53 519.5,-67 716.7,-32.51 772.13,-69.96 968.5,-31 972.46,-30.21 976.56,-29.19 980.61,-28.06"/>
<polygon fill="midnightblue" stroke="midnightblue" points="981.87,-31.33 990.42,-25.07 979.83,-24.64 981.87,-31.33"/>
</g>
<!-- Node20 -->
<g id="node20" class="node">
<title>Node20</title>
<g id="a_node20"><a xlink:title=" ">
<polygon fill="white" stroke="#bfbfbf" points="207.5,-6 207.5,-25 263.5,-25 263.5,-6 207.5,-6"/>
<text text-anchor="middle" x="235.5" y="-13" font-family="Helvetica,sans-Serif" font-size="10.00">unistd.h</text>
</a>
</g>
</g>
<!-- Node10&#45;&gt;Node20 -->
<g id="edge21" class="edge">
<title>Node10&#45;&gt;Node20</title>
<path fill="none" stroke="midnightblue" d="M462.76,-69.31C459.65,-68.5 456.51,-67.71 453.5,-67 373.66,-48.2 351.21,-54.05 272.5,-31 270.07,-30.29 267.57,-29.48 265.08,-28.62"/>
<polygon fill="midnightblue" stroke="midnightblue" points="266.22,-25.31 255.63,-25.14 263.8,-31.88 266.22,-25.31"/>
</g>
<!-- Node27 -->
<g id="node27" class="node">
<title>Node27</title>
<g id="a_node27"><a xlink:title=" ">
<polygon fill="white" stroke="#bfbfbf" points="590,-123.5 590,-142.5 689,-142.5 689,-123.5 590,-123.5"/>
<text text-anchor="middle" x="639.5" y="-130.5" font-family="Helvetica,sans-Serif" font-size="10.00">yaml&#45;cpp/yaml.h</text>
</a>
</g>
</g>
<!-- Node26&#45;&gt;Node27 -->
<g id="edge30" class="edge">
<title>Node26&#45;&gt;Node27</title>
<path fill="none" stroke="midnightblue" d="M618.63,-179.08C622.01,-171.77 626.92,-161.18 631.12,-152.1"/>
<polygon fill="midnightblue" stroke="midnightblue" points="634.42,-153.3 635.45,-142.75 628.07,-150.36 634.42,-153.3"/>
</g>
</g>
</svg>
