<?xml version="1.0" encoding="UTF-8" standalone="no"?>
<!DOCTYPE svg PUBLIC "-//W3C//DTD SVG 1.1//EN"
 "http://www.w3.org/Graphics/SVG/1.1/DTD/svg11.dtd">
<!-- Generated by graphviz version 2.43.0 (0)
 -->
<!-- Title: include/config.h Pages: 1 -->
<svg width="694pt" height="151pt"
 viewBox="0.00 0.00 694.00 151.00" xmlns="http://www.w3.org/2000/svg" xmlns:xlink="http://www.w3.org/1999/xlink">
<g id="graph0" class="graph" transform="scale(1 1) rotate(0) translate(4 147)">
<title>include/config.h</title>
<polygon fill="white" stroke="transparent" points="-4,4 -4,-147 690,-147 690,4 -4,4"/>
<!-- Node1 -->
<g id="node1" class="node">
<title>Node1</title>
<g id="a_node1"><a xlink:title="Read and Write User Configuration.">
<polygon fill="#bfbfbf" stroke="black" points="488,-123.5 488,-142.5 581,-142.5 581,-123.5 488,-123.5"/>
<text text-anchor="middle" x="534.5" y="-130.5" font-family="Helvetica,sans-Serif" font-size="10.00">include/config.h</text>
</a>
</g>
</g>
<!-- Node2 -->
<g id="node2" class="node">
<title>Node2</title>
<g id="a_node2"><a xlink:href="utils_8h.html" target="_top" xlink:title="Utilities.">
<polygon fill="white" stroke="black" points="350,-67.5 350,-86.5 397,-86.5 397,-67.5 350,-67.5"/>
<text text-anchor="middle" x="373.5" y="-74.5" font-family="Helvetica,sans-Serif" font-size="10.00">utils.h</text>
</a>
</g>
</g>
<!-- Node1&#45;&gt;Node2 -->
<g id="edge1" class="edge">
<title>Node1&#45;&gt;Node2</title>
<path fill="none" stroke="midnightblue" d="M508.99,-123.44C481.35,-114.17 437.13,-99.34 406.78,-89.16"/>
<polygon fill="midnightblue" stroke="midnightblue" points="407.65,-85.76 397.06,-85.9 405.43,-92.4 407.65,-85.76"/>
</g>
<!-- Node7 -->
<g id="node7" class="node">
<title>Node7</title>
<g id="a_node7"><a xlink:title=" ">
<polygon fill="white" stroke="#bfbfbf" points="455.5,-6 455.5,-25 499.5,-25 499.5,-6 455.5,-6"/>
<text text-anchor="middle" x="477.5" y="-13" font-family="Helvetica,sans-Serif" font-size="10.00">string</text>
</a>
</g>
</g>
<!-- Node1&#45;&gt;Node7 -->
<g id="edge12" class="edge">
<title>Node1&#45;&gt;Node7</title>
<path fill="none" stroke="midnightblue" d="M530.22,-123.32C520.93,-104.51 498.79,-59.65 486.36,-34.46"/>
<polygon fill="midnightblue" stroke="midnightblue" points="489.4,-32.7 481.83,-25.28 483.12,-35.8 489.4,-32.7"/>
</g>
<!-- Node8 -->
<g id="node8" class="node">
<title>Node8</title>
<g id="a_node8"><a xlink:title=" ">
<polygon fill="white" stroke="#bfbfbf" points="518,-6 518,-25 565,-25 565,-6 518,-6"/>
<text text-anchor="middle" x="541.5" y="-13" font-family="Helvetica,sans-Serif" font-size="10.00">vector</text>
</a>
</g>
</g>
<!-- Node1&#45;&gt;Node8 -->
<g id="edge13" class="edge">
<title>Node1&#45;&gt;Node8</title>
<path fill="none" stroke="midnightblue" d="M535.03,-123.32C536.15,-104.76 538.81,-60.84 540.35,-35.47"/>
<polygon fill="midnightblue" stroke="midnightblue" points="543.86,-35.48 540.97,-25.28 536.87,-35.05 543.86,-35.48"/>
</g>
<!-- Node10 -->
<g id="node10" class="node">
<title>Node10</title>
<g id="a_node10"><a xlink:href="yaml_8h.html" target="_top" xlink:title="Wrapper for yaml&#45;cpp for static linking.">
<polygon fill="white" stroke="black" points="562.5,-67.5 562.5,-86.5 612.5,-86.5 612.5,-67.5 562.5,-67.5"/>
<text text-anchor="middle" x="587.5" y="-74.5" font-family="Helvetica,sans-Serif" font-size="10.00">yaml.h</text>
</a>
</g>
</g>
<!-- Node1&#45;&gt;Node10 -->
<g id="edge9" class="edge">
<title>Node1&#45;&gt;Node10</title>
<path fill="none" stroke="midnightblue" d="M543.25,-123.08C550.97,-115.22 562.4,-103.57 571.72,-94.08"/>
<polygon fill="midnightblue" stroke="midnightblue" points="574.4,-96.34 578.91,-86.75 569.41,-91.44 574.4,-96.34"/>
</g>
<!-- Node12 -->
<g id="node12" class="node">
<title>Node12</title>
<g id="a_node12"><a xlink:title=" ">
<polygon fill="white" stroke="#bfbfbf" points="631,-67.5 631,-86.5 686,-86.5 686,-67.5 631,-67.5"/>
<text text-anchor="middle" x="658.5" y="-74.5" font-family="Helvetica,sans-Serif" font-size="10.00">fstream</text>
</a>
</g>
</g>
<!-- Node1&#45;&gt;Node12 -->
<g id="edge11" class="edge">
<title>Node1&#45;&gt;Node12</title>
<path fill="none" stroke="midnightblue" d="M554.15,-123.44C574.46,-114.6 606.4,-100.69 629.6,-90.59"/>
<polygon fill="midnightblue" stroke="midnightblue" points="631.17,-93.72 638.94,-86.52 628.38,-87.3 631.17,-93.72"/>
</g>
<!-- Node3 -->
<g id="node3" class="node">
<title>Node3</title>
<g id="a_node3"><a xlink:title=" ">
<polygon fill="white" stroke="#bfbfbf" points="159.5,-6 159.5,-25 223.5,-25 223.5,-6 159.5,-6"/>
<text text-anchor="middle" x="191.5" y="-13" font-family="Helvetica,sans-Serif" font-size="10.00">algorithm</text>
</a>
</g>
</g>
<!-- Node2&#45;&gt;Node3 -->
<g id="edge2" class="edge">
<title>Node2&#45;&gt;Node3</title>
<path fill="none" stroke="midnightblue" d="M349.98,-68.74C321.92,-60.02 273.66,-44.84 232.5,-31 230.06,-30.18 227.54,-29.32 225.01,-28.44"/>
<polygon fill="midnightblue" stroke="midnightblue" points="225.9,-25.05 215.3,-25.06 223.59,-31.66 225.9,-25.05"/>
</g>
<!-- Node4 -->
<g id="node4" class="node">
<title>Node4</title>
<g id="a_node4"><a xlink:title=" ">
<polygon fill="white" stroke="#bfbfbf" points="242,-6 242,-25 291,-25 291,-6 242,-6"/>
<text text-anchor="middle" x="266.5" y="-13" font-family="Helvetica,sans-Serif" font-size="10.00">cctype</text>
</a>
</g>
</g>
<!-- Node2&#45;&gt;Node4 -->
<g id="edge3" class="edge">
<title>Node2&#45;&gt;Node4</title>
<path fill="none" stroke="midnightblue" d="M358.17,-67.48C340.53,-57.67 311.34,-41.43 290.64,-29.92"/>
<polygon fill="midnightblue" stroke="midnightblue" points="292.24,-26.81 281.8,-25.01 288.84,-32.93 292.24,-26.81"/>
</g>
<!-- Node5 -->
<g id="node5" class="node">
<title>Node5</title>
<g id="a_node5"><a xlink:title=" ">
<polygon fill="white" stroke="#bfbfbf" points="309.5,-6 309.5,-25 363.5,-25 363.5,-6 309.5,-6"/>
<text text-anchor="middle" x="336.5" y="-13" font-family="Helvetica,sans-Serif" font-size="10.00">random</text>
</a>
</g>
</g>
<!-- Node2&#45;&gt;Node5 -->
<g id="edge4" class="edge">
<title>Node2&#45;&gt;Node5</title>
<path fill="none" stroke="midnightblue" d="M368.2,-67.48C362.76,-58.73 354.14,-44.87 347.26,-33.81"/>
<polygon fill="midnightblue" stroke="midnightblue" points="350.04,-31.65 341.79,-25.01 344.1,-35.35 350.04,-31.65"/>
</g>
<!-- Node6 -->
<g id="node6" class="node">
<title>Node6</title>
<g id="a_node6"><a xlink:title=" ">
<polygon fill="white" stroke="#bfbfbf" points="381.5,-6 381.5,-25 437.5,-25 437.5,-6 381.5,-6"/>
<text text-anchor="middle" x="409.5" y="-13" font-family="Helvetica,sans-Serif" font-size="10.00">sstream</text>
</a>
</g>
</g>
<!-- Node2&#45;&gt;Node6 -->
<g id="edge5" class="edge">
<title>Node2&#45;&gt;Node6</title>
<path fill="none" stroke="midnightblue" d="M378.66,-67.48C383.95,-58.73 392.34,-44.87 399.03,-33.81"/>
<polygon fill="midnightblue" stroke="midnightblue" points="402.17,-35.38 404.35,-25.01 396.18,-31.75 402.17,-35.38"/>
</g>
<!-- Node2&#45;&gt;Node7 -->
<g id="edge6" class="edge">
<title>Node2&#45;&gt;Node7</title>
<path fill="none" stroke="midnightblue" d="M388.4,-67.48C405.47,-57.71 433.66,-41.58 453.76,-30.08"/>
<polygon fill="midnightblue" stroke="midnightblue" points="455.69,-33.01 462.63,-25.01 452.21,-26.94 455.69,-33.01"/>
</g>
<!-- Node2&#45;&gt;Node8 -->
<g id="edge7" class="edge">
<title>Node2&#45;&gt;Node8</title>
<path fill="none" stroke="midnightblue" d="M397.15,-68.85C424.28,-60.47 470,-45.84 508.5,-31 510.11,-30.38 511.75,-29.73 513.4,-29.05"/>
<polygon fill="midnightblue" stroke="midnightblue" points="514.93,-32.21 522.78,-25.08 512.2,-25.76 514.93,-32.21"/>
</g>
<!-- Node9 -->
<g id="node9" class="node">
<title>Node9</title>
<g id="a_node9"><a xlink:title=" ">
<polygon fill="white" stroke="#bfbfbf" points="0,-0.5 0,-30.5 141,-30.5 141,-0.5 0,-0.5"/>
<text text-anchor="start" x="8" y="-18.5" font-family="Helvetica,sans-Serif" font-size="10.00">boost/dll/runtime_symbol</text>
<text text-anchor="middle" x="70.5" y="-7.5" font-family="Helvetica,sans-Serif" font-size="10.00">_info.hpp</text>
</a>
</g>
</g>
<!-- Node2&#45;&gt;Node9 -->
<g id="edge8" class="edge">
<title>Node2&#45;&gt;Node9</title>
<path fill="none" stroke="midnightblue" d="M349.72,-71.33C307.53,-63.04 217.74,-45.41 151.31,-32.37"/>
<polygon fill="midnightblue" stroke="midnightblue" points="151.76,-28.89 141.28,-30.4 150.42,-35.76 151.76,-28.89"/>
</g>
<!-- Node11 -->
<g id="node11" class="node">
<title>Node11</title>
<g id="a_node11"><a xlink:title=" ">
<polygon fill="white" stroke="#bfbfbf" points="583,-6 583,-25 682,-25 682,-6 583,-6"/>
<text text-anchor="middle" x="632.5" y="-13" font-family="Helvetica,sans-Serif" font-size="10.00">yaml&#45;cpp/yaml.h</text>
</a>
</g>
</g>
<!-- Node10&#45;&gt;Node11 -->
<g id="edge10" class="edge">
<title>Node10&#45;&gt;Node11</title>
<path fill="none" stroke="midnightblue" d="M593.95,-67.48C600.7,-58.55 611.47,-44.31 619.91,-33.14"/>
<polygon fill="midnightblue" stroke="midnightblue" points="622.82,-35.1 626.06,-25.01 617.24,-30.87 622.82,-35.1"/>
</g>
</g>
</svg>
