<?xml version="1.0" encoding="UTF-8" standalone="no"?>
<!DOCTYPE svg PUBLIC "-//W3C//DTD SVG 1.1//EN"
 "http://www.w3.org/Graphics/SVG/1.1/DTD/svg11.dtd">
<!-- Generated by graphviz version 2.43.0 (0)
 -->
<!-- Title: include/config.h Pages: 1 -->
<svg width="1029pt" height="151pt"
 viewBox="0.00 0.00 1028.50 151.00" xmlns="http://www.w3.org/2000/svg" xmlns:xlink="http://www.w3.org/1999/xlink">
<g id="graph0" class="graph" transform="scale(1 1) rotate(0) translate(4 147)">
<title>include/config.h</title>
<polygon fill="white" stroke="transparent" points="-4,4 -4,-147 1024.5,-147 1024.5,4 -4,4"/>
<!-- Node1 -->
<g id="node1" class="node">
<title>Node1</title>
<g id="a_node1"><a xlink:title="Read and Write User Configuration.">
<polygon fill="#bfbfbf" stroke="black" points="688.5,-123.5 688.5,-142.5 781.5,-142.5 781.5,-123.5 688.5,-123.5"/>
<text text-anchor="middle" x="735" y="-130.5" font-family="Helvetica,sans-Serif" font-size="10.00">include/config.h</text>
</a>
</g>
</g>
<!-- Node2 -->
<g id="node2" class="node">
<title>Node2</title>
<g id="a_node2"><a xlink:href="utils_8h.html" target="_top" xlink:title="Utilities.">
<polygon fill="white" stroke="black" points="447.5,-67.5 447.5,-86.5 494.5,-86.5 494.5,-67.5 447.5,-67.5"/>
<text text-anchor="middle" x="471" y="-74.5" font-family="Helvetica,sans-Serif" font-size="10.00">utils.h</text>
</a>
</g>
</g>
<!-- Node1&#45;&gt;Node2 -->
<g id="edge1" class="edge">
<title>Node1&#45;&gt;Node2</title>
<path fill="none" stroke="midnightblue" d="M693.17,-123.44C640.88,-112.75 552.44,-94.66 504.43,-84.84"/>
<polygon fill="midnightblue" stroke="midnightblue" points="505.04,-81.39 494.55,-82.82 503.64,-88.25 505.04,-81.39"/>
</g>
<!-- Node7 -->
<g id="node7" class="node">
<title>Node7</title>
<g id="a_node7"><a xlink:title=" ">
<polygon fill="white" stroke="#bfbfbf" points="0,-6 0,-25 44,-25 44,-6 0,-6"/>
<text text-anchor="middle" x="22" y="-13" font-family="Helvetica,sans-Serif" font-size="10.00">string</text>
</a>
</g>
</g>
<!-- Node1&#45;&gt;Node7 -->
<g id="edge16" class="edge">
<title>Node1&#45;&gt;Node7</title>
<path fill="none" stroke="midnightblue" d="M688.09,-129.74C576.02,-123.33 284.82,-100.75 53,-31 51.12,-30.44 49.21,-29.77 47.31,-29.05"/>
<polygon fill="midnightblue" stroke="midnightblue" points="48.63,-25.81 38.06,-25.09 45.88,-32.25 48.63,-25.81"/>
</g>
<!-- Node8 -->
<g id="node8" class="node">
<title>Node8</title>
<g id="a_node8"><a xlink:title=" ">
<polygon fill="white" stroke="#bfbfbf" points="856.5,-6 856.5,-25 903.5,-25 903.5,-6 856.5,-6"/>
<text text-anchor="middle" x="880" y="-13" font-family="Helvetica,sans-Serif" font-size="10.00">vector</text>
</a>
</g>
</g>
<!-- Node1&#45;&gt;Node8 -->
<g id="edge17" class="edge">
<title>Node1&#45;&gt;Node8</title>
<path fill="none" stroke="midnightblue" d="M735.19,-123.25C735.95,-109.54 739.37,-82.93 754,-67 783.98,-34.36 806.03,-47.92 847,-31 848.41,-30.42 849.85,-29.81 851.3,-29.2"/>
<polygon fill="midnightblue" stroke="midnightblue" points="853.07,-32.25 860.87,-25.08 850.3,-25.82 853.07,-32.25"/>
</g>
<!-- Node14 -->
<g id="node14" class="node">
<title>Node14</title>
<g id="a_node14"><a xlink:href="yaml_8h.html" target="_top" xlink:title="Wrapper for yaml&#45;cpp for static linking.">
<polygon fill="white" stroke="black" points="763,-67.5 763,-86.5 813,-86.5 813,-67.5 763,-67.5"/>
<text text-anchor="middle" x="788" y="-74.5" font-family="Helvetica,sans-Serif" font-size="10.00">yaml.h</text>
</a>
</g>
</g>
<!-- Node1&#45;&gt;Node14 -->
<g id="edge13" class="edge">
<title>Node1&#45;&gt;Node14</title>
<path fill="none" stroke="midnightblue" d="M743.75,-123.08C751.47,-115.22 762.9,-103.57 772.22,-94.08"/>
<polygon fill="midnightblue" stroke="midnightblue" points="774.9,-96.34 779.41,-86.75 769.91,-91.44 774.9,-96.34"/>
</g>
<!-- Node16 -->
<g id="node16" class="node">
<title>Node16</title>
<g id="a_node16"><a xlink:title=" ">
<polygon fill="white" stroke="#bfbfbf" points="831.5,-67.5 831.5,-86.5 886.5,-86.5 886.5,-67.5 831.5,-67.5"/>
<text text-anchor="middle" x="859" y="-74.5" font-family="Helvetica,sans-Serif" font-size="10.00">fstream</text>
</a>
</g>
</g>
<!-- Node1&#45;&gt;Node16 -->
<g id="edge15" class="edge">
<title>Node1&#45;&gt;Node16</title>
<path fill="none" stroke="midnightblue" d="M754.65,-123.44C774.96,-114.6 806.9,-100.69 830.1,-90.59"/>
<polygon fill="midnightblue" stroke="midnightblue" points="831.67,-93.72 839.44,-86.52 828.88,-87.3 831.67,-93.72"/>
</g>
<!-- Node3 -->
<g id="node3" class="node">
<title>Node3</title>
<g id="a_node3"><a xlink:title=" ">
<polygon fill="white" stroke="#bfbfbf" points="62,-6 62,-25 126,-25 126,-6 62,-6"/>
<text text-anchor="middle" x="94" y="-13" font-family="Helvetica,sans-Serif" font-size="10.00">algorithm</text>
</a>
</g>
</g>
<!-- Node2&#45;&gt;Node3 -->
<g id="edge2" class="edge">
<title>Node2&#45;&gt;Node3</title>
<path fill="none" stroke="midnightblue" d="M447.47,-74.53C392.25,-70.71 250.29,-58.79 135,-31 131.77,-30.22 128.44,-29.28 125.14,-28.26"/>
<polygon fill="midnightblue" stroke="midnightblue" points="126.05,-24.87 115.45,-25.03 123.83,-31.51 126.05,-24.87"/>
</g>
<!-- Node4 -->
<g id="node4" class="node">
<title>Node4</title>
<g id="a_node4"><a xlink:title=" ">
<polygon fill="white" stroke="#bfbfbf" points="144.5,-6 144.5,-25 193.5,-25 193.5,-6 144.5,-6"/>
<text text-anchor="middle" x="169" y="-13" font-family="Helvetica,sans-Serif" font-size="10.00">cctype</text>
</a>
</g>
</g>
<!-- Node2&#45;&gt;Node4 -->
<g id="edge3" class="edge">
<title>Node2&#45;&gt;Node4</title>
<path fill="none" stroke="midnightblue" d="M447.28,-73.92C400.02,-69.36 291.07,-56.78 203,-31 200.85,-30.37 198.65,-29.64 196.46,-28.85"/>
<polygon fill="midnightblue" stroke="midnightblue" points="197.65,-25.56 187.06,-25.14 195.07,-32.07 197.65,-25.56"/>
</g>
<!-- Node5 -->
<g id="node5" class="node">
<title>Node5</title>
<g id="a_node5"><a xlink:title=" ">
<polygon fill="white" stroke="#bfbfbf" points="212,-6 212,-25 266,-25 266,-6 212,-6"/>
<text text-anchor="middle" x="239" y="-13" font-family="Helvetica,sans-Serif" font-size="10.00">random</text>
</a>
</g>
</g>
<!-- Node2&#45;&gt;Node5 -->
<g id="edge4" class="edge">
<title>Node2&#45;&gt;Node5</title>
<path fill="none" stroke="midnightblue" d="M447.45,-71.84C410.32,-64.99 336.12,-50.2 275,-31 272.72,-30.28 270.38,-29.49 268.05,-28.65"/>
<polygon fill="midnightblue" stroke="midnightblue" points="269.19,-25.34 258.6,-25.04 266.7,-31.88 269.19,-25.34"/>
</g>
<!-- Node6 -->
<g id="node6" class="node">
<title>Node6</title>
<g id="a_node6"><a xlink:title=" ">
<polygon fill="white" stroke="#bfbfbf" points="284,-6 284,-25 340,-25 340,-6 284,-6"/>
<text text-anchor="middle" x="312" y="-13" font-family="Helvetica,sans-Serif" font-size="10.00">sstream</text>
</a>
</g>
</g>
<!-- Node2&#45;&gt;Node6 -->
<g id="edge5" class="edge">
<title>Node2&#45;&gt;Node6</title>
<path fill="none" stroke="midnightblue" d="M447.1,-67.35C422.47,-58.39 382.97,-43.92 349,-31 347.11,-30.28 345.18,-29.54 343.22,-28.79"/>
<polygon fill="midnightblue" stroke="midnightblue" points="344.08,-25.37 333.49,-25.01 341.55,-31.89 344.08,-25.37"/>
</g>
<!-- Node2&#45;&gt;Node7 -->
<g id="edge6" class="edge">
<title>Node2&#45;&gt;Node7</title>
<path fill="none" stroke="midnightblue" d="M447.28,-74.48C370.34,-69.38 128.31,-52.03 53,-31 51.07,-30.46 49.11,-29.81 47.16,-29.09"/>
<polygon fill="midnightblue" stroke="midnightblue" points="48.28,-25.76 37.7,-25.07 45.54,-32.2 48.28,-25.76"/>
</g>
<!-- Node2&#45;&gt;Node8 -->
<g id="edge7" class="edge">
<title>Node2&#45;&gt;Node8</title>
<path fill="none" stroke="midnightblue" d="M494.78,-75.57C554.88,-73.96 717.3,-66.41 847,-31 849.29,-30.37 851.63,-29.61 853.95,-28.78"/>
<polygon fill="midnightblue" stroke="midnightblue" points="855.27,-32.02 863.22,-25.01 852.64,-25.53 855.27,-32.02"/>
</g>
<!-- Node9 -->
<g id="node9" class="node">
<title>Node9</title>
<g id="a_node9"><a xlink:href="__boost__config_8h.html" target="_top" xlink:title="Boost Configurations.">
<polygon fill="white" stroke="black" points="358,-6 358,-25 450,-25 450,-6 358,-6"/>
<text text-anchor="middle" x="404" y="-13" font-family="Helvetica,sans-Serif" font-size="10.00">_boost_config.h</text>
</a>
</g>
</g>
<!-- Node2&#45;&gt;Node9 -->
<g id="edge8" class="edge">
<title>Node2&#45;&gt;Node9</title>
<path fill="none" stroke="midnightblue" d="M461.4,-67.48C450.95,-58.2 434.03,-43.17 421.26,-31.83"/>
<polygon fill="midnightblue" stroke="midnightblue" points="423.38,-29.03 413.58,-25.01 418.73,-34.27 423.38,-29.03"/>
</g>
<!-- Node10 -->
<g id="node10" class="node">
<title>Node10</title>
<g id="a_node10"><a xlink:title=" ">
<polygon fill="white" stroke="#bfbfbf" points="468.5,-0.5 468.5,-30.5 609.5,-30.5 609.5,-0.5 468.5,-0.5"/>
<text text-anchor="start" x="476.5" y="-18.5" font-family="Helvetica,sans-Serif" font-size="10.00">boost/dll/runtime_symbol</text>
<text text-anchor="middle" x="539" y="-7.5" font-family="Helvetica,sans-Serif" font-size="10.00">_info.hpp</text>
</a>
</g>
</g>
<!-- Node2&#45;&gt;Node10 -->
<g id="edge9" class="edge">
<title>Node2&#45;&gt;Node10</title>
<path fill="none" stroke="midnightblue" d="M480.74,-67.48C489.69,-59.64 503.33,-47.71 515.15,-37.37"/>
<polygon fill="midnightblue" stroke="midnightblue" points="517.75,-39.74 522.97,-30.52 513.14,-34.47 517.75,-39.74"/>
</g>
<!-- Node11 -->
<g id="node11" class="node">
<title>Node11</title>
<g id="a_node11"><a xlink:title=" ">
<polygon fill="white" stroke="#bfbfbf" points="628,-6 628,-25 674,-25 674,-6 628,-6"/>
<text text-anchor="middle" x="651" y="-13" font-family="Helvetica,sans-Serif" font-size="10.00">pwd.h</text>
</a>
</g>
</g>
<!-- Node2&#45;&gt;Node11 -->
<g id="edge10" class="edge">
<title>Node2&#45;&gt;Node11</title>
<path fill="none" stroke="midnightblue" d="M494.71,-69.67C524,-61.63 575.21,-46.89 618,-31 619.65,-30.39 621.34,-29.73 623.04,-29.05"/>
<polygon fill="midnightblue" stroke="midnightblue" points="624.79,-32.11 632.66,-25.01 622.08,-25.66 624.79,-32.11"/>
</g>
<!-- Node12 -->
<g id="node12" class="node">
<title>Node12</title>
<g id="a_node12"><a xlink:title=" ">
<polygon fill="white" stroke="#bfbfbf" points="692,-6 692,-25 764,-25 764,-6 692,-6"/>
<text text-anchor="middle" x="728" y="-13" font-family="Helvetica,sans-Serif" font-size="10.00">sys/types.h</text>
</a>
</g>
</g>
<!-- Node2&#45;&gt;Node12 -->
<g id="edge11" class="edge">
<title>Node2&#45;&gt;Node12</title>
<path fill="none" stroke="midnightblue" d="M494.72,-71.79C534.11,-64.61 615.38,-49.02 683,-31 686.35,-30.11 689.83,-29.11 693.29,-28.08"/>
<polygon fill="midnightblue" stroke="midnightblue" points="694.4,-31.4 702.91,-25.09 692.32,-24.71 694.4,-31.4"/>
</g>
<!-- Node13 -->
<g id="node13" class="node">
<title>Node13</title>
<g id="a_node13"><a xlink:title=" ">
<polygon fill="white" stroke="#bfbfbf" points="782,-6 782,-25 838,-25 838,-6 782,-6"/>
<text text-anchor="middle" x="810" y="-13" font-family="Helvetica,sans-Serif" font-size="10.00">unistd.h</text>
</a>
</g>
</g>
<!-- Node2&#45;&gt;Node13 -->
<g id="edge12" class="edge">
<title>Node2&#45;&gt;Node13</title>
<path fill="none" stroke="midnightblue" d="M494.86,-74.28C546.39,-70.18 671.59,-58.05 773,-31 775.66,-30.29 778.39,-29.45 781.1,-28.54"/>
<polygon fill="midnightblue" stroke="midnightblue" points="782.51,-31.75 790.69,-25.02 780.1,-25.18 782.51,-31.75"/>
</g>
<!-- Node15 -->
<g id="node15" class="node">
<title>Node15</title>
<g id="a_node15"><a xlink:title=" ">
<polygon fill="white" stroke="#bfbfbf" points="921.5,-6 921.5,-25 1020.5,-25 1020.5,-6 921.5,-6"/>
<text text-anchor="middle" x="971" y="-13" font-family="Helvetica,sans-Serif" font-size="10.00">yaml&#45;cpp/yaml.h</text>
</a>
</g>
</g>
<!-- Node14&#45;&gt;Node15 -->
<g id="edge14" class="edge">
<title>Node14&#45;&gt;Node15</title>
<path fill="none" stroke="midnightblue" d="M813.06,-67.85C844.65,-57.58 899.15,-39.86 935.14,-28.16"/>
<polygon fill="midnightblue" stroke="midnightblue" points="936.34,-31.45 944.76,-25.03 934.17,-24.79 936.34,-31.45"/>
</g>
</g>
</svg>
