<?xml version="1.0" encoding="UTF-8" standalone="no"?>
<!DOCTYPE svg PUBLIC "-//W3C//DTD SVG 1.1//EN"
 "http://www.w3.org/Graphics/SVG/1.1/DTD/svg11.dtd">
<!-- Generated by graphviz version 2.43.0 (0)
 -->
<!-- Title: include/config.h Pages: 1 -->
<svg width="919pt" height="151pt"
 viewBox="0.00 0.00 918.50 151.00" xmlns="http://www.w3.org/2000/svg" xmlns:xlink="http://www.w3.org/1999/xlink">
<g id="graph0" class="graph" transform="scale(1 1) rotate(0) translate(4 147)">
<title>include/config.h</title>
<polygon fill="white" stroke="transparent" points="-4,4 -4,-147 914.5,-147 914.5,4 -4,4"/>
<!-- Node1 -->
<g id="node1" class="node">
<title>Node1</title>
<g id="a_node1"><a xlink:title="Read and Write User Configuration.">
<polygon fill="#bfbfbf" stroke="black" points="578.5,-123.5 578.5,-142.5 671.5,-142.5 671.5,-123.5 578.5,-123.5"/>
<text text-anchor="middle" x="625" y="-130.5" font-family="Helvetica,sans-Serif" font-size="10.00">include/config.h</text>
</a>
</g>
</g>
<!-- Node2 -->
<g id="node2" class="node">
<title>Node2</title>
<g id="a_node2"><a xlink:href="utils_8h.html" target="_top" xlink:title="Utilities.">
<polygon fill="white" stroke="black" points="405.5,-67.5 405.5,-86.5 452.5,-86.5 452.5,-67.5 405.5,-67.5"/>
<text text-anchor="middle" x="429" y="-74.5" font-family="Helvetica,sans-Serif" font-size="10.00">utils.h</text>
</a>
</g>
</g>
<!-- Node1&#45;&gt;Node2 -->
<g id="edge1" class="edge">
<title>Node1&#45;&gt;Node2</title>
<path fill="none" stroke="midnightblue" d="M593.94,-123.44C558.03,-113.55 499.14,-97.32 462.3,-87.17"/>
<polygon fill="midnightblue" stroke="midnightblue" points="463.1,-83.76 452.53,-84.48 461.24,-90.51 463.1,-83.76"/>
</g>
<!-- Node7 -->
<g id="node7" class="node">
<title>Node7</title>
<g id="a_node7"><a xlink:title=" ">
<polygon fill="white" stroke="#bfbfbf" points="0,-6 0,-25 44,-25 44,-6 0,-6"/>
<text text-anchor="middle" x="22" y="-13" font-family="Helvetica,sans-Serif" font-size="10.00">string</text>
</a>
</g>
</g>
<!-- Node1&#45;&gt;Node7 -->
<g id="edge15" class="edge">
<title>Node1&#45;&gt;Node7</title>
<path fill="none" stroke="midnightblue" d="M578.42,-127.96C479.64,-118.48 242.66,-90.95 53,-31 51.13,-30.41 49.23,-29.73 47.33,-28.99"/>
<polygon fill="midnightblue" stroke="midnightblue" points="48.66,-25.75 38.09,-25 45.88,-32.18 48.66,-25.75"/>
</g>
<!-- Node8 -->
<g id="node8" class="node">
<title>Node8</title>
<g id="a_node8"><a xlink:title=" ">
<polygon fill="white" stroke="#bfbfbf" points="746.5,-6 746.5,-25 793.5,-25 793.5,-6 746.5,-6"/>
<text text-anchor="middle" x="770" y="-13" font-family="Helvetica,sans-Serif" font-size="10.00">vector</text>
</a>
</g>
</g>
<!-- Node1&#45;&gt;Node8 -->
<g id="edge16" class="edge">
<title>Node1&#45;&gt;Node8</title>
<path fill="none" stroke="midnightblue" d="M625.19,-123.25C625.95,-109.54 629.37,-82.93 644,-67 673.98,-34.36 696.03,-47.92 737,-31 738.41,-30.42 739.85,-29.81 741.3,-29.2"/>
<polygon fill="midnightblue" stroke="midnightblue" points="743.07,-32.25 750.87,-25.08 740.3,-25.82 743.07,-32.25"/>
</g>
<!-- Node13 -->
<g id="node13" class="node">
<title>Node13</title>
<g id="a_node13"><a xlink:href="yaml_8h.html" target="_top" xlink:title="Wrapper for yaml&#45;cpp for static linking.">
<polygon fill="white" stroke="black" points="653,-67.5 653,-86.5 703,-86.5 703,-67.5 653,-67.5"/>
<text text-anchor="middle" x="678" y="-74.5" font-family="Helvetica,sans-Serif" font-size="10.00">yaml.h</text>
</a>
</g>
</g>
<!-- Node1&#45;&gt;Node13 -->
<g id="edge12" class="edge">
<title>Node1&#45;&gt;Node13</title>
<path fill="none" stroke="midnightblue" d="M633.75,-123.08C641.47,-115.22 652.9,-103.57 662.22,-94.08"/>
<polygon fill="midnightblue" stroke="midnightblue" points="664.9,-96.34 669.41,-86.75 659.91,-91.44 664.9,-96.34"/>
</g>
<!-- Node15 -->
<g id="node15" class="node">
<title>Node15</title>
<g id="a_node15"><a xlink:title=" ">
<polygon fill="white" stroke="#bfbfbf" points="721.5,-67.5 721.5,-86.5 776.5,-86.5 776.5,-67.5 721.5,-67.5"/>
<text text-anchor="middle" x="749" y="-74.5" font-family="Helvetica,sans-Serif" font-size="10.00">fstream</text>
</a>
</g>
</g>
<!-- Node1&#45;&gt;Node15 -->
<g id="edge14" class="edge">
<title>Node1&#45;&gt;Node15</title>
<path fill="none" stroke="midnightblue" d="M644.65,-123.44C664.96,-114.6 696.9,-100.69 720.1,-90.59"/>
<polygon fill="midnightblue" stroke="midnightblue" points="721.67,-93.72 729.44,-86.52 718.88,-87.3 721.67,-93.72"/>
</g>
<!-- Node3 -->
<g id="node3" class="node">
<title>Node3</title>
<g id="a_node3"><a xlink:title=" ">
<polygon fill="white" stroke="#bfbfbf" points="62,-6 62,-25 126,-25 126,-6 62,-6"/>
<text text-anchor="middle" x="94" y="-13" font-family="Helvetica,sans-Serif" font-size="10.00">algorithm</text>
</a>
</g>
</g>
<!-- Node2&#45;&gt;Node3 -->
<g id="edge2" class="edge">
<title>Node2&#45;&gt;Node3</title>
<path fill="none" stroke="midnightblue" d="M405.45,-73.91C355.19,-69.13 233.91,-55.83 135,-31 131.95,-30.23 128.81,-29.33 125.68,-28.36"/>
<polygon fill="midnightblue" stroke="midnightblue" points="126.49,-24.94 115.9,-25.1 124.27,-31.58 126.49,-24.94"/>
</g>
<!-- Node4 -->
<g id="node4" class="node">
<title>Node4</title>
<g id="a_node4"><a xlink:title=" ">
<polygon fill="white" stroke="#bfbfbf" points="144.5,-6 144.5,-25 193.5,-25 193.5,-6 144.5,-6"/>
<text text-anchor="middle" x="169" y="-13" font-family="Helvetica,sans-Serif" font-size="10.00">cctype</text>
</a>
</g>
</g>
<!-- Node2&#45;&gt;Node4 -->
<g id="edge3" class="edge">
<title>Node2&#45;&gt;Node4</title>
<path fill="none" stroke="midnightblue" d="M405.18,-72.91C363.53,-67.14 275.05,-53.27 203,-31 200.86,-30.34 198.67,-29.59 196.48,-28.78"/>
<polygon fill="midnightblue" stroke="midnightblue" points="197.68,-25.49 187.09,-25.03 195.08,-31.99 197.68,-25.49"/>
</g>
<!-- Node5 -->
<g id="node5" class="node">
<title>Node5</title>
<g id="a_node5"><a xlink:title=" ">
<polygon fill="white" stroke="#bfbfbf" points="212,-6 212,-25 266,-25 266,-6 212,-6"/>
<text text-anchor="middle" x="239" y="-13" font-family="Helvetica,sans-Serif" font-size="10.00">random</text>
</a>
</g>
</g>
<!-- Node2&#45;&gt;Node5 -->
<g id="edge4" class="edge">
<title>Node2&#45;&gt;Node5</title>
<path fill="none" stroke="midnightblue" d="M405.29,-69.85C374.85,-61.78 320.53,-46.78 275,-31 273.09,-30.34 271.13,-29.63 269.17,-28.9"/>
<polygon fill="midnightblue" stroke="midnightblue" points="270.02,-25.48 259.43,-25.13 267.49,-32.01 270.02,-25.48"/>
</g>
<!-- Node6 -->
<g id="node6" class="node">
<title>Node6</title>
<g id="a_node6"><a xlink:title=" ">
<polygon fill="white" stroke="#bfbfbf" points="284,-6 284,-25 340,-25 340,-6 284,-6"/>
<text text-anchor="middle" x="312" y="-13" font-family="Helvetica,sans-Serif" font-size="10.00">sstream</text>
</a>
</g>
</g>
<!-- Node2&#45;&gt;Node6 -->
<g id="edge5" class="edge">
<title>Node2&#45;&gt;Node6</title>
<path fill="none" stroke="midnightblue" d="M412.24,-67.48C392.78,-57.58 360.45,-41.14 337.79,-29.62"/>
<polygon fill="midnightblue" stroke="midnightblue" points="339.23,-26.42 328.73,-25.01 336.06,-32.66 339.23,-26.42"/>
</g>
<!-- Node2&#45;&gt;Node7 -->
<g id="edge6" class="edge">
<title>Node2&#45;&gt;Node7</title>
<path fill="none" stroke="midnightblue" d="M405.17,-75.75C344.95,-74.58 182.27,-67.94 53,-31 51.07,-30.45 49.11,-29.79 47.17,-29.06"/>
<polygon fill="midnightblue" stroke="midnightblue" points="48.29,-25.74 37.71,-25.03 45.54,-32.18 48.29,-25.74"/>
</g>
<!-- Node2&#45;&gt;Node8 -->
<g id="edge7" class="edge">
<title>Node2&#45;&gt;Node8</title>
<path fill="none" stroke="midnightblue" d="M452.64,-74.71C504.86,-71.4 633.63,-60.67 737,-31 739.15,-30.38 741.34,-29.66 743.53,-28.86"/>
<polygon fill="midnightblue" stroke="midnightblue" points="744.91,-32.08 752.86,-25.07 742.27,-25.59 744.91,-32.08"/>
</g>
<!-- Node9 -->
<g id="node9" class="node">
<title>Node9</title>
<g id="a_node9"><a xlink:title=" ">
<polygon fill="white" stroke="#bfbfbf" points="358.5,-0.5 358.5,-30.5 499.5,-30.5 499.5,-0.5 358.5,-0.5"/>
<text text-anchor="start" x="366.5" y="-18.5" font-family="Helvetica,sans-Serif" font-size="10.00">boost/dll/runtime_symbol</text>
<text text-anchor="middle" x="429" y="-7.5" font-family="Helvetica,sans-Serif" font-size="10.00">_info.hpp</text>
</a>
</g>
</g>
<!-- Node2&#45;&gt;Node9 -->
<g id="edge8" class="edge">
<title>Node2&#45;&gt;Node9</title>
<path fill="none" stroke="midnightblue" d="M429,-67.48C429,-60.47 429,-50.19 429,-40.7"/>
<polygon fill="midnightblue" stroke="midnightblue" points="432.5,-40.52 429,-30.52 425.5,-40.52 432.5,-40.52"/>
</g>
<!-- Node10 -->
<g id="node10" class="node">
<title>Node10</title>
<g id="a_node10"><a xlink:title=" ">
<polygon fill="white" stroke="#bfbfbf" points="518,-6 518,-25 564,-25 564,-6 518,-6"/>
<text text-anchor="middle" x="541" y="-13" font-family="Helvetica,sans-Serif" font-size="10.00">pwd.h</text>
</a>
</g>
</g>
<!-- Node2&#45;&gt;Node10 -->
<g id="edge9" class="edge">
<title>Node2&#45;&gt;Node10</title>
<path fill="none" stroke="midnightblue" d="M445.05,-67.48C463.59,-57.62 494.34,-41.29 516.02,-29.77"/>
<polygon fill="midnightblue" stroke="midnightblue" points="517.79,-32.79 524.98,-25.01 514.51,-26.61 517.79,-32.79"/>
</g>
<!-- Node11 -->
<g id="node11" class="node">
<title>Node11</title>
<g id="a_node11"><a xlink:title=" ">
<polygon fill="white" stroke="#bfbfbf" points="582,-6 582,-25 654,-25 654,-6 582,-6"/>
<text text-anchor="middle" x="618" y="-13" font-family="Helvetica,sans-Serif" font-size="10.00">sys/types.h</text>
</a>
</g>
</g>
<!-- Node2&#45;&gt;Node11 -->
<g id="edge10" class="edge">
<title>Node2&#45;&gt;Node11</title>
<path fill="none" stroke="midnightblue" d="M452.72,-68.66C481.28,-59.8 530.68,-44.43 573,-31 575.79,-30.12 578.67,-29.2 581.57,-28.27"/>
<polygon fill="midnightblue" stroke="midnightblue" points="582.91,-31.51 591.36,-25.13 580.77,-24.85 582.91,-31.51"/>
</g>
<!-- Node12 -->
<g id="node12" class="node">
<title>Node12</title>
<g id="a_node12"><a xlink:title=" ">
<polygon fill="white" stroke="#bfbfbf" points="672,-6 672,-25 728,-25 728,-6 672,-6"/>
<text text-anchor="middle" x="700" y="-13" font-family="Helvetica,sans-Serif" font-size="10.00">unistd.h</text>
</a>
</g>
</g>
<!-- Node2&#45;&gt;Node12 -->
<g id="edge11" class="edge">
<title>Node2&#45;&gt;Node12</title>
<path fill="none" stroke="midnightblue" d="M452.58,-72.93C495.17,-67.06 587.5,-52.85 663,-31 665.58,-30.25 668.24,-29.4 670.88,-28.48"/>
<polygon fill="midnightblue" stroke="midnightblue" points="672.1,-31.76 680.26,-25.01 669.67,-25.2 672.1,-31.76"/>
</g>
<!-- Node14 -->
<g id="node14" class="node">
<title>Node14</title>
<g id="a_node14"><a xlink:title=" ">
<polygon fill="white" stroke="#bfbfbf" points="811.5,-6 811.5,-25 910.5,-25 910.5,-6 811.5,-6"/>
<text text-anchor="middle" x="861" y="-13" font-family="Helvetica,sans-Serif" font-size="10.00">yaml&#45;cpp/yaml.h</text>
</a>
</g>
</g>
<!-- Node13&#45;&gt;Node14 -->
<g id="edge13" class="edge">
<title>Node13&#45;&gt;Node14</title>
<path fill="none" stroke="midnightblue" d="M703.06,-67.85C734.65,-57.58 789.15,-39.86 825.14,-28.16"/>
<polygon fill="midnightblue" stroke="midnightblue" points="826.34,-31.45 834.76,-25.03 824.17,-24.79 826.34,-31.45"/>
</g>
</g>
</svg>
