<?xml version="1.0" encoding="UTF-8" standalone="no"?>
<!DOCTYPE svg PUBLIC "-//W3C//DTD SVG 1.1//EN"
 "http://www.w3.org/Graphics/SVG/1.1/DTD/svg11.dtd">
<!-- Generated by graphviz version 2.43.0 (0)
 -->
<!-- Title: include/config.h Pages: 1 -->
<svg width="284pt" height="140pt"
 viewBox="0.00 0.00 284.00 140.00" xmlns="http://www.w3.org/2000/svg" xmlns:xlink="http://www.w3.org/1999/xlink">
<g id="graph0" class="graph" transform="scale(1 1) rotate(0) translate(4 136)">
<title>include/config.h</title>
<polygon fill="white" stroke="transparent" points="-4,4 -4,-136 280,-136 280,4 -4,4"/>
<!-- Node1 -->
<g id="node1" class="node">
<title>Node1</title>
<g id="a_node1"><a xlink:title="Read and Write User Configuration.">
<polygon fill="#bfbfbf" stroke="black" points="75,-112.5 75,-131.5 168,-131.5 168,-112.5 75,-112.5"/>
<text text-anchor="middle" x="121.5" y="-119.5" font-family="Helvetica,sans-Serif" font-size="10.00">include/config.h</text>
</a>
</g>
</g>
<!-- Node2 -->
<g id="node2" class="node">
<title>Node2</title>
<g id="a_node2"><a xlink:href="simulate_8h.html" target="_top" xlink:title="Simulate Generated Code.">
<polygon fill="white" stroke="black" points="68,-56.5 68,-75.5 175,-75.5 175,-56.5 68,-56.5"/>
<text text-anchor="middle" x="121.5" y="-63.5" font-family="Helvetica,sans-Serif" font-size="10.00">include/simulate.h</text>
</a>
</g>
</g>
<!-- Node1&#45;&gt;Node2 -->
<g id="edge1" class="edge">
<title>Node1&#45;&gt;Node2</title>
<path fill="none" stroke="midnightblue" d="M121.5,-101.8C121.5,-92.91 121.5,-82.78 121.5,-75.75"/>
<polygon fill="midnightblue" stroke="midnightblue" points="118,-102.08 121.5,-112.08 125,-102.08 118,-102.08"/>
</g>
<!-- Node3 -->
<g id="node3" class="node">
<title>Node3</title>
<g id="a_node3"><a xlink:href="src_2main_8cpp.html" target="_top" xlink:title="Program Command Line Options.">
<polygon fill="white" stroke="black" points="0,-0.5 0,-19.5 79,-19.5 79,-0.5 0,-0.5"/>
<text text-anchor="middle" x="39.5" y="-7.5" font-family="Helvetica,sans-Serif" font-size="10.00">src/main.cpp</text>
</a>
</g>
</g>
<!-- Node1&#45;&gt;Node3 -->
<g id="edge5" class="edge">
<title>Node1&#45;&gt;Node3</title>
<path fill="none" stroke="midnightblue" d="M95.43,-107.37C82.96,-99.66 68.78,-88.97 59.5,-76 47,-58.52 42.17,-33.04 40.41,-19.77"/>
<polygon fill="midnightblue" stroke="midnightblue" points="93.7,-110.41 104.1,-112.44 97.23,-104.37 93.7,-110.41"/>
</g>
<!-- Node5 -->
<g id="node5" class="node">
<title>Node5</title>
<g id="a_node5"><a xlink:href="config_8cpp.html" target="_top" xlink:title="Implementation of Config Class.">
<polygon fill="white" stroke="black" points="193,-56.5 193,-75.5 276,-75.5 276,-56.5 193,-56.5"/>
<text text-anchor="middle" x="234.5" y="-63.5" font-family="Helvetica,sans-Serif" font-size="10.00">src/config.cpp</text>
</a>
</g>
</g>
<!-- Node1&#45;&gt;Node5 -->
<g id="edge4" class="edge">
<title>Node1&#45;&gt;Node5</title>
<path fill="none" stroke="midnightblue" d="M148.5,-108.1C169.61,-98.01 198.36,-84.27 216.68,-75.52"/>
<polygon fill="midnightblue" stroke="midnightblue" points="146.92,-104.97 139.41,-112.44 149.94,-111.29 146.92,-104.97"/>
</g>
<!-- Node2&#45;&gt;Node3 -->
<g id="edge2" class="edge">
<title>Node2&#45;&gt;Node3</title>
<path fill="none" stroke="midnightblue" d="M99.67,-50.62C84.69,-40.76 65.3,-27.99 52.64,-19.65"/>
<polygon fill="midnightblue" stroke="midnightblue" points="98.05,-53.75 108.33,-56.32 101.9,-47.9 98.05,-53.75"/>
</g>
<!-- Node4 -->
<g id="node4" class="node">
<title>Node4</title>
<g id="a_node4"><a xlink:href="simulate_8cpp.html" target="_top" xlink:title="Implementation of Simulate Class.">
<polygon fill="white" stroke="black" points="97,-0.5 97,-19.5 194,-19.5 194,-0.5 97,-0.5"/>
<text text-anchor="middle" x="145.5" y="-7.5" font-family="Helvetica,sans-Serif" font-size="10.00">src/simulate.cpp</text>
</a>
</g>
</g>
<!-- Node2&#45;&gt;Node4 -->
<g id="edge3" class="edge">
<title>Node2&#45;&gt;Node4</title>
<path fill="none" stroke="midnightblue" d="M129.64,-46.69C133.68,-37.59 138.38,-27.01 141.61,-19.75"/>
<polygon fill="midnightblue" stroke="midnightblue" points="126.33,-45.52 125.46,-56.08 132.72,-48.37 126.33,-45.52"/>
</g>
</g>
</svg>
