<?xml version="1.0" encoding="UTF-8" standalone="no"?>
<!DOCTYPE svg PUBLIC "-//W3C//DTD SVG 1.1//EN"
 "http://www.w3.org/Graphics/SVG/1.1/DTD/svg11.dtd">
<!-- Generated by graphviz version 2.43.0 (0)
 -->
<!-- Title: tools Pages: 1 -->
<svg width="244pt" height="132pt"
 viewBox="0.00 0.00 244.00 132.00" xmlns="http://www.w3.org/2000/svg" xmlns:xlink="http://www.w3.org/1999/xlink">
<g id="graph0" class="graph" transform="scale(1 1) rotate(0) translate(4 128)">
<title>tools</title>
<polygon fill="white" stroke="transparent" points="-4,4 -4,-128 240,-128 240,4 -4,4"/>
<g id="clust1" class="cluster">
<title>clusterdir_4eeb864c4eec08c7d6b9d3b0352cfdde</title>
<g id="a_clust1"><a xlink:href="dir_4eeb864c4eec08c7d6b9d3b0352cfdde.html" target="_top">
<polygon fill="#daedff" stroke="#404040" stroke-width="2" points="8,-64 8,-116 228,-116 228,-64 8,-64"/>
</a>
</g>
</g>
<!-- dir_4eeb864c4eec08c7d6b9d3b0352cfdde -->
<g id="node1" class="node">
<title>dir_4eeb864c4eec08c7d6b9d3b0352cfdde</title>
<text text-anchor="middle" x="193" y="-87.5" font-family="Helvetica,sans-Serif" font-size="10.00">tools</text>
</g>
<!-- dir_2eca44b8a3f67fc0b6ab295ded067b9a -->
<g id="node2" class="node">
<title>dir_2eca44b8a3f67fc0b6ab295ded067b9a</title>
<g id="a_node2"><a xlink:href="dir_2eca44b8a3f67fc0b6ab295ded067b9a.html" target="_top" xlink:title="log">
<polygon fill="#4ea9ff" stroke="#404040" points="148,-108 94,-108 94,-72 148,-72 148,-108"/>
<text text-anchor="middle" x="121" y="-87.5" font-family="Helvetica,sans-Serif" font-size="10.00">log</text>
</a>
</g>
</g>
<!-- dir_d44c64559bbebec7f509842c48db8b23 -->
<g id="node4" class="node">
<title>dir_d44c64559bbebec7f509842c48db8b23</title>
<g id="a_node4"><a xlink:href="dir_d44c64559bbebec7f509842c48db8b23.html" target="_top" xlink:title="include">
<polygon fill="none" stroke="red" points="110,-36 56,-36 56,0 110,0 110,-36"/>
<text text-anchor="middle" x="83" y="-15.5" font-family="Helvetica,sans-Serif" font-size="10.00">include</text>
</a>
</g>
</g>
<!-- dir_2eca44b8a3f67fc0b6ab295ded067b9a&#45;&gt;dir_d44c64559bbebec7f509842c48db8b23 -->
<g id="edge1" class="edge">
<title>dir_2eca44b8a3f67fc0b6ab295ded067b9a&#45;&gt;dir_d44c64559bbebec7f509842c48db8b23</title>
<path fill="none" stroke="black" d="M111.61,-71.7C107.24,-63.64 101.94,-53.89 97.1,-44.98"/>
<polygon fill="black" stroke="black" points="100.13,-43.22 92.29,-36.1 93.98,-46.56 100.13,-43.22"/>
<g id="a_edge1&#45;headlabel"><a xlink:href="dir_000004_000003.html" target="_top" xlink:title="3">
<text text-anchor="middle" x="104.34" y="-42.53" font-family="Helvetica,sans-Serif" font-size="10.00">3</text>
</a>
</g>
</g>
<!-- dir_e2a3254c0ec7ce6646438f02ce44aceb -->
<g id="node3" class="node">
<title>dir_e2a3254c0ec7ce6646438f02ce44aceb</title>
<g id="a_node3"><a xlink:href="dir_e2a3254c0ec7ce6646438f02ce44aceb.html" target="_top" xlink:title="maintain">
<polygon fill="#4ea9ff" stroke="#404040" points="76,-108 16,-108 16,-72 76,-72 76,-108"/>
<text text-anchor="middle" x="46" y="-87.5" font-family="Helvetica,sans-Serif" font-size="10.00">maintain</text>
</a>
</g>
</g>
<!-- dir_e2a3254c0ec7ce6646438f02ce44aceb&#45;&gt;dir_d44c64559bbebec7f509842c48db8b23 -->
<g id="edge2" class="edge">
<title>dir_e2a3254c0ec7ce6646438f02ce44aceb&#45;&gt;dir_d44c64559bbebec7f509842c48db8b23</title>
<path fill="none" stroke="black" d="M55.15,-71.7C59.4,-63.64 64.56,-53.89 69.27,-44.98"/>
<polygon fill="black" stroke="black" points="72.38,-46.58 73.96,-36.1 66.19,-43.31 72.38,-46.58"/>
<g id="a_edge2&#45;headlabel"><a xlink:href="dir_000005_000003.html" target="_top" xlink:title="3">
<text text-anchor="middle" x="73.21" y="-48.59" font-family="Helvetica,sans-Serif" font-size="10.00">3</text>
</a>
</g>
</g>
</g>
</svg>
