<?xml version="1.0" encoding="UTF-8" standalone="no"?>
<!DOCTYPE svg PUBLIC "-//W3C//DTD SVG 1.1//EN"
 "http://www.w3.org/Graphics/SVG/1.1/DTD/svg11.dtd">
<!-- Generated by graphviz version 2.43.0 (0)
 -->
<!-- Title: include/error_code.h Pages: 1 -->
<svg width="344pt" height="196pt"
 viewBox="0.00 0.00 343.67 196.00" xmlns="http://www.w3.org/2000/svg" xmlns:xlink="http://www.w3.org/1999/xlink">
<g id="graph0" class="graph" transform="scale(1 1) rotate(0) translate(4 192)">
<title>include/error_code.h</title>
<polygon fill="white" stroke="transparent" points="-4,4 -4,-192 339.67,-192 339.67,4 -4,4"/>
<!-- Node1 -->
<g id="node1" class="node">
<title>Node1</title>
<g id="a_node1"><a xlink:title="Error Codes (Including Warnings)">
<polygon fill="#bfbfbf" stroke="black" points="129.5,-168.5 129.5,-187.5 245.5,-187.5 245.5,-168.5 129.5,-168.5"/>
<text text-anchor="middle" x="187.5" y="-175.5" font-family="Helvetica,sans-Serif" font-size="10.00">include/error_code.h</text>
</a>
</g>
</g>
<!-- Node2 -->
<g id="node2" class="node">
<title>Node2</title>
<g id="a_node2"><a xlink:href="export_8h.html" target="_top" xlink:title="Export mmCEsim Configuration to Other Programming Languages.">
<polygon fill="white" stroke="black" points="0,-56.5 0,-75.5 95,-75.5 95,-56.5 0,-56.5"/>
<text text-anchor="middle" x="47.5" y="-63.5" font-family="Helvetica,sans-Serif" font-size="10.00">include/export.h</text>
</a>
</g>
</g>
<!-- Node1&#45;&gt;Node2 -->
<g id="edge1" class="edge">
<title>Node1&#45;&gt;Node2</title>
<path fill="none" stroke="midnightblue" d="M143.83,-165.26C123.69,-158.17 100.53,-147.45 83.5,-132 65.92,-116.05 55.01,-89.45 50.27,-75.75"/>
<polygon fill="midnightblue" stroke="midnightblue" points="142.84,-168.62 153.43,-168.46 145.05,-161.98 142.84,-168.62"/>
</g>
<!-- Node4 -->
<g id="node4" class="node">
<title>Node4</title>
<g id="a_node4"><a xlink:href="src_2main_8cpp.html" target="_top" xlink:title="Program Command Line Options.">
<polygon fill="white" stroke="black" points="178,-0.5 178,-19.5 257,-19.5 257,-0.5 178,-0.5"/>
<text text-anchor="middle" x="217.5" y="-7.5" font-family="Helvetica,sans-Serif" font-size="10.00">src/main.cpp</text>
</a>
</g>
</g>
<!-- Node1&#45;&gt;Node4 -->
<g id="edge10" class="edge">
<title>Node1&#45;&gt;Node4</title>
<path fill="none" stroke="midnightblue" d="M229.69,-165.2C250.42,-157.95 274.88,-147.12 293.5,-132 317.05,-112.88 323.42,-104.94 332.5,-76 335.16,-67.52 337.51,-63.34 332.5,-56 315.7,-31.39 283.24,-20.23 257.08,-15.18"/>
<polygon fill="midnightblue" stroke="midnightblue" points="228.55,-161.89 220.17,-168.37 230.76,-168.53 228.55,-161.89"/>
</g>
<!-- Node5 -->
<g id="node5" class="node">
<title>Node5</title>
<g id="a_node5"><a xlink:href="read_8h.html" target="_top" xlink:title="Read YAML Configuration.">
<polygon fill="white" stroke="black" points="92.5,-112.5 92.5,-131.5 178.5,-131.5 178.5,-112.5 92.5,-112.5"/>
<text text-anchor="middle" x="135.5" y="-119.5" font-family="Helvetica,sans-Serif" font-size="10.00">include/read.h</text>
</a>
</g>
</g>
<!-- Node1&#45;&gt;Node5 -->
<g id="edge4" class="edge">
<title>Node1&#45;&gt;Node5</title>
<path fill="none" stroke="midnightblue" d="M171.82,-160.72C162.66,-151.2 151.45,-139.56 143.93,-131.75"/>
<polygon fill="midnightblue" stroke="midnightblue" points="169.46,-163.31 178.91,-168.08 174.5,-158.45 169.46,-163.31"/>
</g>
<!-- Node7 -->
<g id="node7" class="node">
<title>Node7</title>
<g id="a_node7"><a xlink:href="style_8h.html" target="_top" xlink:title="Format Output File.">
<polygon fill="white" stroke="black" points="196.5,-112.5 196.5,-131.5 284.5,-131.5 284.5,-112.5 196.5,-112.5"/>
<text text-anchor="middle" x="240.5" y="-119.5" font-family="Helvetica,sans-Serif" font-size="10.00">include/style.h</text>
</a>
</g>
</g>
<!-- Node1&#45;&gt;Node7 -->
<g id="edge7" class="edge">
<title>Node1&#45;&gt;Node7</title>
<path fill="none" stroke="midnightblue" d="M203.48,-160.72C212.82,-151.2 224.25,-139.56 231.91,-131.75"/>
<polygon fill="midnightblue" stroke="midnightblue" points="200.76,-158.49 196.25,-168.08 205.75,-163.4 200.76,-158.49"/>
</g>
<!-- Node3 -->
<g id="node3" class="node">
<title>Node3</title>
<g id="a_node3"><a xlink:href="export_8cpp.html" target="_top" xlink:title="Implementation of Export Class.">
<polygon fill="white" stroke="black" points="4.5,-0.5 4.5,-19.5 90.5,-19.5 90.5,-0.5 4.5,-0.5"/>
<text text-anchor="middle" x="47.5" y="-7.5" font-family="Helvetica,sans-Serif" font-size="10.00">src/export.cpp</text>
</a>
</g>
</g>
<!-- Node2&#45;&gt;Node3 -->
<g id="edge2" class="edge">
<title>Node2&#45;&gt;Node3</title>
<path fill="none" stroke="midnightblue" d="M47.5,-45.8C47.5,-36.91 47.5,-26.78 47.5,-19.75"/>
<polygon fill="midnightblue" stroke="midnightblue" points="44,-46.08 47.5,-56.08 51,-46.08 44,-46.08"/>
</g>
<!-- Node2&#45;&gt;Node4 -->
<g id="edge3" class="edge">
<title>Node2&#45;&gt;Node4</title>
<path fill="none" stroke="midnightblue" d="M84.32,-53.3C116.35,-43.13 162.02,-28.62 190.69,-19.52"/>
<polygon fill="midnightblue" stroke="midnightblue" points="82.91,-50.08 74.44,-56.44 85.03,-56.75 82.91,-50.08"/>
</g>
<!-- Node5&#45;&gt;Node2 -->
<g id="edge5" class="edge">
<title>Node5&#45;&gt;Node2</title>
<path fill="none" stroke="midnightblue" d="M112.52,-106.9C96.39,-97 75.32,-84.07 61.6,-75.65"/>
<polygon fill="midnightblue" stroke="midnightblue" points="111.01,-110.08 121.36,-112.32 114.67,-104.11 111.01,-110.08"/>
</g>
<!-- Node6 -->
<g id="node6" class="node">
<title>Node6</title>
<g id="a_node6"><a xlink:href="read_8cpp.html" target="_top" xlink:title="Implementation of class YAML_Error and ReadConfig.">
<polygon fill="white" stroke="black" points="113.5,-56.5 113.5,-75.5 189.5,-75.5 189.5,-56.5 113.5,-56.5"/>
<text text-anchor="middle" x="151.5" y="-63.5" font-family="Helvetica,sans-Serif" font-size="10.00">src/read.cpp</text>
</a>
</g>
</g>
<!-- Node5&#45;&gt;Node6 -->
<g id="edge6" class="edge">
<title>Node5&#45;&gt;Node6</title>
<path fill="none" stroke="midnightblue" d="M141.01,-102.4C143.69,-93.36 146.78,-82.94 148.91,-75.75"/>
<polygon fill="midnightblue" stroke="midnightblue" points="137.63,-101.5 138.14,-112.08 144.34,-103.49 137.63,-101.5"/>
</g>
<!-- Node7&#45;&gt;Node4 -->
<g id="edge8" class="edge">
<title>Node7&#45;&gt;Node4</title>
<path fill="none" stroke="midnightblue" d="M236.6,-102.35C231.56,-78.25 223,-37.31 219.3,-19.59"/>
<polygon fill="midnightblue" stroke="midnightblue" points="233.22,-103.3 238.7,-112.37 240.07,-101.86 233.22,-103.3"/>
</g>
<!-- Node8 -->
<g id="node8" class="node">
<title>Node8</title>
<g id="a_node8"><a xlink:href="style_8cpp.html" target="_top" xlink:title="Implementation of Style class.">
<polygon fill="white" stroke="black" points="245.5,-56.5 245.5,-75.5 323.5,-75.5 323.5,-56.5 245.5,-56.5"/>
<text text-anchor="middle" x="284.5" y="-63.5" font-family="Helvetica,sans-Serif" font-size="10.00">src/style.cpp</text>
</a>
</g>
</g>
<!-- Node7&#45;&gt;Node8 -->
<g id="edge9" class="edge">
<title>Node7&#45;&gt;Node8</title>
<path fill="none" stroke="midnightblue" d="M254.23,-104.14C261.9,-94.74 271.13,-83.4 277.37,-75.75"/>
<polygon fill="midnightblue" stroke="midnightblue" points="251.37,-102.12 247.77,-112.08 256.8,-106.54 251.37,-102.12"/>
</g>
</g>
</svg>
