<?xml version="1.0" encoding="UTF-8" standalone="no"?>
<!DOCTYPE svg PUBLIC "-//W3C//DTD SVG 1.1//EN"
 "http://www.w3.org/Graphics/SVG/1.1/DTD/svg11.dtd">
<!-- Generated by graphviz version 2.43.0 (0)
 -->
<!-- Title: errorExit Pages: 1 -->
<svg width="264pt" height="142pt"
 viewBox="0.00 0.00 264.00 142.00" xmlns="http://www.w3.org/2000/svg" xmlns:xlink="http://www.w3.org/1999/xlink">
<g id="graph0" class="graph" transform="scale(1 1) rotate(0) translate(4 138)">
<title>errorExit</title>
<polygon fill="white" stroke="transparent" points="-4,4 -4,-138 260,-138 260,4 -4,4"/>
<!-- Node1 -->
<g id="node1" class="node">
<title>Node1</title>
<g id="a_node1"><a xlink:title="Print error message and exit with exit code.">
<polygon fill="#bfbfbf" stroke="black" points="0,-57.5 0,-76.5 59,-76.5 59,-57.5 0,-57.5"/>
<text text-anchor="middle" x="29.5" y="-64.5" font-family="Helvetica,sans-Serif" font-size="10.00">errorExit</text>
</a>
</g>
</g>
<!-- Node2 -->
<g id="node2" class="node">
<title>Node2</title>
<g id="a_node2"><a xlink:href="class_log.html#ac7147942832455398ad289b706a02616" target="_top" xlink:title="Write error message to the log file.">
<polygon fill="white" stroke="black" points="98.5,-114.5 98.5,-133.5 151.5,-133.5 151.5,-114.5 98.5,-114.5"/>
<text text-anchor="middle" x="125" y="-121.5" font-family="Helvetica,sans-Serif" font-size="10.00">Log::err</text>
</a>
</g>
</g>
<!-- Node1&#45;&gt;Node2 -->
<g id="edge1" class="edge">
<title>Node1&#45;&gt;Node2</title>
<path fill="none" stroke="midnightblue" d="M46.36,-76.67C60.96,-85.57 82.82,-98.9 99.63,-109.14"/>
<polygon fill="midnightblue" stroke="midnightblue" points="98.01,-112.26 108.37,-114.47 101.66,-106.28 98.01,-112.26"/>
</g>
<!-- Node3 -->
<g id="node3" class="node">
<title>Node3</title>
<g id="a_node3"><a xlink:href="error__code_8h.html#ae1ca599cceb33d2db79940c7d98937f8" target="_top" xlink:title="Return the integer of the error code from class Err.">
<polygon fill="white" stroke="black" points="191,-38.5 191,-57.5 256,-57.5 256,-38.5 191,-38.5"/>
<text text-anchor="middle" x="223.5" y="-45.5" font-family="Helvetica,sans-Serif" font-size="10.00">errorCode</text>
</a>
</g>
</g>
<!-- Node1&#45;&gt;Node3 -->
<g id="edge2" class="edge">
<title>Node1&#45;&gt;Node3</title>
<path fill="none" stroke="midnightblue" d="M59.33,-69.22C84.67,-70.65 122.45,-71.49 155,-67 165.02,-65.62 175.66,-63.13 185.44,-60.4"/>
<polygon fill="midnightblue" stroke="midnightblue" points="186.67,-63.68 195.28,-57.5 184.69,-56.97 186.67,-63.68"/>
</g>
<!-- Node4 -->
<g id="node4" class="node">
<title>Node4</title>
<g id="a_node4"><a xlink:href="error__code_8h.html#ae1bfa02e1106eff84ddecb9f7773a1a4" target="_top" xlink:title="Return the error message of the error code from class Err.">
<polygon fill="white" stroke="black" points="95,-38.5 95,-57.5 155,-57.5 155,-38.5 95,-38.5"/>
<text text-anchor="middle" x="125" y="-45.5" font-family="Helvetica,sans-Serif" font-size="10.00">errorMsg</text>
</a>
</g>
</g>
<!-- Node1&#45;&gt;Node4 -->
<g id="edge3" class="edge">
<title>Node1&#45;&gt;Node4</title>
<path fill="none" stroke="midnightblue" d="M59.06,-61.2C67.24,-59.53 76.31,-57.69 85,-55.92"/>
<polygon fill="midnightblue" stroke="midnightblue" points="85.87,-59.32 94.97,-53.9 84.47,-52.46 85.87,-59.32"/>
</g>
<!-- Node5 -->
<g id="node5" class="node">
<title>Node5</title>
<g id="a_node5"><a xlink:href="error__code_8h.html#a81aa27a794998cf874bbef6d0f34b9d9" target="_top" xlink:title="Check if the error code corresponds to an error.">
<polygon fill="white" stroke="black" points="101,-0.5 101,-19.5 149,-19.5 149,-0.5 101,-0.5"/>
<text text-anchor="middle" x="125" y="-7.5" font-family="Helvetica,sans-Serif" font-size="10.00">isError</text>
</a>
</g>
</g>
<!-- Node1&#45;&gt;Node5 -->
<g id="edge4" class="edge">
<title>Node1&#45;&gt;Node5</title>
<path fill="none" stroke="midnightblue" d="M46.36,-57.33C60.96,-48.43 82.82,-35.1 99.63,-24.86"/>
<polygon fill="midnightblue" stroke="midnightblue" points="101.66,-27.72 108.37,-19.53 98.01,-21.74 101.66,-27.72"/>
</g>
<!-- Node5&#45;&gt;Node3 -->
<g id="edge5" class="edge">
<title>Node5&#45;&gt;Node3</title>
<path fill="none" stroke="midnightblue" d="M149.36,-19.2C161.18,-23.85 175.75,-29.59 188.77,-34.72"/>
<polygon fill="midnightblue" stroke="midnightblue" points="187.76,-38.08 198.35,-38.49 190.33,-31.57 187.76,-38.08"/>
</g>
</g>
</svg>
