<?xml version="1.0" encoding="UTF-8" standalone="no"?>
<!DOCTYPE svg PUBLIC "-//W3C//DTD SVG 1.1//EN"
 "http://www.w3.org/Graphics/SVG/1.1/DTD/svg11.dtd">
<!-- Generated by graphviz version 2.43.0 (0)
 -->
<!-- Title: errorExit Pages: 1 -->
<svg width="274pt" height="180pt"
 viewBox="0.00 0.00 274.00 180.00" xmlns="http://www.w3.org/2000/svg" xmlns:xlink="http://www.w3.org/1999/xlink">
<g id="graph0" class="graph" transform="scale(1 1) rotate(0) translate(4 176)">
<title>errorExit</title>
<polygon fill="white" stroke="transparent" points="-4,4 -4,-176 270,-176 270,4 -4,4"/>
<!-- Node1 -->
<g id="node1" class="node">
<title>Node1</title>
<g id="a_node1"><a xlink:title="Print error message and exit with exit code.">
<polygon fill="#bfbfbf" stroke="black" points="0,-76.5 0,-95.5 59,-95.5 59,-76.5 0,-76.5"/>
<text text-anchor="middle" x="29.5" y="-83.5" font-family="Helvetica,sans-Serif" font-size="10.00">errorExit</text>
</a>
</g>
</g>
<!-- Node2 -->
<g id="node2" class="node">
<title>Node2</title>
<g id="a_node2"><a xlink:href="class_log.html#ac7147942832455398ad289b706a02616" target="_top" xlink:title="Write error message to the log file.">
<polygon fill="white" stroke="black" points="103.5,-152.5 103.5,-171.5 156.5,-171.5 156.5,-152.5 103.5,-152.5"/>
<text text-anchor="middle" x="130" y="-159.5" font-family="Helvetica,sans-Serif" font-size="10.00">Log::err</text>
</a>
</g>
</g>
<!-- Node1&#45;&gt;Node2 -->
<g id="edge1" class="edge">
<title>Node1&#45;&gt;Node2</title>
<path fill="none" stroke="midnightblue" d="M40,-95.58C52.12,-107.51 74.03,-128.14 95,-143 97.08,-144.47 99.28,-145.92 101.52,-147.32"/>
<polygon fill="midnightblue" stroke="midnightblue" points="99.82,-150.38 110.21,-152.44 103.37,-144.35 99.82,-150.38"/>
</g>
<!-- Node3 -->
<g id="node3" class="node">
<title>Node3</title>
<g id="a_node3"><a xlink:href="class_term.html#abd955a8def100354b03e33911c3b21f8" target="_top" xlink:title="Print error message.">
<polygon fill="white" stroke="black" points="95,-114.5 95,-133.5 165,-133.5 165,-114.5 95,-114.5"/>
<text text-anchor="middle" x="130" y="-121.5" font-family="Helvetica,sans-Serif" font-size="10.00">Term::error</text>
</a>
</g>
</g>
<!-- Node1&#45;&gt;Node3 -->
<g id="edge2" class="edge">
<title>Node1&#45;&gt;Node3</title>
<path fill="none" stroke="midnightblue" d="M55.36,-95.59C67.25,-100.18 81.69,-105.75 94.63,-110.74"/>
<polygon fill="midnightblue" stroke="midnightblue" points="93.56,-114.08 104.15,-114.41 96.08,-107.55 93.56,-114.08"/>
</g>
<!-- Node4 -->
<g id="node4" class="node">
<title>Node4</title>
<g id="a_node4"><a xlink:href="error__code_8h.html#ae1ca599cceb33d2db79940c7d98937f8" target="_top" xlink:title="Return the integer of the error code from class Err.">
<polygon fill="white" stroke="black" points="201,-38.5 201,-57.5 266,-57.5 266,-38.5 201,-38.5"/>
<text text-anchor="middle" x="233.5" y="-45.5" font-family="Helvetica,sans-Serif" font-size="10.00">errorCode</text>
</a>
</g>
</g>
<!-- Node1&#45;&gt;Node4 -->
<g id="edge3" class="edge">
<title>Node1&#45;&gt;Node4</title>
<path fill="none" stroke="midnightblue" d="M59.03,-83.09C86.39,-80.04 128.77,-74.62 165,-67 173.83,-65.14 183.2,-62.77 192.07,-60.33"/>
<polygon fill="midnightblue" stroke="midnightblue" points="193.13,-63.67 201.8,-57.58 191.23,-56.93 193.13,-63.67"/>
</g>
<!-- Node5 -->
<g id="node5" class="node">
<title>Node5</title>
<g id="a_node5"><a xlink:href="error__code_8h.html#ae1bfa02e1106eff84ddecb9f7773a1a4" target="_top" xlink:title="Return the error message of the error code from class Err.">
<polygon fill="white" stroke="black" points="100,-38.5 100,-57.5 160,-57.5 160,-38.5 100,-38.5"/>
<text text-anchor="middle" x="130" y="-45.5" font-family="Helvetica,sans-Serif" font-size="10.00">errorMsg</text>
</a>
</g>
</g>
<!-- Node1&#45;&gt;Node5 -->
<g id="edge4" class="edge">
<title>Node1&#45;&gt;Node5</title>
<path fill="none" stroke="midnightblue" d="M55.36,-76.41C67.25,-71.82 81.69,-66.25 94.63,-61.26"/>
<polygon fill="midnightblue" stroke="midnightblue" points="96.08,-64.45 104.15,-57.59 93.56,-57.92 96.08,-64.45"/>
</g>
<!-- Node6 -->
<g id="node6" class="node">
<title>Node6</title>
<g id="a_node6"><a xlink:href="error__code_8h.html#a81aa27a794998cf874bbef6d0f34b9d9" target="_top" xlink:title="Check if the error code corresponds to an error.">
<polygon fill="white" stroke="black" points="106,-0.5 106,-19.5 154,-19.5 154,-0.5 106,-0.5"/>
<text text-anchor="middle" x="130" y="-7.5" font-family="Helvetica,sans-Serif" font-size="10.00">isError</text>
</a>
</g>
</g>
<!-- Node1&#45;&gt;Node6 -->
<g id="edge5" class="edge">
<title>Node1&#45;&gt;Node6</title>
<path fill="none" stroke="midnightblue" d="M40,-76.42C52.12,-64.49 74.03,-43.86 95,-29 97.08,-27.53 99.28,-26.08 101.52,-24.68"/>
<polygon fill="midnightblue" stroke="midnightblue" points="103.37,-27.65 110.21,-19.56 99.82,-21.62 103.37,-27.65"/>
</g>
<!-- Node6&#45;&gt;Node4 -->
<g id="edge6" class="edge">
<title>Node6&#45;&gt;Node4</title>
<path fill="none" stroke="midnightblue" d="M154.03,-18.62C166.86,-23.43 183.1,-29.51 197.48,-34.89"/>
<polygon fill="midnightblue" stroke="midnightblue" points="196.47,-38.25 207.07,-38.48 198.93,-31.69 196.47,-38.25"/>
</g>
</g>
</svg>
