<?xml version="1.0" encoding="UTF-8" standalone="no"?>
<!DOCTYPE svg PUBLIC "-//W3C//DTD SVG 1.1//EN"
 "http://www.w3.org/Graphics/SVG/1.1/DTD/svg11.dtd">
<!-- Generated by graphviz version 2.43.0 (0)
 -->
<!-- Title: isError Pages: 1 -->
<svg width="627pt" height="142pt"
 viewBox="0.00 0.00 627.00 142.00" xmlns="http://www.w3.org/2000/svg" xmlns:xlink="http://www.w3.org/1999/xlink">
<g id="graph0" class="graph" transform="scale(1 1) rotate(0) translate(4 138)">
<title>isError</title>
<polygon fill="white" stroke="transparent" points="-4,4 -4,-138 623,-138 623,4 -4,4"/>
<!-- Node1 -->
<g id="node1" class="node">
<title>Node1</title>
<g id="a_node1"><a xlink:title="Check if the error code corresponds to an error.">
<polygon fill="#bfbfbf" stroke="black" points="571,-57.5 571,-76.5 619,-76.5 619,-57.5 571,-57.5"/>
<text text-anchor="middle" x="595" y="-64.5" font-family="Helvetica,sans-Serif" font-size="10.00">isError</text>
</a>
</g>
</g>
<!-- Node2 -->
<g id="node2" class="node">
<title>Node2</title>
<g id="a_node2"><a xlink:href="error__code_8h.html#a9c6b4516abc67a835f41887633fe69e1" target="_top" xlink:title="Print error message and exit with exit code.">
<polygon fill="white" stroke="black" points="476,-76.5 476,-95.5 535,-95.5 535,-76.5 476,-76.5"/>
<text text-anchor="middle" x="505.5" y="-83.5" font-family="Helvetica,sans-Serif" font-size="10.00">errorExit</text>
</a>
</g>
</g>
<!-- Node1&#45;&gt;Node2 -->
<g id="edge1" class="edge">
<title>Node1&#45;&gt;Node2</title>
<path fill="none" stroke="midnightblue" d="M560.62,-74.25C552.17,-76.08 543.18,-78.03 535.01,-79.81"/>
<polygon fill="midnightblue" stroke="midnightblue" points="561.52,-77.63 570.55,-72.09 560.04,-70.79 561.52,-77.63"/>
</g>
<!-- Node7 -->
<g id="node7" class="node">
<title>Node7</title>
<g id="a_node7"><a xlink:href="read_8h.html#a90e5345c902a238d6a6b0e75eed3aa26" target="_top" xlink:title=" ">
<polygon fill="white" stroke="black" points="477,-38.5 477,-57.5 534,-57.5 534,-38.5 477,-38.5"/>
<text text-anchor="middle" x="505.5" y="-45.5" font-family="Helvetica,sans-Serif" font-size="10.00">hasError</text>
</a>
</g>
</g>
<!-- Node1&#45;&gt;Node7 -->
<g id="edge7" class="edge">
<title>Node1&#45;&gt;Node7</title>
<path fill="none" stroke="midnightblue" d="M560.62,-59.75C551.84,-57.85 542.48,-55.81 534.05,-53.98"/>
<polygon fill="midnightblue" stroke="midnightblue" points="560.04,-63.21 570.55,-61.91 561.52,-56.37 560.04,-63.21"/>
</g>
<!-- Node3 -->
<g id="node3" class="node">
<title>Node3</title>
<g id="a_node3"><a xlink:href="class_export.html#ad7268f886ac4826f4b6ea738e423e520" target="_top" xlink:title=" ">
<polygon fill="white" stroke="black" points="292,-114.5 292,-133.5 440,-133.5 440,-114.5 292,-114.5"/>
<text text-anchor="middle" x="366" y="-121.5" font-family="Helvetica,sans-Serif" font-size="10.00">Export::_generateChannels</text>
</a>
</g>
</g>
<!-- Node2&#45;&gt;Node3 -->
<g id="edge2" class="edge">
<title>Node2&#45;&gt;Node3</title>
<path fill="none" stroke="midnightblue" d="M465.86,-96.68C445.68,-102.26 421.19,-109.02 401.63,-114.43"/>
<polygon fill="midnightblue" stroke="midnightblue" points="466.97,-100 475.68,-93.97 465.1,-93.26 466.97,-100"/>
</g>
<!-- Node6 -->
<g id="node6" class="node">
<title>Node6</title>
<g id="a_node6"><a xlink:href="src_2main_8cpp.html#a0ddf1224851353fc92bfbff6f499fa97" target="_top" xlink:title=" ">
<polygon fill="white" stroke="black" points="34.5,-76.5 34.5,-95.5 75.5,-95.5 75.5,-76.5 34.5,-76.5"/>
<text text-anchor="middle" x="55" y="-83.5" font-family="Helvetica,sans-Serif" font-size="10.00">main</text>
</a>
</g>
</g>
<!-- Node2&#45;&gt;Node6 -->
<g id="edge6" class="edge">
<title>Node2&#45;&gt;Node6</title>
<path fill="none" stroke="midnightblue" d="M465.75,-86C373.77,-86 144.81,-86 75.92,-86"/>
<polygon fill="midnightblue" stroke="midnightblue" points="465.76,-89.5 475.76,-86 465.76,-82.5 465.76,-89.5"/>
</g>
<!-- Node4 -->
<g id="node4" class="node">
<title>Node4</title>
<g id="a_node4"><a xlink:href="class_export.html#affc37d1d677a83d3e5d36a4e37b7a72b" target="_top" xlink:title=" ">
<polygon fill="white" stroke="black" points="146,-114.5 146,-133.5 256,-133.5 256,-114.5 146,-114.5"/>
<text text-anchor="middle" x="201" y="-121.5" font-family="Helvetica,sans-Serif" font-size="10.00">Export::exportCode</text>
</a>
</g>
</g>
<!-- Node3&#45;&gt;Node4 -->
<g id="edge3" class="edge">
<title>Node3&#45;&gt;Node4</title>
<path fill="none" stroke="midnightblue" d="M281.59,-124C273.05,-124 264.54,-124 256.44,-124"/>
<polygon fill="midnightblue" stroke="midnightblue" points="281.61,-127.5 291.61,-124 281.61,-120.5 281.61,-127.5"/>
</g>
<!-- Node5 -->
<g id="node5" class="node">
<title>Node5</title>
<g id="a_node5"><a xlink:href="class_export.html#a94fab568af6ddd6447efca74e205e081" target="_top" xlink:title=" ">
<polygon fill="white" stroke="black" points="0,-114.5 0,-133.5 110,-133.5 110,-114.5 0,-114.5"/>
<text text-anchor="middle" x="55" y="-121.5" font-family="Helvetica,sans-Serif" font-size="10.00">Export::exportCode</text>
</a>
</g>
</g>
<!-- Node4&#45;&gt;Node5 -->
<g id="edge4" class="edge">
<title>Node4&#45;&gt;Node5</title>
<path fill="none" stroke="midnightblue" d="M135.73,-124C127.25,-124 118.62,-124 110.33,-124"/>
<polygon fill="midnightblue" stroke="midnightblue" points="135.97,-127.5 145.97,-124 135.97,-120.5 135.97,-127.5"/>
</g>
<!-- Node4&#45;&gt;Node6 -->
<g id="edge5" class="edge">
<title>Node4&#45;&gt;Node6</title>
<path fill="none" stroke="midnightblue" d="M153.87,-111.83C127.56,-104.89 95.94,-96.54 75.9,-91.25"/>
<polygon fill="midnightblue" stroke="midnightblue" points="153.1,-115.24 163.66,-114.41 154.89,-108.48 153.1,-115.24"/>
</g>
<!-- Node7&#45;&gt;Node6 -->
<g id="edge9" class="edge">
<title>Node7&#45;&gt;Node6</title>
<path fill="none" stroke="midnightblue" d="M466.58,-51.21C374.99,-58.97 144.21,-78.53 75.56,-84.34"/>
<polygon fill="midnightblue" stroke="midnightblue" points="467.11,-54.68 476.78,-50.35 466.52,-47.71 467.11,-54.68"/>
</g>
<!-- Node8 -->
<g id="node8" class="node">
<title>Node8</title>
<g id="a_node8"><a xlink:href="class_export.html#a23f9a3cb5f7cd82b36037e6d4f7123ed" target="_top" xlink:title=" ">
<polygon fill="white" stroke="black" points="323,-0.5 323,-19.5 409,-19.5 409,-0.5 323,-0.5"/>
<text text-anchor="middle" x="366" y="-7.5" font-family="Helvetica,sans-Serif" font-size="10.00">Export::Export</text>
</a>
</g>
</g>
<!-- Node7&#45;&gt;Node8 -->
<g id="edge8" class="edge">
<title>Node7&#45;&gt;Node8</title>
<path fill="none" stroke="midnightblue" d="M466.8,-37.58C446.44,-31.95 421.48,-25.06 401.62,-19.57"/>
<polygon fill="midnightblue" stroke="midnightblue" points="466.1,-41.02 476.67,-40.31 467.97,-34.27 466.1,-41.02"/>
</g>
</g>
</svg>
