<?xml version="1.0" encoding="UTF-8" standalone="no"?>
<!DOCTYPE svg PUBLIC "-//W3C//DTD SVG 1.1//EN"
 "http://www.w3.org/Graphics/SVG/1.1/DTD/svg11.dtd">
<!-- Generated by graphviz version 2.43.0 (0)
 -->
<!-- Title: include/error_code.h Pages: 1 -->
<svg width="897pt" height="263pt"
 viewBox="0.00 0.00 896.50 263.00" xmlns="http://www.w3.org/2000/svg" xmlns:xlink="http://www.w3.org/1999/xlink">
<g id="graph0" class="graph" transform="scale(1 1) rotate(0) translate(4 259)">
<title>include/error_code.h</title>
<polygon fill="white" stroke="transparent" points="-4,4 -4,-259 892.5,-259 892.5,4 -4,4"/>
<!-- Node1 -->
<g id="node1" class="node">
<title>Node1</title>
<g id="a_node1"><a xlink:title="Error Codes (Including Warnings)">
<polygon fill="#bfbfbf" stroke="black" points="610,-235.5 610,-254.5 726,-254.5 726,-235.5 610,-235.5"/>
<text text-anchor="middle" x="668" y="-242.5" font-family="Helvetica,sans-Serif" font-size="10.00">include/error_code.h</text>
</a>
</g>
</g>
<!-- Node2 -->
<g id="node2" class="node">
<title>Node2</title>
<g id="a_node2"><a xlink:href="log__global_8h.html" target="_top" xlink:title="Global Access of Log.">
<polygon fill="white" stroke="black" points="458,-179.5 458,-198.5 534,-198.5 534,-179.5 458,-179.5"/>
<text text-anchor="middle" x="496" y="-186.5" font-family="Helvetica,sans-Serif" font-size="10.00">log_global.h</text>
</a>
</g>
</g>
<!-- Node1&#45;&gt;Node2 -->
<g id="edge1" class="edge">
<title>Node1&#45;&gt;Node2</title>
<path fill="none" stroke="midnightblue" d="M640.75,-235.44C611.56,-226.28 565.08,-211.69 532.69,-201.52"/>
<polygon fill="midnightblue" stroke="midnightblue" points="533.72,-198.17 523.13,-198.52 531.62,-204.85 533.72,-198.17"/>
</g>
<!-- Node4 -->
<g id="node4" class="node">
<title>Node4</title>
<g id="a_node4"><a xlink:href="meta_8h.html" target="_top" xlink:title="mmCEsim meta data">
<polygon fill="white" stroke="black" points="574.5,-67.5 574.5,-86.5 625.5,-86.5 625.5,-67.5 574.5,-67.5"/>
<text text-anchor="middle" x="600" y="-74.5" font-family="Helvetica,sans-Serif" font-size="10.00">meta.h</text>
</a>
</g>
</g>
<!-- Node1&#45;&gt;Node4 -->
<g id="edge21" class="edge">
<title>Node1&#45;&gt;Node4</title>
<path fill="none" stroke="midnightblue" d="M664.34,-235.08C653.59,-208.83 621.93,-131.55 607.42,-96.12"/>
<polygon fill="midnightblue" stroke="midnightblue" points="610.54,-94.5 603.51,-86.57 604.06,-97.15 610.54,-94.5"/>
</g>
<!-- Node5 -->
<g id="node5" class="node">
<title>Node5</title>
<g id="a_node5"><a xlink:title=" ">
<polygon fill="white" stroke="#bfbfbf" points="559,-6 559,-25 603,-25 603,-6 559,-6"/>
<text text-anchor="middle" x="581" y="-13" font-family="Helvetica,sans-Serif" font-size="10.00">string</text>
</a>
</g>
</g>
<!-- Node1&#45;&gt;Node5 -->
<g id="edge25" class="edge">
<title>Node1&#45;&gt;Node5</title>
<path fill="none" stroke="midnightblue" d="M609.8,-241.61C518.67,-234.22 346.3,-204.58 284,-87 221.46,31.04 103.73,-105.43 511,-31 523.46,-28.72 537.12,-25.95 549.03,-23.45"/>
<polygon fill="midnightblue" stroke="midnightblue" points="549.93,-26.84 558.98,-21.34 548.47,-19.99 549.93,-26.84"/>
</g>
<!-- Node6 -->
<g id="node6" class="node">
<title>Node6</title>
<g id="a_node6"><a xlink:href="term_8h.html" target="_top" xlink:title="Terminal Color and Style Control.">
<polygon fill="white" stroke="black" points="643.5,-67.5 643.5,-86.5 692.5,-86.5 692.5,-67.5 643.5,-67.5"/>
<text text-anchor="middle" x="668" y="-74.5" font-family="Helvetica,sans-Serif" font-size="10.00">term.h</text>
</a>
</g>
</g>
<!-- Node1&#45;&gt;Node6 -->
<g id="edge22" class="edge">
<title>Node1&#45;&gt;Node6</title>
<path fill="none" stroke="midnightblue" d="M668,-235.08C668,-208.95 668,-132.21 668,-96.58"/>
<polygon fill="midnightblue" stroke="midnightblue" points="671.5,-96.57 668,-86.57 664.5,-96.57 671.5,-96.57"/>
</g>
<!-- Node8 -->
<g id="node8" class="node">
<title>Node8</title>
<g id="a_node8"><a xlink:title=" ">
<polygon fill="white" stroke="#bfbfbf" points="691,-6 691,-25 751,-25 751,-6 691,-6"/>
<text text-anchor="middle" x="721" y="-13" font-family="Helvetica,sans-Serif" font-size="10.00">iostream</text>
</a>
</g>
</g>
<!-- Node1&#45;&gt;Node8 -->
<g id="edge24" class="edge">
<title>Node1&#45;&gt;Node8</title>
<path fill="none" stroke="midnightblue" d="M670.92,-235.44C673.93,-226.44 678.64,-211.82 682,-199 697.49,-139.84 711.34,-68.71 717.55,-35.42"/>
<polygon fill="midnightblue" stroke="midnightblue" points="721.04,-35.77 719.41,-25.3 714.16,-34.5 721.04,-35.77"/>
</g>
<!-- Node20 -->
<g id="node20" class="node">
<title>Node20</title>
<g id="a_node20"><a xlink:title=" ">
<polygon fill="white" stroke="#bfbfbf" points="749,-179.5 749,-198.5 801,-198.5 801,-179.5 749,-179.5"/>
<text text-anchor="middle" x="775" y="-186.5" font-family="Helvetica,sans-Serif" font-size="10.00">cassert</text>
</a>
</g>
</g>
<!-- Node1&#45;&gt;Node20 -->
<g id="edge23" class="edge">
<title>Node1&#45;&gt;Node20</title>
<path fill="none" stroke="midnightblue" d="M685.19,-235.32C702.35,-226.66 728.95,-213.24 748.75,-203.25"/>
<polygon fill="midnightblue" stroke="midnightblue" points="750.5,-206.28 757.85,-198.65 747.35,-200.04 750.5,-206.28"/>
</g>
<!-- Node21 -->
<g id="node21" class="node">
<title>Node21</title>
<g id="a_node21"><a xlink:title=" ">
<polygon fill="white" stroke="#bfbfbf" points="819.5,-179.5 819.5,-198.5 888.5,-198.5 888.5,-179.5 819.5,-179.5"/>
<text text-anchor="middle" x="854" y="-186.5" font-family="Helvetica,sans-Serif" font-size="10.00">type_traits</text>
</a>
</g>
</g>
<!-- Node1&#45;&gt;Node21 -->
<g id="edge26" class="edge">
<title>Node1&#45;&gt;Node21</title>
<path fill="none" stroke="midnightblue" d="M697.47,-235.44C729.17,-226.24 779.73,-211.56 814.77,-201.39"/>
<polygon fill="midnightblue" stroke="midnightblue" points="816.04,-204.67 824.67,-198.52 814.09,-197.94 816.04,-204.67"/>
</g>
<!-- Node3 -->
<g id="node3" class="node">
<title>Node3</title>
<g id="a_node3"><a xlink:href="include_2log_8h.html" target="_top" xlink:title="Log Utilities.">
<polygon fill="white" stroke="black" points="455.5,-123.5 455.5,-142.5 496.5,-142.5 496.5,-123.5 455.5,-123.5"/>
<text text-anchor="middle" x="476" y="-130.5" font-family="Helvetica,sans-Serif" font-size="10.00">log.h</text>
</a>
</g>
</g>
<!-- Node2&#45;&gt;Node3 -->
<g id="edge2" class="edge">
<title>Node2&#45;&gt;Node3</title>
<path fill="none" stroke="midnightblue" d="M492.7,-179.08C490.02,-171.85 486.15,-161.41 482.81,-152.4"/>
<polygon fill="midnightblue" stroke="midnightblue" points="486,-150.91 479.24,-142.75 479.43,-153.34 486,-150.91"/>
</g>
<!-- Node3&#45;&gt;Node4 -->
<g id="edge3" class="edge">
<title>Node3&#45;&gt;Node4</title>
<path fill="none" stroke="midnightblue" d="M495.65,-123.44C515.96,-114.6 547.9,-100.69 571.1,-90.59"/>
<polygon fill="midnightblue" stroke="midnightblue" points="572.67,-93.72 580.44,-86.52 569.88,-87.3 572.67,-93.72"/>
</g>
<!-- Node3&#45;&gt;Node6 -->
<g id="edge5" class="edge">
<title>Node3&#45;&gt;Node6</title>
<path fill="none" stroke="midnightblue" d="M496.55,-126.22C529.3,-117.01 593.69,-98.9 633.57,-87.68"/>
<polygon fill="midnightblue" stroke="midnightblue" points="634.71,-91 643.39,-84.92 632.82,-84.26 634.71,-91"/>
</g>
<!-- Node9 -->
<g id="node9" class="node">
<title>Node9</title>
<g id="a_node9"><a xlink:href="utils_8h.html" target="_top" xlink:title="Utilities.">
<polygon fill="white" stroke="black" points="189.5,-67.5 189.5,-86.5 236.5,-86.5 236.5,-67.5 189.5,-67.5"/>
<text text-anchor="middle" x="213" y="-74.5" font-family="Helvetica,sans-Serif" font-size="10.00">utils.h</text>
</a>
</g>
</g>
<!-- Node3&#45;&gt;Node9 -->
<g id="edge9" class="edge">
<title>Node3&#45;&gt;Node9</title>
<path fill="none" stroke="midnightblue" d="M455.36,-127.76C410.09,-118.47 301.68,-96.21 246.5,-84.88"/>
<polygon fill="midnightblue" stroke="midnightblue" points="247.03,-81.41 236.53,-82.83 245.62,-88.27 247.03,-81.41"/>
</g>
<!-- Node16 -->
<g id="node16" class="node">
<title>Node16</title>
<g id="a_node16"><a xlink:title=" ">
<polygon fill="white" stroke="#bfbfbf" points="293,-67.5 293,-86.5 337,-86.5 337,-67.5 293,-67.5"/>
<text text-anchor="middle" x="315" y="-74.5" font-family="Helvetica,sans-Serif" font-size="10.00">ctime</text>
</a>
</g>
</g>
<!-- Node3&#45;&gt;Node16 -->
<g id="edge17" class="edge">
<title>Node3&#45;&gt;Node16</title>
<path fill="none" stroke="midnightblue" d="M455.28,-125.05C427.85,-115.85 379.19,-99.53 347.01,-88.74"/>
<polygon fill="midnightblue" stroke="midnightblue" points="347.78,-85.3 337.19,-85.44 345.55,-91.94 347.78,-85.3"/>
</g>
<!-- Node17 -->
<g id="node17" class="node">
<title>Node17</title>
<g id="a_node17"><a xlink:title=" ">
<polygon fill="white" stroke="#bfbfbf" points="355.5,-67.5 355.5,-86.5 410.5,-86.5 410.5,-67.5 355.5,-67.5"/>
<text text-anchor="middle" x="383" y="-74.5" font-family="Helvetica,sans-Serif" font-size="10.00">fstream</text>
</a>
</g>
</g>
<!-- Node3&#45;&gt;Node17 -->
<g id="edge18" class="edge">
<title>Node3&#45;&gt;Node17</title>
<path fill="none" stroke="midnightblue" d="M461.06,-123.32C446.41,-114.82 423.87,-101.73 406.76,-91.8"/>
<polygon fill="midnightblue" stroke="midnightblue" points="408.31,-88.65 397.9,-86.65 404.8,-94.7 408.31,-88.65"/>
</g>
<!-- Node18 -->
<g id="node18" class="node">
<title>Node18</title>
<g id="a_node18"><a xlink:title=" ">
<polygon fill="white" stroke="#bfbfbf" points="429,-67.5 429,-86.5 485,-86.5 485,-67.5 429,-67.5"/>
<text text-anchor="middle" x="457" y="-74.5" font-family="Helvetica,sans-Serif" font-size="10.00">iomanip</text>
</a>
</g>
</g>
<!-- Node3&#45;&gt;Node18 -->
<g id="edge19" class="edge">
<title>Node3&#45;&gt;Node18</title>
<path fill="none" stroke="midnightblue" d="M472.86,-123.08C470.32,-115.85 466.64,-105.41 463.47,-96.4"/>
<polygon fill="midnightblue" stroke="midnightblue" points="466.7,-95.02 460.08,-86.75 460.1,-97.35 466.7,-95.02"/>
</g>
<!-- Node19 -->
<g id="node19" class="node">
<title>Node19</title>
<g id="a_node19"><a xlink:title=" ">
<polygon fill="white" stroke="#bfbfbf" points="503.5,-67.5 503.5,-86.5 556.5,-86.5 556.5,-67.5 503.5,-67.5"/>
<text text-anchor="middle" x="530" y="-74.5" font-family="Helvetica,sans-Serif" font-size="10.00">spy.hpp</text>
</a>
</g>
</g>
<!-- Node3&#45;&gt;Node19 -->
<g id="edge20" class="edge">
<title>Node3&#45;&gt;Node19</title>
<path fill="none" stroke="midnightblue" d="M484.92,-123.08C492.78,-115.22 504.43,-103.57 513.92,-94.08"/>
<polygon fill="midnightblue" stroke="midnightblue" points="516.65,-96.3 521.25,-86.75 511.7,-91.35 516.65,-96.3"/>
</g>
<!-- Node4&#45;&gt;Node5 -->
<g id="edge4" class="edge">
<title>Node4&#45;&gt;Node5</title>
<path fill="none" stroke="midnightblue" d="M597.28,-67.48C594.57,-58.99 590.33,-45.7 586.85,-34.82"/>
<polygon fill="midnightblue" stroke="midnightblue" points="590.09,-33.47 583.72,-25.01 583.43,-35.6 590.09,-33.47"/>
</g>
<!-- Node6&#45;&gt;Node5 -->
<g id="edge8" class="edge">
<title>Node6&#45;&gt;Node5</title>
<path fill="none" stroke="midnightblue" d="M655.54,-67.48C641.58,-57.93 618.74,-42.31 602.01,-30.87"/>
<polygon fill="midnightblue" stroke="midnightblue" points="603.67,-27.77 593.44,-25.01 599.72,-33.54 603.67,-27.77"/>
</g>
<!-- Node7 -->
<g id="node7" class="node">
<title>Node7</title>
<g id="a_node7"><a xlink:title=" ">
<polygon fill="white" stroke="#bfbfbf" points="623.5,-6 623.5,-25 672.5,-25 672.5,-6 623.5,-6"/>
<text text-anchor="middle" x="648" y="-13" font-family="Helvetica,sans-Serif" font-size="10.00">cstdlib</text>
</a>
</g>
</g>
<!-- Node6&#45;&gt;Node7 -->
<g id="edge6" class="edge">
<title>Node6&#45;&gt;Node7</title>
<path fill="none" stroke="midnightblue" d="M665.13,-67.48C662.28,-58.99 657.82,-45.7 654.16,-34.82"/>
<polygon fill="midnightblue" stroke="midnightblue" points="657.36,-33.37 650.86,-25.01 650.73,-35.6 657.36,-33.37"/>
</g>
<!-- Node6&#45;&gt;Node8 -->
<g id="edge7" class="edge">
<title>Node6&#45;&gt;Node8</title>
<path fill="none" stroke="midnightblue" d="M675.59,-67.48C683.7,-58.37 696.73,-43.74 706.76,-32.48"/>
<polygon fill="midnightblue" stroke="midnightblue" points="709.38,-34.8 713.42,-25.01 704.16,-30.15 709.38,-34.8"/>
</g>
<!-- Node9&#45;&gt;Node5 -->
<g id="edge14" class="edge">
<title>Node9&#45;&gt;Node5</title>
<path fill="none" stroke="midnightblue" d="M236.64,-70.03C241.38,-68.94 246.34,-67.87 251,-67 365.67,-45.53 396.04,-50.84 511,-31 523.39,-28.86 536.94,-26.14 548.79,-23.64"/>
<polygon fill="midnightblue" stroke="midnightblue" points="549.65,-27.04 558.69,-21.52 548.18,-20.19 549.65,-27.04"/>
</g>
<!-- Node10 -->
<g id="node10" class="node">
<title>Node10</title>
<g id="a_node10"><a xlink:title=" ">
<polygon fill="white" stroke="#bfbfbf" points="0,-6 0,-25 64,-25 64,-6 0,-6"/>
<text text-anchor="middle" x="32" y="-13" font-family="Helvetica,sans-Serif" font-size="10.00">algorithm</text>
</a>
</g>
</g>
<!-- Node9&#45;&gt;Node10 -->
<g id="edge10" class="edge">
<title>Node9&#45;&gt;Node10</title>
<path fill="none" stroke="midnightblue" d="M189.15,-68.57C161.23,-59.81 113.64,-44.71 73,-31 70.56,-30.18 68.04,-29.31 65.51,-28.44"/>
<polygon fill="midnightblue" stroke="midnightblue" points="66.4,-25.04 55.81,-25.05 64.09,-31.65 66.4,-25.04"/>
</g>
<!-- Node11 -->
<g id="node11" class="node">
<title>Node11</title>
<g id="a_node11"><a xlink:title=" ">
<polygon fill="white" stroke="#bfbfbf" points="82.5,-6 82.5,-25 131.5,-25 131.5,-6 82.5,-6"/>
<text text-anchor="middle" x="107" y="-13" font-family="Helvetica,sans-Serif" font-size="10.00">cctype</text>
</a>
</g>
</g>
<!-- Node9&#45;&gt;Node11 -->
<g id="edge11" class="edge">
<title>Node9&#45;&gt;Node11</title>
<path fill="none" stroke="midnightblue" d="M197.81,-67.48C180.34,-57.67 151.42,-41.43 130.92,-29.92"/>
<polygon fill="midnightblue" stroke="midnightblue" points="132.59,-26.85 122.16,-25.01 129.17,-32.96 132.59,-26.85"/>
</g>
<!-- Node12 -->
<g id="node12" class="node">
<title>Node12</title>
<g id="a_node12"><a xlink:title=" ">
<polygon fill="white" stroke="#bfbfbf" points="150,-6 150,-25 204,-25 204,-6 150,-6"/>
<text text-anchor="middle" x="177" y="-13" font-family="Helvetica,sans-Serif" font-size="10.00">random</text>
</a>
</g>
</g>
<!-- Node9&#45;&gt;Node12 -->
<g id="edge12" class="edge">
<title>Node9&#45;&gt;Node12</title>
<path fill="none" stroke="midnightblue" d="M207.84,-67.48C202.55,-58.73 194.16,-44.87 187.47,-33.81"/>
<polygon fill="midnightblue" stroke="midnightblue" points="190.32,-31.75 182.15,-25.01 184.33,-35.38 190.32,-31.75"/>
</g>
<!-- Node13 -->
<g id="node13" class="node">
<title>Node13</title>
<g id="a_node13"><a xlink:title=" ">
<polygon fill="white" stroke="#bfbfbf" points="222,-6 222,-25 278,-25 278,-6 222,-6"/>
<text text-anchor="middle" x="250" y="-13" font-family="Helvetica,sans-Serif" font-size="10.00">sstream</text>
</a>
</g>
</g>
<!-- Node9&#45;&gt;Node13 -->
<g id="edge13" class="edge">
<title>Node9&#45;&gt;Node13</title>
<path fill="none" stroke="midnightblue" d="M218.3,-67.48C223.74,-58.73 232.36,-44.87 239.24,-33.81"/>
<polygon fill="midnightblue" stroke="midnightblue" points="242.4,-35.35 244.71,-25.01 236.46,-31.65 242.4,-35.35"/>
</g>
<!-- Node14 -->
<g id="node14" class="node">
<title>Node14</title>
<g id="a_node14"><a xlink:title=" ">
<polygon fill="white" stroke="#bfbfbf" points="296.5,-6 296.5,-25 343.5,-25 343.5,-6 296.5,-6"/>
<text text-anchor="middle" x="320" y="-13" font-family="Helvetica,sans-Serif" font-size="10.00">vector</text>
</a>
</g>
</g>
<!-- Node9&#45;&gt;Node14 -->
<g id="edge15" class="edge">
<title>Node9&#45;&gt;Node14</title>
<path fill="none" stroke="midnightblue" d="M228.33,-67.48C245.97,-57.67 275.16,-41.43 295.86,-29.92"/>
<polygon fill="midnightblue" stroke="midnightblue" points="297.66,-32.93 304.7,-25.01 294.26,-26.81 297.66,-32.93"/>
</g>
<!-- Node15 -->
<g id="node15" class="node">
<title>Node15</title>
<g id="a_node15"><a xlink:title=" ">
<polygon fill="white" stroke="#bfbfbf" points="361.5,-0.5 361.5,-30.5 502.5,-30.5 502.5,-0.5 361.5,-0.5"/>
<text text-anchor="start" x="369.5" y="-18.5" font-family="Helvetica,sans-Serif" font-size="10.00">boost/dll/runtime_symbol</text>
<text text-anchor="middle" x="432" y="-7.5" font-family="Helvetica,sans-Serif" font-size="10.00">_info.hpp</text>
</a>
</g>
</g>
<!-- Node9&#45;&gt;Node15 -->
<g id="edge16" class="edge">
<title>Node9&#45;&gt;Node15</title>
<path fill="none" stroke="midnightblue" d="M236.85,-69.52C268.7,-60.87 326.24,-45.23 370.62,-33.18"/>
<polygon fill="midnightblue" stroke="midnightblue" points="371.72,-36.51 380.45,-30.51 369.88,-29.75 371.72,-36.51"/>
</g>
</g>
</svg>
