<?xml version="1.0" encoding="UTF-8" standalone="no"?>
<!DOCTYPE svg PUBLIC "-//W3C//DTD SVG 1.1//EN"
 "http://www.w3.org/Graphics/SVG/1.1/DTD/svg11.dtd">
<!-- Generated by graphviz version 2.43.0 (0)
 -->
<!-- Title: isFuncNoEnd Pages: 1 -->
<!--zoomable 236 -->
<svg id="main" version="1.1" xmlns="http://www.w3.org/2000/svg" xmlns:xlink="http://www.w3.org/1999/xlink" xml:space="preserve" onload="init(evt)">
<style type="text/css"><![CDATA[
.edge:hover path { stroke: red; }
.edge:hover polygon { stroke: red; fill: red; }
]]></style>
<script type="text/javascript"><![CDATA[
var edges = document.getElementsByTagName('g');
if (edges && edges.length) {
  for (var i=0;i<edges.length;i++) {
    if (edges[i].id.substr(0,4)=='edge') {
      edges[i].setAttribute('class','edge');
    }
  }
}
]]></script>
        <defs>
                <circle id="rim" cx="0" cy="0" r="7"/>
                <circle id="rim2" cx="0" cy="0" r="3.5"/>
                <g id="zoomPlus">
                        <use xlink:href="#rim" fill="#404040">
                                <set attributeName="fill" to="#808080" begin="zoomplus.mouseover" end="zoomplus.mouseout"/>
                        </use>
                        <path d="M-4,0h8M0,-4v8" fill="none" stroke="white" stroke-width="1.5" pointer-events="none"/>
                </g>
                <g id="zoomMin">
                        <use xlink:href="#rim" fill="#404040">
                                <set attributeName="fill" to="#808080" begin="zoomminus.mouseover" end="zoomminus.mouseout"/>
                        </use>
                        <path d="M-4,0h8" fill="none" stroke="white" stroke-width="1.5" pointer-events="none"/>
                </g>
                <g id="dirArrow">
                        <path fill="none" stroke="white" stroke-width="1.5" d="M0,-3.0v7 M-2.5,-0.5L0,-3.0L2.5,-0.5"/>
                </g>
               <g id="resetDef">
                       <use xlink:href="#rim2" fill="#404040">
                               <set attributeName="fill" to="#808080" begin="reset.mouseover" end="reset.mouseout"/>
                       </use>
               </g>
        </defs>

<script type="text/javascript">
var viewWidth = 1002;
var viewHeight = 236;
var sectionId = 'dynsection-9';
</script>
<script xlink:href="svgpan.js"/>
<svg id="graph" class="graph">
<g id="viewport">
<title>isFuncNoEnd</title>
<polygon fill="white" stroke="transparent" points="-4,4 -4,-232 998,-232 998,4 -4,4"/>
<!-- Node1 -->
<g id="node1" class="node">
<title>Node1</title>
<g id="a_node1"><a xlink:title=" ">
<polygon fill="#bfbfbf" stroke="black" points="915,-151.5 915,-170.5 994,-170.5 994,-151.5 915,-151.5"/>
<text text-anchor="middle" x="954.5" y="-158.5" font-family="Helvetica,sans-Serif" font-size="10.00">isFuncNoEnd</text>
</a>
</g>
</g>
<!-- Node2 -->
<g id="node2" class="node">
<title>Node2</title>
<g id="a_node2"><a xlink:href="functions_8h.html#a327f8ee07c785b0b6cb9f59b061effeb" target="_top" xlink:title=" ">
<polygon fill="white" stroke="black" points="812.5,-170.5 812.5,-189.5 859.5,-189.5 859.5,-170.5 812.5,-170.5"/>
<text text-anchor="middle" x="836" y="-177.5" font-family="Helvetica,sans-Serif" font-size="10.00">isFunc</text>
</a>
</g>
</g>
<!-- Node1&#45;&gt;Node2 -->
<g id="edge1" class="edge">
<title>Node1&#45;&gt;Node2</title>
<path fill="none" stroke="midnightblue" d="M904.63,-168.97C889.02,-171.52 872.48,-174.21 859.67,-176.3"/>
<polygon fill="midnightblue" stroke="midnightblue" points="905.4,-172.39 914.71,-167.33 904.27,-165.48 905.4,-172.39"/>
</g>
<!-- Node5 -->
<g id="node5" class="node">
<title>Node5</title>
<g id="a_node5"><a xlink:href="class_alg___line.html#a801b08c6c164376039a4ba4e980d039e" target="_top" xlink:title="Print Alg_Line contents (including return values, function names and parameters).">
<polygon fill="white" stroke="black" points="793,-132.5 793,-151.5 879,-151.5 879,-132.5 793,-132.5"/>
<text text-anchor="middle" x="836" y="-139.5" font-family="Helvetica,sans-Serif" font-size="10.00">Alg_Line::print</text>
</a>
</g>
</g>
<!-- Node1&#45;&gt;Node5 -->
<g id="edge5" class="edge">
<title>Node1&#45;&gt;Node5</title>
<path fill="none" stroke="midnightblue" d="M904.6,-153.03C896.17,-151.65 887.47,-150.23 879.23,-148.89"/>
<polygon fill="midnightblue" stroke="midnightblue" points="904.27,-156.52 914.71,-154.67 905.4,-149.61 904.27,-156.52"/>
</g>
<!-- Node3 -->
<g id="node3" class="node">
<title>Node3</title>
<g id="a_node3"><a xlink:href="class_alg___line.html#a0047f4df72a2d10ebb74701c3d05bafc" target="_top" xlink:title="Process function name and parameter variables.">
<polygon fill="white" stroke="black" points="592,-208.5 592,-227.5 757,-227.5 757,-208.5 592,-208.5"/>
<text text-anchor="middle" x="674.5" y="-215.5" font-family="Helvetica,sans-Serif" font-size="10.00">Alg_Line::_processFuncParams</text>
</a>
</g>
</g>
<!-- Node2&#45;&gt;Node3 -->
<g id="edge2" class="edge">
<title>Node2&#45;&gt;Node3</title>
<path fill="none" stroke="midnightblue" d="M802.69,-187.7C777.5,-193.7 742.39,-202.06 715.44,-208.49"/>
<polygon fill="midnightblue" stroke="midnightblue" points="803.57,-191.09 812.49,-185.36 801.95,-184.28 803.57,-191.09"/>
</g>
<!-- Node4 -->
<g id="node4" class="node">
<title>Node4</title>
<g id="a_node4"><a xlink:href="class_alg___line.html#a4f478c53dbfaecf16d55be668d959562" target="_top" xlink:title="Construct a new Alg_Line object. Process string at the same time.">
<polygon fill="white" stroke="black" points="445.5,-199.5 445.5,-218.5 550.5,-218.5 550.5,-199.5 445.5,-199.5"/>
<text text-anchor="middle" x="498" y="-206.5" font-family="Helvetica,sans-Serif" font-size="10.00">Alg_Line::Alg_Line</text>
</a>
</g>
</g>
<!-- Node2&#45;&gt;Node4 -->
<g id="edge4" class="edge">
<title>Node2&#45;&gt;Node4</title>
<path fill="none" stroke="midnightblue" d="M802.06,-182.27C755.31,-185.56 667.05,-192.03 592,-199 578.58,-200.25 564.09,-201.74 550.62,-203.18"/>
<polygon fill="midnightblue" stroke="midnightblue" points="802.47,-185.75 812.2,-181.56 801.98,-178.77 802.47,-185.75"/>
</g>
<!-- Node3&#45;&gt;Node4 -->
<g id="edge3" class="edge">
<title>Node3&#45;&gt;Node4</title>
<path fill="none" stroke="midnightblue" d="M581.67,-213.26C571.05,-212.72 560.51,-212.17 550.7,-211.67"/>
<polygon fill="midnightblue" stroke="midnightblue" points="581.7,-216.77 591.87,-213.79 582.06,-209.78 581.7,-216.77"/>
</g>
<!-- Node6 -->
<g id="node6" class="node">
<title>Node6</title>
<g id="a_node6"><a xlink:href="alg__line_8h.html#a4d39c3e11c2fdd9f013afbe1073d1b54" target="_top" xlink:title="Print Alg_Line contents (including return values, function names and parameters).">
<polygon fill="white" stroke="black" points="637.5,-132.5 637.5,-151.5 711.5,-151.5 711.5,-132.5 637.5,-132.5"/>
<text text-anchor="middle" x="674.5" y="-139.5" font-family="Helvetica,sans-Serif" font-size="10.00">operator&lt;&lt;</text>
</a>
</g>
</g>
<!-- Node5&#45;&gt;Node6 -->
<g id="edge6" class="edge">
<title>Node5&#45;&gt;Node6</title>
<path fill="none" stroke="midnightblue" d="M782.6,-142C759.32,-142 732.5,-142 711.53,-142"/>
<polygon fill="midnightblue" stroke="midnightblue" points="782.68,-145.5 792.68,-142 782.68,-138.5 782.68,-145.5"/>
</g>
<!-- Node7 -->
<g id="node7" class="node">
<title>Node7</title>
<g id="a_node7"><a xlink:href="class_alg.html#ada1e8215f047b4ffd736e811b5ea3162" target="_top" xlink:title=" ">
<polygon fill="white" stroke="black" points="643,-76.5 643,-95.5 706,-95.5 706,-76.5 643,-76.5"/>
<text text-anchor="middle" x="674.5" y="-83.5" font-family="Helvetica,sans-Serif" font-size="10.00">Alg::write</text>
</a>
</g>
</g>
<!-- Node5&#45;&gt;Node7 -->
<g id="edge7" class="edge">
<title>Node5&#45;&gt;Node7</title>
<path fill="none" stroke="midnightblue" d="M798.14,-129.06C768.95,-118.81 728.84,-104.73 702.56,-95.5"/>
<polygon fill="midnightblue" stroke="midnightblue" points="796.99,-132.36 807.58,-132.37 799.31,-125.76 796.99,-132.36"/>
</g>
<!-- Node7&#45;&gt;Node7 -->
<g id="edge20" class="edge">
<title>Node7&#45;&gt;Node7</title>
<path fill="none" stroke="midnightblue" d="M704.44,-104.27C703.59,-109.74 693.61,-114 674.5,-114 646.06,-114 637.84,-104.57 649.84,-95.76"/>
<polygon fill="midnightblue" stroke="midnightblue" points="707.4,-102.41 699.16,-95.76 701.45,-106.1 707.4,-102.41"/>
</g>
<!-- Node8 -->
<g id="node8" class="node">
<title>Node8</title>
<g id="a_node8"><a xlink:href="class_export.html#a89d3ae54dd2261cf35be148011b79fe4" target="_top" xlink:title=" ">
<polygon fill="white" stroke="black" points="292,-114.5 292,-133.5 404,-133.5 404,-114.5 292,-114.5"/>
<text text-anchor="middle" x="348" y="-121.5" font-family="Helvetica,sans-Serif" font-size="10.00">Export::_algorithms</text>
</a>
</g>
</g>
<!-- Node7&#45;&gt;Node8 -->
<g id="edge8" class="edge">
<title>Node7&#45;&gt;Node8</title>
<path fill="none" stroke="midnightblue" d="M641.67,-99.73C626.49,-106.46 608.17,-114.86 592,-123 575.65,-131.23 573.72,-138.41 556,-143 495.39,-158.71 421.85,-144.4 380.75,-133.54"/>
<polygon fill="midnightblue" stroke="midnightblue" points="643.39,-102.8 651.13,-95.57 640.57,-96.39 643.39,-102.8"/>
</g>
<!-- Node12 -->
<g id="node12" class="node">
<title>Node12</title>
<g id="a_node12"><a xlink:href="class_export.html#ae4811e1e4212029122c0ee29613714cc" target="_top" xlink:title=" ">
<polygon fill="white" stroke="black" points="442,-76.5 442,-95.5 554,-95.5 554,-76.5 442,-76.5"/>
<text text-anchor="middle" x="498" y="-83.5" font-family="Helvetica,sans-Serif" font-size="10.00">Export::_estimation</text>
</a>
</g>
</g>
<!-- Node7&#45;&gt;Node12 -->
<g id="edge12" class="edge">
<title>Node7&#45;&gt;Node12</title>
<path fill="none" stroke="midnightblue" d="M632.45,-86C609.09,-86 579.52,-86 554.16,-86"/>
<polygon fill="midnightblue" stroke="midnightblue" points="632.7,-89.5 642.7,-86 632.7,-82.5 632.7,-89.5"/>
</g>
<!-- Node13 -->
<g id="node13" class="node">
<title>Node13</title>
<g id="a_node13"><a xlink:href="class_export.html#a26fa49d9882a342d011ba715e0c14109" target="_top" xlink:title=" ">
<polygon fill="white" stroke="black" points="296,-57.5 296,-76.5 400,-76.5 400,-57.5 296,-57.5"/>
<text text-anchor="middle" x="348" y="-64.5" font-family="Helvetica,sans-Serif" font-size="10.00">Export::_sounding</text>
</a>
</g>
</g>
<!-- Node7&#45;&gt;Node13 -->
<g id="edge19" class="edge">
<title>Node7&#45;&gt;Node13</title>
<path fill="none" stroke="midnightblue" d="M632.84,-77.78C610.31,-73.64 581.72,-69.07 556,-67 502.98,-62.74 442.08,-63.41 400.13,-64.73"/>
<polygon fill="midnightblue" stroke="midnightblue" points="632.27,-81.23 642.74,-79.64 633.56,-74.35 632.27,-81.23"/>
</g>
<!-- Node14 -->
<g id="node14" class="node">
<title>Node14</title>
<g id="a_node14"><a xlink:href="class_export.html#a59ba705b2369f21006ec7d7b7f3a4513" target="_top" xlink:title="Generate RIS reflection matrices.">
<polygon fill="white" stroke="black" points="440,-0.5 440,-19.5 556,-19.5 556,-0.5 440,-0.5"/>
<text text-anchor="middle" x="498" y="-7.5" font-family="Helvetica,sans-Serif" font-size="10.00">Export::_generateBF</text>
</a>
</g>
</g>
<!-- Node7&#45;&gt;Node14 -->
<g id="edge15" class="edge">
<title>Node7&#45;&gt;Node14</title>
<path fill="none" stroke="midnightblue" d="M643.14,-72.39C619.46,-61.81 585.7,-46.82 556,-34 544.86,-29.19 532.45,-23.95 522.06,-19.6"/>
<polygon fill="midnightblue" stroke="midnightblue" points="641.77,-75.6 652.32,-76.49 644.62,-69.21 641.77,-75.6"/>
</g>
<!-- Node15 -->
<g id="node15" class="node">
<title>Node15</title>
<g id="a_node15"><a xlink:href="class_export.html#a833aa02973f6b5c1f3e536e8646cf1ac" target="_top" xlink:title=" ">
<polygon fill="white" stroke="black" points="448,-114.5 448,-133.5 548,-133.5 548,-114.5 448,-114.5"/>
<text text-anchor="middle" x="498" y="-121.5" font-family="Helvetica,sans-Serif" font-size="10.00">Export::_loadALG</text>
</a>
</g>
</g>
<!-- Node7&#45;&gt;Node15 -->
<g id="edge17" class="edge">
<title>Node7&#45;&gt;Node15</title>
<path fill="none" stroke="midnightblue" d="M632.82,-94.86C605.86,-100.73 570.51,-108.43 542.91,-114.44"/>
<polygon fill="midnightblue" stroke="midnightblue" points="633.68,-98.25 642.7,-92.71 632.19,-91.41 633.68,-98.25"/>
</g>
<!-- Node9 -->
<g id="node9" class="node">
<title>Node9</title>
<g id="a_node9"><a xlink:href="class_export.html#affc37d1d677a83d3e5d36a4e37b7a72b" target="_top" xlink:title=" ">
<polygon fill="white" stroke="black" points="146,-95.5 146,-114.5 256,-114.5 256,-95.5 146,-95.5"/>
<text text-anchor="middle" x="201" y="-102.5" font-family="Helvetica,sans-Serif" font-size="10.00">Export::exportCode</text>
</a>
</g>
</g>
<!-- Node8&#45;&gt;Node9 -->
<g id="edge9" class="edge">
<title>Node8&#45;&gt;Node9</title>
<path fill="none" stroke="midnightblue" d="M281.79,-115.45C273.21,-114.33 264.49,-113.19 256.12,-112.09"/>
<polygon fill="midnightblue" stroke="midnightblue" points="281.4,-118.93 291.77,-116.76 282.31,-111.99 281.4,-118.93"/>
</g>
<!-- Node10 -->
<g id="node10" class="node">
<title>Node10</title>
<g id="a_node10"><a xlink:href="class_export.html#a94fab568af6ddd6447efca74e205e081" target="_top" xlink:title=" ">
<polygon fill="white" stroke="black" points="0,-114.5 0,-133.5 110,-133.5 110,-114.5 0,-114.5"/>
<text text-anchor="middle" x="55" y="-121.5" font-family="Helvetica,sans-Serif" font-size="10.00">Export::exportCode</text>
</a>
</g>
</g>
<!-- Node9&#45;&gt;Node10 -->
<g id="edge10" class="edge">
<title>Node9&#45;&gt;Node10</title>
<path fill="none" stroke="midnightblue" d="M136.01,-113.44C127.44,-114.57 118.72,-115.73 110.33,-116.83"/>
<polygon fill="midnightblue" stroke="midnightblue" points="136.51,-116.91 145.97,-112.13 135.6,-109.97 136.51,-116.91"/>
</g>
<!-- Node11 -->
<g id="node11" class="node">
<title>Node11</title>
<g id="a_node11"><a xlink:href="src_2main_8cpp.html#a0ddf1224851353fc92bfbff6f499fa97" target="_top" xlink:title=" ">
<polygon fill="white" stroke="black" points="34.5,-76.5 34.5,-95.5 75.5,-95.5 75.5,-76.5 34.5,-76.5"/>
<text text-anchor="middle" x="55" y="-83.5" font-family="Helvetica,sans-Serif" font-size="10.00">main</text>
</a>
</g>
</g>
<!-- Node9&#45;&gt;Node11 -->
<g id="edge11" class="edge">
<title>Node9&#45;&gt;Node11</title>
<path fill="none" stroke="midnightblue" d="M136.05,-96.56C114.24,-93.68 91.43,-90.67 75.76,-88.61"/>
<polygon fill="midnightblue" stroke="midnightblue" points="135.6,-100.03 145.97,-97.87 136.51,-93.09 135.6,-100.03"/>
</g>
<!-- Node12&#45;&gt;Node13 -->
<g id="edge13" class="edge">
<title>Node12&#45;&gt;Node13</title>
<path fill="none" stroke="midnightblue" d="M431.85,-77.64C421.26,-76.28 410.43,-74.89 400.24,-73.58"/>
<polygon fill="midnightblue" stroke="midnightblue" points="431.53,-81.12 441.89,-78.93 432.42,-74.18 431.53,-81.12"/>
</g>
<!-- Node13&#45;&gt;Node9 -->
<g id="edge14" class="edge">
<title>Node13&#45;&gt;Node9</title>
<path fill="none" stroke="midnightblue" d="M300.51,-79.18C280.38,-84.46 257.16,-90.54 238.33,-95.48"/>
<polygon fill="midnightblue" stroke="midnightblue" points="301.62,-82.51 310.41,-76.59 299.85,-75.74 301.62,-82.51"/>
</g>
<!-- Node14&#45;&gt;Node13 -->
<g id="edge16" class="edge">
<title>Node14&#45;&gt;Node13</title>
<path fill="none" stroke="midnightblue" d="M462.72,-23.2C435.54,-33.67 398.21,-48.05 373.85,-57.43"/>
<polygon fill="midnightblue" stroke="midnightblue" points="464.15,-26.4 472.23,-19.54 461.64,-19.87 464.15,-26.4"/>
</g>
<!-- Node15&#45;&gt;Node8 -->
<g id="edge18" class="edge">
<title>Node15&#45;&gt;Node8</title>
<path fill="none" stroke="midnightblue" d="M437.71,-124C426.65,-124 415.13,-124 404.19,-124"/>
<polygon fill="midnightblue" stroke="midnightblue" points="437.72,-127.5 447.72,-124 437.72,-120.5 437.72,-127.5"/>
</g>
</g>
</svg>
        <g id="navigator" transform="translate(0 0)" fill="#404254">
                <rect fill="#f2f5e9" fill-opacity="0.5" stroke="#606060" stroke-width=".5" x="0" y="0" width="60" height="60"/>
                <use id="zoomplus" xlink:href="#zoomPlus" x="17" y="9" onmousedown="handleZoom(evt,'in')"/>
                <use id="zoomminus" xlink:href="#zoomMin" x="42" y="9" onmousedown="handleZoom(evt,'out')"/>
                <use id="reset" xlink:href="#resetDef" x="30" y="36" onmousedown="handleReset()"/>
                <g id="arrowUp" xlink:href="#dirArrow" transform="translate(30 24)" onmousedown="handlePan(0,-1)">
                  <use xlink:href="#rim" fill="#404040">
                        <set attributeName="fill" to="#808080" begin="arrowUp.mouseover" end="arrowUp.mouseout"/>
                  </use>
                  <path fill="none" stroke="white" stroke-width="1.5" d="M0,-3.0v7 M-2.5,-0.5L0,-3.0L2.5,-0.5"/>
                </g>
                <g id="arrowRight" xlink:href="#dirArrow" transform="rotate(90) translate(36 -43)" onmousedown="handlePan(1,0)">
                  <use xlink:href="#rim" fill="#404040">
                        <set attributeName="fill" to="#808080" begin="arrowRight.mouseover" end="arrowRight.mouseout"/>
                  </use>
                  <path fill="none" stroke="white" stroke-width="1.5" d="M0,-3.0v7 M-2.5,-0.5L0,-3.0L2.5,-0.5"/>
                </g>
                <g id="arrowDown" xlink:href="#dirArrow" transform="rotate(180) translate(-30 -48)" onmousedown="handlePan(0,1)">
                  <use xlink:href="#rim" fill="#404040">
                        <set attributeName="fill" to="#808080" begin="arrowDown.mouseover" end="arrowDown.mouseout"/>
                  </use>
                  <path fill="none" stroke="white" stroke-width="1.5" d="M0,-3.0v7 M-2.5,-0.5L0,-3.0L2.5,-0.5"/>
                </g>
                <g id="arrowLeft" xlink:href="#dirArrow" transform="rotate(270) translate(-36 17)" onmousedown="handlePan(-1,0)">
                  <use xlink:href="#rim" fill="#404040">
                        <set attributeName="fill" to="#808080" begin="arrowLeft.mouseover" end="arrowLeft.mouseout"/>
                  </use>
                  <path fill="none" stroke="white" stroke-width="1.5" d="M0,-3.0v7 M-2.5,-0.5L0,-3.0L2.5,-0.5"/>
                </g>
        </g>
        <svg viewBox="0 0 15 15" width="100%" height="30px" preserveAspectRatio="xMaxYMin meet">
         <g id="arrow_out" transform="scale(0.3 0.3)">
          <a xlink:href="functions_8h_ac9dc58cb94b7547813c3a35154d97d18_icgraph_org.svg" target="_base">
           <rect id="button" ry="5" rx="5" y="6" x="6" height="38" width="38"
                fill="#f2f5e9" fill-opacity="0.5" stroke="#606060" stroke-width="1.0"/>
           <path id="arrow"
             d="M 11.500037,31.436501 C 11.940474,20.09759 22.043105,11.32322 32.158766,21.979434 L 37.068811,17.246167 C 37.068811,17.246167 37.088388,32 37.088388,32 L 22.160133,31.978069 C 22.160133,31.978069 26.997745,27.140456 26.997745,27.140456 C 18.528582,18.264221 13.291696,25.230495 11.500037,31.436501 z"
             style="fill:#404040;"/>
          </a>
         </g>
        </svg>
</svg>
