<?xml version="1.0" encoding="UTF-8" standalone="no"?>
<!DOCTYPE svg PUBLIC "-//W3C//DTD SVG 1.1//EN"
 "http://www.w3.org/Graphics/SVG/1.1/DTD/svg11.dtd">
<!-- Generated by graphviz version 2.43.0 (0)
 -->
<!-- Title: isFuncNeedsEnd Pages: 1 -->
<svg width="593pt" height="85pt"
 viewBox="0.00 0.00 593.00 85.00" xmlns="http://www.w3.org/2000/svg" xmlns:xlink="http://www.w3.org/1999/xlink">
<g id="graph0" class="graph" transform="scale(1 1) rotate(0) translate(4 81)">
<title>isFuncNeedsEnd</title>
<polygon fill="white" stroke="transparent" points="-4,4 -4,-81 589,-81 589,4 -4,4"/>
<!-- Node1 -->
<g id="node1" class="node">
<title>Node1</title>
<g id="a_node1"><a xlink:title=" ">
<polygon fill="#bfbfbf" stroke="black" points="489,-19.5 489,-38.5 585,-38.5 585,-19.5 489,-19.5"/>
<text text-anchor="middle" x="537" y="-26.5" font-family="Helvetica,sans-Serif" font-size="10.00">isFuncNeedsEnd</text>
</a>
</g>
</g>
<!-- Node2 -->
<g id="node2" class="node">
<title>Node2</title>
<g id="a_node2"><a xlink:href="functions_8h.html#a327f8ee07c785b0b6cb9f59b061effeb" target="_top" xlink:title=" ">
<polygon fill="white" stroke="black" points="374,-38.5 374,-57.5 421,-57.5 421,-38.5 374,-38.5"/>
<text text-anchor="middle" x="397.5" y="-45.5" font-family="Helvetica,sans-Serif" font-size="10.00">isFunc</text>
</a>
</g>
</g>
<!-- Node1&#45;&gt;Node2 -->
<g id="edge1" class="edge">
<title>Node1&#45;&gt;Node2</title>
<path fill="none" stroke="midnightblue" d="M478.59,-36.93C458.39,-39.72 436.85,-42.7 421.2,-44.86"/>
<polygon fill="midnightblue" stroke="midnightblue" points="479.25,-40.37 488.68,-35.54 478.3,-33.44 479.25,-40.37"/>
</g>
<!-- Node5 -->
<g id="node5" class="node">
<title>Node5</title>
<g id="a_node5"><a xlink:href="class_alg___line.html#a4f65896bbb51e609fabe47a4f5f3c710" target="_top" xlink:title="Test whether the function name needs an &#39;end&#39;.">
<polygon fill="white" stroke="black" points="342,-0.5 342,-19.5 453,-19.5 453,-0.5 342,-0.5"/>
<text text-anchor="middle" x="397.5" y="-7.5" font-family="Helvetica,sans-Serif" font-size="10.00">Alg_Line::needsEnd</text>
</a>
</g>
</g>
<!-- Node1&#45;&gt;Node5 -->
<g id="edge5" class="edge">
<title>Node1&#45;&gt;Node5</title>
<path fill="none" stroke="midnightblue" d="M478.66,-21.08C470.33,-19.93 461.76,-18.74 453.48,-17.6"/>
<polygon fill="midnightblue" stroke="midnightblue" points="478.3,-24.56 488.68,-22.46 479.25,-17.63 478.3,-24.56"/>
</g>
<!-- Node3 -->
<g id="node3" class="node">
<title>Node3</title>
<g id="a_node3"><a xlink:href="class_alg___line.html#a0047f4df72a2d10ebb74701c3d05bafc" target="_top" xlink:title="Process function name and parameter variables.">
<polygon fill="white" stroke="black" points="141,-57.5 141,-76.5 306,-76.5 306,-57.5 141,-57.5"/>
<text text-anchor="middle" x="223.5" y="-64.5" font-family="Helvetica,sans-Serif" font-size="10.00">Alg_Line::_processFuncParams</text>
</a>
</g>
</g>
<!-- Node2&#45;&gt;Node3 -->
<g id="edge2" class="edge">
<title>Node2&#45;&gt;Node3</title>
<path fill="none" stroke="midnightblue" d="M363.55,-51.64C347.17,-53.45 326.57,-55.72 306.29,-57.96"/>
<polygon fill="midnightblue" stroke="midnightblue" points="364.1,-55.1 373.66,-50.52 363.34,-48.14 364.1,-55.1"/>
</g>
<!-- Node4 -->
<g id="node4" class="node">
<title>Node4</title>
<g id="a_node4"><a xlink:href="class_alg___line.html#a4f478c53dbfaecf16d55be668d959562" target="_top" xlink:title="Construct a new Alg_Line object. Process string at the same time.">
<polygon fill="white" stroke="black" points="0,-38.5 0,-57.5 105,-57.5 105,-38.5 0,-38.5"/>
<text text-anchor="middle" x="52.5" y="-45.5" font-family="Helvetica,sans-Serif" font-size="10.00">Alg_Line::Alg_Line</text>
</a>
</g>
</g>
<!-- Node2&#45;&gt;Node4 -->
<g id="edge4" class="edge">
<title>Node2&#45;&gt;Node4</title>
<path fill="none" stroke="midnightblue" d="M363.63,-48C303.77,-48 176.57,-48 105.07,-48"/>
<polygon fill="midnightblue" stroke="midnightblue" points="363.99,-51.5 373.99,-48 363.99,-44.5 363.99,-51.5"/>
</g>
<!-- Node3&#45;&gt;Node4 -->
<g id="edge3" class="edge">
<title>Node3&#45;&gt;Node4</title>
<path fill="none" stroke="midnightblue" d="M131,-56.71C122.19,-55.72 113.49,-54.74 105.27,-53.82"/>
<polygon fill="midnightblue" stroke="midnightblue" points="130.64,-60.19 140.97,-57.83 131.42,-53.24 130.64,-60.19"/>
</g>
</g>
</svg>
