<?xml version="1.0" encoding="UTF-8" standalone="no"?>
<!DOCTYPE svg PUBLIC "-//W3C//DTD SVG 1.1//EN"
 "http://www.w3.org/Graphics/SVG/1.1/DTD/svg11.dtd">
<!-- Generated by graphviz version 2.43.0 (0)
 -->
<!-- Title: isFuncIsEnd Pages: 1 -->
<svg width="550pt" height="66pt"
 viewBox="0.00 0.00 550.00 66.00" xmlns="http://www.w3.org/2000/svg" xmlns:xlink="http://www.w3.org/1999/xlink">
<g id="graph0" class="graph" transform="scale(1 1) rotate(0) translate(4 62)">
<title>isFuncIsEnd</title>
<polygon fill="white" stroke="transparent" points="-4,4 -4,-62 546,-62 546,4 -4,4"/>
<!-- Node1 -->
<g id="node1" class="node">
<title>Node1</title>
<g id="a_node1"><a xlink:title=" ">
<polygon fill="#bfbfbf" stroke="black" points="468,-19.5 468,-38.5 542,-38.5 542,-19.5 468,-19.5"/>
<text text-anchor="middle" x="505" y="-26.5" font-family="Helvetica,sans-Serif" font-size="10.00">isFuncIsEnd</text>
</a>
</g>
</g>
<!-- Node2 -->
<g id="node2" class="node">
<title>Node2</title>
<g id="a_node2"><a xlink:href="class_alg___line.html#ae47ca250987c0b3e08587892448bc4c0" target="_top" xlink:title="Test whether the function name serves as an &#39;end&#39;.">
<polygon fill="white" stroke="black" points="342,-38.5 342,-57.5 432,-57.5 432,-38.5 342,-38.5"/>
<text text-anchor="middle" x="387" y="-45.5" font-family="Helvetica,sans-Serif" font-size="10.00">Alg_Line::isEnd</text>
</a>
</g>
</g>
<!-- Node1&#45;&gt;Node2 -->
<g id="edge1" class="edge">
<title>Node1&#45;&gt;Node2</title>
<path fill="none" stroke="midnightblue" d="M457.85,-36.56C449.4,-37.94 440.6,-39.38 432.21,-40.76"/>
<polygon fill="midnightblue" stroke="midnightblue" points="458.63,-39.98 467.93,-34.91 457.5,-33.07 458.63,-39.98"/>
</g>
<!-- Node3 -->
<g id="node3" class="node">
<title>Node3</title>
<g id="a_node3"><a xlink:href="functions_8h.html#a327f8ee07c785b0b6cb9f59b061effeb" target="_top" xlink:title=" ">
<polygon fill="white" stroke="black" points="363.5,-0.5 363.5,-19.5 410.5,-19.5 410.5,-0.5 363.5,-0.5"/>
<text text-anchor="middle" x="387" y="-7.5" font-family="Helvetica,sans-Serif" font-size="10.00">isFunc</text>
</a>
</g>
</g>
<!-- Node1&#45;&gt;Node3 -->
<g id="edge2" class="edge">
<title>Node1&#45;&gt;Node3</title>
<path fill="none" stroke="midnightblue" d="M457.99,-21.46C441.68,-18.79 424.03,-15.9 410.54,-13.69"/>
<polygon fill="midnightblue" stroke="midnightblue" points="457.5,-24.93 467.93,-23.09 458.63,-18.02 457.5,-24.93"/>
</g>
<!-- Node4 -->
<g id="node4" class="node">
<title>Node4</title>
<g id="a_node4"><a xlink:href="class_alg___line.html#a0047f4df72a2d10ebb74701c3d05bafc" target="_top" xlink:title="Process function name and parameter variables.">
<polygon fill="white" stroke="black" points="141,-19.5 141,-38.5 306,-38.5 306,-19.5 141,-19.5"/>
<text text-anchor="middle" x="223.5" y="-26.5" font-family="Helvetica,sans-Serif" font-size="10.00">Alg_Line::_processFuncParams</text>
</a>
</g>
</g>
<!-- Node3&#45;&gt;Node4 -->
<g id="edge3" class="edge">
<title>Node3&#45;&gt;Node4</title>
<path fill="none" stroke="midnightblue" d="M353.2,-13.86C339.3,-15.49 322.42,-17.48 305.53,-19.47"/>
<polygon fill="midnightblue" stroke="midnightblue" points="353.68,-17.33 363.2,-12.68 352.86,-10.37 353.68,-17.33"/>
</g>
<!-- Node5 -->
<g id="node5" class="node">
<title>Node5</title>
<g id="a_node5"><a xlink:href="class_alg___line.html#a4f478c53dbfaecf16d55be668d959562" target="_top" xlink:title="Construct a new Alg_Line object. Process string at the same time.">
<polygon fill="white" stroke="black" points="0,-0.5 0,-19.5 105,-19.5 105,-0.5 0,-0.5"/>
<text text-anchor="middle" x="52.5" y="-7.5" font-family="Helvetica,sans-Serif" font-size="10.00">Alg_Line::Alg_Line</text>
</a>
</g>
</g>
<!-- Node3&#45;&gt;Node5 -->
<g id="edge5" class="edge">
<title>Node3&#45;&gt;Node5</title>
<path fill="none" stroke="midnightblue" d="M353.35,-10C295.43,-10 174.27,-10 105,-10"/>
<polygon fill="midnightblue" stroke="midnightblue" points="353.41,-13.5 363.41,-10 353.41,-6.5 353.41,-13.5"/>
</g>
<!-- Node4&#45;&gt;Node5 -->
<g id="edge4" class="edge">
<title>Node4&#45;&gt;Node5</title>
<path fill="none" stroke="midnightblue" d="M131,-18.71C122.19,-17.72 113.49,-16.74 105.27,-15.82"/>
<polygon fill="midnightblue" stroke="midnightblue" points="130.64,-22.19 140.97,-19.83 131.42,-15.24 130.64,-22.19"/>
</g>
</g>
</svg>
