<?xml version="1.0" encoding="UTF-8" standalone="no"?>
<!DOCTYPE svg PUBLIC "-//W3C//DTD SVG 1.1//EN"
 "http://www.w3.org/Graphics/SVG/1.1/DTD/svg11.dtd">
<!-- Generated by graphviz version 2.43.0 (0)
 -->
<!-- Title: include/export/functions.h Pages: 1 -->
<svg width="573pt" height="151pt"
 viewBox="0.00 0.00 573.00 151.00" xmlns="http://www.w3.org/2000/svg" xmlns:xlink="http://www.w3.org/1999/xlink">
<g id="graph0" class="graph" transform="scale(1 1) rotate(0) translate(4 147)">
<title>include/export/functions.h</title>
<polygon fill="white" stroke="transparent" points="-4,4 -4,-147 569,-147 569,4 -4,4"/>
<!-- Node1 -->
<g id="node1" class="node">
<title>Node1</title>
<g id="a_node1"><a xlink:title="Function Lists.">
<polygon fill="#bfbfbf" stroke="black" points="368.5,-123.5 368.5,-142.5 511.5,-142.5 511.5,-123.5 368.5,-123.5"/>
<text text-anchor="middle" x="440" y="-130.5" font-family="Helvetica,sans-Serif" font-size="10.00">include/export/functions.h</text>
</a>
</g>
</g>
<!-- Node2 -->
<g id="node2" class="node">
<title>Node2</title>
<g id="a_node2"><a xlink:href="utils_8h.html" target="_top" xlink:title="Utilities.">
<polygon fill="white" stroke="black" points="261.5,-67.5 261.5,-86.5 308.5,-86.5 308.5,-67.5 261.5,-67.5"/>
<text text-anchor="middle" x="285" y="-74.5" font-family="Helvetica,sans-Serif" font-size="10.00">utils.h</text>
</a>
</g>
</g>
<!-- Node1&#45;&gt;Node2 -->
<g id="edge1" class="edge">
<title>Node1&#45;&gt;Node2</title>
<path fill="none" stroke="midnightblue" d="M415.44,-123.44C389.25,-114.32 347.6,-99.81 318.43,-89.65"/>
<polygon fill="midnightblue" stroke="midnightblue" points="319.28,-86.24 308.68,-86.25 316.97,-92.85 319.28,-86.24"/>
</g>
<!-- Node7 -->
<g id="node7" class="node">
<title>Node7</title>
<g id="a_node7"><a xlink:title=" ">
<polygon fill="white" stroke="#bfbfbf" points="521,-6 521,-25 565,-25 565,-6 521,-6"/>
<text text-anchor="middle" x="543" y="-13" font-family="Helvetica,sans-Serif" font-size="10.00">string</text>
</a>
</g>
</g>
<!-- Node1&#45;&gt;Node7 -->
<g id="edge10" class="edge">
<title>Node1&#45;&gt;Node7</title>
<path fill="none" stroke="midnightblue" d="M440.57,-123.09C441.84,-109.65 445.93,-83.94 459,-67 466.88,-56.79 494.87,-40.97 516.4,-29.76"/>
<polygon fill="midnightblue" stroke="midnightblue" points="518.15,-32.79 525.45,-25.12 514.95,-26.57 518.15,-32.79"/>
</g>
<!-- Node10 -->
<g id="node10" class="node">
<title>Node10</title>
<g id="a_node10"><a xlink:title=" ">
<polygon fill="white" stroke="#bfbfbf" points="468,-67.5 468,-86.5 510,-86.5 510,-67.5 468,-67.5"/>
<text text-anchor="middle" x="489" y="-74.5" font-family="Helvetica,sans-Serif" font-size="10.00">array</text>
</a>
</g>
</g>
<!-- Node1&#45;&gt;Node10 -->
<g id="edge9" class="edge">
<title>Node1&#45;&gt;Node10</title>
<path fill="none" stroke="midnightblue" d="M448.09,-123.08C455.16,-115.3 465.59,-103.8 474.15,-94.37"/>
<polygon fill="midnightblue" stroke="midnightblue" points="476.93,-96.51 481.06,-86.75 471.75,-91.8 476.93,-96.51"/>
</g>
<!-- Node3 -->
<g id="node3" class="node">
<title>Node3</title>
<g id="a_node3"><a xlink:title=" ">
<polygon fill="white" stroke="#bfbfbf" points="0,-6 0,-25 64,-25 64,-6 0,-6"/>
<text text-anchor="middle" x="32" y="-13" font-family="Helvetica,sans-Serif" font-size="10.00">algorithm</text>
</a>
</g>
</g>
<!-- Node2&#45;&gt;Node3 -->
<g id="edge2" class="edge">
<title>Node2&#45;&gt;Node3</title>
<path fill="none" stroke="midnightblue" d="M261.23,-72C221.75,-65.13 140.36,-49.97 73,-31 70.04,-30.17 66.99,-29.23 63.95,-28.25"/>
<polygon fill="midnightblue" stroke="midnightblue" points="64.98,-24.91 54.39,-25.01 62.74,-31.54 64.98,-24.91"/>
</g>
<!-- Node4 -->
<g id="node4" class="node">
<title>Node4</title>
<g id="a_node4"><a xlink:title=" ">
<polygon fill="white" stroke="#bfbfbf" points="82.5,-6 82.5,-25 131.5,-25 131.5,-6 82.5,-6"/>
<text text-anchor="middle" x="107" y="-13" font-family="Helvetica,sans-Serif" font-size="10.00">cctype</text>
</a>
</g>
</g>
<!-- Node2&#45;&gt;Node4 -->
<g id="edge3" class="edge">
<title>Node2&#45;&gt;Node4</title>
<path fill="none" stroke="midnightblue" d="M261.31,-69.39C232.57,-61.19 182.78,-46.39 141,-31 139.34,-30.39 137.65,-29.74 135.95,-29.08"/>
<polygon fill="midnightblue" stroke="midnightblue" points="136.86,-25.67 126.28,-25.12 134.21,-32.15 136.86,-25.67"/>
</g>
<!-- Node5 -->
<g id="node5" class="node">
<title>Node5</title>
<g id="a_node5"><a xlink:title=" ">
<polygon fill="white" stroke="#bfbfbf" points="150,-6 150,-25 204,-25 204,-6 150,-6"/>
<text text-anchor="middle" x="177" y="-13" font-family="Helvetica,sans-Serif" font-size="10.00">random</text>
</a>
</g>
</g>
<!-- Node2&#45;&gt;Node5 -->
<g id="edge4" class="edge">
<title>Node2&#45;&gt;Node5</title>
<path fill="none" stroke="midnightblue" d="M269.53,-67.48C251.72,-57.67 222.26,-41.43 201.37,-29.92"/>
<polygon fill="midnightblue" stroke="midnightblue" points="202.89,-26.77 192.45,-25.01 199.51,-32.9 202.89,-26.77"/>
</g>
<!-- Node6 -->
<g id="node6" class="node">
<title>Node6</title>
<g id="a_node6"><a xlink:title=" ">
<polygon fill="white" stroke="#bfbfbf" points="222,-6 222,-25 278,-25 278,-6 222,-6"/>
<text text-anchor="middle" x="250" y="-13" font-family="Helvetica,sans-Serif" font-size="10.00">sstream</text>
</a>
</g>
</g>
<!-- Node2&#45;&gt;Node6 -->
<g id="edge5" class="edge">
<title>Node2&#45;&gt;Node6</title>
<path fill="none" stroke="midnightblue" d="M279.99,-67.48C274.84,-58.73 266.69,-44.87 260.18,-33.81"/>
<polygon fill="midnightblue" stroke="midnightblue" points="263.09,-31.85 255.01,-25.01 257.06,-35.4 263.09,-31.85"/>
</g>
<!-- Node2&#45;&gt;Node7 -->
<g id="edge6" class="edge">
<title>Node2&#45;&gt;Node7</title>
<path fill="none" stroke="midnightblue" d="M308.68,-73.22C350.5,-67.9 439.84,-54.64 512,-31 513.67,-30.45 515.37,-29.84 517.06,-29.18"/>
<polygon fill="midnightblue" stroke="midnightblue" points="518.77,-32.26 526.57,-25.09 516,-25.83 518.77,-32.26"/>
</g>
<!-- Node8 -->
<g id="node8" class="node">
<title>Node8</title>
<g id="a_node8"><a xlink:title=" ">
<polygon fill="white" stroke="#bfbfbf" points="296.5,-6 296.5,-25 343.5,-25 343.5,-6 296.5,-6"/>
<text text-anchor="middle" x="320" y="-13" font-family="Helvetica,sans-Serif" font-size="10.00">vector</text>
</a>
</g>
</g>
<!-- Node2&#45;&gt;Node8 -->
<g id="edge7" class="edge">
<title>Node2&#45;&gt;Node8</title>
<path fill="none" stroke="midnightblue" d="M290.01,-67.48C295.16,-58.73 303.31,-44.87 309.82,-33.81"/>
<polygon fill="midnightblue" stroke="midnightblue" points="312.94,-35.4 314.99,-25.01 306.91,-31.85 312.94,-35.4"/>
</g>
<!-- Node9 -->
<g id="node9" class="node">
<title>Node9</title>
<g id="a_node9"><a xlink:title=" ">
<polygon fill="white" stroke="#bfbfbf" points="361.5,-0.5 361.5,-30.5 502.5,-30.5 502.5,-0.5 361.5,-0.5"/>
<text text-anchor="start" x="369.5" y="-18.5" font-family="Helvetica,sans-Serif" font-size="10.00">boost/dll/runtime_symbol</text>
<text text-anchor="middle" x="432" y="-7.5" font-family="Helvetica,sans-Serif" font-size="10.00">_info.hpp</text>
</a>
</g>
</g>
<!-- Node2&#45;&gt;Node9 -->
<g id="edge8" class="edge">
<title>Node2&#45;&gt;Node9</title>
<path fill="none" stroke="midnightblue" d="M306.06,-67.48C327.37,-58.85 360.94,-45.26 388.06,-34.29"/>
<polygon fill="midnightblue" stroke="midnightblue" points="389.4,-37.52 397.36,-30.52 386.77,-31.03 389.4,-37.52"/>
</g>
</g>
</svg>
