<?xml version="1.0" encoding="UTF-8" standalone="no"?>
<!DOCTYPE svg PUBLIC "-//W3C//DTD SVG 1.1//EN"
 "http://www.w3.org/Graphics/SVG/1.1/DTD/svg11.dtd">
<!-- Generated by graphviz version 2.43.0 (0)
 -->
<!-- Title: include/export/functions.h Pages: 1 -->
<svg width="912pt" height="151pt"
 viewBox="0.00 0.00 912.00 151.00" xmlns="http://www.w3.org/2000/svg" xmlns:xlink="http://www.w3.org/1999/xlink">
<g id="graph0" class="graph" transform="scale(1 1) rotate(0) translate(4 147)">
<title>include/export/functions.h</title>
<polygon fill="white" stroke="transparent" points="-4,4 -4,-147 908,-147 908,4 -4,4"/>
<!-- Node1 -->
<g id="node1" class="node">
<title>Node1</title>
<g id="a_node1"><a xlink:title="Function Lists.">
<polygon fill="#bfbfbf" stroke="black" points="275.5,-123.5 275.5,-142.5 418.5,-142.5 418.5,-123.5 275.5,-123.5"/>
<text text-anchor="middle" x="347" y="-130.5" font-family="Helvetica,sans-Serif" font-size="10.00">include/export/functions.h</text>
</a>
</g>
</g>
<!-- Node2 -->
<g id="node2" class="node">
<title>Node2</title>
<g id="a_node2"><a xlink:href="utils_8h.html" target="_top" xlink:title="Utilities.">
<polygon fill="white" stroke="black" points="323.5,-67.5 323.5,-86.5 370.5,-86.5 370.5,-67.5 323.5,-67.5"/>
<text text-anchor="middle" x="347" y="-74.5" font-family="Helvetica,sans-Serif" font-size="10.00">utils.h</text>
</a>
</g>
</g>
<!-- Node1&#45;&gt;Node2 -->
<g id="edge1" class="edge">
<title>Node1&#45;&gt;Node2</title>
<path fill="none" stroke="midnightblue" d="M347,-123.08C347,-116.01 347,-105.86 347,-96.99"/>
<polygon fill="midnightblue" stroke="midnightblue" points="350.5,-96.75 347,-86.75 343.5,-96.75 350.5,-96.75"/>
</g>
<!-- Node7 -->
<g id="node7" class="node">
<title>Node7</title>
<g id="a_node7"><a xlink:title=" ">
<polygon fill="white" stroke="#bfbfbf" points="0,-6 0,-25 44,-25 44,-6 0,-6"/>
<text text-anchor="middle" x="22" y="-13" font-family="Helvetica,sans-Serif" font-size="10.00">string</text>
</a>
</g>
</g>
<!-- Node1&#45;&gt;Node7 -->
<g id="edge14" class="edge">
<title>Node1&#45;&gt;Node7</title>
<path fill="none" stroke="midnightblue" d="M318.66,-123.37C265.8,-107.04 148.82,-69.74 53,-31 51.62,-30.44 50.22,-29.86 48.81,-29.25"/>
<polygon fill="midnightblue" stroke="midnightblue" points="50.12,-26 39.56,-25.11 47.26,-32.39 50.12,-26"/>
</g>
<!-- Node14 -->
<g id="node14" class="node">
<title>Node14</title>
<g id="a_node14"><a xlink:title=" ">
<polygon fill="white" stroke="#bfbfbf" points="389,-67.5 389,-86.5 431,-86.5 431,-67.5 389,-67.5"/>
<text text-anchor="middle" x="410" y="-74.5" font-family="Helvetica,sans-Serif" font-size="10.00">array</text>
</a>
</g>
</g>
<!-- Node1&#45;&gt;Node14 -->
<g id="edge13" class="edge">
<title>Node1&#45;&gt;Node14</title>
<path fill="none" stroke="midnightblue" d="M357.12,-123.32C366.53,-115.26 380.74,-103.08 392.07,-93.37"/>
<polygon fill="midnightblue" stroke="midnightblue" points="394.38,-96 399.69,-86.83 389.82,-90.68 394.38,-96"/>
</g>
<!-- Node3 -->
<g id="node3" class="node">
<title>Node3</title>
<g id="a_node3"><a xlink:title=" ">
<polygon fill="white" stroke="#bfbfbf" points="62,-6 62,-25 126,-25 126,-6 62,-6"/>
<text text-anchor="middle" x="94" y="-13" font-family="Helvetica,sans-Serif" font-size="10.00">algorithm</text>
</a>
</g>
</g>
<!-- Node2&#45;&gt;Node3 -->
<g id="edge2" class="edge">
<title>Node2&#45;&gt;Node3</title>
<path fill="none" stroke="midnightblue" d="M323.35,-71.93C284.09,-64.96 203.12,-49.67 136,-31 133.05,-30.18 130,-29.26 126.96,-28.3"/>
<polygon fill="midnightblue" stroke="midnightblue" points="127.98,-24.95 117.39,-25.14 125.78,-31.6 127.98,-24.95"/>
</g>
<!-- Node4 -->
<g id="node4" class="node">
<title>Node4</title>
<g id="a_node4"><a xlink:title=" ">
<polygon fill="white" stroke="#bfbfbf" points="144.5,-6 144.5,-25 193.5,-25 193.5,-6 144.5,-6"/>
<text text-anchor="middle" x="169" y="-13" font-family="Helvetica,sans-Serif" font-size="10.00">cctype</text>
</a>
</g>
</g>
<!-- Node2&#45;&gt;Node4 -->
<g id="edge3" class="edge">
<title>Node2&#45;&gt;Node4</title>
<path fill="none" stroke="midnightblue" d="M323.31,-69.39C294.57,-61.19 244.78,-46.39 203,-31 201.34,-30.39 199.65,-29.74 197.95,-29.08"/>
<polygon fill="midnightblue" stroke="midnightblue" points="198.86,-25.67 188.28,-25.12 196.21,-32.15 198.86,-25.67"/>
</g>
<!-- Node5 -->
<g id="node5" class="node">
<title>Node5</title>
<g id="a_node5"><a xlink:title=" ">
<polygon fill="white" stroke="#bfbfbf" points="212,-6 212,-25 266,-25 266,-6 212,-6"/>
<text text-anchor="middle" x="239" y="-13" font-family="Helvetica,sans-Serif" font-size="10.00">random</text>
</a>
</g>
</g>
<!-- Node2&#45;&gt;Node5 -->
<g id="edge4" class="edge">
<title>Node2&#45;&gt;Node5</title>
<path fill="none" stroke="midnightblue" d="M331.53,-67.48C313.72,-57.67 284.26,-41.43 263.37,-29.92"/>
<polygon fill="midnightblue" stroke="midnightblue" points="264.89,-26.77 254.45,-25.01 261.51,-32.9 264.89,-26.77"/>
</g>
<!-- Node6 -->
<g id="node6" class="node">
<title>Node6</title>
<g id="a_node6"><a xlink:title=" ">
<polygon fill="white" stroke="#bfbfbf" points="284,-6 284,-25 340,-25 340,-6 284,-6"/>
<text text-anchor="middle" x="312" y="-13" font-family="Helvetica,sans-Serif" font-size="10.00">sstream</text>
</a>
</g>
</g>
<!-- Node2&#45;&gt;Node6 -->
<g id="edge5" class="edge">
<title>Node2&#45;&gt;Node6</title>
<path fill="none" stroke="midnightblue" d="M341.99,-67.48C336.84,-58.73 328.69,-44.87 322.18,-33.81"/>
<polygon fill="midnightblue" stroke="midnightblue" points="325.09,-31.85 317.01,-25.01 319.06,-35.4 325.09,-31.85"/>
</g>
<!-- Node2&#45;&gt;Node7 -->
<g id="edge6" class="edge">
<title>Node2&#45;&gt;Node7</title>
<path fill="none" stroke="midnightblue" d="M323.25,-74.66C272.58,-71.32 150.58,-60.62 53,-31 51.12,-30.43 49.22,-29.77 47.32,-29.04"/>
<polygon fill="midnightblue" stroke="midnightblue" points="48.64,-25.8 38.07,-25.08 45.88,-32.23 48.64,-25.8"/>
</g>
<!-- Node8 -->
<g id="node8" class="node">
<title>Node8</title>
<g id="a_node8"><a xlink:title=" ">
<polygon fill="white" stroke="#bfbfbf" points="358.5,-6 358.5,-25 405.5,-25 405.5,-6 358.5,-6"/>
<text text-anchor="middle" x="382" y="-13" font-family="Helvetica,sans-Serif" font-size="10.00">vector</text>
</a>
</g>
</g>
<!-- Node2&#45;&gt;Node8 -->
<g id="edge7" class="edge">
<title>Node2&#45;&gt;Node8</title>
<path fill="none" stroke="midnightblue" d="M352.01,-67.48C357.16,-58.73 365.31,-44.87 371.82,-33.81"/>
<polygon fill="midnightblue" stroke="midnightblue" points="374.94,-35.4 376.99,-25.01 368.91,-31.85 374.94,-35.4"/>
</g>
<!-- Node9 -->
<g id="node9" class="node">
<title>Node9</title>
<g id="a_node9"><a xlink:href="__boost__config_8h.html" target="_top" xlink:title="Boost Configurations.">
<polygon fill="white" stroke="black" points="424,-6 424,-25 516,-25 516,-6 424,-6"/>
<text text-anchor="middle" x="470" y="-13" font-family="Helvetica,sans-Serif" font-size="10.00">_boost_config.h</text>
</a>
</g>
</g>
<!-- Node2&#45;&gt;Node9 -->
<g id="edge8" class="edge">
<title>Node2&#45;&gt;Node9</title>
<path fill="none" stroke="midnightblue" d="M364.62,-67.48C385.17,-57.53 419.36,-40.99 443.21,-29.46"/>
<polygon fill="midnightblue" stroke="midnightblue" points="444.93,-32.51 452.41,-25.01 441.88,-26.21 444.93,-32.51"/>
</g>
<!-- Node10 -->
<g id="node10" class="node">
<title>Node10</title>
<g id="a_node10"><a xlink:title=" ">
<polygon fill="white" stroke="#bfbfbf" points="534.5,-0.5 534.5,-30.5 675.5,-30.5 675.5,-0.5 534.5,-0.5"/>
<text text-anchor="start" x="542.5" y="-18.5" font-family="Helvetica,sans-Serif" font-size="10.00">boost/dll/runtime_symbol</text>
<text text-anchor="middle" x="605" y="-7.5" font-family="Helvetica,sans-Serif" font-size="10.00">_info.hpp</text>
</a>
</g>
</g>
<!-- Node2&#45;&gt;Node10 -->
<g id="edge9" class="edge">
<title>Node2&#45;&gt;Node10</title>
<path fill="none" stroke="midnightblue" d="M370.76,-69.38C373.86,-68.56 377,-67.74 380,-67 429.38,-54.73 485.19,-42.2 528.87,-32.68"/>
<polygon fill="midnightblue" stroke="midnightblue" points="529.82,-36.06 538.85,-30.52 528.34,-29.22 529.82,-36.06"/>
</g>
<!-- Node11 -->
<g id="node11" class="node">
<title>Node11</title>
<g id="a_node11"><a xlink:title=" ">
<polygon fill="white" stroke="#bfbfbf" points="694,-6 694,-25 740,-25 740,-6 694,-6"/>
<text text-anchor="middle" x="717" y="-13" font-family="Helvetica,sans-Serif" font-size="10.00">pwd.h</text>
</a>
</g>
</g>
<!-- Node2&#45;&gt;Node11 -->
<g id="edge10" class="edge">
<title>Node2&#45;&gt;Node11</title>
<path fill="none" stroke="midnightblue" d="M370.69,-69.08C373.81,-68.31 376.97,-67.59 380,-67 513.99,-40.97 553.5,-67.6 685,-31 687.15,-30.4 689.34,-29.68 691.51,-28.88"/>
<polygon fill="midnightblue" stroke="midnightblue" points="692.87,-32.1 700.76,-25.03 690.18,-25.64 692.87,-32.1"/>
</g>
<!-- Node12 -->
<g id="node12" class="node">
<title>Node12</title>
<g id="a_node12"><a xlink:title=" ">
<polygon fill="white" stroke="#bfbfbf" points="758,-6 758,-25 830,-25 830,-6 758,-6"/>
<text text-anchor="middle" x="794" y="-13" font-family="Helvetica,sans-Serif" font-size="10.00">sys/types.h</text>
</a>
</g>
</g>
<!-- Node2&#45;&gt;Node12 -->
<g id="edge11" class="edge">
<title>Node2&#45;&gt;Node12</title>
<path fill="none" stroke="midnightblue" d="M370.68,-69.03C373.8,-68.26 376.96,-67.56 380,-67 542.06,-37.22 587.65,-64.46 749,-31 752.87,-30.2 756.87,-29.18 760.82,-28.07"/>
<polygon fill="midnightblue" stroke="midnightblue" points="761.89,-31.4 770.43,-25.14 759.85,-24.71 761.89,-31.4"/>
</g>
<!-- Node13 -->
<g id="node13" class="node">
<title>Node13</title>
<g id="a_node13"><a xlink:title=" ">
<polygon fill="white" stroke="#bfbfbf" points="848,-6 848,-25 904,-25 904,-6 848,-6"/>
<text text-anchor="middle" x="876" y="-13" font-family="Helvetica,sans-Serif" font-size="10.00">unistd.h</text>
</a>
</g>
</g>
<!-- Node2&#45;&gt;Node13 -->
<g id="edge12" class="edge">
<title>Node2&#45;&gt;Node13</title>
<path fill="none" stroke="midnightblue" d="M370.67,-68.97C373.79,-68.21 376.96,-67.53 380,-67 581.6,-31.92 639.57,-76.83 839,-31 841.84,-30.35 844.74,-29.52 847.62,-28.58"/>
<polygon fill="midnightblue" stroke="midnightblue" points="848.93,-31.83 857.14,-25.13 846.54,-25.25 848.93,-31.83"/>
</g>
</g>
</svg>
