<?xml version="1.0" encoding="UTF-8" standalone="no"?>
<!DOCTYPE svg PUBLIC "-//W3C//DTD SVG 1.1//EN"
 "http://www.w3.org/Graphics/SVG/1.1/DTD/svg11.dtd">
<!-- Generated by graphviz version 2.43.0 (0)
 -->
<!-- Title: isFunc Pages: 1 -->
<svg width="281pt" height="104pt"
 viewBox="0.00 0.00 281.00 104.00" xmlns="http://www.w3.org/2000/svg" xmlns:xlink="http://www.w3.org/1999/xlink">
<g id="graph0" class="graph" transform="scale(1 1) rotate(0) translate(4 100)">
<title>isFunc</title>
<polygon fill="white" stroke="transparent" points="-4,4 -4,-100 277,-100 277,4 -4,4"/>
<!-- Node1 -->
<g id="node1" class="node">
<title>Node1</title>
<g id="a_node1"><a xlink:title=" ">
<polygon fill="#bfbfbf" stroke="black" points="0,-38.5 0,-57.5 47,-57.5 47,-38.5 0,-38.5"/>
<text text-anchor="middle" x="23.5" y="-45.5" font-family="Helvetica,sans-Serif" font-size="10.00">isFunc</text>
</a>
</g>
</g>
<!-- Node2 -->
<g id="node2" class="node">
<title>Node2</title>
<g id="a_node2"><a xlink:href="functions_8h.html#a874ba6c7a581632b5ca72a1bd9fecdd1" target="_top" xlink:title=" ">
<polygon fill="white" stroke="black" points="94,-76.5 94,-95.5 168,-95.5 168,-76.5 94,-76.5"/>
<text text-anchor="middle" x="131" y="-83.5" font-family="Helvetica,sans-Serif" font-size="10.00">isFuncIsEnd</text>
</a>
</g>
</g>
<!-- Node1&#45;&gt;Node2 -->
<g id="edge1" class="edge">
<title>Node1&#45;&gt;Node2</title>
<path fill="none" stroke="midnightblue" d="M47.13,-56.15C60.64,-61.02 78.11,-67.31 93.53,-72.86"/>
<polygon fill="midnightblue" stroke="midnightblue" points="92.71,-76.29 103.3,-76.38 95.08,-69.7 92.71,-76.29"/>
</g>
<!-- Node4 -->
<g id="node4" class="node">
<title>Node4</title>
<g id="a_node4"><a xlink:href="functions_8h.html#a6f29a04c07a24fbea22fa058f8005608" target="_top" xlink:title=" ">
<polygon fill="white" stroke="black" points="83,-38.5 83,-57.5 179,-57.5 179,-38.5 83,-38.5"/>
<text text-anchor="middle" x="131" y="-45.5" font-family="Helvetica,sans-Serif" font-size="10.00">isFuncNeedsEnd</text>
</a>
</g>
</g>
<!-- Node1&#45;&gt;Node4 -->
<g id="edge3" class="edge">
<title>Node1&#45;&gt;Node4</title>
<path fill="none" stroke="midnightblue" d="M47.13,-48C54.7,-48 63.51,-48 72.5,-48"/>
<polygon fill="midnightblue" stroke="midnightblue" points="72.68,-51.5 82.68,-48 72.68,-44.5 72.68,-51.5"/>
</g>
<!-- Node5 -->
<g id="node5" class="node">
<title>Node5</title>
<g id="a_node5"><a xlink:href="functions_8h.html#ac9dc58cb94b7547813c3a35154d97d18" target="_top" xlink:title=" ">
<polygon fill="white" stroke="black" points="91.5,-0.5 91.5,-19.5 170.5,-19.5 170.5,-0.5 91.5,-0.5"/>
<text text-anchor="middle" x="131" y="-7.5" font-family="Helvetica,sans-Serif" font-size="10.00">isFuncNoEnd</text>
</a>
</g>
</g>
<!-- Node1&#45;&gt;Node5 -->
<g id="edge5" class="edge">
<title>Node1&#45;&gt;Node5</title>
<path fill="none" stroke="midnightblue" d="M47.13,-39.85C60.64,-34.98 78.11,-28.69 93.53,-23.14"/>
<polygon fill="midnightblue" stroke="midnightblue" points="95.08,-26.3 103.3,-19.62 92.71,-19.71 95.08,-26.3"/>
</g>
<!-- Node3 -->
<g id="node3" class="node">
<title>Node3</title>
<g id="a_node3"><a xlink:href="utils_8h.html#af11c7cca5b9ad860da4bdb556dce3234" target="_top" xlink:title=" ">
<polygon fill="white" stroke="black" points="215,-38.5 215,-57.5 273,-57.5 273,-38.5 215,-38.5"/>
<text text-anchor="middle" x="244" y="-45.5" font-family="Helvetica,sans-Serif" font-size="10.00">contains</text>
</a>
</g>
</g>
<!-- Node2&#45;&gt;Node3 -->
<g id="edge2" class="edge">
<title>Node2&#45;&gt;Node3</title>
<path fill="none" stroke="midnightblue" d="M160.01,-76.41C173.68,-71.73 190.33,-66.03 205.12,-60.97"/>
<polygon fill="midnightblue" stroke="midnightblue" points="206.67,-64.14 215,-57.59 204.4,-57.51 206.67,-64.14"/>
</g>
<!-- Node4&#45;&gt;Node3 -->
<g id="edge4" class="edge">
<title>Node4&#45;&gt;Node3</title>
<path fill="none" stroke="midnightblue" d="M179.07,-48C187.63,-48 196.46,-48 204.73,-48"/>
<polygon fill="midnightblue" stroke="midnightblue" points="204.84,-51.5 214.84,-48 204.84,-44.5 204.84,-51.5"/>
</g>
<!-- Node5&#45;&gt;Node3 -->
<g id="edge6" class="edge">
<title>Node5&#45;&gt;Node3</title>
<path fill="none" stroke="midnightblue" d="M160.01,-19.59C173.68,-24.27 190.33,-29.97 205.12,-35.03"/>
<polygon fill="midnightblue" stroke="midnightblue" points="204.4,-38.49 215,-38.41 206.67,-31.86 204.4,-38.49"/>
</g>
</g>
</svg>
