<?xml version="1.0" encoding="UTF-8" standalone="no"?>
<!DOCTYPE svg PUBLIC "-//W3C//DTD SVG 1.1//EN"
 "http://www.w3.org/Graphics/SVG/1.1/DTD/svg11.dtd">
<!-- Generated by graphviz version 2.43.0 (0)
 -->
<!-- Title: include/log.h Pages: 1 -->
<!--zoomable 442 -->
<svg id="main" version="1.1" xmlns="http://www.w3.org/2000/svg" xmlns:xlink="http://www.w3.org/1999/xlink" xml:space="preserve" onload="init(evt)">
<style type="text/css"><![CDATA[
.edge:hover path { stroke: red; }
.edge:hover polygon { stroke: red; fill: red; }
]]></style>
<script type="text/javascript"><![CDATA[
var edges = document.getElementsByTagName('g');
if (edges && edges.length) {
  for (var i=0;i<edges.length;i++) {
    if (edges[i].id.substr(0,4)=='edge') {
      edges[i].setAttribute('class','edge');
    }
  }
}
]]></script>
        <defs>
                <circle id="rim" cx="0" cy="0" r="7"/>
                <circle id="rim2" cx="0" cy="0" r="3.5"/>
                <g id="zoomPlus">
                        <use xlink:href="#rim" fill="#404040">
                                <set attributeName="fill" to="#808080" begin="zoomplus.mouseover" end="zoomplus.mouseout"/>
                        </use>
                        <path d="M-4,0h8M0,-4v8" fill="none" stroke="white" stroke-width="1.5" pointer-events="none"/>
                </g>
                <g id="zoomMin">
                        <use xlink:href="#rim" fill="#404040">
                                <set attributeName="fill" to="#808080" begin="zoomminus.mouseover" end="zoomminus.mouseout"/>
                        </use>
                        <path d="M-4,0h8" fill="none" stroke="white" stroke-width="1.5" pointer-events="none"/>
                </g>
                <g id="dirArrow">
                        <path fill="none" stroke="white" stroke-width="1.5" d="M0,-3.0v7 M-2.5,-0.5L0,-3.0L2.5,-0.5"/>
                </g>
               <g id="resetDef">
                       <use xlink:href="#rim2" fill="#404040">
                               <set attributeName="fill" to="#808080" begin="reset.mouseover" end="reset.mouseout"/>
                       </use>
               </g>
        </defs>

<script type="text/javascript">
var viewWidth = 1246;
var viewHeight = 442;
var sectionId = 'dynsection-1';
</script>
<script xlink:href="svgpan.js"/>
<svg id="graph" class="graph">
<g id="viewport">
<title>include/log.h</title>
<polygon fill="white" stroke="transparent" points="-4,4 -4,-438 1241.5,-438 1241.5,4 -4,4"/>
<!-- Node1 -->
<g id="node1" class="node">
<title>Node1</title>
<g id="a_node1"><a xlink:title="Log Utilities.">
<polygon fill="#bfbfbf" stroke="black" points="526,-414.5 526,-433.5 605,-433.5 605,-414.5 526,-414.5"/>
<text text-anchor="middle" x="565.5" y="-421.5" font-family="Helvetica,sans-Serif" font-size="10.00">include/log.h</text>
</a>
</g>
</g>
<!-- Node2 -->
<g id="node2" class="node">
<title>Node2</title>
<g id="a_node2"><a xlink:href="log__global_8h.html" target="_top" xlink:title="Global Access of Log.">
<polygon fill="white" stroke="black" points="508.5,-358.5 508.5,-377.5 622.5,-377.5 622.5,-358.5 508.5,-358.5"/>
<text text-anchor="middle" x="565.5" y="-365.5" font-family="Helvetica,sans-Serif" font-size="10.00">include/log_global.h</text>
</a>
</g>
</g>
<!-- Node1&#45;&gt;Node2 -->
<g id="edge1" class="edge">
<title>Node1&#45;&gt;Node2</title>
<path fill="none" stroke="midnightblue" d="M565.5,-403.8C565.5,-394.91 565.5,-384.78 565.5,-377.75"/>
<polygon fill="midnightblue" stroke="midnightblue" points="562,-404.08 565.5,-414.08 569,-404.08 562,-404.08"/>
</g>
<!-- Node3 -->
<g id="node3" class="node">
<title>Node3</title>
<g id="a_node3"><a xlink:href="config_8h.html" target="_top" xlink:title="Read and Write User Configuration.">
<polygon fill="white" stroke="black" points="164,-297 164,-316 257,-316 257,-297 164,-297"/>
<text text-anchor="middle" x="210.5" y="-304" font-family="Helvetica,sans-Serif" font-size="10.00">include/config.h</text>
</a>
</g>
</g>
<!-- Node2&#45;&gt;Node3 -->
<g id="edge2" class="edge">
<title>Node2&#45;&gt;Node3</title>
<path fill="none" stroke="midnightblue" d="M501.12,-356.87C445.14,-347.98 361.89,-334.54 289.5,-322 278.65,-320.12 266.97,-318.02 256.01,-316.01"/>
<polygon fill="midnightblue" stroke="midnightblue" points="500.82,-360.37 511.24,-358.48 501.92,-353.46 500.82,-360.37"/>
</g>
<!-- Node4 -->
<g id="node4" class="node">
<title>Node4</title>
<g id="a_node4"><a xlink:href="simulate_8h.html" target="_top" xlink:title="Simulate Generated Code.">
<polygon fill="white" stroke="black" points="28,-230 28,-249 135,-249 135,-230 28,-230"/>
<text text-anchor="middle" x="81.5" y="-237" font-family="Helvetica,sans-Serif" font-size="10.00">include/simulate.h</text>
</a>
</g>
</g>
<!-- Node2&#45;&gt;Node4 -->
<g id="edge37" class="edge">
<title>Node2&#45;&gt;Node4</title>
<path fill="none" stroke="midnightblue" d="M498.09,-365.42C397.28,-362.09 212.83,-351.98 154.5,-322 121.39,-304.98 96.19,-266.25 86.19,-249.03"/>
<polygon fill="midnightblue" stroke="midnightblue" points="498.07,-368.92 508.18,-365.74 498.29,-361.92 498.07,-368.92"/>
</g>
<!-- Node5 -->
<g id="node5" class="node">
<title>Node5</title>
<g id="a_node5"><a xlink:href="src_2main_8cpp.html" target="_top" xlink:title="Program Command Line Options.">
<polygon fill="white" stroke="black" points="181,-0.5 181,-19.5 260,-19.5 260,-0.5 181,-0.5"/>
<text text-anchor="middle" x="220.5" y="-7.5" font-family="Helvetica,sans-Serif" font-size="10.00">src/main.cpp</text>
</a>
</g>
</g>
<!-- Node2&#45;&gt;Node5 -->
<g id="edge38" class="edge">
<title>Node2&#45;&gt;Node5</title>
<path fill="none" stroke="midnightblue" d="M498.1,-358.31C466.32,-351.91 429,-340.88 399.5,-322 306.76,-262.64 294.44,-227.99 240.5,-132 227.62,-109.09 225.98,-101.9 221.5,-76 218.08,-56.2 218.93,-32.51 219.77,-19.91"/>
<polygon fill="midnightblue" stroke="midnightblue" points="497.73,-361.81 508.21,-360.24 499.04,-354.93 497.73,-361.81"/>
</g>
<!-- Node8 -->
<g id="node8" class="node">
<title>Node8</title>
<g id="a_node8"><a xlink:href="error__code_8h.html" target="_top" xlink:title="Error Codes (Including Warnings)">
<polygon fill="white" stroke="black" points="320.5,-168.5 320.5,-187.5 436.5,-187.5 436.5,-168.5 320.5,-168.5"/>
<text text-anchor="middle" x="378.5" y="-175.5" font-family="Helvetica,sans-Serif" font-size="10.00">include/error_code.h</text>
</a>
</g>
</g>
<!-- Node2&#45;&gt;Node8 -->
<g id="edge8" class="edge">
<title>Node2&#45;&gt;Node8</title>
<path fill="none" stroke="midnightblue" d="M498.12,-358.42C472.57,-352.09 444.97,-341.09 425.5,-322 386.5,-283.76 379.85,-212.65 378.73,-187.82"/>
<polygon fill="midnightblue" stroke="midnightblue" points="497.64,-361.9 508.17,-360.7 499.19,-355.07 497.64,-361.9"/>
</g>
<!-- Node15 -->
<g id="node15" class="node">
<title>Node15</title>
<g id="a_node15"><a xlink:href="alg__line_8h.html" target="_top" xlink:title="Parse Line of Alg.">
<polygon fill="white" stroke="black" points="580.5,-291.5 580.5,-321.5 684.5,-321.5 684.5,-291.5 580.5,-291.5"/>
<text text-anchor="start" x="588.5" y="-309.5" font-family="Helvetica,sans-Serif" font-size="10.00">include/export/alg</text>
<text text-anchor="middle" x="632.5" y="-298.5" font-family="Helvetica,sans-Serif" font-size="10.00">_line.h</text>
</a>
</g>
</g>
<!-- Node2&#45;&gt;Node15 -->
<g id="edge19" class="edge">
<title>Node2&#45;&gt;Node15</title>
<path fill="none" stroke="midnightblue" d="M582.79,-351.65C593.26,-342.35 606.52,-330.57 616.71,-321.52"/>
<polygon fill="midnightblue" stroke="midnightblue" points="580.25,-349.22 575.1,-358.48 584.9,-354.45 580.25,-349.22"/>
</g>
<!-- Node19 -->
<g id="node19" class="node">
<title>Node19</title>
<g id="a_node19"><a xlink:href="calc_8h.html" target="_top" xlink:title="Make Calculation in Alg.">
<polygon fill="white" stroke="black" points="880.5,-168.5 880.5,-187.5 998.5,-187.5 998.5,-168.5 880.5,-168.5"/>
<text text-anchor="middle" x="939.5" y="-175.5" font-family="Helvetica,sans-Serif" font-size="10.00">include/export/calc.h</text>
</a>
</g>
</g>
<!-- Node2&#45;&gt;Node19 -->
<g id="edge24" class="edge">
<title>Node2&#45;&gt;Node19</title>
<path fill="none" stroke="midnightblue" d="M632.64,-366.03C690.42,-362.92 774.76,-352.81 841.5,-322 883.3,-302.7 896.19,-294.1 920.5,-255 934,-233.28 937.92,-202.48 939.05,-187.64"/>
<polygon fill="midnightblue" stroke="midnightblue" points="632.35,-362.54 622.53,-366.52 632.69,-369.53 632.35,-362.54"/>
</g>
<!-- Node21 -->
<g id="node21" class="node">
<title>Node21</title>
<g id="a_node21"><a xlink:href="channel__graph_8h.html" target="_top" xlink:title="Graph Analysis for Complex Cascaded Channels.">
<polygon fill="white" stroke="black" points="434.5,-291.5 434.5,-321.5 562.5,-321.5 562.5,-291.5 434.5,-291.5"/>
<text text-anchor="start" x="442.5" y="-309.5" font-family="Helvetica,sans-Serif" font-size="10.00">include/export/channel</text>
<text text-anchor="middle" x="498.5" y="-298.5" font-family="Helvetica,sans-Serif" font-size="10.00">_graph.h</text>
</a>
</g>
</g>
<!-- Node2&#45;&gt;Node21 -->
<g id="edge27" class="edge">
<title>Node2&#45;&gt;Node21</title>
<path fill="none" stroke="midnightblue" d="M548.21,-351.65C537.74,-342.35 524.48,-330.57 514.29,-321.52"/>
<polygon fill="midnightblue" stroke="midnightblue" points="546.1,-354.45 555.9,-358.48 550.75,-349.22 546.1,-354.45"/>
</g>
<!-- Node23 -->
<g id="node23" class="node">
<title>Node23</title>
<g id="a_node23"><a xlink:href="macro_8h.html" target="_top" xlink:title="ALG Macro.">
<polygon fill="white" stroke="black" points="703,-297 703,-316 832,-316 832,-297 703,-297"/>
<text text-anchor="middle" x="767.5" y="-304" font-family="Helvetica,sans-Serif" font-size="10.00">include/export/macro.h</text>
</a>
</g>
</g>
<!-- Node2&#45;&gt;Node23 -->
<g id="edge30" class="edge">
<title>Node2&#45;&gt;Node23</title>
<path fill="none" stroke="midnightblue" d="M604.19,-355.6C643.45,-344.04 703.31,-326.41 738.61,-316.01"/>
<polygon fill="midnightblue" stroke="midnightblue" points="603.05,-352.29 594.44,-358.48 605.02,-359.01 603.05,-352.29"/>
</g>
<!-- Node25 -->
<g id="node25" class="node">
<title>Node25</title>
<g id="a_node25"><a xlink:href="type__track_8h.html" target="_top" xlink:title="Track data type of variables.">
<polygon fill="white" stroke="black" points="968,-291.5 968,-321.5 1079,-321.5 1079,-291.5 968,-291.5"/>
<text text-anchor="start" x="976" y="-309.5" font-family="Helvetica,sans-Serif" font-size="10.00">include/export/type</text>
<text text-anchor="middle" x="1023.5" y="-298.5" font-family="Helvetica,sans-Serif" font-size="10.00">_track.h</text>
</a>
</g>
</g>
<!-- Node2&#45;&gt;Node25 -->
<g id="edge33" class="edge">
<title>Node2&#45;&gt;Node25</title>
<path fill="none" stroke="midnightblue" d="M632.7,-361.03C710.27,-353.72 841.54,-340.05 953.5,-322 958.16,-321.25 962.97,-320.4 967.8,-319.5"/>
<polygon fill="midnightblue" stroke="midnightblue" points="632.22,-357.56 622.59,-361.98 632.87,-364.53 632.22,-357.56"/>
</g>
<!-- Node28 -->
<g id="node28" class="node">
<title>Node28</title>
<g id="a_node28"><a xlink:href="term_8cpp.html" target="_top" xlink:title="Implementation of Term Class and Color/Style Definitions.">
<polygon fill="white" stroke="black" points="1097,-297 1097,-316 1174,-316 1174,-297 1097,-297"/>
<text text-anchor="middle" x="1135.5" y="-304" font-family="Helvetica,sans-Serif" font-size="10.00">src/term.cpp</text>
</a>
</g>
</g>
<!-- Node2&#45;&gt;Node28 -->
<g id="edge39" class="edge">
<title>Node2&#45;&gt;Node28</title>
<path fill="none" stroke="midnightblue" d="M632.83,-365.79C733.03,-362.95 926.95,-353.5 1088.5,-322 1096.04,-320.53 1104.09,-318.3 1111.36,-316.03"/>
<polygon fill="midnightblue" stroke="midnightblue" points="632.45,-362.29 622.55,-366.06 632.64,-369.29 632.45,-362.29"/>
</g>
<!-- Node3&#45;&gt;Node4 -->
<g id="edge3" class="edge">
<title>Node3&#45;&gt;Node4</title>
<path fill="none" stroke="midnightblue" d="M184.25,-292.27C158.7,-279.4 120.61,-260.21 98.7,-249.17"/>
<polygon fill="midnightblue" stroke="midnightblue" points="182.86,-295.49 193.37,-296.87 186.01,-289.24 182.86,-295.49"/>
</g>
<!-- Node3&#45;&gt;Node5 -->
<g id="edge7" class="edge">
<title>Node3&#45;&gt;Node5</title>
<path fill="none" stroke="midnightblue" d="M199.55,-288.15C185.66,-264.45 163.5,-220.18 163.5,-179 163.5,-179 163.5,-179 163.5,-121 163.5,-79.06 196.57,-37.19 212.33,-19.62"/>
<polygon fill="midnightblue" stroke="midnightblue" points="196.56,-289.98 204.74,-296.72 202.55,-286.35 196.56,-289.98"/>
</g>
<!-- Node7 -->
<g id="node7" class="node">
<title>Node7</title>
<g id="a_node7"><a xlink:href="config_8cpp.html" target="_top" xlink:title="Implementation of Config Class.">
<polygon fill="white" stroke="black" points="192,-230 192,-249 275,-249 275,-230 192,-230"/>
<text text-anchor="middle" x="233.5" y="-237" font-family="Helvetica,sans-Serif" font-size="10.00">src/config.cpp</text>
</a>
</g>
</g>
<!-- Node3&#45;&gt;Node7 -->
<g id="edge6" class="edge">
<title>Node3&#45;&gt;Node7</title>
<path fill="none" stroke="midnightblue" d="M216.94,-287.29C221.36,-274.81 227.02,-258.81 230.45,-249.13"/>
<polygon fill="midnightblue" stroke="midnightblue" points="213.64,-286.14 213.6,-296.73 220.24,-288.47 213.64,-286.14"/>
</g>
<!-- Node4&#45;&gt;Node5 -->
<g id="edge4" class="edge">
<title>Node4&#45;&gt;Node5</title>
<path fill="none" stroke="midnightblue" d="M90.72,-220.48C95.43,-210.95 101.08,-198.98 105.5,-188 128.59,-130.63 111.4,-104.71 149.5,-56 162.54,-39.33 183.58,-27.11 199.38,-19.64"/>
<polygon fill="midnightblue" stroke="midnightblue" points="87.45,-219.2 86.08,-229.71 93.7,-222.34 87.45,-219.2"/>
</g>
<!-- Node6 -->
<g id="node6" class="node">
<title>Node6</title>
<g id="a_node6"><a xlink:href="simulate_8cpp.html" target="_top" xlink:title="Implementation of Simulate Class.">
<polygon fill="white" stroke="black" points="0,-168.5 0,-187.5 97,-187.5 97,-168.5 0,-168.5"/>
<text text-anchor="middle" x="48.5" y="-175.5" font-family="Helvetica,sans-Serif" font-size="10.00">src/simulate.cpp</text>
</a>
</g>
</g>
<!-- Node4&#45;&gt;Node6 -->
<g id="edge5" class="edge">
<title>Node4&#45;&gt;Node6</title>
<path fill="none" stroke="midnightblue" d="M71.89,-221.17C65.75,-210.11 58.07,-196.25 53.22,-187.51"/>
<polygon fill="midnightblue" stroke="midnightblue" points="68.86,-222.93 76.77,-229.98 74.98,-219.53 68.86,-222.93"/>
</g>
<!-- Node8&#45;&gt;Node5 -->
<g id="edge18" class="edge">
<title>Node8&#45;&gt;Node5</title>
<path fill="none" stroke="midnightblue" d="M317.61,-165.69C296.47,-159.04 274.15,-148.53 258.5,-132 227.46,-99.23 221.77,-41.35 220.73,-19.59"/>
<polygon fill="midnightblue" stroke="midnightblue" points="316.64,-169.05 327.22,-168.49 318.6,-162.33 316.64,-169.05"/>
</g>
<!-- Node9 -->
<g id="node9" class="node">
<title>Node9</title>
<g id="a_node9"><a xlink:href="export_8h.html" target="_top" xlink:title="Export mmCEsim Configuration to Other Programming Languages.">
<polygon fill="white" stroke="black" points="496,-56.5 496,-75.5 591,-75.5 591,-56.5 496,-56.5"/>
<text text-anchor="middle" x="543.5" y="-63.5" font-family="Helvetica,sans-Serif" font-size="10.00">include/export.h</text>
</a>
</g>
</g>
<!-- Node8&#45;&gt;Node9 -->
<g id="edge9" class="edge">
<title>Node8&#45;&gt;Node9</title>
<path fill="none" stroke="midnightblue" d="M408.75,-164.18C426.72,-156.01 449.62,-144.61 468.5,-132 494.58,-114.58 521.48,-89.08 534.86,-75.79"/>
<polygon fill="midnightblue" stroke="midnightblue" points="407.04,-161.11 399.32,-168.38 409.88,-167.51 407.04,-161.11"/>
</g>
<!-- Node11 -->
<g id="node11" class="node">
<title>Node11</title>
<g id="a_node11"><a xlink:href="read_8h.html" target="_top" xlink:title="Read YAML Configuration.">
<polygon fill="white" stroke="black" points="373.5,-112.5 373.5,-131.5 459.5,-131.5 459.5,-112.5 373.5,-112.5"/>
<text text-anchor="middle" x="416.5" y="-119.5" font-family="Helvetica,sans-Serif" font-size="10.00">include/read.h</text>
</a>
</g>
</g>
<!-- Node8&#45;&gt;Node11 -->
<g id="edge12" class="edge">
<title>Node8&#45;&gt;Node11</title>
<path fill="none" stroke="midnightblue" d="M390.56,-159.86C397.14,-150.5 405.01,-139.33 410.34,-131.75"/>
<polygon fill="midnightblue" stroke="midnightblue" points="387.67,-157.89 384.77,-168.08 393.39,-161.92 387.67,-157.89"/>
</g>
<!-- Node13 -->
<g id="node13" class="node">
<title>Node13</title>
<g id="a_node13"><a xlink:href="style_8h.html" target="_top" xlink:title="Format Output File.">
<polygon fill="white" stroke="black" points="267.5,-112.5 267.5,-131.5 355.5,-131.5 355.5,-112.5 267.5,-112.5"/>
<text text-anchor="middle" x="311.5" y="-119.5" font-family="Helvetica,sans-Serif" font-size="10.00">include/style.h</text>
</a>
</g>
</g>
<!-- Node8&#45;&gt;Node13 -->
<g id="edge15" class="edge">
<title>Node8&#45;&gt;Node13</title>
<path fill="none" stroke="midnightblue" d="M359.67,-161.82C347.66,-152.15 332.53,-139.95 322.46,-131.83"/>
<polygon fill="midnightblue" stroke="midnightblue" points="357.75,-164.77 367.74,-168.32 362.15,-159.32 357.75,-164.77"/>
</g>
<!-- Node9&#45;&gt;Node5 -->
<g id="edge11" class="edge">
<title>Node9&#45;&gt;Node5</title>
<path fill="none" stroke="midnightblue" d="M485.75,-55.34C420.7,-44.47 316.72,-27.09 260.21,-17.64"/>
<polygon fill="midnightblue" stroke="midnightblue" points="485.4,-58.84 495.84,-57.03 486.55,-51.93 485.4,-58.84"/>
</g>
<!-- Node10 -->
<g id="node10" class="node">
<title>Node10</title>
<g id="a_node10"><a xlink:href="export_8cpp.html" target="_top" xlink:title="Implementation of Export Class.">
<polygon fill="white" stroke="black" points="500.5,-0.5 500.5,-19.5 586.5,-19.5 586.5,-0.5 500.5,-0.5"/>
<text text-anchor="middle" x="543.5" y="-7.5" font-family="Helvetica,sans-Serif" font-size="10.00">src/export.cpp</text>
</a>
</g>
</g>
<!-- Node9&#45;&gt;Node10 -->
<g id="edge10" class="edge">
<title>Node9&#45;&gt;Node10</title>
<path fill="none" stroke="midnightblue" d="M543.5,-45.8C543.5,-36.91 543.5,-26.78 543.5,-19.75"/>
<polygon fill="midnightblue" stroke="midnightblue" points="540,-46.08 543.5,-56.08 547,-46.08 540,-46.08"/>
</g>
<!-- Node11&#45;&gt;Node9 -->
<g id="edge13" class="edge">
<title>Node11&#45;&gt;Node9</title>
<path fill="none" stroke="midnightblue" d="M445.89,-108.5C469.7,-98.38 502.61,-84.39 523.47,-75.52"/>
<polygon fill="midnightblue" stroke="midnightblue" points="444.46,-105.31 436.62,-112.44 447.2,-111.75 444.46,-105.31"/>
</g>
<!-- Node12 -->
<g id="node12" class="node">
<title>Node12</title>
<g id="a_node12"><a xlink:href="read_8cpp.html" target="_top" xlink:title="Implementation of class YAML_Error and ReadConfig.">
<polygon fill="white" stroke="black" points="401.5,-56.5 401.5,-75.5 477.5,-75.5 477.5,-56.5 401.5,-56.5"/>
<text text-anchor="middle" x="439.5" y="-63.5" font-family="Helvetica,sans-Serif" font-size="10.00">src/read.cpp</text>
</a>
</g>
</g>
<!-- Node11&#45;&gt;Node12 -->
<g id="edge14" class="edge">
<title>Node11&#45;&gt;Node12</title>
<path fill="none" stroke="midnightblue" d="M424.3,-102.69C428.18,-93.59 432.68,-83.01 435.77,-75.75"/>
<polygon fill="midnightblue" stroke="midnightblue" points="421,-101.51 420.3,-112.08 427.44,-104.25 421,-101.51"/>
</g>
<!-- Node13&#45;&gt;Node5 -->
<g id="edge16" class="edge">
<title>Node13&#45;&gt;Node5</title>
<path fill="none" stroke="midnightblue" d="M332.56,-106.14C348.8,-92.82 366.61,-72.84 354.5,-56 333.22,-26.41 291.54,-16.01 260.29,-12.49"/>
<polygon fill="midnightblue" stroke="midnightblue" points="330.16,-103.57 324.38,-112.44 334.44,-109.11 330.16,-103.57"/>
</g>
<!-- Node14 -->
<g id="node14" class="node">
<title>Node14</title>
<g id="a_node14"><a xlink:href="style_8cpp.html" target="_top" xlink:title="Implementation of Style class.">
<polygon fill="white" stroke="black" points="267.5,-56.5 267.5,-75.5 345.5,-75.5 345.5,-56.5 267.5,-56.5"/>
<text text-anchor="middle" x="306.5" y="-63.5" font-family="Helvetica,sans-Serif" font-size="10.00">src/style.cpp</text>
</a>
</g>
</g>
<!-- Node13&#45;&gt;Node14 -->
<g id="edge17" class="edge">
<title>Node13&#45;&gt;Node14</title>
<path fill="none" stroke="midnightblue" d="M309.75,-102.1C308.92,-93.14 307.97,-82.86 307.31,-75.75"/>
<polygon fill="midnightblue" stroke="midnightblue" points="306.27,-102.45 310.67,-112.08 313.24,-101.8 306.27,-102.45"/>
</g>
<!-- Node16 -->
<g id="node16" class="node">
<title>Node16</title>
<g id="a_node16"><a xlink:href="alg_8h.html" target="_top" xlink:title="Algorithm Parser (.alg Language)">
<polygon fill="white" stroke="black" points="688,-112.5 688,-131.5 801,-131.5 801,-112.5 688,-112.5"/>
<text text-anchor="middle" x="744.5" y="-119.5" font-family="Helvetica,sans-Serif" font-size="10.00">include/export/alg.h</text>
</a>
</g>
</g>
<!-- Node15&#45;&gt;Node16 -->
<g id="edge20" class="edge">
<title>Node15&#45;&gt;Node16</title>
<path fill="none" stroke="midnightblue" d="M671.32,-286.12C684.12,-278.05 697.39,-267.6 706.5,-255 735.29,-215.19 742.35,-153.98 744.01,-131.58"/>
<polygon fill="midnightblue" stroke="midnightblue" points="669.39,-283.2 662.59,-291.32 672.97,-289.21 669.39,-283.2"/>
</g>
<!-- Node18 -->
<g id="node18" class="node">
<title>Node18</title>
<g id="a_node18"><a xlink:href="alg__line_8cpp.html" target="_top" xlink:title="Implementation of Alg_Line Class.">
<polygon fill="white" stroke="black" points="570,-230 570,-249 697,-249 697,-230 570,-230"/>
<text text-anchor="middle" x="633.5" y="-237" font-family="Helvetica,sans-Serif" font-size="10.00">src/export/alg_line.cpp</text>
</a>
</g>
</g>
<!-- Node15&#45;&gt;Node18 -->
<g id="edge23" class="edge">
<title>Node15&#45;&gt;Node18</title>
<path fill="none" stroke="midnightblue" d="M632.87,-281.25C633.05,-270.02 633.24,-257.38 633.37,-249.19"/>
<polygon fill="midnightblue" stroke="midnightblue" points="629.37,-281.34 632.72,-291.4 636.37,-281.45 629.37,-281.34"/>
</g>
<!-- Node16&#45;&gt;Node9 -->
<g id="edge21" class="edge">
<title>Node16&#45;&gt;Node9</title>
<path fill="none" stroke="midnightblue" d="M702.92,-109.83C664.97,-99.63 609.69,-84.78 575.2,-75.52"/>
<polygon fill="midnightblue" stroke="midnightblue" points="702.09,-113.23 712.65,-112.44 703.9,-106.47 702.09,-113.23"/>
</g>
<!-- Node17 -->
<g id="node17" class="node">
<title>Node17</title>
<g id="a_node17"><a xlink:href="alg_8cpp.html" target="_top" xlink:title="Implementation of class Alg.">
<polygon fill="white" stroke="black" points="692.5,-56.5 692.5,-75.5 796.5,-75.5 796.5,-56.5 692.5,-56.5"/>
<text text-anchor="middle" x="744.5" y="-63.5" font-family="Helvetica,sans-Serif" font-size="10.00">src/export/alg.cpp</text>
</a>
</g>
</g>
<!-- Node16&#45;&gt;Node17 -->
<g id="edge22" class="edge">
<title>Node16&#45;&gt;Node17</title>
<path fill="none" stroke="midnightblue" d="M744.5,-101.8C744.5,-92.91 744.5,-82.78 744.5,-75.75"/>
<polygon fill="midnightblue" stroke="midnightblue" points="741,-102.08 744.5,-112.08 748,-102.08 741,-102.08"/>
</g>
<!-- Node19&#45;&gt;Node16 -->
<g id="edge25" class="edge">
<title>Node19&#45;&gt;Node16</title>
<path fill="none" stroke="midnightblue" d="M898.69,-165.7C861.89,-155.51 808.57,-140.74 775.25,-131.52"/>
<polygon fill="midnightblue" stroke="midnightblue" points="898.03,-169.15 908.6,-168.44 899.9,-162.4 898.03,-169.15"/>
</g>
<!-- Node20 -->
<g id="node20" class="node">
<title>Node20</title>
<g id="a_node20"><a xlink:href="calc_8cpp.html" target="_top" xlink:title="Implementation of Calc Class.">
<polygon fill="white" stroke="black" points="885.5,-112.5 885.5,-131.5 993.5,-131.5 993.5,-112.5 885.5,-112.5"/>
<text text-anchor="middle" x="939.5" y="-119.5" font-family="Helvetica,sans-Serif" font-size="10.00">src/export/calc.cpp</text>
</a>
</g>
</g>
<!-- Node19&#45;&gt;Node20 -->
<g id="edge26" class="edge">
<title>Node19&#45;&gt;Node20</title>
<path fill="none" stroke="midnightblue" d="M939.5,-157.8C939.5,-148.91 939.5,-138.78 939.5,-131.75"/>
<polygon fill="midnightblue" stroke="midnightblue" points="936,-158.08 939.5,-168.08 943,-158.08 936,-158.08"/>
</g>
<!-- Node21&#45;&gt;Node9 -->
<g id="edge28" class="edge">
<title>Node21&#45;&gt;Node9</title>
<path fill="none" stroke="midnightblue" d="M463.42,-285.54C452.76,-277.54 442.33,-267.27 436.5,-255 430.59,-242.56 432.44,-237.17 436.5,-224 441.77,-206.9 514.99,-105.98 537.17,-75.63"/>
<polygon fill="midnightblue" stroke="midnightblue" points="461.73,-288.63 471.94,-291.47 465.73,-282.88 461.73,-288.63"/>
</g>
<!-- Node22 -->
<g id="node22" class="node">
<title>Node22</title>
<g id="a_node22"><a xlink:href="channel__graph_8cpp.html" target="_top" xlink:title="Implementation of Channel_Graph Class.">
<polygon fill="white" stroke="black" points="445,-224.5 445,-254.5 552,-254.5 552,-224.5 445,-224.5"/>
<text text-anchor="start" x="453" y="-242.5" font-family="Helvetica,sans-Serif" font-size="10.00">src/export/channel</text>
<text text-anchor="middle" x="498.5" y="-231.5" font-family="Helvetica,sans-Serif" font-size="10.00">_graph.cpp</text>
</a>
</g>
</g>
<!-- Node21&#45;&gt;Node22 -->
<g id="edge29" class="edge">
<title>Node21&#45;&gt;Node22</title>
<path fill="none" stroke="midnightblue" d="M498.5,-281.11C498.5,-272.15 498.5,-262.32 498.5,-254.58"/>
<polygon fill="midnightblue" stroke="midnightblue" points="495,-281.4 498.5,-291.4 502,-281.4 495,-281.4"/>
</g>
<!-- Node23&#45;&gt;Node16 -->
<g id="edge31" class="edge">
<title>Node23&#45;&gt;Node16</title>
<path fill="none" stroke="midnightblue" d="M765.13,-286.72C760.23,-247.82 749.13,-159.71 745.6,-131.71"/>
<polygon fill="midnightblue" stroke="midnightblue" points="761.67,-287.21 766.39,-296.7 768.61,-286.34 761.67,-287.21"/>
</g>
<!-- Node24 -->
<g id="node24" class="node">
<title>Node24</title>
<g id="a_node24"><a xlink:href="macro_8cpp.html" target="_top" xlink:title="Implementation of Macro class.">
<polygon fill="white" stroke="black" points="792,-230 792,-249 911,-249 911,-230 792,-230"/>
<text text-anchor="middle" x="851.5" y="-237" font-family="Helvetica,sans-Serif" font-size="10.00">src/export/macro.cpp</text>
</a>
</g>
</g>
<!-- Node23&#45;&gt;Node24 -->
<g id="edge32" class="edge">
<title>Node23&#45;&gt;Node24</title>
<path fill="none" stroke="midnightblue" d="M786.8,-290.57C803.38,-277.74 826.71,-259.69 840.35,-249.13"/>
<polygon fill="midnightblue" stroke="midnightblue" points="784.6,-287.85 778.83,-296.73 788.88,-293.38 784.6,-287.85"/>
</g>
<!-- Node26 -->
<g id="node26" class="node">
<title>Node26</title>
<g id="a_node26"><a xlink:href="type__track__global_8h.html" target="_top" xlink:title="Global Access of Type Track.">
<polygon fill="white" stroke="black" points="968,-224.5 968,-254.5 1079,-254.5 1079,-224.5 968,-224.5"/>
<text text-anchor="start" x="976" y="-242.5" font-family="Helvetica,sans-Serif" font-size="10.00">include/export/type</text>
<text text-anchor="middle" x="1023.5" y="-231.5" font-family="Helvetica,sans-Serif" font-size="10.00">_track_global.h</text>
</a>
</g>
</g>
<!-- Node25&#45;&gt;Node26 -->
<g id="edge34" class="edge">
<title>Node25&#45;&gt;Node26</title>
<path fill="none" stroke="midnightblue" d="M1023.5,-281.11C1023.5,-272.15 1023.5,-262.32 1023.5,-254.58"/>
<polygon fill="midnightblue" stroke="midnightblue" points="1020,-281.4 1023.5,-291.4 1027,-281.4 1020,-281.4"/>
</g>
<!-- Node27 -->
<g id="node27" class="node">
<title>Node27</title>
<g id="a_node27"><a xlink:href="type__track_8cpp.html" target="_top" xlink:title="Implementation of Type_Track Class.">
<polygon fill="white" stroke="black" points="1097.5,-230 1097.5,-249 1237.5,-249 1237.5,-230 1097.5,-230"/>
<text text-anchor="middle" x="1167.5" y="-237" font-family="Helvetica,sans-Serif" font-size="10.00">src/export/type_track.cpp</text>
</a>
</g>
</g>
<!-- Node25&#45;&gt;Node27 -->
<g id="edge36" class="edge">
<title>Node25&#45;&gt;Node27</title>
<path fill="none" stroke="midnightblue" d="M1064.19,-287.13C1091.91,-274.62 1127.31,-258.64 1148.65,-249.01"/>
<polygon fill="midnightblue" stroke="midnightblue" points="1062.42,-284.09 1054.75,-291.4 1065.3,-290.47 1062.42,-284.09"/>
</g>
<!-- Node26&#45;&gt;Node19 -->
<g id="edge35" class="edge">
<title>Node26&#45;&gt;Node19</title>
<path fill="none" stroke="midnightblue" d="M995.24,-218.48C980.44,-208 963.09,-195.71 951.72,-187.66"/>
<polygon fill="midnightblue" stroke="midnightblue" points="993.41,-221.48 1003.59,-224.4 997.46,-215.76 993.41,-221.48"/>
</g>
</g>
</svg>
        <g id="navigator" transform="translate(0 0)" fill="#404254">
                <rect fill="#f2f5e9" fill-opacity="0.5" stroke="#606060" stroke-width=".5" x="0" y="0" width="60" height="60"/>
                <use id="zoomplus" xlink:href="#zoomPlus" x="17" y="9" onmousedown="handleZoom(evt,'in')"/>
                <use id="zoomminus" xlink:href="#zoomMin" x="42" y="9" onmousedown="handleZoom(evt,'out')"/>
                <use id="reset" xlink:href="#resetDef" x="30" y="36" onmousedown="handleReset()"/>
                <g id="arrowUp" xlink:href="#dirArrow" transform="translate(30 24)" onmousedown="handlePan(0,-1)">
                  <use xlink:href="#rim" fill="#404040">
                        <set attributeName="fill" to="#808080" begin="arrowUp.mouseover" end="arrowUp.mouseout"/>
                  </use>
                  <path fill="none" stroke="white" stroke-width="1.5" d="M0,-3.0v7 M-2.5,-0.5L0,-3.0L2.5,-0.5"/>
                </g>
                <g id="arrowRight" xlink:href="#dirArrow" transform="rotate(90) translate(36 -43)" onmousedown="handlePan(1,0)">
                  <use xlink:href="#rim" fill="#404040">
                        <set attributeName="fill" to="#808080" begin="arrowRight.mouseover" end="arrowRight.mouseout"/>
                  </use>
                  <path fill="none" stroke="white" stroke-width="1.5" d="M0,-3.0v7 M-2.5,-0.5L0,-3.0L2.5,-0.5"/>
                </g>
                <g id="arrowDown" xlink:href="#dirArrow" transform="rotate(180) translate(-30 -48)" onmousedown="handlePan(0,1)">
                  <use xlink:href="#rim" fill="#404040">
                        <set attributeName="fill" to="#808080" begin="arrowDown.mouseover" end="arrowDown.mouseout"/>
                  </use>
                  <path fill="none" stroke="white" stroke-width="1.5" d="M0,-3.0v7 M-2.5,-0.5L0,-3.0L2.5,-0.5"/>
                </g>
                <g id="arrowLeft" xlink:href="#dirArrow" transform="rotate(270) translate(-36 17)" onmousedown="handlePan(-1,0)">
                  <use xlink:href="#rim" fill="#404040">
                        <set attributeName="fill" to="#808080" begin="arrowLeft.mouseover" end="arrowLeft.mouseout"/>
                  </use>
                  <path fill="none" stroke="white" stroke-width="1.5" d="M0,-3.0v7 M-2.5,-0.5L0,-3.0L2.5,-0.5"/>
                </g>
        </g>
        <svg viewBox="0 0 15 15" width="100%" height="30px" preserveAspectRatio="xMaxYMin meet">
         <g id="arrow_out" transform="scale(0.3 0.3)">
          <a xlink:href="include_2log_8h__dep__incl_org.svg" target="_base">
           <rect id="button" ry="5" rx="5" y="6" x="6" height="38" width="38"
                fill="#f2f5e9" fill-opacity="0.5" stroke="#606060" stroke-width="1.0"/>
           <path id="arrow"
             d="M 11.500037,31.436501 C 11.940474,20.09759 22.043105,11.32322 32.158766,21.979434 L 37.068811,17.246167 C 37.068811,17.246167 37.088388,32 37.088388,32 L 22.160133,31.978069 C 22.160133,31.978069 26.997745,27.140456 26.997745,27.140456 C 18.528582,18.264221 13.291696,25.230495 11.500037,31.436501 z"
             style="fill:#404040;"/>
          </a>
         </g>
        </svg>
</svg>
