<?xml version="1.0" encoding="UTF-8" standalone="no"?>
<!DOCTYPE svg PUBLIC "-//W3C//DTD SVG 1.1//EN"
 "http://www.w3.org/Graphics/SVG/1.1/DTD/svg11.dtd">
<!-- Generated by graphviz version 2.43.0 (0)
 -->
<!-- Title: include/log.h Pages: 1 -->
<!--zoomable 151 -->
<svg id="main" version="1.1" xmlns="http://www.w3.org/2000/svg" xmlns:xlink="http://www.w3.org/1999/xlink" xml:space="preserve" onload="init(evt)">
<style type="text/css"><![CDATA[
.edge:hover path { stroke: red; }
.edge:hover polygon { stroke: red; fill: red; }
]]></style>
<script type="text/javascript"><![CDATA[
var edges = document.getElementsByTagName('g');
if (edges && edges.length) {
  for (var i=0;i<edges.length;i++) {
    if (edges[i].id.substr(0,4)=='edge') {
      edges[i].setAttribute('class','edge');
    }
  }
}
]]></script>
        <defs>
                <circle id="rim" cx="0" cy="0" r="7"/>
                <circle id="rim2" cx="0" cy="0" r="3.5"/>
                <g id="zoomPlus">
                        <use xlink:href="#rim" fill="#404040">
                                <set attributeName="fill" to="#808080" begin="zoomplus.mouseover" end="zoomplus.mouseout"/>
                        </use>
                        <path d="M-4,0h8M0,-4v8" fill="none" stroke="white" stroke-width="1.5" pointer-events="none"/>
                </g>
                <g id="zoomMin">
                        <use xlink:href="#rim" fill="#404040">
                                <set attributeName="fill" to="#808080" begin="zoomminus.mouseover" end="zoomminus.mouseout"/>
                        </use>
                        <path d="M-4,0h8" fill="none" stroke="white" stroke-width="1.5" pointer-events="none"/>
                </g>
                <g id="dirArrow">
                        <path fill="none" stroke="white" stroke-width="1.5" d="M0,-3.0v7 M-2.5,-0.5L0,-3.0L2.5,-0.5"/>
                </g>
               <g id="resetDef">
                       <use xlink:href="#rim2" fill="#404040">
                               <set attributeName="fill" to="#808080" begin="reset.mouseover" end="reset.mouseout"/>
                       </use>
               </g>
        </defs>

<script type="text/javascript">
var viewWidth = 1058;
var viewHeight = 151;
var sectionId = 'dynsection-0';
</script>
<script xlink:href="svgpan.js"/>
<svg id="graph" class="graph">
<g id="viewport">
<title>include/log.h</title>
<polygon fill="white" stroke="transparent" points="-4,4 -4,-147 1053.5,-147 1053.5,4 -4,4"/>
<!-- Node1 -->
<g id="node1" class="node">
<title>Node1</title>
<g id="a_node1"><a xlink:title="Log Utilities.">
<polygon fill="#bfbfbf" stroke="black" points="590,-123.5 590,-142.5 669,-142.5 669,-123.5 590,-123.5"/>
<text text-anchor="middle" x="629.5" y="-130.5" font-family="Helvetica,sans-Serif" font-size="10.00">include/log.h</text>
</a>
</g>
</g>
<!-- Node2 -->
<g id="node2" class="node">
<title>Node2</title>
<g id="a_node2"><a xlink:href="meta_8h.html" target="_top" xlink:title="mmCEsim meta data">
<polygon fill="white" stroke="black" points="323,-67.5 323,-86.5 374,-86.5 374,-67.5 323,-67.5"/>
<text text-anchor="middle" x="348.5" y="-74.5" font-family="Helvetica,sans-Serif" font-size="10.00">meta.h</text>
</a>
</g>
</g>
<!-- Node1&#45;&gt;Node2 -->
<g id="edge1" class="edge">
<title>Node1&#45;&gt;Node2</title>
<path fill="none" stroke="midnightblue" d="M589.84,-124.38C534.95,-113.83 436.66,-94.94 384.05,-84.83"/>
<polygon fill="midnightblue" stroke="midnightblue" points="384.64,-81.38 374.16,-82.93 383.32,-88.26 384.64,-81.38"/>
</g>
<!-- Node4 -->
<g id="node4" class="node">
<title>Node4</title>
<g id="a_node4"><a xlink:href="term_8h.html" target="_top" xlink:title="Terminal Color and Style Control.">
<polygon fill="white" stroke="black" points="108,-67.5 108,-86.5 157,-86.5 157,-67.5 108,-67.5"/>
<text text-anchor="middle" x="132.5" y="-74.5" font-family="Helvetica,sans-Serif" font-size="10.00">term.h</text>
</a>
</g>
</g>
<!-- Node1&#45;&gt;Node4 -->
<g id="edge3" class="edge">
<title>Node1&#45;&gt;Node4</title>
<path fill="none" stroke="midnightblue" d="M589.67,-127.67C494.82,-117.37 256.85,-91.51 167.3,-81.78"/>
<polygon fill="midnightblue" stroke="midnightblue" points="167.46,-78.28 157.14,-80.68 166.7,-85.24 167.46,-78.28"/>
</g>
<!-- Node7 -->
<g id="node7" class="node">
<title>Node7</title>
<g id="a_node7"><a xlink:href="utils_8h.html" target="_top" xlink:title="Utilities.">
<polygon fill="white" stroke="black" points="505,-67.5 505,-86.5 552,-86.5 552,-67.5 505,-67.5"/>
<text text-anchor="middle" x="528.5" y="-74.5" font-family="Helvetica,sans-Serif" font-size="10.00">utils.h</text>
</a>
</g>
</g>
<!-- Node1&#45;&gt;Node7 -->
<g id="edge7" class="edge">
<title>Node1&#45;&gt;Node7</title>
<path fill="none" stroke="midnightblue" d="M613.27,-123.32C597.15,-114.7 572.2,-101.36 553.54,-91.39"/>
<polygon fill="midnightblue" stroke="midnightblue" points="555.16,-88.28 544.69,-86.65 551.86,-94.46 555.16,-88.28"/>
</g>
<!-- Node18 -->
<g id="node18" class="node">
<title>Node18</title>
<g id="a_node18"><a xlink:title=" ">
<polygon fill="white" stroke="#bfbfbf" points="570.5,-67.5 570.5,-86.5 614.5,-86.5 614.5,-67.5 570.5,-67.5"/>
<text text-anchor="middle" x="592.5" y="-74.5" font-family="Helvetica,sans-Serif" font-size="10.00">ctime</text>
</a>
</g>
</g>
<!-- Node1&#45;&gt;Node18 -->
<g id="edge19" class="edge">
<title>Node1&#45;&gt;Node18</title>
<path fill="none" stroke="midnightblue" d="M623.39,-123.08C618.22,-115.53 610.65,-104.49 604.31,-95.23"/>
<polygon fill="midnightblue" stroke="midnightblue" points="607.04,-93.02 598.5,-86.75 601.26,-96.98 607.04,-93.02"/>
</g>
<!-- Node19 -->
<g id="node19" class="node">
<title>Node19</title>
<g id="a_node19"><a xlink:title=" ">
<polygon fill="white" stroke="#bfbfbf" points="632.5,-67.5 632.5,-86.5 700.5,-86.5 700.5,-67.5 632.5,-67.5"/>
<text text-anchor="middle" x="666.5" y="-74.5" font-family="Helvetica,sans-Serif" font-size="10.00">filesystem</text>
</a>
</g>
</g>
<!-- Node1&#45;&gt;Node19 -->
<g id="edge20" class="edge">
<title>Node1&#45;&gt;Node19</title>
<path fill="none" stroke="midnightblue" d="M635.61,-123.08C640.78,-115.53 648.35,-104.49 654.69,-95.23"/>
<polygon fill="midnightblue" stroke="midnightblue" points="657.74,-96.98 660.5,-86.75 651.96,-93.02 657.74,-96.98"/>
</g>
<!-- Node20 -->
<g id="node20" class="node">
<title>Node20</title>
<g id="a_node20"><a xlink:title=" ">
<polygon fill="white" stroke="#bfbfbf" points="719,-67.5 719,-86.5 774,-86.5 774,-67.5 719,-67.5"/>
<text text-anchor="middle" x="746.5" y="-74.5" font-family="Helvetica,sans-Serif" font-size="10.00">fstream</text>
</a>
</g>
</g>
<!-- Node1&#45;&gt;Node20 -->
<g id="edge21" class="edge">
<title>Node1&#45;&gt;Node20</title>
<path fill="none" stroke="midnightblue" d="M648.04,-123.44C667.12,-114.64 697.07,-100.81 718.94,-90.72"/>
<polygon fill="midnightblue" stroke="midnightblue" points="720.43,-93.88 728.05,-86.52 717.5,-87.53 720.43,-93.88"/>
</g>
<!-- Node21 -->
<g id="node21" class="node">
<title>Node21</title>
<g id="a_node21"><a xlink:title=" ">
<polygon fill="white" stroke="#bfbfbf" points="792.5,-67.5 792.5,-86.5 848.5,-86.5 848.5,-67.5 792.5,-67.5"/>
<text text-anchor="middle" x="820.5" y="-74.5" font-family="Helvetica,sans-Serif" font-size="10.00">iomanip</text>
</a>
</g>
</g>
<!-- Node1&#45;&gt;Node21 -->
<g id="edge22" class="edge">
<title>Node1&#45;&gt;Node21</title>
<path fill="none" stroke="midnightblue" d="M659.76,-123.44C693.03,-114.04 746.53,-98.91 782.57,-88.72"/>
<polygon fill="midnightblue" stroke="midnightblue" points="783.57,-92.08 792.25,-85.99 781.67,-85.34 783.57,-92.08"/>
</g>
<!-- Node22 -->
<g id="node22" class="node">
<title>Node22</title>
<g id="a_node22"><a xlink:title=" ">
<polygon fill="white" stroke="#bfbfbf" points="867,-67.5 867,-86.5 920,-86.5 920,-67.5 867,-67.5"/>
<text text-anchor="middle" x="893.5" y="-74.5" font-family="Helvetica,sans-Serif" font-size="10.00">spy.hpp</text>
</a>
</g>
</g>
<!-- Node1&#45;&gt;Node22 -->
<g id="edge23" class="edge">
<title>Node1&#45;&gt;Node22</title>
<path fill="none" stroke="midnightblue" d="M669.17,-124.79C712.7,-116.75 784.89,-103 856.68,-87.09"/>
<polygon fill="midnightblue" stroke="midnightblue" points="857.8,-90.43 866.8,-84.83 856.28,-83.6 857.8,-90.43"/>
</g>
<!-- Node3 -->
<g id="node3" class="node">
<title>Node3</title>
<g id="a_node3"><a xlink:title=" ">
<polygon fill="white" stroke="#bfbfbf" points="145.5,-6 145.5,-25 189.5,-25 189.5,-6 145.5,-6"/>
<text text-anchor="middle" x="167.5" y="-13" font-family="Helvetica,sans-Serif" font-size="10.00">string</text>
</a>
</g>
</g>
<!-- Node2&#45;&gt;Node3 -->
<g id="edge2" class="edge">
<title>Node2&#45;&gt;Node3</title>
<path fill="none" stroke="midnightblue" d="M322.91,-69.55C292.74,-61.66 241.3,-47.33 198.5,-31 197.08,-30.46 195.63,-29.88 194.17,-29.27"/>
<polygon fill="midnightblue" stroke="midnightblue" points="195.25,-25.92 184.69,-25.08 192.42,-32.33 195.25,-25.92"/>
</g>
<!-- Node4&#45;&gt;Node3 -->
<g id="edge6" class="edge">
<title>Node4&#45;&gt;Node3</title>
<path fill="none" stroke="midnightblue" d="M137.51,-67.48C142.66,-58.73 150.81,-44.87 157.32,-33.81"/>
<polygon fill="midnightblue" stroke="midnightblue" points="160.44,-35.4 162.49,-25.01 154.41,-31.85 160.44,-35.4"/>
</g>
<!-- Node5 -->
<g id="node5" class="node">
<title>Node5</title>
<g id="a_node5"><a xlink:title=" ">
<polygon fill="white" stroke="#bfbfbf" points="0,-6 0,-25 49,-25 49,-6 0,-6"/>
<text text-anchor="middle" x="24.5" y="-13" font-family="Helvetica,sans-Serif" font-size="10.00">cstdlib</text>
</a>
</g>
</g>
<!-- Node4&#45;&gt;Node5 -->
<g id="edge4" class="edge">
<title>Node4&#45;&gt;Node5</title>
<path fill="none" stroke="midnightblue" d="M117.03,-67.48C99.22,-57.67 69.76,-41.43 48.87,-29.92"/>
<polygon fill="midnightblue" stroke="midnightblue" points="50.39,-26.77 39.95,-25.01 47.01,-32.9 50.39,-26.77"/>
</g>
<!-- Node6 -->
<g id="node6" class="node">
<title>Node6</title>
<g id="a_node6"><a xlink:title=" ">
<polygon fill="white" stroke="#bfbfbf" points="67.5,-6 67.5,-25 127.5,-25 127.5,-6 67.5,-6"/>
<text text-anchor="middle" x="97.5" y="-13" font-family="Helvetica,sans-Serif" font-size="10.00">iostream</text>
</a>
</g>
</g>
<!-- Node4&#45;&gt;Node6 -->
<g id="edge5" class="edge">
<title>Node4&#45;&gt;Node6</title>
<path fill="none" stroke="midnightblue" d="M127.49,-67.48C122.34,-58.73 114.19,-44.87 107.68,-33.81"/>
<polygon fill="midnightblue" stroke="midnightblue" points="110.59,-31.85 102.51,-25.01 104.56,-35.4 110.59,-31.85"/>
</g>
<!-- Node7&#45;&gt;Node3 -->
<g id="edge12" class="edge">
<title>Node7&#45;&gt;Node3</title>
<path fill="none" stroke="midnightblue" d="M504.79,-75.21C449.84,-72.85 309.98,-63.85 198.5,-31 196.62,-30.45 194.71,-29.79 192.81,-29.08"/>
<polygon fill="midnightblue" stroke="midnightblue" points="194.12,-25.83 183.55,-25.13 191.37,-32.27 194.12,-25.83"/>
</g>
<!-- Node8 -->
<g id="node8" class="node">
<title>Node8</title>
<g id="a_node8"><a xlink:title=" ">
<polygon fill="white" stroke="#bfbfbf" points="845.5,-6 845.5,-25 909.5,-25 909.5,-6 845.5,-6"/>
<text text-anchor="middle" x="877.5" y="-13" font-family="Helvetica,sans-Serif" font-size="10.00">algorithm</text>
</a>
</g>
</g>
<!-- Node7&#45;&gt;Node8 -->
<g id="edge8" class="edge">
<title>Node7&#45;&gt;Node8</title>
<path fill="none" stroke="midnightblue" d="M552.2,-69.12C555.31,-68.34 558.47,-67.61 561.5,-67 682.35,-42.73 716.62,-59.71 836.5,-31 839.73,-30.23 843.06,-29.29 846.36,-28.27"/>
<polygon fill="midnightblue" stroke="midnightblue" points="847.67,-31.52 856.05,-25.04 845.46,-24.88 847.67,-31.52"/>
</g>
<!-- Node9 -->
<g id="node9" class="node">
<title>Node9</title>
<g id="a_node9"><a xlink:title=" ">
<polygon fill="white" stroke="#bfbfbf" points="928,-6 928,-25 977,-25 977,-6 928,-6"/>
<text text-anchor="middle" x="952.5" y="-13" font-family="Helvetica,sans-Serif" font-size="10.00">cctype</text>
</a>
</g>
</g>
<!-- Node7&#45;&gt;Node9 -->
<g id="edge9" class="edge">
<title>Node7&#45;&gt;Node9</title>
<path fill="none" stroke="midnightblue" d="M552.18,-69.04C555.3,-68.27 558.46,-67.56 561.5,-67 718.3,-37.92 764.06,-70.73 918.5,-31 920.86,-30.39 923.27,-29.65 925.66,-28.82"/>
<polygon fill="midnightblue" stroke="midnightblue" points="927.18,-31.98 935.21,-25.07 924.62,-25.46 927.18,-31.98"/>
</g>
<!-- Node10 -->
<g id="node10" class="node">
<title>Node10</title>
<g id="a_node10"><a xlink:title=" ">
<polygon fill="white" stroke="#bfbfbf" points="995.5,-6 995.5,-25 1049.5,-25 1049.5,-6 995.5,-6"/>
<text text-anchor="middle" x="1022.5" y="-13" font-family="Helvetica,sans-Serif" font-size="10.00">random</text>
</a>
</g>
</g>
<!-- Node7&#45;&gt;Node10 -->
<g id="edge10" class="edge">
<title>Node7&#45;&gt;Node10</title>
<path fill="none" stroke="midnightblue" d="M552.18,-68.99C555.29,-68.23 558.46,-67.54 561.5,-67 748.16,-33.92 802.09,-74.9 986.5,-31 989.17,-30.36 991.91,-29.56 994.62,-28.66"/>
<polygon fill="midnightblue" stroke="midnightblue" points="996.01,-31.88 1004.16,-25.11 993.57,-25.32 996.01,-31.88"/>
</g>
<!-- Node11 -->
<g id="node11" class="node">
<title>Node11</title>
<g id="a_node11"><a xlink:title=" ">
<polygon fill="white" stroke="#bfbfbf" points="207.5,-6 207.5,-25 263.5,-25 263.5,-6 207.5,-6"/>
<text text-anchor="middle" x="235.5" y="-13" font-family="Helvetica,sans-Serif" font-size="10.00">sstream</text>
</a>
</g>
</g>
<!-- Node7&#45;&gt;Node11 -->
<g id="edge11" class="edge">
<title>Node7&#45;&gt;Node11</title>
<path fill="none" stroke="midnightblue" d="M504.85,-73.44C459.27,-68.17 356.35,-54.55 272.5,-31 269.91,-30.27 267.25,-29.43 264.61,-28.53"/>
<polygon fill="midnightblue" stroke="midnightblue" points="265.81,-25.24 255.22,-25.07 263.39,-31.81 265.81,-25.24"/>
</g>
<!-- Node12 -->
<g id="node12" class="node">
<title>Node12</title>
<g id="a_node12"><a xlink:title=" ">
<polygon fill="white" stroke="#bfbfbf" points="282,-6 282,-25 329,-25 329,-6 282,-6"/>
<text text-anchor="middle" x="305.5" y="-13" font-family="Helvetica,sans-Serif" font-size="10.00">vector</text>
</a>
</g>
</g>
<!-- Node7&#45;&gt;Node12 -->
<g id="edge13" class="edge">
<title>Node7&#45;&gt;Node12</title>
<path fill="none" stroke="midnightblue" d="M504.71,-71.81C468.35,-65.08 397,-50.6 338.5,-31 336.63,-30.37 334.72,-29.68 332.81,-28.95"/>
<polygon fill="midnightblue" stroke="midnightblue" points="334,-25.66 323.42,-25.08 331.33,-32.13 334,-25.66"/>
</g>
<!-- Node13 -->
<g id="node13" class="node">
<title>Node13</title>
<g id="a_node13"><a xlink:href="__boost__config_8h.html" target="_top" xlink:title="Boost Configurations.">
<polygon fill="white" stroke="black" points="347.5,-6 347.5,-25 439.5,-25 439.5,-6 347.5,-6"/>
<text text-anchor="middle" x="393.5" y="-13" font-family="Helvetica,sans-Serif" font-size="10.00">_boost_config.h</text>
</a>
</g>
</g>
<!-- Node7&#45;&gt;Node13 -->
<g id="edge14" class="edge">
<title>Node7&#45;&gt;Node13</title>
<path fill="none" stroke="midnightblue" d="M509.16,-67.48C486.4,-57.45 448.41,-40.7 422.21,-29.15"/>
<polygon fill="midnightblue" stroke="midnightblue" points="423.37,-25.84 412.81,-25.01 420.55,-32.24 423.37,-25.84"/>
</g>
<!-- Node14 -->
<g id="node14" class="node">
<title>Node14</title>
<g id="a_node14"><a xlink:title=" ">
<polygon fill="white" stroke="#bfbfbf" points="458,-0.5 458,-30.5 599,-30.5 599,-0.5 458,-0.5"/>
<text text-anchor="start" x="466" y="-18.5" font-family="Helvetica,sans-Serif" font-size="10.00">boost/dll/runtime_symbol</text>
<text text-anchor="middle" x="528.5" y="-7.5" font-family="Helvetica,sans-Serif" font-size="10.00">_info.hpp</text>
</a>
</g>
</g>
<!-- Node7&#45;&gt;Node14 -->
<g id="edge15" class="edge">
<title>Node7&#45;&gt;Node14</title>
<path fill="none" stroke="midnightblue" d="M528.5,-67.48C528.5,-60.47 528.5,-50.19 528.5,-40.7"/>
<polygon fill="midnightblue" stroke="midnightblue" points="532,-40.52 528.5,-30.52 525,-40.52 532,-40.52"/>
</g>
<!-- Node15 -->
<g id="node15" class="node">
<title>Node15</title>
<g id="a_node15"><a xlink:title=" ">
<polygon fill="white" stroke="#bfbfbf" points="617.5,-6 617.5,-25 663.5,-25 663.5,-6 617.5,-6"/>
<text text-anchor="middle" x="640.5" y="-13" font-family="Helvetica,sans-Serif" font-size="10.00">pwd.h</text>
</a>
</g>
</g>
<!-- Node7&#45;&gt;Node15 -->
<g id="edge16" class="edge">
<title>Node7&#45;&gt;Node15</title>
<path fill="none" stroke="midnightblue" d="M544.55,-67.48C563.09,-57.62 593.84,-41.29 615.52,-29.77"/>
<polygon fill="midnightblue" stroke="midnightblue" points="617.29,-32.79 624.48,-25.01 614.01,-26.61 617.29,-32.79"/>
</g>
<!-- Node16 -->
<g id="node16" class="node">
<title>Node16</title>
<g id="a_node16"><a xlink:title=" ">
<polygon fill="white" stroke="#bfbfbf" points="681.5,-6 681.5,-25 753.5,-25 753.5,-6 681.5,-6"/>
<text text-anchor="middle" x="717.5" y="-13" font-family="Helvetica,sans-Serif" font-size="10.00">sys/types.h</text>
</a>
</g>
</g>
<!-- Node7&#45;&gt;Node16 -->
<g id="edge17" class="edge">
<title>Node7&#45;&gt;Node16</title>
<path fill="none" stroke="midnightblue" d="M552.22,-68.66C580.78,-59.8 630.18,-44.43 672.5,-31 675.29,-30.12 678.17,-29.2 681.07,-28.27"/>
<polygon fill="midnightblue" stroke="midnightblue" points="682.41,-31.51 690.86,-25.13 680.27,-24.85 682.41,-31.51"/>
</g>
<!-- Node17 -->
<g id="node17" class="node">
<title>Node17</title>
<g id="a_node17"><a xlink:title=" ">
<polygon fill="white" stroke="#bfbfbf" points="771.5,-6 771.5,-25 827.5,-25 827.5,-6 771.5,-6"/>
<text text-anchor="middle" x="799.5" y="-13" font-family="Helvetica,sans-Serif" font-size="10.00">unistd.h</text>
</a>
</g>
</g>
<!-- Node7&#45;&gt;Node17 -->
<g id="edge18" class="edge">
<title>Node7&#45;&gt;Node17</title>
<path fill="none" stroke="midnightblue" d="M552.23,-69.26C555.34,-68.45 558.49,-67.68 561.5,-67 650.03,-47.04 675.16,-55.68 762.5,-31 765.09,-30.27 767.74,-29.42 770.39,-28.52"/>
<polygon fill="midnightblue" stroke="midnightblue" points="771.6,-31.8 779.78,-25.06 769.18,-25.23 771.6,-31.8"/>
</g>
</g>
</svg>
        <g id="navigator" transform="translate(0 0)" fill="#404254">
                <rect fill="#f2f5e9" fill-opacity="0.5" stroke="#606060" stroke-width=".5" x="0" y="0" width="60" height="60"/>
                <use id="zoomplus" xlink:href="#zoomPlus" x="17" y="9" onmousedown="handleZoom(evt,'in')"/>
                <use id="zoomminus" xlink:href="#zoomMin" x="42" y="9" onmousedown="handleZoom(evt,'out')"/>
                <use id="reset" xlink:href="#resetDef" x="30" y="36" onmousedown="handleReset()"/>
                <g id="arrowUp" xlink:href="#dirArrow" transform="translate(30 24)" onmousedown="handlePan(0,-1)">
                  <use xlink:href="#rim" fill="#404040">
                        <set attributeName="fill" to="#808080" begin="arrowUp.mouseover" end="arrowUp.mouseout"/>
                  </use>
                  <path fill="none" stroke="white" stroke-width="1.5" d="M0,-3.0v7 M-2.5,-0.5L0,-3.0L2.5,-0.5"/>
                </g>
                <g id="arrowRight" xlink:href="#dirArrow" transform="rotate(90) translate(36 -43)" onmousedown="handlePan(1,0)">
                  <use xlink:href="#rim" fill="#404040">
                        <set attributeName="fill" to="#808080" begin="arrowRight.mouseover" end="arrowRight.mouseout"/>
                  </use>
                  <path fill="none" stroke="white" stroke-width="1.5" d="M0,-3.0v7 M-2.5,-0.5L0,-3.0L2.5,-0.5"/>
                </g>
                <g id="arrowDown" xlink:href="#dirArrow" transform="rotate(180) translate(-30 -48)" onmousedown="handlePan(0,1)">
                  <use xlink:href="#rim" fill="#404040">
                        <set attributeName="fill" to="#808080" begin="arrowDown.mouseover" end="arrowDown.mouseout"/>
                  </use>
                  <path fill="none" stroke="white" stroke-width="1.5" d="M0,-3.0v7 M-2.5,-0.5L0,-3.0L2.5,-0.5"/>
                </g>
                <g id="arrowLeft" xlink:href="#dirArrow" transform="rotate(270) translate(-36 17)" onmousedown="handlePan(-1,0)">
                  <use xlink:href="#rim" fill="#404040">
                        <set attributeName="fill" to="#808080" begin="arrowLeft.mouseover" end="arrowLeft.mouseout"/>
                  </use>
                  <path fill="none" stroke="white" stroke-width="1.5" d="M0,-3.0v7 M-2.5,-0.5L0,-3.0L2.5,-0.5"/>
                </g>
        </g>
        <svg viewBox="0 0 15 15" width="100%" height="30px" preserveAspectRatio="xMaxYMin meet">
         <g id="arrow_out" transform="scale(0.3 0.3)">
          <a xlink:href="include_2log_8h__incl_org.svg" target="_base">
           <rect id="button" ry="5" rx="5" y="6" x="6" height="38" width="38"
                fill="#f2f5e9" fill-opacity="0.5" stroke="#606060" stroke-width="1.0"/>
           <path id="arrow"
             d="M 11.500037,31.436501 C 11.940474,20.09759 22.043105,11.32322 32.158766,21.979434 L 37.068811,17.246167 C 37.068811,17.246167 37.088388,32 37.088388,32 L 22.160133,31.978069 C 22.160133,31.978069 26.997745,27.140456 26.997745,27.140456 C 18.528582,18.264221 13.291696,25.230495 11.500037,31.436501 z"
             style="fill:#404040;"/>
          </a>
         </g>
        </svg>
</svg>
