<?xml version="1.0" encoding="UTF-8" standalone="no"?>
<!DOCTYPE svg PUBLIC "-//W3C//DTD SVG 1.1//EN"
 "http://www.w3.org/Graphics/SVG/1.1/DTD/svg11.dtd">
<!-- Generated by graphviz version 2.43.0 (0)
 -->
<!-- Title: include/export/lang.h Pages: 1 -->
<svg width="384pt" height="252pt"
 viewBox="0.00 0.00 383.50 252.00" xmlns="http://www.w3.org/2000/svg" xmlns:xlink="http://www.w3.org/1999/xlink">
<g id="graph0" class="graph" transform="scale(1 1) rotate(0) translate(4 248)">
<title>include/export/lang.h</title>
<polygon fill="white" stroke="transparent" points="-4,4 -4,-248 379.5,-248 379.5,4 -4,4"/>
<!-- Node1 -->
<g id="node1" class="node">
<title>Node1</title>
<g id="a_node1"><a xlink:title="Export Languages.">
<polygon fill="#bfbfbf" stroke="black" points="79.5,-224.5 79.5,-243.5 198.5,-243.5 198.5,-224.5 79.5,-224.5"/>
<text text-anchor="middle" x="139" y="-231.5" font-family="Helvetica,sans-Serif" font-size="10.00">include/export/lang.h</text>
</a>
</g>
</g>
<!-- Node2 -->
<g id="node2" class="node">
<title>Node2</title>
<g id="a_node2"><a xlink:href="export_8h.html" target="_top" xlink:title="Export mmCEsim Configuration to Other Programming Languages.">
<polygon fill="white" stroke="black" points="45.5,-56.5 45.5,-75.5 140.5,-75.5 140.5,-56.5 45.5,-56.5"/>
<text text-anchor="middle" x="93" y="-63.5" font-family="Helvetica,sans-Serif" font-size="10.00">include/export.h</text>
</a>
</g>
</g>
<!-- Node1&#45;&gt;Node2 -->
<g id="edge1" class="edge">
<title>Node1&#45;&gt;Node2</title>
<path fill="none" stroke="midnightblue" d="M126.5,-215.74C121.24,-207.68 115.53,-197.73 112,-188 97.42,-147.82 94.02,-96.14 93.24,-75.79"/>
<polygon fill="midnightblue" stroke="midnightblue" points="123.77,-217.95 132.32,-224.21 129.54,-213.99 123.77,-217.95"/>
</g>
<!-- Node5 -->
<g id="node5" class="node">
<title>Node5</title>
<g id="a_node5"><a xlink:href="macro_8h.html" target="_top" xlink:title="ALG Macro.">
<polygon fill="white" stroke="black" points="121.5,-168.5 121.5,-187.5 250.5,-187.5 250.5,-168.5 121.5,-168.5"/>
<text text-anchor="middle" x="186" y="-175.5" font-family="Helvetica,sans-Serif" font-size="10.00">include/export/macro.h</text>
</a>
</g>
</g>
<!-- Node1&#45;&gt;Node5 -->
<g id="edge4" class="edge">
<title>Node1&#45;&gt;Node5</title>
<path fill="none" stroke="midnightblue" d="M153.42,-216.43C161.66,-206.97 171.65,-195.48 178.38,-187.75"/>
<polygon fill="midnightblue" stroke="midnightblue" points="150.69,-214.24 146.76,-224.08 155.97,-218.84 150.69,-214.24"/>
</g>
<!-- Node3 -->
<g id="node3" class="node">
<title>Node3</title>
<g id="a_node3"><a xlink:href="export_8cpp.html" target="_top" xlink:title="Implementation of Export Class.">
<polygon fill="white" stroke="black" points="0,-0.5 0,-19.5 86,-19.5 86,-0.5 0,-0.5"/>
<text text-anchor="middle" x="43" y="-7.5" font-family="Helvetica,sans-Serif" font-size="10.00">src/export.cpp</text>
</a>
</g>
</g>
<!-- Node2&#45;&gt;Node3 -->
<g id="edge2" class="edge">
<title>Node2&#45;&gt;Node3</title>
<path fill="none" stroke="midnightblue" d="M77.92,-48.72C69.11,-39.2 58.33,-27.56 51.1,-19.75"/>
<polygon fill="midnightblue" stroke="midnightblue" points="75.38,-51.12 84.74,-56.08 80.52,-46.37 75.38,-51.12"/>
</g>
<!-- Node4 -->
<g id="node4" class="node">
<title>Node4</title>
<g id="a_node4"><a xlink:href="src_2main_8cpp.html" target="_top" xlink:title="Program Command Line Options.">
<polygon fill="white" stroke="black" points="104.5,-0.5 104.5,-19.5 183.5,-19.5 183.5,-0.5 104.5,-0.5"/>
<text text-anchor="middle" x="144" y="-7.5" font-family="Helvetica,sans-Serif" font-size="10.00">src/main.cpp</text>
</a>
</g>
</g>
<!-- Node2&#45;&gt;Node4 -->
<g id="edge3" class="edge">
<title>Node2&#45;&gt;Node4</title>
<path fill="none" stroke="midnightblue" d="M108.38,-48.72C117.37,-39.2 128.36,-27.56 135.74,-19.75"/>
<polygon fill="midnightblue" stroke="midnightblue" points="105.74,-46.41 101.42,-56.08 110.83,-51.22 105.74,-46.41"/>
</g>
<!-- Node6 -->
<g id="node6" class="node">
<title>Node6</title>
<g id="a_node6"><a xlink:href="alg_8h.html" target="_top" xlink:title="Algorithm Parser (.alg Language)">
<polygon fill="white" stroke="black" points="125.5,-112.5 125.5,-131.5 238.5,-131.5 238.5,-112.5 125.5,-112.5"/>
<text text-anchor="middle" x="182" y="-119.5" font-family="Helvetica,sans-Serif" font-size="10.00">include/export/alg.h</text>
</a>
</g>
</g>
<!-- Node5&#45;&gt;Node6 -->
<g id="edge5" class="edge">
<title>Node5&#45;&gt;Node6</title>
<path fill="none" stroke="midnightblue" d="M184.6,-158.1C183.94,-149.14 183.17,-138.86 182.65,-131.75"/>
<polygon fill="midnightblue" stroke="midnightblue" points="181.11,-158.37 185.34,-168.08 188.09,-157.85 181.11,-158.37"/>
</g>
<!-- Node8 -->
<g id="node8" class="node">
<title>Node8</title>
<g id="a_node8"><a xlink:href="macro_8cpp.html" target="_top" xlink:title="Implementation of Macro class.">
<polygon fill="white" stroke="black" points="256.5,-112.5 256.5,-131.5 375.5,-131.5 375.5,-112.5 256.5,-112.5"/>
<text text-anchor="middle" x="316" y="-119.5" font-family="Helvetica,sans-Serif" font-size="10.00">src/export/macro.cpp</text>
</a>
</g>
</g>
<!-- Node5&#45;&gt;Node8 -->
<g id="edge8" class="edge">
<title>Node5&#45;&gt;Node8</title>
<path fill="none" stroke="midnightblue" d="M216.09,-164.5C240.46,-154.38 274.14,-140.39 295.5,-131.52"/>
<polygon fill="midnightblue" stroke="midnightblue" points="214.49,-161.38 206.6,-168.44 217.18,-167.84 214.49,-161.38"/>
</g>
<!-- Node6&#45;&gt;Node2 -->
<g id="edge6" class="edge">
<title>Node6&#45;&gt;Node2</title>
<path fill="none" stroke="midnightblue" d="M158.76,-106.9C142.44,-97 121.13,-84.07 107.26,-75.65"/>
<polygon fill="midnightblue" stroke="midnightblue" points="157.34,-110.13 167.7,-112.32 160.97,-104.14 157.34,-110.13"/>
</g>
<!-- Node7 -->
<g id="node7" class="node">
<title>Node7</title>
<g id="a_node7"><a xlink:href="alg_8cpp.html" target="_top" xlink:title="Implementation of class Alg.">
<polygon fill="white" stroke="black" points="159,-56.5 159,-75.5 263,-75.5 263,-56.5 159,-56.5"/>
<text text-anchor="middle" x="211" y="-63.5" font-family="Helvetica,sans-Serif" font-size="10.00">src/export/alg.cpp</text>
</a>
</g>
</g>
<!-- Node6&#45;&gt;Node7 -->
<g id="edge7" class="edge">
<title>Node6&#45;&gt;Node7</title>
<path fill="none" stroke="midnightblue" d="M191.68,-102.98C196.6,-93.82 202.36,-83.09 206.3,-75.75"/>
<polygon fill="midnightblue" stroke="midnightblue" points="188.44,-101.62 186.79,-112.08 194.6,-104.93 188.44,-101.62"/>
</g>
</g>
</svg>
