<?xml version="1.0" encoding="UTF-8" standalone="no"?>
<!DOCTYPE svg PUBLIC "-//W3C//DTD SVG 1.1//EN"
 "http://www.w3.org/Graphics/SVG/1.1/DTD/svg11.dtd">
<!-- Generated by graphviz version 2.43.0 (0)
 -->
<!-- Title: src/export/macro.cpp Pages: 1 -->
<!--zoomable 319 -->
<svg id="main" version="1.1" xmlns="http://www.w3.org/2000/svg" xmlns:xlink="http://www.w3.org/1999/xlink" xml:space="preserve" onload="init(evt)">
<style type="text/css"><![CDATA[
.edge:hover path { stroke: red; }
.edge:hover polygon { stroke: red; fill: red; }
]]></style>
<script type="text/javascript"><![CDATA[
var edges = document.getElementsByTagName('g');
if (edges && edges.length) {
  for (var i=0;i<edges.length;i++) {
    if (edges[i].id.substr(0,4)=='edge') {
      edges[i].setAttribute('class','edge');
    }
  }
}
]]></script>
        <defs>
                <circle id="rim" cx="0" cy="0" r="7"/>
                <circle id="rim2" cx="0" cy="0" r="3.5"/>
                <g id="zoomPlus">
                        <use xlink:href="#rim" fill="#404040">
                                <set attributeName="fill" to="#808080" begin="zoomplus.mouseover" end="zoomplus.mouseout"/>
                        </use>
                        <path d="M-4,0h8M0,-4v8" fill="none" stroke="white" stroke-width="1.5" pointer-events="none"/>
                </g>
                <g id="zoomMin">
                        <use xlink:href="#rim" fill="#404040">
                                <set attributeName="fill" to="#808080" begin="zoomminus.mouseover" end="zoomminus.mouseout"/>
                        </use>
                        <path d="M-4,0h8" fill="none" stroke="white" stroke-width="1.5" pointer-events="none"/>
                </g>
                <g id="dirArrow">
                        <path fill="none" stroke="white" stroke-width="1.5" d="M0,-3.0v7 M-2.5,-0.5L0,-3.0L2.5,-0.5"/>
                </g>
               <g id="resetDef">
                       <use xlink:href="#rim2" fill="#404040">
                               <set attributeName="fill" to="#808080" begin="reset.mouseover" end="reset.mouseout"/>
                       </use>
               </g>
        </defs>

<script type="text/javascript">
var viewWidth = 1200;
var viewHeight = 319;
var sectionId = 'dynsection-0';
</script>
<script xlink:href="svgpan.js"/>
<svg id="graph" class="graph">
<g id="viewport">
<title>src/export/macro.cpp</title>
<polygon fill="white" stroke="transparent" points="-4,4 -4,-315 1195.5,-315 1195.5,4 -4,4"/>
<!-- Node1 -->
<g id="node1" class="node">
<title>Node1</title>
<g id="a_node1"><a xlink:title="Implementation of Macro class.">
<polygon fill="#bfbfbf" stroke="black" points="195.5,-291.5 195.5,-310.5 314.5,-310.5 314.5,-291.5 195.5,-291.5"/>
<text text-anchor="middle" x="255" y="-298.5" font-family="Helvetica,sans-Serif" font-size="10.00">src/export/macro.cpp</text>
</a>
</g>
</g>
<!-- Node2 -->
<g id="node2" class="node">
<title>Node2</title>
<g id="a_node2"><a xlink:href="macro_8h.html" target="_top" xlink:title="ALG Macro.">
<polygon fill="white" stroke="black" points="473.5,-235.5 473.5,-254.5 564.5,-254.5 564.5,-235.5 473.5,-235.5"/>
<text text-anchor="middle" x="519" y="-242.5" font-family="Helvetica,sans-Serif" font-size="10.00">export/macro.h</text>
</a>
</g>
</g>
<!-- Node1&#45;&gt;Node2 -->
<g id="edge1" class="edge">
<title>Node1&#45;&gt;Node2</title>
<path fill="none" stroke="midnightblue" d="M296.83,-291.44C343.08,-281.98 417.61,-266.74 467.44,-256.55"/>
<polygon fill="midnightblue" stroke="midnightblue" points="468.27,-259.95 477.36,-254.52 466.87,-253.09 468.27,-259.95"/>
</g>
<!-- Node10 -->
<g id="node10" class="node">
<title>Node10</title>
<g id="a_node10"><a xlink:title=" ">
<polygon fill="white" stroke="#bfbfbf" points="40,-6 40,-25 100,-25 100,-6 40,-6"/>
<text text-anchor="middle" x="70" y="-13" font-family="Helvetica,sans-Serif" font-size="10.00">iostream</text>
</a>
</g>
</g>
<!-- Node1&#45;&gt;Node10 -->
<g id="edge36" class="edge">
<title>Node1&#45;&gt;Node10</title>
<path fill="none" stroke="midnightblue" d="M195.21,-299.31C119.84,-294.91 0,-274.62 0,-190 0,-190 0,-190 0,-132 0,-101.9 3.59,-92.86 19,-67 27.05,-53.49 39.57,-41.02 50.18,-31.85"/>
<polygon fill="midnightblue" stroke="midnightblue" points="52.69,-34.32 58.17,-25.25 48.23,-28.93 52.69,-34.32"/>
</g>
<!-- Node3 -->
<g id="node3" class="node">
<title>Node3</title>
<g id="a_node3"><a xlink:href="lang_8h.html" target="_top" xlink:title="Export Languages.">
<polygon fill="white" stroke="black" points="632.5,-179.5 632.5,-198.5 713.5,-198.5 713.5,-179.5 632.5,-179.5"/>
<text text-anchor="middle" x="673" y="-186.5" font-family="Helvetica,sans-Serif" font-size="10.00">export/lang.h</text>
</a>
</g>
</g>
<!-- Node2&#45;&gt;Node3 -->
<g id="edge2" class="edge">
<title>Node2&#45;&gt;Node3</title>
<path fill="none" stroke="midnightblue" d="M543.4,-235.44C569.2,-226.4 610.08,-212.06 639.02,-201.92"/>
<polygon fill="midnightblue" stroke="midnightblue" points="640.43,-205.13 648.71,-198.52 638.12,-198.52 640.43,-205.13"/>
</g>
<!-- Node4 -->
<g id="node4" class="node">
<title>Node4</title>
<g id="a_node4"><a xlink:href="log__global_8h.html" target="_top" xlink:title="Global Access of Log.">
<polygon fill="white" stroke="black" points="236,-179.5 236,-198.5 312,-198.5 312,-179.5 236,-179.5"/>
<text text-anchor="middle" x="274" y="-186.5" font-family="Helvetica,sans-Serif" font-size="10.00">log_global.h</text>
</a>
</g>
</g>
<!-- Node2&#45;&gt;Node4 -->
<g id="edge3" class="edge">
<title>Node2&#45;&gt;Node4</title>
<path fill="none" stroke="midnightblue" d="M480.18,-235.44C437.31,-226 368.26,-210.78 322.03,-200.59"/>
<polygon fill="midnightblue" stroke="midnightblue" points="322.76,-197.16 312.24,-198.43 321.25,-204 322.76,-197.16"/>
</g>
<!-- Node6 -->
<g id="node6" class="node">
<title>Node6</title>
<g id="a_node6"><a xlink:href="meta_8h.html" target="_top" xlink:title="mmCEsim meta data">
<polygon fill="white" stroke="black" points="463.5,-67.5 463.5,-86.5 514.5,-86.5 514.5,-67.5 463.5,-67.5"/>
<text text-anchor="middle" x="489" y="-74.5" font-family="Helvetica,sans-Serif" font-size="10.00">meta.h</text>
</a>
</g>
</g>
<!-- Node2&#45;&gt;Node6 -->
<g id="edge28" class="edge">
<title>Node2&#45;&gt;Node6</title>
<path fill="none" stroke="midnightblue" d="M473.46,-237.39C431.22,-230.22 372.85,-217.29 359,-199 324.61,-153.61 407.5,-110.73 456.35,-90.37"/>
<polygon fill="midnightblue" stroke="midnightblue" points="457.68,-93.61 465.62,-86.6 455.04,-87.13 457.68,-93.61"/>
</g>
<!-- Node7 -->
<g id="node7" class="node">
<title>Node7</title>
<g id="a_node7"><a xlink:title=" ">
<polygon fill="white" stroke="#bfbfbf" points="288,-6 288,-25 332,-25 332,-6 288,-6"/>
<text text-anchor="middle" x="310" y="-13" font-family="Helvetica,sans-Serif" font-size="10.00">string</text>
</a>
</g>
</g>
<!-- Node2&#45;&gt;Node7 -->
<g id="edge33" class="edge">
<title>Node2&#45;&gt;Node7</title>
<path fill="none" stroke="midnightblue" d="M564.64,-240.45C618.59,-235.2 703.52,-223.24 723,-199 728.57,-192.07 727.49,-186.67 723,-179 631.1,-21.82 514.07,-87.56 341,-31 339.33,-30.45 337.63,-29.84 335.94,-29.18"/>
<polygon fill="midnightblue" stroke="midnightblue" points="337,-25.83 326.43,-25.09 334.23,-32.26 337,-25.83"/>
</g>
<!-- Node11 -->
<g id="node11" class="node">
<title>Node11</title>
<g id="a_node11"><a xlink:href="utils_8h.html" target="_top" xlink:title="Utilities.">
<polygon fill="white" stroke="black" points="770.5,-67.5 770.5,-86.5 817.5,-86.5 817.5,-67.5 770.5,-67.5"/>
<text text-anchor="middle" x="794" y="-74.5" font-family="Helvetica,sans-Serif" font-size="10.00">utils.h</text>
</a>
</g>
</g>
<!-- Node2&#45;&gt;Node11 -->
<g id="edge29" class="edge">
<title>Node2&#45;&gt;Node11</title>
<path fill="none" stroke="midnightblue" d="M564.61,-240.85C625.32,-235.75 728.27,-223.67 756,-199 785.52,-172.74 792.33,-123.84 793.76,-96.94"/>
<polygon fill="midnightblue" stroke="midnightblue" points="797.27,-96.7 794.1,-86.59 790.27,-96.47 797.27,-96.7"/>
</g>
<!-- Node16 -->
<g id="node16" class="node">
<title>Node16</title>
<g id="a_node16"><a xlink:title=" ">
<polygon fill="white" stroke="#bfbfbf" points="1144.5,-6 1144.5,-25 1191.5,-25 1191.5,-6 1144.5,-6"/>
<text text-anchor="middle" x="1168" y="-13" font-family="Helvetica,sans-Serif" font-size="10.00">vector</text>
</a>
</g>
</g>
<!-- Node2&#45;&gt;Node16 -->
<g id="edge35" class="edge">
<title>Node2&#45;&gt;Node16</title>
<path fill="none" stroke="midnightblue" d="M564.6,-239.72C616.84,-233.99 704.57,-221.78 777,-199 922.88,-153.12 1084.73,-64.37 1144.32,-30.29"/>
<polygon fill="midnightblue" stroke="midnightblue" points="1146.38,-33.14 1153.3,-25.12 1142.89,-27.07 1146.38,-33.14"/>
</g>
<!-- Node27 -->
<g id="node27" class="node">
<title>Node27</title>
<g id="a_node27"><a xlink:title=" ">
<polygon fill="white" stroke="#bfbfbf" points="368,-179.5 368,-198.5 406,-198.5 406,-179.5 368,-179.5"/>
<text text-anchor="middle" x="387" y="-186.5" font-family="Helvetica,sans-Serif" font-size="10.00">map</text>
</a>
</g>
</g>
<!-- Node2&#45;&gt;Node27 -->
<g id="edge30" class="edge">
<title>Node2&#45;&gt;Node27</title>
<path fill="none" stroke="midnightblue" d="M498.08,-235.44C475.75,-226.31 440.22,-211.77 415.38,-201.61"/>
<polygon fill="midnightblue" stroke="midnightblue" points="416.68,-198.36 406.1,-197.82 414.03,-204.84 416.68,-198.36"/>
</g>
<!-- Node28 -->
<g id="node28" class="node">
<title>Node28</title>
<g id="a_node28"><a xlink:title=" ">
<polygon fill="white" stroke="#bfbfbf" points="424,-179.5 424,-198.5 468,-198.5 468,-179.5 424,-179.5"/>
<text text-anchor="middle" x="446" y="-186.5" font-family="Helvetica,sans-Serif" font-size="10.00">regex</text>
</a>
</g>
</g>
<!-- Node2&#45;&gt;Node28 -->
<g id="edge31" class="edge">
<title>Node2&#45;&gt;Node28</title>
<path fill="none" stroke="midnightblue" d="M507.27,-235.32C496.16,-227.11 479.26,-214.6 466.02,-204.81"/>
<polygon fill="midnightblue" stroke="midnightblue" points="468.06,-201.97 457.94,-198.83 463.9,-207.59 468.06,-201.97"/>
</g>
<!-- Node29 -->
<g id="node29" class="node">
<title>Node29</title>
<g id="a_node29"><a xlink:title=" ">
<polygon fill="white" stroke="#bfbfbf" points="486.5,-179.5 486.5,-198.5 551.5,-198.5 551.5,-179.5 486.5,-179.5"/>
<text text-anchor="middle" x="519" y="-186.5" font-family="Helvetica,sans-Serif" font-size="10.00">stdexcept</text>
</a>
</g>
</g>
<!-- Node2&#45;&gt;Node29 -->
<g id="edge32" class="edge">
<title>Node2&#45;&gt;Node29</title>
<path fill="none" stroke="midnightblue" d="M519,-235.08C519,-228.01 519,-217.86 519,-208.99"/>
<polygon fill="midnightblue" stroke="midnightblue" points="522.5,-208.75 519,-198.75 515.5,-208.75 522.5,-208.75"/>
</g>
<!-- Node30 -->
<g id="node30" class="node">
<title>Node30</title>
<g id="a_node30"><a xlink:title=" ">
<polygon fill="white" stroke="#bfbfbf" points="569.5,-179.5 569.5,-198.5 614.5,-198.5 614.5,-179.5 569.5,-179.5"/>
<text text-anchor="middle" x="592" y="-186.5" font-family="Helvetica,sans-Serif" font-size="10.00">utility</text>
</a>
</g>
</g>
<!-- Node2&#45;&gt;Node30 -->
<g id="edge34" class="edge">
<title>Node2&#45;&gt;Node30</title>
<path fill="none" stroke="midnightblue" d="M530.73,-235.32C541.84,-227.11 558.74,-214.6 571.98,-204.81"/>
<polygon fill="midnightblue" stroke="midnightblue" points="574.1,-207.59 580.06,-198.83 569.94,-201.97 574.1,-207.59"/>
</g>
<!-- Node5 -->
<g id="node5" class="node">
<title>Node5</title>
<g id="a_node5"><a xlink:href="include_2log_8h.html" target="_top" xlink:title="Log Utilities.">
<polygon fill="white" stroke="black" points="262.5,-123.5 262.5,-142.5 303.5,-142.5 303.5,-123.5 262.5,-123.5"/>
<text text-anchor="middle" x="283" y="-130.5" font-family="Helvetica,sans-Serif" font-size="10.00">log.h</text>
</a>
</g>
</g>
<!-- Node4&#45;&gt;Node5 -->
<g id="edge4" class="edge">
<title>Node4&#45;&gt;Node5</title>
<path fill="none" stroke="midnightblue" d="M275.49,-179.08C276.68,-171.93 278.39,-161.64 279.88,-152.69"/>
<polygon fill="midnightblue" stroke="midnightblue" points="283.35,-153.19 281.54,-142.75 276.45,-152.04 283.35,-153.19"/>
</g>
<!-- Node5&#45;&gt;Node6 -->
<g id="edge5" class="edge">
<title>Node5&#45;&gt;Node6</title>
<path fill="none" stroke="midnightblue" d="M303.51,-126.62C338.55,-117.44 410.38,-98.61 453.65,-87.27"/>
<polygon fill="midnightblue" stroke="midnightblue" points="454.68,-90.61 463.47,-84.69 452.91,-83.84 454.68,-90.61"/>
</g>
<!-- Node8 -->
<g id="node8" class="node">
<title>Node8</title>
<g id="a_node8"><a xlink:href="term_8h.html" target="_top" xlink:title="Terminal Color and Style Control.">
<polygon fill="white" stroke="black" points="187.5,-67.5 187.5,-86.5 236.5,-86.5 236.5,-67.5 187.5,-67.5"/>
<text text-anchor="middle" x="212" y="-74.5" font-family="Helvetica,sans-Serif" font-size="10.00">term.h</text>
</a>
</g>
</g>
<!-- Node5&#45;&gt;Node8 -->
<g id="edge7" class="edge">
<title>Node5&#45;&gt;Node8</title>
<path fill="none" stroke="midnightblue" d="M271.59,-123.32C260.89,-115.18 244.66,-102.84 231.84,-93.09"/>
<polygon fill="midnightblue" stroke="midnightblue" points="233.69,-90.1 223.61,-86.83 229.46,-95.67 233.69,-90.1"/>
</g>
<!-- Node5&#45;&gt;Node11 -->
<g id="edge11" class="edge">
<title>Node5&#45;&gt;Node11</title>
<path fill="none" stroke="midnightblue" d="M303.66,-129.82C382.22,-121.51 662.77,-91.87 760.3,-81.56"/>
<polygon fill="midnightblue" stroke="midnightblue" points="760.9,-85.02 770.47,-80.49 760.16,-78.06 760.9,-85.02"/>
</g>
<!-- Node22 -->
<g id="node22" class="node">
<title>Node22</title>
<g id="a_node22"><a xlink:title=" ">
<polygon fill="white" stroke="#bfbfbf" points="401,-67.5 401,-86.5 445,-86.5 445,-67.5 401,-67.5"/>
<text text-anchor="middle" x="423" y="-74.5" font-family="Helvetica,sans-Serif" font-size="10.00">ctime</text>
</a>
</g>
</g>
<!-- Node5&#45;&gt;Node22 -->
<g id="edge23" class="edge">
<title>Node5&#45;&gt;Node22</title>
<path fill="none" stroke="midnightblue" d="M303.66,-124.03C326.83,-115.1 364.66,-100.5 391.52,-90.14"/>
<polygon fill="midnightblue" stroke="midnightblue" points="392.8,-93.4 400.87,-86.54 390.28,-86.87 392.8,-93.4"/>
</g>
<!-- Node23 -->
<g id="node23" class="node">
<title>Node23</title>
<g id="a_node23"><a xlink:title=" ">
<polygon fill="white" stroke="#bfbfbf" points="28,-67.5 28,-86.5 96,-86.5 96,-67.5 28,-67.5"/>
<text text-anchor="middle" x="62" y="-74.5" font-family="Helvetica,sans-Serif" font-size="10.00">filesystem</text>
</a>
</g>
</g>
<!-- Node5&#45;&gt;Node23 -->
<g id="edge24" class="edge">
<title>Node5&#45;&gt;Node23</title>
<path fill="none" stroke="midnightblue" d="M262.21,-126.92C226.67,-118.24 153.51,-100.36 106.15,-88.79"/>
<polygon fill="midnightblue" stroke="midnightblue" points="106.72,-85.32 96.17,-86.35 105.05,-92.12 106.72,-85.32"/>
</g>
<!-- Node24 -->
<g id="node24" class="node">
<title>Node24</title>
<g id="a_node24"><a xlink:title=" ">
<polygon fill="white" stroke="#bfbfbf" points="114.5,-67.5 114.5,-86.5 169.5,-86.5 169.5,-67.5 114.5,-67.5"/>
<text text-anchor="middle" x="142" y="-74.5" font-family="Helvetica,sans-Serif" font-size="10.00">fstream</text>
</a>
</g>
</g>
<!-- Node5&#45;&gt;Node24 -->
<g id="edge25" class="edge">
<title>Node5&#45;&gt;Node24</title>
<path fill="none" stroke="midnightblue" d="M262.5,-124.15C239.23,-115.24 201,-100.6 173.85,-90.2"/>
<polygon fill="midnightblue" stroke="midnightblue" points="174.98,-86.88 164.39,-86.58 172.48,-93.42 174.98,-86.88"/>
</g>
<!-- Node25 -->
<g id="node25" class="node">
<title>Node25</title>
<g id="a_node25"><a xlink:title=" ">
<polygon fill="white" stroke="#bfbfbf" points="255,-67.5 255,-86.5 311,-86.5 311,-67.5 255,-67.5"/>
<text text-anchor="middle" x="283" y="-74.5" font-family="Helvetica,sans-Serif" font-size="10.00">iomanip</text>
</a>
</g>
</g>
<!-- Node5&#45;&gt;Node25 -->
<g id="edge26" class="edge">
<title>Node5&#45;&gt;Node25</title>
<path fill="none" stroke="midnightblue" d="M283,-123.08C283,-116.01 283,-105.86 283,-96.99"/>
<polygon fill="midnightblue" stroke="midnightblue" points="286.5,-96.75 283,-86.75 279.5,-96.75 286.5,-96.75"/>
</g>
<!-- Node26 -->
<g id="node26" class="node">
<title>Node26</title>
<g id="a_node26"><a xlink:title=" ">
<polygon fill="white" stroke="#bfbfbf" points="329.5,-67.5 329.5,-86.5 382.5,-86.5 382.5,-67.5 329.5,-67.5"/>
<text text-anchor="middle" x="356" y="-74.5" font-family="Helvetica,sans-Serif" font-size="10.00">spy.hpp</text>
</a>
</g>
</g>
<!-- Node5&#45;&gt;Node26 -->
<g id="edge27" class="edge">
<title>Node5&#45;&gt;Node26</title>
<path fill="none" stroke="midnightblue" d="M294.73,-123.32C305.84,-115.11 322.74,-102.6 335.98,-92.81"/>
<polygon fill="midnightblue" stroke="midnightblue" points="338.1,-95.59 344.06,-86.83 333.94,-89.97 338.1,-95.59"/>
</g>
<!-- Node6&#45;&gt;Node7 -->
<g id="edge6" class="edge">
<title>Node6&#45;&gt;Node7</title>
<path fill="none" stroke="midnightblue" d="M463.49,-69.43C433.7,-61.49 383.12,-47.16 341,-31 339.58,-30.45 338.13,-29.87 336.68,-29.27"/>
<polygon fill="midnightblue" stroke="midnightblue" points="337.75,-25.92 327.19,-25.07 334.92,-32.32 337.75,-25.92"/>
</g>
<!-- Node8&#45;&gt;Node7 -->
<g id="edge10" class="edge">
<title>Node8&#45;&gt;Node7</title>
<path fill="none" stroke="midnightblue" d="M226.04,-67.48C242.05,-57.75 268.45,-41.73 287.37,-30.24"/>
<polygon fill="midnightblue" stroke="midnightblue" points="289.25,-33.19 295.99,-25.01 285.62,-27.21 289.25,-33.19"/>
</g>
<!-- Node9 -->
<g id="node9" class="node">
<title>Node9</title>
<g id="a_node9"><a xlink:title=" ">
<polygon fill="white" stroke="#bfbfbf" points="187.5,-6 187.5,-25 236.5,-25 236.5,-6 187.5,-6"/>
<text text-anchor="middle" x="212" y="-13" font-family="Helvetica,sans-Serif" font-size="10.00">cstdlib</text>
</a>
</g>
</g>
<!-- Node8&#45;&gt;Node9 -->
<g id="edge8" class="edge">
<title>Node8&#45;&gt;Node9</title>
<path fill="none" stroke="midnightblue" d="M212,-67.48C212,-59.08 212,-45.98 212,-35.16"/>
<polygon fill="midnightblue" stroke="midnightblue" points="215.5,-35.01 212,-25.01 208.5,-35.01 215.5,-35.01"/>
</g>
<!-- Node8&#45;&gt;Node10 -->
<g id="edge9" class="edge">
<title>Node8&#45;&gt;Node10</title>
<path fill="none" stroke="midnightblue" d="M191.65,-67.48C167.61,-57.4 127.4,-40.55 99.84,-29"/>
<polygon fill="midnightblue" stroke="midnightblue" points="100.88,-25.65 90.31,-25.01 98.18,-32.1 100.88,-25.65"/>
</g>
<!-- Node11&#45;&gt;Node7 -->
<g id="edge16" class="edge">
<title>Node11&#45;&gt;Node7</title>
<path fill="none" stroke="midnightblue" d="M770.39,-69.84C765.65,-68.77 760.69,-67.75 756,-67 573.21,-37.59 519.82,-78.96 341,-31 339.06,-30.48 337.1,-29.85 335.15,-29.14"/>
<polygon fill="midnightblue" stroke="midnightblue" points="336.26,-25.81 325.68,-25.14 333.53,-32.25 336.26,-25.81"/>
</g>
<!-- Node12 -->
<g id="node12" class="node">
<title>Node12</title>
<g id="a_node12"><a xlink:title=" ">
<polygon fill="white" stroke="#bfbfbf" points="922,-6 922,-25 986,-25 986,-6 922,-6"/>
<text text-anchor="middle" x="954" y="-13" font-family="Helvetica,sans-Serif" font-size="10.00">algorithm</text>
</a>
</g>
</g>
<!-- Node11&#45;&gt;Node12 -->
<g id="edge12" class="edge">
<title>Node11&#45;&gt;Node12</title>
<path fill="none" stroke="midnightblue" d="M816.92,-67.48C844.37,-57.27 890.52,-40.11 921.6,-28.55"/>
<polygon fill="midnightblue" stroke="midnightblue" points="922.97,-31.78 931.12,-25.01 920.53,-25.21 922.97,-31.78"/>
</g>
<!-- Node13 -->
<g id="node13" class="node">
<title>Node13</title>
<g id="a_node13"><a xlink:title=" ">
<polygon fill="white" stroke="#bfbfbf" points="1004.5,-6 1004.5,-25 1053.5,-25 1053.5,-6 1004.5,-6"/>
<text text-anchor="middle" x="1029" y="-13" font-family="Helvetica,sans-Serif" font-size="10.00">cctype</text>
</a>
</g>
</g>
<!-- Node11&#45;&gt;Node13 -->
<g id="edge13" class="edge">
<title>Node11&#45;&gt;Node13</title>
<path fill="none" stroke="midnightblue" d="M817.58,-72.16C855.52,-65.68 932.2,-51.23 995,-31 996.92,-30.38 998.89,-29.69 1000.86,-28.97"/>
<polygon fill="midnightblue" stroke="midnightblue" points="1002.54,-32.06 1010.53,-25.1 999.94,-25.56 1002.54,-32.06"/>
</g>
<!-- Node14 -->
<g id="node14" class="node">
<title>Node14</title>
<g id="a_node14"><a xlink:title=" ">
<polygon fill="white" stroke="#bfbfbf" points="1072,-6 1072,-25 1126,-25 1126,-6 1072,-6"/>
<text text-anchor="middle" x="1099" y="-13" font-family="Helvetica,sans-Serif" font-size="10.00">random</text>
</a>
</g>
</g>
<!-- Node11&#45;&gt;Node14 -->
<g id="edge14" class="edge">
<title>Node11&#45;&gt;Node14</title>
<path fill="none" stroke="midnightblue" d="M817.77,-73.78C865.13,-68.96 974.35,-55.95 1063,-31 1065.44,-30.31 1067.94,-29.52 1070.43,-28.65"/>
<polygon fill="midnightblue" stroke="midnightblue" points="1071.71,-31.91 1079.84,-25.11 1069.25,-25.36 1071.71,-31.91"/>
</g>
<!-- Node15 -->
<g id="node15" class="node">
<title>Node15</title>
<g id="a_node15"><a xlink:title=" ">
<polygon fill="white" stroke="#bfbfbf" points="350,-6 350,-25 406,-25 406,-6 350,-6"/>
<text text-anchor="middle" x="378" y="-13" font-family="Helvetica,sans-Serif" font-size="10.00">sstream</text>
</a>
</g>
</g>
<!-- Node11&#45;&gt;Node15 -->
<g id="edge15" class="edge">
<title>Node11&#45;&gt;Node15</title>
<path fill="none" stroke="midnightblue" d="M770.38,-69.91C765.64,-68.83 760.68,-67.8 756,-67 605.77,-41.39 563.05,-67.13 415,-31 412.17,-30.31 409.27,-29.45 406.4,-28.5"/>
<polygon fill="midnightblue" stroke="midnightblue" points="407.48,-25.17 396.89,-25.03 405.08,-31.75 407.48,-25.17"/>
</g>
<!-- Node11&#45;&gt;Node16 -->
<g id="edge17" class="edge">
<title>Node11&#45;&gt;Node16</title>
<path fill="none" stroke="midnightblue" d="M817.61,-75.17C873.68,-72.72 1018.83,-63.48 1135,-31 1137.15,-30.4 1139.35,-29.68 1141.54,-28.89"/>
<polygon fill="midnightblue" stroke="midnightblue" points="1142.91,-32.11 1150.87,-25.12 1140.29,-25.62 1142.91,-32.11"/>
</g>
<!-- Node17 -->
<g id="node17" class="node">
<title>Node17</title>
<g id="a_node17"><a xlink:href="__boost__config_8h.html" target="_top" xlink:title="Boost Configurations.">
<polygon fill="white" stroke="black" points="424,-6 424,-25 516,-25 516,-6 424,-6"/>
<text text-anchor="middle" x="470" y="-13" font-family="Helvetica,sans-Serif" font-size="10.00">_boost_config.h</text>
</a>
</g>
</g>
<!-- Node11&#45;&gt;Node17 -->
<g id="edge18" class="edge">
<title>Node11&#45;&gt;Node17</title>
<path fill="none" stroke="midnightblue" d="M770.34,-70.1C765.61,-69 760.66,-67.91 756,-67 654.47,-47.06 627.31,-51.99 526,-31 520.97,-29.96 515.71,-28.75 510.51,-27.49"/>
<polygon fill="midnightblue" stroke="midnightblue" points="511.23,-24.06 500.68,-25.02 509.53,-30.85 511.23,-24.06"/>
</g>
<!-- Node18 -->
<g id="node18" class="node">
<title>Node18</title>
<g id="a_node18"><a xlink:title=" ">
<polygon fill="white" stroke="#bfbfbf" points="534.5,-0.5 534.5,-30.5 675.5,-30.5 675.5,-0.5 534.5,-0.5"/>
<text text-anchor="start" x="542.5" y="-18.5" font-family="Helvetica,sans-Serif" font-size="10.00">boost/dll/runtime_symbol</text>
<text text-anchor="middle" x="605" y="-7.5" font-family="Helvetica,sans-Serif" font-size="10.00">_info.hpp</text>
</a>
</g>
</g>
<!-- Node11&#45;&gt;Node18 -->
<g id="edge19" class="edge">
<title>Node11&#45;&gt;Node18</title>
<path fill="none" stroke="midnightblue" d="M770.45,-68.58C742.83,-59.89 696.17,-45.2 659.43,-33.63"/>
<polygon fill="midnightblue" stroke="midnightblue" points="660.42,-30.28 649.84,-30.61 658.32,-36.96 660.42,-30.28"/>
</g>
<!-- Node19 -->
<g id="node19" class="node">
<title>Node19</title>
<g id="a_node19"><a xlink:title=" ">
<polygon fill="white" stroke="#bfbfbf" points="694,-6 694,-25 740,-25 740,-6 694,-6"/>
<text text-anchor="middle" x="717" y="-13" font-family="Helvetica,sans-Serif" font-size="10.00">pwd.h</text>
</a>
</g>
</g>
<!-- Node11&#45;&gt;Node19 -->
<g id="edge20" class="edge">
<title>Node11&#45;&gt;Node19</title>
<path fill="none" stroke="midnightblue" d="M782.97,-67.48C770.73,-58.02 750.77,-42.6 736.01,-31.19"/>
<polygon fill="midnightblue" stroke="midnightblue" points="738.06,-28.35 728.01,-25.01 733.78,-33.89 738.06,-28.35"/>
</g>
<!-- Node20 -->
<g id="node20" class="node">
<title>Node20</title>
<g id="a_node20"><a xlink:title=" ">
<polygon fill="white" stroke="#bfbfbf" points="758,-6 758,-25 830,-25 830,-6 758,-6"/>
<text text-anchor="middle" x="794" y="-13" font-family="Helvetica,sans-Serif" font-size="10.00">sys/types.h</text>
</a>
</g>
</g>
<!-- Node11&#45;&gt;Node20 -->
<g id="edge21" class="edge">
<title>Node11&#45;&gt;Node20</title>
<path fill="none" stroke="midnightblue" d="M794,-67.48C794,-59.08 794,-45.98 794,-35.16"/>
<polygon fill="midnightblue" stroke="midnightblue" points="797.5,-35.01 794,-25.01 790.5,-35.01 797.5,-35.01"/>
</g>
<!-- Node21 -->
<g id="node21" class="node">
<title>Node21</title>
<g id="a_node21"><a xlink:title=" ">
<polygon fill="white" stroke="#bfbfbf" points="848,-6 848,-25 904,-25 904,-6 848,-6"/>
<text text-anchor="middle" x="876" y="-13" font-family="Helvetica,sans-Serif" font-size="10.00">unistd.h</text>
</a>
</g>
</g>
<!-- Node11&#45;&gt;Node21 -->
<g id="edge22" class="edge">
<title>Node11&#45;&gt;Node21</title>
<path fill="none" stroke="midnightblue" d="M805.75,-67.48C818.78,-58.02 840.04,-42.6 855.76,-31.19"/>
<polygon fill="midnightblue" stroke="midnightblue" points="858.23,-33.71 864.27,-25.01 854.12,-28.05 858.23,-33.71"/>
</g>
</g>
</svg>
        <g id="navigator" transform="translate(0 0)" fill="#404254">
                <rect fill="#f2f5e9" fill-opacity="0.5" stroke="#606060" stroke-width=".5" x="0" y="0" width="60" height="60"/>
                <use id="zoomplus" xlink:href="#zoomPlus" x="17" y="9" onmousedown="handleZoom(evt,'in')"/>
                <use id="zoomminus" xlink:href="#zoomMin" x="42" y="9" onmousedown="handleZoom(evt,'out')"/>
                <use id="reset" xlink:href="#resetDef" x="30" y="36" onmousedown="handleReset()"/>
                <g id="arrowUp" xlink:href="#dirArrow" transform="translate(30 24)" onmousedown="handlePan(0,-1)">
                  <use xlink:href="#rim" fill="#404040">
                        <set attributeName="fill" to="#808080" begin="arrowUp.mouseover" end="arrowUp.mouseout"/>
                  </use>
                  <path fill="none" stroke="white" stroke-width="1.5" d="M0,-3.0v7 M-2.5,-0.5L0,-3.0L2.5,-0.5"/>
                </g>
                <g id="arrowRight" xlink:href="#dirArrow" transform="rotate(90) translate(36 -43)" onmousedown="handlePan(1,0)">
                  <use xlink:href="#rim" fill="#404040">
                        <set attributeName="fill" to="#808080" begin="arrowRight.mouseover" end="arrowRight.mouseout"/>
                  </use>
                  <path fill="none" stroke="white" stroke-width="1.5" d="M0,-3.0v7 M-2.5,-0.5L0,-3.0L2.5,-0.5"/>
                </g>
                <g id="arrowDown" xlink:href="#dirArrow" transform="rotate(180) translate(-30 -48)" onmousedown="handlePan(0,1)">
                  <use xlink:href="#rim" fill="#404040">
                        <set attributeName="fill" to="#808080" begin="arrowDown.mouseover" end="arrowDown.mouseout"/>
                  </use>
                  <path fill="none" stroke="white" stroke-width="1.5" d="M0,-3.0v7 M-2.5,-0.5L0,-3.0L2.5,-0.5"/>
                </g>
                <g id="arrowLeft" xlink:href="#dirArrow" transform="rotate(270) translate(-36 17)" onmousedown="handlePan(-1,0)">
                  <use xlink:href="#rim" fill="#404040">
                        <set attributeName="fill" to="#808080" begin="arrowLeft.mouseover" end="arrowLeft.mouseout"/>
                  </use>
                  <path fill="none" stroke="white" stroke-width="1.5" d="M0,-3.0v7 M-2.5,-0.5L0,-3.0L2.5,-0.5"/>
                </g>
        </g>
        <svg viewBox="0 0 15 15" width="100%" height="30px" preserveAspectRatio="xMaxYMin meet">
         <g id="arrow_out" transform="scale(0.3 0.3)">
          <a xlink:href="macro_8cpp__incl_org.svg" target="_base">
           <rect id="button" ry="5" rx="5" y="6" x="6" height="38" width="38"
                fill="#f2f5e9" fill-opacity="0.5" stroke="#606060" stroke-width="1.0"/>
           <path id="arrow"
             d="M 11.500037,31.436501 C 11.940474,20.09759 22.043105,11.32322 32.158766,21.979434 L 37.068811,17.246167 C 37.068811,17.246167 37.088388,32 37.088388,32 L 22.160133,31.978069 C 22.160133,31.978069 26.997745,27.140456 26.997745,27.140456 C 18.528582,18.264221 13.291696,25.230495 11.500037,31.436501 z"
             style="fill:#404040;"/>
          </a>
         </g>
        </svg>
</svg>
