<?xml version="1.0" encoding="UTF-8" standalone="no"?>
<!DOCTYPE svg PUBLIC "-//W3C//DTD SVG 1.1//EN"
 "http://www.w3.org/Graphics/SVG/1.1/DTD/svg11.dtd">
<!-- Generated by graphviz version 2.43.0 (0)
 -->
<!-- Title: include/export/macro.h Pages: 1 -->
<!--zoomable 263 -->
<svg id="main" version="1.1" xmlns="http://www.w3.org/2000/svg" xmlns:xlink="http://www.w3.org/1999/xlink" xml:space="preserve" onload="init(evt)">
<style type="text/css"><![CDATA[
.edge:hover path { stroke: red; }
.edge:hover polygon { stroke: red; fill: red; }
]]></style>
<script type="text/javascript"><![CDATA[
var edges = document.getElementsByTagName('g');
if (edges && edges.length) {
  for (var i=0;i<edges.length;i++) {
    if (edges[i].id.substr(0,4)=='edge') {
      edges[i].setAttribute('class','edge');
    }
  }
}
]]></script>
        <defs>
                <circle id="rim" cx="0" cy="0" r="7"/>
                <circle id="rim2" cx="0" cy="0" r="3.5"/>
                <g id="zoomPlus">
                        <use xlink:href="#rim" fill="#404040">
                                <set attributeName="fill" to="#808080" begin="zoomplus.mouseover" end="zoomplus.mouseout"/>
                        </use>
                        <path d="M-4,0h8M0,-4v8" fill="none" stroke="white" stroke-width="1.5" pointer-events="none"/>
                </g>
                <g id="zoomMin">
                        <use xlink:href="#rim" fill="#404040">
                                <set attributeName="fill" to="#808080" begin="zoomminus.mouseover" end="zoomminus.mouseout"/>
                        </use>
                        <path d="M-4,0h8" fill="none" stroke="white" stroke-width="1.5" pointer-events="none"/>
                </g>
                <g id="dirArrow">
                        <path fill="none" stroke="white" stroke-width="1.5" d="M0,-3.0v7 M-2.5,-0.5L0,-3.0L2.5,-0.5"/>
                </g>
               <g id="resetDef">
                       <use xlink:href="#rim2" fill="#404040">
                               <set attributeName="fill" to="#808080" begin="reset.mouseover" end="reset.mouseout"/>
                       </use>
               </g>
        </defs>

<script type="text/javascript">
var viewWidth = 1058;
var viewHeight = 263;
var sectionId = 'dynsection-0';
</script>
<script xlink:href="svgpan.js"/>
<svg id="graph" class="graph">
<g id="viewport">
<title>include/export/macro.h</title>
<polygon fill="white" stroke="transparent" points="-4,4 -4,-259 1053.5,-259 1053.5,4 -4,4"/>
<!-- Node1 -->
<g id="node1" class="node">
<title>Node1</title>
<g id="a_node1"><a xlink:title="ALG Macro.">
<polygon fill="#bfbfbf" stroke="black" points="598.5,-235.5 598.5,-254.5 727.5,-254.5 727.5,-235.5 598.5,-235.5"/>
<text text-anchor="middle" x="663" y="-242.5" font-family="Helvetica,sans-Serif" font-size="10.00">include/export/macro.h</text>
</a>
</g>
</g>
<!-- Node2 -->
<g id="node2" class="node">
<title>Node2</title>
<g id="a_node2"><a xlink:href="lang_8h.html" target="_top" xlink:title="Export Languages.">
<polygon fill="white" stroke="black" points="255.5,-179.5 255.5,-198.5 336.5,-198.5 336.5,-179.5 255.5,-179.5"/>
<text text-anchor="middle" x="296" y="-186.5" font-family="Helvetica,sans-Serif" font-size="10.00">export/lang.h</text>
</a>
</g>
</g>
<!-- Node1&#45;&gt;Node2 -->
<g id="edge1" class="edge">
<title>Node1&#45;&gt;Node2</title>
<path fill="none" stroke="midnightblue" d="M601.38,-235.46C538.41,-226.66 437.81,-212.36 351,-199 349.54,-198.77 348.05,-198.54 346.55,-198.31"/>
<polygon fill="midnightblue" stroke="midnightblue" points="346.96,-194.83 336.54,-196.72 345.86,-201.74 346.96,-194.83"/>
</g>
<!-- Node3 -->
<g id="node3" class="node">
<title>Node3</title>
<g id="a_node3"><a xlink:href="log__global_8h.html" target="_top" xlink:title="Global Access of Log.">
<polygon fill="white" stroke="black" points="425,-179.5 425,-198.5 501,-198.5 501,-179.5 425,-179.5"/>
<text text-anchor="middle" x="463" y="-186.5" font-family="Helvetica,sans-Serif" font-size="10.00">log_global.h</text>
</a>
</g>
</g>
<!-- Node1&#45;&gt;Node3 -->
<g id="edge2" class="edge">
<title>Node1&#45;&gt;Node3</title>
<path fill="none" stroke="midnightblue" d="M631.31,-235.44C596.93,-226.16 541.92,-211.31 504.21,-201.13"/>
<polygon fill="midnightblue" stroke="midnightblue" points="505.11,-197.74 494.54,-198.52 503.28,-204.5 505.11,-197.74"/>
</g>
<!-- Node5 -->
<g id="node5" class="node">
<title>Node5</title>
<g id="a_node5"><a xlink:href="meta_8h.html" target="_top" xlink:title="mmCEsim meta data">
<polygon fill="white" stroke="black" points="145.5,-67.5 145.5,-86.5 196.5,-86.5 196.5,-67.5 145.5,-67.5"/>
<text text-anchor="middle" x="171" y="-74.5" font-family="Helvetica,sans-Serif" font-size="10.00">meta.h</text>
</a>
</g>
</g>
<!-- Node1&#45;&gt;Node5 -->
<g id="edge27" class="edge">
<title>Node1&#45;&gt;Node5</title>
<path fill="none" stroke="midnightblue" d="M598.32,-237.22C547.77,-230.73 476.21,-218.92 416,-199 329.74,-170.47 235.43,-116.91 193.39,-91.73"/>
<polygon fill="midnightblue" stroke="midnightblue" points="195.14,-88.7 184.77,-86.53 191.52,-94.7 195.14,-88.7"/>
</g>
<!-- Node6 -->
<g id="node6" class="node">
<title>Node6</title>
<g id="a_node6"><a xlink:title=" ">
<polygon fill="white" stroke="#bfbfbf" points="146,-6 146,-25 190,-25 190,-6 146,-6"/>
<text text-anchor="middle" x="168" y="-13" font-family="Helvetica,sans-Serif" font-size="10.00">string</text>
</a>
</g>
</g>
<!-- Node1&#45;&gt;Node6 -->
<g id="edge32" class="edge">
<title>Node1&#45;&gt;Node6</title>
<path fill="none" stroke="midnightblue" d="M659.86,-235.31C647.88,-202.68 604.19,-88.26 573,-67 504,-19.98 279.54,-53.01 199,-31 197.07,-30.47 195.1,-29.83 193.15,-29.12"/>
<polygon fill="midnightblue" stroke="midnightblue" points="194.27,-25.79 183.69,-25.11 191.53,-32.23 194.27,-25.79"/>
</g>
<!-- Node10 -->
<g id="node10" class="node">
<title>Node10</title>
<g id="a_node10"><a xlink:href="utils_8h.html" target="_top" xlink:title="Utilities.">
<polygon fill="white" stroke="black" points="620.5,-67.5 620.5,-86.5 667.5,-86.5 667.5,-67.5 620.5,-67.5"/>
<text text-anchor="middle" x="644" y="-74.5" font-family="Helvetica,sans-Serif" font-size="10.00">utils.h</text>
</a>
</g>
</g>
<!-- Node1&#45;&gt;Node10 -->
<g id="edge28" class="edge">
<title>Node1&#45;&gt;Node10</title>
<path fill="none" stroke="midnightblue" d="M661.98,-235.08C658.99,-208.95 650.2,-132.21 646.13,-96.58"/>
<polygon fill="midnightblue" stroke="midnightblue" points="649.6,-96.11 644.98,-86.57 642.64,-96.9 649.6,-96.11"/>
</g>
<!-- Node15 -->
<g id="node15" class="node">
<title>Node15</title>
<g id="a_node15"><a xlink:title=" ">
<polygon fill="white" stroke="#bfbfbf" points="1002.5,-6 1002.5,-25 1049.5,-25 1049.5,-6 1002.5,-6"/>
<text text-anchor="middle" x="1026" y="-13" font-family="Helvetica,sans-Serif" font-size="10.00">vector</text>
</a>
</g>
</g>
<!-- Node1&#45;&gt;Node15 -->
<g id="edge34" class="edge">
<title>Node1&#45;&gt;Node15</title>
<path fill="none" stroke="midnightblue" d="M666.16,-235.37C671.49,-221.83 683.45,-195.44 701,-179 724.9,-156.61 923.91,-63.61 998.19,-29.29"/>
<polygon fill="midnightblue" stroke="midnightblue" points="999.79,-32.4 1007.41,-25.04 996.86,-26.05 999.79,-32.4"/>
</g>
<!-- Node26 -->
<g id="node26" class="node">
<title>Node26</title>
<g id="a_node26"><a xlink:title=" ">
<polygon fill="white" stroke="#bfbfbf" points="710,-179.5 710,-198.5 748,-198.5 748,-179.5 710,-179.5"/>
<text text-anchor="middle" x="729" y="-186.5" font-family="Helvetica,sans-Serif" font-size="10.00">map</text>
</a>
</g>
</g>
<!-- Node1&#45;&gt;Node26 -->
<g id="edge29" class="edge">
<title>Node1&#45;&gt;Node26</title>
<path fill="none" stroke="midnightblue" d="M673.6,-235.32C683.46,-227.26 698.35,-215.08 710.22,-205.37"/>
<polygon fill="midnightblue" stroke="midnightblue" points="712.68,-207.88 718.2,-198.83 708.25,-202.46 712.68,-207.88"/>
</g>
<!-- Node27 -->
<g id="node27" class="node">
<title>Node27</title>
<g id="a_node27"><a xlink:title=" ">
<polygon fill="white" stroke="#bfbfbf" points="766,-179.5 766,-198.5 810,-198.5 810,-179.5 766,-179.5"/>
<text text-anchor="middle" x="788" y="-186.5" font-family="Helvetica,sans-Serif" font-size="10.00">regex</text>
</a>
</g>
</g>
<!-- Node1&#45;&gt;Node27 -->
<g id="edge30" class="edge">
<title>Node1&#45;&gt;Node27</title>
<path fill="none" stroke="midnightblue" d="M682.81,-235.44C703.29,-226.6 735.48,-212.69 758.86,-202.59"/>
<polygon fill="midnightblue" stroke="midnightblue" points="760.49,-205.7 768.29,-198.52 757.72,-199.27 760.49,-205.7"/>
</g>
<!-- Node28 -->
<g id="node28" class="node">
<title>Node28</title>
<g id="a_node28"><a xlink:title=" ">
<polygon fill="white" stroke="#bfbfbf" points="828.5,-179.5 828.5,-198.5 893.5,-198.5 893.5,-179.5 828.5,-179.5"/>
<text text-anchor="middle" x="861" y="-186.5" font-family="Helvetica,sans-Serif" font-size="10.00">stdexcept</text>
</a>
</g>
</g>
<!-- Node1&#45;&gt;Node28 -->
<g id="edge31" class="edge">
<title>Node1&#45;&gt;Node28</title>
<path fill="none" stroke="midnightblue" d="M694.37,-235.44C728.26,-226.2 782.4,-211.44 819.72,-201.26"/>
<polygon fill="midnightblue" stroke="midnightblue" points="821.05,-204.52 829.77,-198.52 819.2,-197.77 821.05,-204.52"/>
</g>
<!-- Node29 -->
<g id="node29" class="node">
<title>Node29</title>
<g id="a_node29"><a xlink:title=" ">
<polygon fill="white" stroke="#bfbfbf" points="911.5,-179.5 911.5,-198.5 956.5,-198.5 956.5,-179.5 911.5,-179.5"/>
<text text-anchor="middle" x="934" y="-186.5" font-family="Helvetica,sans-Serif" font-size="10.00">utility</text>
</a>
</g>
</g>
<!-- Node1&#45;&gt;Node29 -->
<g id="edge33" class="edge">
<title>Node1&#45;&gt;Node29</title>
<path fill="none" stroke="midnightblue" d="M716.69,-235.47C763.25,-227.73 832.62,-215.36 901.26,-199.25"/>
<polygon fill="midnightblue" stroke="midnightblue" points="902.46,-202.56 911.38,-196.84 900.84,-195.75 902.46,-202.56"/>
</g>
<!-- Node4 -->
<g id="node4" class="node">
<title>Node4</title>
<g id="a_node4"><a xlink:href="include_2log_8h.html" target="_top" xlink:title="Log Utilities.">
<polygon fill="white" stroke="black" points="393.5,-123.5 393.5,-142.5 434.5,-142.5 434.5,-123.5 393.5,-123.5"/>
<text text-anchor="middle" x="414" y="-130.5" font-family="Helvetica,sans-Serif" font-size="10.00">log.h</text>
</a>
</g>
</g>
<!-- Node3&#45;&gt;Node4 -->
<g id="edge3" class="edge">
<title>Node3&#45;&gt;Node4</title>
<path fill="none" stroke="midnightblue" d="M454.91,-179.08C447.84,-171.3 437.41,-159.8 428.85,-150.37"/>
<polygon fill="midnightblue" stroke="midnightblue" points="431.25,-147.8 421.94,-142.75 426.07,-152.51 431.25,-147.8"/>
</g>
<!-- Node4&#45;&gt;Node5 -->
<g id="edge4" class="edge">
<title>Node4&#45;&gt;Node5</title>
<path fill="none" stroke="midnightblue" d="M393.31,-126.51C388.62,-125.31 383.65,-124.08 379,-123 305.23,-105.89 283.62,-105.14 206.76,-87.32"/>
<polygon fill="midnightblue" stroke="midnightblue" points="207.12,-83.81 196.58,-84.93 205.52,-90.62 207.12,-83.81"/>
</g>
<!-- Node7 -->
<g id="node7" class="node">
<title>Node7</title>
<g id="a_node7"><a xlink:href="term_8h.html" target="_top" xlink:title="Terminal Color and Style Control.">
<polygon fill="white" stroke="black" points="78.5,-67.5 78.5,-86.5 127.5,-86.5 127.5,-67.5 78.5,-67.5"/>
<text text-anchor="middle" x="103" y="-74.5" font-family="Helvetica,sans-Serif" font-size="10.00">term.h</text>
</a>
</g>
</g>
<!-- Node4&#45;&gt;Node7 -->
<g id="edge6" class="edge">
<title>Node4&#45;&gt;Node7</title>
<path fill="none" stroke="midnightblue" d="M393.28,-129.41C348.4,-123.64 238.71,-108.66 137.84,-87.23"/>
<polygon fill="midnightblue" stroke="midnightblue" points="138.31,-83.75 127.8,-85.06 136.84,-90.59 138.31,-83.75"/>
</g>
<!-- Node4&#45;&gt;Node10 -->
<g id="edge10" class="edge">
<title>Node4&#45;&gt;Node10</title>
<path fill="none" stroke="midnightblue" d="M434.82,-127.11C474.69,-117.75 562.13,-97.22 610.38,-85.89"/>
<polygon fill="midnightblue" stroke="midnightblue" points="611.4,-89.25 620.34,-83.56 609.8,-82.43 611.4,-89.25"/>
</g>
<!-- Node21 -->
<g id="node21" class="node">
<title>Node21</title>
<g id="a_node21"><a xlink:title=" ">
<polygon fill="white" stroke="#bfbfbf" points="286,-67.5 286,-86.5 330,-86.5 330,-67.5 286,-67.5"/>
<text text-anchor="middle" x="308" y="-74.5" font-family="Helvetica,sans-Serif" font-size="10.00">ctime</text>
</a>
</g>
</g>
<!-- Node4&#45;&gt;Node21 -->
<g id="edge22" class="edge">
<title>Node4&#45;&gt;Node21</title>
<path fill="none" stroke="midnightblue" d="M396.97,-123.32C379.97,-114.66 353.62,-101.24 334.01,-91.25"/>
<polygon fill="midnightblue" stroke="midnightblue" points="335.49,-88.08 324.99,-86.65 332.31,-94.31 335.49,-88.08"/>
</g>
<!-- Node22 -->
<g id="node22" class="node">
<title>Node22</title>
<g id="a_node22"><a xlink:title=" ">
<polygon fill="white" stroke="#bfbfbf" points="348,-67.5 348,-86.5 416,-86.5 416,-67.5 348,-67.5"/>
<text text-anchor="middle" x="382" y="-74.5" font-family="Helvetica,sans-Serif" font-size="10.00">filesystem</text>
</a>
</g>
</g>
<!-- Node4&#45;&gt;Node22 -->
<g id="edge23" class="edge">
<title>Node4&#45;&gt;Node22</title>
<path fill="none" stroke="midnightblue" d="M408.72,-123.08C404.29,-115.61 397.84,-104.72 392.38,-95.52"/>
<polygon fill="midnightblue" stroke="midnightblue" points="395.29,-93.57 387.19,-86.75 389.27,-97.14 395.29,-93.57"/>
</g>
<!-- Node23 -->
<g id="node23" class="node">
<title>Node23</title>
<g id="a_node23"><a xlink:title=" ">
<polygon fill="white" stroke="#bfbfbf" points="434.5,-67.5 434.5,-86.5 489.5,-86.5 489.5,-67.5 434.5,-67.5"/>
<text text-anchor="middle" x="462" y="-74.5" font-family="Helvetica,sans-Serif" font-size="10.00">fstream</text>
</a>
</g>
</g>
<!-- Node4&#45;&gt;Node23 -->
<g id="edge24" class="edge">
<title>Node4&#45;&gt;Node23</title>
<path fill="none" stroke="midnightblue" d="M421.93,-123.08C428.85,-115.3 439.07,-103.8 447.45,-94.37"/>
<polygon fill="midnightblue" stroke="midnightblue" points="450.19,-96.55 454.22,-86.75 444.96,-91.9 450.19,-96.55"/>
</g>
<!-- Node24 -->
<g id="node24" class="node">
<title>Node24</title>
<g id="a_node24"><a xlink:title=" ">
<polygon fill="white" stroke="#bfbfbf" points="508,-67.5 508,-86.5 564,-86.5 564,-67.5 508,-67.5"/>
<text text-anchor="middle" x="536" y="-74.5" font-family="Helvetica,sans-Serif" font-size="10.00">iomanip</text>
</a>
</g>
</g>
<!-- Node4&#45;&gt;Node24 -->
<g id="edge25" class="edge">
<title>Node4&#45;&gt;Node24</title>
<path fill="none" stroke="midnightblue" d="M433.33,-123.44C453.32,-114.6 484.74,-100.69 507.56,-90.59"/>
<polygon fill="midnightblue" stroke="midnightblue" points="509.03,-93.76 516.76,-86.52 506.2,-87.36 509.03,-93.76"/>
</g>
<!-- Node25 -->
<g id="node25" class="node">
<title>Node25</title>
<g id="a_node25"><a xlink:title=" ">
<polygon fill="white" stroke="#bfbfbf" points="214.5,-67.5 214.5,-86.5 267.5,-86.5 267.5,-67.5 214.5,-67.5"/>
<text text-anchor="middle" x="241" y="-74.5" font-family="Helvetica,sans-Serif" font-size="10.00">spy.hpp</text>
</a>
</g>
</g>
<!-- Node4&#45;&gt;Node25 -->
<g id="edge26" class="edge">
<title>Node4&#45;&gt;Node25</title>
<path fill="none" stroke="midnightblue" d="M393.48,-125.59C364.96,-116.69 312.91,-100.44 277.64,-89.44"/>
<polygon fill="midnightblue" stroke="midnightblue" points="278.31,-85.98 267.73,-86.34 276.23,-92.66 278.31,-85.98"/>
</g>
<!-- Node5&#45;&gt;Node6 -->
<g id="edge5" class="edge">
<title>Node5&#45;&gt;Node6</title>
<path fill="none" stroke="midnightblue" d="M170.57,-67.48C170.15,-59.08 169.49,-45.98 168.94,-35.16"/>
<polygon fill="midnightblue" stroke="midnightblue" points="172.43,-34.82 168.43,-25.01 165.44,-35.17 172.43,-34.82"/>
</g>
<!-- Node7&#45;&gt;Node6 -->
<g id="edge9" class="edge">
<title>Node7&#45;&gt;Node6</title>
<path fill="none" stroke="midnightblue" d="M112.31,-67.48C122.45,-58.2 138.86,-43.17 151.25,-31.83"/>
<polygon fill="midnightblue" stroke="midnightblue" points="153.69,-34.34 158.7,-25.01 148.96,-29.18 153.69,-34.34"/>
</g>
<!-- Node8 -->
<g id="node8" class="node">
<title>Node8</title>
<g id="a_node8"><a xlink:title=" ">
<polygon fill="white" stroke="#bfbfbf" points="78.5,-6 78.5,-25 127.5,-25 127.5,-6 78.5,-6"/>
<text text-anchor="middle" x="103" y="-13" font-family="Helvetica,sans-Serif" font-size="10.00">cstdlib</text>
</a>
</g>
</g>
<!-- Node7&#45;&gt;Node8 -->
<g id="edge7" class="edge">
<title>Node7&#45;&gt;Node8</title>
<path fill="none" stroke="midnightblue" d="M103,-67.48C103,-59.08 103,-45.98 103,-35.16"/>
<polygon fill="midnightblue" stroke="midnightblue" points="106.5,-35.01 103,-25.01 99.5,-35.01 106.5,-35.01"/>
</g>
<!-- Node9 -->
<g id="node9" class="node">
<title>Node9</title>
<g id="a_node9"><a xlink:title=" ">
<polygon fill="white" stroke="#bfbfbf" points="0,-6 0,-25 60,-25 60,-6 0,-6"/>
<text text-anchor="middle" x="30" y="-13" font-family="Helvetica,sans-Serif" font-size="10.00">iostream</text>
</a>
</g>
</g>
<!-- Node7&#45;&gt;Node9 -->
<g id="edge8" class="edge">
<title>Node7&#45;&gt;Node9</title>
<path fill="none" stroke="midnightblue" d="M92.54,-67.48C81.05,-58.11 62.37,-42.88 48.41,-31.51"/>
<polygon fill="midnightblue" stroke="midnightblue" points="50.4,-28.61 40.44,-25.01 45.98,-34.04 50.4,-28.61"/>
</g>
<!-- Node10&#45;&gt;Node6 -->
<g id="edge15" class="edge">
<title>Node10&#45;&gt;Node6</title>
<path fill="none" stroke="midnightblue" d="M620.39,-69.85C615.65,-68.77 610.68,-67.76 606,-67 426.74,-38 374.36,-78.19 199,-31 197.06,-30.48 195.1,-29.84 193.15,-29.13"/>
<polygon fill="midnightblue" stroke="midnightblue" points="194.26,-25.8 183.69,-25.13 191.53,-32.25 194.26,-25.8"/>
</g>
<!-- Node11 -->
<g id="node11" class="node">
<title>Node11</title>
<g id="a_node11"><a xlink:title=" ">
<polygon fill="white" stroke="#bfbfbf" points="780,-6 780,-25 844,-25 844,-6 780,-6"/>
<text text-anchor="middle" x="812" y="-13" font-family="Helvetica,sans-Serif" font-size="10.00">algorithm</text>
</a>
</g>
</g>
<!-- Node10&#45;&gt;Node11 -->
<g id="edge11" class="edge">
<title>Node10&#45;&gt;Node11</title>
<path fill="none" stroke="midnightblue" d="M667.71,-67.6C696.57,-57.38 745.48,-40.06 778.25,-28.45"/>
<polygon fill="midnightblue" stroke="midnightblue" points="779.6,-31.69 787.86,-25.05 777.27,-25.09 779.6,-31.69"/>
</g>
<!-- Node12 -->
<g id="node12" class="node">
<title>Node12</title>
<g id="a_node12"><a xlink:title=" ">
<polygon fill="white" stroke="#bfbfbf" points="862.5,-6 862.5,-25 911.5,-25 911.5,-6 862.5,-6"/>
<text text-anchor="middle" x="887" y="-13" font-family="Helvetica,sans-Serif" font-size="10.00">cctype</text>
</a>
</g>
</g>
<!-- Node10&#45;&gt;Node12 -->
<g id="edge12" class="edge">
<title>Node10&#45;&gt;Node12</title>
<path fill="none" stroke="midnightblue" d="M667.7,-70.29C672.43,-69.18 677.37,-68.04 682,-67 757.79,-50.05 778.93,-54.35 853,-31 854.93,-30.39 856.9,-29.71 858.87,-28.99"/>
<polygon fill="midnightblue" stroke="midnightblue" points="860.54,-32.09 868.54,-25.15 857.96,-25.59 860.54,-32.09"/>
</g>
<!-- Node13 -->
<g id="node13" class="node">
<title>Node13</title>
<g id="a_node13"><a xlink:title=" ">
<polygon fill="white" stroke="#bfbfbf" points="930,-6 930,-25 984,-25 984,-6 930,-6"/>
<text text-anchor="middle" x="957" y="-13" font-family="Helvetica,sans-Serif" font-size="10.00">random</text>
</a>
</g>
</g>
<!-- Node10&#45;&gt;Node13 -->
<g id="edge13" class="edge">
<title>Node10&#45;&gt;Node13</title>
<path fill="none" stroke="midnightblue" d="M667.65,-70.08C672.39,-68.98 677.34,-67.9 682,-67 787.47,-46.6 817.36,-59.26 921,-31 923.5,-30.32 926.07,-29.51 928.62,-28.64"/>
<polygon fill="midnightblue" stroke="midnightblue" points="930.1,-31.82 938.23,-25.02 927.64,-25.27 930.1,-31.82"/>
</g>
<!-- Node14 -->
<g id="node14" class="node">
<title>Node14</title>
<g id="a_node14"><a xlink:title=" ">
<polygon fill="white" stroke="#bfbfbf" points="208,-6 208,-25 264,-25 264,-6 208,-6"/>
<text text-anchor="middle" x="236" y="-13" font-family="Helvetica,sans-Serif" font-size="10.00">sstream</text>
</a>
</g>
</g>
<!-- Node10&#45;&gt;Node14 -->
<g id="edge14" class="edge">
<title>Node10&#45;&gt;Node14</title>
<path fill="none" stroke="midnightblue" d="M620.38,-69.92C615.64,-68.84 610.68,-67.8 606,-67 459.29,-41.8 417.57,-66.47 273,-31 270.17,-30.31 267.27,-29.45 264.4,-28.5"/>
<polygon fill="midnightblue" stroke="midnightblue" points="265.48,-25.17 254.89,-25.02 263.08,-31.74 265.48,-25.17"/>
</g>
<!-- Node10&#45;&gt;Node15 -->
<g id="edge16" class="edge">
<title>Node10&#45;&gt;Node15</title>
<path fill="none" stroke="midnightblue" d="M667.63,-69.95C672.37,-68.87 677.33,-67.82 682,-67 819.05,-42.92 858.7,-67.39 993,-31 995.29,-30.38 997.63,-29.62 999.95,-28.79"/>
<polygon fill="midnightblue" stroke="midnightblue" points="1001.27,-32.03 1009.23,-25.03 998.64,-25.54 1001.27,-32.03"/>
</g>
<!-- Node16 -->
<g id="node16" class="node">
<title>Node16</title>
<g id="a_node16"><a xlink:href="__boost__config_8h.html" target="_top" xlink:title="Boost Configurations.">
<polygon fill="white" stroke="black" points="282,-6 282,-25 374,-25 374,-6 282,-6"/>
<text text-anchor="middle" x="328" y="-13" font-family="Helvetica,sans-Serif" font-size="10.00">_boost_config.h</text>
</a>
</g>
</g>
<!-- Node10&#45;&gt;Node16 -->
<g id="edge17" class="edge">
<title>Node10&#45;&gt;Node16</title>
<path fill="none" stroke="midnightblue" d="M620.34,-70.12C615.6,-69.02 610.65,-67.93 606,-67 507.53,-47.42 481.21,-51.82 383,-31 378.18,-29.98 373.15,-28.8 368.18,-27.58"/>
<polygon fill="midnightblue" stroke="midnightblue" points="368.69,-24.09 358.13,-25.01 366.96,-30.88 368.69,-24.09"/>
</g>
<!-- Node17 -->
<g id="node17" class="node">
<title>Node17</title>
<g id="a_node17"><a xlink:title=" ">
<polygon fill="white" stroke="#bfbfbf" points="392.5,-0.5 392.5,-30.5 533.5,-30.5 533.5,-0.5 392.5,-0.5"/>
<text text-anchor="start" x="400.5" y="-18.5" font-family="Helvetica,sans-Serif" font-size="10.00">boost/dll/runtime_symbol</text>
<text text-anchor="middle" x="463" y="-7.5" font-family="Helvetica,sans-Serif" font-size="10.00">_info.hpp</text>
</a>
</g>
</g>
<!-- Node10&#45;&gt;Node17 -->
<g id="edge18" class="edge">
<title>Node10&#45;&gt;Node17</title>
<path fill="none" stroke="midnightblue" d="M620.34,-68.22C593.8,-59.5 549.93,-45.08 515.25,-33.68"/>
<polygon fill="midnightblue" stroke="midnightblue" points="516.33,-30.35 505.73,-30.55 514.14,-37 516.33,-30.35"/>
</g>
<!-- Node18 -->
<g id="node18" class="node">
<title>Node18</title>
<g id="a_node18"><a xlink:title=" ">
<polygon fill="white" stroke="#bfbfbf" points="552,-6 552,-25 598,-25 598,-6 552,-6"/>
<text text-anchor="middle" x="575" y="-13" font-family="Helvetica,sans-Serif" font-size="10.00">pwd.h</text>
</a>
</g>
</g>
<!-- Node10&#45;&gt;Node18 -->
<g id="edge19" class="edge">
<title>Node10&#45;&gt;Node18</title>
<path fill="none" stroke="midnightblue" d="M634.11,-67.48C623.35,-58.2 605.93,-43.17 592.78,-31.83"/>
<polygon fill="midnightblue" stroke="midnightblue" points="594.73,-28.89 584.87,-25.01 590.16,-34.19 594.73,-28.89"/>
</g>
<!-- Node19 -->
<g id="node19" class="node">
<title>Node19</title>
<g id="a_node19"><a xlink:title=" ">
<polygon fill="white" stroke="#bfbfbf" points="616,-6 616,-25 688,-25 688,-6 616,-6"/>
<text text-anchor="middle" x="652" y="-13" font-family="Helvetica,sans-Serif" font-size="10.00">sys/types.h</text>
</a>
</g>
</g>
<!-- Node10&#45;&gt;Node19 -->
<g id="edge20" class="edge">
<title>Node10&#45;&gt;Node19</title>
<path fill="none" stroke="midnightblue" d="M645.15,-67.48C646.27,-59.08 648.04,-45.98 649.49,-35.16"/>
<polygon fill="midnightblue" stroke="midnightblue" points="652.99,-35.39 650.86,-25.01 646.05,-34.45 652.99,-35.39"/>
</g>
<!-- Node20 -->
<g id="node20" class="node">
<title>Node20</title>
<g id="a_node20"><a xlink:title=" ">
<polygon fill="white" stroke="#bfbfbf" points="706,-6 706,-25 762,-25 762,-6 706,-6"/>
<text text-anchor="middle" x="734" y="-13" font-family="Helvetica,sans-Serif" font-size="10.00">unistd.h</text>
</a>
</g>
</g>
<!-- Node10&#45;&gt;Node20 -->
<g id="edge21" class="edge">
<title>Node10&#45;&gt;Node20</title>
<path fill="none" stroke="midnightblue" d="M656.89,-67.48C671.46,-57.84 695.4,-42.02 712.75,-30.55"/>
<polygon fill="midnightblue" stroke="midnightblue" points="714.72,-33.44 721.13,-25.01 710.86,-27.6 714.72,-33.44"/>
</g>
</g>
</svg>
        <g id="navigator" transform="translate(0 0)" fill="#404254">
                <rect fill="#f2f5e9" fill-opacity="0.5" stroke="#606060" stroke-width=".5" x="0" y="0" width="60" height="60"/>
                <use id="zoomplus" xlink:href="#zoomPlus" x="17" y="9" onmousedown="handleZoom(evt,'in')"/>
                <use id="zoomminus" xlink:href="#zoomMin" x="42" y="9" onmousedown="handleZoom(evt,'out')"/>
                <use id="reset" xlink:href="#resetDef" x="30" y="36" onmousedown="handleReset()"/>
                <g id="arrowUp" xlink:href="#dirArrow" transform="translate(30 24)" onmousedown="handlePan(0,-1)">
                  <use xlink:href="#rim" fill="#404040">
                        <set attributeName="fill" to="#808080" begin="arrowUp.mouseover" end="arrowUp.mouseout"/>
                  </use>
                  <path fill="none" stroke="white" stroke-width="1.5" d="M0,-3.0v7 M-2.5,-0.5L0,-3.0L2.5,-0.5"/>
                </g>
                <g id="arrowRight" xlink:href="#dirArrow" transform="rotate(90) translate(36 -43)" onmousedown="handlePan(1,0)">
                  <use xlink:href="#rim" fill="#404040">
                        <set attributeName="fill" to="#808080" begin="arrowRight.mouseover" end="arrowRight.mouseout"/>
                  </use>
                  <path fill="none" stroke="white" stroke-width="1.5" d="M0,-3.0v7 M-2.5,-0.5L0,-3.0L2.5,-0.5"/>
                </g>
                <g id="arrowDown" xlink:href="#dirArrow" transform="rotate(180) translate(-30 -48)" onmousedown="handlePan(0,1)">
                  <use xlink:href="#rim" fill="#404040">
                        <set attributeName="fill" to="#808080" begin="arrowDown.mouseover" end="arrowDown.mouseout"/>
                  </use>
                  <path fill="none" stroke="white" stroke-width="1.5" d="M0,-3.0v7 M-2.5,-0.5L0,-3.0L2.5,-0.5"/>
                </g>
                <g id="arrowLeft" xlink:href="#dirArrow" transform="rotate(270) translate(-36 17)" onmousedown="handlePan(-1,0)">
                  <use xlink:href="#rim" fill="#404040">
                        <set attributeName="fill" to="#808080" begin="arrowLeft.mouseover" end="arrowLeft.mouseout"/>
                  </use>
                  <path fill="none" stroke="white" stroke-width="1.5" d="M0,-3.0v7 M-2.5,-0.5L0,-3.0L2.5,-0.5"/>
                </g>
        </g>
        <svg viewBox="0 0 15 15" width="100%" height="30px" preserveAspectRatio="xMaxYMin meet">
         <g id="arrow_out" transform="scale(0.3 0.3)">
          <a xlink:href="macro_8h__incl_org.svg" target="_base">
           <rect id="button" ry="5" rx="5" y="6" x="6" height="38" width="38"
                fill="#f2f5e9" fill-opacity="0.5" stroke="#606060" stroke-width="1.0"/>
           <path id="arrow"
             d="M 11.500037,31.436501 C 11.940474,20.09759 22.043105,11.32322 32.158766,21.979434 L 37.068811,17.246167 C 37.068811,17.246167 37.088388,32 37.088388,32 L 22.160133,31.978069 C 22.160133,31.978069 26.997745,27.140456 26.997745,27.140456 C 18.528582,18.264221 13.291696,25.230495 11.500037,31.436501 z"
             style="fill:#404040;"/>
          </a>
         </g>
        </svg>
</svg>
