<?xml version="1.0" encoding="UTF-8" standalone="no"?>
<!DOCTYPE svg PUBLIC "-//W3C//DTD SVG 1.1//EN"
 "http://www.w3.org/Graphics/SVG/1.1/DTD/svg11.dtd">
<!-- Generated by graphviz version 2.43.0 (0)
 -->
<!-- Title: include/export/macro.h Pages: 1 -->
<!--zoomable 263 -->
<svg id="main" version="1.1" xmlns="http://www.w3.org/2000/svg" xmlns:xlink="http://www.w3.org/1999/xlink" xml:space="preserve" onload="init(evt)">
<style type="text/css"><![CDATA[
.edge:hover path { stroke: red; }
.edge:hover polygon { stroke: red; fill: red; }
]]></style>
<script type="text/javascript"><![CDATA[
var edges = document.getElementsByTagName('g');
if (edges && edges.length) {
  for (var i=0;i<edges.length;i++) {
    if (edges[i].id.substr(0,4)=='edge') {
      edges[i].setAttribute('class','edge');
    }
  }
}
]]></script>
        <defs>
                <circle id="rim" cx="0" cy="0" r="7"/>
                <circle id="rim2" cx="0" cy="0" r="3.5"/>
                <g id="zoomPlus">
                        <use xlink:href="#rim" fill="#404040">
                                <set attributeName="fill" to="#808080" begin="zoomplus.mouseover" end="zoomplus.mouseout"/>
                        </use>
                        <path d="M-4,0h8M0,-4v8" fill="none" stroke="white" stroke-width="1.5" pointer-events="none"/>
                </g>
                <g id="zoomMin">
                        <use xlink:href="#rim" fill="#404040">
                                <set attributeName="fill" to="#808080" begin="zoomminus.mouseover" end="zoomminus.mouseout"/>
                        </use>
                        <path d="M-4,0h8" fill="none" stroke="white" stroke-width="1.5" pointer-events="none"/>
                </g>
                <g id="dirArrow">
                        <path fill="none" stroke="white" stroke-width="1.5" d="M0,-3.0v7 M-2.5,-0.5L0,-3.0L2.5,-0.5"/>
                </g>
               <g id="resetDef">
                       <use xlink:href="#rim2" fill="#404040">
                               <set attributeName="fill" to="#808080" begin="reset.mouseover" end="reset.mouseout"/>
                       </use>
               </g>
        </defs>

<script type="text/javascript">
var viewWidth = 955;
var viewHeight = 263;
var sectionId = 'dynsection-0';
</script>
<script xlink:href="svgpan.js"/>
<svg id="graph" class="graph">
<g id="viewport">
<title>include/export/macro.h</title>
<polygon fill="white" stroke="transparent" points="-4,4 -4,-259 951,-259 951,4 -4,4"/>
<!-- Node1 -->
<g id="node1" class="node">
<title>Node1</title>
<g id="a_node1"><a xlink:title="ALG Macro.">
<polygon fill="#bfbfbf" stroke="black" points="594,-235.5 594,-254.5 723,-254.5 723,-235.5 594,-235.5"/>
<text text-anchor="middle" x="658.5" y="-242.5" font-family="Helvetica,sans-Serif" font-size="10.00">include/export/macro.h</text>
</a>
</g>
</g>
<!-- Node2 -->
<g id="node2" class="node">
<title>Node2</title>
<g id="a_node2"><a xlink:href="log__global_8h.html" target="_top" xlink:title="Global Access of Log.">
<polygon fill="white" stroke="black" points="417.5,-179.5 417.5,-198.5 493.5,-198.5 493.5,-179.5 417.5,-179.5"/>
<text text-anchor="middle" x="455.5" y="-186.5" font-family="Helvetica,sans-Serif" font-size="10.00">log_global.h</text>
</a>
</g>
</g>
<!-- Node1&#45;&gt;Node2 -->
<g id="edge1" class="edge">
<title>Node1&#45;&gt;Node2</title>
<path fill="none" stroke="midnightblue" d="M626.33,-235.44C591.44,-226.16 535.61,-211.31 497.33,-201.13"/>
<polygon fill="midnightblue" stroke="midnightblue" points="498.08,-197.7 487.52,-198.52 496.28,-204.47 498.08,-197.7"/>
</g>
<!-- Node4 -->
<g id="node4" class="node">
<title>Node4</title>
<g id="a_node4"><a xlink:href="meta_8h.html" target="_top" xlink:title="mmCEsim meta data">
<polygon fill="white" stroke="black" points="138,-67.5 138,-86.5 189,-86.5 189,-67.5 138,-67.5"/>
<text text-anchor="middle" x="163.5" y="-74.5" font-family="Helvetica,sans-Serif" font-size="10.00">meta.h</text>
</a>
</g>
</g>
<!-- Node1&#45;&gt;Node4 -->
<g id="edge25" class="edge">
<title>Node1&#45;&gt;Node4</title>
<path fill="none" stroke="midnightblue" d="M593.83,-237.41C542.61,-231 469.75,-219.19 408.5,-199 322.21,-170.56 227.91,-116.95 185.88,-91.75"/>
<polygon fill="midnightblue" stroke="midnightblue" points="187.63,-88.72 177.27,-86.54 184.01,-94.71 187.63,-88.72"/>
</g>
<!-- Node5 -->
<g id="node5" class="node">
<title>Node5</title>
<g id="a_node5"><a xlink:title=" ">
<polygon fill="white" stroke="#bfbfbf" points="150.5,-6 150.5,-25 194.5,-25 194.5,-6 150.5,-6"/>
<text text-anchor="middle" x="172.5" y="-13" font-family="Helvetica,sans-Serif" font-size="10.00">string</text>
</a>
</g>
</g>
<!-- Node1&#45;&gt;Node5 -->
<g id="edge29" class="edge">
<title>Node1&#45;&gt;Node5</title>
<path fill="none" stroke="midnightblue" d="M655.21,-235.31C642.67,-202.68 597.01,-88.26 565.5,-67 499.03,-22.16 284.15,-50.96 206.5,-31 204.14,-30.39 201.73,-29.65 199.34,-28.82"/>
<polygon fill="midnightblue" stroke="midnightblue" points="200.38,-25.47 189.79,-25.07 197.82,-31.98 200.38,-25.47"/>
</g>
<!-- Node9 -->
<g id="node9" class="node">
<title>Node9</title>
<g id="a_node9"><a xlink:href="utils_8h.html" target="_top" xlink:title="Utilities.">
<polygon fill="white" stroke="black" points="613,-67.5 613,-86.5 660,-86.5 660,-67.5 613,-67.5"/>
<text text-anchor="middle" x="636.5" y="-74.5" font-family="Helvetica,sans-Serif" font-size="10.00">utils.h</text>
</a>
</g>
</g>
<!-- Node1&#45;&gt;Node9 -->
<g id="edge26" class="edge">
<title>Node1&#45;&gt;Node9</title>
<path fill="none" stroke="midnightblue" d="M657.32,-235.08C653.85,-208.95 643.68,-132.21 638.96,-96.58"/>
<polygon fill="midnightblue" stroke="midnightblue" points="642.42,-96.02 637.64,-86.57 635.48,-96.94 642.42,-96.02"/>
</g>
<!-- Node14 -->
<g id="node14" class="node">
<title>Node14</title>
<g id="a_node14"><a xlink:title=" ">
<polygon fill="white" stroke="#bfbfbf" points="900,-6 900,-25 947,-25 947,-6 900,-6"/>
<text text-anchor="middle" x="923.5" y="-13" font-family="Helvetica,sans-Serif" font-size="10.00">vector</text>
</a>
</g>
</g>
<!-- Node1&#45;&gt;Node14 -->
<g id="edge31" class="edge">
<title>Node1&#45;&gt;Node14</title>
<path fill="none" stroke="midnightblue" d="M662.79,-235.3C669.56,-222.13 683.7,-196.77 700.5,-179 763.05,-112.84 855.63,-55.35 899.18,-30.12"/>
<polygon fill="midnightblue" stroke="midnightblue" points="901.01,-33.11 907.95,-25.1 897.53,-27.04 901.01,-33.11"/>
</g>
<!-- Node24 -->
<g id="node24" class="node">
<title>Node24</title>
<g id="a_node24"><a xlink:title=" ">
<polygon fill="white" stroke="#bfbfbf" points="709.5,-179.5 709.5,-198.5 747.5,-198.5 747.5,-179.5 709.5,-179.5"/>
<text text-anchor="middle" x="728.5" y="-186.5" font-family="Helvetica,sans-Serif" font-size="10.00">map</text>
</a>
</g>
</g>
<!-- Node1&#45;&gt;Node24 -->
<g id="edge27" class="edge">
<title>Node1&#45;&gt;Node24</title>
<path fill="none" stroke="midnightblue" d="M669.75,-235.32C680.3,-227.18 696.3,-214.84 708.94,-205.09"/>
<polygon fill="midnightblue" stroke="midnightblue" points="711.27,-207.71 717.05,-198.83 706.99,-202.17 711.27,-207.71"/>
</g>
<!-- Node25 -->
<g id="node25" class="node">
<title>Node25</title>
<g id="a_node25"><a xlink:title=" ">
<polygon fill="white" stroke="#bfbfbf" points="765.5,-179.5 765.5,-198.5 809.5,-198.5 809.5,-179.5 765.5,-179.5"/>
<text text-anchor="middle" x="787.5" y="-186.5" font-family="Helvetica,sans-Serif" font-size="10.00">regex</text>
</a>
</g>
</g>
<!-- Node1&#45;&gt;Node25 -->
<g id="edge28" class="edge">
<title>Node1&#45;&gt;Node25</title>
<path fill="none" stroke="midnightblue" d="M678.94,-235.44C700.17,-226.56 733.6,-212.56 757.75,-202.45"/>
<polygon fill="midnightblue" stroke="midnightblue" points="759.28,-205.61 767.16,-198.52 756.58,-199.15 759.28,-205.61"/>
</g>
<!-- Node26 -->
<g id="node26" class="node">
<title>Node26</title>
<g id="a_node26"><a xlink:title=" ">
<polygon fill="white" stroke="#bfbfbf" points="828,-179.5 828,-198.5 873,-198.5 873,-179.5 828,-179.5"/>
<text text-anchor="middle" x="850.5" y="-186.5" font-family="Helvetica,sans-Serif" font-size="10.00">utility</text>
</a>
</g>
</g>
<!-- Node1&#45;&gt;Node26 -->
<g id="edge30" class="edge">
<title>Node1&#45;&gt;Node26</title>
<path fill="none" stroke="midnightblue" d="M688.92,-235.44C724.05,-225.56 781.62,-209.37 817.71,-199.22"/>
<polygon fill="midnightblue" stroke="midnightblue" points="819.06,-202.48 827.74,-196.4 817.16,-195.74 819.06,-202.48"/>
</g>
<!-- Node3 -->
<g id="node3" class="node">
<title>Node3</title>
<g id="a_node3"><a xlink:href="include_2log_8h.html" target="_top" xlink:title="Log Utilities.">
<polygon fill="white" stroke="black" points="354,-123.5 354,-142.5 395,-142.5 395,-123.5 354,-123.5"/>
<text text-anchor="middle" x="374.5" y="-130.5" font-family="Helvetica,sans-Serif" font-size="10.00">log.h</text>
</a>
</g>
</g>
<!-- Node2&#45;&gt;Node3 -->
<g id="edge2" class="edge">
<title>Node2&#45;&gt;Node3</title>
<path fill="none" stroke="midnightblue" d="M442.49,-179.32C429.97,-170.98 410.82,-158.21 396.03,-148.35"/>
<polygon fill="midnightblue" stroke="midnightblue" points="397.74,-145.29 387.48,-142.65 393.86,-151.11 397.74,-145.29"/>
</g>
<!-- Node3&#45;&gt;Node4 -->
<g id="edge3" class="edge">
<title>Node3&#45;&gt;Node4</title>
<path fill="none" stroke="midnightblue" d="M353.77,-126.8C322.38,-118.91 260.66,-103.34 199,-87.37"/>
<polygon fill="midnightblue" stroke="midnightblue" points="199.67,-83.93 189.11,-84.81 197.91,-90.71 199.67,-83.93"/>
</g>
<!-- Node6 -->
<g id="node6" class="node">
<title>Node6</title>
<g id="a_node6"><a xlink:href="term_8h.html" target="_top" xlink:title="Terminal Color and Style Control.">
<polygon fill="white" stroke="black" points="71,-67.5 71,-86.5 120,-86.5 120,-67.5 71,-67.5"/>
<text text-anchor="middle" x="95.5" y="-74.5" font-family="Helvetica,sans-Serif" font-size="10.00">term.h</text>
</a>
</g>
</g>
<!-- Node3&#45;&gt;Node6 -->
<g id="edge5" class="edge">
<title>Node3&#45;&gt;Node6</title>
<path fill="none" stroke="midnightblue" d="M353.97,-128.85C313.13,-122.46 218.64,-107.04 130.22,-87.25"/>
<polygon fill="midnightblue" stroke="midnightblue" points="130.84,-83.8 120.31,-85.01 129.29,-90.63 130.84,-83.8"/>
</g>
<!-- Node3&#45;&gt;Node9 -->
<g id="edge9" class="edge">
<title>Node3&#45;&gt;Node9</title>
<path fill="none" stroke="midnightblue" d="M395.06,-127.76C440.05,-118.49 547.61,-96.32 602.71,-84.96"/>
<polygon fill="midnightblue" stroke="midnightblue" points="603.59,-88.36 612.68,-82.91 602.18,-81.5 603.59,-88.36"/>
</g>
<!-- Node19 -->
<g id="node19" class="node">
<title>Node19</title>
<g id="a_node19"><a xlink:title=" ">
<polygon fill="white" stroke="#bfbfbf" points="278.5,-67.5 278.5,-86.5 322.5,-86.5 322.5,-67.5 278.5,-67.5"/>
<text text-anchor="middle" x="300.5" y="-74.5" font-family="Helvetica,sans-Serif" font-size="10.00">ctime</text>
</a>
</g>
</g>
<!-- Node3&#45;&gt;Node19 -->
<g id="edge20" class="edge">
<title>Node3&#45;&gt;Node19</title>
<path fill="none" stroke="midnightblue" d="M362.61,-123.32C351.35,-115.11 334.21,-102.6 320.79,-92.81"/>
<polygon fill="midnightblue" stroke="midnightblue" points="322.75,-89.9 312.61,-86.83 318.62,-95.56 322.75,-89.9"/>
</g>
<!-- Node20 -->
<g id="node20" class="node">
<title>Node20</title>
<g id="a_node20"><a xlink:title=" ">
<polygon fill="white" stroke="#bfbfbf" points="340.5,-67.5 340.5,-86.5 408.5,-86.5 408.5,-67.5 340.5,-67.5"/>
<text text-anchor="middle" x="374.5" y="-74.5" font-family="Helvetica,sans-Serif" font-size="10.00">filesystem</text>
</a>
</g>
</g>
<!-- Node3&#45;&gt;Node20 -->
<g id="edge21" class="edge">
<title>Node3&#45;&gt;Node20</title>
<path fill="none" stroke="midnightblue" d="M374.5,-123.08C374.5,-116.01 374.5,-105.86 374.5,-96.99"/>
<polygon fill="midnightblue" stroke="midnightblue" points="378,-96.75 374.5,-86.75 371,-96.75 378,-96.75"/>
</g>
<!-- Node21 -->
<g id="node21" class="node">
<title>Node21</title>
<g id="a_node21"><a xlink:title=" ">
<polygon fill="white" stroke="#bfbfbf" points="427,-67.5 427,-86.5 482,-86.5 482,-67.5 427,-67.5"/>
<text text-anchor="middle" x="454.5" y="-74.5" font-family="Helvetica,sans-Serif" font-size="10.00">fstream</text>
</a>
</g>
</g>
<!-- Node3&#45;&gt;Node21 -->
<g id="edge22" class="edge">
<title>Node3&#45;&gt;Node21</title>
<path fill="none" stroke="midnightblue" d="M387.35,-123.32C399.72,-114.98 418.63,-102.21 433.24,-92.35"/>
<polygon fill="midnightblue" stroke="midnightblue" points="435.35,-95.15 441.68,-86.65 431.43,-89.35 435.35,-95.15"/>
</g>
<!-- Node22 -->
<g id="node22" class="node">
<title>Node22</title>
<g id="a_node22"><a xlink:title=" ">
<polygon fill="white" stroke="#bfbfbf" points="500.5,-67.5 500.5,-86.5 556.5,-86.5 556.5,-67.5 500.5,-67.5"/>
<text text-anchor="middle" x="528.5" y="-74.5" font-family="Helvetica,sans-Serif" font-size="10.00">iomanip</text>
</a>
</g>
</g>
<!-- Node3&#45;&gt;Node22 -->
<g id="edge23" class="edge">
<title>Node3&#45;&gt;Node22</title>
<path fill="none" stroke="midnightblue" d="M395.27,-124.72C420.64,-115.82 463.93,-100.64 494.26,-90.01"/>
<polygon fill="midnightblue" stroke="midnightblue" points="495.72,-93.2 504,-86.59 493.41,-86.6 495.72,-93.2"/>
</g>
<!-- Node23 -->
<g id="node23" class="node">
<title>Node23</title>
<g id="a_node23"><a xlink:title=" ">
<polygon fill="white" stroke="#bfbfbf" points="207,-67.5 207,-86.5 260,-86.5 260,-67.5 207,-67.5"/>
<text text-anchor="middle" x="233.5" y="-74.5" font-family="Helvetica,sans-Serif" font-size="10.00">spy.hpp</text>
</a>
</g>
</g>
<!-- Node3&#45;&gt;Node23 -->
<g id="edge24" class="edge">
<title>Node3&#45;&gt;Node23</title>
<path fill="none" stroke="midnightblue" d="M354,-124.15C330.73,-115.24 292.5,-100.6 265.35,-90.2"/>
<polygon fill="midnightblue" stroke="midnightblue" points="266.48,-86.88 255.89,-86.58 263.98,-93.42 266.48,-86.88"/>
</g>
<!-- Node4&#45;&gt;Node5 -->
<g id="edge4" class="edge">
<title>Node4&#45;&gt;Node5</title>
<path fill="none" stroke="midnightblue" d="M164.79,-67.48C166.06,-59.08 168.04,-45.98 169.68,-35.16"/>
<polygon fill="midnightblue" stroke="midnightblue" points="173.18,-35.42 171.21,-25.01 166.26,-34.37 173.18,-35.42"/>
</g>
<!-- Node6&#45;&gt;Node5 -->
<g id="edge8" class="edge">
<title>Node6&#45;&gt;Node5</title>
<path fill="none" stroke="midnightblue" d="M106.53,-67.48C118.77,-58.02 138.73,-42.6 153.49,-31.19"/>
<polygon fill="midnightblue" stroke="midnightblue" points="155.72,-33.89 161.49,-25.01 151.44,-28.35 155.72,-33.89"/>
</g>
<!-- Node7 -->
<g id="node7" class="node">
<title>Node7</title>
<g id="a_node7"><a xlink:title=" ">
<polygon fill="white" stroke="#bfbfbf" points="0,-6 0,-25 49,-25 49,-6 0,-6"/>
<text text-anchor="middle" x="24.5" y="-13" font-family="Helvetica,sans-Serif" font-size="10.00">cstdlib</text>
</a>
</g>
</g>
<!-- Node6&#45;&gt;Node7 -->
<g id="edge6" class="edge">
<title>Node6&#45;&gt;Node7</title>
<path fill="none" stroke="midnightblue" d="M85.33,-67.48C74.15,-58.11 55.98,-42.88 42.41,-31.51"/>
<polygon fill="midnightblue" stroke="midnightblue" points="44.57,-28.75 34.65,-25.01 40.07,-34.11 44.57,-28.75"/>
</g>
<!-- Node8 -->
<g id="node8" class="node">
<title>Node8</title>
<g id="a_node8"><a xlink:title=" ">
<polygon fill="white" stroke="#bfbfbf" points="67.5,-6 67.5,-25 127.5,-25 127.5,-6 67.5,-6"/>
<text text-anchor="middle" x="97.5" y="-13" font-family="Helvetica,sans-Serif" font-size="10.00">iostream</text>
</a>
</g>
</g>
<!-- Node6&#45;&gt;Node8 -->
<g id="edge7" class="edge">
<title>Node6&#45;&gt;Node8</title>
<path fill="none" stroke="midnightblue" d="M95.79,-67.48C96.07,-59.08 96.51,-45.98 96.87,-35.16"/>
<polygon fill="midnightblue" stroke="midnightblue" points="100.38,-35.12 97.21,-25.01 93.38,-34.89 100.38,-35.12"/>
</g>
<!-- Node9&#45;&gt;Node5 -->
<g id="edge14" class="edge">
<title>Node9&#45;&gt;Node5</title>
<path fill="none" stroke="midnightblue" d="M612.89,-69.86C608.15,-68.79 603.18,-67.77 598.5,-67 425.84,-38.77 376.13,-73.83 206.5,-31 204.14,-30.4 201.73,-29.66 199.34,-28.84"/>
<polygon fill="midnightblue" stroke="midnightblue" points="200.37,-25.49 189.78,-25.1 197.82,-32 200.37,-25.49"/>
</g>
<!-- Node10 -->
<g id="node10" class="node">
<title>Node10</title>
<g id="a_node10"><a xlink:title=" ">
<polygon fill="white" stroke="#bfbfbf" points="603.5,-6 603.5,-25 667.5,-25 667.5,-6 603.5,-6"/>
<text text-anchor="middle" x="635.5" y="-13" font-family="Helvetica,sans-Serif" font-size="10.00">algorithm</text>
</a>
</g>
</g>
<!-- Node9&#45;&gt;Node10 -->
<g id="edge10" class="edge">
<title>Node9&#45;&gt;Node10</title>
<path fill="none" stroke="midnightblue" d="M636.36,-67.48C636.22,-59.08 636,-45.98 635.81,-35.16"/>
<polygon fill="midnightblue" stroke="midnightblue" points="639.31,-34.95 635.64,-25.01 632.31,-35.07 639.31,-34.95"/>
</g>
<!-- Node11 -->
<g id="node11" class="node">
<title>Node11</title>
<g id="a_node11"><a xlink:title=" ">
<polygon fill="white" stroke="#bfbfbf" points="686,-6 686,-25 735,-25 735,-6 686,-6"/>
<text text-anchor="middle" x="710.5" y="-13" font-family="Helvetica,sans-Serif" font-size="10.00">cctype</text>
</a>
</g>
</g>
<!-- Node9&#45;&gt;Node11 -->
<g id="edge11" class="edge">
<title>Node9&#45;&gt;Node11</title>
<path fill="none" stroke="midnightblue" d="M647.1,-67.48C658.75,-58.11 677.69,-42.88 691.83,-31.51"/>
<polygon fill="midnightblue" stroke="midnightblue" points="694.32,-34 699.92,-25.01 689.93,-28.55 694.32,-34"/>
</g>
<!-- Node12 -->
<g id="node12" class="node">
<title>Node12</title>
<g id="a_node12"><a xlink:title=" ">
<polygon fill="white" stroke="#bfbfbf" points="753.5,-6 753.5,-25 807.5,-25 807.5,-6 753.5,-6"/>
<text text-anchor="middle" x="780.5" y="-13" font-family="Helvetica,sans-Serif" font-size="10.00">random</text>
</a>
</g>
</g>
<!-- Node9&#45;&gt;Node12 -->
<g id="edge12" class="edge">
<title>Node9&#45;&gt;Node12</title>
<path fill="none" stroke="midnightblue" d="M657.13,-67.48C681.62,-57.36 722.65,-40.4 750.61,-28.85"/>
<polygon fill="midnightblue" stroke="midnightblue" points="752,-32.06 759.91,-25.01 749.33,-25.59 752,-32.06"/>
</g>
<!-- Node13 -->
<g id="node13" class="node">
<title>Node13</title>
<g id="a_node13"><a xlink:title=" ">
<polygon fill="white" stroke="#bfbfbf" points="825.5,-6 825.5,-25 881.5,-25 881.5,-6 825.5,-6"/>
<text text-anchor="middle" x="853.5" y="-13" font-family="Helvetica,sans-Serif" font-size="10.00">sstream</text>
</a>
</g>
</g>
<!-- Node9&#45;&gt;Node13 -->
<g id="edge13" class="edge">
<title>Node9&#45;&gt;Node13</title>
<path fill="none" stroke="midnightblue" d="M660.09,-70.28C705.43,-59.27 801.58,-35.77 816.5,-31 818.77,-30.27 821.11,-29.48 823.45,-28.65"/>
<polygon fill="midnightblue" stroke="midnightblue" points="824.78,-31.88 832.93,-25.1 822.33,-25.33 824.78,-31.88"/>
</g>
<!-- Node9&#45;&gt;Node14 -->
<g id="edge15" class="edge">
<title>Node9&#45;&gt;Node14</title>
<path fill="none" stroke="midnightblue" d="M660.16,-70.14C664.9,-69.04 669.85,-67.94 674.5,-67 769.91,-47.77 797.23,-58.79 890.5,-31 892.64,-30.36 894.83,-29.62 897.01,-28.81"/>
<polygon fill="midnightblue" stroke="midnightblue" points="898.4,-32.03 906.34,-25.01 895.75,-25.54 898.4,-32.03"/>
</g>
<!-- Node15 -->
<g id="node15" class="node">
<title>Node15</title>
<g id="a_node15"><a xlink:title=" ">
<polygon fill="white" stroke="#bfbfbf" points="216,-0.5 216,-30.5 357,-30.5 357,-0.5 216,-0.5"/>
<text text-anchor="start" x="224" y="-18.5" font-family="Helvetica,sans-Serif" font-size="10.00">boost/dll/runtime_symbol</text>
<text text-anchor="middle" x="286.5" y="-7.5" font-family="Helvetica,sans-Serif" font-size="10.00">_info.hpp</text>
</a>
</g>
</g>
<!-- Node9&#45;&gt;Node15 -->
<g id="edge16" class="edge">
<title>Node9&#45;&gt;Node15</title>
<path fill="none" stroke="midnightblue" d="M612.85,-70.09C608.11,-69 603.16,-67.91 598.5,-67 499.2,-47.57 471.09,-48.24 367.12,-31.07"/>
<polygon fill="midnightblue" stroke="midnightblue" points="367.59,-27.6 357.15,-29.41 366.44,-34.5 367.59,-27.6"/>
</g>
<!-- Node16 -->
<g id="node16" class="node">
<title>Node16</title>
<g id="a_node16"><a xlink:title=" ">
<polygon fill="white" stroke="#bfbfbf" points="375.5,-6 375.5,-25 421.5,-25 421.5,-6 375.5,-6"/>
<text text-anchor="middle" x="398.5" y="-13" font-family="Helvetica,sans-Serif" font-size="10.00">pwd.h</text>
</a>
</g>
</g>
<!-- Node9&#45;&gt;Node16 -->
<g id="edge17" class="edge">
<title>Node9&#45;&gt;Node16</title>
<path fill="none" stroke="midnightblue" d="M612.8,-70.3C608.07,-69.19 603.13,-68.04 598.5,-67 524.01,-50.2 503.03,-54.9 430.5,-31 428.63,-30.38 426.73,-29.69 424.82,-28.96"/>
<polygon fill="midnightblue" stroke="midnightblue" points="426.08,-25.69 415.5,-25.02 423.35,-32.13 426.08,-25.69"/>
</g>
<!-- Node17 -->
<g id="node17" class="node">
<title>Node17</title>
<g id="a_node17"><a xlink:title=" ">
<polygon fill="white" stroke="#bfbfbf" points="439.5,-6 439.5,-25 511.5,-25 511.5,-6 439.5,-6"/>
<text text-anchor="middle" x="475.5" y="-13" font-family="Helvetica,sans-Serif" font-size="10.00">sys/types.h</text>
</a>
</g>
</g>
<!-- Node9&#45;&gt;Node17 -->
<g id="edge18" class="edge">
<title>Node9&#45;&gt;Node17</title>
<path fill="none" stroke="midnightblue" d="M613.43,-67.48C585.82,-57.27 539.38,-40.11 508.1,-28.55"/>
<polygon fill="midnightblue" stroke="midnightblue" points="509.12,-25.19 498.52,-25.01 506.69,-31.76 509.12,-25.19"/>
</g>
<!-- Node18 -->
<g id="node18" class="node">
<title>Node18</title>
<g id="a_node18"><a xlink:title=" ">
<polygon fill="white" stroke="#bfbfbf" points="529.5,-6 529.5,-25 585.5,-25 585.5,-6 529.5,-6"/>
<text text-anchor="middle" x="557.5" y="-13" font-family="Helvetica,sans-Serif" font-size="10.00">unistd.h</text>
</a>
</g>
</g>
<!-- Node9&#45;&gt;Node18 -->
<g id="edge19" class="edge">
<title>Node9&#45;&gt;Node18</title>
<path fill="none" stroke="midnightblue" d="M625.18,-67.48C612.63,-58.02 592.15,-42.6 577,-31.19"/>
<polygon fill="midnightblue" stroke="midnightblue" points="578.89,-28.23 568.8,-25.01 574.68,-33.82 578.89,-28.23"/>
</g>
</g>
</svg>
        <g id="navigator" transform="translate(0 0)" fill="#404254">
                <rect fill="#f2f5e9" fill-opacity="0.5" stroke="#606060" stroke-width=".5" x="0" y="0" width="60" height="60"/>
                <use id="zoomplus" xlink:href="#zoomPlus" x="17" y="9" onmousedown="handleZoom(evt,'in')"/>
                <use id="zoomminus" xlink:href="#zoomMin" x="42" y="9" onmousedown="handleZoom(evt,'out')"/>
                <use id="reset" xlink:href="#resetDef" x="30" y="36" onmousedown="handleReset()"/>
                <g id="arrowUp" xlink:href="#dirArrow" transform="translate(30 24)" onmousedown="handlePan(0,-1)">
                  <use xlink:href="#rim" fill="#404040">
                        <set attributeName="fill" to="#808080" begin="arrowUp.mouseover" end="arrowUp.mouseout"/>
                  </use>
                  <path fill="none" stroke="white" stroke-width="1.5" d="M0,-3.0v7 M-2.5,-0.5L0,-3.0L2.5,-0.5"/>
                </g>
                <g id="arrowRight" xlink:href="#dirArrow" transform="rotate(90) translate(36 -43)" onmousedown="handlePan(1,0)">
                  <use xlink:href="#rim" fill="#404040">
                        <set attributeName="fill" to="#808080" begin="arrowRight.mouseover" end="arrowRight.mouseout"/>
                  </use>
                  <path fill="none" stroke="white" stroke-width="1.5" d="M0,-3.0v7 M-2.5,-0.5L0,-3.0L2.5,-0.5"/>
                </g>
                <g id="arrowDown" xlink:href="#dirArrow" transform="rotate(180) translate(-30 -48)" onmousedown="handlePan(0,1)">
                  <use xlink:href="#rim" fill="#404040">
                        <set attributeName="fill" to="#808080" begin="arrowDown.mouseover" end="arrowDown.mouseout"/>
                  </use>
                  <path fill="none" stroke="white" stroke-width="1.5" d="M0,-3.0v7 M-2.5,-0.5L0,-3.0L2.5,-0.5"/>
                </g>
                <g id="arrowLeft" xlink:href="#dirArrow" transform="rotate(270) translate(-36 17)" onmousedown="handlePan(-1,0)">
                  <use xlink:href="#rim" fill="#404040">
                        <set attributeName="fill" to="#808080" begin="arrowLeft.mouseover" end="arrowLeft.mouseout"/>
                  </use>
                  <path fill="none" stroke="white" stroke-width="1.5" d="M0,-3.0v7 M-2.5,-0.5L0,-3.0L2.5,-0.5"/>
                </g>
        </g>
        <svg viewBox="0 0 15 15" width="100%" height="30px" preserveAspectRatio="xMaxYMin meet">
         <g id="arrow_out" transform="scale(0.3 0.3)">
          <a xlink:href="macro_8h__incl_org.svg" target="_base">
           <rect id="button" ry="5" rx="5" y="6" x="6" height="38" width="38"
                fill="#f2f5e9" fill-opacity="0.5" stroke="#606060" stroke-width="1.0"/>
           <path id="arrow"
             d="M 11.500037,31.436501 C 11.940474,20.09759 22.043105,11.32322 32.158766,21.979434 L 37.068811,17.246167 C 37.068811,17.246167 37.088388,32 37.088388,32 L 22.160133,31.978069 C 22.160133,31.978069 26.997745,27.140456 26.997745,27.140456 C 18.528582,18.264221 13.291696,25.230495 11.500037,31.436501 z"
             style="fill:#404040;"/>
          </a>
         </g>
        </svg>
</svg>
