<?xml version="1.0" encoding="UTF-8" standalone="no"?>
<!DOCTYPE svg PUBLIC "-//W3C//DTD SVG 1.1//EN"
 "http://www.w3.org/Graphics/SVG/1.1/DTD/svg11.dtd">
<!-- Generated by graphviz version 2.43.0 (0)
 -->
<!-- Title: include/export/macro.h Pages: 1 -->
<svg width="1058pt" height="263pt"
 viewBox="0.00 0.00 1057.50 263.00" xmlns="http://www.w3.org/2000/svg" xmlns:xlink="http://www.w3.org/1999/xlink">
<g id="graph0" class="graph" transform="scale(1 1) rotate(0) translate(4 259)">
<title>include/export/macro.h</title>
<polygon fill="white" stroke="transparent" points="-4,4 -4,-259 1053.5,-259 1053.5,4 -4,4"/>
<!-- Node1 -->
<g id="node1" class="node">
<title>Node1</title>
<g id="a_node1"><a xlink:title="ALG Macro.">
<polygon fill="#bfbfbf" stroke="black" points="579.5,-235.5 579.5,-254.5 708.5,-254.5 708.5,-235.5 579.5,-235.5"/>
<text text-anchor="middle" x="644" y="-242.5" font-family="Helvetica,sans-Serif" font-size="10.00">include/export/macro.h</text>
</a>
</g>
</g>
<!-- Node2 -->
<g id="node2" class="node">
<title>Node2</title>
<g id="a_node2"><a xlink:href="lang_8h.html" target="_top" xlink:title="Export Languages.">
<polygon fill="white" stroke="black" points="263.5,-179.5 263.5,-198.5 344.5,-198.5 344.5,-179.5 263.5,-179.5"/>
<text text-anchor="middle" x="304" y="-186.5" font-family="Helvetica,sans-Serif" font-size="10.00">export/lang.h</text>
</a>
</g>
</g>
<!-- Node1&#45;&gt;Node2 -->
<g id="edge1" class="edge">
<title>Node1&#45;&gt;Node2</title>
<path fill="none" stroke="midnightblue" d="M589.35,-235.46C531.97,-226.48 439.12,-211.88 359,-199 357.54,-198.76 356.05,-198.53 354.55,-198.28"/>
<polygon fill="midnightblue" stroke="midnightblue" points="354.98,-194.81 344.54,-196.66 353.86,-201.72 354.98,-194.81"/>
</g>
<!-- Node3 -->
<g id="node3" class="node">
<title>Node3</title>
<g id="a_node3"><a xlink:href="log__global_8h.html" target="_top" xlink:title="Global Access of Log.">
<polygon fill="white" stroke="black" points="465,-179.5 465,-198.5 541,-198.5 541,-179.5 465,-179.5"/>
<text text-anchor="middle" x="503" y="-186.5" font-family="Helvetica,sans-Serif" font-size="10.00">log_global.h</text>
</a>
</g>
</g>
<!-- Node1&#45;&gt;Node3 -->
<g id="edge2" class="edge">
<title>Node1&#45;&gt;Node3</title>
<path fill="none" stroke="midnightblue" d="M621.66,-235.44C598.25,-226.48 561.26,-212.31 534.81,-202.18"/>
<polygon fill="midnightblue" stroke="midnightblue" points="535.83,-198.82 525.24,-198.52 533.32,-205.36 535.83,-198.82"/>
</g>
<!-- Node5 -->
<g id="node5" class="node">
<title>Node5</title>
<g id="a_node5"><a xlink:href="meta_8h.html" target="_top" xlink:title="mmCEsim meta data">
<polygon fill="white" stroke="black" points="145.5,-67.5 145.5,-86.5 196.5,-86.5 196.5,-67.5 145.5,-67.5"/>
<text text-anchor="middle" x="171" y="-74.5" font-family="Helvetica,sans-Serif" font-size="10.00">meta.h</text>
</a>
</g>
</g>
<!-- Node1&#45;&gt;Node5 -->
<g id="edge27" class="edge">
<title>Node1&#45;&gt;Node5</title>
<path fill="none" stroke="midnightblue" d="M598.97,-235.42C560.52,-227.58 503.97,-214.8 456,-199 358.12,-166.76 247,-114.94 197.37,-90.96"/>
<polygon fill="midnightblue" stroke="midnightblue" points="198.81,-87.77 188.29,-86.54 195.75,-94.06 198.81,-87.77"/>
</g>
<!-- Node6 -->
<g id="node6" class="node">
<title>Node6</title>
<g id="a_node6"><a xlink:title=" ">
<polygon fill="white" stroke="#bfbfbf" points="146,-6 146,-25 190,-25 190,-6 146,-6"/>
<text text-anchor="middle" x="168" y="-13" font-family="Helvetica,sans-Serif" font-size="10.00">string</text>
</a>
</g>
</g>
<!-- Node1&#45;&gt;Node6 -->
<g id="edge31" class="edge">
<title>Node1&#45;&gt;Node6</title>
<path fill="none" stroke="midnightblue" d="M643.5,-235.12C641.33,-205.51 629.98,-109.66 573,-67 506.16,-16.96 279.54,-53.01 199,-31 197.07,-30.47 195.1,-29.83 193.15,-29.12"/>
<polygon fill="midnightblue" stroke="midnightblue" points="194.27,-25.79 183.69,-25.11 191.53,-32.23 194.27,-25.79"/>
</g>
<!-- Node10 -->
<g id="node10" class="node">
<title>Node10</title>
<g id="a_node10"><a xlink:href="utils_8h.html" target="_top" xlink:title="Utilities.">
<polygon fill="white" stroke="black" points="620.5,-67.5 620.5,-86.5 667.5,-86.5 667.5,-67.5 620.5,-67.5"/>
<text text-anchor="middle" x="644" y="-74.5" font-family="Helvetica,sans-Serif" font-size="10.00">utils.h</text>
</a>
</g>
</g>
<!-- Node1&#45;&gt;Node10 -->
<g id="edge28" class="edge">
<title>Node1&#45;&gt;Node10</title>
<path fill="none" stroke="midnightblue" d="M644,-235.08C644,-208.95 644,-132.21 644,-96.58"/>
<polygon fill="midnightblue" stroke="midnightblue" points="647.5,-96.57 644,-86.57 640.5,-96.57 647.5,-96.57"/>
</g>
<!-- Node15 -->
<g id="node15" class="node">
<title>Node15</title>
<g id="a_node15"><a xlink:title=" ">
<polygon fill="white" stroke="#bfbfbf" points="1002.5,-6 1002.5,-25 1049.5,-25 1049.5,-6 1002.5,-6"/>
<text text-anchor="middle" x="1026" y="-13" font-family="Helvetica,sans-Serif" font-size="10.00">vector</text>
</a>
</g>
</g>
<!-- Node1&#45;&gt;Node15 -->
<g id="edge33" class="edge">
<title>Node1&#45;&gt;Node15</title>
<path fill="none" stroke="midnightblue" d="M650.69,-235.08C661.14,-221.61 682.46,-195.89 705,-179 755.87,-140.9 928.69,-60.69 997.45,-29.4"/>
<polygon fill="midnightblue" stroke="midnightblue" points="999.15,-32.47 1006.81,-25.14 996.26,-26.09 999.15,-32.47"/>
</g>
<!-- Node26 -->
<g id="node26" class="node">
<title>Node26</title>
<g id="a_node26"><a xlink:title=" ">
<polygon fill="white" stroke="#bfbfbf" points="714,-179.5 714,-198.5 752,-198.5 752,-179.5 714,-179.5"/>
<text text-anchor="middle" x="733" y="-186.5" font-family="Helvetica,sans-Serif" font-size="10.00">map</text>
</a>
</g>
</g>
<!-- Node1&#45;&gt;Node26 -->
<g id="edge29" class="edge">
<title>Node1&#45;&gt;Node26</title>
<path fill="none" stroke="midnightblue" d="M658.3,-235.32C672.18,-226.9 693.49,-213.97 709.8,-204.07"/>
<polygon fill="midnightblue" stroke="midnightblue" points="712,-206.83 718.74,-198.65 708.37,-200.85 712,-206.83"/>
</g>
<!-- Node27 -->
<g id="node27" class="node">
<title>Node27</title>
<g id="a_node27"><a xlink:title=" ">
<polygon fill="white" stroke="#bfbfbf" points="770,-179.5 770,-198.5 814,-198.5 814,-179.5 770,-179.5"/>
<text text-anchor="middle" x="792" y="-186.5" font-family="Helvetica,sans-Serif" font-size="10.00">regex</text>
</a>
</g>
</g>
<!-- Node1&#45;&gt;Node27 -->
<g id="edge30" class="edge">
<title>Node1&#45;&gt;Node27</title>
<path fill="none" stroke="midnightblue" d="M667.45,-235.44C692.42,-226.33 732.11,-211.85 759.95,-201.69"/>
<polygon fill="midnightblue" stroke="midnightblue" points="761.43,-204.88 769.63,-198.16 759.03,-198.3 761.43,-204.88"/>
</g>
<!-- Node28 -->
<g id="node28" class="node">
<title>Node28</title>
<g id="a_node28"><a xlink:title=" ">
<polygon fill="white" stroke="#bfbfbf" points="832.5,-179.5 832.5,-198.5 877.5,-198.5 877.5,-179.5 832.5,-179.5"/>
<text text-anchor="middle" x="855" y="-186.5" font-family="Helvetica,sans-Serif" font-size="10.00">utility</text>
</a>
</g>
</g>
<!-- Node1&#45;&gt;Node28 -->
<g id="edge32" class="edge">
<title>Node1&#45;&gt;Node28</title>
<path fill="none" stroke="midnightblue" d="M679.06,-235.49C713.22,-227.13 766.87,-213.83 822.61,-199.05"/>
<polygon fill="midnightblue" stroke="midnightblue" points="823.53,-202.42 832.3,-196.47 821.73,-195.66 823.53,-202.42"/>
</g>
<!-- Node4 -->
<g id="node4" class="node">
<title>Node4</title>
<g id="a_node4"><a xlink:href="include_2log_8h.html" target="_top" xlink:title="Log Utilities.">
<polygon fill="white" stroke="black" points="401.5,-123.5 401.5,-142.5 442.5,-142.5 442.5,-123.5 401.5,-123.5"/>
<text text-anchor="middle" x="422" y="-130.5" font-family="Helvetica,sans-Serif" font-size="10.00">log.h</text>
</a>
</g>
</g>
<!-- Node3&#45;&gt;Node4 -->
<g id="edge3" class="edge">
<title>Node3&#45;&gt;Node4</title>
<path fill="none" stroke="midnightblue" d="M489.99,-179.32C477.47,-170.98 458.32,-158.21 443.53,-148.35"/>
<polygon fill="midnightblue" stroke="midnightblue" points="445.24,-145.29 434.98,-142.65 441.36,-151.11 445.24,-145.29"/>
</g>
<!-- Node4&#45;&gt;Node5 -->
<g id="edge4" class="edge">
<title>Node4&#45;&gt;Node5</title>
<path fill="none" stroke="midnightblue" d="M401.32,-126.48C396.62,-125.28 391.65,-124.06 387,-123 309.74,-105.44 287.09,-105.52 206.68,-87.28"/>
<polygon fill="midnightblue" stroke="midnightblue" points="207.11,-83.78 196.58,-84.96 205.54,-90.61 207.11,-83.78"/>
</g>
<!-- Node7 -->
<g id="node7" class="node">
<title>Node7</title>
<g id="a_node7"><a xlink:href="term_8h.html" target="_top" xlink:title="Terminal Color and Style Control.">
<polygon fill="white" stroke="black" points="78.5,-67.5 78.5,-86.5 127.5,-86.5 127.5,-67.5 78.5,-67.5"/>
<text text-anchor="middle" x="103" y="-74.5" font-family="Helvetica,sans-Serif" font-size="10.00">term.h</text>
</a>
</g>
</g>
<!-- Node4&#45;&gt;Node7 -->
<g id="edge6" class="edge">
<title>Node4&#45;&gt;Node7</title>
<path fill="none" stroke="midnightblue" d="M401.4,-129.55C355.64,-123.94 241.95,-109.09 137.84,-87.22"/>
<polygon fill="midnightblue" stroke="midnightblue" points="138.3,-83.74 127.79,-85.08 136.85,-90.58 138.3,-83.74"/>
</g>
<!-- Node4&#45;&gt;Node10 -->
<g id="edge10" class="edge">
<title>Node4&#45;&gt;Node10</title>
<path fill="none" stroke="midnightblue" d="M442.89,-126.92C481.42,-117.55 563.99,-97.46 610.46,-86.16"/>
<polygon fill="midnightblue" stroke="midnightblue" points="611.46,-89.52 620.35,-83.75 609.8,-82.72 611.46,-89.52"/>
</g>
<!-- Node21 -->
<g id="node21" class="node">
<title>Node21</title>
<g id="a_node21"><a xlink:title=" ">
<polygon fill="white" stroke="#bfbfbf" points="286,-67.5 286,-86.5 330,-86.5 330,-67.5 286,-67.5"/>
<text text-anchor="middle" x="308" y="-74.5" font-family="Helvetica,sans-Serif" font-size="10.00">ctime</text>
</a>
</g>
</g>
<!-- Node4&#45;&gt;Node21 -->
<g id="edge22" class="edge">
<title>Node4&#45;&gt;Node21</title>
<path fill="none" stroke="midnightblue" d="M403.94,-123.44C385.43,-114.68 356.42,-100.94 335.14,-90.86"/>
<polygon fill="midnightblue" stroke="midnightblue" points="336.51,-87.63 325.98,-86.52 333.52,-93.96 336.51,-87.63"/>
</g>
<!-- Node22 -->
<g id="node22" class="node">
<title>Node22</title>
<g id="a_node22"><a xlink:title=" ">
<polygon fill="white" stroke="#bfbfbf" points="348,-67.5 348,-86.5 416,-86.5 416,-67.5 348,-67.5"/>
<text text-anchor="middle" x="382" y="-74.5" font-family="Helvetica,sans-Serif" font-size="10.00">filesystem</text>
</a>
</g>
</g>
<!-- Node4&#45;&gt;Node22 -->
<g id="edge23" class="edge">
<title>Node4&#45;&gt;Node22</title>
<path fill="none" stroke="midnightblue" d="M415.39,-123.08C409.74,-115.46 401.46,-104.26 394.55,-94.94"/>
<polygon fill="midnightblue" stroke="midnightblue" points="397.25,-92.7 388.48,-86.75 391.62,-96.87 397.25,-92.7"/>
</g>
<!-- Node23 -->
<g id="node23" class="node">
<title>Node23</title>
<g id="a_node23"><a xlink:title=" ">
<polygon fill="white" stroke="#bfbfbf" points="434.5,-67.5 434.5,-86.5 489.5,-86.5 489.5,-67.5 434.5,-67.5"/>
<text text-anchor="middle" x="462" y="-74.5" font-family="Helvetica,sans-Serif" font-size="10.00">fstream</text>
</a>
</g>
</g>
<!-- Node4&#45;&gt;Node23 -->
<g id="edge24" class="edge">
<title>Node4&#45;&gt;Node23</title>
<path fill="none" stroke="midnightblue" d="M428.61,-123.08C434.26,-115.46 442.54,-104.26 449.45,-94.94"/>
<polygon fill="midnightblue" stroke="midnightblue" points="452.38,-96.87 455.52,-86.75 446.75,-92.7 452.38,-96.87"/>
</g>
<!-- Node24 -->
<g id="node24" class="node">
<title>Node24</title>
<g id="a_node24"><a xlink:title=" ">
<polygon fill="white" stroke="#bfbfbf" points="508,-67.5 508,-86.5 564,-86.5 564,-67.5 508,-67.5"/>
<text text-anchor="middle" x="536" y="-74.5" font-family="Helvetica,sans-Serif" font-size="10.00">iomanip</text>
</a>
</g>
</g>
<!-- Node4&#45;&gt;Node24 -->
<g id="edge25" class="edge">
<title>Node4&#45;&gt;Node24</title>
<path fill="none" stroke="midnightblue" d="M440.06,-123.44C458.57,-114.68 487.58,-100.94 508.86,-90.86"/>
<polygon fill="midnightblue" stroke="midnightblue" points="510.48,-93.96 518.02,-86.52 507.49,-87.63 510.48,-93.96"/>
</g>
<!-- Node25 -->
<g id="node25" class="node">
<title>Node25</title>
<g id="a_node25"><a xlink:title=" ">
<polygon fill="white" stroke="#bfbfbf" points="214.5,-67.5 214.5,-86.5 267.5,-86.5 267.5,-67.5 214.5,-67.5"/>
<text text-anchor="middle" x="241" y="-74.5" font-family="Helvetica,sans-Serif" font-size="10.00">spy.hpp</text>
</a>
</g>
</g>
<!-- Node4&#45;&gt;Node25 -->
<g id="edge26" class="edge">
<title>Node4&#45;&gt;Node25</title>
<path fill="none" stroke="midnightblue" d="M401.24,-125.81C371.11,-116.82 314.8,-100.02 277.61,-88.92"/>
<polygon fill="midnightblue" stroke="midnightblue" points="278.24,-85.46 267.66,-85.95 276.24,-92.17 278.24,-85.46"/>
</g>
<!-- Node5&#45;&gt;Node6 -->
<g id="edge5" class="edge">
<title>Node5&#45;&gt;Node6</title>
<path fill="none" stroke="midnightblue" d="M170.57,-67.48C170.15,-59.08 169.49,-45.98 168.94,-35.16"/>
<polygon fill="midnightblue" stroke="midnightblue" points="172.43,-34.82 168.43,-25.01 165.44,-35.17 172.43,-34.82"/>
</g>
<!-- Node7&#45;&gt;Node6 -->
<g id="edge9" class="edge">
<title>Node7&#45;&gt;Node6</title>
<path fill="none" stroke="midnightblue" d="M112.31,-67.48C122.45,-58.2 138.86,-43.17 151.25,-31.83"/>
<polygon fill="midnightblue" stroke="midnightblue" points="153.69,-34.34 158.7,-25.01 148.96,-29.18 153.69,-34.34"/>
</g>
<!-- Node8 -->
<g id="node8" class="node">
<title>Node8</title>
<g id="a_node8"><a xlink:title=" ">
<polygon fill="white" stroke="#bfbfbf" points="78.5,-6 78.5,-25 127.5,-25 127.5,-6 78.5,-6"/>
<text text-anchor="middle" x="103" y="-13" font-family="Helvetica,sans-Serif" font-size="10.00">cstdlib</text>
</a>
</g>
</g>
<!-- Node7&#45;&gt;Node8 -->
<g id="edge7" class="edge">
<title>Node7&#45;&gt;Node8</title>
<path fill="none" stroke="midnightblue" d="M103,-67.48C103,-59.08 103,-45.98 103,-35.16"/>
<polygon fill="midnightblue" stroke="midnightblue" points="106.5,-35.01 103,-25.01 99.5,-35.01 106.5,-35.01"/>
</g>
<!-- Node9 -->
<g id="node9" class="node">
<title>Node9</title>
<g id="a_node9"><a xlink:title=" ">
<polygon fill="white" stroke="#bfbfbf" points="0,-6 0,-25 60,-25 60,-6 0,-6"/>
<text text-anchor="middle" x="30" y="-13" font-family="Helvetica,sans-Serif" font-size="10.00">iostream</text>
</a>
</g>
</g>
<!-- Node7&#45;&gt;Node9 -->
<g id="edge8" class="edge">
<title>Node7&#45;&gt;Node9</title>
<path fill="none" stroke="midnightblue" d="M92.54,-67.48C81.05,-58.11 62.37,-42.88 48.41,-31.51"/>
<polygon fill="midnightblue" stroke="midnightblue" points="50.4,-28.61 40.44,-25.01 45.98,-34.04 50.4,-28.61"/>
</g>
<!-- Node10&#45;&gt;Node6 -->
<g id="edge15" class="edge">
<title>Node10&#45;&gt;Node6</title>
<path fill="none" stroke="midnightblue" d="M620.39,-69.85C615.65,-68.77 610.68,-67.76 606,-67 426.74,-38 374.36,-78.19 199,-31 197.06,-30.48 195.1,-29.84 193.15,-29.13"/>
<polygon fill="midnightblue" stroke="midnightblue" points="194.26,-25.8 183.69,-25.13 191.53,-32.25 194.26,-25.8"/>
</g>
<!-- Node11 -->
<g id="node11" class="node">
<title>Node11</title>
<g id="a_node11"><a xlink:title=" ">
<polygon fill="white" stroke="#bfbfbf" points="780,-6 780,-25 844,-25 844,-6 780,-6"/>
<text text-anchor="middle" x="812" y="-13" font-family="Helvetica,sans-Serif" font-size="10.00">algorithm</text>
</a>
</g>
</g>
<!-- Node10&#45;&gt;Node11 -->
<g id="edge11" class="edge">
<title>Node10&#45;&gt;Node11</title>
<path fill="none" stroke="midnightblue" d="M667.71,-67.6C696.57,-57.38 745.48,-40.06 778.25,-28.45"/>
<polygon fill="midnightblue" stroke="midnightblue" points="779.6,-31.69 787.86,-25.05 777.27,-25.09 779.6,-31.69"/>
</g>
<!-- Node12 -->
<g id="node12" class="node">
<title>Node12</title>
<g id="a_node12"><a xlink:title=" ">
<polygon fill="white" stroke="#bfbfbf" points="862.5,-6 862.5,-25 911.5,-25 911.5,-6 862.5,-6"/>
<text text-anchor="middle" x="887" y="-13" font-family="Helvetica,sans-Serif" font-size="10.00">cctype</text>
</a>
</g>
</g>
<!-- Node10&#45;&gt;Node12 -->
<g id="edge12" class="edge">
<title>Node10&#45;&gt;Node12</title>
<path fill="none" stroke="midnightblue" d="M667.7,-70.29C672.43,-69.18 677.37,-68.04 682,-67 757.79,-50.05 778.93,-54.35 853,-31 854.93,-30.39 856.9,-29.71 858.87,-28.99"/>
<polygon fill="midnightblue" stroke="midnightblue" points="860.54,-32.09 868.54,-25.15 857.96,-25.59 860.54,-32.09"/>
</g>
<!-- Node13 -->
<g id="node13" class="node">
<title>Node13</title>
<g id="a_node13"><a xlink:title=" ">
<polygon fill="white" stroke="#bfbfbf" points="930,-6 930,-25 984,-25 984,-6 930,-6"/>
<text text-anchor="middle" x="957" y="-13" font-family="Helvetica,sans-Serif" font-size="10.00">random</text>
</a>
</g>
</g>
<!-- Node10&#45;&gt;Node13 -->
<g id="edge13" class="edge">
<title>Node10&#45;&gt;Node13</title>
<path fill="none" stroke="midnightblue" d="M667.65,-70.08C672.39,-68.98 677.34,-67.9 682,-67 787.47,-46.6 817.36,-59.26 921,-31 923.5,-30.32 926.07,-29.51 928.62,-28.64"/>
<polygon fill="midnightblue" stroke="midnightblue" points="930.1,-31.82 938.23,-25.02 927.64,-25.27 930.1,-31.82"/>
</g>
<!-- Node14 -->
<g id="node14" class="node">
<title>Node14</title>
<g id="a_node14"><a xlink:title=" ">
<polygon fill="white" stroke="#bfbfbf" points="208,-6 208,-25 264,-25 264,-6 208,-6"/>
<text text-anchor="middle" x="236" y="-13" font-family="Helvetica,sans-Serif" font-size="10.00">sstream</text>
</a>
</g>
</g>
<!-- Node10&#45;&gt;Node14 -->
<g id="edge14" class="edge">
<title>Node10&#45;&gt;Node14</title>
<path fill="none" stroke="midnightblue" d="M620.38,-69.92C615.64,-68.84 610.68,-67.8 606,-67 459.29,-41.8 417.57,-66.47 273,-31 270.17,-30.31 267.27,-29.45 264.4,-28.5"/>
<polygon fill="midnightblue" stroke="midnightblue" points="265.48,-25.17 254.89,-25.02 263.08,-31.74 265.48,-25.17"/>
</g>
<!-- Node10&#45;&gt;Node15 -->
<g id="edge16" class="edge">
<title>Node10&#45;&gt;Node15</title>
<path fill="none" stroke="midnightblue" d="M667.63,-69.95C672.37,-68.87 677.33,-67.82 682,-67 819.05,-42.92 858.7,-67.39 993,-31 995.29,-30.38 997.63,-29.62 999.95,-28.79"/>
<polygon fill="midnightblue" stroke="midnightblue" points="1001.27,-32.03 1009.23,-25.03 998.64,-25.54 1001.27,-32.03"/>
</g>
<!-- Node16 -->
<g id="node16" class="node">
<title>Node16</title>
<g id="a_node16"><a xlink:href="__boost__config_8h.html" target="_top" xlink:title="Boost Configurations.">
<polygon fill="white" stroke="black" points="282,-6 282,-25 374,-25 374,-6 282,-6"/>
<text text-anchor="middle" x="328" y="-13" font-family="Helvetica,sans-Serif" font-size="10.00">_boost_config.h</text>
</a>
</g>
</g>
<!-- Node10&#45;&gt;Node16 -->
<g id="edge17" class="edge">
<title>Node10&#45;&gt;Node16</title>
<path fill="none" stroke="midnightblue" d="M620.34,-70.12C615.6,-69.02 610.65,-67.93 606,-67 507.53,-47.42 481.21,-51.82 383,-31 378.18,-29.98 373.15,-28.8 368.18,-27.58"/>
<polygon fill="midnightblue" stroke="midnightblue" points="368.69,-24.09 358.13,-25.01 366.96,-30.88 368.69,-24.09"/>
</g>
<!-- Node17 -->
<g id="node17" class="node">
<title>Node17</title>
<g id="a_node17"><a xlink:title=" ">
<polygon fill="white" stroke="#bfbfbf" points="392.5,-0.5 392.5,-30.5 533.5,-30.5 533.5,-0.5 392.5,-0.5"/>
<text text-anchor="start" x="400.5" y="-18.5" font-family="Helvetica,sans-Serif" font-size="10.00">boost/dll/runtime_symbol</text>
<text text-anchor="middle" x="463" y="-7.5" font-family="Helvetica,sans-Serif" font-size="10.00">_info.hpp</text>
</a>
</g>
</g>
<!-- Node10&#45;&gt;Node17 -->
<g id="edge18" class="edge">
<title>Node10&#45;&gt;Node17</title>
<path fill="none" stroke="midnightblue" d="M620.34,-68.22C593.8,-59.5 549.93,-45.08 515.25,-33.68"/>
<polygon fill="midnightblue" stroke="midnightblue" points="516.33,-30.35 505.73,-30.55 514.14,-37 516.33,-30.35"/>
</g>
<!-- Node18 -->
<g id="node18" class="node">
<title>Node18</title>
<g id="a_node18"><a xlink:title=" ">
<polygon fill="white" stroke="#bfbfbf" points="552,-6 552,-25 598,-25 598,-6 552,-6"/>
<text text-anchor="middle" x="575" y="-13" font-family="Helvetica,sans-Serif" font-size="10.00">pwd.h</text>
</a>
</g>
</g>
<!-- Node10&#45;&gt;Node18 -->
<g id="edge19" class="edge">
<title>Node10&#45;&gt;Node18</title>
<path fill="none" stroke="midnightblue" d="M634.11,-67.48C623.35,-58.2 605.93,-43.17 592.78,-31.83"/>
<polygon fill="midnightblue" stroke="midnightblue" points="594.73,-28.89 584.87,-25.01 590.16,-34.19 594.73,-28.89"/>
</g>
<!-- Node19 -->
<g id="node19" class="node">
<title>Node19</title>
<g id="a_node19"><a xlink:title=" ">
<polygon fill="white" stroke="#bfbfbf" points="616,-6 616,-25 688,-25 688,-6 616,-6"/>
<text text-anchor="middle" x="652" y="-13" font-family="Helvetica,sans-Serif" font-size="10.00">sys/types.h</text>
</a>
</g>
</g>
<!-- Node10&#45;&gt;Node19 -->
<g id="edge20" class="edge">
<title>Node10&#45;&gt;Node19</title>
<path fill="none" stroke="midnightblue" d="M645.15,-67.48C646.27,-59.08 648.04,-45.98 649.49,-35.16"/>
<polygon fill="midnightblue" stroke="midnightblue" points="652.99,-35.39 650.86,-25.01 646.05,-34.45 652.99,-35.39"/>
</g>
<!-- Node20 -->
<g id="node20" class="node">
<title>Node20</title>
<g id="a_node20"><a xlink:title=" ">
<polygon fill="white" stroke="#bfbfbf" points="706,-6 706,-25 762,-25 762,-6 706,-6"/>
<text text-anchor="middle" x="734" y="-13" font-family="Helvetica,sans-Serif" font-size="10.00">unistd.h</text>
</a>
</g>
</g>
<!-- Node10&#45;&gt;Node20 -->
<g id="edge21" class="edge">
<title>Node10&#45;&gt;Node20</title>
<path fill="none" stroke="midnightblue" d="M656.89,-67.48C671.46,-57.84 695.4,-42.02 712.75,-30.55"/>
<polygon fill="midnightblue" stroke="midnightblue" points="714.72,-33.44 721.13,-25.01 710.86,-27.6 714.72,-33.44"/>
</g>
</g>
</svg>
