<?xml version="1.0" encoding="UTF-8" standalone="no"?>
<!DOCTYPE svg PUBLIC "-//W3C//DTD SVG 1.1//EN"
 "http://www.w3.org/Graphics/SVG/1.1/DTD/svg11.dtd">
<!-- Generated by graphviz version 2.43.0 (0)
 -->
<!-- Title: src/export/macro.cpp Pages: 1 -->
<!--zoomable 319 -->
<svg id="main" version="1.1" xmlns="http://www.w3.org/2000/svg" xmlns:xlink="http://www.w3.org/1999/xlink" xml:space="preserve" onload="init(evt)">
<style type="text/css"><![CDATA[
.edge:hover path { stroke: red; }
.edge:hover polygon { stroke: red; fill: red; }
]]></style>
<script type="text/javascript"><![CDATA[
var edges = document.getElementsByTagName('g');
if (edges && edges.length) {
  for (var i=0;i<edges.length;i++) {
    if (edges[i].id.substr(0,4)=='edge') {
      edges[i].setAttribute('class','edge');
    }
  }
}
]]></script>
        <defs>
                <circle id="rim" cx="0" cy="0" r="7"/>
                <circle id="rim2" cx="0" cy="0" r="3.5"/>
                <g id="zoomPlus">
                        <use xlink:href="#rim" fill="#404040">
                                <set attributeName="fill" to="#808080" begin="zoomplus.mouseover" end="zoomplus.mouseout"/>
                        </use>
                        <path d="M-4,0h8M0,-4v8" fill="none" stroke="white" stroke-width="1.5" pointer-events="none"/>
                </g>
                <g id="zoomMin">
                        <use xlink:href="#rim" fill="#404040">
                                <set attributeName="fill" to="#808080" begin="zoomminus.mouseover" end="zoomminus.mouseout"/>
                        </use>
                        <path d="M-4,0h8" fill="none" stroke="white" stroke-width="1.5" pointer-events="none"/>
                </g>
                <g id="dirArrow">
                        <path fill="none" stroke="white" stroke-width="1.5" d="M0,-3.0v7 M-2.5,-0.5L0,-3.0L2.5,-0.5"/>
                </g>
               <g id="resetDef">
                       <use xlink:href="#rim2" fill="#404040">
                               <set attributeName="fill" to="#808080" begin="reset.mouseover" end="reset.mouseout"/>
                       </use>
               </g>
        </defs>

<script type="text/javascript">
var viewWidth = 869;
var viewHeight = 319;
var sectionId = 'dynsection-0';
</script>
<script xlink:href="svgpan.js"/>
<svg id="graph" class="graph">
<g id="viewport">
<title>src/export/macro.cpp</title>
<polygon fill="white" stroke="transparent" points="-4,4 -4,-315 864.5,-315 864.5,4 -4,4"/>
<!-- Node1 -->
<g id="node1" class="node">
<title>Node1</title>
<g id="a_node1"><a xlink:title="Implementation of Macro class.">
<polygon fill="#bfbfbf" stroke="black" points="665,-291.5 665,-310.5 784,-310.5 784,-291.5 665,-291.5"/>
<text text-anchor="middle" x="724.5" y="-298.5" font-family="Helvetica,sans-Serif" font-size="10.00">src/export/macro.cpp</text>
</a>
</g>
</g>
<!-- Node2 -->
<g id="node2" class="node">
<title>Node2</title>
<g id="a_node2"><a xlink:href="macro_8h.html" target="_top" xlink:title="ALG Macro.">
<polygon fill="white" stroke="black" points="540,-235.5 540,-254.5 631,-254.5 631,-235.5 540,-235.5"/>
<text text-anchor="middle" x="585.5" y="-242.5" font-family="Helvetica,sans-Serif" font-size="10.00">export/macro.h</text>
</a>
</g>
</g>
<!-- Node1&#45;&gt;Node2 -->
<g id="edge1" class="edge">
<title>Node1&#45;&gt;Node2</title>
<path fill="none" stroke="midnightblue" d="M702.48,-291.44C679.4,-282.48 642.94,-268.31 616.86,-258.18"/>
<polygon fill="midnightblue" stroke="midnightblue" points="618.01,-254.88 607.42,-254.52 615.48,-261.4 618.01,-254.88"/>
</g>
<!-- Node9 -->
<g id="node9" class="node">
<title>Node9</title>
<g id="a_node9"><a xlink:title=" ">
<polygon fill="white" stroke="#bfbfbf" points="800.5,-6 800.5,-25 860.5,-25 860.5,-6 800.5,-6"/>
<text text-anchor="middle" x="830.5" y="-13" font-family="Helvetica,sans-Serif" font-size="10.00">iostream</text>
</a>
</g>
</g>
<!-- Node1&#45;&gt;Node9 -->
<g id="edge29" class="edge">
<title>Node1&#45;&gt;Node9</title>
<path fill="none" stroke="midnightblue" d="M742.96,-291.39C773.33,-275.81 830.5,-239.86 830.5,-190 830.5,-190 830.5,-190 830.5,-132 830.5,-97.86 830.5,-58.05 830.5,-35.21"/>
<polygon fill="midnightblue" stroke="midnightblue" points="834,-35.19 830.5,-25.19 827,-35.19 834,-35.19"/>
</g>
<!-- Node3 -->
<g id="node3" class="node">
<title>Node3</title>
<g id="a_node3"><a xlink:href="log__global_8h.html" target="_top" xlink:title="Global Access of Log.">
<polygon fill="white" stroke="black" points="481.5,-179.5 481.5,-198.5 557.5,-198.5 557.5,-179.5 481.5,-179.5"/>
<text text-anchor="middle" x="519.5" y="-186.5" font-family="Helvetica,sans-Serif" font-size="10.00">log_global.h</text>
</a>
</g>
</g>
<!-- Node2&#45;&gt;Node3 -->
<g id="edge2" class="edge">
<title>Node2&#45;&gt;Node3</title>
<path fill="none" stroke="midnightblue" d="M574.9,-235.32C565.04,-227.26 550.15,-215.08 538.28,-205.37"/>
<polygon fill="midnightblue" stroke="midnightblue" points="540.25,-202.46 530.3,-198.83 535.82,-207.88 540.25,-202.46"/>
</g>
<!-- Node5 -->
<g id="node5" class="node">
<title>Node5</title>
<g id="a_node5"><a xlink:href="meta_8h.html" target="_top" xlink:title="mmCEsim meta data">
<polygon fill="white" stroke="black" points="684,-67.5 684,-86.5 735,-86.5 735,-67.5 684,-67.5"/>
<text text-anchor="middle" x="709.5" y="-74.5" font-family="Helvetica,sans-Serif" font-size="10.00">meta.h</text>
</a>
</g>
</g>
<!-- Node2&#45;&gt;Node5 -->
<g id="edge22" class="edge">
<title>Node2&#45;&gt;Node5</title>
<path fill="none" stroke="midnightblue" d="M586.57,-235.43C588.49,-222.43 593.41,-197.3 604.5,-179 626.46,-142.74 664.67,-110.67 688.44,-92.84"/>
<polygon fill="midnightblue" stroke="midnightblue" points="690.78,-95.47 696.78,-86.73 686.64,-89.82 690.78,-95.47"/>
</g>
<!-- Node6 -->
<g id="node6" class="node">
<title>Node6</title>
<g id="a_node6"><a xlink:title=" ">
<polygon fill="white" stroke="#bfbfbf" points="596.5,-6 596.5,-25 640.5,-25 640.5,-6 596.5,-6"/>
<text text-anchor="middle" x="618.5" y="-13" font-family="Helvetica,sans-Serif" font-size="10.00">string</text>
</a>
</g>
</g>
<!-- Node2&#45;&gt;Node6 -->
<g id="edge26" class="edge">
<title>Node2&#45;&gt;Node6</title>
<path fill="none" stroke="midnightblue" d="M549.67,-235.48C525.98,-228.54 495.22,-216.91 472.5,-199 418.81,-156.66 350.77,-120.38 393.5,-67 405.57,-51.93 527.22,-30.89 586.44,-21.44"/>
<polygon fill="midnightblue" stroke="midnightblue" points="587.07,-24.89 596.4,-19.87 585.98,-17.97 587.07,-24.89"/>
</g>
<!-- Node10 -->
<g id="node10" class="node">
<title>Node10</title>
<g id="a_node10"><a xlink:href="utils_8h.html" target="_top" xlink:title="Utilities.">
<polygon fill="white" stroke="black" points="261,-67.5 261,-86.5 308,-86.5 308,-67.5 261,-67.5"/>
<text text-anchor="middle" x="284.5" y="-74.5" font-family="Helvetica,sans-Serif" font-size="10.00">utils.h</text>
</a>
</g>
</g>
<!-- Node2&#45;&gt;Node10 -->
<g id="edge23" class="edge">
<title>Node2&#45;&gt;Node10</title>
<path fill="none" stroke="midnightblue" d="M539.96,-241.83C473.45,-237.75 354.2,-226.69 322.5,-199 292.61,-172.89 285.97,-123.56 284.66,-96.65"/>
<polygon fill="midnightblue" stroke="midnightblue" points="288.16,-96.52 284.37,-86.63 281.16,-96.73 288.16,-96.52"/>
</g>
<!-- Node15 -->
<g id="node15" class="node">
<title>Node15</title>
<g id="a_node15"><a xlink:title=" ">
<polygon fill="white" stroke="#bfbfbf" points="456,-6 456,-25 503,-25 503,-6 456,-6"/>
<text text-anchor="middle" x="479.5" y="-13" font-family="Helvetica,sans-Serif" font-size="10.00">vector</text>
</a>
</g>
</g>
<!-- Node2&#45;&gt;Node15 -->
<g id="edge28" class="edge">
<title>Node2&#45;&gt;Node15</title>
<path fill="none" stroke="midnightblue" d="M539.92,-237.38C489.55,-227.21 411.81,-202.26 383.5,-143 368.92,-112.48 361.77,-95.81 379.5,-67 383.63,-60.29 422.53,-41.87 450.58,-29.23"/>
<polygon fill="midnightblue" stroke="midnightblue" points="452.27,-32.31 459.97,-25.03 449.41,-25.92 452.27,-32.31"/>
</g>
<!-- Node21 -->
<g id="node21" class="node">
<title>Node21</title>
<g id="a_node21"><a xlink:title=" ">
<polygon fill="white" stroke="#bfbfbf" points="613.5,-179.5 613.5,-198.5 651.5,-198.5 651.5,-179.5 613.5,-179.5"/>
<text text-anchor="middle" x="632.5" y="-186.5" font-family="Helvetica,sans-Serif" font-size="10.00">map</text>
</a>
</g>
</g>
<!-- Node2&#45;&gt;Node21 -->
<g id="edge24" class="edge">
<title>Node2&#45;&gt;Node21</title>
<path fill="none" stroke="midnightblue" d="M593.26,-235.08C600.04,-227.3 610.04,-215.8 618.26,-206.37"/>
<polygon fill="midnightblue" stroke="midnightblue" points="620.96,-208.59 624.88,-198.75 615.68,-204 620.96,-208.59"/>
</g>
<!-- Node22 -->
<g id="node22" class="node">
<title>Node22</title>
<g id="a_node22"><a xlink:title=" ">
<polygon fill="white" stroke="#bfbfbf" points="669.5,-179.5 669.5,-198.5 713.5,-198.5 713.5,-179.5 669.5,-179.5"/>
<text text-anchor="middle" x="691.5" y="-186.5" font-family="Helvetica,sans-Serif" font-size="10.00">regex</text>
</a>
</g>
</g>
<!-- Node2&#45;&gt;Node22 -->
<g id="edge25" class="edge">
<title>Node2&#45;&gt;Node22</title>
<path fill="none" stroke="midnightblue" d="M602.53,-235.32C619.53,-226.66 645.88,-213.24 665.49,-203.25"/>
<polygon fill="midnightblue" stroke="midnightblue" points="667.19,-206.31 674.51,-198.65 664.01,-200.08 667.19,-206.31"/>
</g>
<!-- Node23 -->
<g id="node23" class="node">
<title>Node23</title>
<g id="a_node23"><a xlink:title=" ">
<polygon fill="white" stroke="#bfbfbf" points="732,-179.5 732,-198.5 777,-198.5 777,-179.5 732,-179.5"/>
<text text-anchor="middle" x="754.5" y="-186.5" font-family="Helvetica,sans-Serif" font-size="10.00">utility</text>
</a>
</g>
</g>
<!-- Node2&#45;&gt;Node23 -->
<g id="edge27" class="edge">
<title>Node2&#45;&gt;Node23</title>
<path fill="none" stroke="midnightblue" d="M612.28,-235.44C642.09,-225.92 690.27,-210.52 722.16,-200.33"/>
<polygon fill="midnightblue" stroke="midnightblue" points="723.44,-203.6 731.9,-197.22 721.31,-196.93 723.44,-203.6"/>
</g>
<!-- Node4 -->
<g id="node4" class="node">
<title>Node4</title>
<g id="a_node4"><a xlink:href="include_2log_8h.html" target="_top" xlink:title="Log Utilities.">
<polygon fill="white" stroke="black" points="508,-123.5 508,-142.5 549,-142.5 549,-123.5 508,-123.5"/>
<text text-anchor="middle" x="528.5" y="-130.5" font-family="Helvetica,sans-Serif" font-size="10.00">log.h</text>
</a>
</g>
</g>
<!-- Node3&#45;&gt;Node4 -->
<g id="edge3" class="edge">
<title>Node3&#45;&gt;Node4</title>
<path fill="none" stroke="midnightblue" d="M520.99,-179.08C522.18,-171.93 523.89,-161.64 525.38,-152.69"/>
<polygon fill="midnightblue" stroke="midnightblue" points="528.85,-153.19 527.04,-142.75 521.95,-152.04 528.85,-153.19"/>
</g>
<!-- Node4&#45;&gt;Node5 -->
<g id="edge4" class="edge">
<title>Node4&#45;&gt;Node5</title>
<path fill="none" stroke="midnightblue" d="M549.26,-125.81C579.65,-116.74 636.65,-99.73 673.83,-88.64"/>
<polygon fill="midnightblue" stroke="midnightblue" points="675.17,-91.89 683.75,-85.68 673.17,-85.19 675.17,-91.89"/>
</g>
<!-- Node7 -->
<g id="node7" class="node">
<title>Node7</title>
<g id="a_node7"><a xlink:href="term_8h.html" target="_top" xlink:title="Terminal Color and Style Control.">
<polygon fill="white" stroke="black" points="753,-67.5 753,-86.5 802,-86.5 802,-67.5 753,-67.5"/>
<text text-anchor="middle" x="777.5" y="-74.5" font-family="Helvetica,sans-Serif" font-size="10.00">term.h</text>
</a>
</g>
</g>
<!-- Node4&#45;&gt;Node7 -->
<g id="edge6" class="edge">
<title>Node4&#45;&gt;Node7</title>
<path fill="none" stroke="midnightblue" d="M549.14,-128.13C586.11,-121.12 666.24,-105.49 742.87,-87.29"/>
<polygon fill="midnightblue" stroke="midnightblue" points="743.77,-90.68 752.68,-84.94 742.14,-83.87 743.77,-90.68"/>
</g>
<!-- Node4&#45;&gt;Node10 -->
<g id="edge10" class="edge">
<title>Node4&#45;&gt;Node10</title>
<path fill="none" stroke="midnightblue" d="M507.7,-127.4C465.43,-118.04 369.2,-96.75 318,-85.41"/>
<polygon fill="midnightblue" stroke="midnightblue" points="318.61,-81.96 308.09,-83.22 317.1,-88.8 318.61,-81.96"/>
</g>
<!-- Node17 -->
<g id="node17" class="node">
<title>Node17</title>
<g id="a_node17"><a xlink:title=" ">
<polygon fill="white" stroke="#bfbfbf" points="548.5,-67.5 548.5,-86.5 592.5,-86.5 592.5,-67.5 548.5,-67.5"/>
<text text-anchor="middle" x="570.5" y="-74.5" font-family="Helvetica,sans-Serif" font-size="10.00">ctime</text>
</a>
</g>
</g>
<!-- Node4&#45;&gt;Node17 -->
<g id="edge18" class="edge">
<title>Node4&#45;&gt;Node17</title>
<path fill="none" stroke="midnightblue" d="M535.44,-123.08C541.43,-115.38 550.25,-104.03 557.55,-94.65"/>
<polygon fill="midnightblue" stroke="midnightblue" points="560.32,-96.79 563.69,-86.75 554.79,-92.5 560.32,-96.79"/>
</g>
<!-- Node18 -->
<g id="node18" class="node">
<title>Node18</title>
<g id="a_node18"><a xlink:title=" ">
<polygon fill="white" stroke="#bfbfbf" points="611,-67.5 611,-86.5 666,-86.5 666,-67.5 611,-67.5"/>
<text text-anchor="middle" x="638.5" y="-74.5" font-family="Helvetica,sans-Serif" font-size="10.00">fstream</text>
</a>
</g>
</g>
<!-- Node4&#45;&gt;Node18 -->
<g id="edge19" class="edge">
<title>Node4&#45;&gt;Node18</title>
<path fill="none" stroke="midnightblue" d="M546.17,-123.32C563.89,-114.62 591.4,-101.12 611.79,-91.11"/>
<polygon fill="midnightblue" stroke="midnightblue" points="613.44,-94.2 620.87,-86.65 610.35,-87.92 613.44,-94.2"/>
</g>
<!-- Node19 -->
<g id="node19" class="node">
<title>Node19</title>
<g id="a_node19"><a xlink:title=" ">
<polygon fill="white" stroke="#bfbfbf" points="402.5,-67.5 402.5,-86.5 458.5,-86.5 458.5,-67.5 402.5,-67.5"/>
<text text-anchor="middle" x="430.5" y="-74.5" font-family="Helvetica,sans-Serif" font-size="10.00">iomanip</text>
</a>
</g>
</g>
<!-- Node4&#45;&gt;Node19 -->
<g id="edge20" class="edge">
<title>Node4&#45;&gt;Node19</title>
<path fill="none" stroke="midnightblue" d="M512.75,-123.32C497.18,-114.74 473.12,-101.49 455.04,-91.52"/>
<polygon fill="midnightblue" stroke="midnightblue" points="456.65,-88.42 446.21,-86.65 453.28,-94.55 456.65,-88.42"/>
</g>
<!-- Node20 -->
<g id="node20" class="node">
<title>Node20</title>
<g id="a_node20"><a xlink:title=" ">
<polygon fill="white" stroke="#bfbfbf" points="477,-67.5 477,-86.5 530,-86.5 530,-67.5 477,-67.5"/>
<text text-anchor="middle" x="503.5" y="-74.5" font-family="Helvetica,sans-Serif" font-size="10.00">spy.hpp</text>
</a>
</g>
</g>
<!-- Node4&#45;&gt;Node20 -->
<g id="edge21" class="edge">
<title>Node4&#45;&gt;Node20</title>
<path fill="none" stroke="midnightblue" d="M524.37,-123.08C520.99,-115.77 516.08,-105.18 511.88,-96.1"/>
<polygon fill="midnightblue" stroke="midnightblue" points="514.93,-94.36 507.55,-86.75 508.58,-97.3 514.93,-94.36"/>
</g>
<!-- Node5&#45;&gt;Node6 -->
<g id="edge5" class="edge">
<title>Node5&#45;&gt;Node6</title>
<path fill="none" stroke="midnightblue" d="M696.46,-67.48C681.73,-57.84 657.53,-42.02 639.99,-30.55"/>
<polygon fill="midnightblue" stroke="midnightblue" points="641.8,-27.55 631.51,-25.01 637.97,-33.41 641.8,-27.55"/>
</g>
<!-- Node7&#45;&gt;Node6 -->
<g id="edge9" class="edge">
<title>Node7&#45;&gt;Node6</title>
<path fill="none" stroke="midnightblue" d="M754.72,-67.48C727.29,-57.21 681.07,-39.91 650.17,-28.35"/>
<polygon fill="midnightblue" stroke="midnightblue" points="651.32,-25.04 640.73,-24.82 648.86,-31.6 651.32,-25.04"/>
</g>
<!-- Node8 -->
<g id="node8" class="node">
<title>Node8</title>
<g id="a_node8"><a xlink:title=" ">
<polygon fill="white" stroke="#bfbfbf" points="733,-6 733,-25 782,-25 782,-6 733,-6"/>
<text text-anchor="middle" x="757.5" y="-13" font-family="Helvetica,sans-Serif" font-size="10.00">cstdlib</text>
</a>
</g>
</g>
<!-- Node7&#45;&gt;Node8 -->
<g id="edge7" class="edge">
<title>Node7&#45;&gt;Node8</title>
<path fill="none" stroke="midnightblue" d="M774.63,-67.48C771.78,-58.99 767.32,-45.7 763.66,-34.82"/>
<polygon fill="midnightblue" stroke="midnightblue" points="766.86,-33.37 760.36,-25.01 760.23,-35.6 766.86,-33.37"/>
</g>
<!-- Node7&#45;&gt;Node9 -->
<g id="edge8" class="edge">
<title>Node7&#45;&gt;Node9</title>
<path fill="none" stroke="midnightblue" d="M785.09,-67.48C793.2,-58.37 806.23,-43.74 816.26,-32.48"/>
<polygon fill="midnightblue" stroke="midnightblue" points="818.88,-34.8 822.92,-25.01 813.66,-30.15 818.88,-34.8"/>
</g>
<!-- Node10&#45;&gt;Node6 -->
<g id="edge15" class="edge">
<title>Node10&#45;&gt;Node6</title>
<path fill="none" stroke="midnightblue" d="M308.25,-71.77C367.1,-61.28 519.72,-34.1 586.46,-22.21"/>
<polygon fill="midnightblue" stroke="midnightblue" points="587.18,-25.64 596.41,-20.44 585.95,-18.74 587.18,-25.64"/>
</g>
<!-- Node11 -->
<g id="node11" class="node">
<title>Node11</title>
<g id="a_node11"><a xlink:title=" ">
<polygon fill="white" stroke="#bfbfbf" points="373.5,-6 373.5,-25 437.5,-25 437.5,-6 373.5,-6"/>
<text text-anchor="middle" x="405.5" y="-13" font-family="Helvetica,sans-Serif" font-size="10.00">algorithm</text>
</a>
</g>
</g>
<!-- Node10&#45;&gt;Node11 -->
<g id="edge11" class="edge">
<title>Node10&#45;&gt;Node11</title>
<path fill="none" stroke="midnightblue" d="M301.84,-67.48C322.05,-57.53 355.69,-40.99 379.14,-29.46"/>
<polygon fill="midnightblue" stroke="midnightblue" points="380.77,-32.56 388.2,-25.01 377.68,-26.28 380.77,-32.56"/>
</g>
<!-- Node12 -->
<g id="node12" class="node">
<title>Node12</title>
<g id="a_node12"><a xlink:title=" ">
<polygon fill="white" stroke="#bfbfbf" points="0,-6 0,-25 49,-25 49,-6 0,-6"/>
<text text-anchor="middle" x="24.5" y="-13" font-family="Helvetica,sans-Serif" font-size="10.00">cctype</text>
</a>
</g>
</g>
<!-- Node10&#45;&gt;Node12 -->
<g id="edge12" class="edge">
<title>Node10&#45;&gt;Node12</title>
<path fill="none" stroke="midnightblue" d="M260.68,-72.91C219.03,-67.14 130.55,-53.27 58.5,-31 56.36,-30.34 54.17,-29.59 51.98,-28.78"/>
<polygon fill="midnightblue" stroke="midnightblue" points="53.18,-25.49 42.59,-25.03 50.58,-31.99 53.18,-25.49"/>
</g>
<!-- Node13 -->
<g id="node13" class="node">
<title>Node13</title>
<g id="a_node13"><a xlink:title=" ">
<polygon fill="white" stroke="#bfbfbf" points="67.5,-6 67.5,-25 121.5,-25 121.5,-6 67.5,-6"/>
<text text-anchor="middle" x="94.5" y="-13" font-family="Helvetica,sans-Serif" font-size="10.00">random</text>
</a>
</g>
</g>
<!-- Node10&#45;&gt;Node13 -->
<g id="edge13" class="edge">
<title>Node10&#45;&gt;Node13</title>
<path fill="none" stroke="midnightblue" d="M260.79,-69.85C230.35,-61.78 176.03,-46.78 130.5,-31 128.59,-30.34 126.63,-29.63 124.67,-28.9"/>
<polygon fill="midnightblue" stroke="midnightblue" points="125.52,-25.48 114.93,-25.13 122.99,-32.01 125.52,-25.48"/>
</g>
<!-- Node14 -->
<g id="node14" class="node">
<title>Node14</title>
<g id="a_node14"><a xlink:title=" ">
<polygon fill="white" stroke="#bfbfbf" points="139.5,-6 139.5,-25 195.5,-25 195.5,-6 139.5,-6"/>
<text text-anchor="middle" x="167.5" y="-13" font-family="Helvetica,sans-Serif" font-size="10.00">sstream</text>
</a>
</g>
</g>
<!-- Node10&#45;&gt;Node14 -->
<g id="edge14" class="edge">
<title>Node10&#45;&gt;Node14</title>
<path fill="none" stroke="midnightblue" d="M267.74,-67.48C248.28,-57.58 215.95,-41.14 193.29,-29.62"/>
<polygon fill="midnightblue" stroke="midnightblue" points="194.73,-26.42 184.23,-25.01 191.56,-32.66 194.73,-26.42"/>
</g>
<!-- Node10&#45;&gt;Node15 -->
<g id="edge16" class="edge">
<title>Node10&#45;&gt;Node15</title>
<path fill="none" stroke="midnightblue" d="M308.17,-69.87C346.6,-59.85 420.86,-40.14 446.5,-31 448.16,-30.41 449.86,-29.77 451.56,-29.1"/>
<polygon fill="midnightblue" stroke="midnightblue" points="453.3,-32.17 461.19,-25.1 450.61,-25.71 453.3,-32.17"/>
</g>
<!-- Node16 -->
<g id="node16" class="node">
<title>Node16</title>
<g id="a_node16"><a xlink:title=" ">
<polygon fill="white" stroke="#bfbfbf" points="214,-0.5 214,-30.5 355,-30.5 355,-0.5 214,-0.5"/>
<text text-anchor="start" x="222" y="-18.5" font-family="Helvetica,sans-Serif" font-size="10.00">boost/dll/runtime_symbol</text>
<text text-anchor="middle" x="284.5" y="-7.5" font-family="Helvetica,sans-Serif" font-size="10.00">_info.hpp</text>
</a>
</g>
</g>
<!-- Node10&#45;&gt;Node16 -->
<g id="edge17" class="edge">
<title>Node10&#45;&gt;Node16</title>
<path fill="none" stroke="midnightblue" d="M284.5,-67.48C284.5,-60.47 284.5,-50.19 284.5,-40.7"/>
<polygon fill="midnightblue" stroke="midnightblue" points="288,-40.52 284.5,-30.52 281,-40.52 288,-40.52"/>
</g>
</g>
</svg>
        <g id="navigator" transform="translate(0 0)" fill="#404254">
                <rect fill="#f2f5e9" fill-opacity="0.5" stroke="#606060" stroke-width=".5" x="0" y="0" width="60" height="60"/>
                <use id="zoomplus" xlink:href="#zoomPlus" x="17" y="9" onmousedown="handleZoom(evt,'in')"/>
                <use id="zoomminus" xlink:href="#zoomMin" x="42" y="9" onmousedown="handleZoom(evt,'out')"/>
                <use id="reset" xlink:href="#resetDef" x="30" y="36" onmousedown="handleReset()"/>
                <g id="arrowUp" xlink:href="#dirArrow" transform="translate(30 24)" onmousedown="handlePan(0,-1)">
                  <use xlink:href="#rim" fill="#404040">
                        <set attributeName="fill" to="#808080" begin="arrowUp.mouseover" end="arrowUp.mouseout"/>
                  </use>
                  <path fill="none" stroke="white" stroke-width="1.5" d="M0,-3.0v7 M-2.5,-0.5L0,-3.0L2.5,-0.5"/>
                </g>
                <g id="arrowRight" xlink:href="#dirArrow" transform="rotate(90) translate(36 -43)" onmousedown="handlePan(1,0)">
                  <use xlink:href="#rim" fill="#404040">
                        <set attributeName="fill" to="#808080" begin="arrowRight.mouseover" end="arrowRight.mouseout"/>
                  </use>
                  <path fill="none" stroke="white" stroke-width="1.5" d="M0,-3.0v7 M-2.5,-0.5L0,-3.0L2.5,-0.5"/>
                </g>
                <g id="arrowDown" xlink:href="#dirArrow" transform="rotate(180) translate(-30 -48)" onmousedown="handlePan(0,1)">
                  <use xlink:href="#rim" fill="#404040">
                        <set attributeName="fill" to="#808080" begin="arrowDown.mouseover" end="arrowDown.mouseout"/>
                  </use>
                  <path fill="none" stroke="white" stroke-width="1.5" d="M0,-3.0v7 M-2.5,-0.5L0,-3.0L2.5,-0.5"/>
                </g>
                <g id="arrowLeft" xlink:href="#dirArrow" transform="rotate(270) translate(-36 17)" onmousedown="handlePan(-1,0)">
                  <use xlink:href="#rim" fill="#404040">
                        <set attributeName="fill" to="#808080" begin="arrowLeft.mouseover" end="arrowLeft.mouseout"/>
                  </use>
                  <path fill="none" stroke="white" stroke-width="1.5" d="M0,-3.0v7 M-2.5,-0.5L0,-3.0L2.5,-0.5"/>
                </g>
        </g>
        <svg viewBox="0 0 15 15" width="100%" height="30px" preserveAspectRatio="xMaxYMin meet">
         <g id="arrow_out" transform="scale(0.3 0.3)">
          <a xlink:href="macro_8cpp__incl_org.svg" target="_base">
           <rect id="button" ry="5" rx="5" y="6" x="6" height="38" width="38"
                fill="#f2f5e9" fill-opacity="0.5" stroke="#606060" stroke-width="1.0"/>
           <path id="arrow"
             d="M 11.500037,31.436501 C 11.940474,20.09759 22.043105,11.32322 32.158766,21.979434 L 37.068811,17.246167 C 37.068811,17.246167 37.088388,32 37.088388,32 L 22.160133,31.978069 C 22.160133,31.978069 26.997745,27.140456 26.997745,27.140456 C 18.528582,18.264221 13.291696,25.230495 11.500037,31.436501 z"
             style="fill:#404040;"/>
          </a>
         </g>
        </svg>
</svg>
