<?xml version="1.0" encoding="UTF-8" standalone="no"?>
<!DOCTYPE svg PUBLIC "-//W3C//DTD SVG 1.1//EN"
 "http://www.w3.org/Graphics/SVG/1.1/DTD/svg11.dtd">
<!-- Generated by graphviz version 2.43.0 (0)
 -->
<!-- Title: src/export/macro.cpp Pages: 1 -->
<!--zoomable 319 -->
<svg id="main" version="1.1" xmlns="http://www.w3.org/2000/svg" xmlns:xlink="http://www.w3.org/1999/xlink" xml:space="preserve" onload="init(evt)">
<style type="text/css"><![CDATA[
.edge:hover path { stroke: red; }
.edge:hover polygon { stroke: red; fill: red; }
]]></style>
<script type="text/javascript"><![CDATA[
var edges = document.getElementsByTagName('g');
if (edges && edges.length) {
  for (var i=0;i<edges.length;i++) {
    if (edges[i].id.substr(0,4)=='edge') {
      edges[i].setAttribute('class','edge');
    }
  }
}
]]></script>
        <defs>
                <circle id="rim" cx="0" cy="0" r="7"/>
                <circle id="rim2" cx="0" cy="0" r="3.5"/>
                <g id="zoomPlus">
                        <use xlink:href="#rim" fill="#404040">
                                <set attributeName="fill" to="#808080" begin="zoomplus.mouseover" end="zoomplus.mouseout"/>
                        </use>
                        <path d="M-4,0h8M0,-4v8" fill="none" stroke="white" stroke-width="1.5" pointer-events="none"/>
                </g>
                <g id="zoomMin">
                        <use xlink:href="#rim" fill="#404040">
                                <set attributeName="fill" to="#808080" begin="zoomminus.mouseover" end="zoomminus.mouseout"/>
                        </use>
                        <path d="M-4,0h8" fill="none" stroke="white" stroke-width="1.5" pointer-events="none"/>
                </g>
                <g id="dirArrow">
                        <path fill="none" stroke="white" stroke-width="1.5" d="M0,-3.0v7 M-2.5,-0.5L0,-3.0L2.5,-0.5"/>
                </g>
               <g id="resetDef">
                       <use xlink:href="#rim2" fill="#404040">
                               <set attributeName="fill" to="#808080" begin="reset.mouseover" end="reset.mouseout"/>
                       </use>
               </g>
        </defs>

<script type="text/javascript">
var viewWidth = 1156;
var viewHeight = 319;
var sectionId = 'dynsection-0';
</script>
<script xlink:href="svgpan.js"/>
<svg id="graph" class="graph">
<g id="viewport">
<title>src/export/macro.cpp</title>
<polygon fill="white" stroke="transparent" points="-4,4 -4,-315 1151.5,-315 1151.5,4 -4,4"/>
<!-- Node1 -->
<g id="node1" class="node">
<title>Node1</title>
<g id="a_node1"><a xlink:title="Implementation of Macro class.">
<polygon fill="#bfbfbf" stroke="black" points="167.5,-291.5 167.5,-310.5 286.5,-310.5 286.5,-291.5 167.5,-291.5"/>
<text text-anchor="middle" x="227" y="-298.5" font-family="Helvetica,sans-Serif" font-size="10.00">src/export/macro.cpp</text>
</a>
</g>
</g>
<!-- Node2 -->
<g id="node2" class="node">
<title>Node2</title>
<g id="a_node2"><a xlink:href="macro_8h.html" target="_top" xlink:title="ALG Macro.">
<polygon fill="white" stroke="black" points="450.5,-235.5 450.5,-254.5 541.5,-254.5 541.5,-235.5 450.5,-235.5"/>
<text text-anchor="middle" x="496" y="-242.5" font-family="Helvetica,sans-Serif" font-size="10.00">export/macro.h</text>
</a>
</g>
</g>
<!-- Node1&#45;&gt;Node2 -->
<g id="edge1" class="edge">
<title>Node1&#45;&gt;Node2</title>
<path fill="none" stroke="midnightblue" d="M269.62,-291.44C316.75,-281.98 392.69,-266.74 443.46,-256.55"/>
<polygon fill="midnightblue" stroke="midnightblue" points="444.46,-259.92 453.58,-254.52 443.08,-253.05 444.46,-259.92"/>
</g>
<!-- Node10 -->
<g id="node10" class="node">
<title>Node10</title>
<g id="a_node10"><a xlink:title=" ">
<polygon fill="white" stroke="#bfbfbf" points="49,-6 49,-25 109,-25 109,-6 49,-6"/>
<text text-anchor="middle" x="79" y="-13" font-family="Helvetica,sans-Serif" font-size="10.00">iostream</text>
</a>
</g>
</g>
<!-- Node1&#45;&gt;Node10 -->
<g id="edge35" class="edge">
<title>Node1&#45;&gt;Node10</title>
<path fill="none" stroke="midnightblue" d="M167.36,-296.3C100.1,-288.53 0,-264.45 0,-190 0,-190 0,-190 0,-132 0,-101.9 2.56,-92.21 19,-67 28.45,-52.5 43.32,-39.95 55.88,-30.98"/>
<polygon fill="midnightblue" stroke="midnightblue" points="58.22,-33.63 64.52,-25.11 54.28,-27.84 58.22,-33.63"/>
</g>
<!-- Node3 -->
<g id="node3" class="node">
<title>Node3</title>
<g id="a_node3"><a xlink:href="lang_8h.html" target="_top" xlink:title="Export Languages.">
<polygon fill="white" stroke="black" points="568.5,-179.5 568.5,-198.5 649.5,-198.5 649.5,-179.5 568.5,-179.5"/>
<text text-anchor="middle" x="609" y="-186.5" font-family="Helvetica,sans-Serif" font-size="10.00">export/lang.h</text>
</a>
</g>
</g>
<!-- Node2&#45;&gt;Node3 -->
<g id="edge2" class="edge">
<title>Node2&#45;&gt;Node3</title>
<path fill="none" stroke="midnightblue" d="M513.91,-235.44C532.25,-226.68 561.01,-212.94 582.09,-202.86"/>
<polygon fill="midnightblue" stroke="midnightblue" points="583.67,-205.99 591.18,-198.52 580.65,-199.67 583.67,-205.99"/>
</g>
<!-- Node4 -->
<g id="node4" class="node">
<title>Node4</title>
<g id="a_node4"><a xlink:href="log__global_8h.html" target="_top" xlink:title="Global Access of Log.">
<polygon fill="white" stroke="black" points="255,-179.5 255,-198.5 331,-198.5 331,-179.5 255,-179.5"/>
<text text-anchor="middle" x="293" y="-186.5" font-family="Helvetica,sans-Serif" font-size="10.00">log_global.h</text>
</a>
</g>
</g>
<!-- Node2&#45;&gt;Node4 -->
<g id="edge3" class="edge">
<title>Node2&#45;&gt;Node4</title>
<path fill="none" stroke="midnightblue" d="M463.83,-235.44C428.94,-226.16 373.11,-211.31 334.83,-201.13"/>
<polygon fill="midnightblue" stroke="midnightblue" points="335.58,-197.7 325.02,-198.52 333.78,-204.47 335.58,-197.7"/>
</g>
<!-- Node6 -->
<g id="node6" class="node">
<title>Node6</title>
<g id="a_node6"><a xlink:href="meta_8h.html" target="_top" xlink:title="mmCEsim meta data">
<polygon fill="white" stroke="black" points="463.5,-67.5 463.5,-86.5 514.5,-86.5 514.5,-67.5 463.5,-67.5"/>
<text text-anchor="middle" x="489" y="-74.5" font-family="Helvetica,sans-Serif" font-size="10.00">meta.h</text>
</a>
</g>
</g>
<!-- Node2&#45;&gt;Node6 -->
<g id="edge28" class="edge">
<title>Node2&#45;&gt;Node6</title>
<path fill="none" stroke="midnightblue" d="M450.43,-239.15C424.58,-233.8 394.23,-222.56 378,-199 348.22,-155.77 418.72,-112.12 460.64,-91.03"/>
<polygon fill="midnightblue" stroke="midnightblue" points="462.41,-94.06 469.86,-86.52 459.34,-87.77 462.41,-94.06"/>
</g>
<!-- Node7 -->
<g id="node7" class="node">
<title>Node7</title>
<g id="a_node7"><a xlink:title=" ">
<polygon fill="white" stroke="#bfbfbf" points="244,-6 244,-25 288,-25 288,-6 244,-6"/>
<text text-anchor="middle" x="266" y="-13" font-family="Helvetica,sans-Serif" font-size="10.00">string</text>
</a>
</g>
</g>
<!-- Node2&#45;&gt;Node7 -->
<g id="edge32" class="edge">
<title>Node2&#45;&gt;Node7</title>
<path fill="none" stroke="midnightblue" d="M541.91,-243.06C597.66,-239.84 681.6,-227.12 659,-179 625.86,-108.44 595.03,-99.14 524,-67 430.93,-24.89 394.67,-60.93 297,-31 295.13,-30.43 293.22,-29.76 291.32,-29.03"/>
<polygon fill="midnightblue" stroke="midnightblue" points="292.64,-25.79 282.07,-25.06 289.88,-32.22 292.64,-25.79"/>
</g>
<!-- Node11 -->
<g id="node11" class="node">
<title>Node11</title>
<g id="a_node11"><a xlink:href="utils_8h.html" target="_top" xlink:title="Utilities.">
<polygon fill="white" stroke="black" points="706.5,-67.5 706.5,-86.5 753.5,-86.5 753.5,-67.5 706.5,-67.5"/>
<text text-anchor="middle" x="730" y="-74.5" font-family="Helvetica,sans-Serif" font-size="10.00">utils.h</text>
</a>
</g>
</g>
<!-- Node2&#45;&gt;Node11 -->
<g id="edge29" class="edge">
<title>Node2&#45;&gt;Node11</title>
<path fill="none" stroke="midnightblue" d="M541.92,-238.76C592.78,-232.07 670.46,-218.91 692,-199 721.01,-172.18 728.02,-123.51 729.62,-96.8"/>
<polygon fill="midnightblue" stroke="midnightblue" points="733.13,-96.65 730.03,-86.52 726.14,-96.37 733.13,-96.65"/>
</g>
<!-- Node16 -->
<g id="node16" class="node">
<title>Node16</title>
<g id="a_node16"><a xlink:title=" ">
<polygon fill="white" stroke="#bfbfbf" points="1100.5,-6 1100.5,-25 1147.5,-25 1147.5,-6 1100.5,-6"/>
<text text-anchor="middle" x="1124" y="-13" font-family="Helvetica,sans-Serif" font-size="10.00">vector</text>
</a>
</g>
</g>
<!-- Node2&#45;&gt;Node16 -->
<g id="edge34" class="edge">
<title>Node2&#45;&gt;Node16</title>
<path fill="none" stroke="midnightblue" d="M541.61,-237.45C586.03,-230.39 655.13,-217.61 713,-199 864.68,-150.22 1035.72,-63.23 1098.86,-29.95"/>
<polygon fill="midnightblue" stroke="midnightblue" points="1100.85,-32.86 1108.05,-25.09 1097.57,-26.68 1100.85,-32.86"/>
</g>
<!-- Node27 -->
<g id="node27" class="node">
<title>Node27</title>
<g id="a_node27"><a xlink:title=" ">
<polygon fill="white" stroke="#bfbfbf" points="387,-179.5 387,-198.5 425,-198.5 425,-179.5 387,-179.5"/>
<text text-anchor="middle" x="406" y="-186.5" font-family="Helvetica,sans-Serif" font-size="10.00">map</text>
</a>
</g>
</g>
<!-- Node2&#45;&gt;Node27 -->
<g id="edge30" class="edge">
<title>Node2&#45;&gt;Node27</title>
<path fill="none" stroke="midnightblue" d="M481.54,-235.32C467.5,-226.9 445.95,-213.97 429.46,-204.07"/>
<polygon fill="midnightblue" stroke="midnightblue" points="430.8,-200.8 420.42,-198.65 427.2,-206.8 430.8,-200.8"/>
</g>
<!-- Node28 -->
<g id="node28" class="node">
<title>Node28</title>
<g id="a_node28"><a xlink:title=" ">
<polygon fill="white" stroke="#bfbfbf" points="443,-179.5 443,-198.5 487,-198.5 487,-179.5 443,-179.5"/>
<text text-anchor="middle" x="465" y="-186.5" font-family="Helvetica,sans-Serif" font-size="10.00">regex</text>
</a>
</g>
</g>
<!-- Node2&#45;&gt;Node28 -->
<g id="edge31" class="edge">
<title>Node2&#45;&gt;Node28</title>
<path fill="none" stroke="midnightblue" d="M490.88,-235.08C486.59,-227.61 480.34,-216.72 475.06,-207.52"/>
<polygon fill="midnightblue" stroke="midnightblue" points="478.04,-205.68 470.02,-198.75 471.97,-209.17 478.04,-205.68"/>
</g>
<!-- Node29 -->
<g id="node29" class="node">
<title>Node29</title>
<g id="a_node29"><a xlink:title=" ">
<polygon fill="white" stroke="#bfbfbf" points="505.5,-179.5 505.5,-198.5 550.5,-198.5 550.5,-179.5 505.5,-179.5"/>
<text text-anchor="middle" x="528" y="-186.5" font-family="Helvetica,sans-Serif" font-size="10.00">utility</text>
</a>
</g>
</g>
<!-- Node2&#45;&gt;Node29 -->
<g id="edge33" class="edge">
<title>Node2&#45;&gt;Node29</title>
<path fill="none" stroke="midnightblue" d="M501.28,-235.08C505.71,-227.61 512.16,-216.72 517.62,-207.52"/>
<polygon fill="midnightblue" stroke="midnightblue" points="520.73,-209.14 522.81,-198.75 514.71,-205.57 520.73,-209.14"/>
</g>
<!-- Node5 -->
<g id="node5" class="node">
<title>Node5</title>
<g id="a_node5"><a xlink:href="include_2log_8h.html" target="_top" xlink:title="Log Utilities.">
<polygon fill="white" stroke="black" points="272.5,-123.5 272.5,-142.5 313.5,-142.5 313.5,-123.5 272.5,-123.5"/>
<text text-anchor="middle" x="293" y="-130.5" font-family="Helvetica,sans-Serif" font-size="10.00">log.h</text>
</a>
</g>
</g>
<!-- Node4&#45;&gt;Node5 -->
<g id="edge4" class="edge">
<title>Node4&#45;&gt;Node5</title>
<path fill="none" stroke="midnightblue" d="M293,-179.08C293,-172.01 293,-161.86 293,-152.99"/>
<polygon fill="midnightblue" stroke="midnightblue" points="296.5,-152.75 293,-142.75 289.5,-152.75 296.5,-152.75"/>
</g>
<!-- Node5&#45;&gt;Node6 -->
<g id="edge5" class="edge">
<title>Node5&#45;&gt;Node6</title>
<path fill="none" stroke="midnightblue" d="M313.6,-126.32C346.86,-117.16 412.75,-99.01 453.63,-87.75"/>
<polygon fill="midnightblue" stroke="midnightblue" points="454.73,-91.07 463.44,-85.04 452.87,-84.32 454.73,-91.07"/>
</g>
<!-- Node8 -->
<g id="node8" class="node">
<title>Node8</title>
<g id="a_node8"><a xlink:href="term_8h.html" target="_top" xlink:title="Terminal Color and Style Control.">
<polygon fill="white" stroke="black" points="187.5,-67.5 187.5,-86.5 236.5,-86.5 236.5,-67.5 187.5,-67.5"/>
<text text-anchor="middle" x="212" y="-74.5" font-family="Helvetica,sans-Serif" font-size="10.00">term.h</text>
</a>
</g>
</g>
<!-- Node5&#45;&gt;Node8 -->
<g id="edge7" class="edge">
<title>Node5&#45;&gt;Node8</title>
<path fill="none" stroke="midnightblue" d="M279.99,-123.32C267.47,-114.98 248.32,-102.21 233.53,-92.35"/>
<polygon fill="midnightblue" stroke="midnightblue" points="235.24,-89.29 224.98,-86.65 231.36,-95.11 235.24,-89.29"/>
</g>
<!-- Node5&#45;&gt;Node11 -->
<g id="edge11" class="edge">
<title>Node5&#45;&gt;Node11</title>
<path fill="none" stroke="midnightblue" d="M313.78,-129.43C383.64,-120.8 610.4,-92.78 696.46,-82.14"/>
<polygon fill="midnightblue" stroke="midnightblue" points="696.97,-85.61 706.47,-80.91 696.12,-78.66 696.97,-85.61"/>
</g>
<!-- Node22 -->
<g id="node22" class="node">
<title>Node22</title>
<g id="a_node22"><a xlink:title=" ">
<polygon fill="white" stroke="#bfbfbf" points="401,-67.5 401,-86.5 445,-86.5 445,-67.5 401,-67.5"/>
<text text-anchor="middle" x="423" y="-74.5" font-family="Helvetica,sans-Serif" font-size="10.00">ctime</text>
</a>
</g>
</g>
<!-- Node5&#45;&gt;Node22 -->
<g id="edge23" class="edge">
<title>Node5&#45;&gt;Node22</title>
<path fill="none" stroke="midnightblue" d="M313.6,-123.44C334.99,-114.56 368.68,-100.56 393.02,-90.45"/>
<polygon fill="midnightblue" stroke="midnightblue" points="394.61,-93.58 402.5,-86.52 391.92,-87.12 394.61,-93.58"/>
</g>
<!-- Node23 -->
<g id="node23" class="node">
<title>Node23</title>
<g id="a_node23"><a xlink:title=" ">
<polygon fill="white" stroke="#bfbfbf" points="28,-67.5 28,-86.5 96,-86.5 96,-67.5 28,-67.5"/>
<text text-anchor="middle" x="62" y="-74.5" font-family="Helvetica,sans-Serif" font-size="10.00">filesystem</text>
</a>
</g>
</g>
<!-- Node5&#45;&gt;Node23 -->
<g id="edge24" class="edge">
<title>Node5&#45;&gt;Node23</title>
<path fill="none" stroke="midnightblue" d="M272.09,-127.11C234.79,-118.39 156.02,-99.98 106.24,-88.34"/>
<polygon fill="midnightblue" stroke="midnightblue" points="106.92,-84.91 96.39,-86.04 105.33,-91.72 106.92,-84.91"/>
</g>
<!-- Node24 -->
<g id="node24" class="node">
<title>Node24</title>
<g id="a_node24"><a xlink:title=" ">
<polygon fill="white" stroke="#bfbfbf" points="114.5,-67.5 114.5,-86.5 169.5,-86.5 169.5,-67.5 114.5,-67.5"/>
<text text-anchor="middle" x="142" y="-74.5" font-family="Helvetica,sans-Serif" font-size="10.00">fstream</text>
</a>
</g>
</g>
<!-- Node5&#45;&gt;Node24 -->
<g id="edge25" class="edge">
<title>Node5&#45;&gt;Node24</title>
<path fill="none" stroke="midnightblue" d="M272.32,-124.6C247.36,-115.68 205.05,-100.55 175.43,-89.95"/>
<polygon fill="midnightblue" stroke="midnightblue" points="176.51,-86.62 165.91,-86.55 174.15,-93.21 176.51,-86.62"/>
</g>
<!-- Node25 -->
<g id="node25" class="node">
<title>Node25</title>
<g id="a_node25"><a xlink:title=" ">
<polygon fill="white" stroke="#bfbfbf" points="255,-67.5 255,-86.5 311,-86.5 311,-67.5 255,-67.5"/>
<text text-anchor="middle" x="283" y="-74.5" font-family="Helvetica,sans-Serif" font-size="10.00">iomanip</text>
</a>
</g>
</g>
<!-- Node5&#45;&gt;Node25 -->
<g id="edge26" class="edge">
<title>Node5&#45;&gt;Node25</title>
<path fill="none" stroke="midnightblue" d="M291.35,-123.08C290.02,-115.93 288.12,-105.64 286.46,-96.69"/>
<polygon fill="midnightblue" stroke="midnightblue" points="289.88,-95.95 284.62,-86.75 283,-97.22 289.88,-95.95"/>
</g>
<!-- Node26 -->
<g id="node26" class="node">
<title>Node26</title>
<g id="a_node26"><a xlink:title=" ">
<polygon fill="white" stroke="#bfbfbf" points="329.5,-67.5 329.5,-86.5 382.5,-86.5 382.5,-67.5 329.5,-67.5"/>
<text text-anchor="middle" x="356" y="-74.5" font-family="Helvetica,sans-Serif" font-size="10.00">spy.hpp</text>
</a>
</g>
</g>
<!-- Node5&#45;&gt;Node26 -->
<g id="edge27" class="edge">
<title>Node5&#45;&gt;Node26</title>
<path fill="none" stroke="midnightblue" d="M303.12,-123.32C312.53,-115.26 326.74,-103.08 338.07,-93.37"/>
<polygon fill="midnightblue" stroke="midnightblue" points="340.38,-96 345.69,-86.83 335.82,-90.68 340.38,-96"/>
</g>
<!-- Node6&#45;&gt;Node7 -->
<g id="edge6" class="edge">
<title>Node6&#45;&gt;Node7</title>
<path fill="none" stroke="midnightblue" d="M463.41,-69.34C460.24,-68.54 457.05,-67.74 454,-67 384.44,-50.08 364.69,-54.3 297,-31 295.38,-30.44 293.73,-29.82 292.08,-29.17"/>
<polygon fill="midnightblue" stroke="midnightblue" points="293.35,-25.91 282.79,-25.14 290.57,-32.33 293.35,-25.91"/>
</g>
<!-- Node8&#45;&gt;Node7 -->
<g id="edge10" class="edge">
<title>Node8&#45;&gt;Node7</title>
<path fill="none" stroke="midnightblue" d="M219.74,-67.48C228,-58.37 241.28,-43.74 251.49,-32.48"/>
<polygon fill="midnightblue" stroke="midnightblue" points="254.15,-34.77 258.28,-25.01 248.97,-30.06 254.15,-34.77"/>
</g>
<!-- Node9 -->
<g id="node9" class="node">
<title>Node9</title>
<g id="a_node9"><a xlink:title=" ">
<polygon fill="white" stroke="#bfbfbf" points="176.5,-6 176.5,-25 225.5,-25 225.5,-6 176.5,-6"/>
<text text-anchor="middle" x="201" y="-13" font-family="Helvetica,sans-Serif" font-size="10.00">cstdlib</text>
</a>
</g>
</g>
<!-- Node8&#45;&gt;Node9 -->
<g id="edge8" class="edge">
<title>Node8&#45;&gt;Node9</title>
<path fill="none" stroke="midnightblue" d="M210.42,-67.48C208.87,-59.08 206.45,-45.98 204.45,-35.16"/>
<polygon fill="midnightblue" stroke="midnightblue" points="207.83,-34.21 202.57,-25.01 200.95,-35.48 207.83,-34.21"/>
</g>
<!-- Node8&#45;&gt;Node10 -->
<g id="edge9" class="edge">
<title>Node8&#45;&gt;Node10</title>
<path fill="none" stroke="midnightblue" d="M192.94,-67.48C170.53,-57.45 133.09,-40.7 107.29,-29.15"/>
<polygon fill="midnightblue" stroke="midnightblue" points="108.58,-25.9 98.02,-25.01 105.72,-32.29 108.58,-25.9"/>
</g>
<!-- Node11&#45;&gt;Node7 -->
<g id="edge16" class="edge">
<title>Node11&#45;&gt;Node7</title>
<path fill="none" stroke="midnightblue" d="M706.39,-69.86C701.65,-68.78 696.68,-67.76 692,-67 518.02,-38.62 467.17,-77.03 297,-31 295.06,-30.48 293.1,-29.84 291.15,-29.13"/>
<polygon fill="midnightblue" stroke="midnightblue" points="292.26,-25.8 281.69,-25.12 289.53,-32.24 292.26,-25.8"/>
</g>
<!-- Node12 -->
<g id="node12" class="node">
<title>Node12</title>
<g id="a_node12"><a xlink:title=" ">
<polygon fill="white" stroke="#bfbfbf" points="878,-6 878,-25 942,-25 942,-6 878,-6"/>
<text text-anchor="middle" x="910" y="-13" font-family="Helvetica,sans-Serif" font-size="10.00">algorithm</text>
</a>
</g>
</g>
<!-- Node11&#45;&gt;Node12 -->
<g id="edge12" class="edge">
<title>Node11&#45;&gt;Node12</title>
<path fill="none" stroke="midnightblue" d="M753.67,-68.55C781.39,-59.78 828.64,-44.67 869,-31 871.44,-30.17 873.96,-29.31 876.49,-28.43"/>
<polygon fill="midnightblue" stroke="midnightblue" points="877.9,-31.65 886.19,-25.04 875.59,-25.04 877.9,-31.65"/>
</g>
<!-- Node13 -->
<g id="node13" class="node">
<title>Node13</title>
<g id="a_node13"><a xlink:title=" ">
<polygon fill="white" stroke="#bfbfbf" points="960.5,-6 960.5,-25 1009.5,-25 1009.5,-6 960.5,-6"/>
<text text-anchor="middle" x="985" y="-13" font-family="Helvetica,sans-Serif" font-size="10.00">cctype</text>
</a>
</g>
</g>
<!-- Node11&#45;&gt;Node13 -->
<g id="edge13" class="edge">
<title>Node11&#45;&gt;Node13</title>
<path fill="none" stroke="midnightblue" d="M753.62,-72.8C794.48,-66.9 880.72,-52.89 951,-31 953.14,-30.33 955.33,-29.58 957.52,-28.77"/>
<polygon fill="midnightblue" stroke="midnightblue" points="958.92,-31.98 966.9,-25.02 956.32,-25.48 958.92,-31.98"/>
</g>
<!-- Node14 -->
<g id="node14" class="node">
<title>Node14</title>
<g id="a_node14"><a xlink:title=" ">
<polygon fill="white" stroke="#bfbfbf" points="1028,-6 1028,-25 1082,-25 1082,-6 1028,-6"/>
<text text-anchor="middle" x="1055" y="-13" font-family="Helvetica,sans-Serif" font-size="10.00">random</text>
</a>
</g>
</g>
<!-- Node11&#45;&gt;Node14 -->
<g id="edge14" class="edge">
<title>Node11&#45;&gt;Node14</title>
<path fill="none" stroke="midnightblue" d="M753.61,-74.16C803.41,-69.89 922.56,-57.56 1019,-31 1021.5,-30.31 1024.06,-29.5 1026.61,-28.62"/>
<polygon fill="midnightblue" stroke="midnightblue" points="1028.1,-31.8 1036.22,-25 1025.63,-25.25 1028.1,-31.8"/>
</g>
<!-- Node15 -->
<g id="node15" class="node">
<title>Node15</title>
<g id="a_node15"><a xlink:title=" ">
<polygon fill="white" stroke="#bfbfbf" points="306,-6 306,-25 362,-25 362,-6 306,-6"/>
<text text-anchor="middle" x="334" y="-13" font-family="Helvetica,sans-Serif" font-size="10.00">sstream</text>
</a>
</g>
</g>
<!-- Node11&#45;&gt;Node15 -->
<g id="edge15" class="edge">
<title>Node11&#45;&gt;Node15</title>
<path fill="none" stroke="midnightblue" d="M706.37,-69.94C701.64,-68.85 696.68,-67.81 692,-67 550.56,-42.41 510.36,-65.49 371,-31 368.17,-30.3 365.28,-29.44 362.4,-28.49"/>
<polygon fill="midnightblue" stroke="midnightblue" points="363.49,-25.15 352.89,-25 361.08,-31.73 363.49,-25.15"/>
</g>
<!-- Node11&#45;&gt;Node16 -->
<g id="edge17" class="edge">
<title>Node11&#45;&gt;Node16</title>
<path fill="none" stroke="midnightblue" d="M753.69,-75.41C812.06,-73.45 967.09,-65.16 1091,-31 1093.16,-30.41 1095.35,-29.69 1097.54,-28.91"/>
<polygon fill="midnightblue" stroke="midnightblue" points="1098.91,-32.13 1106.88,-25.15 1096.29,-25.64 1098.91,-32.13"/>
</g>
<!-- Node17 -->
<g id="node17" class="node">
<title>Node17</title>
<g id="a_node17"><a xlink:href="__boost__config_8h.html" target="_top" xlink:title="Boost Configurations.">
<polygon fill="white" stroke="black" points="380,-6 380,-25 472,-25 472,-6 380,-6"/>
<text text-anchor="middle" x="426" y="-13" font-family="Helvetica,sans-Serif" font-size="10.00">_boost_config.h</text>
</a>
</g>
</g>
<!-- Node11&#45;&gt;Node17 -->
<g id="edge18" class="edge">
<title>Node11&#45;&gt;Node17</title>
<path fill="none" stroke="midnightblue" d="M706.33,-70.15C701.6,-69.05 696.65,-67.95 692,-67 599.21,-48.08 574.58,-50.89 482,-31 477.03,-29.93 471.84,-28.72 466.71,-27.47"/>
<polygon fill="midnightblue" stroke="midnightblue" points="467.54,-24.07 456.99,-25.02 465.83,-30.85 467.54,-24.07"/>
</g>
<!-- Node18 -->
<g id="node18" class="node">
<title>Node18</title>
<g id="a_node18"><a xlink:title=" ">
<polygon fill="white" stroke="#bfbfbf" points="490.5,-0.5 490.5,-30.5 631.5,-30.5 631.5,-0.5 490.5,-0.5"/>
<text text-anchor="start" x="498.5" y="-18.5" font-family="Helvetica,sans-Serif" font-size="10.00">boost/dll/runtime_symbol</text>
<text text-anchor="middle" x="561" y="-7.5" font-family="Helvetica,sans-Serif" font-size="10.00">_info.hpp</text>
</a>
</g>
</g>
<!-- Node11&#45;&gt;Node18 -->
<g id="edge19" class="edge">
<title>Node11&#45;&gt;Node18</title>
<path fill="none" stroke="midnightblue" d="M706.14,-67.6C681.41,-58.89 642.02,-45.02 610.51,-33.93"/>
<polygon fill="midnightblue" stroke="midnightblue" points="611.6,-30.6 601.01,-30.59 609.28,-37.21 611.6,-30.6"/>
</g>
<!-- Node19 -->
<g id="node19" class="node">
<title>Node19</title>
<g id="a_node19"><a xlink:title=" ">
<polygon fill="white" stroke="#bfbfbf" points="650,-6 650,-25 696,-25 696,-6 650,-6"/>
<text text-anchor="middle" x="673" y="-13" font-family="Helvetica,sans-Serif" font-size="10.00">pwd.h</text>
</a>
</g>
</g>
<!-- Node11&#45;&gt;Node19 -->
<g id="edge20" class="edge">
<title>Node11&#45;&gt;Node19</title>
<path fill="none" stroke="midnightblue" d="M721.83,-67.48C713.11,-58.37 699.1,-43.74 688.31,-32.48"/>
<polygon fill="midnightblue" stroke="midnightblue" points="690.6,-29.81 681.15,-25.01 685.54,-34.65 690.6,-29.81"/>
</g>
<!-- Node20 -->
<g id="node20" class="node">
<title>Node20</title>
<g id="a_node20"><a xlink:title=" ">
<polygon fill="white" stroke="#bfbfbf" points="714,-6 714,-25 786,-25 786,-6 714,-6"/>
<text text-anchor="middle" x="750" y="-13" font-family="Helvetica,sans-Serif" font-size="10.00">sys/types.h</text>
</a>
</g>
</g>
<!-- Node11&#45;&gt;Node20 -->
<g id="edge21" class="edge">
<title>Node11&#45;&gt;Node20</title>
<path fill="none" stroke="midnightblue" d="M732.87,-67.48C735.72,-58.99 740.18,-45.7 743.84,-34.82"/>
<polygon fill="midnightblue" stroke="midnightblue" points="747.27,-35.6 747.14,-25.01 740.64,-33.37 747.27,-35.6"/>
</g>
<!-- Node21 -->
<g id="node21" class="node">
<title>Node21</title>
<g id="a_node21"><a xlink:title=" ">
<polygon fill="white" stroke="#bfbfbf" points="804,-6 804,-25 860,-25 860,-6 804,-6"/>
<text text-anchor="middle" x="832" y="-13" font-family="Helvetica,sans-Serif" font-size="10.00">unistd.h</text>
</a>
</g>
</g>
<!-- Node11&#45;&gt;Node21 -->
<g id="edge22" class="edge">
<title>Node11&#45;&gt;Node21</title>
<path fill="none" stroke="midnightblue" d="M744.61,-67.48C761.35,-57.71 789,-41.58 808.72,-30.08"/>
<polygon fill="midnightblue" stroke="midnightblue" points="810.54,-33.07 817.41,-25.01 807.01,-27.02 810.54,-33.07"/>
</g>
</g>
</svg>
        <g id="navigator" transform="translate(0 0)" fill="#404254">
                <rect fill="#f2f5e9" fill-opacity="0.5" stroke="#606060" stroke-width=".5" x="0" y="0" width="60" height="60"/>
                <use id="zoomplus" xlink:href="#zoomPlus" x="17" y="9" onmousedown="handleZoom(evt,'in')"/>
                <use id="zoomminus" xlink:href="#zoomMin" x="42" y="9" onmousedown="handleZoom(evt,'out')"/>
                <use id="reset" xlink:href="#resetDef" x="30" y="36" onmousedown="handleReset()"/>
                <g id="arrowUp" xlink:href="#dirArrow" transform="translate(30 24)" onmousedown="handlePan(0,-1)">
                  <use xlink:href="#rim" fill="#404040">
                        <set attributeName="fill" to="#808080" begin="arrowUp.mouseover" end="arrowUp.mouseout"/>
                  </use>
                  <path fill="none" stroke="white" stroke-width="1.5" d="M0,-3.0v7 M-2.5,-0.5L0,-3.0L2.5,-0.5"/>
                </g>
                <g id="arrowRight" xlink:href="#dirArrow" transform="rotate(90) translate(36 -43)" onmousedown="handlePan(1,0)">
                  <use xlink:href="#rim" fill="#404040">
                        <set attributeName="fill" to="#808080" begin="arrowRight.mouseover" end="arrowRight.mouseout"/>
                  </use>
                  <path fill="none" stroke="white" stroke-width="1.5" d="M0,-3.0v7 M-2.5,-0.5L0,-3.0L2.5,-0.5"/>
                </g>
                <g id="arrowDown" xlink:href="#dirArrow" transform="rotate(180) translate(-30 -48)" onmousedown="handlePan(0,1)">
                  <use xlink:href="#rim" fill="#404040">
                        <set attributeName="fill" to="#808080" begin="arrowDown.mouseover" end="arrowDown.mouseout"/>
                  </use>
                  <path fill="none" stroke="white" stroke-width="1.5" d="M0,-3.0v7 M-2.5,-0.5L0,-3.0L2.5,-0.5"/>
                </g>
                <g id="arrowLeft" xlink:href="#dirArrow" transform="rotate(270) translate(-36 17)" onmousedown="handlePan(-1,0)">
                  <use xlink:href="#rim" fill="#404040">
                        <set attributeName="fill" to="#808080" begin="arrowLeft.mouseover" end="arrowLeft.mouseout"/>
                  </use>
                  <path fill="none" stroke="white" stroke-width="1.5" d="M0,-3.0v7 M-2.5,-0.5L0,-3.0L2.5,-0.5"/>
                </g>
        </g>
        <svg viewBox="0 0 15 15" width="100%" height="30px" preserveAspectRatio="xMaxYMin meet">
         <g id="arrow_out" transform="scale(0.3 0.3)">
          <a xlink:href="macro_8cpp__incl_org.svg" target="_base">
           <rect id="button" ry="5" rx="5" y="6" x="6" height="38" width="38"
                fill="#f2f5e9" fill-opacity="0.5" stroke="#606060" stroke-width="1.0"/>
           <path id="arrow"
             d="M 11.500037,31.436501 C 11.940474,20.09759 22.043105,11.32322 32.158766,21.979434 L 37.068811,17.246167 C 37.068811,17.246167 37.088388,32 37.088388,32 L 22.160133,31.978069 C 22.160133,31.978069 26.997745,27.140456 26.997745,27.140456 C 18.528582,18.264221 13.291696,25.230495 11.500037,31.436501 z"
             style="fill:#404040;"/>
          </a>
         </g>
        </svg>
</svg>
