<?xml version="1.0" encoding="UTF-8" standalone="no"?>
<!DOCTYPE svg PUBLIC "-//W3C//DTD SVG 1.1//EN"
 "http://www.w3.org/Graphics/SVG/1.1/DTD/svg11.dtd">
<!-- Generated by graphviz version 2.43.0 (0)
 -->
<!-- Title: include/export/macro.h Pages: 1 -->
<svg width="800pt" height="263pt"
 viewBox="0.00 0.00 799.50 263.00" xmlns="http://www.w3.org/2000/svg" xmlns:xlink="http://www.w3.org/1999/xlink">
<g id="graph0" class="graph" transform="scale(1 1) rotate(0) translate(4 259)">
<title>include/export/macro.h</title>
<polygon fill="white" stroke="transparent" points="-4,4 -4,-259 795.5,-259 795.5,4 -4,4"/>
<!-- Node1 -->
<g id="node1" class="node">
<title>Node1</title>
<g id="a_node1"><a xlink:title="ALG Macro.">
<polygon fill="#bfbfbf" stroke="black" points="512.5,-235.5 512.5,-254.5 641.5,-254.5 641.5,-235.5 512.5,-235.5"/>
<text text-anchor="middle" x="577" y="-242.5" font-family="Helvetica,sans-Serif" font-size="10.00">include/export/macro.h</text>
</a>
</g>
</g>
<!-- Node2 -->
<g id="node2" class="node">
<title>Node2</title>
<g id="a_node2"><a xlink:href="log__global_8h.html" target="_top" xlink:title="Global Access of Log.">
<polygon fill="white" stroke="black" points="365,-179.5 365,-198.5 441,-198.5 441,-179.5 365,-179.5"/>
<text text-anchor="middle" x="403" y="-186.5" font-family="Helvetica,sans-Serif" font-size="10.00">log_global.h</text>
</a>
</g>
</g>
<!-- Node1&#45;&gt;Node2 -->
<g id="edge1" class="edge">
<title>Node1&#45;&gt;Node2</title>
<path fill="none" stroke="midnightblue" d="M549.43,-235.44C519.9,-226.28 472.88,-211.69 440.12,-201.52"/>
<polygon fill="midnightblue" stroke="midnightblue" points="441.03,-198.14 430.44,-198.52 438.96,-204.82 441.03,-198.14"/>
</g>
<!-- Node4 -->
<g id="node4" class="node">
<title>Node4</title>
<g id="a_node4"><a xlink:href="meta_8h.html" target="_top" xlink:title="mmCEsim meta data">
<polygon fill="white" stroke="black" points="462.5,-67.5 462.5,-86.5 513.5,-86.5 513.5,-67.5 462.5,-67.5"/>
<text text-anchor="middle" x="488" y="-74.5" font-family="Helvetica,sans-Serif" font-size="10.00">meta.h</text>
</a>
</g>
</g>
<!-- Node1&#45;&gt;Node4 -->
<g id="edge21" class="edge">
<title>Node1&#45;&gt;Node4</title>
<path fill="none" stroke="midnightblue" d="M572.21,-235.08C558.08,-208.72 516.35,-130.88 497.47,-95.66"/>
<polygon fill="midnightblue" stroke="midnightblue" points="500.4,-93.73 492.59,-86.57 494.23,-97.04 500.4,-93.73"/>
</g>
<!-- Node5 -->
<g id="node5" class="node">
<title>Node5</title>
<g id="a_node5"><a xlink:title=" ">
<polygon fill="white" stroke="#bfbfbf" points="152,-6 152,-25 196,-25 196,-6 152,-6"/>
<text text-anchor="middle" x="174" y="-13" font-family="Helvetica,sans-Serif" font-size="10.00">string</text>
</a>
</g>
</g>
<!-- Node1&#45;&gt;Node5 -->
<g id="edge25" class="edge">
<title>Node1&#45;&gt;Node5</title>
<path fill="none" stroke="midnightblue" d="M512.47,-236.81C467.49,-230.38 406.69,-218.81 356,-199 266.48,-164.01 218.19,-170.73 171,-87 162.09,-71.2 164.49,-50.09 168.1,-35.1"/>
<polygon fill="midnightblue" stroke="midnightblue" points="171.48,-36.01 170.8,-25.43 164.74,-34.13 171.48,-36.01"/>
</g>
<!-- Node9 -->
<g id="node9" class="node">
<title>Node9</title>
<g id="a_node9"><a xlink:href="utils_8h.html" target="_top" xlink:title="Utilities.">
<polygon fill="white" stroke="black" points="531.5,-67.5 531.5,-86.5 578.5,-86.5 578.5,-67.5 531.5,-67.5"/>
<text text-anchor="middle" x="555" y="-74.5" font-family="Helvetica,sans-Serif" font-size="10.00">utils.h</text>
</a>
</g>
</g>
<!-- Node1&#45;&gt;Node9 -->
<g id="edge22" class="edge">
<title>Node1&#45;&gt;Node9</title>
<path fill="none" stroke="midnightblue" d="M575.82,-235.08C572.35,-208.95 562.18,-132.21 557.46,-96.58"/>
<polygon fill="midnightblue" stroke="midnightblue" points="560.92,-96.02 556.14,-86.57 553.98,-96.94 560.92,-96.02"/>
</g>
<!-- Node14 -->
<g id="node14" class="node">
<title>Node14</title>
<g id="a_node14"><a xlink:title=" ">
<polygon fill="white" stroke="#bfbfbf" points="672.5,-6 672.5,-25 719.5,-25 719.5,-6 672.5,-6"/>
<text text-anchor="middle" x="696" y="-13" font-family="Helvetica,sans-Serif" font-size="10.00">vector</text>
</a>
</g>
</g>
<!-- Node1&#45;&gt;Node14 -->
<g id="edge27" class="edge">
<title>Node1&#45;&gt;Node14</title>
<path fill="none" stroke="midnightblue" d="M581.52,-235.36C599.04,-201.86 662.72,-80.12 686.74,-34.2"/>
<polygon fill="midnightblue" stroke="midnightblue" points="689.94,-35.63 691.48,-25.15 683.74,-32.39 689.94,-35.63"/>
</g>
<!-- Node20 -->
<g id="node20" class="node">
<title>Node20</title>
<g id="a_node20"><a xlink:title=" ">
<polygon fill="white" stroke="#bfbfbf" points="628,-179.5 628,-198.5 666,-198.5 666,-179.5 628,-179.5"/>
<text text-anchor="middle" x="647" y="-186.5" font-family="Helvetica,sans-Serif" font-size="10.00">map</text>
</a>
</g>
</g>
<!-- Node1&#45;&gt;Node20 -->
<g id="edge23" class="edge">
<title>Node1&#45;&gt;Node20</title>
<path fill="none" stroke="midnightblue" d="M588.25,-235.32C598.8,-227.18 614.8,-214.84 627.44,-205.09"/>
<polygon fill="midnightblue" stroke="midnightblue" points="629.77,-207.71 635.55,-198.83 625.49,-202.17 629.77,-207.71"/>
</g>
<!-- Node21 -->
<g id="node21" class="node">
<title>Node21</title>
<g id="a_node21"><a xlink:title=" ">
<polygon fill="white" stroke="#bfbfbf" points="684,-179.5 684,-198.5 728,-198.5 728,-179.5 684,-179.5"/>
<text text-anchor="middle" x="706" y="-186.5" font-family="Helvetica,sans-Serif" font-size="10.00">regex</text>
</a>
</g>
</g>
<!-- Node1&#45;&gt;Node21 -->
<g id="edge24" class="edge">
<title>Node1&#45;&gt;Node21</title>
<path fill="none" stroke="midnightblue" d="M597.44,-235.44C618.67,-226.56 652.1,-212.56 676.25,-202.45"/>
<polygon fill="midnightblue" stroke="midnightblue" points="677.78,-205.61 685.66,-198.52 675.08,-199.15 677.78,-205.61"/>
</g>
<!-- Node22 -->
<g id="node22" class="node">
<title>Node22</title>
<g id="a_node22"><a xlink:title=" ">
<polygon fill="white" stroke="#bfbfbf" points="746.5,-179.5 746.5,-198.5 791.5,-198.5 791.5,-179.5 746.5,-179.5"/>
<text text-anchor="middle" x="769" y="-186.5" font-family="Helvetica,sans-Serif" font-size="10.00">utility</text>
</a>
</g>
</g>
<!-- Node1&#45;&gt;Node22 -->
<g id="edge26" class="edge">
<title>Node1&#45;&gt;Node22</title>
<path fill="none" stroke="midnightblue" d="M607.42,-235.44C642.55,-225.56 700.12,-209.37 736.21,-199.22"/>
<polygon fill="midnightblue" stroke="midnightblue" points="737.56,-202.48 746.24,-196.4 735.66,-195.74 737.56,-202.48"/>
</g>
<!-- Node3 -->
<g id="node3" class="node">
<title>Node3</title>
<g id="a_node3"><a xlink:href="include_2log_8h.html" target="_top" xlink:title="Log Utilities.">
<polygon fill="white" stroke="black" points="351.5,-123.5 351.5,-142.5 392.5,-142.5 392.5,-123.5 351.5,-123.5"/>
<text text-anchor="middle" x="372" y="-130.5" font-family="Helvetica,sans-Serif" font-size="10.00">log.h</text>
</a>
</g>
</g>
<!-- Node2&#45;&gt;Node3 -->
<g id="edge2" class="edge">
<title>Node2&#45;&gt;Node3</title>
<path fill="none" stroke="midnightblue" d="M397.88,-179.08C393.59,-171.61 387.34,-160.72 382.06,-151.52"/>
<polygon fill="midnightblue" stroke="midnightblue" points="385.04,-149.68 377.02,-142.75 378.97,-153.17 385.04,-149.68"/>
</g>
<!-- Node3&#45;&gt;Node4 -->
<g id="edge3" class="edge">
<title>Node3&#45;&gt;Node4</title>
<path fill="none" stroke="midnightblue" d="M390.38,-123.44C409.22,-114.68 438.73,-100.94 460.38,-90.86"/>
<polygon fill="midnightblue" stroke="midnightblue" points="462.12,-93.91 469.71,-86.52 459.16,-87.56 462.12,-93.91"/>
</g>
<!-- Node6 -->
<g id="node6" class="node">
<title>Node6</title>
<g id="a_node6"><a xlink:href="term_8h.html" target="_top" xlink:title="Terminal Color and Style Control.">
<polygon fill="white" stroke="black" points="74.5,-67.5 74.5,-86.5 123.5,-86.5 123.5,-67.5 74.5,-67.5"/>
<text text-anchor="middle" x="99" y="-74.5" font-family="Helvetica,sans-Serif" font-size="10.00">term.h</text>
</a>
</g>
</g>
<!-- Node3&#45;&gt;Node6 -->
<g id="edge5" class="edge">
<title>Node3&#45;&gt;Node6</title>
<path fill="none" stroke="midnightblue" d="M351.48,-127.94C305.02,-118.75 191.35,-96.27 133.72,-84.87"/>
<polygon fill="midnightblue" stroke="midnightblue" points="134.13,-81.38 123.64,-82.87 132.77,-88.25 134.13,-81.38"/>
</g>
<!-- Node3&#45;&gt;Node9 -->
<g id="edge9" class="edge">
<title>Node3&#45;&gt;Node9</title>
<path fill="none" stroke="midnightblue" d="M392.64,-125.91C423.91,-116.68 483.63,-99.06 521.28,-87.95"/>
<polygon fill="midnightblue" stroke="midnightblue" points="522.67,-91.19 531.27,-85 520.69,-84.48 522.67,-91.19"/>
</g>
<!-- Node16 -->
<g id="node16" class="node">
<title>Node16</title>
<g id="a_node16"><a xlink:title=" ">
<polygon fill="white" stroke="#bfbfbf" points="400,-67.5 400,-86.5 444,-86.5 444,-67.5 400,-67.5"/>
<text text-anchor="middle" x="422" y="-74.5" font-family="Helvetica,sans-Serif" font-size="10.00">ctime</text>
</a>
</g>
</g>
<!-- Node3&#45;&gt;Node16 -->
<g id="edge17" class="edge">
<title>Node3&#45;&gt;Node16</title>
<path fill="none" stroke="midnightblue" d="M380.26,-123.08C387.46,-115.3 398.11,-103.8 406.85,-94.37"/>
<polygon fill="midnightblue" stroke="midnightblue" points="409.67,-96.47 413.9,-86.75 404.53,-91.71 409.67,-96.47"/>
</g>
<!-- Node17 -->
<g id="node17" class="node">
<title>Node17</title>
<g id="a_node17"><a xlink:title=" ">
<polygon fill="white" stroke="#bfbfbf" points="180.5,-67.5 180.5,-86.5 235.5,-86.5 235.5,-67.5 180.5,-67.5"/>
<text text-anchor="middle" x="208" y="-74.5" font-family="Helvetica,sans-Serif" font-size="10.00">fstream</text>
</a>
</g>
</g>
<!-- Node3&#45;&gt;Node17 -->
<g id="edge18" class="edge">
<title>Node3&#45;&gt;Node17</title>
<path fill="none" stroke="midnightblue" d="M351.23,-125.16C324.2,-116.26 276.56,-100.57 243.69,-89.75"/>
<polygon fill="midnightblue" stroke="midnightblue" points="244.59,-86.36 234,-86.56 242.4,-93.01 244.59,-86.36"/>
</g>
<!-- Node18 -->
<g id="node18" class="node">
<title>Node18</title>
<g id="a_node18"><a xlink:title=" ">
<polygon fill="white" stroke="#bfbfbf" points="254,-67.5 254,-86.5 310,-86.5 310,-67.5 254,-67.5"/>
<text text-anchor="middle" x="282" y="-74.5" font-family="Helvetica,sans-Serif" font-size="10.00">iomanip</text>
</a>
</g>
</g>
<!-- Node3&#45;&gt;Node18 -->
<g id="edge19" class="edge">
<title>Node3&#45;&gt;Node18</title>
<path fill="none" stroke="midnightblue" d="M357.54,-123.32C343.5,-114.9 321.95,-101.97 305.46,-92.07"/>
<polygon fill="midnightblue" stroke="midnightblue" points="306.8,-88.8 296.42,-86.65 303.2,-94.8 306.8,-88.8"/>
</g>
<!-- Node19 -->
<g id="node19" class="node">
<title>Node19</title>
<g id="a_node19"><a xlink:title=" ">
<polygon fill="white" stroke="#bfbfbf" points="328.5,-67.5 328.5,-86.5 381.5,-86.5 381.5,-67.5 328.5,-67.5"/>
<text text-anchor="middle" x="355" y="-74.5" font-family="Helvetica,sans-Serif" font-size="10.00">spy.hpp</text>
</a>
</g>
</g>
<!-- Node3&#45;&gt;Node19 -->
<g id="edge20" class="edge">
<title>Node3&#45;&gt;Node19</title>
<path fill="none" stroke="midnightblue" d="M369.19,-123.08C366.92,-115.85 363.63,-105.41 360.79,-96.4"/>
<polygon fill="midnightblue" stroke="midnightblue" points="364.1,-95.24 357.75,-86.75 357.42,-97.34 364.1,-95.24"/>
</g>
<!-- Node4&#45;&gt;Node5 -->
<g id="edge4" class="edge">
<title>Node4&#45;&gt;Node5</title>
<path fill="none" stroke="midnightblue" d="M462.46,-69.1C459.28,-68.34 456.08,-67.62 453,-67 345.11,-45.27 313.94,-60.83 208,-31 205.71,-30.35 203.36,-29.59 201.03,-28.76"/>
<polygon fill="midnightblue" stroke="midnightblue" points="202.27,-25.48 191.69,-25.06 199.7,-31.99 202.27,-25.48"/>
</g>
<!-- Node6&#45;&gt;Node5 -->
<g id="edge8" class="edge">
<title>Node6&#45;&gt;Node5</title>
<path fill="none" stroke="midnightblue" d="M109.75,-67.48C121.55,-58.11 140.74,-42.88 155.08,-31.51"/>
<polygon fill="midnightblue" stroke="midnightblue" points="157.62,-33.97 163.27,-25.01 153.26,-28.48 157.62,-33.97"/>
</g>
<!-- Node7 -->
<g id="node7" class="node">
<title>Node7</title>
<g id="a_node7"><a xlink:title=" ">
<polygon fill="white" stroke="#bfbfbf" points="78.5,-6 78.5,-25 127.5,-25 127.5,-6 78.5,-6"/>
<text text-anchor="middle" x="103" y="-13" font-family="Helvetica,sans-Serif" font-size="10.00">cstdlib</text>
</a>
</g>
</g>
<!-- Node6&#45;&gt;Node7 -->
<g id="edge6" class="edge">
<title>Node6&#45;&gt;Node7</title>
<path fill="none" stroke="midnightblue" d="M99.57,-67.48C100.14,-59.08 101.02,-45.98 101.75,-35.16"/>
<polygon fill="midnightblue" stroke="midnightblue" points="105.25,-35.22 102.43,-25.01 98.26,-34.75 105.25,-35.22"/>
</g>
<!-- Node8 -->
<g id="node8" class="node">
<title>Node8</title>
<g id="a_node8"><a xlink:title=" ">
<polygon fill="white" stroke="#bfbfbf" points="0,-6 0,-25 60,-25 60,-6 0,-6"/>
<text text-anchor="middle" x="30" y="-13" font-family="Helvetica,sans-Serif" font-size="10.00">iostream</text>
</a>
</g>
</g>
<!-- Node6&#45;&gt;Node8 -->
<g id="edge7" class="edge">
<title>Node6&#45;&gt;Node8</title>
<path fill="none" stroke="midnightblue" d="M89.11,-67.48C78.35,-58.2 60.93,-43.17 47.78,-31.83"/>
<polygon fill="midnightblue" stroke="midnightblue" points="49.73,-28.89 39.87,-25.01 45.16,-34.19 49.73,-28.89"/>
</g>
<!-- Node9&#45;&gt;Node5 -->
<g id="edge14" class="edge">
<title>Node9&#45;&gt;Node5</title>
<path fill="none" stroke="midnightblue" d="M531.31,-69.08C528.19,-68.3 525.03,-67.58 522,-67 384.06,-40.44 343.8,-66.93 208,-31 205.64,-30.38 203.24,-29.62 200.85,-28.78"/>
<polygon fill="midnightblue" stroke="midnightblue" points="201.89,-25.43 191.3,-25.02 199.33,-31.94 201.89,-25.43"/>
</g>
<!-- Node10 -->
<g id="node10" class="node">
<title>Node10</title>
<g id="a_node10"><a xlink:title=" ">
<polygon fill="white" stroke="#bfbfbf" points="523,-6 523,-25 587,-25 587,-6 523,-6"/>
<text text-anchor="middle" x="555" y="-13" font-family="Helvetica,sans-Serif" font-size="10.00">algorithm</text>
</a>
</g>
</g>
<!-- Node9&#45;&gt;Node10 -->
<g id="edge10" class="edge">
<title>Node9&#45;&gt;Node10</title>
<path fill="none" stroke="midnightblue" d="M555,-67.48C555,-59.08 555,-45.98 555,-35.16"/>
<polygon fill="midnightblue" stroke="midnightblue" points="558.5,-35.01 555,-25.01 551.5,-35.01 558.5,-35.01"/>
</g>
<!-- Node11 -->
<g id="node11" class="node">
<title>Node11</title>
<g id="a_node11"><a xlink:title=" ">
<polygon fill="white" stroke="#bfbfbf" points="605.5,-6 605.5,-25 654.5,-25 654.5,-6 605.5,-6"/>
<text text-anchor="middle" x="630" y="-13" font-family="Helvetica,sans-Serif" font-size="10.00">cctype</text>
</a>
</g>
</g>
<!-- Node9&#45;&gt;Node11 -->
<g id="edge11" class="edge">
<title>Node9&#45;&gt;Node11</title>
<path fill="none" stroke="midnightblue" d="M565.75,-67.48C577.55,-58.11 596.74,-42.88 611.08,-31.51"/>
<polygon fill="midnightblue" stroke="midnightblue" points="613.62,-33.97 619.27,-25.01 609.26,-28.48 613.62,-33.97"/>
</g>
<!-- Node12 -->
<g id="node12" class="node">
<title>Node12</title>
<g id="a_node12"><a xlink:title=" ">
<polygon fill="white" stroke="#bfbfbf" points="217,-6 217,-25 271,-25 271,-6 217,-6"/>
<text text-anchor="middle" x="244" y="-13" font-family="Helvetica,sans-Serif" font-size="10.00">random</text>
</a>
</g>
</g>
<!-- Node9&#45;&gt;Node12 -->
<g id="edge12" class="edge">
<title>Node9&#45;&gt;Node12</title>
<path fill="none" stroke="midnightblue" d="M531.29,-69.17C528.18,-68.38 525.02,-67.63 522,-67 415.58,-44.66 384.94,-59.51 280,-31 277.5,-30.32 274.93,-29.52 272.38,-28.64"/>
<polygon fill="midnightblue" stroke="midnightblue" points="273.36,-25.27 262.77,-25.03 270.9,-31.82 273.36,-25.27"/>
</g>
<!-- Node13 -->
<g id="node13" class="node">
<title>Node13</title>
<g id="a_node13"><a xlink:title=" ">
<polygon fill="white" stroke="#bfbfbf" points="289,-6 289,-25 345,-25 345,-6 289,-6"/>
<text text-anchor="middle" x="317" y="-13" font-family="Helvetica,sans-Serif" font-size="10.00">sstream</text>
</a>
</g>
</g>
<!-- Node9&#45;&gt;Node13 -->
<g id="edge13" class="edge">
<title>Node9&#45;&gt;Node13</title>
<path fill="none" stroke="midnightblue" d="M531.25,-69.35C528.14,-68.53 525,-67.73 522,-67 447.8,-48.95 427.12,-53 354,-31 351.57,-30.27 349.08,-29.45 346.59,-28.58"/>
<polygon fill="midnightblue" stroke="midnightblue" points="347.74,-25.28 337.15,-25.08 345.31,-31.84 347.74,-25.28"/>
</g>
<!-- Node9&#45;&gt;Node14 -->
<g id="edge15" class="edge">
<title>Node9&#45;&gt;Node14</title>
<path fill="none" stroke="midnightblue" d="M576.39,-67.42C598.44,-58.52 633.75,-44.09 664,-31 665.36,-30.41 666.76,-29.8 668.17,-29.18"/>
<polygon fill="midnightblue" stroke="midnightblue" points="669.73,-32.31 677.43,-25.04 666.88,-25.92 669.73,-32.31"/>
</g>
<!-- Node15 -->
<g id="node15" class="node">
<title>Node15</title>
<g id="a_node15"><a xlink:title=" ">
<polygon fill="white" stroke="#bfbfbf" points="363.5,-0.5 363.5,-30.5 504.5,-30.5 504.5,-0.5 363.5,-0.5"/>
<text text-anchor="start" x="371.5" y="-18.5" font-family="Helvetica,sans-Serif" font-size="10.00">boost/dll/runtime_symbol</text>
<text text-anchor="middle" x="434" y="-7.5" font-family="Helvetica,sans-Serif" font-size="10.00">_info.hpp</text>
</a>
</g>
</g>
<!-- Node9&#45;&gt;Node15 -->
<g id="edge16" class="edge">
<title>Node9&#45;&gt;Node15</title>
<path fill="none" stroke="midnightblue" d="M537.66,-67.48C520.51,-59.04 493.7,-45.86 471.64,-35.01"/>
<polygon fill="midnightblue" stroke="midnightblue" points="473.04,-31.79 462.52,-30.52 469.95,-38.08 473.04,-31.79"/>
</g>
</g>
</svg>
