<?xml version="1.0" encoding="UTF-8" standalone="no"?>
<!DOCTYPE svg PUBLIC "-//W3C//DTD SVG 1.1//EN"
 "http://www.w3.org/Graphics/SVG/1.1/DTD/svg11.dtd">
<!-- Generated by graphviz version 2.43.0 (0)
 -->
<!-- Title: src/export/macro.cpp Pages: 1 -->
<!--zoomable 319 -->
<svg id="main" version="1.1" xmlns="http://www.w3.org/2000/svg" xmlns:xlink="http://www.w3.org/1999/xlink" xml:space="preserve" onload="init(evt)">
<style type="text/css"><![CDATA[
.edge:hover path { stroke: red; }
.edge:hover polygon { stroke: red; fill: red; }
]]></style>
<script type="text/javascript"><![CDATA[
var edges = document.getElementsByTagName('g');
if (edges && edges.length) {
  for (var i=0;i<edges.length;i++) {
    if (edges[i].id.substr(0,4)=='edge') {
      edges[i].setAttribute('class','edge');
    }
  }
}
]]></script>
        <defs>
                <circle id="rim" cx="0" cy="0" r="7"/>
                <circle id="rim2" cx="0" cy="0" r="3.5"/>
                <g id="zoomPlus">
                        <use xlink:href="#rim" fill="#404040">
                                <set attributeName="fill" to="#808080" begin="zoomplus.mouseover" end="zoomplus.mouseout"/>
                        </use>
                        <path d="M-4,0h8M0,-4v8" fill="none" stroke="white" stroke-width="1.5" pointer-events="none"/>
                </g>
                <g id="zoomMin">
                        <use xlink:href="#rim" fill="#404040">
                                <set attributeName="fill" to="#808080" begin="zoomminus.mouseover" end="zoomminus.mouseout"/>
                        </use>
                        <path d="M-4,0h8" fill="none" stroke="white" stroke-width="1.5" pointer-events="none"/>
                </g>
                <g id="dirArrow">
                        <path fill="none" stroke="white" stroke-width="1.5" d="M0,-3.0v7 M-2.5,-0.5L0,-3.0L2.5,-0.5"/>
                </g>
               <g id="resetDef">
                       <use xlink:href="#rim2" fill="#404040">
                               <set attributeName="fill" to="#808080" begin="reset.mouseover" end="reset.mouseout"/>
                       </use>
               </g>
        </defs>

<script type="text/javascript">
var viewWidth = 1063;
var viewHeight = 319;
var sectionId = 'dynsection-0';
</script>
<script xlink:href="svgpan.js"/>
<svg id="graph" class="graph">
<g id="viewport">
<title>src/export/macro.cpp</title>
<polygon fill="white" stroke="transparent" points="-4,4 -4,-315 1058.5,-315 1058.5,4 -4,4"/>
<!-- Node1 -->
<g id="node1" class="node">
<title>Node1</title>
<g id="a_node1"><a xlink:title="Implementation of Macro class.">
<polygon fill="#bfbfbf" stroke="black" points="668,-291.5 668,-310.5 787,-310.5 787,-291.5 668,-291.5"/>
<text text-anchor="middle" x="727.5" y="-298.5" font-family="Helvetica,sans-Serif" font-size="10.00">src/export/macro.cpp</text>
</a>
</g>
</g>
<!-- Node2 -->
<g id="node2" class="node">
<title>Node2</title>
<g id="a_node2"><a xlink:href="macro_8h.html" target="_top" xlink:title="ALG Macro.">
<polygon fill="white" stroke="black" points="385,-235.5 385,-254.5 476,-254.5 476,-235.5 385,-235.5"/>
<text text-anchor="middle" x="430.5" y="-242.5" font-family="Helvetica,sans-Serif" font-size="10.00">export/macro.h</text>
</a>
</g>
</g>
<!-- Node1&#45;&gt;Node2 -->
<g id="edge1" class="edge">
<title>Node1&#45;&gt;Node2</title>
<path fill="none" stroke="midnightblue" d="M680.44,-291.44C627.78,-281.87 542.51,-266.37 486.47,-256.18"/>
<polygon fill="midnightblue" stroke="midnightblue" points="486.83,-252.68 476.36,-254.34 485.58,-259.57 486.83,-252.68"/>
</g>
<!-- Node9 -->
<g id="node9" class="node">
<title>Node9</title>
<g id="a_node9"><a xlink:title=" ">
<polygon fill="white" stroke="#bfbfbf" points="994.5,-6 994.5,-25 1054.5,-25 1054.5,-6 994.5,-6"/>
<text text-anchor="middle" x="1024.5" y="-13" font-family="Helvetica,sans-Serif" font-size="10.00">iostream</text>
</a>
</g>
</g>
<!-- Node1&#45;&gt;Node9 -->
<g id="edge33" class="edge">
<title>Node1&#45;&gt;Node9</title>
<path fill="none" stroke="midnightblue" d="M780.94,-291.48C866.45,-276.31 1024.5,-241.34 1024.5,-190 1024.5,-190 1024.5,-190 1024.5,-132 1024.5,-97.86 1024.5,-58.05 1024.5,-35.21"/>
<polygon fill="midnightblue" stroke="midnightblue" points="1028,-35.19 1024.5,-25.19 1021,-35.19 1028,-35.19"/>
</g>
<!-- Node3 -->
<g id="node3" class="node">
<title>Node3</title>
<g id="a_node3"><a xlink:href="log__global_8h.html" target="_top" xlink:title="Global Access of Log.">
<polygon fill="white" stroke="black" points="596.5,-179.5 596.5,-198.5 672.5,-198.5 672.5,-179.5 596.5,-179.5"/>
<text text-anchor="middle" x="634.5" y="-186.5" font-family="Helvetica,sans-Serif" font-size="10.00">log_global.h</text>
</a>
</g>
</g>
<!-- Node2&#45;&gt;Node3 -->
<g id="edge2" class="edge">
<title>Node2&#45;&gt;Node3</title>
<path fill="none" stroke="midnightblue" d="M462.82,-235.44C497.89,-226.16 554,-211.31 592.46,-201.13"/>
<polygon fill="midnightblue" stroke="midnightblue" points="593.56,-204.46 602.33,-198.52 591.76,-197.69 593.56,-204.46"/>
</g>
<!-- Node5 -->
<g id="node5" class="node">
<title>Node5</title>
<g id="a_node5"><a xlink:href="meta_8h.html" target="_top" xlink:title="mmCEsim meta data">
<polygon fill="white" stroke="black" points="510,-67.5 510,-86.5 561,-86.5 561,-67.5 510,-67.5"/>
<text text-anchor="middle" x="535.5" y="-74.5" font-family="Helvetica,sans-Serif" font-size="10.00">meta.h</text>
</a>
</g>
</g>
<!-- Node2&#45;&gt;Node5 -->
<g id="edge26" class="edge">
<title>Node2&#45;&gt;Node5</title>
<path fill="none" stroke="midnightblue" d="M448.95,-235.42C463.51,-227.76 483.33,-215.27 495.5,-199 518.83,-167.81 528.99,-122.3 533.06,-96.91"/>
<polygon fill="midnightblue" stroke="midnightblue" points="536.56,-97.19 534.53,-86.79 529.63,-96.18 536.56,-97.19"/>
</g>
<!-- Node6 -->
<g id="node6" class="node">
<title>Node6</title>
<g id="a_node6"><a xlink:title=" ">
<polygon fill="white" stroke="#bfbfbf" points="749.5,-6 749.5,-25 793.5,-25 793.5,-6 749.5,-6"/>
<text text-anchor="middle" x="771.5" y="-13" font-family="Helvetica,sans-Serif" font-size="10.00">string</text>
</a>
</g>
</g>
<!-- Node2&#45;&gt;Node6 -->
<g id="edge30" class="edge">
<title>Node2&#45;&gt;Node6</title>
<path fill="none" stroke="midnightblue" d="M437.79,-235.2C444.71,-226.48 455,-212.51 461.5,-199 488.09,-143.77 455.13,-107.1 501.5,-67 582.75,3.27 637.67,-62.08 740.5,-31 742.38,-30.43 744.28,-29.77 746.19,-29.05"/>
<polygon fill="midnightblue" stroke="midnightblue" points="747.62,-32.24 755.44,-25.08 744.87,-25.81 747.62,-32.24"/>
</g>
<!-- Node10 -->
<g id="node10" class="node">
<title>Node10</title>
<g id="a_node10"><a xlink:href="utils_8h.html" target="_top" xlink:title="Utilities.">
<polygon fill="white" stroke="black" points="329,-67.5 329,-86.5 376,-86.5 376,-67.5 329,-67.5"/>
<text text-anchor="middle" x="352.5" y="-74.5" font-family="Helvetica,sans-Serif" font-size="10.00">utils.h</text>
</a>
</g>
</g>
<!-- Node2&#45;&gt;Node10 -->
<g id="edge27" class="edge">
<title>Node2&#45;&gt;Node10</title>
<path fill="none" stroke="midnightblue" d="M384.7,-243.88C349.96,-241.07 304.28,-230.96 280.5,-199 253.67,-162.94 302.51,-116.27 332.17,-92.82"/>
<polygon fill="midnightblue" stroke="midnightblue" points="334.5,-95.45 340.31,-86.59 330.24,-89.9 334.5,-95.45"/>
</g>
<!-- Node15 -->
<g id="node15" class="node">
<title>Node15</title>
<g id="a_node15"><a xlink:title=" ">
<polygon fill="white" stroke="#bfbfbf" points="0,-6 0,-25 47,-25 47,-6 0,-6"/>
<text text-anchor="middle" x="23.5" y="-13" font-family="Helvetica,sans-Serif" font-size="10.00">vector</text>
</a>
</g>
</g>
<!-- Node2&#45;&gt;Node15 -->
<g id="edge32" class="edge">
<title>Node2&#45;&gt;Node15</title>
<path fill="none" stroke="midnightblue" d="M384.82,-235.89C351.68,-228.91 306.38,-217.06 269.5,-199 174.04,-152.25 77.68,-67.24 40.02,-32.22"/>
<polygon fill="midnightblue" stroke="midnightblue" points="42.19,-29.47 32.51,-25.17 37.4,-34.57 42.19,-29.47"/>
</g>
<!-- Node25 -->
<g id="node25" class="node">
<title>Node25</title>
<g id="a_node25"><a xlink:title=" ">
<polygon fill="white" stroke="#bfbfbf" points="289.5,-179.5 289.5,-198.5 327.5,-198.5 327.5,-179.5 289.5,-179.5"/>
<text text-anchor="middle" x="308.5" y="-186.5" font-family="Helvetica,sans-Serif" font-size="10.00">map</text>
</a>
</g>
</g>
<!-- Node2&#45;&gt;Node25 -->
<g id="edge28" class="edge">
<title>Node2&#45;&gt;Node25</title>
<path fill="none" stroke="midnightblue" d="M411.17,-235.44C391.18,-226.6 359.76,-212.69 336.94,-202.59"/>
<polygon fill="midnightblue" stroke="midnightblue" points="338.3,-199.36 327.74,-198.52 335.47,-205.76 338.3,-199.36"/>
</g>
<!-- Node26 -->
<g id="node26" class="node">
<title>Node26</title>
<g id="a_node26"><a xlink:title=" ">
<polygon fill="white" stroke="#bfbfbf" points="345.5,-179.5 345.5,-198.5 389.5,-198.5 389.5,-179.5 345.5,-179.5"/>
<text text-anchor="middle" x="367.5" y="-186.5" font-family="Helvetica,sans-Serif" font-size="10.00">regex</text>
</a>
</g>
</g>
<!-- Node2&#45;&gt;Node26 -->
<g id="edge29" class="edge">
<title>Node2&#45;&gt;Node26</title>
<path fill="none" stroke="midnightblue" d="M420.38,-235.32C410.97,-227.26 396.76,-215.08 385.43,-205.37"/>
<polygon fill="midnightblue" stroke="midnightblue" points="387.68,-202.68 377.81,-198.83 383.12,-208 387.68,-202.68"/>
</g>
<!-- Node27 -->
<g id="node27" class="node">
<title>Node27</title>
<g id="a_node27"><a xlink:title=" ">
<polygon fill="white" stroke="#bfbfbf" points="408,-179.5 408,-198.5 453,-198.5 453,-179.5 408,-179.5"/>
<text text-anchor="middle" x="430.5" y="-186.5" font-family="Helvetica,sans-Serif" font-size="10.00">utility</text>
</a>
</g>
</g>
<!-- Node2&#45;&gt;Node27 -->
<g id="edge31" class="edge">
<title>Node2&#45;&gt;Node27</title>
<path fill="none" stroke="midnightblue" d="M430.5,-235.08C430.5,-228.01 430.5,-217.86 430.5,-208.99"/>
<polygon fill="midnightblue" stroke="midnightblue" points="434,-208.75 430.5,-198.75 427,-208.75 434,-208.75"/>
</g>
<!-- Node4 -->
<g id="node4" class="node">
<title>Node4</title>
<g id="a_node4"><a xlink:href="include_2log_8h.html" target="_top" xlink:title="Log Utilities.">
<polygon fill="white" stroke="black" points="655,-123.5 655,-142.5 696,-142.5 696,-123.5 655,-123.5"/>
<text text-anchor="middle" x="675.5" y="-130.5" font-family="Helvetica,sans-Serif" font-size="10.00">log.h</text>
</a>
</g>
</g>
<!-- Node3&#45;&gt;Node4 -->
<g id="edge3" class="edge">
<title>Node3&#45;&gt;Node4</title>
<path fill="none" stroke="midnightblue" d="M641.27,-179.08C647.06,-171.46 655.56,-160.26 662.64,-150.94"/>
<polygon fill="midnightblue" stroke="midnightblue" points="665.6,-152.83 668.86,-142.75 660.02,-148.6 665.6,-152.83"/>
</g>
<!-- Node4&#45;&gt;Node5 -->
<g id="edge4" class="edge">
<title>Node4&#45;&gt;Node5</title>
<path fill="none" stroke="midnightblue" d="M654.84,-124.03C631.67,-115.1 593.84,-100.5 566.98,-90.14"/>
<polygon fill="midnightblue" stroke="midnightblue" points="568.22,-86.87 557.63,-86.54 565.7,-93.4 568.22,-86.87"/>
</g>
<!-- Node7 -->
<g id="node7" class="node">
<title>Node7</title>
<g id="a_node7"><a xlink:href="term_8h.html" target="_top" xlink:title="Terminal Color and Style Control.">
<polygon fill="white" stroke="black" points="947,-67.5 947,-86.5 996,-86.5 996,-67.5 947,-67.5"/>
<text text-anchor="middle" x="971.5" y="-74.5" font-family="Helvetica,sans-Serif" font-size="10.00">term.h</text>
</a>
</g>
</g>
<!-- Node4&#45;&gt;Node7 -->
<g id="edge6" class="edge">
<title>Node4&#45;&gt;Node7</title>
<path fill="none" stroke="midnightblue" d="M696.09,-129.17C739.12,-123.11 841.82,-107.88 936.93,-87.19"/>
<polygon fill="midnightblue" stroke="midnightblue" points="937.68,-90.61 946.7,-85.04 936.18,-83.77 937.68,-90.61"/>
</g>
<!-- Node4&#45;&gt;Node10 -->
<g id="edge10" class="edge">
<title>Node4&#45;&gt;Node10</title>
<path fill="none" stroke="midnightblue" d="M654.8,-128.54C600.35,-119.44 452.71,-94.75 386.01,-83.6"/>
<polygon fill="midnightblue" stroke="midnightblue" points="386.47,-80.13 376.03,-81.93 385.31,-87.03 386.47,-80.13"/>
</g>
<!-- Node20 -->
<g id="node20" class="node">
<title>Node20</title>
<g id="a_node20"><a xlink:title=" ">
<polygon fill="white" stroke="#bfbfbf" points="579.5,-67.5 579.5,-86.5 623.5,-86.5 623.5,-67.5 579.5,-67.5"/>
<text text-anchor="middle" x="601.5" y="-74.5" font-family="Helvetica,sans-Serif" font-size="10.00">ctime</text>
</a>
</g>
</g>
<!-- Node4&#45;&gt;Node20 -->
<g id="edge21" class="edge">
<title>Node4&#45;&gt;Node20</title>
<path fill="none" stroke="midnightblue" d="M663.61,-123.32C652.35,-115.11 635.21,-102.6 621.79,-92.81"/>
<polygon fill="midnightblue" stroke="midnightblue" points="623.75,-89.9 613.61,-86.83 619.62,-95.56 623.75,-89.9"/>
</g>
<!-- Node21 -->
<g id="node21" class="node">
<title>Node21</title>
<g id="a_node21"><a xlink:title=" ">
<polygon fill="white" stroke="#bfbfbf" points="641.5,-67.5 641.5,-86.5 709.5,-86.5 709.5,-67.5 641.5,-67.5"/>
<text text-anchor="middle" x="675.5" y="-74.5" font-family="Helvetica,sans-Serif" font-size="10.00">filesystem</text>
</a>
</g>
</g>
<!-- Node4&#45;&gt;Node21 -->
<g id="edge22" class="edge">
<title>Node4&#45;&gt;Node21</title>
<path fill="none" stroke="midnightblue" d="M675.5,-123.08C675.5,-116.01 675.5,-105.86 675.5,-96.99"/>
<polygon fill="midnightblue" stroke="midnightblue" points="679,-96.75 675.5,-86.75 672,-96.75 679,-96.75"/>
</g>
<!-- Node22 -->
<g id="node22" class="node">
<title>Node22</title>
<g id="a_node22"><a xlink:title=" ">
<polygon fill="white" stroke="#bfbfbf" points="728,-67.5 728,-86.5 783,-86.5 783,-67.5 728,-67.5"/>
<text text-anchor="middle" x="755.5" y="-74.5" font-family="Helvetica,sans-Serif" font-size="10.00">fstream</text>
</a>
</g>
</g>
<!-- Node4&#45;&gt;Node22 -->
<g id="edge23" class="edge">
<title>Node4&#45;&gt;Node22</title>
<path fill="none" stroke="midnightblue" d="M688.35,-123.32C700.72,-114.98 719.63,-102.21 734.24,-92.35"/>
<polygon fill="midnightblue" stroke="midnightblue" points="736.35,-95.15 742.68,-86.65 732.43,-89.35 736.35,-95.15"/>
</g>
<!-- Node23 -->
<g id="node23" class="node">
<title>Node23</title>
<g id="a_node23"><a xlink:title=" ">
<polygon fill="white" stroke="#bfbfbf" points="801.5,-67.5 801.5,-86.5 857.5,-86.5 857.5,-67.5 801.5,-67.5"/>
<text text-anchor="middle" x="829.5" y="-74.5" font-family="Helvetica,sans-Serif" font-size="10.00">iomanip</text>
</a>
</g>
</g>
<!-- Node4&#45;&gt;Node23 -->
<g id="edge24" class="edge">
<title>Node4&#45;&gt;Node23</title>
<path fill="none" stroke="midnightblue" d="M696.27,-124.72C721.64,-115.82 764.93,-100.64 795.26,-90.01"/>
<polygon fill="midnightblue" stroke="midnightblue" points="796.72,-93.2 805,-86.59 794.41,-86.6 796.72,-93.2"/>
</g>
<!-- Node24 -->
<g id="node24" class="node">
<title>Node24</title>
<g id="a_node24"><a xlink:title=" ">
<polygon fill="white" stroke="#bfbfbf" points="876,-67.5 876,-86.5 929,-86.5 929,-67.5 876,-67.5"/>
<text text-anchor="middle" x="902.5" y="-74.5" font-family="Helvetica,sans-Serif" font-size="10.00">spy.hpp</text>
</a>
</g>
</g>
<!-- Node4&#45;&gt;Node24 -->
<g id="edge25" class="edge">
<title>Node4&#45;&gt;Node24</title>
<path fill="none" stroke="midnightblue" d="M696.15,-127.23C729.57,-119.49 797.8,-103.61 865.75,-87.16"/>
<polygon fill="midnightblue" stroke="midnightblue" points="866.88,-90.48 875.77,-84.72 865.23,-83.68 866.88,-90.48"/>
</g>
<!-- Node5&#45;&gt;Node6 -->
<g id="edge5" class="edge">
<title>Node5&#45;&gt;Node6</title>
<path fill="none" stroke="midnightblue" d="M561.08,-69.29C564.25,-68.5 567.45,-67.72 570.5,-67 645.69,-49.38 667.27,-55.52 740.5,-31 742.17,-30.44 743.86,-29.82 745.55,-29.16"/>
<polygon fill="midnightblue" stroke="midnightblue" points="747.27,-32.23 755.06,-25.04 744.49,-25.8 747.27,-32.23"/>
</g>
<!-- Node7&#45;&gt;Node6 -->
<g id="edge9" class="edge">
<title>Node7&#45;&gt;Node6</title>
<path fill="none" stroke="midnightblue" d="M946.98,-68.7C910.9,-57.97 843.48,-37.91 803.53,-26.03"/>
<polygon fill="midnightblue" stroke="midnightblue" points="804.35,-22.62 793.76,-23.12 802.35,-29.33 804.35,-22.62"/>
</g>
<!-- Node8 -->
<g id="node8" class="node">
<title>Node8</title>
<g id="a_node8"><a xlink:title=" ">
<polygon fill="white" stroke="#bfbfbf" points="927,-6 927,-25 976,-25 976,-6 927,-6"/>
<text text-anchor="middle" x="951.5" y="-13" font-family="Helvetica,sans-Serif" font-size="10.00">cstdlib</text>
</a>
</g>
</g>
<!-- Node7&#45;&gt;Node8 -->
<g id="edge7" class="edge">
<title>Node7&#45;&gt;Node8</title>
<path fill="none" stroke="midnightblue" d="M968.63,-67.48C965.78,-58.99 961.32,-45.7 957.66,-34.82"/>
<polygon fill="midnightblue" stroke="midnightblue" points="960.86,-33.37 954.36,-25.01 954.23,-35.6 960.86,-33.37"/>
</g>
<!-- Node7&#45;&gt;Node9 -->
<g id="edge8" class="edge">
<title>Node7&#45;&gt;Node9</title>
<path fill="none" stroke="midnightblue" d="M979.09,-67.48C987.2,-58.37 1000.23,-43.74 1010.26,-32.48"/>
<polygon fill="midnightblue" stroke="midnightblue" points="1012.88,-34.8 1016.92,-25.01 1007.66,-30.15 1012.88,-34.8"/>
</g>
<!-- Node10&#45;&gt;Node6 -->
<g id="edge15" class="edge">
<title>Node10&#45;&gt;Node6</title>
<path fill="none" stroke="midnightblue" d="M376.04,-74.27C449.08,-68.73 671.1,-50.69 740.5,-31 742.43,-30.45 744.39,-29.8 746.34,-29.07"/>
<polygon fill="midnightblue" stroke="midnightblue" points="747.96,-32.18 755.79,-25.04 745.22,-25.74 747.96,-32.18"/>
</g>
<!-- Node11 -->
<g id="node11" class="node">
<title>Node11</title>
<g id="a_node11"><a xlink:title=" ">
<polygon fill="white" stroke="#bfbfbf" points="139.5,-6 139.5,-25 203.5,-25 203.5,-6 139.5,-6"/>
<text text-anchor="middle" x="171.5" y="-13" font-family="Helvetica,sans-Serif" font-size="10.00">algorithm</text>
</a>
</g>
</g>
<!-- Node10&#45;&gt;Node11 -->
<g id="edge11" class="edge">
<title>Node10&#45;&gt;Node11</title>
<path fill="none" stroke="midnightblue" d="M328.65,-68.57C300.73,-59.81 253.14,-44.71 212.5,-31 210.06,-30.18 207.54,-29.31 205.01,-28.44"/>
<polygon fill="midnightblue" stroke="midnightblue" points="205.9,-25.04 195.31,-25.05 203.59,-31.65 205.9,-25.04"/>
</g>
<!-- Node12 -->
<g id="node12" class="node">
<title>Node12</title>
<g id="a_node12"><a xlink:title=" ">
<polygon fill="white" stroke="#bfbfbf" points="222,-6 222,-25 271,-25 271,-6 222,-6"/>
<text text-anchor="middle" x="246.5" y="-13" font-family="Helvetica,sans-Serif" font-size="10.00">cctype</text>
</a>
</g>
</g>
<!-- Node10&#45;&gt;Node12 -->
<g id="edge12" class="edge">
<title>Node10&#45;&gt;Node12</title>
<path fill="none" stroke="midnightblue" d="M337.31,-67.48C319.84,-57.67 290.92,-41.43 270.42,-29.92"/>
<polygon fill="midnightblue" stroke="midnightblue" points="272.09,-26.85 261.66,-25.01 268.67,-32.96 272.09,-26.85"/>
</g>
<!-- Node13 -->
<g id="node13" class="node">
<title>Node13</title>
<g id="a_node13"><a xlink:title=" ">
<polygon fill="white" stroke="#bfbfbf" points="289.5,-6 289.5,-25 343.5,-25 343.5,-6 289.5,-6"/>
<text text-anchor="middle" x="316.5" y="-13" font-family="Helvetica,sans-Serif" font-size="10.00">random</text>
</a>
</g>
</g>
<!-- Node10&#45;&gt;Node13 -->
<g id="edge13" class="edge">
<title>Node10&#45;&gt;Node13</title>
<path fill="none" stroke="midnightblue" d="M347.34,-67.48C342.05,-58.73 333.66,-44.87 326.97,-33.81"/>
<polygon fill="midnightblue" stroke="midnightblue" points="329.82,-31.75 321.65,-25.01 323.83,-35.38 329.82,-31.75"/>
</g>
<!-- Node14 -->
<g id="node14" class="node">
<title>Node14</title>
<g id="a_node14"><a xlink:title=" ">
<polygon fill="white" stroke="#bfbfbf" points="361.5,-6 361.5,-25 417.5,-25 417.5,-6 361.5,-6"/>
<text text-anchor="middle" x="389.5" y="-13" font-family="Helvetica,sans-Serif" font-size="10.00">sstream</text>
</a>
</g>
</g>
<!-- Node10&#45;&gt;Node14 -->
<g id="edge14" class="edge">
<title>Node10&#45;&gt;Node14</title>
<path fill="none" stroke="midnightblue" d="M357.8,-67.48C363.24,-58.73 371.86,-44.87 378.74,-33.81"/>
<polygon fill="midnightblue" stroke="midnightblue" points="381.9,-35.35 384.21,-25.01 375.96,-31.65 381.9,-35.35"/>
</g>
<!-- Node10&#45;&gt;Node15 -->
<g id="edge16" class="edge">
<title>Node10&#45;&gt;Node15</title>
<path fill="none" stroke="midnightblue" d="M328.64,-74.51C277.74,-70.86 155.09,-59.61 56.5,-31 54.35,-30.38 52.16,-29.64 49.98,-28.85"/>
<polygon fill="midnightblue" stroke="midnightblue" points="51.23,-25.58 40.65,-25.05 48.6,-32.06 51.23,-25.58"/>
</g>
<!-- Node16 -->
<g id="node16" class="node">
<title>Node16</title>
<g id="a_node16"><a xlink:title=" ">
<polygon fill="white" stroke="#bfbfbf" points="436,-0.5 436,-30.5 577,-30.5 577,-0.5 436,-0.5"/>
<text text-anchor="start" x="444" y="-18.5" font-family="Helvetica,sans-Serif" font-size="10.00">boost/dll/runtime_symbol</text>
<text text-anchor="middle" x="506.5" y="-7.5" font-family="Helvetica,sans-Serif" font-size="10.00">_info.hpp</text>
</a>
</g>
</g>
<!-- Node10&#45;&gt;Node16 -->
<g id="edge17" class="edge">
<title>Node10&#45;&gt;Node16</title>
<path fill="none" stroke="midnightblue" d="M374.56,-67.48C396.98,-58.81 432.36,-45.15 460.84,-34.14"/>
<polygon fill="midnightblue" stroke="midnightblue" points="462.14,-37.39 470.21,-30.52 459.62,-30.86 462.14,-37.39"/>
</g>
<!-- Node17 -->
<g id="node17" class="node">
<title>Node17</title>
<g id="a_node17"><a xlink:title=" ">
<polygon fill="white" stroke="#bfbfbf" points="595.5,-6 595.5,-25 641.5,-25 641.5,-6 595.5,-6"/>
<text text-anchor="middle" x="618.5" y="-13" font-family="Helvetica,sans-Serif" font-size="10.00">pwd.h</text>
</a>
</g>
</g>
<!-- Node10&#45;&gt;Node17 -->
<g id="edge18" class="edge">
<title>Node10&#45;&gt;Node17</title>
<path fill="none" stroke="midnightblue" d="M376.2,-73.32C418.98,-68.06 511.59,-54.81 586.5,-31 588.37,-30.4 590.28,-29.73 592.19,-29"/>
<polygon fill="midnightblue" stroke="midnightblue" points="593.65,-32.18 601.52,-25.09 590.95,-25.73 593.65,-32.18"/>
</g>
<!-- Node18 -->
<g id="node18" class="node">
<title>Node18</title>
<g id="a_node18"><a xlink:title=" ">
<polygon fill="white" stroke="#bfbfbf" points="659.5,-6 659.5,-25 731.5,-25 731.5,-6 659.5,-6"/>
<text text-anchor="middle" x="695.5" y="-13" font-family="Helvetica,sans-Serif" font-size="10.00">sys/types.h</text>
</a>
</g>
</g>
<!-- Node10&#45;&gt;Node18 -->
<g id="edge19" class="edge">
<title>Node10&#45;&gt;Node18</title>
<path fill="none" stroke="midnightblue" d="M376.31,-73.73C427.16,-68.59 549.9,-54.64 650.5,-31 654.15,-30.14 657.93,-29.13 661.68,-28.04"/>
<polygon fill="midnightblue" stroke="midnightblue" points="662.88,-31.33 671.41,-25.05 660.83,-24.64 662.88,-31.33"/>
</g>
<!-- Node19 -->
<g id="node19" class="node">
<title>Node19</title>
<g id="a_node19"><a xlink:title=" ">
<polygon fill="white" stroke="#bfbfbf" points="65.5,-6 65.5,-25 121.5,-25 121.5,-6 65.5,-6"/>
<text text-anchor="middle" x="93.5" y="-13" font-family="Helvetica,sans-Serif" font-size="10.00">unistd.h</text>
</a>
</g>
</g>
<!-- Node10&#45;&gt;Node19 -->
<g id="edge20" class="edge">
<title>Node10&#45;&gt;Node19</title>
<path fill="none" stroke="midnightblue" d="M328.84,-72.59C287.9,-66.38 201.41,-51.91 130.5,-31 128.07,-30.28 125.57,-29.47 123.08,-28.61"/>
<polygon fill="midnightblue" stroke="midnightblue" points="124.23,-25.3 113.64,-25.12 121.8,-31.87 124.23,-25.3"/>
</g>
</g>
</svg>
        <g id="navigator" transform="translate(0 0)" fill="#404254">
                <rect fill="#f2f5e9" fill-opacity="0.5" stroke="#606060" stroke-width=".5" x="0" y="0" width="60" height="60"/>
                <use id="zoomplus" xlink:href="#zoomPlus" x="17" y="9" onmousedown="handleZoom(evt,'in')"/>
                <use id="zoomminus" xlink:href="#zoomMin" x="42" y="9" onmousedown="handleZoom(evt,'out')"/>
                <use id="reset" xlink:href="#resetDef" x="30" y="36" onmousedown="handleReset()"/>
                <g id="arrowUp" xlink:href="#dirArrow" transform="translate(30 24)" onmousedown="handlePan(0,-1)">
                  <use xlink:href="#rim" fill="#404040">
                        <set attributeName="fill" to="#808080" begin="arrowUp.mouseover" end="arrowUp.mouseout"/>
                  </use>
                  <path fill="none" stroke="white" stroke-width="1.5" d="M0,-3.0v7 M-2.5,-0.5L0,-3.0L2.5,-0.5"/>
                </g>
                <g id="arrowRight" xlink:href="#dirArrow" transform="rotate(90) translate(36 -43)" onmousedown="handlePan(1,0)">
                  <use xlink:href="#rim" fill="#404040">
                        <set attributeName="fill" to="#808080" begin="arrowRight.mouseover" end="arrowRight.mouseout"/>
                  </use>
                  <path fill="none" stroke="white" stroke-width="1.5" d="M0,-3.0v7 M-2.5,-0.5L0,-3.0L2.5,-0.5"/>
                </g>
                <g id="arrowDown" xlink:href="#dirArrow" transform="rotate(180) translate(-30 -48)" onmousedown="handlePan(0,1)">
                  <use xlink:href="#rim" fill="#404040">
                        <set attributeName="fill" to="#808080" begin="arrowDown.mouseover" end="arrowDown.mouseout"/>
                  </use>
                  <path fill="none" stroke="white" stroke-width="1.5" d="M0,-3.0v7 M-2.5,-0.5L0,-3.0L2.5,-0.5"/>
                </g>
                <g id="arrowLeft" xlink:href="#dirArrow" transform="rotate(270) translate(-36 17)" onmousedown="handlePan(-1,0)">
                  <use xlink:href="#rim" fill="#404040">
                        <set attributeName="fill" to="#808080" begin="arrowLeft.mouseover" end="arrowLeft.mouseout"/>
                  </use>
                  <path fill="none" stroke="white" stroke-width="1.5" d="M0,-3.0v7 M-2.5,-0.5L0,-3.0L2.5,-0.5"/>
                </g>
        </g>
        <svg viewBox="0 0 15 15" width="100%" height="30px" preserveAspectRatio="xMaxYMin meet">
         <g id="arrow_out" transform="scale(0.3 0.3)">
          <a xlink:href="macro_8cpp__incl_org.svg" target="_base">
           <rect id="button" ry="5" rx="5" y="6" x="6" height="38" width="38"
                fill="#f2f5e9" fill-opacity="0.5" stroke="#606060" stroke-width="1.0"/>
           <path id="arrow"
             d="M 11.500037,31.436501 C 11.940474,20.09759 22.043105,11.32322 32.158766,21.979434 L 37.068811,17.246167 C 37.068811,17.246167 37.088388,32 37.088388,32 L 22.160133,31.978069 C 22.160133,31.978069 26.997745,27.140456 26.997745,27.140456 C 18.528582,18.264221 13.291696,25.230495 11.500037,31.436501 z"
             style="fill:#404040;"/>
          </a>
         </g>
        </svg>
</svg>
