<?xml version="1.0" encoding="UTF-8" standalone="no"?>
<!DOCTYPE svg PUBLIC "-//W3C//DTD SVG 1.1//EN"
 "http://www.w3.org/Graphics/SVG/1.1/DTD/svg11.dtd">
<!-- Generated by graphviz version 2.43.0 (0)
 -->
<!-- Title: tools/maintain/maintain.cpp Pages: 1 -->
<svg width="548pt" height="207pt"
 viewBox="0.00 0.00 547.50 207.00" xmlns="http://www.w3.org/2000/svg" xmlns:xlink="http://www.w3.org/1999/xlink">
<g id="graph0" class="graph" transform="scale(1 1) rotate(0) translate(4 203)">
<title>tools/maintain/maintain.cpp</title>
<polygon fill="white" stroke="transparent" points="-4,4 -4,-203 543.5,-203 543.5,4 -4,4"/>
<!-- Node1 -->
<g id="node1" class="node">
<title>Node1</title>
<g id="a_node1"><a xlink:title="mmCEsim Maintainence Tool">
<polygon fill="#bfbfbf" stroke="black" points="220.5,-179.5 220.5,-198.5 374.5,-198.5 374.5,-179.5 220.5,-179.5"/>
<text text-anchor="middle" x="297.5" y="-186.5" font-family="Helvetica,sans-Serif" font-size="10.00">tools/maintain/maintain.cpp</text>
</a>
</g>
</g>
<!-- Node2 -->
<g id="node2" class="node">
<title>Node2</title>
<g id="a_node2"><a xlink:href="maintain_8h.html" target="_top" xlink:title="mmCEsim Maintainence Functions">
<polygon fill="white" stroke="black" points="136,-118 136,-137 205,-137 205,-118 136,-118"/>
<text text-anchor="middle" x="170.5" y="-125" font-family="Helvetica,sans-Serif" font-size="10.00">maintain.h</text>
</a>
</g>
</g>
<!-- Node1&#45;&gt;Node2 -->
<g id="edge1" class="edge">
<title>Node1&#45;&gt;Node2</title>
<path fill="none" stroke="midnightblue" d="M279.3,-179.48C257.99,-169.49 222.47,-152.85 197.84,-141.31"/>
<polygon fill="midnightblue" stroke="midnightblue" points="199.2,-138.08 188.66,-137.01 196.23,-144.42 199.2,-138.08"/>
</g>
<!-- Node8 -->
<g id="node8" class="node">
<title>Node8</title>
<g id="a_node8"><a xlink:title=" ">
<polygon fill="white" stroke="#bfbfbf" points="223.5,-112.5 223.5,-142.5 371.5,-142.5 371.5,-112.5 223.5,-112.5"/>
<text text-anchor="start" x="231.5" y="-130.5" font-family="Helvetica,sans-Serif" font-size="10.00">boost/exception/diagnostic</text>
<text text-anchor="middle" x="297.5" y="-119.5" font-family="Helvetica,sans-Serif" font-size="10.00">_information.hpp</text>
</a>
</g>
</g>
<!-- Node1&#45;&gt;Node8 -->
<g id="edge7" class="edge">
<title>Node1&#45;&gt;Node8</title>
<path fill="none" stroke="midnightblue" d="M297.5,-179.48C297.5,-172.47 297.5,-162.19 297.5,-152.7"/>
<polygon fill="midnightblue" stroke="midnightblue" points="301,-152.52 297.5,-142.52 294,-152.52 301,-152.52"/>
</g>
<!-- Node9 -->
<g id="node9" class="node">
<title>Node9</title>
<g id="a_node9"><a xlink:title=" ">
<polygon fill="white" stroke="#bfbfbf" points="389.5,-118 389.5,-137 539.5,-137 539.5,-118 389.5,-118"/>
<text text-anchor="middle" x="464.5" y="-125" font-family="Helvetica,sans-Serif" font-size="10.00">boost/program_options.hpp</text>
</a>
</g>
</g>
<!-- Node1&#45;&gt;Node9 -->
<g id="edge8" class="edge">
<title>Node1&#45;&gt;Node9</title>
<path fill="none" stroke="midnightblue" d="M321.43,-179.48C350.2,-169.22 398.66,-151.96 431.1,-140.4"/>
<polygon fill="midnightblue" stroke="midnightblue" points="432.37,-143.66 440.62,-137.01 430.02,-137.07 432.37,-143.66"/>
</g>
<!-- Node3 -->
<g id="node3" class="node">
<title>Node3</title>
<g id="a_node3"><a xlink:href="meta_8h.html" target="_top" xlink:title="mmCEsim meta data">
<polygon fill="white" stroke="black" points="0,-56.5 0,-75.5 51,-75.5 51,-56.5 0,-56.5"/>
<text text-anchor="middle" x="25.5" y="-63.5" font-family="Helvetica,sans-Serif" font-size="10.00">meta.h</text>
</a>
</g>
</g>
<!-- Node2&#45;&gt;Node3 -->
<g id="edge2" class="edge">
<title>Node2&#45;&gt;Node3</title>
<path fill="none" stroke="midnightblue" d="M149.73,-117.98C125.07,-107.86 83.75,-90.9 55.6,-79.35"/>
<polygon fill="midnightblue" stroke="midnightblue" points="56.82,-76.07 46.24,-75.51 54.16,-82.54 56.82,-76.07"/>
</g>
<!-- Node5 -->
<g id="node5" class="node">
<title>Node5</title>
<g id="a_node5"><a xlink:title=" ">
<polygon fill="white" stroke="#bfbfbf" points="69,-56.5 69,-75.5 174,-75.5 174,-56.5 69,-56.5"/>
<text text-anchor="middle" x="121.5" y="-63.5" font-family="Helvetica,sans-Serif" font-size="10.00">boost/process.hpp</text>
</a>
</g>
</g>
<!-- Node2&#45;&gt;Node5 -->
<g id="edge4" class="edge">
<title>Node2&#45;&gt;Node5</title>
<path fill="none" stroke="midnightblue" d="M163.48,-117.98C156.06,-108.96 144.17,-94.52 134.93,-83.31"/>
<polygon fill="midnightblue" stroke="midnightblue" points="137.57,-81 128.51,-75.51 132.16,-85.45 137.57,-81"/>
</g>
<!-- Node6 -->
<g id="node6" class="node">
<title>Node6</title>
<g id="a_node6"><a xlink:title=" ">
<polygon fill="white" stroke="#bfbfbf" points="192,-56.5 192,-75.5 247,-75.5 247,-56.5 192,-56.5"/>
<text text-anchor="middle" x="219.5" y="-63.5" font-family="Helvetica,sans-Serif" font-size="10.00">fstream</text>
</a>
</g>
</g>
<!-- Node2&#45;&gt;Node6 -->
<g id="edge5" class="edge">
<title>Node2&#45;&gt;Node6</title>
<path fill="none" stroke="midnightblue" d="M177.52,-117.98C184.94,-108.96 196.83,-94.52 206.07,-83.31"/>
<polygon fill="midnightblue" stroke="midnightblue" points="208.84,-85.45 212.49,-75.51 203.43,-81 208.84,-85.45"/>
</g>
<!-- Node7 -->
<g id="node7" class="node">
<title>Node7</title>
<g id="a_node7"><a xlink:title=" ">
<polygon fill="white" stroke="#bfbfbf" points="265.5,-56.5 265.5,-75.5 325.5,-75.5 325.5,-56.5 265.5,-56.5"/>
<text text-anchor="middle" x="295.5" y="-63.5" font-family="Helvetica,sans-Serif" font-size="10.00">iostream</text>
</a>
</g>
</g>
<!-- Node2&#45;&gt;Node7 -->
<g id="edge6" class="edge">
<title>Node2&#45;&gt;Node7</title>
<path fill="none" stroke="midnightblue" d="M188.41,-117.98C209.39,-107.99 244.35,-91.35 268.59,-79.81"/>
<polygon fill="midnightblue" stroke="midnightblue" points="270.1,-82.97 277.62,-75.51 267.09,-76.65 270.1,-82.97"/>
</g>
<!-- Node4 -->
<g id="node4" class="node">
<title>Node4</title>
<g id="a_node4"><a xlink:title=" ">
<polygon fill="white" stroke="#bfbfbf" points="3.5,-0.5 3.5,-19.5 47.5,-19.5 47.5,-0.5 3.5,-0.5"/>
<text text-anchor="middle" x="25.5" y="-7.5" font-family="Helvetica,sans-Serif" font-size="10.00">string</text>
</a>
</g>
</g>
<!-- Node3&#45;&gt;Node4 -->
<g id="edge3" class="edge">
<title>Node3&#45;&gt;Node4</title>
<path fill="none" stroke="midnightblue" d="M25.5,-56.08C25.5,-49.01 25.5,-38.86 25.5,-29.99"/>
<polygon fill="midnightblue" stroke="midnightblue" points="29,-29.75 25.5,-19.75 22,-29.75 29,-29.75"/>
</g>
</g>
</svg>
