<?xml version="1.0" encoding="UTF-8" standalone="no"?>
<!DOCTYPE svg PUBLIC "-//W3C//DTD SVG 1.1//EN"
 "http://www.w3.org/Graphics/SVG/1.1/DTD/svg11.dtd">
<!-- Generated by graphviz version 2.43.0 (0)
 -->
<!-- Title: gui/mainwindow.cpp Pages: 1 -->
<svg width="952pt" height="140pt"
 viewBox="0.00 0.00 951.50 140.00" xmlns="http://www.w3.org/2000/svg" xmlns:xlink="http://www.w3.org/1999/xlink">
<g id="graph0" class="graph" transform="scale(1 1) rotate(0) translate(4 136)">
<title>gui/mainwindow.cpp</title>
<polygon fill="white" stroke="transparent" points="-4,4 -4,-136 947.5,-136 947.5,4 -4,4"/>
<!-- Node1 -->
<g id="node1" class="node">
<title>Node1</title>
<g id="a_node1"><a xlink:title=" ">
<polygon fill="#bfbfbf" stroke="black" points="488.5,-112.5 488.5,-131.5 604.5,-131.5 604.5,-112.5 488.5,-112.5"/>
<text text-anchor="middle" x="546.5" y="-119.5" font-family="Helvetica,sans-Serif" font-size="10.00">gui/mainwindow.cpp</text>
</a>
</g>
</g>
<!-- Node2 -->
<g id="node2" class="node">
<title>Node2</title>
<g id="a_node2"><a xlink:href="mainwindow_8h.html" target="_top" xlink:title=" ">
<polygon fill="white" stroke="black" points="446,-56.5 446,-75.5 533,-75.5 533,-56.5 446,-56.5"/>
<text text-anchor="middle" x="489.5" y="-63.5" font-family="Helvetica,sans-Serif" font-size="10.00">mainwindow.h</text>
</a>
</g>
</g>
<!-- Node1&#45;&gt;Node2 -->
<g id="edge1" class="edge">
<title>Node1&#45;&gt;Node2</title>
<path fill="none" stroke="midnightblue" d="M537.34,-112.32C529,-104.42 516.47,-92.55 506.32,-82.94"/>
<polygon fill="midnightblue" stroke="midnightblue" points="508.49,-80.17 498.82,-75.83 503.68,-85.25 508.49,-80.17"/>
</g>
<!-- Node14 -->
<g id="node14" class="node">
<title>Node14</title>
<g id="a_node14"><a xlink:title=" ">
<polygon fill="white" stroke="#bfbfbf" points="551,-56.5 551,-75.5 658,-75.5 658,-56.5 551,-56.5"/>
<text text-anchor="middle" x="604.5" y="-63.5" font-family="Helvetica,sans-Serif" font-size="10.00">./ui_mainwindow.h</text>
</a>
</g>
</g>
<!-- Node1&#45;&gt;Node14 -->
<g id="edge13" class="edge">
<title>Node1&#45;&gt;Node14</title>
<path fill="none" stroke="midnightblue" d="M555.82,-112.32C564.39,-104.34 577.31,-92.31 587.69,-82.65"/>
<polygon fill="midnightblue" stroke="midnightblue" points="590.08,-85.21 595.01,-75.83 585.31,-80.09 590.08,-85.21"/>
</g>
<!-- Node3 -->
<g id="node3" class="node">
<title>Node3</title>
<g id="a_node3"><a xlink:title=" ">
<polygon fill="white" stroke="#bfbfbf" points="0,-0.5 0,-19.5 87,-19.5 87,-0.5 0,-0.5"/>
<text text-anchor="middle" x="43.5" y="-7.5" font-family="Helvetica,sans-Serif" font-size="10.00">QMainWindow</text>
</a>
</g>
</g>
<!-- Node2&#45;&gt;Node3 -->
<g id="edge2" class="edge">
<title>Node2&#45;&gt;Node3</title>
<path fill="none" stroke="midnightblue" d="M445.78,-60.78C374.9,-53.76 230.25,-38.72 97.12,-20.02"/>
<polygon fill="midnightblue" stroke="midnightblue" points="97.54,-16.54 87.14,-18.6 96.55,-23.47 97.54,-16.54"/>
</g>
<!-- Node4 -->
<g id="node4" class="node">
<title>Node4</title>
<g id="a_node4"><a xlink:title=" ">
<polygon fill="white" stroke="#bfbfbf" points="105.5,-0.5 105.5,-19.5 155.5,-19.5 155.5,-0.5 105.5,-0.5"/>
<text text-anchor="middle" x="130.5" y="-7.5" font-family="Helvetica,sans-Serif" font-size="10.00">QLabel</text>
</a>
</g>
</g>
<!-- Node2&#45;&gt;Node4 -->
<g id="edge3" class="edge">
<title>Node2&#45;&gt;Node4</title>
<path fill="none" stroke="midnightblue" d="M445.85,-60.66C385.09,-54.24 271.47,-40.89 165.57,-20"/>
<polygon fill="midnightblue" stroke="midnightblue" points="166.16,-16.55 155.67,-18.03 164.79,-23.42 166.16,-16.55"/>
</g>
<!-- Node5 -->
<g id="node5" class="node">
<title>Node5</title>
<g id="a_node5"><a xlink:title=" ">
<polygon fill="white" stroke="#bfbfbf" points="173.5,-0.5 173.5,-19.5 279.5,-19.5 279.5,-0.5 173.5,-0.5"/>
<text text-anchor="middle" x="226.5" y="-7.5" font-family="Helvetica,sans-Serif" font-size="10.00">QDesktopServices</text>
</a>
</g>
</g>
<!-- Node2&#45;&gt;Node5 -->
<g id="edge4" class="edge">
<title>Node2&#45;&gt;Node5</title>
<path fill="none" stroke="midnightblue" d="M447.83,-56.44C401.75,-46.98 327.5,-31.74 277.87,-21.55"/>
<polygon fill="midnightblue" stroke="midnightblue" points="278.48,-18.1 267.98,-19.52 277.07,-24.96 278.48,-18.1"/>
</g>
<!-- Node6 -->
<g id="node6" class="node">
<title>Node6</title>
<g id="a_node6"><a xlink:title=" ">
<polygon fill="white" stroke="#bfbfbf" points="297.5,-0.5 297.5,-19.5 335.5,-19.5 335.5,-0.5 297.5,-0.5"/>
<text text-anchor="middle" x="316.5" y="-7.5" font-family="Helvetica,sans-Serif" font-size="10.00">QUrl</text>
</a>
</g>
</g>
<!-- Node2&#45;&gt;Node6 -->
<g id="edge5" class="edge">
<title>Node2&#45;&gt;Node6</title>
<path fill="none" stroke="midnightblue" d="M461.68,-56.46C434.41,-48.06 391.41,-34.78 345.59,-20.32"/>
<polygon fill="midnightblue" stroke="midnightblue" points="346.36,-16.9 335.77,-17.22 344.25,-23.57 346.36,-16.9"/>
</g>
<!-- Node7 -->
<g id="node7" class="node">
<title>Node7</title>
<g id="a_node7"><a xlink:title=" ">
<polygon fill="white" stroke="#bfbfbf" points="353.5,-0.5 353.5,-19.5 439.5,-19.5 439.5,-0.5 353.5,-0.5"/>
<text text-anchor="middle" x="396.5" y="-7.5" font-family="Helvetica,sans-Serif" font-size="10.00">QMessageBox</text>
</a>
</g>
</g>
<!-- Node2&#45;&gt;Node7 -->
<g id="edge6" class="edge">
<title>Node2&#45;&gt;Node7</title>
<path fill="none" stroke="midnightblue" d="M474.56,-56.32C459.91,-47.82 437.37,-34.73 420.26,-24.8"/>
<polygon fill="midnightblue" stroke="midnightblue" points="421.81,-21.65 411.4,-19.65 418.3,-27.7 421.81,-21.65"/>
</g>
<!-- Node8 -->
<g id="node8" class="node">
<title>Node8</title>
<g id="a_node8"><a xlink:title=" ">
<polygon fill="white" stroke="#bfbfbf" points="457.5,-0.5 457.5,-19.5 521.5,-19.5 521.5,-0.5 457.5,-0.5"/>
<text text-anchor="middle" x="489.5" y="-7.5" font-family="Helvetica,sans-Serif" font-size="10.00">QSettings</text>
</a>
</g>
</g>
<!-- Node2&#45;&gt;Node8 -->
<g id="edge7" class="edge">
<title>Node2&#45;&gt;Node8</title>
<path fill="none" stroke="midnightblue" d="M489.5,-56.08C489.5,-49.01 489.5,-38.86 489.5,-29.99"/>
<polygon fill="midnightblue" stroke="midnightblue" points="493,-29.75 489.5,-19.75 486,-29.75 493,-29.75"/>
</g>
<!-- Node9 -->
<g id="node9" class="node">
<title>Node9</title>
<g id="a_node9"><a xlink:title=" ">
<polygon fill="white" stroke="#bfbfbf" points="540,-0.5 540,-19.5 603,-19.5 603,-0.5 540,-0.5"/>
<text text-anchor="middle" x="571.5" y="-7.5" font-family="Helvetica,sans-Serif" font-size="10.00">QLineEdit</text>
</a>
</g>
</g>
<!-- Node2&#45;&gt;Node9 -->
<g id="edge8" class="edge">
<title>Node2&#45;&gt;Node9</title>
<path fill="none" stroke="midnightblue" d="M502.67,-56.32C515.35,-47.98 534.73,-35.21 549.71,-25.35"/>
<polygon fill="midnightblue" stroke="midnightblue" points="551.93,-28.08 558.36,-19.65 548.08,-22.23 551.93,-28.08"/>
</g>
<!-- Node10 -->
<g id="node10" class="node">
<title>Node10</title>
<g id="a_node10"><a xlink:title=" ">
<polygon fill="white" stroke="#bfbfbf" points="621.5,-0.5 621.5,-19.5 677.5,-19.5 677.5,-0.5 621.5,-0.5"/>
<text text-anchor="middle" x="649.5" y="-7.5" font-family="Helvetica,sans-Serif" font-size="10.00">QCursor</text>
</a>
</g>
</g>
<!-- Node2&#45;&gt;Node10 -->
<g id="edge9" class="edge">
<title>Node2&#45;&gt;Node10</title>
<path fill="none" stroke="midnightblue" d="M514.85,-56.44C541.77,-47.36 584.5,-32.94 614.59,-22.78"/>
<polygon fill="midnightblue" stroke="midnightblue" points="615.91,-26.03 624.27,-19.52 613.67,-19.4 615.91,-26.03"/>
</g>
<!-- Node11 -->
<g id="node11" class="node">
<title>Node11</title>
<g id="a_node11"><a xlink:title=" ">
<polygon fill="white" stroke="#bfbfbf" points="695.5,-0.5 695.5,-19.5 771.5,-19.5 771.5,-0.5 695.5,-0.5"/>
<text text-anchor="middle" x="733.5" y="-7.5" font-family="Helvetica,sans-Serif" font-size="10.00">QToolButton</text>
</a>
</g>
</g>
<!-- Node2&#45;&gt;Node11 -->
<g id="edge10" class="edge">
<title>Node2&#45;&gt;Node11</title>
<path fill="none" stroke="midnightblue" d="M528.16,-56.44C570.76,-47.02 639.33,-31.84 685.38,-21.65"/>
<polygon fill="midnightblue" stroke="midnightblue" points="686.41,-25.01 695.42,-19.43 684.9,-18.17 686.41,-25.01"/>
</g>
<!-- Node12 -->
<g id="node12" class="node">
<title>Node12</title>
<g id="a_node12"><a xlink:title=" ">
<polygon fill="white" stroke="#bfbfbf" points="789.5,-0.5 789.5,-19.5 833.5,-19.5 833.5,-0.5 789.5,-0.5"/>
<text text-anchor="middle" x="811.5" y="-7.5" font-family="Helvetica,sans-Serif" font-size="10.00">QIcon</text>
</a>
</g>
</g>
<!-- Node2&#45;&gt;Node12 -->
<g id="edge11" class="edge">
<title>Node2&#45;&gt;Node12</title>
<path fill="none" stroke="midnightblue" d="M533.16,-57.52C536.32,-57 539.46,-56.49 542.5,-56 644.93,-39.56 674.25,-42.75 779.19,-20.05"/>
<polygon fill="midnightblue" stroke="midnightblue" points="780.22,-23.4 789.24,-17.85 778.72,-16.57 780.22,-23.4"/>
</g>
<!-- Node13 -->
<g id="node13" class="node">
<title>Node13</title>
<g id="a_node13"><a xlink:title=" ">
<polygon fill="white" stroke="#bfbfbf" points="851.5,-0.5 851.5,-19.5 943.5,-19.5 943.5,-0.5 851.5,-0.5"/>
<text text-anchor="middle" x="897.5" y="-7.5" font-family="Helvetica,sans-Serif" font-size="10.00">QFontDatabase</text>
</a>
</g>
</g>
<!-- Node2&#45;&gt;Node13 -->
<g id="edge12" class="edge">
<title>Node2&#45;&gt;Node13</title>
<path fill="none" stroke="midnightblue" d="M533.15,-57.41C536.31,-56.92 539.45,-56.44 542.5,-56 672.16,-37.22 707.81,-38.76 841.11,-20.14"/>
<polygon fill="midnightblue" stroke="midnightblue" points="841.89,-23.57 851.31,-18.71 840.92,-16.63 841.89,-23.57"/>
</g>
</g>
</svg>
