<?xml version="1.0" encoding="UTF-8" standalone="no"?>
<!DOCTYPE svg PUBLIC "-//W3C//DTD SVG 1.1//EN"
 "http://www.w3.org/Graphics/SVG/1.1/DTD/svg11.dtd">
<!-- Generated by graphviz version 2.43.0 (0)
 -->
<!-- Title: tools/maintain/maintain.cpp Pages: 1 -->
<svg width="561pt" height="207pt"
 viewBox="0.00 0.00 561.00 207.00" xmlns="http://www.w3.org/2000/svg" xmlns:xlink="http://www.w3.org/1999/xlink">
<g id="graph0" class="graph" transform="scale(1 1) rotate(0) translate(4 203)">
<title>tools/maintain/maintain.cpp</title>
<polygon fill="white" stroke="transparent" points="-4,4 -4,-203 557,-203 557,4 -4,4"/>
<!-- Node1 -->
<g id="node1" class="node">
<title>Node1</title>
<g id="a_node1"><a xlink:title="mmCEsim Maintainence Tool">
<polygon fill="#bfbfbf" stroke="black" points="170,-179.5 170,-198.5 324,-198.5 324,-179.5 170,-179.5"/>
<text text-anchor="middle" x="247" y="-186.5" font-family="Helvetica,sans-Serif" font-size="10.00">tools/maintain/maintain.cpp</text>
</a>
</g>
</g>
<!-- Node2 -->
<g id="node2" class="node">
<title>Node2</title>
<g id="a_node2"><a xlink:href="maintain_8h.html" target="_top" xlink:title="mmCEsim Maintainence Functions">
<polygon fill="white" stroke="black" points="149.5,-118 149.5,-137 218.5,-137 218.5,-118 149.5,-118"/>
<text text-anchor="middle" x="184" y="-125" font-family="Helvetica,sans-Serif" font-size="10.00">maintain.h</text>
</a>
</g>
</g>
<!-- Node1&#45;&gt;Node2 -->
<g id="edge1" class="edge">
<title>Node1&#45;&gt;Node2</title>
<path fill="none" stroke="midnightblue" d="M237.97,-179.48C228.24,-170.28 212.54,-155.46 200.58,-144.16"/>
<polygon fill="midnightblue" stroke="midnightblue" points="202.68,-141.33 193.01,-137.01 197.88,-146.42 202.68,-141.33"/>
</g>
<!-- Node3 -->
<g id="node3" class="node">
<title>Node3</title>
<g id="a_node3"><a xlink:href="__boost__config_8h.html" target="_top" xlink:title="Boost Configurations.">
<polygon fill="white" stroke="black" points="0,-56.5 0,-75.5 92,-75.5 92,-56.5 0,-56.5"/>
<text text-anchor="middle" x="46" y="-63.5" font-family="Helvetica,sans-Serif" font-size="10.00">_boost_config.h</text>
</a>
</g>
</g>
<!-- Node1&#45;&gt;Node3 -->
<g id="edge8" class="edge">
<title>Node1&#45;&gt;Node3</title>
<path fill="none" stroke="midnightblue" d="M221.65,-179.47C199.57,-171.52 167.09,-158.57 141,-143 111.27,-125.26 80.67,-99.08 62.5,-82.54"/>
<polygon fill="midnightblue" stroke="midnightblue" points="64.79,-79.9 55.07,-75.69 60.05,-85.04 64.79,-79.9"/>
</g>
<!-- Node9 -->
<g id="node9" class="node">
<title>Node9</title>
<g id="a_node9"><a xlink:title=" ">
<polygon fill="white" stroke="#bfbfbf" points="237,-112.5 237,-142.5 385,-142.5 385,-112.5 237,-112.5"/>
<text text-anchor="start" x="245" y="-130.5" font-family="Helvetica,sans-Serif" font-size="10.00">boost/exception/diagnostic</text>
<text text-anchor="middle" x="311" y="-119.5" font-family="Helvetica,sans-Serif" font-size="10.00">_information.hpp</text>
</a>
</g>
</g>
<!-- Node1&#45;&gt;Node9 -->
<g id="edge9" class="edge">
<title>Node1&#45;&gt;Node9</title>
<path fill="none" stroke="midnightblue" d="M256.17,-179.48C264.59,-171.64 277.42,-159.71 288.56,-149.37"/>
<polygon fill="midnightblue" stroke="midnightblue" points="290.98,-151.9 295.92,-142.52 286.21,-146.77 290.98,-151.9"/>
</g>
<!-- Node10 -->
<g id="node10" class="node">
<title>Node10</title>
<g id="a_node10"><a xlink:title=" ">
<polygon fill="white" stroke="#bfbfbf" points="403,-118 403,-137 553,-137 553,-118 403,-118"/>
<text text-anchor="middle" x="478" y="-125" font-family="Helvetica,sans-Serif" font-size="10.00">boost/program_options.hpp</text>
</a>
</g>
</g>
<!-- Node1&#45;&gt;Node10 -->
<g id="edge10" class="edge">
<title>Node1&#45;&gt;Node10</title>
<path fill="none" stroke="midnightblue" d="M280.1,-179.48C320.92,-168.96 390.41,-151.06 435.24,-139.51"/>
<polygon fill="midnightblue" stroke="midnightblue" points="436.15,-142.89 444.96,-137.01 434.41,-136.11 436.15,-142.89"/>
</g>
<!-- Node2&#45;&gt;Node3 -->
<g id="edge2" class="edge">
<title>Node2&#45;&gt;Node3</title>
<path fill="none" stroke="midnightblue" d="M164.23,-117.98C140.86,-107.9 101.79,-91.05 75,-79.5"/>
<polygon fill="midnightblue" stroke="midnightblue" points="76.3,-76.25 65.74,-75.51 73.53,-82.68 76.3,-76.25"/>
</g>
<!-- Node4 -->
<g id="node4" class="node">
<title>Node4</title>
<g id="a_node4"><a xlink:href="meta_8h.html" target="_top" xlink:title="mmCEsim meta data">
<polygon fill="white" stroke="black" points="110.5,-56.5 110.5,-75.5 161.5,-75.5 161.5,-56.5 110.5,-56.5"/>
<text text-anchor="middle" x="136" y="-63.5" font-family="Helvetica,sans-Serif" font-size="10.00">meta.h</text>
</a>
</g>
</g>
<!-- Node2&#45;&gt;Node4 -->
<g id="edge3" class="edge">
<title>Node2&#45;&gt;Node4</title>
<path fill="none" stroke="midnightblue" d="M177.12,-117.98C169.85,-108.96 158.2,-94.52 149.16,-83.31"/>
<polygon fill="midnightblue" stroke="midnightblue" points="151.87,-81.09 142.86,-75.51 146.42,-85.49 151.87,-81.09"/>
</g>
<!-- Node6 -->
<g id="node6" class="node">
<title>Node6</title>
<g id="a_node6"><a xlink:title=" ">
<polygon fill="white" stroke="#bfbfbf" points="179.5,-56.5 179.5,-75.5 284.5,-75.5 284.5,-56.5 179.5,-56.5"/>
<text text-anchor="middle" x="232" y="-63.5" font-family="Helvetica,sans-Serif" font-size="10.00">boost/process.hpp</text>
</a>
</g>
</g>
<!-- Node2&#45;&gt;Node6 -->
<g id="edge5" class="edge">
<title>Node2&#45;&gt;Node6</title>
<path fill="none" stroke="midnightblue" d="M190.88,-117.98C198.15,-108.96 209.8,-94.52 218.84,-83.31"/>
<polygon fill="midnightblue" stroke="midnightblue" points="221.58,-85.49 225.14,-75.51 216.13,-81.09 221.58,-85.49"/>
</g>
<!-- Node7 -->
<g id="node7" class="node">
<title>Node7</title>
<g id="a_node7"><a xlink:title=" ">
<polygon fill="white" stroke="#bfbfbf" points="302.5,-56.5 302.5,-75.5 357.5,-75.5 357.5,-56.5 302.5,-56.5"/>
<text text-anchor="middle" x="330" y="-63.5" font-family="Helvetica,sans-Serif" font-size="10.00">fstream</text>
</a>
</g>
</g>
<!-- Node2&#45;&gt;Node7 -->
<g id="edge6" class="edge">
<title>Node2&#45;&gt;Node7</title>
<path fill="none" stroke="midnightblue" d="M204.92,-117.98C229.75,-107.86 271.34,-90.9 299.69,-79.35"/>
<polygon fill="midnightblue" stroke="midnightblue" points="301.18,-82.52 309.12,-75.51 298.54,-76.04 301.18,-82.52"/>
</g>
<!-- Node8 -->
<g id="node8" class="node">
<title>Node8</title>
<g id="a_node8"><a xlink:title=" ">
<polygon fill="white" stroke="#bfbfbf" points="376,-56.5 376,-75.5 436,-75.5 436,-56.5 376,-56.5"/>
<text text-anchor="middle" x="406" y="-63.5" font-family="Helvetica,sans-Serif" font-size="10.00">iostream</text>
</a>
</g>
</g>
<!-- Node2&#45;&gt;Node8 -->
<g id="edge7" class="edge">
<title>Node2&#45;&gt;Node8</title>
<path fill="none" stroke="midnightblue" d="M209.03,-117.91C215.21,-115.89 221.82,-113.8 228,-112 274.94,-98.35 329.52,-84.91 365.74,-76.32"/>
<polygon fill="midnightblue" stroke="midnightblue" points="366.98,-79.62 375.91,-73.92 365.37,-72.81 366.98,-79.62"/>
</g>
<!-- Node5 -->
<g id="node5" class="node">
<title>Node5</title>
<g id="a_node5"><a xlink:title=" ">
<polygon fill="white" stroke="#bfbfbf" points="114,-0.5 114,-19.5 158,-19.5 158,-0.5 114,-0.5"/>
<text text-anchor="middle" x="136" y="-7.5" font-family="Helvetica,sans-Serif" font-size="10.00">string</text>
</a>
</g>
</g>
<!-- Node4&#45;&gt;Node5 -->
<g id="edge4" class="edge">
<title>Node4&#45;&gt;Node5</title>
<path fill="none" stroke="midnightblue" d="M136,-56.08C136,-49.01 136,-38.86 136,-29.99"/>
<polygon fill="midnightblue" stroke="midnightblue" points="139.5,-29.75 136,-19.75 132.5,-29.75 139.5,-29.75"/>
</g>
</g>
</svg>
