<?xml version="1.0" encoding="UTF-8" standalone="no"?>
<!DOCTYPE svg PUBLIC "-//W3C//DTD SVG 1.1//EN"
 "http://www.w3.org/Graphics/SVG/1.1/DTD/svg11.dtd">
<!-- Generated by graphviz version 2.43.0 (0)
 -->
<!-- Title: tools/maintain/maintain.h Pages: 1 -->
<svg width="334pt" height="140pt"
 viewBox="0.00 0.00 333.50 140.00" xmlns="http://www.w3.org/2000/svg" xmlns:xlink="http://www.w3.org/1999/xlink">
<g id="graph0" class="graph" transform="scale(1 1) rotate(0) translate(4 136)">
<title>tools/maintain/maintain.h</title>
<polygon fill="white" stroke="transparent" points="-4,4 -4,-136 329.5,-136 329.5,4 -4,4"/>
<!-- Node1 -->
<g id="node1" class="node">
<title>Node1</title>
<g id="a_node1"><a xlink:title="mmCEsim Maintainence Functions">
<polygon fill="#bfbfbf" stroke="black" points="99,-112.5 99,-131.5 242,-131.5 242,-112.5 99,-112.5"/>
<text text-anchor="middle" x="170.5" y="-119.5" font-family="Helvetica,sans-Serif" font-size="10.00">tools/maintain/maintain.h</text>
</a>
</g>
</g>
<!-- Node2 -->
<g id="node2" class="node">
<title>Node2</title>
<g id="a_node2"><a xlink:href="meta_8h.html" target="_top" xlink:title="mmCEsim meta data">
<polygon fill="white" stroke="black" points="0,-56.5 0,-75.5 51,-75.5 51,-56.5 0,-56.5"/>
<text text-anchor="middle" x="25.5" y="-63.5" font-family="Helvetica,sans-Serif" font-size="10.00">meta.h</text>
</a>
</g>
</g>
<!-- Node1&#45;&gt;Node2 -->
<g id="edge1" class="edge">
<title>Node1&#45;&gt;Node2</title>
<path fill="none" stroke="midnightblue" d="M147.52,-112.44C123.34,-103.44 85.08,-89.19 57.85,-79.05"/>
<polygon fill="midnightblue" stroke="midnightblue" points="58.96,-75.73 48.37,-75.52 56.52,-82.29 58.96,-75.73"/>
</g>
<!-- Node4 -->
<g id="node4" class="node">
<title>Node4</title>
<g id="a_node4"><a xlink:title=" ">
<polygon fill="white" stroke="#bfbfbf" points="69,-56.5 69,-75.5 174,-75.5 174,-56.5 69,-56.5"/>
<text text-anchor="middle" x="121.5" y="-63.5" font-family="Helvetica,sans-Serif" font-size="10.00">boost/process.hpp</text>
</a>
</g>
</g>
<!-- Node1&#45;&gt;Node4 -->
<g id="edge3" class="edge">
<title>Node1&#45;&gt;Node4</title>
<path fill="none" stroke="midnightblue" d="M162.41,-112.08C155.34,-104.3 144.91,-92.8 136.35,-83.37"/>
<polygon fill="midnightblue" stroke="midnightblue" points="138.75,-80.8 129.44,-75.75 133.57,-85.51 138.75,-80.8"/>
</g>
<!-- Node5 -->
<g id="node5" class="node">
<title>Node5</title>
<g id="a_node5"><a xlink:title=" ">
<polygon fill="white" stroke="#bfbfbf" points="192,-56.5 192,-75.5 247,-75.5 247,-56.5 192,-56.5"/>
<text text-anchor="middle" x="219.5" y="-63.5" font-family="Helvetica,sans-Serif" font-size="10.00">fstream</text>
</a>
</g>
</g>
<!-- Node1&#45;&gt;Node5 -->
<g id="edge4" class="edge">
<title>Node1&#45;&gt;Node5</title>
<path fill="none" stroke="midnightblue" d="M178.59,-112.08C185.66,-104.3 196.09,-92.8 204.65,-83.37"/>
<polygon fill="midnightblue" stroke="midnightblue" points="207.43,-85.51 211.56,-75.75 202.25,-80.8 207.43,-85.51"/>
</g>
<!-- Node6 -->
<g id="node6" class="node">
<title>Node6</title>
<g id="a_node6"><a xlink:title=" ">
<polygon fill="white" stroke="#bfbfbf" points="265.5,-56.5 265.5,-75.5 325.5,-75.5 325.5,-56.5 265.5,-56.5"/>
<text text-anchor="middle" x="295.5" y="-63.5" font-family="Helvetica,sans-Serif" font-size="10.00">iostream</text>
</a>
</g>
</g>
<!-- Node1&#45;&gt;Node6 -->
<g id="edge5" class="edge">
<title>Node1&#45;&gt;Node6</title>
<path fill="none" stroke="midnightblue" d="M190.31,-112.44C210.79,-103.6 242.98,-89.69 266.36,-79.59"/>
<polygon fill="midnightblue" stroke="midnightblue" points="267.99,-82.7 275.79,-75.52 265.22,-76.27 267.99,-82.7"/>
</g>
<!-- Node3 -->
<g id="node3" class="node">
<title>Node3</title>
<g id="a_node3"><a xlink:title=" ">
<polygon fill="white" stroke="#bfbfbf" points="3.5,-0.5 3.5,-19.5 47.5,-19.5 47.5,-0.5 3.5,-0.5"/>
<text text-anchor="middle" x="25.5" y="-7.5" font-family="Helvetica,sans-Serif" font-size="10.00">string</text>
</a>
</g>
</g>
<!-- Node2&#45;&gt;Node3 -->
<g id="edge2" class="edge">
<title>Node2&#45;&gt;Node3</title>
<path fill="none" stroke="midnightblue" d="M25.5,-56.08C25.5,-49.01 25.5,-38.86 25.5,-29.99"/>
<polygon fill="midnightblue" stroke="midnightblue" points="29,-29.75 25.5,-19.75 22,-29.75 29,-29.75"/>
</g>
</g>
</svg>
