<?xml version="1.0" encoding="UTF-8" standalone="no"?>
<!DOCTYPE svg PUBLIC "-//W3C//DTD SVG 1.1//EN"
 "http://www.w3.org/Graphics/SVG/1.1/DTD/svg11.dtd">
<!-- Generated by graphviz version 2.43.0 (0)
 -->
<!-- Title: include/meta.h Pages: 1 -->
<svg width="1635pt" height="498pt"
 viewBox="0.00 0.00 1635.00 498.00" xmlns="http://www.w3.org/2000/svg" xmlns:xlink="http://www.w3.org/1999/xlink">
<g id="graph0" class="graph" transform="scale(1 1) rotate(0) translate(4 494)">
<title>include/meta.h</title>
<polygon fill="white" stroke="transparent" points="-4,4 -4,-494 1631,-494 1631,4 -4,4"/>
<!-- Node1 -->
<g id="node1" class="node">
<title>Node1</title>
<g id="a_node1"><a xlink:title="mmCEsim meta data">
<polygon fill="#bfbfbf" stroke="black" points="700.5,-470.5 700.5,-489.5 789.5,-489.5 789.5,-470.5 700.5,-470.5"/>
<text text-anchor="middle" x="745" y="-477.5" font-family="Helvetica,sans-Serif" font-size="10.00">include/meta.h</text>
</a>
</g>
</g>
<!-- Node2 -->
<g id="node2" class="node">
<title>Node2</title>
<g id="a_node2"><a xlink:href="error__code_8h.html" target="_top" xlink:title="Error Codes (Including Warnings)">
<polygon fill="white" stroke="black" points="292,-168.5 292,-187.5 408,-187.5 408,-168.5 292,-168.5"/>
<text text-anchor="middle" x="350" y="-175.5" font-family="Helvetica,sans-Serif" font-size="10.00">include/error_code.h</text>
</a>
</g>
</g>
<!-- Node1&#45;&gt;Node2 -->
<g id="edge1" class="edge">
<title>Node1&#45;&gt;Node2</title>
<path fill="none" stroke="midnightblue" d="M690.14,-474.8C540.97,-462.65 139,-424.73 139,-369 139,-369 139,-369 139,-305.5 139,-268.31 131.72,-250.32 158,-224 176.63,-205.35 242.33,-192.85 291.72,-185.86"/>
<polygon fill="midnightblue" stroke="midnightblue" points="690.19,-478.32 700.44,-475.63 690.75,-471.34 690.19,-478.32"/>
</g>
<!-- Node5 -->
<g id="node5" class="node">
<title>Node5</title>
<g id="a_node5"><a xlink:href="src_2main_8cpp.html" target="_top" xlink:title="Program Command Line Options.">
<polygon fill="white" stroke="black" points="954.5,-0.5 954.5,-19.5 1033.5,-19.5 1033.5,-0.5 954.5,-0.5"/>
<text text-anchor="middle" x="994" y="-7.5" font-family="Helvetica,sans-Serif" font-size="10.00">src/main.cpp</text>
</a>
</g>
</g>
<!-- Node1&#45;&gt;Node5 -->
<g id="edge44" class="edge">
<title>Node1&#45;&gt;Node5</title>
<path fill="none" stroke="midnightblue" d="M799.9,-474.42C945.25,-461.56 1329,-422.53 1329,-369 1329,-369 1329,-369 1329,-121 1329,-72.02 1285,-75.34 1240,-56 1171.39,-26.52 1083.93,-16.34 1033.92,-12.83"/>
<polygon fill="midnightblue" stroke="midnightblue" points="799.51,-470.94 789.86,-475.3 800.12,-477.91 799.51,-470.94"/>
</g>
<!-- Node6 -->
<g id="node6" class="node">
<title>Node6</title>
<g id="a_node6"><a xlink:href="read_8h.html" target="_top" xlink:title="Read YAML Configuration.">
<polygon fill="white" stroke="black" points="0,-112.5 0,-131.5 86,-131.5 86,-112.5 0,-112.5"/>
<text text-anchor="middle" x="43" y="-119.5" font-family="Helvetica,sans-Serif" font-size="10.00">include/read.h</text>
</a>
</g>
</g>
<!-- Node1&#45;&gt;Node6 -->
<g id="edge43" class="edge">
<title>Node1&#45;&gt;Node6</title>
<path fill="none" stroke="midnightblue" d="M690.11,-478.81C596.17,-477.46 399.01,-470.1 237,-434 154.8,-415.68 59,-453.22 59,-369 59,-369 59,-369 59,-238.5 59,-198.22 49.33,-150.77 45.03,-131.64"/>
<polygon fill="midnightblue" stroke="midnightblue" points="690.19,-482.31 700.23,-478.94 690.28,-475.31 690.19,-482.31"/>
</g>
<!-- Node10 -->
<g id="node10" class="node">
<title>Node10</title>
<g id="a_node10"><a xlink:href="macro_8h.html" target="_top" xlink:title="ALG Macro.">
<polygon fill="white" stroke="black" points="320.5,-297 320.5,-316 449.5,-316 449.5,-297 320.5,-297"/>
<text text-anchor="middle" x="385" y="-304" font-family="Helvetica,sans-Serif" font-size="10.00">include/export/macro.h</text>
</a>
</g>
</g>
<!-- Node1&#45;&gt;Node10 -->
<g id="edge12" class="edge">
<title>Node1&#45;&gt;Node10</title>
<path fill="none" stroke="midnightblue" d="M718.06,-466.17C648.04,-432.81 461.65,-344.02 402.96,-316.06"/>
<polygon fill="midnightblue" stroke="midnightblue" points="716.61,-469.35 727.15,-470.5 719.62,-463.03 716.61,-469.35"/>
</g>
<!-- Node14 -->
<g id="node14" class="node">
<title>Node14</title>
<g id="a_node14"><a xlink:href="include_2log_8h.html" target="_top" xlink:title="Log Utilities.">
<polygon fill="white" stroke="black" points="705.5,-414.5 705.5,-433.5 784.5,-433.5 784.5,-414.5 705.5,-414.5"/>
<text text-anchor="middle" x="745" y="-421.5" font-family="Helvetica,sans-Serif" font-size="10.00">include/log.h</text>
</a>
</g>
</g>
<!-- Node1&#45;&gt;Node14 -->
<g id="edge17" class="edge">
<title>Node1&#45;&gt;Node14</title>
<path fill="none" stroke="midnightblue" d="M745,-459.8C745,-450.91 745,-440.78 745,-433.75"/>
<polygon fill="midnightblue" stroke="midnightblue" points="741.5,-460.08 745,-470.08 748.5,-460.08 741.5,-460.08"/>
</g>
<!-- Node30 -->
<g id="node30" class="node">
<title>Node30</title>
<g id="a_node30"><a xlink:href="tools_2log_2log_8h.html" target="_top" xlink:title="mmCEsim Log Tool">
<polygon fill="white" stroke="black" points="1360,-414.5 1360,-433.5 1446,-433.5 1446,-414.5 1360,-414.5"/>
<text text-anchor="middle" x="1403" y="-421.5" font-family="Helvetica,sans-Serif" font-size="10.00">tools/log/log.h</text>
</a>
</g>
</g>
<!-- Node1&#45;&gt;Node30 -->
<g id="edge45" class="edge">
<title>Node1&#45;&gt;Node30</title>
<path fill="none" stroke="midnightblue" d="M799.82,-476.23C905.26,-470.61 1143.5,-456.44 1343,-434 1348.44,-433.39 1354.15,-432.65 1359.79,-431.87"/>
<polygon fill="midnightblue" stroke="midnightblue" points="799.54,-472.74 789.74,-476.76 799.91,-479.73 799.54,-472.74"/>
</g>
<!-- Node32 -->
<g id="node32" class="node">
<title>Node32</title>
<g id="a_node32"><a xlink:href="maintain_8h.html" target="_top" xlink:title="mmCEsim Maintainence Functions">
<polygon fill="white" stroke="black" points="1471.5,-414.5 1471.5,-433.5 1614.5,-433.5 1614.5,-414.5 1471.5,-414.5"/>
<text text-anchor="middle" x="1543" y="-421.5" font-family="Helvetica,sans-Serif" font-size="10.00">tools/maintain/maintain.h</text>
</a>
</g>
</g>
<!-- Node1&#45;&gt;Node32 -->
<g id="edge47" class="edge">
<title>Node1&#45;&gt;Node32</title>
<path fill="none" stroke="midnightblue" d="M800.25,-476.23C919.77,-470.07 1211.25,-454.18 1455,-434 1460.36,-433.56 1465.89,-433.07 1471.46,-432.55"/>
<polygon fill="midnightblue" stroke="midnightblue" points="799.71,-472.75 789.9,-476.76 800.07,-479.74 799.71,-472.75"/>
</g>
<!-- Node3 -->
<g id="node3" class="node">
<title>Node3</title>
<g id="a_node3"><a xlink:href="export_8h.html" target="_top" xlink:title="Export mmCEsim Configuration to Other Programming Languages.">
<polygon fill="white" stroke="black" points="286.5,-56.5 286.5,-75.5 381.5,-75.5 381.5,-56.5 286.5,-56.5"/>
<text text-anchor="middle" x="334" y="-63.5" font-family="Helvetica,sans-Serif" font-size="10.00">include/export.h</text>
</a>
</g>
</g>
<!-- Node2&#45;&gt;Node3 -->
<g id="edge2" class="edge">
<title>Node2&#45;&gt;Node3</title>
<path fill="none" stroke="midnightblue" d="M347.29,-158.35C343.78,-134.25 337.83,-93.31 335.25,-75.59"/>
<polygon fill="midnightblue" stroke="midnightblue" points="343.84,-158.98 348.74,-168.37 350.77,-157.97 343.84,-158.98"/>
</g>
<!-- Node2&#45;&gt;Node5 -->
<g id="edge11" class="edge">
<title>Node2&#45;&gt;Node5</title>
<path fill="none" stroke="midnightblue" d="M405.03,-166.08C432.49,-159.06 465.43,-148.15 492,-132 532.82,-107.19 524.89,-76.58 568,-56 635.79,-23.65 861.83,-14.33 954.18,-11.84"/>
<polygon fill="midnightblue" stroke="midnightblue" points="404.06,-162.72 395.19,-168.5 405.73,-169.51 404.06,-162.72"/>
</g>
<!-- Node2&#45;&gt;Node6 -->
<g id="edge5" class="edge">
<title>Node2&#45;&gt;Node6</title>
<path fill="none" stroke="midnightblue" d="M291.3,-166.68C231.48,-156.15 140.08,-140.08 86.45,-130.64"/>
<polygon fill="midnightblue" stroke="midnightblue" points="290.9,-170.16 301.35,-168.44 292.11,-163.26 290.9,-170.16"/>
</g>
<!-- Node8 -->
<g id="node8" class="node">
<title>Node8</title>
<g id="a_node8"><a xlink:href="style_8h.html" target="_top" xlink:title="Format Output File.">
<polygon fill="white" stroke="black" points="395,-112.5 395,-131.5 483,-131.5 483,-112.5 395,-112.5"/>
<text text-anchor="middle" x="439" y="-119.5" font-family="Helvetica,sans-Serif" font-size="10.00">include/style.h</text>
</a>
</g>
</g>
<!-- Node2&#45;&gt;Node8 -->
<g id="edge8" class="edge">
<title>Node2&#45;&gt;Node8</title>
<path fill="none" stroke="midnightblue" d="M373.24,-162.9C389.56,-153 410.87,-140.07 424.74,-131.65"/>
<polygon fill="midnightblue" stroke="midnightblue" points="371.03,-160.14 364.3,-168.32 374.66,-166.13 371.03,-160.14"/>
</g>
<!-- Node4 -->
<g id="node4" class="node">
<title>Node4</title>
<g id="a_node4"><a xlink:href="export_8cpp.html" target="_top" xlink:title="Implementation of Export Class.">
<polygon fill="white" stroke="black" points="291,-0.5 291,-19.5 377,-19.5 377,-0.5 291,-0.5"/>
<text text-anchor="middle" x="334" y="-7.5" font-family="Helvetica,sans-Serif" font-size="10.00">src/export.cpp</text>
</a>
</g>
</g>
<!-- Node3&#45;&gt;Node4 -->
<g id="edge3" class="edge">
<title>Node3&#45;&gt;Node4</title>
<path fill="none" stroke="midnightblue" d="M334,-45.8C334,-36.91 334,-26.78 334,-19.75"/>
<polygon fill="midnightblue" stroke="midnightblue" points="330.5,-46.08 334,-56.08 337.5,-46.08 330.5,-46.08"/>
</g>
<!-- Node3&#45;&gt;Node5 -->
<g id="edge4" class="edge">
<title>Node3&#45;&gt;Node5</title>
<path fill="none" stroke="midnightblue" d="M391.61,-56.03C610.37,-31.01 859.28,-17.46 954.38,-12.83"/>
<polygon fill="midnightblue" stroke="midnightblue" points="391.08,-52.57 381.55,-57.19 391.88,-59.52 391.08,-52.57"/>
</g>
<!-- Node6&#45;&gt;Node3 -->
<g id="edge6" class="edge">
<title>Node6&#45;&gt;Node3</title>
<path fill="none" stroke="midnightblue" d="M96.15,-111.14C151.09,-100.94 235.99,-85.19 288.11,-75.52"/>
<polygon fill="midnightblue" stroke="midnightblue" points="95.44,-107.71 86.25,-112.97 96.72,-114.59 95.44,-107.71"/>
</g>
<!-- Node7 -->
<g id="node7" class="node">
<title>Node7</title>
<g id="a_node7"><a xlink:href="read_8cpp.html" target="_top" xlink:title="Implementation of class YAML_Error and ReadConfig.">
<polygon fill="white" stroke="black" points="5,-56.5 5,-75.5 81,-75.5 81,-56.5 5,-56.5"/>
<text text-anchor="middle" x="43" y="-63.5" font-family="Helvetica,sans-Serif" font-size="10.00">src/read.cpp</text>
</a>
</g>
</g>
<!-- Node6&#45;&gt;Node7 -->
<g id="edge7" class="edge">
<title>Node6&#45;&gt;Node7</title>
<path fill="none" stroke="midnightblue" d="M43,-101.8C43,-92.91 43,-82.78 43,-75.75"/>
<polygon fill="midnightblue" stroke="midnightblue" points="39.5,-102.08 43,-112.08 46.5,-102.08 39.5,-102.08"/>
</g>
<!-- Node8&#45;&gt;Node5 -->
<g id="edge9" class="edge">
<title>Node8&#45;&gt;Node5</title>
<path fill="none" stroke="midnightblue" d="M455.02,-105.48C472.08,-90.01 500.63,-67 530,-56 607.4,-27 856.66,-15.63 954.27,-12.22"/>
<polygon fill="midnightblue" stroke="midnightblue" points="452.54,-103.01 447.62,-112.39 457.32,-108.13 452.54,-103.01"/>
</g>
<!-- Node9 -->
<g id="node9" class="node">
<title>Node9</title>
<g id="a_node9"><a xlink:href="style_8cpp.html" target="_top" xlink:title="Implementation of Style class.">
<polygon fill="white" stroke="black" points="400,-56.5 400,-75.5 478,-75.5 478,-56.5 400,-56.5"/>
<text text-anchor="middle" x="439" y="-63.5" font-family="Helvetica,sans-Serif" font-size="10.00">src/style.cpp</text>
</a>
</g>
</g>
<!-- Node8&#45;&gt;Node9 -->
<g id="edge10" class="edge">
<title>Node8&#45;&gt;Node9</title>
<path fill="none" stroke="midnightblue" d="M439,-101.8C439,-92.91 439,-82.78 439,-75.75"/>
<polygon fill="midnightblue" stroke="midnightblue" points="435.5,-102.08 439,-112.08 442.5,-102.08 435.5,-102.08"/>
</g>
<!-- Node11 -->
<g id="node11" class="node">
<title>Node11</title>
<g id="a_node11"><a xlink:href="alg_8h.html" target="_top" xlink:title="Algorithm Parser (.alg Language)">
<polygon fill="white" stroke="black" points="572.5,-112.5 572.5,-131.5 685.5,-131.5 685.5,-112.5 572.5,-112.5"/>
<text text-anchor="middle" x="629" y="-119.5" font-family="Helvetica,sans-Serif" font-size="10.00">include/export/alg.h</text>
</a>
</g>
</g>
<!-- Node10&#45;&gt;Node11 -->
<g id="edge13" class="edge">
<title>Node10&#45;&gt;Node11</title>
<path fill="none" stroke="midnightblue" d="M404.62,-290.83C453.4,-254.34 579.04,-160.37 617.58,-131.54"/>
<polygon fill="midnightblue" stroke="midnightblue" points="402.35,-288.15 396.44,-296.94 406.55,-293.76 402.35,-288.15"/>
</g>
<!-- Node13 -->
<g id="node13" class="node">
<title>Node13</title>
<g id="a_node13"><a xlink:href="macro_8cpp.html" target="_top" xlink:title="Implementation of Macro class.">
<polygon fill="white" stroke="black" points="292.5,-230 292.5,-249 411.5,-249 411.5,-230 292.5,-230"/>
<text text-anchor="middle" x="352" y="-237" font-family="Helvetica,sans-Serif" font-size="10.00">src/export/macro.cpp</text>
</a>
</g>
</g>
<!-- Node10&#45;&gt;Node13 -->
<g id="edge16" class="edge">
<title>Node10&#45;&gt;Node13</title>
<path fill="none" stroke="midnightblue" d="M375.94,-287.66C369.58,-275.13 361.35,-258.91 356.38,-249.13"/>
<polygon fill="midnightblue" stroke="midnightblue" points="372.9,-289.4 380.55,-296.73 379.14,-286.23 372.9,-289.4"/>
</g>
<!-- Node11&#45;&gt;Node3 -->
<g id="edge14" class="edge">
<title>Node11&#45;&gt;Node3</title>
<path fill="none" stroke="midnightblue" d="M572.19,-110.6C516.44,-100.4 432.44,-85.02 380.52,-75.52"/>
<polygon fill="midnightblue" stroke="midnightblue" points="571.79,-114.09 582.26,-112.44 573.05,-107.2 571.79,-114.09"/>
</g>
<!-- Node12 -->
<g id="node12" class="node">
<title>Node12</title>
<g id="a_node12"><a xlink:href="alg_8cpp.html" target="_top" xlink:title="Implementation of class Alg.">
<polygon fill="white" stroke="black" points="577,-56.5 577,-75.5 681,-75.5 681,-56.5 577,-56.5"/>
<text text-anchor="middle" x="629" y="-63.5" font-family="Helvetica,sans-Serif" font-size="10.00">src/export/alg.cpp</text>
</a>
</g>
</g>
<!-- Node11&#45;&gt;Node12 -->
<g id="edge15" class="edge">
<title>Node11&#45;&gt;Node12</title>
<path fill="none" stroke="midnightblue" d="M629,-101.8C629,-92.91 629,-82.78 629,-75.75"/>
<polygon fill="midnightblue" stroke="midnightblue" points="625.5,-102.08 629,-112.08 632.5,-102.08 625.5,-102.08"/>
</g>
<!-- Node15 -->
<g id="node15" class="node">
<title>Node15</title>
<g id="a_node15"><a xlink:href="log__global_8h.html" target="_top" xlink:title="Global Access of Log.">
<polygon fill="white" stroke="black" points="688,-358.5 688,-377.5 802,-377.5 802,-358.5 688,-358.5"/>
<text text-anchor="middle" x="745" y="-365.5" font-family="Helvetica,sans-Serif" font-size="10.00">include/log_global.h</text>
</a>
</g>
</g>
<!-- Node14&#45;&gt;Node15 -->
<g id="edge18" class="edge">
<title>Node14&#45;&gt;Node15</title>
<path fill="none" stroke="midnightblue" d="M745,-403.8C745,-394.91 745,-384.78 745,-377.75"/>
<polygon fill="midnightblue" stroke="midnightblue" points="741.5,-404.08 745,-414.08 748.5,-404.08 741.5,-404.08"/>
</g>
<!-- Node15&#45;&gt;Node2 -->
<g id="edge25" class="edge">
<title>Node15&#45;&gt;Node2</title>
<path fill="none" stroke="midnightblue" d="M677.84,-357.07C641.56,-350.16 596.61,-339.06 559,-322 490.16,-290.78 482.69,-266.22 420,-224 400.71,-211.01 377.99,-196.56 363.79,-187.62"/>
<polygon fill="midnightblue" stroke="midnightblue" points="677.36,-360.54 687.83,-358.91 678.63,-353.65 677.36,-360.54"/>
</g>
<!-- Node15&#45;&gt;Node5 -->
<g id="edge41" class="edge">
<title>Node15&#45;&gt;Node5</title>
<path fill="none" stroke="midnightblue" d="M812.51,-365.62C922.51,-362.49 1134.97,-352.59 1203,-322 1251.62,-300.14 1291,-293.81 1291,-240.5 1291,-240.5 1291,-240.5 1291,-121 1291,-66.77 1114.68,-30.8 1033.75,-17.15"/>
<polygon fill="midnightblue" stroke="midnightblue" points="812.1,-362.13 802.2,-365.9 812.29,-369.12 812.1,-362.13"/>
</g>
<!-- Node15&#45;&gt;Node10 -->
<g id="edge35" class="edge">
<title>Node15&#45;&gt;Node10</title>
<path fill="none" stroke="midnightblue" d="M679.53,-356.95C622.54,-348.09 537.73,-334.67 464,-322 453.14,-320.13 441.46,-318.04 430.5,-316.03"/>
<polygon fill="midnightblue" stroke="midnightblue" points="679.07,-360.42 689.49,-358.49 680.14,-353.5 679.07,-360.42"/>
</g>
<!-- Node16 -->
<g id="node16" class="node">
<title>Node16</title>
<g id="a_node16"><a xlink:href="config_8h.html" target="_top" xlink:title="Read and Write User Configuration.">
<polygon fill="white" stroke="black" points="1101.5,-297 1101.5,-316 1194.5,-316 1194.5,-297 1101.5,-297"/>
<text text-anchor="middle" x="1148" y="-304" font-family="Helvetica,sans-Serif" font-size="10.00">include/config.h</text>
</a>
</g>
</g>
<!-- Node15&#45;&gt;Node16 -->
<g id="edge19" class="edge">
<title>Node15&#45;&gt;Node16</title>
<path fill="none" stroke="midnightblue" d="M812.26,-357.07C894.06,-344.99 1030.02,-324.92 1101.23,-314.4"/>
<polygon fill="midnightblue" stroke="midnightblue" points="811.69,-353.62 802.31,-358.54 812.72,-360.54 811.69,-353.62"/>
</g>
<!-- Node17 -->
<g id="node17" class="node">
<title>Node17</title>
<g id="a_node17"><a xlink:href="simulate_8h.html" target="_top" xlink:title="Simulate Generated Code.">
<polygon fill="white" stroke="black" points="1015.5,-230 1015.5,-249 1122.5,-249 1122.5,-230 1015.5,-230"/>
<text text-anchor="middle" x="1069" y="-237" font-family="Helvetica,sans-Serif" font-size="10.00">include/simulate.h</text>
</a>
</g>
</g>
<!-- Node15&#45;&gt;Node17 -->
<g id="edge40" class="edge">
<title>Node15&#45;&gt;Node17</title>
<path fill="none" stroke="midnightblue" d="M811.96,-358.94C853.02,-352.4 905.97,-341.05 950,-322 994.59,-302.71 1039.94,-265.85 1059.29,-249.13"/>
<polygon fill="midnightblue" stroke="midnightblue" points="811.41,-355.49 802.05,-360.46 812.47,-362.41 811.41,-355.49"/>
</g>
<!-- Node20 -->
<g id="node20" class="node">
<title>Node20</title>
<g id="a_node20"><a xlink:href="alg__line_8h.html" target="_top" xlink:title="Parse Line of Alg.">
<polygon fill="white" stroke="black" points="568,-291.5 568,-321.5 672,-321.5 672,-291.5 568,-291.5"/>
<text text-anchor="start" x="576" y="-309.5" font-family="Helvetica,sans-Serif" font-size="10.00">include/export/alg</text>
<text text-anchor="middle" x="620" y="-298.5" font-family="Helvetica,sans-Serif" font-size="10.00">_line.h</text>
</a>
</g>
</g>
<!-- Node15&#45;&gt;Node20 -->
<g id="edge26" class="edge">
<title>Node15&#45;&gt;Node20</title>
<path fill="none" stroke="midnightblue" d="M717.84,-354.07C697.66,-344.47 670.16,-331.38 649.46,-321.52"/>
<polygon fill="midnightblue" stroke="midnightblue" points="716.56,-357.34 727.09,-358.48 719.57,-351.02 716.56,-357.34"/>
</g>
<!-- Node22 -->
<g id="node22" class="node">
<title>Node22</title>
<g id="a_node22"><a xlink:href="calc_8h.html" target="_top" xlink:title="Make Calculation in Alg.">
<polygon fill="white" stroke="black" points="692,-168.5 692,-187.5 810,-187.5 810,-168.5 692,-168.5"/>
<text text-anchor="middle" x="751" y="-175.5" font-family="Helvetica,sans-Serif" font-size="10.00">include/export/calc.h</text>
</a>
</g>
</g>
<!-- Node15&#45;&gt;Node22 -->
<g id="edge29" class="edge">
<title>Node15&#45;&gt;Node22</title>
<path fill="none" stroke="midnightblue" d="M736.37,-349.33C724.2,-321.96 704.98,-267.91 719,-224 723.55,-209.75 734.44,-196.16 742.25,-187.71"/>
<polygon fill="midnightblue" stroke="midnightblue" points="733.21,-350.84 740.6,-358.43 739.56,-347.89 733.21,-350.84"/>
</g>
<!-- Node24 -->
<g id="node24" class="node">
<title>Node24</title>
<g id="a_node24"><a xlink:href="channel__graph_8h.html" target="_top" xlink:title="Graph Analysis for Complex Cascaded Channels.">
<polygon fill="white" stroke="black" points="167,-291.5 167,-321.5 295,-321.5 295,-291.5 167,-291.5"/>
<text text-anchor="start" x="175" y="-309.5" font-family="Helvetica,sans-Serif" font-size="10.00">include/export/channel</text>
<text text-anchor="middle" x="231" y="-298.5" font-family="Helvetica,sans-Serif" font-size="10.00">_graph.h</text>
</a>
</g>
</g>
<!-- Node15&#45;&gt;Node24 -->
<g id="edge32" class="edge">
<title>Node15&#45;&gt;Node24</title>
<path fill="none" stroke="midnightblue" d="M677.88,-361.63C592.43,-354.44 440.36,-340.4 311,-322 305.83,-321.26 300.48,-320.44 295.12,-319.56"/>
<polygon fill="midnightblue" stroke="midnightblue" points="677.7,-365.13 687.96,-362.48 678.29,-358.16 677.7,-365.13"/>
</g>
<!-- Node26 -->
<g id="node26" class="node">
<title>Node26</title>
<g id="a_node26"><a xlink:href="type__track_8h.html" target="_top" xlink:title="Track data type of variables.">
<polygon fill="white" stroke="black" points="735.5,-291.5 735.5,-321.5 846.5,-321.5 846.5,-291.5 735.5,-291.5"/>
<text text-anchor="start" x="743.5" y="-309.5" font-family="Helvetica,sans-Serif" font-size="10.00">include/export/type</text>
<text text-anchor="middle" x="791" y="-298.5" font-family="Helvetica,sans-Serif" font-size="10.00">_track.h</text>
</a>
</g>
</g>
<!-- Node15&#45;&gt;Node26 -->
<g id="edge36" class="edge">
<title>Node15&#45;&gt;Node26</title>
<path fill="none" stroke="midnightblue" d="M757.73,-350.53C764.78,-341.42 773.44,-330.21 780.16,-321.52"/>
<polygon fill="midnightblue" stroke="midnightblue" points="754.94,-348.42 751.59,-358.48 760.48,-352.7 754.94,-348.42"/>
</g>
<!-- Node29 -->
<g id="node29" class="node">
<title>Node29</title>
<g id="a_node29"><a xlink:href="term_8cpp.html" target="_top" xlink:title="Implementation of Term Class and Color/Style Definitions.">
<polygon fill="white" stroke="black" points="864.5,-297 864.5,-316 941.5,-316 941.5,-297 864.5,-297"/>
<text text-anchor="middle" x="903" y="-304" font-family="Helvetica,sans-Serif" font-size="10.00">src/term.cpp</text>
</a>
</g>
</g>
<!-- Node15&#45;&gt;Node29 -->
<g id="edge42" class="edge">
<title>Node15&#45;&gt;Node29</title>
<path fill="none" stroke="midnightblue" d="M777.04,-354.93C807.75,-343.37 853.32,-326.21 880.4,-316.01"/>
<polygon fill="midnightblue" stroke="midnightblue" points="775.76,-351.68 767.64,-358.48 778.23,-358.23 775.76,-351.68"/>
</g>
<!-- Node16&#45;&gt;Node5 -->
<g id="edge24" class="edge">
<title>Node16&#45;&gt;Node5</title>
<path fill="none" stroke="midnightblue" d="M1148.72,-286.81C1149.61,-262.12 1151,-217.31 1151,-179 1151,-179 1151,-179 1151,-121 1151,-62.76 1077.63,-32.74 1031.21,-19.58"/>
<polygon fill="midnightblue" stroke="midnightblue" points="1145.22,-286.79 1148.34,-296.91 1152.21,-287.05 1145.22,-286.79"/>
</g>
<!-- Node16&#45;&gt;Node17 -->
<g id="edge20" class="edge">
<title>Node16&#45;&gt;Node17</title>
<path fill="none" stroke="midnightblue" d="M1129.42,-290.21C1113.86,-277.41 1092.2,-259.59 1079.49,-249.13"/>
<polygon fill="midnightblue" stroke="midnightblue" points="1127.4,-293.08 1137.35,-296.73 1131.85,-287.68 1127.4,-293.08"/>
</g>
<!-- Node19 -->
<g id="node19" class="node">
<title>Node19</title>
<g id="a_node19"><a xlink:href="config_8cpp.html" target="_top" xlink:title="Implementation of Config Class.">
<polygon fill="white" stroke="black" points="1179.5,-230 1179.5,-249 1262.5,-249 1262.5,-230 1179.5,-230"/>
<text text-anchor="middle" x="1221" y="-237" font-family="Helvetica,sans-Serif" font-size="10.00">src/config.cpp</text>
</a>
</g>
</g>
<!-- Node16&#45;&gt;Node19 -->
<g id="edge23" class="edge">
<title>Node16&#45;&gt;Node19</title>
<path fill="none" stroke="midnightblue" d="M1165.57,-289.86C1179.92,-277.08 1199.67,-259.49 1211.31,-249.13"/>
<polygon fill="midnightblue" stroke="midnightblue" points="1162.99,-287.47 1157.85,-296.73 1167.64,-292.7 1162.99,-287.47"/>
</g>
<!-- Node17&#45;&gt;Node5 -->
<g id="edge21" class="edge">
<title>Node17&#45;&gt;Node5</title>
<path fill="none" stroke="midnightblue" d="M1046.24,-224.1C1034.26,-215.22 1020.52,-202.73 1013,-188 983.21,-129.64 989.73,-46.55 992.85,-19.72"/>
<polygon fill="midnightblue" stroke="midnightblue" points="1044.34,-227.04 1054.55,-229.9 1048.35,-221.3 1044.34,-227.04"/>
</g>
<!-- Node18 -->
<g id="node18" class="node">
<title>Node18</title>
<g id="a_node18"><a xlink:href="simulate_8cpp.html" target="_top" xlink:title="Implementation of Simulate Class.">
<polygon fill="white" stroke="black" points="1022.5,-168.5 1022.5,-187.5 1119.5,-187.5 1119.5,-168.5 1022.5,-168.5"/>
<text text-anchor="middle" x="1071" y="-175.5" font-family="Helvetica,sans-Serif" font-size="10.00">src/simulate.cpp</text>
</a>
</g>
</g>
<!-- Node17&#45;&gt;Node18 -->
<g id="edge22" class="edge">
<title>Node17&#45;&gt;Node18</title>
<path fill="none" stroke="midnightblue" d="M1069.63,-219.82C1069.99,-209 1070.43,-195.9 1070.71,-187.51"/>
<polygon fill="midnightblue" stroke="midnightblue" points="1066.12,-219.86 1069.29,-229.98 1073.12,-220.1 1066.12,-219.86"/>
</g>
<!-- Node20&#45;&gt;Node11 -->
<g id="edge27" class="edge">
<title>Node20&#45;&gt;Node11</title>
<path fill="none" stroke="midnightblue" d="M632.47,-282.32C636.33,-273.96 640.07,-264.29 642,-255 651.54,-209.24 637.77,-153.05 631.67,-131.75"/>
<polygon fill="midnightblue" stroke="midnightblue" points="629.26,-280.92 628,-291.44 635.55,-284 629.26,-280.92"/>
</g>
<!-- Node21 -->
<g id="node21" class="node">
<title>Node21</title>
<g id="a_node21"><a xlink:href="alg__line_8cpp.html" target="_top" xlink:title="Implementation of Alg_Line Class.">
<polygon fill="white" stroke="black" points="506.5,-230 506.5,-249 633.5,-249 633.5,-230 506.5,-230"/>
<text text-anchor="middle" x="570" y="-237" font-family="Helvetica,sans-Serif" font-size="10.00">src/export/alg_line.cpp</text>
</a>
</g>
</g>
<!-- Node20&#45;&gt;Node21 -->
<g id="edge28" class="edge">
<title>Node20&#45;&gt;Node21</title>
<path fill="none" stroke="midnightblue" d="M602.94,-283.32C593.92,-271.6 583.37,-257.88 576.69,-249.19"/>
<polygon fill="midnightblue" stroke="midnightblue" points="600.28,-285.6 609.15,-291.4 605.83,-281.34 600.28,-285.6"/>
</g>
<!-- Node22&#45;&gt;Node11 -->
<g id="edge30" class="edge">
<title>Node22&#45;&gt;Node11</title>
<path fill="none" stroke="midnightblue" d="M722.46,-164.37C699.61,-154.26 668.19,-140.35 648.24,-131.52"/>
<polygon fill="midnightblue" stroke="midnightblue" points="721.11,-167.6 731.67,-168.44 723.94,-161.2 721.11,-167.6"/>
</g>
<!-- Node23 -->
<g id="node23" class="node">
<title>Node23</title>
<g id="a_node23"><a xlink:href="calc_8cpp.html" target="_top" xlink:title="Implementation of Calc Class.">
<polygon fill="white" stroke="black" points="704,-112.5 704,-131.5 812,-131.5 812,-112.5 704,-112.5"/>
<text text-anchor="middle" x="758" y="-119.5" font-family="Helvetica,sans-Serif" font-size="10.00">src/export/calc.cpp</text>
</a>
</g>
</g>
<!-- Node22&#45;&gt;Node23 -->
<g id="edge31" class="edge">
<title>Node22&#45;&gt;Node23</title>
<path fill="none" stroke="midnightblue" d="M753.45,-158.1C754.61,-149.14 755.94,-138.86 756.87,-131.75"/>
<polygon fill="midnightblue" stroke="midnightblue" points="749.97,-157.72 752.16,-168.08 756.91,-158.62 749.97,-157.72"/>
</g>
<!-- Node24&#45;&gt;Node3 -->
<g id="edge33" class="edge">
<title>Node24&#45;&gt;Node3</title>
<path fill="none" stroke="midnightblue" d="M188.74,-286.08C176.59,-278.25 164.79,-267.96 158,-255 151.6,-242.8 152.37,-236.57 158,-224 191.48,-149.27 280.07,-95.48 317.23,-75.52"/>
<polygon fill="midnightblue" stroke="midnightblue" points="187.21,-289.23 197.59,-291.34 190.79,-283.22 187.21,-289.23"/>
</g>
<!-- Node25 -->
<g id="node25" class="node">
<title>Node25</title>
<g id="a_node25"><a xlink:href="channel__graph_8cpp.html" target="_top" xlink:title="Implementation of Channel_Graph Class.">
<polygon fill="white" stroke="black" points="167.5,-224.5 167.5,-254.5 274.5,-254.5 274.5,-224.5 167.5,-224.5"/>
<text text-anchor="start" x="175.5" y="-242.5" font-family="Helvetica,sans-Serif" font-size="10.00">src/export/channel</text>
<text text-anchor="middle" x="221" y="-231.5" font-family="Helvetica,sans-Serif" font-size="10.00">_graph.cpp</text>
</a>
</g>
</g>
<!-- Node24&#45;&gt;Node25 -->
<g id="edge34" class="edge">
<title>Node24&#45;&gt;Node25</title>
<path fill="none" stroke="midnightblue" d="M227.29,-281.4C225.9,-272.37 224.37,-262.41 223.17,-254.58"/>
<polygon fill="midnightblue" stroke="midnightblue" points="223.85,-282.04 228.83,-291.4 230.77,-280.98 223.85,-282.04"/>
</g>
<!-- Node27 -->
<g id="node27" class="node">
<title>Node27</title>
<g id="a_node27"><a xlink:href="type__track__global_8h.html" target="_top" xlink:title="Global Access of Type Track.">
<polygon fill="white" stroke="black" points="886.5,-224.5 886.5,-254.5 997.5,-254.5 997.5,-224.5 886.5,-224.5"/>
<text text-anchor="start" x="894.5" y="-242.5" font-family="Helvetica,sans-Serif" font-size="10.00">include/export/type</text>
<text text-anchor="middle" x="942" y="-231.5" font-family="Helvetica,sans-Serif" font-size="10.00">_track_global.h</text>
</a>
</g>
</g>
<!-- Node26&#45;&gt;Node27 -->
<g id="edge37" class="edge">
<title>Node26&#45;&gt;Node27</title>
<path fill="none" stroke="midnightblue" d="M833.03,-287.41C857.14,-277.03 886.95,-264.2 909.3,-254.58"/>
<polygon fill="midnightblue" stroke="midnightblue" points="831.57,-284.23 823.76,-291.4 834.33,-290.66 831.57,-284.23"/>
</g>
<!-- Node28 -->
<g id="node28" class="node">
<title>Node28</title>
<g id="a_node28"><a xlink:href="type__track_8cpp.html" target="_top" xlink:title="Implementation of Type_Track Class.">
<polygon fill="white" stroke="black" points="728,-230 728,-249 868,-249 868,-230 728,-230"/>
<text text-anchor="middle" x="798" y="-237" font-family="Helvetica,sans-Serif" font-size="10.00">src/export/type_track.cpp</text>
</a>
</g>
</g>
<!-- Node26&#45;&gt;Node28 -->
<g id="edge39" class="edge">
<title>Node26&#45;&gt;Node28</title>
<path fill="none" stroke="midnightblue" d="M793.61,-281.25C794.82,-270.02 796.18,-257.38 797.06,-249.19"/>
<polygon fill="midnightblue" stroke="midnightblue" points="790.11,-281.08 792.52,-291.4 797.07,-281.83 790.11,-281.08"/>
</g>
<!-- Node27&#45;&gt;Node22 -->
<g id="edge38" class="edge">
<title>Node27&#45;&gt;Node22</title>
<path fill="none" stroke="midnightblue" d="M886.98,-221.36C851.45,-210.29 806.75,-196.37 778.51,-187.57"/>
<polygon fill="midnightblue" stroke="midnightblue" points="886.15,-224.77 896.74,-224.4 888.23,-218.08 886.15,-224.77"/>
</g>
<!-- Node31 -->
<g id="node31" class="node">
<title>Node31</title>
<g id="a_node31"><a xlink:href="tools_2log_2log_8cpp.html" target="_top" xlink:title="mmCEsim Log Tool">
<polygon fill="white" stroke="black" points="1357.5,-358.5 1357.5,-377.5 1454.5,-377.5 1454.5,-358.5 1357.5,-358.5"/>
<text text-anchor="middle" x="1406" y="-365.5" font-family="Helvetica,sans-Serif" font-size="10.00">tools/log/log.cpp</text>
</a>
</g>
</g>
<!-- Node30&#45;&gt;Node31 -->
<g id="edge46" class="edge">
<title>Node30&#45;&gt;Node31</title>
<path fill="none" stroke="midnightblue" d="M1404.07,-403.8C1404.56,-394.91 1405.12,-384.78 1405.51,-377.75"/>
<polygon fill="midnightblue" stroke="midnightblue" points="1400.56,-403.9 1403.5,-414.08 1407.54,-404.29 1400.56,-403.9"/>
</g>
<!-- Node33 -->
<g id="node33" class="node">
<title>Node33</title>
<g id="a_node33"><a xlink:href="maintain_8cpp.html" target="_top" xlink:title="mmCEsim Maintainence Tool">
<polygon fill="white" stroke="black" points="1473,-358.5 1473,-377.5 1627,-377.5 1627,-358.5 1473,-358.5"/>
<text text-anchor="middle" x="1550" y="-365.5" font-family="Helvetica,sans-Serif" font-size="10.00">tools/maintain/maintain.cpp</text>
</a>
</g>
</g>
<!-- Node32&#45;&gt;Node33 -->
<g id="edge48" class="edge">
<title>Node32&#45;&gt;Node33</title>
<path fill="none" stroke="midnightblue" d="M1545.45,-404.1C1546.61,-395.14 1547.94,-384.86 1548.87,-377.75"/>
<polygon fill="midnightblue" stroke="midnightblue" points="1541.97,-403.72 1544.16,-414.08 1548.91,-404.62 1541.97,-403.72"/>
</g>
</g>
</svg>
