<?xml version="1.0" encoding="UTF-8" standalone="no"?>
<!DOCTYPE svg PUBLIC "-//W3C//DTD SVG 1.1//EN"
 "http://www.w3.org/Graphics/SVG/1.1/DTD/svg11.dtd">
<!-- Generated by graphviz version 2.43.0 (0)
 -->
<!-- Title: mmce::to_string Pages: 1 -->
<svg width="900pt" height="313pt"
 viewBox="0.00 0.00 900.00 313.00" xmlns="http://www.w3.org/2000/svg" xmlns:xlink="http://www.w3.org/1999/xlink">
<g id="graph0" class="graph" transform="scale(1 1) rotate(0) translate(4 309)">
<title>mmce::to_string</title>
<polygon fill="white" stroke="transparent" points="-4,4 -4,-309 896,-309 896,4 -4,4"/>
<!-- Node1 -->
<g id="node1" class="node">
<title>Node1</title>
<g id="a_node1"><a xlink:title="Change a number to string.">
<polygon fill="#bfbfbf" stroke="black" points="796,-228.5 796,-247.5 892,-247.5 892,-228.5 796,-228.5"/>
<text text-anchor="middle" x="844" y="-235.5" font-family="Helvetica,sans-Serif" font-size="10.00">mmce::to_string</text>
</a>
</g>
</g>
<!-- Node2 -->
<g id="node2" class="node">
<title>Node2</title>
<g id="a_node2"><a xlink:href="class_export.html#af64597af0c0b4cf569f96216bcd23b2c" target="_top" xlink:title=" ">
<polygon fill="white" stroke="black" points="495,-266.5 495,-285.5 599,-285.5 599,-266.5 495,-266.5"/>
<text text-anchor="middle" x="547" y="-273.5" font-family="Helvetica,sans-Serif" font-size="10.00">Export::_reporting</text>
</a>
</g>
</g>
<!-- Node1&#45;&gt;Node2 -->
<g id="edge1" class="edge">
<title>Node1&#45;&gt;Node2</title>
<path fill="none" stroke="midnightblue" d="M796,-249.92C784.3,-252.57 771.74,-255.14 760,-257 705.44,-265.65 642.3,-270.68 599.21,-273.36"/>
<polygon fill="midnightblue" stroke="midnightblue" points="797.08,-253.27 806.02,-247.59 795.49,-246.45 797.08,-253.27"/>
</g>
<!-- Node6 -->
<g id="node6" class="node">
<title>Node6</title>
<g id="a_node6"><a xlink:href="class_export.html#ad7bd412c3fe1d5accc38cf1f2ab65ea0" target="_top" xlink:title=" ">
<polygon fill="white" stroke="black" points="292,-285.5 292,-304.5 453,-304.5 453,-285.5 292,-285.5"/>
<text text-anchor="middle" x="372.5" y="-292.5" font-family="Helvetica,sans-Serif" font-size="10.00">Export::_setCascadedChannel</text>
</a>
</g>
</g>
<!-- Node1&#45;&gt;Node6 -->
<g id="edge5" class="edge">
<title>Node1&#45;&gt;Node6</title>
<path fill="none" stroke="midnightblue" d="M817.55,-252.6C801.54,-261.11 780.16,-271.26 760,-277 657.12,-306.3 532.67,-306.11 453.3,-301.78"/>
<polygon fill="midnightblue" stroke="midnightblue" points="819.67,-255.43 826.77,-247.57 816.31,-249.29 819.67,-255.43"/>
</g>
<!-- Node7 -->
<g id="node7" class="node">
<title>Node7</title>
<g id="a_node7"><a xlink:href="class_value___vec.html#ad2bf1b9a255e5433d3e0d4237543e35a" target="_top" xlink:title=" ">
<polygon fill="white" stroke="black" points="652,-228.5 652,-247.5 749,-247.5 749,-228.5 652,-228.5"/>
<text text-anchor="middle" x="700.5" y="-235.5" font-family="Helvetica,sans-Serif" font-size="10.00">Value_Vec::asStr</text>
</a>
</g>
</g>
<!-- Node1&#45;&gt;Node7 -->
<g id="edge7" class="edge">
<title>Node1&#45;&gt;Node7</title>
<path fill="none" stroke="midnightblue" d="M785.87,-238C773.76,-238 761.1,-238 749.38,-238"/>
<polygon fill="midnightblue" stroke="midnightblue" points="785.88,-241.5 795.88,-238 785.88,-234.5 785.88,-241.5"/>
</g>
<!-- Node9 -->
<g id="node9" class="node">
<title>Node9</title>
<g id="a_node9"><a xlink:href="struct_macro.html#ac0ddd588c300108ca443b10316d99877" target="_top" xlink:title=" ">
<polygon fill="white" stroke="black" points="641,-190.5 641,-209.5 760,-209.5 760,-190.5 641,-190.5"/>
<text text-anchor="middle" x="700.5" y="-197.5" font-family="Helvetica,sans-Serif" font-size="10.00">Macro::replaceMacro</text>
</a>
</g>
</g>
<!-- Node1&#45;&gt;Node9 -->
<g id="edge11" class="edge">
<title>Node1&#45;&gt;Node9</title>
<path fill="none" stroke="midnightblue" d="M797.4,-225.75C777.89,-220.52 755.46,-214.49 737.2,-209.59"/>
<polygon fill="midnightblue" stroke="midnightblue" points="796.73,-229.2 807.29,-228.41 798.54,-222.44 796.73,-229.2"/>
</g>
<!-- Node11 -->
<g id="node11" class="node">
<title>Node11</title>
<g id="a_node11"><a xlink:href="class_alg.html#ada1e8215f047b4ffd736e811b5ea3162" target="_top" xlink:title=" ">
<polygon fill="white" stroke="black" points="669,-95.5 669,-114.5 732,-114.5 732,-95.5 669,-95.5"/>
<text text-anchor="middle" x="700.5" y="-102.5" font-family="Helvetica,sans-Serif" font-size="10.00">Alg::write</text>
</a>
</g>
</g>
<!-- Node1&#45;&gt;Node11 -->
<g id="edge13" class="edge">
<title>Node1&#45;&gt;Node11</title>
<path fill="none" stroke="midnightblue" d="M825.24,-221.3C795.37,-193.23 736,-137.43 711.97,-114.84"/>
<polygon fill="midnightblue" stroke="midnightblue" points="823.14,-224.14 832.82,-228.43 827.93,-219.04 823.14,-224.14"/>
</g>
<!-- Node3 -->
<g id="node3" class="node">
<title>Node3</title>
<g id="a_node3"><a xlink:href="class_export.html#affc37d1d677a83d3e5d36a4e37b7a72b" target="_top" xlink:title=" ">
<polygon fill="white" stroke="black" points="146,-171.5 146,-190.5 256,-190.5 256,-171.5 146,-171.5"/>
<text text-anchor="middle" x="201" y="-178.5" font-family="Helvetica,sans-Serif" font-size="10.00">Export::exportCode</text>
</a>
</g>
</g>
<!-- Node2&#45;&gt;Node3 -->
<g id="edge2" class="edge">
<title>Node2&#45;&gt;Node3</title>
<path fill="none" stroke="midnightblue" d="M501.68,-263.76C432.26,-244.59 299.36,-207.89 236.54,-190.54"/>
<polygon fill="midnightblue" stroke="midnightblue" points="500.87,-267.17 511.44,-266.46 502.73,-260.42 500.87,-267.17"/>
</g>
<!-- Node4 -->
<g id="node4" class="node">
<title>Node4</title>
<g id="a_node4"><a xlink:href="class_export.html#a94fab568af6ddd6447efca74e205e081" target="_top" xlink:title=" ">
<polygon fill="white" stroke="black" points="0,-190.5 0,-209.5 110,-209.5 110,-190.5 0,-190.5"/>
<text text-anchor="middle" x="55" y="-197.5" font-family="Helvetica,sans-Serif" font-size="10.00">Export::exportCode</text>
</a>
</g>
</g>
<!-- Node3&#45;&gt;Node4 -->
<g id="edge3" class="edge">
<title>Node3&#45;&gt;Node4</title>
<path fill="none" stroke="midnightblue" d="M136.01,-189.44C127.44,-190.57 118.72,-191.73 110.33,-192.83"/>
<polygon fill="midnightblue" stroke="midnightblue" points="136.51,-192.91 145.97,-188.13 135.6,-185.97 136.51,-192.91"/>
</g>
<!-- Node5 -->
<g id="node5" class="node">
<title>Node5</title>
<g id="a_node5"><a xlink:href="src_2main_8cpp.html#a0ddf1224851353fc92bfbff6f499fa97" target="_top" xlink:title=" ">
<polygon fill="white" stroke="black" points="34.5,-152.5 34.5,-171.5 75.5,-171.5 75.5,-152.5 34.5,-152.5"/>
<text text-anchor="middle" x="55" y="-159.5" font-family="Helvetica,sans-Serif" font-size="10.00">main</text>
</a>
</g>
</g>
<!-- Node3&#45;&gt;Node5 -->
<g id="edge4" class="edge">
<title>Node3&#45;&gt;Node5</title>
<path fill="none" stroke="midnightblue" d="M136.05,-172.56C114.24,-169.68 91.43,-166.67 75.76,-164.61"/>
<polygon fill="midnightblue" stroke="midnightblue" points="135.6,-176.03 145.97,-173.87 136.51,-169.09 135.6,-176.03"/>
</g>
<!-- Node6&#45;&gt;Node3 -->
<g id="edge6" class="edge">
<title>Node6&#45;&gt;Node3</title>
<path fill="none" stroke="midnightblue" d="M342.63,-280.91C327.23,-273.01 308.18,-262.64 292,-252 261.91,-232.2 229.38,-204.91 212.9,-190.61"/>
<polygon fill="midnightblue" stroke="midnightblue" points="341.18,-284.1 351.68,-285.48 344.33,-277.85 341.18,-284.1"/>
</g>
<!-- Node7&#45;&gt;Node2 -->
<g id="edge8" class="edge">
<title>Node7&#45;&gt;Node2</title>
<path fill="none" stroke="midnightblue" d="M651.5,-250.04C630.33,-255.35 605.81,-261.5 585.95,-266.48"/>
<polygon fill="midnightblue" stroke="midnightblue" points="652.42,-253.42 661.27,-247.59 650.72,-246.63 652.42,-253.42"/>
</g>
<!-- Node8 -->
<g id="node8" class="node">
<title>Node8</title>
<g id="a_node8"><a xlink:href="class_export.html#a26fa49d9882a342d011ba715e0c14109" target="_top" xlink:title=" ">
<polygon fill="white" stroke="black" points="320.5,-152.5 320.5,-171.5 424.5,-171.5 424.5,-152.5 320.5,-152.5"/>
<text text-anchor="middle" x="372.5" y="-159.5" font-family="Helvetica,sans-Serif" font-size="10.00">Export::_sounding</text>
</a>
</g>
</g>
<!-- Node7&#45;&gt;Node8 -->
<g id="edge9" class="edge">
<title>Node7&#45;&gt;Node8</title>
<path fill="none" stroke="midnightblue" d="M641.53,-238.45C598.66,-237.43 539.25,-233.14 489,-219 450.68,-208.22 409.81,-184.87 388.46,-171.65"/>
<polygon fill="midnightblue" stroke="midnightblue" points="641.72,-241.96 651.78,-238.64 641.85,-234.96 641.72,-241.96"/>
</g>
<!-- Node8&#45;&gt;Node3 -->
<g id="edge10" class="edge">
<title>Node8&#45;&gt;Node3</title>
<path fill="none" stroke="midnightblue" d="M309.99,-168.89C292.35,-170.87 273.24,-173.01 256.08,-174.94"/>
<polygon fill="midnightblue" stroke="midnightblue" points="310.64,-172.34 320.18,-167.75 309.86,-165.39 310.64,-172.34"/>
</g>
<!-- Node10 -->
<g id="node10" class="node">
<title>Node10</title>
<g id="a_node10"><a xlink:href="class_alg.html#a45e536cf797bba52c851877371ea64c5" target="_top" xlink:title=" ">
<polygon fill="white" stroke="black" points="520,-190.5 520,-209.5 574,-209.5 574,-190.5 520,-190.5"/>
<text text-anchor="middle" x="547" y="-197.5" font-family="Helvetica,sans-Serif" font-size="10.00">Alg::Alg</text>
</a>
</g>
</g>
<!-- Node9&#45;&gt;Node10 -->
<g id="edge12" class="edge">
<title>Node9&#45;&gt;Node10</title>
<path fill="none" stroke="midnightblue" d="M630.85,-200C610.8,-200 590.08,-200 574.38,-200"/>
<polygon fill="midnightblue" stroke="midnightblue" points="630.93,-203.5 640.93,-200 630.93,-196.5 630.93,-203.5"/>
</g>
<!-- Node11&#45;&gt;Node8 -->
<g id="edge22" class="edge">
<title>Node11&#45;&gt;Node8</title>
<path fill="none" stroke="midnightblue" d="M658.62,-99.57C615.75,-95.13 546.7,-91.54 489,-105 449.8,-114.15 408.63,-138.61 387.63,-152.33"/>
<polygon fill="midnightblue" stroke="midnightblue" points="658.35,-103.06 668.68,-100.68 659.12,-96.1 658.35,-103.06"/>
</g>
<!-- Node11&#45;&gt;Node11 -->
<g id="edge23" class="edge">
<title>Node11&#45;&gt;Node11</title>
<path fill="none" stroke="midnightblue" d="M727.01,-123.65C725.9,-128.94 717.06,-133 700.5,-133 675.26,-133 667.97,-123.57 678.61,-114.76"/>
<polygon fill="midnightblue" stroke="midnightblue" points="730.1,-122.02 722.39,-114.76 723.89,-125.24 730.1,-122.02"/>
</g>
<!-- Node12 -->
<g id="node12" class="node">
<title>Node12</title>
<g id="a_node12"><a xlink:href="class_export.html#a89d3ae54dd2261cf35be148011b79fe4" target="_top" xlink:title=" ">
<polygon fill="white" stroke="black" points="316.5,-38.5 316.5,-57.5 428.5,-57.5 428.5,-38.5 316.5,-38.5"/>
<text text-anchor="middle" x="372.5" y="-45.5" font-family="Helvetica,sans-Serif" font-size="10.00">Export::_algorithms</text>
</a>
</g>
</g>
<!-- Node11&#45;&gt;Node12 -->
<g id="edge14" class="edge">
<title>Node11&#45;&gt;Node12</title>
<path fill="none" stroke="midnightblue" d="M667.55,-91.76C649.49,-84.8 626.32,-76.76 605,-72 545.65,-58.75 476.07,-52.78 428.8,-50.12"/>
<polygon fill="midnightblue" stroke="midnightblue" points="666.43,-95.08 677.02,-95.48 668.99,-88.56 666.43,-95.08"/>
</g>
<!-- Node13 -->
<g id="node13" class="node">
<title>Node13</title>
<g id="a_node13"><a xlink:href="class_export.html#ae4811e1e4212029122c0ee29613714cc" target="_top" xlink:title=" ">
<polygon fill="white" stroke="black" points="491,-152.5 491,-171.5 603,-171.5 603,-152.5 491,-152.5"/>
<text text-anchor="middle" x="547" y="-159.5" font-family="Helvetica,sans-Serif" font-size="10.00">Export::_estimation</text>
</a>
</g>
</g>
<!-- Node11&#45;&gt;Node13 -->
<g id="edge16" class="edge">
<title>Node11&#45;&gt;Node13</title>
<path fill="none" stroke="midnightblue" d="M667.45,-118.45C649.24,-125.95 625.96,-135.3 605,-143 596.19,-146.24 586.53,-149.55 577.7,-152.48"/>
<polygon fill="midnightblue" stroke="midnightblue" points="668.83,-121.66 676.74,-114.6 666.16,-115.2 668.83,-121.66"/>
</g>
<!-- Node14 -->
<g id="node14" class="node">
<title>Node14</title>
<g id="a_node14"><a xlink:href="class_export.html#a59ba705b2369f21006ec7d7b7f3a4513" target="_top" xlink:title="Generate RIS reflection matrices.">
<polygon fill="white" stroke="black" points="489,-114.5 489,-133.5 605,-133.5 605,-114.5 489,-114.5"/>
<text text-anchor="middle" x="547" y="-121.5" font-family="Helvetica,sans-Serif" font-size="10.00">Export::_generateBF</text>
</a>
</g>
</g>
<!-- Node11&#45;&gt;Node14 -->
<g id="edge18" class="edge">
<title>Node11&#45;&gt;Node14</title>
<path fill="none" stroke="midnightblue" d="M658.52,-110.14C642.14,-112.19 622.99,-114.6 605.27,-116.82"/>
<polygon fill="midnightblue" stroke="midnightblue" points="659.36,-113.56 668.84,-108.84 658.48,-106.62 659.36,-113.56"/>
</g>
<!-- Node15 -->
<g id="node15" class="node">
<title>Node15</title>
<g id="a_node15"><a xlink:href="class_export.html#a833aa02973f6b5c1f3e536e8646cf1ac" target="_top" xlink:title=" ">
<polygon fill="white" stroke="black" points="497,-0.5 497,-19.5 597,-19.5 597,-0.5 497,-0.5"/>
<text text-anchor="middle" x="547" y="-7.5" font-family="Helvetica,sans-Serif" font-size="10.00">Export::_loadALG</text>
</a>
</g>
</g>
<!-- Node11&#45;&gt;Node15 -->
<g id="edge20" class="edge">
<title>Node11&#45;&gt;Node15</title>
<path fill="none" stroke="midnightblue" d="M680.86,-88.8C662.46,-73.36 633.08,-50.13 605,-34 595.41,-28.49 584.31,-23.53 574.47,-19.57"/>
<polygon fill="midnightblue" stroke="midnightblue" points="678.61,-91.48 688.49,-95.3 683.14,-86.15 678.61,-91.48"/>
</g>
<!-- Node12&#45;&gt;Node3 -->
<g id="edge15" class="edge">
<title>Node12&#45;&gt;Node3</title>
<path fill="none" stroke="midnightblue" d="M351.13,-63.98C315.66,-91.82 243.57,-148.38 214.54,-171.16"/>
<polygon fill="midnightblue" stroke="midnightblue" points="353.6,-66.49 359.31,-57.57 349.28,-60.98 353.6,-66.49"/>
</g>
<!-- Node13&#45;&gt;Node8 -->
<g id="edge17" class="edge">
<title>Node13&#45;&gt;Node8</title>
<path fill="none" stroke="midnightblue" d="M480.77,-162C462.16,-162 442.15,-162 424.52,-162"/>
<polygon fill="midnightblue" stroke="midnightblue" points="480.95,-165.5 490.95,-162 480.95,-158.5 480.95,-165.5"/>
</g>
<!-- Node14&#45;&gt;Node8 -->
<g id="edge19" class="edge">
<title>Node14&#45;&gt;Node8</title>
<path fill="none" stroke="midnightblue" d="M492.65,-135.75C468.26,-141.13 439.74,-147.41 416.72,-152.48"/>
<polygon fill="midnightblue" stroke="midnightblue" points="493.46,-139.16 502.47,-133.59 491.95,-132.32 493.46,-139.16"/>
</g>
<!-- Node15&#45;&gt;Node12 -->
<g id="edge21" class="edge">
<title>Node15&#45;&gt;Node12</title>
<path fill="none" stroke="midnightblue" d="M492.65,-21.75C468.26,-27.13 439.74,-33.41 416.72,-38.48"/>
<polygon fill="midnightblue" stroke="midnightblue" points="493.46,-25.16 502.47,-19.59 491.95,-18.32 493.46,-25.16"/>
</g>
</g>
</svg>
