<?xml version="1.0" encoding="UTF-8" standalone="no"?>
<!DOCTYPE svg PUBLIC "-//W3C//DTD SVG 1.1//EN"
 "http://www.w3.org/Graphics/SVG/1.1/DTD/svg11.dtd">
<!-- Generated by graphviz version 2.43.0 (0)
 -->
<!-- Title: mmce::to_string Pages: 1 -->
<svg width="885pt" height="330pt"
 viewBox="0.00 0.00 885.00 329.68" xmlns="http://www.w3.org/2000/svg" xmlns:xlink="http://www.w3.org/1999/xlink">
<g id="graph0" class="graph" transform="scale(1 1) rotate(0) translate(4 325.68)">
<title>mmce::to_string</title>
<polygon fill="white" stroke="transparent" points="-4,4 -4,-325.68 881,-325.68 881,4 -4,4"/>
<!-- Node1 -->
<g id="node1" class="node">
<title>Node1</title>
<g id="a_node1"><a xlink:title="Change a number to string.">
<polygon fill="#bfbfbf" stroke="black" points="781,-181.5 781,-200.5 877,-200.5 877,-181.5 781,-181.5"/>
<text text-anchor="middle" x="829" y="-188.5" font-family="Helvetica,sans-Serif" font-size="10.00">mmce::to_string</text>
</a>
</g>
</g>
<!-- Node2 -->
<g id="node2" class="node">
<title>Node2</title>
<g id="a_node2"><a xlink:href="class_export.html#af64597af0c0b4cf569f96216bcd23b2c" target="_top" xlink:title=" ">
<polygon fill="white" stroke="black" points="496.5,-266.5 496.5,-285.5 600.5,-285.5 600.5,-266.5 496.5,-266.5"/>
<text text-anchor="middle" x="548.5" y="-273.5" font-family="Helvetica,sans-Serif" font-size="10.00">Export::_reporting</text>
</a>
</g>
</g>
<!-- Node1&#45;&gt;Node2 -->
<g id="edge1" class="edge">
<title>Node1&#45;&gt;Node2</title>
<path fill="none" stroke="midnightblue" d="M812.29,-208.21C796.84,-223.88 771.74,-246.18 745,-257 698.69,-275.73 641.36,-279.25 600.79,-278.83"/>
<polygon fill="midnightblue" stroke="midnightblue" points="815.08,-210.36 819.45,-200.71 810.01,-205.53 815.08,-210.36"/>
</g>
<!-- Node6 -->
<g id="node6" class="node">
<title>Node6</title>
<g id="a_node6"><a xlink:href="class_export.html#ad7bd412c3fe1d5accc38cf1f2ab65ea0" target="_top" xlink:title=" ">
<polygon fill="white" stroke="black" points="292,-294.5 292,-313.5 453,-313.5 453,-294.5 292,-294.5"/>
<text text-anchor="middle" x="372.5" y="-301.5" font-family="Helvetica,sans-Serif" font-size="10.00">Export::_setCascadedChannel</text>
</a>
</g>
</g>
<!-- Node1&#45;&gt;Node6 -->
<g id="edge5" class="edge">
<title>Node1&#45;&gt;Node6</title>
<path fill="none" stroke="midnightblue" d="M817.1,-209.22C803.27,-230.51 777.29,-264.85 745,-281 643.14,-331.95 505.45,-323.65 429.54,-313.53"/>
<polygon fill="midnightblue" stroke="midnightblue" points="820.08,-211.07 822.42,-200.74 814.14,-207.35 820.08,-211.07"/>
</g>
<!-- Node7 -->
<g id="node7" class="node">
<title>Node7</title>
<g id="a_node7"><a xlink:href="class_value___vec.html#ad2bf1b9a255e5433d3e0d4237543e35a" target="_top" xlink:title=" ">
<polygon fill="white" stroke="black" points="646,-228.5 646,-247.5 743,-247.5 743,-228.5 646,-228.5"/>
<text text-anchor="middle" x="694.5" y="-235.5" font-family="Helvetica,sans-Serif" font-size="10.00">Value_Vec::asStr</text>
</a>
</g>
</g>
<!-- Node1&#45;&gt;Node7 -->
<g id="edge7" class="edge">
<title>Node1&#45;&gt;Node7</title>
<path fill="none" stroke="midnightblue" d="M791.61,-203.91C769.84,-211.63 742.63,-221.28 722.73,-228.34"/>
<polygon fill="midnightblue" stroke="midnightblue" points="792.93,-207.15 801.19,-200.51 790.59,-200.56 792.93,-207.15"/>
</g>
<!-- Node9 -->
<g id="node9" class="node">
<title>Node9</title>
<g id="a_node9"><a xlink:href="struct_macro.html#ac0ddd588c300108ca443b10316d99877" target="_top" xlink:title=" ">
<polygon fill="white" stroke="black" points="489,-0.5 489,-19.5 608,-19.5 608,-0.5 489,-0.5"/>
<text text-anchor="middle" x="548.5" y="-7.5" font-family="Helvetica,sans-Serif" font-size="10.00">Macro::replaceMacro</text>
</a>
</g>
</g>
<!-- Node1&#45;&gt;Node9 -->
<g id="edge11" class="edge">
<title>Node1&#45;&gt;Node9</title>
<path fill="none" stroke="midnightblue" d="M809.66,-174.24C773.55,-142.02 689.64,-70.92 608,-29 600.88,-25.34 592.9,-22.2 585.19,-19.58"/>
<polygon fill="midnightblue" stroke="midnightblue" points="807.62,-177.11 817.39,-181.2 812.3,-171.91 807.62,-177.11"/>
</g>
<!-- Node11 -->
<g id="node11" class="node">
<title>Node11</title>
<g id="a_node11"><a xlink:href="struct_macro.html#aee7d20953d25a4e783b8e897d78c4bf7" target="_top" xlink:title=" ">
<polygon fill="white" stroke="black" points="644,-10.5 644,-29.5 745,-29.5 745,-10.5 644,-10.5"/>
<text text-anchor="middle" x="694.5" y="-17.5" font-family="Helvetica,sans-Serif" font-size="10.00">Macro::replaceXY</text>
</a>
</g>
</g>
<!-- Node1&#45;&gt;Node11 -->
<g id="edge13" class="edge">
<title>Node1&#45;&gt;Node11</title>
<path fill="none" stroke="midnightblue" d="M814.54,-173.06C798.22,-151.38 769.83,-113.84 745,-82 730.43,-63.32 713.09,-41.75 703.29,-29.61"/>
<polygon fill="midnightblue" stroke="midnightblue" points="811.94,-175.43 820.75,-181.32 817.54,-171.22 811.94,-175.43"/>
</g>
<!-- Node12 -->
<g id="node12" class="node">
<title>Node12</title>
<g id="a_node12"><a xlink:href="class_alg.html#ada1e8215f047b4ffd736e811b5ea3162" target="_top" xlink:title=" ">
<polygon fill="white" stroke="black" points="663,-143.5 663,-162.5 726,-162.5 726,-143.5 663,-143.5"/>
<text text-anchor="middle" x="694.5" y="-150.5" font-family="Helvetica,sans-Serif" font-size="10.00">Alg::write</text>
</a>
</g>
</g>
<!-- Node1&#45;&gt;Node12 -->
<g id="edge15" class="edge">
<title>Node1&#45;&gt;Node12</title>
<path fill="none" stroke="midnightblue" d="M784.86,-178.63C765.72,-173.14 743.63,-166.8 726.2,-161.8"/>
<polygon fill="midnightblue" stroke="midnightblue" points="783.99,-182.02 794.56,-181.41 785.92,-175.29 783.99,-182.02"/>
</g>
<!-- Node3 -->
<g id="node3" class="node">
<title>Node3</title>
<g id="a_node3"><a xlink:href="class_export.html#affc37d1d677a83d3e5d36a4e37b7a72b" target="_top" xlink:title=" ">
<polygon fill="white" stroke="black" points="146,-218.5 146,-237.5 256,-237.5 256,-218.5 146,-218.5"/>
<text text-anchor="middle" x="201" y="-225.5" font-family="Helvetica,sans-Serif" font-size="10.00">Export::exportCode</text>
</a>
</g>
</g>
<!-- Node2&#45;&gt;Node3 -->
<g id="edge2" class="edge">
<title>Node2&#45;&gt;Node3</title>
<path fill="none" stroke="midnightblue" d="M486,-267.46C420.72,-258.39 318.56,-244.19 256.2,-235.53"/>
<polygon fill="midnightblue" stroke="midnightblue" points="485.76,-270.96 496.15,-268.87 486.73,-264.02 485.76,-270.96"/>
</g>
<!-- Node4 -->
<g id="node4" class="node">
<title>Node4</title>
<g id="a_node4"><a xlink:href="class_export.html#a94fab568af6ddd6447efca74e205e081" target="_top" xlink:title=" ">
<polygon fill="white" stroke="black" points="0,-237.5 0,-256.5 110,-256.5 110,-237.5 0,-237.5"/>
<text text-anchor="middle" x="55" y="-244.5" font-family="Helvetica,sans-Serif" font-size="10.00">Export::exportCode</text>
</a>
</g>
</g>
<!-- Node3&#45;&gt;Node4 -->
<g id="edge3" class="edge">
<title>Node3&#45;&gt;Node4</title>
<path fill="none" stroke="midnightblue" d="M136.01,-236.44C127.44,-237.57 118.72,-238.73 110.33,-239.83"/>
<polygon fill="midnightblue" stroke="midnightblue" points="136.51,-239.91 145.97,-235.13 135.6,-232.97 136.51,-239.91"/>
</g>
<!-- Node5 -->
<g id="node5" class="node">
<title>Node5</title>
<g id="a_node5"><a xlink:href="src_2main_8cpp.html#a0ddf1224851353fc92bfbff6f499fa97" target="_top" xlink:title=" ">
<polygon fill="white" stroke="black" points="34.5,-199.5 34.5,-218.5 75.5,-218.5 75.5,-199.5 34.5,-199.5"/>
<text text-anchor="middle" x="55" y="-206.5" font-family="Helvetica,sans-Serif" font-size="10.00">main</text>
</a>
</g>
</g>
<!-- Node3&#45;&gt;Node5 -->
<g id="edge4" class="edge">
<title>Node3&#45;&gt;Node5</title>
<path fill="none" stroke="midnightblue" d="M136.05,-219.56C114.24,-216.68 91.43,-213.67 75.76,-211.61"/>
<polygon fill="midnightblue" stroke="midnightblue" points="135.6,-223.03 145.97,-220.87 136.51,-216.09 135.6,-223.03"/>
</g>
<!-- Node6&#45;&gt;Node3 -->
<g id="edge6" class="edge">
<title>Node6&#45;&gt;Node3</title>
<path fill="none" stroke="midnightblue" d="M337.95,-290.53C323.71,-284.69 306.97,-277.68 292,-271 267.33,-260 239.31,-246.43 221.18,-237.52"/>
<polygon fill="midnightblue" stroke="midnightblue" points="336.77,-293.83 347.36,-294.36 339.42,-287.35 336.77,-293.83"/>
</g>
<!-- Node7&#45;&gt;Node2 -->
<g id="edge8" class="edge">
<title>Node7&#45;&gt;Node2</title>
<path fill="none" stroke="midnightblue" d="M647.33,-250.18C627.34,-255.46 604.28,-261.54 585.58,-266.48"/>
<polygon fill="midnightblue" stroke="midnightblue" points="648.39,-253.52 657.16,-247.59 646.6,-246.76 648.39,-253.52"/>
</g>
<!-- Node8 -->
<g id="node8" class="node">
<title>Node8</title>
<g id="a_node8"><a xlink:href="class_export.html#a26fa49d9882a342d011ba715e0c14109" target="_top" xlink:title=" ">
<polygon fill="white" stroke="black" points="320.5,-190.5 320.5,-209.5 424.5,-209.5 424.5,-190.5 320.5,-190.5"/>
<text text-anchor="middle" x="372.5" y="-197.5" font-family="Helvetica,sans-Serif" font-size="10.00">Export::_sounding</text>
</a>
</g>
</g>
<!-- Node7&#45;&gt;Node8 -->
<g id="edge9" class="edge">
<title>Node7&#45;&gt;Node8</title>
<path fill="none" stroke="midnightblue" d="M635.79,-233.73C594.76,-230.43 538.39,-225.35 489,-219 467.84,-216.28 444.6,-212.59 424.56,-209.19"/>
<polygon fill="midnightblue" stroke="midnightblue" points="635.63,-237.23 645.88,-234.53 636.18,-230.25 635.63,-237.23"/>
</g>
<!-- Node8&#45;&gt;Node3 -->
<g id="edge10" class="edge">
<title>Node8&#45;&gt;Node3</title>
<path fill="none" stroke="midnightblue" d="M309.99,-210.16C292.35,-213.08 273.24,-216.23 256.08,-219.07"/>
<polygon fill="midnightblue" stroke="midnightblue" points="310.89,-213.56 320.18,-208.48 309.75,-206.65 310.89,-213.56"/>
</g>
<!-- Node10 -->
<g id="node10" class="node">
<title>Node10</title>
<g id="a_node10"><a xlink:href="class_alg.html#a45e536cf797bba52c851877371ea64c5" target="_top" xlink:title=" ">
<polygon fill="white" stroke="black" points="345.5,-0.5 345.5,-19.5 399.5,-19.5 399.5,-0.5 345.5,-0.5"/>
<text text-anchor="middle" x="372.5" y="-7.5" font-family="Helvetica,sans-Serif" font-size="10.00">Alg::Alg</text>
</a>
</g>
</g>
<!-- Node9&#45;&gt;Node10 -->
<g id="edge12" class="edge">
<title>Node9&#45;&gt;Node10</title>
<path fill="none" stroke="midnightblue" d="M478.53,-10C450.86,-10 420.64,-10 399.75,-10"/>
<polygon fill="midnightblue" stroke="midnightblue" points="478.59,-13.5 488.59,-10 478.59,-6.5 478.59,-13.5"/>
</g>
<!-- Node11&#45;&gt;Node9 -->
<g id="edge14" class="edge">
<title>Node11&#45;&gt;Node9</title>
<path fill="none" stroke="midnightblue" d="M633.74,-15.85C625.26,-15.26 616.54,-14.66 608.08,-14.07"/>
<polygon fill="midnightblue" stroke="midnightblue" points="633.72,-19.36 643.94,-16.56 634.21,-12.37 633.72,-19.36"/>
</g>
<!-- Node12&#45;&gt;Node8 -->
<g id="edge24" class="edge">
<title>Node12&#45;&gt;Node8</title>
<path fill="none" stroke="midnightblue" d="M653.03,-158.21C611.74,-163.61 545.84,-172.44 489,-181 467.9,-184.18 444.68,-187.95 424.63,-191.29"/>
<polygon fill="midnightblue" stroke="midnightblue" points="653.51,-161.68 662.97,-156.92 652.61,-154.74 653.51,-161.68"/>
</g>
<!-- Node12&#45;&gt;Node12 -->
<g id="edge25" class="edge">
<title>Node12&#45;&gt;Node12</title>
<path fill="none" stroke="midnightblue" d="M719.43,-172.03C718.07,-177.13 709.76,-181 694.5,-181 670.68,-181 663.8,-171.57 673.85,-162.76"/>
<polygon fill="midnightblue" stroke="midnightblue" points="722.52,-170.37 715.15,-162.76 716.16,-173.3 722.52,-170.37"/>
</g>
<!-- Node13 -->
<g id="node13" class="node">
<title>Node13</title>
<g id="a_node13"><a xlink:href="class_export.html#a89d3ae54dd2261cf35be148011b79fe4" target="_top" xlink:title=" ">
<polygon fill="white" stroke="black" points="316.5,-76.5 316.5,-95.5 428.5,-95.5 428.5,-76.5 316.5,-76.5"/>
<text text-anchor="middle" x="372.5" y="-83.5" font-family="Helvetica,sans-Serif" font-size="10.00">Export::_algorithms</text>
</a>
</g>
</g>
<!-- Node12&#45;&gt;Node13 -->
<g id="edge16" class="edge">
<title>Node12&#45;&gt;Node13</title>
<path fill="none" stroke="midnightblue" d="M672.28,-137.65C655.66,-126.5 631.49,-112.17 608,-105 548.62,-86.88 477.08,-83.58 428.76,-83.89"/>
<polygon fill="midnightblue" stroke="midnightblue" points="670.47,-140.65 680.69,-143.45 674.45,-134.89 670.47,-140.65"/>
</g>
<!-- Node14 -->
<g id="node14" class="node">
<title>Node14</title>
<g id="a_node14"><a xlink:href="class_export.html#ae4811e1e4212029122c0ee29613714cc" target="_top" xlink:title=" ">
<polygon fill="white" stroke="black" points="492.5,-114.5 492.5,-133.5 604.5,-133.5 604.5,-114.5 492.5,-114.5"/>
<text text-anchor="middle" x="548.5" y="-121.5" font-family="Helvetica,sans-Serif" font-size="10.00">Export::_estimation</text>
</a>
</g>
</g>
<!-- Node12&#45;&gt;Node14 -->
<g id="edge18" class="edge">
<title>Node12&#45;&gt;Node14</title>
<path fill="none" stroke="midnightblue" d="M653.05,-144.85C635.54,-141.33 614.93,-137.18 596.72,-133.51"/>
<polygon fill="midnightblue" stroke="midnightblue" points="652.47,-148.31 662.96,-146.85 653.85,-141.44 652.47,-148.31"/>
</g>
<!-- Node15 -->
<g id="node15" class="node">
<title>Node15</title>
<g id="a_node15"><a xlink:href="class_export.html#a59ba705b2369f21006ec7d7b7f3a4513" target="_top" xlink:title="Generate RIS reflection matrices.">
<polygon fill="white" stroke="black" points="490.5,-190.5 490.5,-209.5 606.5,-209.5 606.5,-190.5 490.5,-190.5"/>
<text text-anchor="middle" x="548.5" y="-197.5" font-family="Helvetica,sans-Serif" font-size="10.00">Export::_generateBF</text>
</a>
</g>
</g>
<!-- Node12&#45;&gt;Node15 -->
<g id="edge20" class="edge">
<title>Node12&#45;&gt;Node15</title>
<path fill="none" stroke="midnightblue" d="M654.59,-165.7C630.83,-173.45 600.92,-183.22 579.09,-190.34"/>
<polygon fill="midnightblue" stroke="midnightblue" points="655.94,-168.94 664.36,-162.51 653.77,-162.29 655.94,-168.94"/>
</g>
<!-- Node16 -->
<g id="node16" class="node">
<title>Node16</title>
<g id="a_node16"><a xlink:href="class_export.html#a833aa02973f6b5c1f3e536e8646cf1ac" target="_top" xlink:title=" ">
<polygon fill="white" stroke="black" points="498.5,-38.5 498.5,-57.5 598.5,-57.5 598.5,-38.5 498.5,-38.5"/>
<text text-anchor="middle" x="548.5" y="-45.5" font-family="Helvetica,sans-Serif" font-size="10.00">Export::_loadALG</text>
</a>
</g>
</g>
<!-- Node12&#45;&gt;Node16 -->
<g id="edge22" class="edge">
<title>Node12&#45;&gt;Node16</title>
<path fill="none" stroke="midnightblue" d="M673.93,-136.76C664.67,-128.88 653.57,-119.16 644,-110 627.2,-93.91 627.19,-85.15 608,-72 599.4,-66.1 589.12,-61.28 579.6,-57.54"/>
<polygon fill="midnightblue" stroke="midnightblue" points="671.91,-139.64 681.82,-143.4 676.42,-134.28 671.91,-139.64"/>
</g>
<!-- Node13&#45;&gt;Node3 -->
<g id="edge17" class="edge">
<title>Node13&#45;&gt;Node3</title>
<path fill="none" stroke="midnightblue" d="M352.43,-101.98C317.15,-131.53 242.66,-193.94 213.78,-218.13"/>
<polygon fill="midnightblue" stroke="midnightblue" points="354.7,-104.64 360.12,-95.54 350.2,-99.28 354.7,-104.64"/>
</g>
<!-- Node14&#45;&gt;Node8 -->
<g id="edge19" class="edge">
<title>Node14&#45;&gt;Node8</title>
<path fill="none" stroke="midnightblue" d="M514.38,-137.36C506.07,-140.77 497.19,-144.48 489,-148 455.67,-162.34 417.32,-179.79 394.27,-190.39"/>
<polygon fill="midnightblue" stroke="midnightblue" points="515.87,-140.53 523.8,-133.51 513.22,-134.05 515.87,-140.53"/>
</g>
<!-- Node15&#45;&gt;Node8 -->
<g id="edge21" class="edge">
<title>Node15&#45;&gt;Node8</title>
<path fill="none" stroke="midnightblue" d="M479.99,-200C461.63,-200 442.04,-200 424.74,-200"/>
<polygon fill="midnightblue" stroke="midnightblue" points="480.04,-203.5 490.04,-200 480.04,-196.5 480.04,-203.5"/>
</g>
<!-- Node16&#45;&gt;Node13 -->
<g id="edge23" class="edge">
<title>Node16&#45;&gt;Node13</title>
<path fill="none" stroke="midnightblue" d="M493.69,-59.75C469.08,-65.13 440.31,-71.41 417.09,-76.48"/>
<polygon fill="midnightblue" stroke="midnightblue" points="494.57,-63.14 503.59,-57.59 493.08,-56.3 494.57,-63.14"/>
</g>
</g>
</svg>
