<?xml version="1.0" encoding="UTF-8" standalone="no"?>
<!DOCTYPE svg PUBLIC "-//W3C//DTD SVG 1.1//EN"
 "http://www.w3.org/Graphics/SVG/1.1/DTD/svg11.dtd">
<!-- Generated by graphviz version 2.43.0 (0)
 -->
<!-- Title: mmce::to_string Pages: 1 -->
<!--zoomable 370 -->
<svg id="main" version="1.1" xmlns="http://www.w3.org/2000/svg" xmlns:xlink="http://www.w3.org/1999/xlink" xml:space="preserve" onload="init(evt)">
<style type="text/css"><![CDATA[
.edge:hover path { stroke: red; }
.edge:hover polygon { stroke: red; fill: red; }
]]></style>
<script type="text/javascript"><![CDATA[
var edges = document.getElementsByTagName('g');
if (edges && edges.length) {
  for (var i=0;i<edges.length;i++) {
    if (edges[i].id.substr(0,4)=='edge') {
      edges[i].setAttribute('class','edge');
    }
  }
}
]]></script>
        <defs>
                <circle id="rim" cx="0" cy="0" r="7"/>
                <circle id="rim2" cx="0" cy="0" r="3.5"/>
                <g id="zoomPlus">
                        <use xlink:href="#rim" fill="#404040">
                                <set attributeName="fill" to="#808080" begin="zoomplus.mouseover" end="zoomplus.mouseout"/>
                        </use>
                        <path d="M-4,0h8M0,-4v8" fill="none" stroke="white" stroke-width="1.5" pointer-events="none"/>
                </g>
                <g id="zoomMin">
                        <use xlink:href="#rim" fill="#404040">
                                <set attributeName="fill" to="#808080" begin="zoomminus.mouseover" end="zoomminus.mouseout"/>
                        </use>
                        <path d="M-4,0h8" fill="none" stroke="white" stroke-width="1.5" pointer-events="none"/>
                </g>
                <g id="dirArrow">
                        <path fill="none" stroke="white" stroke-width="1.5" d="M0,-3.0v7 M-2.5,-0.5L0,-3.0L2.5,-0.5"/>
                </g>
               <g id="resetDef">
                       <use xlink:href="#rim2" fill="#404040">
                               <set attributeName="fill" to="#808080" begin="reset.mouseover" end="reset.mouseout"/>
                       </use>
               </g>
        </defs>

<script type="text/javascript">
var viewWidth = 885;
var viewHeight = 370;
var sectionId = 'dynsection-0';
</script>
<script xlink:href="svgpan.js"/>
<svg id="graph" class="graph">
<g id="viewport">
<title>mmce::to_string</title>
<polygon fill="white" stroke="transparent" points="-4,4 -4,-366 881,-366 881,4 -4,4"/>
<!-- Node1 -->
<g id="node1" class="node">
<title>Node1</title>
<g id="a_node1"><a xlink:title="Change a number to string.">
<polygon fill="#bfbfbf" stroke="black" points="781,-228.5 781,-247.5 877,-247.5 877,-228.5 781,-228.5"/>
<text text-anchor="middle" x="829" y="-235.5" font-family="Helvetica,sans-Serif" font-size="10.00">mmce::to_string</text>
</a>
</g>
</g>
<!-- Node2 -->
<g id="node2" class="node">
<title>Node2</title>
<g id="a_node2"><a xlink:href="class_export.html#af64597af0c0b4cf569f96216bcd23b2c" target="_top" xlink:title=" ">
<polygon fill="white" stroke="black" points="496.5,-342.5 496.5,-361.5 600.5,-361.5 600.5,-342.5 496.5,-342.5"/>
<text text-anchor="middle" x="548.5" y="-349.5" font-family="Helvetica,sans-Serif" font-size="10.00">Export::_reporting</text>
</a>
</g>
</g>
<!-- Node1&#45;&gt;Node2 -->
<g id="edge1" class="edge">
<title>Node1&#45;&gt;Node2</title>
<path fill="none" stroke="midnightblue" d="M817.78,-256.56C804.33,-278.98 778.43,-315.82 745,-333 700.11,-356.07 641.79,-358.82 600.56,-357.03"/>
<polygon fill="midnightblue" stroke="midnightblue" points="820.95,-258.08 822.92,-247.67 814.89,-254.58 820.95,-258.08"/>
</g>
<!-- Node6 -->
<g id="node6" class="node">
<title>Node6</title>
<g id="a_node6"><a xlink:href="class_export.html#ad7bd412c3fe1d5accc38cf1f2ab65ea0" target="_top" xlink:title=" ">
<polygon fill="white" stroke="black" points="292,-256.5 292,-275.5 453,-275.5 453,-256.5 292,-256.5"/>
<text text-anchor="middle" x="372.5" y="-263.5" font-family="Helvetica,sans-Serif" font-size="10.00">Export::_setCascadedChannel</text>
</a>
</g>
</g>
<!-- Node1&#45;&gt;Node6 -->
<g id="edge5" class="edge">
<title>Node1&#45;&gt;Node6</title>
<path fill="none" stroke="midnightblue" d="M770.65,-243.85C762.06,-244.63 753.3,-245.38 745,-246 644.52,-253.54 528.55,-259.32 453.28,-262.68"/>
<polygon fill="midnightblue" stroke="midnightblue" points="770.99,-247.33 780.63,-242.92 770.34,-240.36 770.99,-247.33"/>
</g>
<!-- Node7 -->
<g id="node7" class="node">
<title>Node7</title>
<g id="a_node7"><a xlink:href="class_export.html#a26fa49d9882a342d011ba715e0c14109" target="_top" xlink:title=" ">
<polygon fill="white" stroke="black" points="320.5,-209.5 320.5,-228.5 424.5,-228.5 424.5,-209.5 320.5,-209.5"/>
<text text-anchor="middle" x="372.5" y="-216.5" font-family="Helvetica,sans-Serif" font-size="10.00">Export::_sounding</text>
</a>
</g>
</g>
<!-- Node1&#45;&gt;Node7 -->
<g id="edge7" class="edge">
<title>Node1&#45;&gt;Node7</title>
<path fill="none" stroke="midnightblue" d="M770.41,-235.59C680.91,-231.85 509.88,-224.7 424.55,-221.13"/>
<polygon fill="midnightblue" stroke="midnightblue" points="770.51,-239.1 780.65,-236.02 770.8,-232.11 770.51,-239.1"/>
</g>
<!-- Node8 -->
<g id="node8" class="node">
<title>Node8</title>
<g id="a_node8"><a xlink:href="class_value___vec.html#ad2bf1b9a255e5433d3e0d4237543e35a" target="_top" xlink:title=" ">
<polygon fill="white" stroke="black" points="646,-304.5 646,-323.5 743,-323.5 743,-304.5 646,-304.5"/>
<text text-anchor="middle" x="694.5" y="-311.5" font-family="Helvetica,sans-Serif" font-size="10.00">Value_Vec::asStr</text>
</a>
</g>
</g>
<!-- Node1&#45;&gt;Node8 -->
<g id="edge9" class="edge">
<title>Node1&#45;&gt;Node8</title>
<path fill="none" stroke="midnightblue" d="M805.17,-253.24C788.72,-263.99 765.84,-278.47 745,-290 735.81,-295.09 725.38,-300.23 716.47,-304.45"/>
<polygon fill="midnightblue" stroke="midnightblue" points="807.17,-256.11 813.59,-247.69 803.32,-250.27 807.17,-256.11"/>
</g>
<!-- Node9 -->
<g id="node9" class="node">
<title>Node9</title>
<g id="a_node9"><a xlink:href="struct_macro.html#ac0ddd588c300108ca443b10316d99877" target="_top" xlink:title=" ">
<polygon fill="white" stroke="black" points="489,-0.5 489,-19.5 608,-19.5 608,-0.5 489,-0.5"/>
<text text-anchor="middle" x="548.5" y="-7.5" font-family="Helvetica,sans-Serif" font-size="10.00">Macro::replaceMacro</text>
</a>
</g>
</g>
<!-- Node1&#45;&gt;Node9 -->
<g id="edge12" class="edge">
<title>Node1&#45;&gt;Node9</title>
<path fill="none" stroke="midnightblue" d="M815.85,-220.22C800.64,-198.61 773.14,-161.6 745,-134 690.22,-80.29 675.9,-64.7 608,-29 601.01,-25.32 593.17,-22.18 585.56,-19.58"/>
<polygon fill="midnightblue" stroke="midnightblue" points="813.01,-222.26 821.59,-228.47 818.75,-218.26 813.01,-222.26"/>
</g>
<!-- Node11 -->
<g id="node11" class="node">
<title>Node11</title>
<g id="a_node11"><a xlink:href="struct_macro.html#aee7d20953d25a4e783b8e897d78c4bf7" target="_top" xlink:title=" ">
<polygon fill="white" stroke="black" points="644,-10.5 644,-29.5 745,-29.5 745,-10.5 644,-10.5"/>
<text text-anchor="middle" x="694.5" y="-17.5" font-family="Helvetica,sans-Serif" font-size="10.00">Macro::replaceXY</text>
</a>
</g>
</g>
<!-- Node1&#45;&gt;Node11 -->
<g id="edge14" class="edge">
<title>Node1&#45;&gt;Node11</title>
<path fill="none" stroke="midnightblue" d="M819.21,-218.81C805.12,-188.72 775.89,-129.02 745,-82 732.14,-62.43 714.53,-41.51 704.15,-29.66"/>
<polygon fill="midnightblue" stroke="midnightblue" points="816.16,-220.55 823.54,-228.15 822.51,-217.61 816.16,-220.55"/>
</g>
<!-- Node12 -->
<g id="node12" class="node">
<title>Node12</title>
<g id="a_node12"><a xlink:href="class_alg.html#ada1e8215f047b4ffd736e811b5ea3162" target="_top" xlink:title=" ">
<polygon fill="white" stroke="black" points="663,-143.5 663,-162.5 726,-162.5 726,-143.5 663,-143.5"/>
<text text-anchor="middle" x="694.5" y="-150.5" font-family="Helvetica,sans-Serif" font-size="10.00">Alg::write</text>
</a>
</g>
</g>
<!-- Node1&#45;&gt;Node12 -->
<g id="edge16" class="edge">
<title>Node1&#45;&gt;Node12</title>
<path fill="none" stroke="midnightblue" d="M804.55,-222.96C777.42,-205.55 733.54,-177.41 710.59,-162.68"/>
<polygon fill="midnightblue" stroke="midnightblue" points="802.75,-225.96 813.06,-228.41 806.53,-220.07 802.75,-225.96"/>
</g>
<!-- Node3 -->
<g id="node3" class="node">
<title>Node3</title>
<g id="a_node3"><a xlink:href="class_export.html#affc37d1d677a83d3e5d36a4e37b7a72b" target="_top" xlink:title=" ">
<polygon fill="white" stroke="black" points="146,-232.5 146,-251.5 256,-251.5 256,-232.5 146,-232.5"/>
<text text-anchor="middle" x="201" y="-239.5" font-family="Helvetica,sans-Serif" font-size="10.00">Export::exportCode</text>
</a>
</g>
</g>
<!-- Node2&#45;&gt;Node3 -->
<g id="edge2" class="edge">
<title>Node2&#45;&gt;Node3</title>
<path fill="none" stroke="midnightblue" d="M490.75,-340.36C438.34,-328.85 358.75,-309.45 292,-285 265.98,-275.47 237.33,-261.06 219.5,-251.59"/>
<polygon fill="midnightblue" stroke="midnightblue" points="490.02,-343.78 500.53,-342.49 491.5,-336.94 490.02,-343.78"/>
</g>
<!-- Node4 -->
<g id="node4" class="node">
<title>Node4</title>
<g id="a_node4"><a xlink:href="class_export.html#a94fab568af6ddd6447efca74e205e081" target="_top" xlink:title=" ">
<polygon fill="white" stroke="black" points="0,-251.5 0,-270.5 110,-270.5 110,-251.5 0,-251.5"/>
<text text-anchor="middle" x="55" y="-258.5" font-family="Helvetica,sans-Serif" font-size="10.00">Export::exportCode</text>
</a>
</g>
</g>
<!-- Node3&#45;&gt;Node4 -->
<g id="edge3" class="edge">
<title>Node3&#45;&gt;Node4</title>
<path fill="none" stroke="midnightblue" d="M136.01,-250.44C127.44,-251.57 118.72,-252.73 110.33,-253.83"/>
<polygon fill="midnightblue" stroke="midnightblue" points="136.51,-253.91 145.97,-249.13 135.6,-246.97 136.51,-253.91"/>
</g>
<!-- Node5 -->
<g id="node5" class="node">
<title>Node5</title>
<g id="a_node5"><a xlink:href="src_2main_8cpp.html#a0ddf1224851353fc92bfbff6f499fa97" target="_top" xlink:title=" ">
<polygon fill="white" stroke="black" points="34.5,-213.5 34.5,-232.5 75.5,-232.5 75.5,-213.5 34.5,-213.5"/>
<text text-anchor="middle" x="55" y="-220.5" font-family="Helvetica,sans-Serif" font-size="10.00">main</text>
</a>
</g>
</g>
<!-- Node3&#45;&gt;Node5 -->
<g id="edge4" class="edge">
<title>Node3&#45;&gt;Node5</title>
<path fill="none" stroke="midnightblue" d="M136.05,-233.56C114.24,-230.68 91.43,-227.67 75.76,-225.61"/>
<polygon fill="midnightblue" stroke="midnightblue" points="135.6,-237.03 145.97,-234.87 136.51,-230.09 135.6,-237.03"/>
</g>
<!-- Node6&#45;&gt;Node3 -->
<g id="edge6" class="edge">
<title>Node6&#45;&gt;Node3</title>
<path fill="none" stroke="midnightblue" d="M293.88,-255.01C281.15,-253.21 268.21,-251.37 256.21,-249.68"/>
<polygon fill="midnightblue" stroke="midnightblue" points="293.63,-258.51 304.02,-256.45 294.61,-251.58 293.63,-258.51"/>
</g>
<!-- Node7&#45;&gt;Node3 -->
<g id="edge8" class="edge">
<title>Node7&#45;&gt;Node3</title>
<path fill="none" stroke="midnightblue" d="M309.99,-227.35C292.35,-229.74 273.24,-232.33 256.08,-234.66"/>
<polygon fill="midnightblue" stroke="midnightblue" points="310.75,-230.78 320.18,-225.96 309.8,-223.84 310.75,-230.78"/>
</g>
<!-- Node8&#45;&gt;Node2 -->
<g id="edge10" class="edge">
<title>Node8&#45;&gt;Node2</title>
<path fill="none" stroke="midnightblue" d="M647.33,-326.18C627.34,-331.46 604.28,-337.54 585.58,-342.48"/>
<polygon fill="midnightblue" stroke="midnightblue" points="648.39,-329.52 657.16,-323.59 646.6,-322.76 648.39,-329.52"/>
</g>
<!-- Node8&#45;&gt;Node7 -->
<g id="edge11" class="edge">
<title>Node8&#45;&gt;Node7</title>
<path fill="none" stroke="midnightblue" d="M651.47,-301.52C586.69,-282.29 463.83,-245.82 405.63,-228.54"/>
<polygon fill="midnightblue" stroke="midnightblue" points="650.77,-304.97 661.35,-304.46 652.76,-298.25 650.77,-304.97"/>
</g>
<!-- Node10 -->
<g id="node10" class="node">
<title>Node10</title>
<g id="a_node10"><a xlink:href="class_alg.html#a45e536cf797bba52c851877371ea64c5" target="_top" xlink:title=" ">
<polygon fill="white" stroke="black" points="345.5,-0.5 345.5,-19.5 399.5,-19.5 399.5,-0.5 345.5,-0.5"/>
<text text-anchor="middle" x="372.5" y="-7.5" font-family="Helvetica,sans-Serif" font-size="10.00">Alg::Alg</text>
</a>
</g>
</g>
<!-- Node9&#45;&gt;Node10 -->
<g id="edge13" class="edge">
<title>Node9&#45;&gt;Node10</title>
<path fill="none" stroke="midnightblue" d="M478.53,-10C450.86,-10 420.64,-10 399.75,-10"/>
<polygon fill="midnightblue" stroke="midnightblue" points="478.59,-13.5 488.59,-10 478.59,-6.5 478.59,-13.5"/>
</g>
<!-- Node11&#45;&gt;Node9 -->
<g id="edge15" class="edge">
<title>Node11&#45;&gt;Node9</title>
<path fill="none" stroke="midnightblue" d="M633.74,-15.85C625.26,-15.26 616.54,-14.66 608.08,-14.07"/>
<polygon fill="midnightblue" stroke="midnightblue" points="633.72,-19.36 643.94,-16.56 634.21,-12.37 633.72,-19.36"/>
</g>
<!-- Node12&#45;&gt;Node7 -->
<g id="edge25" class="edge">
<title>Node12&#45;&gt;Node7</title>
<path fill="none" stroke="midnightblue" d="M658.39,-165.87C643.07,-171.12 624.81,-176.91 608,-181 545.68,-196.16 472.55,-206.92 424.73,-213.04"/>
<polygon fill="midnightblue" stroke="midnightblue" points="659.7,-169.12 667.99,-162.51 657.39,-162.51 659.7,-169.12"/>
</g>
<!-- Node12&#45;&gt;Node12 -->
<g id="edge26" class="edge">
<title>Node12&#45;&gt;Node12</title>
<path fill="none" stroke="midnightblue" d="M719.43,-172.03C718.07,-177.13 709.76,-181 694.5,-181 670.68,-181 663.8,-171.57 673.85,-162.76"/>
<polygon fill="midnightblue" stroke="midnightblue" points="722.52,-170.37 715.15,-162.76 716.16,-173.3 722.52,-170.37"/>
</g>
<!-- Node13 -->
<g id="node13" class="node">
<title>Node13</title>
<g id="a_node13"><a xlink:href="class_export.html#a89d3ae54dd2261cf35be148011b79fe4" target="_top" xlink:title=" ">
<polygon fill="white" stroke="black" points="316.5,-76.5 316.5,-95.5 428.5,-95.5 428.5,-76.5 316.5,-76.5"/>
<text text-anchor="middle" x="372.5" y="-83.5" font-family="Helvetica,sans-Serif" font-size="10.00">Export::_algorithms</text>
</a>
</g>
</g>
<!-- Node12&#45;&gt;Node13 -->
<g id="edge17" class="edge">
<title>Node12&#45;&gt;Node13</title>
<path fill="none" stroke="midnightblue" d="M672.28,-137.65C655.66,-126.5 631.49,-112.17 608,-105 548.62,-86.88 477.08,-83.58 428.76,-83.89"/>
<polygon fill="midnightblue" stroke="midnightblue" points="670.47,-140.65 680.69,-143.45 674.45,-134.89 670.47,-140.65"/>
</g>
<!-- Node14 -->
<g id="node14" class="node">
<title>Node14</title>
<g id="a_node14"><a xlink:href="class_export.html#ae4811e1e4212029122c0ee29613714cc" target="_top" xlink:title=" ">
<polygon fill="white" stroke="black" points="492.5,-152.5 492.5,-171.5 604.5,-171.5 604.5,-152.5 492.5,-152.5"/>
<text text-anchor="middle" x="548.5" y="-159.5" font-family="Helvetica,sans-Serif" font-size="10.00">Export::_estimation</text>
</a>
</g>
</g>
<!-- Node12&#45;&gt;Node14 -->
<g id="edge19" class="edge">
<title>Node12&#45;&gt;Node14</title>
<path fill="none" stroke="midnightblue" d="M652.56,-155.56C637.68,-156.49 620.61,-157.56 604.7,-158.55"/>
<polygon fill="midnightblue" stroke="midnightblue" points="653.2,-159.03 662.96,-154.91 652.76,-152.04 653.2,-159.03"/>
</g>
<!-- Node15 -->
<g id="node15" class="node">
<title>Node15</title>
<g id="a_node15"><a xlink:href="class_export.html#a59ba705b2369f21006ec7d7b7f3a4513" target="_top" xlink:title="Generate RIS reflection matrices.">
<polygon fill="white" stroke="black" points="490.5,-114.5 490.5,-133.5 606.5,-133.5 606.5,-114.5 490.5,-114.5"/>
<text text-anchor="middle" x="548.5" y="-121.5" font-family="Helvetica,sans-Serif" font-size="10.00">Export::_generateBF</text>
</a>
</g>
</g>
<!-- Node12&#45;&gt;Node15 -->
<g id="edge21" class="edge">
<title>Node12&#45;&gt;Node15</title>
<path fill="none" stroke="midnightblue" d="M653.05,-144.85C635.54,-141.33 614.93,-137.18 596.72,-133.51"/>
<polygon fill="midnightblue" stroke="midnightblue" points="652.47,-148.31 662.96,-146.85 653.85,-141.44 652.47,-148.31"/>
</g>
<!-- Node16 -->
<g id="node16" class="node">
<title>Node16</title>
<g id="a_node16"><a xlink:href="class_export.html#a833aa02973f6b5c1f3e536e8646cf1ac" target="_top" xlink:title=" ">
<polygon fill="white" stroke="black" points="498.5,-38.5 498.5,-57.5 598.5,-57.5 598.5,-38.5 498.5,-38.5"/>
<text text-anchor="middle" x="548.5" y="-45.5" font-family="Helvetica,sans-Serif" font-size="10.00">Export::_loadALG</text>
</a>
</g>
</g>
<!-- Node12&#45;&gt;Node16 -->
<g id="edge23" class="edge">
<title>Node12&#45;&gt;Node16</title>
<path fill="none" stroke="midnightblue" d="M673.93,-136.76C664.67,-128.88 653.57,-119.16 644,-110 627.2,-93.91 627.19,-85.15 608,-72 599.4,-66.1 589.12,-61.28 579.6,-57.54"/>
<polygon fill="midnightblue" stroke="midnightblue" points="671.91,-139.64 681.82,-143.4 676.42,-134.28 671.91,-139.64"/>
</g>
<!-- Node13&#45;&gt;Node3 -->
<g id="edge18" class="edge">
<title>Node13&#45;&gt;Node3</title>
<path fill="none" stroke="midnightblue" d="M353.53,-102.54C318.25,-135.01 240.94,-206.16 212.65,-232.2"/>
<polygon fill="midnightblue" stroke="midnightblue" points="356.16,-104.87 361.15,-95.52 351.42,-99.72 356.16,-104.87"/>
</g>
<!-- Node14&#45;&gt;Node7 -->
<g id="edge20" class="edge">
<title>Node14&#45;&gt;Node7</title>
<path fill="none" stroke="midnightblue" d="M508.87,-174.66C476.79,-185.16 431.86,-199.88 402.72,-209.43"/>
<polygon fill="midnightblue" stroke="midnightblue" points="509.96,-177.98 518.38,-171.54 507.78,-171.33 509.96,-177.98"/>
</g>
<!-- Node15&#45;&gt;Node7 -->
<g id="edge22" class="edge">
<title>Node15&#45;&gt;Node7</title>
<path fill="none" stroke="midnightblue" d="M503.4,-136.9C498.47,-138.76 493.57,-140.8 489,-143 448.76,-162.34 406.02,-193.7 385.66,-209.4"/>
<polygon fill="midnightblue" stroke="midnightblue" points="504.61,-140.19 512.87,-133.55 502.28,-133.59 504.61,-140.19"/>
</g>
<!-- Node16&#45;&gt;Node13 -->
<g id="edge24" class="edge">
<title>Node16&#45;&gt;Node13</title>
<path fill="none" stroke="midnightblue" d="M493.69,-59.75C469.08,-65.13 440.31,-71.41 417.09,-76.48"/>
<polygon fill="midnightblue" stroke="midnightblue" points="494.57,-63.14 503.59,-57.59 493.08,-56.3 494.57,-63.14"/>
</g>
</g>
</svg>
        <g id="navigator" transform="translate(0 0)" fill="#404254">
                <rect fill="#f2f5e9" fill-opacity="0.5" stroke="#606060" stroke-width=".5" x="0" y="0" width="60" height="60"/>
                <use id="zoomplus" xlink:href="#zoomPlus" x="17" y="9" onmousedown="handleZoom(evt,'in')"/>
                <use id="zoomminus" xlink:href="#zoomMin" x="42" y="9" onmousedown="handleZoom(evt,'out')"/>
                <use id="reset" xlink:href="#resetDef" x="30" y="36" onmousedown="handleReset()"/>
                <g id="arrowUp" xlink:href="#dirArrow" transform="translate(30 24)" onmousedown="handlePan(0,-1)">
                  <use xlink:href="#rim" fill="#404040">
                        <set attributeName="fill" to="#808080" begin="arrowUp.mouseover" end="arrowUp.mouseout"/>
                  </use>
                  <path fill="none" stroke="white" stroke-width="1.5" d="M0,-3.0v7 M-2.5,-0.5L0,-3.0L2.5,-0.5"/>
                </g>
                <g id="arrowRight" xlink:href="#dirArrow" transform="rotate(90) translate(36 -43)" onmousedown="handlePan(1,0)">
                  <use xlink:href="#rim" fill="#404040">
                        <set attributeName="fill" to="#808080" begin="arrowRight.mouseover" end="arrowRight.mouseout"/>
                  </use>
                  <path fill="none" stroke="white" stroke-width="1.5" d="M0,-3.0v7 M-2.5,-0.5L0,-3.0L2.5,-0.5"/>
                </g>
                <g id="arrowDown" xlink:href="#dirArrow" transform="rotate(180) translate(-30 -48)" onmousedown="handlePan(0,1)">
                  <use xlink:href="#rim" fill="#404040">
                        <set attributeName="fill" to="#808080" begin="arrowDown.mouseover" end="arrowDown.mouseout"/>
                  </use>
                  <path fill="none" stroke="white" stroke-width="1.5" d="M0,-3.0v7 M-2.5,-0.5L0,-3.0L2.5,-0.5"/>
                </g>
                <g id="arrowLeft" xlink:href="#dirArrow" transform="rotate(270) translate(-36 17)" onmousedown="handlePan(-1,0)">
                  <use xlink:href="#rim" fill="#404040">
                        <set attributeName="fill" to="#808080" begin="arrowLeft.mouseover" end="arrowLeft.mouseout"/>
                  </use>
                  <path fill="none" stroke="white" stroke-width="1.5" d="M0,-3.0v7 M-2.5,-0.5L0,-3.0L2.5,-0.5"/>
                </g>
        </g>
        <svg viewBox="0 0 15 15" width="100%" height="30px" preserveAspectRatio="xMaxYMin meet">
         <g id="arrow_out" transform="scale(0.3 0.3)">
          <a xlink:href="namespacemmce_ad4a160832ef9fad47c531ece39752208_icgraph_org.svg" target="_base">
           <rect id="button" ry="5" rx="5" y="6" x="6" height="38" width="38"
                fill="#f2f5e9" fill-opacity="0.5" stroke="#606060" stroke-width="1.0"/>
           <path id="arrow"
             d="M 11.500037,31.436501 C 11.940474,20.09759 22.043105,11.32322 32.158766,21.979434 L 37.068811,17.246167 C 37.068811,17.246167 37.088388,32 37.088388,32 L 22.160133,31.978069 C 22.160133,31.978069 26.997745,27.140456 26.997745,27.140456 C 18.528582,18.264221 13.291696,25.230495 11.500037,31.436501 z"
             style="fill:#404040;"/>
          </a>
         </g>
        </svg>
</svg>
