<?xml version="1.0" encoding="UTF-8" standalone="no"?>
<!DOCTYPE svg PUBLIC "-//W3C//DTD SVG 1.1//EN"
 "http://www.w3.org/Graphics/SVG/1.1/DTD/svg11.dtd">
<!-- Generated by graphviz version 2.43.0 (0)
 -->
<!-- Title: hasError Pages: 1 -->
<svg width="250pt" height="28pt"
 viewBox="0.00 0.00 250.00 28.00" xmlns="http://www.w3.org/2000/svg" xmlns:xlink="http://www.w3.org/1999/xlink">
<g id="graph0" class="graph" transform="scale(1 1) rotate(0) translate(4 24)">
<title>hasError</title>
<polygon fill="white" stroke="transparent" points="-4,4 -4,-24 246,-24 246,4 -4,4"/>
<!-- Node1 -->
<g id="node1" class="node">
<title>Node1</title>
<g id="a_node1"><a xlink:title=" ">
<polygon fill="#bfbfbf" stroke="black" points="0,-0.5 0,-19.5 57,-19.5 57,-0.5 0,-0.5"/>
<text text-anchor="middle" x="28.5" y="-7.5" font-family="Helvetica,sans-Serif" font-size="10.00">hasError</text>
</a>
</g>
</g>
<!-- Node2 -->
<g id="node2" class="node">
<title>Node2</title>
<g id="a_node2"><a xlink:href="error__code_8h.html#a81aa27a794998cf874bbef6d0f34b9d9" target="_top" xlink:title="Check if the error code corresponds to an error.">
<polygon fill="white" stroke="black" points="93,-0.5 93,-19.5 141,-19.5 141,-0.5 93,-0.5"/>
<text text-anchor="middle" x="117" y="-7.5" font-family="Helvetica,sans-Serif" font-size="10.00">isError</text>
</a>
</g>
</g>
<!-- Node1&#45;&gt;Node2 -->
<g id="edge1" class="edge">
<title>Node1&#45;&gt;Node2</title>
<path fill="none" stroke="midnightblue" d="M57.35,-10C65.4,-10 74.28,-10 82.64,-10"/>
<polygon fill="midnightblue" stroke="midnightblue" points="82.84,-13.5 92.84,-10 82.84,-6.5 82.84,-13.5"/>
</g>
<!-- Node3 -->
<g id="node3" class="node">
<title>Node3</title>
<g id="a_node3"><a xlink:href="error__code_8h.html#ae1ca599cceb33d2db79940c7d98937f8" target="_top" xlink:title="Return the integer of the error code from class Err.">
<polygon fill="white" stroke="black" points="177,-0.5 177,-19.5 242,-19.5 242,-0.5 177,-0.5"/>
<text text-anchor="middle" x="209.5" y="-7.5" font-family="Helvetica,sans-Serif" font-size="10.00">errorCode</text>
</a>
</g>
</g>
<!-- Node2&#45;&gt;Node3 -->
<g id="edge2" class="edge">
<title>Node2&#45;&gt;Node3</title>
<path fill="none" stroke="midnightblue" d="M141.31,-10C149.06,-10 157.95,-10 166.67,-10"/>
<polygon fill="midnightblue" stroke="midnightblue" points="166.75,-13.5 176.75,-10 166.75,-6.5 166.75,-13.5"/>
</g>
</g>
</svg>
