<?xml version="1.0" encoding="UTF-8" standalone="no"?>
<!DOCTYPE svg PUBLIC "-//W3C//DTD SVG 1.1//EN"
 "http://www.w3.org/Graphics/SVG/1.1/DTD/svg11.dtd">
<!-- Generated by graphviz version 2.43.0 (0)
 -->
<!-- Title: include/read.h Pages: 1 -->
<svg width="1264pt" height="319pt"
 viewBox="0.00 0.00 1263.50 319.00" xmlns="http://www.w3.org/2000/svg" xmlns:xlink="http://www.w3.org/1999/xlink">
<g id="graph0" class="graph" transform="scale(1 1) rotate(0) translate(4 315)">
<title>include/read.h</title>
<polygon fill="white" stroke="transparent" points="-4,4 -4,-315 1259.5,-315 1259.5,4 -4,4"/>
<!-- Node1 -->
<g id="node1" class="node">
<title>Node1</title>
<g id="a_node1"><a xlink:title="Read YAML Configuration.">
<polygon fill="#bfbfbf" stroke="black" points="999,-291.5 999,-310.5 1085,-310.5 1085,-291.5 999,-291.5"/>
<text text-anchor="middle" x="1042" y="-298.5" font-family="Helvetica,sans-Serif" font-size="10.00">include/read.h</text>
</a>
</g>
</g>
<!-- Node2 -->
<g id="node2" class="node">
<title>Node2</title>
<g id="a_node2"><a xlink:href="error__code_8h.html" target="_top" xlink:title="Error Codes (Including Warnings)">
<polygon fill="white" stroke="black" points="862.5,-235.5 862.5,-254.5 939.5,-254.5 939.5,-235.5 862.5,-235.5"/>
<text text-anchor="middle" x="901" y="-242.5" font-family="Helvetica,sans-Serif" font-size="10.00">error_code.h</text>
</a>
</g>
</g>
<!-- Node1&#45;&gt;Node2 -->
<g id="edge1" class="edge">
<title>Node1&#45;&gt;Node2</title>
<path fill="none" stroke="midnightblue" d="M1019.66,-291.44C996.25,-282.48 959.26,-268.31 932.81,-258.18"/>
<polygon fill="midnightblue" stroke="midnightblue" points="933.83,-254.82 923.24,-254.52 931.32,-261.36 933.83,-254.82"/>
</g>
<!-- Node5 -->
<g id="node5" class="node">
<title>Node5</title>
<g id="a_node5"><a xlink:href="meta_8h.html" target="_top" xlink:title="mmCEsim meta data">
<polygon fill="white" stroke="black" points="744.5,-67.5 744.5,-86.5 795.5,-86.5 795.5,-67.5 744.5,-67.5"/>
<text text-anchor="middle" x="770" y="-74.5" font-family="Helvetica,sans-Serif" font-size="10.00">meta.h</text>
</a>
</g>
</g>
<!-- Node1&#45;&gt;Node5 -->
<g id="edge32" class="edge">
<title>Node1&#45;&gt;Node5</title>
<path fill="none" stroke="midnightblue" d="M998.89,-298.11C937.48,-292.78 826.92,-272.86 779,-199 758.82,-167.89 762.14,-122.35 766.18,-96.94"/>
<polygon fill="midnightblue" stroke="midnightblue" points="769.68,-97.26 768,-86.8 762.79,-96.02 769.68,-97.26"/>
</g>
<!-- Node6 -->
<g id="node6" class="node">
<title>Node6</title>
<g id="a_node6"><a xlink:title=" ">
<polygon fill="white" stroke="#bfbfbf" points="748,-6 748,-25 792,-25 792,-6 748,-6"/>
<text text-anchor="middle" x="770" y="-13" font-family="Helvetica,sans-Serif" font-size="10.00">string</text>
</a>
</g>
</g>
<!-- Node1&#45;&gt;Node6 -->
<g id="edge36" class="edge">
<title>Node1&#45;&gt;Node6</title>
<path fill="none" stroke="midnightblue" d="M998.91,-297.74C847.51,-289.21 349,-256.12 349,-190 349,-190 349,-190 349,-132 349,19.26 524.09,-51.13 674,-31 695.33,-28.14 719.25,-24.52 737.89,-21.62"/>
<polygon fill="midnightblue" stroke="midnightblue" points="738.58,-25.05 747.91,-20.05 737.49,-18.14 738.58,-25.05"/>
</g>
<!-- Node9 -->
<g id="node9" class="node">
<title>Node9</title>
<g id="a_node9"><a xlink:title=" ">
<polygon fill="white" stroke="#bfbfbf" points="1050,-6 1050,-25 1110,-25 1110,-6 1050,-6"/>
<text text-anchor="middle" x="1080" y="-13" font-family="Helvetica,sans-Serif" font-size="10.00">iostream</text>
</a>
</g>
</g>
<!-- Node1&#45;&gt;Node9 -->
<g id="edge35" class="edge">
<title>Node1&#45;&gt;Node9</title>
<path fill="none" stroke="midnightblue" d="M1053.54,-291.43C1074.8,-274.57 1118,-234.8 1118,-190 1118,-190 1118,-190 1118,-132 1118,-95.75 1100.91,-56.17 1089.65,-34.03"/>
<polygon fill="midnightblue" stroke="midnightblue" points="1092.73,-32.37 1084.97,-25.16 1086.54,-35.64 1092.73,-32.37"/>
</g>
<!-- Node15 -->
<g id="node15" class="node">
<title>Node15</title>
<g id="a_node15"><a xlink:title=" ">
<polygon fill="white" stroke="#bfbfbf" points="833.5,-6 833.5,-25 880.5,-25 880.5,-6 833.5,-6"/>
<text text-anchor="middle" x="857" y="-13" font-family="Helvetica,sans-Serif" font-size="10.00">vector</text>
</a>
</g>
</g>
<!-- Node1&#45;&gt;Node15 -->
<g id="edge38" class="edge">
<title>Node1&#45;&gt;Node15</title>
<path fill="none" stroke="midnightblue" d="M1042,-291.44C1042,-272.94 1042,-227.81 1042,-190 1042,-190 1042,-190 1042,-132 1042,-61.54 944.24,-32.48 890.85,-21.87"/>
<polygon fill="midnightblue" stroke="midnightblue" points="891.28,-18.39 880.81,-19.99 889.99,-25.27 891.28,-18.39"/>
</g>
<!-- Node27 -->
<g id="node27" class="node">
<title>Node27</title>
<g id="a_node27"><a xlink:href="yaml_8h.html" target="_top" xlink:title="Wrapper for yaml&#45;cpp for static linking.">
<polygon fill="white" stroke="black" points="1146,-235.5 1146,-254.5 1196,-254.5 1196,-235.5 1146,-235.5"/>
<text text-anchor="middle" x="1171" y="-242.5" font-family="Helvetica,sans-Serif" font-size="10.00">yaml.h</text>
</a>
</g>
</g>
<!-- Node1&#45;&gt;Node27 -->
<g id="edge33" class="edge">
<title>Node1&#45;&gt;Node27</title>
<path fill="none" stroke="midnightblue" d="M1062.44,-291.44C1083.67,-282.56 1117.1,-268.56 1141.25,-258.45"/>
<polygon fill="midnightblue" stroke="midnightblue" points="1142.78,-261.61 1150.66,-254.52 1140.08,-255.15 1142.78,-261.61"/>
</g>
<!-- Node29 -->
<g id="node29" class="node">
<title>Node29</title>
<g id="a_node29"><a xlink:title=" ">
<polygon fill="white" stroke="#bfbfbf" points="1214.5,-235.5 1214.5,-254.5 1255.5,-254.5 1255.5,-235.5 1214.5,-235.5"/>
<text text-anchor="middle" x="1235" y="-242.5" font-family="Helvetica,sans-Serif" font-size="10.00">tuple</text>
</a>
</g>
</g>
<!-- Node1&#45;&gt;Node29 -->
<g id="edge37" class="edge">
<title>Node1&#45;&gt;Node29</title>
<path fill="none" stroke="midnightblue" d="M1073.61,-291.5C1104.57,-283.12 1153.3,-269.8 1204.73,-255.03"/>
<polygon fill="midnightblue" stroke="midnightblue" points="1205.72,-258.39 1214.36,-252.26 1203.78,-251.66 1205.72,-258.39"/>
</g>
<!-- Node3 -->
<g id="node3" class="node">
<title>Node3</title>
<g id="a_node3"><a xlink:href="log__global_8h.html" target="_top" xlink:title="Global Access of Log.">
<polygon fill="white" stroke="black" points="609,-179.5 609,-198.5 685,-198.5 685,-179.5 609,-179.5"/>
<text text-anchor="middle" x="647" y="-186.5" font-family="Helvetica,sans-Serif" font-size="10.00">log_global.h</text>
</a>
</g>
</g>
<!-- Node2&#45;&gt;Node3 -->
<g id="edge2" class="edge">
<title>Node2&#45;&gt;Node3</title>
<path fill="none" stroke="midnightblue" d="M862.42,-235.8C817.59,-226.27 743.58,-210.53 695.06,-200.22"/>
<polygon fill="midnightblue" stroke="midnightblue" points="695.62,-196.76 685.11,-198.1 694.16,-203.6 695.62,-196.76"/>
</g>
<!-- Node2&#45;&gt;Node5 -->
<g id="edge26" class="edge">
<title>Node2&#45;&gt;Node5</title>
<path fill="none" stroke="midnightblue" d="M862.37,-237.2C839.16,-231.1 810.94,-219.77 794,-199 769.94,-169.51 767.72,-122.66 768.61,-96.76"/>
<polygon fill="midnightblue" stroke="midnightblue" points="772.11,-96.93 769.15,-86.76 765.12,-96.56 772.11,-96.93"/>
</g>
<!-- Node2&#45;&gt;Node6 -->
<g id="edge30" class="edge">
<title>Node2&#45;&gt;Node6</title>
<path fill="none" stroke="midnightblue" d="M876.49,-235.37C859.88,-228.22 838.86,-216.39 827,-199 793.45,-149.8 826.23,-122.25 804,-67 799.1,-54.81 790.94,-42.56 783.85,-33.17"/>
<polygon fill="midnightblue" stroke="midnightblue" points="786.45,-30.83 777.51,-25.15 780.96,-35.17 786.45,-30.83"/>
</g>
<!-- Node7 -->
<g id="node7" class="node">
<title>Node7</title>
<g id="a_node7"><a xlink:href="term_8h.html" target="_top" xlink:title="Terminal Color and Style Control.">
<polygon fill="white" stroke="black" points="942.5,-67.5 942.5,-86.5 991.5,-86.5 991.5,-67.5 942.5,-67.5"/>
<text text-anchor="middle" x="967" y="-74.5" font-family="Helvetica,sans-Serif" font-size="10.00">term.h</text>
</a>
</g>
</g>
<!-- Node2&#45;&gt;Node7 -->
<g id="edge27" class="edge">
<title>Node2&#45;&gt;Node7</title>
<path fill="none" stroke="midnightblue" d="M933.18,-235.49C951.54,-228.8 973.02,-217.45 984,-199 1003.28,-166.62 987.62,-120.92 976.22,-95.98"/>
<polygon fill="midnightblue" stroke="midnightblue" points="979.22,-94.13 971.72,-86.65 972.92,-97.18 979.22,-94.13"/>
</g>
<!-- Node2&#45;&gt;Node9 -->
<g id="edge29" class="edge">
<title>Node2&#45;&gt;Node9</title>
<path fill="none" stroke="midnightblue" d="M934.9,-235.44C956.33,-228.57 983.4,-217.05 1002,-199 1049.97,-152.45 1070.03,-71.64 1076.93,-35.24"/>
<polygon fill="midnightblue" stroke="midnightblue" points="1080.43,-35.53 1078.73,-25.07 1073.54,-34.31 1080.43,-35.53"/>
</g>
<!-- Node25 -->
<g id="node25" class="node">
<title>Node25</title>
<g id="a_node25"><a xlink:title=" ">
<polygon fill="white" stroke="#bfbfbf" points="836,-179.5 836,-198.5 888,-198.5 888,-179.5 836,-179.5"/>
<text text-anchor="middle" x="862" y="-186.5" font-family="Helvetica,sans-Serif" font-size="10.00">cassert</text>
</a>
</g>
</g>
<!-- Node2&#45;&gt;Node25 -->
<g id="edge28" class="edge">
<title>Node2&#45;&gt;Node25</title>
<path fill="none" stroke="midnightblue" d="M894.56,-235.08C889.05,-227.46 880.97,-216.26 874.24,-206.94"/>
<polygon fill="midnightblue" stroke="midnightblue" points="877.01,-204.81 868.32,-198.75 871.34,-208.91 877.01,-204.81"/>
</g>
<!-- Node26 -->
<g id="node26" class="node">
<title>Node26</title>
<g id="a_node26"><a xlink:title=" ">
<polygon fill="white" stroke="#bfbfbf" points="906.5,-179.5 906.5,-198.5 975.5,-198.5 975.5,-179.5 906.5,-179.5"/>
<text text-anchor="middle" x="941" y="-186.5" font-family="Helvetica,sans-Serif" font-size="10.00">type_traits</text>
</a>
</g>
</g>
<!-- Node2&#45;&gt;Node26 -->
<g id="edge31" class="edge">
<title>Node2&#45;&gt;Node26</title>
<path fill="none" stroke="midnightblue" d="M907.61,-235.08C913.26,-227.46 921.54,-216.26 928.45,-206.94"/>
<polygon fill="midnightblue" stroke="midnightblue" points="931.38,-208.87 934.52,-198.75 925.75,-204.7 931.38,-208.87"/>
</g>
<!-- Node4 -->
<g id="node4" class="node">
<title>Node4</title>
<g id="a_node4"><a xlink:href="include_2log_8h.html" target="_top" xlink:title="Log Utilities.">
<polygon fill="white" stroke="black" points="606.5,-123.5 606.5,-142.5 647.5,-142.5 647.5,-123.5 606.5,-123.5"/>
<text text-anchor="middle" x="627" y="-130.5" font-family="Helvetica,sans-Serif" font-size="10.00">log.h</text>
</a>
</g>
</g>
<!-- Node3&#45;&gt;Node4 -->
<g id="edge3" class="edge">
<title>Node3&#45;&gt;Node4</title>
<path fill="none" stroke="midnightblue" d="M643.7,-179.08C641.02,-171.85 637.15,-161.41 633.81,-152.4"/>
<polygon fill="midnightblue" stroke="midnightblue" points="637,-150.91 630.24,-142.75 630.43,-153.34 637,-150.91"/>
</g>
<!-- Node4&#45;&gt;Node5 -->
<g id="edge4" class="edge">
<title>Node4&#45;&gt;Node5</title>
<path fill="none" stroke="midnightblue" d="M647.79,-124.15C671.39,-115.24 710.16,-100.6 737.7,-90.2"/>
<polygon fill="midnightblue" stroke="midnightblue" points="739.17,-93.38 747.29,-86.58 736.7,-86.83 739.17,-93.38"/>
</g>
<!-- Node4&#45;&gt;Node7 -->
<g id="edge6" class="edge">
<title>Node4&#45;&gt;Node7</title>
<path fill="none" stroke="midnightblue" d="M647.5,-128.74C703.9,-119.79 861.84,-94.7 932.3,-83.51"/>
<polygon fill="midnightblue" stroke="midnightblue" points="933.11,-86.93 942.43,-81.9 932.01,-80.01 933.11,-86.93"/>
</g>
<!-- Node10 -->
<g id="node10" class="node">
<title>Node10</title>
<g id="a_node10"><a xlink:href="utils_8h.html" target="_top" xlink:title="Utilities.">
<polygon fill="white" stroke="black" points="273.5,-67.5 273.5,-86.5 320.5,-86.5 320.5,-67.5 273.5,-67.5"/>
<text text-anchor="middle" x="297" y="-74.5" font-family="Helvetica,sans-Serif" font-size="10.00">utils.h</text>
</a>
</g>
</g>
<!-- Node4&#45;&gt;Node10 -->
<g id="edge10" class="edge">
<title>Node4&#45;&gt;Node10</title>
<path fill="none" stroke="midnightblue" d="M606.36,-128.62C551.04,-119.57 399.07,-94.7 330.89,-83.54"/>
<polygon fill="midnightblue" stroke="midnightblue" points="331.12,-80.04 320.69,-81.88 329.99,-86.95 331.12,-80.04"/>
</g>
<!-- Node20 -->
<g id="node20" class="node">
<title>Node20</title>
<g id="a_node20"><a xlink:title=" ">
<polygon fill="white" stroke="#bfbfbf" points="377,-67.5 377,-86.5 421,-86.5 421,-67.5 377,-67.5"/>
<text text-anchor="middle" x="399" y="-74.5" font-family="Helvetica,sans-Serif" font-size="10.00">ctime</text>
</a>
</g>
</g>
<!-- Node4&#45;&gt;Node20 -->
<g id="edge21" class="edge">
<title>Node4&#45;&gt;Node20</title>
<path fill="none" stroke="midnightblue" d="M606.49,-127.72C572.18,-120.49 500.81,-105.06 431.13,-87.18"/>
<polygon fill="midnightblue" stroke="midnightblue" points="431.87,-83.76 421.31,-84.64 430.11,-90.54 431.87,-83.76"/>
</g>
<!-- Node21 -->
<g id="node21" class="node">
<title>Node21</title>
<g id="a_node21"><a xlink:title=" ">
<polygon fill="white" stroke="#bfbfbf" points="439,-67.5 439,-86.5 507,-86.5 507,-67.5 439,-67.5"/>
<text text-anchor="middle" x="473" y="-74.5" font-family="Helvetica,sans-Serif" font-size="10.00">filesystem</text>
</a>
</g>
</g>
<!-- Node4&#45;&gt;Node21 -->
<g id="edge22" class="edge">
<title>Node4&#45;&gt;Node21</title>
<path fill="none" stroke="midnightblue" d="M606.23,-124.72C580.86,-115.82 537.57,-100.64 507.24,-90.01"/>
<polygon fill="midnightblue" stroke="midnightblue" points="508.09,-86.6 497.5,-86.59 505.78,-93.2 508.09,-86.6"/>
</g>
<!-- Node22 -->
<g id="node22" class="node">
<title>Node22</title>
<g id="a_node22"><a xlink:title=" ">
<polygon fill="white" stroke="#bfbfbf" points="525.5,-67.5 525.5,-86.5 580.5,-86.5 580.5,-67.5 525.5,-67.5"/>
<text text-anchor="middle" x="553" y="-74.5" font-family="Helvetica,sans-Serif" font-size="10.00">fstream</text>
</a>
</g>
</g>
<!-- Node4&#45;&gt;Node22 -->
<g id="edge23" class="edge">
<title>Node4&#45;&gt;Node22</title>
<path fill="none" stroke="midnightblue" d="M615.11,-123.32C603.85,-115.11 586.71,-102.6 573.29,-92.81"/>
<polygon fill="midnightblue" stroke="midnightblue" points="575.25,-89.9 565.11,-86.83 571.12,-95.56 575.25,-89.9"/>
</g>
<!-- Node23 -->
<g id="node23" class="node">
<title>Node23</title>
<g id="a_node23"><a xlink:title=" ">
<polygon fill="white" stroke="#bfbfbf" points="599,-67.5 599,-86.5 655,-86.5 655,-67.5 599,-67.5"/>
<text text-anchor="middle" x="627" y="-74.5" font-family="Helvetica,sans-Serif" font-size="10.00">iomanip</text>
</a>
</g>
</g>
<!-- Node4&#45;&gt;Node23 -->
<g id="edge24" class="edge">
<title>Node4&#45;&gt;Node23</title>
<path fill="none" stroke="midnightblue" d="M627,-123.08C627,-116.01 627,-105.86 627,-96.99"/>
<polygon fill="midnightblue" stroke="midnightblue" points="630.5,-96.75 627,-86.75 623.5,-96.75 630.5,-96.75"/>
</g>
<!-- Node24 -->
<g id="node24" class="node">
<title>Node24</title>
<g id="a_node24"><a xlink:title=" ">
<polygon fill="white" stroke="#bfbfbf" points="673.5,-67.5 673.5,-86.5 726.5,-86.5 726.5,-67.5 673.5,-67.5"/>
<text text-anchor="middle" x="700" y="-74.5" font-family="Helvetica,sans-Serif" font-size="10.00">spy.hpp</text>
</a>
</g>
</g>
<!-- Node4&#45;&gt;Node24 -->
<g id="edge25" class="edge">
<title>Node4&#45;&gt;Node24</title>
<path fill="none" stroke="midnightblue" d="M638.73,-123.32C649.84,-115.11 666.74,-102.6 679.98,-92.81"/>
<polygon fill="midnightblue" stroke="midnightblue" points="682.1,-95.59 688.06,-86.83 677.94,-89.97 682.1,-95.59"/>
</g>
<!-- Node5&#45;&gt;Node6 -->
<g id="edge5" class="edge">
<title>Node5&#45;&gt;Node6</title>
<path fill="none" stroke="midnightblue" d="M770,-67.48C770,-59.08 770,-45.98 770,-35.16"/>
<polygon fill="midnightblue" stroke="midnightblue" points="773.5,-35.01 770,-25.01 766.5,-35.01 773.5,-35.01"/>
</g>
<!-- Node7&#45;&gt;Node6 -->
<g id="edge9" class="edge">
<title>Node7&#45;&gt;Node6</title>
<path fill="none" stroke="midnightblue" d="M942.45,-68.58C906.87,-57.84 840.95,-37.93 801.72,-26.08"/>
<polygon fill="midnightblue" stroke="midnightblue" points="802.71,-22.72 792.13,-23.18 800.69,-29.42 802.71,-22.72"/>
</g>
<!-- Node8 -->
<g id="node8" class="node">
<title>Node8</title>
<g id="a_node8"><a xlink:title=" ">
<polygon fill="white" stroke="#bfbfbf" points="942.5,-6 942.5,-25 991.5,-25 991.5,-6 942.5,-6"/>
<text text-anchor="middle" x="967" y="-13" font-family="Helvetica,sans-Serif" font-size="10.00">cstdlib</text>
</a>
</g>
</g>
<!-- Node7&#45;&gt;Node8 -->
<g id="edge7" class="edge">
<title>Node7&#45;&gt;Node8</title>
<path fill="none" stroke="midnightblue" d="M967,-67.48C967,-59.08 967,-45.98 967,-35.16"/>
<polygon fill="midnightblue" stroke="midnightblue" points="970.5,-35.01 967,-25.01 963.5,-35.01 970.5,-35.01"/>
</g>
<!-- Node7&#45;&gt;Node9 -->
<g id="edge8" class="edge">
<title>Node7&#45;&gt;Node9</title>
<path fill="none" stroke="midnightblue" d="M983.19,-67.48C1001.9,-57.62 1032.92,-41.29 1054.8,-29.77"/>
<polygon fill="midnightblue" stroke="midnightblue" points="1056.62,-32.77 1063.84,-25.01 1053.36,-26.57 1056.62,-32.77"/>
</g>
<!-- Node10&#45;&gt;Node6 -->
<g id="edge15" class="edge">
<title>Node10&#45;&gt;Node6</title>
<path fill="none" stroke="midnightblue" d="M320.62,-69.92C325.36,-68.83 330.32,-67.8 335,-67 484.35,-41.49 523.72,-50.32 674,-31 695.34,-28.26 719.27,-24.64 737.9,-21.71"/>
<polygon fill="midnightblue" stroke="midnightblue" points="738.6,-25.14 747.92,-20.12 737.5,-18.23 738.6,-25.14"/>
</g>
<!-- Node11 -->
<g id="node11" class="node">
<title>Node11</title>
<g id="a_node11"><a xlink:title=" ">
<polygon fill="white" stroke="#bfbfbf" points="228,-6 228,-25 292,-25 292,-6 228,-6"/>
<text text-anchor="middle" x="260" y="-13" font-family="Helvetica,sans-Serif" font-size="10.00">algorithm</text>
</a>
</g>
</g>
<!-- Node10&#45;&gt;Node11 -->
<g id="edge11" class="edge">
<title>Node10&#45;&gt;Node11</title>
<path fill="none" stroke="midnightblue" d="M291.7,-67.48C286.26,-58.73 277.64,-44.87 270.76,-33.81"/>
<polygon fill="midnightblue" stroke="midnightblue" points="273.54,-31.65 265.29,-25.01 267.6,-35.35 273.54,-31.65"/>
</g>
<!-- Node12 -->
<g id="node12" class="node">
<title>Node12</title>
<g id="a_node12"><a xlink:title=" ">
<polygon fill="white" stroke="#bfbfbf" points="310.5,-6 310.5,-25 359.5,-25 359.5,-6 310.5,-6"/>
<text text-anchor="middle" x="335" y="-13" font-family="Helvetica,sans-Serif" font-size="10.00">cctype</text>
</a>
</g>
</g>
<!-- Node10&#45;&gt;Node12 -->
<g id="edge12" class="edge">
<title>Node10&#45;&gt;Node12</title>
<path fill="none" stroke="midnightblue" d="M302.44,-67.48C308.09,-58.64 317.06,-44.59 324.16,-33.48"/>
<polygon fill="midnightblue" stroke="midnightblue" points="327.13,-35.32 329.57,-25.01 321.23,-31.55 327.13,-35.32"/>
</g>
<!-- Node13 -->
<g id="node13" class="node">
<title>Node13</title>
<g id="a_node13"><a xlink:title=" ">
<polygon fill="white" stroke="#bfbfbf" points="378,-6 378,-25 432,-25 432,-6 378,-6"/>
<text text-anchor="middle" x="405" y="-13" font-family="Helvetica,sans-Serif" font-size="10.00">random</text>
</a>
</g>
</g>
<!-- Node10&#45;&gt;Node13 -->
<g id="edge13" class="edge">
<title>Node10&#45;&gt;Node13</title>
<path fill="none" stroke="midnightblue" d="M312.47,-67.48C330.28,-57.67 359.74,-41.43 380.63,-29.92"/>
<polygon fill="midnightblue" stroke="midnightblue" points="382.49,-32.9 389.55,-25.01 379.11,-26.77 382.49,-32.9"/>
</g>
<!-- Node14 -->
<g id="node14" class="node">
<title>Node14</title>
<g id="a_node14"><a xlink:title=" ">
<polygon fill="white" stroke="#bfbfbf" points="450,-6 450,-25 506,-25 506,-6 450,-6"/>
<text text-anchor="middle" x="478" y="-13" font-family="Helvetica,sans-Serif" font-size="10.00">sstream</text>
</a>
</g>
</g>
<!-- Node10&#45;&gt;Node14 -->
<g id="edge14" class="edge">
<title>Node10&#45;&gt;Node14</title>
<path fill="none" stroke="midnightblue" d="M320.61,-69.18C349.28,-60.77 399,-45.77 441,-31 443.12,-30.26 445.29,-29.47 447.47,-28.66"/>
<polygon fill="midnightblue" stroke="midnightblue" points="448.87,-31.87 456.96,-25.04 446.37,-25.33 448.87,-31.87"/>
</g>
<!-- Node10&#45;&gt;Node15 -->
<g id="edge16" class="edge">
<title>Node10&#45;&gt;Node15</title>
<path fill="none" stroke="midnightblue" d="M320.64,-72.74C334.43,-70.91 352.18,-68.66 368,-67 560.05,-46.85 610.62,-63.32 801,-31 808.42,-29.74 816.29,-27.98 823.72,-26.11"/>
<polygon fill="midnightblue" stroke="midnightblue" points="824.71,-29.47 833.49,-23.54 822.93,-22.7 824.71,-29.47"/>
</g>
<!-- Node16 -->
<g id="node16" class="node">
<title>Node16</title>
<g id="a_node16"><a xlink:title=" ">
<polygon fill="white" stroke="#bfbfbf" points="524.5,-0.5 524.5,-30.5 665.5,-30.5 665.5,-0.5 524.5,-0.5"/>
<text text-anchor="start" x="532.5" y="-18.5" font-family="Helvetica,sans-Serif" font-size="10.00">boost/dll/runtime_symbol</text>
<text text-anchor="middle" x="595" y="-7.5" font-family="Helvetica,sans-Serif" font-size="10.00">_info.hpp</text>
</a>
</g>
</g>
<!-- Node10&#45;&gt;Node16 -->
<g id="edge17" class="edge">
<title>Node10&#45;&gt;Node16</title>
<path fill="none" stroke="midnightblue" d="M320.68,-70.23C325.42,-69.13 330.36,-68 335,-67 394.95,-54.08 462.99,-40.92 514.43,-31.27"/>
<polygon fill="midnightblue" stroke="midnightblue" points="515.31,-34.67 524.49,-29.39 514.02,-27.79 515.31,-34.67"/>
</g>
<!-- Node17 -->
<g id="node17" class="node">
<title>Node17</title>
<g id="a_node17"><a xlink:title=" ">
<polygon fill="white" stroke="#bfbfbf" points="0,-6 0,-25 46,-25 46,-6 0,-6"/>
<text text-anchor="middle" x="23" y="-13" font-family="Helvetica,sans-Serif" font-size="10.00">pwd.h</text>
</a>
</g>
</g>
<!-- Node10&#45;&gt;Node17 -->
<g id="edge18" class="edge">
<title>Node10&#45;&gt;Node17</title>
<path fill="none" stroke="midnightblue" d="M273.18,-73.51C229.25,-68.48 132.86,-55.48 55,-31 53.12,-30.41 51.21,-29.74 49.3,-29.02"/>
<polygon fill="midnightblue" stroke="midnightblue" points="50.55,-25.74 39.97,-25.11 47.85,-32.2 50.55,-25.74"/>
</g>
<!-- Node18 -->
<g id="node18" class="node">
<title>Node18</title>
<g id="a_node18"><a xlink:title=" ">
<polygon fill="white" stroke="#bfbfbf" points="64,-6 64,-25 136,-25 136,-6 64,-6"/>
<text text-anchor="middle" x="100" y="-13" font-family="Helvetica,sans-Serif" font-size="10.00">sys/types.h</text>
</a>
</g>
</g>
<!-- Node10&#45;&gt;Node18 -->
<g id="edge19" class="edge">
<title>Node10&#45;&gt;Node18</title>
<path fill="none" stroke="midnightblue" d="M273.25,-69.16C243.29,-60.49 190.23,-44.98 145,-31 142.04,-30.08 138.97,-29.12 135.89,-28.15"/>
<polygon fill="midnightblue" stroke="midnightblue" points="136.73,-24.74 126.14,-25.04 134.6,-31.41 136.73,-24.74"/>
</g>
<!-- Node19 -->
<g id="node19" class="node">
<title>Node19</title>
<g id="a_node19"><a xlink:title=" ">
<polygon fill="white" stroke="#bfbfbf" points="154,-6 154,-25 210,-25 210,-6 154,-6"/>
<text text-anchor="middle" x="182" y="-13" font-family="Helvetica,sans-Serif" font-size="10.00">unistd.h</text>
</a>
</g>
</g>
<!-- Node10&#45;&gt;Node19 -->
<g id="edge20" class="edge">
<title>Node10&#45;&gt;Node19</title>
<path fill="none" stroke="midnightblue" d="M280.52,-67.48C261.39,-57.58 229.63,-41.14 207.35,-29.62"/>
<polygon fill="midnightblue" stroke="midnightblue" points="208.94,-26.5 198.45,-25.01 205.72,-32.71 208.94,-26.5"/>
</g>
<!-- Node28 -->
<g id="node28" class="node">
<title>Node28</title>
<g id="a_node28"><a xlink:title=" ">
<polygon fill="white" stroke="#bfbfbf" points="1146.5,-179.5 1146.5,-198.5 1245.5,-198.5 1245.5,-179.5 1146.5,-179.5"/>
<text text-anchor="middle" x="1196" y="-186.5" font-family="Helvetica,sans-Serif" font-size="10.00">yaml&#45;cpp/yaml.h</text>
</a>
</g>
</g>
<!-- Node27&#45;&gt;Node28 -->
<g id="edge34" class="edge">
<title>Node27&#45;&gt;Node28</title>
<path fill="none" stroke="midnightblue" d="M1175.13,-235.08C1178.51,-227.77 1183.42,-217.18 1187.62,-208.1"/>
<polygon fill="midnightblue" stroke="midnightblue" points="1190.92,-209.3 1191.95,-198.75 1184.57,-206.36 1190.92,-209.3"/>
</g>
</g>
</svg>
