<?xml version="1.0" encoding="UTF-8" standalone="no"?>
<!DOCTYPE svg PUBLIC "-//W3C//DTD SVG 1.1//EN"
 "http://www.w3.org/Graphics/SVG/1.1/DTD/svg11.dtd">
<!-- Generated by graphviz version 2.43.0 (0)
 -->
<!-- Title: src/read.cpp Pages: 1 -->
<svg width="847pt" height="375pt"
 viewBox="0.00 0.00 846.50 375.00" xmlns="http://www.w3.org/2000/svg" xmlns:xlink="http://www.w3.org/1999/xlink">
<g id="graph0" class="graph" transform="scale(1 1) rotate(0) translate(4 371)">
<title>src/read.cpp</title>
<polygon fill="white" stroke="transparent" points="-4,4 -4,-371 842.5,-371 842.5,4 -4,4"/>
<!-- Node1 -->
<g id="node1" class="node">
<title>Node1</title>
<g id="a_node1"><a xlink:title="Implementation of class YAML_Error and ReadConfig.">
<polygon fill="#bfbfbf" stroke="black" points="496,-347.5 496,-366.5 572,-366.5 572,-347.5 496,-347.5"/>
<text text-anchor="middle" x="534" y="-354.5" font-family="Helvetica,sans-Serif" font-size="10.00">src/read.cpp</text>
</a>
</g>
</g>
<!-- Node2 -->
<g id="node2" class="node">
<title>Node2</title>
<g id="a_node2"><a xlink:href="read_8h.html" target="_top" xlink:title="Read YAML Configuration.">
<polygon fill="white" stroke="black" points="510.5,-291.5 510.5,-310.5 557.5,-310.5 557.5,-291.5 510.5,-291.5"/>
<text text-anchor="middle" x="534" y="-298.5" font-family="Helvetica,sans-Serif" font-size="10.00">read.h</text>
</a>
</g>
</g>
<!-- Node1&#45;&gt;Node2 -->
<g id="edge1" class="edge">
<title>Node1&#45;&gt;Node2</title>
<path fill="none" stroke="midnightblue" d="M534,-347.08C534,-340.01 534,-329.86 534,-320.99"/>
<polygon fill="midnightblue" stroke="midnightblue" points="537.5,-320.75 534,-310.75 530.5,-320.75 537.5,-320.75"/>
</g>
<!-- Node3 -->
<g id="node3" class="node">
<title>Node3</title>
<g id="a_node3"><a xlink:href="error__code_8h.html" target="_top" xlink:title="Error Codes (Including Warnings)">
<polygon fill="white" stroke="black" points="208.5,-235.5 208.5,-254.5 285.5,-254.5 285.5,-235.5 208.5,-235.5"/>
<text text-anchor="middle" x="247" y="-242.5" font-family="Helvetica,sans-Serif" font-size="10.00">error_code.h</text>
</a>
</g>
</g>
<!-- Node2&#45;&gt;Node3 -->
<g id="edge2" class="edge">
<title>Node2&#45;&gt;Node3</title>
<path fill="none" stroke="midnightblue" d="M510.02,-295.49C463.06,-286.65 358.12,-266.91 295.92,-255.2"/>
<polygon fill="midnightblue" stroke="midnightblue" points="296.42,-251.74 285.95,-253.33 295.13,-258.62 296.42,-251.74"/>
</g>
<!-- Node6 -->
<g id="node6" class="node">
<title>Node6</title>
<g id="a_node6"><a xlink:href="meta_8h.html" target="_top" xlink:title="mmCEsim meta data">
<polygon fill="white" stroke="black" points="28.5,-67.5 28.5,-86.5 79.5,-86.5 79.5,-67.5 28.5,-67.5"/>
<text text-anchor="middle" x="54" y="-74.5" font-family="Helvetica,sans-Serif" font-size="10.00">meta.h</text>
</a>
</g>
</g>
<!-- Node2&#45;&gt;Node6 -->
<g id="edge29" class="edge">
<title>Node2&#45;&gt;Node6</title>
<path fill="none" stroke="midnightblue" d="M510.33,-299.32C454.81,-297.19 312.36,-288.62 199,-255 143.35,-238.49 120.94,-241.13 81,-199 54.56,-171.11 51.87,-123.25 52.66,-96.85"/>
<polygon fill="midnightblue" stroke="midnightblue" points="56.16,-96.84 53.17,-86.68 49.17,-96.49 56.16,-96.84"/>
</g>
<!-- Node7 -->
<g id="node7" class="node">
<title>Node7</title>
<g id="a_node7"><a xlink:title=" ">
<polygon fill="white" stroke="#bfbfbf" points="74,-6 74,-25 118,-25 118,-6 74,-6"/>
<text text-anchor="middle" x="96" y="-13" font-family="Helvetica,sans-Serif" font-size="10.00">string</text>
</a>
</g>
</g>
<!-- Node2&#45;&gt;Node7 -->
<g id="edge33" class="edge">
<title>Node2&#45;&gt;Node7</title>
<path fill="none" stroke="midnightblue" d="M510.37,-300.25C407.02,-300.7 0,-295.78 0,-190 0,-190 0,-190 0,-132 0,-101.9 1.09,-91.19 19,-67 31.09,-50.68 50.15,-38.11 66.28,-29.6"/>
<polygon fill="midnightblue" stroke="midnightblue" points="67.98,-32.66 75.36,-25.06 64.85,-26.4 67.98,-32.66"/>
</g>
<!-- Node10 -->
<g id="node10" class="node">
<title>Node10</title>
<g id="a_node10"><a xlink:title=" ">
<polygon fill="white" stroke="#bfbfbf" points="204,-6 204,-25 264,-25 264,-6 204,-6"/>
<text text-anchor="middle" x="234" y="-13" font-family="Helvetica,sans-Serif" font-size="10.00">iostream</text>
</a>
</g>
</g>
<!-- Node2&#45;&gt;Node10 -->
<g id="edge32" class="edge">
<title>Node2&#45;&gt;Node10</title>
<path fill="none" stroke="midnightblue" d="M534,-291.44C534,-272.94 534,-227.81 534,-190 534,-190 534,-190 534,-132 534,-101.77 536.62,-87.05 514,-67 509.52,-63.02 350.84,-36.04 274.38,-23.23"/>
<polygon fill="midnightblue" stroke="midnightblue" points="274.61,-19.72 264.17,-21.52 273.45,-26.62 274.61,-19.72"/>
</g>
<!-- Node16 -->
<g id="node16" class="node">
<title>Node16</title>
<g id="a_node16"><a xlink:title=" ">
<polygon fill="white" stroke="#bfbfbf" points="791.5,-6 791.5,-25 838.5,-25 838.5,-6 791.5,-6"/>
<text text-anchor="middle" x="815" y="-13" font-family="Helvetica,sans-Serif" font-size="10.00">vector</text>
</a>
</g>
</g>
<!-- Node2&#45;&gt;Node16 -->
<g id="edge35" class="edge">
<title>Node2&#45;&gt;Node16</title>
<path fill="none" stroke="midnightblue" d="M552.12,-291.3C581.91,-275.57 638,-239.41 638,-190 638,-190 638,-190 638,-132 638,-114.11 740.7,-56.46 789.64,-30"/>
<polygon fill="midnightblue" stroke="midnightblue" points="791.52,-32.97 798.67,-25.15 788.2,-26.8 791.52,-32.97"/>
</g>
<!-- Node24 -->
<g id="node24" class="node">
<title>Node24</title>
<g id="a_node24"><a xlink:href="yaml_8h.html" target="_top" xlink:title="Wrapper for yaml&#45;cpp for static linking.">
<polygon fill="white" stroke="black" points="666,-235.5 666,-254.5 716,-254.5 716,-235.5 666,-235.5"/>
<text text-anchor="middle" x="691" y="-242.5" font-family="Helvetica,sans-Serif" font-size="10.00">yaml.h</text>
</a>
</g>
</g>
<!-- Node2&#45;&gt;Node24 -->
<g id="edge30" class="edge">
<title>Node2&#45;&gt;Node24</title>
<path fill="none" stroke="midnightblue" d="M557.5,-291.92C583.71,-282.9 626.35,-268.23 656.38,-257.91"/>
<polygon fill="midnightblue" stroke="midnightblue" points="657.72,-261.15 666.04,-254.59 655.44,-254.53 657.72,-261.15"/>
</g>
<!-- Node26 -->
<g id="node26" class="node">
<title>Node26</title>
<g id="a_node26"><a xlink:title=" ">
<polygon fill="white" stroke="#bfbfbf" points="734.5,-235.5 734.5,-254.5 775.5,-254.5 775.5,-235.5 734.5,-235.5"/>
<text text-anchor="middle" x="755" y="-242.5" font-family="Helvetica,sans-Serif" font-size="10.00">tuple</text>
</a>
</g>
</g>
<!-- Node2&#45;&gt;Node26 -->
<g id="edge34" class="edge">
<title>Node2&#45;&gt;Node26</title>
<path fill="none" stroke="midnightblue" d="M557.64,-294.91C592.14,-287.38 658.5,-272.51 724.64,-254.97"/>
<polygon fill="midnightblue" stroke="midnightblue" points="725.63,-258.32 734.39,-252.36 723.82,-251.56 725.63,-258.32"/>
</g>
<!-- Node4 -->
<g id="node4" class="node">
<title>Node4</title>
<g id="a_node4"><a xlink:href="log__global_8h.html" target="_top" xlink:title="Global Access of Log.">
<polygon fill="white" stroke="black" points="242,-179.5 242,-198.5 318,-198.5 318,-179.5 242,-179.5"/>
<text text-anchor="middle" x="280" y="-186.5" font-family="Helvetica,sans-Serif" font-size="10.00">log_global.h</text>
</a>
</g>
</g>
<!-- Node3&#45;&gt;Node4 -->
<g id="edge3" class="edge">
<title>Node3&#45;&gt;Node4</title>
<path fill="none" stroke="midnightblue" d="M252.45,-235.08C257.01,-227.61 263.67,-216.72 269.29,-207.52"/>
<polygon fill="midnightblue" stroke="midnightblue" points="272.42,-209.11 274.65,-198.75 266.45,-205.46 272.42,-209.11"/>
</g>
<!-- Node3&#45;&gt;Node6 -->
<g id="edge23" class="edge">
<title>Node3&#45;&gt;Node6</title>
<path fill="none" stroke="midnightblue" d="M208.27,-241.44C175.59,-237.32 129.52,-226.63 100,-199 70.7,-171.58 59.89,-123.54 56.04,-96.98"/>
<polygon fill="midnightblue" stroke="midnightblue" points="59.47,-96.23 54.74,-86.75 52.52,-97.1 59.47,-96.23"/>
</g>
<!-- Node3&#45;&gt;Node7 -->
<g id="edge27" class="edge">
<title>Node3&#45;&gt;Node7</title>
<path fill="none" stroke="midnightblue" d="M231.7,-235.42C218.35,-227.36 199.13,-214.27 186,-199 141.74,-147.51 113.21,-70.47 101.74,-35.26"/>
<polygon fill="midnightblue" stroke="midnightblue" points="104.97,-33.87 98.61,-25.39 98.29,-35.98 104.97,-33.87"/>
</g>
<!-- Node8 -->
<g id="node8" class="node">
<title>Node8</title>
<g id="a_node8"><a xlink:href="term_8h.html" target="_top" xlink:title="Terminal Color and Style Control.">
<polygon fill="white" stroke="black" points="136.5,-67.5 136.5,-86.5 185.5,-86.5 185.5,-67.5 136.5,-67.5"/>
<text text-anchor="middle" x="161" y="-74.5" font-family="Helvetica,sans-Serif" font-size="10.00">term.h</text>
</a>
</g>
</g>
<!-- Node3&#45;&gt;Node8 -->
<g id="edge24" class="edge">
<title>Node3&#45;&gt;Node8</title>
<path fill="none" stroke="midnightblue" d="M234.96,-235.28C224.37,-227.03 209.23,-213.74 200,-199 179.38,-166.07 168.68,-121.21 164,-96.4"/>
<polygon fill="midnightblue" stroke="midnightblue" points="167.45,-95.77 162.27,-86.53 160.55,-96.98 167.45,-95.77"/>
</g>
<!-- Node3&#45;&gt;Node10 -->
<g id="edge26" class="edge">
<title>Node3&#45;&gt;Node10</title>
<path fill="none" stroke="midnightblue" d="M243.4,-235.22C239.94,-226.28 234.97,-211.94 233,-199 224.02,-139.88 228.82,-68.73 231.97,-35.43"/>
<polygon fill="midnightblue" stroke="midnightblue" points="235.47,-35.61 232.99,-25.31 228.5,-34.91 235.47,-35.61"/>
</g>
<!-- Node22 -->
<g id="node22" class="node">
<title>Node22</title>
<g id="a_node22"><a xlink:title=" ">
<polygon fill="white" stroke="#bfbfbf" points="336,-179.5 336,-198.5 388,-198.5 388,-179.5 336,-179.5"/>
<text text-anchor="middle" x="362" y="-186.5" font-family="Helvetica,sans-Serif" font-size="10.00">cassert</text>
</a>
</g>
</g>
<!-- Node3&#45;&gt;Node22 -->
<g id="edge25" class="edge">
<title>Node3&#45;&gt;Node22</title>
<path fill="none" stroke="midnightblue" d="M265.22,-235.44C283.9,-226.68 313.16,-212.94 334.62,-202.86"/>
<polygon fill="midnightblue" stroke="midnightblue" points="336.3,-205.93 343.86,-198.52 333.32,-199.6 336.3,-205.93"/>
</g>
<!-- Node23 -->
<g id="node23" class="node">
<title>Node23</title>
<g id="a_node23"><a xlink:title=" ">
<polygon fill="white" stroke="#bfbfbf" points="406.5,-179.5 406.5,-198.5 475.5,-198.5 475.5,-179.5 406.5,-179.5"/>
<text text-anchor="middle" x="441" y="-186.5" font-family="Helvetica,sans-Serif" font-size="10.00">type_traits</text>
</a>
</g>
</g>
<!-- Node3&#45;&gt;Node23 -->
<g id="edge28" class="edge">
<title>Node3&#45;&gt;Node23</title>
<path fill="none" stroke="midnightblue" d="M277.74,-235.44C310.94,-226.2 363.99,-211.44 400.56,-201.26"/>
<polygon fill="midnightblue" stroke="midnightblue" points="401.71,-204.57 410.4,-198.52 399.83,-197.83 401.71,-204.57"/>
</g>
<!-- Node5 -->
<g id="node5" class="node">
<title>Node5</title>
<g id="a_node5"><a xlink:href="include_2log_8h.html" target="_top" xlink:title="Log Utilities.">
<polygon fill="white" stroke="black" points="285.5,-123.5 285.5,-142.5 326.5,-142.5 326.5,-123.5 285.5,-123.5"/>
<text text-anchor="middle" x="306" y="-130.5" font-family="Helvetica,sans-Serif" font-size="10.00">log.h</text>
</a>
</g>
</g>
<!-- Node4&#45;&gt;Node5 -->
<g id="edge4" class="edge">
<title>Node4&#45;&gt;Node5</title>
<path fill="none" stroke="midnightblue" d="M284.29,-179.08C287.85,-171.69 293.02,-160.95 297.42,-151.81"/>
<polygon fill="midnightblue" stroke="midnightblue" points="300.6,-153.28 301.79,-142.75 294.29,-150.24 300.6,-153.28"/>
</g>
<!-- Node5&#45;&gt;Node6 -->
<g id="edge5" class="edge">
<title>Node5&#45;&gt;Node6</title>
<path fill="none" stroke="midnightblue" d="M285.38,-127.58C242.51,-118.39 143.32,-97.14 89.79,-85.67"/>
<polygon fill="midnightblue" stroke="midnightblue" points="90.24,-82.19 79.73,-83.51 88.77,-89.03 90.24,-82.19"/>
</g>
<!-- Node5&#45;&gt;Node8 -->
<g id="edge7" class="edge">
<title>Node5&#45;&gt;Node8</title>
<path fill="none" stroke="midnightblue" d="M285.23,-124.26C261.27,-115.34 221.59,-100.56 193.53,-90.11"/>
<polygon fill="midnightblue" stroke="midnightblue" points="194.73,-86.83 184.13,-86.62 192.28,-93.39 194.73,-86.83"/>
</g>
<!-- Node11 -->
<g id="node11" class="node">
<title>Node11</title>
<g id="a_node11"><a xlink:href="utils_8h.html" target="_top" xlink:title="Utilities.">
<polygon fill="white" stroke="black" points="562.5,-67.5 562.5,-86.5 609.5,-86.5 609.5,-67.5 562.5,-67.5"/>
<text text-anchor="middle" x="586" y="-74.5" font-family="Helvetica,sans-Serif" font-size="10.00">utils.h</text>
</a>
</g>
</g>
<!-- Node5&#45;&gt;Node11 -->
<g id="edge11" class="edge">
<title>Node5&#45;&gt;Node11</title>
<path fill="none" stroke="midnightblue" d="M326.59,-128.03C374.48,-118.79 493.75,-95.79 552.38,-84.48"/>
<polygon fill="midnightblue" stroke="midnightblue" points="553.1,-87.91 562.25,-82.58 551.77,-81.04 553.1,-87.91"/>
</g>
<!-- Node18 -->
<g id="node18" class="node">
<title>Node18</title>
<g id="a_node18"><a xlink:title=" ">
<polygon fill="white" stroke="#bfbfbf" points="242,-67.5 242,-86.5 286,-86.5 286,-67.5 242,-67.5"/>
<text text-anchor="middle" x="264" y="-74.5" font-family="Helvetica,sans-Serif" font-size="10.00">ctime</text>
</a>
</g>
</g>
<!-- Node5&#45;&gt;Node18 -->
<g id="edge19" class="edge">
<title>Node5&#45;&gt;Node18</title>
<path fill="none" stroke="midnightblue" d="M299.06,-123.08C293.07,-115.38 284.25,-104.03 276.95,-94.65"/>
<polygon fill="midnightblue" stroke="midnightblue" points="279.71,-92.5 270.81,-86.75 274.18,-96.79 279.71,-92.5"/>
</g>
<!-- Node19 -->
<g id="node19" class="node">
<title>Node19</title>
<g id="a_node19"><a xlink:title=" ">
<polygon fill="white" stroke="#bfbfbf" points="304.5,-67.5 304.5,-86.5 359.5,-86.5 359.5,-67.5 304.5,-67.5"/>
<text text-anchor="middle" x="332" y="-74.5" font-family="Helvetica,sans-Serif" font-size="10.00">fstream</text>
</a>
</g>
</g>
<!-- Node5&#45;&gt;Node19 -->
<g id="edge20" class="edge">
<title>Node5&#45;&gt;Node19</title>
<path fill="none" stroke="midnightblue" d="M310.29,-123.08C313.85,-115.69 319.02,-104.95 323.42,-95.81"/>
<polygon fill="midnightblue" stroke="midnightblue" points="326.6,-97.28 327.79,-86.75 320.29,-94.24 326.6,-97.28"/>
</g>
<!-- Node20 -->
<g id="node20" class="node">
<title>Node20</title>
<g id="a_node20"><a xlink:title=" ">
<polygon fill="white" stroke="#bfbfbf" points="378,-67.5 378,-86.5 434,-86.5 434,-67.5 378,-67.5"/>
<text text-anchor="middle" x="406" y="-74.5" font-family="Helvetica,sans-Serif" font-size="10.00">iomanip</text>
</a>
</g>
</g>
<!-- Node5&#45;&gt;Node20 -->
<g id="edge21" class="edge">
<title>Node5&#45;&gt;Node20</title>
<path fill="none" stroke="midnightblue" d="M322.07,-123.32C337.96,-114.74 362.51,-101.49 380.96,-91.52"/>
<polygon fill="midnightblue" stroke="midnightblue" points="382.84,-94.49 389.97,-86.65 379.51,-88.33 382.84,-94.49"/>
</g>
<!-- Node21 -->
<g id="node21" class="node">
<title>Node21</title>
<g id="a_node21"><a xlink:title=" ">
<polygon fill="white" stroke="#bfbfbf" points="452.5,-67.5 452.5,-86.5 505.5,-86.5 505.5,-67.5 452.5,-67.5"/>
<text text-anchor="middle" x="479" y="-74.5" font-family="Helvetica,sans-Serif" font-size="10.00">spy.hpp</text>
</a>
</g>
</g>
<!-- Node5&#45;&gt;Node21 -->
<g id="edge22" class="edge">
<title>Node5&#45;&gt;Node21</title>
<path fill="none" stroke="midnightblue" d="M326.52,-125.59C355.04,-116.69 407.09,-100.44 442.36,-89.44"/>
<polygon fill="midnightblue" stroke="midnightblue" points="443.77,-92.66 452.27,-86.34 441.69,-85.98 443.77,-92.66"/>
</g>
<!-- Node6&#45;&gt;Node7 -->
<g id="edge6" class="edge">
<title>Node6&#45;&gt;Node7</title>
<path fill="none" stroke="midnightblue" d="M60.02,-67.48C66.26,-58.64 76.17,-44.59 84.02,-33.48"/>
<polygon fill="midnightblue" stroke="midnightblue" points="87.09,-35.2 89.99,-25.01 81.37,-31.16 87.09,-35.2"/>
</g>
<!-- Node8&#45;&gt;Node7 -->
<g id="edge10" class="edge">
<title>Node8&#45;&gt;Node7</title>
<path fill="none" stroke="midnightblue" d="M151.69,-67.48C141.55,-58.2 125.14,-43.17 112.75,-31.83"/>
<polygon fill="midnightblue" stroke="midnightblue" points="115.04,-29.18 105.3,-25.01 110.31,-34.34 115.04,-29.18"/>
</g>
<!-- Node9 -->
<g id="node9" class="node">
<title>Node9</title>
<g id="a_node9"><a xlink:title=" ">
<polygon fill="white" stroke="#bfbfbf" points="136.5,-6 136.5,-25 185.5,-25 185.5,-6 136.5,-6"/>
<text text-anchor="middle" x="161" y="-13" font-family="Helvetica,sans-Serif" font-size="10.00">cstdlib</text>
</a>
</g>
</g>
<!-- Node8&#45;&gt;Node9 -->
<g id="edge8" class="edge">
<title>Node8&#45;&gt;Node9</title>
<path fill="none" stroke="midnightblue" d="M161,-67.48C161,-59.08 161,-45.98 161,-35.16"/>
<polygon fill="midnightblue" stroke="midnightblue" points="164.5,-35.01 161,-25.01 157.5,-35.01 164.5,-35.01"/>
</g>
<!-- Node8&#45;&gt;Node10 -->
<g id="edge9" class="edge">
<title>Node8&#45;&gt;Node10</title>
<path fill="none" stroke="midnightblue" d="M171.46,-67.48C182.95,-58.11 201.63,-42.88 215.59,-31.51"/>
<polygon fill="midnightblue" stroke="midnightblue" points="218.02,-34.04 223.56,-25.01 213.6,-28.61 218.02,-34.04"/>
</g>
<!-- Node11&#45;&gt;Node7 -->
<g id="edge16" class="edge">
<title>Node11&#45;&gt;Node7</title>
<path fill="none" stroke="midnightblue" d="M562.35,-72.85C548.31,-71.03 530.15,-68.76 514,-67 342.27,-48.28 293.71,-76.27 127,-31 125.06,-30.47 123.1,-29.84 121.15,-29.12"/>
<polygon fill="midnightblue" stroke="midnightblue" points="122.26,-25.79 111.69,-25.12 119.53,-32.24 122.26,-25.79"/>
</g>
<!-- Node12 -->
<g id="node12" class="node">
<title>Node12</title>
<g id="a_node12"><a xlink:title=" ">
<polygon fill="white" stroke="#bfbfbf" points="336,-6 336,-25 400,-25 400,-6 336,-6"/>
<text text-anchor="middle" x="368" y="-13" font-family="Helvetica,sans-Serif" font-size="10.00">algorithm</text>
</a>
</g>
</g>
<!-- Node11&#45;&gt;Node12 -->
<g id="edge12" class="edge">
<title>Node11&#45;&gt;Node12</title>
<path fill="none" stroke="midnightblue" d="M562.19,-70.23C520.92,-60.19 437.75,-39.72 409,-31 406.38,-30.21 403.68,-29.35 400.98,-28.45"/>
<polygon fill="midnightblue" stroke="midnightblue" points="401.89,-25.07 391.29,-25.15 399.63,-31.69 401.89,-25.07"/>
</g>
<!-- Node13 -->
<g id="node13" class="node">
<title>Node13</title>
<g id="a_node13"><a xlink:title=" ">
<polygon fill="white" stroke="#bfbfbf" points="418.5,-6 418.5,-25 467.5,-25 467.5,-6 418.5,-6"/>
<text text-anchor="middle" x="443" y="-13" font-family="Helvetica,sans-Serif" font-size="10.00">cctype</text>
</a>
</g>
</g>
<!-- Node11&#45;&gt;Node13 -->
<g id="edge13" class="edge">
<title>Node11&#45;&gt;Node13</title>
<path fill="none" stroke="midnightblue" d="M565.07,-67.44C543.11,-58.45 507.58,-43.83 477,-31 475.59,-30.41 474.16,-29.81 472.71,-29.19"/>
<polygon fill="midnightblue" stroke="midnightblue" points="473.69,-25.81 463.12,-25.13 470.96,-32.25 473.69,-25.81"/>
</g>
<!-- Node14 -->
<g id="node14" class="node">
<title>Node14</title>
<g id="a_node14"><a xlink:title=" ">
<polygon fill="white" stroke="#bfbfbf" points="486,-6 486,-25 540,-25 540,-6 486,-6"/>
<text text-anchor="middle" x="513" y="-13" font-family="Helvetica,sans-Serif" font-size="10.00">random</text>
</a>
</g>
</g>
<!-- Node11&#45;&gt;Node14 -->
<g id="edge14" class="edge">
<title>Node11&#45;&gt;Node14</title>
<path fill="none" stroke="midnightblue" d="M575.54,-67.48C564.05,-58.11 545.37,-42.88 531.41,-31.51"/>
<polygon fill="midnightblue" stroke="midnightblue" points="533.4,-28.61 523.44,-25.01 528.98,-34.04 533.4,-28.61"/>
</g>
<!-- Node15 -->
<g id="node15" class="node">
<title>Node15</title>
<g id="a_node15"><a xlink:title=" ">
<polygon fill="white" stroke="#bfbfbf" points="558,-6 558,-25 614,-25 614,-6 558,-6"/>
<text text-anchor="middle" x="586" y="-13" font-family="Helvetica,sans-Serif" font-size="10.00">sstream</text>
</a>
</g>
</g>
<!-- Node11&#45;&gt;Node15 -->
<g id="edge15" class="edge">
<title>Node11&#45;&gt;Node15</title>
<path fill="none" stroke="midnightblue" d="M586,-67.48C586,-59.08 586,-45.98 586,-35.16"/>
<polygon fill="midnightblue" stroke="midnightblue" points="589.5,-35.01 586,-25.01 582.5,-35.01 589.5,-35.01"/>
</g>
<!-- Node11&#45;&gt;Node16 -->
<g id="edge17" class="edge">
<title>Node11&#45;&gt;Node16</title>
<path fill="none" stroke="midnightblue" d="M609.71,-70.35C614.44,-69.23 619.38,-68.07 624,-67 694.59,-50.65 714.32,-54.07 783,-31 784.67,-30.44 786.37,-29.82 788.07,-29.16"/>
<polygon fill="midnightblue" stroke="midnightblue" points="789.79,-32.24 797.65,-25.13 787.08,-25.79 789.79,-32.24"/>
</g>
<!-- Node17 -->
<g id="node17" class="node">
<title>Node17</title>
<g id="a_node17"><a xlink:title=" ">
<polygon fill="white" stroke="#bfbfbf" points="632.5,-0.5 632.5,-30.5 773.5,-30.5 773.5,-0.5 632.5,-0.5"/>
<text text-anchor="start" x="640.5" y="-18.5" font-family="Helvetica,sans-Serif" font-size="10.00">boost/dll/runtime_symbol</text>
<text text-anchor="middle" x="703" y="-7.5" font-family="Helvetica,sans-Serif" font-size="10.00">_info.hpp</text>
</a>
</g>
</g>
<!-- Node11&#45;&gt;Node17 -->
<g id="edge18" class="edge">
<title>Node11&#45;&gt;Node17</title>
<path fill="none" stroke="midnightblue" d="M602.76,-67.48C619.28,-59.08 645.05,-45.97 666.32,-35.15"/>
<polygon fill="midnightblue" stroke="midnightblue" points="668.1,-38.18 675.43,-30.52 664.93,-31.94 668.1,-38.18"/>
</g>
<!-- Node25 -->
<g id="node25" class="node">
<title>Node25</title>
<g id="a_node25"><a xlink:title=" ">
<polygon fill="white" stroke="#bfbfbf" points="666.5,-179.5 666.5,-198.5 765.5,-198.5 765.5,-179.5 666.5,-179.5"/>
<text text-anchor="middle" x="716" y="-186.5" font-family="Helvetica,sans-Serif" font-size="10.00">yaml&#45;cpp/yaml.h</text>
</a>
</g>
</g>
<!-- Node24&#45;&gt;Node25 -->
<g id="edge31" class="edge">
<title>Node24&#45;&gt;Node25</title>
<path fill="none" stroke="midnightblue" d="M695.13,-235.08C698.51,-227.77 703.42,-217.18 707.62,-208.1"/>
<polygon fill="midnightblue" stroke="midnightblue" points="710.92,-209.3 711.95,-198.75 704.57,-206.36 710.92,-209.3"/>
</g>
</g>
</svg>
