<?xml version="1.0" encoding="UTF-8" standalone="no"?>
<!DOCTYPE svg PUBLIC "-//W3C//DTD SVG 1.1//EN"
 "http://www.w3.org/Graphics/SVG/1.1/DTD/svg11.dtd">
<!-- Generated by graphviz version 2.43.0 (0)
 -->
<!-- Title: include/read.h Pages: 1 -->
<!--zoomable 319 -->
<svg id="main" version="1.1" xmlns="http://www.w3.org/2000/svg" xmlns:xlink="http://www.w3.org/1999/xlink" xml:space="preserve" onload="init(evt)">
<style type="text/css"><![CDATA[
.edge:hover path { stroke: red; }
.edge:hover polygon { stroke: red; fill: red; }
]]></style>
<script type="text/javascript"><![CDATA[
var edges = document.getElementsByTagName('g');
if (edges && edges.length) {
  for (var i=0;i<edges.length;i++) {
    if (edges[i].id.substr(0,4)=='edge') {
      edges[i].setAttribute('class','edge');
    }
  }
}
]]></script>
        <defs>
                <circle id="rim" cx="0" cy="0" r="7"/>
                <circle id="rim2" cx="0" cy="0" r="3.5"/>
                <g id="zoomPlus">
                        <use xlink:href="#rim" fill="#404040">
                                <set attributeName="fill" to="#808080" begin="zoomplus.mouseover" end="zoomplus.mouseout"/>
                        </use>
                        <path d="M-4,0h8M0,-4v8" fill="none" stroke="white" stroke-width="1.5" pointer-events="none"/>
                </g>
                <g id="zoomMin">
                        <use xlink:href="#rim" fill="#404040">
                                <set attributeName="fill" to="#808080" begin="zoomminus.mouseover" end="zoomminus.mouseout"/>
                        </use>
                        <path d="M-4,0h8" fill="none" stroke="white" stroke-width="1.5" pointer-events="none"/>
                </g>
                <g id="dirArrow">
                        <path fill="none" stroke="white" stroke-width="1.5" d="M0,-3.0v7 M-2.5,-0.5L0,-3.0L2.5,-0.5"/>
                </g>
               <g id="resetDef">
                       <use xlink:href="#rim2" fill="#404040">
                               <set attributeName="fill" to="#808080" begin="reset.mouseover" end="reset.mouseout"/>
                       </use>
               </g>
        </defs>

<script type="text/javascript">
var viewWidth = 1257;
var viewHeight = 319;
var sectionId = 'dynsection-0';
</script>
<script xlink:href="svgpan.js"/>
<svg id="graph" class="graph">
<g id="viewport">
<title>include/read.h</title>
<polygon fill="white" stroke="transparent" points="-4,4 -4,-315 1252.5,-315 1252.5,4 -4,4"/>
<!-- Node1 -->
<g id="node1" class="node">
<title>Node1</title>
<g id="a_node1"><a xlink:title="Read YAML Configuration.">
<polygon fill="#bfbfbf" stroke="black" points="608,-291.5 608,-310.5 694,-310.5 694,-291.5 608,-291.5"/>
<text text-anchor="middle" x="651" y="-298.5" font-family="Helvetica,sans-Serif" font-size="10.00">include/read.h</text>
</a>
</g>
</g>
<!-- Node2 -->
<g id="node2" class="node">
<title>Node2</title>
<g id="a_node2"><a xlink:href="error__code_8h.html" target="_top" xlink:title="Error Codes (Including Warnings)">
<polygon fill="white" stroke="black" points="387.5,-235.5 387.5,-254.5 464.5,-254.5 464.5,-235.5 387.5,-235.5"/>
<text text-anchor="middle" x="426" y="-242.5" font-family="Helvetica,sans-Serif" font-size="10.00">error_code.h</text>
</a>
</g>
</g>
<!-- Node1&#45;&gt;Node2 -->
<g id="edge1" class="edge">
<title>Node1&#45;&gt;Node2</title>
<path fill="none" stroke="midnightblue" d="M615.35,-291.44C576.34,-282.08 513.73,-267.06 471.28,-256.87"/>
<polygon fill="midnightblue" stroke="midnightblue" points="472.03,-253.45 461.49,-254.52 470.39,-260.25 472.03,-253.45"/>
</g>
<!-- Node5 -->
<g id="node5" class="node">
<title>Node5</title>
<g id="a_node5"><a xlink:href="meta_8h.html" target="_top" xlink:title="mmCEsim meta data">
<polygon fill="white" stroke="black" points="503.5,-67.5 503.5,-86.5 554.5,-86.5 554.5,-67.5 503.5,-67.5"/>
<text text-anchor="middle" x="529" y="-74.5" font-family="Helvetica,sans-Serif" font-size="10.00">meta.h</text>
</a>
</g>
</g>
<!-- Node1&#45;&gt;Node5 -->
<g id="edge33" class="edge">
<title>Node1&#45;&gt;Node5</title>
<path fill="none" stroke="midnightblue" d="M646.22,-291.3C628.11,-258.36 563.57,-140.9 538.78,-95.81"/>
<polygon fill="midnightblue" stroke="midnightblue" points="541.77,-93.96 533.88,-86.88 535.63,-97.33 541.77,-93.96"/>
</g>
<!-- Node6 -->
<g id="node6" class="node">
<title>Node6</title>
<g id="a_node6"><a xlink:title=" ">
<polygon fill="white" stroke="#bfbfbf" points="345,-6 345,-25 389,-25 389,-6 345,-6"/>
<text text-anchor="middle" x="367" y="-13" font-family="Helvetica,sans-Serif" font-size="10.00">string</text>
</a>
</g>
</g>
<!-- Node1&#45;&gt;Node6 -->
<g id="edge37" class="edge">
<title>Node1&#45;&gt;Node6</title>
<path fill="none" stroke="midnightblue" d="M651,-291.44C651,-272.94 651,-227.81 651,-190 651,-190 651,-190 651,-132 651,-90.19 620.13,-86.21 583,-67 508.61,-28.5 477.65,-56.94 398,-31 396.33,-30.46 394.63,-29.84 392.94,-29.19"/>
<polygon fill="midnightblue" stroke="midnightblue" points="394,-25.83 383.43,-25.1 391.23,-32.26 394,-25.83"/>
</g>
<!-- Node9 -->
<g id="node9" class="node">
<title>Node9</title>
<g id="a_node9"><a xlink:title=" ">
<polygon fill="white" stroke="#bfbfbf" points="0,-6 0,-25 60,-25 60,-6 0,-6"/>
<text text-anchor="middle" x="30" y="-13" font-family="Helvetica,sans-Serif" font-size="10.00">iostream</text>
</a>
</g>
</g>
<!-- Node1&#45;&gt;Node9 -->
<g id="edge36" class="edge">
<title>Node1&#45;&gt;Node9</title>
<path fill="none" stroke="midnightblue" d="M607.91,-297.27C462.96,-287.51 2,-251.64 2,-190 2,-190 2,-190 2,-132 2,-96.71 14.5,-57.03 22.79,-34.57"/>
<polygon fill="midnightblue" stroke="midnightblue" points="26.14,-35.61 26.45,-25.02 19.6,-33.1 26.14,-35.61"/>
</g>
<!-- Node15 -->
<g id="node15" class="node">
<title>Node15</title>
<g id="a_node15"><a xlink:title=" ">
<polygon fill="white" stroke="#bfbfbf" points="1201.5,-6 1201.5,-25 1248.5,-25 1248.5,-6 1201.5,-6"/>
<text text-anchor="middle" x="1225" y="-13" font-family="Helvetica,sans-Serif" font-size="10.00">vector</text>
</a>
</g>
</g>
<!-- Node1&#45;&gt;Node15 -->
<g id="edge39" class="edge">
<title>Node1&#45;&gt;Node15</title>
<path fill="none" stroke="midnightblue" d="M669.12,-291.3C698.91,-275.57 755,-239.41 755,-190 755,-190 755,-190 755,-132 755,-32.33 1097.41,-62.41 1192,-31 1193.87,-30.38 1195.78,-29.69 1197.69,-28.96"/>
<polygon fill="midnightblue" stroke="midnightblue" points="1199.17,-32.14 1207.08,-25.1 1196.5,-25.67 1199.17,-32.14"/>
</g>
<!-- Node28 -->
<g id="node28" class="node">
<title>Node28</title>
<g id="a_node28"><a xlink:href="yaml_8h.html" target="_top" xlink:title="Wrapper for yaml&#45;cpp for static linking.">
<polygon fill="white" stroke="black" points="783,-235.5 783,-254.5 833,-254.5 833,-235.5 783,-235.5"/>
<text text-anchor="middle" x="808" y="-242.5" font-family="Helvetica,sans-Serif" font-size="10.00">yaml.h</text>
</a>
</g>
</g>
<!-- Node1&#45;&gt;Node28 -->
<g id="edge34" class="edge">
<title>Node1&#45;&gt;Node28</title>
<path fill="none" stroke="midnightblue" d="M675.88,-291.44C702.29,-282.36 744.22,-267.94 773.74,-257.78"/>
<polygon fill="midnightblue" stroke="midnightblue" points="774.92,-261.08 783.24,-254.52 772.64,-254.46 774.92,-261.08"/>
</g>
<!-- Node30 -->
<g id="node30" class="node">
<title>Node30</title>
<g id="a_node30"><a xlink:title=" ">
<polygon fill="white" stroke="#bfbfbf" points="851.5,-235.5 851.5,-254.5 892.5,-254.5 892.5,-235.5 851.5,-235.5"/>
<text text-anchor="middle" x="872" y="-242.5" font-family="Helvetica,sans-Serif" font-size="10.00">tuple</text>
</a>
</g>
</g>
<!-- Node1&#45;&gt;Node30 -->
<g id="edge38" class="edge">
<title>Node1&#45;&gt;Node30</title>
<path fill="none" stroke="midnightblue" d="M690.31,-291.46C727.01,-283.33 783.49,-270.41 841.66,-254.96"/>
<polygon fill="midnightblue" stroke="midnightblue" points="842.63,-258.33 851.39,-252.36 840.82,-251.56 842.63,-258.33"/>
</g>
<!-- Node3 -->
<g id="node3" class="node">
<title>Node3</title>
<g id="a_node3"><a xlink:href="log__global_8h.html" target="_top" xlink:title="Global Access of Log.">
<polygon fill="white" stroke="black" points="267,-179.5 267,-198.5 343,-198.5 343,-179.5 267,-179.5"/>
<text text-anchor="middle" x="305" y="-186.5" font-family="Helvetica,sans-Serif" font-size="10.00">log_global.h</text>
</a>
</g>
</g>
<!-- Node2&#45;&gt;Node3 -->
<g id="edge2" class="edge">
<title>Node2&#45;&gt;Node3</title>
<path fill="none" stroke="midnightblue" d="M406.83,-235.44C387.09,-226.64 356.11,-212.81 333.51,-202.72"/>
<polygon fill="midnightblue" stroke="midnightblue" points="334.64,-199.4 324.08,-198.52 331.79,-205.79 334.64,-199.4"/>
</g>
<!-- Node2&#45;&gt;Node5 -->
<g id="edge27" class="edge">
<title>Node2&#45;&gt;Node5</title>
<path fill="none" stroke="midnightblue" d="M455.5,-235.42C473.78,-228.55 496.16,-217.02 509,-199 530.85,-168.32 532.05,-122.26 530.71,-96.73"/>
<polygon fill="midnightblue" stroke="midnightblue" points="534.19,-96.29 529.98,-86.57 527.21,-96.8 534.19,-96.29"/>
</g>
<!-- Node2&#45;&gt;Node6 -->
<g id="edge31" class="edge">
<title>Node2&#45;&gt;Node6</title>
<path fill="none" stroke="midnightblue" d="M464.55,-235.65C486.25,-229.09 512.27,-217.81 529,-199 569.26,-153.73 601,-114.18 563,-67 515.92,-8.54 469.1,-55.05 398,-31 396.34,-30.44 394.64,-29.81 392.95,-29.14"/>
<polygon fill="midnightblue" stroke="midnightblue" points="394.02,-25.79 383.45,-25.02 391.23,-32.21 394.02,-25.79"/>
</g>
<!-- Node7 -->
<g id="node7" class="node">
<title>Node7</title>
<g id="a_node7"><a xlink:href="term_8h.html" target="_top" xlink:title="Terminal Color and Style Control.">
<polygon fill="white" stroke="black" points="68.5,-67.5 68.5,-86.5 117.5,-86.5 117.5,-67.5 68.5,-67.5"/>
<text text-anchor="middle" x="93" y="-74.5" font-family="Helvetica,sans-Serif" font-size="10.00">term.h</text>
</a>
</g>
</g>
<!-- Node2&#45;&gt;Node7 -->
<g id="edge28" class="edge">
<title>Node2&#45;&gt;Node7</title>
<path fill="none" stroke="midnightblue" d="M387.21,-237.84C352.21,-231.31 299.93,-219.11 258,-199 198.24,-170.34 137.94,-119.18 109.63,-93.54"/>
<polygon fill="midnightblue" stroke="midnightblue" points="111.95,-90.92 102.22,-86.74 107.22,-96.08 111.95,-90.92"/>
</g>
<!-- Node2&#45;&gt;Node9 -->
<g id="edge30" class="edge">
<title>Node2&#45;&gt;Node9</title>
<path fill="none" stroke="midnightblue" d="M387.4,-240.14C344.94,-234.87 275.36,-223.16 220,-199 140.11,-164.14 113.58,-154.96 59,-87 46.6,-71.56 38.78,-50.07 34.43,-34.89"/>
<polygon fill="midnightblue" stroke="midnightblue" points="37.79,-33.9 31.86,-25.13 31.02,-35.69 37.79,-33.9"/>
</g>
<!-- Node26 -->
<g id="node26" class="node">
<title>Node26</title>
<g id="a_node26"><a xlink:title=" ">
<polygon fill="white" stroke="#bfbfbf" points="361,-179.5 361,-198.5 413,-198.5 413,-179.5 361,-179.5"/>
<text text-anchor="middle" x="387" y="-186.5" font-family="Helvetica,sans-Serif" font-size="10.00">cassert</text>
</a>
</g>
</g>
<!-- Node2&#45;&gt;Node26 -->
<g id="edge29" class="edge">
<title>Node2&#45;&gt;Node26</title>
<path fill="none" stroke="midnightblue" d="M419.56,-235.08C414.05,-227.46 405.97,-216.26 399.24,-206.94"/>
<polygon fill="midnightblue" stroke="midnightblue" points="402.01,-204.81 393.32,-198.75 396.34,-208.91 402.01,-204.81"/>
</g>
<!-- Node27 -->
<g id="node27" class="node">
<title>Node27</title>
<g id="a_node27"><a xlink:title=" ">
<polygon fill="white" stroke="#bfbfbf" points="431.5,-179.5 431.5,-198.5 500.5,-198.5 500.5,-179.5 431.5,-179.5"/>
<text text-anchor="middle" x="466" y="-186.5" font-family="Helvetica,sans-Serif" font-size="10.00">type_traits</text>
</a>
</g>
</g>
<!-- Node2&#45;&gt;Node27 -->
<g id="edge32" class="edge">
<title>Node2&#45;&gt;Node27</title>
<path fill="none" stroke="midnightblue" d="M432.61,-235.08C438.26,-227.46 446.54,-216.26 453.45,-206.94"/>
<polygon fill="midnightblue" stroke="midnightblue" points="456.38,-208.87 459.52,-198.75 450.75,-204.7 456.38,-208.87"/>
</g>
<!-- Node4 -->
<g id="node4" class="node">
<title>Node4</title>
<g id="a_node4"><a xlink:href="include_2log_8h.html" target="_top" xlink:title="Log Utilities.">
<polygon fill="white" stroke="black" points="284.5,-123.5 284.5,-142.5 325.5,-142.5 325.5,-123.5 284.5,-123.5"/>
<text text-anchor="middle" x="305" y="-130.5" font-family="Helvetica,sans-Serif" font-size="10.00">log.h</text>
</a>
</g>
</g>
<!-- Node3&#45;&gt;Node4 -->
<g id="edge3" class="edge">
<title>Node3&#45;&gt;Node4</title>
<path fill="none" stroke="midnightblue" d="M305,-179.08C305,-172.01 305,-161.86 305,-152.99"/>
<polygon fill="midnightblue" stroke="midnightblue" points="308.5,-152.75 305,-142.75 301.5,-152.75 308.5,-152.75"/>
</g>
<!-- Node4&#45;&gt;Node5 -->
<g id="edge4" class="edge">
<title>Node4&#45;&gt;Node5</title>
<path fill="none" stroke="midnightblue" d="M325.72,-127.19C358.9,-119.47 426.23,-103.69 493.48,-87.09"/>
<polygon fill="midnightblue" stroke="midnightblue" points="494.53,-90.44 503.4,-84.64 492.85,-83.64 494.53,-90.44"/>
</g>
<!-- Node4&#45;&gt;Node7 -->
<g id="edge6" class="edge">
<title>Node4&#45;&gt;Node7</title>
<path fill="none" stroke="midnightblue" d="M284.42,-126.88C252.88,-119.01 190.43,-103.36 127.24,-87.04"/>
<polygon fill="midnightblue" stroke="midnightblue" points="128.06,-83.64 117.51,-84.52 126.31,-90.41 128.06,-83.64"/>
</g>
<!-- Node10 -->
<g id="node10" class="node">
<title>Node10</title>
<g id="a_node10"><a xlink:href="utils_8h.html" target="_top" xlink:title="Utilities.">
<polygon fill="white" stroke="black" points="679.5,-67.5 679.5,-86.5 726.5,-86.5 726.5,-67.5 679.5,-67.5"/>
<text text-anchor="middle" x="703" y="-74.5" font-family="Helvetica,sans-Serif" font-size="10.00">utils.h</text>
</a>
</g>
</g>
<!-- Node4&#45;&gt;Node10 -->
<g id="edge10" class="edge">
<title>Node4&#45;&gt;Node10</title>
<path fill="none" stroke="midnightblue" d="M325.56,-129.21C390.15,-120.45 589.44,-93.41 669.35,-82.57"/>
<polygon fill="midnightblue" stroke="midnightblue" points="669.93,-86.02 679.36,-81.21 668.98,-79.08 669.93,-86.02"/>
</g>
<!-- Node21 -->
<g id="node21" class="node">
<title>Node21</title>
<g id="a_node21"><a xlink:title=" ">
<polygon fill="white" stroke="#bfbfbf" points="282,-67.5 282,-86.5 326,-86.5 326,-67.5 282,-67.5"/>
<text text-anchor="middle" x="304" y="-74.5" font-family="Helvetica,sans-Serif" font-size="10.00">ctime</text>
</a>
</g>
</g>
<!-- Node4&#45;&gt;Node21 -->
<g id="edge22" class="edge">
<title>Node4&#45;&gt;Node21</title>
<path fill="none" stroke="midnightblue" d="M304.83,-123.08C304.7,-116.01 304.52,-105.86 304.35,-96.99"/>
<polygon fill="midnightblue" stroke="midnightblue" points="307.85,-96.68 304.16,-86.75 300.85,-96.81 307.85,-96.68"/>
</g>
<!-- Node22 -->
<g id="node22" class="node">
<title>Node22</title>
<g id="a_node22"><a xlink:title=" ">
<polygon fill="white" stroke="#bfbfbf" points="344,-67.5 344,-86.5 412,-86.5 412,-67.5 344,-67.5"/>
<text text-anchor="middle" x="378" y="-74.5" font-family="Helvetica,sans-Serif" font-size="10.00">filesystem</text>
</a>
</g>
</g>
<!-- Node4&#45;&gt;Node22 -->
<g id="edge23" class="edge">
<title>Node4&#45;&gt;Node22</title>
<path fill="none" stroke="midnightblue" d="M316.73,-123.32C327.84,-115.11 344.74,-102.6 357.98,-92.81"/>
<polygon fill="midnightblue" stroke="midnightblue" points="360.1,-95.59 366.06,-86.83 355.94,-89.97 360.1,-95.59"/>
</g>
<!-- Node23 -->
<g id="node23" class="node">
<title>Node23</title>
<g id="a_node23"><a xlink:title=" ">
<polygon fill="white" stroke="#bfbfbf" points="430.5,-67.5 430.5,-86.5 485.5,-86.5 485.5,-67.5 430.5,-67.5"/>
<text text-anchor="middle" x="458" y="-74.5" font-family="Helvetica,sans-Serif" font-size="10.00">fstream</text>
</a>
</g>
</g>
<!-- Node4&#45;&gt;Node23 -->
<g id="edge24" class="edge">
<title>Node4&#45;&gt;Node23</title>
<path fill="none" stroke="midnightblue" d="M325.63,-124.72C350.84,-115.82 393.85,-100.64 423.98,-90.01"/>
<polygon fill="midnightblue" stroke="midnightblue" points="425.4,-93.22 433.66,-86.59 423.07,-86.62 425.4,-93.22"/>
</g>
<!-- Node24 -->
<g id="node24" class="node">
<title>Node24</title>
<g id="a_node24"><a xlink:title=" ">
<polygon fill="white" stroke="#bfbfbf" points="136,-67.5 136,-86.5 192,-86.5 192,-67.5 136,-67.5"/>
<text text-anchor="middle" x="164" y="-74.5" font-family="Helvetica,sans-Serif" font-size="10.00">iomanip</text>
</a>
</g>
</g>
<!-- Node4&#45;&gt;Node24 -->
<g id="edge25" class="edge">
<title>Node4&#45;&gt;Node24</title>
<path fill="none" stroke="midnightblue" d="M284.5,-124.15C261.23,-115.24 223,-100.6 195.85,-90.2"/>
<polygon fill="midnightblue" stroke="midnightblue" points="196.98,-86.88 186.39,-86.58 194.48,-93.42 196.98,-86.88"/>
</g>
<!-- Node25 -->
<g id="node25" class="node">
<title>Node25</title>
<g id="a_node25"><a xlink:title=" ">
<polygon fill="white" stroke="#bfbfbf" points="210.5,-67.5 210.5,-86.5 263.5,-86.5 263.5,-67.5 210.5,-67.5"/>
<text text-anchor="middle" x="237" y="-74.5" font-family="Helvetica,sans-Serif" font-size="10.00">spy.hpp</text>
</a>
</g>
</g>
<!-- Node4&#45;&gt;Node25 -->
<g id="edge26" class="edge">
<title>Node4&#45;&gt;Node25</title>
<path fill="none" stroke="midnightblue" d="M294.07,-123.32C283.83,-115.18 268.28,-102.84 256,-93.09"/>
<polygon fill="midnightblue" stroke="midnightblue" points="258.13,-90.31 248.12,-86.83 253.78,-95.79 258.13,-90.31"/>
</g>
<!-- Node5&#45;&gt;Node6 -->
<g id="edge5" class="edge">
<title>Node5&#45;&gt;Node6</title>
<path fill="none" stroke="midnightblue" d="M503.1,-68C476.45,-59.57 433.89,-45.51 398,-31 396.62,-30.44 395.22,-29.86 393.81,-29.25"/>
<polygon fill="midnightblue" stroke="midnightblue" points="395.12,-26 384.56,-25.11 392.26,-32.39 395.12,-26"/>
</g>
<!-- Node7&#45;&gt;Node6 -->
<g id="edge9" class="edge">
<title>Node7&#45;&gt;Node6</title>
<path fill="none" stroke="midnightblue" d="M117.85,-69.27C120.92,-68.48 124.03,-67.71 127,-67 200.99,-49.44 288.54,-31.8 334.73,-22.74"/>
<polygon fill="midnightblue" stroke="midnightblue" points="335.6,-26.14 344.75,-20.79 334.26,-19.27 335.6,-26.14"/>
</g>
<!-- Node8 -->
<g id="node8" class="node">
<title>Node8</title>
<g id="a_node8"><a xlink:title=" ">
<polygon fill="white" stroke="#bfbfbf" points="78.5,-6 78.5,-25 127.5,-25 127.5,-6 78.5,-6"/>
<text text-anchor="middle" x="103" y="-13" font-family="Helvetica,sans-Serif" font-size="10.00">cstdlib</text>
</a>
</g>
</g>
<!-- Node7&#45;&gt;Node8 -->
<g id="edge7" class="edge">
<title>Node7&#45;&gt;Node8</title>
<path fill="none" stroke="midnightblue" d="M94.43,-67.48C95.84,-59.08 98.05,-45.98 99.86,-35.16"/>
<polygon fill="midnightblue" stroke="midnightblue" points="103.36,-35.45 101.57,-25.01 96.46,-34.29 103.36,-35.45"/>
</g>
<!-- Node7&#45;&gt;Node9 -->
<g id="edge8" class="edge">
<title>Node7&#45;&gt;Node9</title>
<path fill="none" stroke="midnightblue" d="M83.97,-67.48C74.24,-58.28 58.54,-43.46 46.58,-32.16"/>
<polygon fill="midnightblue" stroke="midnightblue" points="48.68,-29.33 39.01,-25.01 43.88,-34.42 48.68,-29.33"/>
</g>
<!-- Node10&#45;&gt;Node6 -->
<g id="edge15" class="edge">
<title>Node10&#45;&gt;Node6</title>
<path fill="none" stroke="midnightblue" d="M679.36,-70.02C674.62,-68.93 669.67,-67.86 665,-67 547.27,-45.18 512.88,-64.75 398,-31 396.12,-30.45 394.21,-29.8 392.31,-29.08"/>
<polygon fill="midnightblue" stroke="midnightblue" points="393.62,-25.84 383.05,-25.13 390.87,-32.28 393.62,-25.84"/>
</g>
<!-- Node11 -->
<g id="node11" class="node">
<title>Node11</title>
<g id="a_node11"><a xlink:title=" ">
<polygon fill="white" stroke="#bfbfbf" points="407,-6 407,-25 471,-25 471,-6 407,-6"/>
<text text-anchor="middle" x="439" y="-13" font-family="Helvetica,sans-Serif" font-size="10.00">algorithm</text>
</a>
</g>
</g>
<!-- Node10&#45;&gt;Node11 -->
<g id="edge11" class="edge">
<title>Node10&#45;&gt;Node11</title>
<path fill="none" stroke="midnightblue" d="M679.32,-70.23C674.58,-69.13 669.64,-68 665,-67 583.12,-49.34 560.82,-53.02 480,-31 477.04,-30.19 473.98,-29.28 470.93,-28.3"/>
<polygon fill="midnightblue" stroke="midnightblue" points="471.96,-24.96 461.37,-25.08 469.73,-31.59 471.96,-24.96"/>
</g>
<!-- Node12 -->
<g id="node12" class="node">
<title>Node12</title>
<g id="a_node12"><a xlink:title=" ">
<polygon fill="white" stroke="#bfbfbf" points="489.5,-6 489.5,-25 538.5,-25 538.5,-6 489.5,-6"/>
<text text-anchor="middle" x="514" y="-13" font-family="Helvetica,sans-Serif" font-size="10.00">cctype</text>
</a>
</g>
</g>
<!-- Node10&#45;&gt;Node12 -->
<g id="edge12" class="edge">
<title>Node10&#45;&gt;Node12</title>
<path fill="none" stroke="midnightblue" d="M679.35,-70.08C648.71,-62.2 593.79,-47.34 548,-31 546.14,-30.34 544.24,-29.62 542.33,-28.88"/>
<polygon fill="midnightblue" stroke="midnightblue" points="543.48,-25.57 532.9,-25.04 540.84,-32.05 543.48,-25.57"/>
</g>
<!-- Node13 -->
<g id="node13" class="node">
<title>Node13</title>
<g id="a_node13"><a xlink:title=" ">
<polygon fill="white" stroke="#bfbfbf" points="557,-6 557,-25 611,-25 611,-6 557,-6"/>
<text text-anchor="middle" x="584" y="-13" font-family="Helvetica,sans-Serif" font-size="10.00">random</text>
</a>
</g>
</g>
<!-- Node10&#45;&gt;Node13 -->
<g id="edge13" class="edge">
<title>Node10&#45;&gt;Node13</title>
<path fill="none" stroke="midnightblue" d="M685.95,-67.48C666.16,-57.58 633.28,-41.14 610.23,-29.62"/>
<polygon fill="midnightblue" stroke="midnightblue" points="611.53,-26.35 601.02,-25.01 608.4,-32.61 611.53,-26.35"/>
</g>
<!-- Node14 -->
<g id="node14" class="node">
<title>Node14</title>
<g id="a_node14"><a xlink:title=" ">
<polygon fill="white" stroke="#bfbfbf" points="629,-6 629,-25 685,-25 685,-6 629,-6"/>
<text text-anchor="middle" x="657" y="-13" font-family="Helvetica,sans-Serif" font-size="10.00">sstream</text>
</a>
</g>
</g>
<!-- Node10&#45;&gt;Node14 -->
<g id="edge14" class="edge">
<title>Node10&#45;&gt;Node14</title>
<path fill="none" stroke="midnightblue" d="M696.41,-67.48C689.51,-58.55 678.5,-44.31 669.87,-33.14"/>
<polygon fill="midnightblue" stroke="midnightblue" points="672.46,-30.78 663.58,-25.01 666.93,-35.06 672.46,-30.78"/>
</g>
<!-- Node10&#45;&gt;Node15 -->
<g id="edge16" class="edge">
<title>Node10&#45;&gt;Node15</title>
<path fill="none" stroke="midnightblue" d="M726.61,-69.82C731.35,-68.75 736.31,-67.74 741,-67 939.64,-35.74 997.01,-80.13 1192,-31 1194.3,-30.42 1196.65,-29.69 1198.98,-28.87"/>
<polygon fill="midnightblue" stroke="midnightblue" points="1200.28,-32.12 1208.26,-25.15 1197.67,-25.63 1200.28,-32.12"/>
</g>
<!-- Node16 -->
<g id="node16" class="node">
<title>Node16</title>
<g id="a_node16"><a xlink:href="__boost__config_8h.html" target="_top" xlink:title="Boost Configurations.">
<polygon fill="white" stroke="black" points="703,-6 703,-25 795,-25 795,-6 703,-6"/>
<text text-anchor="middle" x="749" y="-13" font-family="Helvetica,sans-Serif" font-size="10.00">_boost_config.h</text>
</a>
</g>
</g>
<!-- Node10&#45;&gt;Node16 -->
<g id="edge17" class="edge">
<title>Node10&#45;&gt;Node16</title>
<path fill="none" stroke="midnightblue" d="M709.59,-67.48C716.49,-58.55 727.5,-44.31 736.13,-33.14"/>
<polygon fill="midnightblue" stroke="midnightblue" points="739.07,-35.06 742.42,-25.01 733.54,-30.78 739.07,-35.06"/>
</g>
<!-- Node17 -->
<g id="node17" class="node">
<title>Node17</title>
<g id="a_node17"><a xlink:title=" ">
<polygon fill="white" stroke="#bfbfbf" points="813.5,-0.5 813.5,-30.5 954.5,-30.5 954.5,-0.5 813.5,-0.5"/>
<text text-anchor="start" x="821.5" y="-18.5" font-family="Helvetica,sans-Serif" font-size="10.00">boost/dll/runtime_symbol</text>
<text text-anchor="middle" x="884" y="-7.5" font-family="Helvetica,sans-Serif" font-size="10.00">_info.hpp</text>
</a>
</g>
</g>
<!-- Node10&#45;&gt;Node17 -->
<g id="edge18" class="edge">
<title>Node10&#45;&gt;Node17</title>
<path fill="none" stroke="midnightblue" d="M726.66,-68.22C753.2,-59.5 797.07,-45.08 831.75,-33.68"/>
<polygon fill="midnightblue" stroke="midnightblue" points="832.86,-37 841.27,-30.55 830.67,-30.35 832.86,-37"/>
</g>
<!-- Node18 -->
<g id="node18" class="node">
<title>Node18</title>
<g id="a_node18"><a xlink:title=" ">
<polygon fill="white" stroke="#bfbfbf" points="973,-6 973,-25 1019,-25 1019,-6 973,-6"/>
<text text-anchor="middle" x="996" y="-13" font-family="Helvetica,sans-Serif" font-size="10.00">pwd.h</text>
</a>
</g>
</g>
<!-- Node10&#45;&gt;Node18 -->
<g id="edge19" class="edge">
<title>Node10&#45;&gt;Node18</title>
<path fill="none" stroke="midnightblue" d="M726.66,-70.12C731.4,-69.02 736.35,-67.93 741,-67 839.47,-47.42 867.88,-59.97 964,-31 965.93,-30.42 967.89,-29.75 969.85,-29.02"/>
<polygon fill="midnightblue" stroke="midnightblue" points="971.5,-32.12 979.38,-25.04 968.81,-25.66 971.5,-32.12"/>
</g>
<!-- Node19 -->
<g id="node19" class="node">
<title>Node19</title>
<g id="a_node19"><a xlink:title=" ">
<polygon fill="white" stroke="#bfbfbf" points="1037,-6 1037,-25 1109,-25 1109,-6 1037,-6"/>
<text text-anchor="middle" x="1073" y="-13" font-family="Helvetica,sans-Serif" font-size="10.00">sys/types.h</text>
</a>
</g>
</g>
<!-- Node10&#45;&gt;Node19 -->
<g id="edge20" class="edge">
<title>Node10&#45;&gt;Node19</title>
<path fill="none" stroke="midnightblue" d="M726.63,-69.99C731.37,-68.9 736.33,-67.84 741,-67 867.51,-44.15 902.49,-58.84 1028,-31 1031.86,-30.14 1035.85,-29.1 1039.8,-27.96"/>
<polygon fill="midnightblue" stroke="midnightblue" points="1040.87,-31.3 1049.41,-25.02 1038.82,-24.6 1040.87,-31.3"/>
</g>
<!-- Node20 -->
<g id="node20" class="node">
<title>Node20</title>
<g id="a_node20"><a xlink:title=" ">
<polygon fill="white" stroke="#bfbfbf" points="1127,-6 1127,-25 1183,-25 1183,-6 1127,-6"/>
<text text-anchor="middle" x="1155" y="-13" font-family="Helvetica,sans-Serif" font-size="10.00">unistd.h</text>
</a>
</g>
</g>
<!-- Node10&#45;&gt;Node20 -->
<g id="edge21" class="edge">
<title>Node10&#45;&gt;Node20</title>
<path fill="none" stroke="midnightblue" d="M726.62,-69.88C731.35,-68.8 736.32,-67.77 741,-67 907.06,-39.54 954.28,-70.09 1118,-31 1120.83,-30.32 1123.73,-29.48 1126.61,-28.53"/>
<polygon fill="midnightblue" stroke="midnightblue" points="1127.93,-31.78 1136.12,-25.06 1125.53,-25.2 1127.93,-31.78"/>
</g>
<!-- Node29 -->
<g id="node29" class="node">
<title>Node29</title>
<g id="a_node29"><a xlink:title=" ">
<polygon fill="white" stroke="#bfbfbf" points="783.5,-179.5 783.5,-198.5 882.5,-198.5 882.5,-179.5 783.5,-179.5"/>
<text text-anchor="middle" x="833" y="-186.5" font-family="Helvetica,sans-Serif" font-size="10.00">yaml&#45;cpp/yaml.h</text>
</a>
</g>
</g>
<!-- Node28&#45;&gt;Node29 -->
<g id="edge35" class="edge">
<title>Node28&#45;&gt;Node29</title>
<path fill="none" stroke="midnightblue" d="M812.13,-235.08C815.51,-227.77 820.42,-217.18 824.62,-208.1"/>
<polygon fill="midnightblue" stroke="midnightblue" points="827.92,-209.3 828.95,-198.75 821.57,-206.36 827.92,-209.3"/>
</g>
</g>
</svg>
        <g id="navigator" transform="translate(0 0)" fill="#404254">
                <rect fill="#f2f5e9" fill-opacity="0.5" stroke="#606060" stroke-width=".5" x="0" y="0" width="60" height="60"/>
                <use id="zoomplus" xlink:href="#zoomPlus" x="17" y="9" onmousedown="handleZoom(evt,'in')"/>
                <use id="zoomminus" xlink:href="#zoomMin" x="42" y="9" onmousedown="handleZoom(evt,'out')"/>
                <use id="reset" xlink:href="#resetDef" x="30" y="36" onmousedown="handleReset()"/>
                <g id="arrowUp" xlink:href="#dirArrow" transform="translate(30 24)" onmousedown="handlePan(0,-1)">
                  <use xlink:href="#rim" fill="#404040">
                        <set attributeName="fill" to="#808080" begin="arrowUp.mouseover" end="arrowUp.mouseout"/>
                  </use>
                  <path fill="none" stroke="white" stroke-width="1.5" d="M0,-3.0v7 M-2.5,-0.5L0,-3.0L2.5,-0.5"/>
                </g>
                <g id="arrowRight" xlink:href="#dirArrow" transform="rotate(90) translate(36 -43)" onmousedown="handlePan(1,0)">
                  <use xlink:href="#rim" fill="#404040">
                        <set attributeName="fill" to="#808080" begin="arrowRight.mouseover" end="arrowRight.mouseout"/>
                  </use>
                  <path fill="none" stroke="white" stroke-width="1.5" d="M0,-3.0v7 M-2.5,-0.5L0,-3.0L2.5,-0.5"/>
                </g>
                <g id="arrowDown" xlink:href="#dirArrow" transform="rotate(180) translate(-30 -48)" onmousedown="handlePan(0,1)">
                  <use xlink:href="#rim" fill="#404040">
                        <set attributeName="fill" to="#808080" begin="arrowDown.mouseover" end="arrowDown.mouseout"/>
                  </use>
                  <path fill="none" stroke="white" stroke-width="1.5" d="M0,-3.0v7 M-2.5,-0.5L0,-3.0L2.5,-0.5"/>
                </g>
                <g id="arrowLeft" xlink:href="#dirArrow" transform="rotate(270) translate(-36 17)" onmousedown="handlePan(-1,0)">
                  <use xlink:href="#rim" fill="#404040">
                        <set attributeName="fill" to="#808080" begin="arrowLeft.mouseover" end="arrowLeft.mouseout"/>
                  </use>
                  <path fill="none" stroke="white" stroke-width="1.5" d="M0,-3.0v7 M-2.5,-0.5L0,-3.0L2.5,-0.5"/>
                </g>
        </g>
        <svg viewBox="0 0 15 15" width="100%" height="30px" preserveAspectRatio="xMaxYMin meet">
         <g id="arrow_out" transform="scale(0.3 0.3)">
          <a xlink:href="read_8h__incl_org.svg" target="_base">
           <rect id="button" ry="5" rx="5" y="6" x="6" height="38" width="38"
                fill="#f2f5e9" fill-opacity="0.5" stroke="#606060" stroke-width="1.0"/>
           <path id="arrow"
             d="M 11.500037,31.436501 C 11.940474,20.09759 22.043105,11.32322 32.158766,21.979434 L 37.068811,17.246167 C 37.068811,17.246167 37.088388,32 37.088388,32 L 22.160133,31.978069 C 22.160133,31.978069 26.997745,27.140456 26.997745,27.140456 C 18.528582,18.264221 13.291696,25.230495 11.500037,31.436501 z"
             style="fill:#404040;"/>
          </a>
         </g>
        </svg>
</svg>
