<?xml version="1.0" encoding="UTF-8" standalone="no"?>
<!DOCTYPE svg PUBLIC "-//W3C//DTD SVG 1.1//EN"
 "http://www.w3.org/Graphics/SVG/1.1/DTD/svg11.dtd">
<!-- Generated by graphviz version 2.43.0 (0)
 -->
<!-- Title: include/export/shared_info.h Pages: 1 -->
<svg width="307pt" height="151pt"
 viewBox="0.00 0.00 306.50 151.00" xmlns="http://www.w3.org/2000/svg" xmlns:xlink="http://www.w3.org/1999/xlink">
<g id="graph0" class="graph" transform="scale(1 1) rotate(0) translate(4 147)">
<title>include/export/shared_info.h</title>
<polygon fill="white" stroke="transparent" points="-4,4 -4,-147 302.5,-147 302.5,4 -4,4"/>
<!-- Node1 -->
<g id="node1" class="node">
<title>Node1</title>
<g id="a_node1"><a xlink:title="Shared Information Between &#39;Export&#39; and &#39;Simulate&#39;.">
<polygon fill="#bfbfbf" stroke="black" points="85,-112.5 85,-142.5 207,-142.5 207,-112.5 85,-112.5"/>
<text text-anchor="start" x="93" y="-130.5" font-family="Helvetica,sans-Serif" font-size="10.00">include/export/shared</text>
<text text-anchor="middle" x="146" y="-119.5" font-family="Helvetica,sans-Serif" font-size="10.00">_info.h</text>
</a>
</g>
</g>
<!-- Node2 -->
<g id="node2" class="node">
<title>Node2</title>
<g id="a_node2"><a xlink:href="export_8h.html" target="_top" xlink:title="Export mmCEsim Configuration to Other Programming Languages.">
<polygon fill="white" stroke="black" points="39.5,-56.5 39.5,-75.5 134.5,-75.5 134.5,-56.5 39.5,-56.5"/>
<text text-anchor="middle" x="87" y="-63.5" font-family="Helvetica,sans-Serif" font-size="10.00">include/export.h</text>
</a>
</g>
</g>
<!-- Node1&#45;&gt;Node2 -->
<g id="edge1" class="edge">
<title>Node1&#45;&gt;Node2</title>
<path fill="none" stroke="midnightblue" d="M124.68,-105C114.63,-94.86 103.19,-83.33 95.59,-75.66"/>
<polygon fill="midnightblue" stroke="midnightblue" points="122.49,-107.76 132.02,-112.4 127.46,-102.83 122.49,-107.76"/>
</g>
<!-- Node5 -->
<g id="node5" class="node">
<title>Node5</title>
<g id="a_node5"><a xlink:href="simulate_8h.html" target="_top" xlink:title="Simulate Generated Code.">
<polygon fill="white" stroke="black" points="152.5,-56.5 152.5,-75.5 259.5,-75.5 259.5,-56.5 152.5,-56.5"/>
<text text-anchor="middle" x="206" y="-63.5" font-family="Helvetica,sans-Serif" font-size="10.00">include/simulate.h</text>
</a>
</g>
</g>
<!-- Node1&#45;&gt;Node5 -->
<g id="edge4" class="edge">
<title>Node1&#45;&gt;Node5</title>
<path fill="none" stroke="midnightblue" d="M167.38,-105.3C177.68,-95.09 189.45,-83.41 197.27,-75.66"/>
<polygon fill="midnightblue" stroke="midnightblue" points="164.86,-102.87 160.22,-112.4 169.78,-107.84 164.86,-102.87"/>
</g>
<!-- Node3 -->
<g id="node3" class="node">
<title>Node3</title>
<g id="a_node3"><a xlink:href="export_8cpp.html" target="_top" xlink:title="Implementation of Export Class.">
<polygon fill="white" stroke="black" points="0,-0.5 0,-19.5 86,-19.5 86,-0.5 0,-0.5"/>
<text text-anchor="middle" x="43" y="-7.5" font-family="Helvetica,sans-Serif" font-size="10.00">src/export.cpp</text>
</a>
</g>
</g>
<!-- Node2&#45;&gt;Node3 -->
<g id="edge2" class="edge">
<title>Node2&#45;&gt;Node3</title>
<path fill="none" stroke="midnightblue" d="M73.27,-48.14C65.6,-38.74 56.37,-27.4 50.13,-19.75"/>
<polygon fill="midnightblue" stroke="midnightblue" points="70.7,-50.54 79.73,-56.08 76.13,-46.12 70.7,-50.54"/>
</g>
<!-- Node4 -->
<g id="node4" class="node">
<title>Node4</title>
<g id="a_node4"><a xlink:href="src_2main_8cpp.html" target="_top" xlink:title="Program Command Line Options.">
<polygon fill="white" stroke="black" points="104.5,-0.5 104.5,-19.5 183.5,-19.5 183.5,-0.5 104.5,-0.5"/>
<text text-anchor="middle" x="144" y="-7.5" font-family="Helvetica,sans-Serif" font-size="10.00">src/main.cpp</text>
</a>
</g>
</g>
<!-- Node2&#45;&gt;Node4 -->
<g id="edge3" class="edge">
<title>Node2&#45;&gt;Node4</title>
<path fill="none" stroke="midnightblue" d="M103.62,-49.25C113.73,-39.67 126.28,-27.79 134.68,-19.83"/>
<polygon fill="midnightblue" stroke="midnightblue" points="101.01,-46.91 96.16,-56.32 105.82,-51.99 101.01,-46.91"/>
</g>
<!-- Node5&#45;&gt;Node4 -->
<g id="edge5" class="edge">
<title>Node5&#45;&gt;Node4</title>
<path fill="none" stroke="midnightblue" d="M188.25,-49.54C177.19,-39.91 163.37,-27.87 154.14,-19.83"/>
<polygon fill="midnightblue" stroke="midnightblue" points="186.2,-52.4 196.04,-56.32 190.8,-47.12 186.2,-52.4"/>
</g>
<!-- Node6 -->
<g id="node6" class="node">
<title>Node6</title>
<g id="a_node6"><a xlink:href="simulate_8cpp.html" target="_top" xlink:title="Implementation of Simulate Class.">
<polygon fill="white" stroke="black" points="201.5,-0.5 201.5,-19.5 298.5,-19.5 298.5,-0.5 201.5,-0.5"/>
<text text-anchor="middle" x="250" y="-7.5" font-family="Helvetica,sans-Serif" font-size="10.00">src/simulate.cpp</text>
</a>
</g>
</g>
<!-- Node5&#45;&gt;Node6 -->
<g id="edge6" class="edge">
<title>Node5&#45;&gt;Node6</title>
<path fill="none" stroke="midnightblue" d="M219.73,-48.14C227.4,-38.74 236.63,-27.4 242.87,-19.75"/>
<polygon fill="midnightblue" stroke="midnightblue" points="216.87,-46.12 213.27,-56.08 222.3,-50.54 216.87,-46.12"/>
</g>
</g>
</svg>
