<?xml version="1.0" encoding="UTF-8" standalone="no"?>
<!DOCTYPE svg PUBLIC "-//W3C//DTD SVG 1.1//EN"
 "http://www.w3.org/Graphics/SVG/1.1/DTD/svg11.dtd">
<!-- Generated by graphviz version 2.43.0 (0)
 -->
<!-- Title: src/simulate.cpp Pages: 1 -->
<svg width="1339pt" height="319pt"
 viewBox="0.00 0.00 1339.00 319.00" xmlns="http://www.w3.org/2000/svg" xmlns:xlink="http://www.w3.org/1999/xlink">
<g id="graph0" class="graph" transform="scale(1 1) rotate(0) translate(4 315)">
<title>src/simulate.cpp</title>
<polygon fill="white" stroke="transparent" points="-4,4 -4,-315 1335,-315 1335,4 -4,4"/>
<!-- Node1 -->
<g id="node1" class="node">
<title>Node1</title>
<g id="a_node1"><a xlink:title="Implementation of Simulate Class.">
<polygon fill="#bfbfbf" stroke="black" points="936,-291.5 936,-310.5 1033,-310.5 1033,-291.5 936,-291.5"/>
<text text-anchor="middle" x="984.5" y="-298.5" font-family="Helvetica,sans-Serif" font-size="10.00">src/simulate.cpp</text>
</a>
</g>
</g>
<!-- Node2 -->
<g id="node2" class="node">
<title>Node2</title>
<g id="a_node2"><a xlink:href="simulate_8h.html" target="_top" xlink:title="Simulate Generated Code.">
<polygon fill="white" stroke="black" points="950.5,-235.5 950.5,-254.5 1018.5,-254.5 1018.5,-235.5 950.5,-235.5"/>
<text text-anchor="middle" x="984.5" y="-242.5" font-family="Helvetica,sans-Serif" font-size="10.00">simulate.h</text>
</a>
</g>
</g>
<!-- Node1&#45;&gt;Node2 -->
<g id="edge1" class="edge">
<title>Node1&#45;&gt;Node2</title>
<path fill="none" stroke="midnightblue" d="M984.5,-291.08C984.5,-284.01 984.5,-273.86 984.5,-264.99"/>
<polygon fill="midnightblue" stroke="midnightblue" points="988,-264.75 984.5,-254.75 981,-264.75 988,-264.75"/>
</g>
<!-- Node3 -->
<g id="node3" class="node">
<title>Node3</title>
<g id="a_node3"><a xlink:href="config_8h.html" target="_top" xlink:title="Read and Write User Configuration.">
<polygon fill="white" stroke="black" points="440,-123.5 440,-142.5 495,-142.5 495,-123.5 440,-123.5"/>
<text text-anchor="middle" x="467.5" y="-130.5" font-family="Helvetica,sans-Serif" font-size="10.00">config.h</text>
</a>
</g>
</g>
<!-- Node2&#45;&gt;Node3 -->
<g id="edge2" class="edge">
<title>Node2&#45;&gt;Node3</title>
<path fill="none" stroke="midnightblue" d="M950.22,-242.16C887.66,-238.23 751.12,-226.97 639.5,-199 587.08,-185.87 528.77,-161.68 495.29,-146.8"/>
<polygon fill="midnightblue" stroke="midnightblue" points="496.68,-143.59 486.13,-142.69 493.82,-149.97 496.68,-143.59"/>
</g>
<!-- Node4 -->
<g id="node4" class="node">
<title>Node4</title>
<g id="a_node4"><a xlink:href="utils_8h.html" target="_top" xlink:title="Utilities.">
<polygon fill="white" stroke="black" points="418,-67.5 418,-86.5 465,-86.5 465,-67.5 418,-67.5"/>
<text text-anchor="middle" x="441.5" y="-74.5" font-family="Helvetica,sans-Serif" font-size="10.00">utils.h</text>
</a>
</g>
</g>
<!-- Node2&#45;&gt;Node4 -->
<g id="edge35" class="edge">
<title>Node2&#45;&gt;Node4</title>
<path fill="none" stroke="midnightblue" d="M950.23,-237.2C911.24,-229.19 845.81,-214.95 790.5,-199 671.72,-164.74 533.94,-113.47 473.12,-90.23"/>
<polygon fill="midnightblue" stroke="midnightblue" points="474.28,-86.93 463.69,-86.62 471.78,-93.46 474.28,-86.93"/>
</g>
<!-- Node9 -->
<g id="node9" class="node">
<title>Node9</title>
<g id="a_node9"><a xlink:title=" ">
<polygon fill="white" stroke="#bfbfbf" points="906.5,-6 906.5,-25 950.5,-25 950.5,-6 906.5,-6"/>
<text text-anchor="middle" x="928.5" y="-13" font-family="Helvetica,sans-Serif" font-size="10.00">string</text>
</a>
</g>
</g>
<!-- Node2&#45;&gt;Node9 -->
<g id="edge39" class="edge">
<title>Node2&#45;&gt;Node9</title>
<path fill="none" stroke="midnightblue" d="M986.03,-235.37C989.3,-215.37 995.99,-164.37 987.5,-123 980.35,-88.17 957.12,-53.12 942.03,-33.19"/>
<polygon fill="midnightblue" stroke="midnightblue" points="944.67,-30.88 935.75,-25.15 939.15,-35.18 944.67,-30.88"/>
</g>
<!-- Node18 -->
<g id="node18" class="node">
<title>Node18</title>
<g id="a_node18"><a xlink:href="shared__info_8h.html" target="_top" xlink:title="Shared Information Between &#39;Export&#39; and &#39;Simulate&#39;.">
<polygon fill="white" stroke="black" points="861,-123.5 861,-142.5 978,-142.5 978,-123.5 861,-123.5"/>
<text text-anchor="middle" x="919.5" y="-130.5" font-family="Helvetica,sans-Serif" font-size="10.00">export/shared_info.h</text>
</a>
</g>
</g>
<!-- Node2&#45;&gt;Node18 -->
<g id="edge19" class="edge">
<title>Node2&#45;&gt;Node18</title>
<path fill="none" stroke="midnightblue" d="M979.4,-235.37C968.72,-217.3 943.83,-175.18 929.73,-151.31"/>
<polygon fill="midnightblue" stroke="midnightblue" points="932.68,-149.42 924.58,-142.59 926.65,-152.98 932.68,-149.42"/>
</g>
<!-- Node19 -->
<g id="node19" class="node">
<title>Node19</title>
<g id="a_node19"><a xlink:href="log__global_8h.html" target="_top" xlink:title="Global Access of Log.">
<polygon fill="white" stroke="black" points="799.5,-179.5 799.5,-198.5 875.5,-198.5 875.5,-179.5 799.5,-179.5"/>
<text text-anchor="middle" x="837.5" y="-186.5" font-family="Helvetica,sans-Serif" font-size="10.00">log_global.h</text>
</a>
</g>
</g>
<!-- Node2&#45;&gt;Node19 -->
<g id="edge21" class="edge">
<title>Node2&#45;&gt;Node19</title>
<path fill="none" stroke="midnightblue" d="M961.21,-235.44C936.69,-226.44 897.9,-212.19 870.3,-202.05"/>
<polygon fill="midnightblue" stroke="midnightblue" points="871.28,-198.68 860.68,-198.52 868.86,-205.25 871.28,-198.68"/>
</g>
<!-- Node24 -->
<g id="node24" class="node">
<title>Node24</title>
<g id="a_node24"><a xlink:title=" ">
<polygon fill="white" stroke="#bfbfbf" points="1082.5,-6 1082.5,-25 1142.5,-25 1142.5,-6 1082.5,-6"/>
<text text-anchor="middle" x="1112.5" y="-13" font-family="Helvetica,sans-Serif" font-size="10.00">iostream</text>
</a>
</g>
</g>
<!-- Node2&#45;&gt;Node24 -->
<g id="edge38" class="edge">
<title>Node2&#45;&gt;Node24</title>
<path fill="none" stroke="midnightblue" d="M992.05,-235.47C1011.67,-212.87 1064.69,-148.99 1093.5,-87 1101.26,-70.31 1106.33,-49.88 1109.26,-35.31"/>
<polygon fill="midnightblue" stroke="midnightblue" points="1112.78,-35.55 1111.17,-25.07 1105.9,-34.26 1112.78,-35.55"/>
</g>
<!-- Node29 -->
<g id="node29" class="node">
<title>Node29</title>
<g id="a_node29"><a xlink:title=" ">
<polygon fill="white" stroke="#bfbfbf" points="1141,-179.5 1141,-198.5 1246,-198.5 1246,-179.5 1141,-179.5"/>
<text text-anchor="middle" x="1193.5" y="-186.5" font-family="Helvetica,sans-Serif" font-size="10.00">boost/process.hpp</text>
</a>
</g>
</g>
<!-- Node2&#45;&gt;Node29 -->
<g id="edge36" class="edge">
<title>Node2&#45;&gt;Node29</title>
<path fill="none" stroke="midnightblue" d="M1017.62,-235.44C1053.62,-226.14 1111.27,-211.25 1150.69,-201.06"/>
<polygon fill="midnightblue" stroke="midnightblue" points="1151.73,-204.41 1160.54,-198.52 1149.98,-197.63 1151.73,-204.41"/>
</g>
<!-- Node30 -->
<g id="node30" class="node">
<title>Node30</title>
<g id="a_node30"><a xlink:title=" ">
<polygon fill="white" stroke="#bfbfbf" points="1264,-179.5 1264,-198.5 1331,-198.5 1331,-179.5 1264,-179.5"/>
<text text-anchor="middle" x="1297.5" y="-186.5" font-family="Helvetica,sans-Serif" font-size="10.00">fmt/core.h</text>
</a>
</g>
</g>
<!-- Node2&#45;&gt;Node30 -->
<g id="edge37" class="edge">
<title>Node2&#45;&gt;Node30</title>
<path fill="none" stroke="midnightblue" d="M1018.81,-238.83C1068.48,-231.22 1163.51,-216.25 1253.5,-199.32"/>
<polygon fill="midnightblue" stroke="midnightblue" points="1254.43,-202.71 1263.6,-197.41 1253.12,-195.83 1254.43,-202.71"/>
</g>
<!-- Node3&#45;&gt;Node4 -->
<g id="edge3" class="edge">
<title>Node3&#45;&gt;Node4</title>
<path fill="none" stroke="midnightblue" d="M463.21,-123.08C459.65,-115.69 454.48,-104.95 450.08,-95.81"/>
<polygon fill="midnightblue" stroke="midnightblue" points="453.21,-94.24 445.71,-86.75 446.9,-97.28 453.21,-94.24"/>
</g>
<!-- Node3&#45;&gt;Node9 -->
<g id="edge17" class="edge">
<title>Node3&#45;&gt;Node9</title>
<path fill="none" stroke="midnightblue" d="M470.77,-123.46C476.78,-109.03 491.07,-80.13 513.5,-67 579.64,-28.27 780.74,-42.58 856.5,-31 869.6,-29 883.92,-26.23 896.32,-23.65"/>
<polygon fill="midnightblue" stroke="midnightblue" points="897.16,-27.05 906.22,-21.55 895.71,-20.21 897.16,-27.05"/>
</g>
<!-- Node10 -->
<g id="node10" class="node">
<title>Node10</title>
<g id="a_node10"><a xlink:title=" ">
<polygon fill="white" stroke="#bfbfbf" points="117,-6 117,-25 164,-25 164,-6 117,-6"/>
<text text-anchor="middle" x="140.5" y="-13" font-family="Helvetica,sans-Serif" font-size="10.00">vector</text>
</a>
</g>
</g>
<!-- Node3&#45;&gt;Node10 -->
<g id="edge18" class="edge">
<title>Node3&#45;&gt;Node10</title>
<path fill="none" stroke="midnightblue" d="M440.07,-123.42C387.74,-106.86 270.27,-68.81 173.5,-31 171.9,-30.37 170.26,-29.71 168.61,-29.04"/>
<polygon fill="midnightblue" stroke="midnightblue" points="169.81,-25.74 159.23,-25.05 167.07,-32.19 169.81,-25.74"/>
</g>
<!-- Node15 -->
<g id="node15" class="node">
<title>Node15</title>
<g id="a_node15"><a xlink:href="yaml_8h.html" target="_top" xlink:title="Wrapper for yaml&#45;cpp for static linking.">
<polygon fill="white" stroke="black" points="167.5,-67.5 167.5,-86.5 217.5,-86.5 217.5,-67.5 167.5,-67.5"/>
<text text-anchor="middle" x="192.5" y="-74.5" font-family="Helvetica,sans-Serif" font-size="10.00">yaml.h</text>
</a>
</g>
</g>
<!-- Node3&#45;&gt;Node15 -->
<g id="edge14" class="edge">
<title>Node3&#45;&gt;Node15</title>
<path fill="none" stroke="midnightblue" d="M439.87,-126.58C389.59,-116.7 283.19,-95.81 227.76,-84.92"/>
<polygon fill="midnightblue" stroke="midnightblue" points="228.19,-81.44 217.7,-82.95 226.84,-88.31 228.19,-81.44"/>
</g>
<!-- Node17 -->
<g id="node17" class="node">
<title>Node17</title>
<g id="a_node17"><a xlink:title=" ">
<polygon fill="white" stroke="#bfbfbf" points="522,-67.5 522,-86.5 577,-86.5 577,-67.5 522,-67.5"/>
<text text-anchor="middle" x="549.5" y="-74.5" font-family="Helvetica,sans-Serif" font-size="10.00">fstream</text>
</a>
</g>
</g>
<!-- Node3&#45;&gt;Node17 -->
<g id="edge16" class="edge">
<title>Node3&#45;&gt;Node17</title>
<path fill="none" stroke="midnightblue" d="M480.67,-123.32C493.35,-114.98 512.73,-102.21 527.71,-92.35"/>
<polygon fill="midnightblue" stroke="midnightblue" points="529.93,-95.08 536.36,-86.65 526.08,-89.23 529.93,-95.08"/>
</g>
<!-- Node5 -->
<g id="node5" class="node">
<title>Node5</title>
<g id="a_node5"><a xlink:title=" ">
<polygon fill="white" stroke="#bfbfbf" points="569.5,-6 569.5,-25 633.5,-25 633.5,-6 569.5,-6"/>
<text text-anchor="middle" x="601.5" y="-13" font-family="Helvetica,sans-Serif" font-size="10.00">algorithm</text>
</a>
</g>
</g>
<!-- Node4&#45;&gt;Node5 -->
<g id="edge4" class="edge">
<title>Node4&#45;&gt;Node5</title>
<path fill="none" stroke="midnightblue" d="M464.42,-67.48C491.87,-57.27 538.02,-40.11 569.1,-28.55"/>
<polygon fill="midnightblue" stroke="midnightblue" points="570.47,-31.78 578.62,-25.01 568.03,-25.21 570.47,-31.78"/>
</g>
<!-- Node6 -->
<g id="node6" class="node">
<title>Node6</title>
<g id="a_node6"><a xlink:title=" ">
<polygon fill="white" stroke="#bfbfbf" points="652,-6 652,-25 701,-25 701,-6 652,-6"/>
<text text-anchor="middle" x="676.5" y="-13" font-family="Helvetica,sans-Serif" font-size="10.00">cctype</text>
</a>
</g>
</g>
<!-- Node4&#45;&gt;Node6 -->
<g id="edge5" class="edge">
<title>Node4&#45;&gt;Node6</title>
<path fill="none" stroke="midnightblue" d="M465.2,-70.33C469.94,-69.21 474.87,-68.06 479.5,-67 551.82,-50.45 571.85,-53.65 642.5,-31 644.42,-30.38 646.39,-29.7 648.36,-28.97"/>
<polygon fill="midnightblue" stroke="midnightblue" points="650.04,-32.07 658.03,-25.11 647.45,-25.57 650.04,-32.07"/>
</g>
<!-- Node7 -->
<g id="node7" class="node">
<title>Node7</title>
<g id="a_node7"><a xlink:title=" ">
<polygon fill="white" stroke="#bfbfbf" points="719.5,-6 719.5,-25 773.5,-25 773.5,-6 719.5,-6"/>
<text text-anchor="middle" x="746.5" y="-13" font-family="Helvetica,sans-Serif" font-size="10.00">random</text>
</a>
</g>
</g>
<!-- Node4&#45;&gt;Node7 -->
<g id="edge6" class="edge">
<title>Node4&#45;&gt;Node7</title>
<path fill="none" stroke="midnightblue" d="M465.15,-70.1C469.89,-69 474.84,-67.91 479.5,-67 581.47,-47.01 610.32,-58.59 710.5,-31 713,-30.31 715.56,-29.5 718.11,-28.62"/>
<polygon fill="midnightblue" stroke="midnightblue" points="719.6,-31.8 727.72,-25 717.13,-25.25 719.6,-31.8"/>
</g>
<!-- Node8 -->
<g id="node8" class="node">
<title>Node8</title>
<g id="a_node8"><a xlink:title=" ">
<polygon fill="white" stroke="#bfbfbf" points="791.5,-6 791.5,-25 847.5,-25 847.5,-6 791.5,-6"/>
<text text-anchor="middle" x="819.5" y="-13" font-family="Helvetica,sans-Serif" font-size="10.00">sstream</text>
</a>
</g>
</g>
<!-- Node4&#45;&gt;Node8 -->
<g id="edge7" class="edge">
<title>Node4&#45;&gt;Node8</title>
<path fill="none" stroke="midnightblue" d="M465.13,-69.96C469.87,-68.88 474.83,-67.83 479.5,-67 613.03,-43.33 650.96,-64.01 782.5,-31 785.17,-30.33 787.9,-29.52 790.62,-28.62"/>
<polygon fill="midnightblue" stroke="midnightblue" points="792.02,-31.84 800.22,-25.13 789.62,-25.26 792.02,-31.84"/>
</g>
<!-- Node4&#45;&gt;Node9 -->
<g id="edge8" class="edge">
<title>Node4&#45;&gt;Node9</title>
<path fill="none" stroke="midnightblue" d="M465.12,-69.88C469.85,-68.8 474.82,-67.77 479.5,-67 645.56,-39.54 690,-55.65 856.5,-31 869.61,-29.06 883.93,-26.31 896.33,-23.72"/>
<polygon fill="midnightblue" stroke="midnightblue" points="897.18,-27.12 906.23,-21.61 895.72,-20.27 897.18,-27.12"/>
</g>
<!-- Node4&#45;&gt;Node10 -->
<g id="edge9" class="edge">
<title>Node4&#45;&gt;Node10</title>
<path fill="none" stroke="midnightblue" d="M417.75,-74C370.45,-69.59 261.43,-57.26 173.5,-31 171.36,-30.36 169.17,-29.62 166.99,-28.81"/>
<polygon fill="midnightblue" stroke="midnightblue" points="168.25,-25.54 157.67,-25 165.6,-32.02 168.25,-25.54"/>
</g>
<!-- Node11 -->
<g id="node11" class="node">
<title>Node11</title>
<g id="a_node11"><a xlink:title=" ">
<polygon fill="white" stroke="#bfbfbf" points="182,-0.5 182,-30.5 323,-30.5 323,-0.5 182,-0.5"/>
<text text-anchor="start" x="190" y="-18.5" font-family="Helvetica,sans-Serif" font-size="10.00">boost/dll/runtime_symbol</text>
<text text-anchor="middle" x="252.5" y="-7.5" font-family="Helvetica,sans-Serif" font-size="10.00">_info.hpp</text>
</a>
</g>
</g>
<!-- Node4&#45;&gt;Node11 -->
<g id="edge10" class="edge">
<title>Node4&#45;&gt;Node11</title>
<path fill="none" stroke="midnightblue" d="M417.95,-68.58C390.33,-59.89 343.67,-45.2 306.93,-33.63"/>
<polygon fill="midnightblue" stroke="midnightblue" points="307.92,-30.28 297.34,-30.61 305.82,-36.96 307.92,-30.28"/>
</g>
<!-- Node12 -->
<g id="node12" class="node">
<title>Node12</title>
<g id="a_node12"><a xlink:title=" ">
<polygon fill="white" stroke="#bfbfbf" points="341.5,-6 341.5,-25 387.5,-25 387.5,-6 341.5,-6"/>
<text text-anchor="middle" x="364.5" y="-13" font-family="Helvetica,sans-Serif" font-size="10.00">pwd.h</text>
</a>
</g>
</g>
<!-- Node4&#45;&gt;Node12 -->
<g id="edge11" class="edge">
<title>Node4&#45;&gt;Node12</title>
<path fill="none" stroke="midnightblue" d="M430.47,-67.48C418.23,-58.02 398.27,-42.6 383.51,-31.19"/>
<polygon fill="midnightblue" stroke="midnightblue" points="385.56,-28.35 375.51,-25.01 381.28,-33.89 385.56,-28.35"/>
</g>
<!-- Node13 -->
<g id="node13" class="node">
<title>Node13</title>
<g id="a_node13"><a xlink:title=" ">
<polygon fill="white" stroke="#bfbfbf" points="405.5,-6 405.5,-25 477.5,-25 477.5,-6 405.5,-6"/>
<text text-anchor="middle" x="441.5" y="-13" font-family="Helvetica,sans-Serif" font-size="10.00">sys/types.h</text>
</a>
</g>
</g>
<!-- Node4&#45;&gt;Node13 -->
<g id="edge12" class="edge">
<title>Node4&#45;&gt;Node13</title>
<path fill="none" stroke="midnightblue" d="M441.5,-67.48C441.5,-59.08 441.5,-45.98 441.5,-35.16"/>
<polygon fill="midnightblue" stroke="midnightblue" points="445,-35.01 441.5,-25.01 438,-35.01 445,-35.01"/>
</g>
<!-- Node14 -->
<g id="node14" class="node">
<title>Node14</title>
<g id="a_node14"><a xlink:title=" ">
<polygon fill="white" stroke="#bfbfbf" points="495.5,-6 495.5,-25 551.5,-25 551.5,-6 495.5,-6"/>
<text text-anchor="middle" x="523.5" y="-13" font-family="Helvetica,sans-Serif" font-size="10.00">unistd.h</text>
</a>
</g>
</g>
<!-- Node4&#45;&gt;Node14 -->
<g id="edge13" class="edge">
<title>Node4&#45;&gt;Node14</title>
<path fill="none" stroke="midnightblue" d="M453.25,-67.48C466.28,-58.02 487.54,-42.6 503.26,-31.19"/>
<polygon fill="midnightblue" stroke="midnightblue" points="505.73,-33.71 511.77,-25.01 501.62,-28.05 505.73,-33.71"/>
</g>
<!-- Node16 -->
<g id="node16" class="node">
<title>Node16</title>
<g id="a_node16"><a xlink:title=" ">
<polygon fill="white" stroke="#bfbfbf" points="0,-6 0,-25 99,-25 99,-6 0,-6"/>
<text text-anchor="middle" x="49.5" y="-13" font-family="Helvetica,sans-Serif" font-size="10.00">yaml&#45;cpp/yaml.h</text>
</a>
</g>
</g>
<!-- Node15&#45;&gt;Node16 -->
<g id="edge15" class="edge">
<title>Node15&#45;&gt;Node16</title>
<path fill="none" stroke="midnightblue" d="M172.01,-67.48C147.69,-57.36 106.95,-40.4 79.18,-28.85"/>
<polygon fill="midnightblue" stroke="midnightblue" points="80.53,-25.62 69.95,-25.01 77.84,-32.08 80.53,-25.62"/>
</g>
<!-- Node18&#45;&gt;Node9 -->
<g id="edge20" class="edge">
<title>Node18&#45;&gt;Node9</title>
<path fill="none" stroke="midnightblue" d="M927.71,-123.18C935.04,-114.66 945.26,-101.02 949.5,-87 954.97,-68.93 947.12,-48.21 939.5,-33.93"/>
<polygon fill="midnightblue" stroke="midnightblue" points="942.48,-32.09 934.44,-25.19 936.42,-35.6 942.48,-32.09"/>
</g>
<!-- Node20 -->
<g id="node20" class="node">
<title>Node20</title>
<g id="a_node20"><a xlink:href="include_2log_8h.html" target="_top" xlink:title="Log Utilities.">
<polygon fill="white" stroke="black" points="740,-123.5 740,-142.5 781,-142.5 781,-123.5 740,-123.5"/>
<text text-anchor="middle" x="760.5" y="-130.5" font-family="Helvetica,sans-Serif" font-size="10.00">log.h</text>
</a>
</g>
</g>
<!-- Node19&#45;&gt;Node20 -->
<g id="edge22" class="edge">
<title>Node19&#45;&gt;Node20</title>
<path fill="none" stroke="midnightblue" d="M825.13,-179.32C813.34,-171.06 795.37,-158.45 781.36,-148.63"/>
<polygon fill="midnightblue" stroke="midnightblue" points="783.04,-145.53 772.84,-142.65 779.02,-151.26 783.04,-145.53"/>
</g>
<!-- Node20&#45;&gt;Node4 -->
<g id="edge29" class="edge">
<title>Node20&#45;&gt;Node4</title>
<path fill="none" stroke="midnightblue" d="M739.57,-128.46C685.49,-119.3 540.77,-94.8 474.93,-83.66"/>
<polygon fill="midnightblue" stroke="midnightblue" points="475.51,-80.21 465.07,-81.99 474.35,-87.11 475.51,-80.21"/>
</g>
<!-- Node20&#45;&gt;Node17 -->
<g id="edge32" class="edge">
<title>Node20&#45;&gt;Node17</title>
<path fill="none" stroke="midnightblue" d="M739.88,-126.72C704.48,-117.66 631.64,-99.02 587.03,-87.61"/>
<polygon fill="midnightblue" stroke="midnightblue" points="587.71,-84.17 577.15,-85.08 585.97,-90.95 587.71,-84.17"/>
</g>
<!-- Node21 -->
<g id="node21" class="node">
<title>Node21</title>
<g id="a_node21"><a xlink:href="meta_8h.html" target="_top" xlink:title="mmCEsim meta data">
<polygon fill="white" stroke="black" points="595,-67.5 595,-86.5 646,-86.5 646,-67.5 595,-67.5"/>
<text text-anchor="middle" x="620.5" y="-74.5" font-family="Helvetica,sans-Serif" font-size="10.00">meta.h</text>
</a>
</g>
</g>
<!-- Node20&#45;&gt;Node21 -->
<g id="edge23" class="edge">
<title>Node20&#45;&gt;Node21</title>
<path fill="none" stroke="midnightblue" d="M739.84,-124.03C716.67,-115.1 678.84,-100.5 651.98,-90.14"/>
<polygon fill="midnightblue" stroke="midnightblue" points="653.22,-86.87 642.63,-86.54 650.7,-93.4 653.22,-86.87"/>
</g>
<!-- Node22 -->
<g id="node22" class="node">
<title>Node22</title>
<g id="a_node22"><a xlink:href="term_8h.html" target="_top" xlink:title="Terminal Color and Style Control.">
<polygon fill="white" stroke="black" points="1035,-67.5 1035,-86.5 1084,-86.5 1084,-67.5 1035,-67.5"/>
<text text-anchor="middle" x="1059.5" y="-74.5" font-family="Helvetica,sans-Serif" font-size="10.00">term.h</text>
</a>
</g>
</g>
<!-- Node20&#45;&gt;Node22 -->
<g id="edge25" class="edge">
<title>Node20&#45;&gt;Node22</title>
<path fill="none" stroke="midnightblue" d="M781.05,-128.29C831.44,-119.19 961.58,-95.68 1024.46,-84.33"/>
<polygon fill="midnightblue" stroke="midnightblue" points="1025.45,-87.71 1034.67,-82.48 1024.21,-80.82 1025.45,-87.71"/>
</g>
<!-- Node25 -->
<g id="node25" class="node">
<title>Node25</title>
<g id="a_node25"><a xlink:title=" ">
<polygon fill="white" stroke="#bfbfbf" points="664.5,-67.5 664.5,-86.5 708.5,-86.5 708.5,-67.5 664.5,-67.5"/>
<text text-anchor="middle" x="686.5" y="-74.5" font-family="Helvetica,sans-Serif" font-size="10.00">ctime</text>
</a>
</g>
</g>
<!-- Node20&#45;&gt;Node25 -->
<g id="edge30" class="edge">
<title>Node20&#45;&gt;Node25</title>
<path fill="none" stroke="midnightblue" d="M748.61,-123.32C737.35,-115.11 720.21,-102.6 706.79,-92.81"/>
<polygon fill="midnightblue" stroke="midnightblue" points="708.75,-89.9 698.61,-86.83 704.62,-95.56 708.75,-89.9"/>
</g>
<!-- Node26 -->
<g id="node26" class="node">
<title>Node26</title>
<g id="a_node26"><a xlink:title=" ">
<polygon fill="white" stroke="#bfbfbf" points="726.5,-67.5 726.5,-86.5 794.5,-86.5 794.5,-67.5 726.5,-67.5"/>
<text text-anchor="middle" x="760.5" y="-74.5" font-family="Helvetica,sans-Serif" font-size="10.00">filesystem</text>
</a>
</g>
</g>
<!-- Node20&#45;&gt;Node26 -->
<g id="edge31" class="edge">
<title>Node20&#45;&gt;Node26</title>
<path fill="none" stroke="midnightblue" d="M760.5,-123.08C760.5,-116.01 760.5,-105.86 760.5,-96.99"/>
<polygon fill="midnightblue" stroke="midnightblue" points="764,-96.75 760.5,-86.75 757,-96.75 764,-96.75"/>
</g>
<!-- Node27 -->
<g id="node27" class="node">
<title>Node27</title>
<g id="a_node27"><a xlink:title=" ">
<polygon fill="white" stroke="#bfbfbf" points="812.5,-67.5 812.5,-86.5 868.5,-86.5 868.5,-67.5 812.5,-67.5"/>
<text text-anchor="middle" x="840.5" y="-74.5" font-family="Helvetica,sans-Serif" font-size="10.00">iomanip</text>
</a>
</g>
</g>
<!-- Node20&#45;&gt;Node27 -->
<g id="edge33" class="edge">
<title>Node20&#45;&gt;Node27</title>
<path fill="none" stroke="midnightblue" d="M773.35,-123.32C785.72,-114.98 804.63,-102.21 819.24,-92.35"/>
<polygon fill="midnightblue" stroke="midnightblue" points="821.35,-95.15 827.68,-86.65 817.43,-89.35 821.35,-95.15"/>
</g>
<!-- Node28 -->
<g id="node28" class="node">
<title>Node28</title>
<g id="a_node28"><a xlink:title=" ">
<polygon fill="white" stroke="#bfbfbf" points="887,-67.5 887,-86.5 940,-86.5 940,-67.5 887,-67.5"/>
<text text-anchor="middle" x="913.5" y="-74.5" font-family="Helvetica,sans-Serif" font-size="10.00">spy.hpp</text>
</a>
</g>
</g>
<!-- Node20&#45;&gt;Node28 -->
<g id="edge34" class="edge">
<title>Node20&#45;&gt;Node28</title>
<path fill="none" stroke="midnightblue" d="M781.13,-124.72C806.34,-115.82 849.35,-100.64 879.48,-90.01"/>
<polygon fill="midnightblue" stroke="midnightblue" points="880.9,-93.22 889.16,-86.59 878.57,-86.62 880.9,-93.22"/>
</g>
<!-- Node21&#45;&gt;Node9 -->
<g id="edge24" class="edge">
<title>Node21&#45;&gt;Node9</title>
<path fill="none" stroke="midnightblue" d="M646.06,-69.19C649.23,-68.42 652.43,-67.67 655.5,-67 744.18,-47.69 767.34,-47.96 856.5,-31 869.61,-28.51 884.04,-25.63 896.52,-23.09"/>
<polygon fill="midnightblue" stroke="midnightblue" points="897.37,-26.49 906.47,-21.07 895.97,-19.63 897.37,-26.49"/>
</g>
<!-- Node22&#45;&gt;Node9 -->
<g id="edge28" class="edge">
<title>Node22&#45;&gt;Node9</title>
<path fill="none" stroke="midnightblue" d="M1040.73,-67.48C1018.65,-57.45 981.78,-40.7 956.36,-29.15"/>
<polygon fill="midnightblue" stroke="midnightblue" points="957.79,-25.96 947.23,-25.01 954.89,-32.33 957.79,-25.96"/>
</g>
<!-- Node23 -->
<g id="node23" class="node">
<title>Node23</title>
<g id="a_node23"><a xlink:title=" ">
<polygon fill="white" stroke="#bfbfbf" points="1015,-6 1015,-25 1064,-25 1064,-6 1015,-6"/>
<text text-anchor="middle" x="1039.5" y="-13" font-family="Helvetica,sans-Serif" font-size="10.00">cstdlib</text>
</a>
</g>
</g>
<!-- Node22&#45;&gt;Node23 -->
<g id="edge26" class="edge">
<title>Node22&#45;&gt;Node23</title>
<path fill="none" stroke="midnightblue" d="M1056.63,-67.48C1053.78,-58.99 1049.32,-45.7 1045.66,-34.82"/>
<polygon fill="midnightblue" stroke="midnightblue" points="1048.86,-33.37 1042.36,-25.01 1042.23,-35.6 1048.86,-33.37"/>
</g>
<!-- Node22&#45;&gt;Node24 -->
<g id="edge27" class="edge">
<title>Node22&#45;&gt;Node24</title>
<path fill="none" stroke="midnightblue" d="M1067.09,-67.48C1075.2,-58.37 1088.23,-43.74 1098.26,-32.48"/>
<polygon fill="midnightblue" stroke="midnightblue" points="1100.88,-34.8 1104.92,-25.01 1095.66,-30.15 1100.88,-34.8"/>
</g>
</g>
</svg>
