<?xml version="1.0" encoding="UTF-8" standalone="no"?>
<!DOCTYPE svg PUBLIC "-//W3C//DTD SVG 1.1//EN"
 "http://www.w3.org/Graphics/SVG/1.1/DTD/svg11.dtd">
<!-- Generated by graphviz version 2.43.0 (0)
 -->
<!-- Title: include/simulate.h Pages: 1 -->
<svg width="1699pt" height="263pt"
 viewBox="0.00 0.00 1698.50 263.00" xmlns="http://www.w3.org/2000/svg" xmlns:xlink="http://www.w3.org/1999/xlink">
<g id="graph0" class="graph" transform="scale(1 1) rotate(0) translate(4 259)">
<title>include/simulate.h</title>
<polygon fill="white" stroke="transparent" points="-4,4 -4,-259 1694.5,-259 1694.5,4 -4,4"/>
<!-- Node1 -->
<g id="node1" class="node">
<title>Node1</title>
<g id="a_node1"><a xlink:title="Simulate Generated Code.">
<polygon fill="#bfbfbf" stroke="black" points="985.5,-235.5 985.5,-254.5 1092.5,-254.5 1092.5,-235.5 985.5,-235.5"/>
<text text-anchor="middle" x="1039" y="-242.5" font-family="Helvetica,sans-Serif" font-size="10.00">include/simulate.h</text>
</a>
</g>
</g>
<!-- Node2 -->
<g id="node2" class="node">
<title>Node2</title>
<g id="a_node2"><a xlink:href="__boost__config_8h.html" target="_top" xlink:title="Boost Configurations.">
<polygon fill="white" stroke="black" points="0,-6 0,-25 92,-25 92,-6 0,-6"/>
<text text-anchor="middle" x="46" y="-13" font-family="Helvetica,sans-Serif" font-size="10.00">_boost_config.h</text>
</a>
</g>
</g>
<!-- Node1&#45;&gt;Node2 -->
<g id="edge1" class="edge">
<title>Node1&#45;&gt;Node2</title>
<path fill="none" stroke="midnightblue" d="M985.24,-237.93C924.05,-230.59 821.29,-216.96 734,-199 482.44,-147.25 185.89,-59.24 83.19,-27.96"/>
<polygon fill="midnightblue" stroke="midnightblue" points="84.17,-24.6 73.59,-25.02 82.13,-31.29 84.17,-24.6"/>
</g>
<!-- Node3 -->
<g id="node3" class="node">
<title>Node3</title>
<g id="a_node3"><a xlink:href="config_8h.html" target="_top" xlink:title="Read and Write User Configuration.">
<polygon fill="white" stroke="black" points="687.5,-123.5 687.5,-142.5 742.5,-142.5 742.5,-123.5 687.5,-123.5"/>
<text text-anchor="middle" x="715" y="-130.5" font-family="Helvetica,sans-Serif" font-size="10.00">config.h</text>
</a>
</g>
</g>
<!-- Node1&#45;&gt;Node3 -->
<g id="edge2" class="edge">
<title>Node1&#45;&gt;Node3</title>
<path fill="none" stroke="midnightblue" d="M985.3,-236.62C943,-229.79 883.03,-217.79 833,-199 797.4,-185.63 759.42,-163.02 736.44,-148.3"/>
<polygon fill="midnightblue" stroke="midnightblue" points="738.14,-145.23 727.85,-142.72 734.32,-151.1 738.14,-145.23"/>
</g>
<!-- Node4 -->
<g id="node4" class="node">
<title>Node4</title>
<g id="a_node4"><a xlink:href="utils_8h.html" target="_top" xlink:title="Utilities.">
<polygon fill="white" stroke="black" points="574.5,-67.5 574.5,-86.5 621.5,-86.5 621.5,-67.5 574.5,-67.5"/>
<text text-anchor="middle" x="598" y="-74.5" font-family="Helvetica,sans-Serif" font-size="10.00">utils.h</text>
</a>
</g>
</g>
<!-- Node1&#45;&gt;Node4 -->
<g id="edge41" class="edge">
<title>Node1&#45;&gt;Node4</title>
<path fill="none" stroke="midnightblue" d="M985.01,-239.17C932.97,-233.41 852.54,-221.58 786,-199 734.8,-181.62 723.22,-172.65 678,-143 655.02,-127.93 630.82,-107.55 615.14,-93.66"/>
<polygon fill="midnightblue" stroke="midnightblue" points="617.14,-90.75 607.36,-86.68 612.47,-95.96 617.14,-90.75"/>
</g>
<!-- Node9 -->
<g id="node9" class="node">
<title>Node9</title>
<g id="a_node9"><a xlink:title=" ">
<polygon fill="white" stroke="#bfbfbf" points="976,-6 976,-25 1020,-25 1020,-6 976,-6"/>
<text text-anchor="middle" x="998" y="-13" font-family="Helvetica,sans-Serif" font-size="10.00">string</text>
</a>
</g>
</g>
<!-- Node1&#45;&gt;Node9 -->
<g id="edge44" class="edge">
<title>Node1&#45;&gt;Node9</title>
<path fill="none" stroke="midnightblue" d="M1066.13,-235.44C1136.06,-212.03 1312.73,-143.55 1250,-67 1222.59,-33.55 1092.18,-21.8 1030.49,-18.07"/>
<polygon fill="midnightblue" stroke="midnightblue" points="1030.34,-14.55 1020.16,-17.48 1029.94,-21.54 1030.34,-14.55"/>
</g>
<!-- Node18 -->
<g id="node18" class="node">
<title>Node18</title>
<g id="a_node18"><a xlink:href="shared__info_8h.html" target="_top" xlink:title="Shared Information Between &#39;Export&#39; and &#39;Simulate&#39;.">
<polygon fill="white" stroke="black" points="842.5,-179.5 842.5,-198.5 959.5,-198.5 959.5,-179.5 842.5,-179.5"/>
<text text-anchor="middle" x="901" y="-186.5" font-family="Helvetica,sans-Serif" font-size="10.00">export/shared_info.h</text>
</a>
</g>
</g>
<!-- Node1&#45;&gt;Node18 -->
<g id="edge20" class="edge">
<title>Node1&#45;&gt;Node18</title>
<path fill="none" stroke="midnightblue" d="M1017.13,-235.44C994.22,-226.48 958.02,-212.31 932.13,-202.18"/>
<polygon fill="midnightblue" stroke="midnightblue" points="933.35,-198.9 922.76,-198.52 930.8,-205.42 933.35,-198.9"/>
</g>
<!-- Node19 -->
<g id="node19" class="node">
<title>Node19</title>
<g id="a_node19"><a xlink:href="fmt_8h.html" target="_top" xlink:title="Extending {fmt}.">
<polygon fill="white" stroke="black" points="1446.5,-179.5 1446.5,-198.5 1489.5,-198.5 1489.5,-179.5 1446.5,-179.5"/>
<text text-anchor="middle" x="1468" y="-186.5" font-family="Helvetica,sans-Serif" font-size="10.00">fmt.h</text>
</a>
</g>
</g>
<!-- Node1&#45;&gt;Node19 -->
<g id="edge22" class="edge">
<title>Node1&#45;&gt;Node19</title>
<path fill="none" stroke="midnightblue" d="M1092.9,-237.22C1183.41,-225.82 1363.21,-203.19 1436.14,-194.01"/>
<polygon fill="midnightblue" stroke="midnightblue" points="1436.62,-197.48 1446.11,-192.76 1435.75,-190.53 1436.62,-197.48"/>
</g>
<!-- Node24 -->
<g id="node24" class="node">
<title>Node24</title>
<g id="a_node24"><a xlink:href="log__global_8h.html" target="_top" xlink:title="Global Access of Log.">
<polygon fill="white" stroke="black" points="1001,-179.5 1001,-198.5 1077,-198.5 1077,-179.5 1001,-179.5"/>
<text text-anchor="middle" x="1039" y="-186.5" font-family="Helvetica,sans-Serif" font-size="10.00">log_global.h</text>
</a>
</g>
</g>
<!-- Node1&#45;&gt;Node24 -->
<g id="edge27" class="edge">
<title>Node1&#45;&gt;Node24</title>
<path fill="none" stroke="midnightblue" d="M1039,-235.08C1039,-228.01 1039,-217.86 1039,-208.99"/>
<polygon fill="midnightblue" stroke="midnightblue" points="1042.5,-208.75 1039,-198.75 1035.5,-208.75 1042.5,-208.75"/>
</g>
<!-- Node29 -->
<g id="node29" class="node">
<title>Node29</title>
<g id="a_node29"><a xlink:title=" ">
<polygon fill="white" stroke="#bfbfbf" points="1345,-6 1345,-25 1405,-25 1405,-6 1345,-6"/>
<text text-anchor="middle" x="1375" y="-13" font-family="Helvetica,sans-Serif" font-size="10.00">iostream</text>
</a>
</g>
</g>
<!-- Node1&#45;&gt;Node29 -->
<g id="edge43" class="edge">
<title>Node1&#45;&gt;Node29</title>
<path fill="none" stroke="midnightblue" d="M1080.89,-235.46C1112.39,-228.14 1156.12,-216.07 1192,-199 1271.37,-161.24 1303.74,-158.41 1355,-87 1366,-71.68 1370.96,-50.47 1373.2,-35.32"/>
<polygon fill="midnightblue" stroke="midnightblue" points="1376.71,-35.47 1374.43,-25.12 1369.76,-34.63 1376.71,-35.47"/>
</g>
<!-- Node34 -->
<g id="node34" class="node">
<title>Node34</title>
<g id="a_node34"><a xlink:title=" ">
<polygon fill="white" stroke="#bfbfbf" points="1507.5,-179.5 1507.5,-198.5 1612.5,-198.5 1612.5,-179.5 1507.5,-179.5"/>
<text text-anchor="middle" x="1560" y="-186.5" font-family="Helvetica,sans-Serif" font-size="10.00">boost/process.hpp</text>
</a>
</g>
</g>
<!-- Node1&#45;&gt;Node34 -->
<g id="edge42" class="edge">
<title>Node1&#45;&gt;Node34</title>
<path fill="none" stroke="midnightblue" d="M1092.57,-239.62C1176.61,-232.55 1344.83,-217.65 1497.42,-199.14"/>
<polygon fill="midnightblue" stroke="midnightblue" points="1497.95,-202.61 1507.45,-197.92 1497.1,-195.66 1497.95,-202.61"/>
</g>
<!-- Node3&#45;&gt;Node4 -->
<g id="edge3" class="edge">
<title>Node3&#45;&gt;Node4</title>
<path fill="none" stroke="midnightblue" d="M696.46,-123.44C677.38,-114.64 647.43,-100.81 625.56,-90.72"/>
<polygon fill="midnightblue" stroke="midnightblue" points="627,-87.53 616.45,-86.52 624.07,-93.88 627,-87.53"/>
</g>
<!-- Node3&#45;&gt;Node9 -->
<g id="edge18" class="edge">
<title>Node3&#45;&gt;Node9</title>
<path fill="none" stroke="midnightblue" d="M721.04,-123.2C731.35,-108.93 753.79,-80.93 780,-67 854.36,-27.5 885.77,-56.55 966,-31 967.87,-30.4 969.78,-29.73 971.69,-29"/>
<polygon fill="midnightblue" stroke="midnightblue" points="973.15,-32.18 981.02,-25.08 970.44,-25.73 973.15,-32.18"/>
</g>
<!-- Node10 -->
<g id="node10" class="node">
<title>Node10</title>
<g id="a_node10"><a xlink:title=" ">
<polygon fill="white" stroke="#bfbfbf" points="793.5,-6 793.5,-25 840.5,-25 840.5,-6 793.5,-6"/>
<text text-anchor="middle" x="817" y="-13" font-family="Helvetica,sans-Serif" font-size="10.00">vector</text>
</a>
</g>
</g>
<!-- Node3&#45;&gt;Node10 -->
<g id="edge19" class="edge">
<title>Node3&#45;&gt;Node10</title>
<path fill="none" stroke="midnightblue" d="M701.04,-123.31C682.67,-110.77 654.35,-86.94 669,-67 700.71,-23.84 733.85,-49.8 784,-31 785.61,-30.4 787.26,-29.75 788.91,-29.09"/>
<polygon fill="midnightblue" stroke="midnightblue" points="790.44,-32.25 798.3,-25.14 787.73,-25.79 790.44,-32.25"/>
</g>
<!-- Node15 -->
<g id="node15" class="node">
<title>Node15</title>
<g id="a_node15"><a xlink:href="yaml_8h.html" target="_top" xlink:title="Wrapper for yaml&#45;cpp for static linking.">
<polygon fill="white" stroke="black" points="678,-67.5 678,-86.5 728,-86.5 728,-67.5 678,-67.5"/>
<text text-anchor="middle" x="703" y="-74.5" font-family="Helvetica,sans-Serif" font-size="10.00">yaml.h</text>
</a>
</g>
</g>
<!-- Node3&#45;&gt;Node15 -->
<g id="edge15" class="edge">
<title>Node3&#45;&gt;Node15</title>
<path fill="none" stroke="midnightblue" d="M713.02,-123.08C711.43,-115.93 709.14,-105.64 707.15,-96.69"/>
<polygon fill="midnightblue" stroke="midnightblue" points="710.53,-95.75 704.94,-86.75 703.7,-97.27 710.53,-95.75"/>
</g>
<!-- Node17 -->
<g id="node17" class="node">
<title>Node17</title>
<g id="a_node17"><a xlink:title=" ">
<polygon fill="white" stroke="#bfbfbf" points="822.5,-67.5 822.5,-86.5 877.5,-86.5 877.5,-67.5 822.5,-67.5"/>
<text text-anchor="middle" x="850" y="-74.5" font-family="Helvetica,sans-Serif" font-size="10.00">fstream</text>
</a>
</g>
</g>
<!-- Node3&#45;&gt;Node17 -->
<g id="edge17" class="edge">
<title>Node3&#45;&gt;Node17</title>
<path fill="none" stroke="midnightblue" d="M736.39,-123.44C758.71,-114.52 793.9,-100.44 819.21,-90.32"/>
<polygon fill="midnightblue" stroke="midnightblue" points="820.72,-93.48 828.71,-86.52 818.12,-86.98 820.72,-93.48"/>
</g>
<!-- Node4&#45;&gt;Node2 -->
<g id="edge10" class="edge">
<title>Node4&#45;&gt;Node2</title>
<path fill="none" stroke="midnightblue" d="M574.27,-75.26C502.45,-72.72 281.26,-62.69 101,-31 95.59,-30.05 89.93,-28.83 84.4,-27.5"/>
<polygon fill="midnightblue" stroke="midnightblue" points="85.18,-24.08 74.63,-25.02 83.46,-30.87 85.18,-24.08"/>
</g>
<!-- Node5 -->
<g id="node5" class="node">
<title>Node5</title>
<g id="a_node5"><a xlink:title=" ">
<polygon fill="white" stroke="#bfbfbf" points="644,-6 644,-25 708,-25 708,-6 644,-6"/>
<text text-anchor="middle" x="676" y="-13" font-family="Helvetica,sans-Serif" font-size="10.00">algorithm</text>
</a>
</g>
</g>
<!-- Node4&#45;&gt;Node5 -->
<g id="edge4" class="edge">
<title>Node4&#45;&gt;Node5</title>
<path fill="none" stroke="midnightblue" d="M609.18,-67.48C621.57,-58.02 641.79,-42.6 656.75,-31.19"/>
<polygon fill="midnightblue" stroke="midnightblue" points="659.02,-33.86 664.85,-25.01 654.77,-28.29 659.02,-33.86"/>
</g>
<!-- Node6 -->
<g id="node6" class="node">
<title>Node6</title>
<g id="a_node6"><a xlink:title=" ">
<polygon fill="white" stroke="#bfbfbf" points="726.5,-6 726.5,-25 775.5,-25 775.5,-6 726.5,-6"/>
<text text-anchor="middle" x="751" y="-13" font-family="Helvetica,sans-Serif" font-size="10.00">cctype</text>
</a>
</g>
</g>
<!-- Node4&#45;&gt;Node6 -->
<g id="edge5" class="edge">
<title>Node4&#45;&gt;Node6</title>
<path fill="none" stroke="midnightblue" d="M621.37,-67.49C645.45,-58.65 684.01,-44.27 717,-31 718.6,-30.36 720.23,-29.69 721.88,-29.01"/>
<polygon fill="midnightblue" stroke="midnightblue" points="723.41,-32.17 731.28,-25.07 720.71,-25.71 723.41,-32.17"/>
</g>
<!-- Node7 -->
<g id="node7" class="node">
<title>Node7</title>
<g id="a_node7"><a xlink:title=" ">
<polygon fill="white" stroke="#bfbfbf" points="110,-6 110,-25 164,-25 164,-6 110,-6"/>
<text text-anchor="middle" x="137" y="-13" font-family="Helvetica,sans-Serif" font-size="10.00">random</text>
</a>
</g>
</g>
<!-- Node4&#45;&gt;Node7 -->
<g id="edge6" class="edge">
<title>Node4&#45;&gt;Node7</title>
<path fill="none" stroke="midnightblue" d="M574.1,-75.77C508.82,-74.67 322.39,-68.22 173,-31 170.33,-30.34 167.6,-29.51 164.9,-28.6"/>
<polygon fill="midnightblue" stroke="midnightblue" points="165.95,-25.26 155.36,-25.03 163.5,-31.82 165.95,-25.26"/>
</g>
<!-- Node8 -->
<g id="node8" class="node">
<title>Node8</title>
<g id="a_node8"><a xlink:title=" ">
<polygon fill="white" stroke="#bfbfbf" points="182,-6 182,-25 238,-25 238,-6 182,-6"/>
<text text-anchor="middle" x="210" y="-13" font-family="Helvetica,sans-Serif" font-size="10.00">sstream</text>
</a>
</g>
</g>
<!-- Node4&#45;&gt;Node8 -->
<g id="edge7" class="edge">
<title>Node4&#45;&gt;Node8</title>
<path fill="none" stroke="midnightblue" d="M574.21,-74.97C517,-72.05 367.53,-61.84 247,-31 244.33,-30.32 241.6,-29.5 238.89,-28.6"/>
<polygon fill="midnightblue" stroke="midnightblue" points="239.88,-25.23 229.29,-25.09 237.48,-31.81 239.88,-25.23"/>
</g>
<!-- Node4&#45;&gt;Node9 -->
<g id="edge8" class="edge">
<title>Node4&#45;&gt;Node9</title>
<path fill="none" stroke="midnightblue" d="M621.66,-72.97C635.47,-71.21 653.22,-68.96 669,-67 800.96,-50.64 837.96,-66.86 966,-31 968.15,-30.4 970.33,-29.67 972.51,-28.87"/>
<polygon fill="midnightblue" stroke="midnightblue" points="973.87,-32.1 981.75,-25.02 971.18,-25.63 973.87,-32.1"/>
</g>
<!-- Node4&#45;&gt;Node10 -->
<g id="edge9" class="edge">
<title>Node4&#45;&gt;Node10</title>
<path fill="none" stroke="midnightblue" d="M621.85,-70.35C670.28,-58.85 776.25,-33.62 784,-31 785.87,-30.37 787.78,-29.67 789.68,-28.94"/>
<polygon fill="midnightblue" stroke="midnightblue" points="791.17,-32.12 799.07,-25.06 788.49,-25.65 791.17,-32.12"/>
</g>
<!-- Node11 -->
<g id="node11" class="node">
<title>Node11</title>
<g id="a_node11"><a xlink:title=" ">
<polygon fill="white" stroke="#bfbfbf" points="256.5,-0.5 256.5,-30.5 397.5,-30.5 397.5,-0.5 256.5,-0.5"/>
<text text-anchor="start" x="264.5" y="-18.5" font-family="Helvetica,sans-Serif" font-size="10.00">boost/dll/runtime_symbol</text>
<text text-anchor="middle" x="327" y="-7.5" font-family="Helvetica,sans-Serif" font-size="10.00">_info.hpp</text>
</a>
</g>
</g>
<!-- Node4&#45;&gt;Node11 -->
<g id="edge11" class="edge">
<title>Node4&#45;&gt;Node11</title>
<path fill="none" stroke="midnightblue" d="M574.42,-70.82C536.14,-62.42 458.89,-45.46 400.84,-32.71"/>
<polygon fill="midnightblue" stroke="midnightblue" points="401.48,-29.27 390.97,-30.54 399.98,-36.11 401.48,-29.27"/>
</g>
<!-- Node12 -->
<g id="node12" class="node">
<title>Node12</title>
<g id="a_node12"><a xlink:title=" ">
<polygon fill="white" stroke="#bfbfbf" points="416,-6 416,-25 462,-25 462,-6 416,-6"/>
<text text-anchor="middle" x="439" y="-13" font-family="Helvetica,sans-Serif" font-size="10.00">pwd.h</text>
</a>
</g>
</g>
<!-- Node4&#45;&gt;Node12 -->
<g id="edge12" class="edge">
<title>Node4&#45;&gt;Node12</title>
<path fill="none" stroke="midnightblue" d="M574.37,-68.3C548.7,-59.77 506.58,-45.34 471,-31 469.59,-30.43 468.14,-29.83 466.69,-29.22"/>
<polygon fill="midnightblue" stroke="midnightblue" points="467.72,-25.85 457.16,-25.05 464.92,-32.27 467.72,-25.85"/>
</g>
<!-- Node13 -->
<g id="node13" class="node">
<title>Node13</title>
<g id="a_node13"><a xlink:title=" ">
<polygon fill="white" stroke="#bfbfbf" points="480,-6 480,-25 552,-25 552,-6 480,-6"/>
<text text-anchor="middle" x="516" y="-13" font-family="Helvetica,sans-Serif" font-size="10.00">sys/types.h</text>
</a>
</g>
</g>
<!-- Node4&#45;&gt;Node13 -->
<g id="edge13" class="edge">
<title>Node4&#45;&gt;Node13</title>
<path fill="none" stroke="midnightblue" d="M586.25,-67.48C573.22,-58.02 551.96,-42.6 536.24,-31.19"/>
<polygon fill="midnightblue" stroke="midnightblue" points="537.88,-28.05 527.73,-25.01 533.77,-33.71 537.88,-28.05"/>
</g>
<!-- Node14 -->
<g id="node14" class="node">
<title>Node14</title>
<g id="a_node14"><a xlink:title=" ">
<polygon fill="white" stroke="#bfbfbf" points="570,-6 570,-25 626,-25 626,-6 570,-6"/>
<text text-anchor="middle" x="598" y="-13" font-family="Helvetica,sans-Serif" font-size="10.00">unistd.h</text>
</a>
</g>
</g>
<!-- Node4&#45;&gt;Node14 -->
<g id="edge14" class="edge">
<title>Node4&#45;&gt;Node14</title>
<path fill="none" stroke="midnightblue" d="M598,-67.48C598,-59.08 598,-45.98 598,-35.16"/>
<polygon fill="midnightblue" stroke="midnightblue" points="601.5,-35.01 598,-25.01 594.5,-35.01 601.5,-35.01"/>
</g>
<!-- Node16 -->
<g id="node16" class="node">
<title>Node16</title>
<g id="a_node16"><a xlink:title=" ">
<polygon fill="white" stroke="#bfbfbf" points="858.5,-6 858.5,-25 957.5,-25 957.5,-6 858.5,-6"/>
<text text-anchor="middle" x="908" y="-13" font-family="Helvetica,sans-Serif" font-size="10.00">yaml&#45;cpp/yaml.h</text>
</a>
</g>
</g>
<!-- Node15&#45;&gt;Node16 -->
<g id="edge16" class="edge">
<title>Node15&#45;&gt;Node16</title>
<path fill="none" stroke="midnightblue" d="M728.14,-68.7C763.3,-58.5 827.5,-39.86 868.93,-27.84"/>
<polygon fill="midnightblue" stroke="midnightblue" points="870.05,-31.16 878.68,-25.01 868.1,-24.44 870.05,-31.16"/>
</g>
<!-- Node18&#45;&gt;Node9 -->
<g id="edge21" class="edge">
<title>Node18&#45;&gt;Node9</title>
<path fill="none" stroke="midnightblue" d="M886.07,-179.31C853.32,-159.18 780.58,-107.93 813,-67 856.37,-12.24 899.87,-53.52 966,-31 967.67,-30.43 969.37,-29.81 971.07,-29.15"/>
<polygon fill="midnightblue" stroke="midnightblue" points="972.79,-32.22 980.64,-25.1 970.07,-25.77 972.79,-32.22"/>
</g>
<!-- Node20 -->
<g id="node20" class="node">
<title>Node20</title>
<g id="a_node20"><a xlink:title=" ">
<polygon fill="white" stroke="#bfbfbf" points="1655.5,-123.5 1655.5,-142.5 1690.5,-142.5 1690.5,-123.5 1655.5,-123.5"/>
<text text-anchor="middle" x="1673" y="-130.5" font-family="Helvetica,sans-Serif" font-size="10.00">any</text>
</a>
</g>
</g>
<!-- Node19&#45;&gt;Node20 -->
<g id="edge23" class="edge">
<title>Node19&#45;&gt;Node20</title>
<path fill="none" stroke="midnightblue" d="M1489.65,-181.58C1492.78,-180.69 1495.97,-179.81 1499,-179 1561.34,-162.38 1580.29,-162.08 1645.49,-143.25"/>
<polygon fill="midnightblue" stroke="midnightblue" points="1646.84,-146.5 1655.45,-140.33 1644.87,-139.78 1646.84,-146.5"/>
</g>
<!-- Node21 -->
<g id="node21" class="node">
<title>Node21</title>
<g id="a_node21"><a xlink:title=" ">
<polygon fill="white" stroke="#bfbfbf" points="1403,-123.5 1403,-142.5 1455,-142.5 1455,-123.5 1403,-123.5"/>
<text text-anchor="middle" x="1429" y="-130.5" font-family="Helvetica,sans-Serif" font-size="10.00">cassert</text>
</a>
</g>
</g>
<!-- Node19&#45;&gt;Node21 -->
<g id="edge24" class="edge">
<title>Node19&#45;&gt;Node21</title>
<path fill="none" stroke="midnightblue" d="M1461.56,-179.08C1456.05,-171.46 1447.97,-160.26 1441.24,-150.94"/>
<polygon fill="midnightblue" stroke="midnightblue" points="1444.01,-148.81 1435.32,-142.75 1438.34,-152.91 1444.01,-148.81"/>
</g>
<!-- Node22 -->
<g id="node22" class="node">
<title>Node22</title>
<g id="a_node22"><a xlink:title=" ">
<polygon fill="white" stroke="#bfbfbf" points="1473.5,-123.5 1473.5,-142.5 1540.5,-142.5 1540.5,-123.5 1473.5,-123.5"/>
<text text-anchor="middle" x="1507" y="-130.5" font-family="Helvetica,sans-Serif" font-size="10.00">fmt/core.h</text>
</a>
</g>
</g>
<!-- Node19&#45;&gt;Node22 -->
<g id="edge25" class="edge">
<title>Node19&#45;&gt;Node22</title>
<path fill="none" stroke="midnightblue" d="M1474.44,-179.08C1479.95,-171.46 1488.03,-160.26 1494.76,-150.94"/>
<polygon fill="midnightblue" stroke="midnightblue" points="1497.66,-152.91 1500.68,-142.75 1491.99,-148.81 1497.66,-152.91"/>
</g>
<!-- Node23 -->
<g id="node23" class="node">
<title>Node23</title>
<g id="a_node23"><a xlink:title=" ">
<polygon fill="white" stroke="#bfbfbf" points="1558.5,-123.5 1558.5,-142.5 1637.5,-142.5 1637.5,-123.5 1558.5,-123.5"/>
<text text-anchor="middle" x="1598" y="-130.5" font-family="Helvetica,sans-Serif" font-size="10.00">fmt/format.h</text>
</a>
</g>
</g>
<!-- Node19&#45;&gt;Node23 -->
<g id="edge26" class="edge">
<title>Node19&#45;&gt;Node23</title>
<path fill="none" stroke="midnightblue" d="M1488.6,-179.44C1509.99,-170.56 1543.68,-156.56 1568.02,-146.45"/>
<polygon fill="midnightblue" stroke="midnightblue" points="1569.61,-149.58 1577.5,-142.52 1566.92,-143.12 1569.61,-149.58"/>
</g>
<!-- Node25 -->
<g id="node25" class="node">
<title>Node25</title>
<g id="a_node25"><a xlink:href="include_2log_8h.html" target="_top" xlink:title="Log Utilities.">
<polygon fill="white" stroke="black" points="1018.5,-123.5 1018.5,-142.5 1059.5,-142.5 1059.5,-123.5 1018.5,-123.5"/>
<text text-anchor="middle" x="1039" y="-130.5" font-family="Helvetica,sans-Serif" font-size="10.00">log.h</text>
</a>
</g>
</g>
<!-- Node24&#45;&gt;Node25 -->
<g id="edge28" class="edge">
<title>Node24&#45;&gt;Node25</title>
<path fill="none" stroke="midnightblue" d="M1039,-179.08C1039,-172.01 1039,-161.86 1039,-152.99"/>
<polygon fill="midnightblue" stroke="midnightblue" points="1042.5,-152.75 1039,-142.75 1035.5,-152.75 1042.5,-152.75"/>
</g>
<!-- Node25&#45;&gt;Node4 -->
<g id="edge35" class="edge">
<title>Node25&#45;&gt;Node4</title>
<path fill="none" stroke="midnightblue" d="M1018.13,-129.5C961.8,-122.74 801.93,-103.51 669,-87 656.79,-85.48 643.41,-83.79 631.58,-82.29"/>
<polygon fill="midnightblue" stroke="midnightblue" points="632.02,-78.82 621.66,-81.03 631.14,-85.76 632.02,-78.82"/>
</g>
<!-- Node25&#45;&gt;Node17 -->
<g id="edge38" class="edge">
<title>Node25&#45;&gt;Node17</title>
<path fill="none" stroke="midnightblue" d="M1018.41,-126.12C986.99,-117.14 926.59,-99.88 887.31,-88.66"/>
<polygon fill="midnightblue" stroke="midnightblue" points="888.15,-85.26 877.57,-85.88 886.22,-91.99 888.15,-85.26"/>
</g>
<!-- Node26 -->
<g id="node26" class="node">
<title>Node26</title>
<g id="a_node26"><a xlink:href="meta_8h.html" target="_top" xlink:title="mmCEsim meta data">
<polygon fill="white" stroke="black" points="895.5,-67.5 895.5,-86.5 946.5,-86.5 946.5,-67.5 895.5,-67.5"/>
<text text-anchor="middle" x="921" y="-74.5" font-family="Helvetica,sans-Serif" font-size="10.00">meta.h</text>
</a>
</g>
</g>
<!-- Node25&#45;&gt;Node26 -->
<g id="edge29" class="edge">
<title>Node25&#45;&gt;Node26</title>
<path fill="none" stroke="midnightblue" d="M1020.3,-123.44C1001.06,-114.64 970.85,-100.81 948.8,-90.72"/>
<polygon fill="midnightblue" stroke="midnightblue" points="950.16,-87.5 939.61,-86.52 947.25,-93.86 950.16,-87.5"/>
</g>
<!-- Node27 -->
<g id="node27" class="node">
<title>Node27</title>
<g id="a_node27"><a xlink:href="term_8h.html" target="_top" xlink:title="Terminal Color and Style Control.">
<polygon fill="white" stroke="black" points="1297.5,-67.5 1297.5,-86.5 1346.5,-86.5 1346.5,-67.5 1297.5,-67.5"/>
<text text-anchor="middle" x="1322" y="-74.5" font-family="Helvetica,sans-Serif" font-size="10.00">term.h</text>
</a>
</g>
</g>
<!-- Node25&#45;&gt;Node27 -->
<g id="edge31" class="edge">
<title>Node25&#45;&gt;Node27</title>
<path fill="none" stroke="midnightblue" d="M1059.81,-128.03C1107.98,-118.84 1227.56,-96.02 1287.13,-84.65"/>
<polygon fill="midnightblue" stroke="midnightblue" points="1288.01,-88.05 1297.18,-82.74 1286.7,-81.17 1288.01,-88.05"/>
</g>
<!-- Node30 -->
<g id="node30" class="node">
<title>Node30</title>
<g id="a_node30"><a xlink:title=" ">
<polygon fill="white" stroke="#bfbfbf" points="1197,-67.5 1197,-86.5 1241,-86.5 1241,-67.5 1197,-67.5"/>
<text text-anchor="middle" x="1219" y="-74.5" font-family="Helvetica,sans-Serif" font-size="10.00">ctime</text>
</a>
</g>
</g>
<!-- Node25&#45;&gt;Node30 -->
<g id="edge36" class="edge">
<title>Node25&#45;&gt;Node30</title>
<path fill="none" stroke="midnightblue" d="M1059.65,-125.81C1090.88,-116.44 1150.38,-98.59 1187.18,-87.55"/>
<polygon fill="midnightblue" stroke="midnightblue" points="1188.34,-90.85 1196.91,-84.63 1186.33,-84.15 1188.34,-90.85"/>
</g>
<!-- Node31 -->
<g id="node31" class="node">
<title>Node31</title>
<g id="a_node31"><a xlink:title=" ">
<polygon fill="white" stroke="#bfbfbf" points="965,-67.5 965,-86.5 1033,-86.5 1033,-67.5 965,-67.5"/>
<text text-anchor="middle" x="999" y="-74.5" font-family="Helvetica,sans-Serif" font-size="10.00">filesystem</text>
</a>
</g>
</g>
<!-- Node25&#45;&gt;Node31 -->
<g id="edge37" class="edge">
<title>Node25&#45;&gt;Node31</title>
<path fill="none" stroke="midnightblue" d="M1032.39,-123.08C1026.74,-115.46 1018.46,-104.26 1011.55,-94.94"/>
<polygon fill="midnightblue" stroke="midnightblue" points="1014.25,-92.7 1005.48,-86.75 1008.62,-96.87 1014.25,-92.7"/>
</g>
<!-- Node32 -->
<g id="node32" class="node">
<title>Node32</title>
<g id="a_node32"><a xlink:title=" ">
<polygon fill="white" stroke="#bfbfbf" points="1051,-67.5 1051,-86.5 1107,-86.5 1107,-67.5 1051,-67.5"/>
<text text-anchor="middle" x="1079" y="-74.5" font-family="Helvetica,sans-Serif" font-size="10.00">iomanip</text>
</a>
</g>
</g>
<!-- Node25&#45;&gt;Node32 -->
<g id="edge39" class="edge">
<title>Node25&#45;&gt;Node32</title>
<path fill="none" stroke="midnightblue" d="M1045.61,-123.08C1051.26,-115.46 1059.54,-104.26 1066.45,-94.94"/>
<polygon fill="midnightblue" stroke="midnightblue" points="1069.38,-96.87 1072.52,-86.75 1063.75,-92.7 1069.38,-96.87"/>
</g>
<!-- Node33 -->
<g id="node33" class="node">
<title>Node33</title>
<g id="a_node33"><a xlink:title=" ">
<polygon fill="white" stroke="#bfbfbf" points="1125.5,-67.5 1125.5,-86.5 1178.5,-86.5 1178.5,-67.5 1125.5,-67.5"/>
<text text-anchor="middle" x="1152" y="-74.5" font-family="Helvetica,sans-Serif" font-size="10.00">spy.hpp</text>
</a>
</g>
</g>
<!-- Node25&#45;&gt;Node33 -->
<g id="edge40" class="edge">
<title>Node25&#45;&gt;Node33</title>
<path fill="none" stroke="midnightblue" d="M1056.91,-123.44C1075.25,-114.68 1104.01,-100.94 1125.09,-90.86"/>
<polygon fill="midnightblue" stroke="midnightblue" points="1126.67,-93.99 1134.18,-86.52 1123.65,-87.67 1126.67,-93.99"/>
</g>
<!-- Node26&#45;&gt;Node9 -->
<g id="edge30" class="edge">
<title>Node26&#45;&gt;Node9</title>
<path fill="none" stroke="midnightblue" d="M932.03,-67.48C944.27,-58.02 964.23,-42.6 978.99,-31.19"/>
<polygon fill="midnightblue" stroke="midnightblue" points="981.22,-33.89 986.99,-25.01 976.94,-28.35 981.22,-33.89"/>
</g>
<!-- Node27&#45;&gt;Node9 -->
<g id="edge34" class="edge">
<title>Node27&#45;&gt;Node9</title>
<path fill="none" stroke="midnightblue" d="M1297.28,-70.09C1292.55,-69.02 1287.63,-67.94 1283,-67 1191.79,-48.41 1083.36,-30.28 1030.38,-21.68"/>
<polygon fill="midnightblue" stroke="midnightblue" points="1030.68,-18.18 1020.25,-20.04 1029.56,-25.09 1030.68,-18.18"/>
</g>
<!-- Node28 -->
<g id="node28" class="node">
<title>Node28</title>
<g id="a_node28"><a xlink:title=" ">
<polygon fill="white" stroke="#bfbfbf" points="1277.5,-6 1277.5,-25 1326.5,-25 1326.5,-6 1277.5,-6"/>
<text text-anchor="middle" x="1302" y="-13" font-family="Helvetica,sans-Serif" font-size="10.00">cstdlib</text>
</a>
</g>
</g>
<!-- Node27&#45;&gt;Node28 -->
<g id="edge32" class="edge">
<title>Node27&#45;&gt;Node28</title>
<path fill="none" stroke="midnightblue" d="M1319.13,-67.48C1316.28,-58.99 1311.82,-45.7 1308.16,-34.82"/>
<polygon fill="midnightblue" stroke="midnightblue" points="1311.36,-33.37 1304.86,-25.01 1304.73,-35.6 1311.36,-33.37"/>
</g>
<!-- Node27&#45;&gt;Node29 -->
<g id="edge33" class="edge">
<title>Node27&#45;&gt;Node29</title>
<path fill="none" stroke="midnightblue" d="M1329.59,-67.48C1337.7,-58.37 1350.73,-43.74 1360.76,-32.48"/>
<polygon fill="midnightblue" stroke="midnightblue" points="1363.38,-34.8 1367.42,-25.01 1358.16,-30.15 1363.38,-34.8"/>
</g>
</g>
</svg>
