<?xml version="1.0" encoding="UTF-8" standalone="no"?>
<!DOCTYPE svg PUBLIC "-//W3C//DTD SVG 1.1//EN"
 "http://www.w3.org/Graphics/SVG/1.1/DTD/svg11.dtd">
<!-- Generated by graphviz version 2.43.0 (0)
 -->
<!-- Title: Macro::replaceMacro Pages: 1 -->
<svg width="411pt" height="246pt"
 viewBox="0.00 0.00 411.00 246.00" xmlns="http://www.w3.org/2000/svg" xmlns:xlink="http://www.w3.org/1999/xlink">
<g id="graph0" class="graph" transform="scale(1 1) rotate(0) translate(4 242)">
<title>Macro::replaceMacro</title>
<polygon fill="white" stroke="transparent" points="-4,4 -4,-242 407,-242 407,4 -4,4"/>
<!-- Node1 -->
<g id="node1" class="node">
<title>Node1</title>
<g id="a_node1"><a xlink:title=" ">
<polygon fill="#bfbfbf" stroke="black" points="0,-114.5 0,-133.5 119,-133.5 119,-114.5 0,-114.5"/>
<text text-anchor="middle" x="59.5" y="-121.5" font-family="Helvetica,sans-Serif" font-size="10.00">Macro::replaceMacro</text>
</a>
</g>
</g>
<!-- Node2 -->
<g id="node2" class="node">
<title>Node2</title>
<g id="a_node2"><a xlink:href="struct_x_y___size.html#a5e681ada57de15aeca79e2d09f3162f1" target="_top" xlink:title=" ">
<polygon fill="white" stroke="black" points="176,-190.5 176,-209.5 242,-209.5 242,-190.5 176,-190.5"/>
<text text-anchor="middle" x="209" y="-197.5" font-family="Helvetica,sans-Serif" font-size="10.00">XY_Size::_</text>
</a>
</g>
</g>
<!-- Node1&#45;&gt;Node2 -->
<g id="edge1" class="edge">
<title>Node1&#45;&gt;Node2</title>
<path fill="none" stroke="midnightblue" d="M77.02,-133.6C95.72,-144.35 127.2,-162.08 155,-176 161.89,-179.45 169.39,-182.98 176.51,-186.23"/>
<polygon fill="midnightblue" stroke="midnightblue" points="175.35,-189.54 185.9,-190.45 178.22,-183.16 175.35,-189.54"/>
</g>
<!-- Node3 -->
<g id="node3" class="node">
<title>Node3</title>
<g id="a_node3"><a xlink:href="struct_x_y___size.html#a0c52dcb9cfa4d7ccbe373c482ebf2337" target="_top" xlink:title=" ">
<polygon fill="white" stroke="black" points="318.5,-218.5 318.5,-237.5 383.5,-237.5 383.5,-218.5 318.5,-218.5"/>
<text text-anchor="middle" x="351" y="-225.5" font-family="Helvetica,sans-Serif" font-size="10.00">XY_Size::r</text>
</a>
</g>
</g>
<!-- Node1&#45;&gt;Node3 -->
<g id="edge6" class="edge">
<title>Node1&#45;&gt;Node3</title>
<path fill="none" stroke="midnightblue" d="M66.37,-133.55C79.39,-153.72 112.89,-200.34 155,-219 204.17,-240.79 267.31,-239.02 308.2,-234.53"/>
<polygon fill="midnightblue" stroke="midnightblue" points="308.84,-237.98 318.36,-233.31 308.01,-231.03 308.84,-237.98"/>
</g>
<!-- Node4 -->
<g id="node4" class="node">
<title>Node4</title>
<g id="a_node4"><a xlink:href="struct_x_y___size.html#acc0b4290938fb650a451fdd851d900a6" target="_top" xlink:title=" ">
<polygon fill="white" stroke="black" points="318.5,-171.5 318.5,-190.5 383.5,-190.5 383.5,-171.5 318.5,-171.5"/>
<text text-anchor="middle" x="351" y="-178.5" font-family="Helvetica,sans-Serif" font-size="10.00">XY_Size::t</text>
</a>
</g>
</g>
<!-- Node1&#45;&gt;Node4 -->
<g id="edge10" class="edge">
<title>Node1&#45;&gt;Node4</title>
<path fill="none" stroke="midnightblue" d="M107.6,-133.53C122.73,-136.57 139.57,-139.95 155,-143 207.8,-153.45 268.69,-165.28 308.18,-172.93"/>
<polygon fill="midnightblue" stroke="midnightblue" points="307.76,-176.41 318.24,-174.87 309.09,-169.54 307.76,-176.41"/>
</g>
<!-- Node5 -->
<g id="node5" class="node">
<title>Node5</title>
<g id="a_node5"><a xlink:href="struct_macro.html#a2b2226fb501a9da22d7fb047ea769c5d" target="_top" xlink:title=" ">
<polygon fill="white" stroke="black" points="155,-114.5 155,-133.5 263,-133.5 263,-114.5 155,-114.5"/>
<text text-anchor="middle" x="209" y="-121.5" font-family="Helvetica,sans-Serif" font-size="10.00">Macro::constantStr</text>
</a>
</g>
</g>
<!-- Node1&#45;&gt;Node5 -->
<g id="edge4" class="edge">
<title>Node1&#45;&gt;Node5</title>
<path fill="none" stroke="midnightblue" d="M119.22,-124C127.56,-124 136.17,-124 144.59,-124"/>
<polygon fill="midnightblue" stroke="midnightblue" points="144.74,-127.5 154.74,-124 144.74,-120.5 144.74,-127.5"/>
</g>
<!-- Node6 -->
<g id="node6" class="node">
<title>Node6</title>
<g id="a_node6"><a xlink:href="class_log.html#a48b8faa1f9d2590c6fb650f1004e73c9" target="_top" xlink:title="Flush the buff into the log file.">
<polygon fill="white" stroke="black" points="177.5,-76.5 177.5,-95.5 240.5,-95.5 240.5,-76.5 177.5,-76.5"/>
<text text-anchor="middle" x="209" y="-83.5" font-family="Helvetica,sans-Serif" font-size="10.00">Log::flush</text>
</a>
</g>
</g>
<!-- Node1&#45;&gt;Node6 -->
<g id="edge5" class="edge">
<title>Node1&#45;&gt;Node6</title>
<path fill="none" stroke="midnightblue" d="M97.72,-114.41C118.94,-108.94 145.55,-102.09 167.32,-96.48"/>
<polygon fill="midnightblue" stroke="midnightblue" points="168.45,-99.8 177.26,-93.92 166.7,-93.03 168.45,-99.8"/>
</g>
<!-- Node7 -->
<g id="node7" class="node">
<title>Node7</title>
<g id="a_node7"><a xlink:href="struct_macro.html#a94360db4bd4a0a2516339dadc6c37bbd" target="_top" xlink:title="RegEx replace.">
<polygon fill="white" stroke="black" points="164.5,-38.5 164.5,-57.5 253.5,-57.5 253.5,-38.5 164.5,-38.5"/>
<text text-anchor="middle" x="209" y="-45.5" font-family="Helvetica,sans-Serif" font-size="10.00">Macro::replace</text>
</a>
</g>
</g>
<!-- Node1&#45;&gt;Node7 -->
<g id="edge7" class="edge">
<title>Node1&#45;&gt;Node7</title>
<path fill="none" stroke="midnightblue" d="M74.42,-114.4C92.43,-102.25 125.06,-81.22 155,-67 159.35,-64.93 163.99,-62.96 168.65,-61.12"/>
<polygon fill="midnightblue" stroke="midnightblue" points="170.02,-64.34 178.14,-57.53 167.55,-57.79 170.02,-64.34"/>
</g>
<!-- Node10 -->
<g id="node10" class="node">
<title>Node10</title>
<g id="a_node10"><a xlink:href="namespacemmce.html#ad4a160832ef9fad47c531ece39752208" target="_top" xlink:title="Change a number to string.">
<polygon fill="white" stroke="black" points="161,-0.5 161,-19.5 257,-19.5 257,-0.5 161,-0.5"/>
<text text-anchor="middle" x="209" y="-7.5" font-family="Helvetica,sans-Serif" font-size="10.00">mmce::to_string</text>
</a>
</g>
</g>
<!-- Node1&#45;&gt;Node10 -->
<g id="edge11" class="edge">
<title>Node1&#45;&gt;Node10</title>
<path fill="none" stroke="midnightblue" d="M67.74,-114.24C82.28,-95.28 116.91,-53.21 155,-29 158.11,-27.02 161.46,-25.22 164.9,-23.57"/>
<polygon fill="midnightblue" stroke="midnightblue" points="166.34,-26.76 174.15,-19.59 163.58,-20.33 166.34,-26.76"/>
</g>
<!-- Node2&#45;&gt;Node3 -->
<g id="edge2" class="edge">
<title>Node2&#45;&gt;Node3</title>
<path fill="none" stroke="midnightblue" d="M242.12,-206.42C261.68,-210.34 286.9,-215.38 308.03,-219.61"/>
<polygon fill="midnightblue" stroke="midnightblue" points="307.54,-223.08 318.03,-221.61 308.91,-216.21 307.54,-223.08"/>
</g>
<!-- Node2&#45;&gt;Node4 -->
<g id="edge3" class="edge">
<title>Node2&#45;&gt;Node4</title>
<path fill="none" stroke="midnightblue" d="M242.12,-195.64C261.68,-192.99 286.9,-189.56 308.03,-186.7"/>
<polygon fill="midnightblue" stroke="midnightblue" points="308.59,-190.15 318.03,-185.34 307.65,-183.22 308.59,-190.15"/>
</g>
<!-- Node8 -->
<g id="node8" class="node">
<title>Node8</title>
<g id="a_node8"><a xlink:href="class_log.html#add7e611cd3267d3fd5dae017e3aeef67" target="_top" xlink:title="Write infomation to the log file.">
<polygon fill="white" stroke="black" points="321.5,-57.5 321.5,-76.5 380.5,-76.5 380.5,-57.5 321.5,-57.5"/>
<text text-anchor="middle" x="351" y="-64.5" font-family="Helvetica,sans-Serif" font-size="10.00">Log::info</text>
</a>
</g>
</g>
<!-- Node7&#45;&gt;Node8 -->
<g id="edge8" class="edge">
<title>Node7&#45;&gt;Node8</title>
<path fill="none" stroke="midnightblue" d="M253.53,-53.91C271.91,-56.4 293.16,-59.29 311.02,-61.71"/>
<polygon fill="midnightblue" stroke="midnightblue" points="310.72,-65.2 321.1,-63.08 311.66,-58.26 310.72,-65.2"/>
</g>
<!-- Node9 -->
<g id="node9" class="node">
<title>Node9</title>
<g id="a_node9"><a xlink:href="struct_macro.html#a0a64263ca28e6e30160145a33ed5d77f" target="_top" xlink:title="Get the name of Type.">
<polygon fill="white" stroke="black" points="299,-19.5 299,-38.5 403,-38.5 403,-19.5 299,-19.5"/>
<text text-anchor="middle" x="351" y="-26.5" font-family="Helvetica,sans-Serif" font-size="10.00">Macro::typeName</text>
</a>
</g>
</g>
<!-- Node7&#45;&gt;Node9 -->
<g id="edge9" class="edge">
<title>Node7&#45;&gt;Node9</title>
<path fill="none" stroke="midnightblue" d="M253.53,-42.09C264.58,-40.59 276.66,-38.95 288.42,-37.36"/>
<polygon fill="midnightblue" stroke="midnightblue" points="289.2,-40.78 298.64,-35.97 288.26,-33.85 289.2,-40.78"/>
</g>
</g>
</svg>
