<?xml version="1.0" encoding="UTF-8" standalone="no"?>
<!DOCTYPE svg PUBLIC "-//W3C//DTD SVG 1.1//EN"
 "http://www.w3.org/Graphics/SVG/1.1/DTD/svg11.dtd">
<!-- Generated by graphviz version 2.43.0 (0)
 -->
<!-- Title: XY_Size::r Pages: 1 -->
<svg width="557pt" height="85pt"
 viewBox="0.00 0.00 557.00 85.00" xmlns="http://www.w3.org/2000/svg" xmlns:xlink="http://www.w3.org/1999/xlink">
<g id="graph0" class="graph" transform="scale(1 1) rotate(0) translate(4 81)">
<title>XY_Size::r</title>
<polygon fill="white" stroke="transparent" points="-4,4 -4,-81 553,-81 553,4 -4,4"/>
<!-- Node1 -->
<g id="node1" class="node">
<title>Node1</title>
<g id="a_node1"><a xlink:title=" ">
<polygon fill="#bfbfbf" stroke="black" points="484,-19.5 484,-38.5 549,-38.5 549,-19.5 484,-19.5"/>
<text text-anchor="middle" x="516.5" y="-26.5" font-family="Helvetica,sans-Serif" font-size="10.00">XY_Size::r</text>
</a>
</g>
</g>
<!-- Node2 -->
<g id="node2" class="node">
<title>Node2</title>
<g id="a_node2"><a xlink:href="struct_x_y___size.html#a7bd57d020a1b15aaa09af45eff3ce6b4" target="_top" xlink:title=" ">
<polygon fill="white" stroke="black" points="382,-57.5 382,-76.5 448,-76.5 448,-57.5 382,-57.5"/>
<text text-anchor="middle" x="415" y="-64.5" font-family="Helvetica,sans-Serif" font-size="10.00">XY_Size::_</text>
</a>
</g>
</g>
<!-- Node1&#45;&gt;Node2 -->
<g id="edge1" class="edge">
<title>Node1&#45;&gt;Node2</title>
<path fill="none" stroke="midnightblue" d="M480.77,-42.26C467.71,-47.25 453.12,-52.82 441.1,-57.41"/>
<polygon fill="midnightblue" stroke="midnightblue" points="482.3,-45.43 490.39,-38.59 479.8,-38.89 482.3,-45.43"/>
</g>
<!-- Node3 -->
<g id="node3" class="node">
<title>Node3</title>
<g id="a_node3"><a xlink:href="struct_macro.html#aee7d20953d25a4e783b8e897d78c4bf7" target="_top" xlink:title=" ">
<polygon fill="white" stroke="black" points="245,-19.5 245,-38.5 346,-38.5 346,-19.5 245,-19.5"/>
<text text-anchor="middle" x="295.5" y="-26.5" font-family="Helvetica,sans-Serif" font-size="10.00">Macro::replaceXY</text>
</a>
</g>
</g>
<!-- Node1&#45;&gt;Node3 -->
<g id="edge6" class="edge">
<title>Node1&#45;&gt;Node3</title>
<path fill="none" stroke="midnightblue" d="M473.4,-29C437.09,-29 384.59,-29 346.21,-29"/>
<polygon fill="midnightblue" stroke="midnightblue" points="473.66,-32.5 483.66,-29 473.66,-25.5 473.66,-32.5"/>
</g>
<!-- Node4 -->
<g id="node4" class="node">
<title>Node4</title>
<g id="a_node4"><a xlink:href="struct_macro.html#ac0ddd588c300108ca443b10316d99877" target="_top" xlink:title=" ">
<polygon fill="white" stroke="black" points="90,-0.5 90,-19.5 209,-19.5 209,-0.5 90,-0.5"/>
<text text-anchor="middle" x="149.5" y="-7.5" font-family="Helvetica,sans-Serif" font-size="10.00">Macro::replaceMacro</text>
</a>
</g>
</g>
<!-- Node1&#45;&gt;Node4 -->
<g id="edge5" class="edge">
<title>Node1&#45;&gt;Node4</title>
<path fill="none" stroke="midnightblue" d="M473.62,-22.99C439.38,-18.39 389.67,-12.44 346,-10 300.08,-7.43 248,-7.58 209.15,-8.29"/>
<polygon fill="midnightblue" stroke="midnightblue" points="473.34,-26.48 483.72,-24.37 474.29,-19.55 473.34,-26.48"/>
</g>
<!-- Node2&#45;&gt;Node3 -->
<g id="edge2" class="edge">
<title>Node2&#45;&gt;Node3</title>
<path fill="none" stroke="midnightblue" d="M374.79,-54.32C358.91,-49.19 340.89,-43.36 326.14,-38.59"/>
<polygon fill="midnightblue" stroke="midnightblue" points="373.76,-57.66 384.35,-57.41 375.91,-51 373.76,-57.66"/>
</g>
<!-- Node3&#45;&gt;Node4 -->
<g id="edge3" class="edge">
<title>Node3&#45;&gt;Node4</title>
<path fill="none" stroke="midnightblue" d="M235.02,-21.15C226.45,-20.02 217.63,-18.86 209.08,-17.73"/>
<polygon fill="midnightblue" stroke="midnightblue" points="234.57,-24.62 244.94,-22.46 235.49,-17.68 234.57,-24.62"/>
</g>
<!-- Node5 -->
<g id="node5" class="node">
<title>Node5</title>
<g id="a_node5"><a xlink:href="class_alg.html#a45e536cf797bba52c851877371ea64c5" target="_top" xlink:title=" ">
<polygon fill="white" stroke="black" points="0,-0.5 0,-19.5 54,-19.5 54,-0.5 0,-0.5"/>
<text text-anchor="middle" x="27" y="-7.5" font-family="Helvetica,sans-Serif" font-size="10.00">Alg::Alg</text>
</a>
</g>
</g>
<!-- Node4&#45;&gt;Node5 -->
<g id="edge4" class="edge">
<title>Node4&#45;&gt;Node5</title>
<path fill="none" stroke="midnightblue" d="M79.49,-10C70.55,-10 61.87,-10 54.26,-10"/>
<polygon fill="midnightblue" stroke="midnightblue" points="79.66,-13.5 89.66,-10 79.66,-6.5 79.66,-13.5"/>
</g>
</g>
</svg>
