<?xml version="1.0" encoding="UTF-8" standalone="no"?>
<!DOCTYPE svg PUBLIC "-//W3C//DTD SVG 1.1//EN"
 "http://www.w3.org/Graphics/SVG/1.1/DTD/svg11.dtd">
<!-- Generated by graphviz version 2.43.0 (0)
 -->
<!-- Title: Macro::replaceMacro Pages: 1 -->
<svg width="543pt" height="340pt"
 viewBox="0.00 0.00 543.00 340.10" xmlns="http://www.w3.org/2000/svg" xmlns:xlink="http://www.w3.org/1999/xlink">
<g id="graph0" class="graph" transform="scale(1 1) rotate(0) translate(4 336.1)">
<title>Macro::replaceMacro</title>
<polygon fill="white" stroke="transparent" points="-4,4 -4,-336.1 539,-336.1 539,4 -4,4"/>
<!-- Node1 -->
<g id="node1" class="node">
<title>Node1</title>
<g id="a_node1"><a xlink:title=" ">
<polygon fill="#bfbfbf" stroke="black" points="0,-133.5 0,-152.5 119,-152.5 119,-133.5 0,-133.5"/>
<text text-anchor="middle" x="59.5" y="-140.5" font-family="Helvetica,sans-Serif" font-size="10.00">Macro::replaceMacro</text>
</a>
</g>
</g>
<!-- Node2 -->
<g id="node2" class="node">
<title>Node2</title>
<g id="a_node2"><a xlink:href="struct_x_y___size.html#a7bd57d020a1b15aaa09af45eff3ce6b4" target="_top" xlink:title=" ">
<polygon fill="white" stroke="black" points="314,-285.5 314,-304.5 380,-304.5 380,-285.5 314,-285.5"/>
<text text-anchor="middle" x="347" y="-292.5" font-family="Helvetica,sans-Serif" font-size="10.00">XY_Size::_</text>
</a>
</g>
</g>
<!-- Node1&#45;&gt;Node2 -->
<g id="edge1" class="edge">
<title>Node1&#45;&gt;Node2</title>
<path fill="none" stroke="midnightblue" d="M64.44,-152.81C74.93,-177.52 106.14,-242.38 155,-271 200.63,-297.73 262.82,-300.59 303.67,-298.87"/>
<polygon fill="midnightblue" stroke="midnightblue" points="304.02,-302.35 313.82,-298.33 303.65,-295.36 304.02,-302.35"/>
</g>
<!-- Node3 -->
<g id="node3" class="node">
<title>Node3</title>
<g id="a_node3"><a xlink:href="struct_x_y___size.html#a9792ad3175a0f85674ae7e5e2ffe3a5e" target="_top" xlink:title=" ">
<polygon fill="white" stroke="black" points="450.5,-285.5 450.5,-304.5 515.5,-304.5 515.5,-285.5 450.5,-285.5"/>
<text text-anchor="middle" x="483" y="-292.5" font-family="Helvetica,sans-Serif" font-size="10.00">XY_Size::r</text>
</a>
</g>
</g>
<!-- Node1&#45;&gt;Node3 -->
<g id="edge6" class="edge">
<title>Node1&#45;&gt;Node3</title>
<path fill="none" stroke="midnightblue" d="M63.15,-152.77C71.35,-180.92 99.17,-262.45 155,-298 245.23,-355.45 379.78,-326.71 444.53,-307.53"/>
<polygon fill="midnightblue" stroke="midnightblue" points="445.76,-310.81 454.31,-304.55 443.72,-304.12 445.76,-310.81"/>
</g>
<!-- Node4 -->
<g id="node4" class="node">
<title>Node4</title>
<g id="a_node4"><a xlink:href="struct_x_y___size.html#a643eedefc10d0cdfd930ad024cc30f40" target="_top" xlink:title=" ">
<polygon fill="white" stroke="black" points="450.5,-247.5 450.5,-266.5 515.5,-266.5 515.5,-247.5 450.5,-247.5"/>
<text text-anchor="middle" x="483" y="-254.5" font-family="Helvetica,sans-Serif" font-size="10.00">XY_Size::t</text>
</a>
</g>
</g>
<!-- Node1&#45;&gt;Node4 -->
<g id="edge20" class="edge">
<title>Node1&#45;&gt;Node4</title>
<path fill="none" stroke="midnightblue" d="M81.55,-152.55C100.48,-160.88 129.2,-172.87 155,-181 255.84,-212.78 377.96,-237.68 440.57,-249.5"/>
<polygon fill="midnightblue" stroke="midnightblue" points="439.99,-252.95 450.46,-251.35 441.27,-246.07 439.99,-252.95"/>
</g>
<!-- Node5 -->
<g id="node5" class="node">
<title>Node5</title>
<g id="a_node5"><a xlink:href="struct_macro.html#a2b2226fb501a9da22d7fb047ea769c5d" target="_top" xlink:title=" ">
<polygon fill="white" stroke="black" points="155,-38.5 155,-57.5 263,-57.5 263,-38.5 155,-38.5"/>
<text text-anchor="middle" x="209" y="-45.5" font-family="Helvetica,sans-Serif" font-size="10.00">Macro::constantStr</text>
</a>
</g>
</g>
<!-- Node1&#45;&gt;Node5 -->
<g id="edge4" class="edge">
<title>Node1&#45;&gt;Node5</title>
<path fill="none" stroke="midnightblue" d="M71.57,-133.4C88.66,-118.89 122.87,-91.03 155,-72 161.13,-68.37 167.91,-64.92 174.51,-61.82"/>
<polygon fill="midnightblue" stroke="midnightblue" points="176.28,-64.86 183.96,-57.56 173.4,-58.48 176.28,-64.86"/>
</g>
<!-- Node6 -->
<g id="node6" class="node">
<title>Node6</title>
<g id="a_node6"><a xlink:href="class_log.html#a48b8faa1f9d2590c6fb650f1004e73c9" target="_top" xlink:title="Flush the buff into the log file.">
<polygon fill="white" stroke="black" points="177.5,-0.5 177.5,-19.5 240.5,-19.5 240.5,-0.5 177.5,-0.5"/>
<text text-anchor="middle" x="209" y="-7.5" font-family="Helvetica,sans-Serif" font-size="10.00">Log::flush</text>
</a>
</g>
</g>
<!-- Node1&#45;&gt;Node6 -->
<g id="edge5" class="edge">
<title>Node1&#45;&gt;Node6</title>
<path fill="none" stroke="midnightblue" d="M66.04,-133.26C78.9,-111.49 112.9,-58.51 155,-29 158.99,-26.2 163.44,-23.77 168.02,-21.67"/>
<polygon fill="midnightblue" stroke="midnightblue" points="169.54,-24.83 177.48,-17.82 166.9,-18.35 169.54,-24.83"/>
</g>
<!-- Node7 -->
<g id="node7" class="node">
<title>Node7</title>
<g id="a_node7"><a xlink:href="struct_macro.html#a94360db4bd4a0a2516339dadc6c37bbd" target="_top" xlink:title="RegEx replace.">
<polygon fill="white" stroke="black" points="302.5,-57.5 302.5,-76.5 391.5,-76.5 391.5,-57.5 302.5,-57.5"/>
<text text-anchor="middle" x="347" y="-64.5" font-family="Helvetica,sans-Serif" font-size="10.00">Macro::replace</text>
</a>
</g>
</g>
<!-- Node1&#45;&gt;Node7 -->
<g id="edge7" class="edge">
<title>Node1&#45;&gt;Node7</title>
<path fill="none" stroke="midnightblue" d="M117.89,-133.49C158.79,-126.07 214.84,-114.57 263,-100 280.65,-94.66 299.82,-87.16 315.28,-80.65"/>
<polygon fill="midnightblue" stroke="midnightblue" points="317.04,-83.71 324.86,-76.56 314.29,-77.27 317.04,-83.71"/>
</g>
<!-- Node10 -->
<g id="node10" class="node">
<title>Node10</title>
<g id="a_node10"><a xlink:href="struct_macro.html#aee7d20953d25a4e783b8e897d78c4bf7" target="_top" xlink:title=" ">
<polygon fill="white" stroke="black" points="158.5,-152.5 158.5,-171.5 259.5,-171.5 259.5,-152.5 158.5,-152.5"/>
<text text-anchor="middle" x="209" y="-159.5" font-family="Helvetica,sans-Serif" font-size="10.00">Macro::replaceXY</text>
</a>
</g>
</g>
<!-- Node1&#45;&gt;Node10 -->
<g id="edge10" class="edge">
<title>Node1&#45;&gt;Node10</title>
<path fill="none" stroke="midnightblue" d="M119.22,-150.56C128.66,-151.78 138.44,-153.04 147.91,-154.26"/>
<polygon fill="midnightblue" stroke="midnightblue" points="147.67,-157.76 158.04,-155.56 148.57,-150.82 147.67,-157.76"/>
</g>
<!-- Node11 -->
<g id="node11" class="node">
<title>Node11</title>
<g id="a_node11"><a xlink:href="namespacemmce.html#ad4a160832ef9fad47c531ece39752208" target="_top" xlink:title="Change a number to string.">
<polygon fill="white" stroke="black" points="299,-19.5 299,-38.5 395,-38.5 395,-19.5 299,-19.5"/>
<text text-anchor="middle" x="347" y="-26.5" font-family="Helvetica,sans-Serif" font-size="10.00">mmce::to_string</text>
</a>
</g>
</g>
<!-- Node1&#45;&gt;Node11 -->
<g id="edge21" class="edge">
<title>Node1&#45;&gt;Node11</title>
<path fill="none" stroke="midnightblue" d="M79.73,-133.35C98.61,-124.1 128.36,-110.08 155,-100 201.94,-82.24 216.6,-86.13 263,-67 279.73,-60.1 282.59,-55.62 299,-48 303.06,-46.11 307.36,-44.23 311.65,-42.41"/>
<polygon fill="midnightblue" stroke="midnightblue" points="313.01,-45.64 320.92,-38.59 310.34,-39.17 313.01,-45.64"/>
</g>
<!-- Node2&#45;&gt;Node3 -->
<g id="edge2" class="edge">
<title>Node2&#45;&gt;Node3</title>
<path fill="none" stroke="midnightblue" d="M380.1,-295C398.08,-295 420.72,-295 440.09,-295"/>
<polygon fill="midnightblue" stroke="midnightblue" points="440.17,-298.5 450.17,-295 440.17,-291.5 440.17,-298.5"/>
</g>
<!-- Node2&#45;&gt;Node4 -->
<g id="edge3" class="edge">
<title>Node2&#45;&gt;Node4</title>
<path fill="none" stroke="midnightblue" d="M380.1,-285.9C398.16,-280.77 420.93,-274.32 440.35,-268.81"/>
<polygon fill="midnightblue" stroke="midnightblue" points="441.5,-272.12 450.17,-266.03 439.59,-265.39 441.5,-272.12"/>
</g>
<!-- Node8 -->
<g id="node8" class="node">
<title>Node8</title>
<g id="a_node8"><a xlink:href="class_log.html#add7e611cd3267d3fd5dae017e3aeef67" target="_top" xlink:title="Write infomation to the log file.">
<polygon fill="white" stroke="black" points="453.5,-95.5 453.5,-114.5 512.5,-114.5 512.5,-95.5 453.5,-95.5"/>
<text text-anchor="middle" x="483" y="-102.5" font-family="Helvetica,sans-Serif" font-size="10.00">Log::info</text>
</a>
</g>
</g>
<!-- Node7&#45;&gt;Node8 -->
<g id="edge8" class="edge">
<title>Node7&#45;&gt;Node8</title>
<path fill="none" stroke="midnightblue" d="M381.81,-76.59C400.56,-81.91 423.95,-88.54 443.42,-94.06"/>
<polygon fill="midnightblue" stroke="midnightblue" points="442.62,-97.47 453.19,-96.83 444.53,-90.74 442.62,-97.47"/>
</g>
<!-- Node9 -->
<g id="node9" class="node">
<title>Node9</title>
<g id="a_node9"><a xlink:href="struct_macro.html#a0a64263ca28e6e30160145a33ed5d77f" target="_top" xlink:title="Get the name of Type.">
<polygon fill="white" stroke="black" points="431,-57.5 431,-76.5 535,-76.5 535,-57.5 431,-57.5"/>
<text text-anchor="middle" x="483" y="-64.5" font-family="Helvetica,sans-Serif" font-size="10.00">Macro::typeName</text>
</a>
</g>
</g>
<!-- Node7&#45;&gt;Node9 -->
<g id="edge9" class="edge">
<title>Node7&#45;&gt;Node9</title>
<path fill="none" stroke="midnightblue" d="M391.51,-67C400.81,-67 410.8,-67 420.63,-67"/>
<polygon fill="midnightblue" stroke="midnightblue" points="420.78,-70.5 430.78,-67 420.78,-63.5 420.78,-70.5"/>
</g>
<!-- Node10&#45;&gt;Node2 -->
<g id="edge11" class="edge">
<title>Node10&#45;&gt;Node2</title>
<path fill="none" stroke="midnightblue" d="M219.78,-171.57C242.61,-193.89 299.64,-249.66 328.58,-277.96"/>
<polygon fill="midnightblue" stroke="midnightblue" points="326.34,-280.67 335.94,-285.16 331.24,-275.67 326.34,-280.67"/>
</g>
<!-- Node10&#45;&gt;Node3 -->
<g id="edge13" class="edge">
<title>Node10&#45;&gt;Node3</title>
<path fill="none" stroke="midnightblue" d="M226.85,-171.58C263.37,-192.14 352.82,-241.42 431,-276 435.46,-277.97 440.2,-279.93 444.92,-281.78"/>
<polygon fill="midnightblue" stroke="midnightblue" points="443.91,-285.14 454.5,-285.44 446.4,-278.6 443.91,-285.14"/>
</g>
<!-- Node10&#45;&gt;Node4 -->
<g id="edge15" class="edge">
<title>Node10&#45;&gt;Node4</title>
<path fill="none" stroke="midnightblue" d="M259.57,-169.22C297.57,-175.77 350.81,-187.17 395,-205 418.54,-214.5 443.18,-229.81 460.21,-241.36"/>
<polygon fill="midnightblue" stroke="midnightblue" points="458.61,-244.51 468.82,-247.33 462.6,-238.76 458.61,-244.51"/>
</g>
<!-- Node10&#45;&gt;Node7 -->
<g id="edge14" class="edge">
<title>Node10&#45;&gt;Node7</title>
<path fill="none" stroke="midnightblue" d="M237.88,-152.43C246.44,-148.71 255.56,-143.9 263,-138 283.6,-121.64 278.78,-107.84 299,-91 303.31,-87.41 308.25,-84.16 313.27,-81.3"/>
<polygon fill="midnightblue" stroke="midnightblue" points="315.04,-84.32 322.27,-76.57 311.79,-78.12 315.04,-84.32"/>
</g>
<!-- Node10&#45;&gt;Node8 -->
<g id="edge12" class="edge">
<title>Node10&#45;&gt;Node8</title>
<path fill="none" stroke="midnightblue" d="M231.47,-152.43C255.54,-141.77 292.13,-125.78 299,-124 347.55,-111.42 405.38,-107.13 442.85,-105.68"/>
<polygon fill="midnightblue" stroke="midnightblue" points="443.44,-109.17 453.32,-105.34 443.21,-102.17 443.44,-109.17"/>
</g>
<!-- Node10&#45;&gt;Node11 -->
<g id="edge16" class="edge">
<title>Node10&#45;&gt;Node11</title>
<path fill="none" stroke="midnightblue" d="M218.95,-152.17C229.76,-140.15 248.31,-119.07 263,-100 280.15,-77.73 277.05,-65.56 299,-48 301.04,-46.36 303.25,-44.85 305.55,-43.46"/>
<polygon fill="midnightblue" stroke="midnightblue" points="307.51,-46.38 314.75,-38.64 304.27,-40.18 307.51,-46.38"/>
</g>
<!-- Node12 -->
<g id="node12" class="node">
<title>Node12</title>
<g id="a_node12"><a xlink:href="struct_x_y___size.html#a4a5192df22d9d6bc1793eabc6ae1ffa0" target="_top" xlink:title=" ">
<polygon fill="white" stroke="black" points="310.5,-133.5 310.5,-152.5 383.5,-152.5 383.5,-133.5 310.5,-133.5"/>
<text text-anchor="middle" x="347" y="-140.5" font-family="Helvetica,sans-Serif" font-size="10.00">XY_Size::xy</text>
</a>
</g>
</g>
<!-- Node10&#45;&gt;Node12 -->
<g id="edge17" class="edge">
<title>Node10&#45;&gt;Node12</title>
<path fill="none" stroke="midnightblue" d="M259.87,-155.03C273.03,-153.19 287.17,-151.22 300.11,-149.41"/>
<polygon fill="midnightblue" stroke="midnightblue" points="300.76,-152.85 310.18,-148 299.8,-145.92 300.76,-152.85"/>
</g>
<!-- Node13 -->
<g id="node13" class="node">
<title>Node13</title>
<g id="a_node13"><a xlink:href="class_log.html#ac7147942832455398ad289b706a02616" target="_top" xlink:title="Write error message to the log file.">
<polygon fill="white" stroke="black" points="456.5,-171.5 456.5,-190.5 509.5,-190.5 509.5,-171.5 456.5,-171.5"/>
<text text-anchor="middle" x="483" y="-178.5" font-family="Helvetica,sans-Serif" font-size="10.00">Log::err</text>
</a>
</g>
</g>
<!-- Node12&#45;&gt;Node13 -->
<g id="edge18" class="edge">
<title>Node12&#45;&gt;Node13</title>
<path fill="none" stroke="midnightblue" d="M381.81,-152.59C401.58,-158.19 426.5,-165.26 446.54,-170.94"/>
<polygon fill="midnightblue" stroke="midnightblue" points="445.66,-174.33 456.23,-173.69 447.57,-167.6 445.66,-174.33"/>
</g>
<!-- Node14 -->
<g id="node14" class="node">
<title>Node14</title>
<g id="a_node14"><a xlink:href="class_term.html#abd955a8def100354b03e33911c3b21f8" target="_top" xlink:title="Print error message.">
<polygon fill="white" stroke="black" points="448,-133.5 448,-152.5 518,-152.5 518,-133.5 448,-133.5"/>
<text text-anchor="middle" x="483" y="-140.5" font-family="Helvetica,sans-Serif" font-size="10.00">Term::error</text>
</a>
</g>
</g>
<!-- Node12&#45;&gt;Node14 -->
<g id="edge19" class="edge">
<title>Node12&#45;&gt;Node14</title>
<path fill="none" stroke="midnightblue" d="M383.56,-143C400.15,-143 420.07,-143 437.64,-143"/>
<polygon fill="midnightblue" stroke="midnightblue" points="437.67,-146.5 447.67,-143 437.67,-139.5 437.67,-146.5"/>
</g>
</g>
</svg>
