<?xml version="1.0" encoding="UTF-8" standalone="no"?>
<!DOCTYPE svg PUBLIC "-//W3C//DTD SVG 1.1//EN"
 "http://www.w3.org/Graphics/SVG/1.1/DTD/svg11.dtd">
<!-- Generated by graphviz version 2.43.0 (0)
 -->
<!-- Title: Macro Pages: 1 -->
<svg width="63pt" height="117pt"
 viewBox="0.00 0.00 63.00 117.00" xmlns="http://www.w3.org/2000/svg" xmlns:xlink="http://www.w3.org/1999/xlink">
<g id="graph0" class="graph" transform="scale(1 1) rotate(0) translate(4 113)">
<title>Macro</title>
<polygon fill="white" stroke="transparent" points="-4,4 -4,-113 59,-113 59,4 -4,4"/>
<!-- Node1 -->
<g id="node1" class="node">
<title>Node1</title>
<g id="a_node1"><a xlink:title=" ">
<polygon fill="#bfbfbf" stroke="black" points="4,-0.5 4,-19.5 51,-19.5 51,-0.5 4,-0.5"/>
<text text-anchor="middle" x="27.5" y="-7.5" font-family="Helvetica,sans-Serif" font-size="10.00">Macro</text>
</a>
</g>
</g>
<!-- Node2 -->
<g id="node2" class="node">
<title>Node2</title>
<g id="a_node2"><a xlink:href="struct_x_y___size.html" target="_top" xlink:title=" ">
<polygon fill="white" stroke="black" points="0,-89.5 0,-108.5 55,-108.5 55,-89.5 0,-89.5"/>
<text text-anchor="middle" x="27.5" y="-96.5" font-family="Helvetica,sans-Serif" font-size="10.00">XY_Size</text>
</a>
</g>
</g>
<!-- Node2&#45;&gt;Node1 -->
<g id="edge1" class="edge">
<title>Node2&#45;&gt;Node1</title>
<path fill="none" stroke="#9a32cd" stroke-dasharray="5,2" d="M27.5,-79.19C27.5,-60.74 27.5,-33.41 27.5,-19.62"/>
<polygon fill="#9a32cd" stroke="#9a32cd" points="24,-79.34 27.5,-89.34 31,-79.34 24,-79.34"/>
<text text-anchor="middle" x="35.5" y="-63" font-family="Helvetica,sans-Serif" font-size="10.00"> _B</text>
<text text-anchor="middle" x="35.5" y="-52" font-family="Helvetica,sans-Serif" font-size="10.00">_G</text>
<text text-anchor="middle" x="35.5" y="-41" font-family="Helvetica,sans-Serif" font-size="10.00">_N</text>
</g>
</g>
</svg>
