<?xml version="1.0" encoding="UTF-8" standalone="no"?>
<!DOCTYPE svg PUBLIC "-//W3C//DTD SVG 1.1//EN"
 "http://www.w3.org/Graphics/SVG/1.1/DTD/svg11.dtd">
<!-- Generated by graphviz version 2.43.0 (0)
 -->
<!-- Title: XY_Size::x Pages: 1 -->
<svg width="290pt" height="66pt"
 viewBox="0.00 0.00 290.00 66.00" xmlns="http://www.w3.org/2000/svg" xmlns:xlink="http://www.w3.org/1999/xlink">
<g id="graph0" class="graph" transform="scale(1 1) rotate(0) translate(4 62)">
<title>XY_Size::x</title>
<polygon fill="white" stroke="transparent" points="-4,4 -4,-62 286,-62 286,4 -4,4"/>
<!-- Node1 -->
<g id="node1" class="node">
<title>Node1</title>
<g id="a_node1"><a xlink:title=" ">
<polygon fill="#bfbfbf" stroke="black" points="0,-19.5 0,-38.5 67,-38.5 67,-19.5 0,-19.5"/>
<text text-anchor="middle" x="33.5" y="-26.5" font-family="Helvetica,sans-Serif" font-size="10.00">XY_Size::x</text>
</a>
</g>
</g>
<!-- Node2 -->
<g id="node2" class="node">
<title>Node2</title>
<g id="a_node2"><a xlink:href="struct_x_y___size.html#a4a5192df22d9d6bc1793eabc6ae1ffa0" target="_top" xlink:title=" ">
<polygon fill="white" stroke="black" points="103,-19.5 103,-38.5 176,-38.5 176,-19.5 103,-19.5"/>
<text text-anchor="middle" x="139.5" y="-26.5" font-family="Helvetica,sans-Serif" font-size="10.00">XY_Size::xy</text>
</a>
</g>
</g>
<!-- Node1&#45;&gt;Node2 -->
<g id="edge1" class="edge">
<title>Node1&#45;&gt;Node2</title>
<path fill="none" stroke="midnightblue" d="M67.12,-29C75.17,-29 83.94,-29 92.49,-29"/>
<polygon fill="midnightblue" stroke="midnightblue" points="92.74,-32.5 102.74,-29 92.74,-25.5 92.74,-32.5"/>
</g>
<!-- Node3 -->
<g id="node3" class="node">
<title>Node3</title>
<g id="a_node3"><a xlink:href="class_log.html#ac7147942832455398ad289b706a02616" target="_top" xlink:title="Write error message to the log file.">
<polygon fill="white" stroke="black" points="220.5,-38.5 220.5,-57.5 273.5,-57.5 273.5,-38.5 220.5,-38.5"/>
<text text-anchor="middle" x="247" y="-45.5" font-family="Helvetica,sans-Serif" font-size="10.00">Log::err</text>
</a>
</g>
</g>
<!-- Node2&#45;&gt;Node3 -->
<g id="edge2" class="edge">
<title>Node2&#45;&gt;Node3</title>
<path fill="none" stroke="midnightblue" d="M176.22,-35.43C187.18,-37.41 199.24,-39.58 210.21,-41.55"/>
<polygon fill="midnightblue" stroke="midnightblue" points="209.86,-45.05 220.32,-43.37 211.1,-38.16 209.86,-45.05"/>
</g>
<!-- Node4 -->
<g id="node4" class="node">
<title>Node4</title>
<g id="a_node4"><a xlink:href="class_term.html#abd955a8def100354b03e33911c3b21f8" target="_top" xlink:title="Print error message.">
<polygon fill="white" stroke="black" points="212,-0.5 212,-19.5 282,-19.5 282,-0.5 212,-0.5"/>
<text text-anchor="middle" x="247" y="-7.5" font-family="Helvetica,sans-Serif" font-size="10.00">Term::error</text>
</a>
</g>
</g>
<!-- Node2&#45;&gt;Node4 -->
<g id="edge3" class="edge">
<title>Node2&#45;&gt;Node4</title>
<path fill="none" stroke="midnightblue" d="M176.22,-22.57C184.47,-21.08 193.34,-19.48 201.9,-17.94"/>
<polygon fill="midnightblue" stroke="midnightblue" points="202.53,-21.39 211.75,-16.17 201.29,-14.5 202.53,-21.39"/>
</g>
</g>
</svg>
