<?xml version="1.0" encoding="UTF-8" standalone="no"?>
<!DOCTYPE svg PUBLIC "-//W3C//DTD SVG 1.1//EN"
 "http://www.w3.org/Graphics/SVG/1.1/DTD/svg11.dtd">
<!-- Generated by graphviz version 2.43.0 (0)
 -->
<!-- Title: XY_Size::_ Pages: 1 -->
<svg width="456pt" height="28pt"
 viewBox="0.00 0.00 456.00 28.00" xmlns="http://www.w3.org/2000/svg" xmlns:xlink="http://www.w3.org/1999/xlink">
<g id="graph0" class="graph" transform="scale(1 1) rotate(0) translate(4 24)">
<title>XY_Size::_</title>
<polygon fill="white" stroke="transparent" points="-4,4 -4,-24 452,-24 452,4 -4,4"/>
<!-- Node1 -->
<g id="node1" class="node">
<title>Node1</title>
<g id="a_node1"><a xlink:title=" ">
<polygon fill="#bfbfbf" stroke="black" points="382,-0.5 382,-19.5 448,-19.5 448,-0.5 382,-0.5"/>
<text text-anchor="middle" x="415" y="-7.5" font-family="Helvetica,sans-Serif" font-size="10.00">XY_Size::_</text>
</a>
</g>
</g>
<!-- Node2 -->
<g id="node2" class="node">
<title>Node2</title>
<g id="a_node2"><a xlink:href="struct_macro.html#aee7d20953d25a4e783b8e897d78c4bf7" target="_top" xlink:title=" ">
<polygon fill="white" stroke="black" points="245,-0.5 245,-19.5 346,-19.5 346,-0.5 245,-0.5"/>
<text text-anchor="middle" x="295.5" y="-7.5" font-family="Helvetica,sans-Serif" font-size="10.00">Macro::replaceXY</text>
</a>
</g>
</g>
<!-- Node1&#45;&gt;Node2 -->
<g id="edge1" class="edge">
<title>Node1&#45;&gt;Node2</title>
<path fill="none" stroke="midnightblue" d="M371.73,-10C363.46,-10 354.71,-10 346.22,-10"/>
<polygon fill="midnightblue" stroke="midnightblue" points="371.89,-13.5 381.89,-10 371.89,-6.5 371.89,-13.5"/>
</g>
<!-- Node3 -->
<g id="node3" class="node">
<title>Node3</title>
<g id="a_node3"><a xlink:href="struct_macro.html#ac0ddd588c300108ca443b10316d99877" target="_top" xlink:title=" ">
<polygon fill="white" stroke="black" points="90,-0.5 90,-19.5 209,-19.5 209,-0.5 90,-0.5"/>
<text text-anchor="middle" x="149.5" y="-7.5" font-family="Helvetica,sans-Serif" font-size="10.00">Macro::replaceMacro</text>
</a>
</g>
</g>
<!-- Node2&#45;&gt;Node3 -->
<g id="edge2" class="edge">
<title>Node2&#45;&gt;Node3</title>
<path fill="none" stroke="midnightblue" d="M234.74,-10C226.26,-10 217.54,-10 209.08,-10"/>
<polygon fill="midnightblue" stroke="midnightblue" points="234.94,-13.5 244.94,-10 234.94,-6.5 234.94,-13.5"/>
</g>
<!-- Node4 -->
<g id="node4" class="node">
<title>Node4</title>
<g id="a_node4"><a xlink:href="class_alg.html#a45e536cf797bba52c851877371ea64c5" target="_top" xlink:title=" ">
<polygon fill="white" stroke="black" points="0,-0.5 0,-19.5 54,-19.5 54,-0.5 0,-0.5"/>
<text text-anchor="middle" x="27" y="-7.5" font-family="Helvetica,sans-Serif" font-size="10.00">Alg::Alg</text>
</a>
</g>
</g>
<!-- Node3&#45;&gt;Node4 -->
<g id="edge3" class="edge">
<title>Node3&#45;&gt;Node4</title>
<path fill="none" stroke="midnightblue" d="M79.49,-10C70.55,-10 61.87,-10 54.26,-10"/>
<polygon fill="midnightblue" stroke="midnightblue" points="79.66,-13.5 89.66,-10 79.66,-6.5 79.66,-13.5"/>
</g>
</g>
</svg>
