<?xml version="1.0" encoding="UTF-8" standalone="no"?>
<!DOCTYPE svg PUBLIC "-//W3C//DTD SVG 1.1//EN"
 "http://www.w3.org/Graphics/SVG/1.1/DTD/svg11.dtd">
<!-- Generated by graphviz version 2.43.0 (0)
 -->
<!-- Title: Macro::replaceMacro Pages: 1 -->
<svg width="399pt" height="208pt"
 viewBox="0.00 0.00 399.00 208.00" xmlns="http://www.w3.org/2000/svg" xmlns:xlink="http://www.w3.org/1999/xlink">
<g id="graph0" class="graph" transform="scale(1 1) rotate(0) translate(4 204)">
<title>Macro::replaceMacro</title>
<polygon fill="white" stroke="transparent" points="-4,4 -4,-204 395,-204 395,4 -4,4"/>
<!-- Node1 -->
<g id="node1" class="node">
<title>Node1</title>
<g id="a_node1"><a xlink:title=" ">
<polygon fill="#bfbfbf" stroke="black" points="0,-95.5 0,-114.5 119,-114.5 119,-95.5 0,-95.5"/>
<text text-anchor="middle" x="59.5" y="-102.5" font-family="Helvetica,sans-Serif" font-size="10.00">Macro::replaceMacro</text>
</a>
</g>
</g>
<!-- Node2 -->
<g id="node2" class="node">
<title>Node2</title>
<g id="a_node2"><a xlink:href="struct_x_y___size.html#a5e681ada57de15aeca79e2d09f3162f1" target="_top" xlink:title=" ">
<polygon fill="white" stroke="black" points="170,-152.5 170,-171.5 236,-171.5 236,-152.5 170,-152.5"/>
<text text-anchor="middle" x="203" y="-159.5" font-family="Helvetica,sans-Serif" font-size="10.00">XY_Size::_</text>
</a>
</g>
</g>
<!-- Node1&#45;&gt;Node2 -->
<g id="edge1" class="edge">
<title>Node1&#45;&gt;Node2</title>
<path fill="none" stroke="midnightblue" d="M84.18,-114.54C107.35,-123.87 142.82,-138.16 168.8,-148.62"/>
<polygon fill="midnightblue" stroke="midnightblue" points="167.66,-151.94 178.24,-152.43 170.27,-145.45 167.66,-151.94"/>
</g>
<!-- Node3 -->
<g id="node3" class="node">
<title>Node3</title>
<g id="a_node3"><a xlink:href="struct_x_y___size.html#a0c52dcb9cfa4d7ccbe373c482ebf2337" target="_top" xlink:title=" ">
<polygon fill="white" stroke="black" points="306.5,-180.5 306.5,-199.5 371.5,-199.5 371.5,-180.5 306.5,-180.5"/>
<text text-anchor="middle" x="339" y="-187.5" font-family="Helvetica,sans-Serif" font-size="10.00">XY_Size::r</text>
</a>
</g>
</g>
<!-- Node1&#45;&gt;Node3 -->
<g id="edge5" class="edge">
<title>Node1&#45;&gt;Node3</title>
<path fill="none" stroke="midnightblue" d="M68.65,-114.72C83.67,-131.81 117.61,-166.79 155,-181 200.93,-198.46 258.06,-198.12 296.16,-195.11"/>
<polygon fill="midnightblue" stroke="midnightblue" points="296.72,-198.58 306.37,-194.21 296.1,-191.6 296.72,-198.58"/>
</g>
<!-- Node4 -->
<g id="node4" class="node">
<title>Node4</title>
<g id="a_node4"><a xlink:href="struct_x_y___size.html#acc0b4290938fb650a451fdd851d900a6" target="_top" xlink:title=" ">
<polygon fill="white" stroke="black" points="306.5,-133.5 306.5,-152.5 371.5,-152.5 371.5,-133.5 306.5,-133.5"/>
<text text-anchor="middle" x="339" y="-140.5" font-family="Helvetica,sans-Serif" font-size="10.00">XY_Size::t</text>
</a>
</g>
</g>
<!-- Node1&#45;&gt;Node4 -->
<g id="edge9" class="edge">
<title>Node1&#45;&gt;Node4</title>
<path fill="none" stroke="midnightblue" d="M119.01,-113.01C172.08,-120.28 249.02,-130.82 296.15,-137.27"/>
<polygon fill="midnightblue" stroke="midnightblue" points="295.93,-140.77 306.31,-138.66 296.88,-133.84 295.93,-140.77"/>
</g>
<!-- Node5 -->
<g id="node5" class="node">
<title>Node5</title>
<g id="a_node5"><a xlink:href="class_log.html#a48b8faa1f9d2590c6fb650f1004e73c9" target="_top" xlink:title="Flush the buff into the log file.">
<polygon fill="white" stroke="black" points="171.5,-76.5 171.5,-95.5 234.5,-95.5 234.5,-76.5 171.5,-76.5"/>
<text text-anchor="middle" x="203" y="-83.5" font-family="Helvetica,sans-Serif" font-size="10.00">Log::flush</text>
</a>
</g>
</g>
<!-- Node1&#45;&gt;Node5 -->
<g id="edge4" class="edge">
<title>Node1&#45;&gt;Node5</title>
<path fill="none" stroke="midnightblue" d="M119.28,-97.11C133.42,-95.21 148.22,-93.22 161.32,-91.46"/>
<polygon fill="midnightblue" stroke="midnightblue" points="161.98,-94.91 171.42,-90.11 161.05,-87.97 161.98,-94.91"/>
</g>
<!-- Node6 -->
<g id="node6" class="node">
<title>Node6</title>
<g id="a_node6"><a xlink:href="struct_macro.html#a94360db4bd4a0a2516339dadc6c37bbd" target="_top" xlink:title="RegEx replace.">
<polygon fill="white" stroke="black" points="158.5,-38.5 158.5,-57.5 247.5,-57.5 247.5,-38.5 158.5,-38.5"/>
<text text-anchor="middle" x="203" y="-45.5" font-family="Helvetica,sans-Serif" font-size="10.00">Macro::replace</text>
</a>
</g>
</g>
<!-- Node1&#45;&gt;Node6 -->
<g id="edge6" class="edge">
<title>Node1&#45;&gt;Node6</title>
<path fill="none" stroke="midnightblue" d="M84.18,-95.46C107.35,-86.13 142.82,-71.84 168.8,-61.38"/>
<polygon fill="midnightblue" stroke="midnightblue" points="170.27,-64.55 178.24,-57.57 167.66,-58.06 170.27,-64.55"/>
</g>
<!-- Node9 -->
<g id="node9" class="node">
<title>Node9</title>
<g id="a_node9"><a xlink:href="namespacemmce.html#ad4a160832ef9fad47c531ece39752208" target="_top" xlink:title="Change a number to string.">
<polygon fill="white" stroke="black" points="155,-0.5 155,-19.5 251,-19.5 251,-0.5 155,-0.5"/>
<text text-anchor="middle" x="203" y="-7.5" font-family="Helvetica,sans-Serif" font-size="10.00">mmce::to_string</text>
</a>
</g>
</g>
<!-- Node1&#45;&gt;Node9 -->
<g id="edge10" class="edge">
<title>Node1&#45;&gt;Node9</title>
<path fill="none" stroke="midnightblue" d="M70.52,-95.25C87.02,-79.63 121.41,-48.72 155,-29 158.23,-27.11 161.68,-25.32 165.19,-23.65"/>
<polygon fill="midnightblue" stroke="midnightblue" points="166.77,-26.78 174.51,-19.54 163.95,-20.37 166.77,-26.78"/>
</g>
<!-- Node2&#45;&gt;Node3 -->
<g id="edge2" class="edge">
<title>Node2&#45;&gt;Node3</title>
<path fill="none" stroke="midnightblue" d="M236.1,-168.71C254.16,-172.48 276.93,-177.24 296.35,-181.3"/>
<polygon fill="midnightblue" stroke="midnightblue" points="295.66,-184.73 306.17,-183.35 297.09,-177.88 295.66,-184.73"/>
</g>
<!-- Node2&#45;&gt;Node4 -->
<g id="edge3" class="edge">
<title>Node2&#45;&gt;Node4</title>
<path fill="none" stroke="midnightblue" d="M236.1,-157.45C254.08,-154.9 276.72,-151.69 296.09,-148.94"/>
<polygon fill="midnightblue" stroke="midnightblue" points="296.76,-152.38 306.17,-147.51 295.77,-145.45 296.76,-152.38"/>
</g>
<!-- Node7 -->
<g id="node7" class="node">
<title>Node7</title>
<g id="a_node7"><a xlink:href="class_log.html#add7e611cd3267d3fd5dae017e3aeef67" target="_top" xlink:title="Write infomation to the log file.">
<polygon fill="white" stroke="black" points="309.5,-57.5 309.5,-76.5 368.5,-76.5 368.5,-57.5 309.5,-57.5"/>
<text text-anchor="middle" x="339" y="-64.5" font-family="Helvetica,sans-Serif" font-size="10.00">Log::info</text>
</a>
</g>
</g>
<!-- Node6&#45;&gt;Node7 -->
<g id="edge7" class="edge">
<title>Node6&#45;&gt;Node7</title>
<path fill="none" stroke="midnightblue" d="M247.51,-54.17C264.18,-56.53 283.08,-59.21 299.28,-61.51"/>
<polygon fill="midnightblue" stroke="midnightblue" points="299.09,-65.02 309.48,-62.96 300.07,-58.09 299.09,-65.02"/>
</g>
<!-- Node8 -->
<g id="node8" class="node">
<title>Node8</title>
<g id="a_node8"><a xlink:href="struct_macro.html#a0a64263ca28e6e30160145a33ed5d77f" target="_top" xlink:title="Get the name of Type.">
<polygon fill="white" stroke="black" points="287,-19.5 287,-38.5 391,-38.5 391,-19.5 287,-19.5"/>
<text text-anchor="middle" x="339" y="-26.5" font-family="Helvetica,sans-Serif" font-size="10.00">Macro::typeName</text>
</a>
</g>
</g>
<!-- Node6&#45;&gt;Node8 -->
<g id="edge8" class="edge">
<title>Node6&#45;&gt;Node8</title>
<path fill="none" stroke="midnightblue" d="M247.51,-41.83C256.81,-40.51 266.8,-39.1 276.63,-37.7"/>
<polygon fill="midnightblue" stroke="midnightblue" points="277.37,-41.13 286.78,-36.26 276.39,-34.2 277.37,-41.13"/>
</g>
</g>
</svg>
