<?xml version="1.0" encoding="UTF-8" standalone="no"?>
<!DOCTYPE svg PUBLIC "-//W3C//DTD SVG 1.1//EN"
 "http://www.w3.org/Graphics/SVG/1.1/DTD/svg11.dtd">
<!-- Generated by graphviz version 2.43.0 (0)
 -->
<!-- Title: XY_Size::r Pages: 1 -->
<svg width="557pt" height="78pt"
 viewBox="0.00 0.00 557.00 77.80" xmlns="http://www.w3.org/2000/svg" xmlns:xlink="http://www.w3.org/1999/xlink">
<g id="graph0" class="graph" transform="scale(1 1) rotate(0) translate(4 73.8)">
<title>XY_Size::r</title>
<polygon fill="white" stroke="transparent" points="-4,4 -4,-73.8 553,-73.8 553,4 -4,4"/>
<!-- Node1 -->
<g id="node1" class="node">
<title>Node1</title>
<g id="a_node1"><a xlink:title=" ">
<polygon fill="#bfbfbf" stroke="black" points="484,-12.3 484,-31.3 549,-31.3 549,-12.3 484,-12.3"/>
<text text-anchor="middle" x="516.5" y="-19.3" font-family="Helvetica,sans-Serif" font-size="10.00">XY_Size::r</text>
</a>
</g>
</g>
<!-- Node2 -->
<g id="node2" class="node">
<title>Node2</title>
<g id="a_node2"><a xlink:href="struct_x_y___size.html#a7bd57d020a1b15aaa09af45eff3ce6b4" target="_top" xlink:title=" ">
<polygon fill="white" stroke="black" points="382,-50.3 382,-69.3 448,-69.3 448,-50.3 382,-50.3"/>
<text text-anchor="middle" x="415" y="-57.3" font-family="Helvetica,sans-Serif" font-size="10.00">XY_Size::_</text>
</a>
</g>
</g>
<!-- Node1&#45;&gt;Node2 -->
<g id="edge1" class="edge">
<title>Node1&#45;&gt;Node2</title>
<path fill="none" stroke="midnightblue" d="M480.77,-35.07C467.71,-40.06 453.12,-45.63 441.1,-50.22"/>
<polygon fill="midnightblue" stroke="midnightblue" points="482.3,-38.23 490.39,-31.39 479.8,-31.69 482.3,-38.23"/>
</g>
<!-- Node3 -->
<g id="node3" class="node">
<title>Node3</title>
<g id="a_node3"><a xlink:href="struct_macro.html#ac0ddd588c300108ca443b10316d99877" target="_top" xlink:title=" ">
<polygon fill="white" stroke="black" points="90,-12.3 90,-31.3 209,-31.3 209,-12.3 90,-12.3"/>
<text text-anchor="middle" x="149.5" y="-19.3" font-family="Helvetica,sans-Serif" font-size="10.00">Macro::replaceMacro</text>
</a>
</g>
</g>
<!-- Node1&#45;&gt;Node3 -->
<g id="edge6" class="edge">
<title>Node1&#45;&gt;Node3</title>
<path fill="none" stroke="midnightblue" d="M473.73,-14.49C420.53,-6.18 325.81,5.24 245,-2.8 226.35,-4.66 205.93,-8.53 188.86,-12.3"/>
<polygon fill="midnightblue" stroke="midnightblue" points="473.37,-17.98 483.8,-16.11 474.48,-11.07 473.37,-17.98"/>
</g>
<!-- Node5 -->
<g id="node5" class="node">
<title>Node5</title>
<g id="a_node5"><a xlink:href="struct_macro.html#aee7d20953d25a4e783b8e897d78c4bf7" target="_top" xlink:title=" ">
<polygon fill="white" stroke="black" points="245,-12.3 245,-31.3 346,-31.3 346,-12.3 245,-12.3"/>
<text text-anchor="middle" x="295.5" y="-19.3" font-family="Helvetica,sans-Serif" font-size="10.00">Macro::replaceXY</text>
</a>
</g>
</g>
<!-- Node1&#45;&gt;Node5 -->
<g id="edge7" class="edge">
<title>Node1&#45;&gt;Node5</title>
<path fill="none" stroke="midnightblue" d="M473.4,-21.8C437.09,-21.8 384.59,-21.8 346.21,-21.8"/>
<polygon fill="midnightblue" stroke="midnightblue" points="473.66,-25.31 483.66,-21.8 473.66,-18.31 473.66,-25.31"/>
</g>
<!-- Node2&#45;&gt;Node3 -->
<g id="edge2" class="edge">
<title>Node2&#45;&gt;Node3</title>
<path fill="none" stroke="midnightblue" d="M371.68,-56.07C337.42,-52.8 287.96,-47.53 245,-40.8 228.3,-38.19 210.07,-34.68 194.11,-31.39"/>
<polygon fill="midnightblue" stroke="midnightblue" points="371.52,-59.57 381.81,-57.02 372.18,-52.6 371.52,-59.57"/>
</g>
<!-- Node2&#45;&gt;Node5 -->
<g id="edge4" class="edge">
<title>Node2&#45;&gt;Node5</title>
<path fill="none" stroke="midnightblue" d="M374.79,-47.12C358.91,-41.99 340.89,-36.16 326.14,-31.39"/>
<polygon fill="midnightblue" stroke="midnightblue" points="373.76,-50.47 384.35,-50.22 375.91,-43.81 373.76,-50.47"/>
</g>
<!-- Node4 -->
<g id="node4" class="node">
<title>Node4</title>
<g id="a_node4"><a xlink:href="class_alg.html#a45e536cf797bba52c851877371ea64c5" target="_top" xlink:title=" ">
<polygon fill="white" stroke="black" points="0,-12.3 0,-31.3 54,-31.3 54,-12.3 0,-12.3"/>
<text text-anchor="middle" x="27" y="-19.3" font-family="Helvetica,sans-Serif" font-size="10.00">Alg::Alg</text>
</a>
</g>
</g>
<!-- Node3&#45;&gt;Node4 -->
<g id="edge3" class="edge">
<title>Node3&#45;&gt;Node4</title>
<path fill="none" stroke="midnightblue" d="M79.49,-21.8C70.55,-21.8 61.87,-21.8 54.26,-21.8"/>
<polygon fill="midnightblue" stroke="midnightblue" points="79.66,-25.31 89.66,-21.8 79.66,-18.31 79.66,-25.31"/>
</g>
<!-- Node5&#45;&gt;Node3 -->
<g id="edge5" class="edge">
<title>Node5&#45;&gt;Node3</title>
<path fill="none" stroke="midnightblue" d="M234.74,-21.8C226.26,-21.8 217.54,-21.8 209.08,-21.8"/>
<polygon fill="midnightblue" stroke="midnightblue" points="234.94,-25.31 244.94,-21.8 234.94,-18.31 234.94,-25.31"/>
</g>
</g>
</svg>
