<?xml version="1.0" encoding="UTF-8" standalone="no"?>
<!DOCTYPE svg PUBLIC "-//W3C//DTD SVG 1.1//EN"
 "http://www.w3.org/Graphics/SVG/1.1/DTD/svg11.dtd">
<!-- Generated by graphviz version 2.43.0 (0)
 -->
<!-- Title: Macro::replaceXY Pages: 1 -->
<svg width="381pt" height="265pt"
 viewBox="0.00 0.00 381.00 265.00" xmlns="http://www.w3.org/2000/svg" xmlns:xlink="http://www.w3.org/1999/xlink">
<g id="graph0" class="graph" transform="scale(1 1) rotate(0) translate(4 261)">
<title>Macro::replaceXY</title>
<polygon fill="white" stroke="transparent" points="-4,4 -4,-261 377,-261 377,4 -4,4"/>
<!-- Node1 -->
<g id="node1" class="node">
<title>Node1</title>
<g id="a_node1"><a xlink:title=" ">
<polygon fill="#bfbfbf" stroke="black" points="0,-133.5 0,-152.5 101,-152.5 101,-133.5 0,-133.5"/>
<text text-anchor="middle" x="50.5" y="-140.5" font-family="Helvetica,sans-Serif" font-size="10.00">Macro::replaceXY</text>
</a>
</g>
</g>
<!-- Node2 -->
<g id="node2" class="node">
<title>Node2</title>
<g id="a_node2"><a xlink:href="struct_x_y___size.html#a7bd57d020a1b15aaa09af45eff3ce6b4" target="_top" xlink:title=" ">
<polygon fill="white" stroke="black" points="152,-209.5 152,-228.5 218,-228.5 218,-209.5 152,-209.5"/>
<text text-anchor="middle" x="185" y="-216.5" font-family="Helvetica,sans-Serif" font-size="10.00">XY_Size::_</text>
</a>
</g>
</g>
<!-- Node1&#45;&gt;Node2 -->
<g id="edge1" class="edge">
<title>Node1&#45;&gt;Node2</title>
<path fill="none" stroke="midnightblue" d="M66.44,-152.55C83.34,-163.25 111.82,-180.94 137,-195 142.77,-198.22 149.03,-201.54 155.04,-204.64"/>
<polygon fill="midnightblue" stroke="midnightblue" points="153.66,-207.86 164.16,-209.28 156.84,-201.63 153.66,-207.86"/>
</g>
<!-- Node3 -->
<g id="node3" class="node">
<title>Node3</title>
<g id="a_node3"><a xlink:href="struct_x_y___size.html#a9792ad3175a0f85674ae7e5e2ffe3a5e" target="_top" xlink:title=" ">
<polygon fill="white" stroke="black" points="288.5,-237.5 288.5,-256.5 353.5,-256.5 353.5,-237.5 288.5,-237.5"/>
<text text-anchor="middle" x="321" y="-244.5" font-family="Helvetica,sans-Serif" font-size="10.00">XY_Size::r</text>
</a>
</g>
</g>
<!-- Node1&#45;&gt;Node3 -->
<g id="edge5" class="edge">
<title>Node1&#45;&gt;Node3</title>
<path fill="none" stroke="midnightblue" d="M56.57,-152.52C67.87,-172.63 97.32,-219.15 137,-238 181.65,-259.21 239.52,-257.99 278.11,-253.75"/>
<polygon fill="midnightblue" stroke="midnightblue" points="278.95,-257.17 288.46,-252.49 278.11,-250.23 278.95,-257.17"/>
</g>
<!-- Node4 -->
<g id="node4" class="node">
<title>Node4</title>
<g id="a_node4"><a xlink:href="struct_x_y___size.html#a643eedefc10d0cdfd930ad024cc30f40" target="_top" xlink:title=" ">
<polygon fill="white" stroke="black" points="288.5,-190.5 288.5,-209.5 353.5,-209.5 353.5,-190.5 288.5,-190.5"/>
<text text-anchor="middle" x="321" y="-197.5" font-family="Helvetica,sans-Serif" font-size="10.00">XY_Size::t</text>
</a>
</g>
</g>
<!-- Node1&#45;&gt;Node4 -->
<g id="edge9" class="edge">
<title>Node1&#45;&gt;Node4</title>
<path fill="none" stroke="midnightblue" d="M96.44,-152.54C147.17,-163.31 229.05,-180.69 278.37,-191.16"/>
<polygon fill="midnightblue" stroke="midnightblue" points="277.87,-194.63 288.38,-193.29 279.33,-187.79 277.87,-194.63"/>
</g>
<!-- Node5 -->
<g id="node5" class="node">
<title>Node5</title>
<g id="a_node5"><a xlink:href="class_log.html#add7e611cd3267d3fd5dae017e3aeef67" target="_top" xlink:title="Write infomation to the log file.">
<polygon fill="white" stroke="black" points="291.5,-133.5 291.5,-152.5 350.5,-152.5 350.5,-133.5 291.5,-133.5"/>
<text text-anchor="middle" x="321" y="-140.5" font-family="Helvetica,sans-Serif" font-size="10.00">Log::info</text>
</a>
</g>
</g>
<!-- Node1&#45;&gt;Node5 -->
<g id="edge4" class="edge">
<title>Node1&#45;&gt;Node5</title>
<path fill="none" stroke="midnightblue" d="M101.06,-143C153.04,-143 233.66,-143 281.2,-143"/>
<polygon fill="midnightblue" stroke="midnightblue" points="281.39,-146.5 291.39,-143 281.39,-139.5 281.39,-146.5"/>
</g>
<!-- Node6 -->
<g id="node6" class="node">
<title>Node6</title>
<g id="a_node6"><a xlink:href="struct_macro.html#a94360db4bd4a0a2516339dadc6c37bbd" target="_top" xlink:title="RegEx replace.">
<polygon fill="white" stroke="black" points="140.5,-95.5 140.5,-114.5 229.5,-114.5 229.5,-95.5 140.5,-95.5"/>
<text text-anchor="middle" x="185" y="-102.5" font-family="Helvetica,sans-Serif" font-size="10.00">Macro::replace</text>
</a>
</g>
</g>
<!-- Node1&#45;&gt;Node6 -->
<g id="edge6" class="edge">
<title>Node1&#45;&gt;Node6</title>
<path fill="none" stroke="midnightblue" d="M84.94,-133.41C101.88,-128.55 122.66,-122.59 140.81,-117.39"/>
<polygon fill="midnightblue" stroke="midnightblue" points="141.93,-120.71 150.58,-114.59 140,-113.98 141.93,-120.71"/>
</g>
<!-- Node8 -->
<g id="node8" class="node">
<title>Node8</title>
<g id="a_node8"><a xlink:href="namespacemmce.html#ad4a160832ef9fad47c531ece39752208" target="_top" xlink:title="Change a number to string.">
<polygon fill="white" stroke="black" points="137,-57.5 137,-76.5 233,-76.5 233,-57.5 137,-57.5"/>
<text text-anchor="middle" x="185" y="-64.5" font-family="Helvetica,sans-Serif" font-size="10.00">mmce::to_string</text>
</a>
</g>
</g>
<!-- Node1&#45;&gt;Node8 -->
<g id="edge10" class="edge">
<title>Node1&#45;&gt;Node8</title>
<path fill="none" stroke="midnightblue" d="M64.03,-133.46C80.26,-121.38 109.71,-100.42 137,-86 140.57,-84.11 144.38,-82.29 148.22,-80.57"/>
<polygon fill="midnightblue" stroke="midnightblue" points="149.88,-83.66 157.71,-76.53 147.14,-77.22 149.88,-83.66"/>
</g>
<!-- Node9 -->
<g id="node9" class="node">
<title>Node9</title>
<g id="a_node9"><a xlink:href="struct_x_y___size.html#a4a5192df22d9d6bc1793eabc6ae1ffa0" target="_top" xlink:title=" ">
<polygon fill="white" stroke="black" points="148.5,-19.5 148.5,-38.5 221.5,-38.5 221.5,-19.5 148.5,-19.5"/>
<text text-anchor="middle" x="185" y="-26.5" font-family="Helvetica,sans-Serif" font-size="10.00">XY_Size::xy</text>
</a>
</g>
</g>
<!-- Node1&#45;&gt;Node9 -->
<g id="edge11" class="edge">
<title>Node1&#45;&gt;Node9</title>
<path fill="none" stroke="midnightblue" d="M57.91,-133.33C70.82,-114.52 101.74,-72.7 137,-48 139.51,-46.24 142.22,-44.61 145.01,-43.1"/>
<polygon fill="midnightblue" stroke="midnightblue" points="146.62,-46.2 154.11,-38.7 143.58,-39.9 146.62,-46.2"/>
</g>
<!-- Node2&#45;&gt;Node3 -->
<g id="edge2" class="edge">
<title>Node2&#45;&gt;Node3</title>
<path fill="none" stroke="midnightblue" d="M218.1,-225.71C236.16,-229.48 258.93,-234.24 278.35,-238.3"/>
<polygon fill="midnightblue" stroke="midnightblue" points="277.66,-241.73 288.17,-240.35 279.09,-234.88 277.66,-241.73"/>
</g>
<!-- Node2&#45;&gt;Node4 -->
<g id="edge3" class="edge">
<title>Node2&#45;&gt;Node4</title>
<path fill="none" stroke="midnightblue" d="M218.1,-214.45C236.08,-211.9 258.72,-208.69 278.09,-205.94"/>
<polygon fill="midnightblue" stroke="midnightblue" points="278.76,-209.38 288.17,-204.51 277.77,-202.45 278.76,-209.38"/>
</g>
<!-- Node6&#45;&gt;Node5 -->
<g id="edge7" class="edge">
<title>Node6&#45;&gt;Node5</title>
<path fill="none" stroke="midnightblue" d="M219.81,-114.59C238.56,-119.91 261.95,-126.54 281.42,-132.06"/>
<polygon fill="midnightblue" stroke="midnightblue" points="280.62,-135.47 291.19,-134.83 282.53,-128.74 280.62,-135.47"/>
</g>
<!-- Node7 -->
<g id="node7" class="node">
<title>Node7</title>
<g id="a_node7"><a xlink:href="struct_macro.html#a0a64263ca28e6e30160145a33ed5d77f" target="_top" xlink:title="Get the name of Type.">
<polygon fill="white" stroke="black" points="269,-95.5 269,-114.5 373,-114.5 373,-95.5 269,-95.5"/>
<text text-anchor="middle" x="321" y="-102.5" font-family="Helvetica,sans-Serif" font-size="10.00">Macro::typeName</text>
</a>
</g>
</g>
<!-- Node6&#45;&gt;Node7 -->
<g id="edge8" class="edge">
<title>Node6&#45;&gt;Node7</title>
<path fill="none" stroke="midnightblue" d="M229.51,-105C238.81,-105 248.8,-105 258.63,-105"/>
<polygon fill="midnightblue" stroke="midnightblue" points="258.78,-108.5 268.78,-105 258.78,-101.5 258.78,-108.5"/>
</g>
<!-- Node10 -->
<g id="node10" class="node">
<title>Node10</title>
<g id="a_node10"><a xlink:href="class_log.html#ac7147942832455398ad289b706a02616" target="_top" xlink:title="Write error message to the log file.">
<polygon fill="white" stroke="black" points="294.5,-38.5 294.5,-57.5 347.5,-57.5 347.5,-38.5 294.5,-38.5"/>
<text text-anchor="middle" x="321" y="-45.5" font-family="Helvetica,sans-Serif" font-size="10.00">Log::err</text>
</a>
</g>
</g>
<!-- Node9&#45;&gt;Node10 -->
<g id="edge12" class="edge">
<title>Node9&#45;&gt;Node10</title>
<path fill="none" stroke="midnightblue" d="M221.56,-34.04C241.01,-36.8 265.04,-40.21 284.49,-42.96"/>
<polygon fill="midnightblue" stroke="midnightblue" points="284.08,-46.44 294.48,-44.38 285.07,-39.51 284.08,-46.44"/>
</g>
<!-- Node11 -->
<g id="node11" class="node">
<title>Node11</title>
<g id="a_node11"><a xlink:href="class_term.html#abd955a8def100354b03e33911c3b21f8" target="_top" xlink:title="Print error message.">
<polygon fill="white" stroke="black" points="286,-0.5 286,-19.5 356,-19.5 356,-0.5 286,-0.5"/>
<text text-anchor="middle" x="321" y="-7.5" font-family="Helvetica,sans-Serif" font-size="10.00">Term::error</text>
</a>
</g>
</g>
<!-- Node9&#45;&gt;Node11 -->
<g id="edge13" class="edge">
<title>Node9&#45;&gt;Node11</title>
<path fill="none" stroke="midnightblue" d="M221.56,-23.96C238.15,-21.61 258.07,-18.78 275.64,-16.29"/>
<polygon fill="midnightblue" stroke="midnightblue" points="276.26,-19.74 285.67,-14.87 275.27,-12.81 276.26,-19.74"/>
</g>
</g>
</svg>
