<?xml version="1.0" encoding="UTF-8" standalone="no"?>
<!DOCTYPE svg PUBLIC "-//W3C//DTD SVG 1.1//EN"
 "http://www.w3.org/Graphics/SVG/1.1/DTD/svg11.dtd">
<!-- Generated by graphviz version 2.43.0 (0)
 -->
<!-- Title: Macro::typeName Pages: 1 -->
<svg width="619pt" height="47pt"
 viewBox="0.00 0.00 619.00 47.00" xmlns="http://www.w3.org/2000/svg" xmlns:xlink="http://www.w3.org/1999/xlink">
<g id="graph0" class="graph" transform="scale(1 1) rotate(0) translate(4 43)">
<title>Macro::typeName</title>
<polygon fill="white" stroke="transparent" points="-4,4 -4,-43 615,-43 615,4 -4,4"/>
<!-- Node1 -->
<g id="node1" class="node">
<title>Node1</title>
<g id="a_node1"><a xlink:title="Get the name of Type.">
<polygon fill="#bfbfbf" stroke="black" points="507,-19.5 507,-38.5 611,-38.5 611,-19.5 507,-19.5"/>
<text text-anchor="middle" x="559" y="-26.5" font-family="Helvetica,sans-Serif" font-size="10.00">Macro::typeName</text>
</a>
</g>
</g>
<!-- Node2 -->
<g id="node2" class="node">
<title>Node2</title>
<g id="a_node2"><a xlink:href="struct_macro.html#a94360db4bd4a0a2516339dadc6c37bbd" target="_top" xlink:title="RegEx replace.">
<polygon fill="white" stroke="black" points="382,-19.5 382,-38.5 471,-38.5 471,-19.5 382,-19.5"/>
<text text-anchor="middle" x="426.5" y="-26.5" font-family="Helvetica,sans-Serif" font-size="10.00">Macro::replace</text>
</a>
</g>
</g>
<!-- Node1&#45;&gt;Node2 -->
<g id="edge1" class="edge">
<title>Node1&#45;&gt;Node2</title>
<path fill="none" stroke="midnightblue" d="M496.52,-29C488.03,-29 479.46,-29 471.37,-29"/>
<polygon fill="midnightblue" stroke="midnightblue" points="496.8,-32.5 506.8,-29 496.8,-25.5 496.8,-32.5"/>
</g>
<!-- Node3 -->
<g id="node3" class="node">
<title>Node3</title>
<g id="a_node3"><a xlink:href="struct_macro.html#ac0ddd588c300108ca443b10316d99877" target="_top" xlink:title=" ">
<polygon fill="white" stroke="black" points="90,-19.5 90,-38.5 209,-38.5 209,-19.5 90,-19.5"/>
<text text-anchor="middle" x="149.5" y="-26.5" font-family="Helvetica,sans-Serif" font-size="10.00">Macro::replaceMacro</text>
</a>
</g>
</g>
<!-- Node2&#45;&gt;Node3 -->
<g id="edge2" class="edge">
<title>Node2&#45;&gt;Node3</title>
<path fill="none" stroke="midnightblue" d="M371.69,-29C324.95,-29 257.37,-29 209.23,-29"/>
<polygon fill="midnightblue" stroke="midnightblue" points="371.93,-32.5 381.93,-29 371.93,-25.5 371.93,-32.5"/>
</g>
<!-- Node5 -->
<g id="node5" class="node">
<title>Node5</title>
<g id="a_node5"><a xlink:href="struct_macro.html#aee7d20953d25a4e783b8e897d78c4bf7" target="_top" xlink:title=" ">
<polygon fill="white" stroke="black" points="245,-0.5 245,-19.5 346,-19.5 346,-0.5 245,-0.5"/>
<text text-anchor="middle" x="295.5" y="-7.5" font-family="Helvetica,sans-Serif" font-size="10.00">Macro::replaceXY</text>
</a>
</g>
</g>
<!-- Node2&#45;&gt;Node5 -->
<g id="edge4" class="edge">
<title>Node2&#45;&gt;Node5</title>
<path fill="none" stroke="midnightblue" d="M371.73,-21.08C363.33,-19.84 354.67,-18.57 346.35,-17.34"/>
<polygon fill="midnightblue" stroke="midnightblue" points="371.42,-24.57 381.83,-22.57 372.44,-17.65 371.42,-24.57"/>
</g>
<!-- Node4 -->
<g id="node4" class="node">
<title>Node4</title>
<g id="a_node4"><a xlink:href="class_alg.html#a45e536cf797bba52c851877371ea64c5" target="_top" xlink:title=" ">
<polygon fill="white" stroke="black" points="0,-19.5 0,-38.5 54,-38.5 54,-19.5 0,-19.5"/>
<text text-anchor="middle" x="27" y="-26.5" font-family="Helvetica,sans-Serif" font-size="10.00">Alg::Alg</text>
</a>
</g>
</g>
<!-- Node3&#45;&gt;Node4 -->
<g id="edge3" class="edge">
<title>Node3&#45;&gt;Node4</title>
<path fill="none" stroke="midnightblue" d="M79.49,-29C70.55,-29 61.87,-29 54.26,-29"/>
<polygon fill="midnightblue" stroke="midnightblue" points="79.66,-32.5 89.66,-29 79.66,-25.5 79.66,-32.5"/>
</g>
<!-- Node5&#45;&gt;Node3 -->
<g id="edge5" class="edge">
<title>Node5&#45;&gt;Node3</title>
<path fill="none" stroke="midnightblue" d="M235.02,-17.85C226.45,-18.98 217.63,-20.14 209.08,-21.27"/>
<polygon fill="midnightblue" stroke="midnightblue" points="235.49,-21.32 244.94,-16.54 234.57,-14.38 235.49,-21.32"/>
</g>
</g>
</svg>
