<?xml version="1.0" encoding="UTF-8" standalone="no"?>
<!DOCTYPE svg PUBLIC "-//W3C//DTD SVG 1.1//EN"
 "http://www.w3.org/Graphics/SVG/1.1/DTD/svg11.dtd">
<!-- Generated by graphviz version 2.43.0 (0)
 -->
<!-- Title: include/style.h Pages: 1 -->
<svg width="994pt" height="319pt"
 viewBox="0.00 0.00 994.00 319.00" xmlns="http://www.w3.org/2000/svg" xmlns:xlink="http://www.w3.org/1999/xlink">
<g id="graph0" class="graph" transform="scale(1 1) rotate(0) translate(4 315)">
<title>include/style.h</title>
<polygon fill="white" stroke="transparent" points="-4,4 -4,-315 990,-315 990,4 -4,4"/>
<!-- Node1 -->
<g id="node1" class="node">
<title>Node1</title>
<g id="a_node1"><a xlink:title="Format Output File.">
<polygon fill="#bfbfbf" stroke="black" points="491,-291.5 491,-310.5 579,-310.5 579,-291.5 491,-291.5"/>
<text text-anchor="middle" x="535" y="-298.5" font-family="Helvetica,sans-Serif" font-size="10.00">include/style.h</text>
</a>
</g>
</g>
<!-- Node2 -->
<g id="node2" class="node">
<title>Node2</title>
<g id="a_node2"><a xlink:title=" ">
<polygon fill="white" stroke="#bfbfbf" points="0,-6 0,-25 60,-25 60,-6 0,-6"/>
<text text-anchor="middle" x="30" y="-13" font-family="Helvetica,sans-Serif" font-size="10.00">iostream</text>
</a>
</g>
</g>
<!-- Node1&#45;&gt;Node2 -->
<g id="edge1" class="edge">
<title>Node1&#45;&gt;Node2</title>
<path fill="none" stroke="midnightblue" d="M490.93,-300.24C363.23,-299.75 2,-289.56 2,-190 2,-190 2,-190 2,-132 2,-96.71 14.5,-57.03 22.79,-34.57"/>
<polygon fill="midnightblue" stroke="midnightblue" points="26.14,-35.61 26.45,-25.02 19.6,-33.1 26.14,-35.61"/>
</g>
<!-- Node3 -->
<g id="node3" class="node">
<title>Node3</title>
<g id="a_node3"><a xlink:title=" ">
<polygon fill="white" stroke="#bfbfbf" points="421,-6 421,-25 465,-25 465,-6 421,-6"/>
<text text-anchor="middle" x="443" y="-13" font-family="Helvetica,sans-Serif" font-size="10.00">string</text>
</a>
</g>
</g>
<!-- Node1&#45;&gt;Node3 -->
<g id="edge2" class="edge">
<title>Node1&#45;&gt;Node3</title>
<path fill="none" stroke="midnightblue" d="M535,-291.44C535,-272.94 535,-227.81 535,-190 535,-190 535,-190 535,-132 535,-87.55 492.79,-50.32 465.55,-30.93"/>
<polygon fill="midnightblue" stroke="midnightblue" points="467.2,-27.82 456.97,-25.05 463.24,-33.59 467.2,-27.82"/>
</g>
<!-- Node4 -->
<g id="node4" class="node">
<title>Node4</title>
<g id="a_node4"><a xlink:title=" ">
<polygon fill="white" stroke="#bfbfbf" points="601.5,-235.5 601.5,-254.5 706.5,-254.5 706.5,-235.5 601.5,-235.5"/>
<text text-anchor="middle" x="654" y="-242.5" font-family="Helvetica,sans-Serif" font-size="10.00">boost/process.hpp</text>
</a>
</g>
</g>
<!-- Node1&#45;&gt;Node4 -->
<g id="edge3" class="edge">
<title>Node1&#45;&gt;Node4</title>
<path fill="none" stroke="midnightblue" d="M553.86,-291.44C573.27,-282.64 603.73,-268.81 625.96,-258.72"/>
<polygon fill="midnightblue" stroke="midnightblue" points="627.57,-261.84 635.23,-254.52 624.68,-255.46 627.57,-261.84"/>
</g>
<!-- Node5 -->
<g id="node5" class="node">
<title>Node5</title>
<g id="a_node5"><a xlink:href="error__code_8h.html" target="_top" xlink:title="Error Codes (Including Warnings)">
<polygon fill="white" stroke="black" points="306.5,-235.5 306.5,-254.5 383.5,-254.5 383.5,-235.5 306.5,-235.5"/>
<text text-anchor="middle" x="345" y="-242.5" font-family="Helvetica,sans-Serif" font-size="10.00">error_code.h</text>
</a>
</g>
</g>
<!-- Node1&#45;&gt;Node5 -->
<g id="edge4" class="edge">
<title>Node1&#45;&gt;Node5</title>
<path fill="none" stroke="midnightblue" d="M504.89,-291.44C472.37,-282.2 420.42,-267.44 384.61,-257.26"/>
<polygon fill="midnightblue" stroke="midnightblue" points="385.54,-253.88 374.97,-254.52 383.63,-260.62 385.54,-253.88"/>
</g>
<!-- Node11 -->
<g id="node11" class="node">
<title>Node11</title>
<g id="a_node11"><a xlink:href="utils_8h.html" target="_top" xlink:title="Utilities.">
<polygon fill="white" stroke="black" points="563.5,-67.5 563.5,-86.5 610.5,-86.5 610.5,-67.5 563.5,-67.5"/>
<text text-anchor="middle" x="587" y="-74.5" font-family="Helvetica,sans-Serif" font-size="10.00">utils.h</text>
</a>
</g>
</g>
<!-- Node1&#45;&gt;Node11 -->
<g id="edge31" class="edge">
<title>Node1&#45;&gt;Node11</title>
<path fill="none" stroke="midnightblue" d="M537.92,-291.44C540.92,-282.44 545.64,-267.82 549,-255 563.99,-197.87 577.45,-129.24 583.55,-96.77"/>
<polygon fill="midnightblue" stroke="midnightblue" points="587.06,-97.01 585.45,-86.54 580.18,-95.73 587.06,-97.01"/>
</g>
<!-- Node5&#45;&gt;Node2 -->
<g id="edge28" class="edge">
<title>Node5&#45;&gt;Node2</title>
<path fill="none" stroke="midnightblue" d="M306.36,-242.2C265.31,-238.72 199.86,-228.57 152,-199 96.96,-164.99 92.35,-142.44 59,-87 49,-70.37 40.94,-49.66 35.88,-35"/>
<polygon fill="midnightblue" stroke="midnightblue" points="39.08,-33.53 32.61,-25.14 32.43,-35.73 39.08,-33.53"/>
</g>
<!-- Node5&#45;&gt;Node3 -->
<g id="edge29" class="edge">
<title>Node5&#45;&gt;Node3</title>
<path fill="none" stroke="midnightblue" d="M383.6,-235.64C405.1,-229.08 430.74,-217.82 447,-199 486.4,-153.4 495.98,-124.52 478,-67 474.05,-54.37 465.71,-42.13 458.17,-32.86"/>
<polygon fill="midnightblue" stroke="midnightblue" points="460.79,-30.54 451.61,-25.25 455.49,-35.11 460.79,-30.54"/>
</g>
<!-- Node6 -->
<g id="node6" class="node">
<title>Node6</title>
<g id="a_node6"><a xlink:href="log__global_8h.html" target="_top" xlink:title="Global Access of Log.">
<polygon fill="white" stroke="black" points="186,-179.5 186,-198.5 262,-198.5 262,-179.5 186,-179.5"/>
<text text-anchor="middle" x="224" y="-186.5" font-family="Helvetica,sans-Serif" font-size="10.00">log_global.h</text>
</a>
</g>
</g>
<!-- Node5&#45;&gt;Node6 -->
<g id="edge5" class="edge">
<title>Node5&#45;&gt;Node6</title>
<path fill="none" stroke="midnightblue" d="M325.83,-235.44C306.09,-226.64 275.11,-212.81 252.51,-202.72"/>
<polygon fill="midnightblue" stroke="midnightblue" points="253.64,-199.4 243.08,-198.52 250.79,-205.79 253.64,-199.4"/>
</g>
<!-- Node8 -->
<g id="node8" class="node">
<title>Node8</title>
<g id="a_node8"><a xlink:href="meta_8h.html" target="_top" xlink:title="mmCEsim meta data">
<polygon fill="white" stroke="black" points="417.5,-67.5 417.5,-86.5 468.5,-86.5 468.5,-67.5 417.5,-67.5"/>
<text text-anchor="middle" x="443" y="-74.5" font-family="Helvetica,sans-Serif" font-size="10.00">meta.h</text>
</a>
</g>
</g>
<!-- Node5&#45;&gt;Node8 -->
<g id="edge25" class="edge">
<title>Node5&#45;&gt;Node8</title>
<path fill="none" stroke="midnightblue" d="M375.97,-235.42C394.44,-228.63 416.63,-217.2 429,-199 450.03,-168.06 448.68,-122.1 445.84,-96.65"/>
<polygon fill="midnightblue" stroke="midnightblue" points="449.28,-95.99 444.5,-86.53 442.34,-96.91 449.28,-95.99"/>
</g>
<!-- Node9 -->
<g id="node9" class="node">
<title>Node9</title>
<g id="a_node9"><a xlink:href="term_8h.html" target="_top" xlink:title="Terminal Color and Style Control.">
<polygon fill="white" stroke="black" points="68.5,-67.5 68.5,-86.5 117.5,-86.5 117.5,-67.5 68.5,-67.5"/>
<text text-anchor="middle" x="93" y="-74.5" font-family="Helvetica,sans-Serif" font-size="10.00">term.h</text>
</a>
</g>
</g>
<!-- Node5&#45;&gt;Node9 -->
<g id="edge26" class="edge">
<title>Node5&#45;&gt;Node9</title>
<path fill="none" stroke="midnightblue" d="M306.46,-241.25C270.18,-237.01 215.78,-226.27 177,-199 138.96,-172.25 112.57,-122.44 100.48,-95.84"/>
<polygon fill="midnightblue" stroke="midnightblue" points="103.65,-94.33 96.43,-86.58 97.23,-97.14 103.65,-94.33"/>
</g>
<!-- Node22 -->
<g id="node22" class="node">
<title>Node22</title>
<g id="a_node22"><a xlink:title=" ">
<polygon fill="white" stroke="#bfbfbf" points="280,-179.5 280,-198.5 332,-198.5 332,-179.5 280,-179.5"/>
<text text-anchor="middle" x="306" y="-186.5" font-family="Helvetica,sans-Serif" font-size="10.00">cassert</text>
</a>
</g>
</g>
<!-- Node5&#45;&gt;Node22 -->
<g id="edge27" class="edge">
<title>Node5&#45;&gt;Node22</title>
<path fill="none" stroke="midnightblue" d="M338.56,-235.08C333.05,-227.46 324.97,-216.26 318.24,-206.94"/>
<polygon fill="midnightblue" stroke="midnightblue" points="321.01,-204.81 312.32,-198.75 315.34,-208.91 321.01,-204.81"/>
</g>
<!-- Node23 -->
<g id="node23" class="node">
<title>Node23</title>
<g id="a_node23"><a xlink:title=" ">
<polygon fill="white" stroke="#bfbfbf" points="350.5,-179.5 350.5,-198.5 419.5,-198.5 419.5,-179.5 350.5,-179.5"/>
<text text-anchor="middle" x="385" y="-186.5" font-family="Helvetica,sans-Serif" font-size="10.00">type_traits</text>
</a>
</g>
</g>
<!-- Node5&#45;&gt;Node23 -->
<g id="edge30" class="edge">
<title>Node5&#45;&gt;Node23</title>
<path fill="none" stroke="midnightblue" d="M351.61,-235.08C357.26,-227.46 365.54,-216.26 372.45,-206.94"/>
<polygon fill="midnightblue" stroke="midnightblue" points="375.38,-208.87 378.52,-198.75 369.75,-204.7 375.38,-208.87"/>
</g>
<!-- Node7 -->
<g id="node7" class="node">
<title>Node7</title>
<g id="a_node7"><a xlink:href="include_2log_8h.html" target="_top" xlink:title="Log Utilities.">
<polygon fill="white" stroke="black" points="242.5,-123.5 242.5,-142.5 283.5,-142.5 283.5,-123.5 242.5,-123.5"/>
<text text-anchor="middle" x="263" y="-130.5" font-family="Helvetica,sans-Serif" font-size="10.00">log.h</text>
</a>
</g>
</g>
<!-- Node6&#45;&gt;Node7 -->
<g id="edge6" class="edge">
<title>Node6&#45;&gt;Node7</title>
<path fill="none" stroke="midnightblue" d="M230.44,-179.08C235.95,-171.46 244.03,-160.26 250.76,-150.94"/>
<polygon fill="midnightblue" stroke="midnightblue" points="253.66,-152.91 256.68,-142.75 247.99,-148.81 253.66,-152.91"/>
</g>
<!-- Node7&#45;&gt;Node8 -->
<g id="edge7" class="edge">
<title>Node7&#45;&gt;Node8</title>
<path fill="none" stroke="midnightblue" d="M283.65,-125.81C313.87,-116.74 370.55,-99.73 407.53,-88.64"/>
<polygon fill="midnightblue" stroke="midnightblue" points="408.82,-91.91 417.4,-85.68 406.81,-85.2 408.82,-91.91"/>
</g>
<!-- Node7&#45;&gt;Node9 -->
<g id="edge9" class="edge">
<title>Node7&#45;&gt;Node9</title>
<path fill="none" stroke="midnightblue" d="M242.49,-125.49C213.96,-116.42 161.91,-99.89 127.38,-88.92"/>
<polygon fill="midnightblue" stroke="midnightblue" points="128.3,-85.54 117.71,-85.85 126.18,-92.21 128.3,-85.54"/>
</g>
<!-- Node7&#45;&gt;Node11 -->
<g id="edge13" class="edge">
<title>Node7&#45;&gt;Node11</title>
<path fill="none" stroke="midnightblue" d="M283.76,-128.54C338.38,-119.44 486.48,-94.75 553.39,-83.6"/>
<polygon fill="midnightblue" stroke="midnightblue" points="554.11,-87.03 563.4,-81.93 552.96,-80.12 554.11,-87.03"/>
</g>
<!-- Node18 -->
<g id="node18" class="node">
<title>Node18</title>
<g id="a_node18"><a xlink:title=" ">
<polygon fill="white" stroke="#bfbfbf" points="207,-67.5 207,-86.5 251,-86.5 251,-67.5 207,-67.5"/>
<text text-anchor="middle" x="229" y="-74.5" font-family="Helvetica,sans-Serif" font-size="10.00">ctime</text>
</a>
</g>
</g>
<!-- Node7&#45;&gt;Node18 -->
<g id="edge21" class="edge">
<title>Node7&#45;&gt;Node18</title>
<path fill="none" stroke="midnightblue" d="M257.39,-123.08C252.63,-115.53 245.68,-104.49 239.85,-95.23"/>
<polygon fill="midnightblue" stroke="midnightblue" points="242.8,-93.35 234.51,-86.75 236.88,-97.08 242.8,-93.35"/>
</g>
<!-- Node19 -->
<g id="node19" class="node">
<title>Node19</title>
<g id="a_node19"><a xlink:title=" ">
<polygon fill="white" stroke="#bfbfbf" points="269.5,-67.5 269.5,-86.5 324.5,-86.5 324.5,-67.5 269.5,-67.5"/>
<text text-anchor="middle" x="297" y="-74.5" font-family="Helvetica,sans-Serif" font-size="10.00">fstream</text>
</a>
</g>
</g>
<!-- Node7&#45;&gt;Node19 -->
<g id="edge22" class="edge">
<title>Node7&#45;&gt;Node19</title>
<path fill="none" stroke="midnightblue" d="M268.61,-123.08C273.37,-115.53 280.32,-104.49 286.15,-95.23"/>
<polygon fill="midnightblue" stroke="midnightblue" points="289.12,-97.08 291.49,-86.75 283.2,-93.35 289.12,-97.08"/>
</g>
<!-- Node20 -->
<g id="node20" class="node">
<title>Node20</title>
<g id="a_node20"><a xlink:title=" ">
<polygon fill="white" stroke="#bfbfbf" points="343,-67.5 343,-86.5 399,-86.5 399,-67.5 343,-67.5"/>
<text text-anchor="middle" x="371" y="-74.5" font-family="Helvetica,sans-Serif" font-size="10.00">iomanip</text>
</a>
</g>
</g>
<!-- Node7&#45;&gt;Node20 -->
<g id="edge23" class="edge">
<title>Node7&#45;&gt;Node20</title>
<path fill="none" stroke="midnightblue" d="M280.35,-123.32C297.67,-114.66 324.52,-101.24 344.5,-91.25"/>
<polygon fill="midnightblue" stroke="midnightblue" points="346.31,-94.26 353.69,-86.65 343.18,-88 346.31,-94.26"/>
</g>
<!-- Node21 -->
<g id="node21" class="node">
<title>Node21</title>
<g id="a_node21"><a xlink:title=" ">
<polygon fill="white" stroke="#bfbfbf" points="135.5,-67.5 135.5,-86.5 188.5,-86.5 188.5,-67.5 135.5,-67.5"/>
<text text-anchor="middle" x="162" y="-74.5" font-family="Helvetica,sans-Serif" font-size="10.00">spy.hpp</text>
</a>
</g>
</g>
<!-- Node7&#45;&gt;Node21 -->
<g id="edge24" class="edge">
<title>Node7&#45;&gt;Node21</title>
<path fill="none" stroke="midnightblue" d="M246.77,-123.32C230.65,-114.7 205.7,-101.36 187.04,-91.39"/>
<polygon fill="midnightblue" stroke="midnightblue" points="188.66,-88.28 178.19,-86.65 185.36,-94.46 188.66,-88.28"/>
</g>
<!-- Node8&#45;&gt;Node3 -->
<g id="edge8" class="edge">
<title>Node8&#45;&gt;Node3</title>
<path fill="none" stroke="midnightblue" d="M443,-67.48C443,-59.08 443,-45.98 443,-35.16"/>
<polygon fill="midnightblue" stroke="midnightblue" points="446.5,-35.01 443,-25.01 439.5,-35.01 446.5,-35.01"/>
</g>
<!-- Node9&#45;&gt;Node2 -->
<g id="edge11" class="edge">
<title>Node9&#45;&gt;Node2</title>
<path fill="none" stroke="midnightblue" d="M83.97,-67.48C74.24,-58.28 58.54,-43.46 46.58,-32.16"/>
<polygon fill="midnightblue" stroke="midnightblue" points="48.68,-29.33 39.01,-25.01 43.88,-34.42 48.68,-29.33"/>
</g>
<!-- Node9&#45;&gt;Node3 -->
<g id="edge12" class="edge">
<title>Node9&#45;&gt;Node3</title>
<path fill="none" stroke="midnightblue" d="M117.8,-68.93C120.55,-68.23 123.33,-67.58 126,-67 229.34,-44.74 353.59,-27.74 411.02,-20.43"/>
<polygon fill="midnightblue" stroke="midnightblue" points="411.46,-23.9 420.94,-19.18 410.58,-16.96 411.46,-23.9"/>
</g>
<!-- Node10 -->
<g id="node10" class="node">
<title>Node10</title>
<g id="a_node10"><a xlink:title=" ">
<polygon fill="white" stroke="#bfbfbf" points="78.5,-6 78.5,-25 127.5,-25 127.5,-6 78.5,-6"/>
<text text-anchor="middle" x="103" y="-13" font-family="Helvetica,sans-Serif" font-size="10.00">cstdlib</text>
</a>
</g>
</g>
<!-- Node9&#45;&gt;Node10 -->
<g id="edge10" class="edge">
<title>Node9&#45;&gt;Node10</title>
<path fill="none" stroke="midnightblue" d="M94.43,-67.48C95.84,-59.08 98.05,-45.98 99.86,-35.16"/>
<polygon fill="midnightblue" stroke="midnightblue" points="103.36,-35.45 101.57,-25.01 96.46,-34.29 103.36,-35.45"/>
</g>
<!-- Node11&#45;&gt;Node3 -->
<g id="edge18" class="edge">
<title>Node11&#45;&gt;Node3</title>
<path fill="none" stroke="midnightblue" d="M564.33,-67.42C541.4,-58.64 505.01,-44.41 474,-31 472.8,-30.48 471.58,-29.95 470.36,-29.4"/>
<polygon fill="midnightblue" stroke="midnightblue" points="471.5,-26.08 460.95,-25.11 468.6,-32.45 471.5,-26.08"/>
</g>
<!-- Node12 -->
<g id="node12" class="node">
<title>Node12</title>
<g id="a_node12"><a xlink:title=" ">
<polygon fill="white" stroke="#bfbfbf" points="782,-6 782,-25 846,-25 846,-6 782,-6"/>
<text text-anchor="middle" x="814" y="-13" font-family="Helvetica,sans-Serif" font-size="10.00">algorithm</text>
</a>
</g>
</g>
<!-- Node11&#45;&gt;Node12 -->
<g id="edge14" class="edge">
<title>Node11&#45;&gt;Node12</title>
<path fill="none" stroke="midnightblue" d="M610.7,-71.08C646.24,-63.53 715.35,-48.12 773,-31 775.78,-30.17 778.65,-29.27 781.52,-28.33"/>
<polygon fill="midnightblue" stroke="midnightblue" points="782.81,-31.59 791.15,-25.05 780.56,-24.96 782.81,-31.59"/>
</g>
<!-- Node13 -->
<g id="node13" class="node">
<title>Node13</title>
<g id="a_node13"><a xlink:title=" ">
<polygon fill="white" stroke="#bfbfbf" points="864.5,-6 864.5,-25 913.5,-25 913.5,-6 864.5,-6"/>
<text text-anchor="middle" x="889" y="-13" font-family="Helvetica,sans-Serif" font-size="10.00">cctype</text>
</a>
</g>
</g>
<!-- Node11&#45;&gt;Node13 -->
<g id="edge15" class="edge">
<title>Node11&#45;&gt;Node13</title>
<path fill="none" stroke="midnightblue" d="M610.72,-73.92C657.98,-69.36 766.93,-56.78 855,-31 857.15,-30.37 859.35,-29.64 861.54,-28.85"/>
<polygon fill="midnightblue" stroke="midnightblue" points="862.93,-32.07 870.94,-25.14 860.35,-25.56 862.93,-32.07"/>
</g>
<!-- Node14 -->
<g id="node14" class="node">
<title>Node14</title>
<g id="a_node14"><a xlink:title=" ">
<polygon fill="white" stroke="#bfbfbf" points="932,-6 932,-25 986,-25 986,-6 932,-6"/>
<text text-anchor="middle" x="959" y="-13" font-family="Helvetica,sans-Serif" font-size="10.00">random</text>
</a>
</g>
</g>
<!-- Node11&#45;&gt;Node14 -->
<g id="edge16" class="edge">
<title>Node11&#45;&gt;Node14</title>
<path fill="none" stroke="midnightblue" d="M610.61,-74.86C666.01,-71.76 808.33,-61.26 923,-31 925.51,-30.34 928.08,-29.55 930.63,-28.68"/>
<polygon fill="midnightblue" stroke="midnightblue" points="932.11,-31.87 940.24,-25.08 929.65,-25.31 932.11,-31.87"/>
</g>
<!-- Node15 -->
<g id="node15" class="node">
<title>Node15</title>
<g id="a_node15"><a xlink:title=" ">
<polygon fill="white" stroke="#bfbfbf" points="483,-6 483,-25 539,-25 539,-6 483,-6"/>
<text text-anchor="middle" x="511" y="-13" font-family="Helvetica,sans-Serif" font-size="10.00">sstream</text>
</a>
</g>
</g>
<!-- Node11&#45;&gt;Node15 -->
<g id="edge17" class="edge">
<title>Node11&#45;&gt;Node15</title>
<path fill="none" stroke="midnightblue" d="M576.11,-67.48C564.03,-58.02 544.33,-42.6 529.76,-31.19"/>
<polygon fill="midnightblue" stroke="midnightblue" points="531.9,-28.42 521.87,-25.01 527.59,-33.93 531.9,-28.42"/>
</g>
<!-- Node16 -->
<g id="node16" class="node">
<title>Node16</title>
<g id="a_node16"><a xlink:title=" ">
<polygon fill="white" stroke="#bfbfbf" points="557.5,-6 557.5,-25 604.5,-25 604.5,-6 557.5,-6"/>
<text text-anchor="middle" x="581" y="-13" font-family="Helvetica,sans-Serif" font-size="10.00">vector</text>
</a>
</g>
</g>
<!-- Node11&#45;&gt;Node16 -->
<g id="edge19" class="edge">
<title>Node11&#45;&gt;Node16</title>
<path fill="none" stroke="midnightblue" d="M586.14,-67.48C585.29,-59.08 583.97,-45.98 582.88,-35.16"/>
<polygon fill="midnightblue" stroke="midnightblue" points="586.34,-34.61 581.86,-25.01 579.38,-35.31 586.34,-34.61"/>
</g>
<!-- Node17 -->
<g id="node17" class="node">
<title>Node17</title>
<g id="a_node17"><a xlink:title=" ">
<polygon fill="white" stroke="#bfbfbf" points="622.5,-0.5 622.5,-30.5 763.5,-30.5 763.5,-0.5 622.5,-0.5"/>
<text text-anchor="start" x="630.5" y="-18.5" font-family="Helvetica,sans-Serif" font-size="10.00">boost/dll/runtime_symbol</text>
<text text-anchor="middle" x="693" y="-7.5" font-family="Helvetica,sans-Serif" font-size="10.00">_info.hpp</text>
</a>
</g>
</g>
<!-- Node11&#45;&gt;Node17 -->
<g id="edge20" class="edge">
<title>Node11&#45;&gt;Node17</title>
<path fill="none" stroke="midnightblue" d="M602.19,-67.48C617.01,-59.15 640.08,-46.21 659.25,-35.45"/>
<polygon fill="midnightblue" stroke="midnightblue" points="661.01,-38.47 668.02,-30.52 657.58,-32.37 661.01,-38.47"/>
</g>
</g>
</svg>
