<?xml version="1.0" encoding="UTF-8" standalone="no"?>
<!DOCTYPE svg PUBLIC "-//W3C//DTD SVG 1.1//EN"
 "http://www.w3.org/Graphics/SVG/1.1/DTD/svg11.dtd">
<!-- Generated by graphviz version 2.43.0 (0)
 -->
<!-- Title: src/style.cpp Pages: 1 -->
<!--zoomable 375 -->
<svg id="main" version="1.1" xmlns="http://www.w3.org/2000/svg" xmlns:xlink="http://www.w3.org/1999/xlink" xml:space="preserve" onload="init(evt)">
<style type="text/css"><![CDATA[
.edge:hover path { stroke: red; }
.edge:hover polygon { stroke: red; fill: red; }
]]></style>
<script type="text/javascript"><![CDATA[
var edges = document.getElementsByTagName('g');
if (edges && edges.length) {
  for (var i=0;i<edges.length;i++) {
    if (edges[i].id.substr(0,4)=='edge') {
      edges[i].setAttribute('class','edge');
    }
  }
}
]]></script>
        <defs>
                <circle id="rim" cx="0" cy="0" r="7"/>
                <circle id="rim2" cx="0" cy="0" r="3.5"/>
                <g id="zoomPlus">
                        <use xlink:href="#rim" fill="#404040">
                                <set attributeName="fill" to="#808080" begin="zoomplus.mouseover" end="zoomplus.mouseout"/>
                        </use>
                        <path d="M-4,0h8M0,-4v8" fill="none" stroke="white" stroke-width="1.5" pointer-events="none"/>
                </g>
                <g id="zoomMin">
                        <use xlink:href="#rim" fill="#404040">
                                <set attributeName="fill" to="#808080" begin="zoomminus.mouseover" end="zoomminus.mouseout"/>
                        </use>
                        <path d="M-4,0h8" fill="none" stroke="white" stroke-width="1.5" pointer-events="none"/>
                </g>
                <g id="dirArrow">
                        <path fill="none" stroke="white" stroke-width="1.5" d="M0,-3.0v7 M-2.5,-0.5L0,-3.0L2.5,-0.5"/>
                </g>
               <g id="resetDef">
                       <use xlink:href="#rim2" fill="#404040">
                               <set attributeName="fill" to="#808080" begin="reset.mouseover" end="reset.mouseout"/>
                       </use>
               </g>
        </defs>

<script type="text/javascript">
var viewWidth = 1128;
var viewHeight = 375;
var sectionId = 'dynsection-0';
</script>
<script xlink:href="svgpan.js"/>
<svg id="graph" class="graph">
<g id="viewport">
<title>src/style.cpp</title>
<polygon fill="white" stroke="transparent" points="-4,4 -4,-371 1124,-371 1124,4 -4,4"/>
<!-- Node1 -->
<g id="node1" class="node">
<title>Node1</title>
<g id="a_node1"><a xlink:title="Implementation of Style class.">
<polygon fill="#bfbfbf" stroke="black" points="583,-347.5 583,-366.5 661,-366.5 661,-347.5 583,-347.5"/>
<text text-anchor="middle" x="622" y="-354.5" font-family="Helvetica,sans-Serif" font-size="10.00">src/style.cpp</text>
</a>
</g>
</g>
<!-- Node2 -->
<g id="node2" class="node">
<title>Node2</title>
<g id="a_node2"><a xlink:href="style_8h.html" target="_top" xlink:title="Format Output File.">
<polygon fill="white" stroke="black" points="597,-291.5 597,-310.5 647,-310.5 647,-291.5 597,-291.5"/>
<text text-anchor="middle" x="622" y="-298.5" font-family="Helvetica,sans-Serif" font-size="10.00">style.h</text>
</a>
</g>
</g>
<!-- Node1&#45;&gt;Node2 -->
<g id="edge1" class="edge">
<title>Node1&#45;&gt;Node2</title>
<path fill="none" stroke="midnightblue" d="M622,-347.08C622,-340.01 622,-329.86 622,-320.99"/>
<polygon fill="midnightblue" stroke="midnightblue" points="625.5,-320.75 622,-310.75 618.5,-320.75 625.5,-320.75"/>
</g>
<!-- Node3 -->
<g id="node3" class="node">
<title>Node3</title>
<g id="a_node3"><a xlink:title=" ">
<polygon fill="white" stroke="#bfbfbf" points="0,-6 0,-25 60,-25 60,-6 0,-6"/>
<text text-anchor="middle" x="30" y="-13" font-family="Helvetica,sans-Serif" font-size="10.00">iostream</text>
</a>
</g>
</g>
<!-- Node2&#45;&gt;Node3 -->
<g id="edge2" class="edge">
<title>Node2&#45;&gt;Node3</title>
<path fill="none" stroke="midnightblue" d="M596.93,-298.26C480.94,-289.87 2,-251.49 2,-190 2,-190 2,-190 2,-132 2,-96.71 14.5,-57.03 22.79,-34.57"/>
<polygon fill="midnightblue" stroke="midnightblue" points="26.14,-35.61 26.45,-25.02 19.6,-33.1 26.14,-35.61"/>
</g>
<!-- Node4 -->
<g id="node4" class="node">
<title>Node4</title>
<g id="a_node4"><a xlink:title=" ">
<polygon fill="white" stroke="#bfbfbf" points="327,-6 327,-25 371,-25 371,-6 327,-6"/>
<text text-anchor="middle" x="349" y="-13" font-family="Helvetica,sans-Serif" font-size="10.00">string</text>
</a>
</g>
</g>
<!-- Node2&#45;&gt;Node4 -->
<g id="edge3" class="edge">
<title>Node2&#45;&gt;Node4</title>
<path fill="none" stroke="midnightblue" d="M622,-291.44C622,-272.94 622,-227.81 622,-190 622,-190 622,-190 622,-132 622,-101.9 625.56,-86.92 603,-67 527.74,-0.56 475.95,-60.55 380,-31 378.13,-30.42 376.22,-29.75 374.32,-29.03"/>
<polygon fill="midnightblue" stroke="midnightblue" points="375.64,-25.78 365.07,-25.05 372.88,-32.21 375.64,-25.78"/>
</g>
<!-- Node5 -->
<g id="node5" class="node">
<title>Node5</title>
<g id="a_node5"><a xlink:title=" ">
<polygon fill="white" stroke="#bfbfbf" points="688.5,-235.5 688.5,-254.5 793.5,-254.5 793.5,-235.5 688.5,-235.5"/>
<text text-anchor="middle" x="741" y="-242.5" font-family="Helvetica,sans-Serif" font-size="10.00">boost/process.hpp</text>
</a>
</g>
</g>
<!-- Node2&#45;&gt;Node5 -->
<g id="edge4" class="edge">
<title>Node2&#45;&gt;Node5</title>
<path fill="none" stroke="midnightblue" d="M640.86,-291.44C660.27,-282.64 690.73,-268.81 712.96,-258.72"/>
<polygon fill="midnightblue" stroke="midnightblue" points="714.57,-261.84 722.23,-254.52 711.68,-255.46 714.57,-261.84"/>
</g>
<!-- Node6 -->
<g id="node6" class="node">
<title>Node6</title>
<g id="a_node6"><a xlink:href="error__code_8h.html" target="_top" xlink:title="Error Codes (Including Warnings)">
<polygon fill="white" stroke="black" points="347.5,-235.5 347.5,-254.5 424.5,-254.5 424.5,-235.5 347.5,-235.5"/>
<text text-anchor="middle" x="386" y="-242.5" font-family="Helvetica,sans-Serif" font-size="10.00">error_code.h</text>
</a>
</g>
</g>
<!-- Node2&#45;&gt;Node6 -->
<g id="edge5" class="edge">
<title>Node2&#45;&gt;Node6</title>
<path fill="none" stroke="midnightblue" d="M596.74,-294.22C557.81,-285.31 482.48,-268.08 433.23,-256.81"/>
<polygon fill="midnightblue" stroke="midnightblue" points="433.97,-253.39 423.44,-254.57 432.41,-260.21 433.97,-253.39"/>
</g>
<!-- Node12 -->
<g id="node12" class="node">
<title>Node12</title>
<g id="a_node12"><a xlink:href="utils_8h.html" target="_top" xlink:title="Utilities.">
<polygon fill="white" stroke="black" points="650.5,-67.5 650.5,-86.5 697.5,-86.5 697.5,-67.5 650.5,-67.5"/>
<text text-anchor="middle" x="674" y="-74.5" font-family="Helvetica,sans-Serif" font-size="10.00">utils.h</text>
</a>
</g>
</g>
<!-- Node2&#45;&gt;Node12 -->
<g id="edge36" class="edge">
<title>Node2&#45;&gt;Node12</title>
<path fill="none" stroke="midnightblue" d="M624.92,-291.44C627.92,-282.44 632.64,-267.82 636,-255 650.99,-197.87 664.45,-129.24 670.55,-96.77"/>
<polygon fill="midnightblue" stroke="midnightblue" points="674.06,-97.01 672.45,-86.54 667.18,-95.73 674.06,-97.01"/>
</g>
<!-- Node6&#45;&gt;Node3 -->
<g id="edge33" class="edge">
<title>Node6&#45;&gt;Node3</title>
<path fill="none" stroke="midnightblue" d="M347.42,-241.97C281.17,-237.79 149.39,-226.23 113,-199 58.45,-158.18 38.79,-73.08 32.56,-35.28"/>
<polygon fill="midnightblue" stroke="midnightblue" points="35.99,-34.54 31.04,-25.18 29.07,-35.59 35.99,-34.54"/>
</g>
<!-- Node6&#45;&gt;Node4 -->
<g id="edge34" class="edge">
<title>Node6&#45;&gt;Node4</title>
<path fill="none" stroke="midnightblue" d="M360.76,-235.44C311.69,-217.24 204.8,-169.44 165,-87 136.17,-27.28 256.52,-17.58 316.64,-16.39"/>
<polygon fill="midnightblue" stroke="midnightblue" points="316.82,-19.89 326.78,-16.26 316.73,-12.89 316.82,-19.89"/>
</g>
<!-- Node7 -->
<g id="node7" class="node">
<title>Node7</title>
<g id="a_node7"><a xlink:href="log__global_8h.html" target="_top" xlink:title="Global Access of Log.">
<polygon fill="white" stroke="black" points="315,-179.5 315,-198.5 391,-198.5 391,-179.5 315,-179.5"/>
<text text-anchor="middle" x="353" y="-186.5" font-family="Helvetica,sans-Serif" font-size="10.00">log_global.h</text>
</a>
</g>
</g>
<!-- Node6&#45;&gt;Node7 -->
<g id="edge6" class="edge">
<title>Node6&#45;&gt;Node7</title>
<path fill="none" stroke="midnightblue" d="M380.55,-235.08C375.99,-227.61 369.33,-216.72 363.71,-207.52"/>
<polygon fill="midnightblue" stroke="midnightblue" points="366.55,-205.46 358.35,-198.75 360.58,-209.11 366.55,-205.46"/>
</g>
<!-- Node9 -->
<g id="node9" class="node">
<title>Node9</title>
<g id="a_node9"><a xlink:href="meta_8h.html" target="_top" xlink:title="mmCEsim meta data">
<polygon fill="white" stroke="black" points="542.5,-67.5 542.5,-86.5 593.5,-86.5 593.5,-67.5 542.5,-67.5"/>
<text text-anchor="middle" x="568" y="-74.5" font-family="Helvetica,sans-Serif" font-size="10.00">meta.h</text>
</a>
</g>
</g>
<!-- Node6&#45;&gt;Node9 -->
<g id="edge30" class="edge">
<title>Node6&#45;&gt;Node9</title>
<path fill="none" stroke="midnightblue" d="M391.83,-235.48C400.89,-222.53 419.27,-197.47 438,-179 473.11,-144.39 519.93,-110.56 546.74,-92.18"/>
<polygon fill="midnightblue" stroke="midnightblue" points="548.71,-95.07 555.01,-86.56 544.78,-89.28 548.71,-95.07"/>
</g>
<!-- Node10 -->
<g id="node10" class="node">
<title>Node10</title>
<g id="a_node10"><a xlink:href="term_8h.html" target="_top" xlink:title="Terminal Color and Style Control.">
<polygon fill="white" stroke="black" points="68.5,-67.5 68.5,-86.5 117.5,-86.5 117.5,-67.5 68.5,-67.5"/>
<text text-anchor="middle" x="93" y="-74.5" font-family="Helvetica,sans-Serif" font-size="10.00">term.h</text>
</a>
</g>
</g>
<!-- Node6&#45;&gt;Node10 -->
<g id="edge31" class="edge">
<title>Node6&#45;&gt;Node10</title>
<path fill="none" stroke="midnightblue" d="M347.47,-241.95C284.54,-237.85 163.56,-226.52 132,-199 102.02,-172.85 94.92,-123.54 93.35,-96.64"/>
<polygon fill="midnightblue" stroke="midnightblue" points="96.84,-96.48 92.96,-86.62 89.85,-96.75 96.84,-96.48"/>
</g>
<!-- Node27 -->
<g id="node27" class="node">
<title>Node27</title>
<g id="a_node27"><a xlink:title=" ">
<polygon fill="white" stroke="#bfbfbf" points="447,-179.5 447,-198.5 499,-198.5 499,-179.5 447,-179.5"/>
<text text-anchor="middle" x="473" y="-186.5" font-family="Helvetica,sans-Serif" font-size="10.00">cassert</text>
</a>
</g>
</g>
<!-- Node6&#45;&gt;Node27 -->
<g id="edge32" class="edge">
<title>Node6&#45;&gt;Node27</title>
<path fill="none" stroke="midnightblue" d="M399.98,-235.32C413.55,-226.9 434.38,-213.97 450.32,-204.07"/>
<polygon fill="midnightblue" stroke="midnightblue" points="452.41,-206.9 459.06,-198.65 448.71,-200.95 452.41,-206.9"/>
</g>
<!-- Node28 -->
<g id="node28" class="node">
<title>Node28</title>
<g id="a_node28"><a xlink:title=" ">
<polygon fill="white" stroke="#bfbfbf" points="517.5,-179.5 517.5,-198.5 586.5,-198.5 586.5,-179.5 517.5,-179.5"/>
<text text-anchor="middle" x="552" y="-186.5" font-family="Helvetica,sans-Serif" font-size="10.00">type_traits</text>
</a>
</g>
</g>
<!-- Node6&#45;&gt;Node28 -->
<g id="edge35" class="edge">
<title>Node6&#45;&gt;Node28</title>
<path fill="none" stroke="midnightblue" d="M412.3,-235.44C440.35,-226.32 484.94,-211.81 516.18,-201.65"/>
<polygon fill="midnightblue" stroke="midnightblue" points="517.39,-204.94 525.82,-198.52 515.23,-198.28 517.39,-204.94"/>
</g>
<!-- Node8 -->
<g id="node8" class="node">
<title>Node8</title>
<g id="a_node8"><a xlink:href="include_2log_8h.html" target="_top" xlink:title="Log Utilities.">
<polygon fill="white" stroke="black" points="341.5,-123.5 341.5,-142.5 382.5,-142.5 382.5,-123.5 341.5,-123.5"/>
<text text-anchor="middle" x="362" y="-130.5" font-family="Helvetica,sans-Serif" font-size="10.00">log.h</text>
</a>
</g>
</g>
<!-- Node7&#45;&gt;Node8 -->
<g id="edge7" class="edge">
<title>Node7&#45;&gt;Node8</title>
<path fill="none" stroke="midnightblue" d="M354.49,-179.08C355.68,-171.93 357.39,-161.64 358.88,-152.69"/>
<polygon fill="midnightblue" stroke="midnightblue" points="362.35,-153.19 360.54,-142.75 355.45,-152.04 362.35,-153.19"/>
</g>
<!-- Node8&#45;&gt;Node9 -->
<g id="edge8" class="edge">
<title>Node8&#45;&gt;Node9</title>
<path fill="none" stroke="midnightblue" d="M382.51,-126.62C417.55,-117.44 489.38,-98.61 532.65,-87.27"/>
<polygon fill="midnightblue" stroke="midnightblue" points="533.68,-90.61 542.47,-84.69 531.91,-83.84 533.68,-90.61"/>
</g>
<!-- Node8&#45;&gt;Node10 -->
<g id="edge10" class="edge">
<title>Node8&#45;&gt;Node10</title>
<path fill="none" stroke="midnightblue" d="M341.34,-127.85C295.36,-118.62 184.18,-96.3 127.49,-84.92"/>
<polygon fill="midnightblue" stroke="midnightblue" points="128.06,-81.47 117.57,-82.93 126.68,-88.33 128.06,-81.47"/>
</g>
<!-- Node8&#45;&gt;Node12 -->
<g id="edge14" class="edge">
<title>Node8&#45;&gt;Node12</title>
<path fill="none" stroke="midnightblue" d="M382.96,-128.37C435.89,-119.21 575.36,-95.07 640.1,-83.87"/>
<polygon fill="midnightblue" stroke="midnightblue" points="640.93,-87.28 650.19,-82.12 639.74,-80.38 640.93,-87.28"/>
</g>
<!-- Node22 -->
<g id="node22" class="node">
<title>Node22</title>
<g id="a_node22"><a xlink:title=" ">
<polygon fill="white" stroke="#bfbfbf" points="480,-67.5 480,-86.5 524,-86.5 524,-67.5 480,-67.5"/>
<text text-anchor="middle" x="502" y="-74.5" font-family="Helvetica,sans-Serif" font-size="10.00">ctime</text>
</a>
</g>
</g>
<!-- Node8&#45;&gt;Node22 -->
<g id="edge25" class="edge">
<title>Node8&#45;&gt;Node22</title>
<path fill="none" stroke="midnightblue" d="M382.66,-124.03C405.83,-115.1 443.66,-100.5 470.52,-90.14"/>
<polygon fill="midnightblue" stroke="midnightblue" points="471.8,-93.4 479.87,-86.54 469.28,-86.87 471.8,-93.4"/>
</g>
<!-- Node23 -->
<g id="node23" class="node">
<title>Node23</title>
<g id="a_node23"><a xlink:title=" ">
<polygon fill="white" stroke="#bfbfbf" points="174,-67.5 174,-86.5 242,-86.5 242,-67.5 174,-67.5"/>
<text text-anchor="middle" x="208" y="-74.5" font-family="Helvetica,sans-Serif" font-size="10.00">filesystem</text>
</a>
</g>
</g>
<!-- Node8&#45;&gt;Node23 -->
<g id="edge26" class="edge">
<title>Node8&#45;&gt;Node23</title>
<path fill="none" stroke="midnightblue" d="M341.23,-124.72C315.86,-115.82 272.57,-100.64 242.24,-90.01"/>
<polygon fill="midnightblue" stroke="midnightblue" points="243.09,-86.6 232.5,-86.59 240.78,-93.2 243.09,-86.6"/>
</g>
<!-- Node24 -->
<g id="node24" class="node">
<title>Node24</title>
<g id="a_node24"><a xlink:title=" ">
<polygon fill="white" stroke="#bfbfbf" points="260.5,-67.5 260.5,-86.5 315.5,-86.5 315.5,-67.5 260.5,-67.5"/>
<text text-anchor="middle" x="288" y="-74.5" font-family="Helvetica,sans-Serif" font-size="10.00">fstream</text>
</a>
</g>
</g>
<!-- Node8&#45;&gt;Node24 -->
<g id="edge27" class="edge">
<title>Node8&#45;&gt;Node24</title>
<path fill="none" stroke="midnightblue" d="M350.11,-123.32C338.85,-115.11 321.71,-102.6 308.29,-92.81"/>
<polygon fill="midnightblue" stroke="midnightblue" points="310.25,-89.9 300.11,-86.83 306.12,-95.56 310.25,-89.9"/>
</g>
<!-- Node25 -->
<g id="node25" class="node">
<title>Node25</title>
<g id="a_node25"><a xlink:title=" ">
<polygon fill="white" stroke="#bfbfbf" points="334,-67.5 334,-86.5 390,-86.5 390,-67.5 334,-67.5"/>
<text text-anchor="middle" x="362" y="-74.5" font-family="Helvetica,sans-Serif" font-size="10.00">iomanip</text>
</a>
</g>
</g>
<!-- Node8&#45;&gt;Node25 -->
<g id="edge28" class="edge">
<title>Node8&#45;&gt;Node25</title>
<path fill="none" stroke="midnightblue" d="M362,-123.08C362,-116.01 362,-105.86 362,-96.99"/>
<polygon fill="midnightblue" stroke="midnightblue" points="365.5,-96.75 362,-86.75 358.5,-96.75 365.5,-96.75"/>
</g>
<!-- Node26 -->
<g id="node26" class="node">
<title>Node26</title>
<g id="a_node26"><a xlink:title=" ">
<polygon fill="white" stroke="#bfbfbf" points="408.5,-67.5 408.5,-86.5 461.5,-86.5 461.5,-67.5 408.5,-67.5"/>
<text text-anchor="middle" x="435" y="-74.5" font-family="Helvetica,sans-Serif" font-size="10.00">spy.hpp</text>
</a>
</g>
</g>
<!-- Node8&#45;&gt;Node26 -->
<g id="edge29" class="edge">
<title>Node8&#45;&gt;Node26</title>
<path fill="none" stroke="midnightblue" d="M373.73,-123.32C384.84,-115.11 401.74,-102.6 414.98,-92.81"/>
<polygon fill="midnightblue" stroke="midnightblue" points="417.1,-95.59 423.06,-86.83 412.94,-89.97 417.1,-95.59"/>
</g>
<!-- Node9&#45;&gt;Node4 -->
<g id="edge9" class="edge">
<title>Node9&#45;&gt;Node4</title>
<path fill="none" stroke="midnightblue" d="M542.4,-69.35C539.24,-68.55 536.05,-67.75 533,-67 465.17,-50.3 445.99,-53.92 380,-31 378.38,-30.44 376.73,-29.82 375.08,-29.16"/>
<polygon fill="midnightblue" stroke="midnightblue" points="376.36,-25.9 365.79,-25.12 373.57,-32.32 376.36,-25.9"/>
</g>
<!-- Node10&#45;&gt;Node3 -->
<g id="edge12" class="edge">
<title>Node10&#45;&gt;Node3</title>
<path fill="none" stroke="midnightblue" d="M83.97,-67.48C74.24,-58.28 58.54,-43.46 46.58,-32.16"/>
<polygon fill="midnightblue" stroke="midnightblue" points="48.68,-29.33 39.01,-25.01 43.88,-34.42 48.68,-29.33"/>
</g>
<!-- Node10&#45;&gt;Node4 -->
<g id="edge13" class="edge">
<title>Node10&#45;&gt;Node4</title>
<path fill="none" stroke="midnightblue" d="M117.55,-70.29C164.03,-59.49 264.87,-36.05 316.74,-24"/>
<polygon fill="midnightblue" stroke="midnightblue" points="317.79,-27.35 326.73,-21.67 316.2,-20.53 317.79,-27.35"/>
</g>
<!-- Node11 -->
<g id="node11" class="node">
<title>Node11</title>
<g id="a_node11"><a xlink:title=" ">
<polygon fill="white" stroke="#bfbfbf" points="78.5,-6 78.5,-25 127.5,-25 127.5,-6 78.5,-6"/>
<text text-anchor="middle" x="103" y="-13" font-family="Helvetica,sans-Serif" font-size="10.00">cstdlib</text>
</a>
</g>
</g>
<!-- Node10&#45;&gt;Node11 -->
<g id="edge11" class="edge">
<title>Node10&#45;&gt;Node11</title>
<path fill="none" stroke="midnightblue" d="M94.43,-67.48C95.84,-59.08 98.05,-45.98 99.86,-35.16"/>
<polygon fill="midnightblue" stroke="midnightblue" points="103.36,-35.45 101.57,-25.01 96.46,-34.29 103.36,-35.45"/>
</g>
<!-- Node12&#45;&gt;Node4 -->
<g id="edge19" class="edge">
<title>Node12&#45;&gt;Node4</title>
<path fill="none" stroke="midnightblue" d="M650.36,-70.04C645.62,-68.95 640.66,-67.88 636,-67 523.09,-45.74 490.15,-63.7 380,-31 378.12,-30.44 376.21,-29.79 374.31,-29.07"/>
<polygon fill="midnightblue" stroke="midnightblue" points="375.62,-25.82 365.05,-25.12 372.87,-32.26 375.62,-25.82"/>
</g>
<!-- Node13 -->
<g id="node13" class="node">
<title>Node13</title>
<g id="a_node13"><a xlink:title=" ">
<polygon fill="white" stroke="#bfbfbf" points="389,-6 389,-25 453,-25 453,-6 389,-6"/>
<text text-anchor="middle" x="421" y="-13" font-family="Helvetica,sans-Serif" font-size="10.00">algorithm</text>
</a>
</g>
</g>
<!-- Node12&#45;&gt;Node13 -->
<g id="edge15" class="edge">
<title>Node12&#45;&gt;Node13</title>
<path fill="none" stroke="midnightblue" d="M650.31,-70.28C645.57,-69.17 640.63,-68.03 636,-67 559.34,-49.95 538.72,-51.86 463,-31 459.97,-30.17 456.85,-29.23 453.73,-28.25"/>
<polygon fill="midnightblue" stroke="midnightblue" points="454.53,-24.83 443.94,-25.01 452.34,-31.47 454.53,-24.83"/>
</g>
<!-- Node14 -->
<g id="node14" class="node">
<title>Node14</title>
<g id="a_node14"><a xlink:title=" ">
<polygon fill="white" stroke="#bfbfbf" points="471.5,-6 471.5,-25 520.5,-25 520.5,-6 471.5,-6"/>
<text text-anchor="middle" x="496" y="-13" font-family="Helvetica,sans-Serif" font-size="10.00">cctype</text>
</a>
</g>
</g>
<!-- Node12&#45;&gt;Node14 -->
<g id="edge16" class="edge">
<title>Node12&#45;&gt;Node14</title>
<path fill="none" stroke="midnightblue" d="M650.31,-69.39C621.57,-61.19 571.78,-46.39 530,-31 528.34,-30.39 526.65,-29.74 524.95,-29.08"/>
<polygon fill="midnightblue" stroke="midnightblue" points="525.86,-25.67 515.28,-25.12 523.21,-32.15 525.86,-25.67"/>
</g>
<!-- Node15 -->
<g id="node15" class="node">
<title>Node15</title>
<g id="a_node15"><a xlink:title=" ">
<polygon fill="white" stroke="#bfbfbf" points="539,-6 539,-25 593,-25 593,-6 539,-6"/>
<text text-anchor="middle" x="566" y="-13" font-family="Helvetica,sans-Serif" font-size="10.00">random</text>
</a>
</g>
</g>
<!-- Node12&#45;&gt;Node15 -->
<g id="edge17" class="edge">
<title>Node12&#45;&gt;Node15</title>
<path fill="none" stroke="midnightblue" d="M658.53,-67.48C640.72,-57.67 611.26,-41.43 590.37,-29.92"/>
<polygon fill="midnightblue" stroke="midnightblue" points="591.89,-26.77 581.45,-25.01 588.51,-32.9 591.89,-26.77"/>
</g>
<!-- Node16 -->
<g id="node16" class="node">
<title>Node16</title>
<g id="a_node16"><a xlink:title=" ">
<polygon fill="white" stroke="#bfbfbf" points="611,-6 611,-25 667,-25 667,-6 611,-6"/>
<text text-anchor="middle" x="639" y="-13" font-family="Helvetica,sans-Serif" font-size="10.00">sstream</text>
</a>
</g>
</g>
<!-- Node12&#45;&gt;Node16 -->
<g id="edge18" class="edge">
<title>Node12&#45;&gt;Node16</title>
<path fill="none" stroke="midnightblue" d="M668.99,-67.48C663.84,-58.73 655.69,-44.87 649.18,-33.81"/>
<polygon fill="midnightblue" stroke="midnightblue" points="652.09,-31.85 644.01,-25.01 646.06,-35.4 652.09,-31.85"/>
</g>
<!-- Node17 -->
<g id="node17" class="node">
<title>Node17</title>
<g id="a_node17"><a xlink:title=" ">
<polygon fill="white" stroke="#bfbfbf" points="685.5,-6 685.5,-25 732.5,-25 732.5,-6 685.5,-6"/>
<text text-anchor="middle" x="709" y="-13" font-family="Helvetica,sans-Serif" font-size="10.00">vector</text>
</a>
</g>
</g>
<!-- Node12&#45;&gt;Node17 -->
<g id="edge20" class="edge">
<title>Node12&#45;&gt;Node17</title>
<path fill="none" stroke="midnightblue" d="M679.01,-67.48C684.16,-58.73 692.31,-44.87 698.82,-33.81"/>
<polygon fill="midnightblue" stroke="midnightblue" points="701.94,-35.4 703.99,-25.01 695.91,-31.85 701.94,-35.4"/>
</g>
<!-- Node18 -->
<g id="node18" class="node">
<title>Node18</title>
<g id="a_node18"><a xlink:title=" ">
<polygon fill="white" stroke="#bfbfbf" points="750.5,-0.5 750.5,-30.5 891.5,-30.5 891.5,-0.5 750.5,-0.5"/>
<text text-anchor="start" x="758.5" y="-18.5" font-family="Helvetica,sans-Serif" font-size="10.00">boost/dll/runtime_symbol</text>
<text text-anchor="middle" x="821" y="-7.5" font-family="Helvetica,sans-Serif" font-size="10.00">_info.hpp</text>
</a>
</g>
</g>
<!-- Node12&#45;&gt;Node18 -->
<g id="edge21" class="edge">
<title>Node12&#45;&gt;Node18</title>
<path fill="none" stroke="midnightblue" d="M695.06,-67.48C716.37,-58.85 749.94,-45.26 777.06,-34.29"/>
<polygon fill="midnightblue" stroke="midnightblue" points="778.4,-37.52 786.36,-30.52 775.77,-31.03 778.4,-37.52"/>
</g>
<!-- Node19 -->
<g id="node19" class="node">
<title>Node19</title>
<g id="a_node19"><a xlink:title=" ">
<polygon fill="white" stroke="#bfbfbf" points="910,-6 910,-25 956,-25 956,-6 910,-6"/>
<text text-anchor="middle" x="933" y="-13" font-family="Helvetica,sans-Serif" font-size="10.00">pwd.h</text>
</a>
</g>
</g>
<!-- Node12&#45;&gt;Node19 -->
<g id="edge22" class="edge">
<title>Node12&#45;&gt;Node19</title>
<path fill="none" stroke="midnightblue" d="M697.65,-73.13C739.43,-67.67 828.7,-54.21 901,-31 902.87,-30.4 904.78,-29.72 906.69,-28.99"/>
<polygon fill="midnightblue" stroke="midnightblue" points="908.15,-32.17 916.01,-25.07 905.44,-25.72 908.15,-32.17"/>
</g>
<!-- Node20 -->
<g id="node20" class="node">
<title>Node20</title>
<g id="a_node20"><a xlink:title=" ">
<polygon fill="white" stroke="#bfbfbf" points="974,-6 974,-25 1046,-25 1046,-6 974,-6"/>
<text text-anchor="middle" x="1010" y="-13" font-family="Helvetica,sans-Serif" font-size="10.00">sys/types.h</text>
</a>
</g>
</g>
<!-- Node12&#45;&gt;Node20 -->
<g id="edge23" class="edge">
<title>Node12&#45;&gt;Node20</title>
<path fill="none" stroke="midnightblue" d="M697.63,-73.63C747.51,-68.35 867,-54.21 965,-31 968.65,-30.14 972.43,-29.12 976.18,-28.03"/>
<polygon fill="midnightblue" stroke="midnightblue" points="977.38,-31.32 985.91,-25.04 975.32,-24.63 977.38,-31.32"/>
</g>
<!-- Node21 -->
<g id="node21" class="node">
<title>Node21</title>
<g id="a_node21"><a xlink:title=" ">
<polygon fill="white" stroke="#bfbfbf" points="1064,-6 1064,-25 1120,-25 1120,-6 1064,-6"/>
<text text-anchor="middle" x="1092" y="-13" font-family="Helvetica,sans-Serif" font-size="10.00">unistd.h</text>
</a>
</g>
</g>
<!-- Node12&#45;&gt;Node21 -->
<g id="edge24" class="edge">
<title>Node12&#45;&gt;Node21</title>
<path fill="none" stroke="midnightblue" d="M697.57,-75.31C757.91,-73.08 922.55,-64.19 1055,-31 1057.67,-30.33 1060.4,-29.52 1063.12,-28.62"/>
<polygon fill="midnightblue" stroke="midnightblue" points="1064.52,-31.84 1072.72,-25.13 1062.13,-25.26 1064.52,-31.84"/>
</g>
</g>
</svg>
        <g id="navigator" transform="translate(0 0)" fill="#404254">
                <rect fill="#f2f5e9" fill-opacity="0.5" stroke="#606060" stroke-width=".5" x="0" y="0" width="60" height="60"/>
                <use id="zoomplus" xlink:href="#zoomPlus" x="17" y="9" onmousedown="handleZoom(evt,'in')"/>
                <use id="zoomminus" xlink:href="#zoomMin" x="42" y="9" onmousedown="handleZoom(evt,'out')"/>
                <use id="reset" xlink:href="#resetDef" x="30" y="36" onmousedown="handleReset()"/>
                <g id="arrowUp" xlink:href="#dirArrow" transform="translate(30 24)" onmousedown="handlePan(0,-1)">
                  <use xlink:href="#rim" fill="#404040">
                        <set attributeName="fill" to="#808080" begin="arrowUp.mouseover" end="arrowUp.mouseout"/>
                  </use>
                  <path fill="none" stroke="white" stroke-width="1.5" d="M0,-3.0v7 M-2.5,-0.5L0,-3.0L2.5,-0.5"/>
                </g>
                <g id="arrowRight" xlink:href="#dirArrow" transform="rotate(90) translate(36 -43)" onmousedown="handlePan(1,0)">
                  <use xlink:href="#rim" fill="#404040">
                        <set attributeName="fill" to="#808080" begin="arrowRight.mouseover" end="arrowRight.mouseout"/>
                  </use>
                  <path fill="none" stroke="white" stroke-width="1.5" d="M0,-3.0v7 M-2.5,-0.5L0,-3.0L2.5,-0.5"/>
                </g>
                <g id="arrowDown" xlink:href="#dirArrow" transform="rotate(180) translate(-30 -48)" onmousedown="handlePan(0,1)">
                  <use xlink:href="#rim" fill="#404040">
                        <set attributeName="fill" to="#808080" begin="arrowDown.mouseover" end="arrowDown.mouseout"/>
                  </use>
                  <path fill="none" stroke="white" stroke-width="1.5" d="M0,-3.0v7 M-2.5,-0.5L0,-3.0L2.5,-0.5"/>
                </g>
                <g id="arrowLeft" xlink:href="#dirArrow" transform="rotate(270) translate(-36 17)" onmousedown="handlePan(-1,0)">
                  <use xlink:href="#rim" fill="#404040">
                        <set attributeName="fill" to="#808080" begin="arrowLeft.mouseover" end="arrowLeft.mouseout"/>
                  </use>
                  <path fill="none" stroke="white" stroke-width="1.5" d="M0,-3.0v7 M-2.5,-0.5L0,-3.0L2.5,-0.5"/>
                </g>
        </g>
        <svg viewBox="0 0 15 15" width="100%" height="30px" preserveAspectRatio="xMaxYMin meet">
         <g id="arrow_out" transform="scale(0.3 0.3)">
          <a xlink:href="style_8cpp__incl_org.svg" target="_base">
           <rect id="button" ry="5" rx="5" y="6" x="6" height="38" width="38"
                fill="#f2f5e9" fill-opacity="0.5" stroke="#606060" stroke-width="1.0"/>
           <path id="arrow"
             d="M 11.500037,31.436501 C 11.940474,20.09759 22.043105,11.32322 32.158766,21.979434 L 37.068811,17.246167 C 37.068811,17.246167 37.088388,32 37.088388,32 L 22.160133,31.978069 C 22.160133,31.978069 26.997745,27.140456 26.997745,27.140456 C 18.528582,18.264221 13.291696,25.230495 11.500037,31.436501 z"
             style="fill:#404040;"/>
          </a>
         </g>
        </svg>
</svg>
