<?xml version="1.0" encoding="UTF-8" standalone="no"?>
<!DOCTYPE svg PUBLIC "-//W3C//DTD SVG 1.1//EN"
 "http://www.w3.org/Graphics/SVG/1.1/DTD/svg11.dtd">
<!-- Generated by graphviz version 2.43.0 (0)
 -->
<!-- Title: include/style.h Pages: 1 -->
<svg width="184pt" height="84pt"
 viewBox="0.00 0.00 183.50 84.00" xmlns="http://www.w3.org/2000/svg" xmlns:xlink="http://www.w3.org/1999/xlink">
<g id="graph0" class="graph" transform="scale(1 1) rotate(0) translate(4 80)">
<title>include/style.h</title>
<polygon fill="white" stroke="transparent" points="-4,4 -4,-80 179.5,-80 179.5,4 -4,4"/>
<!-- Node1 -->
<g id="node1" class="node">
<title>Node1</title>
<g id="a_node1"><a xlink:title="Format Output File.">
<polygon fill="#bfbfbf" stroke="black" points="43.5,-56.5 43.5,-75.5 131.5,-75.5 131.5,-56.5 43.5,-56.5"/>
<text text-anchor="middle" x="87.5" y="-63.5" font-family="Helvetica,sans-Serif" font-size="10.00">include/style.h</text>
</a>
</g>
</g>
<!-- Node2 -->
<g id="node2" class="node">
<title>Node2</title>
<g id="a_node2"><a xlink:href="src_2main_8cpp.html" target="_top" xlink:title="Program Command Line Options.">
<polygon fill="white" stroke="black" points="0,-0.5 0,-19.5 79,-19.5 79,-0.5 0,-0.5"/>
<text text-anchor="middle" x="39.5" y="-7.5" font-family="Helvetica,sans-Serif" font-size="10.00">src/main.cpp</text>
</a>
</g>
</g>
<!-- Node1&#45;&gt;Node2 -->
<g id="edge1" class="edge">
<title>Node1&#45;&gt;Node2</title>
<path fill="none" stroke="midnightblue" d="M72.77,-48.43C64.36,-38.97 54.15,-27.48 47.28,-19.75"/>
<polygon fill="midnightblue" stroke="midnightblue" points="70.31,-50.93 79.57,-56.08 75.55,-46.28 70.31,-50.93"/>
</g>
<!-- Node3 -->
<g id="node3" class="node">
<title>Node3</title>
<g id="a_node3"><a xlink:href="style_8cpp.html" target="_top" xlink:title="Implementation of Style class.">
<polygon fill="white" stroke="black" points="97.5,-0.5 97.5,-19.5 175.5,-19.5 175.5,-0.5 97.5,-0.5"/>
<text text-anchor="middle" x="136.5" y="-7.5" font-family="Helvetica,sans-Serif" font-size="10.00">src/style.cpp</text>
</a>
</g>
</g>
<!-- Node1&#45;&gt;Node3 -->
<g id="edge2" class="edge">
<title>Node1&#45;&gt;Node3</title>
<path fill="none" stroke="midnightblue" d="M102.53,-48.43C111.12,-38.97 121.54,-27.48 128.56,-19.75"/>
<polygon fill="midnightblue" stroke="midnightblue" points="99.72,-46.33 95.59,-56.08 104.9,-51.03 99.72,-46.33"/>
</g>
</g>
</svg>
