<?xml version="1.0" encoding="UTF-8" standalone="no"?>
<!DOCTYPE svg PUBLIC "-//W3C//DTD SVG 1.1//EN"
 "http://www.w3.org/Graphics/SVG/1.1/DTD/svg11.dtd">
<!-- Generated by graphviz version 2.43.0 (0)
 -->
<!-- Title: include/style.h Pages: 1 -->
<svg width="1363pt" height="319pt"
 viewBox="0.00 0.00 1362.50 319.00" xmlns="http://www.w3.org/2000/svg" xmlns:xlink="http://www.w3.org/1999/xlink">
<g id="graph0" class="graph" transform="scale(1 1) rotate(0) translate(4 315)">
<title>include/style.h</title>
<polygon fill="white" stroke="transparent" points="-4,4 -4,-315 1358.5,-315 1358.5,4 -4,4"/>
<!-- Node1 -->
<g id="node1" class="node">
<title>Node1</title>
<g id="a_node1"><a xlink:title="Format Output File.">
<polygon fill="#bfbfbf" stroke="black" points="676,-291.5 676,-310.5 764,-310.5 764,-291.5 676,-291.5"/>
<text text-anchor="middle" x="720" y="-298.5" font-family="Helvetica,sans-Serif" font-size="10.00">include/style.h</text>
</a>
</g>
</g>
<!-- Node2 -->
<g id="node2" class="node">
<title>Node2</title>
<g id="a_node2"><a xlink:href="__boost__config_8h.html" target="_top" xlink:title="Boost Configurations.">
<polygon fill="white" stroke="black" points="0,-6 0,-25 92,-25 92,-6 0,-6"/>
<text text-anchor="middle" x="46" y="-13" font-family="Helvetica,sans-Serif" font-size="10.00">_boost_config.h</text>
</a>
</g>
</g>
<!-- Node1&#45;&gt;Node2 -->
<g id="edge1" class="edge">
<title>Node1&#45;&gt;Node2</title>
<path fill="none" stroke="midnightblue" d="M675.91,-297.98C566.81,-291.8 293,-268.47 293,-190 293,-190 293,-190 293,-132 293,-108.75 147.6,-53.19 79.91,-28.58"/>
<polygon fill="midnightblue" stroke="midnightblue" points="80.73,-25.15 70.13,-25.04 78.35,-31.74 80.73,-25.15"/>
</g>
<!-- Node3 -->
<g id="node3" class="node">
<title>Node3</title>
<g id="a_node3"><a xlink:href="error__code_8h.html" target="_top" xlink:title="Error Codes (Including Warnings)">
<polygon fill="white" stroke="black" points="794.5,-235.5 794.5,-254.5 871.5,-254.5 871.5,-235.5 794.5,-235.5"/>
<text text-anchor="middle" x="833" y="-242.5" font-family="Helvetica,sans-Serif" font-size="10.00">error_code.h</text>
</a>
</g>
</g>
<!-- Node1&#45;&gt;Node3 -->
<g id="edge2" class="edge">
<title>Node1&#45;&gt;Node3</title>
<path fill="none" stroke="midnightblue" d="M737.91,-291.44C756.25,-282.68 785.01,-268.94 806.09,-258.86"/>
<polygon fill="midnightblue" stroke="midnightblue" points="807.67,-261.99 815.18,-254.52 804.65,-255.67 807.67,-261.99"/>
</g>
<!-- Node7 -->
<g id="node7" class="node">
<title>Node7</title>
<g id="a_node7"><a xlink:title=" ">
<polygon fill="white" stroke="#bfbfbf" points="859,-6 859,-25 903,-25 903,-6 859,-6"/>
<text text-anchor="middle" x="881" y="-13" font-family="Helvetica,sans-Serif" font-size="10.00">string</text>
</a>
</g>
</g>
<!-- Node1&#45;&gt;Node7 -->
<g id="edge36" class="edge">
<title>Node1&#45;&gt;Node7</title>
<path fill="none" stroke="midnightblue" d="M698.08,-291.39C663.96,-276.37 602,-241.95 602,-190 602,-190 602,-190 602,-132 602,-97.36 616.03,-85.99 645,-67 722.37,-16.3 761.78,-58.84 850,-31 851.87,-30.41 853.77,-29.73 855.67,-29"/>
<polygon fill="midnightblue" stroke="midnightblue" points="857.12,-32.18 864.91,-25 854.34,-25.76 857.12,-32.18"/>
</g>
<!-- Node10 -->
<g id="node10" class="node">
<title>Node10</title>
<g id="a_node10"><a xlink:title=" ">
<polygon fill="white" stroke="#bfbfbf" points="1163,-6 1163,-25 1223,-25 1223,-6 1163,-6"/>
<text text-anchor="middle" x="1193" y="-13" font-family="Helvetica,sans-Serif" font-size="10.00">iostream</text>
</a>
</g>
</g>
<!-- Node1&#45;&gt;Node10 -->
<g id="edge35" class="edge">
<title>Node1&#45;&gt;Node10</title>
<path fill="none" stroke="midnightblue" d="M764.02,-299.66C886.27,-297.52 1221,-283.17 1221,-190 1221,-190 1221,-190 1221,-132 1221,-96.71 1208.5,-57.03 1200.21,-34.57"/>
<polygon fill="midnightblue" stroke="midnightblue" points="1203.4,-33.1 1196.55,-25.02 1196.86,-35.61 1203.4,-33.1"/>
</g>
<!-- Node11 -->
<g id="node11" class="node">
<title>Node11</title>
<g id="a_node11"><a xlink:href="utils_8h.html" target="_top" xlink:title="Utilities.">
<polygon fill="white" stroke="black" points="526.5,-67.5 526.5,-86.5 573.5,-86.5 573.5,-67.5 526.5,-67.5"/>
<text text-anchor="middle" x="550" y="-74.5" font-family="Helvetica,sans-Serif" font-size="10.00">utils.h</text>
</a>
</g>
</g>
<!-- Node1&#45;&gt;Node11 -->
<g id="edge34" class="edge">
<title>Node1&#45;&gt;Node11</title>
<path fill="none" stroke="midnightblue" d="M675.87,-296.05C646.83,-291.09 610.2,-279.97 588,-255 547.84,-209.84 546.57,-132.68 548.43,-97.05"/>
<polygon fill="midnightblue" stroke="midnightblue" points="551.95,-96.88 549.12,-86.67 544.96,-96.41 551.95,-96.88"/>
</g>
<!-- Node28 -->
<g id="node28" class="node">
<title>Node28</title>
<g id="a_node28"><a xlink:title=" ">
<polygon fill="white" stroke="#bfbfbf" points="1249.5,-235.5 1249.5,-254.5 1354.5,-254.5 1354.5,-235.5 1249.5,-235.5"/>
<text text-anchor="middle" x="1302" y="-242.5" font-family="Helvetica,sans-Serif" font-size="10.00">boost/process.hpp</text>
</a>
</g>
</g>
<!-- Node1&#45;&gt;Node28 -->
<g id="edge37" class="edge">
<title>Node1&#45;&gt;Node28</title>
<path fill="none" stroke="midnightblue" d="M764.16,-296.84C853.29,-290.29 1061.05,-274.27 1235,-255 1236.46,-254.84 1237.93,-254.67 1239.42,-254.5"/>
<polygon fill="midnightblue" stroke="midnightblue" points="1239.85,-257.97 1249.36,-253.31 1239.02,-251.02 1239.85,-257.97"/>
</g>
<!-- Node4 -->
<g id="node4" class="node">
<title>Node4</title>
<g id="a_node4"><a xlink:href="log__global_8h.html" target="_top" xlink:title="Global Access of Log.">
<polygon fill="white" stroke="black" points="754,-179.5 754,-198.5 830,-198.5 830,-179.5 754,-179.5"/>
<text text-anchor="middle" x="792" y="-186.5" font-family="Helvetica,sans-Serif" font-size="10.00">log_global.h</text>
</a>
</g>
</g>
<!-- Node3&#45;&gt;Node4 -->
<g id="edge3" class="edge">
<title>Node3&#45;&gt;Node4</title>
<path fill="none" stroke="midnightblue" d="M826.23,-235.08C820.44,-227.46 811.94,-216.26 804.86,-206.94"/>
<polygon fill="midnightblue" stroke="midnightblue" points="807.48,-204.6 798.64,-198.75 801.9,-208.83 807.48,-204.6"/>
</g>
<!-- Node6 -->
<g id="node6" class="node">
<title>Node6</title>
<g id="a_node6"><a xlink:href="meta_8h.html" target="_top" xlink:title="mmCEsim meta data">
<polygon fill="white" stroke="black" points="668.5,-67.5 668.5,-86.5 719.5,-86.5 719.5,-67.5 668.5,-67.5"/>
<text text-anchor="middle" x="694" y="-74.5" font-family="Helvetica,sans-Serif" font-size="10.00">meta.h</text>
</a>
</g>
</g>
<!-- Node3&#45;&gt;Node6 -->
<g id="edge28" class="edge">
<title>Node3&#45;&gt;Node6</title>
<path fill="none" stroke="midnightblue" d="M805.24,-235.5C786.13,-228.41 761.35,-216.6 745,-199 717.43,-169.32 703.56,-122.54 697.66,-96.7"/>
<polygon fill="midnightblue" stroke="midnightblue" points="701.04,-95.79 695.54,-86.73 694.19,-97.24 701.04,-95.79"/>
</g>
<!-- Node3&#45;&gt;Node7 -->
<g id="edge32" class="edge">
<title>Node3&#45;&gt;Node7</title>
<path fill="none" stroke="midnightblue" d="M812.27,-235.46C755,-210.72 602.58,-136.33 660,-67 714.83,-0.81 768.21,-57.41 850,-31 851.67,-30.46 853.37,-29.85 855.07,-29.2"/>
<polygon fill="midnightblue" stroke="midnightblue" points="856.77,-32.28 864.58,-25.11 854.01,-25.84 856.77,-32.28"/>
</g>
<!-- Node8 -->
<g id="node8" class="node">
<title>Node8</title>
<g id="a_node8"><a xlink:href="term_8h.html" target="_top" xlink:title="Terminal Color and Style Control.">
<polygon fill="white" stroke="black" points="1105.5,-67.5 1105.5,-86.5 1154.5,-86.5 1154.5,-67.5 1105.5,-67.5"/>
<text text-anchor="middle" x="1130" y="-74.5" font-family="Helvetica,sans-Serif" font-size="10.00">term.h</text>
</a>
</g>
</g>
<!-- Node3&#45;&gt;Node8 -->
<g id="edge29" class="edge">
<title>Node3&#45;&gt;Node8</title>
<path fill="none" stroke="midnightblue" d="M871.72,-238.64C906.24,-232.67 957.29,-220.85 997,-199 1047.37,-171.28 1094.11,-120.82 1116.36,-94.68"/>
<polygon fill="midnightblue" stroke="midnightblue" points="1119.21,-96.74 1122.94,-86.82 1113.84,-92.24 1119.21,-96.74"/>
</g>
<!-- Node3&#45;&gt;Node10 -->
<g id="edge31" class="edge">
<title>Node3&#45;&gt;Node10</title>
<path fill="none" stroke="midnightblue" d="M871.86,-240.05C911.91,-234.82 975.31,-223.26 1025,-199 1096.29,-164.19 1116.53,-150.57 1164,-87 1175.85,-71.13 1183.76,-49.72 1188.28,-34.67"/>
<polygon fill="midnightblue" stroke="midnightblue" points="1191.66,-35.58 1190.98,-25.01 1184.92,-33.69 1191.66,-35.58"/>
</g>
<!-- Node26 -->
<g id="node26" class="node">
<title>Node26</title>
<g id="a_node26"><a xlink:title=" ">
<polygon fill="white" stroke="#bfbfbf" points="848,-179.5 848,-198.5 900,-198.5 900,-179.5 848,-179.5"/>
<text text-anchor="middle" x="874" y="-186.5" font-family="Helvetica,sans-Serif" font-size="10.00">cassert</text>
</a>
</g>
</g>
<!-- Node3&#45;&gt;Node26 -->
<g id="edge30" class="edge">
<title>Node3&#45;&gt;Node26</title>
<path fill="none" stroke="midnightblue" d="M839.77,-235.08C845.56,-227.46 854.06,-216.26 861.14,-206.94"/>
<polygon fill="midnightblue" stroke="midnightblue" points="864.1,-208.83 867.36,-198.75 858.52,-204.6 864.1,-208.83"/>
</g>
<!-- Node27 -->
<g id="node27" class="node">
<title>Node27</title>
<g id="a_node27"><a xlink:title=" ">
<polygon fill="white" stroke="#bfbfbf" points="918.5,-179.5 918.5,-198.5 987.5,-198.5 987.5,-179.5 918.5,-179.5"/>
<text text-anchor="middle" x="953" y="-186.5" font-family="Helvetica,sans-Serif" font-size="10.00">type_traits</text>
</a>
</g>
</g>
<!-- Node3&#45;&gt;Node27 -->
<g id="edge33" class="edge">
<title>Node3&#45;&gt;Node27</title>
<path fill="none" stroke="midnightblue" d="M852.01,-235.44C871.59,-226.64 902.31,-212.81 924.73,-202.72"/>
<polygon fill="midnightblue" stroke="midnightblue" points="926.39,-205.81 934.07,-198.52 923.52,-199.43 926.39,-205.81"/>
</g>
<!-- Node5 -->
<g id="node5" class="node">
<title>Node5</title>
<g id="a_node5"><a xlink:href="include_2log_8h.html" target="_top" xlink:title="Log Utilities.">
<polygon fill="white" stroke="black" points="818.5,-123.5 818.5,-142.5 859.5,-142.5 859.5,-123.5 818.5,-123.5"/>
<text text-anchor="middle" x="839" y="-130.5" font-family="Helvetica,sans-Serif" font-size="10.00">log.h</text>
</a>
</g>
</g>
<!-- Node4&#45;&gt;Node5 -->
<g id="edge4" class="edge">
<title>Node4&#45;&gt;Node5</title>
<path fill="none" stroke="midnightblue" d="M799.76,-179.08C806.54,-171.3 816.54,-159.8 824.76,-150.37"/>
<polygon fill="midnightblue" stroke="midnightblue" points="827.46,-152.59 831.38,-142.75 822.18,-148 827.46,-152.59"/>
</g>
<!-- Node5&#45;&gt;Node6 -->
<g id="edge5" class="edge">
<title>Node5&#45;&gt;Node6</title>
<path fill="none" stroke="midnightblue" d="M818.23,-124.26C794.27,-115.34 754.59,-100.56 726.53,-90.11"/>
<polygon fill="midnightblue" stroke="midnightblue" points="727.73,-86.83 717.13,-86.62 725.28,-93.39 727.73,-86.83"/>
</g>
<!-- Node5&#45;&gt;Node8 -->
<g id="edge7" class="edge">
<title>Node5&#45;&gt;Node8</title>
<path fill="none" stroke="midnightblue" d="M859.77,-128.98C902.14,-122.69 1001.72,-107.24 1095.27,-87"/>
<polygon fill="midnightblue" stroke="midnightblue" points="1096.16,-90.39 1105.18,-84.83 1094.66,-83.55 1096.16,-90.39"/>
</g>
<!-- Node5&#45;&gt;Node11 -->
<g id="edge11" class="edge">
<title>Node5&#45;&gt;Node11</title>
<path fill="none" stroke="midnightblue" d="M818.22,-128.12C768.89,-118.9 644.38,-95.64 583.95,-84.34"/>
<polygon fill="midnightblue" stroke="midnightblue" points="584.26,-80.84 573.79,-82.44 582.98,-87.72 584.26,-80.84"/>
</g>
<!-- Node21 -->
<g id="node21" class="node">
<title>Node21</title>
<g id="a_node21"><a xlink:title=" ">
<polygon fill="white" stroke="#bfbfbf" points="957,-67.5 957,-86.5 1001,-86.5 1001,-67.5 957,-67.5"/>
<text text-anchor="middle" x="979" y="-74.5" font-family="Helvetica,sans-Serif" font-size="10.00">ctime</text>
</a>
</g>
</g>
<!-- Node5&#45;&gt;Node21 -->
<g id="edge23" class="edge">
<title>Node5&#45;&gt;Node21</title>
<path fill="none" stroke="midnightblue" d="M859.66,-124.03C882.83,-115.1 920.66,-100.5 947.52,-90.14"/>
<polygon fill="midnightblue" stroke="midnightblue" points="948.8,-93.4 956.87,-86.54 946.28,-86.87 948.8,-93.4"/>
</g>
<!-- Node22 -->
<g id="node22" class="node">
<title>Node22</title>
<g id="a_node22"><a xlink:title=" ">
<polygon fill="white" stroke="#bfbfbf" points="1019,-67.5 1019,-86.5 1087,-86.5 1087,-67.5 1019,-67.5"/>
<text text-anchor="middle" x="1053" y="-74.5" font-family="Helvetica,sans-Serif" font-size="10.00">filesystem</text>
</a>
</g>
</g>
<!-- Node5&#45;&gt;Node22 -->
<g id="edge24" class="edge">
<title>Node5&#45;&gt;Node22</title>
<path fill="none" stroke="midnightblue" d="M859.52,-126.82C893.85,-118.16 963.66,-100.54 1009.37,-89.01"/>
<polygon fill="midnightblue" stroke="midnightblue" points="1010.46,-92.35 1019.3,-86.5 1008.74,-85.56 1010.46,-92.35"/>
</g>
<!-- Node23 -->
<g id="node23" class="node">
<title>Node23</title>
<g id="a_node23"><a xlink:title=" ">
<polygon fill="white" stroke="#bfbfbf" points="737.5,-67.5 737.5,-86.5 792.5,-86.5 792.5,-67.5 737.5,-67.5"/>
<text text-anchor="middle" x="765" y="-74.5" font-family="Helvetica,sans-Serif" font-size="10.00">fstream</text>
</a>
</g>
</g>
<!-- Node5&#45;&gt;Node23 -->
<g id="edge25" class="edge">
<title>Node5&#45;&gt;Node23</title>
<path fill="none" stroke="midnightblue" d="M827.11,-123.32C815.85,-115.11 798.71,-102.6 785.29,-92.81"/>
<polygon fill="midnightblue" stroke="midnightblue" points="787.25,-89.9 777.11,-86.83 783.12,-95.56 787.25,-89.9"/>
</g>
<!-- Node24 -->
<g id="node24" class="node">
<title>Node24</title>
<g id="a_node24"><a xlink:title=" ">
<polygon fill="white" stroke="#bfbfbf" points="811,-67.5 811,-86.5 867,-86.5 867,-67.5 811,-67.5"/>
<text text-anchor="middle" x="839" y="-74.5" font-family="Helvetica,sans-Serif" font-size="10.00">iomanip</text>
</a>
</g>
</g>
<!-- Node5&#45;&gt;Node24 -->
<g id="edge26" class="edge">
<title>Node5&#45;&gt;Node24</title>
<path fill="none" stroke="midnightblue" d="M839,-123.08C839,-116.01 839,-105.86 839,-96.99"/>
<polygon fill="midnightblue" stroke="midnightblue" points="842.5,-96.75 839,-86.75 835.5,-96.75 842.5,-96.75"/>
</g>
<!-- Node25 -->
<g id="node25" class="node">
<title>Node25</title>
<g id="a_node25"><a xlink:title=" ">
<polygon fill="white" stroke="#bfbfbf" points="885.5,-67.5 885.5,-86.5 938.5,-86.5 938.5,-67.5 885.5,-67.5"/>
<text text-anchor="middle" x="912" y="-74.5" font-family="Helvetica,sans-Serif" font-size="10.00">spy.hpp</text>
</a>
</g>
</g>
<!-- Node5&#45;&gt;Node25 -->
<g id="edge27" class="edge">
<title>Node5&#45;&gt;Node25</title>
<path fill="none" stroke="midnightblue" d="M850.73,-123.32C861.84,-115.11 878.74,-102.6 891.98,-92.81"/>
<polygon fill="midnightblue" stroke="midnightblue" points="894.1,-95.59 900.06,-86.83 889.94,-89.97 894.1,-95.59"/>
</g>
<!-- Node6&#45;&gt;Node7 -->
<g id="edge6" class="edge">
<title>Node6&#45;&gt;Node7</title>
<path fill="none" stroke="midnightblue" d="M719.55,-69.15C757.27,-58.96 825.99,-40.02 850,-31 851.43,-30.46 852.88,-29.89 854.33,-29.29"/>
<polygon fill="midnightblue" stroke="midnightblue" points="856.08,-32.35 863.83,-25.12 853.26,-25.94 856.08,-32.35"/>
</g>
<!-- Node8&#45;&gt;Node7 -->
<g id="edge10" class="edge">
<title>Node8&#45;&gt;Node7</title>
<path fill="none" stroke="midnightblue" d="M1105.14,-69.33C1102.06,-68.53 1098.96,-67.74 1096,-67 1031.19,-50.81 955,-33.27 912.95,-23.71"/>
<polygon fill="midnightblue" stroke="midnightblue" points="913.55,-20.26 903.02,-21.46 912,-27.08 913.55,-20.26"/>
</g>
<!-- Node9 -->
<g id="node9" class="node">
<title>Node9</title>
<g id="a_node9"><a xlink:title=" ">
<polygon fill="white" stroke="#bfbfbf" points="1095.5,-6 1095.5,-25 1144.5,-25 1144.5,-6 1095.5,-6"/>
<text text-anchor="middle" x="1120" y="-13" font-family="Helvetica,sans-Serif" font-size="10.00">cstdlib</text>
</a>
</g>
</g>
<!-- Node8&#45;&gt;Node9 -->
<g id="edge8" class="edge">
<title>Node8&#45;&gt;Node9</title>
<path fill="none" stroke="midnightblue" d="M1128.57,-67.48C1127.16,-59.08 1124.95,-45.98 1123.14,-35.16"/>
<polygon fill="midnightblue" stroke="midnightblue" points="1126.54,-34.29 1121.43,-25.01 1119.64,-35.45 1126.54,-34.29"/>
</g>
<!-- Node8&#45;&gt;Node10 -->
<g id="edge9" class="edge">
<title>Node8&#45;&gt;Node10</title>
<path fill="none" stroke="midnightblue" d="M1139.03,-67.48C1148.76,-58.28 1164.46,-43.46 1176.42,-32.16"/>
<polygon fill="midnightblue" stroke="midnightblue" points="1179.12,-34.42 1183.99,-25.01 1174.32,-29.33 1179.12,-34.42"/>
</g>
<!-- Node11&#45;&gt;Node2 -->
<g id="edge18" class="edge">
<title>Node11&#45;&gt;Node2</title>
<path fill="none" stroke="midnightblue" d="M526.45,-74.95C459.43,-71.69 262.12,-60.12 101,-31 95.79,-30.06 90.35,-28.87 85,-27.59"/>
<polygon fill="midnightblue" stroke="midnightblue" points="85.48,-24.1 74.92,-25.04 83.76,-30.89 85.48,-24.1"/>
</g>
<!-- Node11&#45;&gt;Node7 -->
<g id="edge16" class="edge">
<title>Node11&#45;&gt;Node7</title>
<path fill="none" stroke="midnightblue" d="M573.64,-70.03C578.38,-68.94 583.33,-67.87 588,-67 703.54,-45.43 737.27,-64.28 850,-31 851.88,-30.44 853.79,-29.79 855.69,-29.08"/>
<polygon fill="midnightblue" stroke="midnightblue" points="857.13,-32.27 864.95,-25.13 854.38,-25.83 857.13,-32.27"/>
</g>
<!-- Node12 -->
<g id="node12" class="node">
<title>Node12</title>
<g id="a_node12"><a xlink:title=" ">
<polygon fill="white" stroke="#bfbfbf" points="637,-6 637,-25 701,-25 701,-6 637,-6"/>
<text text-anchor="middle" x="669" y="-13" font-family="Helvetica,sans-Serif" font-size="10.00">algorithm</text>
</a>
</g>
</g>
<!-- Node11&#45;&gt;Node12 -->
<g id="edge12" class="edge">
<title>Node11&#45;&gt;Node12</title>
<path fill="none" stroke="midnightblue" d="M567.05,-67.48C586.84,-57.58 619.72,-41.14 642.77,-29.62"/>
<polygon fill="midnightblue" stroke="midnightblue" points="644.6,-32.61 651.98,-25.01 641.47,-26.35 644.6,-32.61"/>
</g>
<!-- Node13 -->
<g id="node13" class="node">
<title>Node13</title>
<g id="a_node13"><a xlink:title=" ">
<polygon fill="white" stroke="#bfbfbf" points="719.5,-6 719.5,-25 768.5,-25 768.5,-6 719.5,-6"/>
<text text-anchor="middle" x="744" y="-13" font-family="Helvetica,sans-Serif" font-size="10.00">cctype</text>
</a>
</g>
</g>
<!-- Node11&#45;&gt;Node13 -->
<g id="edge13" class="edge">
<title>Node11&#45;&gt;Node13</title>
<path fill="none" stroke="midnightblue" d="M573.61,-70.37C605.09,-62.64 662.37,-47.78 710,-31 711.86,-30.34 713.77,-29.64 715.68,-28.9"/>
<polygon fill="midnightblue" stroke="midnightblue" points="717.16,-32.07 725.11,-25.07 714.53,-25.59 717.16,-32.07"/>
</g>
<!-- Node14 -->
<g id="node14" class="node">
<title>Node14</title>
<g id="a_node14"><a xlink:title=" ">
<polygon fill="white" stroke="#bfbfbf" points="787,-6 787,-25 841,-25 841,-6 787,-6"/>
<text text-anchor="middle" x="814" y="-13" font-family="Helvetica,sans-Serif" font-size="10.00">random</text>
</a>
</g>
</g>
<!-- Node11&#45;&gt;Node14 -->
<g id="edge14" class="edge">
<title>Node11&#45;&gt;Node14</title>
<path fill="none" stroke="midnightblue" d="M573.68,-70.22C578.41,-69.11 583.36,-67.99 588,-67 672.06,-49.09 695.52,-55.17 778,-31 780.43,-30.29 782.93,-29.47 785.42,-28.6"/>
<polygon fill="midnightblue" stroke="midnightblue" points="786.7,-31.85 794.82,-25.03 784.22,-25.3 786.7,-31.85"/>
</g>
<!-- Node15 -->
<g id="node15" class="node">
<title>Node15</title>
<g id="a_node15"><a xlink:title=" ">
<polygon fill="white" stroke="#bfbfbf" points="110,-6 110,-25 166,-25 166,-6 110,-6"/>
<text text-anchor="middle" x="138" y="-13" font-family="Helvetica,sans-Serif" font-size="10.00">sstream</text>
</a>
</g>
</g>
<!-- Node11&#45;&gt;Node15 -->
<g id="edge15" class="edge">
<title>Node11&#45;&gt;Node15</title>
<path fill="none" stroke="midnightblue" d="M526.37,-75.24C466.62,-72.88 305.04,-63.72 175,-31 172.33,-30.33 169.6,-29.51 166.88,-28.62"/>
<polygon fill="midnightblue" stroke="midnightblue" points="167.88,-25.26 157.28,-25.12 165.48,-31.83 167.88,-25.26"/>
</g>
<!-- Node16 -->
<g id="node16" class="node">
<title>Node16</title>
<g id="a_node16"><a xlink:title=" ">
<polygon fill="white" stroke="#bfbfbf" points="184.5,-6 184.5,-25 231.5,-25 231.5,-6 184.5,-6"/>
<text text-anchor="middle" x="208" y="-13" font-family="Helvetica,sans-Serif" font-size="10.00">vector</text>
</a>
</g>
</g>
<!-- Node11&#45;&gt;Node16 -->
<g id="edge17" class="edge">
<title>Node11&#45;&gt;Node16</title>
<path fill="none" stroke="midnightblue" d="M526.19,-74.82C473.57,-71.73 343.86,-61.41 240,-31 238.07,-30.43 236.1,-29.77 234.14,-29.05"/>
<polygon fill="midnightblue" stroke="midnightblue" points="235.18,-25.69 224.6,-25.09 232.49,-32.16 235.18,-25.69"/>
</g>
<!-- Node17 -->
<g id="node17" class="node">
<title>Node17</title>
<g id="a_node17"><a xlink:title=" ">
<polygon fill="white" stroke="#bfbfbf" points="249.5,-0.5 249.5,-30.5 390.5,-30.5 390.5,-0.5 249.5,-0.5"/>
<text text-anchor="start" x="257.5" y="-18.5" font-family="Helvetica,sans-Serif" font-size="10.00">boost/dll/runtime_symbol</text>
<text text-anchor="middle" x="320" y="-7.5" font-family="Helvetica,sans-Serif" font-size="10.00">_info.hpp</text>
</a>
</g>
</g>
<!-- Node11&#45;&gt;Node17 -->
<g id="edge19" class="edge">
<title>Node11&#45;&gt;Node17</title>
<path fill="none" stroke="midnightblue" d="M526.25,-69.86C493.03,-61.26 431.47,-45.34 384.22,-33.11"/>
<polygon fill="midnightblue" stroke="midnightblue" points="384.92,-29.68 374.37,-30.56 383.17,-36.46 384.92,-29.68"/>
</g>
<!-- Node18 -->
<g id="node18" class="node">
<title>Node18</title>
<g id="a_node18"><a xlink:title=" ">
<polygon fill="white" stroke="#bfbfbf" points="409,-6 409,-25 455,-25 455,-6 409,-6"/>
<text text-anchor="middle" x="432" y="-13" font-family="Helvetica,sans-Serif" font-size="10.00">pwd.h</text>
</a>
</g>
</g>
<!-- Node11&#45;&gt;Node18 -->
<g id="edge20" class="edge">
<title>Node11&#45;&gt;Node18</title>
<path fill="none" stroke="midnightblue" d="M533.09,-67.48C513.47,-57.58 480.87,-41.14 458.01,-29.62"/>
<polygon fill="midnightblue" stroke="midnightblue" points="459.38,-26.39 448.88,-25.01 456.23,-32.64 459.38,-26.39"/>
</g>
<!-- Node19 -->
<g id="node19" class="node">
<title>Node19</title>
<g id="a_node19"><a xlink:title=" ">
<polygon fill="white" stroke="#bfbfbf" points="473,-6 473,-25 545,-25 545,-6 473,-6"/>
<text text-anchor="middle" x="509" y="-13" font-family="Helvetica,sans-Serif" font-size="10.00">sys/types.h</text>
</a>
</g>
</g>
<!-- Node11&#45;&gt;Node19 -->
<g id="edge21" class="edge">
<title>Node11&#45;&gt;Node19</title>
<path fill="none" stroke="midnightblue" d="M544.13,-67.48C538.04,-58.64 528.36,-44.59 520.7,-33.48"/>
<polygon fill="midnightblue" stroke="midnightblue" points="523.42,-31.26 514.86,-25.01 517.66,-35.23 523.42,-31.26"/>
</g>
<!-- Node20 -->
<g id="node20" class="node">
<title>Node20</title>
<g id="a_node20"><a xlink:title=" ">
<polygon fill="white" stroke="#bfbfbf" points="563,-6 563,-25 619,-25 619,-6 563,-6"/>
<text text-anchor="middle" x="591" y="-13" font-family="Helvetica,sans-Serif" font-size="10.00">unistd.h</text>
</a>
</g>
</g>
<!-- Node11&#45;&gt;Node20 -->
<g id="edge22" class="edge">
<title>Node11&#45;&gt;Node20</title>
<path fill="none" stroke="midnightblue" d="M555.87,-67.48C561.96,-58.64 571.64,-44.59 579.3,-33.48"/>
<polygon fill="midnightblue" stroke="midnightblue" points="582.34,-35.23 585.14,-25.01 576.58,-31.26 582.34,-35.23"/>
</g>
</g>
</svg>
