<?xml version="1.0" encoding="UTF-8" standalone="no"?>
<!DOCTYPE svg PUBLIC "-//W3C//DTD SVG 1.1//EN"
 "http://www.w3.org/Graphics/SVG/1.1/DTD/svg11.dtd">
<!-- Generated by graphviz version 2.43.0 (0)
 -->
<!-- Title: src/term.cpp Pages: 1 -->
<!--zoomable 263 -->
<svg id="main" version="1.1" xmlns="http://www.w3.org/2000/svg" xmlns:xlink="http://www.w3.org/1999/xlink" xml:space="preserve" onload="init(evt)">
<style type="text/css"><![CDATA[
.edge:hover path { stroke: red; }
.edge:hover polygon { stroke: red; fill: red; }
]]></style>
<script type="text/javascript"><![CDATA[
var edges = document.getElementsByTagName('g');
if (edges && edges.length) {
  for (var i=0;i<edges.length;i++) {
    if (edges[i].id.substr(0,4)=='edge') {
      edges[i].setAttribute('class','edge');
    }
  }
}
]]></script>
        <defs>
                <circle id="rim" cx="0" cy="0" r="7"/>
                <circle id="rim2" cx="0" cy="0" r="3.5"/>
                <g id="zoomPlus">
                        <use xlink:href="#rim" fill="#404040">
                                <set attributeName="fill" to="#808080" begin="zoomplus.mouseover" end="zoomplus.mouseout"/>
                        </use>
                        <path d="M-4,0h8M0,-4v8" fill="none" stroke="white" stroke-width="1.5" pointer-events="none"/>
                </g>
                <g id="zoomMin">
                        <use xlink:href="#rim" fill="#404040">
                                <set attributeName="fill" to="#808080" begin="zoomminus.mouseover" end="zoomminus.mouseout"/>
                        </use>
                        <path d="M-4,0h8" fill="none" stroke="white" stroke-width="1.5" pointer-events="none"/>
                </g>
                <g id="dirArrow">
                        <path fill="none" stroke="white" stroke-width="1.5" d="M0,-3.0v7 M-2.5,-0.5L0,-3.0L2.5,-0.5"/>
                </g>
               <g id="resetDef">
                       <use xlink:href="#rim2" fill="#404040">
                               <set attributeName="fill" to="#808080" begin="reset.mouseover" end="reset.mouseout"/>
                       </use>
               </g>
        </defs>

<script type="text/javascript">
var viewWidth = 947;
var viewHeight = 263;
var sectionId = 'dynsection-0';
</script>
<script xlink:href="svgpan.js"/>
<svg id="graph" class="graph">
<g id="viewport">
<title>src/term.cpp</title>
<polygon fill="white" stroke="transparent" points="-4,4 -4,-259 942.5,-259 942.5,4 -4,4"/>
<!-- Node1 -->
<g id="node1" class="node">
<title>Node1</title>
<g id="a_node1"><a xlink:title="Implementation of Term Class and Color/Style Definitions.">
<polygon fill="#bfbfbf" stroke="black" points="216,-235.5 216,-254.5 293,-254.5 293,-235.5 216,-235.5"/>
<text text-anchor="middle" x="254.5" y="-242.5" font-family="Helvetica,sans-Serif" font-size="10.00">src/term.cpp</text>
</a>
</g>
</g>
<!-- Node2 -->
<g id="node2" class="node">
<title>Node2</title>
<g id="a_node2"><a xlink:href="term_8h.html" target="_top" xlink:title="Terminal Color and Style Control.">
<polygon fill="white" stroke="black" points="143,-67.5 143,-86.5 192,-86.5 192,-67.5 143,-67.5"/>
<text text-anchor="middle" x="167.5" y="-74.5" font-family="Helvetica,sans-Serif" font-size="10.00">term.h</text>
</a>
</g>
</g>
<!-- Node1&#45;&gt;Node2 -->
<g id="edge1" class="edge">
<title>Node1&#45;&gt;Node2</title>
<path fill="none" stroke="midnightblue" d="M249.82,-235.08C236.01,-208.72 195.21,-130.88 176.76,-95.66"/>
<polygon fill="midnightblue" stroke="midnightblue" points="179.73,-93.8 171.99,-86.57 173.53,-97.05 179.73,-93.8"/>
</g>
<!-- Node6 -->
<g id="node6" class="node">
<title>Node6</title>
<g id="a_node6"><a xlink:href="log__global_8h.html" target="_top" xlink:title="Global Access of Log.">
<polygon fill="white" stroke="black" points="356.5,-179.5 356.5,-198.5 432.5,-198.5 432.5,-179.5 356.5,-179.5"/>
<text text-anchor="middle" x="394.5" y="-186.5" font-family="Helvetica,sans-Serif" font-size="10.00">log_global.h</text>
</a>
</g>
</g>
<!-- Node1&#45;&gt;Node6 -->
<g id="edge5" class="edge">
<title>Node1&#45;&gt;Node6</title>
<path fill="none" stroke="midnightblue" d="M276.68,-235.44C299.93,-226.48 336.65,-212.31 362.92,-202.18"/>
<polygon fill="midnightblue" stroke="midnightblue" points="364.35,-205.38 372.42,-198.52 361.83,-198.85 364.35,-205.38"/>
</g>
<!-- Node3 -->
<g id="node3" class="node">
<title>Node3</title>
<g id="a_node3"><a xlink:title=" ">
<polygon fill="white" stroke="#bfbfbf" points="0,-6 0,-25 49,-25 49,-6 0,-6"/>
<text text-anchor="middle" x="24.5" y="-13" font-family="Helvetica,sans-Serif" font-size="10.00">cstdlib</text>
</a>
</g>
</g>
<!-- Node2&#45;&gt;Node3 -->
<g id="edge2" class="edge">
<title>Node2&#45;&gt;Node3</title>
<path fill="none" stroke="midnightblue" d="M146.57,-67.44C124.61,-58.45 89.08,-43.83 58.5,-31 57.09,-30.41 55.66,-29.81 54.21,-29.19"/>
<polygon fill="midnightblue" stroke="midnightblue" points="55.19,-25.81 44.62,-25.13 52.46,-32.25 55.19,-25.81"/>
</g>
<!-- Node4 -->
<g id="node4" class="node">
<title>Node4</title>
<g id="a_node4"><a xlink:title=" ">
<polygon fill="white" stroke="#bfbfbf" points="67.5,-6 67.5,-25 127.5,-25 127.5,-6 67.5,-6"/>
<text text-anchor="middle" x="97.5" y="-13" font-family="Helvetica,sans-Serif" font-size="10.00">iostream</text>
</a>
</g>
</g>
<!-- Node2&#45;&gt;Node4 -->
<g id="edge3" class="edge">
<title>Node2&#45;&gt;Node4</title>
<path fill="none" stroke="midnightblue" d="M157.47,-67.48C146.45,-58.11 128.54,-42.88 115.16,-31.51"/>
<polygon fill="midnightblue" stroke="midnightblue" points="117.4,-28.82 107.51,-25.01 112.86,-34.15 117.4,-28.82"/>
</g>
<!-- Node5 -->
<g id="node5" class="node">
<title>Node5</title>
<g id="a_node5"><a xlink:title=" ">
<polygon fill="white" stroke="#bfbfbf" points="145.5,-6 145.5,-25 189.5,-25 189.5,-6 145.5,-6"/>
<text text-anchor="middle" x="167.5" y="-13" font-family="Helvetica,sans-Serif" font-size="10.00">string</text>
</a>
</g>
</g>
<!-- Node2&#45;&gt;Node5 -->
<g id="edge4" class="edge">
<title>Node2&#45;&gt;Node5</title>
<path fill="none" stroke="midnightblue" d="M167.5,-67.48C167.5,-59.08 167.5,-45.98 167.5,-35.16"/>
<polygon fill="midnightblue" stroke="midnightblue" points="171,-35.01 167.5,-25.01 164,-35.01 171,-35.01"/>
</g>
<!-- Node7 -->
<g id="node7" class="node">
<title>Node7</title>
<g id="a_node7"><a xlink:href="include_2log_8h.html" target="_top" xlink:title="Log Utilities.">
<polygon fill="white" stroke="black" points="428,-123.5 428,-142.5 469,-142.5 469,-123.5 428,-123.5"/>
<text text-anchor="middle" x="448.5" y="-130.5" font-family="Helvetica,sans-Serif" font-size="10.00">log.h</text>
</a>
</g>
</g>
<!-- Node6&#45;&gt;Node7 -->
<g id="edge6" class="edge">
<title>Node6&#45;&gt;Node7</title>
<path fill="none" stroke="midnightblue" d="M403.42,-179.08C411.28,-171.22 422.93,-159.57 432.42,-150.08"/>
<polygon fill="midnightblue" stroke="midnightblue" points="435.15,-152.3 439.75,-142.75 430.2,-147.35 435.15,-152.3"/>
</g>
<!-- Node7&#45;&gt;Node2 -->
<g id="edge9" class="edge">
<title>Node7&#45;&gt;Node2</title>
<path fill="none" stroke="midnightblue" d="M427.84,-128.03C380.01,-118.84 261.27,-96.02 202.13,-84.65"/>
<polygon fill="midnightblue" stroke="midnightblue" points="202.63,-81.19 192.14,-82.74 201.3,-88.06 202.63,-81.19"/>
</g>
<!-- Node8 -->
<g id="node8" class="node">
<title>Node8</title>
<g id="a_node8"><a xlink:href="meta_8h.html" target="_top" xlink:title="mmCEsim meta data">
<polygon fill="white" stroke="black" points="251,-67.5 251,-86.5 302,-86.5 302,-67.5 251,-67.5"/>
<text text-anchor="middle" x="276.5" y="-74.5" font-family="Helvetica,sans-Serif" font-size="10.00">meta.h</text>
</a>
</g>
</g>
<!-- Node7&#45;&gt;Node8 -->
<g id="edge7" class="edge">
<title>Node7&#45;&gt;Node8</title>
<path fill="none" stroke="midnightblue" d="M427.75,-125.49C399.05,-116.47 346.81,-100.07 311.88,-89.11"/>
<polygon fill="midnightblue" stroke="midnightblue" points="312.66,-85.69 302.08,-86.03 310.57,-92.36 312.66,-85.69"/>
</g>
<!-- Node9 -->
<g id="node9" class="node">
<title>Node9</title>
<g id="a_node9"><a xlink:href="utils_8h.html" target="_top" xlink:title="Utilities.">
<polygon fill="white" stroke="black" points="361,-67.5 361,-86.5 408,-86.5 408,-67.5 361,-67.5"/>
<text text-anchor="middle" x="384.5" y="-74.5" font-family="Helvetica,sans-Serif" font-size="10.00">utils.h</text>
</a>
</g>
</g>
<!-- Node7&#45;&gt;Node9 -->
<g id="edge10" class="edge">
<title>Node7&#45;&gt;Node9</title>
<path fill="none" stroke="midnightblue" d="M438.22,-123.32C428.66,-115.26 414.22,-103.08 402.72,-93.37"/>
<polygon fill="midnightblue" stroke="midnightblue" points="404.87,-90.61 394.97,-86.83 400.36,-95.96 404.87,-90.61"/>
</g>
<!-- Node19 -->
<g id="node19" class="node">
<title>Node19</title>
<g id="a_node19"><a xlink:title=" ">
<polygon fill="white" stroke="#bfbfbf" points="426.5,-67.5 426.5,-86.5 470.5,-86.5 470.5,-67.5 426.5,-67.5"/>
<text text-anchor="middle" x="448.5" y="-74.5" font-family="Helvetica,sans-Serif" font-size="10.00">ctime</text>
</a>
</g>
</g>
<!-- Node7&#45;&gt;Node19 -->
<g id="edge21" class="edge">
<title>Node7&#45;&gt;Node19</title>
<path fill="none" stroke="midnightblue" d="M448.5,-123.08C448.5,-116.01 448.5,-105.86 448.5,-96.99"/>
<polygon fill="midnightblue" stroke="midnightblue" points="452,-96.75 448.5,-86.75 445,-96.75 452,-96.75"/>
</g>
<!-- Node20 -->
<g id="node20" class="node">
<title>Node20</title>
<g id="a_node20"><a xlink:title=" ">
<polygon fill="white" stroke="#bfbfbf" points="488.5,-67.5 488.5,-86.5 556.5,-86.5 556.5,-67.5 488.5,-67.5"/>
<text text-anchor="middle" x="522.5" y="-74.5" font-family="Helvetica,sans-Serif" font-size="10.00">filesystem</text>
</a>
</g>
</g>
<!-- Node7&#45;&gt;Node20 -->
<g id="edge22" class="edge">
<title>Node7&#45;&gt;Node20</title>
<path fill="none" stroke="midnightblue" d="M460.39,-123.32C471.65,-115.11 488.79,-102.6 502.21,-92.81"/>
<polygon fill="midnightblue" stroke="midnightblue" points="504.38,-95.56 510.39,-86.83 500.25,-89.9 504.38,-95.56"/>
</g>
<!-- Node21 -->
<g id="node21" class="node">
<title>Node21</title>
<g id="a_node21"><a xlink:title=" ">
<polygon fill="white" stroke="#bfbfbf" points="575,-67.5 575,-86.5 630,-86.5 630,-67.5 575,-67.5"/>
<text text-anchor="middle" x="602.5" y="-74.5" font-family="Helvetica,sans-Serif" font-size="10.00">fstream</text>
</a>
</g>
</g>
<!-- Node7&#45;&gt;Node21 -->
<g id="edge23" class="edge">
<title>Node7&#45;&gt;Node21</title>
<path fill="none" stroke="midnightblue" d="M469.27,-124.72C494.64,-115.82 537.93,-100.64 568.26,-90.01"/>
<polygon fill="midnightblue" stroke="midnightblue" points="569.72,-93.2 578,-86.59 567.41,-86.6 569.72,-93.2"/>
</g>
<!-- Node22 -->
<g id="node22" class="node">
<title>Node22</title>
<g id="a_node22"><a xlink:title=" ">
<polygon fill="white" stroke="#bfbfbf" points="648.5,-67.5 648.5,-86.5 704.5,-86.5 704.5,-67.5 648.5,-67.5"/>
<text text-anchor="middle" x="676.5" y="-74.5" font-family="Helvetica,sans-Serif" font-size="10.00">iomanip</text>
</a>
</g>
</g>
<!-- Node7&#45;&gt;Node22 -->
<g id="edge24" class="edge">
<title>Node7&#45;&gt;Node22</title>
<path fill="none" stroke="midnightblue" d="M469.14,-127.19C502.54,-119.39 570.75,-103.42 638.27,-87.28"/>
<polygon fill="midnightblue" stroke="midnightblue" points="639.31,-90.63 648.22,-84.9 637.68,-83.82 639.31,-90.63"/>
</g>
<!-- Node23 -->
<g id="node23" class="node">
<title>Node23</title>
<g id="a_node23"><a xlink:title=" ">
<polygon fill="white" stroke="#bfbfbf" points="723,-67.5 723,-86.5 776,-86.5 776,-67.5 723,-67.5"/>
<text text-anchor="middle" x="749.5" y="-74.5" font-family="Helvetica,sans-Serif" font-size="10.00">spy.hpp</text>
</a>
</g>
</g>
<!-- Node7&#45;&gt;Node23 -->
<g id="edge25" class="edge">
<title>Node7&#45;&gt;Node23</title>
<path fill="none" stroke="midnightblue" d="M469.22,-129.04C512.51,-122.72 615.9,-107.04 712.85,-86.99"/>
<polygon fill="midnightblue" stroke="midnightblue" points="713.74,-90.38 722.82,-84.91 712.31,-83.53 713.74,-90.38"/>
</g>
<!-- Node8&#45;&gt;Node5 -->
<g id="edge8" class="edge">
<title>Node8&#45;&gt;Node5</title>
<path fill="none" stroke="midnightblue" d="M260.88,-67.48C242.91,-57.67 213.18,-41.43 192.09,-29.92"/>
<polygon fill="midnightblue" stroke="midnightblue" points="193.54,-26.73 183.09,-25.01 190.19,-32.87 193.54,-26.73"/>
</g>
<!-- Node9&#45;&gt;Node5 -->
<g id="edge15" class="edge">
<title>Node9&#45;&gt;Node5</title>
<path fill="none" stroke="midnightblue" d="M360.87,-71.86C325.11,-65.24 255.4,-50.96 198.5,-31 196.88,-30.43 195.23,-29.81 193.58,-29.15"/>
<polygon fill="midnightblue" stroke="midnightblue" points="194.87,-25.89 184.3,-25.1 192.07,-32.31 194.87,-25.89"/>
</g>
<!-- Node10 -->
<g id="node10" class="node">
<title>Node10</title>
<g id="a_node10"><a xlink:title=" ">
<polygon fill="white" stroke="#bfbfbf" points="207.5,-6 207.5,-25 271.5,-25 271.5,-6 207.5,-6"/>
<text text-anchor="middle" x="239.5" y="-13" font-family="Helvetica,sans-Serif" font-size="10.00">algorithm</text>
</a>
</g>
</g>
<!-- Node9&#45;&gt;Node10 -->
<g id="edge11" class="edge">
<title>Node9&#45;&gt;Node10</title>
<path fill="none" stroke="midnightblue" d="M363.73,-67.48C339.07,-57.36 297.75,-40.4 269.6,-28.85"/>
<polygon fill="midnightblue" stroke="midnightblue" points="270.82,-25.57 260.24,-25.01 268.16,-32.04 270.82,-25.57"/>
</g>
<!-- Node11 -->
<g id="node11" class="node">
<title>Node11</title>
<g id="a_node11"><a xlink:title=" ">
<polygon fill="white" stroke="#bfbfbf" points="290,-6 290,-25 339,-25 339,-6 290,-6"/>
<text text-anchor="middle" x="314.5" y="-13" font-family="Helvetica,sans-Serif" font-size="10.00">cctype</text>
</a>
</g>
</g>
<!-- Node9&#45;&gt;Node11 -->
<g id="edge12" class="edge">
<title>Node9&#45;&gt;Node11</title>
<path fill="none" stroke="midnightblue" d="M374.47,-67.48C363.45,-58.11 345.54,-42.88 332.16,-31.51"/>
<polygon fill="midnightblue" stroke="midnightblue" points="334.4,-28.82 324.51,-25.01 329.86,-34.15 334.4,-28.82"/>
</g>
<!-- Node12 -->
<g id="node12" class="node">
<title>Node12</title>
<g id="a_node12"><a xlink:title=" ">
<polygon fill="white" stroke="#bfbfbf" points="357.5,-6 357.5,-25 411.5,-25 411.5,-6 357.5,-6"/>
<text text-anchor="middle" x="384.5" y="-13" font-family="Helvetica,sans-Serif" font-size="10.00">random</text>
</a>
</g>
</g>
<!-- Node9&#45;&gt;Node12 -->
<g id="edge13" class="edge">
<title>Node9&#45;&gt;Node12</title>
<path fill="none" stroke="midnightblue" d="M384.5,-67.48C384.5,-59.08 384.5,-45.98 384.5,-35.16"/>
<polygon fill="midnightblue" stroke="midnightblue" points="388,-35.01 384.5,-25.01 381,-35.01 388,-35.01"/>
</g>
<!-- Node13 -->
<g id="node13" class="node">
<title>Node13</title>
<g id="a_node13"><a xlink:title=" ">
<polygon fill="white" stroke="#bfbfbf" points="429.5,-6 429.5,-25 485.5,-25 485.5,-6 429.5,-6"/>
<text text-anchor="middle" x="457.5" y="-13" font-family="Helvetica,sans-Serif" font-size="10.00">sstream</text>
</a>
</g>
</g>
<!-- Node9&#45;&gt;Node13 -->
<g id="edge14" class="edge">
<title>Node9&#45;&gt;Node13</title>
<path fill="none" stroke="midnightblue" d="M394.96,-67.48C406.45,-58.11 425.13,-42.88 439.09,-31.51"/>
<polygon fill="midnightblue" stroke="midnightblue" points="441.52,-34.04 447.06,-25.01 437.1,-28.61 441.52,-34.04"/>
</g>
<!-- Node14 -->
<g id="node14" class="node">
<title>Node14</title>
<g id="a_node14"><a xlink:title=" ">
<polygon fill="white" stroke="#bfbfbf" points="504,-6 504,-25 551,-25 551,-6 504,-6"/>
<text text-anchor="middle" x="527.5" y="-13" font-family="Helvetica,sans-Serif" font-size="10.00">vector</text>
</a>
</g>
</g>
<!-- Node9&#45;&gt;Node14 -->
<g id="edge16" class="edge">
<title>Node9&#45;&gt;Node14</title>
<path fill="none" stroke="midnightblue" d="M406.07,-67.37C428.29,-58.43 463.92,-43.97 494.5,-31 495.9,-30.4 497.34,-29.79 498.79,-29.17"/>
<polygon fill="midnightblue" stroke="midnightblue" points="500.56,-32.21 508.34,-25.02 497.77,-25.79 500.56,-32.21"/>
</g>
<!-- Node15 -->
<g id="node15" class="node">
<title>Node15</title>
<g id="a_node15"><a xlink:title=" ">
<polygon fill="white" stroke="#bfbfbf" points="569,-0.5 569,-30.5 710,-30.5 710,-0.5 569,-0.5"/>
<text text-anchor="start" x="577" y="-18.5" font-family="Helvetica,sans-Serif" font-size="10.00">boost/dll/runtime_symbol</text>
<text text-anchor="middle" x="639.5" y="-7.5" font-family="Helvetica,sans-Serif" font-size="10.00">_info.hpp</text>
</a>
</g>
</g>
<!-- Node9&#45;&gt;Node15 -->
<g id="edge17" class="edge">
<title>Node9&#45;&gt;Node15</title>
<path fill="none" stroke="midnightblue" d="M408.26,-69.39C411.36,-68.56 414.5,-67.75 417.5,-67 466.24,-54.82 521.3,-42.28 564.4,-32.75"/>
<polygon fill="midnightblue" stroke="midnightblue" points="565.23,-36.15 574.24,-30.58 563.72,-29.31 565.23,-36.15"/>
</g>
<!-- Node16 -->
<g id="node16" class="node">
<title>Node16</title>
<g id="a_node16"><a xlink:title=" ">
<polygon fill="white" stroke="#bfbfbf" points="728.5,-6 728.5,-25 774.5,-25 774.5,-6 728.5,-6"/>
<text text-anchor="middle" x="751.5" y="-13" font-family="Helvetica,sans-Serif" font-size="10.00">pwd.h</text>
</a>
</g>
</g>
<!-- Node9&#45;&gt;Node16 -->
<g id="edge18" class="edge">
<title>Node9&#45;&gt;Node16</title>
<path fill="none" stroke="midnightblue" d="M408.19,-69.09C411.31,-68.31 414.47,-67.59 417.5,-67 550.18,-41.15 589.3,-67.32 719.5,-31 721.65,-30.4 723.84,-29.68 726.01,-28.88"/>
<polygon fill="midnightblue" stroke="midnightblue" points="727.37,-32.1 735.25,-25.02 724.68,-25.64 727.37,-32.1"/>
</g>
<!-- Node17 -->
<g id="node17" class="node">
<title>Node17</title>
<g id="a_node17"><a xlink:title=" ">
<polygon fill="white" stroke="#bfbfbf" points="792.5,-6 792.5,-25 864.5,-25 864.5,-6 792.5,-6"/>
<text text-anchor="middle" x="828.5" y="-13" font-family="Helvetica,sans-Serif" font-size="10.00">sys/types.h</text>
</a>
</g>
</g>
<!-- Node9&#45;&gt;Node17 -->
<g id="edge19" class="edge">
<title>Node9&#45;&gt;Node17</title>
<path fill="none" stroke="midnightblue" d="M408.18,-69.03C411.3,-68.26 414.46,-67.56 417.5,-67 578.25,-37.39 623.47,-64.25 783.5,-31 787.37,-30.2 791.37,-29.18 795.32,-28.07"/>
<polygon fill="midnightblue" stroke="midnightblue" points="796.39,-31.4 804.93,-25.14 794.35,-24.7 796.39,-31.4"/>
</g>
<!-- Node18 -->
<g id="node18" class="node">
<title>Node18</title>
<g id="a_node18"><a xlink:title=" ">
<polygon fill="white" stroke="#bfbfbf" points="882.5,-6 882.5,-25 938.5,-25 938.5,-6 882.5,-6"/>
<text text-anchor="middle" x="910.5" y="-13" font-family="Helvetica,sans-Serif" font-size="10.00">unistd.h</text>
</a>
</g>
</g>
<!-- Node9&#45;&gt;Node18 -->
<g id="edge20" class="edge">
<title>Node9&#45;&gt;Node18</title>
<path fill="none" stroke="midnightblue" d="M408.17,-68.97C411.29,-68.22 414.46,-67.53 417.5,-67 617.78,-32.1 675.38,-76.58 873.5,-31 876.34,-30.35 879.24,-29.52 882.12,-28.58"/>
<polygon fill="midnightblue" stroke="midnightblue" points="883.43,-31.83 891.64,-25.13 881.04,-25.25 883.43,-31.83"/>
</g>
</g>
</svg>
        <g id="navigator" transform="translate(0 0)" fill="#404254">
                <rect fill="#f2f5e9" fill-opacity="0.5" stroke="#606060" stroke-width=".5" x="0" y="0" width="60" height="60"/>
                <use id="zoomplus" xlink:href="#zoomPlus" x="17" y="9" onmousedown="handleZoom(evt,'in')"/>
                <use id="zoomminus" xlink:href="#zoomMin" x="42" y="9" onmousedown="handleZoom(evt,'out')"/>
                <use id="reset" xlink:href="#resetDef" x="30" y="36" onmousedown="handleReset()"/>
                <g id="arrowUp" xlink:href="#dirArrow" transform="translate(30 24)" onmousedown="handlePan(0,-1)">
                  <use xlink:href="#rim" fill="#404040">
                        <set attributeName="fill" to="#808080" begin="arrowUp.mouseover" end="arrowUp.mouseout"/>
                  </use>
                  <path fill="none" stroke="white" stroke-width="1.5" d="M0,-3.0v7 M-2.5,-0.5L0,-3.0L2.5,-0.5"/>
                </g>
                <g id="arrowRight" xlink:href="#dirArrow" transform="rotate(90) translate(36 -43)" onmousedown="handlePan(1,0)">
                  <use xlink:href="#rim" fill="#404040">
                        <set attributeName="fill" to="#808080" begin="arrowRight.mouseover" end="arrowRight.mouseout"/>
                  </use>
                  <path fill="none" stroke="white" stroke-width="1.5" d="M0,-3.0v7 M-2.5,-0.5L0,-3.0L2.5,-0.5"/>
                </g>
                <g id="arrowDown" xlink:href="#dirArrow" transform="rotate(180) translate(-30 -48)" onmousedown="handlePan(0,1)">
                  <use xlink:href="#rim" fill="#404040">
                        <set attributeName="fill" to="#808080" begin="arrowDown.mouseover" end="arrowDown.mouseout"/>
                  </use>
                  <path fill="none" stroke="white" stroke-width="1.5" d="M0,-3.0v7 M-2.5,-0.5L0,-3.0L2.5,-0.5"/>
                </g>
                <g id="arrowLeft" xlink:href="#dirArrow" transform="rotate(270) translate(-36 17)" onmousedown="handlePan(-1,0)">
                  <use xlink:href="#rim" fill="#404040">
                        <set attributeName="fill" to="#808080" begin="arrowLeft.mouseover" end="arrowLeft.mouseout"/>
                  </use>
                  <path fill="none" stroke="white" stroke-width="1.5" d="M0,-3.0v7 M-2.5,-0.5L0,-3.0L2.5,-0.5"/>
                </g>
        </g>
        <svg viewBox="0 0 15 15" width="100%" height="30px" preserveAspectRatio="xMaxYMin meet">
         <g id="arrow_out" transform="scale(0.3 0.3)">
          <a xlink:href="term_8cpp__incl_org.svg" target="_base">
           <rect id="button" ry="5" rx="5" y="6" x="6" height="38" width="38"
                fill="#f2f5e9" fill-opacity="0.5" stroke="#606060" stroke-width="1.0"/>
           <path id="arrow"
             d="M 11.500037,31.436501 C 11.940474,20.09759 22.043105,11.32322 32.158766,21.979434 L 37.068811,17.246167 C 37.068811,17.246167 37.088388,32 37.088388,32 L 22.160133,31.978069 C 22.160133,31.978069 26.997745,27.140456 26.997745,27.140456 C 18.528582,18.264221 13.291696,25.230495 11.500037,31.436501 z"
             style="fill:#404040;"/>
          </a>
         </g>
        </svg>
</svg>
