<?xml version="1.0" encoding="UTF-8" standalone="no"?>
<!DOCTYPE svg PUBLIC "-//W3C//DTD SVG 1.1//EN"
 "http://www.w3.org/Graphics/SVG/1.1/DTD/svg11.dtd">
<!-- Generated by graphviz version 2.43.0 (0)
 -->
<!-- Title: include/term.h Pages: 1 -->
<svg width="1217pt" height="498pt"
 viewBox="0.00 0.00 1217.21 498.00" xmlns="http://www.w3.org/2000/svg" xmlns:xlink="http://www.w3.org/1999/xlink">
<g id="graph0" class="graph" transform="scale(1 1) rotate(0) translate(4 494)">
<title>include/term.h</title>
<polygon fill="white" stroke="transparent" points="-4,4 -4,-494 1213.21,-494 1213.21,4 -4,4"/>
<!-- Node1 -->
<g id="node1" class="node">
<title>Node1</title>
<g id="a_node1"><a xlink:title="Terminal Color and Style Control.">
<polygon fill="#bfbfbf" stroke="black" points="1060.71,-470.5 1060.71,-489.5 1147.71,-489.5 1147.71,-470.5 1060.71,-470.5"/>
<text text-anchor="middle" x="1104.21" y="-477.5" font-family="Helvetica,sans-Serif" font-size="10.00">include/term.h</text>
</a>
</g>
</g>
<!-- Node2 -->
<g id="node2" class="node">
<title>Node2</title>
<g id="a_node2"><a xlink:href="error__code_8h.html" target="_top" xlink:title="Error Codes (Including Warnings)">
<polygon fill="white" stroke="black" points="880.21,-168.5 880.21,-187.5 996.21,-187.5 996.21,-168.5 880.21,-168.5"/>
<text text-anchor="middle" x="938.21" y="-175.5" font-family="Helvetica,sans-Serif" font-size="10.00">include/error_code.h</text>
</a>
</g>
</g>
<!-- Node1&#45;&gt;Node2 -->
<g id="edge1" class="edge">
<title>Node1&#45;&gt;Node2</title>
<path fill="none" stroke="midnightblue" d="M1116.46,-461.77C1139.23,-427.45 1183.09,-348.86 1152.21,-291 1119.04,-228.85 1037.24,-200.04 984.93,-187.57"/>
<polygon fill="midnightblue" stroke="midnightblue" points="1113.44,-460 1110.68,-470.23 1119.21,-463.95 1113.44,-460"/>
</g>
<!-- Node3 -->
<g id="node3" class="node">
<title>Node3</title>
<g id="a_node3"><a xlink:href="export_8h.html" target="_top" xlink:title="Export mmCEsim Configuration to Other Programming Languages.">
<polygon fill="white" stroke="black" points="734.71,-56.5 734.71,-75.5 829.71,-75.5 829.71,-56.5 734.71,-56.5"/>
<text text-anchor="middle" x="782.21" y="-63.5" font-family="Helvetica,sans-Serif" font-size="10.00">include/export.h</text>
</a>
</g>
</g>
<!-- Node1&#45;&gt;Node3 -->
<g id="edge12" class="edge">
<title>Node1&#45;&gt;Node3</title>
<path fill="none" stroke="midnightblue" d="M1050.55,-476.28C982.58,-469.61 874.21,-446.78 874.21,-369 874.21,-369 874.21,-369 874.21,-305.5 874.21,-209.64 808.71,-105.75 788.24,-75.63"/>
<polygon fill="midnightblue" stroke="midnightblue" points="1050.41,-479.78 1060.68,-477.18 1051.03,-472.81 1050.41,-479.78"/>
</g>
<!-- Node5 -->
<g id="node5" class="node">
<title>Node5</title>
<g id="a_node5"><a xlink:href="src_2main_8cpp.html" target="_top" xlink:title="Program Command Line Options.">
<polygon fill="white" stroke="black" points="1067.71,-0.5 1067.71,-19.5 1146.71,-19.5 1146.71,-0.5 1067.71,-0.5"/>
<text text-anchor="middle" x="1107.21" y="-7.5" font-family="Helvetica,sans-Serif" font-size="10.00">src/main.cpp</text>
</a>
</g>
</g>
<!-- Node1&#45;&gt;Node5 -->
<g id="edge39" class="edge">
<title>Node1&#45;&gt;Node5</title>
<path fill="none" stroke="midnightblue" d="M1131.59,-465.41C1162.7,-447.81 1209.21,-413.98 1209.21,-369 1209.21,-369 1209.21,-369 1209.21,-121 1209.21,-71.78 1153.61,-35.28 1124.51,-19.55"/>
<polygon fill="midnightblue" stroke="midnightblue" points="1129.62,-462.5 1122.5,-470.35 1132.96,-468.65 1129.62,-462.5"/>
</g>
<!-- Node10 -->
<g id="node10" class="node">
<title>Node10</title>
<g id="a_node10"><a xlink:href="include_2log_8h.html" target="_top" xlink:title="Log Utilities.">
<polygon fill="white" stroke="black" points="758.71,-414.5 758.71,-433.5 837.71,-433.5 837.71,-414.5 758.71,-414.5"/>
<text text-anchor="middle" x="798.21" y="-421.5" font-family="Helvetica,sans-Serif" font-size="10.00">include/log.h</text>
</a>
</g>
</g>
<!-- Node1&#45;&gt;Node10 -->
<g id="edge13" class="edge">
<title>Node1&#45;&gt;Node10</title>
<path fill="none" stroke="midnightblue" d="M1050.55,-469.53C989.88,-458.82 892.51,-441.64 838.17,-432.05"/>
<polygon fill="midnightblue" stroke="midnightblue" points="1050.24,-473.03 1060.69,-471.32 1051.45,-466.14 1050.24,-473.03"/>
</g>
<!-- Node27 -->
<g id="node27" class="node">
<title>Node27</title>
<g id="a_node27"><a xlink:href="term_8cpp.html" target="_top" xlink:title="Implementation of Term Class and Color/Style Definitions.">
<polygon fill="white" stroke="black" points="1065.71,-297 1065.71,-316 1142.71,-316 1142.71,-297 1065.71,-297"/>
<text text-anchor="middle" x="1104.21" y="-304" font-family="Helvetica,sans-Serif" font-size="10.00">src/term.cpp</text>
</a>
</g>
</g>
<!-- Node1&#45;&gt;Node27 -->
<g id="edge40" class="edge">
<title>Node1&#45;&gt;Node27</title>
<path fill="none" stroke="midnightblue" d="M1104.21,-459.85C1104.21,-422.73 1104.21,-342.33 1104.21,-316.02"/>
<polygon fill="midnightblue" stroke="midnightblue" points="1100.71,-460.26 1104.21,-470.26 1107.71,-460.26 1100.71,-460.26"/>
</g>
<!-- Node2&#45;&gt;Node3 -->
<g id="edge2" class="edge">
<title>Node2&#45;&gt;Node3</title>
<path fill="none" stroke="midnightblue" d="M917.53,-162.42C884.53,-139.15 821,-94.35 794.39,-75.59"/>
<polygon fill="midnightblue" stroke="midnightblue" points="915.78,-165.47 925.97,-168.37 919.81,-159.75 915.78,-165.47"/>
</g>
<!-- Node2&#45;&gt;Node5 -->
<g id="edge11" class="edge">
<title>Node2&#45;&gt;Node5</title>
<path fill="none" stroke="midnightblue" d="M1006.42,-172.13C1035.33,-166.52 1066.95,-155.07 1087.21,-132 1116.01,-99.2 1111.51,-41.34 1108.57,-19.59"/>
<polygon fill="midnightblue" stroke="midnightblue" points="1005.59,-168.72 996.33,-173.88 1006.78,-175.62 1005.59,-168.72"/>
</g>
<!-- Node6 -->
<g id="node6" class="node">
<title>Node6</title>
<g id="a_node6"><a xlink:href="read_8h.html" target="_top" xlink:title="Read YAML Configuration.">
<polygon fill="white" stroke="black" points="886.21,-112.5 886.21,-131.5 972.21,-131.5 972.21,-112.5 886.21,-112.5"/>
<text text-anchor="middle" x="929.21" y="-119.5" font-family="Helvetica,sans-Serif" font-size="10.00">include/read.h</text>
</a>
</g>
</g>
<!-- Node2&#45;&gt;Node6 -->
<g id="edge5" class="edge">
<title>Node2&#45;&gt;Node6</title>
<path fill="none" stroke="midnightblue" d="M935.06,-158.1C933.56,-149.14 931.85,-138.86 930.67,-131.75"/>
<polygon fill="midnightblue" stroke="midnightblue" points="931.63,-158.79 936.72,-168.08 938.53,-157.64 931.63,-158.79"/>
</g>
<!-- Node8 -->
<g id="node8" class="node">
<title>Node8</title>
<g id="a_node8"><a xlink:href="style_8h.html" target="_top" xlink:title="Format Output File.">
<polygon fill="white" stroke="black" points="990.21,-112.5 990.21,-131.5 1078.21,-131.5 1078.21,-112.5 990.21,-112.5"/>
<text text-anchor="middle" x="1034.21" y="-119.5" font-family="Helvetica,sans-Serif" font-size="10.00">include/style.h</text>
</a>
</g>
</g>
<!-- Node2&#45;&gt;Node8 -->
<g id="edge8" class="edge">
<title>Node2&#45;&gt;Node8</title>
<path fill="none" stroke="midnightblue" d="M962.78,-163.18C980.45,-153.24 1003.72,-140.15 1018.82,-131.65"/>
<polygon fill="midnightblue" stroke="midnightblue" points="960.63,-160.37 953.63,-168.32 964.06,-166.47 960.63,-160.37"/>
</g>
<!-- Node4 -->
<g id="node4" class="node">
<title>Node4</title>
<g id="a_node4"><a xlink:href="export_8cpp.html" target="_top" xlink:title="Implementation of Export Class.">
<polygon fill="white" stroke="black" points="739.21,-0.5 739.21,-19.5 825.21,-19.5 825.21,-0.5 739.21,-0.5"/>
<text text-anchor="middle" x="782.21" y="-7.5" font-family="Helvetica,sans-Serif" font-size="10.00">src/export.cpp</text>
</a>
</g>
</g>
<!-- Node3&#45;&gt;Node4 -->
<g id="edge3" class="edge">
<title>Node3&#45;&gt;Node4</title>
<path fill="none" stroke="midnightblue" d="M782.21,-45.8C782.21,-36.91 782.21,-26.78 782.21,-19.75"/>
<polygon fill="midnightblue" stroke="midnightblue" points="778.71,-46.08 782.21,-56.08 785.71,-46.08 778.71,-46.08"/>
</g>
<!-- Node3&#45;&gt;Node5 -->
<g id="edge4" class="edge">
<title>Node3&#45;&gt;Node5</title>
<path fill="none" stroke="midnightblue" d="M839.99,-55.4C905.56,-44.5 1010.79,-27.02 1067.65,-17.57"/>
<polygon fill="midnightblue" stroke="midnightblue" points="839.11,-52 829.81,-57.09 840.25,-58.9 839.11,-52"/>
</g>
<!-- Node6&#45;&gt;Node3 -->
<g id="edge6" class="edge">
<title>Node6&#45;&gt;Node3</title>
<path fill="none" stroke="midnightblue" d="M896.29,-108.91C868.65,-98.75 829.86,-84.51 805.39,-75.52"/>
<polygon fill="midnightblue" stroke="midnightblue" points="895.32,-112.28 905.92,-112.44 897.74,-105.71 895.32,-112.28"/>
</g>
<!-- Node7 -->
<g id="node7" class="node">
<title>Node7</title>
<g id="a_node7"><a xlink:href="read_8cpp.html" target="_top" xlink:title="Implementation of class YAML_Error and ReadConfig.">
<polygon fill="white" stroke="black" points="888.21,-56.5 888.21,-75.5 964.21,-75.5 964.21,-56.5 888.21,-56.5"/>
<text text-anchor="middle" x="926.21" y="-63.5" font-family="Helvetica,sans-Serif" font-size="10.00">src/read.cpp</text>
</a>
</g>
</g>
<!-- Node6&#45;&gt;Node7 -->
<g id="edge7" class="edge">
<title>Node6&#45;&gt;Node7</title>
<path fill="none" stroke="midnightblue" d="M928.14,-101.8C927.65,-92.91 927.09,-82.78 926.69,-75.75"/>
<polygon fill="midnightblue" stroke="midnightblue" points="924.66,-102.29 928.71,-112.08 931.65,-101.9 924.66,-102.29"/>
</g>
<!-- Node8&#45;&gt;Node5 -->
<g id="edge9" class="edge">
<title>Node8&#45;&gt;Node5</title>
<path fill="none" stroke="midnightblue" d="M1047.92,-104.46C1054.61,-96.12 1062.62,-85.73 1069.21,-76 1082.4,-56.51 1095.83,-32.3 1102.64,-19.63"/>
<polygon fill="midnightblue" stroke="midnightblue" points="1045.14,-102.33 1041.54,-112.29 1050.57,-106.75 1045.14,-102.33"/>
</g>
<!-- Node9 -->
<g id="node9" class="node">
<title>Node9</title>
<g id="a_node9"><a xlink:href="style_8cpp.html" target="_top" xlink:title="Implementation of Style class.">
<polygon fill="white" stroke="black" points="982.21,-56.5 982.21,-75.5 1060.21,-75.5 1060.21,-56.5 982.21,-56.5"/>
<text text-anchor="middle" x="1021.21" y="-63.5" font-family="Helvetica,sans-Serif" font-size="10.00">src/style.cpp</text>
</a>
</g>
</g>
<!-- Node8&#45;&gt;Node9 -->
<g id="edge10" class="edge">
<title>Node8&#45;&gt;Node9</title>
<path fill="none" stroke="midnightblue" d="M1029.66,-102.1C1027.5,-93.14 1025.03,-82.86 1023.32,-75.75"/>
<polygon fill="midnightblue" stroke="midnightblue" points="1026.32,-103.18 1032.06,-112.08 1033.12,-101.54 1026.32,-103.18"/>
</g>
<!-- Node11 -->
<g id="node11" class="node">
<title>Node11</title>
<g id="a_node11"><a xlink:href="log__global_8h.html" target="_top" xlink:title="Global Access of Log.">
<polygon fill="white" stroke="black" points="707.21,-358.5 707.21,-377.5 821.21,-377.5 821.21,-358.5 707.21,-358.5"/>
<text text-anchor="middle" x="764.21" y="-365.5" font-family="Helvetica,sans-Serif" font-size="10.00">include/log_global.h</text>
</a>
</g>
</g>
<!-- Node10&#45;&gt;Node11 -->
<g id="edge14" class="edge">
<title>Node10&#45;&gt;Node11</title>
<path fill="none" stroke="midnightblue" d="M787.23,-405.57C781.38,-396.27 774.44,-385.25 769.72,-377.75"/>
<polygon fill="midnightblue" stroke="midnightblue" points="784.3,-407.49 792.59,-414.08 790.23,-403.76 784.3,-407.49"/>
</g>
<!-- Node11&#45;&gt;Node2 -->
<g id="edge15" class="edge">
<title>Node11&#45;&gt;Node2</title>
<path fill="none" stroke="midnightblue" d="M798.2,-354.3C815.2,-346.76 835.27,-335.93 850.21,-322 894.55,-280.64 924.93,-212.09 934.76,-187.83"/>
<polygon fill="midnightblue" stroke="midnightblue" points="796.46,-351.24 788.61,-358.36 799.19,-357.68 796.46,-351.24"/>
</g>
<!-- Node11&#45;&gt;Node5 -->
<g id="edge37" class="edge">
<title>Node11&#45;&gt;Node5</title>
<path fill="none" stroke="midnightblue" d="M780.66,-350.94C788.14,-342.85 796.56,-332.55 802.21,-322 860.3,-213.49 788.48,-139.17 879.21,-56 906.2,-31.26 1009.52,-18.98 1067.38,-13.93"/>
<polygon fill="midnightblue" stroke="midnightblue" points="778.06,-348.58 773.63,-358.2 783.1,-353.45 778.06,-348.58"/>
</g>
<!-- Node12 -->
<g id="node12" class="node">
<title>Node12</title>
<g id="a_node12"><a xlink:href="alg__line_8h.html" target="_top" xlink:title="Parse Line of Alg.">
<polygon fill="white" stroke="black" points="202.21,-291.5 202.21,-321.5 306.21,-321.5 306.21,-291.5 202.21,-291.5"/>
<text text-anchor="start" x="210.21" y="-309.5" font-family="Helvetica,sans-Serif" font-size="10.00">include/export/alg</text>
<text text-anchor="middle" x="254.21" y="-298.5" font-family="Helvetica,sans-Serif" font-size="10.00">_line.h</text>
</a>
</g>
</g>
<!-- Node11&#45;&gt;Node12 -->
<g id="edge16" class="edge">
<title>Node11&#45;&gt;Node12</title>
<path fill="none" stroke="midnightblue" d="M697.14,-360.86C614.29,-353.03 469.13,-338.52 345.21,-322 332.68,-320.33 319.22,-318.31 306.59,-316.32"/>
<polygon fill="midnightblue" stroke="midnightblue" points="696.89,-364.35 707.17,-361.8 697.54,-357.38 696.89,-364.35"/>
</g>
<!-- Node16 -->
<g id="node16" class="node">
<title>Node16</title>
<g id="a_node16"><a xlink:href="calc_8h.html" target="_top" xlink:title="Make Calculation in Alg.">
<polygon fill="white" stroke="black" points="451.21,-168.5 451.21,-187.5 569.21,-187.5 569.21,-168.5 451.21,-168.5"/>
<text text-anchor="middle" x="510.21" y="-175.5" font-family="Helvetica,sans-Serif" font-size="10.00">include/export/calc.h</text>
</a>
</g>
</g>
<!-- Node11&#45;&gt;Node16 -->
<g id="edge21" class="edge">
<title>Node11&#45;&gt;Node16</title>
<path fill="none" stroke="midnightblue" d="M712.03,-355.94C658.23,-341.79 575.81,-311.98 529.21,-255 512.85,-235 510.31,-202.82 510.08,-187.56"/>
<polygon fill="midnightblue" stroke="midnightblue" points="711.17,-359.33 721.73,-358.4 712.9,-352.55 711.17,-359.33"/>
</g>
<!-- Node18 -->
<g id="node18" class="node">
<title>Node18</title>
<g id="a_node18"><a xlink:href="channel__graph_8h.html" target="_top" xlink:title="Graph Analysis for Complex Cascaded Channels.">
<polygon fill="white" stroke="black" points="354.21,-291.5 354.21,-321.5 482.21,-321.5 482.21,-291.5 354.21,-291.5"/>
<text text-anchor="start" x="362.21" y="-309.5" font-family="Helvetica,sans-Serif" font-size="10.00">include/export/channel</text>
<text text-anchor="middle" x="418.21" y="-298.5" font-family="Helvetica,sans-Serif" font-size="10.00">_graph.h</text>
</a>
</g>
</g>
<!-- Node11&#45;&gt;Node18 -->
<g id="edge24" class="edge">
<title>Node11&#45;&gt;Node18</title>
<path fill="none" stroke="midnightblue" d="M701.61,-356.81C647.27,-347.88 566.48,-334.43 496.21,-322 491.73,-321.21 487.11,-320.38 482.47,-319.54"/>
<polygon fill="midnightblue" stroke="midnightblue" points="701.35,-360.31 711.78,-358.47 702.48,-353.4 701.35,-360.31"/>
</g>
<!-- Node20 -->
<g id="node20" class="node">
<title>Node20</title>
<g id="a_node20"><a xlink:href="macro_8h.html" target="_top" xlink:title="ALG Macro.">
<polygon fill="white" stroke="black" points="9.71,-297 9.71,-316 138.71,-316 138.71,-297 9.71,-297"/>
<text text-anchor="middle" x="74.21" y="-304" font-family="Helvetica,sans-Serif" font-size="10.00">include/export/macro.h</text>
</a>
</g>
</g>
<!-- Node11&#45;&gt;Node20 -->
<g id="edge27" class="edge">
<title>Node11&#45;&gt;Node20</title>
<path fill="none" stroke="midnightblue" d="M697,-362.64C590.17,-355.49 375.09,-340.24 193.21,-322 175.61,-320.23 156.57,-318.04 139,-315.9"/>
<polygon fill="midnightblue" stroke="midnightblue" points="696.79,-366.13 707,-363.3 697.25,-359.14 696.79,-366.13"/>
</g>
<!-- Node22 -->
<g id="node22" class="node">
<title>Node22</title>
<g id="a_node22"><a xlink:href="type__track_8h.html" target="_top" xlink:title="Track data type of variables.">
<polygon fill="white" stroke="black" points="682.71,-291.5 682.71,-321.5 793.71,-321.5 793.71,-291.5 682.71,-291.5"/>
<text text-anchor="start" x="690.71" y="-309.5" font-family="Helvetica,sans-Serif" font-size="10.00">include/export/type</text>
<text text-anchor="middle" x="738.21" y="-298.5" font-family="Helvetica,sans-Serif" font-size="10.00">_track.h</text>
</a>
</g>
</g>
<!-- Node11&#45;&gt;Node22 -->
<g id="edge30" class="edge">
<title>Node11&#45;&gt;Node22</title>
<path fill="none" stroke="midnightblue" d="M756.39,-349.1C752.53,-340.27 747.94,-329.77 744.34,-321.52"/>
<polygon fill="midnightblue" stroke="midnightblue" points="753.27,-350.71 760.48,-358.48 759.69,-347.91 753.27,-350.71"/>
</g>
<!-- Node25 -->
<g id="node25" class="node">
<title>Node25</title>
<g id="a_node25"><a xlink:href="simulate_8h.html" target="_top" xlink:title="Simulate Generated Code.">
<polygon fill="white" stroke="black" points="940.71,-297 940.71,-316 1047.71,-316 1047.71,-297 940.71,-297"/>
<text text-anchor="middle" x="994.21" y="-304" font-family="Helvetica,sans-Serif" font-size="10.00">include/simulate.h</text>
</a>
</g>
</g>
<!-- Node11&#45;&gt;Node25 -->
<g id="edge34" class="edge">
<title>Node11&#45;&gt;Node25</title>
<path fill="none" stroke="midnightblue" d="M806.85,-355.97C851.51,-344.41 920.7,-326.52 961.32,-316.01"/>
<polygon fill="midnightblue" stroke="midnightblue" points="805.97,-352.58 797.16,-358.48 807.72,-359.36 805.97,-352.58"/>
</g>
<!-- Node11&#45;&gt;Node27 -->
<g id="edge38" class="edge">
<title>Node11&#45;&gt;Node27</title>
<path fill="none" stroke="midnightblue" d="M831.45,-359.52C891.19,-352.21 980.63,-339.59 1057.21,-322 1064.37,-320.36 1072.02,-318.18 1079.03,-316.01"/>
<polygon fill="midnightblue" stroke="midnightblue" points="830.9,-356.06 821.39,-360.74 831.74,-363.01 830.9,-356.06"/>
</g>
<!-- Node13 -->
<g id="node13" class="node">
<title>Node13</title>
<g id="a_node13"><a xlink:href="alg_8h.html" target="_top" xlink:title="Algorithm Parser (.alg Language)">
<polygon fill="white" stroke="black" points="155.71,-112.5 155.71,-131.5 268.71,-131.5 268.71,-112.5 155.71,-112.5"/>
<text text-anchor="middle" x="212.21" y="-119.5" font-family="Helvetica,sans-Serif" font-size="10.00">include/export/alg.h</text>
</a>
</g>
</g>
<!-- Node12&#45;&gt;Node13 -->
<g id="edge17" class="edge">
<title>Node12&#45;&gt;Node13</title>
<path fill="none" stroke="midnightblue" d="M211.95,-286.08C199.8,-278.25 188,-267.96 181.21,-255 158.8,-212.26 192.16,-153.33 206.34,-131.54"/>
<polygon fill="midnightblue" stroke="midnightblue" points="210.42,-289.23 220.8,-291.34 213.99,-283.22 210.42,-289.23"/>
</g>
<!-- Node15 -->
<g id="node15" class="node">
<title>Node15</title>
<g id="a_node15"><a xlink:href="alg__line_8cpp.html" target="_top" xlink:title="Implementation of Alg_Line Class.">
<polygon fill="white" stroke="black" points="190.71,-230 190.71,-249 317.71,-249 317.71,-230 190.71,-230"/>
<text text-anchor="middle" x="254.21" y="-237" font-family="Helvetica,sans-Serif" font-size="10.00">src/export/alg_line.cpp</text>
</a>
</g>
</g>
<!-- Node12&#45;&gt;Node15 -->
<g id="edge20" class="edge">
<title>Node12&#45;&gt;Node15</title>
<path fill="none" stroke="midnightblue" d="M254.21,-281.25C254.21,-270.02 254.21,-257.38 254.21,-249.19"/>
<polygon fill="midnightblue" stroke="midnightblue" points="250.71,-281.4 254.21,-291.4 257.71,-281.4 250.71,-281.4"/>
</g>
<!-- Node13&#45;&gt;Node3 -->
<g id="edge18" class="edge">
<title>Node13&#45;&gt;Node3</title>
<path fill="none" stroke="midnightblue" d="M279.17,-114.66C395.76,-103.61 633.31,-81.11 734.66,-71.5"/>
<polygon fill="midnightblue" stroke="midnightblue" points="278.57,-111.2 268.95,-115.62 279.23,-118.17 278.57,-111.2"/>
</g>
<!-- Node14 -->
<g id="node14" class="node">
<title>Node14</title>
<g id="a_node14"><a xlink:href="alg_8cpp.html" target="_top" xlink:title="Implementation of class Alg.">
<polygon fill="white" stroke="black" points="160.21,-56.5 160.21,-75.5 264.21,-75.5 264.21,-56.5 160.21,-56.5"/>
<text text-anchor="middle" x="212.21" y="-63.5" font-family="Helvetica,sans-Serif" font-size="10.00">src/export/alg.cpp</text>
</a>
</g>
</g>
<!-- Node13&#45;&gt;Node14 -->
<g id="edge19" class="edge">
<title>Node13&#45;&gt;Node14</title>
<path fill="none" stroke="midnightblue" d="M212.21,-101.8C212.21,-92.91 212.21,-82.78 212.21,-75.75"/>
<polygon fill="midnightblue" stroke="midnightblue" points="208.71,-102.08 212.21,-112.08 215.71,-102.08 208.71,-102.08"/>
</g>
<!-- Node16&#45;&gt;Node13 -->
<g id="edge22" class="edge">
<title>Node16&#45;&gt;Node13</title>
<path fill="none" stroke="midnightblue" d="M452.82,-166.6C396.5,-156.4 311.65,-141.02 259.21,-131.52"/>
<polygon fill="midnightblue" stroke="midnightblue" points="452.53,-170.1 462.99,-168.44 453.77,-163.22 452.53,-170.1"/>
</g>
<!-- Node17 -->
<g id="node17" class="node">
<title>Node17</title>
<g id="a_node17"><a xlink:href="calc_8cpp.html" target="_top" xlink:title="Implementation of Calc Class.">
<polygon fill="white" stroke="black" points="456.21,-112.5 456.21,-131.5 564.21,-131.5 564.21,-112.5 456.21,-112.5"/>
<text text-anchor="middle" x="510.21" y="-119.5" font-family="Helvetica,sans-Serif" font-size="10.00">src/export/calc.cpp</text>
</a>
</g>
</g>
<!-- Node16&#45;&gt;Node17 -->
<g id="edge23" class="edge">
<title>Node16&#45;&gt;Node17</title>
<path fill="none" stroke="midnightblue" d="M510.21,-157.8C510.21,-148.91 510.21,-138.78 510.21,-131.75"/>
<polygon fill="midnightblue" stroke="midnightblue" points="506.71,-158.08 510.21,-168.08 513.71,-158.08 506.71,-158.08"/>
</g>
<!-- Node18&#45;&gt;Node3 -->
<g id="edge25" class="edge">
<title>Node18&#45;&gt;Node3</title>
<path fill="none" stroke="midnightblue" d="M388.73,-285.11C379.4,-276.94 370.21,-266.68 365.21,-255 359.78,-242.34 360.93,-237.1 365.21,-224 384.38,-165.36 394.17,-143.52 447.21,-112 494.75,-83.75 653.91,-72.7 734.54,-68.84"/>
<polygon fill="midnightblue" stroke="midnightblue" points="386.55,-287.85 396.51,-291.47 390.98,-282.43 386.55,-287.85"/>
</g>
<!-- Node19 -->
<g id="node19" class="node">
<title>Node19</title>
<g id="a_node19"><a xlink:href="channel__graph_8cpp.html" target="_top" xlink:title="Implementation of Channel_Graph Class.">
<polygon fill="white" stroke="black" points="374.71,-224.5 374.71,-254.5 481.71,-254.5 481.71,-224.5 374.71,-224.5"/>
<text text-anchor="start" x="382.71" y="-242.5" font-family="Helvetica,sans-Serif" font-size="10.00">src/export/channel</text>
<text text-anchor="middle" x="428.21" y="-231.5" font-family="Helvetica,sans-Serif" font-size="10.00">_graph.cpp</text>
</a>
</g>
</g>
<!-- Node18&#45;&gt;Node19 -->
<g id="edge26" class="edge">
<title>Node18&#45;&gt;Node19</title>
<path fill="none" stroke="midnightblue" d="M421.92,-281.4C423.31,-272.37 424.84,-262.41 426.04,-254.58"/>
<polygon fill="midnightblue" stroke="midnightblue" points="418.44,-280.98 420.38,-291.4 425.36,-282.04 418.44,-280.98"/>
</g>
<!-- Node20&#45;&gt;Node13 -->
<g id="edge28" class="edge">
<title>Node20&#45;&gt;Node13</title>
<path fill="none" stroke="midnightblue" d="M44.81,-292.2C30.04,-283.82 13.55,-271.44 5.21,-255 -1.03,-242.71 -2.09,-235.68 5.21,-224 39.64,-168.89 113.76,-143.05 163.32,-131.52"/>
<polygon fill="midnightblue" stroke="midnightblue" points="43.22,-295.32 53.7,-296.91 46.5,-289.14 43.22,-295.32"/>
</g>
<!-- Node21 -->
<g id="node21" class="node">
<title>Node21</title>
<g id="a_node21"><a xlink:href="macro_8cpp.html" target="_top" xlink:title="Implementation of Macro class.">
<polygon fill="white" stroke="black" points="14.71,-230 14.71,-249 133.71,-249 133.71,-230 14.71,-230"/>
<text text-anchor="middle" x="74.21" y="-237" font-family="Helvetica,sans-Serif" font-size="10.00">src/export/macro.cpp</text>
</a>
</g>
</g>
<!-- Node20&#45;&gt;Node21 -->
<g id="edge29" class="edge">
<title>Node20&#45;&gt;Node21</title>
<path fill="none" stroke="midnightblue" d="M74.21,-286.54C74.21,-274.17 74.21,-258.62 74.21,-249.13"/>
<polygon fill="midnightblue" stroke="midnightblue" points="70.71,-286.73 74.21,-296.73 77.71,-286.73 70.71,-286.73"/>
</g>
<!-- Node23 -->
<g id="node23" class="node">
<title>Node23</title>
<g id="a_node23"><a xlink:href="type__track__global_8h.html" target="_top" xlink:title="Global Access of Type Track.">
<polygon fill="white" stroke="black" points="538.71,-224.5 538.71,-254.5 649.71,-254.5 649.71,-224.5 538.71,-224.5"/>
<text text-anchor="start" x="546.71" y="-242.5" font-family="Helvetica,sans-Serif" font-size="10.00">include/export/type</text>
<text text-anchor="middle" x="594.21" y="-231.5" font-family="Helvetica,sans-Serif" font-size="10.00">_track_global.h</text>
</a>
</g>
</g>
<!-- Node22&#45;&gt;Node23 -->
<g id="edge31" class="edge">
<title>Node22&#45;&gt;Node23</title>
<path fill="none" stroke="midnightblue" d="M697.82,-287.27C674.88,-276.92 646.61,-264.15 625.39,-254.58"/>
<polygon fill="midnightblue" stroke="midnightblue" points="696.41,-290.47 706.96,-291.4 699.29,-284.09 696.41,-290.47"/>
</g>
<!-- Node24 -->
<g id="node24" class="node">
<title>Node24</title>
<g id="a_node24"><a xlink:href="type__track_8cpp.html" target="_top" xlink:title="Implementation of Type_Track Class.">
<polygon fill="white" stroke="black" points="668.21,-230 668.21,-249 808.21,-249 808.21,-230 668.21,-230"/>
<text text-anchor="middle" x="738.21" y="-237" font-family="Helvetica,sans-Serif" font-size="10.00">src/export/type_track.cpp</text>
</a>
</g>
</g>
<!-- Node22&#45;&gt;Node24 -->
<g id="edge33" class="edge">
<title>Node22&#45;&gt;Node24</title>
<path fill="none" stroke="midnightblue" d="M738.21,-281.25C738.21,-270.02 738.21,-257.38 738.21,-249.19"/>
<polygon fill="midnightblue" stroke="midnightblue" points="734.71,-281.4 738.21,-291.4 741.71,-281.4 734.71,-281.4"/>
</g>
<!-- Node23&#45;&gt;Node16 -->
<g id="edge32" class="edge">
<title>Node23&#45;&gt;Node16</title>
<path fill="none" stroke="midnightblue" d="M565.95,-218.48C551.15,-208 533.8,-195.71 522.43,-187.66"/>
<polygon fill="midnightblue" stroke="midnightblue" points="564.12,-221.48 574.3,-224.4 568.16,-215.76 564.12,-221.48"/>
</g>
<!-- Node25&#45;&gt;Node5 -->
<g id="edge35" class="edge">
<title>Node25&#45;&gt;Node5</title>
<path fill="none" stroke="midnightblue" d="M1040.68,-294.01C1093.12,-277.94 1171.21,-243.23 1171.21,-179 1171.21,-179 1171.21,-179 1171.21,-121 1171.21,-78.14 1134.45,-37.07 1116.65,-19.69"/>
<polygon fill="midnightblue" stroke="midnightblue" points="1039.49,-290.71 1030.88,-296.89 1041.46,-297.43 1039.49,-290.71"/>
</g>
<!-- Node26 -->
<g id="node26" class="node">
<title>Node26</title>
<g id="a_node26"><a xlink:href="simulate_8cpp.html" target="_top" xlink:title="Implementation of Simulate Class.">
<polygon fill="white" stroke="black" points="945.71,-230 945.71,-249 1042.71,-249 1042.71,-230 945.71,-230"/>
<text text-anchor="middle" x="994.21" y="-237" font-family="Helvetica,sans-Serif" font-size="10.00">src/simulate.cpp</text>
</a>
</g>
</g>
<!-- Node25&#45;&gt;Node26 -->
<g id="edge36" class="edge">
<title>Node25&#45;&gt;Node26</title>
<path fill="none" stroke="midnightblue" d="M994.21,-286.54C994.21,-274.17 994.21,-258.62 994.21,-249.13"/>
<polygon fill="midnightblue" stroke="midnightblue" points="990.71,-286.73 994.21,-296.73 997.71,-286.73 990.71,-286.73"/>
</g>
</g>
</svg>
