<?xml version="1.0" encoding="UTF-8" standalone="no"?>
<!DOCTYPE svg PUBLIC "-//W3C//DTD SVG 1.1//EN"
 "http://www.w3.org/Graphics/SVG/1.1/DTD/svg11.dtd">
<!-- Generated by graphviz version 2.43.0 (0)
 -->
<!-- Title: src/term.cpp Pages: 1 -->
<svg width="718pt" height="263pt"
 viewBox="0.00 0.00 718.00 263.00" xmlns="http://www.w3.org/2000/svg" xmlns:xlink="http://www.w3.org/1999/xlink">
<g id="graph0" class="graph" transform="scale(1 1) rotate(0) translate(4 259)">
<title>src/term.cpp</title>
<polygon fill="white" stroke="transparent" points="-4,4 -4,-259 714,-259 714,4 -4,4"/>
<!-- Node1 -->
<g id="node1" class="node">
<title>Node1</title>
<g id="a_node1"><a xlink:title="Implementation of Term Class and Color/Style Definitions.">
<polygon fill="#bfbfbf" stroke="black" points="216,-235.5 216,-254.5 293,-254.5 293,-235.5 216,-235.5"/>
<text text-anchor="middle" x="254.5" y="-242.5" font-family="Helvetica,sans-Serif" font-size="10.00">src/term.cpp</text>
</a>
</g>
</g>
<!-- Node2 -->
<g id="node2" class="node">
<title>Node2</title>
<g id="a_node2"><a xlink:href="term_8h.html" target="_top" xlink:title="Terminal Color and Style Control.">
<polygon fill="white" stroke="black" points="143,-67.5 143,-86.5 192,-86.5 192,-67.5 143,-67.5"/>
<text text-anchor="middle" x="167.5" y="-74.5" font-family="Helvetica,sans-Serif" font-size="10.00">term.h</text>
</a>
</g>
</g>
<!-- Node1&#45;&gt;Node2 -->
<g id="edge1" class="edge">
<title>Node1&#45;&gt;Node2</title>
<path fill="none" stroke="midnightblue" d="M249.82,-235.08C236.01,-208.72 195.21,-130.88 176.76,-95.66"/>
<polygon fill="midnightblue" stroke="midnightblue" points="179.73,-93.8 171.99,-86.57 173.53,-97.05 179.73,-93.8"/>
</g>
<!-- Node6 -->
<g id="node6" class="node">
<title>Node6</title>
<g id="a_node6"><a xlink:href="log__global_8h.html" target="_top" xlink:title="Global Access of Log.">
<polygon fill="white" stroke="black" points="283.5,-179.5 283.5,-198.5 359.5,-198.5 359.5,-179.5 283.5,-179.5"/>
<text text-anchor="middle" x="321.5" y="-186.5" font-family="Helvetica,sans-Serif" font-size="10.00">log_global.h</text>
</a>
</g>
</g>
<!-- Node1&#45;&gt;Node6 -->
<g id="edge5" class="edge">
<title>Node1&#45;&gt;Node6</title>
<path fill="none" stroke="midnightblue" d="M265.26,-235.32C275.27,-227.26 290.39,-215.08 302.43,-205.37"/>
<polygon fill="midnightblue" stroke="midnightblue" points="304.95,-207.83 310.54,-198.83 300.56,-202.38 304.95,-207.83"/>
</g>
<!-- Node3 -->
<g id="node3" class="node">
<title>Node3</title>
<g id="a_node3"><a xlink:title=" ">
<polygon fill="white" stroke="#bfbfbf" points="0,-6 0,-25 49,-25 49,-6 0,-6"/>
<text text-anchor="middle" x="24.5" y="-13" font-family="Helvetica,sans-Serif" font-size="10.00">cstdlib</text>
</a>
</g>
</g>
<!-- Node2&#45;&gt;Node3 -->
<g id="edge2" class="edge">
<title>Node2&#45;&gt;Node3</title>
<path fill="none" stroke="midnightblue" d="M146.57,-67.44C124.61,-58.45 89.08,-43.83 58.5,-31 57.09,-30.41 55.66,-29.81 54.21,-29.19"/>
<polygon fill="midnightblue" stroke="midnightblue" points="55.19,-25.81 44.62,-25.13 52.46,-32.25 55.19,-25.81"/>
</g>
<!-- Node4 -->
<g id="node4" class="node">
<title>Node4</title>
<g id="a_node4"><a xlink:title=" ">
<polygon fill="white" stroke="#bfbfbf" points="67.5,-6 67.5,-25 127.5,-25 127.5,-6 67.5,-6"/>
<text text-anchor="middle" x="97.5" y="-13" font-family="Helvetica,sans-Serif" font-size="10.00">iostream</text>
</a>
</g>
</g>
<!-- Node2&#45;&gt;Node4 -->
<g id="edge3" class="edge">
<title>Node2&#45;&gt;Node4</title>
<path fill="none" stroke="midnightblue" d="M157.47,-67.48C146.45,-58.11 128.54,-42.88 115.16,-31.51"/>
<polygon fill="midnightblue" stroke="midnightblue" points="117.4,-28.82 107.51,-25.01 112.86,-34.15 117.4,-28.82"/>
</g>
<!-- Node5 -->
<g id="node5" class="node">
<title>Node5</title>
<g id="a_node5"><a xlink:title=" ">
<polygon fill="white" stroke="#bfbfbf" points="145.5,-6 145.5,-25 189.5,-25 189.5,-6 145.5,-6"/>
<text text-anchor="middle" x="167.5" y="-13" font-family="Helvetica,sans-Serif" font-size="10.00">string</text>
</a>
</g>
</g>
<!-- Node2&#45;&gt;Node5 -->
<g id="edge4" class="edge">
<title>Node2&#45;&gt;Node5</title>
<path fill="none" stroke="midnightblue" d="M167.5,-67.48C167.5,-59.08 167.5,-45.98 167.5,-35.16"/>
<polygon fill="midnightblue" stroke="midnightblue" points="171,-35.01 167.5,-25.01 164,-35.01 171,-35.01"/>
</g>
<!-- Node7 -->
<g id="node7" class="node">
<title>Node7</title>
<g id="a_node7"><a xlink:href="include_2log_8h.html" target="_top" xlink:title="Log Utilities.">
<polygon fill="white" stroke="black" points="323,-123.5 323,-142.5 364,-142.5 364,-123.5 323,-123.5"/>
<text text-anchor="middle" x="343.5" y="-130.5" font-family="Helvetica,sans-Serif" font-size="10.00">log.h</text>
</a>
</g>
</g>
<!-- Node6&#45;&gt;Node7 -->
<g id="edge6" class="edge">
<title>Node6&#45;&gt;Node7</title>
<path fill="none" stroke="midnightblue" d="M325.13,-179.08C328.11,-171.77 332.43,-161.18 336.12,-152.1"/>
<polygon fill="midnightblue" stroke="midnightblue" points="339.4,-153.33 339.93,-142.75 332.92,-150.69 339.4,-153.33"/>
</g>
<!-- Node7&#45;&gt;Node2 -->
<g id="edge9" class="edge">
<title>Node7&#45;&gt;Node2</title>
<path fill="none" stroke="midnightblue" d="M322.97,-125.7C293.21,-116.57 237.74,-99.55 201.73,-88.5"/>
<polygon fill="midnightblue" stroke="midnightblue" points="202.72,-85.14 192.13,-85.56 200.66,-91.84 202.72,-85.14"/>
</g>
<!-- Node8 -->
<g id="node8" class="node">
<title>Node8</title>
<g id="a_node8"><a xlink:href="meta_8h.html" target="_top" xlink:title="mmCEsim meta data">
<polygon fill="white" stroke="black" points="216,-67.5 216,-86.5 267,-86.5 267,-67.5 216,-67.5"/>
<text text-anchor="middle" x="241.5" y="-74.5" font-family="Helvetica,sans-Serif" font-size="10.00">meta.h</text>
</a>
</g>
</g>
<!-- Node7&#45;&gt;Node8 -->
<g id="edge7" class="edge">
<title>Node7&#45;&gt;Node8</title>
<path fill="none" stroke="midnightblue" d="M327.11,-123.32C310.83,-114.7 285.63,-101.36 266.78,-91.39"/>
<polygon fill="midnightblue" stroke="midnightblue" points="268.32,-88.24 257.85,-86.65 265.05,-94.43 268.32,-88.24"/>
</g>
<!-- Node9 -->
<g id="node9" class="node">
<title>Node9</title>
<g id="a_node9"><a xlink:href="utils_8h.html" target="_top" xlink:title="Utilities.">
<polygon fill="white" stroke="black" points="288,-67.5 288,-86.5 335,-86.5 335,-67.5 288,-67.5"/>
<text text-anchor="middle" x="311.5" y="-74.5" font-family="Helvetica,sans-Serif" font-size="10.00">utils.h</text>
</a>
</g>
</g>
<!-- Node7&#45;&gt;Node9 -->
<g id="edge10" class="edge">
<title>Node7&#45;&gt;Node9</title>
<path fill="none" stroke="midnightblue" d="M338.22,-123.08C333.79,-115.61 327.34,-104.72 321.88,-95.52"/>
<polygon fill="midnightblue" stroke="midnightblue" points="324.79,-93.57 316.69,-86.75 318.77,-97.14 324.79,-93.57"/>
</g>
<!-- Node16 -->
<g id="node16" class="node">
<title>Node16</title>
<g id="a_node16"><a xlink:title=" ">
<polygon fill="white" stroke="#bfbfbf" points="353.5,-67.5 353.5,-86.5 397.5,-86.5 397.5,-67.5 353.5,-67.5"/>
<text text-anchor="middle" x="375.5" y="-74.5" font-family="Helvetica,sans-Serif" font-size="10.00">ctime</text>
</a>
</g>
</g>
<!-- Node7&#45;&gt;Node16 -->
<g id="edge18" class="edge">
<title>Node7&#45;&gt;Node16</title>
<path fill="none" stroke="midnightblue" d="M348.78,-123.08C353.21,-115.61 359.66,-104.72 365.12,-95.52"/>
<polygon fill="midnightblue" stroke="midnightblue" points="368.23,-97.14 370.31,-86.75 362.21,-93.57 368.23,-97.14"/>
</g>
<!-- Node17 -->
<g id="node17" class="node">
<title>Node17</title>
<g id="a_node17"><a xlink:title=" ">
<polygon fill="white" stroke="#bfbfbf" points="416,-67.5 416,-86.5 471,-86.5 471,-67.5 416,-67.5"/>
<text text-anchor="middle" x="443.5" y="-74.5" font-family="Helvetica,sans-Serif" font-size="10.00">fstream</text>
</a>
</g>
</g>
<!-- Node7&#45;&gt;Node17 -->
<g id="edge19" class="edge">
<title>Node7&#45;&gt;Node17</title>
<path fill="none" stroke="midnightblue" d="M359.57,-123.32C375.46,-114.74 400.01,-101.49 418.46,-91.52"/>
<polygon fill="midnightblue" stroke="midnightblue" points="420.34,-94.49 427.47,-86.65 417.01,-88.33 420.34,-94.49"/>
</g>
<!-- Node18 -->
<g id="node18" class="node">
<title>Node18</title>
<g id="a_node18"><a xlink:title=" ">
<polygon fill="white" stroke="#bfbfbf" points="489.5,-67.5 489.5,-86.5 545.5,-86.5 545.5,-67.5 489.5,-67.5"/>
<text text-anchor="middle" x="517.5" y="-74.5" font-family="Helvetica,sans-Serif" font-size="10.00">iomanip</text>
</a>
</g>
</g>
<!-- Node7&#45;&gt;Node18 -->
<g id="edge20" class="edge">
<title>Node7&#45;&gt;Node18</title>
<path fill="none" stroke="midnightblue" d="M364.14,-125.59C392.66,-116.74 444.58,-100.63 480.04,-89.63"/>
<polygon fill="midnightblue" stroke="midnightblue" points="481.51,-92.84 490.02,-86.53 479.43,-86.15 481.51,-92.84"/>
</g>
<!-- Node19 -->
<g id="node19" class="node">
<title>Node19</title>
<g id="a_node19"><a xlink:title=" ">
<polygon fill="white" stroke="#bfbfbf" points="564,-67.5 564,-86.5 617,-86.5 617,-67.5 564,-67.5"/>
<text text-anchor="middle" x="590.5" y="-74.5" font-family="Helvetica,sans-Serif" font-size="10.00">spy.hpp</text>
</a>
</g>
</g>
<!-- Node7&#45;&gt;Node19 -->
<g id="edge21" class="edge">
<title>Node7&#45;&gt;Node19</title>
<path fill="none" stroke="midnightblue" d="M364.22,-127.83C400.46,-120.49 477.95,-104.55 553.61,-87.14"/>
<polygon fill="midnightblue" stroke="midnightblue" points="554.83,-90.45 563.79,-84.79 553.26,-83.63 554.83,-90.45"/>
</g>
<!-- Node8&#45;&gt;Node5 -->
<g id="edge8" class="edge">
<title>Node8&#45;&gt;Node5</title>
<path fill="none" stroke="midnightblue" d="M230.9,-67.48C219.25,-58.11 200.31,-42.88 186.17,-31.51"/>
<polygon fill="midnightblue" stroke="midnightblue" points="188.07,-28.55 178.08,-25.01 183.68,-34 188.07,-28.55"/>
</g>
<!-- Node9&#45;&gt;Node5 -->
<g id="edge15" class="edge">
<title>Node9&#45;&gt;Node5</title>
<path fill="none" stroke="midnightblue" d="M288.83,-67.42C265.9,-58.64 229.51,-44.41 198.5,-31 197.3,-30.48 196.08,-29.95 194.86,-29.4"/>
<polygon fill="midnightblue" stroke="midnightblue" points="196,-26.08 185.45,-25.11 193.1,-32.45 196,-26.08"/>
</g>
<!-- Node10 -->
<g id="node10" class="node">
<title>Node10</title>
<g id="a_node10"><a xlink:title=" ">
<polygon fill="white" stroke="#bfbfbf" points="207.5,-6 207.5,-25 271.5,-25 271.5,-6 207.5,-6"/>
<text text-anchor="middle" x="239.5" y="-13" font-family="Helvetica,sans-Serif" font-size="10.00">algorithm</text>
</a>
</g>
</g>
<!-- Node9&#45;&gt;Node10 -->
<g id="edge11" class="edge">
<title>Node9&#45;&gt;Node10</title>
<path fill="none" stroke="midnightblue" d="M301.18,-67.48C289.85,-58.11 271.43,-42.88 257.66,-31.51"/>
<polygon fill="midnightblue" stroke="midnightblue" points="259.73,-28.68 249.8,-25.01 255.28,-34.08 259.73,-28.68"/>
</g>
<!-- Node11 -->
<g id="node11" class="node">
<title>Node11</title>
<g id="a_node11"><a xlink:title=" ">
<polygon fill="white" stroke="#bfbfbf" points="290,-6 290,-25 339,-25 339,-6 290,-6"/>
<text text-anchor="middle" x="314.5" y="-13" font-family="Helvetica,sans-Serif" font-size="10.00">cctype</text>
</a>
</g>
</g>
<!-- Node9&#45;&gt;Node11 -->
<g id="edge12" class="edge">
<title>Node9&#45;&gt;Node11</title>
<path fill="none" stroke="midnightblue" d="M311.93,-67.48C312.35,-59.08 313.01,-45.98 313.56,-35.16"/>
<polygon fill="midnightblue" stroke="midnightblue" points="317.06,-35.17 314.07,-25.01 310.07,-34.82 317.06,-35.17"/>
</g>
<!-- Node12 -->
<g id="node12" class="node">
<title>Node12</title>
<g id="a_node12"><a xlink:title=" ">
<polygon fill="white" stroke="#bfbfbf" points="357.5,-6 357.5,-25 411.5,-25 411.5,-6 357.5,-6"/>
<text text-anchor="middle" x="384.5" y="-13" font-family="Helvetica,sans-Serif" font-size="10.00">random</text>
</a>
</g>
</g>
<!-- Node9&#45;&gt;Node12 -->
<g id="edge13" class="edge">
<title>Node9&#45;&gt;Node12</title>
<path fill="none" stroke="midnightblue" d="M321.96,-67.48C333.45,-58.11 352.13,-42.88 366.09,-31.51"/>
<polygon fill="midnightblue" stroke="midnightblue" points="368.52,-34.04 374.06,-25.01 364.1,-28.61 368.52,-34.04"/>
</g>
<!-- Node13 -->
<g id="node13" class="node">
<title>Node13</title>
<g id="a_node13"><a xlink:title=" ">
<polygon fill="white" stroke="#bfbfbf" points="429.5,-6 429.5,-25 485.5,-25 485.5,-6 429.5,-6"/>
<text text-anchor="middle" x="457.5" y="-13" font-family="Helvetica,sans-Serif" font-size="10.00">sstream</text>
</a>
</g>
</g>
<!-- Node9&#45;&gt;Node13 -->
<g id="edge14" class="edge">
<title>Node9&#45;&gt;Node13</title>
<path fill="none" stroke="midnightblue" d="M332.42,-67.48C357.25,-57.36 398.84,-40.4 427.19,-28.85"/>
<polygon fill="midnightblue" stroke="midnightblue" points="428.68,-32.02 436.62,-25.01 426.04,-25.54 428.68,-32.02"/>
</g>
<!-- Node14 -->
<g id="node14" class="node">
<title>Node14</title>
<g id="a_node14"><a xlink:title=" ">
<polygon fill="white" stroke="#bfbfbf" points="504,-6 504,-25 551,-25 551,-6 504,-6"/>
<text text-anchor="middle" x="527.5" y="-13" font-family="Helvetica,sans-Serif" font-size="10.00">vector</text>
</a>
</g>
</g>
<!-- Node9&#45;&gt;Node14 -->
<g id="edge16" class="edge">
<title>Node9&#45;&gt;Node14</title>
<path fill="none" stroke="midnightblue" d="M335.27,-69.42C338.37,-68.59 341.51,-67.77 344.5,-67 410.91,-49.98 429.52,-52.88 494.5,-31 496.37,-30.37 498.28,-29.68 500.19,-28.94"/>
<polygon fill="midnightblue" stroke="midnightblue" points="501.67,-32.12 509.57,-25.07 498.99,-25.65 501.67,-32.12"/>
</g>
<!-- Node15 -->
<g id="node15" class="node">
<title>Node15</title>
<g id="a_node15"><a xlink:title=" ">
<polygon fill="white" stroke="#bfbfbf" points="569,-0.5 569,-30.5 710,-30.5 710,-0.5 569,-0.5"/>
<text text-anchor="start" x="577" y="-18.5" font-family="Helvetica,sans-Serif" font-size="10.00">boost/dll/runtime_symbol</text>
<text text-anchor="middle" x="639.5" y="-7.5" font-family="Helvetica,sans-Serif" font-size="10.00">_info.hpp</text>
</a>
</g>
</g>
<!-- Node9&#45;&gt;Node15 -->
<g id="edge17" class="edge">
<title>Node9&#45;&gt;Node15</title>
<path fill="none" stroke="midnightblue" d="M335.22,-69.22C338.33,-68.42 341.48,-67.66 344.5,-67 436.41,-46.86 462.89,-47.7 558.75,-31.28"/>
<polygon fill="midnightblue" stroke="midnightblue" points="559.62,-34.68 568.88,-29.52 558.42,-27.78 559.62,-34.68"/>
</g>
</g>
</svg>
