<?xml version="1.0" encoding="UTF-8" standalone="no"?>
<!DOCTYPE svg PUBLIC "-//W3C//DTD SVG 1.1//EN"
 "http://www.w3.org/Graphics/SVG/1.1/DTD/svg11.dtd">
<!-- Generated by graphviz version 2.43.0 (0)
 -->
<!-- Title: tools/log/log.cpp Pages: 1 -->
<!--zoomable 218 -->
<svg id="main" version="1.1" xmlns="http://www.w3.org/2000/svg" xmlns:xlink="http://www.w3.org/1999/xlink" xml:space="preserve" onload="init(evt)">
<style type="text/css"><![CDATA[
.edge:hover path { stroke: red; }
.edge:hover polygon { stroke: red; fill: red; }
]]></style>
<script type="text/javascript"><![CDATA[
var edges = document.getElementsByTagName('g');
if (edges && edges.length) {
  for (var i=0;i<edges.length;i++) {
    if (edges[i].id.substr(0,4)=='edge') {
      edges[i].setAttribute('class','edge');
    }
  }
}
]]></script>
        <defs>
                <circle id="rim" cx="0" cy="0" r="7"/>
                <circle id="rim2" cx="0" cy="0" r="3.5"/>
                <g id="zoomPlus">
                        <use xlink:href="#rim" fill="#404040">
                                <set attributeName="fill" to="#808080" begin="zoomplus.mouseover" end="zoomplus.mouseout"/>
                        </use>
                        <path d="M-4,0h8M0,-4v8" fill="none" stroke="white" stroke-width="1.5" pointer-events="none"/>
                </g>
                <g id="zoomMin">
                        <use xlink:href="#rim" fill="#404040">
                                <set attributeName="fill" to="#808080" begin="zoomminus.mouseover" end="zoomminus.mouseout"/>
                        </use>
                        <path d="M-4,0h8" fill="none" stroke="white" stroke-width="1.5" pointer-events="none"/>
                </g>
                <g id="dirArrow">
                        <path fill="none" stroke="white" stroke-width="1.5" d="M0,-3.0v7 M-2.5,-0.5L0,-3.0L2.5,-0.5"/>
                </g>
               <g id="resetDef">
                       <use xlink:href="#rim2" fill="#404040">
                               <set attributeName="fill" to="#808080" begin="reset.mouseover" end="reset.mouseout"/>
                       </use>
               </g>
        </defs>

<script type="text/javascript">
var viewWidth = 1147;
var viewHeight = 218;
var sectionId = 'dynsection-0';
</script>
<script xlink:href="svgpan.js"/>
<svg id="graph" class="graph">
<g id="viewport">
<title>tools/log/log.cpp</title>
<polygon fill="white" stroke="transparent" points="-4,4 -4,-214 1143,-214 1143,4 -4,4"/>
<!-- Node1 -->
<g id="node1" class="node">
<title>Node1</title>
<g id="a_node1"><a xlink:title="mmCEsim Log Tool">
<polygon fill="#bfbfbf" stroke="black" points="797.5,-190.5 797.5,-209.5 894.5,-209.5 894.5,-190.5 797.5,-190.5"/>
<text text-anchor="middle" x="846" y="-197.5" font-family="Helvetica,sans-Serif" font-size="10.00">tools/log/log.cpp</text>
</a>
</g>
</g>
<!-- Node2 -->
<g id="node2" class="node">
<title>Node2</title>
<g id="a_node2"><a xlink:href="tools_2log_2log_8h.html" target="_top" xlink:title="mmCEsim Log Tool">
<polygon fill="white" stroke="black" points="498.5,-129 498.5,-148 539.5,-148 539.5,-129 498.5,-129"/>
<text text-anchor="middle" x="519" y="-136" font-family="Helvetica,sans-Serif" font-size="10.00">log.h</text>
</a>
</g>
</g>
<!-- Node1&#45;&gt;Node2 -->
<g id="edge1" class="edge">
<title>Node1&#45;&gt;Node2</title>
<path fill="none" stroke="midnightblue" d="M799.15,-190.48C731.15,-178.1 606.99,-155.51 549.59,-145.07"/>
<polygon fill="midnightblue" stroke="midnightblue" points="550.15,-141.61 539.68,-143.26 548.89,-148.5 550.15,-141.61"/>
</g>
<!-- Node11 -->
<g id="node11" class="node">
<title>Node11</title>
<g id="a_node11"><a xlink:href="__boost__config_8h.html" target="_top" xlink:title="Boost Configurations.">
<polygon fill="white" stroke="black" points="811,-6 811,-25 903,-25 903,-6 811,-6"/>
<text text-anchor="middle" x="857" y="-13" font-family="Helvetica,sans-Serif" font-size="10.00">_boost_config.h</text>
</a>
</g>
</g>
<!-- Node1&#45;&gt;Node11 -->
<g id="edge20" class="edge">
<title>Node1&#45;&gt;Node11</title>
<path fill="none" stroke="midnightblue" d="M837.25,-190.29C829.44,-181.84 818.55,-168.25 814,-154 809.81,-140.88 811.37,-136.52 814,-123 820.34,-90.35 836.68,-55.03 847.29,-34.38"/>
<polygon fill="midnightblue" stroke="midnightblue" points="850.53,-35.74 852.1,-25.26 844.34,-32.47 850.53,-35.74"/>
</g>
<!-- Node20 -->
<g id="node20" class="node">
<title>Node20</title>
<g id="a_node20"><a xlink:title=" ">
<polygon fill="white" stroke="#bfbfbf" points="823,-123.5 823,-153.5 971,-153.5 971,-123.5 823,-123.5"/>
<text text-anchor="start" x="831" y="-141.5" font-family="Helvetica,sans-Serif" font-size="10.00">boost/exception/diagnostic</text>
<text text-anchor="middle" x="897" y="-130.5" font-family="Helvetica,sans-Serif" font-size="10.00">_information.hpp</text>
</a>
</g>
</g>
<!-- Node1&#45;&gt;Node20 -->
<g id="edge21" class="edge">
<title>Node1&#45;&gt;Node20</title>
<path fill="none" stroke="midnightblue" d="M853.31,-190.48C859.83,-182.87 869.66,-171.4 878.34,-161.26"/>
<polygon fill="midnightblue" stroke="midnightblue" points="881.13,-163.39 884.98,-153.52 875.81,-158.84 881.13,-163.39"/>
</g>
<!-- Node21 -->
<g id="node21" class="node">
<title>Node21</title>
<g id="a_node21"><a xlink:title=" ">
<polygon fill="white" stroke="#bfbfbf" points="989,-129 989,-148 1139,-148 1139,-129 989,-129"/>
<text text-anchor="middle" x="1064" y="-136" font-family="Helvetica,sans-Serif" font-size="10.00">boost/program_options.hpp</text>
</a>
</g>
</g>
<!-- Node1&#45;&gt;Node21 -->
<g id="edge22" class="edge">
<title>Node1&#45;&gt;Node21</title>
<path fill="none" stroke="midnightblue" d="M877.23,-190.48C915.6,-180 980.79,-162.21 1023.11,-150.66"/>
<polygon fill="midnightblue" stroke="midnightblue" points="1024.1,-154.02 1032.82,-148.01 1022.26,-147.27 1024.1,-154.02"/>
</g>
<!-- Node3 -->
<g id="node3" class="node">
<title>Node3</title>
<g id="a_node3"><a xlink:href="meta_8h.html" target="_top" xlink:title="mmCEsim meta data">
<polygon fill="white" stroke="black" points="143.5,-67.5 143.5,-86.5 194.5,-86.5 194.5,-67.5 143.5,-67.5"/>
<text text-anchor="middle" x="169" y="-74.5" font-family="Helvetica,sans-Serif" font-size="10.00">meta.h</text>
</a>
</g>
</g>
<!-- Node2&#45;&gt;Node3 -->
<g id="edge2" class="edge">
<title>Node2&#45;&gt;Node3</title>
<path fill="none" stroke="midnightblue" d="M498.41,-134C440.87,-124.22 277.82,-96.5 204.95,-84.11"/>
<polygon fill="midnightblue" stroke="midnightblue" points="205.33,-80.63 194.88,-82.4 204.15,-87.53 205.33,-80.63"/>
</g>
<!-- Node5 -->
<g id="node5" class="node">
<title>Node5</title>
<g id="a_node5"><a xlink:href="utils_8h.html" target="_top" xlink:title="Utilities.">
<polygon fill="white" stroke="black" points="358.5,-67.5 358.5,-86.5 405.5,-86.5 405.5,-67.5 358.5,-67.5"/>
<text text-anchor="middle" x="382" y="-74.5" font-family="Helvetica,sans-Serif" font-size="10.00">utils.h</text>
</a>
</g>
</g>
<!-- Node2&#45;&gt;Node5 -->
<g id="edge4" class="edge">
<title>Node2&#45;&gt;Node5</title>
<path fill="none" stroke="midnightblue" d="M499.37,-128.98C476.18,-118.9 437.38,-102.05 410.79,-90.5"/>
<polygon fill="midnightblue" stroke="midnightblue" points="412.16,-87.28 401.59,-86.51 409.37,-93.7 412.16,-87.28"/>
</g>
<!-- Node16 -->
<g id="node16" class="node">
<title>Node16</title>
<g id="a_node16"><a xlink:title=" ">
<polygon fill="white" stroke="#bfbfbf" points="423.5,-67.5 423.5,-86.5 466.5,-86.5 466.5,-67.5 423.5,-67.5"/>
<text text-anchor="middle" x="445" y="-74.5" font-family="Helvetica,sans-Serif" font-size="10.00">clip.h</text>
</a>
</g>
</g>
<!-- Node2&#45;&gt;Node16 -->
<g id="edge16" class="edge">
<title>Node2&#45;&gt;Node16</title>
<path fill="none" stroke="midnightblue" d="M508.4,-128.98C496.75,-119.61 477.81,-104.38 463.67,-93.01"/>
<polygon fill="midnightblue" stroke="midnightblue" points="465.57,-90.05 455.58,-86.51 461.18,-95.5 465.57,-90.05"/>
</g>
<!-- Node17 -->
<g id="node17" class="node">
<title>Node17</title>
<g id="a_node17"><a xlink:title=" ">
<polygon fill="white" stroke="#bfbfbf" points="485,-67.5 485,-86.5 553,-86.5 553,-67.5 485,-67.5"/>
<text text-anchor="middle" x="519" y="-74.5" font-family="Helvetica,sans-Serif" font-size="10.00">filesystem</text>
</a>
</g>
</g>
<!-- Node2&#45;&gt;Node17 -->
<g id="edge17" class="edge">
<title>Node2&#45;&gt;Node17</title>
<path fill="none" stroke="midnightblue" d="M519,-128.98C519,-120.58 519,-107.48 519,-96.66"/>
<polygon fill="midnightblue" stroke="midnightblue" points="522.5,-96.51 519,-86.51 515.5,-96.51 522.5,-96.51"/>
</g>
<!-- Node18 -->
<g id="node18" class="node">
<title>Node18</title>
<g id="a_node18"><a xlink:title=" ">
<polygon fill="white" stroke="#bfbfbf" points="571.5,-67.5 571.5,-86.5 626.5,-86.5 626.5,-67.5 571.5,-67.5"/>
<text text-anchor="middle" x="599" y="-74.5" font-family="Helvetica,sans-Serif" font-size="10.00">fstream</text>
</a>
</g>
</g>
<!-- Node2&#45;&gt;Node18 -->
<g id="edge18" class="edge">
<title>Node2&#45;&gt;Node18</title>
<path fill="none" stroke="midnightblue" d="M530.46,-128.98C543.17,-119.52 563.91,-104.1 579.25,-92.69"/>
<polygon fill="midnightblue" stroke="midnightblue" points="581.62,-95.29 587.56,-86.51 577.45,-89.67 581.62,-95.29"/>
</g>
<!-- Node19 -->
<g id="node19" class="node">
<title>Node19</title>
<g id="a_node19"><a xlink:title=" ">
<polygon fill="white" stroke="#bfbfbf" points="645,-67.5 645,-86.5 705,-86.5 705,-67.5 645,-67.5"/>
<text text-anchor="middle" x="675" y="-74.5" font-family="Helvetica,sans-Serif" font-size="10.00">iostream</text>
</a>
</g>
</g>
<!-- Node2&#45;&gt;Node19 -->
<g id="edge19" class="edge">
<title>Node2&#45;&gt;Node19</title>
<path fill="none" stroke="midnightblue" d="M539.72,-129.6C566.19,-119.5 612.29,-101.92 643.22,-90.12"/>
<polygon fill="midnightblue" stroke="midnightblue" points="644.59,-93.35 652.68,-86.51 642.09,-86.81 644.59,-93.35"/>
</g>
<!-- Node4 -->
<g id="node4" class="node">
<title>Node4</title>
<g id="a_node4"><a xlink:title=" ">
<polygon fill="white" stroke="#bfbfbf" points="0,-6 0,-25 44,-25 44,-6 0,-6"/>
<text text-anchor="middle" x="22" y="-13" font-family="Helvetica,sans-Serif" font-size="10.00">string</text>
</a>
</g>
</g>
<!-- Node3&#45;&gt;Node4 -->
<g id="edge3" class="edge">
<title>Node3&#45;&gt;Node4</title>
<path fill="none" stroke="midnightblue" d="M145.71,-67.49C122.15,-58.76 84.78,-44.58 53,-31 51.8,-30.49 50.58,-29.96 49.35,-29.41"/>
<polygon fill="midnightblue" stroke="midnightblue" points="50.49,-26.09 39.94,-25.14 47.6,-32.46 50.49,-26.09"/>
</g>
<!-- Node5&#45;&gt;Node4 -->
<g id="edge9" class="edge">
<title>Node5&#45;&gt;Node4</title>
<path fill="none" stroke="midnightblue" d="M358.36,-75.2C303.58,-72.82 164.15,-63.77 53,-31 51.12,-30.45 49.21,-29.79 47.31,-29.08"/>
<polygon fill="midnightblue" stroke="midnightblue" points="48.62,-25.83 38.05,-25.13 45.87,-32.27 48.62,-25.83"/>
</g>
<!-- Node6 -->
<g id="node6" class="node">
<title>Node6</title>
<g id="a_node6"><a xlink:title=" ">
<polygon fill="white" stroke="#bfbfbf" points="62,-6 62,-25 126,-25 126,-6 62,-6"/>
<text text-anchor="middle" x="94" y="-13" font-family="Helvetica,sans-Serif" font-size="10.00">algorithm</text>
</a>
</g>
</g>
<!-- Node5&#45;&gt;Node6 -->
<g id="edge5" class="edge">
<title>Node5&#45;&gt;Node6</title>
<path fill="none" stroke="midnightblue" d="M358.22,-72.96C313.86,-67 215.66,-52.46 135,-31 132.03,-30.21 128.97,-29.3 125.92,-28.34"/>
<polygon fill="midnightblue" stroke="midnightblue" points="126.95,-24.99 116.35,-25.13 124.72,-31.63 126.95,-24.99"/>
</g>
<!-- Node7 -->
<g id="node7" class="node">
<title>Node7</title>
<g id="a_node7"><a xlink:title=" ">
<polygon fill="white" stroke="#bfbfbf" points="144.5,-6 144.5,-25 193.5,-25 193.5,-6 144.5,-6"/>
<text text-anchor="middle" x="169" y="-13" font-family="Helvetica,sans-Serif" font-size="10.00">cctype</text>
</a>
</g>
</g>
<!-- Node5&#45;&gt;Node7 -->
<g id="edge6" class="edge">
<title>Node5&#45;&gt;Node7</title>
<path fill="none" stroke="midnightblue" d="M358.49,-71.32C323.95,-64.17 257.66,-49.4 203,-31 201.08,-30.36 199.13,-29.65 197.16,-28.91"/>
<polygon fill="midnightblue" stroke="midnightblue" points="198.09,-25.51 187.5,-25.01 195.47,-32 198.09,-25.51"/>
</g>
<!-- Node8 -->
<g id="node8" class="node">
<title>Node8</title>
<g id="a_node8"><a xlink:title=" ">
<polygon fill="white" stroke="#bfbfbf" points="212,-6 212,-25 266,-25 266,-6 212,-6"/>
<text text-anchor="middle" x="239" y="-13" font-family="Helvetica,sans-Serif" font-size="10.00">random</text>
</a>
</g>
</g>
<!-- Node5&#45;&gt;Node8 -->
<g id="edge7" class="edge">
<title>Node5&#45;&gt;Node8</title>
<path fill="none" stroke="midnightblue" d="M361.51,-67.48C337.19,-57.36 296.45,-40.4 268.68,-28.85"/>
<polygon fill="midnightblue" stroke="midnightblue" points="270.03,-25.62 259.45,-25.01 267.34,-32.08 270.03,-25.62"/>
</g>
<!-- Node9 -->
<g id="node9" class="node">
<title>Node9</title>
<g id="a_node9"><a xlink:title=" ">
<polygon fill="white" stroke="#bfbfbf" points="284,-6 284,-25 340,-25 340,-6 284,-6"/>
<text text-anchor="middle" x="312" y="-13" font-family="Helvetica,sans-Serif" font-size="10.00">sstream</text>
</a>
</g>
</g>
<!-- Node5&#45;&gt;Node9 -->
<g id="edge8" class="edge">
<title>Node5&#45;&gt;Node9</title>
<path fill="none" stroke="midnightblue" d="M371.97,-67.48C360.95,-58.11 343.04,-42.88 329.66,-31.51"/>
<polygon fill="midnightblue" stroke="midnightblue" points="331.9,-28.82 322.01,-25.01 327.36,-34.15 331.9,-28.82"/>
</g>
<!-- Node10 -->
<g id="node10" class="node">
<title>Node10</title>
<g id="a_node10"><a xlink:title=" ">
<polygon fill="white" stroke="#bfbfbf" points="358.5,-6 358.5,-25 405.5,-25 405.5,-6 358.5,-6"/>
<text text-anchor="middle" x="382" y="-13" font-family="Helvetica,sans-Serif" font-size="10.00">vector</text>
</a>
</g>
</g>
<!-- Node5&#45;&gt;Node10 -->
<g id="edge10" class="edge">
<title>Node5&#45;&gt;Node10</title>
<path fill="none" stroke="midnightblue" d="M382,-67.48C382,-59.08 382,-45.98 382,-35.16"/>
<polygon fill="midnightblue" stroke="midnightblue" points="385.5,-35.01 382,-25.01 378.5,-35.01 385.5,-35.01"/>
</g>
<!-- Node5&#45;&gt;Node11 -->
<g id="edge11" class="edge">
<title>Node5&#45;&gt;Node11</title>
<path fill="none" stroke="midnightblue" d="M405.65,-68.83C408.45,-68.14 411.28,-67.51 414,-67 584.28,-35.43 631.46,-61.18 802,-31 807.41,-30.04 813.06,-28.82 818.6,-27.48"/>
<polygon fill="midnightblue" stroke="midnightblue" points="819.54,-30.86 828.37,-25.01 817.82,-24.07 819.54,-30.86"/>
</g>
<!-- Node12 -->
<g id="node12" class="node">
<title>Node12</title>
<g id="a_node12"><a xlink:title=" ">
<polygon fill="white" stroke="#bfbfbf" points="423.5,-0.5 423.5,-30.5 564.5,-30.5 564.5,-0.5 423.5,-0.5"/>
<text text-anchor="start" x="431.5" y="-18.5" font-family="Helvetica,sans-Serif" font-size="10.00">boost/dll/runtime_symbol</text>
<text text-anchor="middle" x="494" y="-7.5" font-family="Helvetica,sans-Serif" font-size="10.00">_info.hpp</text>
</a>
</g>
</g>
<!-- Node5&#45;&gt;Node12 -->
<g id="edge12" class="edge">
<title>Node5&#45;&gt;Node12</title>
<path fill="none" stroke="midnightblue" d="M398.05,-67.48C413.78,-59.12 438.3,-46.09 458.61,-35.3"/>
<polygon fill="midnightblue" stroke="midnightblue" points="460.41,-38.31 467.6,-30.52 457.13,-32.12 460.41,-38.31"/>
</g>
<!-- Node13 -->
<g id="node13" class="node">
<title>Node13</title>
<g id="a_node13"><a xlink:title=" ">
<polygon fill="white" stroke="#bfbfbf" points="583,-6 583,-25 629,-25 629,-6 583,-6"/>
<text text-anchor="middle" x="606" y="-13" font-family="Helvetica,sans-Serif" font-size="10.00">pwd.h</text>
</a>
</g>
</g>
<!-- Node5&#45;&gt;Node13 -->
<g id="edge13" class="edge">
<title>Node5&#45;&gt;Node13</title>
<path fill="none" stroke="midnightblue" d="M405.73,-69.18C408.51,-68.42 411.31,-67.68 414,-67 484.23,-49.19 504.18,-53.68 573,-31 574.87,-30.38 576.78,-29.7 578.7,-28.97"/>
<polygon fill="midnightblue" stroke="midnightblue" points="580.17,-32.15 588.09,-25.11 577.51,-25.68 580.17,-32.15"/>
</g>
<!-- Node14 -->
<g id="node14" class="node">
<title>Node14</title>
<g id="a_node14"><a xlink:title=" ">
<polygon fill="white" stroke="#bfbfbf" points="647,-6 647,-25 719,-25 719,-6 647,-6"/>
<text text-anchor="middle" x="683" y="-13" font-family="Helvetica,sans-Serif" font-size="10.00">sys/types.h</text>
</a>
</g>
</g>
<!-- Node5&#45;&gt;Node14 -->
<g id="edge14" class="edge">
<title>Node5&#45;&gt;Node14</title>
<path fill="none" stroke="midnightblue" d="M405.69,-69.01C408.48,-68.28 411.29,-67.6 414,-67 512.47,-45.31 539.95,-54.53 638,-31 641.65,-30.12 645.42,-29.1 649.17,-28.01"/>
<polygon fill="midnightblue" stroke="midnightblue" points="650.38,-31.3 658.9,-25.01 648.32,-24.61 650.38,-31.3"/>
</g>
<!-- Node15 -->
<g id="node15" class="node">
<title>Node15</title>
<g id="a_node15"><a xlink:title=" ">
<polygon fill="white" stroke="#bfbfbf" points="737,-6 737,-25 793,-25 793,-6 737,-6"/>
<text text-anchor="middle" x="765" y="-13" font-family="Helvetica,sans-Serif" font-size="10.00">unistd.h</text>
</a>
</g>
</g>
<!-- Node5&#45;&gt;Node15 -->
<g id="edge15" class="edge">
<title>Node5&#45;&gt;Node15</title>
<path fill="none" stroke="midnightblue" d="M405.66,-68.89C408.46,-68.18 411.28,-67.53 414,-67 551.83,-39.9 591.69,-64.91 728,-31 730.67,-30.34 733.41,-29.53 736.12,-28.63"/>
<polygon fill="midnightblue" stroke="midnightblue" points="737.52,-31.85 745.72,-25.14 735.13,-25.27 737.52,-31.85"/>
</g>
</g>
</svg>
        <g id="navigator" transform="translate(0 0)" fill="#404254">
                <rect fill="#f2f5e9" fill-opacity="0.5" stroke="#606060" stroke-width=".5" x="0" y="0" width="60" height="60"/>
                <use id="zoomplus" xlink:href="#zoomPlus" x="17" y="9" onmousedown="handleZoom(evt,'in')"/>
                <use id="zoomminus" xlink:href="#zoomMin" x="42" y="9" onmousedown="handleZoom(evt,'out')"/>
                <use id="reset" xlink:href="#resetDef" x="30" y="36" onmousedown="handleReset()"/>
                <g id="arrowUp" xlink:href="#dirArrow" transform="translate(30 24)" onmousedown="handlePan(0,-1)">
                  <use xlink:href="#rim" fill="#404040">
                        <set attributeName="fill" to="#808080" begin="arrowUp.mouseover" end="arrowUp.mouseout"/>
                  </use>
                  <path fill="none" stroke="white" stroke-width="1.5" d="M0,-3.0v7 M-2.5,-0.5L0,-3.0L2.5,-0.5"/>
                </g>
                <g id="arrowRight" xlink:href="#dirArrow" transform="rotate(90) translate(36 -43)" onmousedown="handlePan(1,0)">
                  <use xlink:href="#rim" fill="#404040">
                        <set attributeName="fill" to="#808080" begin="arrowRight.mouseover" end="arrowRight.mouseout"/>
                  </use>
                  <path fill="none" stroke="white" stroke-width="1.5" d="M0,-3.0v7 M-2.5,-0.5L0,-3.0L2.5,-0.5"/>
                </g>
                <g id="arrowDown" xlink:href="#dirArrow" transform="rotate(180) translate(-30 -48)" onmousedown="handlePan(0,1)">
                  <use xlink:href="#rim" fill="#404040">
                        <set attributeName="fill" to="#808080" begin="arrowDown.mouseover" end="arrowDown.mouseout"/>
                  </use>
                  <path fill="none" stroke="white" stroke-width="1.5" d="M0,-3.0v7 M-2.5,-0.5L0,-3.0L2.5,-0.5"/>
                </g>
                <g id="arrowLeft" xlink:href="#dirArrow" transform="rotate(270) translate(-36 17)" onmousedown="handlePan(-1,0)">
                  <use xlink:href="#rim" fill="#404040">
                        <set attributeName="fill" to="#808080" begin="arrowLeft.mouseover" end="arrowLeft.mouseout"/>
                  </use>
                  <path fill="none" stroke="white" stroke-width="1.5" d="M0,-3.0v7 M-2.5,-0.5L0,-3.0L2.5,-0.5"/>
                </g>
        </g>
        <svg viewBox="0 0 15 15" width="100%" height="30px" preserveAspectRatio="xMaxYMin meet">
         <g id="arrow_out" transform="scale(0.3 0.3)">
          <a xlink:href="tools_2log_2log_8cpp__incl_org.svg" target="_base">
           <rect id="button" ry="5" rx="5" y="6" x="6" height="38" width="38"
                fill="#f2f5e9" fill-opacity="0.5" stroke="#606060" stroke-width="1.0"/>
           <path id="arrow"
             d="M 11.500037,31.436501 C 11.940474,20.09759 22.043105,11.32322 32.158766,21.979434 L 37.068811,17.246167 C 37.068811,17.246167 37.088388,32 37.088388,32 L 22.160133,31.978069 C 22.160133,31.978069 26.997745,27.140456 26.997745,27.140456 C 18.528582,18.264221 13.291696,25.230495 11.500037,31.436501 z"
             style="fill:#404040;"/>
          </a>
         </g>
        </svg>
</svg>
