<?xml version="1.0" encoding="UTF-8" standalone="no"?>
<!DOCTYPE svg PUBLIC "-//W3C//DTD SVG 1.1//EN"
 "http://www.w3.org/Graphics/SVG/1.1/DTD/svg11.dtd">
<!-- Generated by graphviz version 2.43.0 (0)
 -->
<!-- Title: logFileName Pages: 1 -->
<svg width="270pt" height="66pt"
 viewBox="0.00 0.00 270.00 66.00" xmlns="http://www.w3.org/2000/svg" xmlns:xlink="http://www.w3.org/1999/xlink">
<g id="graph0" class="graph" transform="scale(1 1) rotate(0) translate(4 62)">
<title>logFileName</title>
<polygon fill="white" stroke="transparent" points="-4,4 -4,-62 266,-62 266,4 -4,4"/>
<!-- Node1 -->
<g id="node1" class="node">
<title>Node1</title>
<g id="a_node1"><a xlink:title=" ">
<polygon fill="#bfbfbf" stroke="black" points="0,-19.5 0,-38.5 78,-38.5 78,-19.5 0,-19.5"/>
<text text-anchor="middle" x="39" y="-26.5" font-family="Helvetica,sans-Serif" font-size="10.00">logFileName</text>
</a>
</g>
</g>
<!-- Node2 -->
<g id="node2" class="node">
<title>Node2</title>
<g id="a_node2"><a xlink:href="utils_8h.html#a4b2e6c6245b704aeb7448bf62b1cf422" target="_top" xlink:title=" ">
<polygon fill="white" stroke="black" points="114,-19.5 114,-38.5 167,-38.5 167,-19.5 114,-19.5"/>
<text text-anchor="middle" x="140.5" y="-26.5" font-family="Helvetica,sans-Serif" font-size="10.00">dataDir</text>
</a>
</g>
</g>
<!-- Node1&#45;&gt;Node2 -->
<g id="edge1" class="edge">
<title>Node1&#45;&gt;Node2</title>
<path fill="none" stroke="midnightblue" d="M78.18,-29C86.59,-29 95.45,-29 103.75,-29"/>
<polygon fill="midnightblue" stroke="midnightblue" points="103.88,-32.5 113.88,-29 103.88,-25.5 103.88,-32.5"/>
</g>
<!-- Node3 -->
<g id="node3" class="node">
<title>Node3</title>
<g id="a_node3"><a xlink:href="utils_8h.html#a49dc116689f1a4202be4d3f0743b1f70" target="_top" xlink:title=" ">
<polygon fill="white" stroke="black" points="208,-38.5 208,-57.5 257,-57.5 257,-38.5 208,-38.5"/>
<text text-anchor="middle" x="232.5" y="-45.5" font-family="Helvetica,sans-Serif" font-size="10.00">appDir</text>
</a>
</g>
</g>
<!-- Node2&#45;&gt;Node3 -->
<g id="edge2" class="edge">
<title>Node2&#45;&gt;Node3</title>
<path fill="none" stroke="midnightblue" d="M167.05,-34.39C176.64,-36.42 187.68,-38.75 197.89,-40.91"/>
<polygon fill="midnightblue" stroke="midnightblue" points="197.23,-44.34 207.74,-42.98 198.68,-37.49 197.23,-44.34"/>
</g>
<!-- Node4 -->
<g id="node4" class="node">
<title>Node4</title>
<g id="a_node4"><a xlink:href="utils_8h.html#a86caea3b83de102899d12b4100e61c1d" target="_top" xlink:title=" ">
<polygon fill="white" stroke="black" points="203,-0.5 203,-19.5 262,-19.5 262,-0.5 203,-0.5"/>
<text text-anchor="middle" x="232.5" y="-7.5" font-family="Helvetica,sans-Serif" font-size="10.00">homeDir</text>
</a>
</g>
</g>
<!-- Node2&#45;&gt;Node4 -->
<g id="edge3" class="edge">
<title>Node2&#45;&gt;Node4</title>
<path fill="none" stroke="midnightblue" d="M167.05,-23.61C175.04,-21.92 184.05,-20.02 192.74,-18.18"/>
<polygon fill="midnightblue" stroke="midnightblue" points="193.66,-21.57 202.72,-16.08 192.21,-14.72 193.66,-21.57"/>
</g>
</g>
</svg>
