<?xml version="1.0" encoding="UTF-8" standalone="no"?>
<!DOCTYPE svg PUBLIC "-//W3C//DTD SVG 1.1//EN"
 "http://www.w3.org/Graphics/SVG/1.1/DTD/svg11.dtd">
<!-- Generated by graphviz version 2.43.0 (0)
 -->
<!-- Title: tools/log/log.h Pages: 1 -->
<svg width="573pt" height="151pt"
 viewBox="0.00 0.00 572.50 151.00" xmlns="http://www.w3.org/2000/svg" xmlns:xlink="http://www.w3.org/1999/xlink">
<g id="graph0" class="graph" transform="scale(1 1) rotate(0) translate(4 147)">
<title>tools/log/log.h</title>
<polygon fill="white" stroke="transparent" points="-4,4 -4,-147 568.5,-147 568.5,4 -4,4"/>
<!-- Node1 -->
<g id="node1" class="node">
<title>Node1</title>
<g id="a_node1"><a xlink:title="mmCEsim Log Tool">
<polygon fill="#bfbfbf" stroke="black" points="261,-123.5 261,-142.5 347,-142.5 347,-123.5 261,-123.5"/>
<text text-anchor="middle" x="304" y="-130.5" font-family="Helvetica,sans-Serif" font-size="10.00">tools/log/log.h</text>
</a>
</g>
</g>
<!-- Node2 -->
<g id="node2" class="node">
<title>Node2</title>
<g id="a_node2"><a xlink:href="meta_8h.html" target="_top" xlink:title="mmCEsim meta data">
<polygon fill="white" stroke="black" points="71.5,-67.5 71.5,-86.5 122.5,-86.5 122.5,-67.5 71.5,-67.5"/>
<text text-anchor="middle" x="97" y="-74.5" font-family="Helvetica,sans-Serif" font-size="10.00">meta.h</text>
</a>
</g>
</g>
<!-- Node1&#45;&gt;Node2 -->
<g id="edge1" class="edge">
<title>Node1&#45;&gt;Node2</title>
<path fill="none" stroke="midnightblue" d="M271.2,-123.44C233.42,-113.59 171.57,-97.45 132.64,-87.3"/>
<polygon fill="midnightblue" stroke="midnightblue" points="133.34,-83.86 122.78,-84.73 131.57,-90.64 133.34,-83.86"/>
</g>
<!-- Node4 -->
<g id="node4" class="node">
<title>Node4</title>
<g id="a_node4"><a xlink:href="utils_8h.html" target="_top" xlink:title="Utilities.">
<polygon fill="white" stroke="black" points="180.5,-67.5 180.5,-86.5 227.5,-86.5 227.5,-67.5 180.5,-67.5"/>
<text text-anchor="middle" x="204" y="-74.5" font-family="Helvetica,sans-Serif" font-size="10.00">utils.h</text>
</a>
</g>
</g>
<!-- Node1&#45;&gt;Node4 -->
<g id="edge3" class="edge">
<title>Node1&#45;&gt;Node4</title>
<path fill="none" stroke="midnightblue" d="M287.93,-123.32C272.04,-114.74 247.49,-101.49 229.04,-91.52"/>
<polygon fill="midnightblue" stroke="midnightblue" points="230.49,-88.33 220.03,-86.65 227.16,-94.49 230.49,-88.33"/>
</g>
<!-- Node11 -->
<g id="node11" class="node">
<title>Node11</title>
<g id="a_node11"><a xlink:title=" ">
<polygon fill="white" stroke="#bfbfbf" points="245.5,-67.5 245.5,-86.5 288.5,-86.5 288.5,-67.5 245.5,-67.5"/>
<text text-anchor="middle" x="267" y="-74.5" font-family="Helvetica,sans-Serif" font-size="10.00">clip.h</text>
</a>
</g>
</g>
<!-- Node1&#45;&gt;Node11 -->
<g id="edge11" class="edge">
<title>Node1&#45;&gt;Node11</title>
<path fill="none" stroke="midnightblue" d="M297.89,-123.08C292.72,-115.53 285.15,-104.49 278.81,-95.23"/>
<polygon fill="midnightblue" stroke="midnightblue" points="281.54,-93.02 273,-86.75 275.76,-96.98 281.54,-93.02"/>
</g>
<!-- Node12 -->
<g id="node12" class="node">
<title>Node12</title>
<g id="a_node12"><a xlink:title=" ">
<polygon fill="white" stroke="#bfbfbf" points="307,-67.5 307,-86.5 375,-86.5 375,-67.5 307,-67.5"/>
<text text-anchor="middle" x="341" y="-74.5" font-family="Helvetica,sans-Serif" font-size="10.00">filesystem</text>
</a>
</g>
</g>
<!-- Node1&#45;&gt;Node12 -->
<g id="edge12" class="edge">
<title>Node1&#45;&gt;Node12</title>
<path fill="none" stroke="midnightblue" d="M310.11,-123.08C315.28,-115.53 322.85,-104.49 329.19,-95.23"/>
<polygon fill="midnightblue" stroke="midnightblue" points="332.24,-96.98 335,-86.75 326.46,-93.02 332.24,-96.98"/>
</g>
<!-- Node13 -->
<g id="node13" class="node">
<title>Node13</title>
<g id="a_node13"><a xlink:title=" ">
<polygon fill="white" stroke="#bfbfbf" points="393.5,-67.5 393.5,-86.5 448.5,-86.5 448.5,-67.5 393.5,-67.5"/>
<text text-anchor="middle" x="421" y="-74.5" font-family="Helvetica,sans-Serif" font-size="10.00">fstream</text>
</a>
</g>
</g>
<!-- Node1&#45;&gt;Node13 -->
<g id="edge13" class="edge">
<title>Node1&#45;&gt;Node13</title>
<path fill="none" stroke="midnightblue" d="M322.54,-123.44C341.62,-114.64 371.57,-100.81 393.44,-90.72"/>
<polygon fill="midnightblue" stroke="midnightblue" points="394.93,-93.88 402.55,-86.52 392,-87.53 394.93,-93.88"/>
</g>
<!-- Node14 -->
<g id="node14" class="node">
<title>Node14</title>
<g id="a_node14"><a xlink:title=" ">
<polygon fill="white" stroke="#bfbfbf" points="467,-67.5 467,-86.5 527,-86.5 527,-67.5 467,-67.5"/>
<text text-anchor="middle" x="497" y="-74.5" font-family="Helvetica,sans-Serif" font-size="10.00">iostream</text>
</a>
</g>
</g>
<!-- Node1&#45;&gt;Node14 -->
<g id="edge14" class="edge">
<title>Node1&#45;&gt;Node14</title>
<path fill="none" stroke="midnightblue" d="M334.58,-123.44C367.71,-114.17 420.7,-99.35 457.09,-89.17"/>
<polygon fill="midnightblue" stroke="midnightblue" points="458.19,-92.49 466.88,-86.43 456.31,-85.75 458.19,-92.49"/>
</g>
<!-- Node3 -->
<g id="node3" class="node">
<title>Node3</title>
<g id="a_node3"><a xlink:title=" ">
<polygon fill="white" stroke="#bfbfbf" points="0,-6 0,-25 44,-25 44,-6 0,-6"/>
<text text-anchor="middle" x="22" y="-13" font-family="Helvetica,sans-Serif" font-size="10.00">string</text>
</a>
</g>
</g>
<!-- Node2&#45;&gt;Node3 -->
<g id="edge2" class="edge">
<title>Node2&#45;&gt;Node3</title>
<path fill="none" stroke="midnightblue" d="M86.25,-67.48C74.45,-58.11 55.26,-42.88 40.92,-31.51"/>
<polygon fill="midnightblue" stroke="midnightblue" points="42.74,-28.48 32.73,-25.01 38.38,-33.97 42.74,-28.48"/>
</g>
<!-- Node4&#45;&gt;Node3 -->
<g id="edge8" class="edge">
<title>Node4&#45;&gt;Node3</title>
<path fill="none" stroke="midnightblue" d="M180.36,-70.12C150.33,-62.38 97.1,-47.78 53,-31 51.58,-30.46 50.13,-29.88 48.67,-29.28"/>
<polygon fill="midnightblue" stroke="midnightblue" points="49.75,-25.93 39.18,-25.09 46.92,-32.33 49.75,-25.93"/>
</g>
<!-- Node5 -->
<g id="node5" class="node">
<title>Node5</title>
<g id="a_node5"><a xlink:title=" ">
<polygon fill="white" stroke="#bfbfbf" points="62,-6 62,-25 126,-25 126,-6 62,-6"/>
<text text-anchor="middle" x="94" y="-13" font-family="Helvetica,sans-Serif" font-size="10.00">algorithm</text>
</a>
</g>
</g>
<!-- Node4&#45;&gt;Node5 -->
<g id="edge4" class="edge">
<title>Node4&#45;&gt;Node5</title>
<path fill="none" stroke="midnightblue" d="M188.24,-67.48C170.02,-57.62 139.83,-41.29 118.53,-29.77"/>
<polygon fill="midnightblue" stroke="midnightblue" points="120.19,-26.69 109.73,-25.01 116.86,-32.85 120.19,-26.69"/>
</g>
<!-- Node6 -->
<g id="node6" class="node">
<title>Node6</title>
<g id="a_node6"><a xlink:title=" ">
<polygon fill="white" stroke="#bfbfbf" points="144.5,-6 144.5,-25 193.5,-25 193.5,-6 144.5,-6"/>
<text text-anchor="middle" x="169" y="-13" font-family="Helvetica,sans-Serif" font-size="10.00">cctype</text>
</a>
</g>
</g>
<!-- Node4&#45;&gt;Node6 -->
<g id="edge5" class="edge">
<title>Node4&#45;&gt;Node6</title>
<path fill="none" stroke="midnightblue" d="M198.99,-67.48C193.84,-58.73 185.69,-44.87 179.18,-33.81"/>
<polygon fill="midnightblue" stroke="midnightblue" points="182.09,-31.85 174.01,-25.01 176.06,-35.4 182.09,-31.85"/>
</g>
<!-- Node7 -->
<g id="node7" class="node">
<title>Node7</title>
<g id="a_node7"><a xlink:title=" ">
<polygon fill="white" stroke="#bfbfbf" points="212,-6 212,-25 266,-25 266,-6 212,-6"/>
<text text-anchor="middle" x="239" y="-13" font-family="Helvetica,sans-Serif" font-size="10.00">random</text>
</a>
</g>
</g>
<!-- Node4&#45;&gt;Node7 -->
<g id="edge6" class="edge">
<title>Node4&#45;&gt;Node7</title>
<path fill="none" stroke="midnightblue" d="M209.01,-67.48C214.16,-58.73 222.31,-44.87 228.82,-33.81"/>
<polygon fill="midnightblue" stroke="midnightblue" points="231.94,-35.4 233.99,-25.01 225.91,-31.85 231.94,-35.4"/>
</g>
<!-- Node8 -->
<g id="node8" class="node">
<title>Node8</title>
<g id="a_node8"><a xlink:title=" ">
<polygon fill="white" stroke="#bfbfbf" points="284,-6 284,-25 340,-25 340,-6 284,-6"/>
<text text-anchor="middle" x="312" y="-13" font-family="Helvetica,sans-Serif" font-size="10.00">sstream</text>
</a>
</g>
</g>
<!-- Node4&#45;&gt;Node8 -->
<g id="edge7" class="edge">
<title>Node4&#45;&gt;Node8</title>
<path fill="none" stroke="midnightblue" d="M219.47,-67.48C237.28,-57.67 266.74,-41.43 287.63,-29.92"/>
<polygon fill="midnightblue" stroke="midnightblue" points="289.49,-32.9 296.55,-25.01 286.11,-26.77 289.49,-32.9"/>
</g>
<!-- Node9 -->
<g id="node9" class="node">
<title>Node9</title>
<g id="a_node9"><a xlink:title=" ">
<polygon fill="white" stroke="#bfbfbf" points="358.5,-6 358.5,-25 405.5,-25 405.5,-6 358.5,-6"/>
<text text-anchor="middle" x="382" y="-13" font-family="Helvetica,sans-Serif" font-size="10.00">vector</text>
</a>
</g>
</g>
<!-- Node4&#45;&gt;Node9 -->
<g id="edge9" class="edge">
<title>Node4&#45;&gt;Node9</title>
<path fill="none" stroke="midnightblue" d="M227.63,-69.56C256.56,-61.46 306.9,-46.72 349,-31 350.65,-30.38 352.34,-29.73 354.04,-29.05"/>
<polygon fill="midnightblue" stroke="midnightblue" points="355.79,-32.11 363.65,-25 353.08,-25.65 355.79,-32.11"/>
</g>
<!-- Node10 -->
<g id="node10" class="node">
<title>Node10</title>
<g id="a_node10"><a xlink:title=" ">
<polygon fill="white" stroke="#bfbfbf" points="423.5,-0.5 423.5,-30.5 564.5,-30.5 564.5,-0.5 423.5,-0.5"/>
<text text-anchor="start" x="431.5" y="-18.5" font-family="Helvetica,sans-Serif" font-size="10.00">boost/dll/runtime_symbol</text>
<text text-anchor="middle" x="494" y="-7.5" font-family="Helvetica,sans-Serif" font-size="10.00">_info.hpp</text>
</a>
</g>
</g>
<!-- Node4&#45;&gt;Node10 -->
<g id="edge10" class="edge">
<title>Node4&#45;&gt;Node10</title>
<path fill="none" stroke="midnightblue" d="M227.74,-69.31C230.85,-68.49 233.99,-67.7 237,-67 269.88,-59.3 351.14,-43.53 413.56,-31.65"/>
<polygon fill="midnightblue" stroke="midnightblue" points="414.24,-35.08 423.41,-29.78 412.93,-28.21 414.24,-35.08"/>
</g>
</g>
</svg>
