<?xml version="1.0" encoding="UTF-8" standalone="no"?>
<!DOCTYPE svg PUBLIC "-//W3C//DTD SVG 1.1//EN"
 "http://www.w3.org/Graphics/SVG/1.1/DTD/svg11.dtd">
<!-- Generated by graphviz version 2.43.0 (0)
 -->
<!-- Title: tools/log/log.h Pages: 1 -->
<svg width="801pt" height="151pt"
 viewBox="0.00 0.00 801.00 151.00" xmlns="http://www.w3.org/2000/svg" xmlns:xlink="http://www.w3.org/1999/xlink">
<g id="graph0" class="graph" transform="scale(1 1) rotate(0) translate(4 147)">
<title>tools/log/log.h</title>
<polygon fill="white" stroke="transparent" points="-4,4 -4,-147 797,-147 797,4 -4,4"/>
<!-- Node1 -->
<g id="node1" class="node">
<title>Node1</title>
<g id="a_node1"><a xlink:title="mmCEsim Log Tool">
<polygon fill="#bfbfbf" stroke="black" points="369,-123.5 369,-142.5 455,-142.5 455,-123.5 369,-123.5"/>
<text text-anchor="middle" x="412" y="-130.5" font-family="Helvetica,sans-Serif" font-size="10.00">tools/log/log.h</text>
</a>
</g>
</g>
<!-- Node2 -->
<g id="node2" class="node">
<title>Node2</title>
<g id="a_node2"><a xlink:href="meta_8h.html" target="_top" xlink:title="mmCEsim meta data">
<polygon fill="white" stroke="black" points="108.5,-67.5 108.5,-86.5 159.5,-86.5 159.5,-67.5 108.5,-67.5"/>
<text text-anchor="middle" x="134" y="-74.5" font-family="Helvetica,sans-Serif" font-size="10.00">meta.h</text>
</a>
</g>
</g>
<!-- Node1&#45;&gt;Node2 -->
<g id="edge1" class="edge">
<title>Node1&#45;&gt;Node2</title>
<path fill="none" stroke="midnightblue" d="M368.87,-123.62C314.08,-112.98 220.54,-94.81 169.61,-84.92"/>
<polygon fill="midnightblue" stroke="midnightblue" points="170.2,-81.47 159.72,-83 168.87,-88.34 170.2,-81.47"/>
</g>
<!-- Node4 -->
<g id="node4" class="node">
<title>Node4</title>
<g id="a_node4"><a xlink:href="utils_8h.html" target="_top" xlink:title="Utilities.">
<polygon fill="white" stroke="black" points="288.5,-67.5 288.5,-86.5 335.5,-86.5 335.5,-67.5 288.5,-67.5"/>
<text text-anchor="middle" x="312" y="-74.5" font-family="Helvetica,sans-Serif" font-size="10.00">utils.h</text>
</a>
</g>
</g>
<!-- Node1&#45;&gt;Node4 -->
<g id="edge3" class="edge">
<title>Node1&#45;&gt;Node4</title>
<path fill="none" stroke="midnightblue" d="M395.93,-123.32C380.04,-114.74 355.49,-101.49 337.04,-91.52"/>
<polygon fill="midnightblue" stroke="midnightblue" points="338.49,-88.33 328.03,-86.65 335.16,-94.49 338.49,-88.33"/>
</g>
<!-- Node14 -->
<g id="node14" class="node">
<title>Node14</title>
<g id="a_node14"><a xlink:title=" ">
<polygon fill="white" stroke="#bfbfbf" points="353.5,-67.5 353.5,-86.5 396.5,-86.5 396.5,-67.5 353.5,-67.5"/>
<text text-anchor="middle" x="375" y="-74.5" font-family="Helvetica,sans-Serif" font-size="10.00">clip.h</text>
</a>
</g>
</g>
<!-- Node1&#45;&gt;Node14 -->
<g id="edge14" class="edge">
<title>Node1&#45;&gt;Node14</title>
<path fill="none" stroke="midnightblue" d="M405.89,-123.08C400.72,-115.53 393.15,-104.49 386.81,-95.23"/>
<polygon fill="midnightblue" stroke="midnightblue" points="389.54,-93.02 381,-86.75 383.76,-96.98 389.54,-93.02"/>
</g>
<!-- Node15 -->
<g id="node15" class="node">
<title>Node15</title>
<g id="a_node15"><a xlink:title=" ">
<polygon fill="white" stroke="#bfbfbf" points="415,-67.5 415,-86.5 483,-86.5 483,-67.5 415,-67.5"/>
<text text-anchor="middle" x="449" y="-74.5" font-family="Helvetica,sans-Serif" font-size="10.00">filesystem</text>
</a>
</g>
</g>
<!-- Node1&#45;&gt;Node15 -->
<g id="edge15" class="edge">
<title>Node1&#45;&gt;Node15</title>
<path fill="none" stroke="midnightblue" d="M418.11,-123.08C423.28,-115.53 430.85,-104.49 437.19,-95.23"/>
<polygon fill="midnightblue" stroke="midnightblue" points="440.24,-96.98 443,-86.75 434.46,-93.02 440.24,-96.98"/>
</g>
<!-- Node16 -->
<g id="node16" class="node">
<title>Node16</title>
<g id="a_node16"><a xlink:title=" ">
<polygon fill="white" stroke="#bfbfbf" points="501.5,-67.5 501.5,-86.5 556.5,-86.5 556.5,-67.5 501.5,-67.5"/>
<text text-anchor="middle" x="529" y="-74.5" font-family="Helvetica,sans-Serif" font-size="10.00">fstream</text>
</a>
</g>
</g>
<!-- Node1&#45;&gt;Node16 -->
<g id="edge16" class="edge">
<title>Node1&#45;&gt;Node16</title>
<path fill="none" stroke="midnightblue" d="M430.54,-123.44C449.62,-114.64 479.57,-100.81 501.44,-90.72"/>
<polygon fill="midnightblue" stroke="midnightblue" points="502.93,-93.88 510.55,-86.52 500,-87.53 502.93,-93.88"/>
</g>
<!-- Node17 -->
<g id="node17" class="node">
<title>Node17</title>
<g id="a_node17"><a xlink:title=" ">
<polygon fill="white" stroke="#bfbfbf" points="575,-67.5 575,-86.5 635,-86.5 635,-67.5 575,-67.5"/>
<text text-anchor="middle" x="605" y="-74.5" font-family="Helvetica,sans-Serif" font-size="10.00">iostream</text>
</a>
</g>
</g>
<!-- Node1&#45;&gt;Node17 -->
<g id="edge17" class="edge">
<title>Node1&#45;&gt;Node17</title>
<path fill="none" stroke="midnightblue" d="M442.58,-123.44C475.71,-114.17 528.7,-99.35 565.09,-89.17"/>
<polygon fill="midnightblue" stroke="midnightblue" points="566.19,-92.49 574.88,-86.43 564.31,-85.75 566.19,-92.49"/>
</g>
<!-- Node3 -->
<g id="node3" class="node">
<title>Node3</title>
<g id="a_node3"><a xlink:title=" ">
<polygon fill="white" stroke="#bfbfbf" points="0,-6 0,-25 44,-25 44,-6 0,-6"/>
<text text-anchor="middle" x="22" y="-13" font-family="Helvetica,sans-Serif" font-size="10.00">string</text>
</a>
</g>
</g>
<!-- Node2&#45;&gt;Node3 -->
<g id="edge2" class="edge">
<title>Node2&#45;&gt;Node3</title>
<path fill="none" stroke="midnightblue" d="M117.95,-67.48C99.41,-57.62 68.66,-41.29 46.98,-29.77"/>
<polygon fill="midnightblue" stroke="midnightblue" points="48.49,-26.61 38.02,-25.01 45.21,-32.79 48.49,-26.61"/>
</g>
<!-- Node4&#45;&gt;Node3 -->
<g id="edge8" class="edge">
<title>Node4&#45;&gt;Node3</title>
<path fill="none" stroke="midnightblue" d="M288.29,-74C242.11,-69.65 137.24,-57.5 53,-31 51.13,-30.41 49.23,-29.73 47.33,-29"/>
<polygon fill="midnightblue" stroke="midnightblue" points="48.65,-25.76 38.09,-25.01 45.88,-32.19 48.65,-25.76"/>
</g>
<!-- Node5 -->
<g id="node5" class="node">
<title>Node5</title>
<g id="a_node5"><a xlink:title=" ">
<polygon fill="white" stroke="#bfbfbf" points="62,-6 62,-25 126,-25 126,-6 62,-6"/>
<text text-anchor="middle" x="94" y="-13" font-family="Helvetica,sans-Serif" font-size="10.00">algorithm</text>
</a>
</g>
</g>
<!-- Node4&#45;&gt;Node5 -->
<g id="edge4" class="edge">
<title>Node4&#45;&gt;Node5</title>
<path fill="none" stroke="midnightblue" d="M288.33,-70.71C254.21,-62.91 189.31,-47.47 135,-31 132.38,-30.21 129.68,-29.35 126.98,-28.45"/>
<polygon fill="midnightblue" stroke="midnightblue" points="127.89,-25.07 117.29,-25.15 125.63,-31.69 127.89,-25.07"/>
</g>
<!-- Node6 -->
<g id="node6" class="node">
<title>Node6</title>
<g id="a_node6"><a xlink:title=" ">
<polygon fill="white" stroke="#bfbfbf" points="144.5,-6 144.5,-25 193.5,-25 193.5,-6 144.5,-6"/>
<text text-anchor="middle" x="169" y="-13" font-family="Helvetica,sans-Serif" font-size="10.00">cctype</text>
</a>
</g>
</g>
<!-- Node4&#45;&gt;Node6 -->
<g id="edge5" class="edge">
<title>Node4&#45;&gt;Node6</title>
<path fill="none" stroke="midnightblue" d="M291.07,-67.44C269.11,-58.45 233.58,-43.83 203,-31 201.59,-30.41 200.16,-29.81 198.71,-29.19"/>
<polygon fill="midnightblue" stroke="midnightblue" points="199.69,-25.81 189.12,-25.13 196.96,-32.25 199.69,-25.81"/>
</g>
<!-- Node7 -->
<g id="node7" class="node">
<title>Node7</title>
<g id="a_node7"><a xlink:title=" ">
<polygon fill="white" stroke="#bfbfbf" points="212,-6 212,-25 266,-25 266,-6 212,-6"/>
<text text-anchor="middle" x="239" y="-13" font-family="Helvetica,sans-Serif" font-size="10.00">random</text>
</a>
</g>
</g>
<!-- Node4&#45;&gt;Node7 -->
<g id="edge6" class="edge">
<title>Node4&#45;&gt;Node7</title>
<path fill="none" stroke="midnightblue" d="M301.54,-67.48C290.05,-58.11 271.37,-42.88 257.41,-31.51"/>
<polygon fill="midnightblue" stroke="midnightblue" points="259.4,-28.61 249.44,-25.01 254.98,-34.04 259.4,-28.61"/>
</g>
<!-- Node8 -->
<g id="node8" class="node">
<title>Node8</title>
<g id="a_node8"><a xlink:title=" ">
<polygon fill="white" stroke="#bfbfbf" points="284,-6 284,-25 340,-25 340,-6 284,-6"/>
<text text-anchor="middle" x="312" y="-13" font-family="Helvetica,sans-Serif" font-size="10.00">sstream</text>
</a>
</g>
</g>
<!-- Node4&#45;&gt;Node8 -->
<g id="edge7" class="edge">
<title>Node4&#45;&gt;Node8</title>
<path fill="none" stroke="midnightblue" d="M312,-67.48C312,-59.08 312,-45.98 312,-35.16"/>
<polygon fill="midnightblue" stroke="midnightblue" points="315.5,-35.01 312,-25.01 308.5,-35.01 315.5,-35.01"/>
</g>
<!-- Node9 -->
<g id="node9" class="node">
<title>Node9</title>
<g id="a_node9"><a xlink:title=" ">
<polygon fill="white" stroke="#bfbfbf" points="358.5,-6 358.5,-25 405.5,-25 405.5,-6 358.5,-6"/>
<text text-anchor="middle" x="382" y="-13" font-family="Helvetica,sans-Serif" font-size="10.00">vector</text>
</a>
</g>
</g>
<!-- Node4&#45;&gt;Node9 -->
<g id="edge9" class="edge">
<title>Node4&#45;&gt;Node9</title>
<path fill="none" stroke="midnightblue" d="M322.03,-67.48C333.05,-58.11 350.96,-42.88 364.34,-31.51"/>
<polygon fill="midnightblue" stroke="midnightblue" points="366.64,-34.15 371.99,-25.01 362.1,-28.82 366.64,-34.15"/>
</g>
<!-- Node10 -->
<g id="node10" class="node">
<title>Node10</title>
<g id="a_node10"><a xlink:title=" ">
<polygon fill="white" stroke="#bfbfbf" points="423.5,-0.5 423.5,-30.5 564.5,-30.5 564.5,-0.5 423.5,-0.5"/>
<text text-anchor="start" x="431.5" y="-18.5" font-family="Helvetica,sans-Serif" font-size="10.00">boost/dll/runtime_symbol</text>
<text text-anchor="middle" x="494" y="-7.5" font-family="Helvetica,sans-Serif" font-size="10.00">_info.hpp</text>
</a>
</g>
</g>
<!-- Node4&#45;&gt;Node10 -->
<g id="edge10" class="edge">
<title>Node4&#45;&gt;Node10</title>
<path fill="none" stroke="midnightblue" d="M335.79,-68.22C362.48,-59.5 406.59,-45.08 441.46,-33.68"/>
<polygon fill="midnightblue" stroke="midnightblue" points="442.61,-36.98 451.03,-30.55 440.44,-30.33 442.61,-36.98"/>
</g>
<!-- Node11 -->
<g id="node11" class="node">
<title>Node11</title>
<g id="a_node11"><a xlink:title=" ">
<polygon fill="white" stroke="#bfbfbf" points="583,-6 583,-25 629,-25 629,-6 583,-6"/>
<text text-anchor="middle" x="606" y="-13" font-family="Helvetica,sans-Serif" font-size="10.00">pwd.h</text>
</a>
</g>
</g>
<!-- Node4&#45;&gt;Node11 -->
<g id="edge11" class="edge">
<title>Node4&#45;&gt;Node11</title>
<path fill="none" stroke="midnightblue" d="M335.72,-69.2C338.83,-68.4 341.98,-67.65 345,-67 445.74,-45.41 475.29,-60.53 574,-31 575.93,-30.42 577.89,-29.75 579.85,-29.03"/>
<polygon fill="midnightblue" stroke="midnightblue" points="581.5,-32.13 589.39,-25.05 578.81,-25.67 581.5,-32.13"/>
</g>
<!-- Node12 -->
<g id="node12" class="node">
<title>Node12</title>
<g id="a_node12"><a xlink:title=" ">
<polygon fill="white" stroke="#bfbfbf" points="647,-6 647,-25 719,-25 719,-6 647,-6"/>
<text text-anchor="middle" x="683" y="-13" font-family="Helvetica,sans-Serif" font-size="10.00">sys/types.h</text>
</a>
</g>
</g>
<!-- Node4&#45;&gt;Node12 -->
<g id="edge12" class="edge">
<title>Node4&#45;&gt;Node12</title>
<path fill="none" stroke="midnightblue" d="M335.7,-69.1C338.81,-68.32 341.97,-67.6 345,-67 473.73,-41.67 509.88,-59.25 638,-31 641.86,-30.15 645.85,-29.11 649.8,-27.97"/>
<polygon fill="midnightblue" stroke="midnightblue" points="650.87,-31.31 659.41,-25.03 648.82,-24.61 650.87,-31.31"/>
</g>
<!-- Node13 -->
<g id="node13" class="node">
<title>Node13</title>
<g id="a_node13"><a xlink:title=" ">
<polygon fill="white" stroke="#bfbfbf" points="737,-6 737,-25 793,-25 793,-6 737,-6"/>
<text text-anchor="middle" x="765" y="-13" font-family="Helvetica,sans-Serif" font-size="10.00">unistd.h</text>
</a>
</g>
</g>
<!-- Node4&#45;&gt;Node13 -->
<g id="edge13" class="edge">
<title>Node4&#45;&gt;Node13</title>
<path fill="none" stroke="midnightblue" d="M335.68,-69.02C338.8,-68.25 341.96,-67.55 345,-67 513.21,-36.39 561.67,-70.58 728,-31 730.83,-30.33 733.73,-29.48 736.61,-28.54"/>
<polygon fill="midnightblue" stroke="midnightblue" points="737.93,-31.78 746.12,-25.07 735.53,-25.21 737.93,-31.78"/>
</g>
</g>
</svg>
