<?xml version="1.0" encoding="UTF-8" standalone="no"?>
<!DOCTYPE svg PUBLIC "-//W3C//DTD SVG 1.1//EN"
 "http://www.w3.org/Graphics/SVG/1.1/DTD/svg11.dtd">
<!-- Generated by graphviz version 2.43.0 (0)
 -->
<!-- Title: localLogFileName Pages: 1 -->
<svg width="311pt" height="28pt"
 viewBox="0.00 0.00 311.00 28.00" xmlns="http://www.w3.org/2000/svg" xmlns:xlink="http://www.w3.org/1999/xlink">
<g id="graph0" class="graph" transform="scale(1 1) rotate(0) translate(4 24)">
<title>localLogFileName</title>
<polygon fill="white" stroke="transparent" points="-4,4 -4,-24 307,-24 307,4 -4,4"/>
<!-- Node1 -->
<g id="node1" class="node">
<title>Node1</title>
<g id="a_node1"><a xlink:title="Get the log file name on the local machine.">
<polygon fill="#bfbfbf" stroke="black" points="0,-0.5 0,-19.5 104,-19.5 104,-0.5 0,-0.5"/>
<text text-anchor="middle" x="52" y="-7.5" font-family="Helvetica,sans-Serif" font-size="10.00">localLogFileName</text>
</a>
</g>
</g>
<!-- Node2 -->
<g id="node2" class="node">
<title>Node2</title>
<g id="a_node2"><a xlink:href="tools_2log_2log_8h.html#a5d2420c3e47ebff9cfe3c6004f0e62f7" target="_top" xlink:title=" ">
<polygon fill="white" stroke="black" points="140,-0.5 140,-19.5 218,-19.5 218,-0.5 140,-0.5"/>
<text text-anchor="middle" x="179" y="-7.5" font-family="Helvetica,sans-Serif" font-size="10.00">logFileName</text>
</a>
</g>
</g>
<!-- Node1&#45;&gt;Node2 -->
<g id="edge1" class="edge">
<title>Node1&#45;&gt;Node2</title>
<path fill="none" stroke="midnightblue" d="M104.2,-10C112.55,-10 121.17,-10 129.45,-10"/>
<polygon fill="midnightblue" stroke="midnightblue" points="129.7,-13.5 139.7,-10 129.7,-6.5 129.7,-13.5"/>
</g>
<!-- Node3 -->
<g id="node3" class="node">
<title>Node3</title>
<g id="a_node3"><a xlink:href="utils_8h.html#a49dc116689f1a4202be4d3f0743b1f70" target="_top" xlink:title=" ">
<polygon fill="white" stroke="black" points="254,-0.5 254,-19.5 303,-19.5 303,-0.5 254,-0.5"/>
<text text-anchor="middle" x="278.5" y="-7.5" font-family="Helvetica,sans-Serif" font-size="10.00">appDir</text>
</a>
</g>
</g>
<!-- Node2&#45;&gt;Node3 -->
<g id="edge2" class="edge">
<title>Node2&#45;&gt;Node3</title>
<path fill="none" stroke="midnightblue" d="M218.25,-10C226.73,-10 235.65,-10 243.93,-10"/>
<polygon fill="midnightblue" stroke="midnightblue" points="243.98,-13.5 253.98,-10 243.98,-6.5 243.98,-13.5"/>
</g>
</g>
</svg>
