<?xml version="1.0" encoding="UTF-8" standalone="no"?>
<!DOCTYPE svg PUBLIC "-//W3C//DTD SVG 1.1//EN"
 "http://www.w3.org/Graphics/SVG/1.1/DTD/svg11.dtd">
<!-- Generated by graphviz version 2.43.0 (0)
 -->
<!-- Title: tools/log/log.cpp Pages: 1 -->
<svg width="667pt" height="218pt"
 viewBox="0.00 0.00 667.00 218.00" xmlns="http://www.w3.org/2000/svg" xmlns:xlink="http://www.w3.org/1999/xlink">
<g id="graph0" class="graph" transform="scale(1 1) rotate(0) translate(4 214)">
<title>tools/log/log.cpp</title>
<polygon fill="white" stroke="transparent" points="-4,4 -4,-214 663,-214 663,4 -4,4"/>
<!-- Node1 -->
<g id="node1" class="node">
<title>Node1</title>
<g id="a_node1"><a xlink:title="mmCEsim Log Tool">
<polygon fill="#bfbfbf" stroke="black" points="368.5,-190.5 368.5,-209.5 465.5,-209.5 465.5,-190.5 368.5,-190.5"/>
<text text-anchor="middle" x="417" y="-197.5" font-family="Helvetica,sans-Serif" font-size="10.00">tools/log/log.cpp</text>
</a>
</g>
</g>
<!-- Node2 -->
<g id="node2" class="node">
<title>Node2</title>
<g id="a_node2"><a xlink:href="tools_2log_2log_8h.html" target="_top" xlink:title="mmCEsim Log Tool">
<polygon fill="white" stroke="black" points="283.5,-129 283.5,-148 324.5,-148 324.5,-129 283.5,-129"/>
<text text-anchor="middle" x="304" y="-136" font-family="Helvetica,sans-Serif" font-size="10.00">log.h</text>
</a>
</g>
</g>
<!-- Node1&#45;&gt;Node2 -->
<g id="edge1" class="edge">
<title>Node1&#45;&gt;Node2</title>
<path fill="none" stroke="midnightblue" d="M400.81,-190.48C382.1,-180.62 351.08,-164.29 329.2,-152.77"/>
<polygon fill="midnightblue" stroke="midnightblue" points="330.64,-149.57 320.16,-148.01 327.38,-155.77 330.64,-149.57"/>
</g>
<!-- Node16 -->
<g id="node16" class="node">
<title>Node16</title>
<g id="a_node16"><a xlink:title=" ">
<polygon fill="white" stroke="#bfbfbf" points="343,-123.5 343,-153.5 491,-153.5 491,-123.5 343,-123.5"/>
<text text-anchor="start" x="351" y="-141.5" font-family="Helvetica,sans-Serif" font-size="10.00">boost/exception/diagnostic</text>
<text text-anchor="middle" x="417" y="-130.5" font-family="Helvetica,sans-Serif" font-size="10.00">_information.hpp</text>
</a>
</g>
</g>
<!-- Node1&#45;&gt;Node16 -->
<g id="edge16" class="edge">
<title>Node1&#45;&gt;Node16</title>
<path fill="none" stroke="midnightblue" d="M417,-190.48C417,-183.47 417,-173.19 417,-163.7"/>
<polygon fill="midnightblue" stroke="midnightblue" points="420.5,-163.52 417,-153.52 413.5,-163.52 420.5,-163.52"/>
</g>
<!-- Node17 -->
<g id="node17" class="node">
<title>Node17</title>
<g id="a_node17"><a xlink:title=" ">
<polygon fill="white" stroke="#bfbfbf" points="509,-129 509,-148 659,-148 659,-129 509,-129"/>
<text text-anchor="middle" x="584" y="-136" font-family="Helvetica,sans-Serif" font-size="10.00">boost/program_options.hpp</text>
</a>
</g>
</g>
<!-- Node1&#45;&gt;Node17 -->
<g id="edge17" class="edge">
<title>Node1&#45;&gt;Node17</title>
<path fill="none" stroke="midnightblue" d="M440.93,-190.48C469.7,-180.22 518.16,-162.96 550.6,-151.4"/>
<polygon fill="midnightblue" stroke="midnightblue" points="551.87,-154.66 560.12,-148.01 549.52,-148.07 551.87,-154.66"/>
</g>
<!-- Node3 -->
<g id="node3" class="node">
<title>Node3</title>
<g id="a_node3"><a xlink:href="meta_8h.html" target="_top" xlink:title="mmCEsim meta data">
<polygon fill="white" stroke="black" points="71.5,-67.5 71.5,-86.5 122.5,-86.5 122.5,-67.5 71.5,-67.5"/>
<text text-anchor="middle" x="97" y="-74.5" font-family="Helvetica,sans-Serif" font-size="10.00">meta.h</text>
</a>
</g>
</g>
<!-- Node2&#45;&gt;Node3 -->
<g id="edge2" class="edge">
<title>Node2&#45;&gt;Node3</title>
<path fill="none" stroke="midnightblue" d="M283.4,-131.58C248.18,-121.45 176,-100.71 132.52,-88.21"/>
<polygon fill="midnightblue" stroke="midnightblue" points="133.23,-84.77 122.65,-85.37 131.3,-91.5 133.23,-84.77"/>
</g>
<!-- Node5 -->
<g id="node5" class="node">
<title>Node5</title>
<g id="a_node5"><a xlink:href="utils_8h.html" target="_top" xlink:title="Utilities.">
<polygon fill="white" stroke="black" points="180.5,-67.5 180.5,-86.5 227.5,-86.5 227.5,-67.5 180.5,-67.5"/>
<text text-anchor="middle" x="204" y="-74.5" font-family="Helvetica,sans-Serif" font-size="10.00">utils.h</text>
</a>
</g>
</g>
<!-- Node2&#45;&gt;Node5 -->
<g id="edge4" class="edge">
<title>Node2&#45;&gt;Node5</title>
<path fill="none" stroke="midnightblue" d="M289.67,-128.98C273.34,-119.25 246.4,-103.23 227.09,-91.74"/>
<polygon fill="midnightblue" stroke="midnightblue" points="228.68,-88.61 218.3,-86.51 225.11,-94.63 228.68,-88.61"/>
</g>
<!-- Node12 -->
<g id="node12" class="node">
<title>Node12</title>
<g id="a_node12"><a xlink:title=" ">
<polygon fill="white" stroke="#bfbfbf" points="245.5,-67.5 245.5,-86.5 288.5,-86.5 288.5,-67.5 245.5,-67.5"/>
<text text-anchor="middle" x="267" y="-74.5" font-family="Helvetica,sans-Serif" font-size="10.00">clip.h</text>
</a>
</g>
</g>
<!-- Node2&#45;&gt;Node12 -->
<g id="edge12" class="edge">
<title>Node2&#45;&gt;Node12</title>
<path fill="none" stroke="midnightblue" d="M298.7,-128.98C293.26,-120.23 284.64,-106.37 277.76,-95.31"/>
<polygon fill="midnightblue" stroke="midnightblue" points="280.54,-93.15 272.29,-86.51 274.6,-96.85 280.54,-93.15"/>
</g>
<!-- Node13 -->
<g id="node13" class="node">
<title>Node13</title>
<g id="a_node13"><a xlink:title=" ">
<polygon fill="white" stroke="#bfbfbf" points="307,-67.5 307,-86.5 375,-86.5 375,-67.5 307,-67.5"/>
<text text-anchor="middle" x="341" y="-74.5" font-family="Helvetica,sans-Serif" font-size="10.00">filesystem</text>
</a>
</g>
</g>
<!-- Node2&#45;&gt;Node13 -->
<g id="edge13" class="edge">
<title>Node2&#45;&gt;Node13</title>
<path fill="none" stroke="midnightblue" d="M309.3,-128.98C314.74,-120.23 323.36,-106.37 330.24,-95.31"/>
<polygon fill="midnightblue" stroke="midnightblue" points="333.4,-96.85 335.71,-86.51 327.46,-93.15 333.4,-96.85"/>
</g>
<!-- Node14 -->
<g id="node14" class="node">
<title>Node14</title>
<g id="a_node14"><a xlink:title=" ">
<polygon fill="white" stroke="#bfbfbf" points="393.5,-67.5 393.5,-86.5 448.5,-86.5 448.5,-67.5 393.5,-67.5"/>
<text text-anchor="middle" x="421" y="-74.5" font-family="Helvetica,sans-Serif" font-size="10.00">fstream</text>
</a>
</g>
</g>
<!-- Node2&#45;&gt;Node14 -->
<g id="edge14" class="edge">
<title>Node2&#45;&gt;Node14</title>
<path fill="none" stroke="midnightblue" d="M320.76,-128.98C340.22,-119.08 372.55,-102.64 395.21,-91.12"/>
<polygon fill="midnightblue" stroke="midnightblue" points="396.94,-94.16 404.27,-86.51 393.77,-87.92 396.94,-94.16"/>
</g>
<!-- Node15 -->
<g id="node15" class="node">
<title>Node15</title>
<g id="a_node15"><a xlink:title=" ">
<polygon fill="white" stroke="#bfbfbf" points="467,-67.5 467,-86.5 527,-86.5 527,-67.5 467,-67.5"/>
<text text-anchor="middle" x="497" y="-74.5" font-family="Helvetica,sans-Serif" font-size="10.00">iostream</text>
</a>
</g>
</g>
<!-- Node2&#45;&gt;Node15 -->
<g id="edge15" class="edge">
<title>Node2&#45;&gt;Node15</title>
<path fill="none" stroke="midnightblue" d="M320.27,-128.98C324.66,-126.86 329.45,-124.71 334,-123 356.42,-114.57 416.48,-98.6 457.09,-88.13"/>
<polygon fill="midnightblue" stroke="midnightblue" points="458.15,-91.48 466.96,-85.6 456.4,-84.7 458.15,-91.48"/>
</g>
<!-- Node4 -->
<g id="node4" class="node">
<title>Node4</title>
<g id="a_node4"><a xlink:title=" ">
<polygon fill="white" stroke="#bfbfbf" points="0,-6 0,-25 44,-25 44,-6 0,-6"/>
<text text-anchor="middle" x="22" y="-13" font-family="Helvetica,sans-Serif" font-size="10.00">string</text>
</a>
</g>
</g>
<!-- Node3&#45;&gt;Node4 -->
<g id="edge3" class="edge">
<title>Node3&#45;&gt;Node4</title>
<path fill="none" stroke="midnightblue" d="M86.25,-67.48C74.45,-58.11 55.26,-42.88 40.92,-31.51"/>
<polygon fill="midnightblue" stroke="midnightblue" points="42.74,-28.48 32.73,-25.01 38.38,-33.97 42.74,-28.48"/>
</g>
<!-- Node5&#45;&gt;Node4 -->
<g id="edge9" class="edge">
<title>Node5&#45;&gt;Node4</title>
<path fill="none" stroke="midnightblue" d="M180.36,-70.12C150.33,-62.38 97.1,-47.78 53,-31 51.58,-30.46 50.13,-29.88 48.67,-29.28"/>
<polygon fill="midnightblue" stroke="midnightblue" points="49.75,-25.93 39.18,-25.09 46.92,-32.33 49.75,-25.93"/>
</g>
<!-- Node6 -->
<g id="node6" class="node">
<title>Node6</title>
<g id="a_node6"><a xlink:title=" ">
<polygon fill="white" stroke="#bfbfbf" points="62,-6 62,-25 126,-25 126,-6 62,-6"/>
<text text-anchor="middle" x="94" y="-13" font-family="Helvetica,sans-Serif" font-size="10.00">algorithm</text>
</a>
</g>
</g>
<!-- Node5&#45;&gt;Node6 -->
<g id="edge5" class="edge">
<title>Node5&#45;&gt;Node6</title>
<path fill="none" stroke="midnightblue" d="M188.24,-67.48C170.02,-57.62 139.83,-41.29 118.53,-29.77"/>
<polygon fill="midnightblue" stroke="midnightblue" points="120.19,-26.69 109.73,-25.01 116.86,-32.85 120.19,-26.69"/>
</g>
<!-- Node7 -->
<g id="node7" class="node">
<title>Node7</title>
<g id="a_node7"><a xlink:title=" ">
<polygon fill="white" stroke="#bfbfbf" points="144.5,-6 144.5,-25 193.5,-25 193.5,-6 144.5,-6"/>
<text text-anchor="middle" x="169" y="-13" font-family="Helvetica,sans-Serif" font-size="10.00">cctype</text>
</a>
</g>
</g>
<!-- Node5&#45;&gt;Node7 -->
<g id="edge6" class="edge">
<title>Node5&#45;&gt;Node7</title>
<path fill="none" stroke="midnightblue" d="M198.99,-67.48C193.84,-58.73 185.69,-44.87 179.18,-33.81"/>
<polygon fill="midnightblue" stroke="midnightblue" points="182.09,-31.85 174.01,-25.01 176.06,-35.4 182.09,-31.85"/>
</g>
<!-- Node8 -->
<g id="node8" class="node">
<title>Node8</title>
<g id="a_node8"><a xlink:title=" ">
<polygon fill="white" stroke="#bfbfbf" points="212,-6 212,-25 266,-25 266,-6 212,-6"/>
<text text-anchor="middle" x="239" y="-13" font-family="Helvetica,sans-Serif" font-size="10.00">random</text>
</a>
</g>
</g>
<!-- Node5&#45;&gt;Node8 -->
<g id="edge7" class="edge">
<title>Node5&#45;&gt;Node8</title>
<path fill="none" stroke="midnightblue" d="M209.01,-67.48C214.16,-58.73 222.31,-44.87 228.82,-33.81"/>
<polygon fill="midnightblue" stroke="midnightblue" points="231.94,-35.4 233.99,-25.01 225.91,-31.85 231.94,-35.4"/>
</g>
<!-- Node9 -->
<g id="node9" class="node">
<title>Node9</title>
<g id="a_node9"><a xlink:title=" ">
<polygon fill="white" stroke="#bfbfbf" points="284,-6 284,-25 340,-25 340,-6 284,-6"/>
<text text-anchor="middle" x="312" y="-13" font-family="Helvetica,sans-Serif" font-size="10.00">sstream</text>
</a>
</g>
</g>
<!-- Node5&#45;&gt;Node9 -->
<g id="edge8" class="edge">
<title>Node5&#45;&gt;Node9</title>
<path fill="none" stroke="midnightblue" d="M219.47,-67.48C237.28,-57.67 266.74,-41.43 287.63,-29.92"/>
<polygon fill="midnightblue" stroke="midnightblue" points="289.49,-32.9 296.55,-25.01 286.11,-26.77 289.49,-32.9"/>
</g>
<!-- Node10 -->
<g id="node10" class="node">
<title>Node10</title>
<g id="a_node10"><a xlink:title=" ">
<polygon fill="white" stroke="#bfbfbf" points="358.5,-6 358.5,-25 405.5,-25 405.5,-6 358.5,-6"/>
<text text-anchor="middle" x="382" y="-13" font-family="Helvetica,sans-Serif" font-size="10.00">vector</text>
</a>
</g>
</g>
<!-- Node5&#45;&gt;Node10 -->
<g id="edge10" class="edge">
<title>Node5&#45;&gt;Node10</title>
<path fill="none" stroke="midnightblue" d="M227.63,-69.56C256.56,-61.46 306.9,-46.72 349,-31 350.65,-30.38 352.34,-29.73 354.04,-29.05"/>
<polygon fill="midnightblue" stroke="midnightblue" points="355.79,-32.11 363.65,-25 353.08,-25.65 355.79,-32.11"/>
</g>
<!-- Node11 -->
<g id="node11" class="node">
<title>Node11</title>
<g id="a_node11"><a xlink:title=" ">
<polygon fill="white" stroke="#bfbfbf" points="423.5,-0.5 423.5,-30.5 564.5,-30.5 564.5,-0.5 423.5,-0.5"/>
<text text-anchor="start" x="431.5" y="-18.5" font-family="Helvetica,sans-Serif" font-size="10.00">boost/dll/runtime_symbol</text>
<text text-anchor="middle" x="494" y="-7.5" font-family="Helvetica,sans-Serif" font-size="10.00">_info.hpp</text>
</a>
</g>
</g>
<!-- Node5&#45;&gt;Node11 -->
<g id="edge11" class="edge">
<title>Node5&#45;&gt;Node11</title>
<path fill="none" stroke="midnightblue" d="M227.74,-69.31C230.85,-68.49 233.99,-67.7 237,-67 269.88,-59.3 351.14,-43.53 413.56,-31.65"/>
<polygon fill="midnightblue" stroke="midnightblue" points="414.24,-35.08 423.41,-29.78 412.93,-28.21 414.24,-35.08"/>
</g>
</g>
</svg>
