<?xml version="1.0" encoding="UTF-8" standalone="no"?>
<!DOCTYPE svg PUBLIC "-//W3C//DTD SVG 1.1//EN"
 "http://www.w3.org/Graphics/SVG/1.1/DTD/svg11.dtd">
<!-- Generated by graphviz version 2.43.0 (0)
 -->
<!-- Title: logFileName Pages: 1 -->
<svg width="313pt" height="104pt"
 viewBox="0.00 0.00 313.00 104.00" xmlns="http://www.w3.org/2000/svg" xmlns:xlink="http://www.w3.org/1999/xlink">
<g id="graph0" class="graph" transform="scale(1 1) rotate(0) translate(4 100)">
<title>logFileName</title>
<polygon fill="white" stroke="transparent" points="-4,4 -4,-100 309,-100 309,4 -4,4"/>
<!-- Node1 -->
<g id="node1" class="node">
<title>Node1</title>
<g id="a_node1"><a xlink:title=" ">
<polygon fill="#bfbfbf" stroke="black" points="227,-38.5 227,-57.5 305,-57.5 305,-38.5 227,-38.5"/>
<text text-anchor="middle" x="266" y="-45.5" font-family="Helvetica,sans-Serif" font-size="10.00">logFileName</text>
</a>
</g>
</g>
<!-- Node2 -->
<g id="node2" class="node">
<title>Node2</title>
<g id="a_node2"><a xlink:href="tools_2log_2log_8h.html#ac630e3419ab42e9d249a4171f99f12e6" target="_top" xlink:title=" ">
<polygon fill="white" stroke="black" points="77,-76.5 77,-95.5 191,-95.5 191,-76.5 77,-76.5"/>
<text text-anchor="middle" x="134" y="-83.5" font-family="Helvetica,sans-Serif" font-size="10.00">copyLogToClipboard</text>
</a>
</g>
</g>
<!-- Node1&#45;&gt;Node2 -->
<g id="edge1" class="edge">
<title>Node1&#45;&gt;Node2</title>
<path fill="none" stroke="midnightblue" d="M222.12,-60.54C204.43,-65.7 184.27,-71.6 167.79,-76.41"/>
<polygon fill="midnightblue" stroke="midnightblue" points="223.58,-63.75 232.2,-57.59 221.62,-57.04 223.58,-63.75"/>
</g>
<!-- Node4 -->
<g id="node4" class="node">
<title>Node4</title>
<g id="a_node4"><a xlink:href="tools_2log_2log_8h.html#a9e3a1b6a9042b139e9d37ad8c8e6bcfe" target="_top" xlink:title="Get the log file name on the local machine.">
<polygon fill="white" stroke="black" points="82,-38.5 82,-57.5 186,-57.5 186,-38.5 82,-38.5"/>
<text text-anchor="middle" x="134" y="-45.5" font-family="Helvetica,sans-Serif" font-size="10.00">localLogFileName</text>
</a>
</g>
</g>
<!-- Node1&#45;&gt;Node4 -->
<g id="edge3" class="edge">
<title>Node1&#45;&gt;Node4</title>
<path fill="none" stroke="midnightblue" d="M216.56,-48C206.6,-48 196.09,-48 186.04,-48"/>
<polygon fill="midnightblue" stroke="midnightblue" points="216.7,-51.5 226.7,-48 216.7,-44.5 216.7,-51.5"/>
</g>
<!-- Node5 -->
<g id="node5" class="node">
<title>Node5</title>
<g id="a_node5"><a xlink:href="tools_2log_2log_8h.html#a6b9befdac8e9ce2119f15cc9e4159505" target="_top" xlink:title=" ">
<polygon fill="white" stroke="black" points="106,-0.5 106,-19.5 162,-19.5 162,-0.5 106,-0.5"/>
<text text-anchor="middle" x="134" y="-7.5" font-family="Helvetica,sans-Serif" font-size="10.00">printLog</text>
</a>
</g>
</g>
<!-- Node1&#45;&gt;Node5 -->
<g id="edge5" class="edge">
<title>Node1&#45;&gt;Node5</title>
<path fill="none" stroke="midnightblue" d="M222.45,-35.56C202.59,-29.76 179.54,-23.02 162.09,-17.92"/>
<polygon fill="midnightblue" stroke="midnightblue" points="221.62,-38.96 232.2,-38.41 223.58,-32.25 221.62,-38.96"/>
</g>
<!-- Node3 -->
<g id="node3" class="node">
<title>Node3</title>
<g id="a_node3"><a xlink:href="tools_2log_2log_8cpp.html#a0ddf1224851353fc92bfbff6f499fa97" target="_top" xlink:title=" ">
<polygon fill="white" stroke="black" points="0,-38.5 0,-57.5 41,-57.5 41,-38.5 0,-38.5"/>
<text text-anchor="middle" x="20.5" y="-45.5" font-family="Helvetica,sans-Serif" font-size="10.00">main</text>
</a>
</g>
</g>
<!-- Node2&#45;&gt;Node3 -->
<g id="edge2" class="edge">
<title>Node2&#45;&gt;Node3</title>
<path fill="none" stroke="midnightblue" d="M94.91,-73.09C88.92,-71.06 82.79,-68.97 77,-67 65.05,-62.93 51.65,-58.34 41.02,-54.7"/>
<polygon fill="midnightblue" stroke="midnightblue" points="94.2,-76.55 104.79,-76.45 96.45,-69.92 94.2,-76.55"/>
</g>
<!-- Node4&#45;&gt;Node3 -->
<g id="edge4" class="edge">
<title>Node4&#45;&gt;Node3</title>
<path fill="none" stroke="midnightblue" d="M71.66,-48C60.63,-48 49.89,-48 41.21,-48"/>
<polygon fill="midnightblue" stroke="midnightblue" points="71.82,-51.5 81.82,-48 71.82,-44.5 71.82,-51.5"/>
</g>
<!-- Node5&#45;&gt;Node3 -->
<g id="edge6" class="edge">
<title>Node5&#45;&gt;Node3</title>
<path fill="none" stroke="midnightblue" d="M96.14,-22.49C89.76,-24.66 83.19,-26.89 77,-29 65.05,-33.07 51.65,-37.66 41.02,-41.3"/>
<polygon fill="midnightblue" stroke="midnightblue" points="97.59,-25.69 105.94,-19.17 95.34,-19.07 97.59,-25.69"/>
</g>
</g>
</svg>
