<?xml version="1.0" encoding="UTF-8" standalone="no"?>
<!DOCTYPE svg PUBLIC "-//W3C//DTD SVG 1.1//EN"
 "http://www.w3.org/Graphics/SVG/1.1/DTD/svg11.dtd">
<!-- Generated by graphviz version 2.43.0 (0)
 -->
<!-- Title: tools/log/log.h Pages: 1 -->
<svg width="912pt" height="151pt"
 viewBox="0.00 0.00 912.00 151.00" xmlns="http://www.w3.org/2000/svg" xmlns:xlink="http://www.w3.org/1999/xlink">
<g id="graph0" class="graph" transform="scale(1 1) rotate(0) translate(4 147)">
<title>tools/log/log.h</title>
<polygon fill="white" stroke="transparent" points="-4,4 -4,-147 908,-147 908,4 -4,4"/>
<!-- Node1 -->
<g id="node1" class="node">
<title>Node1</title>
<g id="a_node1"><a xlink:title="mmCEsim Log Tool">
<polygon fill="#bfbfbf" stroke="black" points="404,-123.5 404,-142.5 490,-142.5 490,-123.5 404,-123.5"/>
<text text-anchor="middle" x="447" y="-130.5" font-family="Helvetica,sans-Serif" font-size="10.00">tools/log/log.h</text>
</a>
</g>
</g>
<!-- Node2 -->
<g id="node2" class="node">
<title>Node2</title>
<g id="a_node2"><a xlink:href="meta_8h.html" target="_top" xlink:title="mmCEsim meta data">
<polygon fill="white" stroke="black" points="143.5,-67.5 143.5,-86.5 194.5,-86.5 194.5,-67.5 143.5,-67.5"/>
<text text-anchor="middle" x="169" y="-74.5" font-family="Helvetica,sans-Serif" font-size="10.00">meta.h</text>
</a>
</g>
</g>
<!-- Node1&#45;&gt;Node2 -->
<g id="edge1" class="edge">
<title>Node1&#45;&gt;Node2</title>
<path fill="none" stroke="midnightblue" d="M403.87,-123.62C349.08,-112.98 255.54,-94.81 204.61,-84.92"/>
<polygon fill="midnightblue" stroke="midnightblue" points="205.2,-81.47 194.72,-83 203.87,-88.34 205.2,-81.47"/>
</g>
<!-- Node4 -->
<g id="node4" class="node">
<title>Node4</title>
<g id="a_node4"><a xlink:href="utils_8h.html" target="_top" xlink:title="Utilities.">
<polygon fill="white" stroke="black" points="323.5,-67.5 323.5,-86.5 370.5,-86.5 370.5,-67.5 323.5,-67.5"/>
<text text-anchor="middle" x="347" y="-74.5" font-family="Helvetica,sans-Serif" font-size="10.00">utils.h</text>
</a>
</g>
</g>
<!-- Node1&#45;&gt;Node4 -->
<g id="edge3" class="edge">
<title>Node1&#45;&gt;Node4</title>
<path fill="none" stroke="midnightblue" d="M430.93,-123.32C415.04,-114.74 390.49,-101.49 372.04,-91.52"/>
<polygon fill="midnightblue" stroke="midnightblue" points="373.49,-88.33 363.03,-86.65 370.16,-94.49 373.49,-88.33"/>
</g>
<!-- Node15 -->
<g id="node15" class="node">
<title>Node15</title>
<g id="a_node15"><a xlink:title=" ">
<polygon fill="white" stroke="#bfbfbf" points="388.5,-67.5 388.5,-86.5 431.5,-86.5 431.5,-67.5 388.5,-67.5"/>
<text text-anchor="middle" x="410" y="-74.5" font-family="Helvetica,sans-Serif" font-size="10.00">clip.h</text>
</a>
</g>
</g>
<!-- Node1&#45;&gt;Node15 -->
<g id="edge15" class="edge">
<title>Node1&#45;&gt;Node15</title>
<path fill="none" stroke="midnightblue" d="M440.89,-123.08C435.72,-115.53 428.15,-104.49 421.81,-95.23"/>
<polygon fill="midnightblue" stroke="midnightblue" points="424.54,-93.02 416,-86.75 418.76,-96.98 424.54,-93.02"/>
</g>
<!-- Node16 -->
<g id="node16" class="node">
<title>Node16</title>
<g id="a_node16"><a xlink:title=" ">
<polygon fill="white" stroke="#bfbfbf" points="450,-67.5 450,-86.5 518,-86.5 518,-67.5 450,-67.5"/>
<text text-anchor="middle" x="484" y="-74.5" font-family="Helvetica,sans-Serif" font-size="10.00">filesystem</text>
</a>
</g>
</g>
<!-- Node1&#45;&gt;Node16 -->
<g id="edge16" class="edge">
<title>Node1&#45;&gt;Node16</title>
<path fill="none" stroke="midnightblue" d="M453.11,-123.08C458.28,-115.53 465.85,-104.49 472.19,-95.23"/>
<polygon fill="midnightblue" stroke="midnightblue" points="475.24,-96.98 478,-86.75 469.46,-93.02 475.24,-96.98"/>
</g>
<!-- Node17 -->
<g id="node17" class="node">
<title>Node17</title>
<g id="a_node17"><a xlink:title=" ">
<polygon fill="white" stroke="#bfbfbf" points="536.5,-67.5 536.5,-86.5 591.5,-86.5 591.5,-67.5 536.5,-67.5"/>
<text text-anchor="middle" x="564" y="-74.5" font-family="Helvetica,sans-Serif" font-size="10.00">fstream</text>
</a>
</g>
</g>
<!-- Node1&#45;&gt;Node17 -->
<g id="edge17" class="edge">
<title>Node1&#45;&gt;Node17</title>
<path fill="none" stroke="midnightblue" d="M465.54,-123.44C484.62,-114.64 514.57,-100.81 536.44,-90.72"/>
<polygon fill="midnightblue" stroke="midnightblue" points="537.93,-93.88 545.55,-86.52 535,-87.53 537.93,-93.88"/>
</g>
<!-- Node18 -->
<g id="node18" class="node">
<title>Node18</title>
<g id="a_node18"><a xlink:title=" ">
<polygon fill="white" stroke="#bfbfbf" points="610,-67.5 610,-86.5 670,-86.5 670,-67.5 610,-67.5"/>
<text text-anchor="middle" x="640" y="-74.5" font-family="Helvetica,sans-Serif" font-size="10.00">iostream</text>
</a>
</g>
</g>
<!-- Node1&#45;&gt;Node18 -->
<g id="edge18" class="edge">
<title>Node1&#45;&gt;Node18</title>
<path fill="none" stroke="midnightblue" d="M477.58,-123.44C510.71,-114.17 563.7,-99.35 600.09,-89.17"/>
<polygon fill="midnightblue" stroke="midnightblue" points="601.19,-92.49 609.88,-86.43 599.31,-85.75 601.19,-92.49"/>
</g>
<!-- Node3 -->
<g id="node3" class="node">
<title>Node3</title>
<g id="a_node3"><a xlink:title=" ">
<polygon fill="white" stroke="#bfbfbf" points="0,-6 0,-25 44,-25 44,-6 0,-6"/>
<text text-anchor="middle" x="22" y="-13" font-family="Helvetica,sans-Serif" font-size="10.00">string</text>
</a>
</g>
</g>
<!-- Node2&#45;&gt;Node3 -->
<g id="edge2" class="edge">
<title>Node2&#45;&gt;Node3</title>
<path fill="none" stroke="midnightblue" d="M145.71,-67.49C122.15,-58.76 84.78,-44.58 53,-31 51.8,-30.49 50.58,-29.96 49.35,-29.41"/>
<polygon fill="midnightblue" stroke="midnightblue" points="50.49,-26.09 39.94,-25.14 47.6,-32.46 50.49,-26.09"/>
</g>
<!-- Node4&#45;&gt;Node3 -->
<g id="edge8" class="edge">
<title>Node4&#45;&gt;Node3</title>
<path fill="none" stroke="midnightblue" d="M323.25,-74.66C272.58,-71.32 150.58,-60.62 53,-31 51.12,-30.43 49.22,-29.77 47.32,-29.04"/>
<polygon fill="midnightblue" stroke="midnightblue" points="48.64,-25.8 38.07,-25.08 45.88,-32.23 48.64,-25.8"/>
</g>
<!-- Node5 -->
<g id="node5" class="node">
<title>Node5</title>
<g id="a_node5"><a xlink:title=" ">
<polygon fill="white" stroke="#bfbfbf" points="62,-6 62,-25 126,-25 126,-6 62,-6"/>
<text text-anchor="middle" x="94" y="-13" font-family="Helvetica,sans-Serif" font-size="10.00">algorithm</text>
</a>
</g>
</g>
<!-- Node4&#45;&gt;Node5 -->
<g id="edge4" class="edge">
<title>Node4&#45;&gt;Node5</title>
<path fill="none" stroke="midnightblue" d="M323.23,-72C283.75,-65.13 202.36,-49.97 135,-31 132.04,-30.17 128.99,-29.23 125.95,-28.25"/>
<polygon fill="midnightblue" stroke="midnightblue" points="126.98,-24.91 116.39,-25.01 124.74,-31.54 126.98,-24.91"/>
</g>
<!-- Node6 -->
<g id="node6" class="node">
<title>Node6</title>
<g id="a_node6"><a xlink:title=" ">
<polygon fill="white" stroke="#bfbfbf" points="144.5,-6 144.5,-25 193.5,-25 193.5,-6 144.5,-6"/>
<text text-anchor="middle" x="169" y="-13" font-family="Helvetica,sans-Serif" font-size="10.00">cctype</text>
</a>
</g>
</g>
<!-- Node4&#45;&gt;Node6 -->
<g id="edge5" class="edge">
<title>Node4&#45;&gt;Node6</title>
<path fill="none" stroke="midnightblue" d="M323.31,-69.39C294.57,-61.19 244.78,-46.39 203,-31 201.34,-30.39 199.65,-29.74 197.95,-29.08"/>
<polygon fill="midnightblue" stroke="midnightblue" points="198.86,-25.67 188.28,-25.12 196.21,-32.15 198.86,-25.67"/>
</g>
<!-- Node7 -->
<g id="node7" class="node">
<title>Node7</title>
<g id="a_node7"><a xlink:title=" ">
<polygon fill="white" stroke="#bfbfbf" points="212,-6 212,-25 266,-25 266,-6 212,-6"/>
<text text-anchor="middle" x="239" y="-13" font-family="Helvetica,sans-Serif" font-size="10.00">random</text>
</a>
</g>
</g>
<!-- Node4&#45;&gt;Node7 -->
<g id="edge6" class="edge">
<title>Node4&#45;&gt;Node7</title>
<path fill="none" stroke="midnightblue" d="M331.53,-67.48C313.72,-57.67 284.26,-41.43 263.37,-29.92"/>
<polygon fill="midnightblue" stroke="midnightblue" points="264.89,-26.77 254.45,-25.01 261.51,-32.9 264.89,-26.77"/>
</g>
<!-- Node8 -->
<g id="node8" class="node">
<title>Node8</title>
<g id="a_node8"><a xlink:title=" ">
<polygon fill="white" stroke="#bfbfbf" points="284,-6 284,-25 340,-25 340,-6 284,-6"/>
<text text-anchor="middle" x="312" y="-13" font-family="Helvetica,sans-Serif" font-size="10.00">sstream</text>
</a>
</g>
</g>
<!-- Node4&#45;&gt;Node8 -->
<g id="edge7" class="edge">
<title>Node4&#45;&gt;Node8</title>
<path fill="none" stroke="midnightblue" d="M341.99,-67.48C336.84,-58.73 328.69,-44.87 322.18,-33.81"/>
<polygon fill="midnightblue" stroke="midnightblue" points="325.09,-31.85 317.01,-25.01 319.06,-35.4 325.09,-31.85"/>
</g>
<!-- Node9 -->
<g id="node9" class="node">
<title>Node9</title>
<g id="a_node9"><a xlink:title=" ">
<polygon fill="white" stroke="#bfbfbf" points="358.5,-6 358.5,-25 405.5,-25 405.5,-6 358.5,-6"/>
<text text-anchor="middle" x="382" y="-13" font-family="Helvetica,sans-Serif" font-size="10.00">vector</text>
</a>
</g>
</g>
<!-- Node4&#45;&gt;Node9 -->
<g id="edge9" class="edge">
<title>Node4&#45;&gt;Node9</title>
<path fill="none" stroke="midnightblue" d="M352.01,-67.48C357.16,-58.73 365.31,-44.87 371.82,-33.81"/>
<polygon fill="midnightblue" stroke="midnightblue" points="374.94,-35.4 376.99,-25.01 368.91,-31.85 374.94,-35.4"/>
</g>
<!-- Node10 -->
<g id="node10" class="node">
<title>Node10</title>
<g id="a_node10"><a xlink:href="__boost__config_8h.html" target="_top" xlink:title="Boost Configurations.">
<polygon fill="white" stroke="black" points="424,-6 424,-25 516,-25 516,-6 424,-6"/>
<text text-anchor="middle" x="470" y="-13" font-family="Helvetica,sans-Serif" font-size="10.00">_boost_config.h</text>
</a>
</g>
</g>
<!-- Node4&#45;&gt;Node10 -->
<g id="edge10" class="edge">
<title>Node4&#45;&gt;Node10</title>
<path fill="none" stroke="midnightblue" d="M364.62,-67.48C385.17,-57.53 419.36,-40.99 443.21,-29.46"/>
<polygon fill="midnightblue" stroke="midnightblue" points="444.93,-32.51 452.41,-25.01 441.88,-26.21 444.93,-32.51"/>
</g>
<!-- Node11 -->
<g id="node11" class="node">
<title>Node11</title>
<g id="a_node11"><a xlink:title=" ">
<polygon fill="white" stroke="#bfbfbf" points="534.5,-0.5 534.5,-30.5 675.5,-30.5 675.5,-0.5 534.5,-0.5"/>
<text text-anchor="start" x="542.5" y="-18.5" font-family="Helvetica,sans-Serif" font-size="10.00">boost/dll/runtime_symbol</text>
<text text-anchor="middle" x="605" y="-7.5" font-family="Helvetica,sans-Serif" font-size="10.00">_info.hpp</text>
</a>
</g>
</g>
<!-- Node4&#45;&gt;Node11 -->
<g id="edge11" class="edge">
<title>Node4&#45;&gt;Node11</title>
<path fill="none" stroke="midnightblue" d="M370.76,-69.38C373.86,-68.56 377,-67.74 380,-67 429.38,-54.73 485.19,-42.2 528.87,-32.68"/>
<polygon fill="midnightblue" stroke="midnightblue" points="529.82,-36.06 538.85,-30.52 528.34,-29.22 529.82,-36.06"/>
</g>
<!-- Node12 -->
<g id="node12" class="node">
<title>Node12</title>
<g id="a_node12"><a xlink:title=" ">
<polygon fill="white" stroke="#bfbfbf" points="694,-6 694,-25 740,-25 740,-6 694,-6"/>
<text text-anchor="middle" x="717" y="-13" font-family="Helvetica,sans-Serif" font-size="10.00">pwd.h</text>
</a>
</g>
</g>
<!-- Node4&#45;&gt;Node12 -->
<g id="edge12" class="edge">
<title>Node4&#45;&gt;Node12</title>
<path fill="none" stroke="midnightblue" d="M370.69,-69.08C373.81,-68.31 376.97,-67.59 380,-67 513.99,-40.97 553.5,-67.6 685,-31 687.15,-30.4 689.34,-29.68 691.51,-28.88"/>
<polygon fill="midnightblue" stroke="midnightblue" points="692.87,-32.1 700.76,-25.03 690.18,-25.64 692.87,-32.1"/>
</g>
<!-- Node13 -->
<g id="node13" class="node">
<title>Node13</title>
<g id="a_node13"><a xlink:title=" ">
<polygon fill="white" stroke="#bfbfbf" points="758,-6 758,-25 830,-25 830,-6 758,-6"/>
<text text-anchor="middle" x="794" y="-13" font-family="Helvetica,sans-Serif" font-size="10.00">sys/types.h</text>
</a>
</g>
</g>
<!-- Node4&#45;&gt;Node13 -->
<g id="edge13" class="edge">
<title>Node4&#45;&gt;Node13</title>
<path fill="none" stroke="midnightblue" d="M370.68,-69.03C373.8,-68.26 376.96,-67.56 380,-67 542.06,-37.22 587.65,-64.46 749,-31 752.87,-30.2 756.87,-29.18 760.82,-28.07"/>
<polygon fill="midnightblue" stroke="midnightblue" points="761.89,-31.4 770.43,-25.14 759.85,-24.71 761.89,-31.4"/>
</g>
<!-- Node14 -->
<g id="node14" class="node">
<title>Node14</title>
<g id="a_node14"><a xlink:title=" ">
<polygon fill="white" stroke="#bfbfbf" points="848,-6 848,-25 904,-25 904,-6 848,-6"/>
<text text-anchor="middle" x="876" y="-13" font-family="Helvetica,sans-Serif" font-size="10.00">unistd.h</text>
</a>
</g>
</g>
<!-- Node4&#45;&gt;Node14 -->
<g id="edge14" class="edge">
<title>Node4&#45;&gt;Node14</title>
<path fill="none" stroke="midnightblue" d="M370.67,-68.97C373.79,-68.21 376.96,-67.53 380,-67 581.6,-31.92 639.57,-76.83 839,-31 841.84,-30.35 844.74,-29.52 847.62,-28.58"/>
<polygon fill="midnightblue" stroke="midnightblue" points="848.93,-31.83 857.14,-25.13 846.54,-25.25 848.93,-31.83"/>
</g>
</g>
</svg>
