<?xml version="1.0" encoding="UTF-8" standalone="no"?>
<!DOCTYPE svg PUBLIC "-//W3C//DTD SVG 1.1//EN"
 "http://www.w3.org/Graphics/SVG/1.1/DTD/svg11.dtd">
<!-- Generated by graphviz version 2.43.0 (0)
 -->
<!-- Title: include/export/type.h Pages: 1 -->
<svg width="459pt" height="386pt"
 viewBox="0.00 0.00 459.00 386.00" xmlns="http://www.w3.org/2000/svg" xmlns:xlink="http://www.w3.org/1999/xlink">
<g id="graph0" class="graph" transform="scale(1 1) rotate(0) translate(4 382)">
<title>include/export/type.h</title>
<polygon fill="white" stroke="transparent" points="-4,4 -4,-382 455,-382 455,4 -4,4"/>
<!-- Node1 -->
<g id="node1" class="node">
<title>Node1</title>
<g id="a_node1"><a xlink:title="Type Specification in Alg.">
<polygon fill="#bfbfbf" stroke="black" points="177,-358.5 177,-377.5 297,-377.5 297,-358.5 177,-358.5"/>
<text text-anchor="middle" x="237" y="-365.5" font-family="Helvetica,sans-Serif" font-size="10.00">include/export/type.h</text>
</a>
</g>
</g>
<!-- Node2 -->
<g id="node2" class="node">
<title>Node2</title>
<g id="a_node2"><a xlink:href="alg_8h.html" target="_top" xlink:title="Algorithm Parser (.alg Language)">
<polygon fill="white" stroke="black" points="95.5,-112.5 95.5,-131.5 208.5,-131.5 208.5,-112.5 95.5,-112.5"/>
<text text-anchor="middle" x="152" y="-119.5" font-family="Helvetica,sans-Serif" font-size="10.00">include/export/alg.h</text>
</a>
</g>
</g>
<!-- Node1&#45;&gt;Node2 -->
<g id="edge1" class="edge">
<title>Node1&#45;&gt;Node2</title>
<path fill="none" stroke="midnightblue" d="M207.64,-353.51C194.85,-346.07 180.98,-335.57 173,-322 135.14,-257.61 146.06,-161.01 150.53,-131.72"/>
<polygon fill="midnightblue" stroke="midnightblue" points="206.2,-356.71 216.66,-358.38 209.52,-350.55 206.2,-356.71"/>
</g>
<!-- Node7 -->
<g id="node7" class="node">
<title>Node7</title>
<g id="a_node7"><a xlink:href="type__track_8h.html" target="_top" xlink:title="Track data type of variables.">
<polygon fill="white" stroke="black" points="181.5,-291.5 181.5,-321.5 292.5,-321.5 292.5,-291.5 181.5,-291.5"/>
<text text-anchor="start" x="189.5" y="-309.5" font-family="Helvetica,sans-Serif" font-size="10.00">include/export/type</text>
<text text-anchor="middle" x="237" y="-298.5" font-family="Helvetica,sans-Serif" font-size="10.00">_track.h</text>
</a>
</g>
</g>
<!-- Node1&#45;&gt;Node7 -->
<g id="edge6" class="edge">
<title>Node1&#45;&gt;Node7</title>
<path fill="none" stroke="midnightblue" d="M237,-348.23C237,-339.59 237,-329.5 237,-321.52"/>
<polygon fill="midnightblue" stroke="midnightblue" points="233.5,-348.48 237,-358.48 240.5,-348.48 233.5,-348.48"/>
</g>
<!-- Node12 -->
<g id="node12" class="node">
<title>Node12</title>
<g id="a_node12"><a xlink:href="type_8cpp.html" target="_top" xlink:title="Implementation of Alg Class.">
<polygon fill="white" stroke="black" points="311,-297 311,-316 421,-316 421,-297 311,-297"/>
<text text-anchor="middle" x="366" y="-304" font-family="Helvetica,sans-Serif" font-size="10.00">src/export/type.cpp</text>
</a>
</g>
</g>
<!-- Node1&#45;&gt;Node12 -->
<g id="edge12" class="edge">
<title>Node1&#45;&gt;Node12</title>
<path fill="none" stroke="midnightblue" d="M264.81,-354.17C289.84,-342.63 325.92,-325.99 347.55,-316.01"/>
<polygon fill="midnightblue" stroke="midnightblue" points="263.1,-351.11 255.48,-358.48 266.03,-357.46 263.1,-351.11"/>
</g>
<!-- Node3 -->
<g id="node3" class="node">
<title>Node3</title>
<g id="a_node3"><a xlink:href="export_8h.html" target="_top" xlink:title="Export mmCEsim Configuration to Other Programming Languages.">
<polygon fill="white" stroke="black" points="45.5,-56.5 45.5,-75.5 140.5,-75.5 140.5,-56.5 45.5,-56.5"/>
<text text-anchor="middle" x="93" y="-63.5" font-family="Helvetica,sans-Serif" font-size="10.00">include/export.h</text>
</a>
</g>
</g>
<!-- Node2&#45;&gt;Node3 -->
<g id="edge2" class="edge">
<title>Node2&#45;&gt;Node3</title>
<path fill="none" stroke="midnightblue" d="M135.11,-105.54C124.59,-95.91 111.43,-83.87 102.65,-75.83"/>
<polygon fill="midnightblue" stroke="midnightblue" points="132.78,-108.15 142.52,-112.32 137.51,-102.99 132.78,-108.15"/>
</g>
<!-- Node6 -->
<g id="node6" class="node">
<title>Node6</title>
<g id="a_node6"><a xlink:href="alg_8cpp.html" target="_top" xlink:title="Implementation of class Alg.">
<polygon fill="white" stroke="black" points="159,-56.5 159,-75.5 263,-75.5 263,-56.5 159,-56.5"/>
<text text-anchor="middle" x="211" y="-63.5" font-family="Helvetica,sans-Serif" font-size="10.00">src/export/alg.cpp</text>
</a>
</g>
</g>
<!-- Node2&#45;&gt;Node6 -->
<g id="edge5" class="edge">
<title>Node2&#45;&gt;Node6</title>
<path fill="none" stroke="midnightblue" d="M168.89,-105.54C179.41,-95.91 192.57,-83.87 201.35,-75.83"/>
<polygon fill="midnightblue" stroke="midnightblue" points="166.49,-102.99 161.48,-112.32 171.22,-108.15 166.49,-102.99"/>
</g>
<!-- Node4 -->
<g id="node4" class="node">
<title>Node4</title>
<g id="a_node4"><a xlink:href="export_8cpp.html" target="_top" xlink:title="Implementation of Export Class.">
<polygon fill="white" stroke="black" points="0,-0.5 0,-19.5 86,-19.5 86,-0.5 0,-0.5"/>
<text text-anchor="middle" x="43" y="-7.5" font-family="Helvetica,sans-Serif" font-size="10.00">src/export.cpp</text>
</a>
</g>
</g>
<!-- Node3&#45;&gt;Node4 -->
<g id="edge3" class="edge">
<title>Node3&#45;&gt;Node4</title>
<path fill="none" stroke="midnightblue" d="M77.92,-48.72C69.11,-39.2 58.33,-27.56 51.1,-19.75"/>
<polygon fill="midnightblue" stroke="midnightblue" points="75.38,-51.12 84.74,-56.08 80.52,-46.37 75.38,-51.12"/>
</g>
<!-- Node5 -->
<g id="node5" class="node">
<title>Node5</title>
<g id="a_node5"><a xlink:href="src_2main_8cpp.html" target="_top" xlink:title="Program Command Line Options.">
<polygon fill="white" stroke="black" points="104.5,-0.5 104.5,-19.5 183.5,-19.5 183.5,-0.5 104.5,-0.5"/>
<text text-anchor="middle" x="144" y="-7.5" font-family="Helvetica,sans-Serif" font-size="10.00">src/main.cpp</text>
</a>
</g>
</g>
<!-- Node3&#45;&gt;Node5 -->
<g id="edge4" class="edge">
<title>Node3&#45;&gt;Node5</title>
<path fill="none" stroke="midnightblue" d="M108.38,-48.72C117.37,-39.2 128.36,-27.56 135.74,-19.75"/>
<polygon fill="midnightblue" stroke="midnightblue" points="105.74,-46.41 101.42,-56.08 110.83,-51.22 105.74,-46.41"/>
</g>
<!-- Node8 -->
<g id="node8" class="node">
<title>Node8</title>
<g id="a_node8"><a xlink:href="type__track__global_8h.html" target="_top" xlink:title="Global Access of Type Track.">
<polygon fill="white" stroke="black" points="181.5,-224.5 181.5,-254.5 292.5,-254.5 292.5,-224.5 181.5,-224.5"/>
<text text-anchor="start" x="189.5" y="-242.5" font-family="Helvetica,sans-Serif" font-size="10.00">include/export/type</text>
<text text-anchor="middle" x="237" y="-231.5" font-family="Helvetica,sans-Serif" font-size="10.00">_track_global.h</text>
</a>
</g>
</g>
<!-- Node7&#45;&gt;Node8 -->
<g id="edge7" class="edge">
<title>Node7&#45;&gt;Node8</title>
<path fill="none" stroke="midnightblue" d="M237,-281.11C237,-272.15 237,-262.32 237,-254.58"/>
<polygon fill="midnightblue" stroke="midnightblue" points="233.5,-281.4 237,-291.4 240.5,-281.4 233.5,-281.4"/>
</g>
<!-- Node11 -->
<g id="node11" class="node">
<title>Node11</title>
<g id="a_node11"><a xlink:href="type__track_8cpp.html" target="_top" xlink:title="Implementation of Type_Track Class.">
<polygon fill="white" stroke="black" points="311,-230 311,-249 451,-249 451,-230 311,-230"/>
<text text-anchor="middle" x="381" y="-237" font-family="Helvetica,sans-Serif" font-size="10.00">src/export/type_track.cpp</text>
</a>
</g>
</g>
<!-- Node7&#45;&gt;Node11 -->
<g id="edge11" class="edge">
<title>Node7&#45;&gt;Node11</title>
<path fill="none" stroke="midnightblue" d="M277.69,-287.13C305.41,-274.62 340.81,-258.64 362.15,-249.01"/>
<polygon fill="midnightblue" stroke="midnightblue" points="275.92,-284.09 268.25,-291.4 278.8,-290.47 275.92,-284.09"/>
</g>
<!-- Node9 -->
<g id="node9" class="node">
<title>Node9</title>
<g id="a_node9"><a xlink:href="calc_8h.html" target="_top" xlink:title="Make Calculation in Alg.">
<polygon fill="white" stroke="black" points="180,-168.5 180,-187.5 298,-187.5 298,-168.5 180,-168.5"/>
<text text-anchor="middle" x="239" y="-175.5" font-family="Helvetica,sans-Serif" font-size="10.00">include/export/calc.h</text>
</a>
</g>
</g>
<!-- Node8&#45;&gt;Node9 -->
<g id="edge8" class="edge">
<title>Node8&#45;&gt;Node9</title>
<path fill="none" stroke="midnightblue" d="M237.81,-214.29C238.13,-204.86 238.47,-194.65 238.71,-187.66"/>
<polygon fill="midnightblue" stroke="midnightblue" points="234.31,-214.29 237.47,-224.4 241.31,-214.52 234.31,-214.29"/>
</g>
<!-- Node9&#45;&gt;Node2 -->
<g id="edge9" class="edge">
<title>Node9&#45;&gt;Node2</title>
<path fill="none" stroke="midnightblue" d="M216.28,-162.9C200.33,-153 179.5,-140.07 165.94,-131.65"/>
<polygon fill="midnightblue" stroke="midnightblue" points="214.68,-166.02 225.02,-168.32 218.37,-160.08 214.68,-166.02"/>
</g>
<!-- Node10 -->
<g id="node10" class="node">
<title>Node10</title>
<g id="a_node10"><a xlink:href="calc_8cpp.html" target="_top" xlink:title="Implementation of Calc Class.">
<polygon fill="white" stroke="black" points="227,-112.5 227,-131.5 335,-131.5 335,-112.5 227,-112.5"/>
<text text-anchor="middle" x="281" y="-119.5" font-family="Helvetica,sans-Serif" font-size="10.00">src/export/calc.cpp</text>
</a>
</g>
</g>
<!-- Node9&#45;&gt;Node10 -->
<g id="edge10" class="edge">
<title>Node9&#45;&gt;Node10</title>
<path fill="none" stroke="midnightblue" d="M252.11,-160.14C259.43,-150.74 268.24,-139.4 274.19,-131.75"/>
<polygon fill="midnightblue" stroke="midnightblue" points="249.31,-158.04 245.94,-168.08 254.84,-162.34 249.31,-158.04"/>
</g>
</g>
</svg>
