<?xml version="1.0" encoding="UTF-8" standalone="no"?>
<!DOCTYPE svg PUBLIC "-//W3C//DTD SVG 1.1//EN"
 "http://www.w3.org/Graphics/SVG/1.1/DTD/svg11.dtd">
<!-- Generated by graphviz version 2.43.0 (0)
 -->
<!-- Title: include/export/type_track.h Pages: 1 -->
<svg width="831pt" height="274pt"
 viewBox="0.00 0.00 830.50 274.00" xmlns="http://www.w3.org/2000/svg" xmlns:xlink="http://www.w3.org/1999/xlink">
<g id="graph0" class="graph" transform="scale(1 1) rotate(0) translate(4 270)">
<title>include/export/type_track.h</title>
<polygon fill="white" stroke="transparent" points="-4,4 -4,-270 826.5,-270 826.5,4 -4,4"/>
<!-- Node1 -->
<g id="node1" class="node">
<title>Node1</title>
<g id="a_node1"><a xlink:title="Track data type of variables.">
<polygon fill="#bfbfbf" stroke="black" points="549.5,-235.5 549.5,-265.5 660.5,-265.5 660.5,-235.5 549.5,-235.5"/>
<text text-anchor="start" x="557.5" y="-253.5" font-family="Helvetica,sans-Serif" font-size="10.00">include/export/type</text>
<text text-anchor="middle" x="605" y="-242.5" font-family="Helvetica,sans-Serif" font-size="10.00">_track.h</text>
</a>
</g>
</g>
<!-- Node2 -->
<g id="node2" class="node">
<title>Node2</title>
<g id="a_node2"><a xlink:href="type_8h.html" target="_top" xlink:title="Type Specification in Alg.">
<polygon fill="white" stroke="black" points="110,-179.5 110,-198.5 192,-198.5 192,-179.5 110,-179.5"/>
<text text-anchor="middle" x="151" y="-186.5" font-family="Helvetica,sans-Serif" font-size="10.00">export/type.h</text>
</a>
</g>
</g>
<!-- Node1&#45;&gt;Node2 -->
<g id="edge1" class="edge">
<title>Node1&#45;&gt;Node2</title>
<path fill="none" stroke="midnightblue" d="M549.33,-242.2C460.48,-230.56 287.91,-207.94 202.06,-196.69"/>
<polygon fill="midnightblue" stroke="midnightblue" points="202.4,-193.21 192.03,-195.38 201.49,-200.15 202.4,-193.21"/>
</g>
<!-- Node5 -->
<g id="node5" class="node">
<title>Node5</title>
<g id="a_node5"><a xlink:href="log__global_8h.html" target="_top" xlink:title="Global Access of Log.">
<polygon fill="white" stroke="black" points="443,-179.5 443,-198.5 519,-198.5 519,-179.5 443,-179.5"/>
<text text-anchor="middle" x="481" y="-186.5" font-family="Helvetica,sans-Serif" font-size="10.00">log_global.h</text>
</a>
</g>
</g>
<!-- Node1&#45;&gt;Node5 -->
<g id="edge4" class="edge">
<title>Node1&#45;&gt;Node5</title>
<path fill="none" stroke="midnightblue" d="M575.61,-235.4C555.18,-225.59 528.14,-212.62 508.2,-203.05"/>
<polygon fill="midnightblue" stroke="midnightblue" points="509.57,-199.83 499.04,-198.66 506.54,-206.14 509.57,-199.83"/>
</g>
<!-- Node10 -->
<g id="node10" class="node">
<title>Node10</title>
<g id="a_node10"><a xlink:title=" ">
<polygon fill="white" stroke="#bfbfbf" points="0,-6 0,-25 60,-25 60,-6 0,-6"/>
<text text-anchor="middle" x="30" y="-13" font-family="Helvetica,sans-Serif" font-size="10.00">iostream</text>
</a>
</g>
</g>
<!-- Node1&#45;&gt;Node10 -->
<g id="edge24" class="edge">
<title>Node1&#45;&gt;Node10</title>
<path fill="none" stroke="midnightblue" d="M549.35,-246.9C425.97,-240.71 137.47,-223.76 101,-199 45.68,-161.45 33.46,-73.89 30.76,-35.32"/>
<polygon fill="midnightblue" stroke="midnightblue" points="34.24,-34.82 30.19,-25.03 27.25,-35.21 34.24,-34.82"/>
</g>
<!-- Node16 -->
<g id="node16" class="node">
<title>Node16</title>
<g id="a_node16"><a xlink:title=" ">
<polygon fill="white" stroke="#bfbfbf" points="664.5,-6 664.5,-25 711.5,-25 711.5,-6 664.5,-6"/>
<text text-anchor="middle" x="688" y="-13" font-family="Helvetica,sans-Serif" font-size="10.00">vector</text>
</a>
</g>
</g>
<!-- Node1&#45;&gt;Node16 -->
<g id="edge28" class="edge">
<title>Node1&#45;&gt;Node16</title>
<path fill="none" stroke="midnightblue" d="M608.6,-235.34C612.34,-221.02 618.54,-198.3 625,-179 642.8,-125.85 667.83,-64.53 680.3,-34.7"/>
<polygon fill="midnightblue" stroke="midnightblue" points="683.64,-35.78 684.29,-25.2 677.19,-33.06 683.64,-35.78"/>
</g>
<!-- Node22 -->
<g id="node22" class="node">
<title>Node22</title>
<g id="a_node22"><a xlink:title=" ">
<polygon fill="white" stroke="#bfbfbf" points="633.5,-179.5 633.5,-198.5 676.5,-198.5 676.5,-179.5 633.5,-179.5"/>
<text text-anchor="middle" x="655" y="-186.5" font-family="Helvetica,sans-Serif" font-size="10.00">stack</text>
</a>
</g>
</g>
<!-- Node1&#45;&gt;Node22 -->
<g id="edge25" class="edge">
<title>Node1&#45;&gt;Node22</title>
<path fill="none" stroke="midnightblue" d="M616.85,-235.4C624.11,-226.75 633.45,-215.64 641.07,-206.58"/>
<polygon fill="midnightblue" stroke="midnightblue" points="643.97,-208.57 647.72,-198.66 638.61,-204.06 643.97,-208.57"/>
</g>
<!-- Node23 -->
<g id="node23" class="node">
<title>Node23</title>
<g id="a_node23"><a xlink:title=" ">
<polygon fill="white" stroke="#bfbfbf" points="694.5,-179.5 694.5,-198.5 759.5,-198.5 759.5,-179.5 694.5,-179.5"/>
<text text-anchor="middle" x="727" y="-186.5" font-family="Helvetica,sans-Serif" font-size="10.00">stdexcept</text>
</a>
</g>
</g>
<!-- Node1&#45;&gt;Node23 -->
<g id="edge26" class="edge">
<title>Node1&#45;&gt;Node23</title>
<path fill="none" stroke="midnightblue" d="M633.91,-235.4C654.02,-225.59 680.62,-212.62 700.24,-203.05"/>
<polygon fill="midnightblue" stroke="midnightblue" points="701.79,-206.19 709.25,-198.66 698.73,-199.9 701.79,-206.19"/>
</g>
<!-- Node24 -->
<g id="node24" class="node">
<title>Node24</title>
<g id="a_node24"><a xlink:title=" ">
<polygon fill="white" stroke="#bfbfbf" points="777.5,-179.5 777.5,-198.5 822.5,-198.5 822.5,-179.5 777.5,-179.5"/>
<text text-anchor="middle" x="800" y="-186.5" font-family="Helvetica,sans-Serif" font-size="10.00">utility</text>
</a>
</g>
</g>
<!-- Node1&#45;&gt;Node24 -->
<g id="edge27" class="edge">
<title>Node1&#45;&gt;Node24</title>
<path fill="none" stroke="midnightblue" d="M651.21,-235.4C687.09,-224.45 735.91,-209.56 767.69,-199.86"/>
<polygon fill="midnightblue" stroke="midnightblue" points="768.82,-203.17 777.37,-196.91 766.78,-196.48 768.82,-203.17"/>
</g>
<!-- Node3 -->
<g id="node3" class="node">
<title>Node3</title>
<g id="a_node3"><a xlink:title=" ">
<polygon fill="white" stroke="#bfbfbf" points="146,-6 146,-25 190,-25 190,-6 146,-6"/>
<text text-anchor="middle" x="168" y="-13" font-family="Helvetica,sans-Serif" font-size="10.00">string</text>
</a>
</g>
</g>
<!-- Node2&#45;&gt;Node3 -->
<g id="edge2" class="edge">
<title>Node2&#45;&gt;Node3</title>
<path fill="none" stroke="midnightblue" d="M151.87,-179.26C154.5,-152.65 162.48,-72.21 166.13,-35.34"/>
<polygon fill="midnightblue" stroke="midnightblue" points="169.65,-35.32 167.16,-25.02 162.69,-34.63 169.65,-35.32"/>
</g>
<!-- Node4 -->
<g id="node4" class="node">
<title>Node4</title>
<g id="a_node4"><a xlink:title=" ">
<polygon fill="white" stroke="#bfbfbf" points="81.5,-123.5 81.5,-142.5 122.5,-142.5 122.5,-123.5 81.5,-123.5"/>
<text text-anchor="middle" x="102" y="-130.5" font-family="Helvetica,sans-Serif" font-size="10.00">tuple</text>
</a>
</g>
</g>
<!-- Node2&#45;&gt;Node4 -->
<g id="edge3" class="edge">
<title>Node2&#45;&gt;Node4</title>
<path fill="none" stroke="midnightblue" d="M142.91,-179.08C135.84,-171.3 125.41,-159.8 116.85,-150.37"/>
<polygon fill="midnightblue" stroke="midnightblue" points="119.25,-147.8 109.94,-142.75 114.07,-152.51 119.25,-147.8"/>
</g>
<!-- Node6 -->
<g id="node6" class="node">
<title>Node6</title>
<g id="a_node6"><a xlink:href="include_2log_8h.html" target="_top" xlink:title="Log Utilities.">
<polygon fill="white" stroke="black" points="368.5,-123.5 368.5,-142.5 409.5,-142.5 409.5,-123.5 368.5,-123.5"/>
<text text-anchor="middle" x="389" y="-130.5" font-family="Helvetica,sans-Serif" font-size="10.00">log.h</text>
</a>
</g>
</g>
<!-- Node5&#45;&gt;Node6 -->
<g id="edge5" class="edge">
<title>Node5&#45;&gt;Node6</title>
<path fill="none" stroke="midnightblue" d="M466.22,-179.32C451.73,-170.82 429.43,-157.73 412.51,-147.8"/>
<polygon fill="midnightblue" stroke="midnightblue" points="414.14,-144.7 403.74,-142.65 410.6,-150.74 414.14,-144.7"/>
</g>
<!-- Node7 -->
<g id="node7" class="node">
<title>Node7</title>
<g id="a_node7"><a xlink:href="meta_8h.html" target="_top" xlink:title="mmCEsim meta data">
<polygon fill="white" stroke="black" points="398.5,-67.5 398.5,-86.5 449.5,-86.5 449.5,-67.5 398.5,-67.5"/>
<text text-anchor="middle" x="424" y="-74.5" font-family="Helvetica,sans-Serif" font-size="10.00">meta.h</text>
</a>
</g>
</g>
<!-- Node6&#45;&gt;Node7 -->
<g id="edge6" class="edge">
<title>Node6&#45;&gt;Node7</title>
<path fill="none" stroke="midnightblue" d="M394.78,-123.08C399.67,-115.53 406.83,-104.49 412.83,-95.23"/>
<polygon fill="midnightblue" stroke="midnightblue" points="415.83,-97.05 418.33,-86.75 409.95,-93.24 415.83,-97.05"/>
</g>
<!-- Node8 -->
<g id="node8" class="node">
<title>Node8</title>
<g id="a_node8"><a xlink:href="term_8h.html" target="_top" xlink:title="Terminal Color and Style Control.">
<polygon fill="white" stroke="black" points="73.5,-67.5 73.5,-86.5 122.5,-86.5 122.5,-67.5 73.5,-67.5"/>
<text text-anchor="middle" x="98" y="-74.5" font-family="Helvetica,sans-Serif" font-size="10.00">term.h</text>
</a>
</g>
</g>
<!-- Node6&#45;&gt;Node8 -->
<g id="edge8" class="edge">
<title>Node6&#45;&gt;Node8</title>
<path fill="none" stroke="midnightblue" d="M368.07,-128.12C318.55,-118.93 193.76,-95.77 132.71,-84.44"/>
<polygon fill="midnightblue" stroke="midnightblue" points="133.26,-80.98 122.79,-82.6 131.98,-87.87 133.26,-80.98"/>
</g>
<!-- Node11 -->
<g id="node11" class="node">
<title>Node11</title>
<g id="a_node11"><a xlink:href="utils_8h.html" target="_top" xlink:title="Utilities.">
<polygon fill="white" stroke="black" points="467.5,-67.5 467.5,-86.5 514.5,-86.5 514.5,-67.5 467.5,-67.5"/>
<text text-anchor="middle" x="491" y="-74.5" font-family="Helvetica,sans-Serif" font-size="10.00">utils.h</text>
</a>
</g>
</g>
<!-- Node6&#45;&gt;Node11 -->
<g id="edge12" class="edge">
<title>Node6&#45;&gt;Node11</title>
<path fill="none" stroke="midnightblue" d="M405.39,-123.32C421.67,-114.7 446.87,-101.36 465.72,-91.39"/>
<polygon fill="midnightblue" stroke="midnightblue" points="467.45,-94.43 474.65,-86.65 464.18,-88.24 467.45,-94.43"/>
</g>
<!-- Node18 -->
<g id="node18" class="node">
<title>Node18</title>
<g id="a_node18"><a xlink:title=" ">
<polygon fill="white" stroke="#bfbfbf" points="533,-67.5 533,-86.5 577,-86.5 577,-67.5 533,-67.5"/>
<text text-anchor="middle" x="555" y="-74.5" font-family="Helvetica,sans-Serif" font-size="10.00">ctime</text>
</a>
</g>
</g>
<!-- Node6&#45;&gt;Node18 -->
<g id="edge20" class="edge">
<title>Node6&#45;&gt;Node18</title>
<path fill="none" stroke="midnightblue" d="M409.69,-125.27C438.2,-115.99 489.83,-99.2 523.25,-88.33"/>
<polygon fill="midnightblue" stroke="midnightblue" points="524.57,-91.58 532.99,-85.16 522.4,-84.92 524.57,-91.58"/>
</g>
<!-- Node19 -->
<g id="node19" class="node">
<title>Node19</title>
<g id="a_node19"><a xlink:title=" ">
<polygon fill="white" stroke="#bfbfbf" points="179.5,-67.5 179.5,-86.5 234.5,-86.5 234.5,-67.5 179.5,-67.5"/>
<text text-anchor="middle" x="207" y="-74.5" font-family="Helvetica,sans-Serif" font-size="10.00">fstream</text>
</a>
</g>
</g>
<!-- Node6&#45;&gt;Node19 -->
<g id="edge21" class="edge">
<title>Node6&#45;&gt;Node19</title>
<path fill="none" stroke="midnightblue" d="M368.48,-125.91C338.48,-117.01 282.16,-100.3 244.61,-89.16"/>
<polygon fill="midnightblue" stroke="midnightblue" points="245.13,-85.66 234.55,-86.17 243.14,-92.37 245.13,-85.66"/>
</g>
<!-- Node20 -->
<g id="node20" class="node">
<title>Node20</title>
<g id="a_node20"><a xlink:title=" ">
<polygon fill="white" stroke="#bfbfbf" points="253,-67.5 253,-86.5 309,-86.5 309,-67.5 253,-67.5"/>
<text text-anchor="middle" x="281" y="-74.5" font-family="Helvetica,sans-Serif" font-size="10.00">iomanip</text>
</a>
</g>
</g>
<!-- Node6&#45;&gt;Node20 -->
<g id="edge22" class="edge">
<title>Node6&#45;&gt;Node20</title>
<path fill="none" stroke="midnightblue" d="M371.65,-123.32C354.33,-114.66 327.48,-101.24 307.5,-91.25"/>
<polygon fill="midnightblue" stroke="midnightblue" points="308.82,-88 298.31,-86.65 305.69,-94.26 308.82,-88"/>
</g>
<!-- Node21 -->
<g id="node21" class="node">
<title>Node21</title>
<g id="a_node21"><a xlink:title=" ">
<polygon fill="white" stroke="#bfbfbf" points="327.5,-67.5 327.5,-86.5 380.5,-86.5 380.5,-67.5 327.5,-67.5"/>
<text text-anchor="middle" x="354" y="-74.5" font-family="Helvetica,sans-Serif" font-size="10.00">spy.hpp</text>
</a>
</g>
</g>
<!-- Node6&#45;&gt;Node21 -->
<g id="edge23" class="edge">
<title>Node6&#45;&gt;Node21</title>
<path fill="none" stroke="midnightblue" d="M383.22,-123.08C378.33,-115.53 371.17,-104.49 365.17,-95.23"/>
<polygon fill="midnightblue" stroke="midnightblue" points="368.05,-93.24 359.67,-86.75 362.17,-97.05 368.05,-93.24"/>
</g>
<!-- Node7&#45;&gt;Node3 -->
<g id="edge7" class="edge">
<title>Node7&#45;&gt;Node3</title>
<path fill="none" stroke="midnightblue" d="M398.43,-69.22C395.26,-68.44 392.06,-67.68 389,-67 305.11,-48.29 280.79,-57.41 199,-31 197.33,-30.46 195.63,-29.85 193.93,-29.2"/>
<polygon fill="midnightblue" stroke="midnightblue" points="194.99,-25.84 184.42,-25.11 192.23,-32.28 194.99,-25.84"/>
</g>
<!-- Node8&#45;&gt;Node3 -->
<g id="edge11" class="edge">
<title>Node8&#45;&gt;Node3</title>
<path fill="none" stroke="midnightblue" d="M108.03,-67.48C119.05,-58.11 136.96,-42.88 150.34,-31.51"/>
<polygon fill="midnightblue" stroke="midnightblue" points="152.64,-34.15 157.99,-25.01 148.1,-28.82 152.64,-34.15"/>
</g>
<!-- Node9 -->
<g id="node9" class="node">
<title>Node9</title>
<g id="a_node9"><a xlink:title=" ">
<polygon fill="white" stroke="#bfbfbf" points="78.5,-6 78.5,-25 127.5,-25 127.5,-6 78.5,-6"/>
<text text-anchor="middle" x="103" y="-13" font-family="Helvetica,sans-Serif" font-size="10.00">cstdlib</text>
</a>
</g>
</g>
<!-- Node8&#45;&gt;Node9 -->
<g id="edge9" class="edge">
<title>Node8&#45;&gt;Node9</title>
<path fill="none" stroke="midnightblue" d="M98.72,-67.48C99.42,-59.08 100.52,-45.98 101.43,-35.16"/>
<polygon fill="midnightblue" stroke="midnightblue" points="104.94,-35.27 102.28,-25.01 97.96,-34.68 104.94,-35.27"/>
</g>
<!-- Node8&#45;&gt;Node10 -->
<g id="edge10" class="edge">
<title>Node8&#45;&gt;Node10</title>
<path fill="none" stroke="midnightblue" d="M88.26,-67.48C77.65,-58.2 60.48,-43.17 47.52,-31.83"/>
<polygon fill="midnightblue" stroke="midnightblue" points="49.56,-28.96 39.72,-25.01 44.95,-34.23 49.56,-28.96"/>
</g>
<!-- Node11&#45;&gt;Node3 -->
<g id="edge17" class="edge">
<title>Node11&#45;&gt;Node3</title>
<path fill="none" stroke="midnightblue" d="M467.29,-69.14C464.18,-68.36 461.03,-67.62 458,-67 344.15,-43.66 310.44,-63.99 199,-31 197.12,-30.44 195.21,-29.79 193.31,-29.07"/>
<polygon fill="midnightblue" stroke="midnightblue" points="194.62,-25.83 184.05,-25.12 191.87,-32.27 194.62,-25.83"/>
</g>
<!-- Node12 -->
<g id="node12" class="node">
<title>Node12</title>
<g id="a_node12"><a xlink:title=" ">
<polygon fill="white" stroke="#bfbfbf" points="442,-6 442,-25 506,-25 506,-6 442,-6"/>
<text text-anchor="middle" x="474" y="-13" font-family="Helvetica,sans-Serif" font-size="10.00">algorithm</text>
</a>
</g>
</g>
<!-- Node11&#45;&gt;Node12 -->
<g id="edge13" class="edge">
<title>Node11&#45;&gt;Node12</title>
<path fill="none" stroke="midnightblue" d="M488.56,-67.48C486.14,-58.99 482.34,-45.7 479.23,-34.82"/>
<polygon fill="midnightblue" stroke="midnightblue" points="482.54,-33.66 476.43,-25.01 475.81,-35.59 482.54,-33.66"/>
</g>
<!-- Node13 -->
<g id="node13" class="node">
<title>Node13</title>
<g id="a_node13"><a xlink:title=" ">
<polygon fill="white" stroke="#bfbfbf" points="524.5,-6 524.5,-25 573.5,-25 573.5,-6 524.5,-6"/>
<text text-anchor="middle" x="549" y="-13" font-family="Helvetica,sans-Serif" font-size="10.00">cctype</text>
</a>
</g>
</g>
<!-- Node11&#45;&gt;Node13 -->
<g id="edge14" class="edge">
<title>Node11&#45;&gt;Node13</title>
<path fill="none" stroke="midnightblue" d="M499.31,-67.48C508.18,-58.37 522.45,-43.74 533.42,-32.48"/>
<polygon fill="midnightblue" stroke="midnightblue" points="536.23,-34.61 540.71,-25.01 531.22,-29.73 536.23,-34.61"/>
</g>
<!-- Node14 -->
<g id="node14" class="node">
<title>Node14</title>
<g id="a_node14"><a xlink:title=" ">
<polygon fill="white" stroke="#bfbfbf" points="592,-6 592,-25 646,-25 646,-6 592,-6"/>
<text text-anchor="middle" x="619" y="-13" font-family="Helvetica,sans-Serif" font-size="10.00">random</text>
</a>
</g>
</g>
<!-- Node11&#45;&gt;Node14 -->
<g id="edge15" class="edge">
<title>Node11&#45;&gt;Node14</title>
<path fill="none" stroke="midnightblue" d="M509.34,-67.48C530.82,-57.49 566.62,-40.85 591.45,-29.31"/>
<polygon fill="midnightblue" stroke="midnightblue" points="593.1,-32.4 600.69,-25.01 590.15,-26.05 593.1,-32.4"/>
</g>
<!-- Node15 -->
<g id="node15" class="node">
<title>Node15</title>
<g id="a_node15"><a xlink:title=" ">
<polygon fill="white" stroke="#bfbfbf" points="208,-6 208,-25 264,-25 264,-6 208,-6"/>
<text text-anchor="middle" x="236" y="-13" font-family="Helvetica,sans-Serif" font-size="10.00">sstream</text>
</a>
</g>
</g>
<!-- Node11&#45;&gt;Node15 -->
<g id="edge16" class="edge">
<title>Node11&#45;&gt;Node15</title>
<path fill="none" stroke="midnightblue" d="M467.26,-69.3C464.15,-68.49 461.01,-67.7 458,-67 376.43,-47.97 353.44,-54.38 273,-31 270.57,-30.29 268.07,-29.49 265.57,-28.63"/>
<polygon fill="midnightblue" stroke="midnightblue" points="266.72,-25.32 256.13,-25.15 264.3,-31.89 266.72,-25.32"/>
</g>
<!-- Node11&#45;&gt;Node16 -->
<g id="edge18" class="edge">
<title>Node11&#45;&gt;Node16</title>
<path fill="none" stroke="midnightblue" d="M514.55,-69.56C559.52,-57.26 653.31,-31.6 655,-31 656.66,-30.41 658.36,-29.77 660.06,-29.11"/>
<polygon fill="midnightblue" stroke="midnightblue" points="661.8,-32.18 669.69,-25.11 659.11,-25.71 661.8,-32.18"/>
</g>
<!-- Node17 -->
<g id="node17" class="node">
<title>Node17</title>
<g id="a_node17"><a xlink:title=" ">
<polygon fill="white" stroke="#bfbfbf" points="282.5,-0.5 282.5,-30.5 423.5,-30.5 423.5,-0.5 282.5,-0.5"/>
<text text-anchor="start" x="290.5" y="-18.5" font-family="Helvetica,sans-Serif" font-size="10.00">boost/dll/runtime_symbol</text>
<text text-anchor="middle" x="353" y="-7.5" font-family="Helvetica,sans-Serif" font-size="10.00">_info.hpp</text>
</a>
</g>
</g>
<!-- Node11&#45;&gt;Node17 -->
<g id="edge19" class="edge">
<title>Node11&#45;&gt;Node17</title>
<path fill="none" stroke="midnightblue" d="M471.23,-67.48C451.4,-58.93 420.26,-45.5 394.92,-34.57"/>
<polygon fill="midnightblue" stroke="midnightblue" points="396.09,-31.27 385.52,-30.52 393.32,-37.7 396.09,-31.27"/>
</g>
</g>
</svg>
