<?xml version="1.0" encoding="UTF-8" standalone="no"?>
<!DOCTYPE svg PUBLIC "-//W3C//DTD SVG 1.1//EN"
 "http://www.w3.org/Graphics/SVG/1.1/DTD/svg11.dtd">
<!-- Generated by graphviz version 2.43.0 (0)
 -->
<!-- Title: include/export/type_track.h Pages: 1 -->
<!--zoomable 274 -->
<svg id="main" version="1.1" xmlns="http://www.w3.org/2000/svg" xmlns:xlink="http://www.w3.org/1999/xlink" xml:space="preserve" onload="init(evt)">
<style type="text/css"><![CDATA[
.edge:hover path { stroke: red; }
.edge:hover polygon { stroke: red; fill: red; }
]]></style>
<script type="text/javascript"><![CDATA[
var edges = document.getElementsByTagName('g');
if (edges && edges.length) {
  for (var i=0;i<edges.length;i++) {
    if (edges[i].id.substr(0,4)=='edge') {
      edges[i].setAttribute('class','edge');
    }
  }
}
]]></script>
        <defs>
                <circle id="rim" cx="0" cy="0" r="7"/>
                <circle id="rim2" cx="0" cy="0" r="3.5"/>
                <g id="zoomPlus">
                        <use xlink:href="#rim" fill="#404040">
                                <set attributeName="fill" to="#808080" begin="zoomplus.mouseover" end="zoomplus.mouseout"/>
                        </use>
                        <path d="M-4,0h8M0,-4v8" fill="none" stroke="white" stroke-width="1.5" pointer-events="none"/>
                </g>
                <g id="zoomMin">
                        <use xlink:href="#rim" fill="#404040">
                                <set attributeName="fill" to="#808080" begin="zoomminus.mouseover" end="zoomminus.mouseout"/>
                        </use>
                        <path d="M-4,0h8" fill="none" stroke="white" stroke-width="1.5" pointer-events="none"/>
                </g>
                <g id="dirArrow">
                        <path fill="none" stroke="white" stroke-width="1.5" d="M0,-3.0v7 M-2.5,-0.5L0,-3.0L2.5,-0.5"/>
                </g>
               <g id="resetDef">
                       <use xlink:href="#rim2" fill="#404040">
                               <set attributeName="fill" to="#808080" begin="reset.mouseover" end="reset.mouseout"/>
                       </use>
               </g>
        </defs>

<script type="text/javascript">
var viewWidth = 1058;
var viewHeight = 274;
var sectionId = 'dynsection-0';
</script>
<script xlink:href="svgpan.js"/>
<svg id="graph" class="graph">
<g id="viewport">
<title>include/export/type_track.h</title>
<polygon fill="white" stroke="transparent" points="-4,4 -4,-270 1053.5,-270 1053.5,4 -4,4"/>
<!-- Node1 -->
<g id="node1" class="node">
<title>Node1</title>
<g id="a_node1"><a xlink:title="Track data type of variables.">
<polygon fill="#bfbfbf" stroke="black" points="650.5,-235.5 650.5,-265.5 761.5,-265.5 761.5,-235.5 650.5,-235.5"/>
<text text-anchor="start" x="658.5" y="-253.5" font-family="Helvetica,sans-Serif" font-size="10.00">include/export/type</text>
<text text-anchor="middle" x="706" y="-242.5" font-family="Helvetica,sans-Serif" font-size="10.00">_track.h</text>
</a>
</g>
</g>
<!-- Node2 -->
<g id="node2" class="node">
<title>Node2</title>
<g id="a_node2"><a xlink:href="type_8h.html" target="_top" xlink:title="Type Specification in Alg.">
<polygon fill="white" stroke="black" points="124,-179.5 124,-198.5 206,-198.5 206,-179.5 124,-179.5"/>
<text text-anchor="middle" x="165" y="-186.5" font-family="Helvetica,sans-Serif" font-size="10.00">export/type.h</text>
</a>
</g>
</g>
<!-- Node1&#45;&gt;Node2 -->
<g id="edge1" class="edge">
<title>Node1&#45;&gt;Node2</title>
<path fill="none" stroke="midnightblue" d="M650.39,-243.38C545.08,-231.8 317.97,-206.82 216.17,-195.63"/>
<polygon fill="midnightblue" stroke="midnightblue" points="216.46,-192.14 206.14,-194.52 215.7,-199.1 216.46,-192.14"/>
</g>
<!-- Node5 -->
<g id="node5" class="node">
<title>Node5</title>
<g id="a_node5"><a xlink:href="log__global_8h.html" target="_top" xlink:title="Global Access of Log.">
<polygon fill="white" stroke="black" points="501,-179.5 501,-198.5 577,-198.5 577,-179.5 501,-179.5"/>
<text text-anchor="middle" x="539" y="-186.5" font-family="Helvetica,sans-Serif" font-size="10.00">log_global.h</text>
</a>
</g>
</g>
<!-- Node1&#45;&gt;Node5 -->
<g id="edge4" class="edge">
<title>Node1&#45;&gt;Node5</title>
<path fill="none" stroke="midnightblue" d="M666.42,-235.4C637.9,-225.24 599.83,-211.67 572.74,-202.02"/>
<polygon fill="midnightblue" stroke="midnightblue" points="573.89,-198.72 563.3,-198.66 571.55,-205.31 573.89,-198.72"/>
</g>
<!-- Node10 -->
<g id="node10" class="node">
<title>Node10</title>
<g id="a_node10"><a xlink:title=" ">
<polygon fill="white" stroke="#bfbfbf" points="0,-6 0,-25 60,-25 60,-6 0,-6"/>
<text text-anchor="middle" x="30" y="-13" font-family="Helvetica,sans-Serif" font-size="10.00">iostream</text>
</a>
</g>
</g>
<!-- Node1&#45;&gt;Node10 -->
<g id="edge29" class="edge">
<title>Node1&#45;&gt;Node10</title>
<path fill="none" stroke="midnightblue" d="M650.46,-247.79C511.89,-243.08 158.91,-228.34 115,-199 58.11,-160.99 38.53,-74.4 32.46,-35.75"/>
<polygon fill="midnightblue" stroke="midnightblue" points="35.86,-34.81 30.98,-25.4 28.93,-35.8 35.86,-34.81"/>
</g>
<!-- Node16 -->
<g id="node16" class="node">
<title>Node16</title>
<g id="a_node16"><a xlink:title=" ">
<polygon fill="white" stroke="#bfbfbf" points="1002.5,-6 1002.5,-25 1049.5,-25 1049.5,-6 1002.5,-6"/>
<text text-anchor="middle" x="1026" y="-13" font-family="Helvetica,sans-Serif" font-size="10.00">vector</text>
</a>
</g>
</g>
<!-- Node1&#45;&gt;Node16 -->
<g id="edge33" class="edge">
<title>Node1&#45;&gt;Node16</title>
<path fill="none" stroke="midnightblue" d="M706.81,-235.32C708.36,-219.93 712.88,-195.38 726,-179 745.14,-155.1 929.08,-63.79 999.11,-29.56"/>
<polygon fill="midnightblue" stroke="midnightblue" points="1000.76,-32.66 1008.21,-25.13 997.69,-26.36 1000.76,-32.66"/>
</g>
<!-- Node27 -->
<g id="node27" class="node">
<title>Node27</title>
<g id="a_node27"><a xlink:title=" ">
<polygon fill="white" stroke="#bfbfbf" points="734.5,-179.5 734.5,-198.5 777.5,-198.5 777.5,-179.5 734.5,-179.5"/>
<text text-anchor="middle" x="756" y="-186.5" font-family="Helvetica,sans-Serif" font-size="10.00">stack</text>
</a>
</g>
</g>
<!-- Node1&#45;&gt;Node27 -->
<g id="edge30" class="edge">
<title>Node1&#45;&gt;Node27</title>
<path fill="none" stroke="midnightblue" d="M717.85,-235.4C725.11,-226.75 734.45,-215.64 742.07,-206.58"/>
<polygon fill="midnightblue" stroke="midnightblue" points="744.97,-208.57 748.72,-198.66 739.61,-204.06 744.97,-208.57"/>
</g>
<!-- Node28 -->
<g id="node28" class="node">
<title>Node28</title>
<g id="a_node28"><a xlink:title=" ">
<polygon fill="white" stroke="#bfbfbf" points="795.5,-179.5 795.5,-198.5 860.5,-198.5 860.5,-179.5 795.5,-179.5"/>
<text text-anchor="middle" x="828" y="-186.5" font-family="Helvetica,sans-Serif" font-size="10.00">stdexcept</text>
</a>
</g>
</g>
<!-- Node1&#45;&gt;Node28 -->
<g id="edge31" class="edge">
<title>Node1&#45;&gt;Node28</title>
<path fill="none" stroke="midnightblue" d="M734.91,-235.4C755.02,-225.59 781.62,-212.62 801.24,-203.05"/>
<polygon fill="midnightblue" stroke="midnightblue" points="802.79,-206.19 810.25,-198.66 799.73,-199.9 802.79,-206.19"/>
</g>
<!-- Node29 -->
<g id="node29" class="node">
<title>Node29</title>
<g id="a_node29"><a xlink:title=" ">
<polygon fill="white" stroke="#bfbfbf" points="878.5,-179.5 878.5,-198.5 923.5,-198.5 923.5,-179.5 878.5,-179.5"/>
<text text-anchor="middle" x="901" y="-186.5" font-family="Helvetica,sans-Serif" font-size="10.00">utility</text>
</a>
</g>
</g>
<!-- Node1&#45;&gt;Node29 -->
<g id="edge32" class="edge">
<title>Node1&#45;&gt;Node29</title>
<path fill="none" stroke="midnightblue" d="M752.21,-235.4C788.09,-224.45 836.91,-209.56 868.69,-199.86"/>
<polygon fill="midnightblue" stroke="midnightblue" points="869.82,-203.17 878.37,-196.91 867.78,-196.48 869.82,-203.17"/>
</g>
<!-- Node3 -->
<g id="node3" class="node">
<title>Node3</title>
<g id="a_node3"><a xlink:title=" ">
<polygon fill="white" stroke="#bfbfbf" points="146,-6 146,-25 190,-25 190,-6 146,-6"/>
<text text-anchor="middle" x="168" y="-13" font-family="Helvetica,sans-Serif" font-size="10.00">string</text>
</a>
</g>
</g>
<!-- Node2&#45;&gt;Node3 -->
<g id="edge2" class="edge">
<title>Node2&#45;&gt;Node3</title>
<path fill="none" stroke="midnightblue" d="M165.15,-179.26C165.62,-152.65 167.03,-72.21 167.67,-35.34"/>
<polygon fill="midnightblue" stroke="midnightblue" points="171.18,-35.08 167.85,-25.02 164.18,-34.96 171.18,-35.08"/>
</g>
<!-- Node4 -->
<g id="node4" class="node">
<title>Node4</title>
<g id="a_node4"><a xlink:title=" ">
<polygon fill="white" stroke="#bfbfbf" points="95.5,-123.5 95.5,-142.5 136.5,-142.5 136.5,-123.5 95.5,-123.5"/>
<text text-anchor="middle" x="116" y="-130.5" font-family="Helvetica,sans-Serif" font-size="10.00">tuple</text>
</a>
</g>
</g>
<!-- Node2&#45;&gt;Node4 -->
<g id="edge3" class="edge">
<title>Node2&#45;&gt;Node4</title>
<path fill="none" stroke="midnightblue" d="M156.91,-179.08C149.84,-171.3 139.41,-159.8 130.85,-150.37"/>
<polygon fill="midnightblue" stroke="midnightblue" points="133.25,-147.8 123.94,-142.75 128.07,-152.51 133.25,-147.8"/>
</g>
<!-- Node6 -->
<g id="node6" class="node">
<title>Node6</title>
<g id="a_node6"><a xlink:href="include_2log_8h.html" target="_top" xlink:title="Log Utilities.">
<polygon fill="white" stroke="black" points="418.5,-123.5 418.5,-142.5 459.5,-142.5 459.5,-123.5 418.5,-123.5"/>
<text text-anchor="middle" x="439" y="-130.5" font-family="Helvetica,sans-Serif" font-size="10.00">log.h</text>
</a>
</g>
</g>
<!-- Node5&#45;&gt;Node6 -->
<g id="edge5" class="edge">
<title>Node5&#45;&gt;Node6</title>
<path fill="none" stroke="midnightblue" d="M522.93,-179.32C507.04,-170.74 482.49,-157.49 464.04,-147.52"/>
<polygon fill="midnightblue" stroke="midnightblue" points="465.49,-144.33 455.03,-142.65 462.16,-150.49 465.49,-144.33"/>
</g>
<!-- Node7 -->
<g id="node7" class="node">
<title>Node7</title>
<g id="a_node7"><a xlink:href="meta_8h.html" target="_top" xlink:title="mmCEsim meta data">
<polygon fill="white" stroke="black" points="193.5,-67.5 193.5,-86.5 244.5,-86.5 244.5,-67.5 193.5,-67.5"/>
<text text-anchor="middle" x="219" y="-74.5" font-family="Helvetica,sans-Serif" font-size="10.00">meta.h</text>
</a>
</g>
</g>
<!-- Node6&#45;&gt;Node7 -->
<g id="edge6" class="edge">
<title>Node6&#45;&gt;Node7</title>
<path fill="none" stroke="midnightblue" d="M418.45,-127.09C385.88,-119.3 320.19,-103.5 254.32,-87.05"/>
<polygon fill="midnightblue" stroke="midnightblue" points="255.15,-83.66 244.6,-84.63 253.46,-90.45 255.15,-83.66"/>
</g>
<!-- Node8 -->
<g id="node8" class="node">
<title>Node8</title>
<g id="a_node8"><a xlink:href="term_8h.html" target="_top" xlink:title="Terminal Color and Style Control.">
<polygon fill="white" stroke="black" points="81.5,-67.5 81.5,-86.5 130.5,-86.5 130.5,-67.5 81.5,-67.5"/>
<text text-anchor="middle" x="106" y="-74.5" font-family="Helvetica,sans-Serif" font-size="10.00">term.h</text>
</a>
</g>
</g>
<!-- Node6&#45;&gt;Node8 -->
<g id="edge8" class="edge">
<title>Node6&#45;&gt;Node8</title>
<path fill="none" stroke="midnightblue" d="M418.42,-128.66C362.99,-119.67 210.07,-94.88 140.85,-83.65"/>
<polygon fill="midnightblue" stroke="midnightblue" points="141.3,-80.18 130.87,-82.03 140.18,-87.09 141.3,-80.18"/>
</g>
<!-- Node11 -->
<g id="node11" class="node">
<title>Node11</title>
<g id="a_node11"><a xlink:href="utils_8h.html" target="_top" xlink:title="Utilities.">
<polygon fill="white" stroke="black" points="630.5,-67.5 630.5,-86.5 677.5,-86.5 677.5,-67.5 630.5,-67.5"/>
<text text-anchor="middle" x="654" y="-74.5" font-family="Helvetica,sans-Serif" font-size="10.00">utils.h</text>
</a>
</g>
</g>
<!-- Node6&#45;&gt;Node11 -->
<g id="edge12" class="edge">
<title>Node6&#45;&gt;Node11</title>
<path fill="none" stroke="midnightblue" d="M459.64,-127.16C491.93,-119.54 556.59,-104.07 620.44,-87.36"/>
<polygon fill="midnightblue" stroke="midnightblue" points="621.48,-90.7 630.26,-84.77 619.7,-83.93 621.48,-90.7"/>
</g>
<!-- Node22 -->
<g id="node22" class="node">
<title>Node22</title>
<g id="a_node22"><a xlink:title=" ">
<polygon fill="white" stroke="#bfbfbf" points="263,-67.5 263,-86.5 307,-86.5 307,-67.5 263,-67.5"/>
<text text-anchor="middle" x="285" y="-74.5" font-family="Helvetica,sans-Serif" font-size="10.00">ctime</text>
</a>
</g>
</g>
<!-- Node6&#45;&gt;Node22 -->
<g id="edge24" class="edge">
<title>Node6&#45;&gt;Node22</title>
<path fill="none" stroke="midnightblue" d="M418.23,-124.72C392.19,-115.59 347.29,-99.84 316.89,-89.18"/>
<polygon fill="midnightblue" stroke="midnightblue" points="317.78,-85.78 307.18,-85.78 315.46,-92.39 317.78,-85.78"/>
</g>
<!-- Node23 -->
<g id="node23" class="node">
<title>Node23</title>
<g id="a_node23"><a xlink:title=" ">
<polygon fill="white" stroke="#bfbfbf" points="325,-67.5 325,-86.5 393,-86.5 393,-67.5 325,-67.5"/>
<text text-anchor="middle" x="359" y="-74.5" font-family="Helvetica,sans-Serif" font-size="10.00">filesystem</text>
</a>
</g>
</g>
<!-- Node6&#45;&gt;Node23 -->
<g id="edge25" class="edge">
<title>Node6&#45;&gt;Node23</title>
<path fill="none" stroke="midnightblue" d="M426.15,-123.32C413.78,-114.98 394.87,-102.21 380.26,-92.35"/>
<polygon fill="midnightblue" stroke="midnightblue" points="382.07,-89.35 371.82,-86.65 378.15,-95.15 382.07,-89.35"/>
</g>
<!-- Node24 -->
<g id="node24" class="node">
<title>Node24</title>
<g id="a_node24"><a xlink:title=" ">
<polygon fill="white" stroke="#bfbfbf" points="411.5,-67.5 411.5,-86.5 466.5,-86.5 466.5,-67.5 411.5,-67.5"/>
<text text-anchor="middle" x="439" y="-74.5" font-family="Helvetica,sans-Serif" font-size="10.00">fstream</text>
</a>
</g>
</g>
<!-- Node6&#45;&gt;Node24 -->
<g id="edge26" class="edge">
<title>Node6&#45;&gt;Node24</title>
<path fill="none" stroke="midnightblue" d="M439,-123.08C439,-116.01 439,-105.86 439,-96.99"/>
<polygon fill="midnightblue" stroke="midnightblue" points="442.5,-96.75 439,-86.75 435.5,-96.75 442.5,-96.75"/>
</g>
<!-- Node25 -->
<g id="node25" class="node">
<title>Node25</title>
<g id="a_node25"><a xlink:title=" ">
<polygon fill="white" stroke="#bfbfbf" points="485,-67.5 485,-86.5 541,-86.5 541,-67.5 485,-67.5"/>
<text text-anchor="middle" x="513" y="-74.5" font-family="Helvetica,sans-Serif" font-size="10.00">iomanip</text>
</a>
</g>
</g>
<!-- Node6&#45;&gt;Node25 -->
<g id="edge27" class="edge">
<title>Node6&#45;&gt;Node25</title>
<path fill="none" stroke="midnightblue" d="M450.89,-123.32C462.15,-115.11 479.29,-102.6 492.71,-92.81"/>
<polygon fill="midnightblue" stroke="midnightblue" points="494.88,-95.56 500.89,-86.83 490.75,-89.9 494.88,-95.56"/>
</g>
<!-- Node26 -->
<g id="node26" class="node">
<title>Node26</title>
<g id="a_node26"><a xlink:title=" ">
<polygon fill="white" stroke="#bfbfbf" points="559.5,-67.5 559.5,-86.5 612.5,-86.5 612.5,-67.5 559.5,-67.5"/>
<text text-anchor="middle" x="586" y="-74.5" font-family="Helvetica,sans-Serif" font-size="10.00">spy.hpp</text>
</a>
</g>
</g>
<!-- Node6&#45;&gt;Node26 -->
<g id="edge28" class="edge">
<title>Node6&#45;&gt;Node26</title>
<path fill="none" stroke="midnightblue" d="M459.75,-124.38C483.96,-115.48 524.31,-100.66 552.87,-90.17"/>
<polygon fill="midnightblue" stroke="midnightblue" points="554.26,-93.39 562.44,-86.65 551.85,-86.82 554.26,-93.39"/>
</g>
<!-- Node7&#45;&gt;Node3 -->
<g id="edge7" class="edge">
<title>Node7&#45;&gt;Node3</title>
<path fill="none" stroke="midnightblue" d="M211.69,-67.48C203.97,-58.46 191.59,-44.02 181.98,-32.81"/>
<polygon fill="midnightblue" stroke="midnightblue" points="184.46,-30.32 175.29,-25.01 179.14,-34.88 184.46,-30.32"/>
</g>
<!-- Node8&#45;&gt;Node3 -->
<g id="edge11" class="edge">
<title>Node8&#45;&gt;Node3</title>
<path fill="none" stroke="midnightblue" d="M114.88,-67.48C124.46,-58.28 139.91,-43.46 151.69,-32.16"/>
<polygon fill="midnightblue" stroke="midnightblue" points="154.34,-34.46 159.13,-25.01 149.49,-29.41 154.34,-34.46"/>
</g>
<!-- Node9 -->
<g id="node9" class="node">
<title>Node9</title>
<g id="a_node9"><a xlink:title=" ">
<polygon fill="white" stroke="#bfbfbf" points="78.5,-6 78.5,-25 127.5,-25 127.5,-6 78.5,-6"/>
<text text-anchor="middle" x="103" y="-13" font-family="Helvetica,sans-Serif" font-size="10.00">cstdlib</text>
</a>
</g>
</g>
<!-- Node8&#45;&gt;Node9 -->
<g id="edge9" class="edge">
<title>Node8&#45;&gt;Node9</title>
<path fill="none" stroke="midnightblue" d="M105.57,-67.48C105.15,-59.08 104.49,-45.98 103.94,-35.16"/>
<polygon fill="midnightblue" stroke="midnightblue" points="107.43,-34.82 103.43,-25.01 100.44,-35.17 107.43,-34.82"/>
</g>
<!-- Node8&#45;&gt;Node10 -->
<g id="edge10" class="edge">
<title>Node8&#45;&gt;Node10</title>
<path fill="none" stroke="midnightblue" d="M95.11,-67.48C83.03,-58.02 63.33,-42.6 48.76,-31.19"/>
<polygon fill="midnightblue" stroke="midnightblue" points="50.9,-28.42 40.87,-25.01 46.59,-33.93 50.9,-28.42"/>
</g>
<!-- Node11&#45;&gt;Node3 -->
<g id="edge17" class="edge">
<title>Node11&#45;&gt;Node3</title>
<path fill="none" stroke="midnightblue" d="M630.35,-68.81C627.55,-68.12 624.73,-67.49 622,-67 436.35,-33.31 381.28,-79.73 199,-31 197.06,-30.48 195.1,-29.85 193.15,-29.14"/>
<polygon fill="midnightblue" stroke="midnightblue" points="194.26,-25.81 183.68,-25.14 191.53,-32.26 194.26,-25.81"/>
</g>
<!-- Node12 -->
<g id="node12" class="node">
<title>Node12</title>
<g id="a_node12"><a xlink:title=" ">
<polygon fill="white" stroke="#bfbfbf" points="706,-6 706,-25 770,-25 770,-6 706,-6"/>
<text text-anchor="middle" x="738" y="-13" font-family="Helvetica,sans-Serif" font-size="10.00">algorithm</text>
</a>
</g>
</g>
<!-- Node11&#45;&gt;Node12 -->
<g id="edge13" class="edge">
<title>Node11&#45;&gt;Node12</title>
<path fill="none" stroke="midnightblue" d="M666.04,-67.48C679.51,-57.93 701.57,-42.31 717.72,-30.87"/>
<polygon fill="midnightblue" stroke="midnightblue" points="719.85,-33.65 725.99,-25.01 715.8,-27.93 719.85,-33.65"/>
</g>
<!-- Node13 -->
<g id="node13" class="node">
<title>Node13</title>
<g id="a_node13"><a xlink:title=" ">
<polygon fill="white" stroke="#bfbfbf" points="788.5,-6 788.5,-25 837.5,-25 837.5,-6 788.5,-6"/>
<text text-anchor="middle" x="813" y="-13" font-family="Helvetica,sans-Serif" font-size="10.00">cctype</text>
</a>
</g>
</g>
<!-- Node11&#45;&gt;Node13 -->
<g id="edge14" class="edge">
<title>Node11&#45;&gt;Node13</title>
<path fill="none" stroke="midnightblue" d="M677.65,-67.94C702.9,-59.23 744.01,-44.75 779,-31 780.6,-30.37 782.24,-29.71 783.89,-29.04"/>
<polygon fill="midnightblue" stroke="midnightblue" points="785.41,-32.2 793.3,-25.13 782.73,-25.74 785.41,-32.2"/>
</g>
<!-- Node14 -->
<g id="node14" class="node">
<title>Node14</title>
<g id="a_node14"><a xlink:title=" ">
<polygon fill="white" stroke="#bfbfbf" points="856,-6 856,-25 910,-25 910,-6 856,-6"/>
<text text-anchor="middle" x="883" y="-13" font-family="Helvetica,sans-Serif" font-size="10.00">random</text>
</a>
</g>
</g>
<!-- Node11&#45;&gt;Node14 -->
<g id="edge15" class="edge">
<title>Node11&#45;&gt;Node14</title>
<path fill="none" stroke="midnightblue" d="M677.71,-70.37C682.44,-69.25 687.38,-68.08 692,-67 760.85,-50.85 779.55,-52.27 847,-31 849.28,-30.28 851.61,-29.48 853.95,-28.64"/>
<polygon fill="midnightblue" stroke="midnightblue" points="855.3,-31.87 863.39,-25.04 852.8,-25.33 855.3,-31.87"/>
</g>
<!-- Node15 -->
<g id="node15" class="node">
<title>Node15</title>
<g id="a_node15"><a xlink:title=" ">
<polygon fill="white" stroke="#bfbfbf" points="928,-6 928,-25 984,-25 984,-6 928,-6"/>
<text text-anchor="middle" x="956" y="-13" font-family="Helvetica,sans-Serif" font-size="10.00">sstream</text>
</a>
</g>
</g>
<!-- Node11&#45;&gt;Node15 -->
<g id="edge16" class="edge">
<title>Node11&#45;&gt;Node15</title>
<path fill="none" stroke="midnightblue" d="M677.66,-70.11C682.39,-69.01 687.34,-67.92 692,-67 792.22,-47.21 820.43,-57.79 919,-31 921.59,-30.29 924.26,-29.47 926.91,-28.57"/>
<polygon fill="midnightblue" stroke="midnightblue" points="928.11,-31.86 936.3,-25.13 925.7,-25.29 928.11,-31.86"/>
</g>
<!-- Node11&#45;&gt;Node16 -->
<g id="edge18" class="edge">
<title>Node11&#45;&gt;Node16</title>
<path fill="none" stroke="midnightblue" d="M677.63,-69.97C682.37,-68.88 687.33,-67.83 692,-67 824.65,-43.44 863.03,-66.48 993,-31 995.29,-30.37 997.63,-29.62 999.95,-28.78"/>
<polygon fill="midnightblue" stroke="midnightblue" points="1001.27,-32.02 1009.22,-25.01 998.64,-25.53 1001.27,-32.02"/>
</g>
<!-- Node17 -->
<g id="node17" class="node">
<title>Node17</title>
<g id="a_node17"><a xlink:href="__boost__config_8h.html" target="_top" xlink:title="Boost Configurations.">
<polygon fill="white" stroke="black" points="208,-6 208,-25 300,-25 300,-6 208,-6"/>
<text text-anchor="middle" x="254" y="-13" font-family="Helvetica,sans-Serif" font-size="10.00">_boost_config.h</text>
</a>
</g>
</g>
<!-- Node11&#45;&gt;Node17 -->
<g id="edge19" class="edge">
<title>Node11&#45;&gt;Node17</title>
<path fill="none" stroke="midnightblue" d="M630.34,-68.89C627.54,-68.19 624.72,-67.53 622,-67 484.61,-39.96 446.61,-56.91 309,-31 303.86,-30.03 298.48,-28.84 293.2,-27.56"/>
<polygon fill="midnightblue" stroke="midnightblue" points="293.78,-24.1 283.22,-25.04 292.06,-30.89 293.78,-24.1"/>
</g>
<!-- Node18 -->
<g id="node18" class="node">
<title>Node18</title>
<g id="a_node18"><a xlink:title=" ">
<polygon fill="white" stroke="#bfbfbf" points="318.5,-0.5 318.5,-30.5 459.5,-30.5 459.5,-0.5 318.5,-0.5"/>
<text text-anchor="start" x="326.5" y="-18.5" font-family="Helvetica,sans-Serif" font-size="10.00">boost/dll/runtime_symbol</text>
<text text-anchor="middle" x="389" y="-7.5" font-family="Helvetica,sans-Serif" font-size="10.00">_info.hpp</text>
</a>
</g>
</g>
<!-- Node11&#45;&gt;Node18 -->
<g id="edge20" class="edge">
<title>Node11&#45;&gt;Node18</title>
<path fill="none" stroke="midnightblue" d="M630.28,-69.15C627.49,-68.4 624.69,-67.67 622,-67 571.4,-54.41 514.18,-41.99 469.11,-32.61"/>
<polygon fill="midnightblue" stroke="midnightblue" points="469.6,-29.14 459.1,-30.53 468.18,-35.99 469.6,-29.14"/>
</g>
<!-- Node19 -->
<g id="node19" class="node">
<title>Node19</title>
<g id="a_node19"><a xlink:title=" ">
<polygon fill="white" stroke="#bfbfbf" points="478,-6 478,-25 524,-25 524,-6 478,-6"/>
<text text-anchor="middle" x="501" y="-13" font-family="Helvetica,sans-Serif" font-size="10.00">pwd.h</text>
</a>
</g>
</g>
<!-- Node11&#45;&gt;Node19 -->
<g id="edge21" class="edge">
<title>Node11&#45;&gt;Node19</title>
<path fill="none" stroke="midnightblue" d="M630.16,-67.69C605.62,-59 566.36,-44.74 533,-31 531.59,-30.42 530.15,-29.81 528.7,-29.19"/>
<polygon fill="midnightblue" stroke="midnightblue" points="529.74,-25.83 519.18,-25 526.92,-32.23 529.74,-25.83"/>
</g>
<!-- Node20 -->
<g id="node20" class="node">
<title>Node20</title>
<g id="a_node20"><a xlink:title=" ">
<polygon fill="white" stroke="#bfbfbf" points="542,-6 542,-25 614,-25 614,-6 542,-6"/>
<text text-anchor="middle" x="578" y="-13" font-family="Helvetica,sans-Serif" font-size="10.00">sys/types.h</text>
</a>
</g>
</g>
<!-- Node11&#45;&gt;Node20 -->
<g id="edge22" class="edge">
<title>Node11&#45;&gt;Node20</title>
<path fill="none" stroke="midnightblue" d="M643.11,-67.48C631.03,-58.02 611.33,-42.6 596.76,-31.19"/>
<polygon fill="midnightblue" stroke="midnightblue" points="598.9,-28.42 588.87,-25.01 594.59,-33.93 598.9,-28.42"/>
</g>
<!-- Node21 -->
<g id="node21" class="node">
<title>Node21</title>
<g id="a_node21"><a xlink:title=" ">
<polygon fill="white" stroke="#bfbfbf" points="632,-6 632,-25 688,-25 688,-6 632,-6"/>
<text text-anchor="middle" x="660" y="-13" font-family="Helvetica,sans-Serif" font-size="10.00">unistd.h</text>
</a>
</g>
</g>
<!-- Node11&#45;&gt;Node21 -->
<g id="edge23" class="edge">
<title>Node11&#45;&gt;Node21</title>
<path fill="none" stroke="midnightblue" d="M654.86,-67.48C655.71,-59.08 657.03,-45.98 658.12,-35.16"/>
<polygon fill="midnightblue" stroke="midnightblue" points="661.62,-35.31 659.14,-25.01 654.66,-34.61 661.62,-35.31"/>
</g>
</g>
</svg>
        <g id="navigator" transform="translate(0 0)" fill="#404254">
                <rect fill="#f2f5e9" fill-opacity="0.5" stroke="#606060" stroke-width=".5" x="0" y="0" width="60" height="60"/>
                <use id="zoomplus" xlink:href="#zoomPlus" x="17" y="9" onmousedown="handleZoom(evt,'in')"/>
                <use id="zoomminus" xlink:href="#zoomMin" x="42" y="9" onmousedown="handleZoom(evt,'out')"/>
                <use id="reset" xlink:href="#resetDef" x="30" y="36" onmousedown="handleReset()"/>
                <g id="arrowUp" xlink:href="#dirArrow" transform="translate(30 24)" onmousedown="handlePan(0,-1)">
                  <use xlink:href="#rim" fill="#404040">
                        <set attributeName="fill" to="#808080" begin="arrowUp.mouseover" end="arrowUp.mouseout"/>
                  </use>
                  <path fill="none" stroke="white" stroke-width="1.5" d="M0,-3.0v7 M-2.5,-0.5L0,-3.0L2.5,-0.5"/>
                </g>
                <g id="arrowRight" xlink:href="#dirArrow" transform="rotate(90) translate(36 -43)" onmousedown="handlePan(1,0)">
                  <use xlink:href="#rim" fill="#404040">
                        <set attributeName="fill" to="#808080" begin="arrowRight.mouseover" end="arrowRight.mouseout"/>
                  </use>
                  <path fill="none" stroke="white" stroke-width="1.5" d="M0,-3.0v7 M-2.5,-0.5L0,-3.0L2.5,-0.5"/>
                </g>
                <g id="arrowDown" xlink:href="#dirArrow" transform="rotate(180) translate(-30 -48)" onmousedown="handlePan(0,1)">
                  <use xlink:href="#rim" fill="#404040">
                        <set attributeName="fill" to="#808080" begin="arrowDown.mouseover" end="arrowDown.mouseout"/>
                  </use>
                  <path fill="none" stroke="white" stroke-width="1.5" d="M0,-3.0v7 M-2.5,-0.5L0,-3.0L2.5,-0.5"/>
                </g>
                <g id="arrowLeft" xlink:href="#dirArrow" transform="rotate(270) translate(-36 17)" onmousedown="handlePan(-1,0)">
                  <use xlink:href="#rim" fill="#404040">
                        <set attributeName="fill" to="#808080" begin="arrowLeft.mouseover" end="arrowLeft.mouseout"/>
                  </use>
                  <path fill="none" stroke="white" stroke-width="1.5" d="M0,-3.0v7 M-2.5,-0.5L0,-3.0L2.5,-0.5"/>
                </g>
        </g>
        <svg viewBox="0 0 15 15" width="100%" height="30px" preserveAspectRatio="xMaxYMin meet">
         <g id="arrow_out" transform="scale(0.3 0.3)">
          <a xlink:href="type__track_8h__incl_org.svg" target="_base">
           <rect id="button" ry="5" rx="5" y="6" x="6" height="38" width="38"
                fill="#f2f5e9" fill-opacity="0.5" stroke="#606060" stroke-width="1.0"/>
           <path id="arrow"
             d="M 11.500037,31.436501 C 11.940474,20.09759 22.043105,11.32322 32.158766,21.979434 L 37.068811,17.246167 C 37.068811,17.246167 37.088388,32 37.088388,32 L 22.160133,31.978069 C 22.160133,31.978069 26.997745,27.140456 26.997745,27.140456 C 18.528582,18.264221 13.291696,25.230495 11.500037,31.436501 z"
             style="fill:#404040;"/>
          </a>
         </g>
        </svg>
</svg>
