<?xml version="1.0" encoding="UTF-8" standalone="no"?>
<!DOCTYPE svg PUBLIC "-//W3C//DTD SVG 1.1//EN"
 "http://www.w3.org/Graphics/SVG/1.1/DTD/svg11.dtd">
<!-- Generated by graphviz version 2.43.0 (0)
 -->
<!-- Title: include/export/type_track.h Pages: 1 -->
<!--zoomable 274 -->
<svg id="main" version="1.1" xmlns="http://www.w3.org/2000/svg" xmlns:xlink="http://www.w3.org/1999/xlink" xml:space="preserve" onload="init(evt)">
<style type="text/css"><![CDATA[
.edge:hover path { stroke: red; }
.edge:hover polygon { stroke: red; fill: red; }
]]></style>
<script type="text/javascript"><![CDATA[
var edges = document.getElementsByTagName('g');
if (edges && edges.length) {
  for (var i=0;i<edges.length;i++) {
    if (edges[i].id.substr(0,4)=='edge') {
      edges[i].setAttribute('class','edge');
    }
  }
}
]]></script>
        <defs>
                <circle id="rim" cx="0" cy="0" r="7"/>
                <circle id="rim2" cx="0" cy="0" r="3.5"/>
                <g id="zoomPlus">
                        <use xlink:href="#rim" fill="#404040">
                                <set attributeName="fill" to="#808080" begin="zoomplus.mouseover" end="zoomplus.mouseout"/>
                        </use>
                        <path d="M-4,0h8M0,-4v8" fill="none" stroke="white" stroke-width="1.5" pointer-events="none"/>
                </g>
                <g id="zoomMin">
                        <use xlink:href="#rim" fill="#404040">
                                <set attributeName="fill" to="#808080" begin="zoomminus.mouseover" end="zoomminus.mouseout"/>
                        </use>
                        <path d="M-4,0h8" fill="none" stroke="white" stroke-width="1.5" pointer-events="none"/>
                </g>
                <g id="dirArrow">
                        <path fill="none" stroke="white" stroke-width="1.5" d="M0,-3.0v7 M-2.5,-0.5L0,-3.0L2.5,-0.5"/>
                </g>
               <g id="resetDef">
                       <use xlink:href="#rim2" fill="#404040">
                               <set attributeName="fill" to="#808080" begin="reset.mouseover" end="reset.mouseout"/>
                       </use>
               </g>
        </defs>

<script type="text/javascript">
var viewWidth = 948;
var viewHeight = 274;
var sectionId = 'dynsection-0';
</script>
<script xlink:href="svgpan.js"/>
<svg id="graph" class="graph">
<g id="viewport">
<title>include/export/type_track.h</title>
<polygon fill="white" stroke="transparent" points="-4,4 -4,-270 943.5,-270 943.5,4 -4,4"/>
<!-- Node1 -->
<g id="node1" class="node">
<title>Node1</title>
<g id="a_node1"><a xlink:title="Track data type of variables.">
<polygon fill="#bfbfbf" stroke="black" points="624.5,-235.5 624.5,-265.5 735.5,-265.5 735.5,-235.5 624.5,-235.5"/>
<text text-anchor="start" x="632.5" y="-253.5" font-family="Helvetica,sans-Serif" font-size="10.00">include/export/type</text>
<text text-anchor="middle" x="680" y="-242.5" font-family="Helvetica,sans-Serif" font-size="10.00">_track.h</text>
</a>
</g>
</g>
<!-- Node2 -->
<g id="node2" class="node">
<title>Node2</title>
<g id="a_node2"><a xlink:href="type_8h.html" target="_top" xlink:title="Type Specification in Alg.">
<polygon fill="white" stroke="black" points="98,-179.5 98,-198.5 180,-198.5 180,-179.5 98,-179.5"/>
<text text-anchor="middle" x="139" y="-186.5" font-family="Helvetica,sans-Serif" font-size="10.00">export/type.h</text>
</a>
</g>
</g>
<!-- Node1&#45;&gt;Node2 -->
<g id="edge1" class="edge">
<title>Node1&#45;&gt;Node2</title>
<path fill="none" stroke="midnightblue" d="M624.39,-243.38C519.08,-231.8 291.97,-206.82 190.17,-195.63"/>
<polygon fill="midnightblue" stroke="midnightblue" points="190.46,-192.14 180.14,-194.52 189.7,-199.1 190.46,-192.14"/>
</g>
<!-- Node5 -->
<g id="node5" class="node">
<title>Node5</title>
<g id="a_node5"><a xlink:href="log__global_8h.html" target="_top" xlink:title="Global Access of Log.">
<polygon fill="white" stroke="black" points="475,-179.5 475,-198.5 551,-198.5 551,-179.5 475,-179.5"/>
<text text-anchor="middle" x="513" y="-186.5" font-family="Helvetica,sans-Serif" font-size="10.00">log_global.h</text>
</a>
</g>
</g>
<!-- Node1&#45;&gt;Node5 -->
<g id="edge4" class="edge">
<title>Node1&#45;&gt;Node5</title>
<path fill="none" stroke="midnightblue" d="M640.42,-235.4C611.9,-225.24 573.83,-211.67 546.74,-202.02"/>
<polygon fill="midnightblue" stroke="midnightblue" points="547.89,-198.72 537.3,-198.66 545.55,-205.31 547.89,-198.72"/>
</g>
<!-- Node10 -->
<g id="node10" class="node">
<title>Node10</title>
<g id="a_node10"><a xlink:title=" ">
<polygon fill="white" stroke="#bfbfbf" points="0,-6 0,-25 60,-25 60,-6 0,-6"/>
<text text-anchor="middle" x="30" y="-13" font-family="Helvetica,sans-Serif" font-size="10.00">iostream</text>
</a>
</g>
</g>
<!-- Node1&#45;&gt;Node10 -->
<g id="edge28" class="edge">
<title>Node1&#45;&gt;Node10</title>
<path fill="none" stroke="midnightblue" d="M624.46,-247.79C485.89,-243.08 132.91,-228.34 89,-199 34.55,-162.62 28.94,-74.44 29.26,-35.51"/>
<polygon fill="midnightblue" stroke="midnightblue" points="32.77,-35.2 29.51,-25.12 25.77,-35.04 32.77,-35.2"/>
</g>
<!-- Node16 -->
<g id="node16" class="node">
<title>Node16</title>
<g id="a_node16"><a xlink:title=" ">
<polygon fill="white" stroke="#bfbfbf" points="892.5,-6 892.5,-25 939.5,-25 939.5,-6 892.5,-6"/>
<text text-anchor="middle" x="916" y="-13" font-family="Helvetica,sans-Serif" font-size="10.00">vector</text>
</a>
</g>
</g>
<!-- Node1&#45;&gt;Node16 -->
<g id="edge32" class="edge">
<title>Node1&#45;&gt;Node16</title>
<path fill="none" stroke="midnightblue" d="M681.32,-235.4C683.31,-220.3 688.2,-196.21 700,-179 749.8,-106.38 842.65,-52.91 888.68,-29.53"/>
<polygon fill="midnightblue" stroke="midnightblue" points="890.37,-32.6 897.76,-25.01 887.25,-26.34 890.37,-32.6"/>
</g>
<!-- Node26 -->
<g id="node26" class="node">
<title>Node26</title>
<g id="a_node26"><a xlink:title=" ">
<polygon fill="white" stroke="#bfbfbf" points="708.5,-179.5 708.5,-198.5 751.5,-198.5 751.5,-179.5 708.5,-179.5"/>
<text text-anchor="middle" x="730" y="-186.5" font-family="Helvetica,sans-Serif" font-size="10.00">stack</text>
</a>
</g>
</g>
<!-- Node1&#45;&gt;Node26 -->
<g id="edge29" class="edge">
<title>Node1&#45;&gt;Node26</title>
<path fill="none" stroke="midnightblue" d="M691.85,-235.4C699.11,-226.75 708.45,-215.64 716.07,-206.58"/>
<polygon fill="midnightblue" stroke="midnightblue" points="718.97,-208.57 722.72,-198.66 713.61,-204.06 718.97,-208.57"/>
</g>
<!-- Node27 -->
<g id="node27" class="node">
<title>Node27</title>
<g id="a_node27"><a xlink:title=" ">
<polygon fill="white" stroke="#bfbfbf" points="769.5,-179.5 769.5,-198.5 834.5,-198.5 834.5,-179.5 769.5,-179.5"/>
<text text-anchor="middle" x="802" y="-186.5" font-family="Helvetica,sans-Serif" font-size="10.00">stdexcept</text>
</a>
</g>
</g>
<!-- Node1&#45;&gt;Node27 -->
<g id="edge30" class="edge">
<title>Node1&#45;&gt;Node27</title>
<path fill="none" stroke="midnightblue" d="M708.91,-235.4C729.02,-225.59 755.62,-212.62 775.24,-203.05"/>
<polygon fill="midnightblue" stroke="midnightblue" points="776.79,-206.19 784.25,-198.66 773.73,-199.9 776.79,-206.19"/>
</g>
<!-- Node28 -->
<g id="node28" class="node">
<title>Node28</title>
<g id="a_node28"><a xlink:title=" ">
<polygon fill="white" stroke="#bfbfbf" points="852.5,-179.5 852.5,-198.5 897.5,-198.5 897.5,-179.5 852.5,-179.5"/>
<text text-anchor="middle" x="875" y="-186.5" font-family="Helvetica,sans-Serif" font-size="10.00">utility</text>
</a>
</g>
</g>
<!-- Node1&#45;&gt;Node28 -->
<g id="edge31" class="edge">
<title>Node1&#45;&gt;Node28</title>
<path fill="none" stroke="midnightblue" d="M726.21,-235.4C762.09,-224.45 810.91,-209.56 842.69,-199.86"/>
<polygon fill="midnightblue" stroke="midnightblue" points="843.82,-203.17 852.37,-196.91 841.78,-196.48 843.82,-203.17"/>
</g>
<!-- Node3 -->
<g id="node3" class="node">
<title>Node3</title>
<g id="a_node3"><a xlink:title=" ">
<polygon fill="white" stroke="#bfbfbf" points="146,-6 146,-25 190,-25 190,-6 146,-6"/>
<text text-anchor="middle" x="168" y="-13" font-family="Helvetica,sans-Serif" font-size="10.00">string</text>
</a>
</g>
</g>
<!-- Node2&#45;&gt;Node3 -->
<g id="edge2" class="edge">
<title>Node2&#45;&gt;Node3</title>
<path fill="none" stroke="midnightblue" d="M140.22,-179.47C143.08,-159.68 150.53,-109.08 158,-67 159.89,-56.37 162.22,-44.54 164.15,-34.99"/>
<polygon fill="midnightblue" stroke="midnightblue" points="167.61,-35.56 166.2,-25.06 160.76,-34.15 167.61,-35.56"/>
</g>
<!-- Node4 -->
<g id="node4" class="node">
<title>Node4</title>
<g id="a_node4"><a xlink:title=" ">
<polygon fill="white" stroke="#bfbfbf" points="69.5,-123.5 69.5,-142.5 110.5,-142.5 110.5,-123.5 69.5,-123.5"/>
<text text-anchor="middle" x="90" y="-130.5" font-family="Helvetica,sans-Serif" font-size="10.00">tuple</text>
</a>
</g>
</g>
<!-- Node2&#45;&gt;Node4 -->
<g id="edge3" class="edge">
<title>Node2&#45;&gt;Node4</title>
<path fill="none" stroke="midnightblue" d="M130.91,-179.08C123.84,-171.3 113.41,-159.8 104.85,-150.37"/>
<polygon fill="midnightblue" stroke="midnightblue" points="107.25,-147.8 97.94,-142.75 102.07,-152.51 107.25,-147.8"/>
</g>
<!-- Node6 -->
<g id="node6" class="node">
<title>Node6</title>
<g id="a_node6"><a xlink:href="include_2log_8h.html" target="_top" xlink:title="Log Utilities.">
<polygon fill="white" stroke="black" points="392.5,-123.5 392.5,-142.5 433.5,-142.5 433.5,-123.5 392.5,-123.5"/>
<text text-anchor="middle" x="413" y="-130.5" font-family="Helvetica,sans-Serif" font-size="10.00">log.h</text>
</a>
</g>
</g>
<!-- Node5&#45;&gt;Node6 -->
<g id="edge5" class="edge">
<title>Node5&#45;&gt;Node6</title>
<path fill="none" stroke="midnightblue" d="M496.93,-179.32C481.04,-170.74 456.49,-157.49 438.04,-147.52"/>
<polygon fill="midnightblue" stroke="midnightblue" points="439.49,-144.33 429.03,-142.65 436.16,-150.49 439.49,-144.33"/>
</g>
<!-- Node7 -->
<g id="node7" class="node">
<title>Node7</title>
<g id="a_node7"><a xlink:href="meta_8h.html" target="_top" xlink:title="mmCEsim meta data">
<polygon fill="white" stroke="black" points="167.5,-67.5 167.5,-86.5 218.5,-86.5 218.5,-67.5 167.5,-67.5"/>
<text text-anchor="middle" x="193" y="-74.5" font-family="Helvetica,sans-Serif" font-size="10.00">meta.h</text>
</a>
</g>
</g>
<!-- Node6&#45;&gt;Node7 -->
<g id="edge6" class="edge">
<title>Node6&#45;&gt;Node7</title>
<path fill="none" stroke="midnightblue" d="M392.45,-127.09C359.88,-119.3 294.19,-103.5 228.32,-87.05"/>
<polygon fill="midnightblue" stroke="midnightblue" points="229.15,-83.66 218.6,-84.63 227.46,-90.45 229.15,-83.66"/>
</g>
<!-- Node8 -->
<g id="node8" class="node">
<title>Node8</title>
<g id="a_node8"><a xlink:href="term_8h.html" target="_top" xlink:title="Terminal Color and Style Control.">
<polygon fill="white" stroke="black" points="61.5,-67.5 61.5,-86.5 110.5,-86.5 110.5,-67.5 61.5,-67.5"/>
<text text-anchor="middle" x="86" y="-74.5" font-family="Helvetica,sans-Serif" font-size="10.00">term.h</text>
</a>
</g>
</g>
<!-- Node6&#45;&gt;Node8 -->
<g id="edge8" class="edge">
<title>Node6&#45;&gt;Node8</title>
<path fill="none" stroke="midnightblue" d="M392.05,-128.54C337.19,-119.48 188.9,-94.99 120.91,-83.77"/>
<polygon fill="midnightblue" stroke="midnightblue" points="121.16,-80.26 110.72,-82.08 120.01,-87.16 121.16,-80.26"/>
</g>
<!-- Node11 -->
<g id="node11" class="node">
<title>Node11</title>
<g id="a_node11"><a xlink:href="utils_8h.html" target="_top" xlink:title="Utilities.">
<polygon fill="white" stroke="black" points="604.5,-67.5 604.5,-86.5 651.5,-86.5 651.5,-67.5 604.5,-67.5"/>
<text text-anchor="middle" x="628" y="-74.5" font-family="Helvetica,sans-Serif" font-size="10.00">utils.h</text>
</a>
</g>
</g>
<!-- Node6&#45;&gt;Node11 -->
<g id="edge12" class="edge">
<title>Node6&#45;&gt;Node11</title>
<path fill="none" stroke="midnightblue" d="M433.64,-127.16C465.93,-119.54 530.59,-104.07 594.44,-87.36"/>
<polygon fill="midnightblue" stroke="midnightblue" points="595.48,-90.7 604.26,-84.77 593.7,-83.93 595.48,-90.7"/>
</g>
<!-- Node21 -->
<g id="node21" class="node">
<title>Node21</title>
<g id="a_node21"><a xlink:title=" ">
<polygon fill="white" stroke="#bfbfbf" points="237,-67.5 237,-86.5 281,-86.5 281,-67.5 237,-67.5"/>
<text text-anchor="middle" x="259" y="-74.5" font-family="Helvetica,sans-Serif" font-size="10.00">ctime</text>
</a>
</g>
</g>
<!-- Node6&#45;&gt;Node21 -->
<g id="edge23" class="edge">
<title>Node6&#45;&gt;Node21</title>
<path fill="none" stroke="midnightblue" d="M392.23,-124.72C366.19,-115.59 321.29,-99.84 290.89,-89.18"/>
<polygon fill="midnightblue" stroke="midnightblue" points="291.78,-85.78 281.18,-85.78 289.46,-92.39 291.78,-85.78"/>
</g>
<!-- Node22 -->
<g id="node22" class="node">
<title>Node22</title>
<g id="a_node22"><a xlink:title=" ">
<polygon fill="white" stroke="#bfbfbf" points="299,-67.5 299,-86.5 367,-86.5 367,-67.5 299,-67.5"/>
<text text-anchor="middle" x="333" y="-74.5" font-family="Helvetica,sans-Serif" font-size="10.00">filesystem</text>
</a>
</g>
</g>
<!-- Node6&#45;&gt;Node22 -->
<g id="edge24" class="edge">
<title>Node6&#45;&gt;Node22</title>
<path fill="none" stroke="midnightblue" d="M400.15,-123.32C387.78,-114.98 368.87,-102.21 354.26,-92.35"/>
<polygon fill="midnightblue" stroke="midnightblue" points="356.07,-89.35 345.82,-86.65 352.15,-95.15 356.07,-89.35"/>
</g>
<!-- Node23 -->
<g id="node23" class="node">
<title>Node23</title>
<g id="a_node23"><a xlink:title=" ">
<polygon fill="white" stroke="#bfbfbf" points="385.5,-67.5 385.5,-86.5 440.5,-86.5 440.5,-67.5 385.5,-67.5"/>
<text text-anchor="middle" x="413" y="-74.5" font-family="Helvetica,sans-Serif" font-size="10.00">fstream</text>
</a>
</g>
</g>
<!-- Node6&#45;&gt;Node23 -->
<g id="edge25" class="edge">
<title>Node6&#45;&gt;Node23</title>
<path fill="none" stroke="midnightblue" d="M413,-123.08C413,-116.01 413,-105.86 413,-96.99"/>
<polygon fill="midnightblue" stroke="midnightblue" points="416.5,-96.75 413,-86.75 409.5,-96.75 416.5,-96.75"/>
</g>
<!-- Node24 -->
<g id="node24" class="node">
<title>Node24</title>
<g id="a_node24"><a xlink:title=" ">
<polygon fill="white" stroke="#bfbfbf" points="459,-67.5 459,-86.5 515,-86.5 515,-67.5 459,-67.5"/>
<text text-anchor="middle" x="487" y="-74.5" font-family="Helvetica,sans-Serif" font-size="10.00">iomanip</text>
</a>
</g>
</g>
<!-- Node6&#45;&gt;Node24 -->
<g id="edge26" class="edge">
<title>Node6&#45;&gt;Node24</title>
<path fill="none" stroke="midnightblue" d="M424.89,-123.32C436.15,-115.11 453.29,-102.6 466.71,-92.81"/>
<polygon fill="midnightblue" stroke="midnightblue" points="468.88,-95.56 474.89,-86.83 464.75,-89.9 468.88,-95.56"/>
</g>
<!-- Node25 -->
<g id="node25" class="node">
<title>Node25</title>
<g id="a_node25"><a xlink:title=" ">
<polygon fill="white" stroke="#bfbfbf" points="533.5,-67.5 533.5,-86.5 586.5,-86.5 586.5,-67.5 533.5,-67.5"/>
<text text-anchor="middle" x="560" y="-74.5" font-family="Helvetica,sans-Serif" font-size="10.00">spy.hpp</text>
</a>
</g>
</g>
<!-- Node6&#45;&gt;Node25 -->
<g id="edge27" class="edge">
<title>Node6&#45;&gt;Node25</title>
<path fill="none" stroke="midnightblue" d="M433.75,-124.38C457.96,-115.48 498.31,-100.66 526.87,-90.17"/>
<polygon fill="midnightblue" stroke="midnightblue" points="528.26,-93.39 536.44,-86.65 525.85,-86.82 528.26,-93.39"/>
</g>
<!-- Node7&#45;&gt;Node3 -->
<g id="edge7" class="edge">
<title>Node7&#45;&gt;Node3</title>
<path fill="none" stroke="midnightblue" d="M189.42,-67.48C185.82,-58.9 180.15,-45.43 175.56,-34.48"/>
<polygon fill="midnightblue" stroke="midnightblue" points="178.68,-32.87 171.58,-25.01 172.22,-35.58 178.68,-32.87"/>
</g>
<!-- Node8&#45;&gt;Node3 -->
<g id="edge11" class="edge">
<title>Node8&#45;&gt;Node3</title>
<path fill="none" stroke="midnightblue" d="M97.75,-67.48C110.78,-58.02 132.04,-42.6 147.76,-31.19"/>
<polygon fill="midnightblue" stroke="midnightblue" points="150.23,-33.71 156.27,-25.01 146.12,-28.05 150.23,-33.71"/>
</g>
<!-- Node9 -->
<g id="node9" class="node">
<title>Node9</title>
<g id="a_node9"><a xlink:title=" ">
<polygon fill="white" stroke="#bfbfbf" points="78.5,-6 78.5,-25 127.5,-25 127.5,-6 78.5,-6"/>
<text text-anchor="middle" x="103" y="-13" font-family="Helvetica,sans-Serif" font-size="10.00">cstdlib</text>
</a>
</g>
</g>
<!-- Node8&#45;&gt;Node9 -->
<g id="edge9" class="edge">
<title>Node8&#45;&gt;Node9</title>
<path fill="none" stroke="midnightblue" d="M88.44,-67.48C90.86,-58.99 94.66,-45.7 97.77,-34.82"/>
<polygon fill="midnightblue" stroke="midnightblue" points="101.19,-35.59 100.57,-25.01 94.46,-33.66 101.19,-35.59"/>
</g>
<!-- Node8&#45;&gt;Node10 -->
<g id="edge10" class="edge">
<title>Node8&#45;&gt;Node10</title>
<path fill="none" stroke="midnightblue" d="M77.98,-67.48C69.41,-58.37 55.64,-43.74 45.04,-32.48"/>
<polygon fill="midnightblue" stroke="midnightblue" points="47.41,-29.89 38.01,-25.01 42.31,-34.69 47.41,-29.89"/>
</g>
<!-- Node11&#45;&gt;Node3 -->
<g id="edge17" class="edge">
<title>Node11&#45;&gt;Node3</title>
<path fill="none" stroke="midnightblue" d="M604.35,-68.83C601.55,-68.13 598.72,-67.5 596,-67 421.77,-34.88 370.03,-77.23 199,-31 197.06,-30.48 195.1,-29.84 193.15,-29.13"/>
<polygon fill="midnightblue" stroke="midnightblue" points="194.26,-25.8 183.69,-25.12 191.53,-32.24 194.26,-25.8"/>
</g>
<!-- Node12 -->
<g id="node12" class="node">
<title>Node12</title>
<g id="a_node12"><a xlink:title=" ">
<polygon fill="white" stroke="#bfbfbf" points="596,-6 596,-25 660,-25 660,-6 596,-6"/>
<text text-anchor="middle" x="628" y="-13" font-family="Helvetica,sans-Serif" font-size="10.00">algorithm</text>
</a>
</g>
</g>
<!-- Node11&#45;&gt;Node12 -->
<g id="edge13" class="edge">
<title>Node11&#45;&gt;Node12</title>
<path fill="none" stroke="midnightblue" d="M628,-67.48C628,-59.08 628,-45.98 628,-35.16"/>
<polygon fill="midnightblue" stroke="midnightblue" points="631.5,-35.01 628,-25.01 624.5,-35.01 631.5,-35.01"/>
</g>
<!-- Node13 -->
<g id="node13" class="node">
<title>Node13</title>
<g id="a_node13"><a xlink:title=" ">
<polygon fill="white" stroke="#bfbfbf" points="678.5,-6 678.5,-25 727.5,-25 727.5,-6 678.5,-6"/>
<text text-anchor="middle" x="703" y="-13" font-family="Helvetica,sans-Serif" font-size="10.00">cctype</text>
</a>
</g>
</g>
<!-- Node11&#45;&gt;Node13 -->
<g id="edge14" class="edge">
<title>Node11&#45;&gt;Node13</title>
<path fill="none" stroke="midnightblue" d="M638.75,-67.48C650.55,-58.11 669.74,-42.88 684.08,-31.51"/>
<polygon fill="midnightblue" stroke="midnightblue" points="686.62,-33.97 692.27,-25.01 682.26,-28.48 686.62,-33.97"/>
</g>
<!-- Node14 -->
<g id="node14" class="node">
<title>Node14</title>
<g id="a_node14"><a xlink:title=" ">
<polygon fill="white" stroke="#bfbfbf" points="746,-6 746,-25 800,-25 800,-6 746,-6"/>
<text text-anchor="middle" x="773" y="-13" font-family="Helvetica,sans-Serif" font-size="10.00">random</text>
</a>
</g>
</g>
<!-- Node11&#45;&gt;Node14 -->
<g id="edge15" class="edge">
<title>Node11&#45;&gt;Node14</title>
<path fill="none" stroke="midnightblue" d="M648.77,-67.48C673.43,-57.36 714.75,-40.4 742.9,-28.85"/>
<polygon fill="midnightblue" stroke="midnightblue" points="744.34,-32.04 752.26,-25.01 741.68,-25.57 744.34,-32.04"/>
</g>
<!-- Node15 -->
<g id="node15" class="node">
<title>Node15</title>
<g id="a_node15"><a xlink:title=" ">
<polygon fill="white" stroke="#bfbfbf" points="818,-6 818,-25 874,-25 874,-6 818,-6"/>
<text text-anchor="middle" x="846" y="-13" font-family="Helvetica,sans-Serif" font-size="10.00">sstream</text>
</a>
</g>
</g>
<!-- Node11&#45;&gt;Node15 -->
<g id="edge16" class="edge">
<title>Node11&#45;&gt;Node15</title>
<path fill="none" stroke="midnightblue" d="M651.72,-70.28C697.31,-59.27 794,-35.78 809,-31 811.27,-30.28 813.61,-29.48 815.95,-28.65"/>
<polygon fill="midnightblue" stroke="midnightblue" points="817.28,-31.89 825.43,-25.11 814.83,-25.33 817.28,-31.89"/>
</g>
<!-- Node11&#45;&gt;Node16 -->
<g id="edge18" class="edge">
<title>Node11&#45;&gt;Node16</title>
<path fill="none" stroke="midnightblue" d="M651.66,-70.13C656.4,-69.03 661.35,-67.94 666,-67 761.84,-47.72 789.3,-58.88 883,-31 885.14,-30.36 887.33,-29.62 889.51,-28.81"/>
<polygon fill="midnightblue" stroke="midnightblue" points="890.9,-32.03 898.84,-25.01 888.26,-25.55 890.9,-32.03"/>
</g>
<!-- Node17 -->
<g id="node17" class="node">
<title>Node17</title>
<g id="a_node17"><a xlink:title=" ">
<polygon fill="white" stroke="#bfbfbf" points="208.5,-0.5 208.5,-30.5 349.5,-30.5 349.5,-0.5 208.5,-0.5"/>
<text text-anchor="start" x="216.5" y="-18.5" font-family="Helvetica,sans-Serif" font-size="10.00">boost/dll/runtime_symbol</text>
<text text-anchor="middle" x="279" y="-7.5" font-family="Helvetica,sans-Serif" font-size="10.00">_info.hpp</text>
</a>
</g>
</g>
<!-- Node11&#45;&gt;Node17 -->
<g id="edge19" class="edge">
<title>Node11&#45;&gt;Node17</title>
<path fill="none" stroke="midnightblue" d="M604.32,-68.99C601.53,-68.27 598.71,-67.58 596,-67 495.01,-45.21 465.84,-48.29 359.81,-31.09"/>
<polygon fill="midnightblue" stroke="midnightblue" points="360.09,-27.59 349.65,-29.42 358.95,-34.5 360.09,-27.59"/>
</g>
<!-- Node18 -->
<g id="node18" class="node">
<title>Node18</title>
<g id="a_node18"><a xlink:title=" ">
<polygon fill="white" stroke="#bfbfbf" points="368,-6 368,-25 414,-25 414,-6 368,-6"/>
<text text-anchor="middle" x="391" y="-13" font-family="Helvetica,sans-Serif" font-size="10.00">pwd.h</text>
</a>
</g>
</g>
<!-- Node11&#45;&gt;Node18 -->
<g id="edge20" class="edge">
<title>Node11&#45;&gt;Node18</title>
<path fill="none" stroke="midnightblue" d="M604.28,-69.13C601.5,-68.38 598.69,-67.66 596,-67 519.71,-48.36 497.66,-55.35 423,-31 421.13,-30.39 419.22,-29.7 417.32,-28.97"/>
<polygon fill="midnightblue" stroke="midnightblue" points="418.57,-25.7 408,-25.04 415.85,-32.15 418.57,-25.7"/>
</g>
<!-- Node19 -->
<g id="node19" class="node">
<title>Node19</title>
<g id="a_node19"><a xlink:title=" ">
<polygon fill="white" stroke="#bfbfbf" points="432,-6 432,-25 504,-25 504,-6 432,-6"/>
<text text-anchor="middle" x="468" y="-13" font-family="Helvetica,sans-Serif" font-size="10.00">sys/types.h</text>
</a>
</g>
</g>
<!-- Node11&#45;&gt;Node19 -->
<g id="edge21" class="edge">
<title>Node11&#45;&gt;Node19</title>
<path fill="none" stroke="midnightblue" d="M605.08,-67.48C577.63,-57.27 531.48,-40.11 500.4,-28.55"/>
<polygon fill="midnightblue" stroke="midnightblue" points="501.47,-25.21 490.88,-25.01 499.03,-31.78 501.47,-25.21"/>
</g>
<!-- Node20 -->
<g id="node20" class="node">
<title>Node20</title>
<g id="a_node20"><a xlink:title=" ">
<polygon fill="white" stroke="#bfbfbf" points="522,-6 522,-25 578,-25 578,-6 522,-6"/>
<text text-anchor="middle" x="550" y="-13" font-family="Helvetica,sans-Serif" font-size="10.00">unistd.h</text>
</a>
</g>
</g>
<!-- Node11&#45;&gt;Node20 -->
<g id="edge22" class="edge">
<title>Node11&#45;&gt;Node20</title>
<path fill="none" stroke="midnightblue" d="M616.82,-67.48C604.43,-58.02 584.21,-42.6 569.25,-31.19"/>
<polygon fill="midnightblue" stroke="midnightblue" points="571.23,-28.29 561.15,-25.01 566.98,-33.86 571.23,-28.29"/>
</g>
</g>
</svg>
        <g id="navigator" transform="translate(0 0)" fill="#404254">
                <rect fill="#f2f5e9" fill-opacity="0.5" stroke="#606060" stroke-width=".5" x="0" y="0" width="60" height="60"/>
                <use id="zoomplus" xlink:href="#zoomPlus" x="17" y="9" onmousedown="handleZoom(evt,'in')"/>
                <use id="zoomminus" xlink:href="#zoomMin" x="42" y="9" onmousedown="handleZoom(evt,'out')"/>
                <use id="reset" xlink:href="#resetDef" x="30" y="36" onmousedown="handleReset()"/>
                <g id="arrowUp" xlink:href="#dirArrow" transform="translate(30 24)" onmousedown="handlePan(0,-1)">
                  <use xlink:href="#rim" fill="#404040">
                        <set attributeName="fill" to="#808080" begin="arrowUp.mouseover" end="arrowUp.mouseout"/>
                  </use>
                  <path fill="none" stroke="white" stroke-width="1.5" d="M0,-3.0v7 M-2.5,-0.5L0,-3.0L2.5,-0.5"/>
                </g>
                <g id="arrowRight" xlink:href="#dirArrow" transform="rotate(90) translate(36 -43)" onmousedown="handlePan(1,0)">
                  <use xlink:href="#rim" fill="#404040">
                        <set attributeName="fill" to="#808080" begin="arrowRight.mouseover" end="arrowRight.mouseout"/>
                  </use>
                  <path fill="none" stroke="white" stroke-width="1.5" d="M0,-3.0v7 M-2.5,-0.5L0,-3.0L2.5,-0.5"/>
                </g>
                <g id="arrowDown" xlink:href="#dirArrow" transform="rotate(180) translate(-30 -48)" onmousedown="handlePan(0,1)">
                  <use xlink:href="#rim" fill="#404040">
                        <set attributeName="fill" to="#808080" begin="arrowDown.mouseover" end="arrowDown.mouseout"/>
                  </use>
                  <path fill="none" stroke="white" stroke-width="1.5" d="M0,-3.0v7 M-2.5,-0.5L0,-3.0L2.5,-0.5"/>
                </g>
                <g id="arrowLeft" xlink:href="#dirArrow" transform="rotate(270) translate(-36 17)" onmousedown="handlePan(-1,0)">
                  <use xlink:href="#rim" fill="#404040">
                        <set attributeName="fill" to="#808080" begin="arrowLeft.mouseover" end="arrowLeft.mouseout"/>
                  </use>
                  <path fill="none" stroke="white" stroke-width="1.5" d="M0,-3.0v7 M-2.5,-0.5L0,-3.0L2.5,-0.5"/>
                </g>
        </g>
        <svg viewBox="0 0 15 15" width="100%" height="30px" preserveAspectRatio="xMaxYMin meet">
         <g id="arrow_out" transform="scale(0.3 0.3)">
          <a xlink:href="type__track_8h__incl_org.svg" target="_base">
           <rect id="button" ry="5" rx="5" y="6" x="6" height="38" width="38"
                fill="#f2f5e9" fill-opacity="0.5" stroke="#606060" stroke-width="1.0"/>
           <path id="arrow"
             d="M 11.500037,31.436501 C 11.940474,20.09759 22.043105,11.32322 32.158766,21.979434 L 37.068811,17.246167 C 37.068811,17.246167 37.088388,32 37.088388,32 L 22.160133,31.978069 C 22.160133,31.978069 26.997745,27.140456 26.997745,27.140456 C 18.528582,18.264221 13.291696,25.230495 11.500037,31.436501 z"
             style="fill:#404040;"/>
          </a>
         </g>
        </svg>
</svg>
