<?xml version="1.0" encoding="UTF-8" standalone="no"?>
<!DOCTYPE svg PUBLIC "-//W3C//DTD SVG 1.1//EN"
 "http://www.w3.org/Graphics/SVG/1.1/DTD/svg11.dtd">
<!-- Generated by graphviz version 2.43.0 (0)
 -->
<!-- Title: src/export/type_track.cpp Pages: 1 -->
<svg width="1058pt" height="319pt"
 viewBox="0.00 0.00 1057.50 319.00" xmlns="http://www.w3.org/2000/svg" xmlns:xlink="http://www.w3.org/1999/xlink">
<g id="graph0" class="graph" transform="scale(1 1) rotate(0) translate(4 315)">
<title>src/export/type_track.cpp</title>
<polygon fill="white" stroke="transparent" points="-4,4 -4,-315 1053.5,-315 1053.5,4 -4,4"/>
<!-- Node1 -->
<g id="node1" class="node">
<title>Node1</title>
<g id="a_node1"><a xlink:title="Implementation of Type_Track Class.">
<polygon fill="#bfbfbf" stroke="black" points="636,-291.5 636,-310.5 776,-310.5 776,-291.5 636,-291.5"/>
<text text-anchor="middle" x="706" y="-298.5" font-family="Helvetica,sans-Serif" font-size="10.00">src/export/type_track.cpp</text>
</a>
</g>
</g>
<!-- Node2 -->
<g id="node2" class="node">
<title>Node2</title>
<g id="a_node2"><a xlink:href="type__track_8h.html" target="_top" xlink:title="Track data type of variables.">
<polygon fill="white" stroke="black" points="650,-235.5 650,-254.5 762,-254.5 762,-235.5 650,-235.5"/>
<text text-anchor="middle" x="706" y="-242.5" font-family="Helvetica,sans-Serif" font-size="10.00">export/type_track.h</text>
</a>
</g>
</g>
<!-- Node1&#45;&gt;Node2 -->
<g id="edge1" class="edge">
<title>Node1&#45;&gt;Node2</title>
<path fill="none" stroke="midnightblue" d="M706,-291.08C706,-284.01 706,-273.86 706,-264.99"/>
<polygon fill="midnightblue" stroke="midnightblue" points="709.5,-264.75 706,-254.75 702.5,-264.75 709.5,-264.75"/>
</g>
<!-- Node3 -->
<g id="node3" class="node">
<title>Node3</title>
<g id="a_node3"><a xlink:href="type_8h.html" target="_top" xlink:title="Type Specification in Alg.">
<polygon fill="white" stroke="black" points="124,-179.5 124,-198.5 206,-198.5 206,-179.5 124,-179.5"/>
<text text-anchor="middle" x="165" y="-186.5" font-family="Helvetica,sans-Serif" font-size="10.00">export/type.h</text>
</a>
</g>
</g>
<!-- Node2&#45;&gt;Node3 -->
<g id="edge2" class="edge">
<title>Node2&#45;&gt;Node3</title>
<path fill="none" stroke="midnightblue" d="M649.89,-238.4C544.31,-227.86 317.63,-205.23 216.06,-195.1"/>
<polygon fill="midnightblue" stroke="midnightblue" points="216.34,-191.61 206.05,-194.1 215.65,-198.57 216.34,-191.61"/>
</g>
<!-- Node6 -->
<g id="node6" class="node">
<title>Node6</title>
<g id="a_node6"><a xlink:href="log__global_8h.html" target="_top" xlink:title="Global Access of Log.">
<polygon fill="white" stroke="black" points="501,-179.5 501,-198.5 577,-198.5 577,-179.5 501,-179.5"/>
<text text-anchor="middle" x="539" y="-186.5" font-family="Helvetica,sans-Serif" font-size="10.00">log_global.h</text>
</a>
</g>
</g>
<!-- Node2&#45;&gt;Node6 -->
<g id="edge5" class="edge">
<title>Node2&#45;&gt;Node6</title>
<path fill="none" stroke="midnightblue" d="M679.54,-235.44C651.32,-226.32 606.46,-211.81 575.03,-201.65"/>
<polygon fill="midnightblue" stroke="midnightblue" points="575.93,-198.26 565.34,-198.52 573.78,-204.92 575.93,-198.26"/>
</g>
<!-- Node11 -->
<g id="node11" class="node">
<title>Node11</title>
<g id="a_node11"><a xlink:title=" ">
<polygon fill="white" stroke="#bfbfbf" points="0,-6 0,-25 60,-25 60,-6 0,-6"/>
<text text-anchor="middle" x="30" y="-13" font-family="Helvetica,sans-Serif" font-size="10.00">iostream</text>
</a>
</g>
</g>
<!-- Node2&#45;&gt;Node11 -->
<g id="edge30" class="edge">
<title>Node2&#45;&gt;Node11</title>
<path fill="none" stroke="midnightblue" d="M649.96,-242.81C511.07,-239.44 158.96,-228.08 115,-199 57.67,-161.07 38.26,-73.72 32.34,-35.26"/>
<polygon fill="midnightblue" stroke="midnightblue" points="35.76,-34.42 30.91,-25 28.83,-35.39 35.76,-34.42"/>
</g>
<!-- Node17 -->
<g id="node17" class="node">
<title>Node17</title>
<g id="a_node17"><a xlink:title=" ">
<polygon fill="white" stroke="#bfbfbf" points="1002.5,-6 1002.5,-25 1049.5,-25 1049.5,-6 1002.5,-6"/>
<text text-anchor="middle" x="1026" y="-13" font-family="Helvetica,sans-Serif" font-size="10.00">vector</text>
</a>
</g>
</g>
<!-- Node2&#45;&gt;Node17 -->
<g id="edge34" class="edge">
<title>Node2&#45;&gt;Node17</title>
<path fill="none" stroke="midnightblue" d="M706.59,-235.46C707.92,-222.03 712.23,-195.8 726,-179 745.41,-155.32 929.18,-63.88 999.14,-29.59"/>
<polygon fill="midnightblue" stroke="midnightblue" points="1000.78,-32.68 1008.23,-25.14 997.71,-26.39 1000.78,-32.68"/>
</g>
<!-- Node28 -->
<g id="node28" class="node">
<title>Node28</title>
<g id="a_node28"><a xlink:title=" ">
<polygon fill="white" stroke="#bfbfbf" points="734.5,-179.5 734.5,-198.5 777.5,-198.5 777.5,-179.5 734.5,-179.5"/>
<text text-anchor="middle" x="756" y="-186.5" font-family="Helvetica,sans-Serif" font-size="10.00">stack</text>
</a>
</g>
</g>
<!-- Node2&#45;&gt;Node28 -->
<g id="edge31" class="edge">
<title>Node2&#45;&gt;Node28</title>
<path fill="none" stroke="midnightblue" d="M714.26,-235.08C721.46,-227.3 732.11,-215.8 740.85,-206.37"/>
<polygon fill="midnightblue" stroke="midnightblue" points="743.67,-208.47 747.9,-198.75 738.53,-203.71 743.67,-208.47"/>
</g>
<!-- Node29 -->
<g id="node29" class="node">
<title>Node29</title>
<g id="a_node29"><a xlink:title=" ">
<polygon fill="white" stroke="#bfbfbf" points="795.5,-179.5 795.5,-198.5 860.5,-198.5 860.5,-179.5 795.5,-179.5"/>
<text text-anchor="middle" x="828" y="-186.5" font-family="Helvetica,sans-Serif" font-size="10.00">stdexcept</text>
</a>
</g>
</g>
<!-- Node2&#45;&gt;Node29 -->
<g id="edge32" class="edge">
<title>Node2&#45;&gt;Node29</title>
<path fill="none" stroke="midnightblue" d="M725.33,-235.44C745.32,-226.6 776.74,-212.69 799.56,-202.59"/>
<polygon fill="midnightblue" stroke="midnightblue" points="801.03,-205.76 808.76,-198.52 798.2,-199.36 801.03,-205.76"/>
</g>
<!-- Node30 -->
<g id="node30" class="node">
<title>Node30</title>
<g id="a_node30"><a xlink:title=" ">
<polygon fill="white" stroke="#bfbfbf" points="878.5,-179.5 878.5,-198.5 923.5,-198.5 923.5,-179.5 878.5,-179.5"/>
<text text-anchor="middle" x="901" y="-186.5" font-family="Helvetica,sans-Serif" font-size="10.00">utility</text>
</a>
</g>
</g>
<!-- Node2&#45;&gt;Node30 -->
<g id="edge33" class="edge">
<title>Node2&#45;&gt;Node30</title>
<path fill="none" stroke="midnightblue" d="M737.78,-235.43C768.85,-227.02 817.74,-213.69 868.49,-199.4"/>
<polygon fill="midnightblue" stroke="midnightblue" points="869.65,-202.71 878.32,-196.63 867.75,-195.97 869.65,-202.71"/>
</g>
<!-- Node4 -->
<g id="node4" class="node">
<title>Node4</title>
<g id="a_node4"><a xlink:title=" ">
<polygon fill="white" stroke="#bfbfbf" points="146,-6 146,-25 190,-25 190,-6 146,-6"/>
<text text-anchor="middle" x="168" y="-13" font-family="Helvetica,sans-Serif" font-size="10.00">string</text>
</a>
</g>
</g>
<!-- Node3&#45;&gt;Node4 -->
<g id="edge3" class="edge">
<title>Node3&#45;&gt;Node4</title>
<path fill="none" stroke="midnightblue" d="M165.15,-179.26C165.62,-152.65 167.03,-72.21 167.67,-35.34"/>
<polygon fill="midnightblue" stroke="midnightblue" points="171.18,-35.08 167.85,-25.02 164.18,-34.96 171.18,-35.08"/>
</g>
<!-- Node5 -->
<g id="node5" class="node">
<title>Node5</title>
<g id="a_node5"><a xlink:title=" ">
<polygon fill="white" stroke="#bfbfbf" points="95.5,-123.5 95.5,-142.5 136.5,-142.5 136.5,-123.5 95.5,-123.5"/>
<text text-anchor="middle" x="116" y="-130.5" font-family="Helvetica,sans-Serif" font-size="10.00">tuple</text>
</a>
</g>
</g>
<!-- Node3&#45;&gt;Node5 -->
<g id="edge4" class="edge">
<title>Node3&#45;&gt;Node5</title>
<path fill="none" stroke="midnightblue" d="M156.91,-179.08C149.84,-171.3 139.41,-159.8 130.85,-150.37"/>
<polygon fill="midnightblue" stroke="midnightblue" points="133.25,-147.8 123.94,-142.75 128.07,-152.51 133.25,-147.8"/>
</g>
<!-- Node7 -->
<g id="node7" class="node">
<title>Node7</title>
<g id="a_node7"><a xlink:href="include_2log_8h.html" target="_top" xlink:title="Log Utilities.">
<polygon fill="white" stroke="black" points="418.5,-123.5 418.5,-142.5 459.5,-142.5 459.5,-123.5 418.5,-123.5"/>
<text text-anchor="middle" x="439" y="-130.5" font-family="Helvetica,sans-Serif" font-size="10.00">log.h</text>
</a>
</g>
</g>
<!-- Node6&#45;&gt;Node7 -->
<g id="edge6" class="edge">
<title>Node6&#45;&gt;Node7</title>
<path fill="none" stroke="midnightblue" d="M522.93,-179.32C507.04,-170.74 482.49,-157.49 464.04,-147.52"/>
<polygon fill="midnightblue" stroke="midnightblue" points="465.49,-144.33 455.03,-142.65 462.16,-150.49 465.49,-144.33"/>
</g>
<!-- Node8 -->
<g id="node8" class="node">
<title>Node8</title>
<g id="a_node8"><a xlink:href="meta_8h.html" target="_top" xlink:title="mmCEsim meta data">
<polygon fill="white" stroke="black" points="193.5,-67.5 193.5,-86.5 244.5,-86.5 244.5,-67.5 193.5,-67.5"/>
<text text-anchor="middle" x="219" y="-74.5" font-family="Helvetica,sans-Serif" font-size="10.00">meta.h</text>
</a>
</g>
</g>
<!-- Node7&#45;&gt;Node8 -->
<g id="edge7" class="edge">
<title>Node7&#45;&gt;Node8</title>
<path fill="none" stroke="midnightblue" d="M418.45,-127.09C385.88,-119.3 320.19,-103.5 254.32,-87.05"/>
<polygon fill="midnightblue" stroke="midnightblue" points="255.15,-83.66 244.6,-84.63 253.46,-90.45 255.15,-83.66"/>
</g>
<!-- Node9 -->
<g id="node9" class="node">
<title>Node9</title>
<g id="a_node9"><a xlink:href="term_8h.html" target="_top" xlink:title="Terminal Color and Style Control.">
<polygon fill="white" stroke="black" points="81.5,-67.5 81.5,-86.5 130.5,-86.5 130.5,-67.5 81.5,-67.5"/>
<text text-anchor="middle" x="106" y="-74.5" font-family="Helvetica,sans-Serif" font-size="10.00">term.h</text>
</a>
</g>
</g>
<!-- Node7&#45;&gt;Node9 -->
<g id="edge9" class="edge">
<title>Node7&#45;&gt;Node9</title>
<path fill="none" stroke="midnightblue" d="M418.42,-128.66C362.99,-119.67 210.07,-94.88 140.85,-83.65"/>
<polygon fill="midnightblue" stroke="midnightblue" points="141.3,-80.18 130.87,-82.03 140.18,-87.09 141.3,-80.18"/>
</g>
<!-- Node12 -->
<g id="node12" class="node">
<title>Node12</title>
<g id="a_node12"><a xlink:href="utils_8h.html" target="_top" xlink:title="Utilities.">
<polygon fill="white" stroke="black" points="630.5,-67.5 630.5,-86.5 677.5,-86.5 677.5,-67.5 630.5,-67.5"/>
<text text-anchor="middle" x="654" y="-74.5" font-family="Helvetica,sans-Serif" font-size="10.00">utils.h</text>
</a>
</g>
</g>
<!-- Node7&#45;&gt;Node12 -->
<g id="edge13" class="edge">
<title>Node7&#45;&gt;Node12</title>
<path fill="none" stroke="midnightblue" d="M459.64,-127.16C491.93,-119.54 556.59,-104.07 620.44,-87.36"/>
<polygon fill="midnightblue" stroke="midnightblue" points="621.48,-90.7 630.26,-84.77 619.7,-83.93 621.48,-90.7"/>
</g>
<!-- Node23 -->
<g id="node23" class="node">
<title>Node23</title>
<g id="a_node23"><a xlink:title=" ">
<polygon fill="white" stroke="#bfbfbf" points="263,-67.5 263,-86.5 307,-86.5 307,-67.5 263,-67.5"/>
<text text-anchor="middle" x="285" y="-74.5" font-family="Helvetica,sans-Serif" font-size="10.00">ctime</text>
</a>
</g>
</g>
<!-- Node7&#45;&gt;Node23 -->
<g id="edge25" class="edge">
<title>Node7&#45;&gt;Node23</title>
<path fill="none" stroke="midnightblue" d="M418.23,-124.72C392.19,-115.59 347.29,-99.84 316.89,-89.18"/>
<polygon fill="midnightblue" stroke="midnightblue" points="317.78,-85.78 307.18,-85.78 315.46,-92.39 317.78,-85.78"/>
</g>
<!-- Node24 -->
<g id="node24" class="node">
<title>Node24</title>
<g id="a_node24"><a xlink:title=" ">
<polygon fill="white" stroke="#bfbfbf" points="325,-67.5 325,-86.5 393,-86.5 393,-67.5 325,-67.5"/>
<text text-anchor="middle" x="359" y="-74.5" font-family="Helvetica,sans-Serif" font-size="10.00">filesystem</text>
</a>
</g>
</g>
<!-- Node7&#45;&gt;Node24 -->
<g id="edge26" class="edge">
<title>Node7&#45;&gt;Node24</title>
<path fill="none" stroke="midnightblue" d="M426.15,-123.32C413.78,-114.98 394.87,-102.21 380.26,-92.35"/>
<polygon fill="midnightblue" stroke="midnightblue" points="382.07,-89.35 371.82,-86.65 378.15,-95.15 382.07,-89.35"/>
</g>
<!-- Node25 -->
<g id="node25" class="node">
<title>Node25</title>
<g id="a_node25"><a xlink:title=" ">
<polygon fill="white" stroke="#bfbfbf" points="411.5,-67.5 411.5,-86.5 466.5,-86.5 466.5,-67.5 411.5,-67.5"/>
<text text-anchor="middle" x="439" y="-74.5" font-family="Helvetica,sans-Serif" font-size="10.00">fstream</text>
</a>
</g>
</g>
<!-- Node7&#45;&gt;Node25 -->
<g id="edge27" class="edge">
<title>Node7&#45;&gt;Node25</title>
<path fill="none" stroke="midnightblue" d="M439,-123.08C439,-116.01 439,-105.86 439,-96.99"/>
<polygon fill="midnightblue" stroke="midnightblue" points="442.5,-96.75 439,-86.75 435.5,-96.75 442.5,-96.75"/>
</g>
<!-- Node26 -->
<g id="node26" class="node">
<title>Node26</title>
<g id="a_node26"><a xlink:title=" ">
<polygon fill="white" stroke="#bfbfbf" points="485,-67.5 485,-86.5 541,-86.5 541,-67.5 485,-67.5"/>
<text text-anchor="middle" x="513" y="-74.5" font-family="Helvetica,sans-Serif" font-size="10.00">iomanip</text>
</a>
</g>
</g>
<!-- Node7&#45;&gt;Node26 -->
<g id="edge28" class="edge">
<title>Node7&#45;&gt;Node26</title>
<path fill="none" stroke="midnightblue" d="M450.89,-123.32C462.15,-115.11 479.29,-102.6 492.71,-92.81"/>
<polygon fill="midnightblue" stroke="midnightblue" points="494.88,-95.56 500.89,-86.83 490.75,-89.9 494.88,-95.56"/>
</g>
<!-- Node27 -->
<g id="node27" class="node">
<title>Node27</title>
<g id="a_node27"><a xlink:title=" ">
<polygon fill="white" stroke="#bfbfbf" points="559.5,-67.5 559.5,-86.5 612.5,-86.5 612.5,-67.5 559.5,-67.5"/>
<text text-anchor="middle" x="586" y="-74.5" font-family="Helvetica,sans-Serif" font-size="10.00">spy.hpp</text>
</a>
</g>
</g>
<!-- Node7&#45;&gt;Node27 -->
<g id="edge29" class="edge">
<title>Node7&#45;&gt;Node27</title>
<path fill="none" stroke="midnightblue" d="M459.75,-124.38C483.96,-115.48 524.31,-100.66 552.87,-90.17"/>
<polygon fill="midnightblue" stroke="midnightblue" points="554.26,-93.39 562.44,-86.65 551.85,-86.82 554.26,-93.39"/>
</g>
<!-- Node8&#45;&gt;Node4 -->
<g id="edge8" class="edge">
<title>Node8&#45;&gt;Node4</title>
<path fill="none" stroke="midnightblue" d="M211.69,-67.48C203.97,-58.46 191.59,-44.02 181.98,-32.81"/>
<polygon fill="midnightblue" stroke="midnightblue" points="184.46,-30.32 175.29,-25.01 179.14,-34.88 184.46,-30.32"/>
</g>
<!-- Node9&#45;&gt;Node4 -->
<g id="edge12" class="edge">
<title>Node9&#45;&gt;Node4</title>
<path fill="none" stroke="midnightblue" d="M114.88,-67.48C124.46,-58.28 139.91,-43.46 151.69,-32.16"/>
<polygon fill="midnightblue" stroke="midnightblue" points="154.34,-34.46 159.13,-25.01 149.49,-29.41 154.34,-34.46"/>
</g>
<!-- Node10 -->
<g id="node10" class="node">
<title>Node10</title>
<g id="a_node10"><a xlink:title=" ">
<polygon fill="white" stroke="#bfbfbf" points="78.5,-6 78.5,-25 127.5,-25 127.5,-6 78.5,-6"/>
<text text-anchor="middle" x="103" y="-13" font-family="Helvetica,sans-Serif" font-size="10.00">cstdlib</text>
</a>
</g>
</g>
<!-- Node9&#45;&gt;Node10 -->
<g id="edge10" class="edge">
<title>Node9&#45;&gt;Node10</title>
<path fill="none" stroke="midnightblue" d="M105.57,-67.48C105.15,-59.08 104.49,-45.98 103.94,-35.16"/>
<polygon fill="midnightblue" stroke="midnightblue" points="107.43,-34.82 103.43,-25.01 100.44,-35.17 107.43,-34.82"/>
</g>
<!-- Node9&#45;&gt;Node11 -->
<g id="edge11" class="edge">
<title>Node9&#45;&gt;Node11</title>
<path fill="none" stroke="midnightblue" d="M95.11,-67.48C83.03,-58.02 63.33,-42.6 48.76,-31.19"/>
<polygon fill="midnightblue" stroke="midnightblue" points="50.9,-28.42 40.87,-25.01 46.59,-33.93 50.9,-28.42"/>
</g>
<!-- Node12&#45;&gt;Node4 -->
<g id="edge18" class="edge">
<title>Node12&#45;&gt;Node4</title>
<path fill="none" stroke="midnightblue" d="M630.35,-68.81C627.55,-68.12 624.73,-67.49 622,-67 436.35,-33.31 381.28,-79.73 199,-31 197.06,-30.48 195.1,-29.85 193.15,-29.14"/>
<polygon fill="midnightblue" stroke="midnightblue" points="194.26,-25.81 183.68,-25.14 191.53,-32.26 194.26,-25.81"/>
</g>
<!-- Node13 -->
<g id="node13" class="node">
<title>Node13</title>
<g id="a_node13"><a xlink:title=" ">
<polygon fill="white" stroke="#bfbfbf" points="706,-6 706,-25 770,-25 770,-6 706,-6"/>
<text text-anchor="middle" x="738" y="-13" font-family="Helvetica,sans-Serif" font-size="10.00">algorithm</text>
</a>
</g>
</g>
<!-- Node12&#45;&gt;Node13 -->
<g id="edge14" class="edge">
<title>Node12&#45;&gt;Node13</title>
<path fill="none" stroke="midnightblue" d="M666.04,-67.48C679.51,-57.93 701.57,-42.31 717.72,-30.87"/>
<polygon fill="midnightblue" stroke="midnightblue" points="719.85,-33.65 725.99,-25.01 715.8,-27.93 719.85,-33.65"/>
</g>
<!-- Node14 -->
<g id="node14" class="node">
<title>Node14</title>
<g id="a_node14"><a xlink:title=" ">
<polygon fill="white" stroke="#bfbfbf" points="788.5,-6 788.5,-25 837.5,-25 837.5,-6 788.5,-6"/>
<text text-anchor="middle" x="813" y="-13" font-family="Helvetica,sans-Serif" font-size="10.00">cctype</text>
</a>
</g>
</g>
<!-- Node12&#45;&gt;Node14 -->
<g id="edge15" class="edge">
<title>Node12&#45;&gt;Node14</title>
<path fill="none" stroke="midnightblue" d="M677.65,-67.94C702.9,-59.23 744.01,-44.75 779,-31 780.6,-30.37 782.24,-29.71 783.89,-29.04"/>
<polygon fill="midnightblue" stroke="midnightblue" points="785.41,-32.2 793.3,-25.13 782.73,-25.74 785.41,-32.2"/>
</g>
<!-- Node15 -->
<g id="node15" class="node">
<title>Node15</title>
<g id="a_node15"><a xlink:title=" ">
<polygon fill="white" stroke="#bfbfbf" points="856,-6 856,-25 910,-25 910,-6 856,-6"/>
<text text-anchor="middle" x="883" y="-13" font-family="Helvetica,sans-Serif" font-size="10.00">random</text>
</a>
</g>
</g>
<!-- Node12&#45;&gt;Node15 -->
<g id="edge16" class="edge">
<title>Node12&#45;&gt;Node15</title>
<path fill="none" stroke="midnightblue" d="M677.71,-70.37C682.44,-69.25 687.38,-68.08 692,-67 760.85,-50.85 779.55,-52.27 847,-31 849.28,-30.28 851.61,-29.48 853.95,-28.64"/>
<polygon fill="midnightblue" stroke="midnightblue" points="855.3,-31.87 863.39,-25.04 852.8,-25.33 855.3,-31.87"/>
</g>
<!-- Node16 -->
<g id="node16" class="node">
<title>Node16</title>
<g id="a_node16"><a xlink:title=" ">
<polygon fill="white" stroke="#bfbfbf" points="928,-6 928,-25 984,-25 984,-6 928,-6"/>
<text text-anchor="middle" x="956" y="-13" font-family="Helvetica,sans-Serif" font-size="10.00">sstream</text>
</a>
</g>
</g>
<!-- Node12&#45;&gt;Node16 -->
<g id="edge17" class="edge">
<title>Node12&#45;&gt;Node16</title>
<path fill="none" stroke="midnightblue" d="M677.66,-70.11C682.39,-69.01 687.34,-67.92 692,-67 792.22,-47.21 820.43,-57.79 919,-31 921.59,-30.29 924.26,-29.47 926.91,-28.57"/>
<polygon fill="midnightblue" stroke="midnightblue" points="928.11,-31.86 936.3,-25.13 925.7,-25.29 928.11,-31.86"/>
</g>
<!-- Node12&#45;&gt;Node17 -->
<g id="edge19" class="edge">
<title>Node12&#45;&gt;Node17</title>
<path fill="none" stroke="midnightblue" d="M677.63,-69.97C682.37,-68.88 687.33,-67.83 692,-67 824.65,-43.44 863.03,-66.48 993,-31 995.29,-30.37 997.63,-29.62 999.95,-28.78"/>
<polygon fill="midnightblue" stroke="midnightblue" points="1001.27,-32.02 1009.22,-25.01 998.64,-25.53 1001.27,-32.02"/>
</g>
<!-- Node18 -->
<g id="node18" class="node">
<title>Node18</title>
<g id="a_node18"><a xlink:href="__boost__config_8h.html" target="_top" xlink:title="Boost Configurations.">
<polygon fill="white" stroke="black" points="208,-6 208,-25 300,-25 300,-6 208,-6"/>
<text text-anchor="middle" x="254" y="-13" font-family="Helvetica,sans-Serif" font-size="10.00">_boost_config.h</text>
</a>
</g>
</g>
<!-- Node12&#45;&gt;Node18 -->
<g id="edge20" class="edge">
<title>Node12&#45;&gt;Node18</title>
<path fill="none" stroke="midnightblue" d="M630.34,-68.89C627.54,-68.19 624.72,-67.53 622,-67 484.61,-39.96 446.61,-56.91 309,-31 303.86,-30.03 298.48,-28.84 293.2,-27.56"/>
<polygon fill="midnightblue" stroke="midnightblue" points="293.78,-24.1 283.22,-25.04 292.06,-30.89 293.78,-24.1"/>
</g>
<!-- Node19 -->
<g id="node19" class="node">
<title>Node19</title>
<g id="a_node19"><a xlink:title=" ">
<polygon fill="white" stroke="#bfbfbf" points="318.5,-0.5 318.5,-30.5 459.5,-30.5 459.5,-0.5 318.5,-0.5"/>
<text text-anchor="start" x="326.5" y="-18.5" font-family="Helvetica,sans-Serif" font-size="10.00">boost/dll/runtime_symbol</text>
<text text-anchor="middle" x="389" y="-7.5" font-family="Helvetica,sans-Serif" font-size="10.00">_info.hpp</text>
</a>
</g>
</g>
<!-- Node12&#45;&gt;Node19 -->
<g id="edge21" class="edge">
<title>Node12&#45;&gt;Node19</title>
<path fill="none" stroke="midnightblue" d="M630.28,-69.15C627.49,-68.4 624.69,-67.67 622,-67 571.4,-54.41 514.18,-41.99 469.11,-32.61"/>
<polygon fill="midnightblue" stroke="midnightblue" points="469.6,-29.14 459.1,-30.53 468.18,-35.99 469.6,-29.14"/>
</g>
<!-- Node20 -->
<g id="node20" class="node">
<title>Node20</title>
<g id="a_node20"><a xlink:title=" ">
<polygon fill="white" stroke="#bfbfbf" points="478,-6 478,-25 524,-25 524,-6 478,-6"/>
<text text-anchor="middle" x="501" y="-13" font-family="Helvetica,sans-Serif" font-size="10.00">pwd.h</text>
</a>
</g>
</g>
<!-- Node12&#45;&gt;Node20 -->
<g id="edge22" class="edge">
<title>Node12&#45;&gt;Node20</title>
<path fill="none" stroke="midnightblue" d="M630.16,-67.69C605.62,-59 566.36,-44.74 533,-31 531.59,-30.42 530.15,-29.81 528.7,-29.19"/>
<polygon fill="midnightblue" stroke="midnightblue" points="529.74,-25.83 519.18,-25 526.92,-32.23 529.74,-25.83"/>
</g>
<!-- Node21 -->
<g id="node21" class="node">
<title>Node21</title>
<g id="a_node21"><a xlink:title=" ">
<polygon fill="white" stroke="#bfbfbf" points="542,-6 542,-25 614,-25 614,-6 542,-6"/>
<text text-anchor="middle" x="578" y="-13" font-family="Helvetica,sans-Serif" font-size="10.00">sys/types.h</text>
</a>
</g>
</g>
<!-- Node12&#45;&gt;Node21 -->
<g id="edge23" class="edge">
<title>Node12&#45;&gt;Node21</title>
<path fill="none" stroke="midnightblue" d="M643.11,-67.48C631.03,-58.02 611.33,-42.6 596.76,-31.19"/>
<polygon fill="midnightblue" stroke="midnightblue" points="598.9,-28.42 588.87,-25.01 594.59,-33.93 598.9,-28.42"/>
</g>
<!-- Node22 -->
<g id="node22" class="node">
<title>Node22</title>
<g id="a_node22"><a xlink:title=" ">
<polygon fill="white" stroke="#bfbfbf" points="632,-6 632,-25 688,-25 688,-6 632,-6"/>
<text text-anchor="middle" x="660" y="-13" font-family="Helvetica,sans-Serif" font-size="10.00">unistd.h</text>
</a>
</g>
</g>
<!-- Node12&#45;&gt;Node22 -->
<g id="edge24" class="edge">
<title>Node12&#45;&gt;Node22</title>
<path fill="none" stroke="midnightblue" d="M654.86,-67.48C655.71,-59.08 657.03,-45.98 658.12,-35.16"/>
<polygon fill="midnightblue" stroke="midnightblue" points="661.62,-35.31 659.14,-25.01 654.66,-34.61 661.62,-35.31"/>
</g>
</g>
</svg>
