<?xml version="1.0" encoding="UTF-8" standalone="no"?>
<!DOCTYPE svg PUBLIC "-//W3C//DTD SVG 1.1//EN"
 "http://www.w3.org/Graphics/SVG/1.1/DTD/svg11.dtd">
<!-- Generated by graphviz version 2.43.0 (0)
 -->
<!-- Title: include/utils.h Pages: 1 -->
<svg width="1530pt" height="509pt"
 viewBox="0.00 0.00 1529.50 509.00" xmlns="http://www.w3.org/2000/svg" xmlns:xlink="http://www.w3.org/1999/xlink">
<g id="graph0" class="graph" transform="scale(1 1) rotate(0) translate(4 505)">
<title>include/utils.h</title>
<polygon fill="white" stroke="transparent" points="-4,4 -4,-505 1525.5,-505 1525.5,4 -4,4"/>
<!-- Node1 -->
<g id="node1" class="node">
<title>Node1</title>
<g id="a_node1"><a xlink:title="Utilities.">
<polygon fill="#bfbfbf" stroke="black" points="601.5,-481.5 601.5,-500.5 686.5,-500.5 686.5,-481.5 601.5,-481.5"/>
<text text-anchor="middle" x="644" y="-488.5" font-family="Helvetica,sans-Serif" font-size="10.00">include/utils.h</text>
</a>
</g>
</g>
<!-- Node2 -->
<g id="node2" class="node">
<title>Node2</title>
<g id="a_node2"><a xlink:href="config_8h.html" target="_top" xlink:title="Read and Write User Configuration.">
<polygon fill="white" stroke="black" points="196.5,-297 196.5,-316 289.5,-316 289.5,-297 196.5,-297"/>
<text text-anchor="middle" x="243" y="-304" font-family="Helvetica,sans-Serif" font-size="10.00">include/config.h</text>
</a>
</g>
</g>
<!-- Node1&#45;&gt;Node2 -->
<g id="edge1" class="edge">
<title>Node1&#45;&gt;Node2</title>
<path fill="none" stroke="midnightblue" d="M591.25,-489.18C507.31,-486.88 348.28,-478.13 304,-445 260.09,-412.14 247.17,-340.67 243.95,-316.04"/>
<polygon fill="midnightblue" stroke="midnightblue" points="591.26,-492.68 601.35,-489.43 591.44,-485.68 591.26,-492.68"/>
</g>
<!-- Node3 -->
<g id="node3" class="node">
<title>Node3</title>
<g id="a_node3"><a xlink:href="simulate_8h.html" target="_top" xlink:title="Simulate Generated Code.">
<polygon fill="white" stroke="black" points="42.5,-230 42.5,-249 149.5,-249 149.5,-230 42.5,-230"/>
<text text-anchor="middle" x="96" y="-237" font-family="Helvetica,sans-Serif" font-size="10.00">include/simulate.h</text>
</a>
</g>
</g>
<!-- Node1&#45;&gt;Node3 -->
<g id="edge52" class="edge">
<title>Node1&#45;&gt;Node3</title>
<path fill="none" stroke="midnightblue" d="M591.33,-487.53C503.02,-482.75 329.31,-470.36 274,-445 200.22,-411.16 188.68,-386.19 139,-322 120.4,-297.96 105.72,-264.71 99.39,-249.17"/>
<polygon fill="midnightblue" stroke="midnightblue" points="591.24,-491.03 601.41,-488.07 591.61,-484.04 591.24,-491.03"/>
</g>
<!-- Node4 -->
<g id="node4" class="node">
<title>Node4</title>
<g id="a_node4"><a xlink:href="src_2main_8cpp.html" target="_top" xlink:title="Program Command Line Options.">
<polygon fill="white" stroke="black" points="364.5,-0.5 364.5,-19.5 443.5,-19.5 443.5,-0.5 364.5,-0.5"/>
<text text-anchor="middle" x="404" y="-7.5" font-family="Helvetica,sans-Serif" font-size="10.00">src/main.cpp</text>
</a>
</g>
</g>
<!-- Node1&#45;&gt;Node4 -->
<g id="edge54" class="edge">
<title>Node1&#45;&gt;Node4</title>
<path fill="none" stroke="midnightblue" d="M590.87,-488.35C509.48,-484.94 349.42,-474.74 217,-445 117.3,-422.61 0,-471.19 0,-369 0,-369 0,-369 0,-121 0,-46.04 262.23,-20.46 364.16,-13.35"/>
<polygon fill="midnightblue" stroke="midnightblue" points="591.22,-491.87 601.35,-488.77 591.5,-484.87 591.22,-491.87"/>
</g>
<!-- Node7 -->
<g id="node7" class="node">
<title>Node7</title>
<g id="a_node7"><a xlink:href="export_8h.html" target="_top" xlink:title="Export mmCEsim Configuration to Other Programming Languages.">
<polygon fill="white" stroke="black" points="1018.5,-56.5 1018.5,-75.5 1113.5,-75.5 1113.5,-56.5 1018.5,-56.5"/>
<text text-anchor="middle" x="1066" y="-63.5" font-family="Helvetica,sans-Serif" font-size="10.00">include/export.h</text>
</a>
</g>
</g>
<!-- Node1&#45;&gt;Node7 -->
<g id="edge7" class="edge">
<title>Node1&#45;&gt;Node7</title>
<path fill="none" stroke="midnightblue" d="M696.81,-490.11C831.34,-489.81 1184.01,-485.09 1293,-445 1346.39,-425.36 1396,-425.89 1396,-369 1396,-369 1396,-369 1396,-177 1396,-126.94 1350.09,-131.54 1304,-112 1241.47,-85.49 1163.12,-74.52 1113.79,-70.03"/>
<polygon fill="midnightblue" stroke="midnightblue" points="696.74,-486.61 686.74,-490.13 696.75,-493.61 696.74,-486.61"/>
</g>
<!-- Node9 -->
<g id="node9" class="node">
<title>Node9</title>
<g id="a_node9"><a xlink:href="alg_8h.html" target="_top" xlink:title="Algorithm Parser (.alg Language)">
<polygon fill="white" stroke="black" points="918.5,-112.5 918.5,-131.5 1031.5,-131.5 1031.5,-112.5 918.5,-112.5"/>
<text text-anchor="middle" x="975" y="-119.5" font-family="Helvetica,sans-Serif" font-size="10.00">include/export/alg.h</text>
</a>
</g>
</g>
<!-- Node1&#45;&gt;Node9 -->
<g id="edge10" class="edge">
<title>Node1&#45;&gt;Node9</title>
<path fill="none" stroke="midnightblue" d="M696.49,-482.25C790.99,-466.82 980,-428.52 980,-369 980,-369 980,-369 980,-238.5 980,-198.56 976.98,-150.92 975.63,-131.69"/>
<polygon fill="midnightblue" stroke="midnightblue" points="695.87,-478.81 686.55,-483.85 696.98,-485.72 695.87,-478.81"/>
</g>
<!-- Node11 -->
<g id="node11" class="node">
<title>Node11</title>
<g id="a_node11"><a xlink:href="alg__line_8h.html" target="_top" xlink:title="Parse Line of Alg.">
<polygon fill="white" stroke="black" points="408,-291.5 408,-321.5 512,-321.5 512,-291.5 408,-291.5"/>
<text text-anchor="start" x="416" y="-309.5" font-family="Helvetica,sans-Serif" font-size="10.00">include/export/alg</text>
<text text-anchor="middle" x="460" y="-298.5" font-family="Helvetica,sans-Serif" font-size="10.00">_line.h</text>
</a>
</g>
</g>
<!-- Node1&#45;&gt;Node11 -->
<g id="edge13" class="edge">
<title>Node1&#45;&gt;Node11</title>
<path fill="none" stroke="midnightblue" d="M610.06,-477.71C570.18,-461.4 505.25,-428.63 472,-378 460.82,-360.98 459.04,-336.83 459.2,-321.68"/>
<polygon fill="midnightblue" stroke="midnightblue" points="608.79,-480.98 619.38,-481.41 611.37,-474.47 608.79,-480.98"/>
</g>
<!-- Node13 -->
<g id="node13" class="node">
<title>Node13</title>
<g id="a_node13"><a xlink:href="calc_8h.html" target="_top" xlink:title="Make Calculation in Alg.">
<polygon fill="white" stroke="black" points="568,-168.5 568,-187.5 686,-187.5 686,-168.5 568,-168.5"/>
<text text-anchor="middle" x="627" y="-175.5" font-family="Helvetica,sans-Serif" font-size="10.00">include/export/calc.h</text>
</a>
</g>
</g>
<!-- Node1&#45;&gt;Node13 -->
<g id="edge16" class="edge">
<title>Node1&#45;&gt;Node13</title>
<path fill="none" stroke="midnightblue" d="M591.17,-490.43C508.02,-488.04 356,-469.87 356,-369 356,-369 356,-369 356,-305.5 356,-268.31 348.02,-249.6 375,-224 402.08,-198.3 502.14,-186.95 567.74,-182.19"/>
<polygon fill="midnightblue" stroke="midnightblue" points="591.12,-493.93 601.19,-490.66 591.27,-486.93 591.12,-493.93"/>
</g>
<!-- Node15 -->
<g id="node15" class="node">
<title>Node15</title>
<g id="a_node15"><a xlink:href="channel__graph_8h.html" target="_top" xlink:title="Graph Analysis for Complex Cascaded Channels.">
<polygon fill="white" stroke="black" points="1156,-291.5 1156,-321.5 1284,-321.5 1284,-291.5 1156,-291.5"/>
<text text-anchor="start" x="1164" y="-309.5" font-family="Helvetica,sans-Serif" font-size="10.00">include/export/channel</text>
<text text-anchor="middle" x="1220" y="-298.5" font-family="Helvetica,sans-Serif" font-size="10.00">_graph.h</text>
</a>
</g>
</g>
<!-- Node1&#45;&gt;Node15 -->
<g id="edge19" class="edge">
<title>Node1&#45;&gt;Node15</title>
<path fill="none" stroke="midnightblue" d="M696.93,-486.9C786.67,-481.12 964.62,-467.22 1023,-445 1099.4,-415.91 1174.29,-350.77 1205.2,-321.83"/>
<polygon fill="midnightblue" stroke="midnightblue" points="696.46,-483.42 686.7,-487.55 696.9,-490.41 696.46,-483.42"/>
</g>
<!-- Node17 -->
<g id="node17" class="node">
<title>Node17</title>
<g id="a_node17"><a xlink:href="functions_8h.html" target="_top" xlink:title="Function Lists.">
<polygon fill="white" stroke="black" points="481.5,-358.5 481.5,-377.5 624.5,-377.5 624.5,-358.5 481.5,-358.5"/>
<text text-anchor="middle" x="553" y="-365.5" font-family="Helvetica,sans-Serif" font-size="10.00">include/export/functions.h</text>
</a>
</g>
</g>
<!-- Node1&#45;&gt;Node17 -->
<g id="edge22" class="edge">
<title>Node1&#45;&gt;Node17</title>
<path fill="none" stroke="midnightblue" d="M631.28,-473.09C611.6,-446.91 574.45,-397.52 559.49,-377.62"/>
<polygon fill="midnightblue" stroke="midnightblue" points="628.65,-475.41 637.46,-481.3 634.24,-471.2 628.65,-475.41"/>
</g>
<!-- Node18 -->
<g id="node18" class="node">
<title>Node18</title>
<g id="a_node18"><a xlink:href="macro_8h.html" target="_top" xlink:title="ALG Macro.">
<polygon fill="white" stroke="black" points="1008.5,-297 1008.5,-316 1137.5,-316 1137.5,-297 1008.5,-297"/>
<text text-anchor="middle" x="1073" y="-304" font-family="Helvetica,sans-Serif" font-size="10.00">include/export/macro.h</text>
</a>
</g>
</g>
<!-- Node1&#45;&gt;Node18 -->
<g id="edge24" class="edge">
<title>Node1&#45;&gt;Node18</title>
<path fill="none" stroke="midnightblue" d="M696.65,-488.87C782.16,-486.12 946.44,-476.74 994,-445 1042.09,-412.9 1064.44,-340.94 1070.92,-316.11"/>
<polygon fill="midnightblue" stroke="midnightblue" points="696.52,-485.37 686.63,-489.17 696.73,-492.37 696.52,-485.37"/>
</g>
<!-- Node20 -->
<g id="node20" class="node">
<title>Node20</title>
<g id="a_node20"><a xlink:href="value__vec_8h.html" target="_top" xlink:title=" ">
<polygon fill="white" stroke="black" points="1168,-414.5 1168,-444.5 1284,-444.5 1284,-414.5 1168,-414.5"/>
<text text-anchor="start" x="1176" y="-432.5" font-family="Helvetica,sans-Serif" font-size="10.00">include/export/value</text>
<text text-anchor="middle" x="1226" y="-421.5" font-family="Helvetica,sans-Serif" font-size="10.00">_vec.h</text>
</a>
</g>
</g>
<!-- Node1&#45;&gt;Node20 -->
<g id="edge27" class="edge">
<title>Node1&#45;&gt;Node20</title>
<path fill="none" stroke="midnightblue" d="M696.6,-485.93C785.15,-478.89 969.57,-463.42 1125,-445 1138.9,-443.35 1153.84,-441.34 1167.85,-439.35"/>
<polygon fill="midnightblue" stroke="midnightblue" points="696.23,-482.45 686.54,-486.73 696.79,-489.43 696.23,-482.45"/>
</g>
<!-- Node21 -->
<g id="node21" class="node">
<title>Node21</title>
<g id="a_node21"><a xlink:href="include_2log_8h.html" target="_top" xlink:title="Log Utilities.">
<polygon fill="white" stroke="black" points="623.5,-420 623.5,-439 702.5,-439 702.5,-420 623.5,-420"/>
<text text-anchor="middle" x="663" y="-427" font-family="Helvetica,sans-Serif" font-size="10.00">include/log.h</text>
</a>
</g>
</g>
<!-- Node1&#45;&gt;Node21 -->
<g id="edge29" class="edge">
<title>Node1&#45;&gt;Node21</title>
<path fill="none" stroke="midnightblue" d="M649.86,-471.66C653.33,-460.77 657.58,-447.49 660.28,-439.01"/>
<polygon fill="midnightblue" stroke="midnightblue" points="646.43,-470.88 646.72,-481.48 653.1,-473.01 646.43,-470.88"/>
</g>
<!-- Node26 -->
<g id="node26" class="node">
<title>Node26</title>
<g id="a_node26"><a xlink:href="style_8h.html" target="_top" xlink:title="Format Output File.">
<polygon fill="white" stroke="black" points="392,-112.5 392,-131.5 480,-131.5 480,-112.5 392,-112.5"/>
<text text-anchor="middle" x="436" y="-119.5" font-family="Helvetica,sans-Serif" font-size="10.00">include/style.h</text>
</a>
</g>
</g>
<!-- Node1&#45;&gt;Node26 -->
<g id="edge53" class="edge">
<title>Node1&#45;&gt;Node26</title>
<path fill="none" stroke="midnightblue" d="M591.01,-486.41C521.45,-480.86 403.94,-468.3 368,-445 334.08,-423 318,-409.43 318,-369 318,-369 318,-369 318,-238.5 318,-184.46 381.98,-147.38 415.72,-131.58"/>
<polygon fill="midnightblue" stroke="midnightblue" points="591.09,-489.93 601.33,-487.22 591.63,-482.95 591.09,-489.93"/>
</g>
<!-- Node32 -->
<g id="node32" class="node">
<title>Node32</title>
<g id="a_node32"><a xlink:href="tools_2log_2log_8h.html" target="_top" xlink:title="mmCEsim Log Tool">
<polygon fill="white" stroke="black" points="1427,-420 1427,-439 1513,-439 1513,-420 1427,-420"/>
<text text-anchor="middle" x="1470" y="-427" font-family="Helvetica,sans-Serif" font-size="10.00">tools/log/log.h</text>
</a>
</g>
</g>
<!-- Node1&#45;&gt;Node32 -->
<g id="edge55" class="edge">
<title>Node1&#45;&gt;Node32</title>
<path fill="none" stroke="midnightblue" d="M696.66,-490.13C821.34,-489.74 1144.07,-484.62 1410,-445 1419.65,-443.56 1430.02,-441.32 1439.38,-439.02"/>
<polygon fill="midnightblue" stroke="midnightblue" points="696.62,-486.63 686.62,-490.15 696.63,-493.63 696.62,-486.63"/>
</g>
<!-- Node2&#45;&gt;Node3 -->
<g id="edge2" class="edge">
<title>Node2&#45;&gt;Node3</title>
<path fill="none" stroke="midnightblue" d="M214.24,-292.78C185.12,-279.91 140.9,-260.35 115.6,-249.17"/>
<polygon fill="midnightblue" stroke="midnightblue" points="212.92,-296.03 223.48,-296.87 215.75,-289.62 212.92,-296.03"/>
</g>
<!-- Node2&#45;&gt;Node4 -->
<g id="edge6" class="edge">
<title>Node2&#45;&gt;Node4</title>
<path fill="none" stroke="midnightblue" d="M223.69,-290.49C213.67,-281.44 202.41,-268.96 197,-255 192.03,-242.15 191.82,-236.77 197,-224 237.63,-123.9 350.39,-44.99 390.01,-19.62"/>
<polygon fill="midnightblue" stroke="midnightblue" points="221.45,-293.18 231.34,-296.99 225.98,-287.84 221.45,-293.18"/>
</g>
<!-- Node6 -->
<g id="node6" class="node">
<title>Node6</title>
<g id="a_node6"><a xlink:href="config_8cpp.html" target="_top" xlink:title="Implementation of Config Class.">
<polygon fill="white" stroke="black" points="206.5,-230 206.5,-249 289.5,-249 289.5,-230 206.5,-230"/>
<text text-anchor="middle" x="248" y="-237" font-family="Helvetica,sans-Serif" font-size="10.00">src/config.cpp</text>
</a>
</g>
</g>
<!-- Node2&#45;&gt;Node6 -->
<g id="edge5" class="edge">
<title>Node2&#45;&gt;Node6</title>
<path fill="none" stroke="midnightblue" d="M244.46,-286.54C245.41,-274.17 246.61,-258.62 247.34,-249.13"/>
<polygon fill="midnightblue" stroke="midnightblue" points="240.95,-286.49 243.67,-296.73 247.93,-287.03 240.95,-286.49"/>
</g>
<!-- Node3&#45;&gt;Node4 -->
<g id="edge3" class="edge">
<title>Node3&#45;&gt;Node4</title>
<path fill="none" stroke="midnightblue" d="M77.67,-222.66C63.81,-208.65 48.49,-187.47 57,-168 86.34,-100.85 112.72,-89.3 178,-56 238.23,-25.28 317.43,-15.51 364.3,-12.42"/>
<polygon fill="midnightblue" stroke="midnightblue" points="75.39,-225.32 85.06,-229.65 80.2,-220.24 75.39,-225.32"/>
</g>
<!-- Node5 -->
<g id="node5" class="node">
<title>Node5</title>
<g id="a_node5"><a xlink:href="simulate_8cpp.html" target="_top" xlink:title="Implementation of Simulate Class.">
<polygon fill="white" stroke="black" points="66.5,-168.5 66.5,-187.5 163.5,-187.5 163.5,-168.5 66.5,-168.5"/>
<text text-anchor="middle" x="115" y="-175.5" font-family="Helvetica,sans-Serif" font-size="10.00">src/simulate.cpp</text>
</a>
</g>
</g>
<!-- Node3&#45;&gt;Node5 -->
<g id="edge4" class="edge">
<title>Node3&#45;&gt;Node5</title>
<path fill="none" stroke="midnightblue" d="M101.86,-220.16C105.33,-209.27 109.58,-195.99 112.28,-187.51"/>
<polygon fill="midnightblue" stroke="midnightblue" points="98.43,-219.38 98.72,-229.98 105.1,-221.51 98.43,-219.38"/>
</g>
<!-- Node7&#45;&gt;Node4 -->
<g id="edge9" class="edge">
<title>Node7&#45;&gt;Node4</title>
<path fill="none" stroke="midnightblue" d="M1008.36,-56.03C788.9,-30.96 539.17,-17.44 443.75,-12.82"/>
<polygon fill="midnightblue" stroke="midnightblue" points="1008.12,-59.52 1018.45,-57.19 1008.92,-52.57 1008.12,-59.52"/>
</g>
<!-- Node8 -->
<g id="node8" class="node">
<title>Node8</title>
<g id="a_node8"><a xlink:href="export_8cpp.html" target="_top" xlink:title="Implementation of Export Class.">
<polygon fill="white" stroke="black" points="1023,-0.5 1023,-19.5 1109,-19.5 1109,-0.5 1023,-0.5"/>
<text text-anchor="middle" x="1066" y="-7.5" font-family="Helvetica,sans-Serif" font-size="10.00">src/export.cpp</text>
</a>
</g>
</g>
<!-- Node7&#45;&gt;Node8 -->
<g id="edge8" class="edge">
<title>Node7&#45;&gt;Node8</title>
<path fill="none" stroke="midnightblue" d="M1066,-45.8C1066,-36.91 1066,-26.78 1066,-19.75"/>
<polygon fill="midnightblue" stroke="midnightblue" points="1062.5,-46.08 1066,-56.08 1069.5,-46.08 1062.5,-46.08"/>
</g>
<!-- Node9&#45;&gt;Node7 -->
<g id="edge11" class="edge">
<title>Node9&#45;&gt;Node7</title>
<path fill="none" stroke="midnightblue" d="M998.29,-107.18C1015.04,-97.24 1037.1,-84.15 1051.42,-75.65"/>
<polygon fill="midnightblue" stroke="midnightblue" points="996.43,-104.21 989.62,-112.32 1000.01,-110.23 996.43,-104.21"/>
</g>
<!-- Node10 -->
<g id="node10" class="node">
<title>Node10</title>
<g id="a_node10"><a xlink:href="alg_8cpp.html" target="_top" xlink:title="Implementation of class Alg.">
<polygon fill="white" stroke="black" points="896,-56.5 896,-75.5 1000,-75.5 1000,-56.5 896,-56.5"/>
<text text-anchor="middle" x="948" y="-63.5" font-family="Helvetica,sans-Serif" font-size="10.00">src/export/alg.cpp</text>
</a>
</g>
</g>
<!-- Node9&#45;&gt;Node10 -->
<g id="edge12" class="edge">
<title>Node9&#45;&gt;Node10</title>
<path fill="none" stroke="midnightblue" d="M965.99,-102.98C961.41,-93.82 956.05,-83.09 952.38,-75.75"/>
<polygon fill="midnightblue" stroke="midnightblue" points="962.94,-104.7 970.54,-112.08 969.2,-101.57 962.94,-104.7"/>
</g>
<!-- Node11&#45;&gt;Node9 -->
<g id="edge14" class="edge">
<title>Node11&#45;&gt;Node9</title>
<path fill="none" stroke="midnightblue" d="M494.15,-286.43C528.68,-267.92 584.08,-240.29 635,-224 718.52,-197.28 745.25,-214.01 829,-188 878.02,-172.77 932.44,-145.61 958.85,-131.71"/>
<polygon fill="midnightblue" stroke="midnightblue" points="492.11,-283.56 484.98,-291.4 495.44,-289.71 492.11,-283.56"/>
</g>
<!-- Node12 -->
<g id="node12" class="node">
<title>Node12</title>
<g id="a_node12"><a xlink:href="alg__line_8cpp.html" target="_top" xlink:title="Implementation of Alg_Line Class.">
<polygon fill="white" stroke="black" points="384.5,-230 384.5,-249 511.5,-249 511.5,-230 384.5,-230"/>
<text text-anchor="middle" x="448" y="-237" font-family="Helvetica,sans-Serif" font-size="10.00">src/export/alg_line.cpp</text>
</a>
</g>
</g>
<!-- Node11&#45;&gt;Node12 -->
<g id="edge15" class="edge">
<title>Node11&#45;&gt;Node12</title>
<path fill="none" stroke="midnightblue" d="M455.52,-281.25C453.45,-270.02 451.12,-257.38 449.61,-249.19"/>
<polygon fill="midnightblue" stroke="midnightblue" points="452.14,-282.2 457.4,-291.4 459.02,-280.93 452.14,-282.2"/>
</g>
<!-- Node13&#45;&gt;Node9 -->
<g id="edge17" class="edge">
<title>Node13&#45;&gt;Node9</title>
<path fill="none" stroke="midnightblue" d="M692.39,-166.85C758.14,-156.65 858.37,-141.1 920.12,-131.52"/>
<polygon fill="midnightblue" stroke="midnightblue" points="691.49,-163.45 682.14,-168.44 692.56,-170.37 691.49,-163.45"/>
</g>
<!-- Node14 -->
<g id="node14" class="node">
<title>Node14</title>
<g id="a_node14"><a xlink:href="calc_8cpp.html" target="_top" xlink:title="Implementation of Calc Class.">
<polygon fill="white" stroke="black" points="573,-112.5 573,-131.5 681,-131.5 681,-112.5 573,-112.5"/>
<text text-anchor="middle" x="627" y="-119.5" font-family="Helvetica,sans-Serif" font-size="10.00">src/export/calc.cpp</text>
</a>
</g>
</g>
<!-- Node13&#45;&gt;Node14 -->
<g id="edge18" class="edge">
<title>Node13&#45;&gt;Node14</title>
<path fill="none" stroke="midnightblue" d="M627,-157.8C627,-148.91 627,-138.78 627,-131.75"/>
<polygon fill="midnightblue" stroke="midnightblue" points="623.5,-158.08 627,-168.08 630.5,-158.08 623.5,-158.08"/>
</g>
<!-- Node15&#45;&gt;Node7 -->
<g id="edge20" class="edge">
<title>Node15&#45;&gt;Node7</title>
<path fill="none" stroke="midnightblue" d="M1208.09,-282.46C1199.35,-265.94 1186.97,-243.28 1175,-224 1138.77,-165.65 1089.86,-99.01 1072.47,-75.64"/>
<polygon fill="midnightblue" stroke="midnightblue" points="1205.04,-284.18 1212.78,-291.41 1211.24,-280.93 1205.04,-284.18"/>
</g>
<!-- Node16 -->
<g id="node16" class="node">
<title>Node16</title>
<g id="a_node16"><a xlink:href="channel__graph_8cpp.html" target="_top" xlink:title="Implementation of Channel_Graph Class.">
<polygon fill="white" stroke="black" points="1222.5,-224.5 1222.5,-254.5 1329.5,-254.5 1329.5,-224.5 1222.5,-224.5"/>
<text text-anchor="start" x="1230.5" y="-242.5" font-family="Helvetica,sans-Serif" font-size="10.00">src/export/channel</text>
<text text-anchor="middle" x="1276" y="-231.5" font-family="Helvetica,sans-Serif" font-size="10.00">_graph.cpp</text>
</a>
</g>
</g>
<!-- Node15&#45;&gt;Node16 -->
<g id="edge21" class="edge">
<title>Node15&#45;&gt;Node16</title>
<path fill="none" stroke="midnightblue" d="M1238.75,-283.74C1247.04,-274.12 1256.54,-263.09 1263.87,-254.58"/>
<polygon fill="midnightblue" stroke="midnightblue" points="1236.03,-281.54 1232.15,-291.4 1241.33,-286.1 1236.03,-281.54"/>
</g>
<!-- Node17&#45;&gt;Node11 -->
<g id="edge23" class="edge">
<title>Node17&#45;&gt;Node11</title>
<path fill="none" stroke="midnightblue" d="M531.13,-353.01C516.3,-343.52 496.76,-331.02 481.92,-321.52"/>
<polygon fill="midnightblue" stroke="midnightblue" points="529.37,-356.03 539.68,-358.48 533.14,-350.14 529.37,-356.03"/>
</g>
<!-- Node18&#45;&gt;Node9 -->
<g id="edge25" class="edge">
<title>Node18&#45;&gt;Node9</title>
<path fill="none" stroke="midnightblue" d="M1060.27,-288.61C1053.3,-279 1044.73,-266.61 1038,-255 1012.01,-210.19 987.43,-152.98 978.52,-131.58"/>
<polygon fill="midnightblue" stroke="midnightblue" points="1057.6,-290.88 1066.36,-296.84 1063.23,-286.72 1057.6,-290.88"/>
</g>
<!-- Node19 -->
<g id="node19" class="node">
<title>Node19</title>
<g id="a_node19"><a xlink:href="macro_8cpp.html" target="_top" xlink:title="Implementation of Macro class.">
<polygon fill="white" stroke="black" points="1046.5,-230 1046.5,-249 1165.5,-249 1165.5,-230 1046.5,-230"/>
<text text-anchor="middle" x="1106" y="-237" font-family="Helvetica,sans-Serif" font-size="10.00">src/export/macro.cpp</text>
</a>
</g>
</g>
<!-- Node18&#45;&gt;Node19 -->
<g id="edge26" class="edge">
<title>Node18&#45;&gt;Node19</title>
<path fill="none" stroke="midnightblue" d="M1082.06,-287.66C1088.42,-275.13 1096.65,-258.91 1101.62,-249.13"/>
<polygon fill="midnightblue" stroke="midnightblue" points="1078.86,-286.23 1077.45,-296.73 1085.1,-289.4 1078.86,-286.23"/>
</g>
<!-- Node20&#45;&gt;Node7 -->
<g id="edge28" class="edge">
<title>Node20&#45;&gt;Node7</title>
<path fill="none" stroke="midnightblue" d="M1270.5,-409.83C1308.82,-390.43 1358,-356.08 1358,-307.5 1358,-307.5 1358,-307.5 1358,-177 1358,-125.4 1196.31,-89.68 1113.56,-74.78"/>
<polygon fill="midnightblue" stroke="midnightblue" points="1268.49,-406.92 1261.03,-414.44 1271.55,-413.21 1268.49,-406.92"/>
</g>
<!-- Node22 -->
<g id="node22" class="node">
<title>Node22</title>
<g id="a_node22"><a xlink:href="log__global_8h.html" target="_top" xlink:title="Global Access of Log.">
<polygon fill="white" stroke="black" points="643,-358.5 643,-377.5 757,-377.5 757,-358.5 643,-358.5"/>
<text text-anchor="middle" x="700" y="-365.5" font-family="Helvetica,sans-Serif" font-size="10.00">include/log_global.h</text>
</a>
</g>
</g>
<!-- Node21&#45;&gt;Node22 -->
<g id="edge30" class="edge">
<title>Node21&#45;&gt;Node22</title>
<path fill="none" stroke="midnightblue" d="M673.78,-411.17C680.66,-400.11 689.27,-386.25 694.71,-377.51"/>
<polygon fill="midnightblue" stroke="midnightblue" points="670.61,-409.63 668.3,-419.98 676.55,-413.33 670.61,-409.63"/>
</g>
<!-- Node22&#45;&gt;Node2 -->
<g id="edge31" class="edge">
<title>Node22&#45;&gt;Node2</title>
<path fill="none" stroke="midnightblue" d="M633.31,-358.04C633.2,-358.03 633.1,-358.01 633,-358 508.96,-341.64 362.67,-322.82 289.54,-313.45"/>
<polygon fill="midnightblue" stroke="midnightblue" points="632.61,-361.48 642.98,-359.32 633.53,-354.54 632.61,-361.48"/>
</g>
<!-- Node22&#45;&gt;Node3 -->
<g id="edge49" class="edge">
<title>Node22&#45;&gt;Node3</title>
<path fill="none" stroke="midnightblue" d="M632.39,-358.1C518.8,-348.17 275.61,-360.03 187,-322 148.8,-305.6 115.75,-266.54 102.36,-249.13"/>
<polygon fill="midnightblue" stroke="midnightblue" points="632.35,-361.61 642.64,-359.09 633.03,-354.64 632.35,-361.61"/>
</g>
<!-- Node22&#45;&gt;Node4 -->
<g id="edge50" class="edge">
<title>Node22&#45;&gt;Node4</title>
<path fill="none" stroke="midnightblue" d="M660.6,-355.1C613.22,-338.07 540,-301.83 540,-240.5 540,-240.5 540,-240.5 540,-121 540,-90.64 539.81,-78.11 519,-56 499.24,-35 468.5,-23.65 443.77,-17.6"/>
<polygon fill="midnightblue" stroke="midnightblue" points="659.69,-358.49 670.28,-358.45 661.97,-351.87 659.69,-358.49"/>
</g>
<!-- Node22&#45;&gt;Node11 -->
<g id="edge41" class="edge">
<title>Node22&#45;&gt;Node11</title>
<path fill="none" stroke="midnightblue" d="M655.76,-356.03C615.28,-346 555.33,-331.13 512.45,-320.5"/>
<polygon fill="midnightblue" stroke="midnightblue" points="655.07,-359.47 665.61,-358.48 656.75,-352.67 655.07,-359.47"/>
</g>
<!-- Node22&#45;&gt;Node13 -->
<g id="edge42" class="edge">
<title>Node22&#45;&gt;Node13</title>
<path fill="none" stroke="midnightblue" d="M669.61,-353.63C656.63,-346.26 642.72,-335.78 635,-322 609.85,-277.09 620.14,-211.31 625,-187.78"/>
<polygon fill="midnightblue" stroke="midnightblue" points="668.31,-356.9 678.79,-358.45 671.56,-350.7 668.31,-356.9"/>
</g>
<!-- Node22&#45;&gt;Node15 -->
<g id="edge43" class="edge">
<title>Node22&#45;&gt;Node15</title>
<path fill="none" stroke="midnightblue" d="M767.09,-362.26C854.75,-355.61 1012.88,-342.02 1147,-322 1149.94,-321.56 1152.94,-321.08 1155.97,-320.58"/>
<polygon fill="midnightblue" stroke="midnightblue" points="766.73,-358.78 757.02,-363.02 767.25,-365.76 766.73,-358.78"/>
</g>
<!-- Node22&#45;&gt;Node18 -->
<g id="edge44" class="edge">
<title>Node22&#45;&gt;Node18</title>
<path fill="none" stroke="midnightblue" d="M763.76,-356.83C835.9,-345.32 952.12,-326.78 1019.66,-316.01"/>
<polygon fill="midnightblue" stroke="midnightblue" points="762.77,-353.44 753.44,-358.48 763.87,-360.36 762.77,-353.44"/>
</g>
<!-- Node23 -->
<g id="node23" class="node">
<title>Node23</title>
<g id="a_node23"><a xlink:href="error__code_8h.html" target="_top" xlink:title="Error Codes (Including Warnings)">
<polygon fill="white" stroke="black" points="704,-168.5 704,-187.5 820,-187.5 820,-168.5 704,-168.5"/>
<text text-anchor="middle" x="762" y="-175.5" font-family="Helvetica,sans-Serif" font-size="10.00">include/error_code.h</text>
</a>
</g>
</g>
<!-- Node22&#45;&gt;Node23 -->
<g id="edge32" class="edge">
<title>Node22&#45;&gt;Node23</title>
<path fill="none" stroke="midnightblue" d="M767.06,-357.2C823.4,-344.7 898.53,-316.74 923,-255 928.08,-242.19 931.33,-234.98 923,-224 910.24,-207.18 859.97,-194.94 818.96,-187.51"/>
<polygon fill="midnightblue" stroke="midnightblue" points="766.2,-353.8 757.13,-359.28 767.64,-360.65 766.2,-353.8"/>
</g>
<!-- Node28 -->
<g id="node28" class="node">
<title>Node28</title>
<g id="a_node28"><a xlink:href="type__track_8h.html" target="_top" xlink:title="Track data type of variables.">
<polygon fill="white" stroke="black" points="644.5,-291.5 644.5,-321.5 755.5,-321.5 755.5,-291.5 644.5,-291.5"/>
<text text-anchor="start" x="652.5" y="-309.5" font-family="Helvetica,sans-Serif" font-size="10.00">include/export/type</text>
<text text-anchor="middle" x="700" y="-298.5" font-family="Helvetica,sans-Serif" font-size="10.00">_track.h</text>
</a>
</g>
</g>
<!-- Node22&#45;&gt;Node28 -->
<g id="edge45" class="edge">
<title>Node22&#45;&gt;Node28</title>
<path fill="none" stroke="midnightblue" d="M700,-348.23C700,-339.59 700,-329.5 700,-321.52"/>
<polygon fill="midnightblue" stroke="midnightblue" points="696.5,-348.48 700,-358.48 703.5,-348.48 696.5,-348.48"/>
</g>
<!-- Node31 -->
<g id="node31" class="node">
<title>Node31</title>
<g id="a_node31"><a xlink:href="term_8cpp.html" target="_top" xlink:title="Implementation of Term Class and Color/Style Definitions.">
<polygon fill="white" stroke="black" points="773.5,-297 773.5,-316 850.5,-316 850.5,-297 773.5,-297"/>
<text text-anchor="middle" x="812" y="-304" font-family="Helvetica,sans-Serif" font-size="10.00">src/term.cpp</text>
</a>
</g>
</g>
<!-- Node22&#45;&gt;Node31 -->
<g id="edge51" class="edge">
<title>Node22&#45;&gt;Node31</title>
<path fill="none" stroke="midnightblue" d="M725.01,-353.71C746.7,-342.19 777.45,-325.86 795.98,-316.01"/>
<polygon fill="midnightblue" stroke="midnightblue" points="723.24,-350.69 716.05,-358.48 726.52,-356.87 723.24,-350.69"/>
</g>
<!-- Node23&#45;&gt;Node4 -->
<g id="edge40" class="edge">
<title>Node23&#45;&gt;Node4</title>
<path fill="none" stroke="midnightblue" d="M747.22,-160.8C733.48,-146.49 711.91,-125.81 690,-112 610.04,-61.59 501.6,-32.22 443.93,-19.16"/>
<polygon fill="midnightblue" stroke="midnightblue" points="744.94,-163.49 754.34,-168.39 750.05,-158.7 744.94,-163.49"/>
</g>
<!-- Node23&#45;&gt;Node7 -->
<g id="edge33" class="edge">
<title>Node23&#45;&gt;Node7</title>
<path fill="none" stroke="midnightblue" d="M790.95,-164.41C811.6,-155.42 840.03,-143 865,-132 885.03,-123.17 889.44,-119.5 910,-112 950.92,-97.09 999.27,-83.78 1031.17,-75.58"/>
<polygon fill="midnightblue" stroke="midnightblue" points="789.53,-161.21 781.76,-168.41 792.33,-167.63 789.53,-161.21"/>
</g>
<!-- Node24 -->
<g id="node24" class="node">
<title>Node24</title>
<g id="a_node24"><a xlink:href="read_8h.html" target="_top" xlink:title="Read YAML Configuration.">
<polygon fill="white" stroke="black" points="770,-112.5 770,-131.5 856,-131.5 856,-112.5 770,-112.5"/>
<text text-anchor="middle" x="813" y="-119.5" font-family="Helvetica,sans-Serif" font-size="10.00">include/read.h</text>
</a>
</g>
</g>
<!-- Node23&#45;&gt;Node24 -->
<g id="edge34" class="edge">
<title>Node23&#45;&gt;Node24</title>
<path fill="none" stroke="midnightblue" d="M777.38,-160.72C786.37,-151.2 797.36,-139.56 804.74,-131.75"/>
<polygon fill="midnightblue" stroke="midnightblue" points="774.74,-158.41 770.42,-168.08 779.83,-163.22 774.74,-158.41"/>
</g>
<!-- Node23&#45;&gt;Node26 -->
<g id="edge37" class="edge">
<title>Node23&#45;&gt;Node26</title>
<path fill="none" stroke="midnightblue" d="M700.34,-166.79C636.06,-156.14 536.93,-139.72 480.1,-130.3"/>
<polygon fill="midnightblue" stroke="midnightblue" points="699.91,-170.26 710.34,-168.44 701.05,-163.36 699.91,-170.26"/>
</g>
<!-- Node24&#45;&gt;Node7 -->
<g id="edge35" class="edge">
<title>Node24&#45;&gt;Node7</title>
<path fill="none" stroke="midnightblue" d="M862.92,-110.35C910.73,-100.14 981.95,-84.94 1026.1,-75.52"/>
<polygon fill="midnightblue" stroke="midnightblue" points="862.14,-106.93 853.09,-112.44 863.6,-113.78 862.14,-106.93"/>
</g>
<!-- Node25 -->
<g id="node25" class="node">
<title>Node25</title>
<g id="a_node25"><a xlink:href="read_8cpp.html" target="_top" xlink:title="Implementation of class YAML_Error and ReadConfig.">
<polygon fill="white" stroke="black" points="775,-56.5 775,-75.5 851,-75.5 851,-56.5 775,-56.5"/>
<text text-anchor="middle" x="813" y="-63.5" font-family="Helvetica,sans-Serif" font-size="10.00">src/read.cpp</text>
</a>
</g>
</g>
<!-- Node24&#45;&gt;Node25 -->
<g id="edge36" class="edge">
<title>Node24&#45;&gt;Node25</title>
<path fill="none" stroke="midnightblue" d="M813,-101.8C813,-92.91 813,-82.78 813,-75.75"/>
<polygon fill="midnightblue" stroke="midnightblue" points="809.5,-102.08 813,-112.08 816.5,-102.08 809.5,-102.08"/>
</g>
<!-- Node26&#45;&gt;Node4 -->
<g id="edge38" class="edge">
<title>Node26&#45;&gt;Node4</title>
<path fill="none" stroke="midnightblue" d="M430.67,-102.67C423.67,-78.62 411.68,-37.39 406.5,-19.59"/>
<polygon fill="midnightblue" stroke="midnightblue" points="427.33,-103.74 433.49,-112.37 434.06,-101.79 427.33,-103.74"/>
</g>
<!-- Node27 -->
<g id="node27" class="node">
<title>Node27</title>
<g id="a_node27"><a xlink:href="style_8cpp.html" target="_top" xlink:title="Implementation of Style class.">
<polygon fill="white" stroke="black" points="432,-56.5 432,-75.5 510,-75.5 510,-56.5 432,-56.5"/>
<text text-anchor="middle" x="471" y="-63.5" font-family="Helvetica,sans-Serif" font-size="10.00">src/style.cpp</text>
</a>
</g>
</g>
<!-- Node26&#45;&gt;Node27 -->
<g id="edge39" class="edge">
<title>Node26&#45;&gt;Node27</title>
<path fill="none" stroke="midnightblue" d="M447.3,-103.57C453.32,-94.27 460.47,-83.25 465.33,-75.75"/>
<polygon fill="midnightblue" stroke="midnightblue" points="444.28,-101.79 441.78,-112.08 450.16,-105.6 444.28,-101.79"/>
</g>
<!-- Node29 -->
<g id="node29" class="node">
<title>Node29</title>
<g id="a_node29"><a xlink:href="type__track__global_8h.html" target="_top" xlink:title="Global Access of Type Track.">
<polygon fill="white" stroke="black" points="644.5,-224.5 644.5,-254.5 755.5,-254.5 755.5,-224.5 644.5,-224.5"/>
<text text-anchor="start" x="652.5" y="-242.5" font-family="Helvetica,sans-Serif" font-size="10.00">include/export/type</text>
<text text-anchor="middle" x="700" y="-231.5" font-family="Helvetica,sans-Serif" font-size="10.00">_track_global.h</text>
</a>
</g>
</g>
<!-- Node28&#45;&gt;Node29 -->
<g id="edge46" class="edge">
<title>Node28&#45;&gt;Node29</title>
<path fill="none" stroke="midnightblue" d="M700,-281.11C700,-272.15 700,-262.32 700,-254.58"/>
<polygon fill="midnightblue" stroke="midnightblue" points="696.5,-281.4 700,-291.4 703.5,-281.4 696.5,-281.4"/>
</g>
<!-- Node30 -->
<g id="node30" class="node">
<title>Node30</title>
<g id="a_node30"><a xlink:href="type__track_8cpp.html" target="_top" xlink:title="Implementation of Type_Track Class.">
<polygon fill="white" stroke="black" points="774,-230 774,-249 914,-249 914,-230 774,-230"/>
<text text-anchor="middle" x="844" y="-237" font-family="Helvetica,sans-Serif" font-size="10.00">src/export/type_track.cpp</text>
</a>
</g>
</g>
<!-- Node28&#45;&gt;Node30 -->
<g id="edge48" class="edge">
<title>Node28&#45;&gt;Node30</title>
<path fill="none" stroke="midnightblue" d="M740.69,-287.13C768.41,-274.62 803.81,-258.64 825.15,-249.01"/>
<polygon fill="midnightblue" stroke="midnightblue" points="738.92,-284.09 731.25,-291.4 741.8,-290.47 738.92,-284.09"/>
</g>
<!-- Node29&#45;&gt;Node13 -->
<g id="edge47" class="edge">
<title>Node29&#45;&gt;Node13</title>
<path fill="none" stroke="midnightblue" d="M674.72,-217.89C662.02,-207.54 647.31,-195.56 637.62,-187.66"/>
<polygon fill="midnightblue" stroke="midnightblue" points="672.74,-220.79 682.7,-224.4 677.16,-215.37 672.74,-220.79"/>
</g>
<!-- Node33 -->
<g id="node33" class="node">
<title>Node33</title>
<g id="a_node33"><a xlink:href="tools_2log_2log_8cpp.html" target="_top" xlink:title="mmCEsim Log Tool">
<polygon fill="white" stroke="black" points="1424.5,-358.5 1424.5,-377.5 1521.5,-377.5 1521.5,-358.5 1424.5,-358.5"/>
<text text-anchor="middle" x="1473" y="-365.5" font-family="Helvetica,sans-Serif" font-size="10.00">tools/log/log.cpp</text>
</a>
</g>
</g>
<!-- Node32&#45;&gt;Node33 -->
<g id="edge56" class="edge">
<title>Node32&#45;&gt;Node33</title>
<path fill="none" stroke="midnightblue" d="M1470.94,-409.82C1471.49,-399 1472.15,-385.9 1472.57,-377.51"/>
<polygon fill="midnightblue" stroke="midnightblue" points="1467.44,-409.81 1470.43,-419.98 1474.43,-410.16 1467.44,-409.81"/>
</g>
</g>
</svg>
