<?xml version="1.0" encoding="UTF-8" standalone="no"?>
<!DOCTYPE svg PUBLIC "-//W3C//DTD SVG 1.1//EN"
 "http://www.w3.org/Graphics/SVG/1.1/DTD/svg11.dtd">
<!-- Generated by graphviz version 2.43.0 (0)
 -->
<!-- Title: appDir Pages: 1 -->
<svg width="847pt" height="582pt"
 viewBox="0.00 0.00 847.00 582.00" xmlns="http://www.w3.org/2000/svg" xmlns:xlink="http://www.w3.org/1999/xlink">
<g id="graph0" class="graph" transform="scale(1 1) rotate(0) translate(4 578)">
<title>appDir</title>
<polygon fill="white" stroke="transparent" points="-4,4 -4,-578 843,-578 843,4 -4,4"/>
<!-- Node1 -->
<g id="node1" class="node">
<title>Node1</title>
<g id="a_node1"><a xlink:title=" ">
<polygon fill="#bfbfbf" stroke="black" points="790,-376.57 790,-395.57 839,-395.57 839,-376.57 790,-376.57"/>
<text text-anchor="middle" x="814.5" y="-383.57" font-family="Helvetica,sans-Serif" font-size="10.00">appDir</text>
</a>
</g>
</g>
<!-- Node2 -->
<g id="node2" class="node">
<title>Node2</title>
<g id="a_node2"><a xlink:href="class_export.html#a6000afae41f65b45b6a1e11447c1789c" target="_top" xlink:title=" ">
<polygon fill="white" stroke="black" points="295.5,-528.57 295.5,-547.57 402.5,-547.57 402.5,-528.57 295.5,-528.57"/>
<text text-anchor="middle" x="349" y="-535.57" font-family="Helvetica,sans-Serif" font-size="10.00">Export::_beginning</text>
</a>
</g>
</g>
<!-- Node1&#45;&gt;Node2 -->
<g id="edge1" class="edge">
<title>Node1&#45;&gt;Node2</title>
<path fill="none" stroke="midnightblue" d="M811.58,-405.77C807.35,-437.12 794.15,-497.64 754,-525.07 637.67,-604.53 455.35,-567.36 382.08,-547.62"/>
<polygon fill="midnightblue" stroke="midnightblue" points="815.08,-405.99 812.76,-395.65 808.12,-405.17 815.08,-405.99"/>
</g>
<!-- Node5 -->
<g id="node5" class="node">
<title>Node5</title>
<g id="a_node5"><a xlink:href="src_2main_8cpp.html#a0ddf1224851353fc92bfbff6f499fa97" target="_top" xlink:title=" ">
<polygon fill="white" stroke="black" points="34.5,-281.57 34.5,-300.57 75.5,-300.57 75.5,-281.57 34.5,-281.57"/>
<text text-anchor="middle" x="55" y="-288.57" font-family="Helvetica,sans-Serif" font-size="10.00">main</text>
</a>
</g>
</g>
<!-- Node1&#45;&gt;Node5 -->
<g id="edge34" class="edge">
<title>Node1&#45;&gt;Node5</title>
<path fill="none" stroke="midnightblue" d="M794.04,-370.14C782.99,-362.03 768.5,-352.89 754,-348.07 645.53,-311.99 611.81,-329.07 497.5,-329.07 497.5,-329.07 497.5,-329.07 348,-329.07 244.73,-329.07 122.63,-305.41 75.71,-295.43"/>
<polygon fill="midnightblue" stroke="midnightblue" points="792.03,-373.01 802.1,-376.31 796.29,-367.45 792.03,-373.01"/>
</g>
<!-- Node6 -->
<g id="node6" class="node">
<title>Node6</title>
<g id="a_node6"><a xlink:href="class_export.html#a966a54f05ada435d6d1ce6e4a9750f41" target="_top" xlink:title=" ">
<polygon fill="white" stroke="black" points="587,-471.57 587,-490.57 754,-490.57 754,-471.57 587,-471.57"/>
<text text-anchor="middle" x="670.5" y="-478.57" font-family="Helvetica,sans-Serif" font-size="10.00">Export::_checkALGdependency</text>
</a>
</g>
</g>
<!-- Node1&#45;&gt;Node6 -->
<g id="edge5" class="edge">
<title>Node1&#45;&gt;Node6</title>
<path fill="none" stroke="midnightblue" d="M802.53,-404.51C792.02,-420.65 774.72,-443.55 754,-457.07 744.38,-463.35 733.08,-468.02 721.99,-471.48"/>
<polygon fill="midnightblue" stroke="midnightblue" points="805.57,-406.25 807.91,-395.92 799.64,-402.54 805.57,-406.25"/>
</g>
<!-- Node7 -->
<g id="node7" class="node">
<title>Node7</title>
<g id="a_node7"><a xlink:href="class_export.html#a833aa02973f6b5c1f3e536e8646cf1ac" target="_top" xlink:title=" ">
<polygon fill="white" stroke="black" points="446.5,-471.57 446.5,-490.57 546.5,-490.57 546.5,-471.57 446.5,-471.57"/>
<text text-anchor="middle" x="496.5" y="-478.57" font-family="Helvetica,sans-Serif" font-size="10.00">Export::_loadALG</text>
</a>
</g>
</g>
<!-- Node1&#45;&gt;Node7 -->
<g id="edge16" class="edge">
<title>Node1&#45;&gt;Node7</title>
<path fill="none" stroke="midnightblue" d="M809.72,-405.8C803.41,-432.6 787.91,-479.52 754,-500.07 678.39,-545.9 566.3,-509.47 519.39,-490.61"/>
<polygon fill="midnightblue" stroke="midnightblue" points="813.22,-406.2 811.89,-395.68 806.37,-404.73 813.22,-406.2"/>
</g>
<!-- Node9 -->
<g id="node9" class="node">
<title>Node9</title>
<g id="a_node9"><a xlink:href="class_export.html#af64597af0c0b4cf569f96216bcd23b2c" target="_top" xlink:title=" ">
<polygon fill="white" stroke="black" points="444.5,-433.57 444.5,-452.57 548.5,-452.57 548.5,-433.57 444.5,-433.57"/>
<text text-anchor="middle" x="496.5" y="-440.57" font-family="Helvetica,sans-Serif" font-size="10.00">Export::_reporting</text>
</a>
</g>
</g>
<!-- Node1&#45;&gt;Node9 -->
<g id="edge17" class="edge">
<title>Node1&#45;&gt;Node9</title>
<path fill="none" stroke="midnightblue" d="M794.04,-402C782.99,-410.11 768.5,-419.25 754,-424.07 685.57,-446.83 601.4,-448.44 548.58,-446.52"/>
<polygon fill="midnightblue" stroke="midnightblue" points="796.29,-404.69 802.1,-395.82 792.03,-399.13 796.29,-404.69"/>
</g>
<!-- Node10 -->
<g id="node10" class="node">
<title>Node10</title>
<g id="a_node10"><a xlink:href="class_export.html#a59ba705b2369f21006ec7d7b7f3a4513" target="_top" xlink:title="Generate RIS reflection matrices.">
<polygon fill="white" stroke="black" points="612.5,-395.57 612.5,-414.57 728.5,-414.57 728.5,-395.57 612.5,-395.57"/>
<text text-anchor="middle" x="670.5" y="-402.57" font-family="Helvetica,sans-Serif" font-size="10.00">Export::_generateBF</text>
</a>
</g>
</g>
<!-- Node1&#45;&gt;Node10 -->
<g id="edge11" class="edge">
<title>Node1&#45;&gt;Node10</title>
<path fill="none" stroke="midnightblue" d="M779.75,-390.59C764.51,-392.63 746.07,-395.09 728.77,-397.41"/>
<polygon fill="midnightblue" stroke="midnightblue" points="780.28,-394.05 789.73,-389.25 779.36,-387.11 780.28,-394.05"/>
</g>
<!-- Node12 -->
<g id="node12" class="node">
<title>Node12</title>
<g id="a_node12"><a xlink:href="class_export.html#ad7268f886ac4826f4b6ea738e423e520" target="_top" xlink:title=" ">
<polygon fill="white" stroke="black" points="596.5,-357.57 596.5,-376.57 744.5,-376.57 744.5,-357.57 596.5,-357.57"/>
<text text-anchor="middle" x="670.5" y="-364.57" font-family="Helvetica,sans-Serif" font-size="10.00">Export::_generateChannels</text>
</a>
</g>
</g>
<!-- Node1&#45;&gt;Node12 -->
<g id="edge14" class="edge">
<title>Node1&#45;&gt;Node12</title>
<path fill="none" stroke="midnightblue" d="M779.57,-381.53C768.37,-380.03 755.46,-378.3 742.55,-376.58"/>
<polygon fill="midnightblue" stroke="midnightblue" points="779.36,-385.03 789.73,-382.89 780.28,-378.09 779.36,-385.03"/>
</g>
<!-- Node13 -->
<g id="node13" class="node">
<title>Node13</title>
<g id="a_node13"><a xlink:href="utils_8h.html#a4b2e6c6245b704aeb7448bf62b1cf422" target="_top" xlink:title=" ">
<polygon fill="white" stroke="black" points="644,-224.57 644,-243.57 697,-243.57 697,-224.57 644,-224.57"/>
<text text-anchor="middle" x="670.5" y="-231.57" font-family="Helvetica,sans-Serif" font-size="10.00">dataDir</text>
</a>
</g>
</g>
<!-- Node1&#45;&gt;Node13 -->
<g id="edge18" class="edge">
<title>Node1&#45;&gt;Node13</title>
<path fill="none" stroke="midnightblue" d="M799.15,-367.98C787.38,-353.38 770.09,-332.48 754,-315.07 729.2,-288.24 697.97,-258.62 681.98,-243.74"/>
<polygon fill="midnightblue" stroke="midnightblue" points="796.72,-370.55 805.71,-376.17 802.19,-366.17 796.72,-370.55"/>
</g>
<!-- Node25 -->
<g id="node25" class="node">
<title>Node25</title>
<g id="a_node25"><a xlink:href="class_simulate.html#a03ef6895241e8accb07491e98bbfcf0c" target="_top" xlink:title=" ">
<polygon fill="white" stroke="black" points="616,-91.57 616,-110.57 725,-110.57 725,-91.57 616,-91.57"/>
<text text-anchor="middle" x="670.5" y="-98.57" font-family="Helvetica,sans-Serif" font-size="10.00">Simulate::simulate</text>
</a>
</g>
</g>
<!-- Node1&#45;&gt;Node25 -->
<g id="edge35" class="edge">
<title>Node1&#45;&gt;Node25</title>
<path fill="none" stroke="midnightblue" d="M808.66,-366.37C800.21,-333.74 781.04,-266.93 754,-215.07 732.2,-173.26 696.38,-129.7 680.07,-110.79"/>
<polygon fill="midnightblue" stroke="midnightblue" points="805.35,-367.57 811.2,-376.4 812.14,-365.85 805.35,-367.57"/>
</g>
<!-- Node27 -->
<g id="node27" class="node">
<title>Node27</title>
<g id="a_node27"><a xlink:href="class_style.html#a06fd4016b36d2fa2e46c8c092701c7ea" target="_top" xlink:title="Call the astyle child process to style the generated C++ code.">
<polygon fill="white" stroke="black" points="635,-15.57 635,-34.57 706,-34.57 706,-15.57 635,-15.57"/>
<text text-anchor="middle" x="670.5" y="-22.57" font-family="Helvetica,sans-Serif" font-size="10.00">Style::style</text>
</a>
</g>
</g>
<!-- Node1&#45;&gt;Node27 -->
<g id="edge38" class="edge">
<title>Node1&#45;&gt;Node27</title>
<path fill="none" stroke="midnightblue" d="M811.59,-366.31C805.51,-306.69 785.21,-129.73 754,-82.07 739.5,-59.93 713.14,-43.99 694.11,-34.69"/>
<polygon fill="midnightblue" stroke="midnightblue" points="808.11,-366.71 812.58,-376.31 815.07,-366.01 808.11,-366.71"/>
</g>
<!-- Node3 -->
<g id="node3" class="node">
<title>Node3</title>
<g id="a_node3"><a xlink:href="class_export.html#affc37d1d677a83d3e5d36a4e37b7a72b" target="_top" xlink:title=" ">
<polygon fill="white" stroke="black" points="146,-414.57 146,-433.57 256,-433.57 256,-414.57 146,-414.57"/>
<text text-anchor="middle" x="201" y="-421.57" font-family="Helvetica,sans-Serif" font-size="10.00">Export::exportCode</text>
</a>
</g>
</g>
<!-- Node2&#45;&gt;Node3 -->
<g id="edge2" class="edge">
<title>Node2&#45;&gt;Node3</title>
<path fill="none" stroke="midnightblue" d="M324.56,-522.96C314.38,-516.2 302.43,-507.98 292,-500.07 262.34,-477.58 229.36,-448.66 212.78,-433.81"/>
<polygon fill="midnightblue" stroke="midnightblue" points="322.69,-525.92 332.96,-528.48 326.53,-520.07 322.69,-525.92"/>
</g>
<!-- Node4 -->
<g id="node4" class="node">
<title>Node4</title>
<g id="a_node4"><a xlink:href="class_export.html#a94fab568af6ddd6447efca74e205e081" target="_top" xlink:title=" ">
<polygon fill="white" stroke="black" points="0,-414.57 0,-433.57 110,-433.57 110,-414.57 0,-414.57"/>
<text text-anchor="middle" x="55" y="-421.57" font-family="Helvetica,sans-Serif" font-size="10.00">Export::exportCode</text>
</a>
</g>
</g>
<!-- Node3&#45;&gt;Node4 -->
<g id="edge3" class="edge">
<title>Node3&#45;&gt;Node4</title>
<path fill="none" stroke="midnightblue" d="M135.73,-424.07C127.25,-424.07 118.62,-424.07 110.33,-424.07"/>
<polygon fill="midnightblue" stroke="midnightblue" points="135.97,-427.57 145.97,-424.07 135.97,-420.57 135.97,-427.57"/>
</g>
<!-- Node3&#45;&gt;Node5 -->
<g id="edge4" class="edge">
<title>Node3&#45;&gt;Node5</title>
<path fill="none" stroke="midnightblue" d="M181.92,-407.37C151.53,-379.3 91.11,-323.5 66.65,-300.91"/>
<polygon fill="midnightblue" stroke="midnightblue" points="179.92,-410.29 189.64,-414.5 184.67,-405.15 179.92,-410.29"/>
</g>
<!-- Node6&#45;&gt;Node7 -->
<g id="edge6" class="edge">
<title>Node6&#45;&gt;Node7</title>
<path fill="none" stroke="midnightblue" d="M576.77,-481.07C566.36,-481.07 556.08,-481.07 546.54,-481.07"/>
<polygon fill="midnightblue" stroke="midnightblue" points="576.77,-484.57 586.77,-481.07 576.77,-477.57 576.77,-484.57"/>
</g>
<!-- Node6&#45;&gt;Node9 -->
<g id="edge9" class="edge">
<title>Node6&#45;&gt;Node9</title>
<path fill="none" stroke="midnightblue" d="M616.3,-469.32C591.98,-463.94 563.55,-457.66 540.59,-452.59"/>
<polygon fill="midnightblue" stroke="midnightblue" points="615.58,-472.74 626.1,-471.48 617.09,-465.91 615.58,-472.74"/>
</g>
<!-- Node8 -->
<g id="node8" class="node">
<title>Node8</title>
<g id="a_node8"><a xlink:href="class_export.html#a89d3ae54dd2261cf35be148011b79fe4" target="_top" xlink:title=" ">
<polygon fill="white" stroke="black" points="293,-471.57 293,-490.57 405,-490.57 405,-471.57 293,-471.57"/>
<text text-anchor="middle" x="349" y="-478.57" font-family="Helvetica,sans-Serif" font-size="10.00">Export::_algorithms</text>
</a>
</g>
</g>
<!-- Node7&#45;&gt;Node8 -->
<g id="edge7" class="edge">
<title>Node7&#45;&gt;Node8</title>
<path fill="none" stroke="midnightblue" d="M436.16,-481.07C425.93,-481.07 415.33,-481.07 405.21,-481.07"/>
<polygon fill="midnightblue" stroke="midnightblue" points="436.24,-484.57 446.24,-481.07 436.24,-477.57 436.24,-484.57"/>
</g>
<!-- Node8&#45;&gt;Node3 -->
<g id="edge8" class="edge">
<title>Node8&#45;&gt;Node3</title>
<path fill="none" stroke="midnightblue" d="M314.18,-467.87C287.37,-457.4 250.55,-443.02 226.52,-433.64"/>
<polygon fill="midnightblue" stroke="midnightblue" points="312.97,-471.15 323.56,-471.53 315.52,-464.63 312.97,-471.15"/>
</g>
<!-- Node9&#45;&gt;Node3 -->
<g id="edge10" class="edge">
<title>Node9&#45;&gt;Node3</title>
<path fill="none" stroke="midnightblue" d="M434.16,-439.1C381.53,-435.69 306.41,-430.83 256.01,-427.57"/>
<polygon fill="midnightblue" stroke="midnightblue" points="434.17,-442.61 444.38,-439.76 434.62,-435.62 434.17,-442.61"/>
</g>
<!-- Node11 -->
<g id="node11" class="node">
<title>Node11</title>
<g id="a_node11"><a xlink:href="class_export.html#a26fa49d9882a342d011ba715e0c14109" target="_top" xlink:title=" ">
<polygon fill="white" stroke="black" points="297,-395.57 297,-414.57 401,-414.57 401,-395.57 297,-395.57"/>
<text text-anchor="middle" x="349" y="-402.57" font-family="Helvetica,sans-Serif" font-size="10.00">Export::_sounding</text>
</a>
</g>
</g>
<!-- Node10&#45;&gt;Node11 -->
<g id="edge12" class="edge">
<title>Node10&#45;&gt;Node11</title>
<path fill="none" stroke="midnightblue" d="M602.24,-405.07C542.21,-405.07 455.61,-405.07 401.09,-405.07"/>
<polygon fill="midnightblue" stroke="midnightblue" points="602.38,-408.57 612.38,-405.07 602.38,-401.57 602.38,-408.57"/>
</g>
<!-- Node11&#45;&gt;Node3 -->
<g id="edge13" class="edge">
<title>Node11&#45;&gt;Node3</title>
<path fill="none" stroke="midnightblue" d="M286.9,-413.02C276.73,-414.34 266.25,-415.71 256.26,-417.01"/>
<polygon fill="midnightblue" stroke="midnightblue" points="287.47,-416.48 296.94,-411.71 286.57,-409.53 287.47,-416.48"/>
</g>
<!-- Node12&#45;&gt;Node3 -->
<g id="edge15" class="edge">
<title>Node12&#45;&gt;Node3</title>
<path fill="none" stroke="midnightblue" d="M586.3,-363.03C509.05,-361.2 391.33,-363.35 292,-386.07 265.71,-392.08 237.36,-405.29 219.65,-414.43"/>
<polygon fill="midnightblue" stroke="midnightblue" points="586.37,-366.53 596.46,-363.29 586.55,-359.53 586.37,-366.53"/>
</g>
<!-- Node14 -->
<g id="node14" class="node">
<title>Node14</title>
<g id="a_node14"><a xlink:href="class_config.html#a2f8720e9953fb42b8304089c40fe896e" target="_top" xlink:title=" ">
<polygon fill="white" stroke="black" points="456.5,-205.57 456.5,-224.57 536.5,-224.57 536.5,-205.57 456.5,-205.57"/>
<text text-anchor="middle" x="496.5" y="-212.57" font-family="Helvetica,sans-Serif" font-size="10.00">Config::_load</text>
</a>
</g>
</g>
<!-- Node13&#45;&gt;Node14 -->
<g id="edge19" class="edge">
<title>Node13&#45;&gt;Node14</title>
<path fill="none" stroke="midnightblue" d="M633.47,-230.09C605.1,-226.96 565.63,-222.6 536.52,-219.38"/>
<polygon fill="midnightblue" stroke="midnightblue" points="633.43,-233.61 643.75,-231.23 634.19,-226.65 633.43,-233.61"/>
</g>
<!-- Node16 -->
<g id="node16" class="node">
<title>Node16</title>
<g id="a_node16"><a xlink:href="tools_2log_2log_8h.html#a5d2420c3e47ebff9cfe3c6004f0e62f7" target="_top" xlink:title=" ">
<polygon fill="white" stroke="black" points="457.5,-167.57 457.5,-186.57 535.5,-186.57 535.5,-167.57 457.5,-167.57"/>
<text text-anchor="middle" x="496.5" y="-174.57" font-family="Helvetica,sans-Serif" font-size="10.00">logFileName</text>
</a>
</g>
</g>
<!-- Node13&#45;&gt;Node16 -->
<g id="edge21" class="edge">
<title>Node13&#45;&gt;Node16</title>
<path fill="none" stroke="midnightblue" d="M633.94,-222.29C602.08,-211.73 555.91,-196.43 526.3,-186.61"/>
<polygon fill="midnightblue" stroke="midnightblue" points="633.16,-225.71 643.75,-225.54 635.36,-219.07 633.16,-225.71"/>
</g>
<!-- Node21 -->
<g id="node21" class="node">
<title>Node21</title>
<g id="a_node21"><a xlink:href="class_config.html#a33247625b70e062fbd93ba91ae0c7d76" target="_top" xlink:title="Read the key.">
<polygon fill="white" stroke="black" points="445.5,-129.57 445.5,-148.57 547.5,-148.57 547.5,-129.57 445.5,-129.57"/>
<text text-anchor="middle" x="496.5" y="-136.57" font-family="Helvetica,sans-Serif" font-size="10.00">Config::operator[]</text>
</a>
</g>
</g>
<!-- Node13&#45;&gt;Node21 -->
<g id="edge28" class="edge">
<title>Node13&#45;&gt;Node21</title>
<path fill="none" stroke="midnightblue" d="M648.24,-218.31C625.18,-201.72 586.84,-175.64 551,-158.07 543.83,-154.56 535.84,-151.36 528.27,-148.64"/>
<polygon fill="midnightblue" stroke="midnightblue" points="646.43,-221.32 656.58,-224.37 650.55,-215.66 646.43,-221.32"/>
</g>
<!-- Node22 -->
<g id="node22" class="node">
<title>Node22</title>
<g id="a_node22"><a xlink:href="class_config.html#a568ec68975e8e9338356619ebfb6a4f8" target="_top" xlink:title="Set the key value.">
<polygon fill="white" stroke="black" points="462.5,-281.57 462.5,-300.57 530.5,-300.57 530.5,-281.57 462.5,-281.57"/>
<text text-anchor="middle" x="496.5" y="-288.57" font-family="Helvetica,sans-Serif" font-size="10.00">Config::set</text>
</a>
</g>
</g>
<!-- Node13&#45;&gt;Node22 -->
<g id="edge29" class="edge">
<title>Node13&#45;&gt;Node22</title>
<path fill="none" stroke="midnightblue" d="M633.94,-245.85C602.08,-256.41 555.91,-271.71 526.3,-281.53"/>
<polygon fill="midnightblue" stroke="midnightblue" points="635.36,-249.07 643.75,-242.6 633.16,-242.43 635.36,-249.07"/>
</g>
<!-- Node24 -->
<g id="node24" class="node">
<title>Node24</title>
<g id="a_node24"><a xlink:href="class_config.html#a4a54bc469b3d615089ee1df7b549c60b" target="_top" xlink:title=" ">
<polygon fill="white" stroke="black" points="457.5,-243.57 457.5,-262.57 535.5,-262.57 535.5,-243.57 457.5,-243.57"/>
<text text-anchor="middle" x="496.5" y="-250.57" font-family="Helvetica,sans-Serif" font-size="10.00">Config::write</text>
</a>
</g>
</g>
<!-- Node13&#45;&gt;Node24 -->
<g id="edge32" class="edge">
<title>Node13&#45;&gt;Node24</title>
<path fill="none" stroke="midnightblue" d="M633.74,-238.02C605.04,-241.19 564.84,-245.63 535.55,-248.87"/>
<polygon fill="midnightblue" stroke="midnightblue" points="634.19,-241.49 643.75,-236.91 633.43,-234.53 634.19,-241.49"/>
</g>
<!-- Node15 -->
<g id="node15" class="node">
<title>Node15</title>
<g id="a_node15"><a xlink:href="class_config.html#abd0c571c116924871e30444b192b792a" target="_top" xlink:title="Construct a new Config object.">
<polygon fill="white" stroke="black" points="307,-243.57 307,-262.57 391,-262.57 391,-243.57 307,-243.57"/>
<text text-anchor="middle" x="349" y="-250.57" font-family="Helvetica,sans-Serif" font-size="10.00">Config::Config</text>
</a>
</g>
</g>
<!-- Node14&#45;&gt;Node15 -->
<g id="edge20" class="edge">
<title>Node14&#45;&gt;Node15</title>
<path fill="none" stroke="midnightblue" d="M448.85,-227.25C428.65,-232.53 405.35,-238.61 386.45,-243.55"/>
<polygon fill="midnightblue" stroke="midnightblue" points="449.99,-230.57 458.78,-224.66 448.22,-223.8 449.99,-230.57"/>
</g>
<!-- Node17 -->
<g id="node17" class="node">
<title>Node17</title>
<g id="a_node17"><a xlink:href="tools_2log_2log_8h.html#ac630e3419ab42e9d249a4171f99f12e6" target="_top" xlink:title=" ">
<polygon fill="white" stroke="black" points="292,-167.57 292,-186.57 406,-186.57 406,-167.57 292,-167.57"/>
<text text-anchor="middle" x="349" y="-174.57" font-family="Helvetica,sans-Serif" font-size="10.00">copyLogToClipboard</text>
</a>
</g>
</g>
<!-- Node16&#45;&gt;Node17 -->
<g id="edge22" class="edge">
<title>Node16&#45;&gt;Node17</title>
<path fill="none" stroke="midnightblue" d="M447.03,-177.07C433.89,-177.07 419.56,-177.07 406.04,-177.07"/>
<polygon fill="midnightblue" stroke="midnightblue" points="447.27,-180.57 457.27,-177.07 447.27,-173.57 447.27,-180.57"/>
</g>
<!-- Node19 -->
<g id="node19" class="node">
<title>Node19</title>
<g id="a_node19"><a xlink:href="tools_2log_2log_8h.html#a9e3a1b6a9042b139e9d37ad8c8e6bcfe" target="_top" xlink:title="Get the log file name on the local machine.">
<polygon fill="white" stroke="black" points="297,-129.57 297,-148.57 401,-148.57 401,-129.57 297,-129.57"/>
<text text-anchor="middle" x="349" y="-136.57" font-family="Helvetica,sans-Serif" font-size="10.00">localLogFileName</text>
</a>
</g>
</g>
<!-- Node16&#45;&gt;Node19 -->
<g id="edge24" class="edge">
<title>Node16&#45;&gt;Node19</title>
<path fill="none" stroke="midnightblue" d="M448.85,-164.89C428.65,-159.61 405.35,-153.53 386.45,-148.59"/>
<polygon fill="midnightblue" stroke="midnightblue" points="448.22,-168.34 458.78,-167.48 449.99,-161.57 448.22,-168.34"/>
</g>
<!-- Node20 -->
<g id="node20" class="node">
<title>Node20</title>
<g id="a_node20"><a xlink:href="tools_2log_2log_8h.html#a6b9befdac8e9ce2119f15cc9e4159505" target="_top" xlink:title=" ">
<polygon fill="white" stroke="black" points="321,-205.57 321,-224.57 377,-224.57 377,-205.57 321,-205.57"/>
<text text-anchor="middle" x="349" y="-212.57" font-family="Helvetica,sans-Serif" font-size="10.00">printLog</text>
</a>
</g>
</g>
<!-- Node16&#45;&gt;Node20 -->
<g id="edge26" class="edge">
<title>Node16&#45;&gt;Node20</title>
<path fill="none" stroke="midnightblue" d="M448.92,-189.24C425.2,-195.43 397.2,-202.74 377.06,-208"/>
<polygon fill="midnightblue" stroke="midnightblue" points="449.99,-192.57 458.78,-186.66 448.22,-185.8 449.99,-192.57"/>
</g>
<!-- Node18 -->
<g id="node18" class="node">
<title>Node18</title>
<g id="a_node18"><a xlink:href="tools_2log_2log_8cpp.html#a0ddf1224851353fc92bfbff6f499fa97" target="_top" xlink:title=" ">
<polygon fill="white" stroke="black" points="180.5,-167.57 180.5,-186.57 221.5,-186.57 221.5,-167.57 180.5,-167.57"/>
<text text-anchor="middle" x="201" y="-174.57" font-family="Helvetica,sans-Serif" font-size="10.00">main</text>
</a>
</g>
</g>
<!-- Node17&#45;&gt;Node18 -->
<g id="edge23" class="edge">
<title>Node17&#45;&gt;Node18</title>
<path fill="none" stroke="midnightblue" d="M281.69,-177.07C259.85,-177.07 237.21,-177.07 221.67,-177.07"/>
<polygon fill="midnightblue" stroke="midnightblue" points="281.97,-180.57 291.97,-177.07 281.97,-173.57 281.97,-180.57"/>
</g>
<!-- Node19&#45;&gt;Node18 -->
<g id="edge25" class="edge">
<title>Node19&#45;&gt;Node18</title>
<path fill="none" stroke="midnightblue" d="M301.17,-151.26C274.33,-158.24 242.04,-166.65 221.77,-171.93"/>
<polygon fill="midnightblue" stroke="midnightblue" points="302.36,-154.56 311.16,-148.66 300.6,-147.79 302.36,-154.56"/>
</g>
<!-- Node20&#45;&gt;Node18 -->
<g id="edge27" class="edge">
<title>Node20&#45;&gt;Node18</title>
<path fill="none" stroke="midnightblue" d="M310.88,-205.41C282.42,-198 244.27,-188.07 221.5,-182.15"/>
<polygon fill="midnightblue" stroke="midnightblue" points="310.32,-208.88 320.88,-208.01 312.08,-202.11 310.32,-208.88"/>
</g>
<!-- Node23 -->
<g id="node23" class="node">
<title>Node23</title>
<g id="a_node23"><a xlink:href="class_config.html#aaba73cd0c0ca87e1ecd654d2ffee5927" target="_top" xlink:title=" ">
<polygon fill="white" stroke="black" points="313,-281.57 313,-300.57 385,-300.57 385,-281.57 313,-281.57"/>
<text text-anchor="middle" x="349" y="-288.57" font-family="Helvetica,sans-Serif" font-size="10.00">Config::edit</text>
</a>
</g>
</g>
<!-- Node22&#45;&gt;Node23 -->
<g id="edge30" class="edge">
<title>Node22&#45;&gt;Node23</title>
<path fill="none" stroke="midnightblue" d="M452.34,-291.07C430.92,-291.07 405.38,-291.07 385.17,-291.07"/>
<polygon fill="midnightblue" stroke="midnightblue" points="452.48,-294.57 462.48,-291.07 452.48,-287.57 452.48,-294.57"/>
</g>
<!-- Node23&#45;&gt;Node5 -->
<g id="edge31" class="edge">
<title>Node23&#45;&gt;Node5</title>
<path fill="none" stroke="midnightblue" d="M302.47,-291.07C237.78,-291.07 122.01,-291.07 75.82,-291.07"/>
<polygon fill="midnightblue" stroke="midnightblue" points="302.78,-294.57 312.78,-291.07 302.78,-287.57 302.78,-294.57"/>
</g>
<!-- Node24&#45;&gt;Node23 -->
<g id="edge33" class="edge">
<title>Node24&#45;&gt;Node23</title>
<path fill="none" stroke="midnightblue" d="M448.93,-265.23C428.27,-270.63 404.34,-276.88 385.2,-281.88"/>
<polygon fill="midnightblue" stroke="midnightblue" points="449.99,-268.57 458.78,-262.66 448.22,-261.8 449.99,-268.57"/>
</g>
<!-- Node25&#45;&gt;Node5 -->
<g id="edge36" class="edge">
<title>Node25&#45;&gt;Node5</title>
<path fill="none" stroke="midnightblue" d="M605.55,-100.47C482.5,-100.53 218.53,-106.81 146,-158.07 99.33,-191.06 69.69,-256.5 59.74,-281.26"/>
<polygon fill="midnightblue" stroke="midnightblue" points="605.58,-103.97 615.58,-100.48 605.59,-96.97 605.58,-103.97"/>
</g>
<!-- Node26 -->
<g id="node26" class="node">
<title>Node26</title>
<g id="a_node26"><a xlink:href="class_simulate.html#a9b861e2a496da07d9377808c84c3e01b" target="_top" xlink:title=" ">
<polygon fill="white" stroke="black" points="442,-53.57 442,-72.57 551,-72.57 551,-53.57 442,-53.57"/>
<text text-anchor="middle" x="496.5" y="-60.57" font-family="Helvetica,sans-Serif" font-size="10.00">Simulate::simulate</text>
</a>
</g>
</g>
<!-- Node25&#45;&gt;Node26 -->
<g id="edge37" class="edge">
<title>Node25&#45;&gt;Node26</title>
<path fill="none" stroke="midnightblue" d="M616.3,-89.32C591.98,-83.94 563.55,-77.66 540.59,-72.59"/>
<polygon fill="midnightblue" stroke="midnightblue" points="615.58,-92.74 626.1,-91.48 617.09,-85.91 615.58,-92.74"/>
</g>
<!-- Node27&#45;&gt;Node5 -->
<g id="edge39" class="edge">
<title>Node27&#45;&gt;Node5</title>
<path fill="none" stroke="midnightblue" d="M624.84,-16.19C602.72,-12.23 575.56,-8.03 551,-6.07 364.6,8.78 285.72,4.21 146,-120.07 93.11,-167.12 66.27,-252.78 58.46,-281.44"/>
<polygon fill="midnightblue" stroke="midnightblue" points="624.47,-19.68 634.93,-18.04 625.73,-12.79 624.47,-19.68"/>
</g>
<!-- Node28 -->
<g id="node28" class="node">
<title>Node28</title>
<g id="a_node28"><a xlink:href="class_style.html#a4202615ba5c3a3b4c1b81a53f9c62b63" target="_top" xlink:title="Call the astyle child process to style the generated C++ code.">
<polygon fill="white" stroke="black" points="461,-15.57 461,-34.57 532,-34.57 532,-15.57 461,-15.57"/>
<text text-anchor="middle" x="496.5" y="-22.57" font-family="Helvetica,sans-Serif" font-size="10.00">Style::style</text>
</a>
</g>
</g>
<!-- Node27&#45;&gt;Node28 -->
<g id="edge40" class="edge">
<title>Node27&#45;&gt;Node28</title>
<path fill="none" stroke="midnightblue" d="M624.47,-25.07C595.65,-25.07 558.82,-25.07 532.26,-25.07"/>
<polygon fill="midnightblue" stroke="midnightblue" points="624.69,-28.57 634.69,-25.07 624.69,-21.57 624.69,-28.57"/>
</g>
</g>
</svg>
