<?xml version="1.0" encoding="UTF-8" standalone="no"?>
<!DOCTYPE svg PUBLIC "-//W3C//DTD SVG 1.1//EN"
 "http://www.w3.org/Graphics/SVG/1.1/DTD/svg11.dtd">
<!-- Generated by graphviz version 2.43.0 (0)
 -->
<!-- Title: homeDir Pages: 1 -->
<!--zoomable 199 -->
<svg id="main" version="1.1" xmlns="http://www.w3.org/2000/svg" xmlns:xlink="http://www.w3.org/1999/xlink" xml:space="preserve" onload="init(evt)">
<style type="text/css"><![CDATA[
.edge:hover path { stroke: red; }
.edge:hover polygon { stroke: red; fill: red; }
]]></style>
<script type="text/javascript"><![CDATA[
var edges = document.getElementsByTagName('g');
if (edges && edges.length) {
  for (var i=0;i<edges.length;i++) {
    if (edges[i].id.substr(0,4)=='edge') {
      edges[i].setAttribute('class','edge');
    }
  }
}
]]></script>
        <defs>
                <circle id="rim" cx="0" cy="0" r="7"/>
                <circle id="rim2" cx="0" cy="0" r="3.5"/>
                <g id="zoomPlus">
                        <use xlink:href="#rim" fill="#404040">
                                <set attributeName="fill" to="#808080" begin="zoomplus.mouseover" end="zoomplus.mouseout"/>
                        </use>
                        <path d="M-4,0h8M0,-4v8" fill="none" stroke="white" stroke-width="1.5" pointer-events="none"/>
                </g>
                <g id="zoomMin">
                        <use xlink:href="#rim" fill="#404040">
                                <set attributeName="fill" to="#808080" begin="zoomminus.mouseover" end="zoomminus.mouseout"/>
                        </use>
                        <path d="M-4,0h8" fill="none" stroke="white" stroke-width="1.5" pointer-events="none"/>
                </g>
                <g id="dirArrow">
                        <path fill="none" stroke="white" stroke-width="1.5" d="M0,-3.0v7 M-2.5,-0.5L0,-3.0L2.5,-0.5"/>
                </g>
               <g id="resetDef">
                       <use xlink:href="#rim2" fill="#404040">
                               <set attributeName="fill" to="#808080" begin="reset.mouseover" end="reset.mouseout"/>
                       </use>
               </g>
        </defs>

<script type="text/javascript">
var viewWidth = 521;
var viewHeight = 199;
var sectionId = 'dynsection-6';
</script>
<script xlink:href="svgpan.js"/>
<svg id="graph" class="graph">
<g id="viewport">
<title>homeDir</title>
<polygon fill="white" stroke="transparent" points="-4,4 -4,-195 517,-195 517,4 -4,4"/>
<!-- Node1 -->
<g id="node1" class="node">
<title>Node1</title>
<g id="a_node1"><a xlink:title=" ">
<polygon fill="#bfbfbf" stroke="black" points="454,-76.5 454,-95.5 513,-95.5 513,-76.5 454,-76.5"/>
<text text-anchor="middle" x="483.5" y="-83.5" font-family="Helvetica,sans-Serif" font-size="10.00">homeDir</text>
</a>
</g>
</g>
<!-- Node2 -->
<g id="node2" class="node">
<title>Node2</title>
<g id="a_node2"><a xlink:href="utils_8h.html#a4b2e6c6245b704aeb7448bf62b1cf422" target="_top" xlink:title=" ">
<polygon fill="white" stroke="black" points="365,-76.5 365,-95.5 418,-95.5 418,-76.5 365,-76.5"/>
<text text-anchor="middle" x="391.5" y="-83.5" font-family="Helvetica,sans-Serif" font-size="10.00">dataDir</text>
</a>
</g>
</g>
<!-- Node1&#45;&gt;Node2 -->
<g id="edge1" class="edge">
<title>Node1&#45;&gt;Node2</title>
<path fill="none" stroke="midnightblue" d="M443.32,-86C434.77,-86 425.94,-86 418.08,-86"/>
<polygon fill="midnightblue" stroke="midnightblue" points="443.53,-89.5 453.53,-86 443.53,-82.5 443.53,-89.5"/>
</g>
<!-- Node3 -->
<g id="node3" class="node">
<title>Node3</title>
<g id="a_node3"><a xlink:href="class_config.html#a2f8720e9953fb42b8304089c40fe896e" target="_top" xlink:title=" ">
<polygon fill="white" stroke="black" points="238,-162.5 238,-181.5 318,-181.5 318,-162.5 238,-162.5"/>
<text text-anchor="middle" x="278" y="-169.5" font-family="Helvetica,sans-Serif" font-size="10.00">Config::_load</text>
</a>
</g>
</g>
<!-- Node2&#45;&gt;Node3 -->
<g id="edge2" class="edge">
<title>Node2&#45;&gt;Node3</title>
<path fill="none" stroke="midnightblue" d="M374.44,-102.76C362.51,-114.73 345.52,-130.79 329,-143 319.15,-150.28 307.34,-157.2 297.66,-162.46"/>
<polygon fill="midnightblue" stroke="midnightblue" points="376.98,-105.17 381.48,-95.58 371.98,-100.26 376.98,-105.17"/>
</g>
<!-- Node5 -->
<g id="node5" class="node">
<title>Node5</title>
<g id="a_node5"><a xlink:href="tools_2log_2log_8h.html#a5d2420c3e47ebff9cfe3c6004f0e62f7" target="_top" xlink:title=" ">
<polygon fill="white" stroke="black" points="239,-114.5 239,-133.5 317,-133.5 317,-114.5 239,-114.5"/>
<text text-anchor="middle" x="278" y="-121.5" font-family="Helvetica,sans-Serif" font-size="10.00">logFileName</text>
</a>
</g>
</g>
<!-- Node2&#45;&gt;Node5 -->
<g id="edge4" class="edge">
<title>Node2&#45;&gt;Node5</title>
<path fill="none" stroke="midnightblue" d="M355.16,-98.04C339.68,-103.32 321.77,-109.43 307.2,-114.39"/>
<polygon fill="midnightblue" stroke="midnightblue" points="356.58,-101.26 364.92,-94.72 354.33,-94.63 356.58,-101.26"/>
</g>
<!-- Node10 -->
<g id="node10" class="node">
<title>Node10</title>
<g id="a_node10"><a xlink:href="class_config.html#a33247625b70e062fbd93ba91ae0c7d76" target="_top" xlink:title="Read the key.">
<polygon fill="white" stroke="black" points="227,-76.5 227,-95.5 329,-95.5 329,-76.5 227,-76.5"/>
<text text-anchor="middle" x="278" y="-83.5" font-family="Helvetica,sans-Serif" font-size="10.00">Config::operator[]</text>
</a>
</g>
</g>
<!-- Node2&#45;&gt;Node10 -->
<g id="edge11" class="edge">
<title>Node2&#45;&gt;Node10</title>
<path fill="none" stroke="midnightblue" d="M354.65,-86C346.49,-86 337.68,-86 329.06,-86"/>
<polygon fill="midnightblue" stroke="midnightblue" points="354.92,-89.5 364.92,-86 354.92,-82.5 354.92,-89.5"/>
</g>
<!-- Node11 -->
<g id="node11" class="node">
<title>Node11</title>
<g id="a_node11"><a xlink:href="class_config.html#a568ec68975e8e9338356619ebfb6a4f8" target="_top" xlink:title="Set the key value.">
<polygon fill="white" stroke="black" points="244,-38.5 244,-57.5 312,-57.5 312,-38.5 244,-38.5"/>
<text text-anchor="middle" x="278" y="-45.5" font-family="Helvetica,sans-Serif" font-size="10.00">Config::set</text>
</a>
</g>
</g>
<!-- Node2&#45;&gt;Node11 -->
<g id="edge12" class="edge">
<title>Node2&#45;&gt;Node11</title>
<path fill="none" stroke="midnightblue" d="M355.16,-73.96C339.68,-68.68 321.77,-62.57 307.2,-57.61"/>
<polygon fill="midnightblue" stroke="midnightblue" points="354.33,-77.37 364.92,-77.28 356.58,-70.74 354.33,-77.37"/>
</g>
<!-- Node14 -->
<g id="node14" class="node">
<title>Node14</title>
<g id="a_node14"><a xlink:href="class_config.html#a4a54bc469b3d615089ee1df7b549c60b" target="_top" xlink:title=" ">
<polygon fill="white" stroke="black" points="239,-0.5 239,-19.5 317,-19.5 317,-0.5 239,-0.5"/>
<text text-anchor="middle" x="278" y="-7.5" font-family="Helvetica,sans-Serif" font-size="10.00">Config::write</text>
</a>
</g>
</g>
<!-- Node2&#45;&gt;Node14 -->
<g id="edge15" class="edge">
<title>Node2&#45;&gt;Node14</title>
<path fill="none" stroke="midnightblue" d="M375.41,-68.83C363.74,-56.41 346.66,-39.95 329,-29 323.08,-25.33 316.34,-22.18 309.76,-19.56"/>
<polygon fill="midnightblue" stroke="midnightblue" points="372.91,-71.29 382.24,-76.31 378.08,-66.57 372.91,-71.29"/>
</g>
<!-- Node4 -->
<g id="node4" class="node">
<title>Node4</title>
<g id="a_node4"><a xlink:href="class_config.html#abd0c571c116924871e30444b192b792a" target="_top" xlink:title="Construct a new Config object.">
<polygon fill="white" stroke="black" points="92,-171.5 92,-190.5 176,-190.5 176,-171.5 92,-171.5"/>
<text text-anchor="middle" x="134" y="-178.5" font-family="Helvetica,sans-Serif" font-size="10.00">Config::Config</text>
</a>
</g>
</g>
<!-- Node3&#45;&gt;Node4 -->
<g id="edge3" class="edge">
<title>Node3&#45;&gt;Node4</title>
<path fill="none" stroke="midnightblue" d="M227.61,-175.13C210.77,-176.2 192.14,-177.38 176.03,-178.4"/>
<polygon fill="midnightblue" stroke="midnightblue" points="228.06,-178.61 237.82,-174.48 227.62,-171.62 228.06,-178.61"/>
</g>
<!-- Node6 -->
<g id="node6" class="node">
<title>Node6</title>
<g id="a_node6"><a xlink:href="tools_2log_2log_8h.html#ac630e3419ab42e9d249a4171f99f12e6" target="_top" xlink:title=" ">
<polygon fill="white" stroke="black" points="77,-133.5 77,-152.5 191,-152.5 191,-133.5 77,-133.5"/>
<text text-anchor="middle" x="134" y="-140.5" font-family="Helvetica,sans-Serif" font-size="10.00">copyLogToClipboard</text>
</a>
</g>
</g>
<!-- Node5&#45;&gt;Node6 -->
<g id="edge5" class="edge">
<title>Node5&#45;&gt;Node6</title>
<path fill="none" stroke="midnightblue" d="M228.98,-130.42C216.8,-132.06 203.6,-133.82 191.05,-135.5"/>
<polygon fill="midnightblue" stroke="midnightblue" points="229.5,-133.89 238.95,-129.09 228.57,-126.95 229.5,-133.89"/>
</g>
<!-- Node8 -->
<g id="node8" class="node">
<title>Node8</title>
<g id="a_node8"><a xlink:href="tools_2log_2log_8h.html#a9e3a1b6a9042b139e9d37ad8c8e6bcfe" target="_top" xlink:title="Get the log file name on the local machine.">
<polygon fill="white" stroke="black" points="82,-95.5 82,-114.5 186,-114.5 186,-95.5 82,-95.5"/>
<text text-anchor="middle" x="134" y="-102.5" font-family="Helvetica,sans-Serif" font-size="10.00">localLogFileName</text>
</a>
</g>
</g>
<!-- Node5&#45;&gt;Node8 -->
<g id="edge7" class="edge">
<title>Node5&#45;&gt;Node8</title>
<path fill="none" stroke="midnightblue" d="M228.76,-117.55C215.07,-115.71 200.11,-113.71 186.24,-111.86"/>
<polygon fill="midnightblue" stroke="midnightblue" points="228.57,-121.05 238.95,-118.91 229.5,-114.11 228.57,-121.05"/>
</g>
<!-- Node9 -->
<g id="node9" class="node">
<title>Node9</title>
<g id="a_node9"><a xlink:href="tools_2log_2log_8h.html#a6b9befdac8e9ce2119f15cc9e4159505" target="_top" xlink:title=" ">
<polygon fill="white" stroke="black" points="106,-57.5 106,-76.5 162,-76.5 162,-57.5 106,-57.5"/>
<text text-anchor="middle" x="134" y="-64.5" font-family="Helvetica,sans-Serif" font-size="10.00">printLog</text>
</a>
</g>
</g>
<!-- Node5&#45;&gt;Node9 -->
<g id="edge9" class="edge">
<title>Node5&#45;&gt;Node9</title>
<path fill="none" stroke="midnightblue" d="M240.64,-110.78C236.01,-108.93 231.37,-106.98 227,-105 210.51,-97.55 207.62,-93.15 191,-86 181.76,-82.02 171.39,-78.31 162.1,-75.23"/>
<polygon fill="midnightblue" stroke="midnightblue" points="239.44,-114.07 250.02,-114.44 241.98,-107.55 239.44,-114.07"/>
</g>
<!-- Node7 -->
<g id="node7" class="node">
<title>Node7</title>
<g id="a_node7"><a xlink:href="tools_2log_2log_8cpp.html#a0ddf1224851353fc92bfbff6f499fa97" target="_top" xlink:title=" ">
<polygon fill="white" stroke="black" points="0,-95.5 0,-114.5 41,-114.5 41,-95.5 0,-95.5"/>
<text text-anchor="middle" x="20.5" y="-102.5" font-family="Helvetica,sans-Serif" font-size="10.00">main</text>
</a>
</g>
</g>
<!-- Node6&#45;&gt;Node7 -->
<g id="edge6" class="edge">
<title>Node6&#45;&gt;Node7</title>
<path fill="none" stroke="midnightblue" d="M94.91,-130.09C88.92,-128.06 82.79,-125.97 77,-124 65.05,-119.93 51.65,-115.34 41.02,-111.7"/>
<polygon fill="midnightblue" stroke="midnightblue" points="94.2,-133.55 104.79,-133.45 96.45,-126.92 94.2,-133.55"/>
</g>
<!-- Node8&#45;&gt;Node7 -->
<g id="edge8" class="edge">
<title>Node8&#45;&gt;Node7</title>
<path fill="none" stroke="midnightblue" d="M71.66,-105C60.63,-105 49.89,-105 41.21,-105"/>
<polygon fill="midnightblue" stroke="midnightblue" points="71.82,-108.5 81.82,-105 71.82,-101.5 71.82,-108.5"/>
</g>
<!-- Node9&#45;&gt;Node7 -->
<g id="edge10" class="edge">
<title>Node9&#45;&gt;Node7</title>
<path fill="none" stroke="midnightblue" d="M96.14,-79.49C89.76,-81.66 83.19,-83.89 77,-86 65.05,-90.07 51.65,-94.66 41.02,-98.3"/>
<polygon fill="midnightblue" stroke="midnightblue" points="97.59,-82.69 105.94,-76.17 95.34,-76.07 97.59,-82.69"/>
</g>
<!-- Node12 -->
<g id="node12" class="node">
<title>Node12</title>
<g id="a_node12"><a xlink:href="class_config.html#aaba73cd0c0ca87e1ecd654d2ffee5927" target="_top" xlink:title=" ">
<polygon fill="white" stroke="black" points="98,-10.5 98,-29.5 170,-29.5 170,-10.5 98,-10.5"/>
<text text-anchor="middle" x="134" y="-17.5" font-family="Helvetica,sans-Serif" font-size="10.00">Config::edit</text>
</a>
</g>
</g>
<!-- Node11&#45;&gt;Node12 -->
<g id="edge13" class="edge">
<title>Node11&#45;&gt;Node12</title>
<path fill="none" stroke="midnightblue" d="M233.72,-39.47C213.32,-35.44 189.3,-30.71 170.07,-26.91"/>
<polygon fill="midnightblue" stroke="midnightblue" points="233.22,-42.93 243.71,-41.44 234.57,-36.07 233.22,-42.93"/>
</g>
<!-- Node13 -->
<g id="node13" class="node">
<title>Node13</title>
<g id="a_node13"><a xlink:href="src_2main_8cpp.html#a0ddf1224851353fc92bfbff6f499fa97" target="_top" xlink:title=" ">
<polygon fill="white" stroke="black" points="0,-10.5 0,-29.5 41,-29.5 41,-10.5 0,-10.5"/>
<text text-anchor="middle" x="20.5" y="-17.5" font-family="Helvetica,sans-Serif" font-size="10.00">main</text>
</a>
</g>
</g>
<!-- Node12&#45;&gt;Node13 -->
<g id="edge14" class="edge">
<title>Node12&#45;&gt;Node13</title>
<path fill="none" stroke="midnightblue" d="M87.39,-20C71.33,-20 54.11,-20 41.31,-20"/>
<polygon fill="midnightblue" stroke="midnightblue" points="87.72,-23.5 97.72,-20 87.72,-16.5 87.72,-23.5"/>
</g>
<!-- Node14&#45;&gt;Node12 -->
<g id="edge16" class="edge">
<title>Node14&#45;&gt;Node12</title>
<path fill="none" stroke="midnightblue" d="M228.87,-13.39C209.65,-14.74 187.93,-16.27 170.23,-17.52"/>
<polygon fill="midnightblue" stroke="midnightblue" points="229.22,-16.87 238.95,-12.68 228.73,-9.89 229.22,-16.87"/>
</g>
</g>
</svg>
        <g id="navigator" transform="translate(0 0)" fill="#404254">
                <rect fill="#f2f5e9" fill-opacity="0.5" stroke="#606060" stroke-width=".5" x="0" y="0" width="60" height="60"/>
                <use id="zoomplus" xlink:href="#zoomPlus" x="17" y="9" onmousedown="handleZoom(evt,'in')"/>
                <use id="zoomminus" xlink:href="#zoomMin" x="42" y="9" onmousedown="handleZoom(evt,'out')"/>
                <use id="reset" xlink:href="#resetDef" x="30" y="36" onmousedown="handleReset()"/>
                <g id="arrowUp" xlink:href="#dirArrow" transform="translate(30 24)" onmousedown="handlePan(0,-1)">
                  <use xlink:href="#rim" fill="#404040">
                        <set attributeName="fill" to="#808080" begin="arrowUp.mouseover" end="arrowUp.mouseout"/>
                  </use>
                  <path fill="none" stroke="white" stroke-width="1.5" d="M0,-3.0v7 M-2.5,-0.5L0,-3.0L2.5,-0.5"/>
                </g>
                <g id="arrowRight" xlink:href="#dirArrow" transform="rotate(90) translate(36 -43)" onmousedown="handlePan(1,0)">
                  <use xlink:href="#rim" fill="#404040">
                        <set attributeName="fill" to="#808080" begin="arrowRight.mouseover" end="arrowRight.mouseout"/>
                  </use>
                  <path fill="none" stroke="white" stroke-width="1.5" d="M0,-3.0v7 M-2.5,-0.5L0,-3.0L2.5,-0.5"/>
                </g>
                <g id="arrowDown" xlink:href="#dirArrow" transform="rotate(180) translate(-30 -48)" onmousedown="handlePan(0,1)">
                  <use xlink:href="#rim" fill="#404040">
                        <set attributeName="fill" to="#808080" begin="arrowDown.mouseover" end="arrowDown.mouseout"/>
                  </use>
                  <path fill="none" stroke="white" stroke-width="1.5" d="M0,-3.0v7 M-2.5,-0.5L0,-3.0L2.5,-0.5"/>
                </g>
                <g id="arrowLeft" xlink:href="#dirArrow" transform="rotate(270) translate(-36 17)" onmousedown="handlePan(-1,0)">
                  <use xlink:href="#rim" fill="#404040">
                        <set attributeName="fill" to="#808080" begin="arrowLeft.mouseover" end="arrowLeft.mouseout"/>
                  </use>
                  <path fill="none" stroke="white" stroke-width="1.5" d="M0,-3.0v7 M-2.5,-0.5L0,-3.0L2.5,-0.5"/>
                </g>
        </g>
        <svg viewBox="0 0 15 15" width="100%" height="30px" preserveAspectRatio="xMaxYMin meet">
         <g id="arrow_out" transform="scale(0.3 0.3)">
          <a xlink:href="utils_8h_a86caea3b83de102899d12b4100e61c1d_icgraph_org.svg" target="_base">
           <rect id="button" ry="5" rx="5" y="6" x="6" height="38" width="38"
                fill="#f2f5e9" fill-opacity="0.5" stroke="#606060" stroke-width="1.0"/>
           <path id="arrow"
             d="M 11.500037,31.436501 C 11.940474,20.09759 22.043105,11.32322 32.158766,21.979434 L 37.068811,17.246167 C 37.068811,17.246167 37.088388,32 37.088388,32 L 22.160133,31.978069 C 22.160133,31.978069 26.997745,27.140456 26.997745,27.140456 C 18.528582,18.264221 13.291696,25.230495 11.500037,31.436501 z"
             style="fill:#404040;"/>
          </a>
         </g>
        </svg>
</svg>
