<?xml version="1.0" encoding="UTF-8" standalone="no"?>
<!DOCTYPE svg PUBLIC "-//W3C//DTD SVG 1.1//EN"
 "http://www.w3.org/Graphics/SVG/1.1/DTD/svg11.dtd">
<!-- Generated by graphviz version 2.43.0 (0)
 -->
<!-- Title: trim Pages: 1 -->
<!--zoomable 211 -->
<svg id="main" version="1.1" xmlns="http://www.w3.org/2000/svg" xmlns:xlink="http://www.w3.org/1999/xlink" xml:space="preserve" onload="init(evt)">
<style type="text/css"><![CDATA[
.edge:hover path { stroke: red; }
.edge:hover polygon { stroke: red; fill: red; }
]]></style>
<script type="text/javascript"><![CDATA[
var edges = document.getElementsByTagName('g');
if (edges && edges.length) {
  for (var i=0;i<edges.length;i++) {
    if (edges[i].id.substr(0,4)=='edge') {
      edges[i].setAttribute('class','edge');
    }
  }
}
]]></script>
        <defs>
                <circle id="rim" cx="0" cy="0" r="7"/>
                <circle id="rim2" cx="0" cy="0" r="3.5"/>
                <g id="zoomPlus">
                        <use xlink:href="#rim" fill="#404040">
                                <set attributeName="fill" to="#808080" begin="zoomplus.mouseover" end="zoomplus.mouseout"/>
                        </use>
                        <path d="M-4,0h8M0,-4v8" fill="none" stroke="white" stroke-width="1.5" pointer-events="none"/>
                </g>
                <g id="zoomMin">
                        <use xlink:href="#rim" fill="#404040">
                                <set attributeName="fill" to="#808080" begin="zoomminus.mouseover" end="zoomminus.mouseout"/>
                        </use>
                        <path d="M-4,0h8" fill="none" stroke="white" stroke-width="1.5" pointer-events="none"/>
                </g>
                <g id="dirArrow">
                        <path fill="none" stroke="white" stroke-width="1.5" d="M0,-3.0v7 M-2.5,-0.5L0,-3.0L2.5,-0.5"/>
                </g>
               <g id="resetDef">
                       <use xlink:href="#rim2" fill="#404040">
                               <set attributeName="fill" to="#808080" begin="reset.mouseover" end="reset.mouseout"/>
                       </use>
               </g>
        </defs>

<script type="text/javascript">
var viewWidth = 738;
var viewHeight = 211;
var sectionId = 'dynsection-14';
</script>
<script xlink:href="svgpan.js"/>
<svg id="graph" class="graph">
<g id="viewport">
<title>trim</title>
<polygon fill="white" stroke="transparent" points="-4,4 -4,-207.24 734,-207.24 734,4 -4,4"/>
<!-- Node1 -->
<g id="node1" class="node">
<title>Node1</title>
<g id="a_node1"><a xlink:title=" ">
<polygon fill="#bfbfbf" stroke="black" points="693,-114.5 693,-133.5 730,-133.5 730,-114.5 693,-114.5"/>
<text text-anchor="middle" x="711.5" y="-121.5" font-family="Helvetica,sans-Serif" font-size="10.00">trim</text>
</a>
</g>
</g>
<!-- Node2 -->
<g id="node2" class="node">
<title>Node2</title>
<g id="a_node2"><a xlink:href="class_export.html#a89d3ae54dd2261cf35be148011b79fe4" target="_top" xlink:title=" ">
<polygon fill="white" stroke="black" points="292,-133.5 292,-152.5 404,-152.5 404,-133.5 292,-133.5"/>
<text text-anchor="middle" x="348" y="-140.5" font-family="Helvetica,sans-Serif" font-size="10.00">Export::_algorithms</text>
</a>
</g>
</g>
<!-- Node1&#45;&gt;Node2 -->
<g id="edge1" class="edge">
<title>Node1&#45;&gt;Node2</title>
<path fill="none" stroke="midnightblue" d="M699.48,-142.1C690.08,-155.64 675.22,-173.11 657,-181 568.49,-219.31 534.56,-199.95 440,-181 412.97,-175.58 383.95,-161.95 366.13,-152.58"/>
<polygon fill="midnightblue" stroke="midnightblue" points="702.54,-143.81 705.08,-133.52 696.68,-139.98 702.54,-143.81"/>
</g>
<!-- Node6 -->
<g id="node6" class="node">
<title>Node6</title>
<g id="a_node6"><a xlink:href="class_export.html#ae4811e1e4212029122c0ee29613714cc" target="_top" xlink:title=" ">
<polygon fill="white" stroke="black" points="442,-0.5 442,-19.5 554,-19.5 554,-0.5 442,-0.5"/>
<text text-anchor="middle" x="498" y="-7.5" font-family="Helvetica,sans-Serif" font-size="10.00">Export::_estimation</text>
</a>
</g>
</g>
<!-- Node1&#45;&gt;Node6 -->
<g id="edge5" class="edge">
<title>Node1&#45;&gt;Node6</title>
<path fill="none" stroke="midnightblue" d="M701.89,-105.13C693.06,-87.9 677.68,-63.05 657,-49 626.61,-28.36 586.35,-18.63 554.07,-14.05"/>
<polygon fill="midnightblue" stroke="midnightblue" points="698.81,-106.79 706.33,-114.25 705.1,-103.73 698.81,-106.79"/>
</g>
<!-- Node8 -->
<g id="node8" class="node">
<title>Node8</title>
<g id="a_node8"><a xlink:href="class_alg.html#a45e536cf797bba52c851877371ea64c5" target="_top" xlink:title=" ">
<polygon fill="white" stroke="black" points="597.5,-114.5 597.5,-133.5 651.5,-133.5 651.5,-114.5 597.5,-114.5"/>
<text text-anchor="middle" x="624.5" y="-121.5" font-family="Helvetica,sans-Serif" font-size="10.00">Alg::Alg</text>
</a>
</g>
</g>
<!-- Node1&#45;&gt;Node8 -->
<g id="edge8" class="edge">
<title>Node1&#45;&gt;Node8</title>
<path fill="none" stroke="midnightblue" d="M682.71,-124C672.77,-124 661.62,-124 651.81,-124"/>
<polygon fill="midnightblue" stroke="midnightblue" points="682.89,-127.5 692.89,-124 682.89,-120.5 682.89,-127.5"/>
</g>
<!-- Node9 -->
<g id="node9" class="node">
<title>Node9</title>
<g id="a_node9"><a xlink:href="utils_8h.html#a88311911bb82476c66e267a39713c170" target="_top" xlink:title=" ">
<polygon fill="white" stroke="black" points="592,-152.5 592,-171.5 657,-171.5 657,-152.5 592,-152.5"/>
<text text-anchor="middle" x="624.5" y="-159.5" font-family="Helvetica,sans-Serif" font-size="10.00">trim_copy</text>
</a>
</g>
</g>
<!-- Node1&#45;&gt;Node9 -->
<g id="edge9" class="edge">
<title>Node1&#45;&gt;Node9</title>
<path fill="none" stroke="midnightblue" d="M683.52,-136.06C671.73,-141.33 658.1,-147.43 647.01,-152.38"/>
<polygon fill="midnightblue" stroke="midnightblue" points="685.19,-139.15 692.89,-131.87 682.33,-132.76 685.19,-139.15"/>
</g>
<!-- Node11 -->
<g id="node11" class="node">
<title>Node11</title>
<g id="a_node11"><a xlink:href="class_alg.html#ada1e8215f047b4ffd736e811b5ea3162" target="_top" xlink:title=" ">
<polygon fill="white" stroke="black" points="593,-58.5 593,-77.5 656,-77.5 656,-58.5 593,-58.5"/>
<text text-anchor="middle" x="624.5" y="-65.5" font-family="Helvetica,sans-Serif" font-size="10.00">Alg::write</text>
</a>
</g>
</g>
<!-- Node1&#45;&gt;Node11 -->
<g id="edge12" class="edge">
<title>Node1&#45;&gt;Node11</title>
<path fill="none" stroke="midnightblue" d="M686.96,-108.49C671.96,-98.61 653,-86.12 640.14,-77.64"/>
<polygon fill="midnightblue" stroke="midnightblue" points="685.42,-111.67 695.69,-114.25 689.27,-105.82 685.42,-111.67"/>
</g>
<!-- Node3 -->
<g id="node3" class="node">
<title>Node3</title>
<g id="a_node3"><a xlink:href="class_export.html#affc37d1d677a83d3e5d36a4e37b7a72b" target="_top" xlink:title=" ">
<polygon fill="white" stroke="black" points="146,-76.5 146,-95.5 256,-95.5 256,-76.5 146,-76.5"/>
<text text-anchor="middle" x="201" y="-83.5" font-family="Helvetica,sans-Serif" font-size="10.00">Export::exportCode</text>
</a>
</g>
</g>
<!-- Node2&#45;&gt;Node3 -->
<g id="edge2" class="edge">
<title>Node2&#45;&gt;Node3</title>
<path fill="none" stroke="midnightblue" d="M313.41,-129.8C286.79,-119.33 250.22,-104.95 226.35,-95.57"/>
<polygon fill="midnightblue" stroke="midnightblue" points="312.14,-133.06 322.73,-133.46 314.7,-126.54 312.14,-133.06"/>
</g>
<!-- Node4 -->
<g id="node4" class="node">
<title>Node4</title>
<g id="a_node4"><a xlink:href="class_export.html#a94fab568af6ddd6447efca74e205e081" target="_top" xlink:title=" ">
<polygon fill="white" stroke="black" points="0,-95.5 0,-114.5 110,-114.5 110,-95.5 0,-95.5"/>
<text text-anchor="middle" x="55" y="-102.5" font-family="Helvetica,sans-Serif" font-size="10.00">Export::exportCode</text>
</a>
</g>
</g>
<!-- Node3&#45;&gt;Node4 -->
<g id="edge3" class="edge">
<title>Node3&#45;&gt;Node4</title>
<path fill="none" stroke="midnightblue" d="M136.01,-94.44C127.44,-95.57 118.72,-96.73 110.33,-97.83"/>
<polygon fill="midnightblue" stroke="midnightblue" points="136.51,-97.91 145.97,-93.13 135.6,-90.97 136.51,-97.91"/>
</g>
<!-- Node5 -->
<g id="node5" class="node">
<title>Node5</title>
<g id="a_node5"><a xlink:href="src_2main_8cpp.html#a0ddf1224851353fc92bfbff6f499fa97" target="_top" xlink:title=" ">
<polygon fill="white" stroke="black" points="34.5,-57.5 34.5,-76.5 75.5,-76.5 75.5,-57.5 34.5,-57.5"/>
<text text-anchor="middle" x="55" y="-64.5" font-family="Helvetica,sans-Serif" font-size="10.00">main</text>
</a>
</g>
</g>
<!-- Node3&#45;&gt;Node5 -->
<g id="edge4" class="edge">
<title>Node3&#45;&gt;Node5</title>
<path fill="none" stroke="midnightblue" d="M136.05,-77.56C114.24,-74.68 91.43,-71.67 75.76,-69.61"/>
<polygon fill="midnightblue" stroke="midnightblue" points="135.6,-81.03 145.97,-78.87 136.51,-74.09 135.6,-81.03"/>
</g>
<!-- Node7 -->
<g id="node7" class="node">
<title>Node7</title>
<g id="a_node7"><a xlink:href="class_export.html#a26fa49d9882a342d011ba715e0c14109" target="_top" xlink:title=" ">
<polygon fill="white" stroke="black" points="296,-57.5 296,-76.5 400,-76.5 400,-57.5 296,-57.5"/>
<text text-anchor="middle" x="348" y="-64.5" font-family="Helvetica,sans-Serif" font-size="10.00">Export::_sounding</text>
</a>
</g>
</g>
<!-- Node6&#45;&gt;Node7 -->
<g id="edge6" class="edge">
<title>Node6&#45;&gt;Node7</title>
<path fill="none" stroke="midnightblue" d="M462.72,-23.2C435.54,-33.67 398.21,-48.05 373.85,-57.43"/>
<polygon fill="midnightblue" stroke="midnightblue" points="464.15,-26.4 472.23,-19.54 461.64,-19.87 464.15,-26.4"/>
</g>
<!-- Node7&#45;&gt;Node3 -->
<g id="edge7" class="edge">
<title>Node7&#45;&gt;Node3</title>
<path fill="none" stroke="midnightblue" d="M285.75,-75.03C275.9,-76.32 265.77,-77.64 256.1,-78.91"/>
<polygon fill="midnightblue" stroke="midnightblue" points="286.42,-78.47 295.88,-73.7 285.51,-71.53 286.42,-78.47"/>
</g>
<!-- Node10 -->
<g id="node10" class="node">
<title>Node10</title>
<g id="a_node10"><a xlink:href="class_export.html#a833aa02973f6b5c1f3e536e8646cf1ac" target="_top" xlink:title=" ">
<polygon fill="white" stroke="black" points="448,-152.5 448,-171.5 548,-171.5 548,-152.5 448,-152.5"/>
<text text-anchor="middle" x="498" y="-159.5" font-family="Helvetica,sans-Serif" font-size="10.00">Export::_loadALG</text>
</a>
</g>
</g>
<!-- Node9&#45;&gt;Node10 -->
<g id="edge10" class="edge">
<title>Node9&#45;&gt;Node10</title>
<path fill="none" stroke="midnightblue" d="M581.75,-162C570.96,-162 559.24,-162 548.11,-162"/>
<polygon fill="midnightblue" stroke="midnightblue" points="581.76,-165.5 591.76,-162 581.76,-158.5 581.76,-165.5"/>
</g>
<!-- Node10&#45;&gt;Node2 -->
<g id="edge11" class="edge">
<title>Node10&#45;&gt;Node2</title>
<path fill="none" stroke="midnightblue" d="M437.71,-154.39C426.65,-152.97 415.13,-151.49 404.19,-150.09"/>
<polygon fill="midnightblue" stroke="midnightblue" points="437.35,-157.87 447.72,-155.67 438.25,-150.93 437.35,-157.87"/>
</g>
<!-- Node11&#45;&gt;Node2 -->
<g id="edge13" class="edge">
<title>Node11&#45;&gt;Node2</title>
<path fill="none" stroke="midnightblue" d="M600.6,-82.96C587.92,-90.61 571.6,-99.45 556,-105 506.25,-122.68 446.71,-132.51 404.29,-137.72"/>
<polygon fill="midnightblue" stroke="midnightblue" points="602.48,-85.91 609.13,-77.66 598.79,-79.96 602.48,-85.91"/>
</g>
<!-- Node11&#45;&gt;Node6 -->
<g id="edge14" class="edge">
<title>Node11&#45;&gt;Node6</title>
<path fill="none" stroke="midnightblue" d="M596.14,-53.68C583.94,-47.44 569.35,-40.16 556,-34 545.18,-29 533.03,-23.83 522.73,-19.57"/>
<polygon fill="midnightblue" stroke="midnightblue" points="594.84,-56.95 605.33,-58.42 598.04,-50.73 594.84,-56.95"/>
</g>
<!-- Node11&#45;&gt;Node7 -->
<g id="edge18" class="edge">
<title>Node11&#45;&gt;Node7</title>
<path fill="none" stroke="midnightblue" d="M582.82,-67.3C573.98,-67.17 564.68,-67.06 556,-67 502.81,-66.61 441.94,-66.67 400.04,-66.79"/>
<polygon fill="midnightblue" stroke="midnightblue" points="582.87,-70.8 592.92,-67.45 582.98,-63.8 582.87,-70.8"/>
</g>
<!-- Node11&#45;&gt;Node10 -->
<g id="edge17" class="edge">
<title>Node11&#45;&gt;Node10</title>
<path fill="none" stroke="midnightblue" d="M608.26,-85.34C592.14,-103.4 567.47,-130.13 556,-138 547.5,-143.83 537.36,-148.66 528,-152.42"/>
<polygon fill="midnightblue" stroke="midnightblue" points="610.97,-87.55 614.99,-77.75 605.74,-82.91 610.97,-87.55"/>
</g>
<!-- Node11&#45;&gt;Node11 -->
<g id="edge19" class="edge">
<title>Node11&#45;&gt;Node11</title>
<path fill="none" stroke="midnightblue" d="M640.43,-87.4C639.36,-92.31 634.05,-96 624.5,-96 609.21,-96 604.8,-86.57 611.24,-77.76"/>
<polygon fill="midnightblue" stroke="midnightblue" points="643.8,-86.46 637.76,-77.76 637.05,-88.33 643.8,-86.46"/>
</g>
<!-- Node12 -->
<g id="node12" class="node">
<title>Node12</title>
<g id="a_node12"><a xlink:href="class_export.html#a59ba705b2369f21006ec7d7b7f3a4513" target="_top" xlink:title="Generate RIS reflection matrices.">
<polygon fill="white" stroke="black" points="440,-76.5 440,-95.5 556,-95.5 556,-76.5 440,-76.5"/>
<text text-anchor="middle" x="498" y="-83.5" font-family="Helvetica,sans-Serif" font-size="10.00">Export::_generateBF</text>
</a>
</g>
</g>
<!-- Node11&#45;&gt;Node12 -->
<g id="edge15" class="edge">
<title>Node11&#45;&gt;Node12</title>
<path fill="none" stroke="midnightblue" d="M582.71,-73.9C574.2,-75.13 565.09,-76.44 556.12,-77.74"/>
<polygon fill="midnightblue" stroke="midnightblue" points="583.33,-77.34 592.72,-72.45 582.33,-70.42 583.33,-77.34"/>
</g>
<!-- Node12&#45;&gt;Node7 -->
<g id="edge16" class="edge">
<title>Node12&#45;&gt;Node7</title>
<path fill="none" stroke="midnightblue" d="M429.6,-77.35C419.74,-76.08 409.73,-74.8 400.27,-73.58"/>
<polygon fill="midnightblue" stroke="midnightblue" points="429.42,-80.85 439.78,-78.65 430.31,-73.91 429.42,-80.85"/>
</g>
</g>
</svg>
        <g id="navigator" transform="translate(0 0)" fill="#404254">
                <rect fill="#f2f5e9" fill-opacity="0.5" stroke="#606060" stroke-width=".5" x="0" y="0" width="60" height="60"/>
                <use id="zoomplus" xlink:href="#zoomPlus" x="17" y="9" onmousedown="handleZoom(evt,'in')"/>
                <use id="zoomminus" xlink:href="#zoomMin" x="42" y="9" onmousedown="handleZoom(evt,'out')"/>
                <use id="reset" xlink:href="#resetDef" x="30" y="36" onmousedown="handleReset()"/>
                <g id="arrowUp" xlink:href="#dirArrow" transform="translate(30 24)" onmousedown="handlePan(0,-1)">
                  <use xlink:href="#rim" fill="#404040">
                        <set attributeName="fill" to="#808080" begin="arrowUp.mouseover" end="arrowUp.mouseout"/>
                  </use>
                  <path fill="none" stroke="white" stroke-width="1.5" d="M0,-3.0v7 M-2.5,-0.5L0,-3.0L2.5,-0.5"/>
                </g>
                <g id="arrowRight" xlink:href="#dirArrow" transform="rotate(90) translate(36 -43)" onmousedown="handlePan(1,0)">
                  <use xlink:href="#rim" fill="#404040">
                        <set attributeName="fill" to="#808080" begin="arrowRight.mouseover" end="arrowRight.mouseout"/>
                  </use>
                  <path fill="none" stroke="white" stroke-width="1.5" d="M0,-3.0v7 M-2.5,-0.5L0,-3.0L2.5,-0.5"/>
                </g>
                <g id="arrowDown" xlink:href="#dirArrow" transform="rotate(180) translate(-30 -48)" onmousedown="handlePan(0,1)">
                  <use xlink:href="#rim" fill="#404040">
                        <set attributeName="fill" to="#808080" begin="arrowDown.mouseover" end="arrowDown.mouseout"/>
                  </use>
                  <path fill="none" stroke="white" stroke-width="1.5" d="M0,-3.0v7 M-2.5,-0.5L0,-3.0L2.5,-0.5"/>
                </g>
                <g id="arrowLeft" xlink:href="#dirArrow" transform="rotate(270) translate(-36 17)" onmousedown="handlePan(-1,0)">
                  <use xlink:href="#rim" fill="#404040">
                        <set attributeName="fill" to="#808080" begin="arrowLeft.mouseover" end="arrowLeft.mouseout"/>
                  </use>
                  <path fill="none" stroke="white" stroke-width="1.5" d="M0,-3.0v7 M-2.5,-0.5L0,-3.0L2.5,-0.5"/>
                </g>
        </g>
        <svg viewBox="0 0 15 15" width="100%" height="30px" preserveAspectRatio="xMaxYMin meet">
         <g id="arrow_out" transform="scale(0.3 0.3)">
          <a xlink:href="utils_8h_a6ef734356291c638e5787a6c668192d4_icgraph_org.svg" target="_base">
           <rect id="button" ry="5" rx="5" y="6" x="6" height="38" width="38"
                fill="#f2f5e9" fill-opacity="0.5" stroke="#606060" stroke-width="1.0"/>
           <path id="arrow"
             d="M 11.500037,31.436501 C 11.940474,20.09759 22.043105,11.32322 32.158766,21.979434 L 37.068811,17.246167 C 37.068811,17.246167 37.088388,32 37.088388,32 L 22.160133,31.978069 C 22.160133,31.978069 26.997745,27.140456 26.997745,27.140456 C 18.528582,18.264221 13.291696,25.230495 11.500037,31.436501 z"
             style="fill:#404040;"/>
          </a>
         </g>
        </svg>
</svg>
