<?xml version="1.0" encoding="UTF-8" standalone="no"?>
<!DOCTYPE svg PUBLIC "-//W3C//DTD SVG 1.1//EN"
 "http://www.w3.org/Graphics/SVG/1.1/DTD/svg11.dtd">
<!-- Generated by graphviz version 2.43.0 (0)
 -->
<!-- Title: contains Pages: 1 -->
<!--zoomable 602 -->
<svg id="main" version="1.1" xmlns="http://www.w3.org/2000/svg" xmlns:xlink="http://www.w3.org/1999/xlink" xml:space="preserve" onload="init(evt)">
<style type="text/css"><![CDATA[
.edge:hover path { stroke: red; }
.edge:hover polygon { stroke: red; fill: red; }
]]></style>
<script type="text/javascript"><![CDATA[
var edges = document.getElementsByTagName('g');
if (edges && edges.length) {
  for (var i=0;i<edges.length;i++) {
    if (edges[i].id.substr(0,4)=='edge') {
      edges[i].setAttribute('class','edge');
    }
  }
}
]]></script>
        <defs>
                <circle id="rim" cx="0" cy="0" r="7"/>
                <circle id="rim2" cx="0" cy="0" r="3.5"/>
                <g id="zoomPlus">
                        <use xlink:href="#rim" fill="#404040">
                                <set attributeName="fill" to="#808080" begin="zoomplus.mouseover" end="zoomplus.mouseout"/>
                        </use>
                        <path d="M-4,0h8M0,-4v8" fill="none" stroke="white" stroke-width="1.5" pointer-events="none"/>
                </g>
                <g id="zoomMin">
                        <use xlink:href="#rim" fill="#404040">
                                <set attributeName="fill" to="#808080" begin="zoomminus.mouseover" end="zoomminus.mouseout"/>
                        </use>
                        <path d="M-4,0h8" fill="none" stroke="white" stroke-width="1.5" pointer-events="none"/>
                </g>
                <g id="dirArrow">
                        <path fill="none" stroke="white" stroke-width="1.5" d="M0,-3.0v7 M-2.5,-0.5L0,-3.0L2.5,-0.5"/>
                </g>
               <g id="resetDef">
                       <use xlink:href="#rim2" fill="#404040">
                               <set attributeName="fill" to="#808080" begin="reset.mouseover" end="reset.mouseout"/>
                       </use>
               </g>
        </defs>

<script type="text/javascript">
var viewWidth = 1281;
var viewHeight = 602;
var sectionId = 'dynsection-3';
</script>
<script xlink:href="svgpan.js"/>
<svg id="graph" class="graph">
<g id="viewport">
<title>contains</title>
<polygon fill="white" stroke="transparent" points="-4,4 -4,-597.69 1277,-597.69 1277,4 -4,4"/>
<!-- Node1 -->
<g id="node1" class="node">
<title>Node1</title>
<g id="a_node1"><a xlink:title=" ">
<polygon fill="#bfbfbf" stroke="black" points="1215,-259.5 1215,-278.5 1273,-278.5 1273,-259.5 1215,-259.5"/>
<text text-anchor="middle" x="1244" y="-266.5" font-family="Helvetica,sans-Serif" font-size="10.00">contains</text>
</a>
</g>
</g>
<!-- Node2 -->
<g id="node2" class="node">
<title>Node2</title>
<g id="a_node2"><a xlink:href="class_export.html#a966a54f05ada435d6d1ce6e4a9750f41" target="_top" xlink:title=" ">
<polygon fill="white" stroke="black" points="1012,-430.5 1012,-449.5 1179,-449.5 1179,-430.5 1012,-430.5"/>
<text text-anchor="middle" x="1095.5" y="-437.5" font-family="Helvetica,sans-Serif" font-size="10.00">Export::_checkALGdependency</text>
</a>
</g>
</g>
<!-- Node1&#45;&gt;Node2 -->
<g id="edge1" class="edge">
<title>Node1&#45;&gt;Node2</title>
<path fill="none" stroke="midnightblue" d="M1239.91,-288.67C1233.91,-320.2 1217.71,-381.94 1179,-416 1171.83,-422.31 1163.09,-426.96 1154.02,-430.39"/>
<polygon fill="midnightblue" stroke="midnightblue" points="1243.41,-288.99 1241.68,-278.53 1236.51,-287.78 1243.41,-288.99"/>
</g>
<!-- Node3 -->
<g id="node3" class="node">
<title>Node3</title>
<g id="a_node3"><a xlink:href="class_export.html#a833aa02973f6b5c1f3e536e8646cf1ac" target="_top" xlink:title=" ">
<polygon fill="white" stroke="black" points="497,-296.5 497,-315.5 597,-315.5 597,-296.5 497,-296.5"/>
<text text-anchor="middle" x="547" y="-303.5" font-family="Helvetica,sans-Serif" font-size="10.00">Export::_loadALG</text>
</a>
</g>
</g>
<!-- Node1&#45;&gt;Node3 -->
<g id="edge24" class="edge">
<title>Node1&#45;&gt;Node3</title>
<path fill="none" stroke="midnightblue" d="M1222.82,-284.81C1210.83,-293.2 1194.89,-302.64 1179,-307 948.42,-370.3 880.11,-308.29 641,-307 626.79,-306.92 611.36,-306.78 597.23,-306.63"/>
<polygon fill="midnightblue" stroke="midnightblue" points="1225.16,-287.44 1231.16,-278.71 1221.02,-281.79 1225.16,-287.44"/>
</g>
<!-- Node8 -->
<g id="node8" class="node">
<title>Node8</title>
<g id="a_node8"><a xlink:href="class_export.html#af64597af0c0b4cf569f96216bcd23b2c" target="_top" xlink:title=" ">
<polygon fill="white" stroke="black" points="857,-468.5 857,-487.5 961,-487.5 961,-468.5 857,-468.5"/>
<text text-anchor="middle" x="909" y="-475.5" font-family="Helvetica,sans-Serif" font-size="10.00">Export::_reporting</text>
</a>
</g>
</g>
<!-- Node1&#45;&gt;Node8 -->
<g id="edge25" class="edge">
<title>Node1&#45;&gt;Node8</title>
<path fill="none" stroke="midnightblue" d="M1242.99,-288.73C1241.79,-328.35 1232.88,-417.34 1179,-459 1146.13,-484.42 1029.52,-483.72 961.1,-480.91"/>
<polygon fill="midnightblue" stroke="midnightblue" points="1246.49,-288.59 1243.16,-278.54 1239.49,-288.48 1246.49,-288.59"/>
</g>
<!-- Node9 -->
<g id="node9" class="node">
<title>Node9</title>
<g id="a_node9"><a xlink:href="class_alg___line.html#aa0ac36c0f72f54317b686035693ec046" target="_top" xlink:title="Find the first occupance of substring in string that is not an escape or within quotes.">
<polygon fill="white" stroke="black" points="1038,-202.5 1038,-221.5 1153,-221.5 1153,-202.5 1038,-202.5"/>
<text text-anchor="middle" x="1095.5" y="-209.5" font-family="Helvetica,sans-Serif" font-size="10.00">Alg_Line::_findChars</text>
</a>
</g>
</g>
<!-- Node1&#45;&gt;Node9 -->
<g id="edge9" class="edge">
<title>Node1&#45;&gt;Node9</title>
<path fill="none" stroke="midnightblue" d="M1220.99,-253.62C1209.03,-245.87 1193.72,-236.9 1179,-231 1169.59,-227.23 1159.25,-224.11 1149.18,-221.57"/>
<polygon fill="midnightblue" stroke="midnightblue" points="1219.15,-256.6 1229.41,-259.23 1223.03,-250.78 1219.15,-256.6"/>
</g>
<!-- Node13 -->
<g id="node13" class="node">
<title>Node13</title>
<g id="a_node13"><a xlink:href="class_channel___graph.html#afe38f4cb30dbc0b32ac4746d1ac506ab" target="_top" xlink:title="Form paths based on the current frontier.">
<polygon fill="white" stroke="black" points="1019.5,-506.5 1019.5,-525.5 1171.5,-525.5 1171.5,-506.5 1019.5,-506.5"/>
<text text-anchor="middle" x="1095.5" y="-513.5" font-family="Helvetica,sans-Serif" font-size="10.00">Channel_Graph::_formPaths</text>
</a>
</g>
</g>
<!-- Node1&#45;&gt;Node13 -->
<g id="edge14" class="edge">
<title>Node1&#45;&gt;Node13</title>
<path fill="none" stroke="midnightblue" d="M1243.31,-288.67C1242.88,-331.76 1235.63,-435.16 1179,-492 1172.68,-498.34 1164.79,-503.03 1156.42,-506.49"/>
<polygon fill="midnightblue" stroke="midnightblue" points="1246.81,-288.63 1243.29,-278.64 1239.81,-288.65 1246.81,-288.63"/>
</g>
<!-- Node16 -->
<g id="node16" class="node">
<title>Node16</title>
<g id="a_node16"><a xlink:href="class_export.html#a59ba705b2369f21006ec7d7b7f3a4513" target="_top" xlink:title="Generate RIS reflection matrices.">
<polygon fill="white" stroke="black" points="489,-448.5 489,-467.5 605,-467.5 605,-448.5 489,-448.5"/>
<text text-anchor="middle" x="547" y="-455.5" font-family="Helvetica,sans-Serif" font-size="10.00">Export::_generateBF</text>
</a>
</g>
</g>
<!-- Node1&#45;&gt;Node16 -->
<g id="edge19" class="edge">
<title>Node1&#45;&gt;Node16</title>
<path fill="none" stroke="midnightblue" d="M1229.47,-287.26C1217.68,-301.93 1199.32,-321.99 1179,-334 1030.74,-421.62 975.62,-409.19 806,-439 737.55,-451.03 657.58,-455.46 605.03,-457.08"/>
<polygon fill="midnightblue" stroke="midnightblue" points="1232.55,-289 1235.92,-278.95 1227.02,-284.71 1232.55,-289"/>
</g>
<!-- Node18 -->
<g id="node18" class="node">
<title>Node18</title>
<g id="a_node18"><a xlink:href="class_export.html#aebdb49181bc0330a46d112db4028f18a" target="_top" xlink:title=" ">
<polygon fill="white" stroke="black" points="1040.5,-88.5 1040.5,-107.5 1150.5,-107.5 1150.5,-88.5 1040.5,-88.5"/>
<text text-anchor="middle" x="1095.5" y="-95.5" font-family="Helvetica,sans-Serif" font-size="10.00">Export::_isKeyword</text>
</a>
</g>
</g>
<!-- Node1&#45;&gt;Node18 -->
<g id="edge22" class="edge">
<title>Node1&#45;&gt;Node18</title>
<path fill="none" stroke="midnightblue" d="M1240.48,-249.31C1235.23,-216.65 1219.97,-151.46 1179,-117 1170.9,-110.19 1160.83,-105.71 1150.54,-102.78"/>
<polygon fill="midnightblue" stroke="midnightblue" points="1237.05,-250.01 1241.95,-259.41 1243.98,-249.01 1237.05,-250.01"/>
</g>
<!-- Node20 -->
<g id="node20" class="node">
<title>Node20</title>
<g id="a_node20"><a xlink:href="class_export.html#af41ce4a9c8f549930d43fbe47f84abaa" target="_top" xlink:title="Set the variable names defined by users.">
<polygon fill="white" stroke="black" points="310,-562.5 310,-581.5 435,-581.5 435,-562.5 310,-562.5"/>
<text text-anchor="middle" x="372.5" y="-569.5" font-family="Helvetica,sans-Serif" font-size="10.00">Export::_setVarNames</text>
</a>
</g>
</g>
<!-- Node1&#45;&gt;Node20 -->
<g id="edge26" class="edge">
<title>Node1&#45;&gt;Node20</title>
<path fill="none" stroke="midnightblue" d="M1241.54,-288.68C1236.76,-347.19 1219.52,-518.18 1179,-553 1088.09,-631.11 1029.85,-572 910,-572 910,-572 910,-572 722.5,-572 621.92,-572 505.04,-572 435.28,-572"/>
<polygon fill="midnightblue" stroke="midnightblue" points="1245.04,-288.79 1242.33,-278.55 1238.06,-288.25 1245.04,-288.79"/>
</g>
<!-- Node21 -->
<g id="node21" class="node">
<title>Node21</title>
<g id="a_node21"><a xlink:href="class_channel___graph.html#ab3e5ebf07412eb058c176ef6a7693fd2" target="_top" xlink:title="Validate paths.">
<polygon fill="white" stroke="black" points="1024.5,-39 1024.5,-69 1166.5,-69 1166.5,-39 1024.5,-39"/>
<text text-anchor="start" x="1032.5" y="-57" font-family="Helvetica,sans-Serif" font-size="10.00">Channel_Graph::_validate</text>
<text text-anchor="middle" x="1095.5" y="-46" font-family="Helvetica,sans-Serif" font-size="10.00">Paths</text>
</a>
</g>
</g>
<!-- Node1&#45;&gt;Node21 -->
<g id="edge28" class="edge">
<title>Node1&#45;&gt;Node21</title>
<path fill="none" stroke="midnightblue" d="M1242.04,-248.66C1239.12,-210.04 1227.23,-125.78 1179,-79 1175.02,-75.14 1170.48,-71.88 1165.6,-69.12"/>
<polygon fill="midnightblue" stroke="midnightblue" points="1238.58,-249.33 1242.69,-259.09 1245.56,-248.89 1238.58,-249.33"/>
</g>
<!-- Node22 -->
<g id="node22" class="node">
<title>Node22</title>
<g id="a_node22"><a xlink:href="class_alg___line.html#a611a64761bcec69c20fa925a025a4c92" target="_top" xlink:title="Check if parameters have unknown keys.">
<polygon fill="white" stroke="black" points="1023,-0.5 1023,-19.5 1168,-19.5 1168,-0.5 1023,-0.5"/>
<text text-anchor="middle" x="1095.5" y="-7.5" font-family="Helvetica,sans-Serif" font-size="10.00">Alg_Line::hasUnknownKey</text>
</a>
</g>
</g>
<!-- Node1&#45;&gt;Node22 -->
<g id="edge29" class="edge">
<title>Node1&#45;&gt;Node22</title>
<path fill="none" stroke="midnightblue" d="M1240.38,-249.29C1233.1,-197.6 1211.07,-59.99 1179,-29 1175.09,-25.22 1170.59,-22.14 1165.74,-19.63"/>
<polygon fill="midnightblue" stroke="midnightblue" points="1236.94,-250.03 1241.77,-259.46 1243.88,-249.08 1236.94,-250.03"/>
</g>
<!-- Node23 -->
<g id="node23" class="node">
<title>Node23</title>
<g id="a_node23"><a xlink:href="functions_8h.html#a874ba6c7a581632b5ca72a1bd9fecdd1" target="_top" xlink:title=" ">
<polygon fill="white" stroke="black" points="1058.5,-164.5 1058.5,-183.5 1132.5,-183.5 1132.5,-164.5 1058.5,-164.5"/>
<text text-anchor="middle" x="1095.5" y="-171.5" font-family="Helvetica,sans-Serif" font-size="10.00">isFuncIsEnd</text>
</a>
</g>
</g>
<!-- Node1&#45;&gt;Node23 -->
<g id="edge30" class="edge">
<title>Node1&#45;&gt;Node23</title>
<path fill="none" stroke="midnightblue" d="M1232.4,-250.57C1221.33,-233.04 1202.35,-207.27 1179,-193 1165.08,-184.49 1147.72,-179.79 1132.52,-177.19"/>
<polygon fill="midnightblue" stroke="midnightblue" points="1229.54,-252.6 1237.71,-259.34 1235.52,-248.97 1229.54,-252.6"/>
</g>
<!-- Node26 -->
<g id="node26" class="node">
<title>Node26</title>
<g id="a_node26"><a xlink:href="functions_8h.html#a6f29a04c07a24fbea22fa058f8005608" target="_top" xlink:title=" ">
<polygon fill="white" stroke="black" points="1047.5,-126.5 1047.5,-145.5 1143.5,-145.5 1143.5,-126.5 1047.5,-126.5"/>
<text text-anchor="middle" x="1095.5" y="-133.5" font-family="Helvetica,sans-Serif" font-size="10.00">isFuncNeedsEnd</text>
</a>
</g>
</g>
<!-- Node1&#45;&gt;Node26 -->
<g id="edge35" class="edge">
<title>Node1&#45;&gt;Node26</title>
<path fill="none" stroke="midnightblue" d="M1237.51,-249.52C1229.21,-223.79 1210.95,-178.93 1179,-155 1168.76,-147.33 1155.96,-142.69 1143.51,-139.89"/>
<polygon fill="midnightblue" stroke="midnightblue" points="1234.21,-250.71 1240.46,-259.26 1240.91,-248.68 1234.21,-250.71"/>
</g>
<!-- Node28 -->
<g id="node28" class="node">
<title>Node28</title>
<g id="a_node28"><a xlink:href="functions_8h.html#ac9dc58cb94b7547813c3a35154d97d18" target="_top" xlink:title=" ">
<polygon fill="white" stroke="black" points="1056,-278.5 1056,-297.5 1135,-297.5 1135,-278.5 1056,-278.5"/>
<text text-anchor="middle" x="1095.5" y="-285.5" font-family="Helvetica,sans-Serif" font-size="10.00">isFuncNoEnd</text>
</a>
</g>
</g>
<!-- Node1&#45;&gt;Node28 -->
<g id="edge38" class="edge">
<title>Node1&#45;&gt;Node28</title>
<path fill="none" stroke="midnightblue" d="M1204.7,-273.97C1183.29,-276.74 1156.66,-280.2 1135.18,-282.98"/>
<polygon fill="midnightblue" stroke="midnightblue" points="1205.29,-277.42 1214.75,-272.66 1204.39,-270.48 1205.29,-277.42"/>
</g>
<!-- Node33 -->
<g id="node33" class="node">
<title>Node33</title>
<g id="a_node33"><a xlink:href="class_config.html#a568ec68975e8e9338356619ebfb6a4f8" target="_top" xlink:title="Set the key value.">
<polygon fill="white" stroke="black" points="1061.5,-240.5 1061.5,-259.5 1129.5,-259.5 1129.5,-240.5 1061.5,-240.5"/>
<text text-anchor="middle" x="1095.5" y="-247.5" font-family="Helvetica,sans-Serif" font-size="10.00">Config::set</text>
</a>
</g>
</g>
<!-- Node1&#45;&gt;Node33 -->
<g id="edge50" class="edge">
<title>Node1&#45;&gt;Node33</title>
<path fill="none" stroke="midnightblue" d="M1204.84,-264.05C1181.47,-261.02 1151.88,-257.18 1129.53,-254.28"/>
<polygon fill="midnightblue" stroke="midnightblue" points="1204.39,-267.52 1214.75,-265.34 1205.29,-260.58 1204.39,-267.52"/>
</g>
<!-- Node2&#45;&gt;Node3 -->
<g id="edge2" class="edge">
<title>Node2&#45;&gt;Node3</title>
<path fill="none" stroke="midnightblue" d="M1030.27,-428.64C941.77,-412.35 777.76,-379.88 641,-340 616.9,-332.97 590.04,-322.9 571.41,-315.55"/>
<polygon fill="midnightblue" stroke="midnightblue" points="1029.69,-432.09 1040.16,-430.45 1030.95,-425.2 1029.69,-432.09"/>
</g>
<!-- Node2&#45;&gt;Node8 -->
<g id="edge7" class="edge">
<title>Node2&#45;&gt;Node8</title>
<path fill="none" stroke="midnightblue" d="M1038.13,-451.61C1011.89,-457.01 981.06,-463.36 956.22,-468.48"/>
<polygon fill="midnightblue" stroke="midnightblue" points="1038.85,-455.03 1047.94,-449.59 1037.44,-448.18 1038.85,-455.03"/>
</g>
<!-- Node4 -->
<g id="node4" class="node">
<title>Node4</title>
<g id="a_node4"><a xlink:href="class_export.html#a89d3ae54dd2261cf35be148011b79fe4" target="_top" xlink:title=" ">
<polygon fill="white" stroke="black" points="316.5,-334.5 316.5,-353.5 428.5,-353.5 428.5,-334.5 316.5,-334.5"/>
<text text-anchor="middle" x="372.5" y="-341.5" font-family="Helvetica,sans-Serif" font-size="10.00">Export::_algorithms</text>
</a>
</g>
</g>
<!-- Node3&#45;&gt;Node4 -->
<g id="edge3" class="edge">
<title>Node3&#45;&gt;Node4</title>
<path fill="none" stroke="midnightblue" d="M492.65,-317.75C468.26,-323.13 439.74,-329.41 416.72,-334.48"/>
<polygon fill="midnightblue" stroke="midnightblue" points="493.46,-321.16 502.47,-315.59 491.95,-314.32 493.46,-321.16"/>
</g>
<!-- Node5 -->
<g id="node5" class="node">
<title>Node5</title>
<g id="a_node5"><a xlink:href="class_export.html#affc37d1d677a83d3e5d36a4e37b7a72b" target="_top" xlink:title=" ">
<polygon fill="white" stroke="black" points="146,-467.5 146,-486.5 256,-486.5 256,-467.5 146,-467.5"/>
<text text-anchor="middle" x="201" y="-474.5" font-family="Helvetica,sans-Serif" font-size="10.00">Export::exportCode</text>
</a>
</g>
</g>
<!-- Node4&#45;&gt;Node5 -->
<g id="edge4" class="edge">
<title>Node4&#45;&gt;Node5</title>
<path fill="none" stroke="midnightblue" d="M351.13,-359.98C315.66,-387.82 243.57,-444.38 214.54,-467.16"/>
<polygon fill="midnightblue" stroke="midnightblue" points="353.6,-362.49 359.31,-353.57 349.28,-356.98 353.6,-362.49"/>
</g>
<!-- Node6 -->
<g id="node6" class="node">
<title>Node6</title>
<g id="a_node6"><a xlink:href="class_export.html#a94fab568af6ddd6447efca74e205e081" target="_top" xlink:title=" ">
<polygon fill="white" stroke="black" points="0,-467.5 0,-486.5 110,-486.5 110,-467.5 0,-467.5"/>
<text text-anchor="middle" x="55" y="-474.5" font-family="Helvetica,sans-Serif" font-size="10.00">Export::exportCode</text>
</a>
</g>
</g>
<!-- Node5&#45;&gt;Node6 -->
<g id="edge5" class="edge">
<title>Node5&#45;&gt;Node6</title>
<path fill="none" stroke="midnightblue" d="M135.73,-477C127.25,-477 118.62,-477 110.33,-477"/>
<polygon fill="midnightblue" stroke="midnightblue" points="135.97,-480.5 145.97,-477 135.97,-473.5 135.97,-480.5"/>
</g>
<!-- Node7 -->
<g id="node7" class="node">
<title>Node7</title>
<g id="a_node7"><a xlink:href="src_2main_8cpp.html#a0ddf1224851353fc92bfbff6f499fa97" target="_top" xlink:title=" ">
<polygon fill="white" stroke="black" points="34.5,-396.5 34.5,-415.5 75.5,-415.5 75.5,-396.5 34.5,-396.5"/>
<text text-anchor="middle" x="55" y="-403.5" font-family="Helvetica,sans-Serif" font-size="10.00">main</text>
</a>
</g>
</g>
<!-- Node5&#45;&gt;Node7 -->
<g id="edge6" class="edge">
<title>Node5&#45;&gt;Node7</title>
<path fill="none" stroke="midnightblue" d="M171.56,-462.98C143.18,-448.98 100.34,-427.86 75.57,-415.65"/>
<polygon fill="midnightblue" stroke="midnightblue" points="170.06,-466.14 180.58,-467.42 173.16,-459.86 170.06,-466.14"/>
</g>
<!-- Node8&#45;&gt;Node5 -->
<g id="edge8" class="edge">
<title>Node8&#45;&gt;Node5</title>
<path fill="none" stroke="midnightblue" d="M846.7,-477.91C710.62,-477.72 385.18,-477.26 256.09,-477.08"/>
<polygon fill="midnightblue" stroke="midnightblue" points="846.94,-481.41 856.94,-477.93 846.95,-474.41 846.94,-481.41"/>
</g>
<!-- Node10 -->
<g id="node10" class="node">
<title>Node10</title>
<g id="a_node10"><a xlink:href="class_alg___line.html#a02c28dd649a764aabefb625ea87f2938" target="_top" xlink:title="Find the first occupance of character in string that is not an escape or within quotes.">
<polygon fill="white" stroke="black" points="854,-202.5 854,-221.5 964,-221.5 964,-202.5 854,-202.5"/>
<text text-anchor="middle" x="909" y="-209.5" font-family="Helvetica,sans-Serif" font-size="10.00">Alg_Line::_findChar</text>
</a>
</g>
</g>
<!-- Node9&#45;&gt;Node10 -->
<g id="edge10" class="edge">
<title>Node9&#45;&gt;Node10</title>
<path fill="none" stroke="midnightblue" d="M1027.82,-212C1006.95,-212 984.19,-212 964.29,-212"/>
<polygon fill="midnightblue" stroke="midnightblue" points="1027.89,-215.5 1037.89,-212 1027.89,-208.5 1027.89,-215.5"/>
</g>
<!-- Node11 -->
<g id="node11" class="node">
<title>Node11</title>
<g id="a_node11"><a xlink:href="class_alg___line.html#a0047f4df72a2d10ebb74701c3d05bafc" target="_top" xlink:title="Process function name and parameter variables.">
<polygon fill="white" stroke="black" points="641,-164.5 641,-183.5 806,-183.5 806,-164.5 641,-164.5"/>
<text text-anchor="middle" x="723.5" y="-171.5" font-family="Helvetica,sans-Serif" font-size="10.00">Alg_Line::_processFuncParams</text>
</a>
</g>
</g>
<!-- Node10&#45;&gt;Node11 -->
<g id="edge11" class="edge">
<title>Node10&#45;&gt;Node11</title>
<path fill="none" stroke="midnightblue" d="M851.59,-200.32C825.57,-194.93 795.07,-188.61 770.47,-183.52"/>
<polygon fill="midnightblue" stroke="midnightblue" points="851.19,-203.81 861.7,-202.41 852.61,-196.96 851.19,-203.81"/>
</g>
<!-- Node12 -->
<g id="node12" class="node">
<title>Node12</title>
<g id="a_node12"><a xlink:href="class_alg___line.html#a4f478c53dbfaecf16d55be668d959562" target="_top" xlink:title="Construct a new Alg_Line object. Process string at the same time.">
<polygon fill="white" stroke="black" points="494.5,-164.5 494.5,-183.5 599.5,-183.5 599.5,-164.5 494.5,-164.5"/>
<text text-anchor="middle" x="547" y="-171.5" font-family="Helvetica,sans-Serif" font-size="10.00">Alg_Line::Alg_Line</text>
</a>
</g>
</g>
<!-- Node10&#45;&gt;Node12 -->
<g id="edge13" class="edge">
<title>Node10&#45;&gt;Node12</title>
<path fill="none" stroke="midnightblue" d="M843.67,-209.78C789.44,-207.34 709.88,-202.45 641,-193 623.86,-190.65 605.13,-187.03 589.01,-183.58"/>
<polygon fill="midnightblue" stroke="midnightblue" points="843.69,-213.28 853.83,-210.22 844,-206.29 843.69,-213.28"/>
</g>
<!-- Node11&#45;&gt;Node12 -->
<g id="edge12" class="edge">
<title>Node11&#45;&gt;Node12</title>
<path fill="none" stroke="midnightblue" d="M630.67,-174C620.05,-174 609.51,-174 599.7,-174"/>
<polygon fill="midnightblue" stroke="midnightblue" points="630.87,-177.5 640.87,-174 630.87,-170.5 630.87,-177.5"/>
</g>
<!-- Node13&#45;&gt;Node13 -->
<g id="edge15" class="edge">
<title>Node13&#45;&gt;Node13</title>
<path fill="none" stroke="midnightblue" d="M1123.13,-534.65C1121.97,-539.94 1112.76,-544 1095.5,-544 1069.2,-544 1061.59,-534.57 1072.69,-525.76"/>
<polygon fill="midnightblue" stroke="midnightblue" points="1126.15,-532.89 1118.31,-525.76 1119.99,-536.22 1126.15,-532.89"/>
</g>
<!-- Node14 -->
<g id="node14" class="node">
<title>Node14</title>
<g id="a_node14"><a xlink:href="class_channel___graph.html#ac8aeff35f809d61816b2e1fadde523bf" target="_top" xlink:title=" ">
<polygon fill="white" stroke="black" points="842,-515.5 842,-534.5 976,-534.5 976,-515.5 842,-515.5"/>
<text text-anchor="middle" x="909" y="-522.5" font-family="Helvetica,sans-Serif" font-size="10.00">Channel_Graph::arrange</text>
</a>
</g>
</g>
<!-- Node13&#45;&gt;Node14 -->
<g id="edge16" class="edge">
<title>Node13&#45;&gt;Node14</title>
<path fill="none" stroke="midnightblue" d="M1009.28,-520.16C998.13,-520.7 986.85,-521.25 976.09,-521.78"/>
<polygon fill="midnightblue" stroke="midnightblue" points="1009.64,-523.64 1019.46,-519.66 1009.3,-516.65 1009.64,-523.64"/>
</g>
<!-- Node15 -->
<g id="node15" class="node">
<title>Node15</title>
<g id="a_node15"><a xlink:href="class_export.html#ad7bd412c3fe1d5accc38cf1f2ab65ea0" target="_top" xlink:title=" ">
<polygon fill="white" stroke="black" points="292,-524.5 292,-543.5 453,-543.5 453,-524.5 292,-524.5"/>
<text text-anchor="middle" x="372.5" y="-531.5" font-family="Helvetica,sans-Serif" font-size="10.00">Export::_setCascadedChannel</text>
</a>
</g>
</g>
<!-- Node14&#45;&gt;Node15 -->
<g id="edge17" class="edge">
<title>Node14&#45;&gt;Node15</title>
<path fill="none" stroke="midnightblue" d="M831.85,-526.28C731.44,-527.97 555.56,-530.93 453.34,-532.66"/>
<polygon fill="midnightblue" stroke="midnightblue" points="831.98,-529.78 841.92,-526.11 831.87,-522.78 831.98,-529.78"/>
</g>
<!-- Node15&#45;&gt;Node5 -->
<g id="edge18" class="edge">
<title>Node15&#45;&gt;Node5</title>
<path fill="none" stroke="midnightblue" d="M328.42,-521.49C316.57,-517.92 303.75,-513.92 292,-510 269.9,-502.62 245.06,-493.44 227.08,-486.64"/>
<polygon fill="midnightblue" stroke="midnightblue" points="327.51,-524.88 338.1,-524.39 329.52,-518.17 327.51,-524.88"/>
</g>
<!-- Node17 -->
<g id="node17" class="node">
<title>Node17</title>
<g id="a_node17"><a xlink:href="class_export.html#a26fa49d9882a342d011ba715e0c14109" target="_top" xlink:title=" ">
<polygon fill="white" stroke="black" points="320.5,-429.5 320.5,-448.5 424.5,-448.5 424.5,-429.5 320.5,-429.5"/>
<text text-anchor="middle" x="372.5" y="-436.5" font-family="Helvetica,sans-Serif" font-size="10.00">Export::_sounding</text>
</a>
</g>
</g>
<!-- Node16&#45;&gt;Node17 -->
<g id="edge20" class="edge">
<title>Node16&#45;&gt;Node17</title>
<path fill="none" stroke="midnightblue" d="M478.45,-450.56C460.54,-448.59 441.48,-446.49 424.6,-444.63"/>
<polygon fill="midnightblue" stroke="midnightblue" points="478.24,-454.06 488.56,-451.67 479,-447.1 478.24,-454.06"/>
</g>
<!-- Node17&#45;&gt;Node5 -->
<g id="edge21" class="edge">
<title>Node17&#45;&gt;Node5</title>
<path fill="none" stroke="midnightblue" d="M318.76,-450.82C294.86,-456.18 266.98,-462.43 244.46,-467.48"/>
<polygon fill="midnightblue" stroke="midnightblue" points="319.74,-454.19 328.73,-448.59 318.2,-447.36 319.74,-454.19"/>
</g>
<!-- Node19 -->
<g id="node19" class="node">
<title>Node19</title>
<g id="a_node19"><a xlink:href="class_export.html#a6cc4fd84ec85f052b4e4883953c72cda" target="_top" xlink:title=" ">
<polygon fill="white" stroke="black" points="851,-50.5 851,-69.5 967,-69.5 967,-50.5 851,-50.5"/>
<text text-anchor="middle" x="909" y="-57.5" font-family="Helvetica,sans-Serif" font-size="10.00">Export::_asVarName</text>
</a>
</g>
</g>
<!-- Node18&#45;&gt;Node19 -->
<g id="edge23" class="edge">
<title>Node18&#45;&gt;Node19</title>
<path fill="none" stroke="midnightblue" d="M1038.13,-86.39C1011.89,-80.99 981.06,-74.64 956.22,-69.52"/>
<polygon fill="midnightblue" stroke="midnightblue" points="1037.44,-89.82 1047.94,-88.41 1038.85,-82.97 1037.44,-89.82"/>
</g>
<!-- Node20&#45;&gt;Node5 -->
<g id="edge27" class="edge">
<title>Node20&#45;&gt;Node5</title>
<path fill="none" stroke="midnightblue" d="M306.61,-559.21C301.56,-557.4 296.63,-555.34 292,-553 257.69,-535.66 225.23,-502.8 210.41,-486.57"/>
<polygon fill="midnightblue" stroke="midnightblue" points="305.83,-562.64 316.42,-562.4 307.99,-555.98 305.83,-562.64"/>
</g>
<!-- Node24 -->
<g id="node24" class="node">
<title>Node24</title>
<g id="a_node24"><a xlink:href="class_alg___line.html#ae47ca250987c0b3e08587892448bc4c0" target="_top" xlink:title="Test whether the function name serves as an &#39;end&#39;.">
<polygon fill="white" stroke="black" points="864,-126.5 864,-145.5 954,-145.5 954,-126.5 864,-126.5"/>
<text text-anchor="middle" x="909" y="-133.5" font-family="Helvetica,sans-Serif" font-size="10.00">Alg_Line::isEnd</text>
</a>
</g>
</g>
<!-- Node23&#45;&gt;Node24 -->
<g id="edge31" class="edge">
<title>Node23&#45;&gt;Node24</title>
<path fill="none" stroke="midnightblue" d="M1048.63,-164.55C1019.73,-158.6 982.61,-150.96 954.06,-145.07"/>
<polygon fill="midnightblue" stroke="midnightblue" points="1047.99,-167.99 1058.49,-166.58 1049.4,-161.14 1047.99,-167.99"/>
</g>
<!-- Node25 -->
<g id="node25" class="node">
<title>Node25</title>
<g id="a_node25"><a xlink:href="functions_8h.html#a327f8ee07c785b0b6cb9f59b061effeb" target="_top" xlink:title=" ">
<polygon fill="white" stroke="black" points="885.5,-164.5 885.5,-183.5 932.5,-183.5 932.5,-164.5 885.5,-164.5"/>
<text text-anchor="middle" x="909" y="-171.5" font-family="Helvetica,sans-Serif" font-size="10.00">isFunc</text>
</a>
</g>
</g>
<!-- Node23&#45;&gt;Node25 -->
<g id="edge32" class="edge">
<title>Node23&#45;&gt;Node25</title>
<path fill="none" stroke="midnightblue" d="M1048.45,-174C1011.51,-174 961.25,-174 932.56,-174"/>
<polygon fill="midnightblue" stroke="midnightblue" points="1048.49,-177.5 1058.49,-174 1048.49,-170.5 1048.49,-177.5"/>
</g>
<!-- Node25&#45;&gt;Node11 -->
<g id="edge33" class="edge">
<title>Node25&#45;&gt;Node11</title>
<path fill="none" stroke="midnightblue" d="M875.45,-174C856.16,-174 830.76,-174 806.32,-174"/>
<polygon fill="midnightblue" stroke="midnightblue" points="875.5,-177.5 885.5,-174 875.5,-170.5 875.5,-177.5"/>
</g>
<!-- Node25&#45;&gt;Node12 -->
<g id="edge34" class="edge">
<title>Node25&#45;&gt;Node12</title>
<path fill="none" stroke="midnightblue" d="M875.66,-166.4C855.71,-162.1 829.52,-157.17 806,-155 732.98,-148.26 713.96,-147.62 641,-155 622.64,-156.86 602.54,-160.73 585.74,-164.49"/>
<polygon fill="midnightblue" stroke="midnightblue" points="874.96,-169.83 885.48,-168.57 876.47,-162.99 874.96,-169.83"/>
</g>
<!-- Node26&#45;&gt;Node25 -->
<g id="edge36" class="edge">
<title>Node26&#45;&gt;Node25</title>
<path fill="none" stroke="midnightblue" d="M1037.76,-147.69C1002.47,-154.95 959,-163.91 932.95,-169.27"/>
<polygon fill="midnightblue" stroke="midnightblue" points="1038.85,-151.03 1047.94,-145.59 1037.44,-144.18 1038.85,-151.03"/>
</g>
<!-- Node27 -->
<g id="node27" class="node">
<title>Node27</title>
<g id="a_node27"><a xlink:href="class_alg___line.html#a4f65896bbb51e609fabe47a4f5f3c710" target="_top" xlink:title="Test whether the function name needs an &#39;end&#39;.">
<polygon fill="white" stroke="black" points="853.5,-88.5 853.5,-107.5 964.5,-107.5 964.5,-88.5 853.5,-88.5"/>
<text text-anchor="middle" x="909" y="-95.5" font-family="Helvetica,sans-Serif" font-size="10.00">Alg_Line::needsEnd</text>
</a>
</g>
</g>
<!-- Node26&#45;&gt;Node27 -->
<g id="edge37" class="edge">
<title>Node26&#45;&gt;Node27</title>
<path fill="none" stroke="midnightblue" d="M1038.13,-124.39C1011.89,-118.99 981.06,-112.64 956.22,-107.52"/>
<polygon fill="midnightblue" stroke="midnightblue" points="1037.44,-127.82 1047.94,-126.41 1038.85,-120.97 1037.44,-127.82"/>
</g>
<!-- Node28&#45;&gt;Node25 -->
<g id="edge39" class="edge">
<title>Node28&#45;&gt;Node25</title>
<path fill="none" stroke="midnightblue" d="M1045.67,-284.23C1033.69,-281.4 1021.57,-276.7 1012,-269 982.88,-245.57 1004.48,-217.2 976,-193 963.92,-182.73 946.57,-178 932.7,-175.83"/>
<polygon fill="midnightblue" stroke="midnightblue" points="1045.16,-287.7 1055.64,-286.2 1046.51,-280.83 1045.16,-287.7"/>
</g>
<!-- Node29 -->
<g id="node29" class="node">
<title>Node29</title>
<g id="a_node29"><a xlink:href="class_alg___line.html#a801b08c6c164376039a4ba4e980d039e" target="_top" xlink:title="Print Alg_Line contents (including return values, function names and parameters).">
<polygon fill="white" stroke="black" points="866,-278.5 866,-297.5 952,-297.5 952,-278.5 866,-278.5"/>
<text text-anchor="middle" x="909" y="-285.5" font-family="Helvetica,sans-Serif" font-size="10.00">Alg_Line::print</text>
</a>
</g>
</g>
<!-- Node28&#45;&gt;Node29 -->
<g id="edge40" class="edge">
<title>Node28&#45;&gt;Node29</title>
<path fill="none" stroke="midnightblue" d="M1045.48,-288C1016.41,-288 979.94,-288 952.16,-288"/>
<polygon fill="midnightblue" stroke="midnightblue" points="1045.82,-291.5 1055.82,-288 1045.82,-284.5 1045.82,-291.5"/>
</g>
<!-- Node30 -->
<g id="node30" class="node">
<title>Node30</title>
<g id="a_node30"><a xlink:href="alg__line_8h.html#a4d39c3e11c2fdd9f013afbe1073d1b54" target="_top" xlink:title="Print Alg_Line contents (including return values, function names and parameters).">
<polygon fill="white" stroke="black" points="686.5,-278.5 686.5,-297.5 760.5,-297.5 760.5,-278.5 686.5,-278.5"/>
<text text-anchor="middle" x="723.5" y="-285.5" font-family="Helvetica,sans-Serif" font-size="10.00">operator&lt;&lt;</text>
</a>
</g>
</g>
<!-- Node29&#45;&gt;Node30 -->
<g id="edge41" class="edge">
<title>Node29&#45;&gt;Node30</title>
<path fill="none" stroke="midnightblue" d="M855.87,-288C825.4,-288 787.71,-288 760.52,-288"/>
<polygon fill="midnightblue" stroke="midnightblue" points="855.9,-291.5 865.9,-288 855.9,-284.5 855.9,-291.5"/>
</g>
<!-- Node31 -->
<g id="node31" class="node">
<title>Node31</title>
<g id="a_node31"><a xlink:href="class_alg.html#ada1e8215f047b4ffd736e811b5ea3162" target="_top" xlink:title=" ">
<polygon fill="white" stroke="black" points="692,-392.5 692,-411.5 755,-411.5 755,-392.5 692,-392.5"/>
<text text-anchor="middle" x="723.5" y="-399.5" font-family="Helvetica,sans-Serif" font-size="10.00">Alg::write</text>
</a>
</g>
</g>
<!-- Node29&#45;&gt;Node31 -->
<g id="edge42" class="edge">
<title>Node29&#45;&gt;Node31</title>
<path fill="none" stroke="midnightblue" d="M883.72,-303.08C845.37,-326.91 771.83,-372.59 739.91,-392.42"/>
<polygon fill="midnightblue" stroke="midnightblue" points="886.02,-305.77 892.67,-297.52 882.33,-299.83 886.02,-305.77"/>
</g>
<!-- Node31&#45;&gt;Node3 -->
<g id="edge47" class="edge">
<title>Node31&#45;&gt;Node3</title>
<path fill="none" stroke="midnightblue" d="M682,-395.47C668.14,-391.89 653.09,-386.39 641,-378 619.09,-362.79 626.02,-346.41 605,-330 597.3,-323.99 587.87,-319.22 578.92,-315.56"/>
<polygon fill="midnightblue" stroke="midnightblue" points="681.29,-398.9 691.82,-397.76 682.88,-392.08 681.29,-398.9"/>
</g>
<!-- Node31&#45;&gt;Node4 -->
<g id="edge43" class="edge">
<title>Node31&#45;&gt;Node4</title>
<path fill="none" stroke="midnightblue" d="M681.94,-391C668.78,-387.18 654.18,-382.67 641,-378 624.66,-372.21 621.84,-367.09 605,-363 545.83,-348.62 475.92,-344.6 428.52,-343.71"/>
<polygon fill="midnightblue" stroke="midnightblue" points="681.1,-394.39 691.67,-393.77 683.02,-387.66 681.1,-394.39"/>
</g>
<!-- Node31&#45;&gt;Node16 -->
<g id="edge46" class="edge">
<title>Node31&#45;&gt;Node16</title>
<path fill="none" stroke="midnightblue" d="M682.58,-414.81C650.61,-425.07 606.49,-439.23 577.61,-448.5"/>
<polygon fill="midnightblue" stroke="midnightblue" points="684.05,-418.02 692.5,-411.63 681.91,-411.35 684.05,-418.02"/>
</g>
<!-- Node31&#45;&gt;Node17 -->
<g id="edge48" class="edge">
<title>Node31&#45;&gt;Node17</title>
<path fill="none" stroke="midnightblue" d="M681.74,-406.32C617.86,-413.09 494.28,-426.2 424.57,-433.59"/>
<polygon fill="midnightblue" stroke="midnightblue" points="682.26,-409.79 691.83,-405.25 681.52,-402.82 682.26,-409.79"/>
</g>
<!-- Node31&#45;&gt;Node31 -->
<g id="edge49" class="edge">
<title>Node31&#45;&gt;Node31</title>
<path fill="none" stroke="midnightblue" d="M756.48,-419.89C756,-425.54 745.01,-430 723.5,-430 692.22,-430 683.18,-420.57 696.37,-411.76"/>
<polygon fill="midnightblue" stroke="midnightblue" points="759.31,-417.83 750.63,-411.76 753.63,-421.92 759.31,-417.83"/>
</g>
<!-- Node32 -->
<g id="node32" class="node">
<title>Node32</title>
<g id="a_node32"><a xlink:href="class_export.html#ae4811e1e4212029122c0ee29613714cc" target="_top" xlink:title=" ">
<polygon fill="white" stroke="black" points="491,-372.5 491,-391.5 603,-391.5 603,-372.5 491,-372.5"/>
<text text-anchor="middle" x="547" y="-379.5" font-family="Helvetica,sans-Serif" font-size="10.00">Export::_estimation</text>
</a>
</g>
</g>
<!-- Node31&#45;&gt;Node32 -->
<g id="edge44" class="edge">
<title>Node31&#45;&gt;Node32</title>
<path fill="none" stroke="midnightblue" d="M681.76,-397.33C658.36,-394.65 628.64,-391.24 603.16,-388.32"/>
<polygon fill="midnightblue" stroke="midnightblue" points="681.37,-400.81 691.7,-398.47 682.17,-393.85 681.37,-400.81"/>
</g>
<!-- Node32&#45;&gt;Node17 -->
<g id="edge45" class="edge">
<title>Node32&#45;&gt;Node17</title>
<path fill="none" stroke="midnightblue" d="M507.29,-394.79C475.52,-405.29 431.23,-419.92 402.47,-429.43"/>
<polygon fill="midnightblue" stroke="midnightblue" points="508.73,-398 517.13,-391.54 506.53,-391.35 508.73,-398"/>
</g>
<!-- Node34 -->
<g id="node34" class="node">
<title>Node34</title>
<g id="a_node34"><a xlink:href="class_config.html#aaba73cd0c0ca87e1ecd654d2ffee5927" target="_top" xlink:title=" ">
<polygon fill="white" stroke="black" points="165,-330.5 165,-349.5 237,-349.5 237,-330.5 165,-330.5"/>
<text text-anchor="middle" x="201" y="-337.5" font-family="Helvetica,sans-Serif" font-size="10.00">Config::edit</text>
</a>
</g>
</g>
<!-- Node33&#45;&gt;Node34 -->
<g id="edge51" class="edge">
<title>Node33&#45;&gt;Node34</title>
<path fill="none" stroke="midnightblue" d="M1051.27,-250C982.21,-250 842.73,-250 724.5,-250 724.5,-250 724.5,-250 546,-250 420.07,-250 276.4,-307.15 223.23,-330.37"/>
<polygon fill="midnightblue" stroke="midnightblue" points="1051.33,-253.5 1061.33,-250 1051.33,-246.5 1051.33,-253.5"/>
</g>
<!-- Node34&#45;&gt;Node7 -->
<g id="edge52" class="edge">
<title>Node34&#45;&gt;Node7</title>
<path fill="none" stroke="midnightblue" d="M169.63,-353.92C141.27,-366.92 99.79,-385.93 75.58,-397.03"/>
<polygon fill="midnightblue" stroke="midnightblue" points="171.43,-356.95 179.06,-349.6 168.51,-350.58 171.43,-356.95"/>
</g>
</g>
</svg>
        <g id="navigator" transform="translate(0 0)" fill="#404254">
                <rect fill="#f2f5e9" fill-opacity="0.5" stroke="#606060" stroke-width=".5" x="0" y="0" width="60" height="60"/>
                <use id="zoomplus" xlink:href="#zoomPlus" x="17" y="9" onmousedown="handleZoom(evt,'in')"/>
                <use id="zoomminus" xlink:href="#zoomMin" x="42" y="9" onmousedown="handleZoom(evt,'out')"/>
                <use id="reset" xlink:href="#resetDef" x="30" y="36" onmousedown="handleReset()"/>
                <g id="arrowUp" xlink:href="#dirArrow" transform="translate(30 24)" onmousedown="handlePan(0,-1)">
                  <use xlink:href="#rim" fill="#404040">
                        <set attributeName="fill" to="#808080" begin="arrowUp.mouseover" end="arrowUp.mouseout"/>
                  </use>
                  <path fill="none" stroke="white" stroke-width="1.5" d="M0,-3.0v7 M-2.5,-0.5L0,-3.0L2.5,-0.5"/>
                </g>
                <g id="arrowRight" xlink:href="#dirArrow" transform="rotate(90) translate(36 -43)" onmousedown="handlePan(1,0)">
                  <use xlink:href="#rim" fill="#404040">
                        <set attributeName="fill" to="#808080" begin="arrowRight.mouseover" end="arrowRight.mouseout"/>
                  </use>
                  <path fill="none" stroke="white" stroke-width="1.5" d="M0,-3.0v7 M-2.5,-0.5L0,-3.0L2.5,-0.5"/>
                </g>
                <g id="arrowDown" xlink:href="#dirArrow" transform="rotate(180) translate(-30 -48)" onmousedown="handlePan(0,1)">
                  <use xlink:href="#rim" fill="#404040">
                        <set attributeName="fill" to="#808080" begin="arrowDown.mouseover" end="arrowDown.mouseout"/>
                  </use>
                  <path fill="none" stroke="white" stroke-width="1.5" d="M0,-3.0v7 M-2.5,-0.5L0,-3.0L2.5,-0.5"/>
                </g>
                <g id="arrowLeft" xlink:href="#dirArrow" transform="rotate(270) translate(-36 17)" onmousedown="handlePan(-1,0)">
                  <use xlink:href="#rim" fill="#404040">
                        <set attributeName="fill" to="#808080" begin="arrowLeft.mouseover" end="arrowLeft.mouseout"/>
                  </use>
                  <path fill="none" stroke="white" stroke-width="1.5" d="M0,-3.0v7 M-2.5,-0.5L0,-3.0L2.5,-0.5"/>
                </g>
        </g>
        <svg viewBox="0 0 15 15" width="100%" height="30px" preserveAspectRatio="xMaxYMin meet">
         <g id="arrow_out" transform="scale(0.3 0.3)">
          <a xlink:href="utils_8h_af11c7cca5b9ad860da4bdb556dce3234_icgraph_org.svg" target="_base">
           <rect id="button" ry="5" rx="5" y="6" x="6" height="38" width="38"
                fill="#f2f5e9" fill-opacity="0.5" stroke="#606060" stroke-width="1.0"/>
           <path id="arrow"
             d="M 11.500037,31.436501 C 11.940474,20.09759 22.043105,11.32322 32.158766,21.979434 L 37.068811,17.246167 C 37.068811,17.246167 37.088388,32 37.088388,32 L 22.160133,31.978069 C 22.160133,31.978069 26.997745,27.140456 26.997745,27.140456 C 18.528582,18.264221 13.291696,25.230495 11.500037,31.436501 z"
             style="fill:#404040;"/>
          </a>
         </g>
        </svg>
</svg>
