<?xml version="1.0" encoding="UTF-8" standalone="no"?>
<!DOCTYPE svg PUBLIC "-//W3C//DTD SVG 1.1//EN"
 "http://www.w3.org/Graphics/SVG/1.1/DTD/svg11.dtd">
<!-- Generated by graphviz version 2.43.0 (0)
 -->
<!-- Title: homeDir Pages: 1 -->
<svg width="499pt" height="180pt"
 viewBox="0.00 0.00 499.00 180.00" xmlns="http://www.w3.org/2000/svg" xmlns:xlink="http://www.w3.org/1999/xlink">
<g id="graph0" class="graph" transform="scale(1 1) rotate(0) translate(4 176)">
<title>homeDir</title>
<polygon fill="white" stroke="transparent" points="-4,4 -4,-176 495,-176 495,4 -4,4"/>
<!-- Node1 -->
<g id="node1" class="node">
<title>Node1</title>
<g id="a_node1"><a xlink:title=" ">
<polygon fill="#bfbfbf" stroke="black" points="432,-76.5 432,-95.5 491,-95.5 491,-76.5 432,-76.5"/>
<text text-anchor="middle" x="461.5" y="-83.5" font-family="Helvetica,sans-Serif" font-size="10.00">homeDir</text>
</a>
</g>
</g>
<!-- Node2 -->
<g id="node2" class="node">
<title>Node2</title>
<g id="a_node2"><a xlink:href="utils_8h.html#a4b2e6c6245b704aeb7448bf62b1cf422" target="_top" xlink:title=" ">
<polygon fill="white" stroke="black" points="343,-76.5 343,-95.5 396,-95.5 396,-76.5 343,-76.5"/>
<text text-anchor="middle" x="369.5" y="-83.5" font-family="Helvetica,sans-Serif" font-size="10.00">dataDir</text>
</a>
</g>
</g>
<!-- Node1&#45;&gt;Node2 -->
<g id="edge1" class="edge">
<title>Node1&#45;&gt;Node2</title>
<path fill="none" stroke="midnightblue" d="M421.32,-86C412.77,-86 403.94,-86 396.08,-86"/>
<polygon fill="midnightblue" stroke="midnightblue" points="421.53,-89.5 431.53,-86 421.53,-82.5 421.53,-89.5"/>
</g>
<!-- Node3 -->
<g id="node3" class="node">
<title>Node3</title>
<g id="a_node3"><a xlink:href="class_config.html#a2f8720e9953fb42b8304089c40fe896e" target="_top" xlink:title=" ">
<polygon fill="white" stroke="black" points="227,-133.5 227,-152.5 307,-152.5 307,-133.5 227,-133.5"/>
<text text-anchor="middle" x="267" y="-140.5" font-family="Helvetica,sans-Serif" font-size="10.00">Config::_load</text>
</a>
</g>
</g>
<!-- Node2&#45;&gt;Node3 -->
<g id="edge2" class="edge">
<title>Node2&#45;&gt;Node3</title>
<path fill="none" stroke="midnightblue" d="M342.52,-100.74C324.32,-111.05 300.54,-124.54 284.8,-133.47"/>
<polygon fill="midnightblue" stroke="midnightblue" points="344.48,-103.65 351.45,-95.67 341.03,-97.56 344.48,-103.65"/>
</g>
<!-- Node5 -->
<g id="node5" class="node">
<title>Node5</title>
<g id="a_node5"><a xlink:href="tools_2log_2log_8h.html#a5d2420c3e47ebff9cfe3c6004f0e62f7" target="_top" xlink:title=" ">
<polygon fill="white" stroke="black" points="228,-76.5 228,-95.5 306,-95.5 306,-76.5 228,-76.5"/>
<text text-anchor="middle" x="267" y="-83.5" font-family="Helvetica,sans-Serif" font-size="10.00">logFileName</text>
</a>
</g>
</g>
<!-- Node2&#45;&gt;Node5 -->
<g id="edge4" class="edge">
<title>Node2&#45;&gt;Node5</title>
<path fill="none" stroke="midnightblue" d="M332.73,-86C324.1,-86 314.84,-86 306.1,-86"/>
<polygon fill="midnightblue" stroke="midnightblue" points="332.88,-89.5 342.88,-86 332.88,-82.5 332.88,-89.5"/>
</g>
<!-- Node10 -->
<g id="node10" class="node">
<title>Node10</title>
<g id="a_node10"><a xlink:href="class_config.html#a4a54bc469b3d615089ee1df7b549c60b" target="_top" xlink:title=" ">
<polygon fill="white" stroke="black" points="228,-19.5 228,-38.5 306,-38.5 306,-19.5 228,-19.5"/>
<text text-anchor="middle" x="267" y="-26.5" font-family="Helvetica,sans-Serif" font-size="10.00">Config::write</text>
</a>
</g>
</g>
<!-- Node2&#45;&gt;Node10 -->
<g id="edge11" class="edge">
<title>Node2&#45;&gt;Node10</title>
<path fill="none" stroke="midnightblue" d="M342.52,-71.26C324.32,-60.95 300.54,-47.46 284.8,-38.53"/>
<polygon fill="midnightblue" stroke="midnightblue" points="341.03,-74.44 351.45,-76.33 344.48,-68.35 341.03,-74.44"/>
</g>
<!-- Node4 -->
<g id="node4" class="node">
<title>Node4</title>
<g id="a_node4"><a xlink:href="class_config.html#abd0c571c116924871e30444b192b792a" target="_top" xlink:title="Construct a new Config object.">
<polygon fill="white" stroke="black" points="92,-152.5 92,-171.5 176,-171.5 176,-152.5 92,-152.5"/>
<text text-anchor="middle" x="134" y="-159.5" font-family="Helvetica,sans-Serif" font-size="10.00">Config::Config</text>
</a>
</g>
</g>
<!-- Node3&#45;&gt;Node4 -->
<g id="edge3" class="edge">
<title>Node3&#45;&gt;Node4</title>
<path fill="none" stroke="midnightblue" d="M216.69,-150.15C203.31,-152.09 188.97,-154.17 176.1,-156.04"/>
<polygon fill="midnightblue" stroke="midnightblue" points="217.3,-153.6 226.7,-148.7 216.3,-146.67 217.3,-153.6"/>
</g>
<!-- Node6 -->
<g id="node6" class="node">
<title>Node6</title>
<g id="a_node6"><a xlink:href="tools_2log_2log_8h.html#ac630e3419ab42e9d249a4171f99f12e6" target="_top" xlink:title=" ">
<polygon fill="white" stroke="black" points="77,-114.5 77,-133.5 191,-133.5 191,-114.5 77,-114.5"/>
<text text-anchor="middle" x="134" y="-121.5" font-family="Helvetica,sans-Serif" font-size="10.00">copyLogToClipboard</text>
</a>
</g>
</g>
<!-- Node5&#45;&gt;Node6 -->
<g id="edge5" class="edge">
<title>Node5&#45;&gt;Node6</title>
<path fill="none" stroke="midnightblue" d="M223.29,-98.39C205.35,-103.59 184.8,-109.55 168.05,-114.41"/>
<polygon fill="midnightblue" stroke="midnightblue" points="224.31,-101.74 232.94,-95.59 222.36,-95.01 224.31,-101.74"/>
</g>
<!-- Node8 -->
<g id="node8" class="node">
<title>Node8</title>
<g id="a_node8"><a xlink:href="tools_2log_2log_8h.html#a9e3a1b6a9042b139e9d37ad8c8e6bcfe" target="_top" xlink:title="Get the log file name on the local machine.">
<polygon fill="white" stroke="black" points="82,-76.5 82,-95.5 186,-95.5 186,-76.5 82,-76.5"/>
<text text-anchor="middle" x="134" y="-83.5" font-family="Helvetica,sans-Serif" font-size="10.00">localLogFileName</text>
</a>
</g>
</g>
<!-- Node5&#45;&gt;Node8 -->
<g id="edge7" class="edge">
<title>Node5&#45;&gt;Node8</title>
<path fill="none" stroke="midnightblue" d="M217.73,-86C207.46,-86 196.58,-86 186.2,-86"/>
<polygon fill="midnightblue" stroke="midnightblue" points="217.76,-89.5 227.76,-86 217.76,-82.5 217.76,-89.5"/>
</g>
<!-- Node9 -->
<g id="node9" class="node">
<title>Node9</title>
<g id="a_node9"><a xlink:href="tools_2log_2log_8h.html#a6b9befdac8e9ce2119f15cc9e4159505" target="_top" xlink:title=" ">
<polygon fill="white" stroke="black" points="106,-38.5 106,-57.5 162,-57.5 162,-38.5 106,-38.5"/>
<text text-anchor="middle" x="134" y="-45.5" font-family="Helvetica,sans-Serif" font-size="10.00">printLog</text>
</a>
</g>
</g>
<!-- Node5&#45;&gt;Node9 -->
<g id="edge9" class="edge">
<title>Node5&#45;&gt;Node9</title>
<path fill="none" stroke="midnightblue" d="M223.12,-73.56C203.11,-67.76 179.88,-61.02 162.3,-55.92"/>
<polygon fill="midnightblue" stroke="midnightblue" points="222.36,-76.99 232.94,-76.41 224.31,-70.26 222.36,-76.99"/>
</g>
<!-- Node7 -->
<g id="node7" class="node">
<title>Node7</title>
<g id="a_node7"><a xlink:href="tools_2log_2log_8cpp.html#a0ddf1224851353fc92bfbff6f499fa97" target="_top" xlink:title=" ">
<polygon fill="white" stroke="black" points="0,-76.5 0,-95.5 41,-95.5 41,-76.5 0,-76.5"/>
<text text-anchor="middle" x="20.5" y="-83.5" font-family="Helvetica,sans-Serif" font-size="10.00">main</text>
</a>
</g>
</g>
<!-- Node6&#45;&gt;Node7 -->
<g id="edge6" class="edge">
<title>Node6&#45;&gt;Node7</title>
<path fill="none" stroke="midnightblue" d="M94.91,-111.09C88.92,-109.06 82.79,-106.97 77,-105 65.05,-100.93 51.65,-96.34 41.02,-92.7"/>
<polygon fill="midnightblue" stroke="midnightblue" points="94.2,-114.55 104.79,-114.45 96.45,-107.92 94.2,-114.55"/>
</g>
<!-- Node8&#45;&gt;Node7 -->
<g id="edge8" class="edge">
<title>Node8&#45;&gt;Node7</title>
<path fill="none" stroke="midnightblue" d="M71.66,-86C60.63,-86 49.89,-86 41.21,-86"/>
<polygon fill="midnightblue" stroke="midnightblue" points="71.82,-89.5 81.82,-86 71.82,-82.5 71.82,-89.5"/>
</g>
<!-- Node9&#45;&gt;Node7 -->
<g id="edge10" class="edge">
<title>Node9&#45;&gt;Node7</title>
<path fill="none" stroke="midnightblue" d="M96.14,-60.49C89.76,-62.66 83.19,-64.89 77,-67 65.05,-71.07 51.65,-75.66 41.02,-79.3"/>
<polygon fill="midnightblue" stroke="midnightblue" points="97.59,-63.69 105.94,-57.17 95.34,-57.07 97.59,-63.69"/>
</g>
<!-- Node11 -->
<g id="node11" class="node">
<title>Node11</title>
<g id="a_node11"><a xlink:href="class_config.html#acb4d35f12547cc3386078635fe051266" target="_top" xlink:title=" ">
<polygon fill="white" stroke="black" points="98,-0.5 98,-19.5 170,-19.5 170,-0.5 98,-0.5"/>
<text text-anchor="middle" x="134" y="-7.5" font-family="Helvetica,sans-Serif" font-size="10.00">Config::edit</text>
</a>
</g>
</g>
<!-- Node10&#45;&gt;Node11 -->
<g id="edge12" class="edge">
<title>Node10&#45;&gt;Node11</title>
<path fill="none" stroke="midnightblue" d="M217.7,-21.99C202.02,-19.72 184.93,-17.24 170.37,-15.13"/>
<polygon fill="midnightblue" stroke="midnightblue" points="217.36,-25.48 227.76,-23.45 218.36,-18.55 217.36,-25.48"/>
</g>
<!-- Node12 -->
<g id="node12" class="node">
<title>Node12</title>
<g id="a_node12"><a xlink:href="src_2main_8cpp.html#a0ddf1224851353fc92bfbff6f499fa97" target="_top" xlink:title=" ">
<polygon fill="white" stroke="black" points="0,-0.5 0,-19.5 41,-19.5 41,-0.5 0,-0.5"/>
<text text-anchor="middle" x="20.5" y="-7.5" font-family="Helvetica,sans-Serif" font-size="10.00">main</text>
</a>
</g>
</g>
<!-- Node11&#45;&gt;Node12 -->
<g id="edge13" class="edge">
<title>Node11&#45;&gt;Node12</title>
<path fill="none" stroke="midnightblue" d="M87.39,-10C71.33,-10 54.11,-10 41.31,-10"/>
<polygon fill="midnightblue" stroke="midnightblue" points="87.72,-13.5 97.72,-10 87.72,-6.5 87.72,-13.5"/>
</g>
</g>
</svg>
