<?xml version="1.0" encoding="UTF-8" standalone="no"?>
<!DOCTYPE svg PUBLIC "-//W3C//DTD SVG 1.1//EN"
 "http://www.w3.org/Graphics/SVG/1.1/DTD/svg11.dtd">
<!-- Generated by graphviz version 2.43.0 (0)
 -->
<!-- Title: appDir Pages: 1 -->
<!--zoomable 585 -->
<svg id="main" version="1.1" xmlns="http://www.w3.org/2000/svg" xmlns:xlink="http://www.w3.org/1999/xlink" xml:space="preserve" onload="init(evt)">
<style type="text/css"><![CDATA[
.edge:hover path { stroke: red; }
.edge:hover polygon { stroke: red; fill: red; }
]]></style>
<script type="text/javascript"><![CDATA[
var edges = document.getElementsByTagName('g');
if (edges && edges.length) {
  for (var i=0;i<edges.length;i++) {
    if (edges[i].id.substr(0,4)=='edge') {
      edges[i].setAttribute('class','edge');
    }
  }
}
]]></script>
        <defs>
                <circle id="rim" cx="0" cy="0" r="7"/>
                <circle id="rim2" cx="0" cy="0" r="3.5"/>
                <g id="zoomPlus">
                        <use xlink:href="#rim" fill="#404040">
                                <set attributeName="fill" to="#808080" begin="zoomplus.mouseover" end="zoomplus.mouseout"/>
                        </use>
                        <path d="M-4,0h8M0,-4v8" fill="none" stroke="white" stroke-width="1.5" pointer-events="none"/>
                </g>
                <g id="zoomMin">
                        <use xlink:href="#rim" fill="#404040">
                                <set attributeName="fill" to="#808080" begin="zoomminus.mouseover" end="zoomminus.mouseout"/>
                        </use>
                        <path d="M-4,0h8" fill="none" stroke="white" stroke-width="1.5" pointer-events="none"/>
                </g>
                <g id="dirArrow">
                        <path fill="none" stroke="white" stroke-width="1.5" d="M0,-3.0v7 M-2.5,-0.5L0,-3.0L2.5,-0.5"/>
                </g>
               <g id="resetDef">
                       <use xlink:href="#rim2" fill="#404040">
                               <set attributeName="fill" to="#808080" begin="reset.mouseover" end="reset.mouseout"/>
                       </use>
               </g>
        </defs>

<script type="text/javascript">
var viewWidth = 886;
var viewHeight = 585;
var sectionId = 'dynsection-2';
</script>
<script xlink:href="svgpan.js"/>
<svg id="graph" class="graph">
<g id="viewport">
<title>appDir</title>
<polygon fill="white" stroke="transparent" points="-4,4 -4,-581.26 882,-581.26 882,4 -4,4"/>
<!-- Node1 -->
<g id="node1" class="node">
<title>Node1</title>
<g id="a_node1"><a xlink:title=" ">
<polygon fill="#bfbfbf" stroke="black" points="829,-336.01 829,-355.01 878,-355.01 878,-336.01 829,-336.01"/>
<text text-anchor="middle" x="853.5" y="-343.01" font-family="Helvetica,sans-Serif" font-size="10.00">appDir</text>
</a>
</g>
</g>
<!-- Node2 -->
<g id="node2" class="node">
<title>Node2</title>
<g id="a_node2"><a xlink:href="class_export.html#a6000afae41f65b45b6a1e11447c1789c" target="_top" xlink:title=" ">
<polygon fill="white" stroke="black" points="312.5,-526.01 312.5,-545.01 419.5,-545.01 419.5,-526.01 312.5,-526.01"/>
<text text-anchor="middle" x="366" y="-533.01" font-family="Helvetica,sans-Serif" font-size="10.00">Export::_beginning</text>
</a>
</g>
</g>
<!-- Node1&#45;&gt;Node2 -->
<g id="edge1" class="edge">
<title>Node1&#45;&gt;Node2</title>
<path fill="none" stroke="midnightblue" d="M852.64,-365.72C851.68,-403.88 843.52,-486.04 793,-523.51 671.18,-613.87 471.29,-567.21 396.48,-545.03"/>
<polygon fill="midnightblue" stroke="midnightblue" points="856.14,-365.43 852.75,-355.39 849.14,-365.36 856.14,-365.43"/>
</g>
<!-- Node5 -->
<g id="node5" class="node">
<title>Node5</title>
<g id="a_node5"><a xlink:href="src_2main_8cpp.html#a0ddf1224851353fc92bfbff6f499fa97" target="_top" xlink:title=" ">
<polygon fill="white" stroke="black" points="34.5,-127.01 34.5,-146.01 75.5,-146.01 75.5,-127.01 34.5,-127.01"/>
<text text-anchor="middle" x="55" y="-134.01" font-family="Helvetica,sans-Serif" font-size="10.00">main</text>
</a>
</g>
</g>
<!-- Node1&#45;&gt;Node5 -->
<g id="edge27" class="edge">
<title>Node1&#45;&gt;Node5</title>
<path fill="none" stroke="midnightblue" d="M818.89,-342.19C760.85,-336.74 638.03,-326.51 534,-326.51 534,-326.51 534,-326.51 365,-326.51 225.82,-326.51 96.66,-184.92 63.94,-146.2"/>
<polygon fill="midnightblue" stroke="midnightblue" points="818.67,-345.68 828.95,-343.15 819.33,-338.71 818.67,-345.68"/>
</g>
<!-- Node6 -->
<g id="node6" class="node">
<title>Node6</title>
<g id="a_node6"><a xlink:href="class_export.html#a966a54f05ada435d6d1ce6e4a9750f41" target="_top" xlink:title=" ">
<polygon fill="white" stroke="black" points="626,-469.01 626,-488.01 793,-488.01 793,-469.01 626,-469.01"/>
<text text-anchor="middle" x="709.5" y="-476.01" font-family="Helvetica,sans-Serif" font-size="10.00">Export::_checkALGdependency</text>
</a>
</g>
</g>
<!-- Node1&#45;&gt;Node6 -->
<g id="edge5" class="edge">
<title>Node1&#45;&gt;Node6</title>
<path fill="none" stroke="midnightblue" d="M847.01,-364.94C839.09,-389.42 822.13,-431.1 793,-454.51 785.09,-460.87 775.57,-465.54 765.84,-468.98"/>
<polygon fill="midnightblue" stroke="midnightblue" points="850.37,-365.91 849.94,-355.32 843.68,-363.87 850.37,-365.91"/>
</g>
<!-- Node7 -->
<g id="node7" class="node">
<title>Node7</title>
<g id="a_node7"><a xlink:href="class_export.html#a833aa02973f6b5c1f3e536e8646cf1ac" target="_top" xlink:title=" ">
<polygon fill="white" stroke="black" points="483,-469.01 483,-488.01 583,-488.01 583,-469.01 483,-469.01"/>
<text text-anchor="middle" x="533" y="-476.01" font-family="Helvetica,sans-Serif" font-size="10.00">Export::_loadALG</text>
</a>
</g>
</g>
<!-- Node1&#45;&gt;Node7 -->
<g id="edge18" class="edge">
<title>Node1&#45;&gt;Node7</title>
<path fill="none" stroke="midnightblue" d="M851.48,-365.27C848.55,-399.1 837.16,-467.38 793,-497.51 718.52,-548.34 602.33,-508.15 555.07,-488.14"/>
<polygon fill="midnightblue" stroke="midnightblue" points="854.98,-365.44 852.19,-355.22 848,-364.95 854.98,-365.44"/>
</g>
<!-- Node9 -->
<g id="node9" class="node">
<title>Node9</title>
<g id="a_node9"><a xlink:href="class_export.html#af64597af0c0b4cf569f96216bcd23b2c" target="_top" xlink:title=" ">
<polygon fill="white" stroke="black" points="481,-431.01 481,-450.01 585,-450.01 585,-431.01 481,-431.01"/>
<text text-anchor="middle" x="533" y="-438.01" font-family="Helvetica,sans-Serif" font-size="10.00">Export::_reporting</text>
</a>
</g>
</g>
<!-- Node1&#45;&gt;Node9 -->
<g id="edge19" class="edge">
<title>Node1&#45;&gt;Node9</title>
<path fill="none" stroke="midnightblue" d="M843.71,-364.13C834.05,-382.26 816.7,-408.87 793,-421.51 727.76,-456.31 639.81,-454.32 585.03,-448.4"/>
<polygon fill="midnightblue" stroke="midnightblue" points="846.9,-365.58 848.28,-355.08 840.65,-362.43 846.9,-365.58"/>
</g>
<!-- Node10 -->
<g id="node10" class="node">
<title>Node10</title>
<g id="a_node10"><a xlink:href="class_export.html#a59ba705b2369f21006ec7d7b7f3a4513" target="_top" xlink:title="Generate RIS reflection matrices.">
<polygon fill="white" stroke="black" points="651.5,-393.01 651.5,-412.01 767.5,-412.01 767.5,-393.01 651.5,-393.01"/>
<text text-anchor="middle" x="709.5" y="-400.01" font-family="Helvetica,sans-Serif" font-size="10.00">Export::_generateBF</text>
</a>
</g>
</g>
<!-- Node1&#45;&gt;Node10 -->
<g id="edge11" class="edge">
<title>Node1&#45;&gt;Node10</title>
<path fill="none" stroke="midnightblue" d="M828.61,-360.37C817.98,-366.55 805.14,-373.45 793,-378.51 779.37,-384.19 763.94,-389.07 750.15,-392.91"/>
<polygon fill="midnightblue" stroke="midnightblue" points="830.52,-363.31 837.32,-355.18 826.93,-357.29 830.52,-363.31"/>
</g>
<!-- Node12 -->
<g id="node12" class="node">
<title>Node12</title>
<g id="a_node12"><a xlink:href="class_export.html#ad7268f886ac4826f4b6ea738e423e520" target="_top" xlink:title=" ">
<polygon fill="white" stroke="black" points="292,-355.01 292,-374.01 440,-374.01 440,-355.01 292,-355.01"/>
<text text-anchor="middle" x="366" y="-362.01" font-family="Helvetica,sans-Serif" font-size="10.00">Export::_generateChannels</text>
</a>
</g>
</g>
<!-- Node1&#45;&gt;Node12 -->
<g id="edge14" class="edge">
<title>Node1&#45;&gt;Node12</title>
<path fill="none" stroke="midnightblue" d="M818.53,-346.84C740.48,-349.9 546.92,-357.47 440.32,-361.64"/>
<polygon fill="midnightblue" stroke="midnightblue" points="818.9,-350.33 828.75,-346.44 818.63,-343.34 818.9,-350.33"/>
</g>
<!-- Node13 -->
<g id="node13" class="node">
<title>Node13</title>
<g id="a_node13"><a xlink:href="class_config.html#a2f8720e9953fb42b8304089c40fe896e" target="_top" xlink:title=" ">
<polygon fill="white" stroke="black" points="669.5,-279.01 669.5,-298.01 749.5,-298.01 749.5,-279.01 669.5,-279.01"/>
<text text-anchor="middle" x="709.5" y="-286.01" font-family="Helvetica,sans-Serif" font-size="10.00">Config::_load</text>
</a>
</g>
</g>
<!-- Node1&#45;&gt;Node13 -->
<g id="edge16" class="edge">
<title>Node1&#45;&gt;Node13</title>
<path fill="none" stroke="midnightblue" d="M828.61,-330.66C817.98,-324.48 805.14,-317.57 793,-312.51 779.23,-306.78 763.63,-301.86 749.73,-298"/>
<polygon fill="midnightblue" stroke="midnightblue" points="826.93,-333.73 837.32,-335.85 830.52,-327.72 826.93,-333.73"/>
</g>
<!-- Node15 -->
<g id="node15" class="node">
<title>Node15</title>
<g id="a_node15"><a xlink:href="tools_2log_2log_8h.html#a5d2420c3e47ebff9cfe3c6004f0e62f7" target="_top" xlink:title=" ">
<polygon fill="white" stroke="black" points="670.5,-222.01 670.5,-241.01 748.5,-241.01 748.5,-222.01 670.5,-222.01"/>
<text text-anchor="middle" x="709.5" y="-229.01" font-family="Helvetica,sans-Serif" font-size="10.00">logFileName</text>
</a>
</g>
</g>
<!-- Node1&#45;&gt;Node15 -->
<g id="edge20" class="edge">
<title>Node1&#45;&gt;Node15</title>
<path fill="none" stroke="midnightblue" d="M841.64,-327.04C831,-310.24 813.44,-285.67 793,-269.51 777.17,-256.99 756.54,-247.49 739.88,-241.12"/>
<polygon fill="midnightblue" stroke="midnightblue" points="838.86,-329.21 847.07,-335.91 844.83,-325.55 838.86,-329.21"/>
</g>
<!-- Node20 -->
<g id="node20" class="node">
<title>Node20</title>
<g id="a_node20"><a xlink:href="class_simulate.html#a03ef6895241e8accb07491e98bbfcf0c" target="_top" xlink:title=" ">
<polygon fill="white" stroke="black" points="655,-89.01 655,-108.01 764,-108.01 764,-89.01 655,-89.01"/>
<text text-anchor="middle" x="709.5" y="-96.01" font-family="Helvetica,sans-Serif" font-size="10.00">Simulate::simulate</text>
</a>
</g>
</g>
<!-- Node1&#45;&gt;Node20 -->
<g id="edge28" class="edge">
<title>Node1&#45;&gt;Node20</title>
<path fill="none" stroke="midnightblue" d="M852.16,-325.77C850.44,-285.45 841.13,-192.7 793,-136.51 781.31,-122.86 763.67,-113.83 747.7,-108.02"/>
<polygon fill="midnightblue" stroke="midnightblue" points="848.66,-326 852.47,-335.89 855.66,-325.78 848.66,-326"/>
</g>
<!-- Node22 -->
<g id="node22" class="node">
<title>Node22</title>
<g id="a_node22"><a xlink:href="class_style.html#a06fd4016b36d2fa2e46c8c092701c7ea" target="_top" xlink:title="Call the astyle child process to style the generated C++ code.">
<polygon fill="white" stroke="black" points="674,-13.01 674,-32.01 745,-32.01 745,-13.01 674,-13.01"/>
<text text-anchor="middle" x="709.5" y="-20.01" font-family="Helvetica,sans-Serif" font-size="10.00">Style::style</text>
</a>
</g>
</g>
<!-- Node1&#45;&gt;Node22 -->
<g id="edge31" class="edge">
<title>Node1&#45;&gt;Node22</title>
<path fill="none" stroke="midnightblue" d="M852.81,-325.8C852.61,-278.95 846.52,-158.9 793,-79.51 778.11,-57.43 751.55,-41.38 732.59,-32.04"/>
<polygon fill="midnightblue" stroke="midnightblue" points="849.31,-325.82 852.76,-335.84 856.31,-325.85 849.31,-325.82"/>
</g>
<!-- Node24 -->
<g id="node24" class="node">
<title>Node24</title>
<g id="a_node24"><a xlink:href="class_config.html#a4a54bc469b3d615089ee1df7b549c60b" target="_top" xlink:title=" ">
<polygon fill="white" stroke="black" points="670.5,-146.01 670.5,-165.01 748.5,-165.01 748.5,-146.01 670.5,-146.01"/>
<text text-anchor="middle" x="709.5" y="-153.01" font-family="Helvetica,sans-Serif" font-size="10.00">Config::write</text>
</a>
</g>
</g>
<!-- Node1&#45;&gt;Node24 -->
<g id="edge34" class="edge">
<title>Node1&#45;&gt;Node24</title>
<path fill="none" stroke="midnightblue" d="M847.47,-326.2C839.54,-298.61 821.98,-247.38 793,-212.51 775.53,-191.49 748.46,-174.82 730.13,-165.06"/>
<polygon fill="midnightblue" stroke="midnightblue" points="844.1,-327.14 850.13,-335.85 850.85,-325.28 844.1,-327.14"/>
</g>
<!-- Node3 -->
<g id="node3" class="node">
<title>Node3</title>
<g id="a_node3"><a xlink:href="class_export.html#affc37d1d677a83d3e5d36a4e37b7a72b" target="_top" xlink:title=" ">
<polygon fill="white" stroke="black" points="146,-412.01 146,-431.01 256,-431.01 256,-412.01 146,-412.01"/>
<text text-anchor="middle" x="201" y="-419.01" font-family="Helvetica,sans-Serif" font-size="10.00">Export::exportCode</text>
</a>
</g>
</g>
<!-- Node2&#45;&gt;Node3 -->
<g id="edge2" class="edge">
<title>Node2&#45;&gt;Node3</title>
<path fill="none" stroke="midnightblue" d="M334.26,-521.4C320.88,-514.79 305.27,-506.41 292,-497.51 260.74,-476.56 227.92,-446.47 211.94,-431.19"/>
<polygon fill="midnightblue" stroke="midnightblue" points="333,-524.68 343.53,-525.89 336.05,-518.38 333,-524.68"/>
</g>
<!-- Node4 -->
<g id="node4" class="node">
<title>Node4</title>
<g id="a_node4"><a xlink:href="class_export.html#a94fab568af6ddd6447efca74e205e081" target="_top" xlink:title=" ">
<polygon fill="white" stroke="black" points="0,-412.01 0,-431.01 110,-431.01 110,-412.01 0,-412.01"/>
<text text-anchor="middle" x="55" y="-419.01" font-family="Helvetica,sans-Serif" font-size="10.00">Export::exportCode</text>
</a>
</g>
</g>
<!-- Node3&#45;&gt;Node4 -->
<g id="edge3" class="edge">
<title>Node3&#45;&gt;Node4</title>
<path fill="none" stroke="midnightblue" d="M135.73,-421.51C127.25,-421.51 118.62,-421.51 110.33,-421.51"/>
<polygon fill="midnightblue" stroke="midnightblue" points="135.97,-425.01 145.97,-421.51 135.97,-418.01 135.97,-425.01"/>
</g>
<!-- Node3&#45;&gt;Node5 -->
<g id="edge4" class="edge">
<title>Node3&#45;&gt;Node5</title>
<path fill="none" stroke="midnightblue" d="M186.65,-403.47C175.11,-387.41 158.37,-363.06 146,-340.51 106.53,-268.56 70.71,-175.88 59.56,-146.14"/>
<polygon fill="midnightblue" stroke="midnightblue" points="184.07,-405.86 192.78,-411.88 189.72,-401.74 184.07,-405.86"/>
</g>
<!-- Node6&#45;&gt;Node7 -->
<g id="edge6" class="edge">
<title>Node6&#45;&gt;Node7</title>
<path fill="none" stroke="midnightblue" d="M615.56,-478.51C604.37,-478.51 593.31,-478.51 583.11,-478.51"/>
<polygon fill="midnightblue" stroke="midnightblue" points="615.85,-482.01 625.85,-478.51 615.85,-475.01 615.85,-482.01"/>
</g>
<!-- Node6&#45;&gt;Node9 -->
<g id="edge9" class="edge">
<title>Node6&#45;&gt;Node9</title>
<path fill="none" stroke="midnightblue" d="M654.53,-466.76C629.86,-461.39 601.01,-455.11 577.72,-450.03"/>
<polygon fill="midnightblue" stroke="midnightblue" points="653.95,-470.22 664.47,-468.92 655.44,-463.38 653.95,-470.22"/>
</g>
<!-- Node8 -->
<g id="node8" class="node">
<title>Node8</title>
<g id="a_node8"><a xlink:href="class_export.html#a89d3ae54dd2261cf35be148011b79fe4" target="_top" xlink:title=" ">
<polygon fill="white" stroke="black" points="310,-469.01 310,-488.01 422,-488.01 422,-469.01 310,-469.01"/>
<text text-anchor="middle" x="366" y="-476.01" font-family="Helvetica,sans-Serif" font-size="10.00">Export::_algorithms</text>
</a>
</g>
</g>
<!-- Node7&#45;&gt;Node8 -->
<g id="edge7" class="edge">
<title>Node7&#45;&gt;Node8</title>
<path fill="none" stroke="midnightblue" d="M472.87,-478.51C456.36,-478.51 438.5,-478.51 422.23,-478.51"/>
<polygon fill="midnightblue" stroke="midnightblue" points="472.94,-482.01 482.94,-478.51 472.94,-475.01 472.94,-482.01"/>
</g>
<!-- Node8&#45;&gt;Node3 -->
<g id="edge8" class="edge">
<title>Node8&#45;&gt;Node3</title>
<path fill="none" stroke="midnightblue" d="M325.42,-465.77C314.56,-462.2 302.81,-458.27 292,-454.51 270.15,-446.92 245.49,-437.84 227.52,-431.13"/>
<polygon fill="midnightblue" stroke="midnightblue" points="324.5,-469.15 335.09,-468.93 326.67,-462.5 324.5,-469.15"/>
</g>
<!-- Node9&#45;&gt;Node3 -->
<g id="edge10" class="edge">
<title>Node9&#45;&gt;Node3</title>
<path fill="none" stroke="midnightblue" d="M470.44,-436.97C408.81,-433.42 314.91,-428.01 256.06,-424.63"/>
<polygon fill="midnightblue" stroke="midnightblue" points="470.61,-440.49 480.8,-437.57 471.02,-433.5 470.61,-440.49"/>
</g>
<!-- Node11 -->
<g id="node11" class="node">
<title>Node11</title>
<g id="a_node11"><a xlink:href="class_export.html#a26fa49d9882a342d011ba715e0c14109" target="_top" xlink:title=" ">
<polygon fill="white" stroke="black" points="314,-393.01 314,-412.01 418,-412.01 418,-393.01 314,-393.01"/>
<text text-anchor="middle" x="366" y="-400.01" font-family="Helvetica,sans-Serif" font-size="10.00">Export::_sounding</text>
</a>
</g>
</g>
<!-- Node10&#45;&gt;Node11 -->
<g id="edge12" class="edge">
<title>Node10&#45;&gt;Node11</title>
<path fill="none" stroke="midnightblue" d="M641.12,-402.51C575.61,-402.51 477.56,-402.51 418.2,-402.51"/>
<polygon fill="midnightblue" stroke="midnightblue" points="641.34,-406.01 651.34,-402.51 641.34,-399.01 641.34,-406.01"/>
</g>
<!-- Node11&#45;&gt;Node3 -->
<g id="edge13" class="edge">
<title>Node11&#45;&gt;Node3</title>
<path fill="none" stroke="midnightblue" d="M303.75,-409.65C288.07,-411.48 271.33,-413.43 256.05,-415.21"/>
<polygon fill="midnightblue" stroke="midnightblue" points="304.35,-413.11 313.87,-408.47 303.53,-406.15 304.35,-413.11"/>
</g>
<!-- Node12&#45;&gt;Node3 -->
<g id="edge15" class="edge">
<title>Node12&#45;&gt;Node3</title>
<path fill="none" stroke="midnightblue" d="M314.34,-376.68C306.8,-378.79 299.16,-381.09 292,-383.51 267.59,-391.8 240.44,-403.64 222.4,-411.9"/>
<polygon fill="midnightblue" stroke="midnightblue" points="315.41,-380.02 324.15,-374.03 313.58,-373.26 315.41,-380.02"/>
</g>
<!-- Node14 -->
<g id="node14" class="node">
<title>Node14</title>
<g id="a_node14"><a xlink:href="class_config.html#abd0c571c116924871e30444b192b792a" target="_top" xlink:title="Construct a new Config object.">
<polygon fill="white" stroke="black" points="491,-279.01 491,-298.01 575,-298.01 575,-279.01 491,-279.01"/>
<text text-anchor="middle" x="533" y="-286.01" font-family="Helvetica,sans-Serif" font-size="10.00">Config::Config</text>
</a>
</g>
</g>
<!-- Node13&#45;&gt;Node14 -->
<g id="edge17" class="edge">
<title>Node13&#45;&gt;Node14</title>
<path fill="none" stroke="midnightblue" d="M659.12,-288.51C632.6,-288.51 600.3,-288.51 575.16,-288.51"/>
<polygon fill="midnightblue" stroke="midnightblue" points="659.34,-292.01 669.34,-288.51 659.34,-285.01 659.34,-292.01"/>
</g>
<!-- Node16 -->
<g id="node16" class="node">
<title>Node16</title>
<g id="a_node16"><a xlink:href="tools_2log_2log_8h.html#ac630e3419ab42e9d249a4171f99f12e6" target="_top" xlink:title=" ">
<polygon fill="white" stroke="black" points="476,-241.01 476,-260.01 590,-260.01 590,-241.01 476,-241.01"/>
<text text-anchor="middle" x="533" y="-248.01" font-family="Helvetica,sans-Serif" font-size="10.00">copyLogToClipboard</text>
</a>
</g>
</g>
<!-- Node15&#45;&gt;Node16 -->
<g id="edge21" class="edge">
<title>Node15&#45;&gt;Node16</title>
<path fill="none" stroke="midnightblue" d="M660.21,-236.77C638.48,-239.14 612.68,-241.95 590.1,-244.41"/>
<polygon fill="midnightblue" stroke="midnightblue" points="660.64,-240.25 670.21,-235.68 659.89,-233.29 660.64,-240.25"/>
</g>
<!-- Node18 -->
<g id="node18" class="node">
<title>Node18</title>
<g id="a_node18"><a xlink:href="tools_2log_2log_8h.html#a9e3a1b6a9042b139e9d37ad8c8e6bcfe" target="_top" xlink:title="Get the log file name on the local machine.">
<polygon fill="white" stroke="black" points="481,-203.01 481,-222.01 585,-222.01 585,-203.01 481,-203.01"/>
<text text-anchor="middle" x="533" y="-210.01" font-family="Helvetica,sans-Serif" font-size="10.00">localLogFileName</text>
</a>
</g>
</g>
<!-- Node15&#45;&gt;Node18 -->
<g id="edge23" class="edge">
<title>Node15&#45;&gt;Node18</title>
<path fill="none" stroke="midnightblue" d="M660.18,-226.25C636.84,-223.71 608.82,-220.66 585.12,-218.08"/>
<polygon fill="midnightblue" stroke="midnightblue" points="659.89,-229.74 670.21,-227.34 660.64,-222.78 659.89,-229.74"/>
</g>
<!-- Node19 -->
<g id="node19" class="node">
<title>Node19</title>
<g id="a_node19"><a xlink:href="tools_2log_2log_8h.html#a6b9befdac8e9ce2119f15cc9e4159505" target="_top" xlink:title=" ">
<polygon fill="white" stroke="black" points="505,-165.01 505,-184.01 561,-184.01 561,-165.01 505,-165.01"/>
<text text-anchor="middle" x="533" y="-172.01" font-family="Helvetica,sans-Serif" font-size="10.00">printLog</text>
</a>
</g>
</g>
<!-- Node15&#45;&gt;Node19 -->
<g id="edge25" class="edge">
<title>Node15&#45;&gt;Node19</title>
<path fill="none" stroke="midnightblue" d="M669.51,-218.78C636.51,-208 590.05,-192.82 561.01,-183.33"/>
<polygon fill="midnightblue" stroke="midnightblue" points="668.7,-222.2 679.29,-221.97 670.87,-215.54 668.7,-222.2"/>
</g>
<!-- Node17 -->
<g id="node17" class="node">
<title>Node17</title>
<g id="a_node17"><a xlink:href="tools_2log_2log_8cpp.html#a0ddf1224851353fc92bfbff6f499fa97" target="_top" xlink:title=" ">
<polygon fill="white" stroke="black" points="345.5,-203.01 345.5,-222.01 386.5,-222.01 386.5,-203.01 345.5,-203.01"/>
<text text-anchor="middle" x="366" y="-210.01" font-family="Helvetica,sans-Serif" font-size="10.00">main</text>
</a>
</g>
</g>
<!-- Node16&#45;&gt;Node17 -->
<g id="edge22" class="edge">
<title>Node16&#45;&gt;Node17</title>
<path fill="none" stroke="midnightblue" d="M480.32,-238.61C448.53,-231.29 409.6,-222.33 386.64,-217.04"/>
<polygon fill="midnightblue" stroke="midnightblue" points="479.83,-242.09 490.36,-240.92 481.4,-235.27 479.83,-242.09"/>
</g>
<!-- Node18&#45;&gt;Node17 -->
<g id="edge24" class="edge">
<title>Node18&#45;&gt;Node17</title>
<path fill="none" stroke="midnightblue" d="M470.43,-212.51C440.86,-212.51 407.44,-212.51 386.8,-212.51"/>
<polygon fill="midnightblue" stroke="midnightblue" points="470.7,-216.01 480.7,-212.51 470.7,-209.01 470.7,-216.01"/>
</g>
<!-- Node19&#45;&gt;Node17 -->
<g id="edge26" class="edge">
<title>Node19&#45;&gt;Node17</title>
<path fill="none" stroke="midnightblue" d="M494.84,-183.07C461.25,-190.81 413.12,-201.89 386.52,-208.02"/>
<polygon fill="midnightblue" stroke="midnightblue" points="495.79,-186.44 504.75,-180.79 494.22,-179.62 495.79,-186.44"/>
</g>
<!-- Node20&#45;&gt;Node5 -->
<g id="edge29" class="edge">
<title>Node20&#45;&gt;Node5</title>
<path fill="none" stroke="midnightblue" d="M650.22,-87.28C631.11,-84.1 609.72,-81.08 590,-79.51 388.78,-63.48 145.98,-115.33 75.85,-131.72"/>
<polygon fill="midnightblue" stroke="midnightblue" points="649.83,-90.76 660.28,-89 651.01,-83.86 649.83,-90.76"/>
</g>
<!-- Node21 -->
<g id="node21" class="node">
<title>Node21</title>
<g id="a_node21"><a xlink:href="class_simulate.html#a9b861e2a496da07d9377808c84c3e01b" target="_top" xlink:title=" ">
<polygon fill="white" stroke="black" points="478.5,-89.01 478.5,-108.01 587.5,-108.01 587.5,-89.01 478.5,-89.01"/>
<text text-anchor="middle" x="533" y="-96.01" font-family="Helvetica,sans-Serif" font-size="10.00">Simulate::simulate</text>
</a>
</g>
</g>
<!-- Node20&#45;&gt;Node21 -->
<g id="edge30" class="edge">
<title>Node20&#45;&gt;Node21</title>
<path fill="none" stroke="midnightblue" d="M644.52,-98.51C625.82,-98.51 605.58,-98.51 587.6,-98.51"/>
<polygon fill="midnightblue" stroke="midnightblue" points="644.72,-102.01 654.72,-98.51 644.72,-95.01 644.72,-102.01"/>
</g>
<!-- Node22&#45;&gt;Node5 -->
<g id="edge32" class="edge">
<title>Node22&#45;&gt;Node5</title>
<path fill="none" stroke="midnightblue" d="M663.87,-13.2C616.96,-4.74 541.07,5.2 476,-3.51 325.32,-23.69 288.49,-40.53 146,-93.51 120.03,-103.17 91.37,-117.55 73.52,-126.98"/>
<polygon fill="midnightblue" stroke="midnightblue" points="663.25,-16.65 673.72,-15.04 664.53,-9.77 663.25,-16.65"/>
</g>
<!-- Node23 -->
<g id="node23" class="node">
<title>Node23</title>
<g id="a_node23"><a xlink:href="class_style.html#a4202615ba5c3a3b4c1b81a53f9c62b63" target="_top" xlink:title="Call the astyle child process to style the generated C++ code.">
<polygon fill="white" stroke="black" points="497.5,-13.01 497.5,-32.01 568.5,-32.01 568.5,-13.01 497.5,-13.01"/>
<text text-anchor="middle" x="533" y="-20.01" font-family="Helvetica,sans-Serif" font-size="10.00">Style::style</text>
</a>
</g>
</g>
<!-- Node22&#45;&gt;Node23 -->
<g id="edge33" class="edge">
<title>Node22&#45;&gt;Node23</title>
<path fill="none" stroke="midnightblue" d="M663.52,-22.51C633.92,-22.51 595.75,-22.51 568.54,-22.51"/>
<polygon fill="midnightblue" stroke="midnightblue" points="663.61,-26.01 673.61,-22.51 663.61,-19.01 663.61,-26.01"/>
</g>
<!-- Node25 -->
<g id="node25" class="node">
<title>Node25</title>
<g id="a_node25"><a xlink:href="class_config.html#acb4d35f12547cc3386078635fe051266" target="_top" xlink:title=" ">
<polygon fill="white" stroke="black" points="165,-127.01 165,-146.01 237,-146.01 237,-127.01 165,-127.01"/>
<text text-anchor="middle" x="201" y="-134.01" font-family="Helvetica,sans-Serif" font-size="10.00">Config::edit</text>
</a>
</g>
</g>
<!-- Node24&#45;&gt;Node25 -->
<g id="edge35" class="edge">
<title>Node24&#45;&gt;Node25</title>
<path fill="none" stroke="midnightblue" d="M660.17,-153.7C558.74,-149.9 325.76,-141.16 237.11,-137.83"/>
<polygon fill="midnightblue" stroke="midnightblue" points="660.31,-157.21 670.43,-154.09 660.57,-150.21 660.31,-157.21"/>
</g>
<!-- Node25&#45;&gt;Node5 -->
<g id="edge36" class="edge">
<title>Node25&#45;&gt;Node5</title>
<path fill="none" stroke="midnightblue" d="M154.56,-136.51C128.08,-136.51 96.01,-136.51 75.81,-136.51"/>
<polygon fill="midnightblue" stroke="midnightblue" points="154.77,-140.01 164.77,-136.51 154.77,-133.01 154.77,-140.01"/>
</g>
</g>
</svg>
        <g id="navigator" transform="translate(0 0)" fill="#404254">
                <rect fill="#f2f5e9" fill-opacity="0.5" stroke="#606060" stroke-width=".5" x="0" y="0" width="60" height="60"/>
                <use id="zoomplus" xlink:href="#zoomPlus" x="17" y="9" onmousedown="handleZoom(evt,'in')"/>
                <use id="zoomminus" xlink:href="#zoomMin" x="42" y="9" onmousedown="handleZoom(evt,'out')"/>
                <use id="reset" xlink:href="#resetDef" x="30" y="36" onmousedown="handleReset()"/>
                <g id="arrowUp" xlink:href="#dirArrow" transform="translate(30 24)" onmousedown="handlePan(0,-1)">
                  <use xlink:href="#rim" fill="#404040">
                        <set attributeName="fill" to="#808080" begin="arrowUp.mouseover" end="arrowUp.mouseout"/>
                  </use>
                  <path fill="none" stroke="white" stroke-width="1.5" d="M0,-3.0v7 M-2.5,-0.5L0,-3.0L2.5,-0.5"/>
                </g>
                <g id="arrowRight" xlink:href="#dirArrow" transform="rotate(90) translate(36 -43)" onmousedown="handlePan(1,0)">
                  <use xlink:href="#rim" fill="#404040">
                        <set attributeName="fill" to="#808080" begin="arrowRight.mouseover" end="arrowRight.mouseout"/>
                  </use>
                  <path fill="none" stroke="white" stroke-width="1.5" d="M0,-3.0v7 M-2.5,-0.5L0,-3.0L2.5,-0.5"/>
                </g>
                <g id="arrowDown" xlink:href="#dirArrow" transform="rotate(180) translate(-30 -48)" onmousedown="handlePan(0,1)">
                  <use xlink:href="#rim" fill="#404040">
                        <set attributeName="fill" to="#808080" begin="arrowDown.mouseover" end="arrowDown.mouseout"/>
                  </use>
                  <path fill="none" stroke="white" stroke-width="1.5" d="M0,-3.0v7 M-2.5,-0.5L0,-3.0L2.5,-0.5"/>
                </g>
                <g id="arrowLeft" xlink:href="#dirArrow" transform="rotate(270) translate(-36 17)" onmousedown="handlePan(-1,0)">
                  <use xlink:href="#rim" fill="#404040">
                        <set attributeName="fill" to="#808080" begin="arrowLeft.mouseover" end="arrowLeft.mouseout"/>
                  </use>
                  <path fill="none" stroke="white" stroke-width="1.5" d="M0,-3.0v7 M-2.5,-0.5L0,-3.0L2.5,-0.5"/>
                </g>
        </g>
        <svg viewBox="0 0 15 15" width="100%" height="30px" preserveAspectRatio="xMaxYMin meet">
         <g id="arrow_out" transform="scale(0.3 0.3)">
          <a xlink:href="utils_8h_a49dc116689f1a4202be4d3f0743b1f70_icgraph_org.svg" target="_base">
           <rect id="button" ry="5" rx="5" y="6" x="6" height="38" width="38"
                fill="#f2f5e9" fill-opacity="0.5" stroke="#606060" stroke-width="1.0"/>
           <path id="arrow"
             d="M 11.500037,31.436501 C 11.940474,20.09759 22.043105,11.32322 32.158766,21.979434 L 37.068811,17.246167 C 37.068811,17.246167 37.088388,32 37.088388,32 L 22.160133,31.978069 C 22.160133,31.978069 26.997745,27.140456 26.997745,27.140456 C 18.528582,18.264221 13.291696,25.230495 11.500037,31.436501 z"
             style="fill:#404040;"/>
          </a>
         </g>
        </svg>
</svg>
