<?xml version="1.0" encoding="UTF-8" standalone="no"?>
<!DOCTYPE svg PUBLIC "-//W3C//DTD SVG 1.1//EN"
 "http://www.w3.org/Graphics/SVG/1.1/DTD/svg11.dtd">
<!-- Generated by graphviz version 2.43.0 (0)
 -->
<!-- Title: appDir Pages: 1 -->
<svg width="847pt" height="567pt"
 viewBox="0.00 0.00 847.00 566.93" xmlns="http://www.w3.org/2000/svg" xmlns:xlink="http://www.w3.org/1999/xlink">
<g id="graph0" class="graph" transform="scale(1 1) rotate(0) translate(4 562.93)">
<title>appDir</title>
<polygon fill="white" stroke="transparent" points="-4,4 -4,-562.93 843,-562.93 843,4 -4,4"/>
<!-- Node1 -->
<g id="node1" class="node">
<title>Node1</title>
<g id="a_node1"><a xlink:title=" ">
<polygon fill="#bfbfbf" stroke="black" points="790,-361.5 790,-380.5 839,-380.5 839,-361.5 790,-361.5"/>
<text text-anchor="middle" x="814.5" y="-368.5" font-family="Helvetica,sans-Serif" font-size="10.00">appDir</text>
</a>
</g>
</g>
<!-- Node2 -->
<g id="node2" class="node">
<title>Node2</title>
<g id="a_node2"><a xlink:href="class_export.html#a6000afae41f65b45b6a1e11447c1789c" target="_top" xlink:title=" ">
<polygon fill="white" stroke="black" points="295.5,-513.5 295.5,-532.5 402.5,-532.5 402.5,-513.5 295.5,-513.5"/>
<text text-anchor="middle" x="349" y="-520.5" font-family="Helvetica,sans-Serif" font-size="10.00">Export::_beginning</text>
</a>
</g>
</g>
<!-- Node1&#45;&gt;Node2 -->
<g id="edge1" class="edge">
<title>Node1&#45;&gt;Node2</title>
<path fill="none" stroke="midnightblue" d="M811.58,-390.7C807.35,-422.05 794.15,-482.57 754,-510 637.67,-589.46 455.35,-552.29 382.08,-532.55"/>
<polygon fill="midnightblue" stroke="midnightblue" points="815.08,-390.92 812.76,-380.58 808.12,-390.1 815.08,-390.92"/>
</g>
<!-- Node5 -->
<g id="node5" class="node">
<title>Node5</title>
<g id="a_node5"><a xlink:href="src_2main_8cpp.html#a0ddf1224851353fc92bfbff6f499fa97" target="_top" xlink:title=" ">
<polygon fill="white" stroke="black" points="34.5,-152.5 34.5,-171.5 75.5,-171.5 75.5,-152.5 34.5,-152.5"/>
<text text-anchor="middle" x="55" y="-159.5" font-family="Helvetica,sans-Serif" font-size="10.00">main</text>
</a>
</g>
</g>
<!-- Node1&#45;&gt;Node5 -->
<g id="edge31" class="edge">
<title>Node1&#45;&gt;Node5</title>
<path fill="none" stroke="midnightblue" d="M794.04,-355.07C782.99,-346.96 768.5,-337.82 754,-333 645.53,-296.92 611.81,-314 497.5,-314 497.5,-314 497.5,-314 348,-314 254.72,-314 225.83,-305.26 146,-257 108.09,-234.08 75.71,-190.96 62.44,-171.71"/>
<polygon fill="midnightblue" stroke="midnightblue" points="792.03,-357.94 802.1,-361.24 796.29,-352.38 792.03,-357.94"/>
</g>
<!-- Node6 -->
<g id="node6" class="node">
<title>Node6</title>
<g id="a_node6"><a xlink:href="class_export.html#a966a54f05ada435d6d1ce6e4a9750f41" target="_top" xlink:title=" ">
<polygon fill="white" stroke="black" points="587,-456.5 587,-475.5 754,-475.5 754,-456.5 587,-456.5"/>
<text text-anchor="middle" x="670.5" y="-463.5" font-family="Helvetica,sans-Serif" font-size="10.00">Export::_checkALGdependency</text>
</a>
</g>
</g>
<!-- Node1&#45;&gt;Node6 -->
<g id="edge5" class="edge">
<title>Node1&#45;&gt;Node6</title>
<path fill="none" stroke="midnightblue" d="M802.53,-389.44C792.02,-405.58 774.72,-428.48 754,-442 744.38,-448.28 733.08,-452.95 721.99,-456.41"/>
<polygon fill="midnightblue" stroke="midnightblue" points="805.57,-391.19 807.91,-380.85 799.64,-387.47 805.57,-391.19"/>
</g>
<!-- Node7 -->
<g id="node7" class="node">
<title>Node7</title>
<g id="a_node7"><a xlink:href="class_export.html#a833aa02973f6b5c1f3e536e8646cf1ac" target="_top" xlink:title=" ">
<polygon fill="white" stroke="black" points="446.5,-456.5 446.5,-475.5 546.5,-475.5 546.5,-456.5 446.5,-456.5"/>
<text text-anchor="middle" x="496.5" y="-463.5" font-family="Helvetica,sans-Serif" font-size="10.00">Export::_loadALG</text>
</a>
</g>
</g>
<!-- Node1&#45;&gt;Node7 -->
<g id="edge16" class="edge">
<title>Node1&#45;&gt;Node7</title>
<path fill="none" stroke="midnightblue" d="M809.72,-390.73C803.41,-417.53 787.91,-464.45 754,-485 678.39,-530.83 566.3,-494.4 519.39,-475.54"/>
<polygon fill="midnightblue" stroke="midnightblue" points="813.22,-391.13 811.89,-380.62 806.37,-389.66 813.22,-391.13"/>
</g>
<!-- Node9 -->
<g id="node9" class="node">
<title>Node9</title>
<g id="a_node9"><a xlink:href="class_export.html#af64597af0c0b4cf569f96216bcd23b2c" target="_top" xlink:title=" ">
<polygon fill="white" stroke="black" points="444.5,-418.5 444.5,-437.5 548.5,-437.5 548.5,-418.5 444.5,-418.5"/>
<text text-anchor="middle" x="496.5" y="-425.5" font-family="Helvetica,sans-Serif" font-size="10.00">Export::_reporting</text>
</a>
</g>
</g>
<!-- Node1&#45;&gt;Node9 -->
<g id="edge17" class="edge">
<title>Node1&#45;&gt;Node9</title>
<path fill="none" stroke="midnightblue" d="M794.04,-386.93C782.99,-395.04 768.5,-404.18 754,-409 685.57,-431.76 601.4,-433.37 548.58,-431.45"/>
<polygon fill="midnightblue" stroke="midnightblue" points="796.29,-389.62 802.1,-380.76 792.03,-384.06 796.29,-389.62"/>
</g>
<!-- Node10 -->
<g id="node10" class="node">
<title>Node10</title>
<g id="a_node10"><a xlink:href="class_export.html#a59ba705b2369f21006ec7d7b7f3a4513" target="_top" xlink:title="Generate RIS reflection matrices.">
<polygon fill="white" stroke="black" points="612.5,-380.5 612.5,-399.5 728.5,-399.5 728.5,-380.5 612.5,-380.5"/>
<text text-anchor="middle" x="670.5" y="-387.5" font-family="Helvetica,sans-Serif" font-size="10.00">Export::_generateBF</text>
</a>
</g>
</g>
<!-- Node1&#45;&gt;Node10 -->
<g id="edge11" class="edge">
<title>Node1&#45;&gt;Node10</title>
<path fill="none" stroke="midnightblue" d="M779.75,-375.52C764.51,-377.56 746.07,-380.02 728.77,-382.34"/>
<polygon fill="midnightblue" stroke="midnightblue" points="780.28,-378.98 789.73,-374.18 779.36,-372.04 780.28,-378.98"/>
</g>
<!-- Node12 -->
<g id="node12" class="node">
<title>Node12</title>
<g id="a_node12"><a xlink:href="class_export.html#ad7268f886ac4826f4b6ea738e423e520" target="_top" xlink:title=" ">
<polygon fill="white" stroke="black" points="596.5,-342.5 596.5,-361.5 744.5,-361.5 744.5,-342.5 596.5,-342.5"/>
<text text-anchor="middle" x="670.5" y="-349.5" font-family="Helvetica,sans-Serif" font-size="10.00">Export::_generateChannels</text>
</a>
</g>
</g>
<!-- Node1&#45;&gt;Node12 -->
<g id="edge14" class="edge">
<title>Node1&#45;&gt;Node12</title>
<path fill="none" stroke="midnightblue" d="M779.57,-366.46C768.37,-364.96 755.46,-363.23 742.55,-361.51"/>
<polygon fill="midnightblue" stroke="midnightblue" points="779.36,-369.96 789.73,-367.82 780.28,-363.02 779.36,-369.96"/>
</g>
<!-- Node13 -->
<g id="node13" class="node">
<title>Node13</title>
<g id="a_node13"><a xlink:href="utils_8h.html#a4b2e6c6245b704aeb7448bf62b1cf422" target="_top" xlink:title=" ">
<polygon fill="white" stroke="black" points="644,-209.5 644,-228.5 697,-228.5 697,-209.5 644,-209.5"/>
<text text-anchor="middle" x="670.5" y="-216.5" font-family="Helvetica,sans-Serif" font-size="10.00">dataDir</text>
</a>
</g>
</g>
<!-- Node1&#45;&gt;Node13 -->
<g id="edge18" class="edge">
<title>Node1&#45;&gt;Node13</title>
<path fill="none" stroke="midnightblue" d="M799.15,-352.91C787.38,-338.31 770.09,-317.41 754,-300 729.2,-273.17 697.97,-243.55 681.98,-228.67"/>
<polygon fill="midnightblue" stroke="midnightblue" points="796.72,-355.48 805.71,-361.1 802.19,-351.1 796.72,-355.48"/>
</g>
<!-- Node23 -->
<g id="node23" class="node">
<title>Node23</title>
<g id="a_node23"><a xlink:href="class_simulate.html#a03ef6895241e8accb07491e98bbfcf0c" target="_top" xlink:title=" ">
<polygon fill="white" stroke="black" points="616,-114.5 616,-133.5 725,-133.5 725,-114.5 616,-114.5"/>
<text text-anchor="middle" x="670.5" y="-121.5" font-family="Helvetica,sans-Serif" font-size="10.00">Simulate::simulate</text>
</a>
</g>
</g>
<!-- Node1&#45;&gt;Node23 -->
<g id="edge32" class="edge">
<title>Node1&#45;&gt;Node23</title>
<path fill="none" stroke="midnightblue" d="M809.97,-351.55C803.27,-318.3 786.38,-249.35 754,-200 735.41,-171.67 703.98,-146.74 685.75,-133.68"/>
<polygon fill="midnightblue" stroke="midnightblue" points="806.54,-352.22 811.86,-361.38 813.41,-350.9 806.54,-352.22"/>
</g>
<!-- Node25 -->
<g id="node25" class="node">
<title>Node25</title>
<g id="a_node25"><a xlink:href="class_style.html#a06fd4016b36d2fa2e46c8c092701c7ea" target="_top" xlink:title="Call the astyle child process to style the generated C++ code.">
<polygon fill="white" stroke="black" points="635,-38.5 635,-57.5 706,-57.5 706,-38.5 635,-38.5"/>
<text text-anchor="middle" x="670.5" y="-45.5" font-family="Helvetica,sans-Serif" font-size="10.00">Style::style</text>
</a>
</g>
</g>
<!-- Node1&#45;&gt;Node25 -->
<g id="edge35" class="edge">
<title>Node1&#45;&gt;Node25</title>
<path fill="none" stroke="midnightblue" d="M813.81,-351.29C813.61,-304.43 807.52,-184.39 754,-105 739.11,-82.91 712.55,-66.87 693.59,-57.53"/>
<polygon fill="midnightblue" stroke="midnightblue" points="810.31,-351.31 813.76,-361.32 817.31,-351.34 810.31,-351.31"/>
</g>
<!-- Node3 -->
<g id="node3" class="node">
<title>Node3</title>
<g id="a_node3"><a xlink:href="class_export.html#affc37d1d677a83d3e5d36a4e37b7a72b" target="_top" xlink:title=" ">
<polygon fill="white" stroke="black" points="146,-399.5 146,-418.5 256,-418.5 256,-399.5 146,-399.5"/>
<text text-anchor="middle" x="201" y="-406.5" font-family="Helvetica,sans-Serif" font-size="10.00">Export::exportCode</text>
</a>
</g>
</g>
<!-- Node2&#45;&gt;Node3 -->
<g id="edge2" class="edge">
<title>Node2&#45;&gt;Node3</title>
<path fill="none" stroke="midnightblue" d="M324.56,-507.89C314.38,-501.13 302.43,-492.91 292,-485 262.34,-462.51 229.36,-433.59 212.78,-418.74"/>
<polygon fill="midnightblue" stroke="midnightblue" points="322.69,-510.85 332.96,-513.41 326.53,-505 322.69,-510.85"/>
</g>
<!-- Node4 -->
<g id="node4" class="node">
<title>Node4</title>
<g id="a_node4"><a xlink:href="class_export.html#a94fab568af6ddd6447efca74e205e081" target="_top" xlink:title=" ">
<polygon fill="white" stroke="black" points="0,-399.5 0,-418.5 110,-418.5 110,-399.5 0,-399.5"/>
<text text-anchor="middle" x="55" y="-406.5" font-family="Helvetica,sans-Serif" font-size="10.00">Export::exportCode</text>
</a>
</g>
</g>
<!-- Node3&#45;&gt;Node4 -->
<g id="edge3" class="edge">
<title>Node3&#45;&gt;Node4</title>
<path fill="none" stroke="midnightblue" d="M135.73,-409C127.25,-409 118.62,-409 110.33,-409"/>
<polygon fill="midnightblue" stroke="midnightblue" points="135.97,-412.5 145.97,-409 135.97,-405.5 135.97,-412.5"/>
</g>
<!-- Node3&#45;&gt;Node5 -->
<g id="edge4" class="edge">
<title>Node3&#45;&gt;Node5</title>
<path fill="none" stroke="midnightblue" d="M187.29,-390.96C176.02,-374.75 159.35,-350.14 146,-328 110.97,-269.88 73.75,-197.22 60.78,-171.53"/>
<polygon fill="midnightblue" stroke="midnightblue" points="184.63,-393.27 193.23,-399.46 190.37,-389.26 184.63,-393.27"/>
</g>
<!-- Node6&#45;&gt;Node7 -->
<g id="edge6" class="edge">
<title>Node6&#45;&gt;Node7</title>
<path fill="none" stroke="midnightblue" d="M576.77,-466C566.36,-466 556.08,-466 546.54,-466"/>
<polygon fill="midnightblue" stroke="midnightblue" points="576.77,-469.5 586.77,-466 576.77,-462.5 576.77,-469.5"/>
</g>
<!-- Node6&#45;&gt;Node9 -->
<g id="edge9" class="edge">
<title>Node6&#45;&gt;Node9</title>
<path fill="none" stroke="midnightblue" d="M616.3,-454.25C591.98,-448.87 563.55,-442.59 540.59,-437.52"/>
<polygon fill="midnightblue" stroke="midnightblue" points="615.58,-457.67 626.1,-456.41 617.09,-450.84 615.58,-457.67"/>
</g>
<!-- Node8 -->
<g id="node8" class="node">
<title>Node8</title>
<g id="a_node8"><a xlink:href="class_export.html#a89d3ae54dd2261cf35be148011b79fe4" target="_top" xlink:title=" ">
<polygon fill="white" stroke="black" points="293,-456.5 293,-475.5 405,-475.5 405,-456.5 293,-456.5"/>
<text text-anchor="middle" x="349" y="-463.5" font-family="Helvetica,sans-Serif" font-size="10.00">Export::_algorithms</text>
</a>
</g>
</g>
<!-- Node7&#45;&gt;Node8 -->
<g id="edge7" class="edge">
<title>Node7&#45;&gt;Node8</title>
<path fill="none" stroke="midnightblue" d="M436.16,-466C425.93,-466 415.33,-466 405.21,-466"/>
<polygon fill="midnightblue" stroke="midnightblue" points="436.24,-469.5 446.24,-466 436.24,-462.5 436.24,-469.5"/>
</g>
<!-- Node8&#45;&gt;Node3 -->
<g id="edge8" class="edge">
<title>Node8&#45;&gt;Node3</title>
<path fill="none" stroke="midnightblue" d="M314.18,-452.8C287.37,-442.33 250.55,-427.95 226.52,-418.57"/>
<polygon fill="midnightblue" stroke="midnightblue" points="312.97,-456.08 323.56,-456.46 315.52,-449.56 312.97,-456.08"/>
</g>
<!-- Node9&#45;&gt;Node3 -->
<g id="edge10" class="edge">
<title>Node9&#45;&gt;Node3</title>
<path fill="none" stroke="midnightblue" d="M434.16,-424.03C381.53,-420.62 306.41,-415.76 256.01,-412.5"/>
<polygon fill="midnightblue" stroke="midnightblue" points="434.17,-427.54 444.38,-424.69 434.62,-420.55 434.17,-427.54"/>
</g>
<!-- Node11 -->
<g id="node11" class="node">
<title>Node11</title>
<g id="a_node11"><a xlink:href="class_export.html#a26fa49d9882a342d011ba715e0c14109" target="_top" xlink:title=" ">
<polygon fill="white" stroke="black" points="297,-380.5 297,-399.5 401,-399.5 401,-380.5 297,-380.5"/>
<text text-anchor="middle" x="349" y="-387.5" font-family="Helvetica,sans-Serif" font-size="10.00">Export::_sounding</text>
</a>
</g>
</g>
<!-- Node10&#45;&gt;Node11 -->
<g id="edge12" class="edge">
<title>Node10&#45;&gt;Node11</title>
<path fill="none" stroke="midnightblue" d="M602.24,-390C542.21,-390 455.61,-390 401.09,-390"/>
<polygon fill="midnightblue" stroke="midnightblue" points="602.38,-393.5 612.38,-390 602.38,-386.5 602.38,-393.5"/>
</g>
<!-- Node11&#45;&gt;Node3 -->
<g id="edge13" class="edge">
<title>Node11&#45;&gt;Node3</title>
<path fill="none" stroke="midnightblue" d="M286.9,-397.95C276.73,-399.27 266.25,-400.64 256.26,-401.94"/>
<polygon fill="midnightblue" stroke="midnightblue" points="287.47,-401.41 296.94,-396.65 286.57,-394.47 287.47,-401.41"/>
</g>
<!-- Node12&#45;&gt;Node3 -->
<g id="edge15" class="edge">
<title>Node12&#45;&gt;Node3</title>
<path fill="none" stroke="midnightblue" d="M586.3,-347.96C509.05,-346.13 391.33,-348.28 292,-371 265.71,-377.01 237.36,-390.22 219.65,-399.36"/>
<polygon fill="midnightblue" stroke="midnightblue" points="586.37,-351.46 596.46,-348.23 586.55,-344.46 586.37,-351.46"/>
</g>
<!-- Node14 -->
<g id="node14" class="node">
<title>Node14</title>
<g id="a_node14"><a xlink:href="class_config.html#a2f8720e9953fb42b8304089c40fe896e" target="_top" xlink:title=" ">
<polygon fill="white" stroke="black" points="456.5,-152.5 456.5,-171.5 536.5,-171.5 536.5,-152.5 456.5,-152.5"/>
<text text-anchor="middle" x="496.5" y="-159.5" font-family="Helvetica,sans-Serif" font-size="10.00">Config::_load</text>
</a>
</g>
</g>
<!-- Node13&#45;&gt;Node14 -->
<g id="edge19" class="edge">
<title>Node13&#45;&gt;Node14</title>
<path fill="none" stroke="midnightblue" d="M633.94,-207.22C602.08,-196.66 555.91,-181.36 526.3,-171.54"/>
<polygon fill="midnightblue" stroke="midnightblue" points="633.16,-210.64 643.75,-210.47 635.36,-204 633.16,-210.64"/>
</g>
<!-- Node16 -->
<g id="node16" class="node">
<title>Node16</title>
<g id="a_node16"><a xlink:href="tools_2log_2log_8h.html#a5d2420c3e47ebff9cfe3c6004f0e62f7" target="_top" xlink:title=" ">
<polygon fill="white" stroke="black" points="457.5,-228.5 457.5,-247.5 535.5,-247.5 535.5,-228.5 457.5,-228.5"/>
<text text-anchor="middle" x="496.5" y="-235.5" font-family="Helvetica,sans-Serif" font-size="10.00">logFileName</text>
</a>
</g>
</g>
<!-- Node13&#45;&gt;Node16 -->
<g id="edge21" class="edge">
<title>Node13&#45;&gt;Node16</title>
<path fill="none" stroke="midnightblue" d="M633.74,-222.95C605.04,-226.12 564.84,-230.56 535.55,-233.8"/>
<polygon fill="midnightblue" stroke="midnightblue" points="634.19,-226.42 643.75,-221.84 633.43,-219.46 634.19,-226.42"/>
</g>
<!-- Node21 -->
<g id="node21" class="node">
<title>Node21</title>
<g id="a_node21"><a xlink:href="class_config.html#a4a54bc469b3d615089ee1df7b549c60b" target="_top" xlink:title=" ">
<polygon fill="white" stroke="black" points="457.5,-190.5 457.5,-209.5 535.5,-209.5 535.5,-190.5 457.5,-190.5"/>
<text text-anchor="middle" x="496.5" y="-197.5" font-family="Helvetica,sans-Serif" font-size="10.00">Config::write</text>
</a>
</g>
</g>
<!-- Node13&#45;&gt;Node21 -->
<g id="edge28" class="edge">
<title>Node13&#45;&gt;Node21</title>
<path fill="none" stroke="midnightblue" d="M633.74,-215.05C605.04,-211.88 564.84,-207.44 535.55,-204.2"/>
<polygon fill="midnightblue" stroke="midnightblue" points="633.43,-218.54 643.75,-216.16 634.19,-211.58 633.43,-218.54"/>
</g>
<!-- Node15 -->
<g id="node15" class="node">
<title>Node15</title>
<g id="a_node15"><a xlink:href="class_config.html#abd0c571c116924871e30444b192b792a" target="_top" xlink:title="Construct a new Config object.">
<polygon fill="white" stroke="black" points="307,-114.5 307,-133.5 391,-133.5 391,-114.5 307,-114.5"/>
<text text-anchor="middle" x="349" y="-121.5" font-family="Helvetica,sans-Serif" font-size="10.00">Config::Config</text>
</a>
</g>
</g>
<!-- Node14&#45;&gt;Node15 -->
<g id="edge20" class="edge">
<title>Node14&#45;&gt;Node15</title>
<path fill="none" stroke="midnightblue" d="M448.85,-149.82C428.65,-144.54 405.35,-138.46 386.45,-133.52"/>
<polygon fill="midnightblue" stroke="midnightblue" points="448.22,-153.27 458.78,-152.41 449.99,-146.5 448.22,-153.27"/>
</g>
<!-- Node17 -->
<g id="node17" class="node">
<title>Node17</title>
<g id="a_node17"><a xlink:href="tools_2log_2log_8h.html#ac630e3419ab42e9d249a4171f99f12e6" target="_top" xlink:title=" ">
<polygon fill="white" stroke="black" points="292,-228.5 292,-247.5 406,-247.5 406,-228.5 292,-228.5"/>
<text text-anchor="middle" x="349" y="-235.5" font-family="Helvetica,sans-Serif" font-size="10.00">copyLogToClipboard</text>
</a>
</g>
</g>
<!-- Node16&#45;&gt;Node17 -->
<g id="edge22" class="edge">
<title>Node16&#45;&gt;Node17</title>
<path fill="none" stroke="midnightblue" d="M447.03,-238C433.89,-238 419.56,-238 406.04,-238"/>
<polygon fill="midnightblue" stroke="midnightblue" points="447.27,-241.5 457.27,-238 447.27,-234.5 447.27,-241.5"/>
</g>
<!-- Node19 -->
<g id="node19" class="node">
<title>Node19</title>
<g id="a_node19"><a xlink:href="tools_2log_2log_8h.html#a9e3a1b6a9042b139e9d37ad8c8e6bcfe" target="_top" xlink:title="Get the log file name on the local machine.">
<polygon fill="white" stroke="black" points="297,-190.5 297,-209.5 401,-209.5 401,-190.5 297,-190.5"/>
<text text-anchor="middle" x="349" y="-197.5" font-family="Helvetica,sans-Serif" font-size="10.00">localLogFileName</text>
</a>
</g>
</g>
<!-- Node16&#45;&gt;Node19 -->
<g id="edge24" class="edge">
<title>Node16&#45;&gt;Node19</title>
<path fill="none" stroke="midnightblue" d="M448.85,-225.82C428.65,-220.54 405.35,-214.46 386.45,-209.52"/>
<polygon fill="midnightblue" stroke="midnightblue" points="448.22,-229.27 458.78,-228.41 449.99,-222.5 448.22,-229.27"/>
</g>
<!-- Node20 -->
<g id="node20" class="node">
<title>Node20</title>
<g id="a_node20"><a xlink:href="tools_2log_2log_8h.html#a6b9befdac8e9ce2119f15cc9e4159505" target="_top" xlink:title=" ">
<polygon fill="white" stroke="black" points="321,-266.5 321,-285.5 377,-285.5 377,-266.5 321,-266.5"/>
<text text-anchor="middle" x="349" y="-273.5" font-family="Helvetica,sans-Serif" font-size="10.00">printLog</text>
</a>
</g>
</g>
<!-- Node16&#45;&gt;Node20 -->
<g id="edge26" class="edge">
<title>Node16&#45;&gt;Node20</title>
<path fill="none" stroke="midnightblue" d="M448.92,-250.17C425.2,-256.36 397.2,-263.67 377.06,-268.93"/>
<polygon fill="midnightblue" stroke="midnightblue" points="449.99,-253.5 458.78,-247.59 448.22,-246.73 449.99,-253.5"/>
</g>
<!-- Node18 -->
<g id="node18" class="node">
<title>Node18</title>
<g id="a_node18"><a xlink:href="tools_2log_2log_8cpp.html#a0ddf1224851353fc92bfbff6f499fa97" target="_top" xlink:title=" ">
<polygon fill="white" stroke="black" points="180.5,-228.5 180.5,-247.5 221.5,-247.5 221.5,-228.5 180.5,-228.5"/>
<text text-anchor="middle" x="201" y="-235.5" font-family="Helvetica,sans-Serif" font-size="10.00">main</text>
</a>
</g>
</g>
<!-- Node17&#45;&gt;Node18 -->
<g id="edge23" class="edge">
<title>Node17&#45;&gt;Node18</title>
<path fill="none" stroke="midnightblue" d="M281.69,-238C259.85,-238 237.21,-238 221.67,-238"/>
<polygon fill="midnightblue" stroke="midnightblue" points="281.97,-241.5 291.97,-238 281.97,-234.5 281.97,-241.5"/>
</g>
<!-- Node19&#45;&gt;Node18 -->
<g id="edge25" class="edge">
<title>Node19&#45;&gt;Node18</title>
<path fill="none" stroke="midnightblue" d="M301.17,-212.19C274.33,-219.17 242.04,-227.58 221.77,-232.86"/>
<polygon fill="midnightblue" stroke="midnightblue" points="302.36,-215.5 311.16,-209.59 300.6,-208.72 302.36,-215.5"/>
</g>
<!-- Node20&#45;&gt;Node18 -->
<g id="edge27" class="edge">
<title>Node20&#45;&gt;Node18</title>
<path fill="none" stroke="midnightblue" d="M310.88,-266.34C282.42,-258.93 244.27,-249 221.5,-243.08"/>
<polygon fill="midnightblue" stroke="midnightblue" points="310.32,-269.81 320.88,-268.94 312.08,-263.04 310.32,-269.81"/>
</g>
<!-- Node22 -->
<g id="node22" class="node">
<title>Node22</title>
<g id="a_node22"><a xlink:href="class_config.html#acb4d35f12547cc3386078635fe051266" target="_top" xlink:title=" ">
<polygon fill="white" stroke="black" points="165,-152.5 165,-171.5 237,-171.5 237,-152.5 165,-152.5"/>
<text text-anchor="middle" x="201" y="-159.5" font-family="Helvetica,sans-Serif" font-size="10.00">Config::edit</text>
</a>
</g>
</g>
<!-- Node21&#45;&gt;Node22 -->
<g id="edge29" class="edge">
<title>Node21&#45;&gt;Node22</title>
<path fill="none" stroke="midnightblue" d="M447.41,-188.72C434.06,-185.88 419.51,-183.06 406,-181 347.1,-172.04 277.94,-166.67 237.17,-164.03"/>
<polygon fill="midnightblue" stroke="midnightblue" points="446.84,-192.17 457.35,-190.88 448.32,-185.33 446.84,-192.17"/>
</g>
<!-- Node22&#45;&gt;Node5 -->
<g id="edge30" class="edge">
<title>Node22&#45;&gt;Node5</title>
<path fill="none" stroke="midnightblue" d="M154.56,-162C128.08,-162 96.01,-162 75.81,-162"/>
<polygon fill="midnightblue" stroke="midnightblue" points="154.77,-165.5 164.77,-162 154.77,-158.5 154.77,-165.5"/>
</g>
<!-- Node23&#45;&gt;Node5 -->
<g id="edge33" class="edge">
<title>Node23&#45;&gt;Node5</title>
<path fill="none" stroke="midnightblue" d="M611.22,-112.77C592.11,-109.59 570.72,-106.57 551,-105 436.25,-95.86 406.3,-91.39 292,-105 210.17,-114.74 115.69,-142.85 75.6,-155.59"/>
<polygon fill="midnightblue" stroke="midnightblue" points="610.83,-116.25 621.28,-114.49 612.01,-109.35 610.83,-116.25"/>
</g>
<!-- Node24 -->
<g id="node24" class="node">
<title>Node24</title>
<g id="a_node24"><a xlink:href="class_simulate.html#a9b861e2a496da07d9377808c84c3e01b" target="_top" xlink:title=" ">
<polygon fill="white" stroke="black" points="442,-114.5 442,-133.5 551,-133.5 551,-114.5 442,-114.5"/>
<text text-anchor="middle" x="496.5" y="-121.5" font-family="Helvetica,sans-Serif" font-size="10.00">Simulate::simulate</text>
</a>
</g>
</g>
<!-- Node23&#45;&gt;Node24 -->
<g id="edge34" class="edge">
<title>Node23&#45;&gt;Node24</title>
<path fill="none" stroke="midnightblue" d="M605.26,-124C587.48,-124 568.37,-124 551.26,-124"/>
<polygon fill="midnightblue" stroke="midnightblue" points="605.55,-127.5 615.55,-124 605.55,-120.5 605.55,-127.5"/>
</g>
<!-- Node25&#45;&gt;Node5 -->
<g id="edge36" class="edge">
<title>Node25&#45;&gt;Node5</title>
<path fill="none" stroke="midnightblue" d="M624.58,-46.62C532.24,-45.16 315.52,-48.86 146,-107 115.51,-117.46 84.41,-139.53 67.94,-152.31"/>
<polygon fill="midnightblue" stroke="midnightblue" points="624.63,-50.12 634.69,-46.81 624.76,-43.12 624.63,-50.12"/>
</g>
<!-- Node26 -->
<g id="node26" class="node">
<title>Node26</title>
<g id="a_node26"><a xlink:href="class_style.html#a4202615ba5c3a3b4c1b81a53f9c62b63" target="_top" xlink:title="Call the astyle child process to style the generated C++ code.">
<polygon fill="white" stroke="black" points="461,-0.5 461,-19.5 532,-19.5 532,-0.5 461,-0.5"/>
<text text-anchor="middle" x="496.5" y="-7.5" font-family="Helvetica,sans-Serif" font-size="10.00">Style::style</text>
</a>
</g>
</g>
<!-- Node25&#45;&gt;Node26 -->
<g id="edge37" class="edge">
<title>Node25&#45;&gt;Node26</title>
<path fill="none" stroke="midnightblue" d="M624.85,-38.14C595.97,-31.76 558.94,-23.57 532.26,-17.68"/>
<polygon fill="midnightblue" stroke="midnightblue" points="624.17,-41.57 634.69,-40.31 625.68,-34.74 624.17,-41.57"/>
</g>
</g>
</svg>
