<?xml version="1.0" encoding="UTF-8" standalone="no"?>
<!DOCTYPE svg PUBLIC "-//W3C//DTD SVG 1.1//EN"
 "http://www.w3.org/Graphics/SVG/1.1/DTD/svg11.dtd">
<!-- Generated by graphviz version 2.43.0 (0)
 -->
<!-- Title: include/utils.h Pages: 1 -->
<svg width="912pt" height="95pt"
 viewBox="0.00 0.00 912.00 95.00" xmlns="http://www.w3.org/2000/svg" xmlns:xlink="http://www.w3.org/1999/xlink">
<g id="graph0" class="graph" transform="scale(1 1) rotate(0) translate(4 91)">
<title>include/utils.h</title>
<polygon fill="white" stroke="transparent" points="-4,4 -4,-91 908,-91 908,4 -4,4"/>
<!-- Node1 -->
<g id="node1" class="node">
<title>Node1</title>
<g id="a_node1"><a xlink:title="Utilities.">
<polygon fill="#bfbfbf" stroke="black" points="339.5,-67.5 339.5,-86.5 424.5,-86.5 424.5,-67.5 339.5,-67.5"/>
<text text-anchor="middle" x="382" y="-74.5" font-family="Helvetica,sans-Serif" font-size="10.00">include/utils.h</text>
</a>
</g>
</g>
<!-- Node2 -->
<g id="node2" class="node">
<title>Node2</title>
<g id="a_node2"><a xlink:title=" ">
<polygon fill="white" stroke="#bfbfbf" points="0,-6 0,-25 64,-25 64,-6 0,-6"/>
<text text-anchor="middle" x="32" y="-13" font-family="Helvetica,sans-Serif" font-size="10.00">algorithm</text>
</a>
</g>
</g>
<!-- Node1&#45;&gt;Node2 -->
<g id="edge1" class="edge">
<title>Node1&#45;&gt;Node2</title>
<path fill="none" stroke="midnightblue" d="M339.26,-72.44C279.16,-66.83 166.55,-54.12 73,-31 69.95,-30.25 66.8,-29.35 63.68,-28.39"/>
<polygon fill="midnightblue" stroke="midnightblue" points="64.48,-24.97 53.89,-25.13 62.27,-31.61 64.48,-24.97"/>
</g>
<!-- Node3 -->
<g id="node3" class="node">
<title>Node3</title>
<g id="a_node3"><a xlink:title=" ">
<polygon fill="white" stroke="#bfbfbf" points="82.5,-6 82.5,-25 131.5,-25 131.5,-6 82.5,-6"/>
<text text-anchor="middle" x="107" y="-13" font-family="Helvetica,sans-Serif" font-size="10.00">cctype</text>
</a>
</g>
</g>
<!-- Node1&#45;&gt;Node3 -->
<g id="edge2" class="edge">
<title>Node1&#45;&gt;Node3</title>
<path fill="none" stroke="midnightblue" d="M339.1,-70.87C290.37,-64.39 208.83,-51.53 141,-31 138.85,-30.35 136.66,-29.61 134.47,-28.81"/>
<polygon fill="midnightblue" stroke="midnightblue" points="135.66,-25.52 125.08,-25.08 133.08,-32.02 135.66,-25.52"/>
</g>
<!-- Node4 -->
<g id="node4" class="node">
<title>Node4</title>
<g id="a_node4"><a xlink:title=" ">
<polygon fill="white" stroke="#bfbfbf" points="150,-6 150,-25 204,-25 204,-6 150,-6"/>
<text text-anchor="middle" x="177" y="-13" font-family="Helvetica,sans-Serif" font-size="10.00">random</text>
</a>
</g>
</g>
<!-- Node1&#45;&gt;Node4 -->
<g id="edge3" class="edge">
<title>Node1&#45;&gt;Node4</title>
<path fill="none" stroke="midnightblue" d="M344.69,-67.46C310.19,-59.23 257.65,-45.87 213,-31 210.87,-30.29 208.69,-29.52 206.5,-28.72"/>
<polygon fill="midnightblue" stroke="midnightblue" points="207.61,-25.4 197.02,-25.07 205.1,-31.93 207.61,-25.4"/>
</g>
<!-- Node5 -->
<g id="node5" class="node">
<title>Node5</title>
<g id="a_node5"><a xlink:title=" ">
<polygon fill="white" stroke="#bfbfbf" points="222,-6 222,-25 278,-25 278,-6 222,-6"/>
<text text-anchor="middle" x="250" y="-13" font-family="Helvetica,sans-Serif" font-size="10.00">sstream</text>
</a>
</g>
</g>
<!-- Node1&#45;&gt;Node5 -->
<g id="edge4" class="edge">
<title>Node1&#45;&gt;Node5</title>
<path fill="none" stroke="midnightblue" d="M363.09,-67.48C340.84,-57.45 303.69,-40.7 278.07,-29.15"/>
<polygon fill="midnightblue" stroke="midnightblue" points="279.43,-25.93 268.88,-25.01 276.56,-32.31 279.43,-25.93"/>
</g>
<!-- Node6 -->
<g id="node6" class="node">
<title>Node6</title>
<g id="a_node6"><a xlink:title=" ">
<polygon fill="white" stroke="#bfbfbf" points="296,-6 296,-25 340,-25 340,-6 296,-6"/>
<text text-anchor="middle" x="318" y="-13" font-family="Helvetica,sans-Serif" font-size="10.00">string</text>
</a>
</g>
</g>
<!-- Node1&#45;&gt;Node6 -->
<g id="edge5" class="edge">
<title>Node1&#45;&gt;Node6</title>
<path fill="none" stroke="midnightblue" d="M372.83,-67.48C362.85,-58.2 346.69,-43.17 334.49,-31.83"/>
<polygon fill="midnightblue" stroke="midnightblue" points="336.86,-29.25 327.15,-25.01 332.09,-34.38 336.86,-29.25"/>
</g>
<!-- Node7 -->
<g id="node7" class="node">
<title>Node7</title>
<g id="a_node7"><a xlink:title=" ">
<polygon fill="white" stroke="#bfbfbf" points="358.5,-6 358.5,-25 405.5,-25 405.5,-6 358.5,-6"/>
<text text-anchor="middle" x="382" y="-13" font-family="Helvetica,sans-Serif" font-size="10.00">vector</text>
</a>
</g>
</g>
<!-- Node1&#45;&gt;Node7 -->
<g id="edge6" class="edge">
<title>Node1&#45;&gt;Node7</title>
<path fill="none" stroke="midnightblue" d="M382,-67.48C382,-59.08 382,-45.98 382,-35.16"/>
<polygon fill="midnightblue" stroke="midnightblue" points="385.5,-35.01 382,-25.01 378.5,-35.01 385.5,-35.01"/>
</g>
<!-- Node8 -->
<g id="node8" class="node">
<title>Node8</title>
<g id="a_node8"><a xlink:href="__boost__config_8h.html" target="_top" xlink:title="Boost Configurations.">
<polygon fill="white" stroke="black" points="424,-6 424,-25 516,-25 516,-6 424,-6"/>
<text text-anchor="middle" x="470" y="-13" font-family="Helvetica,sans-Serif" font-size="10.00">_boost_config.h</text>
</a>
</g>
</g>
<!-- Node1&#45;&gt;Node8 -->
<g id="edge7" class="edge">
<title>Node1&#45;&gt;Node8</title>
<path fill="none" stroke="midnightblue" d="M394.61,-67.48C408.72,-57.93 431.83,-42.31 448.75,-30.87"/>
<polygon fill="midnightblue" stroke="midnightblue" points="451.09,-33.51 457.42,-25.01 447.17,-27.71 451.09,-33.51"/>
</g>
<!-- Node9 -->
<g id="node9" class="node">
<title>Node9</title>
<g id="a_node9"><a xlink:title=" ">
<polygon fill="white" stroke="#bfbfbf" points="534.5,-0.5 534.5,-30.5 675.5,-30.5 675.5,-0.5 534.5,-0.5"/>
<text text-anchor="start" x="542.5" y="-18.5" font-family="Helvetica,sans-Serif" font-size="10.00">boost/dll/runtime_symbol</text>
<text text-anchor="middle" x="605" y="-7.5" font-family="Helvetica,sans-Serif" font-size="10.00">_info.hpp</text>
</a>
</g>
</g>
<!-- Node1&#45;&gt;Node9 -->
<g id="edge8" class="edge">
<title>Node1&#45;&gt;Node9</title>
<path fill="none" stroke="midnightblue" d="M413.95,-67.48C447.4,-58.55 500.78,-44.31 542.62,-33.14"/>
<polygon fill="midnightblue" stroke="midnightblue" points="543.68,-36.48 552.44,-30.52 541.88,-29.72 543.68,-36.48"/>
</g>
<!-- Node10 -->
<g id="node10" class="node">
<title>Node10</title>
<g id="a_node10"><a xlink:title=" ">
<polygon fill="white" stroke="#bfbfbf" points="694,-6 694,-25 740,-25 740,-6 694,-6"/>
<text text-anchor="middle" x="717" y="-13" font-family="Helvetica,sans-Serif" font-size="10.00">pwd.h</text>
</a>
</g>
</g>
<!-- Node1&#45;&gt;Node10 -->
<g id="edge9" class="edge">
<title>Node1&#45;&gt;Node10</title>
<path fill="none" stroke="midnightblue" d="M424.71,-73.41C484.11,-68.96 594.58,-57.63 685,-31 686.93,-30.43 688.9,-29.77 690.85,-29.04"/>
<polygon fill="midnightblue" stroke="midnightblue" points="692.51,-32.15 700.4,-25.08 689.82,-25.68 692.51,-32.15"/>
</g>
<!-- Node11 -->
<g id="node11" class="node">
<title>Node11</title>
<g id="a_node11"><a xlink:title=" ">
<polygon fill="white" stroke="#bfbfbf" points="758,-6 758,-25 830,-25 830,-6 758,-6"/>
<text text-anchor="middle" x="794" y="-13" font-family="Helvetica,sans-Serif" font-size="10.00">sys/types.h</text>
</a>
</g>
</g>
<!-- Node1&#45;&gt;Node11 -->
<g id="edge10" class="edge">
<title>Node1&#45;&gt;Node11</title>
<path fill="none" stroke="midnightblue" d="M424.55,-73.41C493.39,-68.64 633.18,-56.52 749,-31 752.86,-30.15 756.86,-29.11 760.8,-27.97"/>
<polygon fill="midnightblue" stroke="midnightblue" points="761.87,-31.31 770.41,-25.03 759.82,-24.61 761.87,-31.31"/>
</g>
<!-- Node12 -->
<g id="node12" class="node">
<title>Node12</title>
<g id="a_node12"><a xlink:title=" ">
<polygon fill="white" stroke="#bfbfbf" points="848,-6 848,-25 904,-25 904,-6 848,-6"/>
<text text-anchor="middle" x="876" y="-13" font-family="Helvetica,sans-Serif" font-size="10.00">unistd.h</text>
</a>
</g>
</g>
<!-- Node1&#45;&gt;Node12 -->
<g id="edge11" class="edge">
<title>Node1&#45;&gt;Node12</title>
<path fill="none" stroke="midnightblue" d="M424.54,-75.69C506.09,-74.25 689.59,-66.9 839,-31 841.83,-30.32 844.73,-29.47 847.61,-28.53"/>
<polygon fill="midnightblue" stroke="midnightblue" points="848.93,-31.77 857.12,-25.05 846.53,-25.19 848.93,-31.77"/>
</g>
</g>
</svg>
