<?xml version="1.0" encoding="UTF-8" standalone="no"?>
<!DOCTYPE svg PUBLIC "-//W3C//DTD SVG 1.1//EN"
 "http://www.w3.org/Graphics/SVG/1.1/DTD/svg11.dtd">
<!-- Generated by graphviz version 2.43.0 (0)
 -->
<!-- Title: include/utils.h Pages: 1 -->
<svg width="573pt" height="95pt"
 viewBox="0.00 0.00 572.50 95.00" xmlns="http://www.w3.org/2000/svg" xmlns:xlink="http://www.w3.org/1999/xlink">
<g id="graph0" class="graph" transform="scale(1 1) rotate(0) translate(4 91)">
<title>include/utils.h</title>
<polygon fill="white" stroke="transparent" points="-4,4 -4,-91 568.5,-91 568.5,4 -4,4"/>
<!-- Node1 -->
<g id="node1" class="node">
<title>Node1</title>
<g id="a_node1"><a xlink:title="Utilities.">
<polygon fill="#bfbfbf" stroke="black" points="207.5,-67.5 207.5,-86.5 292.5,-86.5 292.5,-67.5 207.5,-67.5"/>
<text text-anchor="middle" x="250" y="-74.5" font-family="Helvetica,sans-Serif" font-size="10.00">include/utils.h</text>
</a>
</g>
</g>
<!-- Node2 -->
<g id="node2" class="node">
<title>Node2</title>
<g id="a_node2"><a xlink:title=" ">
<polygon fill="white" stroke="#bfbfbf" points="0,-6 0,-25 64,-25 64,-6 0,-6"/>
<text text-anchor="middle" x="32" y="-13" font-family="Helvetica,sans-Serif" font-size="10.00">algorithm</text>
</a>
</g>
</g>
<!-- Node1&#45;&gt;Node2 -->
<g id="edge1" class="edge">
<title>Node1&#45;&gt;Node2</title>
<path fill="none" stroke="midnightblue" d="M212.43,-67.5C176.42,-59.1 120.64,-45.45 73,-31 70.38,-30.21 67.68,-29.35 64.98,-28.45"/>
<polygon fill="midnightblue" stroke="midnightblue" points="65.89,-25.07 55.29,-25.15 63.63,-31.69 65.89,-25.07"/>
</g>
<!-- Node3 -->
<g id="node3" class="node">
<title>Node3</title>
<g id="a_node3"><a xlink:title=" ">
<polygon fill="white" stroke="#bfbfbf" points="82.5,-6 82.5,-25 131.5,-25 131.5,-6 82.5,-6"/>
<text text-anchor="middle" x="107" y="-13" font-family="Helvetica,sans-Serif" font-size="10.00">cctype</text>
</a>
</g>
</g>
<!-- Node1&#45;&gt;Node3 -->
<g id="edge2" class="edge">
<title>Node1&#45;&gt;Node3</title>
<path fill="none" stroke="midnightblue" d="M229.07,-67.44C207.11,-58.45 171.58,-43.83 141,-31 139.59,-30.41 138.16,-29.81 136.71,-29.19"/>
<polygon fill="midnightblue" stroke="midnightblue" points="137.69,-25.81 127.12,-25.13 134.96,-32.25 137.69,-25.81"/>
</g>
<!-- Node4 -->
<g id="node4" class="node">
<title>Node4</title>
<g id="a_node4"><a xlink:title=" ">
<polygon fill="white" stroke="#bfbfbf" points="150,-6 150,-25 204,-25 204,-6 150,-6"/>
<text text-anchor="middle" x="177" y="-13" font-family="Helvetica,sans-Serif" font-size="10.00">random</text>
</a>
</g>
</g>
<!-- Node1&#45;&gt;Node4 -->
<g id="edge3" class="edge">
<title>Node1&#45;&gt;Node4</title>
<path fill="none" stroke="midnightblue" d="M239.54,-67.48C228.05,-58.11 209.37,-42.88 195.41,-31.51"/>
<polygon fill="midnightblue" stroke="midnightblue" points="197.4,-28.61 187.44,-25.01 192.98,-34.04 197.4,-28.61"/>
</g>
<!-- Node5 -->
<g id="node5" class="node">
<title>Node5</title>
<g id="a_node5"><a xlink:title=" ">
<polygon fill="white" stroke="#bfbfbf" points="222,-6 222,-25 278,-25 278,-6 222,-6"/>
<text text-anchor="middle" x="250" y="-13" font-family="Helvetica,sans-Serif" font-size="10.00">sstream</text>
</a>
</g>
</g>
<!-- Node1&#45;&gt;Node5 -->
<g id="edge4" class="edge">
<title>Node1&#45;&gt;Node5</title>
<path fill="none" stroke="midnightblue" d="M250,-67.48C250,-59.08 250,-45.98 250,-35.16"/>
<polygon fill="midnightblue" stroke="midnightblue" points="253.5,-35.01 250,-25.01 246.5,-35.01 253.5,-35.01"/>
</g>
<!-- Node6 -->
<g id="node6" class="node">
<title>Node6</title>
<g id="a_node6"><a xlink:title=" ">
<polygon fill="white" stroke="#bfbfbf" points="296,-6 296,-25 340,-25 340,-6 296,-6"/>
<text text-anchor="middle" x="318" y="-13" font-family="Helvetica,sans-Serif" font-size="10.00">string</text>
</a>
</g>
</g>
<!-- Node1&#45;&gt;Node6 -->
<g id="edge5" class="edge">
<title>Node1&#45;&gt;Node6</title>
<path fill="none" stroke="midnightblue" d="M259.74,-67.48C270.35,-58.2 287.52,-43.17 300.48,-31.83"/>
<polygon fill="midnightblue" stroke="midnightblue" points="303.05,-34.23 308.28,-25.01 298.44,-28.96 303.05,-34.23"/>
</g>
<!-- Node7 -->
<g id="node7" class="node">
<title>Node7</title>
<g id="a_node7"><a xlink:title=" ">
<polygon fill="white" stroke="#bfbfbf" points="358.5,-6 358.5,-25 405.5,-25 405.5,-6 358.5,-6"/>
<text text-anchor="middle" x="382" y="-13" font-family="Helvetica,sans-Serif" font-size="10.00">vector</text>
</a>
</g>
</g>
<!-- Node1&#45;&gt;Node7 -->
<g id="edge6" class="edge">
<title>Node1&#45;&gt;Node7</title>
<path fill="none" stroke="midnightblue" d="M268.91,-67.48C291.16,-57.45 328.31,-40.7 353.93,-29.15"/>
<polygon fill="midnightblue" stroke="midnightblue" points="355.44,-32.31 363.12,-25.01 352.57,-25.93 355.44,-32.31"/>
</g>
<!-- Node8 -->
<g id="node8" class="node">
<title>Node8</title>
<g id="a_node8"><a xlink:title=" ">
<polygon fill="white" stroke="#bfbfbf" points="423.5,-0.5 423.5,-30.5 564.5,-30.5 564.5,-0.5 423.5,-0.5"/>
<text text-anchor="start" x="431.5" y="-18.5" font-family="Helvetica,sans-Serif" font-size="10.00">boost/dll/runtime_symbol</text>
<text text-anchor="middle" x="494" y="-7.5" font-family="Helvetica,sans-Serif" font-size="10.00">_info.hpp</text>
</a>
</g>
</g>
<!-- Node1&#45;&gt;Node8 -->
<g id="edge7" class="edge">
<title>Node1&#45;&gt;Node8</title>
<path fill="none" stroke="midnightblue" d="M284.96,-67.48C321.79,-58.49 380.7,-44.13 426.61,-32.93"/>
<polygon fill="midnightblue" stroke="midnightblue" points="427.61,-36.29 436.49,-30.52 425.95,-29.49 427.61,-36.29"/>
</g>
</g>
</svg>
