<?xml version="1.0" encoding="UTF-8" standalone="no"?>
<!DOCTYPE svg PUBLIC "-//W3C//DTD SVG 1.1//EN"
 "http://www.w3.org/Graphics/SVG/1.1/DTD/svg11.dtd">
<!-- Generated by graphviz version 2.43.0 (0)
 -->
<!-- Title: include/export/value_vec.h Pages: 1 -->
<svg width="192pt" height="151pt"
 viewBox="0.00 0.00 191.50 151.00" xmlns="http://www.w3.org/2000/svg" xmlns:xlink="http://www.w3.org/1999/xlink">
<g id="graph0" class="graph" transform="scale(1 1) rotate(0) translate(4 147)">
<title>include/export/value_vec.h</title>
<polygon fill="white" stroke="transparent" points="-4,4 -4,-147 187.5,-147 187.5,4 -4,4"/>
<!-- Node1 -->
<g id="node1" class="node">
<title>Node1</title>
<g id="a_node1"><a xlink:title="Value Vector in .sim File.">
<polygon fill="#bfbfbf" stroke="black" points="35,-112.5 35,-142.5 151,-142.5 151,-112.5 35,-112.5"/>
<text text-anchor="start" x="43" y="-130.5" font-family="Helvetica,sans-Serif" font-size="10.00">include/export/value</text>
<text text-anchor="middle" x="93" y="-119.5" font-family="Helvetica,sans-Serif" font-size="10.00">_vec.h</text>
</a>
</g>
</g>
<!-- Node2 -->
<g id="node2" class="node">
<title>Node2</title>
<g id="a_node2"><a xlink:href="export_8h.html" target="_top" xlink:title="Export mmCEsim Configuration to Other Programming Languages.">
<polygon fill="white" stroke="black" points="45.5,-56.5 45.5,-75.5 140.5,-75.5 140.5,-56.5 45.5,-56.5"/>
<text text-anchor="middle" x="93" y="-63.5" font-family="Helvetica,sans-Serif" font-size="10.00">include/export.h</text>
</a>
</g>
</g>
<!-- Node1&#45;&gt;Node2 -->
<g id="edge1" class="edge">
<title>Node1&#45;&gt;Node2</title>
<path fill="none" stroke="midnightblue" d="M93,-102.29C93,-92.86 93,-82.65 93,-75.66"/>
<polygon fill="midnightblue" stroke="midnightblue" points="89.5,-102.4 93,-112.4 96.5,-102.4 89.5,-102.4"/>
</g>
<!-- Node3 -->
<g id="node3" class="node">
<title>Node3</title>
<g id="a_node3"><a xlink:href="export_8cpp.html" target="_top" xlink:title="Implementation of Export Class.">
<polygon fill="white" stroke="black" points="0,-0.5 0,-19.5 86,-19.5 86,-0.5 0,-0.5"/>
<text text-anchor="middle" x="43" y="-7.5" font-family="Helvetica,sans-Serif" font-size="10.00">src/export.cpp</text>
</a>
</g>
</g>
<!-- Node2&#45;&gt;Node3 -->
<g id="edge2" class="edge">
<title>Node2&#45;&gt;Node3</title>
<path fill="none" stroke="midnightblue" d="M77.92,-48.72C69.11,-39.2 58.33,-27.56 51.1,-19.75"/>
<polygon fill="midnightblue" stroke="midnightblue" points="75.38,-51.12 84.74,-56.08 80.52,-46.37 75.38,-51.12"/>
</g>
<!-- Node4 -->
<g id="node4" class="node">
<title>Node4</title>
<g id="a_node4"><a xlink:href="src_2main_8cpp.html" target="_top" xlink:title="Program Command Line Options.">
<polygon fill="white" stroke="black" points="104.5,-0.5 104.5,-19.5 183.5,-19.5 183.5,-0.5 104.5,-0.5"/>
<text text-anchor="middle" x="144" y="-7.5" font-family="Helvetica,sans-Serif" font-size="10.00">src/main.cpp</text>
</a>
</g>
</g>
<!-- Node2&#45;&gt;Node4 -->
<g id="edge3" class="edge">
<title>Node2&#45;&gt;Node4</title>
<path fill="none" stroke="midnightblue" d="M108.38,-48.72C117.37,-39.2 128.36,-27.56 135.74,-19.75"/>
<polygon fill="midnightblue" stroke="midnightblue" points="105.74,-46.41 101.42,-56.08 110.83,-51.22 105.74,-46.41"/>
</g>
</g>
</svg>
