<?xml version="1.0" encoding="UTF-8" standalone="no"?>
<!DOCTYPE svg PUBLIC "-//W3C//DTD SVG 1.1//EN"
 "http://www.w3.org/Graphics/SVG/1.1/DTD/svg11.dtd">
<!-- Generated by graphviz version 2.43.0 (0)
 -->
<!-- Title: include/yaml.h Pages: 1 -->
<svg width="463pt" height="207pt"
 viewBox="0.00 0.00 462.50 207.00" xmlns="http://www.w3.org/2000/svg" xmlns:xlink="http://www.w3.org/1999/xlink">
<g id="graph0" class="graph" transform="scale(1 1) rotate(0) translate(4 203)">
<title>include/yaml.h</title>
<polygon fill="white" stroke="transparent" points="-4,4 -4,-203 458.5,-203 458.5,4 -4,4"/>
<!-- Node1 -->
<g id="node1" class="node">
<title>Node1</title>
<g id="a_node1"><a xlink:title="Wrapper for yaml&#45;cpp for static linking.">
<polygon fill="#bfbfbf" stroke="black" points="248,-179.5 248,-198.5 337,-198.5 337,-179.5 248,-179.5"/>
<text text-anchor="middle" x="292.5" y="-186.5" font-family="Helvetica,sans-Serif" font-size="10.00">include/yaml.h</text>
</a>
</g>
</g>
<!-- Node2 -->
<g id="node2" class="node">
<title>Node2</title>
<g id="a_node2"><a xlink:href="config_8h.html" target="_top" xlink:title="Read and Write User Configuration.">
<polygon fill="white" stroke="black" points="118,-118 118,-137 211,-137 211,-118 118,-118"/>
<text text-anchor="middle" x="164.5" y="-125" font-family="Helvetica,sans-Serif" font-size="10.00">include/config.h</text>
</a>
</g>
</g>
<!-- Node1&#45;&gt;Node2 -->
<g id="edge1" class="edge">
<title>Node1&#45;&gt;Node2</title>
<path fill="none" stroke="midnightblue" d="M264.91,-175.17C240.07,-163.63 204.27,-146.99 182.81,-137.01"/>
<polygon fill="midnightblue" stroke="midnightblue" points="263.62,-178.43 274.16,-179.48 266.57,-172.09 263.62,-178.43"/>
</g>
<!-- Node7 -->
<g id="node7" class="node">
<title>Node7</title>
<g id="a_node7"><a xlink:href="value__vec_8h.html" target="_top" xlink:title=" ">
<polygon fill="white" stroke="black" points="234.5,-112.5 234.5,-142.5 350.5,-142.5 350.5,-112.5 234.5,-112.5"/>
<text text-anchor="start" x="242.5" y="-130.5" font-family="Helvetica,sans-Serif" font-size="10.00">include/export/value</text>
<text text-anchor="middle" x="292.5" y="-119.5" font-family="Helvetica,sans-Serif" font-size="10.00">_vec.h</text>
</a>
</g>
</g>
<!-- Node1&#45;&gt;Node7 -->
<g id="edge7" class="edge">
<title>Node1&#45;&gt;Node7</title>
<path fill="none" stroke="midnightblue" d="M292.5,-169.23C292.5,-160.59 292.5,-150.5 292.5,-142.52"/>
<polygon fill="midnightblue" stroke="midnightblue" points="289,-169.48 292.5,-179.48 296,-169.48 289,-169.48"/>
</g>
<!-- Node10 -->
<g id="node10" class="node">
<title>Node10</title>
<g id="a_node10"><a xlink:href="read_8h.html" target="_top" xlink:title="Read YAML Configuration.">
<polygon fill="white" stroke="black" points="368.5,-118 368.5,-137 454.5,-137 454.5,-118 368.5,-118"/>
<text text-anchor="middle" x="411.5" y="-125" font-family="Helvetica,sans-Serif" font-size="10.00">include/read.h</text>
</a>
</g>
</g>
<!-- Node1&#45;&gt;Node10 -->
<g id="edge11" class="edge">
<title>Node1&#45;&gt;Node10</title>
<path fill="none" stroke="midnightblue" d="M318.77,-174.87C341.83,-163.33 374.7,-146.9 394.48,-137.01"/>
<polygon fill="midnightblue" stroke="midnightblue" points="316.93,-171.87 309.55,-179.48 320.06,-178.13 316.93,-171.87"/>
</g>
<!-- Node3 -->
<g id="node3" class="node">
<title>Node3</title>
<g id="a_node3"><a xlink:href="simulate_8h.html" target="_top" xlink:title="Simulate Generated Code.">
<polygon fill="white" stroke="black" points="101,-56.5 101,-75.5 208,-75.5 208,-56.5 101,-56.5"/>
<text text-anchor="middle" x="154.5" y="-63.5" font-family="Helvetica,sans-Serif" font-size="10.00">include/simulate.h</text>
</a>
</g>
</g>
<!-- Node2&#45;&gt;Node3 -->
<g id="edge2" class="edge">
<title>Node2&#45;&gt;Node3</title>
<path fill="none" stroke="midnightblue" d="M161.36,-107.82C159.54,-97 157.34,-83.9 155.93,-75.51"/>
<polygon fill="midnightblue" stroke="midnightblue" points="157.96,-108.69 163.07,-117.98 164.86,-107.53 157.96,-108.69"/>
</g>
<!-- Node4 -->
<g id="node4" class="node">
<title>Node4</title>
<g id="a_node4"><a xlink:href="src_2main_8cpp.html" target="_top" xlink:title="Program Command Line Options.">
<polygon fill="white" stroke="black" points="197,-0.5 197,-19.5 276,-19.5 276,-0.5 197,-0.5"/>
<text text-anchor="middle" x="236.5" y="-7.5" font-family="Helvetica,sans-Serif" font-size="10.00">src/main.cpp</text>
</a>
</g>
</g>
<!-- Node2&#45;&gt;Node4 -->
<g id="edge6" class="edge">
<title>Node2&#45;&gt;Node4</title>
<path fill="none" stroke="midnightblue" d="M184.32,-111.45C195.19,-102.27 208.12,-89.69 216.5,-76 227.72,-57.67 233.09,-32.55 235.26,-19.56"/>
<polygon fill="midnightblue" stroke="midnightblue" points="182.09,-108.75 176.52,-117.77 186.49,-114.19 182.09,-108.75"/>
</g>
<!-- Node6 -->
<g id="node6" class="node">
<title>Node6</title>
<g id="a_node6"><a xlink:href="config_8cpp.html" target="_top" xlink:title="Implementation of Config Class.">
<polygon fill="white" stroke="black" points="0,-56.5 0,-75.5 83,-75.5 83,-56.5 0,-56.5"/>
<text text-anchor="middle" x="41.5" y="-63.5" font-family="Helvetica,sans-Serif" font-size="10.00">src/config.cpp</text>
</a>
</g>
</g>
<!-- Node2&#45;&gt;Node6 -->
<g id="edge5" class="edge">
<title>Node2&#45;&gt;Node6</title>
<path fill="none" stroke="midnightblue" d="M137.67,-113.52C113.81,-101.98 79.63,-85.44 59.09,-75.51"/>
<polygon fill="midnightblue" stroke="midnightblue" points="136.35,-116.77 146.88,-117.98 139.4,-110.47 136.35,-116.77"/>
</g>
<!-- Node3&#45;&gt;Node4 -->
<g id="edge3" class="edge">
<title>Node3&#45;&gt;Node4</title>
<path fill="none" stroke="midnightblue" d="M176.33,-50.62C191.31,-40.76 210.7,-27.99 223.36,-19.65"/>
<polygon fill="midnightblue" stroke="midnightblue" points="174.1,-47.9 167.67,-56.32 177.95,-53.75 174.1,-47.9"/>
</g>
<!-- Node5 -->
<g id="node5" class="node">
<title>Node5</title>
<g id="a_node5"><a xlink:href="simulate_8cpp.html" target="_top" xlink:title="Implementation of Simulate Class.">
<polygon fill="white" stroke="black" points="82,-0.5 82,-19.5 179,-19.5 179,-0.5 82,-0.5"/>
<text text-anchor="middle" x="130.5" y="-7.5" font-family="Helvetica,sans-Serif" font-size="10.00">src/simulate.cpp</text>
</a>
</g>
</g>
<!-- Node3&#45;&gt;Node5 -->
<g id="edge4" class="edge">
<title>Node3&#45;&gt;Node5</title>
<path fill="none" stroke="midnightblue" d="M146.36,-46.69C142.32,-37.59 137.62,-27.01 134.39,-19.75"/>
<polygon fill="midnightblue" stroke="midnightblue" points="143.28,-48.37 150.54,-56.08 149.67,-45.52 143.28,-48.37"/>
</g>
<!-- Node8 -->
<g id="node8" class="node">
<title>Node8</title>
<g id="a_node8"><a xlink:href="export_8h.html" target="_top" xlink:title="Export mmCEsim Configuration to Other Programming Languages.">
<polygon fill="white" stroke="black" points="265,-56.5 265,-75.5 360,-75.5 360,-56.5 265,-56.5"/>
<text text-anchor="middle" x="312.5" y="-63.5" font-family="Helvetica,sans-Serif" font-size="10.00">include/export.h</text>
</a>
</g>
</g>
<!-- Node7&#45;&gt;Node8 -->
<g id="edge8" class="edge">
<title>Node7&#45;&gt;Node8</title>
<path fill="none" stroke="midnightblue" d="M300.43,-102.9C303.66,-93.3 307.19,-82.81 309.59,-75.66"/>
<polygon fill="midnightblue" stroke="midnightblue" points="297.11,-101.81 297.24,-112.4 303.74,-104.04 297.11,-101.81"/>
</g>
<!-- Node8&#45;&gt;Node4 -->
<g id="edge10" class="edge">
<title>Node8&#45;&gt;Node4</title>
<path fill="none" stroke="midnightblue" d="M291.92,-50.38C278.19,-40.62 260.57,-28.11 248.93,-19.83"/>
<polygon fill="midnightblue" stroke="midnightblue" points="290.11,-53.38 300.29,-56.32 294.16,-47.68 290.11,-53.38"/>
</g>
<!-- Node9 -->
<g id="node9" class="node">
<title>Node9</title>
<g id="a_node9"><a xlink:href="export_8cpp.html" target="_top" xlink:title="Implementation of Export Class.">
<polygon fill="white" stroke="black" points="294.5,-0.5 294.5,-19.5 380.5,-19.5 380.5,-0.5 294.5,-0.5"/>
<text text-anchor="middle" x="337.5" y="-7.5" font-family="Helvetica,sans-Serif" font-size="10.00">src/export.cpp</text>
</a>
</g>
</g>
<!-- Node8&#45;&gt;Node9 -->
<g id="edge9" class="edge">
<title>Node8&#45;&gt;Node9</title>
<path fill="none" stroke="midnightblue" d="M320.84,-46.98C325.08,-37.82 330.05,-27.09 333.45,-19.75"/>
<polygon fill="midnightblue" stroke="midnightblue" points="317.65,-45.54 316.63,-56.08 324.01,-48.48 317.65,-45.54"/>
</g>
<!-- Node10&#45;&gt;Node8 -->
<g id="edge12" class="edge">
<title>Node10&#45;&gt;Node8</title>
<path fill="none" stroke="midnightblue" d="M388.61,-112.74C369.49,-101.25 342.82,-85.22 326.66,-75.51"/>
<polygon fill="midnightblue" stroke="midnightblue" points="386.94,-115.82 397.32,-117.98 390.55,-109.82 386.94,-115.82"/>
</g>
<!-- Node11 -->
<g id="node11" class="node">
<title>Node11</title>
<g id="a_node11"><a xlink:href="read_8cpp.html" target="_top" xlink:title="Implementation of class YAML_Error and ReadConfig.">
<polygon fill="white" stroke="black" points="378.5,-56.5 378.5,-75.5 454.5,-75.5 454.5,-56.5 378.5,-56.5"/>
<text text-anchor="middle" x="416.5" y="-63.5" font-family="Helvetica,sans-Serif" font-size="10.00">src/read.cpp</text>
</a>
</g>
</g>
<!-- Node10&#45;&gt;Node11 -->
<g id="edge13" class="edge">
<title>Node10&#45;&gt;Node11</title>
<path fill="none" stroke="midnightblue" d="M413.07,-107.82C413.98,-97 415.08,-83.9 415.78,-75.51"/>
<polygon fill="midnightblue" stroke="midnightblue" points="409.57,-107.72 412.22,-117.98 416.54,-108.3 409.57,-107.72"/>
</g>
</g>
</svg>
